# This file uses meters as units for non-parametric coordinates.

v 296.148071 74.610519 1481.358032
v -207.157593 74.610519 -1481.358032
v 296.148071 74.610519 -1481.358032
v -207.157593 74.610519 -1089.818726
v -486.558228 74.610519 -1089.818726
v -486.558228 74.610519 1067.520630
v 296.148071 74.610519 -353.533264
v 296.148071 74.610519 544.418091
v 486.558228 74.610519 -353.533264
v 486.558228 74.610519 544.418091
v -486.558228 -210.125198 1067.520630
v 296.148071 -210.125198 1481.358032
v 296.148071 -210.125198 544.418091
v -207.157593 -210.125198 -1481.358032
v 296.148071 -210.125198 -1481.358032
v -207.157593 -210.125198 -1089.818726
v -486.558228 -210.125198 -1089.818726
v 296.148071 -210.125198 -353.533264
v 486.558228 -210.125198 544.418091
v 486.558228 -210.125198 -353.533264
v -322.745972 296.408630 -507.661896
v 157.506714 296.408630 -507.661896
v -322.745972 296.408630 581.128601
v 157.506714 296.408630 581.128601
v -322.745972 74.610519 -507.661896
v 157.506714 74.610519 -507.661896
v -322.745972 74.610519 581.128601
v 157.506714 74.610519 581.128601
v -226.859131 -296.408630 672.264038
v -207.157593 -296.408630 -588.573608
v 172.166138 -296.408630 -588.573608
v -207.157593 -296.408630 -425.094757
v -395.358734 -296.408630 -425.094757
v -395.358734 -296.408630 672.264038
v 172.166138 -296.408630 -226.062012
v -226.859131 -296.408630 979.645752
v 256.098785 -296.408630 -226.062012
v 256.098785 -296.408630 979.645630
v -395.358734 -210.125198 667.177795
v -226.859131 -210.125198 667.177795
v -226.859131 -210.125198 974.559387
v -207.157593 -210.125198 -593.659790
v 172.166138 -210.125198 -593.659790
v -207.157593 -210.125198 -430.180969
v -395.358734 -210.125198 -430.180969
v 172.166138 -210.125198 -231.148148
v 256.098785 -210.125198 974.559265
v 256.098785 -210.125198 -231.148148
v -95.205078 74.610519 1067.520630
v -95.205078 -210.125198 1067.520630
v -95.205078 74.610519 1481.358032
v -95.205078 -210.125198 1481.358032
vt 0.499806 0.088641
vt 0.499806 0.010603
vt 0.499806 0.010603
vt 0.499806 0.010603
vt 0.499806 0.010603
vt 0.499806 0.010603
vt 0.499806 0.010603
vt 0.499806 0.010603
vt 0.499806 0.010603
vt 0.499806 0.010603
vt 0.499806 0.010603
vt 0.499806 0.065480
vt 0.499806 0.065480
vt 0.499806 0.065480
vt 0.499806 0.065480
vt 0.499806 0.065480
vt 0.499806 0.065480
vt 0.499806 0.065480
vt 0.499806 0.065480
vt 0.499806 0.065480
vt 0.499806 0.065480
vt 0.499806 0.065480
vt 0.499806 0.065480
vt 0.499806 0.065480
vt 0.499806 0.065480
vt 0.499806 0.065480
vt 0.499806 0.065480
vt 0.499806 0.065480
vt 0.499806 0.065480
vt 0.499806 0.065480
vt 0.499806 0.065480
vt 0.499806 0.065480
vt 0.499806 0.065480
vt 0.499806 0.065480
vt 0.499806 0.065480
vt 0.499806 0.065480
vt 0.499806 0.065480
vt 0.499806 0.065480
vt 0.499806 0.065480
vt 0.499806 0.030931
vt 0.499806 0.030931
vt 0.499806 0.030931
vt 0.499806 0.030931
vt 0.499806 0.030931
vt 0.499806 0.030931
vt 0.499806 0.030931
vt 0.499806 0.030931
vt 0.499806 0.030931
vt 0.499806 0.030931
vt 0.499806 0.030931
vt 0.499806 0.030931
vt 0.499806 0.030931
vt 0.499806 0.030931
vt 0.499806 0.030931
vt 0.499806 0.030931
vt 0.499806 0.030931
vt 0.499806 0.030931
vt 0.499806 0.030931
vt 0.499806 0.030931
vt 0.499806 0.088673
vt 0.499806 0.088648
vt 0.499806 0.088664
vt 0.499806 0.088660
vt 0.499806 0.088675
vt 0.499806 0.088678
vt 0.499806 0.088615
vt 0.499806 0.088658
vt 0.499806 0.088622
vt 0.499806 0.088625
vt 0.499806 0.088654
vt 0.499806 0.088658
vt 0.499806 0.088629
vt 0.499806 0.030931
vt 0.499806 0.030931
vt 0.499806 0.030931
vt 0.499806 0.030931
vt 0.499806 0.030931
vt 0.499806 0.030931
vt 0.499806 0.030931
vt 0.499806 0.030931
vt 0.499806 0.030931
vt 0.499806 0.030931
vt 0.499806 0.030931
vt 0.499806 0.030931
vt 0.499806 0.030931
vt 0.499806 0.030931
vt 0.499806 0.030931
vt 0.499806 0.030931
vt 0.499806 0.030931
vt 0.499806 0.030931
vt 0.499806 0.030931
vt 0.499806 0.030931
vt 0.499806 0.030931
vt 0.499806 0.030931
vt 0.499806 0.030931
vt 0.499806 0.030931
vt 0.499806 0.030931
vt 0.499806 0.030931
vt 0.499806 0.030931
vt 0.499806 0.030931
vt 0.499806 0.030931
vt 0.499806 0.030931
vt 0.499806 0.030931
vt 0.499806 0.030931
vt 0.499806 0.030931
vt 0.499806 0.030931
vt 0.499806 0.030931
vt 0.499806 0.030931
vt 0.499806 0.030931
vt 0.499806 0.030931
vt 0.499806 0.030931
vt 0.499806 0.030931
vt 0.499806 0.030931
vt 0.499806 0.030931
vt 0.499806 0.030931
vt 0.499806 0.030931
vt 0.499806 0.030931
vt 0.499806 0.030931
vt 0.499806 0.030931
vt 0.499806 0.030931
vt 0.499806 0.088637
vt 0.499806 0.030931
vt 0.499806 0.030931
vt 0.499806 0.088647
vt 0.499806 0.030931
vt 0.499806 0.030931
vt 0.500367 0.052521
vt 0.500367 0.052521
vt 0.500367 0.052521
vt 0.500367 0.052521
vt 0.499976 0.014920
vt 0.499976 0.014920
vt 0.499976 0.014920
vt 0.499976 0.014920
vt 0.499976 0.014920
vt 0.499976 0.014920
vt 0.499976 0.014920
vt 0.499976 0.014920
vt 0.499976 0.014920
vt 0.499976 0.014920
vt 0.499976 0.014920
vt 0.499976 0.014920
vt 0.499976 0.014920
vt 0.499976 0.014920
vt 0.499976 0.014920
vt 0.499976 0.014920
vt 0.499976 0.014920
vt 0.499976 0.014920
vn 0.000000 1.000000 0.000000
vn 0.000000 1.000000 0.000000
vn 0.000000 1.000000 0.000000
vn 0.000000 1.000000 0.000000
vn 0.000000 1.000000 0.000000
vn 0.000000 1.000000 0.000000
vn 0.000000 1.000000 0.000000
vn 0.000000 1.000000 0.000000
vn 0.000000 1.000000 0.000000
vn 0.000000 1.000000 0.000000
vn 0.000000 1.000000 0.000000
vn 0.000000 1.000000 0.000000
vn 0.000000 1.000000 0.000000
vn 0.000000 1.000000 0.000000
vn 0.000000 0.000000 1.000000
vn 0.000000 0.000000 1.000000
vn 0.000000 0.000000 1.000000
vn 0.000000 0.000000 1.000000
vn 1.000000 0.000000 0.000000
vn 1.000000 0.000000 0.000000
vn 1.000000 0.000000 0.000000
vn 1.000000 0.000000 0.000000
vn 0.000000 0.000000 -1.000000
vn 0.000000 0.000000 -1.000000
vn 0.000000 0.000000 -1.000000
vn 0.000000 0.000000 -1.000000
vn -1.000000 0.000000 0.000000
vn -1.000000 0.000000 0.000000
vn -1.000000 0.000000 0.000000
vn -1.000000 0.000000 0.000000
vn 1.000000 0.000000 0.000000
vn 1.000000 0.000000 0.000000
vn 1.000000 0.000000 0.000000
vn 1.000000 0.000000 0.000000
vn 0.000000 0.000000 -1.000000
vn 0.000000 0.000000 -1.000000
vn 0.000000 0.000000 -1.000000
vn 0.000000 0.000000 -1.000000
vn -1.000000 0.000000 0.000000
vn -1.000000 0.000000 0.000000
vn -1.000000 0.000000 0.000000
vn -1.000000 0.000000 0.000000
vn 0.000000 0.000000 1.000000
vn 0.000000 0.000000 1.000000
vn 0.000000 0.000000 1.000000
vn 0.000000 0.000000 1.000000
vn 0.000000 0.000000 -1.000000
vn 0.000000 0.000000 -1.000000
vn 0.000000 0.000000 -1.000000
vn 0.000000 0.000000 -1.000000
vn 1.000000 0.000000 0.000000
vn 1.000000 0.000000 0.000000
vn 1.000000 0.000000 0.000000
vn 1.000000 0.000000 0.000000
vn 0.000000 1.000000 0.000000
vn 0.000000 1.000000 0.000000
vn 0.000000 1.000000 0.000000
vn 0.000000 1.000000 0.000000
vn 0.000000 0.000000 -1.000000
vn 0.000000 0.000000 -1.000000
vn 0.000000 0.000000 -1.000000
vn 0.000000 0.000000 -1.000000
vn -1.000000 0.000000 0.000000
vn -1.000000 0.000000 0.000000
vn -1.000000 0.000000 0.000000
vn -1.000000 0.000000 0.000000
vn 1.000000 0.000000 0.000000
vn 1.000000 0.000000 0.000000
vn 1.000000 0.000000 0.000000
vn 1.000000 0.000000 0.000000
vn 0.000000 0.000000 1.000000
vn 0.000000 0.000000 1.000000
vn 0.000000 0.000000 1.000000
vn 0.000000 0.000000 1.000000
vn 0.000000 -1.000000 0.000000
vn 0.000000 -1.000000 0.000000
vn 0.000000 -1.000000 0.000000
vn 0.000000 -1.000000 0.000000
vn 0.000000 -1.000000 -0.000000
vn 0.000000 -1.000000 -0.000000
vn 0.000000 -1.000000 -0.000000
vn 0.000000 -1.000000 -0.000000
vn 0.000000 -1.000000 0.000000
vn 0.000000 -1.000000 0.000000
vn 0.000000 -1.000000 0.000000
vn 0.000000 -1.000000 0.000000
vn 0.000000 -1.000000 0.000000
vn 0.000000 -1.000000 0.000000
vn 0.000000 0.058846 0.998267
vn 0.000000 0.058846 0.998267
vn 0.000000 0.058846 0.998267
vn 0.000000 0.058846 0.998267
vn -1.000000 0.000000 0.000000
vn -1.000000 0.000000 0.000000
vn -1.000000 0.000000 0.000000
vn -1.000000 0.000000 0.000000
vn 0.000000 -0.058846 -0.998267
vn 0.000000 -0.058846 -0.998267
vn 0.000000 -0.058846 -0.998267
vn 0.000000 -0.058846 -0.998267
vn -1.000000 0.000000 0.000000
vn -1.000000 0.000000 0.000000
vn -1.000000 0.000000 0.000000
vn -1.000000 0.000000 0.000000
vn 0.000000 -0.058846 -0.998267
vn 0.000000 -0.058846 -0.998267
vn 0.000000 -0.058846 -0.998267
vn 0.000000 -0.058846 -0.998267
vn -1.000000 0.000000 0.000000
vn -1.000000 0.000000 0.000000
vn -1.000000 0.000000 0.000000
vn -1.000000 0.000000 0.000000
vn 1.000000 -0.000000 0.000000
vn 1.000000 -0.000000 0.000000
vn 1.000000 -0.000000 0.000000
vn 1.000000 -0.000000 0.000000
vn 0.000000 0.058847 0.998267
vn 0.000000 0.058847 0.998267
vn 0.000000 0.058847 0.998267
vn 0.000000 0.058847 0.998267
vn 0.000000 -0.058845 -0.998267
vn 0.000000 -0.058845 -0.998267
vn 0.000000 -0.058845 -0.998267
vn 0.000000 -0.058845 -0.998267
vn 1.000000 0.000000 0.000000
vn 1.000000 0.000000 0.000000
vn 1.000000 0.000000 0.000000
vn 1.000000 0.000000 0.000000
vn 0.000000 0.000000 1.000000
vn 0.000000 0.000000 1.000000
vn 0.000000 0.000000 1.000000
vn 0.000000 0.000000 1.000000
vn -1.000000 0.000000 0.000000
vn -1.000000 0.000000 0.000000
vn -1.000000 0.000000 0.000000
vn -1.000000 0.000000 0.000000
vn 0.000000 -1.000000 -0.000000
vn 0.000000 -1.000000 -0.000000
vn 0.000000 -1.000000 -0.000000
vn 0.000000 -1.000000 -0.000000
vn 0.000000 -1.000000 -0.000000
vn 0.000000 -1.000000 -0.000000
vn 0.000000 -1.000000 -0.000000
vn 0.000000 -1.000000 0.000000
vn 0.000000 -1.000000 0.000000
vn 0.000000 -1.000000 0.000000
vn 0.000000 -1.000000 0.000000
vn 0.000000 -1.000000 0.000000
vn 0.000000 -1.000000 0.000000
vn 0.000000 -1.000000 0.000000
vn 0.000000 -1.000000 0.000000
vn 0.000000 -1.000000 0.000000
vn 0.000000 -1.000000 0.000000
vn 0.000000 -1.000000 0.000000
s off
f 7/62/1 3/60/2 2/61/3 4/1/4 5/68/5 6/66/6 49/121/7 51/124/8 1/67/9 8/63/10
f 7/62/11 8/63/12 10/64/13 9/65/14
f 1/73/15 51/125/16 52/126/17 12/76/18
f 8/12/19 1/13/20 12/14/21 13/15/22
f 2/77/23 3/78/24 15/79/25 14/80/26
f 4/16/27 2/17/28 14/18/29 16/19/30
f 18/23/31 15/21/32 3/20/33 7/22/34
f 5/81/35 4/82/36 16/83/37 17/84/38
f 6/24/39 5/25/40 17/26/41 11/27/42
f 10/85/43 8/86/44 13/87/45 19/88/46
f 7/89/47 9/90/48 20/91/49 18/92/50
f 9/28/51 10/29/52 19/30/53 20/31/54
f 23/69/55 24/70/56 22/71/57 21/72/58
f 21/93/59 22/94/60 26/95/61 25/96/62
f 23/32/63 21/33/64 25/34/65 27/35/66
f 22/36/67 24/37/68 28/38/69 26/39/70
f 24/97/71 23/98/72 27/99/73 28/100/74
f 35/5/75 32/2/76 30/3/77 31/4/78
f 35/5/79 37/6/80 38/7/81 36/8/82
f 34/9/83 33/10/84 32/2/85 35/5/86 36/8/87 29/11/88
f 29/101/89 40/102/90 39/103/91 34/104/92
f 36/40/93 41/41/94 40/42/95 29/43/96
f 30/105/97 42/106/98 43/107/99 31/108/100
f 32/44/101 44/45/102 42/46/103 30/47/104
f 33/109/105 45/110/106 44/111/107 32/112/108
f 34/52/109 39/53/110 45/54/111 33/55/112
f 43/49/113 46/50/114 35/51/115 31/48/116
f 38/113/117 47/114/118 41/115/119 36/116/120
f 35/117/121 46/118/122 48/119/123 37/120/124
f 37/56/125 48/57/126 47/58/127 38/59/128
f 50/123/129 49/122/130 6/74/131 11/75/132
f 52/127/133 51/128/134 49/129/135 50/130/136
f 11/131/137 17/132/138 16/133/139 14/139/140 15/140/141 18/141/142 50/138/143
f 13/134/144 18/135/145 20/136/146 19/137/147
f 50/142/148 18/143/149 13/144/150 12/145/151
f 50/146/152 12/147/153 52/148/154
