# This file uses meters as units for non-parametric coordinates.

v -707.644043 -379.436340 1077.612061
v 419.777832 -379.436340 1077.612061
v -707.644043 2.497864 1077.612061
v 419.777832 2.497864 1077.612061
v -707.644043 2.497864 -1128.741211
v 419.777832 2.497864 -1128.741211
v -707.644043 -379.436340 -1128.741211
v 419.777832 -379.436340 -1128.741211
v -417.048340 2.497864 1077.612061
v -588.657104 2.497864 -1128.741211
v -588.657104 -379.436340 -1128.741211
v -417.048340 -379.436340 1077.612061
v -417.048340 -379.436340 1802.294312
v -417.048340 2.497864 1802.294312
v 419.777832 -379.436340 1802.294312
v 419.777832 2.497864 1802.294312
v -588.657104 2.497864 -2004.345703
v -588.657104 -379.436340 -2004.345703
v 419.777832 2.497864 -2004.345703
v 419.777832 -379.436340 -2004.345703
v 172.930908 2.497864 -2004.345703
v 172.930908 -379.436340 -2004.345703
v -203.078613 2.497864 -2503.984131
v -203.078613 -379.436340 -2503.984131
v 172.930908 2.497864 -2503.984131
v 172.930908 -379.436340 -2503.984131
v 707.644043 -379.436340 -1128.741211
v 707.644043 -379.436340 1077.612061
v 707.644043 2.497864 -1128.741211
v 707.644043 2.497864 1077.612061
v 279.499512 287.233582 1321.159058
v -223.806152 287.233582 -811.261475
v 279.499512 287.233582 -811.261475
v -223.806152 287.233582 -1643.796143
v -503.206787 287.233582 -1643.796143
v -503.206787 287.233582 907.321716
v 279.499512 287.233582 -513.732239
v 279.499512 287.233582 384.219116
v 469.909668 287.233582 -513.732239
v 469.909668 287.233582 384.219116
v -503.206787 2.497864 907.321716
v 279.499512 2.497864 1321.159058
v 279.499512 2.497864 384.219116
v -223.806152 2.497864 -811.261475
v 279.499512 2.497864 -811.261475
v -223.806152 2.497864 -1643.796143
v -503.206787 2.497864 -1643.796143
v 279.499512 2.497864 -513.732239
v 469.909668 2.497864 384.219116
v 469.909668 2.497864 -513.732239
v -339.394531 509.031677 -667.860840
v 140.858154 509.031677 -667.860840
v -339.394531 509.031677 420.929626
v 140.858154 509.031677 420.929626
v -339.394531 287.233582 -667.860840
v 140.858154 287.233582 -667.860840
v -339.394531 287.233582 420.929626
v 140.858154 287.233582 420.929626
v 155.517578 -509.031677 512.065063
v -223.806152 -509.031677 -1928.569946
v 155.517578 -509.031677 -1928.569946
v -223.806152 -509.031677 -933.443237
v 155.517578 -509.031677 -933.443237
v -503.206787 -509.031677 -933.443237
v -503.206787 -509.031677 512.065063
v 155.517578 -509.031677 -528.697754
v 155.517578 -509.031677 869.126831
v 380.057373 -509.031677 -528.697754
v 380.057373 -509.031677 869.126648
v -503.206787 -379.436340 506.978821
v 155.517578 -379.436340 506.978821
v 155.517578 -379.436340 864.040466
v -223.806152 -379.436340 -1933.656006
v 155.517578 -379.436340 -1933.656006
v -223.806152 -379.436340 -938.529419
v 155.517578 -379.436340 -938.529419
v -503.206787 -379.436340 -938.529419
v 155.517578 -379.436340 -533.783936
v 380.057373 -379.436340 864.040283
v 380.057373 -379.436340 -533.783936
v -203.078613 2.497864 -2004.345703
v -203.078613 -379.436340 -2004.345703
v -240.507202 -379.436340 1802.294312
v -240.507050 -147.862549 1802.294312
v 90.096130 -379.436340 1802.293945
v 90.096130 -147.862549 1802.294312
v -240.507050 -379.436340 2503.984131
v -240.507050 -147.862549 2503.984131
v 90.096130 -379.436340 2503.984131
v 90.096130 -147.862549 2503.984131
v -111.853638 287.233582 907.321716
v -111.853638 2.497864 907.321716
v -111.853638 287.233582 1321.159058
v -111.853638 2.497864 1321.159058
vt 0.499806 0.010603
vt 0.499806 0.088605
vt 0.499806 0.010603
vt 0.499806 0.010603
vt 0.499806 0.010603
vt 0.499806 0.010603
vt 0.499806 0.010603
vt 0.499806 0.010603
vt 0.499806 0.010603
vt 0.499806 0.010603
vt 0.499806 0.010603
vt 0.499806 0.010603
vt 0.499806 0.010603
vt 0.499806 0.088679
vt 0.499806 0.010603
vt 0.499806 0.010603
vt 0.499806 0.010603
vt 0.499806 0.010603
vt 0.499806 0.010603
vt 0.499806 0.010603
vt 0.499806 0.088635
vt 0.499806 0.088615
vt 0.499806 0.088679
vt 0.499806 0.088690
vt 0.499806 0.088679
vt 0.499806 0.088679
vt 0.499806 0.088676
vt 0.499806 0.088698
vt 0.499806 0.088643
vt 0.499806 0.088682
vt 0.499806 0.088649
vt 0.499806 0.088692
vt 0.499806 0.088702
vt 0.499806 0.088641
vt 0.499806 0.010603
vt 0.499806 0.010603
vt 0.499806 0.010603
vt 0.499806 0.010603
vt 0.499806 0.010603
vt 0.499806 0.010603
vt 0.499806 0.010603
vt 0.499806 0.010603
vt 0.499806 0.010603
vt 0.499806 0.010603
vt 0.499806 0.010603
vt 0.499806 0.065480
vt 0.499806 0.065480
vt 0.499806 0.065480
vt 0.499806 0.065480
vt 0.499806 0.065480
vt 0.499806 0.065480
vt 0.499806 0.065480
vt 0.499806 0.065480
vt 0.499806 0.065480
vt 0.499806 0.065480
vt 0.499806 0.065480
vt 0.499806 0.065480
vt 0.499806 0.065480
vt 0.499806 0.065480
vt 0.499806 0.065480
vt 0.499806 0.065480
vt 0.499806 0.065480
vt 0.499806 0.065480
vt 0.499806 0.065480
vt 0.499806 0.065480
vt 0.499806 0.065480
vt 0.499806 0.065480
vt 0.499806 0.065480
vt 0.499806 0.065480
vt 0.499806 0.065480
vt 0.499806 0.065480
vt 0.499806 0.065480
vt 0.499806 0.065480
vt 0.499806 0.065480
vt 0.499806 0.065480
vt 0.499806 0.065480
vt 0.499806 0.065480
vt 0.499806 0.065480
vt 0.499806 0.065480
vt 0.499806 0.065480
vt 0.499806 0.065480
vt 0.499806 0.065480
vt 0.499806 0.065480
vt 0.499806 0.065480
vt 0.499806 0.065480
vt 0.499806 0.065480
vt 0.499806 0.065480
vt 0.499806 0.065480
vt 0.499806 0.065480
vt 0.499806 0.065480
vt 0.499806 0.065480
vt 0.499806 0.065480
vt 0.499806 0.065480
vt 0.499806 0.065480
vt 0.499806 0.065480
vt 0.499806 0.065480
vt 0.499806 0.065480
vt 0.499806 0.065480
vt 0.499806 0.065480
vt 0.499806 0.065480
vt 0.499806 0.065480
vt 0.499806 0.065480
vt 0.499806 0.065480
vt 0.499806 0.030931
vt 0.499806 0.030931
vt 0.499806 0.030931
vt 0.499806 0.030931
vt 0.499806 0.030931
vt 0.499806 0.030931
vt 0.499806 0.030931
vt 0.499806 0.030931
vt 0.499806 0.030931
vt 0.499806 0.030931
vt 0.499806 0.030931
vt 0.499806 0.030931
vt 0.499806 0.030931
vt 0.499806 0.030931
vt 0.499806 0.030931
vt 0.499806 0.030931
vt 0.499806 0.030931
vt 0.499806 0.030931
vt 0.499806 0.030931
vt 0.499806 0.030931
vt 0.499806 0.030931
vt 0.499806 0.030931
vt 0.499806 0.088673
vt 0.499806 0.088648
vt 0.499806 0.088664
vt 0.499806 0.088660
vt 0.499806 0.088675
vt 0.499806 0.088678
vt 0.499806 0.088615
vt 0.499806 0.088658
vt 0.499806 0.088622
vt 0.499806 0.088625
vt 0.499806 0.088654
vt 0.499806 0.088658
vt 0.499806 0.088629
vt 0.499806 0.030931
vt 0.499806 0.030931
vt 0.499806 0.030931
vt 0.499806 0.030931
vt 0.499806 0.030931
vt 0.499806 0.030931
vt 0.499806 0.030931
vt 0.499806 0.030931
vt 0.499806 0.030931
vt 0.499806 0.030931
vt 0.499806 0.030931
vt 0.499806 0.030931
vt 0.499806 0.030931
vt 0.499806 0.030931
vt 0.499806 0.030931
vt 0.499806 0.030931
vt 0.499806 0.030931
vt 0.499806 0.030931
vt 0.499806 0.030931
vt 0.499806 0.030931
vt 0.499806 0.030931
vt 0.499806 0.030931
vt 0.499806 0.030931
vt 0.499806 0.030931
vt 0.499806 0.030931
vt 0.499806 0.030931
vt 0.499806 0.030931
vt 0.499806 0.030931
vt 0.499806 0.030931
vt 0.499806 0.030931
vt 0.499806 0.030931
vt 0.499806 0.030931
vt 0.499806 0.030931
vt 0.499806 0.030931
vt 0.499806 0.030931
vt 0.499806 0.030931
vt 0.499806 0.030931
vt 0.499806 0.030931
vt 0.499806 0.030931
vt 0.499806 0.030931
vt 0.499806 0.030931
vt 0.499806 0.030931
vt 0.499806 0.030931
vt 0.499806 0.030931
vt 0.499806 0.030931
vt 0.499806 0.030931
vt 0.499806 0.030931
vt 0.499806 0.030931
vt 0.499806 0.030931
vt 0.499806 0.030931
vt 0.499806 0.030931
vt 0.499806 0.030931
vt 0.499806 0.030931
vt 0.499806 0.030931
vt 0.499806 0.030931
vt 0.499806 0.030931
vt 0.499806 0.030931
vt 0.499806 0.030931
vt 0.499806 0.030931
vt 0.499806 0.030931
vt 0.499806 0.030931
vt 0.499806 0.030931
vt 0.499806 0.030931
vt 0.499806 0.030931
vt 0.499806 0.030931
vt 0.499806 0.030931
vt 0.499806 0.030931
vt 0.499806 0.030931
vt 0.499806 0.030931
vt 0.499806 0.030931
vt 0.499806 0.030931
vt 0.499806 0.030931
vt 0.499806 0.030931
vt 0.499806 0.030931
vt 0.499806 0.030931
vt 0.499806 0.030931
vt 0.499806 0.065480
vt 0.499806 0.088653
vt 0.499806 0.010603
vt 0.499806 0.065480
vt 0.499806 0.030931
vt 0.499806 0.030931
vt 0.499806 0.030931
vt 0.499806 0.030931
vt 0.499806 0.030931
vt 0.499806 0.030931
vt 0.499806 0.030931
vt 0.499806 0.030931
vt 0.499806 0.010603
vt 0.499806 0.010603
vt 0.499806 0.088679
vt 0.499806 0.088679
vt 0.499806 0.088679
vt 0.499806 0.088679
vt 0.499806 0.010603
vt 0.499806 0.010603
vt 0.499806 0.010603
vt 0.499806 0.010603
vt 0.499806 0.065480
vt 0.499806 0.065480
vt 0.499806 0.065480
vt 0.499806 0.065480
vt 0.499806 0.065480
vt 0.499806 0.065480
vt 0.499806 0.065480
vt 0.499806 0.065480
vt 0.499806 0.088637
vt 0.499806 0.030931
vt 0.499806 0.030931
vt 0.499806 0.088647
vt 0.499806 0.030931
vt 0.499806 0.030931
vt 0.500367 0.052521
vt 0.500367 0.052521
vt 0.500367 0.052521
vt 0.500367 0.052521
vn 0.000000 0.000000 1.000000
vn 0.000000 0.000000 1.000000
vn 0.000000 0.000000 1.000000
vn 0.000000 0.000000 1.000000
vn 0.000000 1.000000 0.000000
vn 0.000000 1.000000 0.000000
vn 0.000000 1.000000 0.000000
vn 0.000000 1.000000 0.000000
vn 0.000000 0.000000 -1.000000
vn 0.000000 0.000000 -1.000000
vn 0.000000 0.000000 -1.000000
vn 0.000000 0.000000 -1.000000
vn 0.000000 -1.000000 0.000000
vn 0.000000 -1.000000 0.000000
vn 0.000000 -1.000000 0.000000
vn 0.000000 -1.000000 0.000000
vn 1.000000 0.000000 0.000000
vn 1.000000 0.000000 0.000000
vn 1.000000 0.000000 0.000000
vn 1.000000 0.000000 0.000000
vn -1.000000 0.000000 0.000000
vn -1.000000 0.000000 0.000000
vn -1.000000 0.000000 0.000000
vn -1.000000 0.000000 0.000000
vn 0.000000 1.000000 0.000000
vn 0.000000 1.000000 0.000000
vn 0.000000 1.000000 0.000000
vn 0.000000 1.000000 0.000000
vn 0.000000 0.000000 -1.000000
vn 0.000000 0.000000 -1.000000
vn 0.000000 0.000000 -1.000000
vn 0.000000 0.000000 -1.000000
vn 0.000000 -1.000000 0.000000
vn 0.000000 -1.000000 0.000000
vn 0.000000 -1.000000 0.000000
vn 0.000000 -1.000000 0.000000
vn 0.000000 0.000000 1.000000
vn 0.000000 0.000000 1.000000
vn 0.000000 0.000000 1.000000
vn 0.000000 0.000000 1.000000
vn -1.000000 0.000000 0.000000
vn -1.000000 0.000000 0.000000
vn -1.000000 0.000000 0.000000
vn -1.000000 0.000000 0.000000
vn 0.000000 -1.000000 0.000000
vn 0.000000 -1.000000 0.000000
vn 0.000000 -1.000000 0.000000
vn 1.000000 0.000000 0.000000
vn 1.000000 0.000000 0.000000
vn 1.000000 0.000000 0.000000
vn 1.000000 0.000000 0.000000
vn 0.000000 1.000000 0.000000
vn 0.000000 1.000000 0.000000
vn 0.000000 1.000000 0.000000
vn 0.000000 1.000000 0.000000
vn -1.000000 0.000000 0.000000
vn -1.000000 0.000000 0.000000
vn -1.000000 0.000000 0.000000
vn -1.000000 0.000000 0.000000
vn 0.000000 1.000000 -0.000000
vn 0.000000 1.000000 -0.000000
vn 0.000000 1.000000 -0.000000
vn 0.000000 1.000000 -0.000000
vn 1.000000 0.000000 0.000000
vn 1.000000 0.000000 0.000000
vn 1.000000 0.000000 0.000000
vn 1.000000 0.000000 0.000000
vn 0.000000 -1.000000 0.000000
vn 0.000000 -1.000000 0.000000
vn 0.000000 -1.000000 0.000000
vn 0.000000 -1.000000 0.000000
vn 0.000000 0.000000 -1.000000
vn 0.000000 0.000000 -1.000000
vn 0.000000 0.000000 -1.000000
vn 0.000000 0.000000 -1.000000
vn 0.000000 0.000000 -1.000000
vn 0.000000 0.000000 -1.000000
vn 0.000000 0.000000 -1.000000
vn 0.000000 0.000000 -1.000000
vn 0.000000 1.000000 0.000000
vn 0.000000 1.000000 0.000000
vn 0.000000 1.000000 0.000000
vn 0.000000 1.000000 0.000000
vn 1.000000 0.000000 0.000000
vn 1.000000 0.000000 0.000000
vn 1.000000 0.000000 0.000000
vn 1.000000 0.000000 0.000000
vn 0.000000 -1.000000 0.000000
vn 0.000000 -1.000000 0.000000
vn 0.000000 -1.000000 0.000000
vn 0.000000 -1.000000 0.000000
vn 0.000000 -1.000000 0.000000
vn 0.000000 -1.000000 0.000000
vn 0.000000 -1.000000 0.000000
vn 0.000000 -1.000000 0.000000
vn 0.000000 0.000000 -1.000000
vn 0.000000 0.000000 -1.000000
vn 0.000000 0.000000 -1.000000
vn 0.000000 0.000000 -1.000000
vn 0.000000 1.000000 0.000000
vn 0.000000 1.000000 0.000000
vn 0.000000 1.000000 0.000000
vn 0.000000 1.000000 0.000000
vn 0.000000 0.000000 1.000000
vn 0.000000 0.000000 1.000000
vn 0.000000 0.000000 1.000000
vn 0.000000 0.000000 1.000000
vn 0.000000 1.000000 0.000000
vn 0.000000 1.000000 0.000000
vn 0.000000 1.000000 0.000000
vn 0.000000 1.000000 0.000000
vn 0.000000 -1.000000 0.000000
vn 0.000000 -1.000000 0.000000
vn 0.000000 -1.000000 0.000000
vn 0.000000 -1.000000 0.000000
vn 0.000000 1.000000 0.000000
vn 0.000000 1.000000 0.000000
vn 0.000000 1.000000 0.000000
vn 0.000000 1.000000 0.000000
vn 0.000000 1.000000 0.000000
vn 0.000000 1.000000 0.000000
vn 0.000000 1.000000 0.000000
vn 0.000000 1.000000 0.000000
vn 0.000000 1.000000 0.000000
vn 0.000000 1.000000 0.000000
vn 0.000000 1.000000 0.000000
vn 0.000000 1.000000 0.000000
vn 0.000000 1.000000 0.000000
vn 0.000000 1.000000 0.000000
vn 0.000000 0.000000 1.000000
vn 0.000000 0.000000 1.000000
vn 0.000000 0.000000 1.000000
vn 0.000000 0.000000 1.000000
vn 1.000000 0.000000 0.000000
vn 1.000000 0.000000 0.000000
vn 1.000000 0.000000 0.000000
vn 1.000000 0.000000 0.000000
vn 0.000000 0.000000 -1.000000
vn 0.000000 0.000000 -1.000000
vn 0.000000 0.000000 -1.000000
vn 0.000000 0.000000 -1.000000
vn 1.000000 0.000000 0.000000
vn 1.000000 0.000000 0.000000
vn 1.000000 0.000000 0.000000
vn 1.000000 0.000000 0.000000
vn 1.000000 0.000000 0.000000
vn 1.000000 0.000000 0.000000
vn 1.000000 0.000000 0.000000
vn 1.000000 0.000000 0.000000
vn 0.000000 0.000000 -1.000000
vn 0.000000 0.000000 -1.000000
vn 0.000000 0.000000 -1.000000
vn 0.000000 0.000000 -1.000000
vn -1.000000 0.000000 0.000000
vn -1.000000 0.000000 0.000000
vn -1.000000 0.000000 0.000000
vn -1.000000 0.000000 0.000000
vn 0.000000 0.000000 1.000000
vn 0.000000 0.000000 1.000000
vn 0.000000 0.000000 1.000000
vn 0.000000 0.000000 1.000000
vn 0.000000 0.000000 -1.000000
vn 0.000000 0.000000 -1.000000
vn 0.000000 0.000000 -1.000000
vn 0.000000 0.000000 -1.000000
vn 1.000000 0.000000 0.000000
vn 1.000000 0.000000 0.000000
vn 1.000000 0.000000 0.000000
vn 1.000000 0.000000 0.000000
vn 0.000000 1.000000 0.000000
vn 0.000000 1.000000 0.000000
vn 0.000000 1.000000 0.000000
vn 0.000000 1.000000 0.000000
vn 0.000000 0.000000 -1.000000
vn 0.000000 0.000000 -1.000000
vn 0.000000 0.000000 -1.000000
vn 0.000000 0.000000 -1.000000
vn -1.000000 0.000000 0.000000
vn -1.000000 0.000000 0.000000
vn -1.000000 0.000000 0.000000
vn -1.000000 0.000000 0.000000
vn 1.000000 0.000000 0.000000
vn 1.000000 0.000000 0.000000
vn 1.000000 0.000000 0.000000
vn 1.000000 0.000000 0.000000
vn 0.000000 0.000000 1.000000
vn 0.000000 0.000000 1.000000
vn 0.000000 0.000000 1.000000
vn 0.000000 0.000000 1.000000
vn 0.000000 -1.000000 0.000000
vn 0.000000 -1.000000 0.000000
vn 0.000000 -1.000000 0.000000
vn 0.000000 -1.000000 0.000000
vn 0.000000 -1.000000 0.000000
vn 0.000000 -1.000000 0.000000
vn 0.000000 -1.000000 0.000000
vn 0.000000 -1.000000 0.000000
vn 0.000000 -1.000000 0.000000
vn 0.000000 -1.000000 0.000000
vn 0.000000 -1.000000 0.000000
vn 0.000000 -1.000000 0.000000
vn 0.000000 -1.000000 0.000000
vn 0.000000 -1.000000 0.000000
vn 0.000000 -1.000000 0.000000
vn 0.000000 -0.000000 0.000000
vn 0.000000 -1.000000 0.000000
vn 0.000000 0.039217 0.999231
vn 0.000000 0.039217 0.999231
vn 0.000000 0.039217 0.999231
vn 0.000000 0.039217 0.999231
vn -1.000000 0.000000 0.000000
vn -1.000000 0.000000 0.000000
vn -1.000000 0.000000 0.000000
vn -1.000000 0.000000 0.000000
vn 0.000000 -0.039216 -0.999231
vn 0.000000 -0.039216 -0.999231
vn 0.000000 -0.039216 -0.999231
vn 0.000000 -0.039216 -0.999231
vn -1.000000 -0.000000 0.000000
vn -1.000000 -0.000000 0.000000
vn -1.000000 -0.000000 0.000000
vn -1.000000 -0.000000 0.000000
vn 1.000000 -0.000000 0.000000
vn 1.000000 -0.000000 0.000000
vn 1.000000 -0.000000 0.000000
vn 1.000000 -0.000000 0.000000
vn 0.000000 -0.039217 -0.999231
vn 0.000000 -0.039217 -0.999231
vn 0.000000 -0.039217 -0.999231
vn 0.000000 -0.039217 -0.999231
vn -1.000000 0.000000 0.000000
vn -1.000000 0.000000 0.000000
vn -1.000000 0.000000 0.000000
vn -1.000000 0.000000 0.000000
vn 1.000000 0.000000 0.000000
vn 1.000000 0.000000 0.000000
vn 1.000000 0.000000 0.000000
vn 1.000000 0.000000 0.000000
vn 0.000001 0.039218 0.999231
vn 0.000001 0.039218 0.999231
vn 0.000001 0.039218 0.999231
vn 0.000001 0.039218 0.999231
vn 0.000000 -0.039216 -0.999231
vn 0.000000 -0.039216 -0.999231
vn 0.000000 -0.039216 -0.999231
vn 0.000000 -0.039216 -0.999231
vn 1.000000 -0.000000 0.000000
vn 1.000000 -0.000000 0.000000
vn 1.000000 -0.000000 0.000000
vn 1.000000 -0.000000 0.000000
vn -1.000000 0.000000 0.000000
vn -1.000000 0.000000 0.000000
vn -1.000000 0.000000 0.000000
vn -1.000000 0.000000 0.000000
vn 0.000000 0.000000 1.000000
vn 0.000000 0.000000 1.000000
vn 0.000000 0.000000 1.000000
vn 0.000000 0.000000 1.000000
vn -0.000000 -0.000000 1.000000
vn -0.000000 -0.000000 1.000000
vn -0.000000 -0.000000 1.000000
vn -0.000000 -0.000000 1.000000
vn 0.000000 0.000000 1.000000
vn 0.000000 0.000000 1.000000
vn 0.000000 0.000000 1.000000
vn 0.000000 0.000000 1.000000
vn -1.000000 0.000000 0.000000
vn -1.000000 0.000000 0.000000
vn -1.000000 0.000000 0.000000
vn -1.000000 0.000000 0.000000
vn 0.000000 -1.000000 0.000000
vn 0.000000 -1.000000 0.000000
vn 0.000000 -1.000000 0.000000
vn 0.000000 -1.000000 0.000000
vn 1.000000 0.000000 0.000000
vn 1.000000 0.000000 0.000000
vn 1.000000 0.000000 0.000000
vn 1.000000 0.000000 0.000000
vn 0.000000 1.000000 0.000000
vn 0.000000 1.000000 0.000000
vn 0.000000 1.000000 0.000000
vn 0.000000 1.000000 0.000000
vn 0.000000 -1.000000 0.000000
vn 0.000000 -1.000000 0.000000
vn 0.000000 -1.000000 0.000000
vn 0.000000 -1.000000 0.000000
vn 0.000000 -1.000000 0.000000
vn 0.000000 -1.000000 0.000000
vn 0.000000 -1.000000 0.000000
vn 0.000000 0.000000 1.000000
vn 0.000000 0.000000 1.000000
vn 0.000000 0.000000 1.000000
vn 0.000000 0.000000 1.000000
vn -1.000000 0.000000 0.000000
vn -1.000000 0.000000 0.000000
vn -1.000000 0.000000 0.000000
vn -1.000000 0.000000 0.000000
s off
f 1/139/1 12/140/2 9/141/3 3/142/4
f 3/2/5 9/14/6 10/21/7 5/22/8
f 5/143/9 10/144/10 11/145/11 7/146/12
f 7/3/13 11/8/14 12/10/15 1/5/16
f 28/46/17 27/47/18 29/48/19 30/49/20
f 7/50/21 1/51/22 3/52/23 5/53/24
f 10/21/25 9/14/26 4/23/27 6/24/28
f 24/147/29 23/148/30 25/149/31 26/150/32
f 12/10/33 11/8/34 8/4/35 2/6/36
f 88/223/37 87/224/38 89/225/39 90/226/40
f 9/54/41 12/55/42 13/56/43 14/57/44
f 85/227/45 2/1/46 15/12/47
f 2/58/48 4/59/49 16/60/50 15/61/51
f 9/14/52 14/25/53 16/26/54 4/23/55
f 11/62/56 10/63/57 17/64/58 18/65/59
f 21/27/60 10/21/61 6/24/62 19/28/63
f 6/68/64 8/69/65 20/70/66 19/71/67
f 11/8/68 18/13/69 82/217/70 22/16/71
f 22/155/72 21/156/73 19/157/74 20/158/75
f 18/65/76 17/64/77 81/215/78 82/218/79
f 81/216/80 21/27/81 25/30/82 23/31/83
f 21/72/84 22/73/85 26/74/86 25/75/87
f 22/16/88 82/217/89 24/17/90 26/18/91
f 2/1/92 8/7/93 27/20/94 28/19/95
f 8/159/96 6/160/97 29/161/98 27/162/99
f 6/24/100 4/23/101 30/32/102 29/33/103
f 4/163/104 2/164/105 28/165/106 30/166/107
f 21/27/108 81/216/109 17/29/110 10/21/111
f 11/8/112 22/16/113 20/15/114 8/4/115
f 37/128/116 33/126/117 32/127/118 34/34/119 35/134/120 36/132/121 91/245/122 93/248/123 31/133/124 38/129/125
f 37/128/126 38/129/127 40/130/128 39/131/129
f 31/167/130 93/249/131 94/250/132 42/170/133
f 38/76/134 31/77/135 42/78/136 43/79/137
f 32/171/138 33/172/139 45/173/140 44/174/141
f 34/80/142 32/81/143 44/82/144 46/83/145
f 48/87/146 45/85/147 33/84/148 37/86/149
f 35/175/150 34/176/151 46/177/152 47/178/153
f 36/88/154 35/89/155 47/90/156 41/91/157
f 40/179/158 38/180/159 43/181/160 49/182/161
f 37/183/162 39/184/163 50/185/164 48/186/165
f 39/92/166 40/93/167 49/94/168 50/95/169
f 53/135/170 54/136/171 52/137/172 51/138/173
f 51/187/174 52/188/175 56/189/176 55/190/177
f 53/96/178 51/97/179 55/98/180 57/99/181
f 52/100/182 54/101/183 58/102/184 56/103/185
f 54/191/186 53/192/187 57/193/188 58/194/189
f 62/35/190 60/36/191 61/37/192 63/38/193
f 62/35/194 63/38/195 66/39/196
f 66/39/197 68/40/198 69/41/199 67/42/200
f 65/43/201 64/44/202 62/35/203 66/39/204 67/42/205 59/45/206
f 59/195/207 71/196/208 70/197/209 65/198/210
f 67/104/211 72/105/212 71/106/213 59/107/214
f 60/199/215 73/200/216 74/201/217 61/202/218
f 62/108/219 75/109/220 73/110/221 60/111/222
f 61/112/223 74/113/224 76/114/225 63/115/226
f 64/203/227 77/204/228 75/205/229 62/206/230
f 65/118/231 70/119/232 77/120/233 64/121/234
f 63/115/235 76/114/236 78/116/237 66/117/238
f 69/207/239 79/208/240 72/209/241 67/210/242
f 66/211/243 78/212/244 80/213/245 68/214/246
f 68/122/247 80/123/248 79/124/249 69/125/250
f 82/218/251 81/215/252 23/66/253 24/67/254
f 14/151/255 13/152/256 83/220/257 84/219/258
f 15/153/259 16/154/260 86/222/261 85/221/262
f 16/154/263 14/151/264 84/219/265 86/222/266
f 84/237/267 83/238/268 87/239/269 88/240/270
f 83/233/271 85/234/272 89/235/273 87/236/274
f 85/241/275 86/242/276 90/243/277 89/244/278
f 86/229/279 84/230/280 88/231/281 90/232/282
f 12/9/283 2/1/284 85/227/285 83/228/286
f 13/11/287 12/9/288 83/228/289
f 92/247/290 91/246/291 36/168/292 41/169/293
f 94/251/294 93/252/295 91/253/296 92/254/297
