# This file uses meters as units for non-parametric coordinates.

v 186.220703 62.977486 412.821655
v -130.262451 62.977486 -412.821381
v 186.220703 62.977486 -412.821381
v -130.262451 62.977486 -303.707916
v -305.951538 62.977486 -303.707916
v -305.951538 62.977486 412.821655
v 186.220703 62.977486 -325.112274
v 186.220703 62.977486 151.717377
v 305.952148 62.977486 -325.112274
v 305.952148 62.977486 151.717377
v -305.951538 -175.731323 412.821655
v 186.220703 -175.731323 412.821655
v 186.220703 -175.731323 151.717377
v -130.262451 -175.731323 -412.821381
v 186.220703 -175.731323 -412.821381
v -130.262451 -175.731323 -303.707916
v -305.951538 -175.731323 -303.707916
v 186.220703 -175.731323 -325.112274
v 305.952148 -175.731323 151.717377
v 305.952148 -175.731323 -325.112274
v -202.944946 175.731323 -263.084106
v 99.041748 175.731323 -263.084137
v -202.944946 175.731323 248.677521
v 99.041748 175.731323 248.677521
v -202.944946 62.977486 -263.084106
v 99.041748 62.977486 -263.084137
v -202.944946 62.977486 248.677521
v 99.041748 62.977486 248.677521
vt 0.499806 0.088664
vt 0.499806 0.088673
vt 0.499806 0.088648
vt 0.499806 0.088641
vt 0.499806 0.088622
vt 0.499806 0.088615
vt 0.499806 0.088658
vt 0.499806 0.088660
vt 0.499806 0.088675
vt 0.499806 0.088678
vt 0.499806 0.030931
vt 0.499806 0.030931
vt 0.499806 0.065480
vt 0.499806 0.065480
vt 0.499806 0.065480
vt 0.499806 0.065480
vt 0.499806 0.030931
vt 0.499806 0.030931
vt 0.499806 0.030931
vt 0.499806 0.030931
vt 0.499806 0.065480
vt 0.499806 0.065480
vt 0.499806 0.065480
vt 0.499806 0.065480
vt 0.499806 0.065480
vt 0.499806 0.065480
vt 0.499806 0.065480
vt 0.499806 0.065480
vt 0.499806 0.030931
vt 0.499806 0.030931
vt 0.499806 0.030931
vt 0.499806 0.030931
vt 0.499806 0.065480
vt 0.499806 0.065480
vt 0.499806 0.030931
vt 0.499806 0.030931
vt 0.499806 0.030931
vt 0.499806 0.030931
vt 0.499806 0.030931
vt 0.499806 0.030931
vt 0.499806 0.030931
vt 0.499806 0.030931
vt 0.499806 0.065480
vt 0.499806 0.065480
vt 0.499806 0.065480
vt 0.499806 0.065480
vt 0.499806 0.088625
vt 0.499806 0.088654
vt 0.499806 0.088658
vt 0.499806 0.088629
vt 0.499806 0.030931
vt 0.499806 0.030931
vt 0.499806 0.065480
vt 0.499806 0.065480
vt 0.499806 0.065480
vt 0.499806 0.065480
vt 0.499806 0.065480
vt 0.499806 0.065480
vt 0.499806 0.065480
vt 0.499806 0.065480
vt 0.499806 0.030931
vt 0.499806 0.030931
vt 0.499806 0.030931
vt 0.499806 0.030931
vt 0.499976 0.014920
vt 0.499976 0.014920
vt 0.499976 0.014920
vt 0.499976 0.014920
vt 0.499976 0.014920
vt 0.499976 0.014920
vt 0.499976 0.014920
vt 0.499976 0.014920
vt 0.499976 0.014920
vt 0.499976 0.014920
vt 0.499976 0.014920
vt 0.499976 0.014920
vt 0.499806 0.030931
vt 0.499806 0.030931
vt 0.499806 0.030931
vt 0.499806 0.030931
vt 0.499806 0.065480
vt 0.499806 0.065480
vn 0.000000 1.000000 0.000000
vn 0.000000 1.000000 0.000000
vn 0.000000 1.000000 0.000000
vn 0.000000 1.000000 0.000000
vn 0.000000 1.000000 0.000000
vn 0.000000 1.000000 0.000000
vn 0.000000 1.000000 0.000000
vn 0.000000 1.000000 0.000000
vn 0.000000 1.000000 0.000000
vn 0.000000 1.000000 0.000000
vn 0.000000 1.000000 0.000000
vn 0.000000 1.000000 0.000000
vn 0.000000 0.000000 1.000000
vn 0.000000 0.000000 1.000000
vn 0.000000 0.000000 1.000000
vn 0.000000 0.000000 1.000000
vn 1.000000 0.000000 0.000000
vn 1.000000 0.000000 0.000000
vn 1.000000 0.000000 0.000000
vn 1.000000 0.000000 0.000000
vn 0.000000 0.000000 -1.000000
vn 0.000000 0.000000 -1.000000
vn 0.000000 0.000000 -1.000000
vn 0.000000 0.000000 -1.000000
vn -1.000000 0.000000 0.000000
vn -1.000000 0.000000 0.000000
vn -1.000000 0.000000 0.000000
vn -1.000000 0.000000 0.000000
vn 1.000000 0.000000 0.000000
vn 1.000000 0.000000 0.000000
vn 1.000000 0.000000 0.000000
vn 1.000000 0.000000 0.000000
vn 0.000000 0.000000 -1.000000
vn 0.000000 0.000000 -1.000000
vn 0.000000 0.000000 -1.000000
vn 0.000000 0.000000 -1.000000
vn 0.000000 0.000000 1.000000
vn 0.000000 0.000000 1.000000
vn 0.000000 0.000000 1.000000
vn 0.000000 0.000000 1.000000
vn 0.000000 0.000000 -1.000000
vn 0.000000 0.000000 -1.000000
vn 0.000000 0.000000 -1.000000
vn 0.000000 0.000000 -1.000000
vn 1.000000 0.000000 0.000000
vn 1.000000 0.000000 0.000000
vn 1.000000 0.000000 0.000000
vn 1.000000 0.000000 0.000000
vn 0.000000 1.000000 0.000000
vn 0.000000 1.000000 0.000000
vn 0.000000 1.000000 0.000000
vn 0.000000 1.000000 0.000000
vn -1.000000 0.000000 0.000000
vn -1.000000 0.000000 0.000000
vn -1.000000 0.000000 0.000000
vn -1.000000 0.000000 0.000000
vn 1.000000 0.000000 0.000000
vn 1.000000 0.000000 0.000000
vn 1.000000 0.000000 0.000000
vn 1.000000 0.000000 0.000000
vn 0.000000 0.000000 1.000000
vn 0.000000 0.000000 1.000000
vn 0.000000 0.000000 1.000000
vn 0.000000 0.000000 1.000000
vn 0.000000 -1.000000 0.000000
vn 0.000000 -1.000000 0.000000
vn 0.000000 -1.000000 0.000000
vn 0.000000 -1.000000 0.000000
vn 0.000000 -1.000000 0.000000
vn 0.000000 -1.000000 0.000000
vn 0.000000 -1.000000 0.000000
vn 0.000000 -1.000000 0.000000
vn 0.000000 -1.000000 0.000000
vn 0.000000 -1.000000 0.000000
vn 0.000000 -1.000000 0.000000
vn 0.000000 -1.000000 0.000000
vn 0.000000 0.000000 -1.000000
vn 0.000000 0.000000 -1.000000
vn 0.000000 0.000000 -1.000000
vn 0.000000 0.000000 -1.000000
vn -1.000000 0.000000 0.000000
vn -1.000000 0.000000 0.000000
vn -1.000000 0.000000 0.000000
vn -1.000000 0.000000 0.000000
s off
f 7/1/1 3/2/2 2/3/3 4/4/4 5/5/5 6/6/6 1/7/7 8/8/8
f 7/1/9 8/8/10 10/9/11 9/10/12
f 11/64/13 12/12/14 1/11/15 6/63/16
f 8/13/17 1/14/18 12/15/19 13/16/20
f 2/17/21 3/18/22 15/19/23 14/20/24
f 4/21/25 2/22/26 14/23/27 16/24/28
f 18/25/29 15/26/30 3/27/31 7/28/32
f 5/29/33 4/30/34 16/31/35 17/32/36
f 10/35/37 8/36/38 13/37/39 19/38/40
f 7/39/41 9/40/42 20/41/43 18/42/44
f 9/43/45 10/44/46 19/45/47 20/46/48
f 23/47/49 24/48/50 22/49/51 21/50/52
f 23/53/53 21/54/54 25/55/55 27/56/56
f 22/57/57 24/58/58 28/59/59 26/60/60
f 27/78/61 28/62/62 24/61/63 23/77/64
f 11/65/65 17/66/66 16/67/67 14/68/68 15/69/69 18/70/70 13/71/71 12/72/72
f 13/73/73 18/74/74 20/75/75 19/76/76
f 21/51/77 22/79/78 26/80/79 25/52/80
f 5/81/81 17/82/82 11/34/83 6/33/84
