# This file uses meters as units for non-parametric coordinates.

v -4.492137 -0.113005 3.898214
v 4.492177 -0.113005 3.898214
v -4.492137 3.940776 3.898214
v 4.492177 3.940776 3.898214
v -4.492137 3.940776 3.681051
v 4.492177 3.940776 3.681051
v -4.492137 -0.113005 3.681051
v 4.492177 -0.113005 3.681051
v 0.000050 5.961054 3.681051
v 0.000050 5.961054 3.898214
v -4.192821 -0.113005 3.898214
v 4.192860 -0.113005 3.898214
v -4.192821 3.788086 3.898214
v 0.000050 5.681191 3.898214
v 4.192860 3.692179 3.898214
v -4.192821 -0.113005 3.681051
v 4.192860 -0.113005 3.681051
v 4.192860 3.692179 3.681051
v 0.000050 5.681191 3.681051
v -4.192821 3.788086 3.681051
v -4.492137 -0.113005 -3.809580
v 4.492177 -0.113005 -3.809580
v -4.492137 3.940776 -3.809580
v 4.492177 3.940776 -3.809580
v -4.492137 3.940776 -4.026743
v 4.492177 3.940776 -4.026743
v -4.492137 -0.113005 -4.026743
v 4.492177 -0.113005 -4.026743
v 0.000050 5.961054 -4.026743
v 0.000050 5.961054 -3.809580
v -4.192821 -0.113005 -3.809580
v 4.192860 -0.113005 -3.809580
v -4.192821 3.788086 -3.809580
v 0.000050 5.681191 -3.809580
v 4.192860 3.692179 -3.809580
v -4.192821 -0.113005 -4.026743
v 4.192860 -0.113005 -4.026743
v 4.192860 3.692179 -4.026743
v 0.000050 5.681191 -4.026743
v -4.192821 3.788086 -4.026743
v -4.228221 -0.044784 6.380438
v 4.228200 -0.044784 6.380438
v -4.228221 3.820137 6.380438
v 4.228200 3.820137 6.380438
v -4.228221 3.820137 -6.606272
v 4.228200 3.820137 -6.606272
v -4.228221 -0.044784 -6.606272
v 4.228200 -0.044784 -6.606272
v -0.000011 5.721704 -6.606272
v -0.000011 5.721704 6.380438
v -0.000011 -0.044784 6.380438
v -0.000011 3.820136 6.380438
v -2.114086 3.820136 6.380438
v -2.114086 -0.044784 6.380438
v 2.114125 3.820136 6.380438
v 2.114125 -0.044784 6.380438
v 0.562245 -0.044784 6.606253
v -0.000011 3.820136 6.209158
v 0.562245 -0.044784 6.428732
v -0.000011 -0.044784 6.209158
v 0.148304 5.655013 -6.150797
v 0.148304 5.655013 5.924963
v 4.079945 3.886829 5.924963
v 4.079945 3.886829 -6.150797
v 4.228200 0.093075 -6.143046
v 4.228200 0.093075 5.917211
v 4.228200 3.682277 -6.143046
v 4.228200 3.682277 5.917211
v -4.087413 3.883446 5.948065
v -4.087413 3.883446 -6.173899
v -0.140758 5.658395 5.948065
v -0.140758 5.658395 -6.173899
v -4.228221 0.082176 -6.179667
v -4.228221 0.082176 5.953832
v -4.228221 3.693177 5.953832
v -4.228221 3.693177 -6.179667
v 4.228200 0.188131 -6.063730
v 4.228200 0.188131 5.837911
v 4.228200 3.587222 -6.063730
v 4.228200 3.587222 5.837911
v 0.267506 5.601416 -6.023218
v 0.267506 5.601416 5.797399
v 3.960743 3.940425 5.797399
v 3.960743 3.940425 -6.023218
v -3.968456 3.936955 5.822088
v -3.968456 3.936955 -6.047922
v -0.259716 5.604886 5.822088
v -0.259716 5.604886 -6.047922
v -4.228221 0.186728 -6.068644
v -4.228221 0.186728 5.842825
v -4.228221 3.588625 5.842825
v -4.228221 3.588625 -6.068644
vt 0.201304 0.061306
vt 0.234691 0.061306
vt 0.289830 0.060027
vt 0.197539 0.061306
vt 0.234691 0.061306
vt 0.266658 0.061306
vt 0.234691 0.061306
vt 0.197539 0.061306
vt 0.197539 0.061306
vt 0.201304 0.061306
vt 0.201304 0.061306
vt 0.234691 0.061306
vt 0.266658 0.061306
vt 0.234691 0.061306
vt 0.234691 0.061306
vt 0.289830 0.060027
vt 0.197539 0.061306
vt 0.234691 0.061306
vt 0.234691 0.061306
vt 0.201304 0.061306
vt 0.234691 0.061306
vt 0.266658 0.061306
vt 0.266658 0.061306
vt 0.234691 0.061306
vt 0.289830 0.060027
vt 0.289830 0.060027
vt 0.234691 0.061306
vt 0.234691 0.061306
vt 0.234691 0.061306
vt 0.234691 0.061306
vt 0.234691 0.061306
vt 0.234691 0.061306
vt 0.234691 0.061306
vt 0.234691 0.061306
vt 0.234691 0.061306
vt 0.234691 0.061306
vt 0.234691 0.061306
vt 0.234691 0.061306
vt 0.234691 0.061306
vt 0.234691 0.061306
vt 0.234691 0.061306
vt 0.234691 0.061306
vt 0.234691 0.061306
vt 0.234691 0.061306
vt 0.234691 0.061306
vt 0.234691 0.061306
vt 0.266658 0.061306
vt 0.266658 0.061306
vt 0.266658 0.061306
vt 0.266658 0.061306
vt 0.197539 0.061306
vt 0.197539 0.061306
vt 0.197539 0.061306
vt 0.197539 0.061306
vt 0.201304 0.061306
vt 0.201304 0.061306
vt 0.201304 0.061306
vt 0.201304 0.061306
vt 0.234691 0.061306
vt 0.234691 0.061306
vt 0.234691 0.061306
vt 0.234691 0.061306
vt 0.234691 0.061306
vt 0.234691 0.061306
vt 0.234691 0.061306
vt 0.234691 0.061306
vt 0.234691 0.061306
vt 0.234691 0.061306
vt 0.289830 0.060027
vt 0.289830 0.060027
vt 0.289830 0.060027
vt 0.289830 0.060027
vt 0.330449 0.061306
vt 0.330449 0.061306
vt 0.330449 0.061306
vt 0.330449 0.061306
vt 0.362416 0.061306
vt 0.362416 0.061306
vt 0.362416 0.061306
vt 0.362416 0.061306
vt 0.293297 0.061306
vt 0.293297 0.061306
vt 0.293297 0.061306
vt 0.293297 0.061306
vt 0.297061 0.061306
vt 0.297061 0.061306
vt 0.297061 0.061306
vt 0.297061 0.061306
vt 0.330449 0.061306
vt 0.330449 0.061306
vt 0.363593 0.061306
vt 0.363593 0.061306
vt 0.363593 0.061306
vt 0.363593 0.061306
vt 0.330449 0.061306
vt 0.330449 0.061306
vt 0.330449 0.061306
vt 0.330449 0.061306
vt 0.363593 0.061306
vt 0.363593 0.061306
vt 0.363593 0.061306
vt 0.363593 0.061306
vt 0.107807 0.475120
vt 0.107807 0.475120
vt 0.107807 0.475120
vt 0.268895 0.061306
vt 0.268895 0.061306
vt 0.268895 0.061306
vt 0.268895 0.061306
vt 0.268895 0.061306
vt 0.268895 0.061306
vt 0.268895 0.061306
vt 0.268895 0.061306
vt 0.330449 0.061306
vt 0.330449 0.061306
vt 0.330449 0.061306
vt 0.330449 0.061306
vt 0.330449 0.061306
vt 0.385588 0.060027
vt 0.385588 0.060027
vt 0.385588 0.060027
vt 0.385588 0.060027
vt 0.332409 0.061306
vt 0.362416 0.061306
vt 0.362416 0.061306
vt 0.362416 0.061306
vt 0.263290 0.061306
vt 0.293297 0.061306
vt 0.293297 0.061306
vt 0.293297 0.061306
vt 0.355581 0.060027
vt 0.385588 0.060027
vt 0.385588 0.060027
vt 0.385588 0.060027
vt 0.267054 0.061306
vt 0.297061 0.061306
vt 0.297061 0.061306
vt 0.297061 0.061306
vt 0.267054 0.061306
vt 0.297061 0.061306
vt 0.267054 0.061306
vt 0.267054 0.061306
vt 0.385588 0.060027
vt 0.355581 0.060027
vt 0.355581 0.060027
vt 0.355581 0.060027
vt 0.293297 0.061306
vt 0.263290 0.061306
vt 0.263290 0.061306
vt 0.263290 0.061306
vt 0.362416 0.061306
vt 0.332409 0.061306
vt 0.332409 0.061306
vt 0.332409 0.061306
vt 0.322471 0.061306
vt 0.263290 0.061306
vt 0.263290 0.061306
vt 0.263290 0.061306
vt 0.391590 0.061306
vt 0.332409 0.061306
vt 0.332409 0.061306
vt 0.332409 0.061306
vt 0.414761 0.060027
vt 0.355581 0.060027
vt 0.355581 0.060027
vt 0.355581 0.060027
vt 0.326235 0.061306
vt 0.267054 0.061306
vt 0.267054 0.061306
vt 0.267054 0.061306
vt 0.326235 0.061306
vt 0.267054 0.061306
vt 0.326235 0.061306
vt 0.326235 0.061306
vt 0.355581 0.060027
vt 0.414761 0.060027
vt 0.414761 0.060027
vt 0.414761 0.060027
vt 0.332409 0.061306
vt 0.391590 0.061306
vt 0.391590 0.061306
vt 0.391590 0.061306
vt 0.263290 0.061306
vt 0.322471 0.061306
vt 0.322471 0.061306
vt 0.322471 0.061306
vn 0.000000 0.000000 1.000000
vn 0.000000 0.000000 1.000000
vn 0.000000 0.000000 1.000000
vn 0.000000 0.000000 1.000000
vn 0.000000 0.000000 1.000000
vn 0.000000 0.000000 1.000000
vn 0.000000 0.000000 1.000000
vn 0.000000 0.000000 1.000000
vn 0.000000 0.000000 1.000000
vn 0.000000 0.000000 1.000000
vn 0.410158 0.912014 0.000000
vn 0.410158 0.912014 0.000000
vn 0.410158 0.912014 0.000000
vn 0.410158 0.912014 0.000000
vn 1.000000 0.000000 0.000000
vn 1.000000 0.000000 0.000000
vn 1.000000 0.000000 0.000000
vn 1.000000 0.000000 0.000000
vn -1.000000 0.000000 0.000000
vn -1.000000 0.000000 0.000000
vn -1.000000 0.000000 0.000000
vn -1.000000 0.000000 0.000000
vn -0.000012 0.000000 -1.000000
vn -0.000012 0.000000 -1.000000
vn -0.000012 0.000000 -1.000000
vn -0.000012 0.000000 -1.000000
vn -0.000012 0.000000 -1.000000
vn -0.000012 0.000000 -1.000000
vn -0.000012 0.000000 -1.000000
vn -0.000012 0.000000 -1.000000
vn -0.000012 0.000000 -1.000000
vn -0.000012 0.000000 -1.000000
vn -0.410158 0.912014 0.000000
vn -0.410158 0.912014 0.000000
vn -0.410158 0.912014 0.000000
vn -0.410158 0.912014 0.000000
vn -0.000012 0.000000 1.000000
vn -0.000012 0.000000 1.000000
vn -0.000012 0.000000 1.000000
vn -0.000012 0.000000 1.000000
vn -0.000012 0.000000 1.000000
vn -0.000012 0.000000 1.000000
vn -0.000012 0.000000 1.000000
vn -0.000012 0.000000 1.000000
vn -0.000012 0.000000 1.000000
vn -0.000012 0.000000 1.000000
vn 0.410182 0.912004 0.000000
vn 0.410182 0.912004 0.000000
vn 0.410182 0.912004 0.000000
vn 0.410182 0.912004 0.000000
vn 1.000000 0.000000 0.000000
vn 1.000000 0.000000 0.000000
vn 1.000000 0.000000 0.000000
vn 1.000000 0.000000 0.000000
vn -1.000000 0.000000 0.000000
vn -1.000000 0.000000 0.000000
vn -1.000000 0.000000 0.000000
vn -1.000000 0.000000 0.000000
vn -0.000012 0.000000 -1.000000
vn -0.000012 0.000000 -1.000000
vn -0.000012 0.000000 -1.000000
vn -0.000012 0.000000 -1.000000
vn -0.000012 0.000000 -1.000000
vn -0.000012 0.000000 -1.000000
vn -0.000012 0.000000 -1.000000
vn -0.000012 0.000000 -1.000000
vn -0.000012 0.000000 -1.000000
vn -0.000012 0.000000 -1.000000
vn -0.410182 0.912004 0.000000
vn -0.410182 0.912004 0.000000
vn -0.410182 0.912004 0.000000
vn -0.410182 0.912004 0.000000
vn 0.000000 0.000000 1.000000
vn 0.017496 0.009571 0.999801
vn 0.018726 0.010244 0.999772
vn 0.000000 0.000000 1.000000
vn 0.410159 0.912014 -0.000000
vn 0.410160 0.912014 -0.000000
vn 0.410166 0.912011 -0.000000
vn 0.410165 0.912011 -0.000000
vn 1.000000 0.000002 0.000000
vn 1.000000 0.000002 0.000000
vn 1.000000 -0.000001 0.000000
vn 1.000000 -0.000001 0.000000
vn -1.000000 -0.000013 0.000000
vn -1.000000 -0.000013 0.000000
vn -1.000000 0.000009 0.000000
vn -1.000000 0.000009 0.000000
vn 0.000000 0.000000 1.000000
vn 0.000000 0.000000 1.000000
vn 0.017496 0.009571 0.999801
vn 0.000000 0.000000 1.000000
vn 0.000000 0.000000 1.000000
vn 0.000000 0.000000 1.000000
vn 0.000000 0.000000 1.000000
vn 0.017496 0.009571 0.999801
vn 0.000000 0.000000 1.000000
vn 0.018726 0.010244 0.999772
vn 0.028588 0.015638 0.999469
vn 0.000000 0.000000 1.000000
vn 0.000000 0.000000 1.000000
vn 0.000000 0.000000 1.000000
vn 0.000000 0.000000 1.000000
vn 0.000000 0.000000 1.000000
vn 0.028588 0.015638 0.999469
vn 0.018726 0.010244 0.999772
vn 0.017496 0.009571 0.999801
vn 0.061440 0.033610 0.997545
vn -0.363767 0.000000 0.931490
vn -0.363767 0.000000 0.931490
vn -0.363767 0.000000 0.931490
vn -0.989582 -0.143972 0.000000
vn -0.989582 -0.143972 0.000000
vn -0.989582 -0.143972 0.000000
vn -0.989582 -0.143972 0.000000
vn 1.000000 0.000000 0.000000
vn 1.000000 0.000000 0.000000
vn 1.000000 0.000000 0.000000
vn 1.000000 0.000000 0.000000
vn 0.000000 0.000000 -1.000000
vn 0.000000 0.000000 -1.000000
vn 0.000000 0.000000 -1.000000
vn 0.000000 0.000000 -1.000000
vn 0.000000 0.000000 -1.000000
vn -0.410162 0.912013 0.000000
vn -0.410162 0.912013 -0.000000
vn -0.410164 0.912012 -0.000000
vn -0.410164 0.912012 0.000000
vn 0.410162 0.912013 -0.000022
vn 0.410157 0.912015 0.000021
vn 0.410149 0.912019 0.000009
vn 0.410150 0.912018 -0.000010
vn 0.410157 0.912015 0.000021
vn 0.410179 0.912005 0.000021
vn 0.410215 0.911989 0.000009
vn 0.410149 0.912019 0.000009
vn 0.410179 0.912005 0.000021
vn 0.410184 0.912003 -0.000022
vn 0.410216 0.911988 -0.000010
vn 0.410215 0.911989 0.000009
vn 0.410184 0.912003 -0.000022
vn 0.410162 0.912013 -0.000022
vn 0.410150 0.912018 -0.000010
vn 0.410216 0.911988 -0.000010
vn 1.000000 0.000013 0.000000
vn 1.000000 0.000013 0.000000
vn 1.000000 0.000043 0.000000
vn 1.000000 0.000043 0.000000
vn 1.000000 0.000013 0.000000
vn 1.000000 -0.000013 0.000000
vn 1.000000 -0.000041 0.000000
vn 1.000000 0.000043 0.000000
vn 1.000000 -0.000013 0.000000
vn 1.000000 -0.000013 0.000000
vn 1.000000 -0.000041 0.000000
vn 1.000000 -0.000041 0.000000
vn 1.000000 -0.000013 0.000000
vn 1.000000 0.000013 0.000000
vn 1.000000 0.000043 0.000000
vn 1.000000 -0.000041 0.000000
vn -0.410157 0.912015 0.000022
vn -0.410151 0.912018 -0.000023
vn -0.410152 0.912017 -0.000010
vn -0.410154 0.912016 0.000010
vn -0.410151 0.912018 -0.000023
vn -0.410150 0.912018 -0.000023
vn -0.410156 0.912016 -0.000010
vn -0.410152 0.912017 -0.000010
vn -0.410150 0.912018 -0.000023
vn -0.410156 0.912015 0.000022
vn -0.410158 0.912015 0.000010
vn -0.410156 0.912016 -0.000010
vn -0.410156 0.912015 0.000022
vn -0.410157 0.912015 0.000022
vn -0.410154 0.912016 0.000010
vn -0.410158 0.912015 0.000010
vn -1.000000 -0.000011 0.000000
vn -1.000000 -0.000011 0.000000
vn -1.000000 -0.000061 0.000000
vn -1.000000 -0.000061 0.000000
vn -1.000000 -0.000011 0.000000
vn -1.000000 0.000011 0.000000
vn -1.000000 0.000052 0.000000
vn -1.000000 -0.000061 0.000000
vn -1.000000 0.000011 0.000000
vn -1.000000 0.000011 0.000000
vn -1.000000 0.000052 0.000000
vn -1.000000 0.000052 0.000000
vn -1.000000 0.000011 0.000000
vn -1.000000 -0.000011 0.000000
vn -1.000000 -0.000061 0.000000
vn -1.000000 0.000052 0.000000
vn 1.000000 0.000043 0.000000
vn 1.000000 0.000043 0.000000
vn 1.000000 0.000002 0.000000
vn 1.000000 0.000002 0.000000
vn 1.000000 0.000043 0.000000
vn 1.000000 -0.000041 0.000000
vn 1.000000 -0.000001 0.000000
vn 1.000000 0.000002 0.000000
vn 1.000000 -0.000041 0.000000
vn 1.000000 -0.000041 0.000000
vn 1.000000 -0.000001 0.000000
vn 1.000000 -0.000001 0.000000
vn 1.000000 -0.000041 0.000000
vn 1.000000 0.000043 0.000000
vn 1.000000 0.000002 0.000000
vn 1.000000 -0.000001 0.000000
vn 0.410150 0.912018 -0.000010
vn 0.410149 0.912019 0.000009
vn 0.410160 0.912014 -0.000000
vn 0.410159 0.912014 -0.000000
vn 0.410149 0.912019 0.000009
vn 0.410215 0.911989 0.000009
vn 0.410166 0.912011 -0.000000
vn 0.410160 0.912014 -0.000000
vn 0.410215 0.911989 0.000009
vn 0.410216 0.911988 -0.000010
vn 0.410165 0.912011 -0.000000
vn 0.410166 0.912011 -0.000000
vn 0.410216 0.911988 -0.000010
vn 0.410150 0.912018 -0.000010
vn 0.410159 0.912014 -0.000000
vn 0.410165 0.912011 -0.000000
vn -0.410154 0.912016 0.000010
vn -0.410152 0.912017 -0.000010
vn -0.410162 0.912013 -0.000000
vn -0.410162 0.912013 0.000000
vn -0.410152 0.912017 -0.000010
vn -0.410156 0.912016 -0.000010
vn -0.410164 0.912012 -0.000000
vn -0.410162 0.912013 -0.000000
vn -0.410156 0.912016 -0.000010
vn -0.410158 0.912015 0.000010
vn -0.410164 0.912012 0.000000
vn -0.410164 0.912012 -0.000000
vn -0.410158 0.912015 0.000010
vn -0.410154 0.912016 0.000010
vn -0.410162 0.912013 0.000000
vn -0.410164 0.912012 0.000000
vn -1.000000 -0.000061 0.000000
vn -1.000000 -0.000061 0.000000
vn -1.000000 -0.000013 0.000000
vn -1.000000 -0.000013 0.000000
vn -1.000000 -0.000061 0.000000
vn -1.000000 0.000052 0.000000
vn -1.000000 0.000009 0.000000
vn -1.000000 -0.000013 0.000000
vn -1.000000 0.000052 0.000000
vn -1.000000 0.000052 0.000000
vn -1.000000 0.000009 0.000000
vn -1.000000 0.000009 0.000000
vn -1.000000 0.000052 0.000000
vn -1.000000 -0.000061 0.000000
vn -1.000000 -0.000013 0.000000
vn -1.000000 0.000009 0.000000
s off
f 1/19/1 11/27/2 13/29/3 14/30/4 15/31/5 12/28/6 2/2/7 4/18/8 10/24/9 3/15/10
f 9/22/11 10/23/12 4/13/13 6/6/14
f 2/17/15 8/8/16 6/9/17 4/4/18
f 7/10/19 1/1/20 3/20/21 5/11/22
f 8/7/23 17/33/24 18/34/25 19/35/26 20/36/27 16/32/28 7/12/29 5/5/30 9/21/31 6/14/32
f 5/26/33 3/3/34 10/16/35 9/25/36
f 21/37/37 31/38/38 33/39/39 34/40/40 35/41/41 32/42/42 22/43/43 24/44/44 30/45/45 23/46/46
f 29/47/47 30/48/48 24/49/49 26/50/50
f 22/51/51 28/52/52 26/53/53 24/54/54
f 27/55/55 21/56/56 23/57/57 25/58/58
f 28/59/59 37/60/60 38/61/61 39/62/62 40/63/63 36/64/64 27/65/65 25/66/66 29/67/67 26/68/68
f 25/69/69 23/70/70 30/71/71 29/72/72
f 50/73/73 52/74/74 55/75/75 44/76/76
f 81/159/77 82/182/78 83/181/79 84/180/80
f 78/155/81 77/186/82 79/185/83 80/184/84
f 89/167/85 90/174/86 91/173/87 92/171/88
f 43/89/89 53/90/90 52/74/91 50/73/92
f 53/91/93 54/92/94 51/93/95 52/94/96
f 44/76/97 55/75/98 56/95/99 42/96/100
f 41/97/101 54/98/102 53/90/103 43/89/104
f 56/99/105 55/100/106 52/101/107 57/102/108
f 59/103/109 58/104/110 60/105/111
f 57/106/112 52/107/113 58/108/114 59/109/115
f 52/110/116 51/111/117 60/112/118 58/113/119
f 48/114/120 47/115/121 45/116/122 49/117/123 46/118/124
f 86/163/125 85/178/126 87/177/127 88/176/128
f 49/77/129 50/78/130 62/124/131 61/151/132
f 50/78/133 44/79/134 63/125/135 62/124/136
f 44/79/137 46/80/138 64/126/139 63/125/140
f 46/80/141 49/77/142 61/151/143 64/126/144
f 42/81/145 48/82/146 65/128/147 66/147/148
f 48/82/149 46/83/150 67/129/151 65/128/152
f 46/83/153 44/84/154 68/130/155 67/129/156
f 44/84/157 42/81/158 66/147/159 68/130/160
f 45/119/161 43/120/162 69/132/163 70/143/164
f 43/120/165 50/121/166 71/133/167 69/132/168
f 50/121/169 49/122/170 72/134/171 71/133/172
f 49/122/173 45/119/174 70/143/175 72/134/176
f 47/85/177 41/86/178 74/136/179 73/140/180
f 41/86/181 43/87/182 75/137/183 74/136/184
f 43/87/185 45/88/186 76/138/187 75/137/188
f 45/88/189 47/85/190 73/140/191 76/138/192
f 66/127/193 65/150/194 77/156/195 78/183/196
f 65/150/197 67/149/198 79/157/199 77/156/200
f 67/149/201 68/148/202 80/158/203 79/157/204
f 68/148/205 66/127/206 78/183/207 80/158/208
f 61/123/209 62/154/210 82/160/211 81/179/212
f 62/154/213 63/153/214 83/161/215 82/160/216
f 63/153/217 64/152/218 84/162/219 83/161/220
f 64/152/221 61/123/222 81/179/223 84/162/224
f 70/131/225 69/146/226 85/164/227 86/175/228
f 69/146/229 71/145/230 87/165/231 85/164/232
f 71/145/233 72/144/234 88/166/235 87/165/236
f 72/144/237 70/131/238 86/175/239 88/166/240
f 73/135/241 74/142/242 90/168/243 89/172/244
f 74/142/245 75/141/246 91/169/247 90/168/248
f 75/141/249 76/139/250 92/170/251 91/169/252
f 76/139/253 73/135/254 89/172/255 92/170/256
