# This file uses meters as units for non-parametric coordinates.

v -2.794510 -0.194796 -10.000000
v -2.794510 0.000000 -10.000000
v -2.794510 0.000000 0.000000
v -2.794510 -0.194796 0.000000
v -1.397247 0.000000 -10.000000
v -1.397247 0.000000 -5.043289
v -1.397247 0.000000 0.000000
v 0.000000 -0.194796 -10.000000
v 0.000000 0.000000 -10.000000
v 0.000000 0.000000 0.000000
v 0.000000 -0.194796 0.000000
v -2.519852 0.000000 -10.000000
v -2.519852 0.000000 -5.043289
v -2.519852 0.000000 0.000000
v -0.274658 0.000000 -10.000000
v -0.274658 0.000000 -5.043289
v -0.274658 0.000000 0.000000
v -0.346405 0.000000 0.000000
v -0.346405 0.000000 -5.043289
v -0.346405 0.000000 -10.000000
v -2.448547 0.000000 0.000000
v -2.448547 0.000000 -5.043289
v -2.448547 0.000000 -10.000000
v -2.519852 0.000000 -4.923080
v -2.448547 0.000000 -4.923080
v -1.397247 0.000000 -4.923080
v -0.346405 0.000000 -4.923080
v -0.274658 0.000000 -4.923080
vt 0.361916 0.065600
vt 0.361916 0.065600
vt 0.361916 0.065600
vt 0.361916 0.065600
vt 0.296773 0.061463
vt 0.296773 0.061463
vt 0.296773 0.061463
vt 0.296773 0.061463
vt 0.296773 0.061463
vt 0.296773 0.061463
vt 0.361923 0.065600
vt 0.361923 0.065600
vt 0.361923 0.065600
vt 0.361923 0.065600
vt 0.355713 0.475154
vt 0.355713 0.475154
vt 0.355713 0.475154
vt 0.355713 0.475154
vt 0.355713 0.475154
vt 0.355713 0.475154
vt 0.355713 0.475154
vt 0.355713 0.475154
vt 0.355713 0.475154
vt 0.355713 0.475154
vt 0.355713 0.475154
vt 0.355713 0.475154
vt 0.557893 0.228670
vt 0.557893 0.228670
vt 0.557893 0.228670
vt 0.557893 0.228670
vt 0.296773 0.061463
vt 0.296773 0.061463
vt 0.296773 0.061463
vt 0.296773 0.061463
vt 0.296773 0.061463
vt 0.296773 0.061463
vt 0.296773 0.061463
vt 0.296773 0.061463
vt 0.557893 0.228670
vt 0.557893 0.228670
vt 0.296773 0.061463
vt 0.296773 0.061463
vt 0.557893 0.228670
vt 0.557893 0.228670
vt 0.557893 0.228670
vt 0.557893 0.228670
vt 0.557893 0.228670
vt 0.557893 0.228670
vt 0.296773 0.061463
vt 0.296773 0.061463
vn -1.000000 0.000000 0.000000
vn -1.000000 0.000000 0.000000
vn -1.000000 0.000000 0.000000
vn -1.000000 0.000000 0.000000
vn 0.000000 1.000000 0.000000
vn 0.000000 1.000000 0.000000
vn 0.000000 1.000000 0.000000
vn 0.000000 1.000000 0.000000
vn 0.000000 1.000000 0.000000
vn 0.000000 1.000000 0.000000
vn 0.000000 1.000000 0.000000
vn 0.000000 1.000000 0.000000
vn 1.000000 0.000000 0.000000
vn 1.000000 0.000000 0.000000
vn 1.000000 0.000000 0.000000
vn 1.000000 0.000000 0.000000
vn 0.000000 1.000000 0.000000
vn 0.000000 1.000000 0.000000
vn 0.000000 1.000000 0.000000
vn 0.000000 1.000000 0.000000
vn 0.000000 1.000000 0.000000
vn 0.000000 1.000000 0.000000
vn 0.000000 1.000000 0.000000
vn 0.000000 1.000000 0.000000
vn 0.000000 1.000000 0.000000
vn 0.000000 1.000000 0.000000
vn 0.000000 1.000000 0.000000
vn 0.000000 1.000000 0.000000
vn 0.000000 1.000000 0.000000
vn 0.000000 1.000000 0.000000
vn 0.000000 1.000000 0.000000
vn 0.000000 1.000000 0.000000
vn 0.000000 1.000000 0.000000
vn 0.000000 1.000000 0.000000
vn 0.000000 1.000000 0.000000
vn 0.000000 1.000000 0.000000
vn 0.000000 1.000000 0.000000
vn 0.000000 1.000000 0.000000
vn 0.000000 1.000000 0.000000
vn 0.000000 1.000000 0.000000
vn 0.000000 1.000000 0.000000
vn 0.000000 1.000000 0.000000
vn 0.000000 1.000000 0.000000
vn 0.000000 1.000000 0.000000
vn 0.000000 1.000000 0.000000
vn 0.000000 1.000000 0.000000
vn 0.000000 1.000000 0.000000
vn 0.000000 1.000000 0.000000
vn 0.000000 1.000000 0.000000
vn 0.000000 1.000000 0.000000
vn 0.000000 1.000000 0.000000
vn 0.000000 1.000000 0.000000
vn 0.000000 1.000000 0.000000
vn 0.000000 1.000000 0.000000
vn 0.000000 1.000000 0.000000
vn 0.000000 1.000000 0.000000
vn 0.000000 1.000000 0.000000
vn 0.000000 1.000000 0.000000
vn 0.000000 1.000000 0.000000
vn 0.000000 1.000000 0.000000
vn 0.000000 1.000000 0.000000
vn 0.000000 1.000000 0.000000
vn 0.000000 1.000000 0.000000
vn 0.000000 1.000000 0.000000
vn 0.000000 1.000000 0.000000
vn 0.000000 1.000000 0.000000
vn 0.000000 1.000000 0.000000
vn 0.000000 1.000000 0.000000
s off
f 3/1/1 2/2/2 1/3/3 4/4/4
f 22/5/5 23/6/6 12/7/7 13/8/8
f 24/9/9 25/10/10 22/5/11 13/8/12
f 11/11/13 8/12/14 9/13/15 10/14/16
f 9/15/17 15/16/18 16/17/19 28/18/20 17/19/21 10/20/22
f 24/21/23 13/22/24 12/23/25 2/24/26 3/25/27 14/26/28
f 6/27/29 19/28/30 20/29/31 5/30/32
f 26/31/33 27/32/34 19/33/35 6/34/36
f 19/33/37 27/32/38 28/35/39 16/36/40
f 20/37/41 19/33/42 16/36/43 15/38/44
f 25/10/45 26/31/46 6/34/47 22/5/48
f 6/27/49 5/30/50 23/39/51 22/40/52
f 21/41/53 25/10/54 24/9/55 14/42/56
f 7/43/57 26/44/58 25/45/59 21/46/60
f 7/43/61 18/47/62 27/48/63 26/44/64
f 28/35/65 27/32/66 18/49/67 17/50/68
