# This file uses meters as units for non-parametric coordinates.

v 0.000000 0.000000 -11.599609
v -8.415939 0.000000 -20.000000
v -0.000004 0.000000 -20.000000
v -2.869133 0.000000 -17.130875
v -2.869133 -0.194796 -17.130875
v -3.165329 -0.194796 -16.834671
v -0.000004 -0.194796 -20.000000
v -12.512703 0.000000 -20.000000
v -12.466211 0.000000 -20.000000
v -19.999985 0.000000 -20.000000
v -17.542007 0.000000 -20.000000
v -19.999985 -0.194796 -16.834686
v -19.999985 0.000000 -17.130875
v -19.999985 -0.194796 -17.130875
v -19.999985 -0.194796 -20.000000
v -17.130857 -0.194796 -2.869125
v -17.130857 0.000000 -2.869125
v -19.999979 0.000000 0.000000
v -16.834665 -0.194796 -3.165329
v -19.999981 -0.194796 -3.165329
v -19.999981 0.000000 -2.869125
v -19.999981 -0.194796 -2.869125
v -16.834663 -0.194796 0.000000
v -17.130857 0.000000 0.000000
v -17.130857 -0.194796 0.000000
v -2.869125 -0.194796 0.000000
v -2.869125 0.000000 0.000000
v 0.000000 0.000000 0.000000
v 0.000000 0.000000 -2.518417
v -3.165321 -0.194796 0.000000
v 0.000000 0.000000 -2.474472
v 0.000000 -0.194796 0.000000
v 0.000000 0.000000 -7.474564
v -2.869133 -0.000000 -20.000000
v -0.000004 0.000000 -17.130875
v -10.276279 -0.194796 -1.513046
v -10.276279 -0.194796 -6.547638
v -9.723724 -0.194796 -1.513046
v -10.276279 -0.194796 -3.399231
v -9.723724 -0.194796 -3.399231
v -9.723724 -0.194796 -6.547638
v -9.723724 -0.194796 -8.452866
v -13.458385 -0.194796 -9.724442
v -10.276279 -0.194796 -8.452866
v -11.575809 -0.194796 -9.724442
v -11.575809 -0.194796 -10.275558
v -18.441410 -0.194796 -9.724442
v -16.558558 -0.194796 -9.724442
v -16.558558 -0.194796 -10.275558
v -13.458385 -0.194796 -10.275558
v -18.441410 -0.194796 -10.275558
v -8.381323 0.000000 -20.000000
v 0.000000 0.000000 -7.522003
v 0.000000 0.000000 -11.645187
v -0.000004 0.000000 -15.746918
v -0.000004 0.000000 -15.801559
v -4.198456 -0.000000 -20.000000
v -4.254368 -0.000000 -20.000000
v -17.483496 0.000000 -20.000000
v -19.999981 0.000000 -2.582214
v -17.417770 0.000000 -2.582214
v -17.417770 0.000000 0.000000
v -17.477211 0.000000 0.000000
v -17.477211 0.000000 -2.523117
v -19.999981 0.000000 -2.523117
v -2.580627 0.000000 0.000000
v -2.580627 0.000000 -2.474472
v -2.580627 0.000000 -2.518417
v -2.580627 0.000000 -7.474564
v -2.580627 0.000000 -7.522003
v -2.580631 0.000000 -11.599609
v -2.580635 0.000000 -11.645187
v -2.580635 0.000000 -15.746918
v -2.580635 0.000000 -15.801559
v -2.580635 0.000000 -17.130875
v -2.521950 0.000000 0.000000
v -2.521950 0.000000 -2.474472
v -2.521950 0.000000 -2.518417
v -2.521950 0.000000 -7.474564
v -2.521950 0.000000 -7.522003
v -2.521950 0.000000 -11.599609
v -2.521954 0.000000 -11.645187
v -2.521957 0.000000 -15.746918
v -2.521957 0.000000 -15.801559
v -2.521957 0.000000 -17.130875
v -2.869133 -0.000000 -17.417191
v -4.198456 -0.000000 -17.417191
v -4.254368 -0.000000 -17.417191
v -8.381323 0.000000 -17.417191
v -8.415939 0.000000 -17.417191
v -12.466211 0.000000 -17.417191
v -12.512703 0.000000 -17.417191
v -17.483496 0.000000 -17.417191
v -17.542007 0.000000 -17.417191
v -19.999985 0.000000 -17.417191
v -2.869133 -0.000000 -17.472076
v -4.198456 -0.000000 -17.472076
v -4.254368 -0.000000 -17.472076
v -8.381321 0.000000 -17.472076
v -8.415939 0.000000 -17.472076
v -12.466211 0.000000 -17.472076
v -12.512703 0.000000 -17.472076
v -17.483496 0.000000 -17.472076
v -17.542007 0.000000 -17.472076
v -19.999985 0.000000 -17.472076
v -2.580635 0.000000 -17.417191
v -2.521957 0.000000 -17.472076
vt 0.359852 0.479959
vt 0.359852 0.479959
vt 0.359852 0.479959
vt 0.359852 0.479959
vt 0.359848 0.479959
vt 0.359848 0.479959
vt 0.359848 0.479959
vt 0.359848 0.479959
vt 0.359848 0.479959
vt 0.359848 0.479959
vt 0.359848 0.479959
vt 0.359848 0.479959
vt 0.300732 0.478753
vt 0.300732 0.478753
vt 0.300730 0.478753
vt 0.300730 0.478753
vt 0.230755 0.476340
vt 0.230755 0.476340
vt 0.230755 0.476340
vt 0.230755 0.476340
vt 0.359749 0.060586
vt 0.359749 0.060586
vt 0.359749 0.060586
vt 0.359749 0.060586
vt 0.359749 0.060586
vt 0.359749 0.060586
vt 0.359749 0.060586
vt 0.359749 0.060586
vt 0.359749 0.060586
vt 0.359749 0.060586
vt 0.359749 0.060586
vt 0.359749 0.060586
vt 0.359749 0.060586
vt 0.359848 0.479959
vt 0.359848 0.479959
vt 0.359848 0.479959
vt 0.359848 0.479959
vt 0.300730 0.478753
vt 0.300730 0.478753
vt 0.300730 0.478753
vt 0.300730 0.478753
vt 0.230755 0.476340
vt 0.230755 0.476340
vt 0.230755 0.476340
vt 0.230755 0.476340
vt 0.359848 0.479959
vt 0.359848 0.479959
vt 0.300730 0.478753
vt 0.300730 0.478753
vt 0.230755 0.476340
vt 0.230755 0.476340
vt 0.693189 0.228925
vt 0.693189 0.228925
vt 0.693189 0.228925
vt 0.693189 0.228925
vt 0.300732 0.478753
vt 0.300732 0.478753
vt 0.359852 0.479959
vt 0.359852 0.479959
vt 0.359852 0.479959
vt 0.359852 0.479959
vt 0.359852 0.479959
vt 0.359852 0.479959
vt 0.359852 0.479959
vt 0.359852 0.479959
vt 0.359852 0.479959
vt 0.359852 0.479959
vt 0.359852 0.479959
vt 0.230755 0.476340
vt 0.230755 0.476340
vt 0.359749 0.060586
vt 0.359749 0.060586
vt 0.359749 0.060586
vt 0.359749 0.060586
vt 0.359749 0.060586
vt 0.359749 0.060586
vt 0.359749 0.060586
vt 0.359749 0.060586
vt 0.359749 0.060586
vt 0.359749 0.060586
vt 0.359749 0.060586
vt 0.553914 0.228346
vt 0.553914 0.228346
vt 0.553914 0.228346
vt 0.553914 0.228346
vt 0.553914 0.228346
vt 0.553914 0.228346
vt 0.693189 0.228925
vt 0.693189 0.228925
vt 0.693189 0.228925
vt 0.693189 0.228925
vt 0.693189 0.228925
vt 0.693189 0.228925
vt 0.693189 0.228925
vt 0.693189 0.228925
vt 0.693189 0.228925
vt 0.693189 0.228925
vt 0.693189 0.228925
vt 0.693189 0.228925
vt 0.693189 0.228925
vt 0.693189 0.228925
vt 0.693189 0.228925
vt 0.693189 0.228925
vt 0.693189 0.228925
vt 0.693189 0.228925
vt 0.388803 0.062517
vt 0.388803 0.062517
vt 0.388803 0.062517
vt 0.388803 0.062517
vt 0.388803 0.062517
vt 0.388803 0.062517
vt 0.388803 0.062517
vt 0.388803 0.062517
vt 0.388803 0.062517
vt 0.388803 0.062517
vt 0.388803 0.062517
vt 0.388803 0.062517
vt 0.388803 0.062517
vt 0.388803 0.062517
vt 0.388803 0.062517
vt 0.388803 0.062517
vt 0.553916 0.228346
vt 0.553916 0.228346
vt 0.553916 0.228346
vt 0.553916 0.228346
vt 0.294531 0.061311
vt 0.294531 0.061311
vt 0.294531 0.061311
vt 0.294531 0.061311
vt 0.294531 0.061311
vt 0.294531 0.061311
vt 0.294531 0.061311
vt 0.294531 0.061311
vt 0.294531 0.061311
vt 0.294531 0.061311
vt 0.294531 0.061311
vt 0.294531 0.061311
vt 0.294531 0.061311
vt 0.294531 0.061311
vt 0.294531 0.061311
vt 0.294531 0.061311
vt 0.294531 0.061311
vt 0.294531 0.061311
vt 0.294531 0.061311
vt 0.294531 0.061311
vt 0.294531 0.061311
vt 0.294531 0.061311
vt 0.294531 0.061311
vt 0.294531 0.061311
vt 0.294531 0.061311
vt 0.294531 0.061311
vt 0.553914 0.228346
vt 0.553914 0.228346
vt 0.553914 0.228346
vt 0.553914 0.228346
vt 0.294531 0.061311
vt 0.294531 0.061311
vt 0.553914 0.228346
vt 0.553914 0.228346
vt 0.553914 0.228346
vt 0.553914 0.228346
vt 0.294531 0.061311
vt 0.294531 0.061311
vt 0.553914 0.228346
vt 0.553914 0.228346
vt 0.553914 0.228346
vt 0.553914 0.228346
vt 0.294531 0.061311
vt 0.294531 0.061311
vt 0.553914 0.228346
vt 0.553914 0.228346
vt 0.553914 0.228346
vt 0.553914 0.228346
vt 0.294531 0.061311
vt 0.294531 0.061311
vt 0.553914 0.228346
vt 0.553914 0.228346
vt 0.294531 0.061311
vt 0.294531 0.061311
vt 0.294531 0.061311
vt 0.294531 0.061311
vt 0.294531 0.061311
vt 0.294531 0.061311
vt 0.294531 0.061311
vt 0.294531 0.061311
vt 0.294531 0.061311
vt 0.294531 0.061311
vt 0.294531 0.061311
vt 0.294531 0.061311
vt 0.294531 0.061311
vt 0.294531 0.061311
vt 0.294531 0.061311
vt 0.294531 0.061311
vt 0.294531 0.061311
vt 0.294531 0.061311
vt 0.294531 0.061311
vt 0.294531 0.061311
vt 0.553914 0.228346
vt 0.553914 0.228346
vt 0.294531 0.061311
vt 0.294531 0.061311
vt 0.553914 0.228346
vt 0.553914 0.228346
vt 0.553916 0.228346
vt 0.553916 0.228346
vt 0.294531 0.061311
vt 0.294531 0.061311
vt 0.553916 0.228346
vt 0.553916 0.228346
vt 0.553916 0.228346
vt 0.553916 0.228346
vt 0.294531 0.061311
vt 0.294531 0.061311
vt 0.553916 0.228346
vt 0.553916 0.228346
vt 0.553916 0.228346
vt 0.553916 0.228346
vt 0.294531 0.061311
vt 0.294531 0.061311
vt 0.553916 0.228346
vt 0.553916 0.228346
vt 0.553916 0.228346
vt 0.553916 0.228346
vt 0.359852 0.479959
vt 0.294531 0.061311
vt 0.294531 0.061311
vn 0.000000 1.000000 -0.000000
vn 0.000000 1.000000 -0.000000
vn 0.000000 1.000000 -0.000000
vn 0.000000 1.000000 -0.000000
vn 0.000000 1.000000 -0.000000
vn 0.000000 1.000000 -0.000000
vn 0.000000 1.000000 -0.000000
vn 0.000000 1.000000 -0.000000
vn 0.000000 1.000000 -0.000000
vn 0.000000 1.000000 -0.000000
vn 0.000000 1.000000 -0.000000
vn 0.000000 1.000000 -0.000000
vn 0.000000 0.000000 1.000000
vn 0.000000 0.000000 1.000000
vn 0.000000 0.000000 1.000000
vn 0.000000 0.000000 1.000000
vn 0.000000 1.000000 0.000000
vn 0.000000 1.000000 0.000000
vn 0.000000 1.000000 0.000000
vn 0.000000 1.000000 0.000000
vn 0.000000 0.000000 -1.000000
vn 0.000000 0.000000 -1.000000
vn 0.000000 0.000000 -1.000000
vn 0.000000 0.000000 -1.000000
vn 0.000000 0.000000 -1.000000
vn 0.000000 0.000000 -1.000000
vn 0.000000 0.000000 -1.000000
vn 0.000000 0.000000 -1.000000
vn 0.000000 0.000000 -1.000000
vn 0.000000 0.000000 -1.000000
vn 0.000000 0.000000 -1.000000
vn 0.000000 0.000000 -1.000000
vn 0.000000 0.000000 -1.000000
vn 0.000000 1.000000 0.000000
vn 0.000000 1.000000 0.000000
vn 0.000000 1.000000 0.000000
vn 0.000000 1.000000 0.000000
vn 0.000000 0.000000 -1.000000
vn 0.000000 0.000000 -1.000000
vn 0.000000 0.000000 -1.000000
vn 0.000000 0.000000 -1.000000
vn 0.000000 1.000000 0.000000
vn 0.000000 1.000000 0.000000
vn 0.000000 1.000000 0.000000
vn 0.000000 1.000000 0.000000
vn 0.000000 1.000000 0.000000
vn 0.000000 1.000000 0.000000
vn 0.000000 1.000000 0.000000
vn 0.000000 1.000000 0.000000
vn 1.000000 0.000000 0.000000
vn 1.000000 0.000000 0.000000
vn 1.000000 0.000000 0.000000
vn 1.000000 0.000000 0.000000
vn 0.000000 1.000000 0.000000
vn 0.000000 1.000000 0.000000
vn 0.000000 1.000000 0.000000
vn 0.000000 1.000000 0.000000
vn 0.000000 1.000000 0.000000
vn 0.000000 1.000000 0.000000
vn 0.000000 1.000000 0.000000
vn 0.000000 1.000000 0.000000
vn -1.000000 0.000000 0.000000
vn -1.000000 0.000000 0.000000
vn -1.000000 0.000000 0.000000
vn -1.000000 0.000000 0.000000
vn 0.000000 1.000000 0.000000
vn 0.000000 1.000000 0.000000
vn 0.000000 1.000000 0.000000
vn 0.000000 1.000000 0.000000
vn 0.000000 1.000000 0.000000
vn 0.000000 1.000000 0.000000
vn 0.000000 1.000000 0.000000
vn 0.000000 1.000000 0.000000
vn 0.000000 1.000000 0.000000
vn 0.000000 1.000000 0.000000
vn 0.000000 1.000000 0.000000
vn 0.000000 1.000000 0.000000
vn 0.000000 1.000000 -0.000000
vn 0.000000 1.000000 -0.000000
vn 0.000000 1.000000 -0.000000
vn 0.000000 1.000000 -0.000000
vn 1.000000 -0.000004 -0.000000
vn 1.000000 -0.000004 -0.000000
vn 1.000000 -0.000004 -0.000000
vn 1.000000 -0.000004 -0.000000
vn 1.000000 -0.000004 -0.000000
vn 1.000000 -0.000004 -0.000000
vn 1.000000 -0.000004 -0.000000
vn 1.000000 -0.000004 -0.000000
vn 1.000000 -0.000004 -0.000000
vn 1.000000 -0.000004 -0.000000
vn 1.000000 -0.000004 -0.000000
vn 1.000000 -0.000004 -0.000000
vn 1.000000 -0.000004 -0.000000
vn -0.000000 1.000000 -0.000000
vn -0.000000 1.000000 -0.000000
vn -0.000000 1.000000 -0.000000
vn -0.000000 1.000000 -0.000000
vn -0.000000 1.000000 -0.000000
vn -0.000000 1.000000 -0.000000
vn 0.000000 1.000000 0.000000
vn 0.000000 1.000000 0.000000
vn 0.000000 1.000000 0.000000
vn 0.000000 1.000000 0.000000
vn 0.000000 1.000000 0.000000
vn 0.000000 1.000000 0.000000
vn 0.000000 1.000000 0.000000
vn 0.000000 1.000000 0.000000
vn 0.000000 1.000000 0.000000
vn 0.000000 1.000000 0.000000
vn 0.000000 1.000000 0.000000
vn 0.000000 1.000000 0.000000
vn 0.000000 1.000000 0.000000
vn 0.000000 1.000000 0.000000
vn 0.000000 1.000000 0.000000
vn 0.000000 1.000000 0.000000
vn 0.000000 1.000000 0.000000
vn 0.000000 1.000000 0.000000
vn 0.000000 1.000000 0.000000
vn 0.000000 1.000000 0.000000
vn 0.000000 1.000000 0.000000
vn 0.000000 1.000000 0.000000
vn 0.000000 1.000000 0.000000
vn 0.000000 1.000000 0.000000
vn 0.000000 1.000000 0.000000
vn 0.000000 1.000000 0.000000
vn 0.000000 1.000000 0.000000
vn 0.000000 1.000000 0.000000
vn 0.000000 1.000000 0.000000
vn 0.000000 1.000000 0.000000
vn 0.000000 1.000000 0.000000
vn 0.000000 1.000000 0.000000
vn 0.000000 1.000000 0.000000
vn 0.000000 1.000000 0.000000
vn 0.000000 1.000000 0.000000
vn 0.000000 1.000000 0.000000
vn 0.000000 1.000000 0.000000
vn 0.000000 1.000000 0.000000
vn 0.000000 1.000000 0.000000
vn 0.000000 1.000000 0.000000
vn 0.000000 1.000000 0.000000
vn 0.000000 1.000000 0.000000
vn 0.000000 1.000000 0.000000
vn 0.000000 1.000000 0.000000
vn 0.000000 1.000000 0.000000
vn 0.000000 1.000000 0.000000
vn 0.000000 1.000000 0.000000
vn 0.000000 1.000000 0.000000
vn 0.000000 1.000000 0.000000
vn 0.000000 1.000000 0.000000
vn 0.000000 1.000000 0.000000
vn 0.000000 1.000000 0.000000
vn 0.000000 1.000000 0.000000
vn 0.000000 1.000000 0.000000
vn 0.000000 1.000000 0.000000
vn 0.000000 1.000000 0.000000
vn 0.000000 1.000000 0.000000
vn 0.000000 1.000000 0.000000
vn 0.000000 1.000000 0.000000
vn 0.000000 1.000000 0.000000
vn 0.000000 1.000000 0.000000
vn 0.000000 1.000000 0.000000
vn 0.000000 1.000000 0.000000
vn 0.000000 1.000000 0.000000
vn 0.000000 1.000000 0.000000
vn 0.000000 1.000000 0.000000
vn 0.000000 1.000000 0.000000
vn 0.000000 1.000000 0.000000
vn 0.000000 1.000000 0.000000
vn 0.000000 1.000000 0.000000
vn 0.000000 1.000000 0.000000
vn 0.000000 1.000000 0.000000
vn 0.000000 1.000000 0.000000
vn 0.000000 1.000000 0.000000
vn 0.000000 1.000000 0.000000
vn 0.000000 1.000000 0.000000
vn 0.000000 1.000000 0.000000
vn 0.000000 1.000000 0.000000
vn 0.000000 1.000000 0.000000
vn 0.000000 1.000000 0.000000
vn 0.000000 1.000000 0.000000
vn 0.000000 1.000000 0.000000
vn 0.000000 1.000000 0.000000
vn 0.000000 1.000000 0.000000
vn 0.000000 1.000000 0.000000
vn 0.000000 1.000000 0.000000
vn 0.000000 1.000000 0.000000
vn 0.000000 1.000000 0.000000
vn 0.000000 1.000000 0.000000
vn 0.000000 1.000000 0.000000
vn 0.000000 1.000000 0.000000
vn 0.000000 1.000000 0.000000
vn 0.000000 1.000000 0.000000
vn 0.000000 1.000000 0.000000
vn 0.000000 1.000000 0.000000
vn 0.000000 1.000000 0.000000
vn 0.000000 1.000000 0.000000
vn 0.000000 1.000000 0.000000
vn 0.000000 1.000000 0.000000
vn 0.000000 1.000000 0.000000
vn 0.000000 1.000000 0.000000
vn 0.000000 1.000000 0.000000
vn 0.000000 1.000000 0.000000
vn 0.000000 1.000000 0.000000
vn 0.000000 1.000000 0.000000
vn 0.000000 1.000000 0.000000
vn 0.000000 1.000000 0.000000
vn 0.000000 1.000000 0.000000
vn 0.000000 1.000000 0.000000
vn 0.000000 1.000000 0.000000
vn 0.000000 1.000000 0.000000
vn 0.000000 1.000000 0.000000
vn 0.000000 1.000000 0.000000
vn 0.000000 1.000000 0.000000
vn 0.000000 1.000000 0.000000
vn 0.000000 1.000000 0.000000
vn 0.000000 1.000000 0.000000
vn 0.000000 1.000000 0.000000
vn 0.000000 1.000000 0.000000
vn 0.000000 1.000000 0.000000
vn 0.000000 1.000000 0.000000
vn 0.000000 1.000000 0.000000
vn 0.000000 1.000000 0.000000
vn 0.000000 1.000000 0.000000
vn 0.000000 1.000000 0.000000
vn 0.000000 1.000000 0.000000
vn 0.000000 1.000000 0.000000
vn 0.000000 1.000000 0.000000
vn 0.000000 1.000000 0.000000
vn 0.000000 1.000000 0.000000
vn 0.000000 1.000000 0.000000
vn 0.000000 1.000000 0.000000
vn 0.000000 1.000000 0.000000
vn 0.000000 1.000000 0.000000
vn 0.000000 1.000000 0.000000
vn 0.000000 1.000000 0.000000
vn 0.000000 1.000000 0.000000
vn 0.000000 1.000000 0.000000
vn 0.000000 1.000000 0.000000
vn 0.000000 1.000000 0.000000
vn 0.000000 1.000000 0.000000
vn 0.000000 1.000000 0.000000
vn 0.000000 1.000000 0.000000
vn 0.000000 1.000000 0.000000
vn 0.000000 1.000000 0.000000
vn 0.000000 1.000000 0.000000
vn 0.000000 1.000000 0.000000
vn 0.000000 1.000000 0.000000
vn 0.000000 1.000000 0.000000
vn 0.000000 1.000000 0.000000
vn 0.000000 1.000000 0.000000
vn 0.000000 1.000000 0.000000
vn 0.000000 1.000000 0.000000
vn 0.000000 1.000000 0.000000
vn 0.000000 1.000000 0.000000
vn 0.000000 1.000000 0.000000
vn 0.000000 1.000000 0.000000
vn 0.000000 1.000000 0.000000
vn 0.000000 1.000000 0.000000
vn 0.000000 1.000000 0.000000
vn 0.000000 1.000000 0.000000
vn 0.000000 1.000000 0.000000
vn 0.000000 1.000000 0.000000
vn 0.000000 1.000000 0.000000
vn 0.000000 1.000000 0.000000
vn 0.000000 1.000000 0.000000
vn 0.000000 1.000000 0.000000
vn 0.000000 1.000000 0.000000
vn 0.000000 1.000000 0.000000
vn 0.000000 1.000000 0.000000
vn 0.000000 1.000000 0.000000
vn 0.000000 1.000000 0.000000
vn 0.000000 1.000000 0.000000
vn 0.000000 1.000000 0.000000
vn 0.000000 1.000000 0.000000
vn 0.000000 1.000000 0.000000
vn 0.000000 1.000000 -0.000000
vn 0.000000 1.000000 -0.000000
vn 0.000000 1.000000 -0.000000
vn 0.000000 1.000000 -0.000000
vn 0.000000 1.000000 -0.000000
vn 0.000000 1.000000 -0.000000
vn 0.000000 1.000000 -0.000000
vn 0.000000 1.000000 -0.000000
vn 0.000000 1.000000 -0.000000
vn 0.000000 1.000000 -0.000000
vn 0.000000 1.000000 -0.000000
vn 0.000000 1.000000 -0.000000
vn 0.000000 1.000000 0.000000
vn 0.000000 1.000000 0.000000
vn 0.000000 1.000000 0.000000
vn 0.000000 1.000000 0.000000
vn 0.000000 1.000000 0.000000
vn 0.000000 1.000000 0.000000
vn 0.000000 1.000000 0.000000
vn 0.000000 1.000000 0.000000
vn 0.000000 1.000000 0.000000
vn 0.000000 1.000000 0.000000
vn 0.000000 1.000000 0.000000
vn 0.000000 1.000000 0.000000
vn 0.000000 1.000000 0.000000
vn 0.000000 1.000000 0.000000
vn 0.000000 1.000000 0.000000
vn 0.000000 1.000000 0.000000
vn 0.000000 1.000000 0.000000
vn 0.000000 1.000000 0.000000
vn 0.000000 1.000000 0.000000
vn 0.000000 1.000000 0.000000
vn 0.000000 1.000000 0.000000
vn 0.000000 1.000000 0.000000
vn 0.000000 1.000000 0.000000
vn 0.000000 1.000000 0.000000
vn -0.000000 1.000000 -0.000000
vn -0.000000 1.000000 -0.000000
vn -0.000000 1.000000 -0.000000
vn -0.000000 1.000000 -0.000000
vn -0.000000 1.000000 -0.000000
vn -0.000000 1.000000 -0.000000
vn -0.000000 1.000000 -0.000000
vn 0.000000 1.000000 0.000000
vn 0.000000 1.000000 0.000000
vn 0.000000 1.000000 0.000000
vn 0.000000 1.000000 0.000000
vn 0.000000 1.000000 0.000000
vn 0.000000 1.000000 0.000000
vn 0.000000 1.000000 0.000000
s off
f 4/1/1 86/2/2 87/3/3 88/4/4 89/5/5 90/6/6 91/7/7 92/8/8 93/9/9 94/10/10 95/11/11 13/12/12
f 5/13/13 4/14/14 13/15/15 14/16/16
f 6/17/17 5/18/18 14/19/19 12/20/20
f 11/21/21 59/22/22 8/23/23 9/24/24 2/25/25 52/26/26 58/27/27 57/28/28 34/29/29 3/30/30 7/31/31 15/32/32 10/33/33
f 60/34/34 61/35/35 17/36/36 21/37/37
f 17/38/38 16/39/39 22/40/40 21/41/41
f 20/42/42 22/43/43 16/44/44 19/45/45
f 61/35/46 62/46/47 24/47/48 17/36/49
f 25/48/50 16/39/51 17/38/52 24/49/53
f 23/50/54 19/45/55 16/44/56 25/51/57
f 39/52/58 40/53/59 41/54/60 37/55/61
f 26/56/62 27/57/63 4/14/64 5/13/65
f 27/58/66 66/59/67 67/60/68 68/61/69 69/62/70 70/63/71 71/64/72 72/65/73 73/66/74 74/67/75 75/68/76 4/1/77
f 30/69/78 26/70/79 5/18/80 6/17/81
f 31/71/82 28/72/83 32/73/84 7/31/85 3/30/86 35/74/87 56/75/88 55/76/89 54/77/90 1/78/91 53/79/92 33/80/93 29/81/94
f 96/82/95 107/83/96 85/84/97 35/85/98 3/86/99 34/87/100
f 43/88/101 48/89/102 47/90/103 20/91/104 19/92/105 23/93/106 36/94/107 39/52/108 37/55/109 44/95/110 45/96/111
f 30/97/112 38/98/113 36/94/114 23/93/115
f 44/95/116 42/99/117 46/100/118 45/96/119
f 49/101/120 48/89/121 43/88/122 50/102/123
f 51/103/124 12/104/125 20/91/126 47/90/127
f 12/104/128 51/103/129 49/101/130 50/102/131 46/100/132 42/99/133 41/54/134 40/53/135 38/98/136 30/97/137 6/105/138
f 51/106/139 47/107/140 48/108/141 49/109/142
f 50/110/143 43/111/144 45/112/145 46/113/146
f 37/114/147 41/115/148 42/116/149 44/117/150
f 36/118/151 38/119/152 40/120/153 39/121/154
f 18/122/155 64/123/156 65/124/157
f 18/122/158 63/125/159 64/123/160
f 64/126/161 63/127/162 62/128/163 61/129/164
f 65/130/165 64/126/166 61/129/167 60/131/168
f 76/132/169 77/133/170 67/134/171 66/135/172
f 77/133/173 78/136/174 68/137/175 67/134/176
f 78/136/177 79/138/178 69/139/179 68/137/180
f 79/138/181 80/140/182 70/141/183 69/139/184
f 71/142/185 70/141/186 80/140/187 81/143/188
f 81/143/189 82/144/190 72/145/191 71/142/192
f 82/144/193 83/146/194 73/147/195 72/145/196
f 74/148/197 73/147/198 83/146/199 84/149/200
f 75/150/201 74/148/202 84/149/203 85/151/204
f 28/152/205 31/153/206 77/154/207 76/155/208
f 31/156/209 29/157/210 78/136/211 77/133/212
f 29/158/213 33/159/214 79/160/215 78/161/216
f 33/162/217 53/163/218 80/140/219 79/138/220
f 81/164/221 80/165/222 53/166/223 1/167/224
f 1/168/225 54/169/226 82/144/227 81/143/228
f 55/170/229 83/171/230 82/172/231 54/173/232
f 84/149/233 83/146/234 55/174/235 56/175/236
f 85/84/237 84/176/238 56/177/239 35/85/240
f 96/178/241 97/179/242 87/180/243 86/181/244
f 88/182/245 87/180/246 97/179/247 98/183/248
f 88/182/249 98/183/250 99/184/251 89/185/252
f 90/186/253 89/185/254 99/184/255 100/187/256
f 100/187/257 101/188/258 91/189/259 90/186/260
f 101/188/261 102/190/262 92/191/263 91/189/264
f 102/190/265 103/192/266 93/193/267 92/191/268
f 94/194/269 93/193/270 103/192/271 104/195/272
f 104/195/273 105/196/274 95/197/275 94/194/276
f 34/87/277 57/198/278 97/199/279 96/82/280
f 98/183/281 97/179/282 57/200/283 58/201/284
f 98/202/285 58/203/286 52/204/287 99/205/288
f 100/187/289 99/184/290 52/206/291 2/207/292
f 2/208/293 9/209/294 101/210/295 100/211/296
f 9/212/297 8/213/298 102/190/299 101/188/300
f 8/214/301 59/215/302 103/216/303 102/217/304
f 104/195/305 103/192/306 59/218/307 11/219/308
f 11/220/309 10/221/310 105/222/311 104/223/312
f 4/1/313 106/224/314 86/2/315
f 86/181/316 106/225/317 107/226/318 96/178/319
f 75/68/320 106/224/321 4/1/322
f 107/226/323 106/225/324 75/150/325 85/151/326
