# This file uses meters as units for non-parametric coordinates.

v 0.000000 -1.000000 0.000000
v 30.000000 -1.000000 0.000000
v 0.000000 0.000000 0.000000
v 30.000000 0.000000 0.000000
v 0.000000 0.000000 -45.500000
v 30.000000 0.000000 -45.500000
v 0.000000 -1.000000 -45.500000
v 30.000000 -1.000000 -45.500000
v 2.579839 0.000000 -3.654309
v 27.420160 0.000000 -3.654309
v 27.420160 0.000000 -41.845692
v 2.579839 0.000000 -41.845692
v 3.069022 0.000000 -4.232902
v 26.930977 0.000000 -4.232902
v 26.930977 0.000000 -41.267097
v 3.069022 0.000000 -41.267097
v 3.069022 0.000000 -23.001829
v 26.930977 0.000000 -23.001829
v 26.930977 0.000000 -22.405874
v 3.069022 0.000000 -22.405874
v 7.043700 0.000000 -29.444380
v 22.956299 0.000000 -29.444380
v 22.956299 0.000000 -41.267097
v 7.043700 0.000000 -41.267097
v 7.022645 0.000000 -4.232902
v 22.977354 0.000000 -4.232902
v 22.977354 0.000000 -15.993361
v 7.022645 0.000000 -15.993361
v 7.592151 0.000000 -4.232902
v 22.407848 0.000000 -4.232902
v 22.407848 0.000000 -15.344230
v 7.592151 0.000000 -15.344230
v 7.611014 0.000000 -30.096401
v 22.388985 0.000000 -30.096401
v 22.388985 0.000000 -41.267097
v 7.611014 0.000000 -41.267097
v 11.184765 0.000000 -23.001829
v 18.815235 0.000000 -23.001829
v 18.815235 0.000000 -26.768883
v 11.184765 0.000000 -26.768883
v 18.815235 0.000000 -22.405874
v 11.184765 0.000000 -22.405874
v 11.174668 0.000000 -18.668858
v 18.825331 0.000000 -18.668858
v 11.749690 0.000000 -23.001829
v 18.250309 0.000000 -23.001829
v 18.250309 0.000000 -26.170218
v 11.749690 0.000000 -26.170218
v 18.243336 0.000000 -22.405874
v 11.756663 0.000000 -22.405874
v 11.748080 0.000000 -19.268715
v 18.251919 0.000000 -19.268715
vt 0.261428 0.065552
vt 0.261428 0.065552
vt 0.261428 0.065552
vt 0.261428 0.065552
vt 0.261428 0.065552
vt 0.261428 0.065552
vt 0.261428 0.065552
vt 0.261428 0.065552
vt 0.261428 0.065552
vt 0.261428 0.065552
vt 0.261428 0.065552
vt 0.261428 0.065552
vt 0.261428 0.065552
vt 0.261428 0.065552
vt 0.261428 0.065552
vt 0.261428 0.065552
vt 0.261428 0.065552
vt 0.261428 0.065552
vt 0.261428 0.065552
vt 0.261428 0.065552
vt 0.261428 0.065552
vt 0.261428 0.065552
vt 0.261428 0.065552
vt 0.261428 0.065552
vt 0.261428 0.065552
vt 0.261428 0.065552
vt 0.261428 0.065552
vt 0.261428 0.065552
vt 0.261428 0.065552
vt 0.261428 0.065552
vt 0.261428 0.065552
vt 0.261428 0.065552
vt 0.261428 0.065552
vt 0.261428 0.065552
vt 0.261428 0.065552
vt 0.261428 0.065552
vt 0.261428 0.065552
vt 0.261428 0.065552
vt 0.261428 0.065552
vt 0.261428 0.065552
vt 0.261428 0.065552
vt 0.261428 0.065552
vt 0.261428 0.065552
vt 0.261428 0.065552
vt 0.261428 0.065552
vt 0.261428 0.065552
vt 0.261428 0.065552
vt 0.261428 0.065552
vt 0.261428 0.065552
vt 0.261428 0.065552
vt 0.261428 0.065552
vt 0.261428 0.065552
vt 0.261428 0.065552
vt 0.261428 0.065552
vt 0.261428 0.065552
vt 0.261428 0.065552
vt 0.261428 0.065552
vt 0.261428 0.065552
vt 0.418753 0.066703
vt 0.418753 0.066703
vt 0.418753 0.066703
vt 0.418753 0.066703
vt 0.418753 0.066703
vt 0.418753 0.066703
vt 0.418753 0.066703
vt 0.418753 0.066703
vt 0.418753 0.066703
vt 0.418753 0.066703
vt 0.418753 0.066703
vt 0.418753 0.066703
vt 0.418753 0.066703
vt 0.418753 0.066703
vt 0.418753 0.066703
vt 0.418753 0.066703
vt 0.418753 0.066703
vt 0.418753 0.066703
vt 0.418753 0.066703
vt 0.418753 0.066703
vt 0.418753 0.066703
vt 0.418753 0.066703
vt 0.418753 0.066703
vt 0.418753 0.066703
vt 0.418753 0.066703
vt 0.418753 0.066703
vt 0.418753 0.066703
vt 0.418753 0.066703
vt 0.418753 0.066703
vt 0.418753 0.066703
vt 0.418753 0.066703
vt 0.418753 0.066703
vt 0.418753 0.066703
vt 0.418753 0.066703
vt 0.418753 0.066703
vt 0.418753 0.066703
vt 0.418753 0.066703
vt 0.418753 0.066703
vt 0.418753 0.066703
vt 0.418753 0.066703
vt 0.418753 0.066703
vt 0.418753 0.066703
vt 0.418753 0.066703
vt 0.418753 0.066703
vn 0.000000 0.000000 1.000000
vn 0.000000 0.000000 1.000000
vn 0.000000 0.000000 1.000000
vn 0.000000 0.000000 1.000000
vn 0.000000 1.000000 0.000000
vn 0.000000 1.000000 0.000000
vn 0.000000 1.000000 0.000000
vn 0.000000 1.000000 0.000000
vn 0.000000 0.000000 -1.000000
vn 0.000000 0.000000 -1.000000
vn 0.000000 0.000000 -1.000000
vn 0.000000 0.000000 -1.000000
vn 0.000000 -1.000000 0.000000
vn 0.000000 -1.000000 0.000000
vn 0.000000 -1.000000 0.000000
vn 0.000000 -1.000000 0.000000
vn 1.000000 0.000000 0.000000
vn 1.000000 0.000000 0.000000
vn 1.000000 0.000000 0.000000
vn 1.000000 0.000000 0.000000
vn -1.000000 0.000000 0.000000
vn -1.000000 0.000000 0.000000
vn -1.000000 0.000000 0.000000
vn -1.000000 0.000000 0.000000
vn 0.000000 1.000000 0.000000
vn 0.000000 1.000000 0.000000
vn 0.000000 1.000000 0.000000
vn 0.000000 1.000000 0.000000
vn 0.000000 1.000000 0.000000
vn 0.000000 1.000000 0.000000
vn 0.000000 1.000000 0.000000
vn 0.000000 1.000000 0.000000
vn 0.000000 1.000000 0.000000
vn 0.000000 1.000000 0.000000
vn 0.000000 1.000000 0.000000
vn 0.000000 1.000000 0.000000
vn 0.000000 1.000000 0.000000
vn 0.000000 1.000000 0.000000
vn 0.000000 1.000000 0.000000
vn 0.000000 1.000000 0.000000
vn 0.000000 1.000000 0.000000
vn 0.000000 1.000000 0.000000
vn 0.000000 1.000000 0.000000
vn 0.000000 1.000000 0.000000
vn 0.000000 1.000000 0.000000
vn 0.000000 1.000000 0.000000
vn 0.000000 1.000000 0.000000
vn 0.000000 1.000000 0.000000
vn 0.000000 1.000000 0.000000
vn 0.000000 1.000000 0.000000
vn 0.000000 1.000000 0.000000
vn 0.000000 1.000000 0.000000
vn 0.000000 1.000000 0.000000
vn 0.000000 1.000000 0.000000
vn 0.000000 1.000000 0.000000
vn 0.000000 1.000000 0.000000
vn 0.000000 1.000000 0.000000
vn 0.000000 1.000000 0.000000
vn 0.000000 1.000000 0.000000
vn 0.000000 1.000000 0.000000
vn 0.000000 1.000000 0.000000
vn 0.000000 1.000000 0.000000
vn 0.000000 1.000000 0.000000
vn 0.000000 1.000000 0.000000
vn 0.000000 1.000000 0.000000
vn 0.000000 1.000000 0.000000
vn 0.000000 1.000000 0.000000
vn 0.000000 1.000000 0.000000
vn 0.000000 1.000000 0.000000
vn 0.000000 1.000000 0.000000
vn 0.000000 1.000000 0.000000
vn 0.000000 1.000000 0.000000
vn 0.000000 1.000000 0.000000
vn 0.000000 1.000000 0.000000
vn 0.000000 1.000000 0.000000
vn 0.000000 1.000000 0.000000
vn 0.000000 1.000000 0.000000
vn 0.000000 1.000000 0.000000
vn 0.000000 1.000000 0.000000
vn 0.000000 1.000000 0.000000
vn 0.000000 1.000000 0.000000
vn 0.000000 1.000000 0.000000
vn 0.000000 1.000000 0.000000
vn 0.000000 1.000000 0.000000
vn 0.000000 1.000000 0.000000
vn 0.000000 1.000000 0.000000
vn 0.000000 1.000000 0.000000
vn 0.000000 1.000000 0.000000
vn 0.000000 1.000000 0.000000
vn 0.000000 1.000000 0.000000
vn 0.000000 1.000000 0.000000
vn 0.000000 1.000000 0.000000
vn 0.000000 1.000000 0.000000
vn 0.000000 1.000000 0.000000
vn 0.000000 1.000000 0.000000
vn 0.000000 1.000000 0.000000
vn 0.000000 1.000000 0.000000
vn 0.000000 1.000000 0.000000
vn 0.000000 1.000000 0.000000
vn 0.000000 1.000000 0.000000
vn 0.000000 1.000000 0.000000
vn 0.000000 1.000000 0.000000
vn 0.000000 1.000000 0.000000
vn 0.000000 1.000000 0.000000
vn 0.000000 1.000000 0.000000
vn 0.000000 1.000000 0.000000
vn 0.000000 1.000000 0.000000
vn 0.000000 1.000000 0.000000
vn 0.000000 1.000000 0.000000
vn 0.000000 1.000000 0.000000
vn 0.000000 1.000000 0.000000
vn 0.000000 1.000000 0.000000
vn 0.000000 1.000000 0.000000
vn 0.000000 1.000000 0.000000
vn 0.000000 1.000000 0.000000
vn 0.000000 1.000000 0.000000
vn 0.000000 1.000000 0.000000
vn 0.000000 1.000000 0.000000
vn 0.000000 1.000000 0.000000
vn 0.000000 1.000000 0.000000
vn 0.000000 1.000000 0.000000
vn 0.000000 1.000000 0.000000
vn 0.000000 1.000000 0.000000
vn 0.000000 1.000000 0.000000
vn 0.000000 1.000000 0.000000
vn 0.000000 1.000000 0.000000
vn 0.000000 1.000000 0.000000
vn 0.000000 1.000000 0.000000
vn 0.000000 1.000000 0.000000
vn 0.000000 1.000000 0.000000
vn 0.000000 1.000000 0.000000
vn 0.000000 1.000000 0.000000
vn 0.000000 1.000000 0.000000
vn 0.000000 1.000000 0.000000
vn 0.000000 1.000000 0.000000
vn 0.000000 1.000000 0.000000
vn 0.000000 1.000000 0.000000
vn 0.000000 1.000000 0.000000
vn 0.000000 1.000000 0.000000
vn 0.000000 1.000000 0.000000
vn 0.000000 1.000000 0.000000
vn 0.000000 1.000000 0.000000
vn 0.000000 1.000000 0.000000
vn 0.000000 1.000000 0.000000
vn 0.000000 1.000000 0.000000
vn 0.000000 1.000000 0.000000
vn 0.000000 1.000000 0.000000
vn 0.000000 1.000000 0.000000
vn 0.000000 1.000000 0.000000
vn 0.000000 1.000000 0.000000
vn 0.000000 1.000000 0.000000
vn 0.000000 1.000000 0.000000
vn 0.000000 1.000000 0.000000
vn 0.000000 1.000000 0.000000
vn 0.000000 1.000000 0.000000
vn 0.000000 1.000000 0.000000
vn 0.000000 1.000000 0.000000
vn 0.000000 1.000000 0.000000
vn 0.000000 1.000000 0.000000
vn 0.000000 1.000000 0.000000
vn 0.000000 1.000000 0.000000
vn 0.000000 1.000000 0.000000
vn 0.000000 1.000000 0.000000
vn 0.000000 1.000000 0.000000
vn 0.000000 1.000000 0.000000
vn 0.000000 1.000000 0.000000
vn 0.000000 1.000000 0.000000
vn 0.000000 1.000000 0.000000
vn 0.000000 1.000000 0.000000
vn 0.000000 1.000000 0.000000
vn 0.000000 1.000000 0.000000
vn 0.000000 1.000000 0.000000
vn 0.000000 1.000000 0.000000
vn 0.000000 1.000000 0.000000
vn 0.000000 1.000000 0.000000
vn 0.000000 1.000000 0.000000
vn 0.000000 1.000000 0.000000
vn 0.000000 1.000000 0.000000
vn 0.000000 1.000000 0.000000
vn 0.000000 1.000000 0.000000
s off
f 1/1/1 2/2/2 4/4/3 3/3/4
f 33/39/5 34/40/6 35/41/7 36/42/8
f 5/5/9 6/6/10 8/8/11 7/7/12
f 7/7/13 8/8/14 2/10/15 1/9/16
f 2/2/17 8/11/18 6/12/19 4/4/20
f 7/13/21 1/1/22 3/3/23 5/14/24
f 3/3/25 4/4/26 10/16/27 9/15/28
f 4/4/29 6/6/30 11/17/31 10/16/32
f 6/6/33 5/5/34 12/18/35 11/17/36
f 5/5/37 3/3/38 9/15/39 12/18/40
f 10/59/41 11/60/42 15/61/43 18/62/44 19/63/45 14/64/46
f 23/65/47 15/61/48 11/60/49 12/66/50 16/67/51 24/68/52 36/69/53 35/70/54
f 12/66/55 9/71/56 13/72/57 20/73/58 17/74/59 16/67/60
f 29/35/61 30/36/62 31/37/63 32/38/64
f 45/51/65 46/52/66 47/53/67 48/54/68
f 18/24/69 15/21/70 23/29/71 22/28/72
f 16/22/73 17/23/74 21/27/75 24/30/76
f 14/20/77 19/25/78 27/33/79 26/32/80
f 49/55/81 50/56/82 51/57/83 52/58/84
f 20/26/85 13/19/86 25/31/87 28/34/88
f 26/75/89 30/76/90 29/77/91 25/78/92 13/72/93 9/71/94 10/59/95 14/64/96
f 26/75/97 27/79/98 31/80/99 30/76/100
f 27/79/101 28/81/102 32/82/103 31/80/104
f 28/81/105 25/78/106 29/77/107 32/82/108
f 21/83/109 22/84/110 34/85/111 33/86/112
f 22/84/113 23/65/114 35/70/115 34/85/116
f 24/68/117 21/83/118 33/86/119 36/69/120
f 18/24/121 22/28/122 39/45/123 38/44/124
f 22/28/125 21/27/126 40/46/127 39/45/128
f 21/27/129 17/23/130 37/43/131 40/46/132
f 20/26/133 28/34/134 43/49/135 42/48/136
f 28/34/137 27/33/138 44/50/139 43/49/140
f 27/33/141 19/25/142 41/47/143 44/50/144
f 38/87/145 46/88/146 45/89/147 37/90/148 17/74/149 20/73/150 42/91/151 50/92/152 49/93/153 41/94/154 19/63/155 18/62/156
f 38/87/157 39/95/158 47/96/159 46/88/160
f 39/95/161 40/97/162 48/98/163 47/96/164
f 40/97/165 37/90/166 45/89/167 48/98/168
f 42/91/169 43/99/170 51/100/171 50/92/172
f 43/99/173 44/101/174 52/102/175 51/100/176
f 44/101/177 41/94/178 49/93/179 52/102/180
