# This file uses meters as units for non-parametric coordinates.

v -4.999992 -0.194796 -2.869125
v -4.999992 -0.194796 -10.000000
v -4.999992 0.000000 -2.869125
v -4.999992 0.000000 0.000000
v 0.000000 0.000000 0.000000
v -4.999992 -0.194796 -3.165329
v -2.869118 0.000000 0.000000
v -2.869118 0.000000 -2.869125
v -3.157722 -0.194796 -3.165329
v -3.157722 -0.194796 -10.000000
v 0.000000 0.000000 -2.869125
v 0.000000 0.000000 -10.000000
v -2.869125 -0.194796 -2.869125
v -2.869118 0.000000 -10.000000
v -2.869118 -0.194796 -10.000000
v -4.999992 -0.194796 0.000000
v 0.000000 -0.194796 0.000000
v 0.000000 -0.194796 -10.000000
v -4.999992 -0.194796 -3.165329
v -3.157722 -0.194796 -3.165329
v -3.157722 -0.194796 -10.000000
v -2.582207 0.000000 -10.000000
v -2.582207 0.000000 -2.869125
v -2.869118 0.000000 -2.582214
v -4.999992 0.000000 -2.582214
v -4.999992 0.000000 -2.507660
v -2.869118 0.000000 -2.507660
v -2.522018 0.000000 -2.869125
v -2.522018 0.000000 -10.000000
v -2.522018 0.000000 -2.507660
v -2.582207 0.000000 -2.582214
v -2.812263 0.000000 -2.507660
v -2.812263 0.000000 0.000000
v -2.522018 0.000000 -2.811707
v 0.000000 0.000000 -2.811707
v 0.000000 0.000000 -6.434570
v -2.522018 0.000000 -6.434570
v 0.000000 0.000000 -6.359741
v -2.522018 0.000000 -6.359741
vt 0.693189 0.228925
vt 0.693189 0.228925
vt 0.693189 0.228925
vt 0.693189 0.228925
vt 0.297836 0.481233
vt 0.297836 0.481233
vt 0.297836 0.481233
vt 0.297836 0.481233
vt 0.294329 0.062489
vt 0.294329 0.062489
vt 0.294329 0.062489
vt 0.294329 0.062489
vt 0.236412 0.477137
vt 0.236412 0.477137
vt 0.236412 0.477137
vt 0.236412 0.477137
vt 0.297836 0.481233
vt 0.297836 0.481233
vt 0.294329 0.062489
vt 0.294329 0.062489
vt 0.294329 0.062489
vt 0.294329 0.062489
vt 0.294329 0.062489
vt 0.294329 0.062489
vt 0.294329 0.062489
vt 0.294329 0.062489
vt 0.294329 0.062489
vt 0.359268 0.062489
vt 0.359268 0.062489
vt 0.359268 0.062489
vt 0.359268 0.062489
vt 0.359268 0.062489
vt 0.359268 0.062489
vt 0.359268 0.062489
vt 0.359268 0.062489
vt 0.359268 0.062489
vt 0.359268 0.062489
vt 0.359268 0.062489
vt 0.359268 0.062489
vt 0.693189 0.228925
vt 0.693189 0.228925
vt 0.693189 0.228925
vt 0.693189 0.228925
vt 0.693189 0.228925
vt 0.693189 0.228925
vt 0.693189 0.228925
vt 0.693189 0.228925
vt 0.236412 0.477137
vt 0.236412 0.477137
vt 0.362335 0.479185
vt 0.362335 0.479185
vt 0.362335 0.479185
vt 0.362335 0.479185
vt 0.362335 0.479185
vt 0.362335 0.479185
vt 0.362335 0.479185
vt 0.362335 0.479185
vt 0.552575 0.228683
vt 0.552575 0.228683
vt 0.552575 0.228683
vt 0.552575 0.228683
vt 0.294329 0.062489
vt 0.294329 0.062489
vt 0.294329 0.062489
vt 0.552575 0.228683
vt 0.552575 0.228683
vt 0.552575 0.228683
vt 0.552575 0.228683
vt 0.294329 0.062489
vt 0.294329 0.062489
vt 0.552575 0.228683
vt 0.552575 0.228683
vt 0.552575 0.228683
vt 0.552575 0.228683
vt 0.552575 0.228683
vt 0.552575 0.228683
vt 0.552575 0.228683
vt 0.552575 0.228683
vt 0.552575 0.228683
vt 0.552575 0.228683
vt 0.294329 0.062489
vt 0.294329 0.062489
vn 0.000000 1.000000 0.000000
vn 0.000000 1.000000 0.000000
vn 0.000000 1.000000 0.000000
vn 0.000000 1.000000 0.000000
vn 0.000000 0.000000 -1.000000
vn 0.000000 0.000000 -1.000000
vn 0.000000 0.000000 -1.000000
vn 0.000000 0.000000 -1.000000
vn 0.000000 1.000000 0.000000
vn 0.000000 1.000000 0.000000
vn 0.000000 1.000000 0.000000
vn 0.000000 1.000000 0.000000
vn 0.000000 1.000000 0.000000
vn 0.000000 1.000000 0.000000
vn 0.000000 1.000000 0.000000
vn 0.000000 1.000000 0.000000
vn -1.000000 0.000021 -0.000001
vn -1.000000 0.000021 -0.000001
vn -1.000000 0.000021 -0.000001
vn -1.000000 0.000021 -0.000001
vn 0.000000 1.000000 0.000000
vn 0.000000 1.000000 0.000000
vn 0.000000 1.000000 0.000000
vn 0.000000 1.000000 0.000000
vn 0.000000 1.000000 0.000000
vn 0.000000 1.000000 0.000000
vn 0.000000 1.000000 0.000000
vn 0.000000 1.000000 0.000000
vn 0.000000 1.000000 0.000000
vn 0.000000 1.000000 0.000000
vn 0.000000 1.000000 0.000000
vn 0.000000 0.000000 1.000000
vn 0.000000 0.000000 1.000000
vn 0.000000 0.000000 1.000000
vn 0.000000 0.000000 1.000000
vn 0.000000 0.000000 1.000000
vn 0.000000 0.000000 1.000000
vn 1.000000 0.000000 0.000000
vn 1.000000 0.000000 0.000000
vn 1.000000 0.000000 0.000000
vn 1.000000 0.000000 0.000000
vn 1.000000 0.000000 0.000000
vn 1.000000 0.000000 0.000000
vn 1.000000 0.000000 0.000000
vn 1.000000 0.000000 0.000000
vn 0.000000 0.000000 0.000000
vn 0.000000 0.000000 0.000000
vn 0.000000 0.000000 0.000000
vn 0.000000 0.000000 0.000000
vn 0.000000 0.000000 0.000000
vn 0.000000 0.000000 0.000000
vn 0.000000 0.000000 0.000000
vn 0.000000 0.000000 0.000000
vn 0.000000 0.000000 0.000000
vn 0.000000 0.000000 0.000000
vn 0.000000 0.000000 0.000000
vn 0.000000 0.000000 0.000000
vn 0.000000 1.000000 -0.000000
vn 0.000000 1.000000 -0.000000
vn 0.000000 1.000000 -0.000000
vn 0.000000 1.000000 -0.000000
vn 0.000000 1.000000 0.000000
vn 0.000000 1.000000 0.000000
vn 0.000000 1.000000 0.000000
vn 0.000000 1.000000 0.000000
vn 0.000000 1.000000 0.000000
vn 0.000000 1.000000 0.000000
vn 0.000000 1.000000 0.000000
vn 0.000000 1.000000 0.000000
vn 0.000000 1.000000 0.000000
vn 0.000000 1.000000 0.000000
vn 0.000000 1.000000 0.000000
vn 0.000000 1.000000 0.000000
vn 0.000000 1.000000 0.000000
vn 0.000000 1.000000 0.000000
vn 0.000000 1.000000 0.000000
vn 0.000000 1.000000 0.000000
vn 0.000000 1.000000 0.000000
vn 0.000000 1.000000 0.000000
vn 0.000000 1.000000 0.000000
vn 0.000000 1.000000 0.000000
vn 0.000000 1.000000 0.000000
vn 0.000000 1.000000 0.000000
vn 0.000000 1.000000 0.000000
vn 0.000000 1.000000 0.000000
vn 0.000000 1.000000 0.000000
vn 0.000000 1.000000 0.000000
vn 0.000000 1.000000 0.000000
vn 0.000000 1.000000 0.000000
vn 0.000000 1.000000 0.000000
vn 0.000000 1.000000 0.000000
vn 0.000000 1.000000 0.000000
vn 0.000000 1.000000 0.000000
vn 0.000000 1.000000 0.000000
vn 0.000000 1.000000 0.000000
vn 0.000000 1.000000 0.000000
vn 0.000000 1.000000 0.000000
vn 0.000000 1.000000 0.000000
vn 0.000000 1.000000 0.000000
vn 0.000000 1.000000 0.000000
vn 0.000000 1.000000 0.000000
vn 0.000000 1.000000 0.000000
vn 0.000000 1.000000 0.000000
vn 0.000000 1.000000 0.000000
vn 0.000000 1.000000 0.000000
vn 0.000000 1.000000 0.000000
vn 0.000000 1.000000 0.000000
vn 0.000000 1.000000 0.000000
s off
f 2/1/1 6/2/2 9/3/3 10/4/4
f 13/5/5 1/6/6 3/7/7 8/8/8
f 24/9/9 25/10/10 26/11/11 27/12/12
f 9/13/13 13/14/14 15/15/15 10/16/16
f 13/5/17 8/8/18 14/17/19 15/18/20
f 27/12/21 32/19/22 30/20/23 31/21/24 24/9/25
f 22/22/26 23/23/27 28/24/28 39/25/29 37/26/30 29/27/31
f 7/28/32 4/29/33 16/30/34 17/31/35 5/32/36 33/33/37
f 11/34/38 35/35/39 5/32/40 17/31/41 18/36/42 12/37/43 36/38/44 38/39/45
f 19/40/46 6/41/47 20/42/48
f 6/41/49 9/43/50 20/42/51
f 20/44/52 9/45/53 21/46/54
f 9/45/55 10/47/56 21/46/57
f 9/13/58 6/48/59 1/49/60 13/14/61
f 14/50/62 8/51/63 23/52/64 22/53/65
f 24/54/66 31/55/67 23/52/68 8/51/69
f 8/51/70 3/56/71 25/57/72 24/54/73
f 27/58/74 26/59/75 4/60/76 7/61/77
f 11/62/78 28/24/79 34/63/80 35/64/81
f 38/65/82 39/66/83 28/67/84 11/68/85
f 31/21/86 30/20/87 34/63/88 28/24/89 23/23/90
f 33/69/91 32/19/92 27/12/93 7/70/94
f 35/71/95 34/72/96 30/73/97 32/74/98 33/75/99 5/76/100
f 29/77/101 37/78/102 36/79/103 12/80/104
f 36/81/105 37/26/106 39/25/107 38/82/108
