# This file uses meters as units for non-parametric coordinates.

v -4.999989 -0.194796 -2.869125
v -4.999989 -0.194796 -10.000000
v 0.000000 -0.194796 -10.000000
v -4.999989 0.000000 -2.869125
v -4.999989 0.000000 0.000000
v 0.000000 0.000000 0.000000
v -4.999989 -0.194796 -3.165329
v -2.499992 0.000000 0.000000
v -2.499992 0.000000 -2.869125
v -2.499992 -0.194796 -2.869125
v -2.499992 -0.194796 -3.165329
v 0.000000 -0.194796 -3.165329
v 0.000000 0.000000 -2.869125
v 0.000000 -0.194796 -2.869125
v -4.999989 -0.194796 0.000000
v -2.499992 -0.194796 0.000000
v 0.000000 -0.194796 0.000000
v -3.434059 -0.194796 -10.000000
v -1.565926 -0.194796 -10.000000
v -3.434059 -0.194796 -9.724808
v -1.565926 -0.194796 -9.724808
v 0.000000 0.000000 -2.582214
v -2.499992 0.000000 -2.582214
v -4.999989 0.000000 -2.582214
v 0.000000 0.000000 -2.527435
v -2.499992 0.000000 -2.527435
v -4.999989 0.000000 -2.527435
v -2.476513 0.000000 0.000000
v -2.476513 0.000000 -2.527435
v -2.523472 0.000000 0.000000
v -2.523472 0.000000 -2.527435
vt 0.693189 0.228925
vt 0.693189 0.228925
vt 0.693189 0.228925
vt 0.392471 0.063521
vt 0.392471 0.063521
vt 0.392471 0.063521
vt 0.392471 0.063521
vt 0.299889 0.474128
vt 0.299889 0.474128
vt 0.299889 0.474128
vt 0.299889 0.474128
vt 0.559783 0.228622
vt 0.559783 0.228622
vt 0.559783 0.228622
vt 0.559783 0.228622
vt 0.235371 0.473104
vt 0.235371 0.473104
vt 0.235371 0.473104
vt 0.235371 0.473104
vt 0.292261 0.062429
vt 0.292261 0.062429
vt 0.292261 0.062429
vt 0.292261 0.062429
vt 0.299889 0.474128
vt 0.299889 0.474128
vt 0.235371 0.473104
vt 0.235371 0.473104
vt 0.693189 0.228925
vt 0.693189 0.228925
vt 0.693189 0.228925
vt 0.693189 0.228925
vt 0.693189 0.228925
vt 0.363953 0.061612
vt 0.363953 0.061612
vt 0.363953 0.061612
vt 0.363953 0.061612
vt 0.363953 0.061612
vt 0.363953 0.061612
vt 0.363953 0.061612
vt 0.363953 0.061612
vt 0.693189 0.228925
vt 0.693189 0.228925
vt 0.693189 0.228925
vt 0.693189 0.228925
vt 0.693189 0.228925
vt 0.693189 0.228925
vt 0.693189 0.228925
vt 0.693189 0.228925
vt 0.693189 0.228925
vt 0.367481 0.478224
vt 0.367481 0.478224
vt 0.367481 0.478224
vt 0.367481 0.478224
vt 0.367481 0.478224
vt 0.367481 0.478224
vt 0.292261 0.062429
vt 0.292261 0.062429
vt 0.292261 0.062429
vt 0.292261 0.062429
vt 0.292261 0.062429
vt 0.292261 0.062429
vt 0.559783 0.228622
vt 0.559783 0.228622
vt 0.559783 0.228622
vt 0.559783 0.228622
vt 0.292261 0.062429
vn 0.000000 1.000000 0.000000
vn 0.000000 1.000000 0.000000
vn 0.000000 1.000000 0.000000
vn 0.000000 1.000000 0.000000
vn 0.000000 1.000000 0.000000
vn 0.000000 1.000000 0.000000
vn 0.000000 1.000000 0.000000
vn 0.000000 0.000000 -1.000000
vn 0.000000 0.000000 -1.000000
vn 0.000000 0.000000 -1.000000
vn 0.000000 0.000000 -1.000000
vn 0.000000 1.000000 0.000000
vn 0.000000 1.000000 0.000000
vn 0.000000 1.000000 0.000000
vn 0.000000 1.000000 0.000000
vn 0.000000 1.000000 0.000000
vn 0.000000 1.000000 0.000000
vn 0.000000 1.000000 0.000000
vn 0.000000 1.000000 0.000000
vn 0.000000 1.000000 0.000000
vn 0.000000 1.000000 0.000000
vn 0.000000 1.000000 0.000000
vn 0.000000 1.000000 0.000000
vn 0.000000 0.000000 -1.000000
vn 0.000000 0.000000 -1.000000
vn 0.000000 0.000000 -1.000000
vn 0.000000 0.000000 -1.000000
vn 0.000000 1.000000 0.000000
vn 0.000000 1.000000 0.000000
vn 0.000000 1.000000 0.000000
vn 0.000000 1.000000 0.000000
vn 0.000000 1.000000 0.000000
vn 0.000000 1.000000 0.000000
vn 0.000000 1.000000 0.000000
vn 0.000000 1.000000 0.000000
vn 0.000000 1.000000 0.000000
vn 0.000000 0.000000 1.000000
vn 0.000000 0.000000 1.000000
vn 0.000000 0.000000 1.000000
vn 0.000000 0.000000 1.000000
vn 0.000000 0.000000 1.000000
vn 0.000000 0.000000 1.000000
vn 0.000000 0.000000 1.000000
vn 0.000000 0.000000 1.000000
vn 0.000000 0.000000 1.000000
vn 0.000000 0.000000 1.000000
vn 0.000000 1.000000 0.000000
vn 0.000000 1.000000 0.000000
vn 0.000000 1.000000 0.000000
vn 0.000000 1.000000 0.000000
vn 0.000000 1.000000 0.000000
vn 0.000000 1.000000 0.000000
vn 0.000000 1.000000 0.000000
vn 0.000000 1.000000 0.000000
vn 0.000000 1.000000 0.000000
vn 0.000000 1.000000 0.000000
vn 0.000000 1.000000 0.000000
vn 0.000000 1.000000 0.000000
vn 0.000000 1.000000 0.000000
vn 0.000000 1.000000 0.000000
vn 0.000000 1.000000 0.000000
vn 0.000000 1.000000 0.000000
vn 0.000000 1.000000 0.000000
vn 0.000000 1.000000 0.000000
vn 0.000000 1.000000 0.000000
vn 0.000000 1.000000 0.000000
vn 0.000000 1.000000 0.000000
vn 0.000000 1.000000 0.000000
vn 0.000000 1.000000 0.000000
vn 0.000000 1.000000 0.000000
vn 0.000000 1.000000 0.000000
vn 0.000000 1.000000 0.000000
vn 0.000000 1.000000 0.000000
vn 0.000000 1.000000 0.000000
vn 0.000000 1.000000 0.000000
vn 0.000000 1.000000 0.000000
vn 0.000000 1.000000 0.000000
vn 0.000000 1.000000 0.000000
vn 0.000000 1.000000 0.000000
vn 0.000000 1.000000 0.000000
vn 0.000000 1.000000 0.000000
s off
f 2/1/1 7/2/2 20/3/3
f 21/4/4 19/5/5 18/6/6 20/7/7
f 9/8/8 10/9/9 1/10/10 4/11/11
f 5/12/12 30/13/13 31/14/14 27/15/15
f 7/16/16 1/17/17 10/18/18 11/19/19
f 8/20/20 28/21/21 29/22/22 26/23/23
f 13/24/24 14/25/25 10/9/26 9/8/27
f 12/26/28 11/19/29 10/18/30 14/27/31
f 11/28/32 12/29/33 21/30/34 20/31/35 7/32/36
f 16/33/37 8/34/38 30/35/39 5/36/40 15/37/41
f 17/38/42 6/39/43 28/40/44 8/34/45 16/33/46
f 2/41/47 20/42/48 18/43/49
f 3/44/50 19/45/51 21/46/52
f 3/47/53 21/48/54 12/49/55
f 23/50/56 22/51/57 13/52/58 9/53/59
f 24/54/60 23/50/61 9/53/62 4/55/63
f 26/23/64 29/22/65 25/56/66 22/57/67 23/58/68
f 27/59/69 31/60/70 26/23/71 23/58/72 24/61/73
f 29/62/74 28/63/75 6/64/76 25/65/77
f 31/60/78 30/66/79 8/20/80 26/23/81
