# This file uses meters as units for non-parametric coordinates.

v -4.999985 -0.194796 -2.869125
v -4.999985 -0.194796 -10.000000
v 0.000000 -0.194796 -10.000000
v -4.999985 0.000000 -2.869125
v -4.999985 0.000000 0.000000
v 0.000000 0.000000 0.000000
v -4.999985 -0.194796 -3.165329
v -2.499985 0.000000 0.000000
v -2.499985 0.000000 -2.869125
v -2.499985 -0.194796 -2.869125
v -2.499985 -0.194796 -3.165329
v 0.000000 -0.194796 -3.165329
v 0.000000 0.000000 -2.869125
v 0.000000 -0.194796 -2.869125
v -4.999985 -0.194796 0.000000
v -2.499985 -0.194796 0.000000
v 0.000000 -0.194796 0.000000
v 0.000000 0.000000 -2.582214
v -2.499985 0.000000 -2.582214
v -4.999985 0.000000 -2.582214
v 0.000000 0.000000 -2.527435
v -2.499985 0.000000 -2.527435
v -4.999985 0.000000 -2.527435
v -2.476509 0.000000 0.000000
v -2.476509 0.000000 -2.527435
v -2.523468 0.000000 0.000000
v -2.523468 0.000000 -2.527435
v -3.609467 -0.194796 -3.165329
v -3.609467 -0.194796 -10.000000
v -1.390518 -0.194796 -3.165329
v -1.390518 -0.194796 -10.000000
v -3.609467 -0.194796 -6.553604
v -1.390518 -0.194796 -6.553604
v -3.609467 -0.194796 -5.296051
v -1.390518 -0.194796 -5.296051
v -3.609467 -0.194796 -7.812881
v -1.390518 -0.194796 -7.812881
v -3.609467 -0.194796 -9.128662
v -1.390518 -0.194796 -9.128662
v -3.609467 -0.194796 -3.967697
v -1.390518 -0.194796 -3.967697
v -3.609467 -0.194796 -4.679138
v -1.390518 -0.194796 -4.679138
v -3.609467 -0.194796 -8.526978
v -1.390518 -0.194796 -8.526978
v -3.609467 -0.194796 -9.842621
v -1.390518 -0.194796 -9.842621
v -3.609467 -0.194796 -7.265594
v -1.390518 -0.194796 -7.265594
v -3.609467 -0.194796 -6.008453
v -1.390518 -0.194796 -6.008453
vt 0.299889 0.474128
vt 0.299889 0.474128
vt 0.299889 0.474128
vt 0.299889 0.474128
vt 0.559783 0.228622
vt 0.559783 0.228622
vt 0.559783 0.228622
vt 0.559783 0.228622
vt 0.235371 0.473104
vt 0.235371 0.473104
vt 0.235371 0.473104
vt 0.235371 0.473104
vt 0.235371 0.473104
vt 0.295364 0.062429
vt 0.295364 0.062429
vt 0.295364 0.062429
vt 0.295364 0.062429
vt 0.299889 0.474128
vt 0.299889 0.474128
vt 0.235371 0.473104
vt 0.235371 0.473104
vt 0.235371 0.473104
vt 0.361610 0.060441
vt 0.361610 0.060441
vt 0.361610 0.060441
vt 0.361610 0.060441
vt 0.361610 0.060441
vt 0.361610 0.060441
vt 0.361610 0.060441
vt 0.361610 0.060441
vt 0.693189 0.228925
vt 0.693189 0.228925
vt 0.693189 0.228925
vt 0.693189 0.228925
vt 0.693189 0.228925
vt 0.693189 0.228925
vt 0.693189 0.228925
vt 0.693189 0.228925
vt 0.693189 0.228925
vt 0.693189 0.228925
vt 0.693189 0.228925
vt 0.693189 0.228925
vt 0.693189 0.228925
vt 0.693189 0.228925
vt 0.367481 0.478224
vt 0.367481 0.478224
vt 0.367481 0.478224
vt 0.367481 0.478224
vt 0.367481 0.478224
vt 0.367481 0.478224
vt 0.295364 0.062429
vt 0.295364 0.062429
vt 0.295364 0.062429
vt 0.295364 0.062429
vt 0.295364 0.062429
vt 0.295364 0.062429
vt 0.559783 0.228622
vt 0.559783 0.228622
vt 0.559783 0.228622
vt 0.559783 0.228622
vt 0.295364 0.062429
vt 0.693189 0.228925
vt 0.693189 0.228925
vt 0.693189 0.228925
vt 0.693189 0.228925
vt 0.693189 0.228925
vt 0.693189 0.228925
vt 0.693189 0.228925
vt 0.693189 0.228925
vt 0.693189 0.228925
vt 0.693189 0.228925
vt 0.693189 0.228925
vt 0.693189 0.228925
vt 0.693189 0.228925
vt 0.693189 0.228925
vt 0.693189 0.228925
vt 0.390862 0.061612
vt 0.390862 0.061612
vt 0.390862 0.061612
vt 0.390862 0.061612
vt 0.390862 0.061612
vt 0.390862 0.061612
vt 0.390862 0.061612
vt 0.390862 0.061612
vt 0.390862 0.061612
vt 0.390862 0.061612
vt 0.390862 0.061612
vt 0.390862 0.061612
vt 0.390862 0.061612
vt 0.390862 0.061612
vt 0.390862 0.061612
vt 0.390862 0.061612
vt 0.390862 0.061612
vt 0.390862 0.061612
vt 0.390862 0.061612
vt 0.390862 0.061612
vn 0.000000 0.000000 -1.000000
vn 0.000000 0.000000 -1.000000
vn 0.000000 0.000000 -1.000000
vn 0.000000 0.000000 -1.000000
vn 0.000000 1.000000 0.000000
vn 0.000000 1.000000 0.000000
vn 0.000000 1.000000 0.000000
vn 0.000000 1.000000 0.000000
vn 0.000000 1.000000 0.000000
vn 0.000000 1.000000 0.000000
vn 0.000000 1.000000 0.000000
vn 0.000000 1.000000 0.000000
vn 0.000000 1.000000 0.000000
vn 0.000000 1.000000 0.000000
vn 0.000000 1.000000 0.000000
vn 0.000000 1.000000 0.000000
vn 0.000000 1.000000 0.000000
vn 0.000000 0.000000 -1.000000
vn 0.000000 0.000000 -1.000000
vn 0.000000 0.000000 -1.000000
vn 0.000000 0.000000 -1.000000
vn 0.000000 1.000000 0.000000
vn 0.000000 1.000000 0.000000
vn 0.000000 1.000000 0.000000
vn 0.000000 1.000000 0.000000
vn 0.000000 1.000000 0.000000
vn 0.000000 0.000000 1.000000
vn 0.000000 0.000000 1.000000
vn 0.000000 0.000000 1.000000
vn 0.000000 0.000000 1.000000
vn 0.000000 0.000000 1.000000
vn 0.000000 0.000000 1.000000
vn 0.000000 0.000000 1.000000
vn 0.000000 0.000000 1.000000
vn 0.000000 0.000000 1.000000
vn 0.000000 0.000000 1.000000
vn 0.000000 1.000000 0.000000
vn 0.000000 1.000000 0.000000
vn 0.000000 1.000000 0.000000
vn 0.000000 1.000000 0.000000
vn 0.000000 1.000000 0.000000
vn 0.000000 1.000000 0.000000
vn 0.000000 1.000000 0.000000
vn 0.000000 1.000000 0.000000
vn 0.000000 1.000000 0.000000
vn 0.000000 1.000000 0.000000
vn 0.000000 1.000000 0.000000
vn 0.000000 1.000000 0.000000
vn 0.000000 1.000000 0.000000
vn 0.000000 1.000000 0.000000
vn 0.000000 1.000000 0.000000
vn 0.000000 1.000000 0.000000
vn 0.000000 1.000000 0.000000
vn 0.000000 1.000000 0.000000
vn 0.000000 1.000000 0.000000
vn 0.000000 1.000000 0.000000
vn 0.000000 1.000000 0.000000
vn 0.000000 1.000000 0.000000
vn 0.000000 1.000000 0.000000
vn 0.000000 1.000000 0.000000
vn 0.000000 1.000000 0.000000
vn 0.000000 1.000000 0.000000
vn 0.000000 1.000000 0.000000
vn 0.000000 1.000000 0.000000
vn 0.000000 1.000000 0.000000
vn 0.000000 1.000000 0.000000
vn 0.000000 1.000000 0.000000
vn 0.000000 1.000000 0.000000
vn 0.000000 1.000000 0.000000
vn 0.000000 1.000000 0.000000
vn 0.000000 1.000000 0.000000
vn 0.000000 1.000000 0.000000
vn 0.000000 1.000000 0.000000
vn 0.000000 1.000000 0.000000
vn 0.000000 1.000000 0.000000
vn 0.000000 1.000000 0.000000
vn 0.000000 1.000000 0.000000
vn 0.000000 1.000000 0.000000
vn 0.000000 1.000000 0.000000
vn 0.000000 1.000000 0.000000
vn 0.000000 1.000000 0.000000
vn 0.000000 1.000000 0.000000
vn 0.000000 1.000000 0.000000
vn 0.000000 1.000000 0.000000
vn 0.000000 1.000000 0.000000
vn 0.000000 1.000000 0.000000
vn 0.000000 1.000000 0.000000
vn 0.000000 1.000000 0.000000
vn 0.000000 1.000000 0.000000
vn 0.000000 1.000000 0.000000
vn 0.000000 1.000000 0.000000
vn 0.000000 1.000000 0.000000
vn 0.000000 1.000000 0.000000
vn 0.000000 1.000000 0.000000
vn 0.000000 1.000000 0.000000
vn 0.000000 1.000000 0.000000
vn 0.000000 1.000000 0.000000
vn 0.000000 1.000000 0.000000
vn 0.000000 1.000000 0.000000
vn 0.000000 1.000000 0.000000
vn 0.000000 1.000000 0.000000
vn 0.000000 1.000000 0.000000
vn 0.000000 1.000000 0.000000
vn 0.000000 1.000000 0.000000
vn 0.000000 1.000000 0.000000
vn 0.000000 1.000000 0.000000
vn 0.000000 1.000000 0.000000
vn 0.000000 1.000000 0.000000
vn 0.000000 1.000000 0.000000
vn 0.000000 1.000000 0.000000
vn 0.000000 1.000000 0.000000
vn 0.000000 1.000000 0.000000
vn 0.000000 1.000000 0.000000
vn 0.000000 1.000000 0.000000
vn 0.000000 1.000000 0.000000
vn 0.000000 1.000000 0.000000
vn 0.000000 1.000000 0.000000
vn 0.000000 1.000000 0.000000
vn 0.000000 1.000000 0.000000
vn 0.000000 1.000000 0.000000
vn 0.000000 1.000000 0.000000
vn 0.000000 1.000000 0.000000
vn 0.000000 1.000000 0.000000
vn 0.000000 1.000000 0.000000
vn 0.000000 1.000000 0.000000
vn 0.000000 1.000000 0.000000
vn 0.000000 1.000000 0.000000
vn 0.000000 1.000000 0.000000
vn 0.000000 1.000000 0.000000
vn 0.000000 1.000000 0.000000
vn 0.000000 1.000000 0.000000
vn 0.000000 1.000000 0.000000
vn 0.000000 1.000000 0.000000
vn 0.000000 1.000000 0.000000
vn 0.000000 1.000000 0.000000
s off
f 9/1/1 10/2/2 1/3/3 4/4/4
f 5/5/5 26/6/6 27/7/7 23/8/8
f 7/9/9 1/10/10 10/11/11 11/12/12 28/13/13
f 8/14/14 24/15/15 25/16/16 22/17/17
f 13/18/18 14/19/19 10/2/20 9/1/21
f 12/20/22 30/21/23 11/12/24 10/11/25 14/22/26
f 16/23/27 8/24/28 26/25/29 5/26/30 15/27/31
f 17/28/32 6/29/33 24/30/34 8/24/35 16/23/36
f 28/31/37 40/32/38 42/33/39 34/34/40 50/35/41 32/36/42 48/37/43 36/38/44 44/39/45 38/40/46 46/41/47 29/42/48 2/43/49 7/44/50
f 19/45/51 18/46/52 13/47/53 9/48/54
f 20/49/55 19/45/56 9/48/57 4/50/58
f 22/17/59 25/16/60 21/51/61 18/52/62 19/53/63
f 23/54/64 27/55/65 22/17/66 19/53/67 20/56/68
f 25/57/69 24/58/70 6/59/71 21/60/72
f 27/55/73 26/61/74 8/14/75 22/17/76
f 46/41/77 47/62/78 31/63/79 29/42/80
f 3/64/81 31/63/82 47/62/83 39/65/84 45/66/85 37/67/86 49/68/87 33/69/88 51/70/89 35/71/90 43/72/91 41/73/92 30/74/93 12/75/94
f 50/35/95 51/70/96 33/69/97 32/36/98
f 42/33/99 43/72/100 35/71/101 34/34/102
f 48/37/103 49/68/104 37/67/105 36/38/106
f 44/39/107 45/66/108 39/65/109 38/40/110
f 30/74/111 41/73/112 40/32/113 28/31/114 11/76/115
f 40/77/116 41/78/117 43/79/118 42/80/119
f 36/81/120 37/82/121 45/83/122 44/84/123
f 38/85/124 39/86/125 47/87/126 46/88/127
f 32/89/128 33/90/129 49/91/130 48/92/131
f 34/93/132 35/94/133 51/95/134 50/96/135
