# This file uses meters as units for non-parametric coordinates.

v -2.869125 -0.194796 -2.869110
v -10.000000 -0.194796 0.000000
v -2.869125 0.000000 -2.869110
v 0.000000 0.000000 0.000000
v -3.165329 -0.194796 -3.165314
v -3.165329 -0.194796 0.000000
v -2.869125 0.000000 0.000000
v -2.869125 -0.194796 0.000000
v -10.000000 -0.194796 -9.999985
v 0.000000 -0.194796 -9.999977
v 0.000000 -0.194796 -3.165314
v 0.000000 0.000000 -2.869125
v 0.000000 -0.194796 -2.869125
v 0.000000 0.000000 -2.582199
v -2.582214 0.000000 -2.582199
v -2.582214 0.000000 0.000000
v 0.000000 0.000000 -2.526276
v -2.524368 0.000000 -2.526276
v -2.524368 0.000000 0.000000
vt 0.558190 0.231269
vt 0.558190 0.231269
vt 0.558190 0.231269
vt 0.295914 0.483731
vt 0.295914 0.483731
vt 0.295914 0.483731
vt 0.295914 0.483731
vt 0.229668 0.480289
vt 0.229668 0.480289
vt 0.229668 0.480289
vt 0.229668 0.480289
vt 0.695908 0.227428
vt 0.695908 0.227428
vt 0.695908 0.227428
vt 0.695908 0.227428
vt 0.558190 0.231269
vt 0.295914 0.483731
vt 0.295914 0.483731
vt 0.229668 0.480289
vt 0.229668 0.480289
vt 0.695908 0.227428
vt 0.695908 0.227428
vt 0.362160 0.475988
vt 0.362160 0.475988
vt 0.362160 0.475988
vt 0.362160 0.475988
vt 0.362160 0.475988
vt 0.362160 0.475988
vt 0.297913 0.063028
vt 0.297913 0.063028
vt 0.297913 0.063028
vt 0.297913 0.063028
vt 0.297913 0.063028
vt 0.297913 0.063028
vn 0.000000 1.000000 0.000000
vn 0.000000 1.000000 0.000000
vn 0.000000 1.000000 0.000000
vn -1.000000 0.000000 0.000000
vn -1.000000 0.000000 0.000000
vn -1.000000 0.000000 0.000000
vn -1.000000 0.000000 0.000000
vn 0.000000 1.000000 0.000000
vn 0.000000 1.000000 0.000000
vn 0.000000 1.000000 0.000000
vn 0.000000 1.000000 0.000000
vn 0.000000 1.000000 0.000000
vn 0.000000 1.000000 0.000000
vn 0.000000 1.000000 0.000000
vn 0.000000 1.000000 0.000000
vn 0.000000 1.000000 0.000000
vn 0.000000 1.000000 0.000000
vn 0.000000 1.000000 0.000000
vn -0.000005 0.000000 -1.000000
vn -0.000005 0.000000 -1.000000
vn -0.000005 0.000000 -1.000000
vn -0.000005 0.000000 -1.000000
vn 0.000000 1.000000 0.000000
vn 0.000000 1.000000 0.000000
vn 0.000000 1.000000 0.000000
vn 0.000000 1.000000 0.000000
vn 0.000000 1.000000 0.000000
vn 0.000000 1.000000 0.000000
vn 0.000000 1.000000 0.000000
vn 0.000000 1.000000 0.000000
vn 0.000000 1.000000 0.000000
vn 0.000000 1.000000 0.000000
vn 0.000000 1.000000 0.000000
vn 0.000000 1.000000 0.000000
vn 0.000000 1.000000 0.000000
vn 0.000000 1.000000 0.000000
vn 0.000000 1.000000 0.000000
vn 0.000000 1.000000 0.000000
vn 0.000000 1.000000 0.000000
vn 0.000000 1.000000 0.000000
vn 0.000000 1.000000 0.000000
vn 0.000000 1.000000 0.000000
vn 0.000000 1.000000 0.000000
vn 0.000000 1.000000 0.000000
vn 0.000000 1.000000 0.000000
vn 0.000000 1.000000 0.000000
s off
f 4/1/1 18/2/2 19/3/3
f 3/4/4 1/5/5 8/6/6 7/7/7
f 6/8/8 8/9/9 1/10/10 5/11/11
f 2/12/12 6/13/13 5/14/14 9/15/15
f 4/1/16 17/16/17 18/2/18
f 13/17/19 1/5/20 3/4/21 12/18/22
f 11/19/23 5/11/24 1/10/25 13/20/26
f 10/21/27 9/15/28 5/14/29 11/22/30
f 15/23/31 14/24/32 12/25/33 3/26/34
f 16/27/35 15/23/36 3/26/37 7/28/38
f 18/29/39 17/30/40 14/31/41 15/32/42
f 19/33/43 18/29/44 15/32/45 16/34/46
