# This file uses meters as units for non-parametric coordinates.

v -1.096407 0.000000 0.642599
v 1.096407 0.000000 0.642599
v -1.096407 0.086452 0.642599
v 1.096407 0.086452 0.642599
v -1.096407 0.086452 -0.642599
v 1.096407 0.086452 -0.642599
v -1.096407 0.000000 -0.642599
v 1.096407 0.000000 -0.642599
v -0.918554 0.086452 0.495218
v 0.918554 0.086452 0.495218
v 0.918554 0.086452 -0.495218
v -0.918554 0.086452 -0.495218
v -0.819170 0.086452 -0.495218
v -0.819170 0.086452 0.495218
v -0.664879 0.086452 -0.495218
v -0.664879 0.086452 0.495218
v -0.569755 0.086452 -0.495218
v -0.569755 0.086452 0.495218
v -0.415949 0.086452 -0.495218
v -0.415949 0.086452 0.495218
v -0.323450 0.086452 -0.495218
v -0.323450 0.086452 0.495218
v -0.169119 0.086452 -0.495218
v -0.169119 0.086452 0.495218
v -0.079840 0.086452 -0.495218
v -0.079840 0.086452 0.495218
v 0.075982 0.086452 -0.495218
v 0.075982 0.086452 0.495218
v 0.165297 0.086452 -0.495218
v 0.165297 0.086452 0.495218
v 0.318095 0.086452 -0.495218
v 0.318095 0.086452 0.495218
v 0.407463 0.086452 -0.495218
v 0.407463 0.086452 0.495218
v 0.564402 0.086452 -0.495218
v 0.564402 0.086452 0.495218
v 0.657215 0.086452 -0.495218
v 0.657215 0.086452 0.495218
v 0.817085 0.086452 -0.495218
v 0.817085 0.086452 0.495218
vt 0.169746 0.063184
vt 0.198155 0.063184
vt 0.324631 0.264407
vt 0.169746 0.063184
vt 0.198155 0.063184
vt 0.324631 0.264407
vt 0.142915 0.063184
vt 0.198155 0.063184
vt 0.142915 0.063184
vt 0.142915 0.063184
vt 0.169746 0.063184
vt 0.169746 0.063184
vt 0.169746 0.063184
vt 0.169746 0.063184
vt 0.324631 0.264407
vt 0.198155 0.063184
vt 0.198155 0.063184
vt 0.324631 0.264407
vt 0.169746 0.063184
vt 0.198155 0.063184
vt 0.198155 0.063184
vt 0.169746 0.063184
vt 0.142915 0.063184
vt 0.198155 0.063184
vt 0.324631 0.264407
vt 0.324631 0.264407
vt 0.324631 0.264407
vt 0.324631 0.264407
vt 0.109150 0.473040
vt 0.109150 0.473040
vt 0.109150 0.473040
vt 0.109150 0.473040
vt 0.324631 0.264407
vt 0.109150 0.473040
vt 0.109150 0.473040
vt 0.324631 0.264407
vt 0.324631 0.264407
vt 0.109150 0.473040
vt 0.109150 0.473040
vt 0.324631 0.264407
vt 0.324631 0.264407
vt 0.109150 0.473040
vt 0.109150 0.473040
vt 0.324631 0.264407
vt 0.324631 0.264407
vt 0.109150 0.473040
vt 0.109150 0.473040
vt 0.324631 0.264407
vt 0.324631 0.264407
vt 0.109150 0.473040
vt 0.109150 0.473040
vt 0.324631 0.264407
vt 0.324631 0.264407
vt 0.109150 0.473040
vt 0.109150 0.473040
vt 0.324631 0.264407
vt 0.324631 0.264407
vt 0.109150 0.473040
vt 0.109150 0.473040
vt 0.324631 0.264407
vt 0.324631 0.264407
vt 0.109150 0.473040
vt 0.109150 0.473040
vt 0.324631 0.264407
vt 0.324631 0.264407
vt 0.109150 0.473040
vt 0.109150 0.473040
vt 0.324631 0.264407
vt 0.324631 0.264407
vt 0.109150 0.473040
vt 0.109150 0.473040
vt 0.324631 0.264407
vt 0.324631 0.264407
vt 0.109150 0.473040
vt 0.109150 0.473040
vt 0.324631 0.264407
vt 0.324631 0.264407
vt 0.109150 0.473040
vt 0.109150 0.473040
vt 0.324631 0.264407
vt 0.324631 0.264407
vt 0.109150 0.473040
vt 0.109150 0.473040
vt 0.324631 0.264407
vt 0.324631 0.264407
vt 0.109150 0.473040
vt 0.109150 0.473040
vt 0.324631 0.264407
vn 0.000000 0.000000 1.000000
vn 0.000000 0.000000 1.000000
vn 0.000000 0.000000 1.000000
vn 0.000000 0.000000 1.000000
vn 0.000000 1.000000 0.000000
vn 0.000000 1.000000 -0.000000
vn 0.000000 1.000000 -0.000000
vn 0.000000 1.000000 0.000000
vn 0.000000 0.000000 -1.000000
vn 0.000000 0.000000 -1.000000
vn 0.000000 0.000000 -1.000000
vn 0.000000 0.000000 -1.000000
vn 0.000000 -1.000000 0.000000
vn 0.000000 -1.000000 0.000000
vn 0.000000 -1.000000 0.000000
vn 0.000000 -1.000000 0.000000
vn 1.000000 0.000000 0.000000
vn 1.000000 0.000000 0.000000
vn 1.000000 0.000000 0.000000
vn 1.000000 0.000000 0.000000
vn -1.000000 0.000000 0.000000
vn -1.000000 0.000000 0.000000
vn -1.000000 0.000000 0.000000
vn -1.000000 0.000000 0.000000
vn 0.000000 1.000000 -0.000000
vn 0.000000 1.000000 -0.000000
vn 0.000000 1.000000 -0.000000
vn 0.000000 1.000000 -0.000000
vn 0.000000 1.000000 -0.000000
vn 0.000000 1.000000 -0.000000
vn 0.000000 1.000000 -0.000000
vn 0.000000 1.000000 -0.000000
vn 0.000000 1.000000 -0.000000
vn 0.000000 1.000000 -0.000000
vn 0.000000 1.000000 -0.000000
vn 0.000000 1.000000 -0.000000
vn 0.000000 1.000000 -0.000000
vn 0.000000 1.000000 -0.000000
vn 0.000000 1.000000 -0.000000
vn 0.000000 1.000000 -0.000000
vn 0.000000 1.000000 -0.000000
vn 0.000000 1.000000 -0.000000
vn 0.000000 1.000000 -0.000000
vn 0.000000 1.000000 0.000000
vn 0.000000 1.000000 0.000000
vn 0.000000 1.000000 -0.000000
vn 0.000000 1.000000 0.000000
vn 0.000000 1.000000 0.000000
vn 0.000000 1.000000 0.000000
vn 0.000000 1.000000 0.000000
vn 0.000000 1.000000 0.000000
vn 0.000000 1.000000 0.000000
vn 0.000000 1.000000 0.000000
vn 0.000000 1.000000 0.000000
vn 0.000000 1.000000 0.000000
vn 0.000000 1.000000 0.000000
vn 0.000000 1.000000 0.000000
vn 0.000000 1.000000 0.000000
vn 0.000000 1.000000 0.000000
vn 0.000000 1.000000 0.000000
vn 0.000000 1.000000 0.000000
vn 0.000000 1.000000 0.000000
vn 0.000000 1.000000 0.000000
vn 0.000000 1.000000 0.000000
vn 0.000000 1.000000 0.000000
vn 0.000000 1.000000 -0.000000
vn 0.000000 1.000000 -0.000000
vn 0.000000 1.000000 0.000000
vn 0.000000 1.000000 -0.000000
vn 0.000000 1.000000 -0.000000
vn 0.000000 1.000000 0.000000
vn 0.000000 1.000000 0.000000
vn 0.000000 1.000000 0.000000
vn 0.000000 1.000000 -0.000000
vn 0.000000 1.000000 -0.000000
vn 0.000000 1.000000 0.000000
vn 0.000000 1.000000 0.000000
vn 0.000000 1.000000 -0.000000
vn 0.000000 1.000000 -0.000000
vn 0.000000 1.000000 0.000000
vn 0.000000 1.000000 0.000000
vn 0.000000 1.000000 -0.000000
vn 0.000000 1.000000 -0.000000
vn 0.000000 1.000000 0.000000
vn 0.000000 1.000000 0.000000
vn 0.000000 1.000000 -0.000000
vn 0.000000 1.000000 -0.000000
vn 0.000000 1.000000 0.000000
vn 0.000000 1.000000 0.000000
vn 0.000000 1.000000 -0.000000
vn 0.000000 1.000000 -0.000000
vn 0.000000 1.000000 0.000000
vn 0.000000 1.000000 0.000000
vn 0.000000 1.000000 -0.000000
vn 0.000000 1.000000 -0.000000
vn 0.000000 1.000000 0.000000
vn 0.000000 1.000000 0.000000
vn 0.000000 1.000000 -0.000000
vn 0.000000 1.000000 -0.000000
vn 0.000000 1.000000 0.000000
vn 0.000000 1.000000 0.000000
vn 0.000000 1.000000 -0.000000
vn 0.000000 1.000000 -0.000000
vn 0.000000 1.000000 0.000000
vn 0.000000 1.000000 0.000000
vn 0.000000 1.000000 -0.000000
vn 0.000000 1.000000 -0.000000
vn 0.000000 1.000000 0.000000
vn 0.000000 1.000000 0.000000
vn 0.000000 1.000000 -0.000000
vn 0.000000 1.000000 -0.000000
vn 0.000000 1.000000 0.000000
vn 0.000000 1.000000 0.000000
vn 0.000000 1.000000 -0.000000
vn 0.000000 1.000000 -0.000000
vn 0.000000 1.000000 0.000000
vn 0.000000 1.000000 0.000000
vn 0.000000 1.000000 -0.000000
vn 0.000000 1.000000 -0.000000
vn 0.000000 1.000000 0.000000
vn 0.000000 1.000000 0.000000
vn 0.000000 1.000000 -0.000000
vn 0.000000 1.000000 -0.000000
vn 0.000000 1.000000 0.000000
s off
f 1/20/1 2/2/2 4/21/3 3/17/4
f 39/86/5 40/87/6 10/30/7 11/31/8
f 5/5/9 6/16/10 8/8/11 7/24/12
f 7/7/13 8/23/14 2/10/15 1/9/16
f 2/19/17 8/11/18 6/12/19 4/4/20
f 7/13/21 1/1/22 3/22/23 5/14/24
f 3/3/25 4/6/26 10/15/27 40/18/28 38/25/29 36/26/30 34/27/31 32/28/32 30/33/33 28/36/34 26/37/35 24/40/36 22/41/37 20/44/38 18/45/39 16/48/40 14/49/41 9/52/42
f 4/6/43 6/53/44 11/56/45 10/15/46
f 6/53/47 5/57/48 12/60/49 13/61/50 15/64/51 17/65/52 19/68/53 21/69/54 23/72/55 25/73/56 27/76/57 29/77/58 31/80/59 33/81/60 35/84/61 37/85/62 39/88/63 11/56/64
f 5/57/65 3/3/66 9/52/67 12/60/68
f 9/29/69 14/35/70 13/34/71 12/32/72
f 13/61/73 14/49/74 16/48/75 15/64/76
f 15/38/77 16/39/78 18/43/79 17/42/80
f 17/65/81 18/45/82 20/44/83 19/68/84
f 19/46/85 20/47/86 22/51/87 21/50/88
f 21/69/89 22/41/90 24/40/91 23/72/92
f 23/54/93 24/55/94 26/59/95 25/58/96
f 25/73/97 26/37/98 28/36/99 27/76/100
f 27/62/101 28/63/102 30/67/103 29/66/104
f 29/77/105 30/33/106 32/28/107 31/80/108
f 31/70/109 32/71/110 34/75/111 33/74/112
f 33/81/113 34/27/114 36/26/115 35/84/116
f 35/78/117 36/79/118 38/83/119 37/82/120
f 37/85/121 38/25/122 40/18/123 39/88/124
