# This file uses meters as units for non-parametric coordinates.

v 0.000000 0.000000 0.000001
v -18.806025 -2.999999 -0.000004
v -20.000000 -2.999999 -0.000007
v -4.024163 -0.000000 -0.000001
v -3.018165 -0.000000 -0.000003
v -16.697628 -2.572312 -0.000012
v -4.294928 -0.054253 -0.000022
v 0.000003 0.000000 -3.018165
v 0.000001 -0.000000 -4.024163
v 0.000001 -0.054253 -4.294930
v 0.000012 -2.572312 -16.697628
v 0.000004 -2.999999 -18.806023
v 0.000008 -2.999999 -20.000000
v -2.320045 -0.000000 -0.932466
v -3.501671 -0.054253 -1.782345
v -15.288825 -2.687669 -10.221516
v -16.685444 -2.999999 -11.810938
v -20.000048 -2.999999 -20.000000
v -1.378853 -0.000000 -2.299557
v -1.679099 -0.054253 -3.772107
v -10.181920 -2.456956 -13.202141
v -11.578476 -2.999999 -14.791493
v -1.436767 -0.031145 -3.204533
v -3.155990 -0.036957 -1.469952
vt 0.328167 0.291813
vt 0.328167 0.291813
vt 0.328167 0.291813
vt 0.204799 0.441419
vt 0.204799 0.441419
vt 0.204799 0.441419
vt 0.204799 0.441419
vt 0.394396 0.329035
vt 0.394396 0.329035
vt 0.394396 0.329035
vt 0.394396 0.329035
vt 0.299355 0.047734
vt 0.299355 0.047734
vt 0.299355 0.047734
vt 0.233733 0.061163
vt 0.233733 0.061163
vt 0.233733 0.061163
vt 0.267548 0.441419
vt 0.267548 0.441419
vt 0.267548 0.441419
vt 0.267548 0.441419
vt 0.299355 0.047734
vt 0.299355 0.047734
vt 0.328167 0.291813
vt 0.299355 0.047734
vt 0.299355 0.047734
vt 0.267548 0.441419
vt 0.267548 0.441419
vt 0.204799 0.441419
vt 0.204799 0.441419
vt 0.204799 0.441419
vt 0.204799 0.441419
vt 0.394396 0.329035
vt 0.328167 0.291813
vt 0.299355 0.047734
vt 0.299355 0.047734
vt 0.299355 0.047734
vt 0.267548 0.441419
vt 0.267548 0.441419
vt 0.204799 0.441419
vt 0.204799 0.441419
vt 0.204799 0.441419
vt 0.204799 0.441419
vt 0.394396 0.329035
vt 0.394396 0.329035
vt 0.299355 0.047734
vt 0.299355 0.047734
vn -0.000000 1.000000 -0.000000
vn -0.000000 1.000000 -0.000000
vn -0.000000 1.000000 -0.000000
vn -0.000000 1.000000 -0.000000
vn -0.000000 1.000000 -0.000000
vn -0.190913 0.980957 -0.035718
vn -0.190913 0.980957 -0.035718
vn -0.190913 0.980957 -0.035718
vn -0.190913 0.980957 -0.035718
vn 0.000000 1.000000 0.000000
vn 0.000000 1.000000 0.000000
vn 0.000000 1.000000 0.000000
vn 0.000000 1.000000 0.000000
vn -0.028610 0.999145 -0.029860
vn -0.029419 0.999289 -0.023565
vn -0.019634 0.999684 -0.015698
vn -0.032235 0.998307 -0.048416
vn -0.000000 0.000000 -0.000000
vn -0.000000 0.000000 -0.000000
vn -0.000000 0.999922 -0.012499
vn -0.193090 0.980156 -0.044841
vn -0.193090 0.980156 -0.044841
vn -0.193090 0.980156 -0.044841
vn -0.193090 0.980156 -0.044841
vn -0.127554 0.982982 -0.132202
vn -0.127554 0.982982 -0.132202
vn -0.127554 0.982982 -0.132202
vn -0.127554 0.982982 -0.132202
vn -0.116367 0.979996 -0.161455
vn -0.116367 0.979996 -0.161455
vn -0.116367 0.979996 -0.161455
vn -0.116367 0.979995 -0.161455
vn 0.000000 1.000000 -0.000000
vn 0.000000 1.000000 -0.000000
vn 0.000000 1.000000 -0.000000
vn -0.057598 0.978487 -0.198104
vn -0.057598 0.978487 -0.198104
vn -0.057598 0.978487 -0.198104
vn -0.057598 0.978487 -0.198104
vn -0.073281 0.971076 -0.227249
vn -0.073281 0.971076 -0.227249
vn -0.073281 0.971076 -0.227249
vn -0.073281 0.971076 -0.227249
vn 0.000000 1.000000 -0.000000
vn 0.000000 1.000000 -0.000000
vn 0.000000 1.000000 -0.000000
vn 0.000000 1.000000 -0.000000
vn -0.049577 0.997983 -0.039647
vn -0.034761 0.998940 -0.030163
vn -0.045350 0.998375 -0.034498
vn -0.087152 0.994630 -0.055824
vn -0.045350 0.998375 -0.034498
vn -0.034761 0.998940 -0.030163
vn -0.028610 0.999145 -0.029860
vn -0.035453 0.998203 -0.048312
vn -0.035453 0.998203 -0.048312
vn -0.028610 0.999145 -0.029860
vn -0.032235 0.998307 -0.048416
vn -0.044061 0.995887 -0.079163
vn -0.034761 0.998940 -0.030163
vn -0.024606 0.999373 -0.025451
vn -0.029419 0.999289 -0.023565
vn -0.028610 0.999145 -0.029860
vn -0.049577 0.997983 -0.039647
vn -0.013081 0.999629 -0.023906
vn -0.024606 0.999373 -0.025451
vn -0.034761 0.998940 -0.030163
s off
f 14/2/1 5/3/2 1/1/3 8/34/4 19/24/5
f 2/4/6 6/5/7 16/6/8 17/7/9
f 18/8/10 3/9/11 2/10/12 17/11/13
f 23/46/14 19/25/15 8/35/16 9/36/17
f 4/15/18 1/16/19 5/17/20
f 6/18/21 7/19/22 15/20/23 16/21/24
f 16/21/25 15/20/26 20/27/27 21/28/28
f 17/29/29 16/30/30 21/31/31 22/32/32
f 18/8/33 17/11/34 22/33/35
f 21/28/36 20/27/37 10/38/38 11/39/39
f 22/40/40 21/41/41 11/42/42 12/43/43
f 13/44/44 18/8/45 22/33/46 12/45/47
f 4/12/48 24/47/49 15/23/50 7/22/51
f 15/23/52 24/47/53 23/46/54 20/26/55
f 20/26/56 23/46/57 9/36/58 10/37/59
f 24/47/60 14/14/61 19/25/62 23/46/63
f 4/12/64 5/13/65 14/14/66 24/47/67
