# This file uses meters as units for non-parametric coordinates.

v -14.999954 0.000000 0.000000
v -14.999954 -2.999999 -18.806030
v -14.999954 -2.999999 -20.000000
v -14.999954 -0.000000 -4.024170
v -14.999954 0.000000 -3.018158
v -14.999954 -2.572312 -16.697632
v -14.999954 -0.054253 -4.294922
v 0.000000 0.000000 0.000000
v 0.000000 -0.000000 -3.018158
v 0.000000 -0.000000 -4.024170
v 0.000015 -0.054253 -4.294922
v 0.000015 -2.572312 -16.697632
v 0.000000 -2.999999 -18.806030
v 0.000000 -2.999999 -20.000000
v -10.499344 0.000000 0.000000
v -10.499344 -0.000000 -2.640228
v -10.499344 -0.000000 -3.959900
v -10.499344 -0.054549 -4.231598
v -10.499344 -2.586292 -16.677643
v -10.499344 -3.016303 -18.793488
v -10.499344 -3.016303 -19.991455
v -4.695602 0.000000 0.000000
v -4.695602 0.000000 -3.045929
v -4.695602 0.000000 -3.959900
v -4.695602 -0.105003 -4.668793
v -4.695602 -2.355579 -15.545746
v -4.695602 -3.016303 -17.661499
v -4.695602 -3.016303 -19.991455
vt 0.328167 0.291813
vt 0.328167 0.291813
vt 0.328167 0.291813
vt 0.328167 0.291813
vt 0.204799 0.441419
vt 0.204799 0.441419
vt 0.204799 0.441419
vt 0.204799 0.441419
vt 0.394396 0.329035
vt 0.394396 0.329035
vt 0.394396 0.329035
vt 0.394396 0.329035
vt 0.299355 0.047734
vt 0.299355 0.047734
vt 0.299355 0.047734
vt 0.299355 0.047734
vt 0.233733 0.061163
vt 0.233733 0.061163
vt 0.233733 0.061163
vt 0.267548 0.441419
vt 0.267548 0.441419
vt 0.267548 0.441419
vt 0.267548 0.441419
vt 0.299355 0.047734
vt 0.299355 0.047734
vt 0.328167 0.291813
vt 0.328167 0.291813
vt 0.328167 0.291813
vt 0.328167 0.291813
vt 0.299355 0.047734
vt 0.299355 0.047734
vt 0.299355 0.047734
vt 0.267548 0.441419
vt 0.267548 0.441419
vt 0.204799 0.441419
vt 0.204799 0.441419
vt 0.204799 0.441419
vt 0.204799 0.441419
vt 0.394396 0.329035
vt 0.394396 0.329035
vt 0.328167 0.291813
vt 0.328167 0.291813
vt 0.328167 0.291813
vt 0.328167 0.291813
vt 0.299355 0.047734
vt 0.299355 0.047734
vt 0.299355 0.047734
vt 0.267548 0.441419
vt 0.267548 0.441419
vt 0.204799 0.441419
vt 0.204799 0.441419
vt 0.204799 0.441419
vt 0.204799 0.441419
vt 0.394396 0.329035
vt 0.394396 0.329035
vn 0.000000 1.000000 -0.000000
vn 0.000000 1.000000 -0.000000
vn 0.000000 1.000000 -0.000000
vn 0.000000 1.000000 -0.000000
vn 0.004016 0.979995 -0.198980
vn 0.004016 0.979995 -0.198980
vn 0.004016 0.979995 -0.198980
vn 0.004016 0.979995 -0.198980
vn 0.003623 0.999994 0.000000
vn 0.003623 0.999993 0.000000
vn 0.003623 0.999993 0.000000
vn 0.003623 0.999993 0.000000
vn 0.000000 1.000000 -0.000000
vn 0.000000 1.000000 -0.000000
vn 0.000000 1.000000 -0.000000
vn 0.000000 1.000000 -0.000000
vn -0.000000 0.000000 0.000000
vn -0.000000 0.000000 0.000000
vn -1.000000 0.000000 0.000000
vn 0.003397 0.979963 -0.199150
vn 0.003397 0.979963 -0.199150
vn 0.003397 0.979963 -0.199150
vn 0.003397 0.979963 -0.199150
vn 0.002820 0.980468 -0.196656
vn 0.002820 0.980468 -0.196656
vn 0.002820 0.980468 -0.196656
vn 0.002820 0.980468 -0.196656
vn -0.000000 1.000000 -0.000000
vn -0.000000 1.000000 -0.000000
vn -0.000000 1.000000 -0.000000
vn -0.000000 1.000000 -0.000000
vn -0.000000 1.000000 -0.000000
vn -0.000000 1.000000 -0.000000
vn -0.000000 1.000000 -0.000000
vn -0.000000 1.000000 -0.000000
vn -0.001759 0.987019 -0.160597
vn -0.001759 0.987019 -0.160597
vn -0.001759 0.987019 -0.160597
vn -0.001759 0.987019 -0.160597
vn -0.003191 0.979613 -0.200867
vn -0.003191 0.979613 -0.200867
vn -0.003191 0.979613 -0.200867
vn -0.003191 0.979613 -0.200867
vn 0.029422 0.967930 -0.249493
vn 0.029422 0.967930 -0.249493
vn 0.029422 0.967930 -0.249493
vn 0.029422 0.967930 -0.249493
vn 0.000000 1.000000 0.000000
vn 0.000000 1.000000 0.000000
vn 0.000000 1.000000 0.000000
vn 0.000000 1.000000 0.000000
vn 0.000000 1.000000 -0.000000
vn 0.000000 1.000000 -0.000000
vn 0.000000 1.000000 -0.000000
vn 0.000000 1.000000 -0.000000
vn 0.000000 1.000000 -0.000000
vn 0.000000 1.000000 -0.000000
vn 0.000000 1.000000 -0.000000
vn 0.000000 1.000000 -0.000000
vn -0.000044 0.987043 -0.160458
vn -0.000044 0.987043 -0.160458
vn -0.000044 0.987043 -0.160458
vn -0.000044 0.987043 -0.160458
vn 0.000690 0.979658 -0.200674
vn 0.000690 0.979658 -0.200674
vn 0.000690 0.979658 -0.200674
vn 0.000690 0.979658 -0.200674
vn -0.040313 0.967584 -0.249311
vn -0.040313 0.967584 -0.249311
vn -0.040313 0.967584 -0.249311
vn -0.040313 0.967584 -0.249311
vn -0.003472 0.999994 0.000000
vn -0.003472 0.999994 0.000000
vn -0.003472 0.999994 0.000000
vn -0.003472 0.999994 0.000000
s off
f 1/1/1 15/2/2 16/3/3 5/4/4
f 2/5/5 6/6/6 19/7/7 20/8/8
f 21/9/9 3/10/10 2/11/11 20/12/12
f 4/13/13 5/14/14 16/15/15 17/16/16
f 4/17/17 1/18/18 5/19/19
f 6/20/20 7/21/21 18/22/22 19/23/23
f 7/24/24 4/13/25 17/16/26 18/25/27
f 15/26/28 22/27/29 23/28/30 16/29/31
f 17/16/32 16/15/33 23/30/34 24/31/35
f 18/25/36 17/16/37 24/31/38 25/32/39
f 19/23/40 18/22/41 25/33/42 26/34/43
f 20/35/44 19/36/45 26/37/46 27/38/47
f 28/39/48 21/9/49 20/12/50 27/40/51
f 22/41/52 8/42/53 9/43/54 23/44/55
f 24/31/56 23/30/57 9/45/58 10/46/59
f 25/32/60 24/31/61 10/46/62 11/47/63
f 26/34/64 25/33/65 11/48/66 12/49/67
f 27/50/68 26/51/69 12/52/70 13/53/71
f 14/54/72 28/39/73 27/40/74 13/55/75
