# This file uses meters as units for non-parametric coordinates.

v -3.775154 -0.198599 -6.864410
v -3.769035 -0.198599 -6.654083
v -3.745338 -0.117545 -6.826630
v -3.734276 -0.117545 -6.687332
v -3.568047 -0.117545 -6.782928
v -3.617577 -0.117545 -6.655640
v -3.533272 -0.198599 -6.816193
v -3.587776 -0.198599 -6.617889
v -4.392570 -0.198599 -4.239334
v -4.113533 -0.198599 -4.266983
v -4.345131 -0.090582 -4.282471
v -4.160973 -0.090582 -4.310120
v -4.303490 -0.090582 -4.522232
v -4.129684 -0.090582 -4.468201
v -4.350937 -0.198599 -4.565369
v -4.082237 -0.198599 -4.511337
v -4.999992 -0.194796 -2.869125
v -4.999992 -0.194796 -10.000000
v -4.999992 0.000000 -2.869125
v -4.999992 0.000000 0.000000
v 0.000000 0.000000 0.000000
v -4.999992 -0.194796 -3.165329
v -2.812263 0.000000 0.000000
v -2.869118 0.000000 -2.869125
v -3.157722 -0.194796 -3.165329
v -3.157722 -0.194796 -10.000000
v 0.000000 0.000000 -2.869125
v 0.000000 0.000000 -10.000000
v -2.869125 -0.194796 -2.869125
v -2.869118 0.000000 -10.000000
v -2.869118 -0.194796 -10.000000
v -4.999992 -0.194796 0.000000
v 0.000000 -0.194796 0.000000
v 0.000000 -0.194796 -10.000000
v -4.999992 -0.194796 -3.165329
v -3.157722 -0.194796 -3.165329
v -3.157722 -0.194796 -10.000000
v -2.582207 0.000000 -10.000000
v -2.582207 0.000000 -2.869125
v -2.869118 0.000000 -2.582214
v -4.999992 0.000000 -2.582214
v -4.999992 0.000000 -2.507660
v -2.840912 -0.107546 -2.507660
v -2.522018 0.197510 -2.869125
v -2.522018 0.000000 -10.000000
v -2.522018 0.000000 -2.507660
v -2.582207 0.000000 -2.582214
v -2.812263 0.000000 -2.507660
v -2.812263 0.000000 0.000000
v -2.522018 0.000000 -2.811707
v 0.000000 0.000000 -2.811707
v 0.000000 0.000000 -6.434570
v -2.522018 0.000000 -6.434570
v 0.000000 0.000000 -6.359741
v -2.522018 0.197510 -6.359741
vt 0.708140 0.230146
vt 0.708140 0.230146
vt 0.708140 0.230146
vt 0.708140 0.230146
vt 0.693106 0.238446
vt 0.693106 0.238446
vt 0.693106 0.238446
vt 0.693106 0.238446
vt 0.708140 0.230146
vt 0.708140 0.230146
vt 0.708140 0.230146
vt 0.708140 0.230146
vt 0.708140 0.230146
vt 0.708140 0.230146
vt 0.708140 0.230146
vt 0.708140 0.230146
vt 0.708140 0.230146
vt 0.708140 0.230146
vt 0.708140 0.230146
vt 0.708140 0.230146
vt 0.708140 0.230146
vt 0.708140 0.230146
vt 0.708140 0.230146
vt 0.708140 0.230146
vt 0.708140 0.230146
vt 0.708140 0.230146
vt 0.708140 0.230146
vt 0.708140 0.230146
vt 0.693106 0.238446
vt 0.693106 0.238446
vt 0.693106 0.238446
vt 0.693106 0.238446
vt 0.708140 0.230146
vt 0.708140 0.230146
vt 0.708140 0.230146
vt 0.708140 0.230146
vt 0.708140 0.230146
vt 0.708140 0.230146
vt 0.708140 0.230146
vt 0.708140 0.230146
vt 0.708140 0.230146
vt 0.708140 0.230146
vt 0.708140 0.230146
vt 0.708140 0.230146
vt 0.708140 0.230146
vt 0.708140 0.230146
vt 0.708140 0.230146
vt 0.708140 0.230146
vt 0.695709 0.223348
vt 0.695709 0.223348
vt 0.695709 0.223348
vt 0.695709 0.223348
vt 0.297836 0.481233
vt 0.297836 0.481233
vt 0.297836 0.481233
vt 0.297836 0.481233
vt 0.294329 0.062489
vt 0.294329 0.062489
vt 0.294329 0.062489
vt 0.294329 0.062489
vt 0.236412 0.477137
vt 0.236412 0.477137
vt 0.236412 0.477137
vt 0.236412 0.477137
vt 0.297836 0.481233
vt 0.297836 0.481233
vt 0.294329 0.062489
vt 0.294329 0.062489
vt 0.294329 0.062489
vt 0.294329 0.062489
vt 0.294329 0.062489
vt 0.294329 0.062489
vt 0.294329 0.062489
vt 0.294329 0.062489
vt 0.294329 0.062489
vt 0.359268 0.062489
vt 0.359268 0.062489
vt 0.359268 0.062489
vt 0.359268 0.062489
vt 0.359268 0.062489
vt 0.359268 0.062489
vt 0.359268 0.062489
vt 0.359268 0.062489
vt 0.359268 0.062489
vt 0.359268 0.062489
vt 0.359268 0.062489
vt 0.359268 0.062489
vt 0.693189 0.228925
vt 0.693189 0.228925
vt 0.693189 0.228925
vt 0.693189 0.228925
vt 0.693189 0.228925
vt 0.693189 0.228925
vt 0.693189 0.228925
vt 0.693189 0.228925
vt 0.236412 0.477137
vt 0.236412 0.477137
vt 0.362335 0.479185
vt 0.362335 0.479185
vt 0.362335 0.479185
vt 0.362335 0.479185
vt 0.362335 0.479185
vt 0.362335 0.479185
vt 0.362335 0.479185
vt 0.362335 0.479185
vt 0.552575 0.228683
vt 0.552575 0.228683
vt 0.552575 0.228683
vt 0.552575 0.228683
vt 0.294329 0.062489
vt 0.294329 0.062489
vt 0.294329 0.062489
vt 0.552575 0.228683
vt 0.552575 0.228683
vt 0.552575 0.228683
vt 0.552575 0.228683
vt 0.294329 0.062489
vt 0.294329 0.062489
vt 0.552575 0.228683
vt 0.552575 0.228683
vt 0.552575 0.228683
vt 0.552575 0.228683
vt 0.552575 0.228683
vt 0.552575 0.228683
vt 0.552575 0.228683
vt 0.552575 0.228683
vt 0.552575 0.228683
vt 0.552575 0.228683
vt 0.294329 0.062489
vt 0.294329 0.062489
vn -0.928476 0.368579 0.045627
vn -0.928476 0.368579 0.045627
vn -0.928476 0.368579 0.045627
vn -0.928476 0.368579 0.045627
vn 0.000000 1.000000 0.000000
vn 0.000000 1.000000 0.000000
vn 0.000000 1.000000 0.000000
vn 0.000000 1.000000 0.000000
vn 0.888091 0.361624 0.283766
vn 0.888091 0.361624 0.283766
vn 0.888091 0.361624 0.283766
vn 0.888091 0.361624 0.283766
vn 0.000000 -1.000000 0.000000
vn 0.000000 -1.000000 0.000000
vn 0.000000 -1.000000 0.000000
vn 0.000000 -1.000000 0.000000
vn -0.203795 0.397990 0.894467
vn -0.203795 0.397990 0.894467
vn -0.203795 0.397990 0.894467
vn -0.203795 0.397990 0.894467
vn 0.196446 0.398616 -0.895832
vn 0.196446 0.398616 -0.895832
vn 0.196446 0.398616 -0.895832
vn 0.196446 0.398616 -0.895832
vn 0.110194 0.368612 0.923029
vn 0.110194 0.368612 0.923029
vn 0.110194 0.368612 0.923029
vn 0.110194 0.368612 0.923029
vn 0.000000 1.000000 -0.000000
vn 0.000000 1.000000 -0.000000
vn 0.000000 1.000000 -0.000000
vn 0.000000 1.000000 -0.000000
vn 0.221175 0.361686 -0.905685
vn 0.221175 0.361686 -0.905685
vn 0.221175 0.361685 -0.905685
vn 0.221175 0.361686 -0.905685
vn 0.000000 -1.000000 -0.000000
vn 0.000000 -1.000000 -0.000000
vn 0.000000 -1.000000 -0.000000
vn 0.000000 -1.000000 -0.000000
vn 0.906436 0.398126 0.140963
vn 0.906436 0.398126 0.140963
vn 0.906436 0.398126 0.140963
vn 0.906436 0.398126 0.140963
vn -0.907377 0.398537 -0.133549
vn -0.907377 0.398537 -0.133549
vn -0.907377 0.398537 -0.133549
vn -0.907377 0.398537 -0.133549
vn 0.000000 1.000000 0.000000
vn 0.000000 1.000000 0.000000
vn 0.000000 1.000000 0.000000
vn 0.000000 1.000000 0.000000
vn 0.000000 0.000000 -1.000000
vn 0.000000 0.000000 -1.000000
vn 0.000000 0.000000 -1.000000
vn 0.000000 0.000000 -1.000000
vn 0.005664 0.986795 0.161876
vn 0.005141 0.989131 0.146946
vn 0.024743 0.999694 -0.000545
vn 0.024741 0.999686 -0.003954
vn 0.000000 1.000000 0.000000
vn 0.000000 1.000000 0.000000
vn 0.000000 1.000000 0.000000
vn 0.000000 1.000000 0.000000
vn -1.000000 0.000021 -0.000001
vn -1.000000 0.000021 -0.000001
vn -1.000000 0.000021 -0.000001
vn -1.000000 0.000021 -0.000001
vn -0.945249 0.326177 0.010569
vn -0.017700 0.999843 0.000452
vn -0.000603 1.000000 0.000549
vn -0.099785 0.990615 0.093412
vn -0.034011 0.999085 0.025937
vn -0.270994 0.962578 -0.002312
vn -0.270994 0.962578 -0.002312
vn -0.000800 1.000000 -0.000644
vn -0.016919 0.999526 -0.025724
vn -0.087193 0.995844 -0.026296
vn -0.073761 0.997276 -0.000629
vn 0.000000 0.000000 0.000000
vn 0.000000 0.000000 1.000000
vn 0.000000 0.000000 1.000000
vn 0.000000 0.000000 1.000000
vn 0.000000 0.000000 1.000000
vn 0.000000 0.000000 0.000000
vn 1.000000 0.000000 0.000000
vn 1.000000 0.000000 0.000000
vn 1.000000 0.000000 0.000000
vn 1.000000 0.000000 0.000000
vn 1.000000 0.000000 0.000000
vn 1.000000 0.000000 0.000000
vn 1.000000 0.000000 0.000000
vn 1.000000 0.000000 0.000000
vn 0.000000 0.000000 0.000000
vn 0.000000 0.000000 0.000000
vn 0.000000 0.000000 0.000000
vn 0.000000 0.000000 0.000000
vn 0.000000 0.000000 0.000000
vn 0.000000 0.000000 0.000000
vn 0.000000 0.000000 0.000000
vn 0.000000 0.000000 0.000000
vn 0.000000 0.000000 0.000000
vn 0.000000 0.000000 0.000000
vn 0.000000 0.000000 0.000000
vn 0.000000 0.000000 0.000000
vn 0.000000 1.000000 -0.000000
vn 0.000000 1.000000 -0.000000
vn 0.000000 1.000000 -0.000000
vn 0.000000 1.000000 -0.000000
vn 0.000000 1.000000 0.000000
vn 0.000000 1.000000 0.000000
vn -0.270994 0.962578 -0.002312
vn -0.270994 0.962578 -0.002312
vn -0.034011 0.999085 0.025937
vn -0.099785 0.990615 0.093412
vn -0.055504 0.996762 0.058182
vn 0.000000 1.000000 0.000000
vn 0.000000 1.000000 0.000000
vn 0.000000 1.000000 0.000000
vn 0.005141 0.989131 0.146946
vn 0.005664 0.986795 0.161876
vn 0.024741 0.999686 -0.003954
vn 0.024743 0.999694 -0.000545
vn 0.024728 0.999461 -0.021573
vn 0.024728 0.999461 -0.021573
vn 0.019678 0.502544 0.864328
vn 0.014132 0.513707 0.857849
vn -0.000128 0.999486 0.032046
vn 0.000712 0.999511 0.031259
vn 0.077231 0.996631 -0.027604
vn -0.016919 0.999526 -0.025724
vn -0.000800 1.000000 -0.000644
vn 0.078075 0.996948 0.000000
vn -0.099785 0.990615 0.093412
vn -0.000603 1.000000 0.000549
vn -0.000128 0.999486 0.032046
vn 0.014132 0.513707 0.857849
vn -0.055504 0.996762 0.058182
vn -0.000000 1.000000 0.000000
vn -0.017700 0.999843 0.000452
vn -0.945249 0.326177 0.010569
vn -0.000000 0.000000 0.000000
vn 0.000712 0.999511 0.031259
vn -0.000128 0.999486 0.032046
vn -0.000603 1.000000 0.000549
vn -0.017700 0.999843 0.000452
vn -0.000000 1.000000 0.000000
vn 0.000000 1.000000 0.000000
vn -0.073761 0.997276 -0.000629
vn -0.087193 0.995844 -0.026296
vn 0.000805 0.999632 -0.027119
vn 0.000000 1.000000 0.000000
vn 0.000805 0.999632 -0.027119
vn -0.087193 0.995844 -0.026296
vn -0.016919 0.999526 -0.025724
vn 0.077231 0.996631 -0.027604
s off
f 1/1/1 2/2/2 4/3/3 3/4/4
f 3/5/5 4/6/6 6/7/7 5/8/8
f 5/9/9 6/10/10 8/11/11 7/12/12
f 7/13/13 8/14/14 2/15/15 1/16/16
f 2/17/17 8/18/18 6/19/19 4/20/20
f 7/21/21 1/22/22 3/23/23 5/24/24
f 9/25/25 10/26/26 12/27/27 11/28/28
f 11/29/29 12/30/30 14/31/31 13/32/32
f 13/33/33 14/34/34 16/35/35 15/36/36
f 15/37/37 16/38/38 10/39/39 9/40/40
f 10/41/41 16/42/42 14/43/43 12/44/44
f 15/45/45 9/46/46 11/47/47 13/48/48
f 18/49/49 22/50/50 25/51/51 26/52/52
f 29/53/53 17/54/54 19/55/55 24/56/56
f 40/57/57 41/58/58 42/59/59 43/60/60
f 25/61/61 29/62/62 31/63/63 26/64/64
f 29/53/65 24/56/66 30/65/67 31/66/68
f 43/60/69 48/67/70 46/68/71 47/69/72 40/57/73
f 38/70/74 39/71/75 44/72/76 55/73/77 53/74/78 45/75/79
f 23/76/80 20/77/81 32/78/82 33/79/83 21/80/84 49/81/85
f 27/82/86 51/83/87 21/80/88 33/79/89 34/84/90 28/85/91 52/86/92 54/87/93
f 35/88/94 22/89/95 36/90/96
f 22/89/97 25/91/98 36/90/99
f 36/92/100 25/93/101 37/94/102
f 25/93/103 26/95/104 37/94/105
f 25/61/106 22/96/107 17/97/108 29/62/109
f 30/98/110 24/99/111 39/100/112 38/101/113
f 40/102/114 47/103/115 39/100/116 24/99/117
f 24/99/118 19/104/119 41/105/120 40/102/121
f 43/106/122 42/107/123 20/108/124 23/109/125
f 27/110/126 44/72/127 50/111/128 51/112/129
f 54/113/130 55/114/131 44/115/132 27/116/133
f 47/69/134 46/68/135 50/111/136 44/72/137 39/71/138
f 49/117/139 48/67/140 43/60/141 23/118/142
f 51/119/143 50/120/144 46/121/145 48/122/146 49/123/147 21/124/148
f 45/125/149 53/126/150 52/127/151 28/128/152
f 52/129/153 53/74/154 55/73/155 54/130/156
