# This file uses meters as units for non-parametric coordinates.

v 0.000000 -0.194796 -17.000000
v -6.249987 0.000000 -4.375000
v 0.000000 0.000000 0.000000
v 0.000000 -0.194796 -3.165314
v 0.000000 0.000000 -2.869125
v 0.000000 -0.194796 -2.869125
v -3.455967 -0.194796 -17.000000
v -1.557632 -0.194796 -17.000000
v -3.455967 -0.194796 -16.684448
v -1.557632 -0.194796 -16.684448
v -9.999979 -0.194796 -9.869125
v -9.999979 -0.194796 -17.000000
v -9.999979 0.000000 -9.869125
v -9.999979 0.000000 -7.000000
v -9.999979 -0.194796 -10.165314
v -8.459171 -0.194796 -17.000000
v -6.557623 -0.194796 -17.000000
v -8.459171 -0.194796 -16.684448
v -6.557623 -0.194796 -16.684448
v -1.249998 0.000000 -0.875000
v -9.999979 0.000000 0.000000
v -9.999979 0.000000 -9.582214
v -5.124990 0.000000 -6.169724
v -0.125000 0.000000 -2.669724
v 0.000000 -0.000000 -2.582214
v -9.999979 0.000000 -9.530579
v -5.147490 0.000000 -6.133820
v -0.147499 0.000000 -2.633820
v 0.000000 0.000000 -2.530579
v -6.149988 0.000000 -4.304993
v -5.047489 0.000000 -6.063828
v -1.339998 0.000000 -0.938004
v -0.237499 0.000000 -2.696823
vt 0.390061 0.062622
vt 0.390061 0.062622
vt 0.390061 0.062622
vt 0.390061 0.062622
vt 0.299911 0.474881
vt 0.299911 0.474881
vt 0.299911 0.474881
vt 0.299911 0.474881
vt 0.233058 0.473868
vt 0.233059 0.473868
vt 0.233059 0.473868
vt 0.233058 0.473868
vt 0.559450 0.229850
vt 0.559450 0.229850
vt 0.559450 0.229850
vt 0.559450 0.229850
vt 0.693189 0.228925
vt 0.693189 0.228925
vt 0.693189 0.228925
vt 0.390061 0.062622
vt 0.390061 0.062622
vt 0.390061 0.062622
vt 0.390061 0.062622
vt 0.559451 0.229850
vt 0.559450 0.229850
vt 0.559450 0.229850
vt 0.559451 0.229850
vt 0.693189 0.228925
vt 0.693189 0.228925
vt 0.693189 0.228925
vt 0.693189 0.228925
vt 0.693189 0.228925
vt 0.693189 0.228925
vt 0.693189 0.228925
vt 0.295859 0.062622
vt 0.295859 0.062622
vt 0.295859 0.062622
vt 0.295859 0.062622
vt 0.693189 0.228925
vt 0.693189 0.228925
vt 0.693189 0.228925
vt 0.693189 0.228925
vt 0.693189 0.228925
vt 0.693189 0.228925
vt 0.693189 0.228925
vt 0.693189 0.228925
vt 0.693189 0.228925
vt 0.357648 0.476907
vt 0.357647 0.476907
vt 0.357647 0.476907
vt 0.357648 0.476907
vt 0.357648 0.476907
vt 0.357648 0.476907
vt 0.295859 0.062622
vt 0.295859 0.062622
vt 0.295860 0.062622
vt 0.295860 0.062622
vt 0.295859 0.062622
vt 0.295859 0.062622
vt 0.295859 0.062622
vt 0.295859 0.062622
vt 0.295859 0.062622
vt 0.295859 0.062622
vt 0.559450 0.229850
vt 0.559450 0.229850
vt 0.559450 0.229850
vt 0.559450 0.229850
vn 0.000000 1.000000 0.000000
vn 0.000000 1.000000 0.000000
vn 0.000000 1.000000 0.000000
vn 0.000000 1.000000 0.000000
vn 0.573463 0.000000 -0.819231
vn 0.573463 0.000000 -0.819231
vn 0.573463 0.000000 -0.819231
vn 0.573463 0.000000 -0.819231
vn 0.000000 1.000000 0.000000
vn 0.000000 1.000000 0.000000
vn 0.000000 1.000000 0.000000
vn 0.000000 1.000000 0.000000
vn 0.000000 1.000000 0.000000
vn 0.000000 1.000000 0.000000
vn 0.000000 1.000000 0.000000
vn 0.000000 1.000000 0.000000
vn 0.000000 1.000000 0.000000
vn 0.000000 1.000000 0.000000
vn 0.000000 1.000000 0.000000
vn 0.000000 1.000000 0.000000
vn 0.000000 1.000000 0.000000
vn 0.000000 1.000000 0.000000
vn 0.000000 1.000000 0.000000
vn 0.000000 1.000000 0.000000
vn 0.000000 1.000000 0.000000
vn 0.000000 1.000000 0.000000
vn 0.000000 1.000000 0.000000
vn 0.000000 1.000000 0.000000
vn 0.000000 1.000000 0.000000
vn 0.000000 1.000000 0.000000
vn 0.000000 1.000000 0.000000
vn 0.000000 1.000000 0.000000
vn 0.000000 1.000000 0.000000
vn 0.000000 1.000000 0.000000
vn 0.000000 1.000000 0.000000
vn 0.000000 1.000000 0.000000
vn 0.000000 1.000000 0.000000
vn 0.000000 1.000000 0.000000
vn 0.000000 1.000000 0.000000
vn 0.000000 1.000000 0.000000
vn 0.000000 1.000000 0.000000
vn 0.000000 1.000000 0.000000
vn 0.000000 1.000000 0.000000
vn 0.000000 1.000000 0.000000
vn 0.000000 1.000000 0.000000
vn 0.000000 1.000000 0.000000
vn 0.000000 1.000000 0.000000
vn 0.000000 1.000000 0.000000
vn 0.000000 1.000000 0.000000
vn 0.000000 1.000000 0.000000
vn 0.000000 1.000000 0.000000
vn 0.000000 1.000000 0.000000
vn 0.000000 1.000000 0.000000
vn 0.000000 1.000000 0.000000
vn 0.000000 1.000000 0.000000
vn 0.000000 1.000000 0.000000
vn 0.000000 1.000000 0.000000
vn 0.000000 1.000000 0.000000
vn 0.000000 1.000000 0.000000
vn 0.000000 1.000000 0.000000
vn 0.000000 1.000000 0.000000
vn 0.000000 1.000000 0.000000
vn 0.000000 1.000000 0.000000
vn 0.000000 1.000000 0.000000
vn 0.000000 1.000000 0.000000
vn 0.000000 1.000000 0.000000
vn 0.000000 1.000000 0.000000
vn 0.000000 1.000000 0.000000
vn 0.000000 1.000000 0.000000
vn 0.000000 1.000000 0.000000
vn 0.000000 1.000000 0.000000
vn 0.000000 1.000000 0.000000
vn 0.000000 1.000000 0.000000
vn 0.000000 1.000000 -0.000000
vn 0.000000 1.000000 -0.000000
vn 0.000000 1.000000 -0.000000
vn 0.000000 1.000000 -0.000000
vn 0.000000 1.000000 0.000000
vn 0.000000 1.000000 0.000000
vn 0.000000 1.000000 0.000000
vn 0.000000 1.000000 0.000000
vn 0.000000 1.000000 0.000000
vn 0.000000 1.000000 0.000000
vn 0.000000 1.000000 0.000000
vn 0.000000 1.000000 0.000000
s off
f 7/1/1 9/2/2 10/3/3 8/4/4
f 6/5/5 11/6/6 13/7/7 5/8/8
f 4/9/9 15/10/10 11/11/11 6/12/12
f 20/13/13 3/14/14 29/15/15 28/16/16
f 1/17/17 8/18/18 10/19/19
f 16/20/20 18/21/21 19/22/22 17/23/23
f 14/24/24 2/25/25 27/26/26 26/27/27
f 12/28/28 18/29/29 16/30/30
f 19/31/31 18/29/32 12/28/33 15/32/34 4/33/35 1/17/36 10/19/37 9/34/38
f 32/35/39 20/36/40 28/37/41 33/38/42
f 20/39/43 32/40/44 30/41/45 2/42/46 21/43/47
f 21/43/48 2/42/49 14/44/50
f 3/45/51 20/39/52 21/43/53
f 19/31/54 9/34/55 7/46/56 17/47/57
f 5/48/58 13/49/59 22/50/60 23/51/61 24/52/62 25/53/63
f 27/54/64 23/55/65 22/56/66 26/57/67
f 23/55/68 27/54/69 31/58/70 33/38/71 28/37/72 24/59/73
f 29/60/74 25/61/75 24/59/76 28/37/77
f 2/62/78 30/63/79 31/58/80 27/54/81
f 31/64/82 30/65/83 32/66/84 33/67/85
