# This file uses meters as units for non-parametric coordinates.

v -5.000008 -0.194796 0.000000
v -0.000008 -0.194796 0.000000
v -5.000008 -0.194796 -5.000000
v -0.000008 -0.194796 -5.000000
vt 0.693189 0.228925
vt 0.693189 0.228925
vt 0.693189 0.228925
vt 0.693189 0.228925
vn 0.000000 1.000000 0.000000
vn 0.000000 1.000000 0.000000
vn 0.000000 1.000000 0.000000
vn 0.000000 1.000000 0.000000
vn 0.000000 1.000000 0.000000
vn 0.000000 1.000000 0.000000
s off
f 1/1/1 4/2/2 3/3/3
f 1/1/4 2/4/5 4/2/6
