# This file uses meters as units for non-parametric coordinates.

v -0.681644 0.088508 0.681641
v 0.681641 0.088508 0.681641
v -0.681644 0.180212 0.681641
v 0.681641 0.180212 0.681641
v -0.681644 0.180212 -0.681644
v 0.681641 0.180212 -0.681644
v -0.681644 0.088508 -0.681644
v 0.681641 0.088508 -0.681644
v -0.562090 0.180212 0.562088
v 0.562088 0.180212 0.562088
v 0.562088 0.180212 -0.562090
v -0.562090 0.180212 -0.562090
v -0.809114 0.000000 0.809114
v 0.809114 0.000000 0.809114
v -0.809114 0.108854 0.809114
v 0.809114 0.108854 0.809114
v -0.809114 0.108854 -0.809114
v 0.809114 0.108854 -0.809114
v -0.809114 0.000000 -0.809114
v 0.809114 0.000000 -0.809114
v -0.623543 0.108854 0.623543
v 0.623543 0.108854 0.623543
v 0.623543 0.108854 -0.623543
v -0.623543 0.108854 -0.623543
vt 0.205779 0.083039
vt 0.234189 0.083039
vt 0.295170 0.083039
vt 0.205779 0.083039
vt 0.234189 0.083039
vt 0.295170 0.083039
vt 0.178948 0.083039
vt 0.234189 0.083039
vt 0.178948 0.083039
vt 0.178948 0.083039
vt 0.205779 0.083039
vt 0.205779 0.083039
vt 0.205779 0.083039
vt 0.205779 0.083039
vt 0.295170 0.083039
vt 0.234189 0.083039
vt 0.234189 0.083039
vt 0.295170 0.083039
vt 0.205779 0.083039
vt 0.234189 0.083039
vt 0.234189 0.083039
vt 0.205779 0.083039
vt 0.178948 0.083039
vt 0.234189 0.083039
vt 0.265755 0.083039
vt 0.295170 0.083039
vt 0.295170 0.083039
vt 0.295170 0.083039
vt 0.295170 0.083039
vt 0.295170 0.083039
vt 0.295170 0.083039
vt 0.263492 0.083039
vt 0.295170 0.083039
vt 0.265755 0.083039
vt 0.295170 0.083039
vt 0.295170 0.083039
vt 0.263492 0.083039
vt 0.295170 0.083039
vt 0.295170 0.083039
vt 0.295170 0.083039
vt 0.198155 0.063184
vt 0.198155 0.063184
vt 0.198155 0.063184
vt 0.198155 0.063184
vt 0.109150 0.473040
vt 0.109150 0.473040
vt 0.109150 0.473040
vt 0.109150 0.473040
vt 0.198155 0.063184
vt 0.198155 0.063184
vt 0.198155 0.063184
vt 0.198155 0.063184
vt 0.142915 0.063184
vt 0.142915 0.063184
vt 0.142915 0.063184
vt 0.142915 0.063184
vt 0.169746 0.063184
vt 0.169746 0.063184
vt 0.169746 0.063184
vt 0.169746 0.063184
vt 0.169746 0.063184
vt 0.169746 0.063184
vt 0.169746 0.063184
vt 0.169746 0.063184
vt 0.229721 0.063184
vt 0.229721 0.063184
vt 0.229721 0.063184
vt 0.229721 0.063184
vt 0.229721 0.063184
vt 0.229721 0.063184
vt 0.229721 0.063184
vt 0.229721 0.063184
vn 0.000000 0.000000 1.000000
vn 0.000000 0.000000 1.000000
vn 0.000000 0.000000 1.000000
vn 0.000000 0.000000 1.000000
vn 0.000000 1.000000 0.000000
vn 0.000000 1.000000 0.000000
vn 0.000000 1.000000 0.000000
vn 0.000000 1.000000 0.000000
vn 0.000000 0.000000 -1.000000
vn 0.000000 0.000000 -1.000000
vn 0.000000 0.000000 -1.000000
vn 0.000000 0.000000 -1.000000
vn 0.000000 -1.000000 0.000000
vn 0.000000 -1.000000 0.000000
vn 0.000000 -1.000000 0.000000
vn 0.000000 -1.000000 0.000000
vn 1.000000 0.000000 0.000000
vn 1.000000 0.000000 0.000000
vn 1.000000 0.000000 0.000000
vn 1.000000 0.000000 0.000000
vn -1.000000 0.000000 0.000000
vn -1.000000 0.000000 0.000000
vn -1.000000 0.000000 0.000000
vn -1.000000 0.000000 0.000000
vn 0.000000 1.000000 0.000000
vn 0.000000 1.000000 0.000000
vn 0.000000 1.000000 0.000000
vn 0.000000 1.000000 0.000000
vn 0.000000 1.000000 0.000000
vn 0.000000 1.000000 0.000000
vn 0.000000 1.000000 0.000000
vn 0.000000 1.000000 0.000000
vn 0.000000 1.000000 0.000000
vn 0.000000 1.000000 0.000000
vn 0.000000 1.000000 0.000000
vn 0.000000 1.000000 0.000000
vn 0.000000 1.000000 0.000000
vn 0.000000 1.000000 0.000000
vn 0.000000 1.000000 0.000000
vn 0.000000 1.000000 0.000000
vn 0.000000 0.000000 1.000000
vn 0.000000 0.000000 1.000000
vn 0.000000 0.000000 1.000000
vn 0.000000 0.000000 1.000000
vn 0.000000 1.000000 0.000000
vn 0.000000 1.000000 0.000000
vn 0.000000 1.000000 -0.000000
vn 0.000000 1.000000 -0.000000
vn 0.000000 0.000000 -1.000000
vn 0.000000 0.000000 -1.000000
vn 0.000000 0.000000 -1.000000
vn 0.000000 0.000000 -1.000000
vn 0.000000 -1.000000 0.000000
vn 0.000000 -1.000000 0.000000
vn 0.000000 -1.000000 0.000000
vn 0.000000 -1.000000 0.000000
vn 1.000000 0.000000 0.000000
vn 1.000000 0.000000 0.000000
vn 1.000000 0.000000 0.000000
vn 1.000000 0.000000 0.000000
vn -1.000000 0.000000 0.000000
vn -1.000000 0.000000 0.000000
vn -1.000000 0.000000 0.000000
vn -1.000000 0.000000 0.000000
vn 0.000000 1.000000 0.000000
vn 0.000000 1.000000 0.000000
vn 0.000000 1.000000 0.000000
vn 0.000000 1.000000 0.000000
vn 0.000000 1.000000 0.000000
vn 0.000000 1.000000 -0.000000
vn 0.000000 1.000000 -0.000000
vn 0.000000 1.000000 0.000000
vn 0.000000 1.000000 -0.000000
vn 0.000000 1.000000 -0.000000
vn 0.000000 1.000000 -0.000000
vn 0.000000 1.000000 -0.000000
vn 0.000000 1.000000 -0.000000
vn 0.000000 1.000000 0.000000
vn 0.000000 1.000000 0.000000
vn 0.000000 1.000000 -0.000000
s off
f 1/20/1 2/2/2 4/21/3 3/17/4
f 12/32/5 9/25/6 10/37/7 11/34/8
f 5/5/9 6/16/10 8/8/11 7/24/12
f 7/7/13 8/23/14 2/10/15 1/9/16
f 2/19/17 8/11/18 6/12/19 4/4/20
f 7/13/21 1/1/22 3/22/23 5/14/24
f 3/3/25 4/39/26 10/36/27 9/29/28
f 4/15/29 6/38/30 11/33/31 10/26/32
f 6/6/33 5/35/34 12/31/35 11/27/36
f 5/18/37 3/40/38 9/30/39 12/28/40
f 13/41/41 14/42/42 16/43/43 15/44/44
f 21/45/45 22/46/46 23/47/47 24/48/48
f 17/49/49 18/50/50 20/51/51 19/52/52
f 19/53/53 20/54/54 14/55/55 13/56/56
f 14/57/57 20/58/58 18/59/59 16/60/60
f 19/61/61 13/62/62 15/63/63 17/64/64
f 15/65/65 16/66/66 22/67/67 21/68/68
f 16/66/69 18/69/70 23/70/71 22/67/72
f 18/69/73 17/71/74 24/72/75 23/70/76
f 17/71/77 15/65/78 21/68/79 24/72/80
