# This file uses meters as units for non-parametric coordinates.

v -0.193076 0.000000 -0.303854
v -0.193076 0.000000 0.303854
v -0.193076 0.063181 -0.303854
v -0.193076 0.063181 0.303854
v 0.178005 0.063181 -0.303854
v 0.178005 0.063181 0.303854
v 0.178005 0.000000 -0.303854
v 0.178005 0.000000 0.303854
v -0.054911 0.061239 0.070301
v -0.054911 0.061239 0.217024
v -0.054911 0.076533 0.070301
v -0.054911 0.076533 0.217024
v 0.038023 0.076533 0.070301
v 0.038023 0.076533 0.217024
v 0.038023 0.061239 0.070301
v 0.038023 0.061239 0.217024
v -0.018672 0.097544 -0.290056
v -0.018672 0.055871 0.106444
v -0.018672 0.118000 -0.290056
v -0.018672 0.076327 0.106444
v 0.001784 0.118000 -0.290056
v 0.001784 0.076327 0.106444
v 0.001784 0.097544 -0.290056
v 0.001784 0.055871 0.106444
v 0.001784 0.118000 -0.000455
v -0.018672 0.118000 -0.000455
v -0.018672 0.097544 -0.000455
v 0.001784 0.097544 -0.000455
v 0.138761 0.063245 -0.022580
v -0.142270 0.063245 -0.022580
v 0.138761 0.103954 -0.022580
v -0.142270 0.103954 -0.022580
v 0.138761 0.103954 0.018129
v -0.142270 0.103954 0.018129
v 0.138761 0.063245 0.018129
v -0.142270 0.063245 0.018129
v -0.177829 0.075667 -0.292613
v -0.177829 0.075667 0.005977
v -0.177829 0.094612 -0.292613
v -0.177829 0.094612 0.005977
v 0.162966 0.094612 -0.292613
v 0.162966 0.094612 0.005977
v 0.162966 0.075667 -0.292613
v 0.162966 0.075667 0.005977
v -0.161047 0.094612 -0.275741
v -0.161047 0.094612 -0.010895
v 0.146185 0.094612 -0.010895
v 0.146185 0.094612 -0.275741
v 0.146185 0.075667 -0.275741
v 0.146185 0.075667 -0.010895
v -0.161047 0.075667 -0.010895
v -0.161047 0.075667 -0.275741
vt 0.355282 0.395792
vt 0.355282 0.395792
vt 0.355282 0.395792
vt 0.355282 0.395792
vt 0.483569 0.395792
vt 0.483569 0.395792
vt 0.483569 0.395792
vt 0.483569 0.395792
vt 0.355282 0.395792
vt 0.355282 0.395792
vt 0.355282 0.395792
vt 0.355282 0.395792
vt 0.300042 0.395792
vt 0.300042 0.395792
vt 0.300042 0.395792
vt 0.300042 0.395792
vt 0.326873 0.395792
vt 0.326873 0.395792
vt 0.326873 0.395792
vt 0.326873 0.395792
vt 0.326873 0.395792
vt 0.326873 0.395792
vt 0.326873 0.395792
vt 0.326873 0.395792
vt 0.205307 0.083472
vt 0.205307 0.083472
vt 0.205307 0.083472
vt 0.205307 0.083472
vt 0.237275 0.083472
vt 0.237275 0.083472
vt 0.237275 0.083472
vt 0.237275 0.083472
vt 0.205307 0.083472
vt 0.205307 0.083472
vt 0.205307 0.083472
vt 0.205307 0.083472
vt 0.237275 0.083472
vt 0.237275 0.083472
vt 0.237275 0.083472
vt 0.237275 0.083472
vt 0.168156 0.083472
vt 0.168156 0.083472
vt 0.168156 0.083472
vt 0.168156 0.083472
vt 0.171920 0.083472
vt 0.171920 0.083472
vt 0.171920 0.083472
vt 0.171920 0.083472
vt 0.269790 0.061306
vt 0.269790 0.061306
vt 0.269790 0.061306
vt 0.269790 0.061306
vt 0.301758 0.061306
vt 0.301758 0.061306
vt 0.301758 0.061306
vt 0.301758 0.061306
vt 0.269790 0.061306
vt 0.269790 0.061306
vt 0.269790 0.061306
vt 0.269790 0.061306
vt 0.301758 0.061306
vt 0.301758 0.061306
vt 0.301758 0.061306
vt 0.301758 0.061306
vt 0.232639 0.061306
vt 0.232639 0.061306
vt 0.232639 0.061306
vt 0.232639 0.061306
vt 0.236403 0.061306
vt 0.236403 0.061306
vt 0.236403 0.061306
vt 0.236403 0.061306
vt 0.301758 0.061306
vt 0.301758 0.061306
vt 0.301758 0.061306
vt 0.301758 0.061306
vt 0.269790 0.061306
vt 0.269790 0.061306
vt 0.269790 0.061306
vt 0.269790 0.061306
vt 0.301758 0.061306
vt 0.301758 0.061306
vt 0.301758 0.061306
vt 0.301758 0.061306
vt 0.269790 0.061306
vt 0.269790 0.061306
vt 0.269790 0.061306
vt 0.269790 0.061306
vt 0.205307 0.061306
vt 0.205307 0.061306
vt 0.205307 0.061306
vt 0.205307 0.061306
vt 0.237275 0.061306
vt 0.237275 0.061306
vt 0.237275 0.061306
vt 0.237275 0.061306
vt 0.205307 0.061306
vt 0.205307 0.061306
vt 0.205307 0.061306
vt 0.205307 0.061306
vt 0.237275 0.061306
vt 0.237275 0.061306
vt 0.237275 0.061306
vt 0.237275 0.061306
vt 0.168156 0.061306
vt 0.168156 0.061306
vt 0.168156 0.061306
vt 0.168156 0.061306
vt 0.171920 0.061306
vt 0.171920 0.061306
vt 0.171920 0.061306
vt 0.171920 0.061306
vt 0.267528 0.060201
vt 0.267528 0.060201
vt 0.267528 0.060201
vt 0.267528 0.060201
vt 0.267528 0.060201
vt 0.267528 0.060201
vt 0.267528 0.060201
vt 0.267528 0.060201
vt 0.293533 0.060201
vt 0.293533 0.060201
vt 0.293533 0.060201
vt 0.293533 0.060201
vt 0.293533 0.060201
vt 0.293533 0.060201
vt 0.293533 0.060201
vt 0.293533 0.060201
vt 0.325448 0.060201
vt 0.325448 0.060201
vt 0.325448 0.060201
vt 0.325448 0.060201
vt 0.325448 0.060201
vt 0.325448 0.060201
vt 0.325448 0.060201
vt 0.325448 0.060201
vt 0.325448 0.060201
vt 0.325448 0.060201
vt 0.325448 0.060201
vt 0.325448 0.060201
vt 0.325448 0.060201
vt 0.325448 0.060201
vt 0.325448 0.060201
vt 0.325448 0.060201
vt 0.196606 0.060201
vt 0.196606 0.060201
vt 0.196606 0.060201
vt 0.196606 0.060201
vt 0.196606 0.060201
vt 0.196606 0.060201
vt 0.196606 0.060201
vt 0.196606 0.060201
vt 0.196606 0.060201
vt 0.196606 0.060201
vt 0.196606 0.060201
vt 0.196606 0.060201
vt 0.196606 0.060201
vt 0.196606 0.060201
vt 0.196606 0.060201
vt 0.196606 0.060201
vt 0.236466 0.061316
vt 0.236466 0.061316
vt 0.236466 0.061316
vt 0.236466 0.061316
vt 0.236466 0.061316
vt 0.236466 0.061316
vt 0.236466 0.061316
vt 0.236466 0.061316
vt 0.236466 0.061316
vt 0.236466 0.061316
vt 0.236466 0.061316
vt 0.236466 0.061316
vt 0.236466 0.061316
vt 0.236466 0.061316
vt 0.236466 0.061316
vt 0.236466 0.061316
vn -1.000000 0.000000 0.000000
vn -1.000000 0.000000 0.000000
vn -1.000000 0.000000 0.000000
vn -1.000000 0.000000 0.000000
vn 0.000000 1.000000 0.000000
vn 0.000000 1.000000 0.000000
vn 0.000000 1.000000 0.000000
vn 0.000000 1.000000 0.000000
vn 1.000000 0.000000 -0.000000
vn 1.000000 0.000000 -0.000000
vn 1.000000 0.000000 -0.000000
vn 1.000000 0.000000 -0.000000
vn 0.000000 -1.000000 0.000000
vn 0.000000 -1.000000 0.000000
vn 0.000000 -1.000000 0.000000
vn 0.000000 -1.000000 0.000000
vn 0.000000 0.000000 1.000000
vn 0.000000 0.000000 1.000000
vn 0.000000 0.000000 1.000000
vn 0.000000 0.000000 1.000000
vn -0.000000 0.000000 -1.000000
vn -0.000000 0.000000 -1.000000
vn -0.000000 0.000000 -1.000000
vn -0.000000 0.000000 -1.000000
vn -1.000000 0.000000 0.000000
vn -1.000000 0.000000 0.000000
vn -1.000000 0.000000 0.000000
vn -1.000000 0.000000 0.000000
vn 0.000000 1.000000 0.000000
vn 0.000000 1.000000 0.000000
vn 0.000000 1.000000 0.000000
vn 0.000000 1.000000 0.000000
vn 1.000000 0.000000 0.000000
vn 1.000000 0.000000 0.000000
vn 1.000000 0.000000 0.000000
vn 1.000000 0.000000 0.000000
vn 0.000000 -1.000000 0.000000
vn 0.000000 -1.000000 0.000000
vn 0.000000 -1.000000 0.000000
vn 0.000000 -1.000000 0.000000
vn 0.000000 0.000000 1.000000
vn 0.000000 0.000000 1.000000
vn 0.000000 0.000000 1.000000
vn 0.000000 0.000000 1.000000
vn 0.000000 0.000000 -1.000000
vn 0.000000 0.000000 -1.000000
vn 0.000000 0.000000 -1.000000
vn 0.000000 0.000000 -1.000000
vn -1.000000 0.000000 0.000000
vn -1.000000 0.000000 0.000000
vn -1.000000 0.000000 0.000000
vn -1.000000 0.000000 0.000000
vn 0.000000 0.931706 0.363213
vn 0.000000 0.931706 0.363213
vn 0.000000 0.931706 0.363213
vn 0.000000 0.931706 0.363213
vn 1.000000 0.000000 0.000000
vn 1.000000 0.000000 0.000000
vn 1.000000 0.000000 0.000000
vn 1.000000 0.000000 0.000000
vn 0.000000 -0.931706 -0.363213
vn 0.000000 -0.931706 -0.363213
vn 0.000000 -0.931706 -0.363213
vn 0.000000 -0.931706 -0.363213
vn 0.000000 0.000000 1.000000
vn 0.000000 0.000000 1.000000
vn 0.000000 0.000000 1.000000
vn 0.000000 0.000000 1.000000
vn 0.000000 0.000000 -1.000000
vn 0.000000 0.000000 -1.000000
vn 0.000000 0.000000 -1.000000
vn 0.000000 0.000000 -1.000000
vn 0.000000 1.000000 0.000000
vn 0.000000 1.000000 0.000000
vn 0.000000 1.000000 0.000000
vn 0.000000 1.000000 0.000000
vn -1.000000 0.000000 0.000000
vn -1.000000 0.000000 0.000000
vn -1.000000 0.000000 0.000000
vn -1.000000 0.000000 0.000000
vn 0.000000 -1.000000 0.000000
vn 0.000000 -1.000000 0.000000
vn 0.000000 -1.000000 0.000000
vn 0.000000 -1.000000 0.000000
vn 1.000000 0.000000 0.000000
vn 1.000000 0.000000 0.000000
vn 1.000000 0.000000 0.000000
vn 1.000000 0.000000 0.000000
vn 0.000000 0.000000 -1.000000
vn 0.000000 0.000000 -1.000000
vn 0.000000 0.000000 -1.000000
vn 0.000000 0.000000 -1.000000
vn 0.000000 1.000000 0.000000
vn 0.000000 1.000000 0.000000
vn 0.000000 1.000000 0.000000
vn 0.000000 1.000000 0.000000
vn 0.000000 0.000000 1.000000
vn 0.000000 0.000000 1.000000
vn 0.000000 0.000000 1.000000
vn 0.000000 0.000000 1.000000
vn 0.000000 -1.000000 0.000000
vn 0.000000 -1.000000 0.000000
vn 0.000000 -1.000000 0.000000
vn 0.000000 -1.000000 0.000000
vn -1.000000 0.000000 0.000000
vn -1.000000 0.000000 0.000000
vn -1.000000 0.000000 0.000000
vn -1.000000 0.000000 0.000000
vn 1.000000 0.000000 0.000000
vn 1.000000 0.000000 0.000000
vn 1.000000 0.000000 0.000000
vn 1.000000 0.000000 0.000000
vn -1.000000 0.000000 0.000000
vn -1.000000 0.000000 0.000000
vn -1.000000 0.000000 0.000000
vn -1.000000 0.000000 0.000000
vn 1.000000 0.000000 0.000000
vn 1.000000 0.000000 0.000000
vn 1.000000 0.000000 0.000000
vn 1.000000 0.000000 0.000000
vn 0.000000 0.000000 1.000000
vn 0.000000 0.000000 1.000000
vn 0.000000 0.000000 1.000000
vn 0.000000 0.000000 1.000000
vn 0.000000 0.000000 -1.000000
vn 0.000000 0.000000 -1.000000
vn 0.000000 0.000000 -1.000000
vn 0.000000 0.000000 -1.000000
vn 0.000000 1.000000 0.000000
vn 0.000000 1.000000 0.000000
vn 0.000000 1.000000 0.000000
vn 0.000000 1.000000 0.000000
vn 0.000000 1.000000 0.000000
vn 0.000000 1.000000 0.000000
vn 0.000000 1.000000 0.000000
vn 0.000000 1.000000 0.000000
vn 0.000000 1.000000 0.000000
vn 0.000000 1.000000 0.000000
vn 0.000000 1.000000 0.000000
vn 0.000000 1.000000 0.000000
vn 0.000000 1.000000 -0.000000
vn 0.000000 1.000000 -0.000000
vn 0.000000 1.000000 -0.000000
vn 0.000000 1.000000 -0.000000
vn 0.000000 -1.000000 0.000000
vn 0.000000 -1.000000 0.000000
vn 0.000000 -1.000000 0.000000
vn 0.000000 -1.000000 0.000000
vn 0.000000 -1.000000 0.000000
vn 0.000000 -1.000000 0.000000
vn 0.000000 -1.000000 0.000000
vn 0.000000 -1.000000 0.000000
vn 0.000000 -1.000000 0.000000
vn 0.000000 -1.000000 0.000000
vn 0.000000 -1.000000 0.000000
vn 0.000000 -1.000000 0.000000
vn 0.000000 -1.000000 -0.000000
vn 0.000000 -1.000000 -0.000000
vn 0.000000 -1.000000 -0.000000
vn 0.000000 -1.000000 -0.000000
vn -1.000000 0.000000 0.000000
vn -1.000000 0.000000 0.000000
vn -1.000000 0.000000 0.000000
vn -1.000000 0.000000 0.000000
vn 0.000000 0.000000 1.000000
vn 0.000000 0.000000 1.000000
vn 0.000000 0.000000 1.000000
vn 0.000000 0.000000 1.000000
vn 0.000000 0.000000 -1.000000
vn 0.000000 0.000000 -1.000000
vn 0.000000 0.000000 -1.000000
vn 0.000000 0.000000 -1.000000
vn 1.000000 0.000000 0.000000
vn 1.000000 0.000000 0.000000
vn 1.000000 0.000000 0.000000
vn 1.000000 0.000000 0.000000
s off
f 1/1/1 2/2/2 4/3/3 3/4/4
f 3/5/5 4/6/6 6/7/7 5/8/8
f 5/9/9 6/10/10 8/11/11 7/12/12
f 7/13/13 8/14/14 2/15/15 1/16/16
f 2/17/17 8/18/18 6/19/19 4/20/20
f 7/21/21 1/22/22 3/23/23 5/24/24
f 9/25/25 10/26/26 12/27/27 11/28/28
f 11/29/29 12/30/30 14/31/31 13/32/32
f 13/33/33 14/34/34 16/35/35 15/36/36
f 15/37/37 16/38/38 10/39/39 9/40/40
f 10/41/41 16/42/42 14/43/43 12/44/44
f 15/45/45 9/46/46 11/47/47 13/48/48
f 26/49/49 27/50/50 18/51/51 20/52/52
f 25/53/53 26/54/54 20/55/55 22/56/56
f 28/57/57 25/58/58 22/59/59 24/60/60
f 27/61/61 28/62/62 24/63/63 18/64/64
f 18/65/65 24/66/66 22/67/67 20/68/68
f 23/69/69 17/70/70 19/71/71 21/72/72
f 19/73/73 26/74/74 25/75/75 21/76/76
f 17/77/77 27/78/78 26/79/79 19/80/80
f 23/81/81 28/82/82 27/83/83 17/84/84
f 21/85/85 25/86/86 28/87/87 23/88/88
f 29/89/89 30/90/90 32/91/91 31/92/92
f 31/93/93 32/94/94 34/95/95 33/96/96
f 33/97/97 34/98/98 36/99/99 35/100/100
f 35/101/101 36/102/102 30/103/103 29/104/104
f 30/105/105 36/106/106 34/107/107 32/108/108
f 35/109/109 29/110/110 31/111/111 33/112/112
f 37/113/113 38/114/114 40/115/115 39/116/116
f 41/117/117 42/118/118 44/119/119 43/120/120
f 38/121/121 44/122/122 42/123/123 40/124/124
f 43/125/125 37/126/126 39/127/127 41/128/128
f 39/129/129 40/130/130 46/131/131 45/132/132
f 40/133/133 42/134/134 47/135/135 46/136/136
f 42/137/137 41/138/138 48/139/139 47/140/140
f 41/141/141 39/142/142 45/143/143 48/144/144
f 43/145/145 44/146/146 50/147/147 49/148/148
f 44/149/149 38/150/150 51/151/151 50/152/152
f 38/153/153 37/154/154 52/155/155 51/156/156
f 37/157/157 43/158/158 49/159/159 52/160/160
f 47/161/161 48/162/162 49/163/163 50/164/164
f 48/165/165 45/166/166 52/167/167 49/168/168
f 47/169/169 50/170/170 51/171/171 46/172/172
f 46/173/173 51/174/174 52/175/175 45/176/176
v -0.075428 0.070275 0.117193
v -0.075428 0.070275 0.240153
v -0.075428 0.108395 0.117193
v -0.075428 0.108395 0.240153
v 0.047533 0.108395 0.117193
v 0.047533 0.108395 0.240153
v 0.047533 0.070275 0.117193
v 0.047533 0.070275 0.240153
vt 0.229547 0.218733
vt 0.229547 0.218733
vt 0.229547 0.218733
vt 0.229547 0.218733
vt 0.261113 0.218733
vt 0.261113 0.218733
vt 0.261113 0.218733
vt 0.261113 0.218733
vt 0.229547 0.218733
vt 0.229547 0.218733
vt 0.229547 0.218733
vt 0.229547 0.218733
vt 0.174307 0.218733
vt 0.174307 0.218733
vt 0.174307 0.218733
vt 0.174307 0.218733
vt 0.201138 0.218733
vt 0.201138 0.218733
vt 0.201138 0.218733
vt 0.201138 0.218733
vt 0.201138 0.218733
vt 0.201138 0.218733
vt 0.201138 0.218733
vt 0.201138 0.218733
vn -1.000000 0.000000 -0.000000
vn -1.000000 0.000000 -0.000000
vn -1.000000 0.000000 -0.000000
vn -1.000000 0.000000 -0.000000
vn 0.000000 1.000000 0.000000
vn 0.000000 1.000000 0.000000
vn 0.000000 1.000000 0.000000
vn 0.000000 1.000000 0.000000
vn 1.000000 0.000000 0.000000
vn 1.000000 0.000000 0.000000
vn 1.000000 0.000000 0.000000
vn 1.000000 0.000000 0.000000
vn 0.000000 -1.000000 -0.000000
vn 0.000000 -1.000000 -0.000000
vn 0.000000 -1.000000 -0.000000
vn 0.000000 -1.000000 -0.000000
vn 0.000000 0.000000 1.000000
vn 0.000000 0.000000 1.000000
vn 0.000000 0.000000 1.000000
vn 0.000000 0.000000 1.000000
vn -0.000000 0.000000 -1.000000
vn -0.000000 0.000000 -1.000000
vn -0.000000 0.000000 -1.000000
vn -0.000000 0.000000 -1.000000
s off
f 53/177/177 54/178/178 56/179/179 55/180/180
f 55/181/181 56/182/182 58/183/183 57/184/184
f 57/185/185 58/186/186 60/187/187 59/188/188
f 59/189/189 60/190/190 54/191/191 53/192/192
f 54/193/193 60/194/194 58/195/195 56/196/196
f 59/197/197 53/198/198 55/199/199 57/200/200
