# This file uses meters as units for non-parametric coordinates.

v 0.000000 0.000000 -0.160007
v -0.138571 0.000000 -0.080004
v -0.138569 0.000000 0.080004
v 0.000000 0.000000 0.160007
v 0.138571 0.000000 0.080004
v 0.138571 0.000000 -0.080004
v 0.000000 0.451121 -0.160007
v -0.138571 0.451121 -0.080004
v -0.138569 0.451121 0.080004
v 0.000000 0.451121 0.160007
v 0.138571 0.451121 0.080004
v 0.138571 0.451121 -0.080004
v 0.000002 0.000000 0.000000
v 0.138571 0.396457 -0.080004
v 0.138571 0.396457 0.080004
v 0.000000 0.396457 0.160007
v -0.138571 0.396457 0.080005
v -0.138571 0.396457 -0.080004
v 0.000000 0.396457 -0.160007
v -0.138571 0.086598 -0.080004
v -0.138571 0.086598 0.080005
v 0.000000 0.086598 0.160007
v 0.138571 0.086598 0.080004
v 0.138571 0.086598 -0.080003
v 0.000000 0.086598 -0.160007
v 0.110640 0.451121 -0.063877
v 0.000002 0.451121 -0.127754
v -0.110638 0.451121 -0.063877
v -0.110638 0.451121 0.063877
v 0.000000 0.451121 0.127753
v 0.110640 0.451121 0.063876
v 0.138571 0.086598 0.041559
v 0.138571 0.086598 -0.041559
v 0.138571 0.396457 -0.041559
v 0.138571 0.396457 0.041559
v 0.138571 0.164262 -0.041559
v 0.138571 0.164262 -0.080003
v 0.000000 0.164262 -0.160007
v -0.138571 0.164262 -0.080004
v -0.138571 0.164262 0.080005
v 0.000000 0.164262 0.160007
v 0.138571 0.164262 0.080004
v 0.138571 0.164262 0.041559
vt 0.170810 0.218620
vt 0.170810 0.218620
vt 0.170810 0.199358
vt 0.170810 0.199358
vt 0.143274 0.218620
vt 0.143274 0.218620
vt 0.143274 0.199358
vt 0.143274 0.199358
vt 0.170810 0.218620
vt 0.170810 0.218620
vt 0.170810 0.199358
vt 0.170810 0.199358
vt 0.143274 0.218620
vt 0.143274 0.218620
vt 0.143274 0.199358
vt 0.143274 0.199358
vt 0.170810 0.218620
vt 0.170810 0.218620
vt 0.170810 0.199358
vt 0.170810 0.199358
vt 0.143274 0.218620
vt 0.143274 0.218620
vt 0.143274 0.199358
vt 0.143274 0.199358
vt 0.337270 0.061614
vt 0.337270 0.061614
vt 0.337270 0.061614
vt 0.337270 0.061614
vt 0.337270 0.061614
vt 0.337270 0.061614
vt 0.337270 0.061614
vt 0.337270 0.061614
vt 0.337270 0.061614
vt 0.337270 0.061614
vt 0.337270 0.061614
vt 0.337270 0.061614
vt 0.337270 0.061614
vt 0.337270 0.061614
vt 0.337270 0.061614
vt 0.337270 0.061614
vt 0.337270 0.061614
vt 0.337270 0.061614
vt 0.363923 0.061614
vt 0.363923 0.061614
vt 0.363923 0.061614
vt 0.363923 0.061614
vt 0.363923 0.061614
vt 0.363923 0.061614
vt 0.358652 0.061888
vt 0.358652 0.061888
vt 0.358652 0.061888
vt 0.337270 0.061614
vt 0.337270 0.061614
vt 0.337270 0.061614
vt 0.337270 0.061614
vt 0.364807 0.061614
vt 0.364807 0.061614
vt 0.364807 0.061614
vt 0.364807 0.061614
vt 0.337270 0.061614
vt 0.337270 0.061614
vt 0.337270 0.061614
vt 0.337270 0.061614
vt 0.364807 0.061614
vt 0.364807 0.061614
vt 0.364807 0.061614
vt 0.364807 0.061614
vt 0.337270 0.061614
vt 0.337270 0.061614
vt 0.337270 0.061614
vt 0.337270 0.061614
vt 0.337270 0.061614
vt 0.337270 0.061614
vt 0.337270 0.061614
vt 0.337270 0.061614
vt 0.364807 0.061614
vt 0.364807 0.061614
vt 0.364807 0.061614
vt 0.364807 0.061614
vt 0.337270 0.061614
vt 0.337270 0.061614
vt 0.337270 0.061614
vt 0.337270 0.061614
vt 0.358652 0.061888
vt 0.358652 0.061888
vt 0.358652 0.061888
vt 0.337270 0.061614
vt 0.337270 0.061614
vt 0.337270 0.061614
vt 0.337270 0.061614
vt 0.364807 0.061614
vt 0.364807 0.061614
vt 0.364807 0.061614
vt 0.364807 0.061614
vt 0.387099 0.061614
vt 0.387099 0.061614
vt 0.387099 0.061614
vt 0.387099 0.061614
vt 0.387099 0.061614
vt 0.387099 0.061614
vt 0.387099 0.061614
vt 0.387099 0.061614
vt 0.387099 0.061614
vt 0.387099 0.061614
vt 0.387099 0.061614
vt 0.387099 0.061614
vt 0.170810 0.218620
vt 0.170810 0.218620
vt 0.170810 0.199358
vt 0.170810 0.199358
vt 0.358652 0.061888
vt 0.358652 0.061888
vt 0.358652 0.061888
vt 0.358652 0.061888
vt 0.358652 0.061888
vt 0.358652 0.061888
vt 0.358652 0.061888
vt 0.170810 0.218620
vt 0.170810 0.218620
vt 0.143274 0.218620
vt 0.143274 0.218620
vt 0.170810 0.218620
vt 0.170810 0.218620
vt 0.143274 0.218620
vt 0.143274 0.218620
vt 0.170810 0.218620
vt 0.170810 0.218620
vt 0.143274 0.218620
vt 0.143274 0.218620
vt 0.170810 0.218620
vt 0.170810 0.199358
vt 0.358652 0.061888
vt 0.143274 0.199358
vt 0.170810 0.199358
vt 0.170810 0.218620
vt 0.170810 0.199358
vt 0.143274 0.199358
vt 0.143274 0.199358
vt 0.170810 0.199358
vt 0.170810 0.199358
vt 0.143274 0.199358
vt 0.143274 0.199358
vt 0.170810 0.199358
vt 0.170810 0.199358
vt 0.143274 0.199358
vt 0.170810 0.199358
vn -0.499999 0.000000 -0.866026
vn -0.499999 0.000000 -0.866026
vn -0.499999 0.000000 -0.866026
vn -0.499999 0.000000 -0.866026
vn -1.000000 0.000000 0.000000
vn -1.000000 0.000000 0.000000
vn -1.000000 0.000003 0.000001
vn -1.000000 0.000003 0.000001
vn -0.499995 0.000000 0.866028
vn -0.499995 0.000000 0.866028
vn -0.499996 0.000003 0.866028
vn -0.499996 0.000003 0.866028
vn 0.499999 0.000000 0.866026
vn 0.499999 0.000000 0.866026
vn 0.499999 0.000000 0.866026
vn 0.499999 0.000000 0.866026
vn 1.000000 -0.000000 0.000000
vn 1.000000 -0.000000 0.000000
vn 1.000000 -0.000000 0.000000
vn 1.000000 -0.000000 0.000000
vn 1.000000 -0.000000 0.000000
vn 1.000000 -0.000000 0.000000
vn 1.000000 -0.000000 0.000000
vn 1.000000 -0.000000 0.000000
vn 1.000000 -0.000000 0.000000
vn 1.000000 -0.000000 0.000000
vn 1.000000 -0.000000 0.000000
vn 1.000000 -0.000000 0.000000
vn 1.000000 -0.000000 0.000000
vn 1.000000 -0.000000 0.000000
vn 0.500002 -0.000001 -0.866024
vn 0.500002 -0.000001 -0.866024
vn 0.500001 -0.000001 -0.866025
vn 0.500001 -0.000001 -0.866025
vn 0.000000 -1.000000 0.000000
vn 0.000000 -1.000000 0.000000
vn 0.000000 -1.000000 0.000000
vn 0.000000 -1.000000 0.000000
vn 0.000000 -1.000000 0.000000
vn 0.000000 -1.000000 0.000000
vn 0.000000 -1.000000 0.000000
vn 0.000000 -1.000000 0.000000
vn 0.000000 -1.000000 0.000000
vn 0.000000 -1.000000 0.000000
vn 0.000000 -1.000000 0.000000
vn 0.000000 -1.000000 0.000000
vn 0.000000 -1.000000 0.000000
vn 0.000000 -1.000000 0.000000
vn 0.000000 -1.000000 0.000000
vn 0.000000 -1.000000 0.000000
vn 0.000000 -1.000000 0.000000
vn 0.000000 -1.000000 0.000000
vn 0.000000 1.000000 0.000000
vn 0.000000 1.000000 0.000000
vn 0.000000 1.000000 0.000000
vn 0.000000 1.000000 0.000000
vn 0.000000 1.000000 -0.000000
vn 0.000000 1.000000 -0.000000
vn 0.499999 0.000000 0.866026
vn 0.499999 0.000000 0.866026
vn 0.499999 0.000000 0.866026
vn 0.499999 0.000000 0.866026
vn -0.499996 0.000003 0.866028
vn -0.499996 0.000003 0.866028
vn -0.500000 0.000016 0.866026
vn -0.500000 0.000016 0.866026
vn -1.000000 0.000003 0.000001
vn -1.000000 0.000003 0.000001
vn -1.000000 0.000017 0.000006
vn -1.000000 0.000017 0.000006
vn -0.499999 0.000000 -0.866026
vn -0.499999 0.000000 -0.866026
vn -0.499999 0.000000 -0.866026
vn -0.499999 0.000000 -0.866026
vn 0.500001 -0.000001 -0.866025
vn 0.500001 -0.000001 -0.866025
vn 0.499999 0.000000 -0.866026
vn 0.499999 0.000000 -0.866026
vn -1.000000 -0.000011 0.000006
vn -1.000000 -0.000011 0.000006
vn -1.000000 -0.000006 0.000003
vn -1.000000 -0.000006 0.000003
vn -0.500000 -0.000010 0.866026
vn -0.500000 -0.000010 0.866026
vn -0.499997 -0.000005 0.866027
vn -0.499997 -0.000005 0.866027
vn 0.499999 0.000000 0.866026
vn 0.499999 0.000000 0.866026
vn 0.499999 0.000000 0.866026
vn 0.499999 0.000000 0.866026
vn 0.500002 0.000005 -0.866025
vn 0.500002 0.000005 -0.866024
vn 0.500002 0.000002 -0.866024
vn 0.500002 0.000002 -0.866024
vn -0.499999 0.000000 -0.866026
vn -0.499999 0.000000 -0.866026
vn -0.499999 0.000000 -0.866026
vn -0.499999 0.000000 -0.866026
vn 0.000000 1.000000 0.000001
vn 0.000000 1.000000 0.000001
vn 0.000000 1.000000 0.000000
vn 0.000000 1.000000 0.000000
vn 0.000000 1.000000 0.000001
vn 0.000000 1.000000 0.000000
vn 0.000000 1.000000 0.000000
vn 0.000000 1.000000 0.000000
vn 0.000000 1.000000 0.000000
vn 0.000000 1.000000 0.000000
vn 0.000000 1.000000 0.000000
vn 0.000000 1.000000 0.000000
vn 0.000000 1.000000 0.000000
vn 0.000000 1.000000 -0.000000
vn 0.000000 1.000000 -0.000000
vn 0.000000 1.000000 0.000000
vn 0.000000 1.000000 -0.000000
vn 0.000000 1.000000 -0.000000
vn 0.000000 1.000000 -0.000000
vn 0.000000 1.000000 -0.000000
vn 0.000000 1.000000 -0.000000
vn 0.000000 1.000000 0.000001
vn 0.000000 1.000000 0.000000
vn 0.000000 1.000000 -0.000000
vn 1.000000 -0.000000 0.000000
vn 1.000000 0.000000 0.000000
vn 1.000000 -0.000000 0.000000
vn 1.000000 -0.000000 0.000000
vn 1.000000 -0.000000 0.000000
vn 1.000000 0.000000 0.000000
vn 1.000000 -0.000000 0.000000
vn 1.000000 -0.000000 0.000000
vn 1.000000 -0.000000 0.000000
vn 1.000000 0.000000 0.000000
vn 1.000000 -0.000000 0.000000
vn 1.000000 -0.000000 0.000000
vn 0.500002 0.000002 -0.866024
vn 0.500002 0.000002 -0.866024
vn 0.500002 -0.000001 -0.866024
vn 0.500002 -0.000001 -0.866024
vn -0.499999 0.000000 -0.866026
vn -0.499999 0.000000 -0.866026
vn -0.499999 0.000000 -0.866026
vn -0.499999 0.000000 -0.866026
vn -1.000000 -0.000006 0.000003
vn -1.000000 -0.000006 0.000003
vn -1.000000 0.000000 0.000000
vn -1.000000 0.000000 0.000000
vn -0.499997 -0.000005 0.866027
vn -0.499997 -0.000005 0.866027
vn -0.499995 0.000000 0.866028
vn -0.499995 0.000000 0.866028
vn 0.499999 0.000000 0.866026
vn 0.499999 0.000000 0.866026
vn 0.499999 0.000000 0.866026
vn 0.499999 0.000000 0.866026
vn 1.000000 -0.000000 0.000000
vn 1.000000 0.000000 0.000000
vn 1.000000 -0.000000 0.000000
vn 1.000000 -0.000000 0.000000
s off
f 38/143/1 39/140/2 18/3/3 19/4/4
f 39/141/5 40/138/6 17/7/7 18/8/8
f 40/139/9 41/136/10 16/11/11 17/12/12
f 41/137/13 42/133/14 15/15/15 16/16/16
f 36/117/17 34/113/18 14/114/19 12/115/20 11/116/21 15/49/22 35/50/23 43/132/24 32/51/25 23/84/26 5/85/27 6/86/28 24/111/29 33/112/30
f 37/145/31 38/142/32 19/23/33 14/24/34
f 2/25/35 1/26/36 13/27/37
f 3/28/38 2/29/39 13/30/40
f 4/31/41 3/32/42 13/33/43
f 5/34/44 4/35/45 13/36/46
f 6/37/47 5/38/48 13/39/49
f 1/40/50 6/41/51 13/42/52
f 26/43/53 27/44/54 28/45/55 29/46/56 30/47/57 31/48/58
f 16/52/59 15/53/60 11/54/61 10/55/62
f 17/56/63 16/57/64 10/58/65 9/59/66
f 18/60/67 17/61/68 9/62/69 8/63/70
f 19/64/71 18/65/72 8/66/73 7/67/74
f 14/68/75 19/69/76 7/70/77 12/71/78
f 2/72/79 3/73/80 21/74/81 20/75/82
f 3/76/83 4/77/84 22/78/85 21/79/86
f 4/80/87 5/81/88 23/82/89 22/83/90
f 6/87/91 1/88/92 25/89/93 24/90/94
f 1/91/95 2/92/96 20/93/97 25/94/98
f 12/95/99 7/96/100 27/97/101 26/98/102
f 7/96/103 8/99/104 28/100/105 27/97/106
f 8/99/107 9/101/108 29/102/109 28/100/110
f 9/101/111 10/103/112 30/104/113 29/102/114
f 10/103/115 11/105/116 31/106/117 30/104/118
f 11/105/119 12/95/120 26/98/121 31/106/122
f 36/146/123 37/144/124 14/19/125 34/109/126
f 15/20/127 42/134/128 43/131/129 35/110/130
f 24/18/131 37/119/132 36/118/133 33/108/134
f 24/21/135 25/22/136 38/121/137 37/120/138
f 25/1/139 20/2/140 39/123/141 38/122/142
f 20/5/143 21/6/144 40/125/145 39/124/146
f 21/9/147 22/10/148 41/127/149 40/126/150
f 22/13/151 23/14/152 42/129/153 41/128/154
f 43/135/155 42/130/156 23/17/157 32/107/158
