# This file uses meters as units for non-parametric coordinates.

v 0.062878 -0.061659 0.242285
v 0.062878 0.061659 0.242285
v -0.062878 0.061659 0.242285
v -0.062878 -0.061659 0.242285
v -0.062878 0.061659 0.214825
v 0.062878 0.061659 0.214825
v 0.062878 -0.061659 0.214825
v -0.062878 -0.061659 0.214825
v -0.052151 -0.048986 0.242285
v 0.052151 -0.048986 0.242285
v 0.052151 0.048986 0.242285
v -0.052151 0.048986 0.242285
v -0.018620 -0.020059 0.242285
v 0.022217 -0.020059 0.242285
v 0.022217 0.020059 0.242285
v -0.018620 0.020059 0.242285
v -0.018620 -0.020059 0.262236
v 0.022217 -0.020059 0.262236
v 0.022217 0.020059 0.262236
v -0.018620 0.020059 0.262236
v 0.062874 -0.061659 -0.047480
v 0.062874 0.061659 -0.047480
v -0.062878 0.061659 -0.047480
v -0.062878 -0.061659 -0.047480
v -0.062878 0.061659 -0.020020
v 0.062874 0.061659 -0.020020
v 0.062874 -0.061659 -0.020020
v -0.062878 -0.061659 -0.020020
v -0.052151 -0.048986 -0.047480
v 0.052151 -0.048986 -0.047482
v 0.052151 0.048986 -0.047482
v -0.052151 0.048986 -0.047480
vt 0.286571 0.479154
vt 0.325335 0.084902
vt 0.293420 0.084902
vt 0.233288 0.353515
vt 0.325335 0.084902
vt 0.208466 0.353515
vt 0.325335 0.084902
vt 0.286571 0.479154
vt 0.286571 0.479154
vt 0.293420 0.084902
vt 0.293420 0.084902
vt 0.325335 0.084902
vt 0.208466 0.353515
vt 0.293420 0.084902
vt 0.286571 0.479154
vt 0.325335 0.084902
vt 0.293420 0.084902
vt 0.293420 0.084902
vt 0.325335 0.084902
vt 0.325335 0.084902
vt 0.293420 0.084902
vt 0.233288 0.353515
vt 0.262930 0.479154
vt 0.262930 0.479154
vt 0.286571 0.479154
vt 0.262930 0.479154
vt 0.325335 0.084902
vt 0.293420 0.084902
vt 0.262930 0.479154
vt 0.286571 0.479154
vt 0.286571 0.479154
vt 0.286571 0.479154
vt 0.233288 0.353515
vt 0.208466 0.353515
vt 0.233288 0.353515
vt 0.208466 0.353515
vt 0.262930 0.479154
vt 0.262930 0.479154
vt 0.262930 0.479154
vt 0.262930 0.479154
vt 0.351582 0.470880
vt 0.331488 0.470880
vt 0.390589 0.470880
vt 0.331488 0.470880
vt 0.331488 0.470880
vt 0.331488 0.470880
vt 0.331488 0.470880
vt 0.331488 0.470880
vt 0.390589 0.470880
vt 0.351582 0.470880
vt 0.331488 0.470880
vt 0.331488 0.470880
vt 0.351582 0.470880
vt 0.390589 0.470880
vt 0.351582 0.470880
vt 0.390589 0.470880
vt 0.208466 0.353515
vt 0.208466 0.353515
vt 0.233288 0.353515
vt 0.233288 0.353515
vt 0.208466 0.353515
vt 0.208466 0.353515
vt 0.233288 0.353515
vt 0.233288 0.353515
vt 0.325335 0.084902
vt 0.325335 0.084902
vt 0.325335 0.084902
vt 0.325335 0.084902
vt 0.293420 0.084902
vt 0.293420 0.084902
vt 0.293420 0.084902
vt 0.293420 0.084902
vt 0.325335 0.084902
vt 0.325335 0.084902
vt 0.325335 0.084902
vt 0.325335 0.084902
vt 0.293420 0.084902
vt 0.293420 0.084902
vt 0.293420 0.084902
vt 0.293420 0.084902
vt 0.286571 0.479154
vt 0.286571 0.479154
vt 0.286571 0.479154
vt 0.286571 0.479154
vt 0.286571 0.479154
vt 0.286571 0.479154
vt 0.286571 0.479154
vt 0.286571 0.479154
vt 0.262930 0.479154
vt 0.262930 0.479154
vt 0.262930 0.479154
vt 0.262930 0.479154
vn 1.000000 0.000000 -0.000015
vn 1.000000 0.000000 -0.000015
vn 1.000000 0.000000 -0.000015
vn 1.000000 0.000000 -0.000015
vn 0.000000 1.000000 0.000000
vn 0.000000 1.000000 0.000000
vn 0.000000 1.000000 -0.000000
vn 0.000000 1.000000 -0.000000
vn -1.000000 0.000000 0.000000
vn -1.000000 0.000000 0.000000
vn -1.000000 0.000000 0.000000
vn -1.000000 0.000000 0.000000
vn 0.000000 -1.000000 0.000000
vn 0.000000 -1.000000 0.000000
vn 0.000000 -1.000000 -0.000000
vn 0.000000 -1.000000 -0.000000
vn 0.000000 0.000000 1.000000
vn 0.000000 0.000000 1.000000
vn 0.000000 0.000000 1.000000
vn 0.000000 0.000000 1.000000
vn 0.000000 1.000000 0.000001
vn 0.000000 1.000000 0.000000
vn 0.000000 1.000000 0.000000
vn 0.000000 1.000000 0.000001
vn 1.000000 0.000000 0.000000
vn 1.000000 0.000000 -0.000015
vn 1.000000 0.000000 -0.000015
vn 1.000000 0.000000 0.000000
vn 0.000000 -1.000000 0.000001
vn 0.000000 -1.000000 0.000000
vn 0.000000 -1.000000 0.000000
vn 0.000000 -1.000000 0.000001
vn -1.000000 0.000000 0.000000
vn -1.000000 0.000000 0.000000
vn -1.000000 0.000000 0.000000
vn -1.000000 0.000000 0.000000
vn -0.000000 0.000000 1.000000
vn -0.000000 0.000000 1.000000
vn -0.000000 0.000000 1.000000
vn -0.000000 0.000000 1.000000
vn -0.000000 0.000000 1.000000
vn -0.000000 0.000000 1.000000
vn -0.000000 0.000000 1.000000
vn -0.000000 0.000000 1.000000
vn -0.000000 0.000000 1.000000
vn -0.000000 0.000000 1.000000
vn -0.000000 0.000000 1.000000
vn -0.000000 0.000000 1.000000
vn -0.000000 0.000000 1.000000
vn -0.000000 0.000000 1.000000
vn -0.000000 0.000000 1.000000
vn -0.000000 0.000000 1.000000
vn -0.000000 0.000000 1.000000
vn -0.000000 0.000000 1.000000
vn 0.000000 0.000000 1.000000
vn -0.000000 0.000000 1.000000
vn -0.000000 0.000000 1.000000
vn -0.000000 0.000000 1.000000
vn -0.000000 0.000000 1.000000
vn 0.000000 0.000000 1.000000
vn -0.000000 0.000000 1.000000
vn -0.000000 0.000000 1.000000
vn -0.000000 0.000000 1.000000
vn -0.000000 0.000000 1.000000
vn 0.000000 -1.000000 0.000000
vn 0.000000 -1.000000 0.000000
vn 0.000000 -1.000000 0.000000
vn 0.000000 -1.000000 0.000000
vn 1.000000 0.000000 0.000000
vn 1.000000 0.000000 0.000000
vn 1.000000 0.000000 0.000000
vn 1.000000 0.000000 0.000000
vn 0.000000 1.000000 0.000000
vn 0.000000 1.000000 0.000000
vn 0.000000 1.000000 0.000000
vn 0.000000 1.000000 0.000000
vn -1.000000 0.000000 0.000000
vn -1.000000 0.000000 0.000000
vn -1.000000 0.000000 0.000000
vn -1.000000 0.000000 0.000000
vn 0.000000 0.000000 1.000000
vn -0.000000 0.000000 1.000000
vn -0.000000 0.000000 1.000000
vn 0.000000 0.000000 1.000000
vn 0.000000 1.000000 -0.000001
vn 0.000000 1.000000 -0.000001
vn 0.000000 1.000000 -0.000000
vn 0.000000 1.000000 -0.000000
vn 1.000000 0.000000 0.000000
vn 1.000000 0.000000 0.000000
vn 1.000000 0.000000 -0.000015
vn 1.000000 0.000000 -0.000015
vn 0.000000 -1.000000 0.000000
vn 0.000000 -1.000000 0.000000
vn 0.000000 -1.000000 -0.000000
vn 0.000000 -1.000000 -0.000000
vn -1.000000 0.000000 0.000000
vn -1.000000 0.000000 0.000000
vn -1.000000 0.000000 0.000000
vn -1.000000 0.000000 0.000000
vn -0.000005 -0.000045 -1.000000
vn -0.000014 -0.000011 -1.000000
vn 0.000009 -0.000011 -1.000000
vn 0.000066 -0.000045 -1.000000
vn 0.000066 -0.000045 -1.000000
vn 0.000009 -0.000011 -1.000000
vn 0.000009 0.000011 -1.000000
vn 0.000066 0.000045 -1.000000
vn 0.000066 0.000045 -1.000000
vn 0.000009 0.000011 -1.000000
vn -0.000014 0.000011 -1.000000
vn -0.000005 0.000045 -1.000000
vn -0.000005 0.000045 -1.000000
vn -0.000014 0.000011 -1.000000
vn -0.000014 -0.000011 -1.000000
vn -0.000005 -0.000045 -1.000000
vn -0.000014 0.000011 -1.000000
vn 0.000009 0.000011 -1.000000
vn 0.000009 -0.000011 -1.000000
vn -0.000014 -0.000011 -1.000000
s off
f 6/36/1 7/6/2 27/58/3 26/57/4
f 5/35/5 6/4/6 26/60/7 25/59/8
f 8/34/9 5/13/10 25/62/11 28/61/12
f 7/33/13 8/22/14 28/64/15 27/63/16
f 17/41/17 18/55/18 19/53/19 20/50/20
f 2/2/21 6/16/22 5/27/23 3/12/24
f 1/11/25 7/18/26 6/17/27 2/14/28
f 4/5/29 8/20/30 7/19/31 1/7/32
f 3/3/33 5/28/34 8/21/35 4/10/36
f 4/8/37 1/1/38 10/30/39 9/25/40
f 1/1/41 2/15/42 11/31/43 10/30/44
f 2/15/45 3/9/46 12/32/47 11/31/48
f 3/9/49 4/8/50 9/25/51 12/32/52
f 9/29/53 10/23/54 14/38/55 13/37/56
f 11/24/57 12/26/58 16/40/59 15/39/60
f 12/26/61 9/29/62 13/37/63 16/40/64
f 13/45/65 14/46/66 18/42/67 17/51/68
f 14/46/69 15/47/70 19/52/71 18/42/72
f 15/56/73 16/54/74 20/49/75 19/43/76
f 16/48/77 13/45/78 17/51/79 20/44/80
f 14/38/81 10/23/82 11/24/83 15/39/84
f 22/65/85 23/68/86 25/67/87 26/66/88
f 21/69/89 22/72/90 26/71/91 27/70/92
f 24/73/93 21/76/94 27/75/95 28/74/96
f 23/77/97 24/80/98 28/79/99 25/78/100
f 24/81/101 29/84/102 30/83/103 21/82/104
f 21/82/105 30/83/106 31/86/107 22/85/108
f 22/85/109 31/86/110 32/88/111 23/87/112
f 23/87/113 32/88/114 29/84/115 24/81/116
f 32/92/117 31/91/118 30/90/119 29/89/120
