# This file uses meters as units for non-parametric coordinates.

v 0.090918 -0.001409 0.248669
v 0.090918 -0.001409 0.285053
v -0.101725 0.007181 0.257260
v -0.101725 0.007181 0.276463
v -0.101725 0.026384 0.257260
v -0.101725 0.026384 0.276463
v 0.090918 0.034975 0.248669
v 0.090918 0.034975 0.285053
v -0.055048 -0.001409 0.248669
v -0.055048 -0.001409 0.285053
v -0.055048 0.034975 0.285053
v -0.055048 0.034975 0.248669
v 0.064132 -0.001409 0.298797
v 0.075646 -0.001409 0.333311
v -0.115892 0.007181 0.367911
v -0.109814 0.007181 0.386128
v -0.115892 0.026384 0.367911
v -0.109814 0.026384 0.386128
v 0.064132 0.034975 0.298797
v 0.075646 0.034975 0.333311
v -0.074333 -0.001409 0.344991
v -0.062819 -0.001409 0.379505
v -0.062819 0.034975 0.379505
v -0.074333 0.034975 0.344991
v 0.123025 -0.001409 0.395160
v 0.124918 -0.001409 0.431495
v -0.068910 0.007181 0.413763
v -0.067911 0.007181 0.432941
v -0.068910 0.026384 0.413763
v -0.067911 0.026384 0.432941
v 0.123025 0.034975 0.395160
v 0.124918 0.034975 0.431495
v -0.022744 -0.001409 0.402755
v -0.020851 -0.001409 0.439090
v -0.020851 0.034975 0.439090
v -0.022744 0.034975 0.402755
v -0.113313 -0.002056 -0.398696
v -0.113313 -0.002056 0.230993
v -0.113313 0.070772 -0.398696
v -0.113313 0.070772 0.230993
v 0.107330 0.070772 -0.398696
v 0.107330 0.070772 0.230993
v 0.107330 -0.002056 -0.398696
v 0.107330 -0.002056 0.230993
v 0.118937 -0.010108 -0.398696
v -0.124918 -0.010108 -0.398696
v -0.124918 0.078825 -0.398696
v 0.118937 0.078825 -0.398696
v 0.118937 -0.010108 -0.439090
v -0.124918 -0.010108 -0.439090
v -0.124918 0.078825 -0.439090
v 0.118937 0.078825 -0.439090
v 0.100581 0.005269 0.230993
v -0.101605 0.005269 0.230993
v 0.100581 0.063447 0.230993
v -0.101605 0.063447 0.230993
v 0.107330 0.070772 -0.398696
v -0.113313 0.070772 -0.398696
v -0.113313 -0.002056 -0.398696
v 0.107330 -0.002056 -0.398696
v -0.113313 -0.002056 0.230993
v -0.113313 0.070772 0.230993
v 0.107330 0.070772 0.230993
v 0.107330 -0.002056 0.230993
v 0.107330 0.070772 -0.398696
v 0.082654 0.070772 -0.351143
v 0.082654 0.070772 0.149885
v 0.107330 0.070772 0.230993
v 0.107330 -0.002056 0.230993
v 0.082654 -0.002056 0.149885
v 0.082654 -0.002056 -0.351143
v 0.107330 -0.002056 -0.398696
v 0.029574 0.070772 -0.351143
v 0.029574 0.070772 0.149885
v 0.029574 -0.002056 0.149885
v 0.029574 -0.002056 -0.351143
v -0.029257 0.070772 -0.351143
v -0.029257 0.070772 0.149885
v -0.029257 -0.002056 0.149885
v -0.029257 -0.002056 -0.351143
v -0.113313 0.070772 -0.398696
v -0.081153 0.070772 -0.351143
v -0.081153 0.070772 0.149885
v -0.113313 0.070772 0.230993
v -0.113313 -0.002056 0.230993
v -0.081153 -0.002056 0.149885
v -0.081153 -0.002056 -0.351143
v -0.113313 -0.002056 -0.398696
vt 0.169690 0.060863
vt 0.169690 0.060863
vt 0.169690 0.060863
vt 0.169690 0.060863
vt 0.201658 0.060863
vt 0.201658 0.060863
vt 0.201658 0.060863
vt 0.201658 0.060863
vt 0.169690 0.060863
vt 0.169690 0.060863
vt 0.169690 0.060863
vt 0.169690 0.060863
vt 0.016769 0.376326
vt 0.016769 0.376326
vt 0.016769 0.376326
vt 0.016769 0.376326
vt 0.132539 0.060863
vt 0.132539 0.060863
vt 0.132539 0.060863
vt 0.132539 0.060863
vt 0.148091 0.060863
vt 0.148091 0.060863
vt 0.148091 0.060863
vt 0.148091 0.060863
vt 0.194992 0.219700
vt 0.194992 0.219700
vt 0.194992 0.219700
vt 0.194992 0.219700
vt 0.148334 0.219700
vt 0.148334 0.219700
vt 0.148334 0.219700
vt 0.148334 0.219700
vt 0.194992 0.219700
vt 0.194992 0.219700
vt 0.194992 0.219700
vt 0.194992 0.219700
vt 0.167865 0.219700
vt 0.167865 0.219700
vt 0.167865 0.219700
vt 0.167865 0.219700
vt 0.169690 0.060863
vt 0.169690 0.060863
vt 0.169690 0.060863
vt 0.169690 0.060863
vt 0.201658 0.060863
vt 0.201658 0.060863
vt 0.201658 0.060863
vt 0.201658 0.060863
vt 0.169690 0.060863
vt 0.169690 0.060863
vt 0.169690 0.060863
vt 0.169690 0.060863
vt 0.016769 0.376326
vt 0.016769 0.376326
vt 0.016769 0.376326
vt 0.016769 0.376326
vt 0.132539 0.060863
vt 0.132539 0.060863
vt 0.132539 0.060863
vt 0.132539 0.060863
vt 0.148091 0.060863
vt 0.148091 0.060863
vt 0.148091 0.060863
vt 0.148091 0.060863
vt 0.194992 0.219700
vt 0.194992 0.219700
vt 0.194992 0.219700
vt 0.194992 0.219700
vt 0.148334 0.219700
vt 0.148334 0.219700
vt 0.148334 0.219700
vt 0.148334 0.219700
vt 0.194992 0.219700
vt 0.194992 0.219700
vt 0.194992 0.219700
vt 0.194992 0.219700
vt 0.167865 0.219700
vt 0.167865 0.219700
vt 0.167865 0.219700
vt 0.167865 0.219700
vt 0.169690 0.060863
vt 0.169690 0.060863
vt 0.169690 0.060863
vt 0.169690 0.060863
vt 0.201658 0.060863
vt 0.201658 0.060863
vt 0.201658 0.060863
vt 0.201658 0.060863
vt 0.169690 0.060863
vt 0.169690 0.060863
vt 0.169690 0.060863
vt 0.169690 0.060863
vt 0.016769 0.376326
vt 0.016769 0.376326
vt 0.016769 0.376326
vt 0.016769 0.376326
vt 0.132539 0.060863
vt 0.132539 0.060863
vt 0.132539 0.060863
vt 0.132539 0.060863
vt 0.148091 0.060863
vt 0.148091 0.060863
vt 0.148091 0.060863
vt 0.148091 0.060863
vt 0.194992 0.219700
vt 0.194992 0.219700
vt 0.194992 0.219700
vt 0.194992 0.219700
vt 0.148334 0.219700
vt 0.148334 0.219700
vt 0.148334 0.219700
vt 0.148334 0.219700
vt 0.194992 0.219700
vt 0.194992 0.219700
vt 0.194992 0.219700
vt 0.194992 0.219700
vt 0.167865 0.219700
vt 0.167865 0.219700
vt 0.167865 0.219700
vt 0.167865 0.219700
vt 0.178804 0.474491
vt 0.178804 0.474491
vt 0.178804 0.474491
vt 0.178804 0.474491
vt 0.178804 0.474491
vt 0.178804 0.474491
vt 0.178804 0.474491
vt 0.178804 0.474491
vt 0.236724 0.474491
vt 0.236724 0.474491
vt 0.236724 0.474491
vt 0.236724 0.474491
vt 0.178804 0.474491
vt 0.178804 0.474491
vt 0.178804 0.474491
vt 0.178804 0.474491
vt 0.178804 0.474491
vt 0.178804 0.474491
vt 0.178804 0.474491
vt 0.178804 0.474491
vt 0.235202 0.474491
vt 0.235202 0.474491
vt 0.235202 0.474491
vt 0.235202 0.474491
vt 0.108660 0.474433
vt 0.108660 0.474433
vt 0.108660 0.474433
vt 0.108660 0.474433
vt 0.179898 0.480923
vt 0.179898 0.480923
vt 0.179898 0.480923
vt 0.179898 0.480923
vt 0.149805 0.474491
vt 0.149805 0.474491
vt 0.149805 0.474491
vt 0.149805 0.474491
vt 0.149805 0.474491
vt 0.149805 0.474491
vt 0.149805 0.474491
vt 0.149805 0.474491
vt 0.149805 0.474491
vt 0.149805 0.474491
vt 0.149805 0.474491
vt 0.149805 0.474491
vt 0.149805 0.474491
vt 0.149805 0.474491
vt 0.149805 0.474491
vt 0.149805 0.474491
vt 0.149805 0.474491
vt 0.149805 0.474491
vt 0.149805 0.474491
vt 0.149805 0.474491
vt 0.233175 0.474491
vt 0.233175 0.474491
vt 0.233176 0.474491
vt 0.233176 0.474491
vt 0.204809 0.474491
vt 0.204809 0.474491
vt 0.204809 0.474491
vt 0.204809 0.474491
vt 0.229732 0.474491
vt 0.229732 0.474491
vt 0.229732 0.474491
vt 0.229732 0.474491
vt 0.204809 0.474491
vt 0.204809 0.474491
vt 0.204809 0.474491
vt 0.204809 0.474491
vt 0.204809 0.474491
vt 0.204809 0.474491
vt 0.204809 0.474491
vt 0.204809 0.474491
vt 0.204809 0.474491
vt 0.204809 0.474491
vt 0.204809 0.474491
vt 0.204809 0.474491
vt 0.204809 0.474491
vt 0.204809 0.474491
vt 0.204809 0.474491
vt 0.204809 0.474491
vt 0.236724 0.474491
vt 0.236724 0.474491
vt 0.146557 0.474491
vt 0.146557 0.474491
vt 0.146557 0.474491
vt 0.146557 0.474491
vt 0.236724 0.474491
vt 0.236724 0.474491
vt 0.146556 0.474491
vt 0.146556 0.474491
vt 0.146556 0.474491
vt 0.146556 0.474491
vt 0.236724 0.474491
vt 0.236724 0.474491
vt 0.236724 0.474491
vt 0.236724 0.474491
vt 0.168377 0.477956
vt 0.168377 0.477956
vt 0.168377 0.477956
vt 0.168377 0.477956
vt 0.236724 0.474491
vt 0.236724 0.474491
vt 0.236724 0.474491
vt 0.236724 0.474491
vt 0.235202 0.474491
vt 0.235202 0.474491
vt 0.235202 0.474491
vt 0.235202 0.474491
vt 0.235202 0.474491
vt 0.235202 0.474491
vt 0.168377 0.477956
vt 0.168377 0.477956
vt 0.168377 0.477956
vt 0.168377 0.477956
vt 0.235202 0.474491
vt 0.235202 0.474491
vt 0.235202 0.474491
vt 0.235202 0.474491
vt 0.235202 0.474491
vt 0.235202 0.474491
vt 0.235202 0.474491
vt 0.235202 0.474491
vt 0.235202 0.474491
vt 0.235202 0.474491
vt 0.168377 0.477956
vt 0.168377 0.477956
vt 0.168377 0.477956
vt 0.168377 0.477956
vt 0.168377 0.477956
vt 0.168377 0.477956
vt 0.168377 0.477956
vt 0.168377 0.477956
vt 0.236724 0.474491
vt 0.236724 0.474491
vt 0.236724 0.474491
vt 0.236724 0.474491
vt 0.146556 0.474491
vt 0.146556 0.474491
vt 0.146556 0.474491
vt 0.146556 0.474491
vt 0.235202 0.474491
vt 0.235202 0.474491
vt 0.235202 0.474491
vt 0.235202 0.474491
vt 0.146557 0.474491
vt 0.146557 0.474491
vt 0.146557 0.474491
vt 0.146557 0.474491
vn -0.180993 -0.983484 0.000000
vn -0.180993 -0.983485 0.000000
vn -0.180993 -0.983484 0.000000
vn -0.180993 -0.983485 0.000000
vn -1.000000 0.000000 0.000000
vn -1.000000 0.000000 0.000000
vn -1.000000 0.000000 0.000000
vn -1.000000 0.000000 0.000000
vn -0.181000 0.983483 0.000000
vn -0.181000 0.983483 0.000000
vn -0.181000 0.983483 0.000000
vn -0.181000 0.983483 0.000000
vn 1.000000 0.000000 0.000000
vn 1.000000 0.000000 0.000000
vn 1.000000 0.000000 0.000000
vn 1.000000 0.000000 0.000000
vn -0.180995 0.000000 0.983484
vn -0.180995 0.000000 0.983484
vn -0.180995 0.000000 0.983484
vn -0.180995 0.000000 0.983484
vn -0.181002 0.000000 -0.983483
vn -0.181002 0.000000 -0.983483
vn -0.181002 0.000000 -0.983483
vn -0.181002 0.000000 -0.983483
vn 0.000000 -1.000000 0.000000
vn 0.000000 -1.000000 0.000000
vn 0.000000 -1.000000 0.000000
vn 0.000000 -1.000000 0.000000
vn 0.000000 0.000000 1.000000
vn 0.000000 0.000000 1.000000
vn 0.000000 0.000000 1.000000
vn 0.000000 0.000000 1.000000
vn 0.000000 1.000000 0.000000
vn 0.000000 1.000000 0.000000
vn 0.000000 1.000000 0.000000
vn 0.000000 1.000000 0.000000
vn 0.000000 0.000000 -1.000000
vn 0.000000 0.000000 -1.000000
vn 0.000000 0.000000 -1.000000
vn 0.000000 0.000000 -1.000000
vn -0.171691 -0.983484 0.057281
vn -0.171691 -0.983484 0.057281
vn -0.171691 -0.983484 0.057281
vn -0.171691 -0.983484 0.057281
vn -0.948598 0.000000 0.316483
vn -0.948598 0.000000 0.316483
vn -0.948598 0.000000 0.316483
vn -0.948598 0.000000 0.316483
vn -0.171698 0.983483 0.057283
vn -0.171698 0.983483 0.057283
vn -0.171698 0.983483 0.057283
vn -0.171698 0.983483 0.057283
vn 0.948605 0.000000 -0.316463
vn 0.948605 0.000000 -0.316463
vn 0.948605 0.000000 -0.316463
vn 0.948605 0.000000 -0.316463
vn 0.139552 0.000000 0.990215
vn 0.139552 0.000000 0.990215
vn 0.139552 0.000000 0.990215
vn 0.139552 0.000000 0.990215
vn -0.482937 0.000000 -0.875655
vn -0.482937 0.000000 -0.875655
vn -0.482937 0.000000 -0.875655
vn -0.482937 0.000000 -0.875655
vn 0.000000 -1.000000 0.000000
vn 0.000000 -1.000000 0.000000
vn 0.000000 -1.000000 0.000000
vn 0.000000 -1.000000 0.000000
vn 0.316467 0.000000 0.948604
vn 0.316467 0.000000 0.948604
vn 0.316467 0.000000 0.948604
vn 0.316467 0.000000 0.948604
vn 0.000000 1.000000 0.000000
vn 0.000000 1.000000 0.000000
vn 0.000000 1.000000 0.000000
vn 0.000000 1.000000 0.000000
vn -0.316466 0.000000 -0.948604
vn -0.316466 0.000000 -0.948604
vn -0.316466 0.000000 -0.948604
vn -0.316466 0.000000 -0.948604
vn -0.180749 -0.983484 0.009416
vn -0.180749 -0.983484 0.009416
vn -0.180749 -0.983484 0.009416
vn -0.180749 -0.983484 0.009416
vn -0.998646 0.000000 0.052020
vn -0.998646 0.000000 0.052020
vn -0.998646 0.000000 0.052020
vn -0.998646 0.000000 0.052020
vn -0.180757 0.983483 0.009417
vn -0.180757 0.983483 0.009417
vn -0.180757 0.983483 0.009417
vn -0.180757 0.983483 0.009417
vn 0.998645 0.000000 -0.052043
vn 0.998645 0.000000 -0.052043
vn 0.998645 0.000000 -0.052043
vn 0.998645 0.000000 -0.052043
vn -0.129564 0.000000 0.991571
vn -0.129564 0.000000 0.991571
vn -0.129564 0.000000 0.991571
vn -0.129564 0.000000 0.991571
vn -0.231943 0.000000 -0.972730
vn -0.231943 0.000000 -0.972729
vn -0.231943 0.000000 -0.972729
vn -0.231943 0.000000 -0.972729
vn 0.000000 -1.000000 0.000000
vn 0.000000 -1.000000 0.000000
vn 0.000000 -1.000000 0.000000
vn 0.000000 -1.000000 0.000000
vn 0.052036 0.000000 0.998645
vn 0.052036 0.000000 0.998645
vn 0.052036 0.000000 0.998645
vn 0.052036 0.000000 0.998645
vn 0.000000 1.000000 0.000000
vn 0.000000 1.000000 0.000000
vn 0.000000 1.000000 0.000000
vn 0.000000 1.000000 0.000000
vn -0.052036 0.000000 -0.998645
vn -0.052036 0.000000 -0.998645
vn -0.052036 0.000000 -0.998645
vn -0.052036 0.000000 -0.998645
vn -0.000000 0.000000 0.000000
vn -0.000000 0.000000 0.000000
vn -0.000000 0.000000 0.000000
vn -0.000000 0.000000 0.000000
vn -0.000000 0.000000 0.000000
vn -0.000000 0.000000 0.000000
vn -0.000000 0.000000 0.000000
vn -0.000000 0.000000 0.000000
vn 0.000000 1.000000 -0.000000
vn 0.000000 1.000000 0.000000
vn 0.000000 1.000000 -0.000000
vn 0.000000 1.000000 -0.000000
vn 0.000000 0.000000 0.000000
vn 0.000000 0.000000 0.000000
vn 0.000000 0.000000 0.000000
vn 0.000000 0.000000 0.000000
vn 0.000000 0.000000 0.000000
vn 0.000000 0.000000 0.000000
vn 0.000000 0.000000 0.000000
vn 0.000000 0.000000 0.000000
vn -0.000000 -1.000000 0.000000
vn -0.000000 -1.000000 -0.000000
vn -0.000000 -1.000000 0.000000
vn -0.000000 -1.000000 0.000000
vn -0.000000 0.000000 1.000000
vn -0.000000 0.000000 1.000000
vn 0.000000 0.000000 1.000000
vn 0.000000 0.000000 1.000000
vn 0.000001 0.000000 -1.000000
vn 0.000001 0.000000 -1.000000
vn 0.000001 0.000000 -1.000000
vn 0.000001 0.000000 -1.000000
vn 0.000000 0.000000 1.000000
vn 0.000000 0.000000 1.000000
vn 0.000000 0.000000 1.000000
vn 0.000000 0.000000 0.000000
vn 0.000000 0.000000 1.000000
vn 0.000000 0.000000 1.000000
vn 0.000000 0.000000 1.000000
vn 0.000000 0.000000 1.000000
vn 0.000000 0.000000 1.000000
vn 0.000000 0.000000 1.000000
vn 0.000000 0.000000 0.000000
vn 0.000000 0.000000 0.000000
vn 0.000001 0.000000 1.000000
vn 0.000000 0.000000 1.000000
vn 0.000000 0.000000 1.000000
vn 0.000000 0.000000 1.000000
vn 0.000001 0.000000 1.000000
vn 0.000000 0.000000 1.000000
vn 0.000000 0.000000 1.000000
vn 0.000000 0.000000 1.000000
vn 0.000000 -1.000000 0.000000
vn 0.000000 -1.000000 0.000000
vn 0.000000 -1.000000 0.000000
vn 0.000000 -1.000000 0.000000
vn -1.000000 0.000000 0.000000
vn -1.000000 0.000000 0.000000
vn -1.000000 0.000000 0.000000
vn -1.000000 0.000000 0.000000
vn 0.000000 1.000000 0.000000
vn 0.000000 1.000000 0.000000
vn 0.000000 1.000000 0.000000
vn 0.000000 1.000000 0.000000
vn 1.000000 0.000000 0.000000
vn 1.000000 0.000000 0.000000
vn 1.000000 0.000000 0.000000
vn 1.000000 0.000000 0.000000
vn 0.000000 0.000000 0.000000
vn 0.000000 0.000000 1.000000
vn -0.000000 0.000000 1.000000
vn -0.000000 0.000000 1.000000
vn 0.000000 0.000000 1.000000
vn 0.000001 0.000000 1.000000
vn -0.000000 0.000000 1.000000
vn -0.000001 0.000000 1.000000
vn -0.000000 0.000000 1.000000
vn -0.000000 0.000000 1.000000
vn 0.000000 0.000000 1.000000
vn -0.000000 0.000000 1.000000
vn -0.000001 0.000000 1.000000
vn 0.000000 0.000000 0.000000
vn 0.000000 0.000000 0.000000
vn 0.000001 0.000000 1.000000
vn 0.000001 0.000000 1.000000
vn 0.000001 0.000000 1.000000
vn 0.000000 0.000000 1.000000
vn 0.000000 0.000000 1.000000
vn 0.000000 0.000000 0.000000
vn 0.000000 0.000000 0.000000
vn 0.000000 0.000000 0.000000
vn 0.000000 0.000000 0.000000
vn -0.000000 0.000000 -0.000000
vn -0.000000 0.000000 -0.000000
vn -0.000000 0.000000 -0.000000
vn -0.888546 0.000000 -0.458788
vn 0.000000 0.000000 0.000000
vn 0.000000 0.000000 0.000000
vn 0.000000 0.000000 0.000000
vn 0.000000 0.000000 0.000000
vn -0.957105 0.000000 0.289741
vn -0.000000 0.000000 0.000000
vn -0.000000 0.000000 0.000000
vn -0.000000 0.000000 0.000000
vn 0.000000 1.000000 0.000000
vn 0.000000 1.000000 0.000000
vn 0.000000 1.000000 0.000000
vn 0.000000 1.000000 0.000000
vn 0.000000 1.000000 0.000000
vn -0.000000 1.000000 0.000000
vn 0.000000 1.000000 -0.000000
vn 0.000000 1.000000 0.000000
vn 0.000000 1.000000 0.000000
vn 0.000000 1.000000 -0.000000
vn 0.000000 1.000000 0.000000
vn 0.000000 1.000000 -0.000000
vn 0.000000 1.000000 -0.000000
vn 0.000000 1.000000 -0.000000
vn -0.000000 1.000000 -0.000000
vn 0.000000 1.000000 0.000000
vn 0.000000 -1.000000 0.000000
vn 0.000000 -1.000000 0.000000
vn -0.000000 -1.000000 0.000000
vn 0.000000 -1.000000 0.000000
vn 0.000000 -1.000000 0.000000
vn 0.000000 -1.000000 0.000000
vn 0.000000 -1.000000 0.000000
vn 0.000000 -1.000000 -0.000000
vn -0.000000 -1.000000 -0.000000
vn -0.000000 -1.000000 0.000000
vn 0.000000 -1.000000 -0.000000
vn -0.000000 -1.000000 -0.000000
vn 0.000000 -1.000000 -0.000000
vn 0.000000 -1.000000 -0.000000
vn 0.000000 -1.000000 -0.000000
vn 0.000000 -1.000000 -0.000000
vn 0.000000 1.000000 -0.000000
vn 0.000000 1.000000 0.000000
vn 0.000000 1.000000 0.000000
vn 0.000000 1.000000 -0.000000
vn 0.000000 -1.000000 0.000000
vn 0.000000 -1.000000 -0.000000
vn 0.000000 -1.000000 -0.000000
vn 0.000000 -1.000000 0.000000
vn 0.000000 1.000000 -0.000000
vn 0.000000 1.000000 0.000000
vn -0.000000 1.000000 0.000000
vn -0.000000 1.000000 -0.000000
vn 0.000000 -1.000000 0.000000
vn 0.000000 -1.000000 -0.000000
vn 0.000000 -1.000000 -0.000000
vn 0.000000 -1.000000 0.000000
vn 0.000000 0.000000 0.000000
vn 0.000000 0.000000 0.000000
vn 0.000000 0.000000 0.000000
vn 0.000000 0.000000 0.000000
vn -0.000000 1.000000 -0.000000
vn -0.000000 1.000000 0.000000
vn -0.000000 1.000000 -0.000000
vn -0.000000 1.000000 -0.000000
vn 0.000000 0.000000 0.000000
vn 0.000000 0.000000 0.000000
vn 0.000000 0.000000 0.000000
vn 0.000000 0.000000 0.000000
vn 0.000000 0.000000 0.000000
vn 0.000000 0.000000 0.000000
vn 0.000000 0.000000 0.000000
vn 0.000000 0.000000 0.000000
vn 0.000000 -1.000000 0.000000
vn 0.000000 -1.000000 -0.000000
vn 0.000000 -1.000000 0.000000
vn 0.000000 -1.000000 0.000000
vn 0.000000 0.000000 0.000000
vn 0.000000 0.000000 0.000000
vn 0.000000 0.000000 0.000000
vn 0.000000 0.000000 0.000000
s off
f 9/1/1 10/2/2 4/3/3 3/4/4
f 3/5/5 4/6/6 6/7/7 5/8/8
f 5/9/9 6/10/10 11/11/11 12/12/12
f 7/13/13 8/14/14 2/15/15 1/16/16
f 10/17/17 11/18/18 6/19/19 4/20/20
f 12/21/21 9/22/22 3/23/23 5/24/24
f 1/25/25 2/26/26 10/27/27 9/28/28
f 2/29/29 8/30/30 11/31/31 10/32/32
f 12/33/33 11/34/34 8/35/35 7/36/36
f 7/37/37 1/38/38 9/39/39 12/40/40
f 21/41/41 22/42/42 16/43/43 15/44/44
f 15/45/45 16/46/46 18/47/47 17/48/48
f 17/49/49 18/50/50 23/51/51 24/52/52
f 19/53/53 20/54/54 14/55/55 13/56/56
f 22/57/57 23/58/58 18/59/59 16/60/60
f 24/61/61 21/62/62 15/63/63 17/64/64
f 13/65/65 14/66/66 22/67/67 21/68/68
f 14/69/69 20/70/70 23/71/71 22/72/72
f 24/73/73 23/74/74 20/75/75 19/76/76
f 19/77/77 13/78/78 21/79/79 24/80/80
f 33/81/81 34/82/82 28/83/83 27/84/84
f 27/85/85 28/86/86 30/87/87 29/88/88
f 29/89/89 30/90/90 35/91/91 36/92/92
f 31/93/93 32/94/94 26/95/95 25/96/96
f 34/97/97 35/98/98 30/99/99 28/100/100
f 36/101/101 33/102/102 27/103/103 29/104/104
f 25/105/105 26/106/106 34/107/107 33/108/108
f 26/109/109 32/110/110 35/111/111 34/112/112
f 36/113/113 35/114/114 32/115/115 31/116/116
f 31/117/117 25/118/118 33/119/119 36/120/120
f 62/121/121 58/122/122 39/123/123 37/124/124 59/125/125 61/126/126 38/127/127 40/128/128
f 57/129/129 66/130/130 67/131/131 63/132/132
f 64/133/133 60/134/134 43/135/135 41/136/136 57/137/137 63/138/138 42/139/139 44/140/140
f 70/141/141 71/142/142 60/143/143 64/144/144
f 53/145/145 55/146/146 56/147/147 54/148/148
f 51/149/149 52/150/150 49/151/151 50/152/152
f 45/153/153 43/154/154 72/155/155 88/156/156 37/157/157 46/158/158
f 37/159/159 39/160/160 47/161/161 46/162/162
f 81/163/163 65/164/164 41/165/165 48/166/166 47/167/167 39/168/168
f 41/169/169 43/170/170 45/171/171 48/172/172
f 49/173/173 45/174/174 46/175/175 50/176/176
f 46/177/177 47/178/178 51/179/179 50/180/180
f 47/181/181 48/182/182 52/183/183 51/184/184
f 48/185/185 45/186/186 49/187/187 52/188/188
f 85/189/189 69/190/190 44/191/191 53/192/192 54/193/193 38/194/194
f 44/191/195 42/195/196 55/196/197 53/192/198
f 56/197/199 55/196/200 42/195/201 68/198/202 84/199/203 40/200/204
f 40/200/205 38/194/206 54/193/207 56/197/208
f 65/201/209 66/130/210 57/129/211 41/202/212
f 43/203/213 60/204/214 71/205/215 72/206/216
f 63/132/217 67/131/218 68/207/219 42/208/220
f 69/209/221 70/210/222 64/211/223 44/212/224
f 77/213/225 73/214/226 66/130/227 65/201/228 81/215/229 82/216/230
f 67/217/231 66/218/232 73/219/233 74/220/234
f 68/207/235 67/131/236 74/221/237 78/222/238 83/223/239 84/224/240
f 79/225/241 75/226/242 70/227/243 69/228/244 85/229/245 86/230/246
f 75/231/247 76/232/248 71/233/249 70/234/250
f 72/235/251 71/236/252 76/237/253 80/238/254 87/239/255 88/240/256
f 74/221/257 73/214/258 77/213/259 78/222/260
f 79/241/261 80/242/262 76/243/263 75/244/264
f 78/245/265 77/246/266 82/247/267 83/248/268
f 86/249/269 87/250/270 80/251/271 79/252/272
f 39/253/273 58/254/274 82/216/275 81/215/276
f 83/223/277 82/216/278 58/254/279 62/255/280
f 84/224/281 83/223/282 62/255/283 40/256/284
f 61/257/285 86/258/286 85/259/287 38/260/288
f 59/261/289 87/262/290 86/263/291 61/264/292
f 88/265/293 87/266/294 59/267/295 37/268/296
