# This file uses meters as units for non-parametric coordinates.

v -0.044863 0.044622 0.085035
v -0.044863 0.044622 0.125019
v 0.078601 0.035182 0.094476
v 0.078601 0.035182 0.115579
v 0.078601 0.014078 0.094476
v 0.078601 0.014078 0.115579
v -0.044863 0.004637 0.085035
v -0.044863 0.004637 0.125019
v 0.049736 0.044622 0.085035
v 0.049736 0.044622 0.125019
v 0.049736 0.004637 0.125019
v 0.049736 0.004637 0.085035
v -0.072567 0.044622 0.141724
v -0.088415 0.044622 0.178433
v 0.037043 0.035182 0.199329
v 0.028678 0.035182 0.218704
v 0.037043 0.014078 0.199329
v 0.028678 0.014078 0.218704
v -0.072567 0.004637 0.141724
v -0.088415 0.004637 0.178433
v 0.014284 0.044622 0.179220
v -0.001565 0.044622 0.215929
v -0.001565 0.004637 0.215929
v 0.014284 0.004637 0.179220
v -0.086832 0.044622 0.299770
v -0.083940 0.044622 0.339649
v 0.036993 0.035182 0.300256
v 0.038518 0.035182 0.321304
v 0.036993 0.014078 0.300256
v 0.038518 0.014078 0.321304
v -0.086832 0.004637 0.299770
v -0.083940 0.004637 0.339649
v 0.007520 0.044622 0.292928
v 0.010411 0.044622 0.332807
v 0.010411 0.004637 0.332807
v 0.007519 0.004637 0.292928
v -0.055638 0.009836 -0.315179
v -0.055638 0.009836 0.066264
v -0.055638 0.098797 -0.315179
v -0.055638 0.098797 0.066264
v 0.081216 0.098797 -0.315179
v 0.081216 0.098797 0.066264
v 0.081216 0.009836 -0.315179
v 0.081216 0.009836 0.066264
v 0.088415 0.000000 -0.315179
v -0.062836 0.000000 -0.315179
v -0.062836 0.108633 -0.315179
v 0.088415 0.108633 -0.315179
v 0.088415 0.000000 -0.339649
v -0.062837 0.000000 -0.339649
v -0.062837 0.108633 -0.339649
v 0.088415 0.108633 -0.339649
v 0.073955 0.018784 0.066264
v -0.048376 0.018784 0.066264
v 0.073955 0.089849 0.066264
v -0.048376 0.089849 0.066264
vt 0.232428 0.378011
vt 0.232428 0.378011
vt 0.232428 0.378011
vt 0.232428 0.378011
vt 0.264396 0.378011
vt 0.264396 0.378011
vt 0.264396 0.378011
vt 0.264396 0.378011
vt 0.232428 0.378011
vt 0.232428 0.378011
vt 0.232428 0.378011
vt 0.232428 0.378011
vt 0.016769 0.376326
vt 0.016769 0.376326
vt 0.016769 0.376326
vt 0.016769 0.376326
vt 0.195277 0.378011
vt 0.195277 0.378011
vt 0.195277 0.378011
vt 0.195277 0.378011
vt 0.210828 0.378011
vt 0.210828 0.378011
vt 0.210828 0.378011
vt 0.210828 0.378011
vt 0.167937 0.219700
vt 0.167937 0.219700
vt 0.167937 0.219700
vt 0.167937 0.219700
vt 0.121280 0.219700
vt 0.121280 0.219700
vt 0.121280 0.219700
vt 0.121280 0.219700
vt 0.167937 0.219700
vt 0.167937 0.219700
vt 0.167937 0.219700
vt 0.167937 0.219700
vt 0.140811 0.219700
vt 0.140811 0.219700
vt 0.140811 0.219700
vt 0.140811 0.219700
vt 0.232428 0.378011
vt 0.232428 0.378011
vt 0.232428 0.378011
vt 0.232428 0.378011
vt 0.264396 0.378011
vt 0.264396 0.378011
vt 0.264396 0.378011
vt 0.264396 0.378011
vt 0.232428 0.378011
vt 0.232428 0.378011
vt 0.232428 0.378011
vt 0.232428 0.378011
vt 0.016769 0.376326
vt 0.016769 0.376326
vt 0.016769 0.376326
vt 0.016769 0.376326
vt 0.195277 0.378011
vt 0.195277 0.378011
vt 0.195277 0.378011
vt 0.195277 0.378011
vt 0.210828 0.378011
vt 0.210828 0.378011
vt 0.210828 0.378011
vt 0.210828 0.378011
vt 0.167937 0.219700
vt 0.167937 0.219700
vt 0.167937 0.219700
vt 0.167937 0.219700
vt 0.121280 0.219700
vt 0.121280 0.219700
vt 0.121280 0.219700
vt 0.121280 0.219700
vt 0.167937 0.219700
vt 0.167937 0.219700
vt 0.167937 0.219700
vt 0.167937 0.219700
vt 0.140811 0.219700
vt 0.140811 0.219700
vt 0.140811 0.219700
vt 0.140811 0.219700
vt 0.232428 0.378011
vt 0.232428 0.378011
vt 0.232428 0.378011
vt 0.232428 0.378011
vt 0.264396 0.378011
vt 0.264396 0.378011
vt 0.264396 0.378011
vt 0.264396 0.378011
vt 0.232428 0.378011
vt 0.232428 0.378011
vt 0.232428 0.378011
vt 0.232428 0.378011
vt 0.016769 0.376326
vt 0.016769 0.376326
vt 0.016769 0.376326
vt 0.016769 0.376326
vt 0.195277 0.378011
vt 0.195277 0.378011
vt 0.195277 0.378011
vt 0.195277 0.378011
vt 0.210828 0.378011
vt 0.210828 0.378011
vt 0.210828 0.378011
vt 0.210828 0.378011
vt 0.167937 0.219700
vt 0.167937 0.219700
vt 0.167937 0.219700
vt 0.167937 0.219700
vt 0.121280 0.219700
vt 0.121280 0.219700
vt 0.121280 0.219700
vt 0.121280 0.219700
vt 0.167937 0.219700
vt 0.167937 0.219700
vt 0.167937 0.219700
vt 0.167937 0.219700
vt 0.140811 0.219700
vt 0.140811 0.219700
vt 0.140811 0.219700
vt 0.140811 0.219700
vt 0.178804 0.474491
vt 0.178804 0.474491
vt 0.178804 0.474491
vt 0.178804 0.474491
vt 0.236724 0.474491
vt 0.236724 0.474491
vt 0.236724 0.474491
vt 0.236724 0.474491
vt 0.178804 0.474491
vt 0.178804 0.474491
vt 0.178804 0.474491
vt 0.178804 0.474491
vt 0.146557 0.474491
vt 0.146556 0.474491
vt 0.146556 0.474491
vt 0.146557 0.474491
vt 0.108660 0.474433
vt 0.108660 0.474433
vt 0.108660 0.474433
vt 0.108660 0.474433
vt 0.179898 0.480923
vt 0.179898 0.480923
vt 0.179898 0.480923
vt 0.179898 0.480923
vt 0.149805 0.474491
vt 0.149805 0.474491
vt 0.149805 0.474491
vt 0.149805 0.474491
vt 0.149805 0.474491
vt 0.149805 0.474491
vt 0.149805 0.474491
vt 0.149805 0.474491
vt 0.149805 0.474491
vt 0.149805 0.474491
vt 0.149805 0.474491
vt 0.149805 0.474491
vt 0.149805 0.474491
vt 0.149805 0.474491
vt 0.149805 0.474491
vt 0.149805 0.474491
vt 0.204809 0.474491
vt 0.204809 0.474491
vt 0.204809 0.474491
vt 0.204809 0.474491
vt 0.204809 0.474491
vt 0.204809 0.474491
vt 0.204809 0.474491
vt 0.204809 0.474491
vt 0.229732 0.474491
vt 0.229732 0.474491
vt 0.229732 0.474491
vt 0.229732 0.474491
vt 0.204809 0.474491
vt 0.204809 0.474491
vt 0.204809 0.474491
vt 0.204809 0.474491
vt 0.204809 0.474491
vt 0.204809 0.474491
vt 0.204809 0.474491
vt 0.204809 0.474491
vt 0.204809 0.474491
vt 0.204809 0.474491
vt 0.204809 0.474491
vt 0.204809 0.474491
vn 0.310832 0.950465 -0.000003
vn 0.310832 0.950465 -0.000003
vn 0.310832 0.950465 -0.000003
vn 0.310832 0.950465 -0.000003
vn 1.000000 0.000000 0.000000
vn 1.000000 0.000000 0.000000
vn 1.000000 0.000000 0.000000
vn 1.000000 0.000000 0.000000
vn 0.310846 -0.950460 -0.000002
vn 0.310846 -0.950460 -0.000002
vn 0.310846 -0.950460 -0.000002
vn 0.310846 -0.950460 -0.000002
vn -1.000000 0.000000 0.000000
vn -1.000000 0.000000 0.000000
vn -1.000000 0.000000 0.000000
vn -1.000000 0.000000 0.000000
vn 0.310834 0.000000 0.950464
vn 0.310834 0.000000 0.950464
vn 0.310834 0.000000 0.950464
vn 0.310834 0.000000 0.950464
vn 0.310843 0.000000 -0.950461
vn 0.310843 0.000000 -0.950461
vn 0.310843 0.000000 -0.950461
vn 0.310843 0.000000 -0.950461
vn 0.000000 1.000000 0.000000
vn 0.000000 1.000000 0.000000
vn 0.000000 1.000000 0.000000
vn 0.000000 1.000000 0.000000
vn 0.000000 0.000000 1.000000
vn 0.000000 0.000000 1.000000
vn 0.000000 0.000000 1.000000
vn 0.000000 0.000000 1.000000
vn 0.000000 -1.000000 0.000000
vn 0.000000 -1.000000 0.000000
vn 0.000000 -1.000000 0.000000
vn 0.000000 -1.000000 0.000000
vn 0.000000 0.000000 -1.000000
vn 0.000000 0.000000 -1.000000
vn 0.000000 0.000000 -1.000000
vn 0.000000 0.000000 -1.000000
vn 0.285373 0.950464 0.123210
vn 0.285373 0.950464 0.123210
vn 0.285373 0.950464 0.123210
vn 0.285373 0.950464 0.123210
vn 0.918084 0.000000 0.396386
vn 0.918084 0.000000 0.396386
vn 0.918084 0.000000 0.396386
vn 0.918084 0.000000 0.396386
vn 0.285386 -0.950459 0.123216
vn 0.285386 -0.950459 0.123216
vn 0.285386 -0.950459 0.123216
vn 0.285386 -0.950459 0.123216
vn -0.918089 0.000000 -0.396375
vn -0.918089 0.000000 -0.396375
vn -0.918089 0.000000 -0.396375
vn -0.918089 0.000000 -0.396375
vn -0.091348 0.000000 0.995819
vn -0.091348 0.000000 0.995819
vn -0.091348 0.000000 0.995819
vn -0.091348 0.000000 0.995819
vn 0.662117 0.000000 -0.749400
vn 0.662117 0.000000 -0.749400
vn 0.662117 0.000000 -0.749400
vn 0.662117 0.000000 -0.749400
vn 0.000000 1.000000 0.000000
vn 0.000000 1.000000 0.000000
vn 0.000000 1.000000 0.000000
vn 0.000000 1.000000 0.000000
vn -0.396374 0.000000 0.918089
vn -0.396374 0.000000 0.918089
vn -0.396374 0.000000 0.918089
vn -0.396374 0.000000 0.918089
vn 0.000000 -1.000000 0.000000
vn 0.000000 -1.000000 0.000000
vn 0.000000 -1.000000 0.000000
vn 0.000000 -1.000000 0.000000
vn 0.396373 0.000000 -0.918090
vn 0.396373 0.000000 -0.918090
vn 0.396373 0.000000 -0.918090
vn 0.396373 0.000000 -0.918090
vn 0.310018 0.950465 -0.022477
vn 0.310018 0.950465 -0.022477
vn 0.310018 0.950465 -0.022477
vn 0.310018 0.950465 -0.022477
vn 0.997383 0.000000 -0.072304
vn 0.997383 0.000000 -0.072304
vn 0.997383 0.000000 -0.072304
vn 0.997383 0.000000 -0.072304
vn 0.310030 -0.950461 -0.022480
vn 0.310030 -0.950461 -0.022480
vn 0.310030 -0.950461 -0.022480
vn 0.310030 -0.950461 -0.022480
vn -0.997382 0.000000 0.072317
vn -0.997382 0.000000 0.072317
vn -0.997382 0.000000 0.072317
vn -0.997382 0.000000 0.072317
vn 0.378756 0.000000 0.925496
vn 0.378756 0.000000 0.925496
vn 0.378756 0.000000 0.925496
vn 0.378756 0.000000 0.925496
vn 0.241289 -0.000002 -0.970453
vn 0.241289 -0.000002 -0.970453
vn 0.241289 -0.000002 -0.970453
vn 0.241289 -0.000002 -0.970453
vn 0.000000 1.000000 0.000000
vn 0.000000 1.000000 0.000000
vn 0.000000 1.000000 0.000000
vn 0.000000 1.000000 0.000000
vn 0.072328 0.000000 0.997381
vn 0.072328 0.000000 0.997381
vn 0.072328 0.000000 0.997381
vn 0.072328 0.000000 0.997381
vn 0.000000 -1.000000 0.000000
vn 0.000000 -1.000000 0.000000
vn 0.000000 -1.000000 0.000000
vn 0.000000 -1.000000 0.000000
vn -0.072328 0.000000 -0.997381
vn -0.072328 0.000000 -0.997381
vn -0.072328 0.000000 -0.997381
vn -0.072328 0.000000 -0.997381
vn -1.000000 0.000000 0.000000
vn -1.000000 0.000000 0.000000
vn -1.000000 0.000000 0.000000
vn -1.000000 0.000000 0.000000
vn 0.000000 1.000000 -0.000000
vn 0.000000 1.000000 -0.000000
vn 0.000000 1.000000 -0.000000
vn 0.000000 1.000000 -0.000000
vn 1.000000 0.000000 0.000000
vn 1.000000 0.000000 0.000000
vn 1.000000 0.000000 0.000000
vn 1.000000 0.000000 0.000000
vn 0.000000 -1.000000 0.000000
vn 0.000000 -1.000000 0.000000
vn 0.000000 -1.000000 0.000000
vn 0.000000 -1.000000 0.000000
vn 0.000000 0.000000 1.000000
vn -0.000000 0.000000 1.000000
vn -0.000000 0.000000 1.000000
vn 0.000000 0.000000 1.000000
vn 0.000000 0.000000 -1.000000
vn 0.000000 0.000000 -1.000000
vn 0.000000 0.000000 -1.000000
vn 0.000000 0.000000 -1.000000
vn 0.000000 0.000000 1.000000
vn -0.000001 0.000000 1.000000
vn -0.000001 0.000000 1.000000
vn 0.000000 0.000000 1.000000
vn -0.000001 0.000000 1.000000
vn -0.000001 0.000000 1.000000
vn -0.000001 0.000000 1.000000
vn -0.000001 0.000000 1.000000
vn -0.000001 0.000000 1.000000
vn 0.000000 0.000000 1.000000
vn 0.000000 0.000000 1.000000
vn -0.000001 0.000000 1.000000
vn 0.000000 0.000000 1.000000
vn 0.000000 0.000000 1.000000
vn 0.000000 0.000000 1.000000
vn 0.000000 0.000000 1.000000
vn 0.000000 -1.000000 0.000000
vn 0.000000 -1.000000 0.000000
vn 0.000000 -1.000000 0.000000
vn 0.000000 -1.000000 0.000000
vn -1.000000 0.000000 0.000019
vn -1.000000 0.000000 0.000019
vn -1.000000 0.000000 0.000019
vn -1.000000 0.000000 0.000019
vn 0.000000 1.000000 0.000000
vn 0.000000 1.000000 0.000000
vn 0.000000 1.000000 0.000000
vn 0.000000 1.000000 0.000000
vn 1.000000 0.000000 0.000000
vn 1.000000 0.000000 0.000000
vn 1.000000 0.000000 0.000000
vn 1.000000 0.000000 0.000000
vn 0.000000 0.000000 1.000000
vn -0.000000 0.000000 1.000000
vn -0.000000 0.000000 1.000000
vn 0.000000 0.000000 1.000000
vn -0.000000 0.000000 1.000000
vn -0.000000 0.000000 1.000000
vn -0.000000 0.000000 1.000000
vn -0.000000 0.000000 1.000000
vn -0.000000 0.000000 1.000000
vn 0.000000 0.000000 1.000000
vn 0.000000 0.000000 1.000000
vn -0.000000 0.000000 1.000000
vn 0.000000 0.000000 1.000000
vn 0.000000 0.000000 1.000000
vn 0.000000 0.000000 1.000000
vn 0.000000 0.000000 1.000000
s off
f 9/1/1 10/2/2 4/3/3 3/4/4
f 3/5/5 4/6/6 6/7/7 5/8/8
f 5/9/9 6/10/10 11/11/11 12/12/12
f 7/13/13 8/14/14 2/15/15 1/16/16
f 10/17/17 11/18/18 6/19/19 4/20/20
f 12/21/21 9/22/22 3/23/23 5/24/24
f 1/25/25 2/26/26 10/27/27 9/28/28
f 2/29/29 8/30/30 11/31/31 10/32/32
f 12/33/33 11/34/34 8/35/35 7/36/36
f 7/37/37 1/38/38 9/39/39 12/40/40
f 21/41/41 22/42/42 16/43/43 15/44/44
f 15/45/45 16/46/46 18/47/47 17/48/48
f 17/49/49 18/50/50 23/51/51 24/52/52
f 19/53/53 20/54/54 14/55/55 13/56/56
f 22/57/57 23/58/58 18/59/59 16/60/60
f 24/61/61 21/62/62 15/63/63 17/64/64
f 13/65/65 14/66/66 22/67/67 21/68/68
f 14/69/69 20/70/70 23/71/71 22/72/72
f 24/73/73 23/74/74 20/75/75 19/76/76
f 19/77/77 13/78/78 21/79/79 24/80/80
f 33/81/81 34/82/82 28/83/83 27/84/84
f 27/85/85 28/86/86 30/87/87 29/88/88
f 29/89/89 30/90/90 35/91/91 36/92/92
f 31/93/93 32/94/94 26/95/95 25/96/96
f 34/97/97 35/98/98 30/99/99 28/100/100
f 36/101/101 33/102/102 27/103/103 29/104/104
f 25/105/105 26/106/106 34/107/107 33/108/108
f 26/109/109 32/110/110 35/111/111 34/112/112
f 36/113/113 35/114/114 32/115/115 31/116/116
f 31/117/117 25/118/118 33/119/119 36/120/120
f 37/121/121 38/122/122 40/123/123 39/124/124
f 39/125/125 40/126/126 42/127/127 41/128/128
f 41/129/129 42/130/130 44/131/131 43/132/132
f 43/133/133 44/134/134 38/135/135 37/136/136
f 54/137/137 53/138/138 55/139/139 56/140/140
f 49/141/141 50/142/142 51/143/143 52/144/144
f 43/145/145 37/146/146 46/147/147 45/148/148
f 37/149/149 39/150/150 47/151/151 46/152/152
f 39/153/153 41/154/154 48/155/155 47/156/156
f 41/157/157 43/158/158 45/159/159 48/160/160
f 45/161/161 46/162/162 50/163/163 49/164/164
f 46/165/165 47/166/166 51/167/167 50/168/168
f 47/169/169 48/170/170 52/171/171 51/172/172
f 48/173/173 45/174/174 49/175/175 52/176/176
f 38/177/177 44/178/178 53/179/179 54/180/180
f 44/178/181 42/181/182 55/182/183 53/179/184
f 42/181/185 40/183/186 56/184/187 55/182/188
f 40/183/189 38/177/190 54/180/191 56/184/192
