# This file uses meters as units for non-parametric coordinates.

v -0.157052 0.000000 0.169955
v 0.182860 0.000000 0.169955
v -0.157052 0.214918 0.169955
v 0.182860 0.214918 0.169955
v -0.157052 0.214918 -0.169955
v 0.182860 0.214918 -0.169955
v -0.157052 0.000000 -0.169955
v 0.182860 0.000000 -0.169955
v -0.113422 0.308361 0.126327
v 0.139228 0.308361 0.126327
v 0.139228 0.308361 -0.126327
v -0.113422 0.308361 -0.126327
v -0.113422 0.640746 0.126327
v 0.139228 0.640746 0.126327
v 0.139228 0.640746 -0.126327
v -0.113422 0.640746 -0.126327
v -0.146038 0.644973 0.158941
v 0.171828 0.644973 0.158941
v 0.171828 0.644973 -0.158942
v -0.146038 0.644973 -0.158942
v -0.146038 0.702037 0.158941
v 0.171828 0.702037 0.158941
v 0.171828 0.702037 -0.158942
v -0.146038 0.702037 -0.158942
v -0.088573 0.730015 0.101477
v 0.114382 0.730015 0.101477
v 0.114382 0.730015 -0.101477
v -0.088573 0.730015 -0.101477
v -0.157052 0.066584 -0.064647
v -0.157052 0.066584 0.064647
v -0.157052 0.148334 0.064647
v -0.157052 0.148334 -0.064647
v -0.207414 0.066584 -0.064647
v -0.207414 0.066584 0.064647
v -0.207414 0.148334 0.064647
v -0.207414 0.148334 -0.064647
v -0.146038 0.644973 0.021871
v -0.146038 0.644973 -0.021871
v -0.146038 0.702037 0.021871
v -0.146038 0.702037 -0.021871
v -0.174927 0.644973 0.021871
v -0.174927 0.644973 -0.021871
v -0.146038 0.871942 0.021871
v -0.146038 0.871942 -0.021871
v -0.174927 0.902827 -0.021871
v -0.174927 0.902827 0.021871
v 0.171950 0.872271 0.021880
v 0.171950 0.872271 -0.021880
v 0.207286 0.902827 -0.021871
v 0.207286 0.902827 0.021871
v 0.171828 0.644973 0.021889
v 0.171828 0.644973 -0.021889
v 0.171828 0.702037 -0.021889
v 0.171828 0.702037 0.021889
v 0.207414 0.644973 0.021889
v 0.207414 0.644973 -0.021889
vt 0.174075 0.473103
vt 0.146746 0.473103
vt 0.175051 0.473103
vt 0.202381 0.473103
vt 0.202381 0.473103
vt 0.175051 0.473103
vt 0.174075 0.473103
vt 0.146746 0.473103
vt 0.174075 0.473103
vt 0.174075 0.473103
vt 0.174075 0.473103
vt 0.174075 0.473103
vt 0.174075 0.473103
vt 0.174075 0.473103
vt 0.175051 0.473103
vt 0.202381 0.473103
vt 0.175051 0.473103
vt 0.202381 0.473103
vt 0.146746 0.473103
vt 0.174075 0.473103
vt 0.146746 0.473103
vt 0.174075 0.473103
vt 0.146746 0.473103
vt 0.174075 0.473103
vt 0.146746 0.473103
vt 0.174075 0.473103
vt 0.175051 0.473103
vt 0.202381 0.473103
vt 0.175051 0.473103
vt 0.202381 0.473103
vt 0.231662 0.473103
vt 0.202381 0.473103
vt 0.175051 0.473103
vt 0.202381 0.473103
vt 0.457128 0.265206
vt 0.484457 0.265206
vt 0.484457 0.265206
vt 0.457128 0.265206
vt 0.457128 0.265206
vt 0.457128 0.265206
vt 0.484457 0.265206
vt 0.484457 0.265206
vt 0.175051 0.473103
vt 0.202381 0.473103
vt 0.175051 0.473103
vt 0.231662 0.473103
vt 0.202381 0.473103
vt 0.231662 0.473103
vt 0.174075 0.473103
vt 0.146746 0.473103
vt 0.175051 0.473103
vt 0.231662 0.473103
vt 0.174075 0.473103
vt 0.202381 0.473103
vt 0.174075 0.473103
vt 0.146746 0.473103
vt 0.174075 0.473103
vt 0.202381 0.473103
vt 0.174075 0.473103
vt 0.146746 0.473103
vt 0.174075 0.473103
vt 0.174075 0.473103
vt 0.174075 0.473103
vt 0.146746 0.473103
vt 0.174075 0.473103
vt 0.174075 0.473103
vt 0.146746 0.473103
vt 0.146746 0.473103
vt 0.146746 0.473103
vt 0.174075 0.473103
vt 0.174075 0.473103
vt 0.146746 0.473103
vt 0.174075 0.473103
vt 0.174075 0.473103
vt 0.457128 0.265206
vt 0.202381 0.473103
vt 0.484457 0.265206
vt 0.174075 0.473103
vt 0.457128 0.265206
vt 0.146746 0.473103
vt 0.484457 0.265206
vt 0.174075 0.473103
vt 0.175051 0.473103
vt 0.457128 0.265206
vt 0.202381 0.473103
vt 0.484457 0.265206
vt 0.175051 0.473103
vt 0.457128 0.265206
vt 0.202381 0.473103
vt 0.484457 0.265206
vt 0.146746 0.473103
vt 0.202381 0.473103
vt 0.175051 0.473103
vt 0.146746 0.473103
vt 0.175051 0.473103
vt 0.146746 0.473103
vt 0.175051 0.473103
vt 0.146746 0.473103
vt 0.175051 0.473103
vt 0.146746 0.473103
vt 0.143818 0.473103
vt 0.143818 0.473103
vt 0.232638 0.473103
vt 0.143818 0.473103
vt 0.198476 0.473103
vt 0.143818 0.473103
vt 0.232638 0.473103
vt 0.143818 0.473103
vt 0.232638 0.473103
vt 0.198476 0.473103
vt 0.143818 0.473103
vt 0.143818 0.473103
vt 0.143818 0.473103
vt 0.198476 0.473103
vt 0.174075 0.473103
vt 0.232638 0.473103
vt 0.143818 0.473103
vt 0.198476 0.473103
vt 0.174075 0.473103
vt 0.143818 0.473103
vt 0.174075 0.473103
vt 0.143818 0.473103
vt 0.174075 0.473103
vt 0.143818 0.473103
vt 0.264847 0.473103
vt 0.264847 0.473103
vt 0.204333 0.473103
vt 0.302913 0.473103
vt 0.264847 0.473103
vt 0.174075 0.473103
vt 0.264847 0.473103
vt 0.264847 0.473103
vt 0.330242 0.473103
vt 0.174075 0.473103
vt 0.264847 0.473103
vt 0.264847 0.473103
vt 0.204333 0.473103
vt 0.302913 0.473103
vt 0.264847 0.473103
vt 0.204333 0.473103
vt 0.264847 0.473103
vt 0.302913 0.473103
vt 0.264847 0.473103
vt 0.264847 0.473103
vt 0.264847 0.473103
vt 0.330242 0.473103
vt 0.302913 0.473103
vt 0.330242 0.473103
vt 0.264847 0.473103
vt 0.264847 0.473103
vt 0.174075 0.473103
vt 0.264847 0.473103
vt 0.204333 0.473103
vt 0.264847 0.473103
vt 0.264847 0.473103
vt 0.264847 0.473103
vt 0.174075 0.473103
vt 0.264847 0.473103
vt 0.264847 0.473103
vt 0.264847 0.473103
vt 0.302913 0.473103
vt 0.174075 0.473103
vt 0.264847 0.473103
vt 0.174075 0.473103
vt 0.264847 0.473103
vt 0.330242 0.473103
vt 0.264847 0.473103
vt 0.264847 0.473103
vt 0.204333 0.473103
vt 0.264847 0.473103
vt 0.264847 0.473103
vt 0.264847 0.473103
vt 0.302913 0.473103
vt 0.302913 0.473103
vt 0.264847 0.473103
vt 0.264847 0.473103
vt 0.174075 0.473103
vt 0.264847 0.473103
vt 0.264847 0.473103
vt 0.264847 0.473103
vt 0.264847 0.473103
vt 0.302913 0.473103
vt 0.174075 0.473103
vt 0.264847 0.473103
vt 0.174075 0.473103
vt 0.264847 0.473103
vt 0.174075 0.473103
vt 0.204333 0.473103
vt 0.204333 0.473103
vt 0.174075 0.473103
vt 0.204333 0.473103
vt 0.174075 0.473103
vn 0.000000 0.000000 1.000000
vn 0.000000 0.000000 1.000000
vn 0.000000 0.000000 1.000000
vn 0.000000 0.000000 1.000000
vn 0.000000 1.000000 0.000000
vn 0.000000 1.000000 0.000000
vn 0.000000 1.000000 0.000000
vn 0.000000 1.000000 0.000000
vn 0.000000 0.000000 -1.000000
vn 0.000000 0.000000 -1.000000
vn 0.000000 0.000000 -1.000000
vn 0.000000 0.000000 -1.000000
vn 0.000000 -1.000000 0.000000
vn 0.000000 -1.000000 0.000000
vn 0.000000 -1.000000 0.000000
vn 0.000000 -1.000000 0.000000
vn 1.000000 0.000000 0.000000
vn 1.000000 0.000000 0.000000
vn 1.000000 0.000000 0.000000
vn 1.000000 0.000000 0.000000
vn -1.000000 0.000000 0.000000
vn -1.000000 0.000000 0.000000
vn -1.000000 0.000000 0.000000
vn -1.000000 0.000000 0.000000
vn 0.000000 0.423056 0.906104
vn 0.000000 0.423056 0.906104
vn 0.000000 0.423056 0.906104
vn 0.000000 0.423056 0.906104
vn 0.906087 0.423091 0.000000
vn 0.906087 0.423091 0.000000
vn 0.906087 0.423091 0.000000
vn 0.906087 0.423091 0.000000
vn 0.000000 0.423051 -0.906106
vn 0.000000 0.423051 -0.906106
vn 0.000000 0.423051 -0.906106
vn 0.000000 0.423051 -0.906106
vn -0.906097 0.423070 0.000000
vn -0.906097 0.423070 0.000000
vn -0.906097 0.423070 0.000000
vn -0.906097 0.423070 0.000000
vn 0.000000 0.000000 1.000000
vn 0.000000 0.000000 1.000000
vn 0.000000 0.000000 1.000000
vn 0.000000 0.000000 1.000000
vn 1.000000 0.000000 0.000000
vn 1.000000 0.000000 0.000000
vn 1.000000 0.000000 0.000000
vn 1.000000 0.000000 0.000000
vn 0.000000 0.000000 -1.000000
vn 0.000000 0.000000 -1.000000
vn 0.000000 0.000000 -1.000000
vn 0.000000 0.000000 -1.000000
vn -1.000000 0.000000 0.000000
vn -1.000000 0.000000 0.000000
vn -1.000000 0.000000 0.000000
vn -1.000000 0.000000 0.000000
vn 0.000000 -0.991706 0.128526
vn 0.000000 -0.991706 0.128526
vn 0.000000 -0.991706 0.128526
vn 0.000000 -0.991706 0.128526
vn 0.128580 -0.991699 0.000000
vn 0.128580 -0.991699 0.000000
vn 0.128580 -0.991699 0.000000
vn 0.128580 -0.991699 0.000000
vn 0.000000 -0.991706 -0.128528
vn 0.000000 -0.991706 -0.128528
vn 0.000000 -0.991706 -0.128528
vn 0.000000 -0.991706 -0.128528
vn -0.128520 -0.991707 0.000000
vn -0.128520 -0.991707 0.000000
vn -0.128520 -0.991707 0.000000
vn -0.128520 -0.991707 0.000000
vn 0.000000 0.000000 1.000000
vn 0.000000 0.000000 1.000000
vn 0.000000 0.000000 1.000000
vn 0.000000 0.000000 1.000000
vn 0.000000 0.000000 -1.000000
vn 0.000000 0.000000 -1.000000
vn 0.000000 0.000000 -1.000000
vn 0.000000 0.000000 -1.000000
vn -1.000000 0.000000 0.000000
vn -1.000000 0.000000 0.000000
vn -1.000000 0.000000 0.000000
vn -1.000000 0.000000 0.000000
vn 0.000000 0.899097 0.437750
vn 0.000000 0.899097 0.437750
vn 0.000000 0.899097 0.437750
vn 0.000000 0.899097 0.437750
vn 0.437857 0.899045 0.000000
vn 0.437857 0.899045 0.000000
vn 0.437857 0.899045 0.000000
vn 0.437857 0.899045 0.000000
vn 0.000000 0.899096 -0.437751
vn 0.000000 0.899096 -0.437751
vn 0.000000 0.899096 -0.437751
vn 0.000000 0.899096 -0.437751
vn -0.437745 0.899099 0.000000
vn -0.437745 0.899099 0.000000
vn -0.437745 0.899099 0.000000
vn -0.437745 0.899099 0.000000
vn -1.000000 -0.000000 0.000000
vn -1.000000 -0.000000 0.000000
vn -1.000000 -0.000000 0.000000
vn -1.000000 -0.000000 0.000000
vn -1.000000 -0.000000 0.000000
vn -1.000000 -0.000000 0.000000
vn -1.000000 -0.000000 0.000000
vn -1.000000 -0.000000 0.000000
vn -1.000000 -0.000000 0.000000
vn -1.000000 -0.000000 0.000000
vn -1.000000 -0.000000 0.000000
vn -1.000000 -0.000000 0.000000
vn -1.000000 -0.000000 0.000000
vn -1.000000 -0.000000 0.000000
vn -1.000000 -0.000000 0.000000
vn -1.000000 -0.000000 0.000000
vn 0.000000 -1.000000 0.000000
vn 0.000000 -1.000000 0.000000
vn 0.000000 -1.000000 0.000000
vn 0.000000 -1.000000 0.000000
vn 0.000000 0.000000 1.000000
vn 0.000000 0.000000 1.000000
vn 0.000000 0.000000 1.000000
vn 0.000000 0.000000 1.000000
vn 0.000000 1.000000 0.000000
vn 0.000000 1.000000 0.000000
vn 0.000000 1.000000 0.000000
vn 0.000000 1.000000 0.000000
vn 0.000000 0.000000 -1.000000
vn 0.000000 0.000000 -1.000000
vn 0.000000 0.000000 -1.000000
vn 0.000000 0.000000 -1.000000
vn 0.000000 0.000000 0.000000
vn 0.000000 0.000000 0.000000
vn 0.000000 1.000000 0.000000
vn 0.000000 1.000000 0.000000
vn -1.000000 0.000000 0.000000
vn -1.000000 0.000000 0.000000
vn -1.000000 0.000000 0.000000
vn -1.000000 0.000000 0.000000
vn 0.000000 -0.000000 0.000000
vn 0.000000 -0.000000 0.000000
vn 0.000000 -1.000000 0.000000
vn 0.000000 -1.000000 0.000000
vn -1.000000 0.000000 0.000000
vn -1.000000 0.000000 0.000000
vn -1.000000 0.000000 0.000000
vn -1.000000 0.000000 0.000000
vn 0.000000 -1.000000 0.000000
vn 0.000000 -1.000000 0.000000
vn 0.000000 -1.000000 0.000000
vn 0.000000 -1.000000 0.000000
vn 0.000000 0.000000 1.000000
vn 0.000000 0.000000 1.000000
vn 0.000000 0.000000 1.000000
vn -0.000007 0.000085 1.000000
vn -0.000008 0.000089 1.000000
vn 1.000000 0.000000 0.000000
vn 1.000000 0.000000 0.000000
vn 1.000000 0.000000 0.000000
vn 1.000000 0.000000 0.000000
vn -0.000000 0.000000 -1.000000
vn -0.000008 0.000090 -1.000000
vn -0.000008 0.000086 -1.000000
vn -0.000000 0.000000 -1.000000
vn -0.000000 0.000000 -1.000000
vn 0.001035 -1.000000 0.000000
vn 0.001035 -1.000000 0.000000
vn 0.001035 -0.999999 0.000000
vn 0.001035 -0.999999 0.000000
vn -0.000008 0.000086 -1.000000
vn -0.000008 0.000090 -1.000000
vn 0.000057 0.000100 -1.000000
vn 0.000048 0.000105 -1.000000
vn 0.000000 1.000000 0.000000
vn 0.000000 1.000000 0.000000
vn 0.000000 1.000000 0.000000
vn 0.000000 1.000000 0.000000
vn -0.000008 0.000089 1.000000
vn -0.000007 0.000085 1.000000
vn 0.000048 0.000104 1.000000
vn 0.000056 0.000099 1.000000
vn 0.128580 -0.991699 0.000000
vn 0.128580 -0.991699 0.000000
vn 0.000000 -1.000000 0.000000
vn 0.000000 -1.000000 0.000000
vn 1.000000 0.000000 0.000000
vn 1.000000 0.000000 0.000000
vn 1.000000 0.000000 0.000000
vn 1.000000 0.000000 0.000000
vn 0.000000 -0.000000 0.000000
vn 0.000000 -0.000000 0.000000
vn 0.000000 -1.000000 0.000000
vn 0.000000 -1.000000 0.000000
vn 1.000000 0.000000 0.000000
vn 1.000000 0.000000 0.000000
vn 1.000000 0.000000 0.000000
vn 1.000000 0.000000 0.000000
vn 0.000000 -1.000000 0.000000
vn 0.000000 -1.000000 0.000000
vn 0.000000 -1.000000 0.000000
vn 0.000000 -1.000000 0.000000
vn 0.000129 0.000054 -1.000000
vn 0.000129 0.000054 -1.000000
vn 0.000129 0.000054 -1.000000
vn 0.000048 0.000105 -1.000000
vn 0.000057 0.000100 -1.000000
vn -1.000000 0.000715 0.000000
vn -1.000000 0.000715 0.000000
vn -1.000000 0.000715 0.000000
vn -1.000000 0.000715 0.000000
vn 0.000128 0.000054 1.000000
vn 0.000056 0.000099 1.000000
vn 0.000048 0.000104 1.000000
vn 0.000128 0.000054 1.000000
vn 0.000128 0.000054 1.000000
vn 1.000000 0.000497 -0.000001
vn 1.000000 0.000497 -0.000001
vn 1.000000 0.000497 -0.000001
vn 1.000000 0.000497 -0.000001
s off
f 1/67/1 2/2/2 4/80/3 3/100/4
f 25/31/5 26/52/6 27/48/7 28/46/8
f 5/91/9 6/98/10 8/8/11 7/69/12
f 7/7/13 8/73/14 2/10/15 1/9/16
f 2/71/17 8/11/18 6/12/19 4/82/20
f 33/105/21 34/118/22 35/114/23 36/110/24
f 3/3/25 4/99/26 10/87/27 9/15/28
f 4/4/29 6/92/30 11/85/31 10/16/32
f 6/6/33 5/97/34 12/83/35 11/17/36
f 5/5/37 3/76/38 9/89/39 12/18/40
f 9/35/41 10/88/42 14/79/43 13/38/44
f 10/36/45 11/86/46 15/77/47 14/37/48
f 11/39/49 12/84/50 16/75/51 15/40/52
f 12/41/53 9/90/54 13/81/55 16/42/56
f 13/19/57 14/72/58 18/64/59 17/23/60
f 14/20/61 15/70/62 19/61/63 18/63/64
f 15/21/65 16/68/66 20/60/67 19/25/68
f 16/22/69 13/74/70 17/65/71 20/59/72
f 17/23/73 18/64/74 22/56/75 21/96/76
f 19/25/77 20/60/78 24/50/79 23/94/80
f 42/128/81 41/182/82 46/173/83 45/174/84
f 21/27/85 22/95/86 26/51/87 25/43/88
f 22/28/89 23/54/90 27/47/91 26/32/92
f 23/29/93 24/93/94 28/45/95 27/33/96
f 24/30/97 21/58/98 25/44/99 28/34/100
f 7/13/101 1/1/102 30/121/103 29/123/104
f 1/1/105 3/78/106 31/119/107 30/121/108
f 3/78/109 5/14/110 32/115/111 31/119/112
f 5/14/113 7/13/114 29/123/115 32/115/116
f 29/101/117 30/122/118 34/117/119 33/111/120
f 30/102/121 31/120/122 35/113/123 34/106/124
f 31/103/125 32/116/126 36/109/127 35/107/128
f 32/104/129 29/124/130 33/112/131 36/108/132
f 20/26/133 17/66/134 37/185/135 38/183/136
f 17/66/137 21/57/138 39/192/139 37/185/140
f 21/57/141 24/49/142 40/177/143 39/192/144
f 24/49/145 20/26/146 38/183/147 40/177/148
f 38/125/149 37/186/150 41/181/151 42/179/152
f 41/129/153 37/126/154 39/178/155 43/170/156 46/172/157
f 39/127/158 40/191/159 44/169/160 43/189/161
f 42/180/162 45/175/163 44/168/164 40/176/165 38/184/166
f 43/130/167 44/190/168 48/151/169 47/134/170
f 44/131/171 45/167/172 49/149/173 48/150/174
f 45/133/175 46/166/176 50/146/177 49/148/178
f 46/132/179 43/171/180 47/154/181 50/145/182
f 18/24/183 19/62/184 52/162/185 51/164/186
f 19/62/187 23/53/188 53/187/189 52/162/190
f 23/53/191 22/55/192 54/157/193 53/187/194
f 22/55/195 18/24/196 51/164/197 54/157/198
f 51/135/199 52/163/200 56/160/201 55/158/202
f 56/139/203 52/136/204 53/155/205 48/152/206 49/143/207
f 53/137/208 54/188/209 47/153/210 48/140/211
f 55/159/212 50/144/213 47/141/214 54/156/215 51/165/216
f 56/161/217 49/147/218 50/142/219 55/138/220
