# This file uses meters as units for non-parametric coordinates.

v -0.114176 0.000000 0.200731
v 0.114182 0.000000 0.200731
v -0.114176 0.085917 0.200731
v 0.114182 0.085917 0.200731
v -0.114176 0.085917 -0.027631
v 0.114182 0.085917 -0.027631
v -0.114176 0.000000 -0.027631
v 0.114182 0.000000 -0.027631
v -0.096334 0.085917 0.182886
v 0.096334 0.085917 0.182886
v 0.096334 0.085917 -0.009786
v -0.096334 0.085917 -0.009786
v -0.010050 0.085917 0.182886
v 0.010059 0.085917 0.182886
v 0.010059 0.085917 -0.009786
v -0.010050 0.085917 -0.009786
v -0.019802 0.085917 0.200731
v 0.019806 0.085917 0.200731
v 0.019806 0.085917 0.182886
v -0.019802 0.085917 0.182886
v -0.019802 0.153329 0.200731
v 0.019806 0.153329 0.200731
v 0.019806 0.153329 0.182886
v -0.019802 0.153329 0.182886
v -0.114182 0.055161 -0.072176
v 0.114182 0.055161 -0.072176
v -0.114182 0.085917 -0.027021
v 0.114182 0.085917 -0.027021
v -0.114182 0.274657 -0.155577
v 0.114182 0.274657 -0.155577
v -0.114182 0.243901 -0.200731
v 0.114182 0.243901 -0.200731
v -0.092442 0.103885 -0.039260
v 0.092442 0.103885 -0.039260
v 0.092442 0.256688 -0.143338
v -0.092442 0.256688 -0.143338
v 0.060177 0.085917 0.126674
v 0.060177 0.085917 0.046427
v 0.020220 0.085917 0.046427
v 0.020220 0.085917 0.126674
v -0.057207 0.085917 0.126674
v -0.057207 0.085917 0.046427
v -0.017246 0.085917 0.126674
v -0.017246 0.085917 0.046427
vt 0.237238 0.059521
vt 0.206337 0.059521
vt 0.261379 0.059521
vt 0.237238 0.059521
vt 0.206337 0.059521
vt 0.261379 0.059521
vt 0.237238 0.059521
vt 0.206337 0.059521
vt 0.237238 0.059521
vt 0.237238 0.059521
vt 0.237238 0.059521
vt 0.237238 0.059521
vt 0.237238 0.059521
vt 0.237238 0.059521
vt 0.261379 0.059521
vt 0.206337 0.059521
vt 0.206337 0.059521
vt 0.261379 0.059521
vt 0.237238 0.059521
vt 0.206337 0.059521
vt 0.237238 0.059521
vt 0.206337 0.059521
vt 0.206337 0.059521
vt 0.237238 0.059521
vt 0.261379 0.059521
vt 0.261379 0.059521
vt 0.261379 0.059521
vt 0.261379 0.059521
vt 0.392710 0.063383
vt 0.392710 0.063383
vt 0.392710 0.063383
vt 0.392710 0.063383
vt 0.392710 0.063383
vt 0.392710 0.063383
vt 0.392710 0.063383
vt 0.392710 0.063383
vt 0.111702 0.471857
vt 0.111702 0.471857
vt 0.111702 0.471857
vt 0.111702 0.471857
vt 0.234341 0.059521
vt 0.206337 0.059521
vt 0.234341 0.059521
vt 0.206337 0.059521
vt 0.261379 0.059521
vt 0.206337 0.059521
vt 0.234341 0.059521
vt 0.206337 0.059521
vt 0.234341 0.059521
vt 0.206337 0.059521
vt 0.234341 0.059521
vt 0.261379 0.059521
vt 0.206337 0.059521
vt 0.261379 0.059521
vt 0.261379 0.059521
vt 0.234341 0.059521
vt 0.234341 0.059521
vt 0.261379 0.059521
vt 0.261379 0.059521
vt 0.206337 0.059521
vt 0.261379 0.059521
vt 0.234341 0.059521
vt 0.261379 0.059521
vt 0.206337 0.059521
vt 0.177367 0.062418
vt 0.177367 0.062418
vt 0.177367 0.062418
vt 0.177367 0.062418
vt 0.208268 0.062418
vt 0.208268 0.062418
vt 0.208268 0.062418
vt 0.208268 0.062418
vt 0.253654 0.062418
vt 0.253654 0.062418
vt 0.253654 0.062418
vt 0.253654 0.062418
vt 0.175436 0.062418
vt 0.175436 0.062418
vt 0.175436 0.062418
vt 0.175436 0.062418
vt 0.205371 0.062418
vt 0.205371 0.062418
vt 0.205371 0.062418
vt 0.205371 0.062418
vt 0.205371 0.062418
vt 0.205371 0.062418
vt 0.205371 0.062418
vt 0.205371 0.062418
vt 0.231444 0.062418
vt 0.231444 0.062418
vt 0.231444 0.062418
vt 0.231444 0.062418
vt 0.231444 0.062418
vt 0.231444 0.062418
vt 0.231444 0.062418
vt 0.231444 0.062418
vt 0.359489 0.061429
vt 0.392710 0.063383
vt 0.392710 0.063383
vt 0.392710 0.063383
vt 0.359489 0.061429
vt 0.392710 0.063383
vt 0.392710 0.063383
vt 0.392710 0.063383
vt 0.392710 0.063383
vt 0.359489 0.061429
vt 0.359489 0.061429
vt 0.359489 0.061429
vt 0.392710 0.063383
vt 0.359489 0.061429
vt 0.359489 0.061429
vt 0.359489 0.061429
vn 0.000000 0.000000 1.000000
vn 0.000000 0.000000 1.000000
vn 0.000000 0.000000 1.000000
vn 0.000000 0.000000 1.000000
vn 0.000000 1.000000 0.000000
vn 0.000000 1.000000 0.000000
vn 0.000000 1.000000 0.000000
vn 0.000000 1.000000 -0.000000
vn 0.000000 0.000000 -1.000000
vn 0.000000 0.000000 -1.000000
vn 0.000000 0.000000 -1.000000
vn 0.000000 0.000000 -1.000000
vn 0.000000 -1.000000 0.000000
vn 0.000000 -1.000000 0.000000
vn 0.000000 -1.000000 0.000000
vn 0.000000 -1.000000 0.000000
vn 1.000000 0.000000 0.000000
vn 1.000000 0.000000 0.000000
vn 1.000000 0.000000 0.000000
vn 1.000000 0.000000 0.000000
vn -1.000000 0.000000 0.000000
vn -1.000000 0.000000 0.000000
vn -1.000000 0.000000 0.000000
vn -1.000000 0.000000 0.000000
vn 0.000000 1.000000 0.000000
vn 0.000000 1.000000 0.000000
vn 0.000000 1.000000 0.000000
vn 0.000000 1.000000 0.000000
vn 0.000000 1.000000 0.000000
vn 0.000000 1.000000 -0.000000
vn 0.000000 1.000000 -0.000000
vn 0.000000 1.000000 0.000000
vn 0.000000 1.000000 -0.000000
vn 0.000000 1.000000 -0.000000
vn 0.000000 1.000000 -0.000000
vn 0.000000 1.000000 -0.000000
vn 0.000000 1.000000 -0.000000
vn 0.000000 1.000000 0.000000
vn 0.000000 1.000000 0.000000
vn 0.000000 1.000000 -0.000000
vn 0.000000 0.000000 0.000000
vn 0.000000 0.000000 0.000000
vn 0.000000 0.000000 1.000000
vn 0.000000 0.000000 1.000000
vn 0.000000 1.000000 0.000000
vn 0.000000 1.000000 0.000000
vn 0.000000 1.000000 0.000000
vn 0.000000 1.000000 0.000000
vn 0.000000 0.000000 0.000000
vn 0.000000 0.000000 0.000000
vn 0.000000 0.000000 0.000000
vn 0.000000 0.000000 0.000000
vn 0.000000 1.000000 -0.000000
vn 0.000000 1.000000 0.000000
vn 0.000000 1.000000 0.000000
vn 0.000000 1.000000 -0.000000
vn 0.000000 0.000000 0.000000
vn 0.000000 0.000000 0.000000
vn 0.000000 0.000000 0.000000
vn 0.000000 0.000000 0.000000
vn 0.000000 1.000000 0.000000
vn 0.000000 1.000000 0.000000
vn 0.000000 1.000000 0.000000
vn 0.000000 1.000000 0.000000
vn 0.000000 0.000000 0.000000
vn 0.000000 0.000000 0.000000
vn 0.000000 0.000000 0.000000
vn 0.000000 0.000000 0.000000
vn 0.000000 1.000000 0.000000
vn 0.000000 1.000000 0.000000
vn 0.000000 1.000000 0.000000
vn 0.000000 1.000000 0.000000
vn 0.000000 0.000000 1.000000
vn 0.000000 0.000000 1.000000
vn 0.000000 0.000000 1.000000
vn 0.000000 0.000000 1.000000
vn 1.000000 0.000000 0.000000
vn 1.000000 0.000000 0.000000
vn 1.000000 0.000000 0.000000
vn 1.000000 0.000000 0.000000
vn 0.000000 0.000000 -1.000000
vn 0.000000 0.000000 -1.000000
vn 0.000000 0.000000 -1.000000
vn 0.000000 0.000000 -1.000000
vn -1.000000 0.000000 0.000000
vn -1.000000 0.000000 0.000000
vn -1.000000 0.000000 0.000000
vn -1.000000 0.000000 0.000000
vn 0.000000 -0.826493 0.562947
vn 0.000000 -0.826493 0.562947
vn 0.000000 -0.826493 0.562947
vn 0.000000 -0.826493 0.562947
vn 0.000000 0.562947 0.826493
vn -0.000000 0.562947 0.826493
vn -0.000000 0.562946 0.826494
vn 0.000000 0.562946 0.826494
vn 0.000000 0.826493 -0.562947
vn 0.000000 0.826493 -0.562947
vn 0.000000 0.826493 -0.562947
vn 0.000000 0.826493 -0.562947
vn 0.000000 -0.562946 -0.826493
vn 0.000000 -0.562946 -0.826493
vn 0.000000 -0.562946 -0.826493
vn 0.000000 -0.562946 -0.826493
vn 1.000000 -0.000000 0.000000
vn 1.000000 -0.000000 0.000000
vn 1.000000 -0.000000 0.000000
vn 1.000000 -0.000000 0.000000
vn -1.000000 0.000000 0.000000
vn -1.000000 0.000000 0.000000
vn -1.000000 0.000000 0.000000
vn -1.000000 0.000000 0.000000
vn 0.000001 0.562947 0.826493
vn -0.000001 0.562947 0.826493
vn -0.000000 0.562947 0.826493
vn 0.000000 0.562947 0.826493
vn -0.000001 0.562947 0.826493
vn -0.000001 0.562946 0.826494
vn -0.000000 0.562946 0.826494
vn -0.000000 0.562947 0.826493
vn -0.000001 0.562946 0.826494
vn 0.000001 0.562946 0.826494
vn 0.000000 0.562946 0.826494
vn -0.000000 0.562946 0.826494
vn 0.000001 0.562946 0.826494
vn 0.000001 0.562947 0.826493
vn 0.000000 0.562947 0.826493
vn 0.000000 0.562946 0.826494
vn 0.000000 1.000000 0.000000
vn 0.000000 1.000000 -0.000000
vn 0.000000 1.000000 0.000000
vn 0.000000 1.000000 0.000000
vn 0.000000 1.000000 -0.000000
vn 0.000000 1.000000 0.000000
vn 0.000000 1.000000 0.000000
vn 0.000000 1.000000 0.000000
vn 0.000000 1.000000 0.000000
vn 0.000000 1.000000 0.000000
vn 0.000000 1.000000 0.000000
vn 0.000000 1.000000 0.000000
vn 0.000000 1.000000 0.000000
vn 0.000000 1.000000 0.000000
vn 0.000000 1.000000 0.000000
vn 0.000000 1.000000 0.000000
vn 0.000000 1.000000 -0.000000
vn 0.000000 1.000000 0.000000
vn 0.000000 1.000000 0.000000
vn 0.000000 1.000000 -0.000000
vn 0.000000 1.000000 0.000000
vn 0.000000 1.000000 0.000000
vn 0.000000 1.000000 0.000000
vn 0.000000 1.000000 0.000000
vn 0.000000 1.000000 0.000000
vn 0.000000 1.000000 -0.000000
vn 0.000000 1.000000 -0.000000
vn 0.000000 1.000000 0.000000
vn 0.000000 1.000000 -0.000000
vn 0.000000 1.000000 -0.000000
vn 0.000000 1.000000 -0.000000
vn 0.000000 1.000000 -0.000000
s off
f 1/23/1 2/2/2 4/22/3 3/17/4
f 13/37/5 14/38/6 15/39/7 16/40/8
f 5/5/9 6/16/10 8/8/11 7/20/12
f 7/7/13 8/19/14 2/10/15 1/9/16
f 2/21/17 8/11/18 6/12/19 4/4/20
f 7/13/21 1/1/22 3/24/23 5/14/24
f 21/45/25 22/58/26 23/54/27 24/52/28
f 4/15/29 6/6/30 11/27/31 10/26/32
f 6/6/33 5/18/34 12/28/35 11/27/36
f 5/18/37 3/3/38 9/25/39 12/28/40
f 9/29/41 10/30/42 14/34/43 13/33/44
f 37/97/45 38/112/46 39/111/47 40/110/48
f 11/31/49 12/32/50 16/36/51 15/35/52
f 42/101/53 41/108/54 43/107/55 44/106/56
f 3/3/57 4/15/58 18/61/59 17/63/60
f 4/15/61 10/26/62 19/59/63 18/61/64
f 10/26/65 9/25/66 20/55/67 19/59/68
f 9/25/69 3/3/70 17/63/71 20/55/72
f 17/41/73 18/62/74 22/57/75 21/49/76
f 18/42/77 19/60/78 23/53/79 22/46/80
f 19/43/81 20/56/82 24/51/83 23/47/84
f 20/44/85 17/64/86 21/50/87 24/48/88
f 25/65/89 26/66/90 28/67/91 27/68/92
f 33/69/93 34/70/94 35/71/95 36/72/96
f 29/73/97 30/74/98 32/75/99 31/76/100
f 31/77/101 32/78/102 26/79/103 25/80/104
f 26/81/105 32/82/106 30/83/107 28/84/108
f 31/85/109 25/86/110 27/87/111 29/88/112
f 27/89/113 28/90/114 34/91/115 33/92/116
f 28/90/117 30/93/118 35/94/119 34/91/120
f 30/93/121 29/95/122 36/96/123 35/94/124
f 29/95/125 27/89/126 33/92/127 36/96/128
f 10/30/129 11/31/130 38/98/131 37/109/132
f 11/31/133 15/35/134 39/99/135 38/98/136
f 15/35/137 14/34/138 40/100/139 39/99/140
f 14/34/141 10/30/142 37/109/143 40/100/144
f 12/32/145 9/29/146 41/102/147 42/105/148
f 9/29/149 13/33/150 43/103/151 41/102/152
f 13/33/153 16/36/154 44/104/155 43/103/156
f 16/36/157 12/32/158 42/105/159 44/104/160
