# This file uses meters as units for non-parametric coordinates.

v -0.046659 0.056857 0.052893
v -0.048307 0.056857 0.209240
v -0.048307 0.213211 0.209241
v -0.046659 0.213211 0.052894
v -0.199442 0.075022 0.069448
v -0.200706 0.075022 0.189467
v -0.200706 0.195045 0.189467
v -0.199442 0.195045 0.069448
v -0.644595 0.017712 0.007440
v -0.647068 0.017711 0.242075
v -0.647068 0.252356 0.242076
v -0.644594 0.252356 0.007441
v -1.145989 0.113467 0.097917
v -1.146443 0.113468 0.141047
v -1.146443 0.156600 0.141049
v -1.145989 0.156600 0.097917
v -0.019672 0.094326 0.090647
v -0.020931 0.094326 0.172060
v -0.020931 0.175742 0.172060
v -0.019672 0.175742 0.090647
v 1.006738 0.175742 0.172060
v 1.006738 0.094326 0.172060
v 1.007998 0.094326 0.090647
v 1.007998 0.175742 0.090647
v 1.006869 0.167268 0.163586
v 1.006869 0.102800 0.163586
v 1.007867 0.102800 0.099120
v 1.007867 0.167268 0.099121
v -0.058326 0.018381 -0.232380
v -0.112440 0.018468 -0.085688
v -0.104650 0.174603 -0.082906
v -0.050535 0.174516 -0.229599
v -0.206673 0.044604 -0.267760
v -0.248214 0.044671 -0.155152
v -0.242233 0.164526 -0.153017
v -0.200693 0.164459 -0.265625
v -0.607335 0.010925 -0.476631
v -0.688546 0.011056 -0.256485
v -0.676855 0.245372 -0.252311
v -0.595643 0.245241 -0.472456
v -1.104528 0.133074 -0.558053
v -1.119456 0.133098 -0.517586
v -1.117308 0.176170 -0.516817
v -1.102379 0.176146 -0.557285
v -0.043771 0.054370 -0.187097
v -0.072327 0.054437 -0.110846
v -0.068270 0.135739 -0.109397
v -0.039714 0.135672 -0.185648
v 0.898222 0.081369 0.235627
v 0.894165 0.000067 0.234178
v 0.922722 0.000000 0.157927
v 0.926778 0.081302 0.159376
v 0.900772 0.072899 0.227539
v 0.897560 0.008522 0.226392
v 0.920172 0.008470 0.166014
v 0.923384 0.072847 0.167161
v 0.082587 0.033131 0.321023
v 0.093554 0.032637 0.476993
v 0.100592 0.188832 0.476993
v 0.089625 0.189327 0.321023
v -0.067389 0.058073 0.349856
v -0.058970 0.057694 0.469585
v -0.053568 0.177595 0.469586
v -0.061987 0.177974 0.349856
v -0.518220 0.021018 0.323983
v -0.501762 0.020276 0.558052
v -0.491200 0.254683 0.558053
v -0.507658 0.255424 0.323983
v -1.005866 0.138843 0.454637
v -1.002840 0.138707 0.497663
v -1.000898 0.181796 0.497664
v -1.003924 0.181932 0.454637
v 0.114191 0.069214 0.356474
v 0.119501 0.068975 0.437724
v 0.123166 0.150308 0.437725
v 0.117855 0.150548 0.356475
v 1.146444 0.104201 0.354772
v 1.142779 0.022868 0.354772
v 1.137468 0.023107 0.273522
v 1.141133 0.104441 0.273523
v 1.145510 0.095761 0.346315
v 1.142608 0.031359 0.346315
v 1.138403 0.031548 0.281979
v 1.141305 0.095950 0.281980
vt 0.239046 0.285493
vt 0.239046 0.285493
vt 0.239046 0.285493
vt 0.239046 0.285493
vt 0.105398 0.285493
vt 0.105398 0.285493
vt 0.105398 0.285493
vt 0.105398 0.285493
vt 0.137858 0.285493
vt 0.137858 0.285493
vt 0.137858 0.285493
vt 0.137857 0.285493
vt 0.170317 0.285493
vt 0.170317 0.285493
vt 0.170317 0.285493
vt 0.170317 0.285493
vt 0.137858 0.285493
vt 0.137858 0.285493
vt 0.137857 0.285493
vt 0.137857 0.285493
vt 0.142681 0.285493
vt 0.142681 0.285493
vt 0.142681 0.285493
vt 0.142681 0.285493
vt 0.175141 0.285493
vt 0.175141 0.285493
vt 0.175141 0.285493
vt 0.175141 0.285493
vt 0.207601 0.285493
vt 0.207601 0.285493
vt 0.207601 0.285493
vt 0.207601 0.285493
vt 0.175141 0.285493
vt 0.175141 0.285493
vt 0.175141 0.285493
vt 0.175141 0.285493
vt 0.171083 0.285493
vt 0.171083 0.285493
vt 0.171083 0.285493
vt 0.171083 0.285493
vt 0.203543 0.285493
vt 0.203543 0.285493
vt 0.203543 0.285493
vt 0.203543 0.285493
vt 0.236003 0.285493
vt 0.236003 0.285493
vt 0.236003 0.285493
vt 0.236003 0.285493
vt 0.203543 0.285493
vt 0.203543 0.285493
vt 0.203543 0.285493
vt 0.203543 0.285493
vt 0.142681 0.285493
vt 0.142681 0.285493
vt 0.142681 0.285493
vt 0.142681 0.285493
vt 0.175141 0.285493
vt 0.175141 0.285493
vt 0.175141 0.285493
vt 0.175141 0.285493
vt 0.207601 0.285493
vt 0.207601 0.285493
vt 0.207601 0.285493
vt 0.207601 0.285493
vt 0.175141 0.285493
vt 0.175141 0.285493
vt 0.175141 0.285493
vt 0.175141 0.285493
vt 0.222274 0.063269
vt 0.172253 0.063269
vt 0.172253 0.063269
vt 0.203747 0.063269
vt 0.172253 0.063269
vt 0.172253 0.063269
vt 0.172253 0.063269
vt 0.203748 0.063269
vt 0.203747 0.063269
vt 0.172253 0.063269
vt 0.172253 0.063269
vt 0.203747 0.063269
vt 0.172253 0.063269
vt 0.222274 0.063269
vt 0.222274 0.063269
vt 0.222274 0.063269
vt 0.222274 0.063269
vt 0.222274 0.063269
vt 0.222274 0.063269
vt 0.222274 0.063269
vt 0.111116 0.480111
vt 0.111116 0.480111
vt 0.111116 0.480111
vt 0.111116 0.480111
vt 0.239046 0.285493
vt 0.239046 0.285493
vt 0.239046 0.285493
vt 0.239046 0.285493
vt 0.105398 0.285493
vt 0.105398 0.285493
vt 0.105398 0.285493
vt 0.105398 0.285493
vt 0.137858 0.285493
vt 0.137858 0.285493
vt 0.137858 0.285493
vt 0.137857 0.285493
vt 0.170317 0.285493
vt 0.170317 0.285493
vt 0.170317 0.285493
vt 0.170317 0.285493
vt 0.137858 0.285493
vt 0.137858 0.285493
vt 0.137857 0.285493
vt 0.137857 0.285493
vt 0.142681 0.285493
vt 0.142681 0.285493
vt 0.142681 0.285493
vt 0.142681 0.285493
vt 0.175141 0.285493
vt 0.175141 0.285493
vt 0.175141 0.285493
vt 0.175141 0.285493
vt 0.207601 0.285493
vt 0.207601 0.285493
vt 0.207601 0.285493
vt 0.207601 0.285493
vt 0.175141 0.285493
vt 0.175141 0.285493
vt 0.175141 0.285493
vt 0.175141 0.285493
vt 0.171083 0.285493
vt 0.171083 0.285493
vt 0.171083 0.285493
vt 0.171083 0.285493
vt 0.203543 0.285493
vt 0.203543 0.285493
vt 0.203543 0.285493
vt 0.203543 0.285493
vt 0.236003 0.285493
vt 0.236003 0.285493
vt 0.236003 0.285493
vt 0.236003 0.285493
vt 0.203543 0.285493
vt 0.203543 0.285493
vt 0.203543 0.285493
vt 0.203543 0.285493
vt 0.142681 0.285493
vt 0.142681 0.285493
vt 0.142681 0.285493
vt 0.142681 0.285493
vt 0.175141 0.285493
vt 0.175141 0.285493
vt 0.175141 0.285493
vt 0.175141 0.285493
vt 0.207601 0.285493
vt 0.207601 0.285493
vt 0.207601 0.285493
vt 0.207601 0.285493
vt 0.175141 0.285493
vt 0.175141 0.285493
vt 0.175141 0.285493
vt 0.175141 0.285493
vt 0.111116 0.480111
vt 0.111116 0.480111
vt 0.111116 0.480111
vt 0.111116 0.480111
vt 0.172253 0.063269
vt 0.172253 0.063269
vt 0.172253 0.063269
vt 0.172253 0.063269
vt 0.172253 0.063269
vt 0.172253 0.063269
vt 0.172253 0.063269
vt 0.172253 0.063269
vt 0.203748 0.063269
vt 0.203747 0.063269
vt 0.203747 0.063269
vt 0.203747 0.063269
vt 0.222274 0.063269
vt 0.222274 0.063269
vt 0.222274 0.063269
vt 0.222274 0.063269
vt 0.222274 0.063269
vt 0.222274 0.063269
vt 0.222274 0.063269
vt 0.222274 0.063269
vt 0.239046 0.285493
vt 0.239046 0.285493
vt 0.239046 0.285493
vt 0.239046 0.285493
vt 0.105398 0.285493
vt 0.105398 0.285493
vt 0.105398 0.285493
vt 0.105398 0.285493
vt 0.137858 0.285493
vt 0.137858 0.285493
vt 0.137858 0.285493
vt 0.137857 0.285493
vt 0.170317 0.285493
vt 0.170317 0.285493
vt 0.170317 0.285493
vt 0.170317 0.285493
vt 0.137858 0.285493
vt 0.137858 0.285493
vt 0.137857 0.285493
vt 0.137857 0.285493
vt 0.142681 0.285493
vt 0.142681 0.285493
vt 0.142681 0.285493
vt 0.142681 0.285493
vt 0.175141 0.285493
vt 0.175141 0.285493
vt 0.175141 0.285493
vt 0.175141 0.285493
vt 0.207601 0.285493
vt 0.207601 0.285493
vt 0.207601 0.285493
vt 0.207601 0.285493
vt 0.175141 0.285493
vt 0.175141 0.285493
vt 0.175141 0.285493
vt 0.175141 0.285493
vt 0.171083 0.285493
vt 0.171083 0.285493
vt 0.171083 0.285493
vt 0.171083 0.285493
vt 0.203543 0.285493
vt 0.203543 0.285493
vt 0.203543 0.285493
vt 0.203543 0.285493
vt 0.236003 0.285493
vt 0.236003 0.285493
vt 0.236003 0.285493
vt 0.236003 0.285493
vt 0.203543 0.285493
vt 0.203543 0.285493
vt 0.203543 0.285493
vt 0.203543 0.285493
vt 0.142681 0.285493
vt 0.142681 0.285493
vt 0.142681 0.285493
vt 0.142681 0.285493
vt 0.175141 0.285493
vt 0.175141 0.285493
vt 0.175141 0.285493
vt 0.175141 0.285493
vt 0.207601 0.285493
vt 0.207601 0.285493
vt 0.207601 0.285493
vt 0.207601 0.285493
vt 0.175141 0.285493
vt 0.175141 0.285493
vt 0.175141 0.285493
vt 0.175141 0.285493
vt 0.111116 0.480111
vt 0.111116 0.480111
vt 0.111116 0.480111
vt 0.111116 0.480111
vt 0.172253 0.063269
vt 0.172253 0.063269
vt 0.172253 0.063269
vt 0.172253 0.063269
vt 0.172253 0.063269
vt 0.172253 0.063269
vt 0.172253 0.063269
vt 0.172253 0.063269
vt 0.203748 0.063269
vt 0.203747 0.063269
vt 0.203747 0.063269
vt 0.203747 0.063269
vt 0.222274 0.063269
vt 0.222274 0.063269
vt 0.222274 0.063269
vt 0.222274 0.063269
vt 0.222274 0.063269
vt 0.222274 0.063269
vt 0.222274 0.063269
vt 0.222274 0.063269
vn -0.999945 0.000000 -0.010535
vn -0.999945 0.000000 -0.010535
vn -0.999945 0.000000 -0.010535
vn -0.999945 0.000000 -0.010535
vn 0.809364 -0.587224 0.009895
vn 0.809364 -0.587224 0.009895
vn 0.809364 -0.587224 0.009895
vn 0.809364 -0.587224 0.009895
vn 0.805262 -0.000002 0.592919
vn 0.805262 -0.000002 0.592919
vn 0.805262 -0.000002 0.592919
vn 0.805262 -0.000002 0.592919
vn 0.809362 0.587227 0.009895
vn 0.809362 0.587227 0.009895
vn 0.809362 0.587227 0.009895
vn 0.809362 0.587227 0.009895
vn 0.813525 0.000003 -0.581529
vn 0.813525 0.000003 -0.581529
vn 0.813525 0.000003 -0.581529
vn 0.813525 0.000003 -0.581529
vn -0.118199 -0.992989 -0.001245
vn -0.118199 -0.992989 -0.001245
vn -0.118199 -0.992989 -0.001245
vn -0.118199 -0.992989 -0.001245
vn -0.128669 -0.000003 0.991688
vn -0.128669 -0.000003 0.991688
vn -0.128669 -0.000003 0.991688
vn -0.128669 -0.000003 0.991688
vn -0.118198 0.992989 -0.001245
vn -0.118198 0.992989 -0.001245
vn -0.118198 0.992989 -0.001245
vn -0.118198 0.992989 -0.001245
vn -0.107724 0.000005 -0.994181
vn -0.107724 0.000005 -0.994181
vn -0.107724 0.000005 -0.994181
vn -0.107724 0.000005 -0.994181
vn 0.127506 -0.991837 0.001344
vn 0.127506 -0.991837 0.001344
vn 0.127506 -0.991837 0.001344
vn 0.127506 -0.991837 0.001344
vn 0.117051 -0.000003 0.993126
vn 0.117051 -0.000003 0.993126
vn 0.117051 -0.000003 0.993126
vn 0.117051 -0.000003 0.993126
vn 0.127506 0.991837 0.001345
vn 0.127506 0.991837 0.001345
vn 0.127506 0.991837 0.001345
vn 0.127506 0.991837 0.001345
vn 0.137963 0.000002 -0.990437
vn 0.137963 0.000002 -0.990437
vn 0.137963 0.000002 -0.990437
vn 0.137963 0.000002 -0.990438
vn -0.187934 -0.982180 -0.001981
vn -0.187934 -0.982180 -0.001981
vn -0.187934 -0.982180 -0.001981
vn -0.187934 -0.982180 -0.001981
vn -0.198291 -0.000007 0.980143
vn -0.198291 -0.000007 0.980143
vn -0.198291 -0.000007 0.980143
vn -0.198291 -0.000007 0.980143
vn -0.187933 0.982180 -0.001981
vn -0.187933 0.982180 -0.001981
vn -0.187933 0.982180 -0.001981
vn -0.187933 0.982180 -0.001981
vn -0.177582 0.000002 -0.984106
vn -0.177582 0.000002 -0.984106
vn -0.177582 0.000002 -0.984106
vn -0.177582 0.000002 -0.984106
vn 0.999880 0.000007 0.015481
vn 0.999880 -0.000011 0.015481
vn 0.999880 -0.000010 0.015464
vn 0.999880 0.000007 0.015464
vn 0.000000 -0.000006 1.000000
vn 0.000000 -0.000006 1.000000
vn 0.000000 -0.000006 1.000000
vn 0.000000 -0.000006 1.000000
vn 0.000000 -1.000000 0.000000
vn 0.000000 -1.000000 0.000000
vn 0.000000 -1.000000 0.000000
vn 0.000000 -1.000000 0.000000
vn 0.000000 0.000006 -1.000000
vn 0.000000 0.000006 -1.000000
vn 0.000000 0.000006 -1.000000
vn 0.000000 0.000006 -1.000000
vn 0.000000 1.000000 0.000000
vn 0.000000 1.000000 0.000000
vn 0.000000 1.000000 0.000000
vn 0.000000 1.000000 0.000000
vn 0.999880 0.000027 0.015501
vn 0.999880 -0.000030 0.015501
vn 0.999880 -0.000011 0.015481
vn 0.999880 0.000007 0.015481
vn 0.999880 -0.000030 0.015501
vn 0.999881 -0.000029 0.015444
vn 0.999880 -0.000010 0.015464
vn 0.999880 -0.000011 0.015481
vn 0.999881 -0.000029 0.015444
vn 0.999881 0.000028 0.015444
vn 0.999880 0.000007 0.015464
vn 0.999880 -0.000010 0.015464
vn 0.999881 0.000028 0.015444
vn 0.999880 0.000027 0.015501
vn 0.999880 0.000007 0.015481
vn 0.999880 0.000007 0.015464
vn -0.936876 0.052902 -0.345637
vn -0.936876 0.052902 -0.345637
vn -0.936876 0.052902 -0.345637
vn -0.936876 0.052902 -0.345637
vn 0.728594 -0.629225 0.270606
vn 0.728594 -0.629225 0.270606
vn 0.728594 -0.629225 0.270606
vn 0.728594 -0.629225 0.270606
vn 0.557978 -0.042606 0.828761
vn 0.557978 -0.042606 0.828761
vn 0.557978 -0.042606 0.828761
vn 0.557978 -0.042606 0.828761
vn 0.787105 0.543596 0.291496
vn 0.787105 0.543596 0.291496
vn 0.787105 0.543596 0.291496
vn 0.787105 0.543596 0.291496
vn 0.960607 -0.043040 -0.274556
vn 0.960607 -0.043040 -0.274556
vn 0.960607 -0.043040 -0.274556
vn 0.960607 -0.043040 -0.274556
vn -0.160221 -0.985345 -0.058519
vn -0.160221 -0.985345 -0.058519
vn -0.160221 -0.985345 -0.058519
vn -0.160221 -0.985345 -0.058519
vn -0.454422 0.006803 0.890761
vn -0.454422 0.006803 0.890761
vn -0.454422 0.006803 0.890761
vn -0.454422 0.006803 0.890761
vn -0.061267 0.997852 -0.023193
vn -0.061267 0.997852 -0.023193
vn -0.061267 0.997852 -0.023193
vn -0.061267 0.997852 -0.023193
vn 0.232937 0.005702 -0.972475
vn 0.232937 0.005702 -0.972475
vn 0.232937 0.005702 -0.972475
vn 0.232937 0.005702 -0.972475
vn 0.070044 -0.997194 0.026432
vn 0.070044 -0.997194 0.026432
vn 0.070044 -0.997194 0.026432
vn 0.070044 -0.997194 0.026432
vn -0.223812 -0.006194 0.974613
vn -0.223812 -0.006194 0.974613
vn -0.223812 -0.006194 0.974613
vn -0.223812 -0.006194 0.974613
vn 0.168883 0.983702 0.061717
vn 0.168883 0.983702 0.061717
vn 0.168883 0.983702 0.061717
vn 0.168883 0.983702 0.061717
vn 0.462740 -0.007298 -0.886464
vn 0.462740 -0.007298 -0.886464
vn 0.462740 -0.007298 -0.886464
vn 0.462740 -0.007298 -0.886464
vn -0.225019 -0.970861 -0.082431
vn -0.225019 -0.970861 -0.082431
vn -0.225019 -0.970861 -0.082431
vn -0.225019 -0.970861 -0.082431
vn -0.516016 0.010485 0.856515
vn -0.516016 0.010485 0.856515
vn -0.516016 0.010485 0.856515
vn -0.516016 0.010485 0.856515
vn -0.127141 0.990747 -0.047491
vn -0.127141 0.990747 -0.047491
vn -0.127141 0.990747 -0.047491
vn -0.127141 0.990747 -0.047491
vn 0.163851 0.009397 -0.986440
vn 0.163851 0.009397 -0.986440
vn 0.163851 0.009397 -0.986440
vn 0.163851 0.009397 -0.986440
vn 0.935155 -0.052899 0.350266
vn 0.935155 -0.052901 0.350267
vn 0.935156 -0.052900 0.350265
vn 0.935156 -0.052899 0.350264
vn -0.336206 -0.000004 0.941789
vn -0.336206 -0.000004 0.941789
vn -0.336206 -0.000004 0.941789
vn -0.336206 -0.000004 0.941789
vn -0.049826 -0.998600 -0.017787
vn -0.049826 -0.998599 -0.017787
vn -0.049826 -0.998600 -0.017787
vn -0.049826 -0.998600 -0.017787
vn 0.336206 0.000006 -0.941789
vn 0.336206 0.000006 -0.941789
vn 0.336206 0.000006 -0.941789
vn 0.336206 0.000006 -0.941789
vn 0.049826 0.998600 0.017787
vn 0.049826 0.998599 0.017787
vn 0.049826 0.998600 0.017787
vn 0.049826 0.998599 0.017787
vn 0.935153 -0.052898 0.350273
vn 0.935152 -0.052903 0.350275
vn 0.935155 -0.052901 0.350267
vn 0.935155 -0.052899 0.350266
vn 0.935152 -0.052903 0.350275
vn 0.935154 -0.052900 0.350270
vn 0.935156 -0.052900 0.350265
vn 0.935155 -0.052901 0.350267
vn 0.935154 -0.052900 0.350270
vn 0.935155 -0.052895 0.350267
vn 0.935156 -0.052899 0.350264
vn 0.935156 -0.052900 0.350265
vn 0.935155 -0.052895 0.350267
vn 0.935153 -0.052898 0.350273
vn 0.935155 -0.052899 0.350266
vn 0.935156 -0.052899 0.350264
vn -0.996521 0.044905 0.070215
vn -0.996521 0.044905 0.070215
vn -0.996521 0.044905 0.070215
vn -0.996521 0.044905 0.070215
vn 0.780265 -0.622985 -0.055463
vn 0.780265 -0.622985 -0.055463
vn 0.780265 -0.622985 -0.055463
vn 0.780265 -0.622985 -0.055463
vn 0.849631 -0.038287 0.525987
vn 0.849631 -0.038287 0.525987
vn 0.849631 -0.038287 0.525987
vn 0.849631 -0.038287 0.525987
vn 0.833134 0.550284 -0.055466
vn 0.833134 0.550284 -0.055466
vn 0.833134 0.550284 -0.055466
vn 0.833134 0.550284 -0.055466
vn 0.763148 -0.034381 -0.645309
vn 0.763148 -0.034381 -0.645309
vn 0.763148 -0.034381 -0.645309
vn 0.763148 -0.034381 -0.645309
vn -0.162493 -0.986675 0.008300
vn -0.162493 -0.986675 0.008300
vn -0.162493 -0.986675 0.008300
vn -0.162493 -0.986675 0.008300
vn -0.048151 0.002166 0.998838
vn -0.048151 0.002166 0.998838
vn -0.048151 0.002166 0.998838
vn -0.048151 0.002166 0.998838
vn -0.073095 0.997290 0.008300
vn -0.073095 0.997290 0.008300
vn -0.073095 0.997290 0.008300
vn -0.073095 0.997290 0.008300
vn -0.187432 0.008450 -0.982241
vn -0.187432 0.008450 -0.982241
vn -0.187432 0.008450 -0.982241
vn -0.187432 0.008450 -0.982241
vn 0.082424 -0.996557 -0.008953
vn 0.082424 -0.996557 -0.008953
vn 0.082424 -0.996557 -0.008953
vn 0.082424 -0.996557 -0.008953
vn 0.196633 -0.008863 0.980437
vn 0.196633 -0.008863 0.980437
vn 0.196633 -0.008863 0.980437
vn 0.196633 -0.008863 0.980437
vn 0.171714 0.985106 -0.008952
vn 0.171714 0.985106 -0.008952
vn 0.171714 0.985106 -0.008952
vn 0.171714 0.985106 -0.008952
vn 0.057508 -0.002588 -0.998342
vn 0.057508 -0.002588 -0.998342
vn 0.057508 -0.002588 -0.998342
vn 0.057508 -0.002588 -0.998342
vn -0.231501 -0.972745 0.013196
vn -0.231501 -0.972745 0.013196
vn -0.231501 -0.972745 0.013196
vn -0.231501 -0.972745 0.013196
vn -0.118408 0.005329 0.992951
vn -0.118408 0.005329 0.992951
vn -0.118408 0.005329 0.992951
vn -0.118408 0.005329 0.992951
vn -0.143079 0.989623 0.013196
vn -0.143079 0.989623 0.013196
vn -0.143079 0.989623 0.013196
vn -0.143079 0.989623 0.013196
vn -0.256179 0.011545 -0.966560
vn -0.256179 0.011545 -0.966560
vn -0.256179 0.011545 -0.966560
vn -0.256179 0.011545 -0.966560
vn 0.996855 -0.044919 -0.065292
vn 0.996855 -0.044921 -0.065292
vn 0.996855 -0.044920 -0.065292
vn 0.996855 -0.044918 -0.065292
vn 0.080637 -0.003639 0.996737
vn 0.080637 -0.003639 0.996737
vn 0.080637 -0.003639 0.996737
vn 0.080637 -0.003639 0.996737
vn -0.045013 -0.998986 -0.000001
vn -0.045013 -0.998986 -0.000001
vn -0.045013 -0.998986 -0.000001
vn -0.045013 -0.998986 -0.000001
vn -0.080637 0.003639 -0.996737
vn -0.080637 0.003639 -0.996737
vn -0.080637 0.003639 -0.996737
vn -0.080637 0.003639 -0.996737
vn 0.045013 0.998986 0.000001
vn 0.045013 0.998986 0.000001
vn 0.045013 0.998986 0.000001
vn 0.045013 0.998986 0.000001
vn 0.996854 -0.044917 -0.065312
vn 0.996853 -0.044923 -0.065312
vn 0.996855 -0.044921 -0.065292
vn 0.996855 -0.044919 -0.065292
vn 0.996853 -0.044923 -0.065312
vn 0.996853 -0.044923 -0.065311
vn 0.996855 -0.044920 -0.065292
vn 0.996855 -0.044921 -0.065292
vn 0.996853 -0.044923 -0.065311
vn 0.996854 -0.044916 -0.065311
vn 0.996855 -0.044918 -0.065292
vn 0.996855 -0.044920 -0.065292
vn 0.996854 -0.044916 -0.065311
vn 0.996854 -0.044917 -0.065312
vn 0.996855 -0.044919 -0.065292
vn 0.996855 -0.044918 -0.065292
s off
f 16/1/1 13/2/2 14/3/3 15/4/4
f 1/5/5 17/6/6 18/7/7 2/8/8
f 2/9/9 18/10/10 19/11/11 3/12/12
f 3/13/13 19/14/14 20/15/15 4/16/16
f 4/17/17 20/18/18 17/19/19 1/20/20
f 5/21/21 1/22/22 2/23/23 6/24/24
f 6/25/25 2/26/26 3/27/27 7/28/28
f 7/29/29 3/30/30 4/31/31 8/32/32
f 8/33/33 4/34/34 1/35/35 5/36/36
f 9/37/37 5/38/38 6/39/39 10/40/40
f 10/41/41 6/42/42 7/43/43 11/44/44
f 11/45/45 7/46/46 8/47/47 12/48/48
f 12/49/49 8/50/50 5/51/51 9/52/52
f 13/53/53 9/54/54 10/55/55 14/56/56
f 14/57/57 10/58/58 11/59/59 15/60/60
f 15/61/61 11/62/62 12/63/63 16/64/64
f 16/65/65 12/66/66 9/67/67 13/68/68
f 25/89/69 26/90/70 27/91/71 28/92/72
f 19/73/73 18/74/74 22/70/75 21/81/76
f 18/74/77 17/75/78 23/71/79 22/70/80
f 17/75/81 20/79/82 24/78/83 23/71/84
f 20/76/85 19/80/86 21/77/87 24/72/88
f 21/69/89 22/84/90 26/86/91 25/85/92
f 22/84/93 23/83/94 27/87/95 26/86/96
f 23/83/97 24/82/98 28/88/99 27/87/100
f 24/82/101 21/69/102 25/85/103 28/88/104
f 44/93/105 41/94/106 42/95/107 43/96/108
f 29/97/109 45/98/110 46/99/111 30/100/112
f 30/101/113 46/102/114 47/103/115 31/104/116
f 31/105/117 47/106/118 48/107/119 32/108/120
f 32/109/121 48/110/122 45/111/123 29/112/124
f 33/113/125 29/114/126 30/115/127 34/116/128
f 34/117/129 30/118/130 31/119/131 35/120/132
f 35/121/133 31/122/134 32/123/135 36/124/136
f 36/125/137 32/126/138 29/127/139 33/128/140
f 37/129/141 33/130/142 34/131/143 38/132/144
f 38/133/145 34/134/146 35/135/147 39/136/148
f 39/137/149 35/138/150 36/139/151 40/140/152
f 40/141/153 36/142/154 33/143/155 37/144/156
f 41/145/157 37/146/158 38/147/159 42/148/160
f 42/149/161 38/150/162 39/151/163 43/152/164
f 43/153/165 39/154/166 40/155/167 44/156/168
f 44/157/169 40/158/170 37/159/171 41/160/172
f 53/161/173 54/162/174 55/163/175 56/164/176
f 47/165/177 46/166/178 50/167/179 49/168/180
f 46/166/181 45/169/182 51/170/183 50/167/184
f 45/169/185 48/171/186 52/172/187 51/170/188
f 48/173/189 47/174/190 49/175/191 52/176/192
f 49/177/193 50/178/194 54/179/195 53/180/196
f 50/178/197 51/181/198 55/182/199 54/179/200
f 51/181/201 52/183/202 56/184/203 55/182/204
f 52/183/205 49/177/206 53/180/207 56/184/208
f 72/185/209 69/186/210 70/187/211 71/188/212
f 57/189/213 73/190/214 74/191/215 58/192/216
f 58/193/217 74/194/218 75/195/219 59/196/220
f 59/197/221 75/198/222 76/199/223 60/200/224
f 60/201/225 76/202/226 73/203/227 57/204/228
f 61/205/229 57/206/230 58/207/231 62/208/232
f 62/209/233 58/210/234 59/211/235 63/212/236
f 63/213/237 59/214/238 60/215/239 64/216/240
f 64/217/241 60/218/242 57/219/243 61/220/244
f 65/221/245 61/222/246 62/223/247 66/224/248
f 66/225/249 62/226/250 63/227/251 67/228/252
f 67/229/253 63/230/254 64/231/255 68/232/256
f 68/233/257 64/234/258 61/235/259 65/236/260
f 69/237/261 65/238/262 66/239/263 70/240/264
f 70/241/265 66/242/266 67/243/267 71/244/268
f 71/245/269 67/246/270 68/247/271 72/248/272
f 72/249/273 68/250/274 65/251/275 69/252/276
f 81/253/277 82/254/278 83/255/279 84/256/280
f 75/257/281 74/258/282 78/259/283 77/260/284
f 74/258/285 73/261/286 79/262/287 78/259/288
f 73/261/289 76/263/290 80/264/291 79/262/292
f 76/265/293 75/266/294 77/267/295 80/268/296
f 77/269/297 78/270/298 82/271/299 81/272/300
f 78/270/301 79/273/302 83/274/303 82/271/304
f 79/273/305 80/275/306 84/276/307 83/274/308
f 80/275/309 77/269/310 81/272/311 84/276/312
