# This file uses meters as units for non-parametric coordinates.

v 0.489084 0.162677 0.018270
v 0.489084 0.162677 -0.121222
v -0.740365 0.120332 -0.024076
v -0.740365 0.120332 -0.078877
v -0.740365 0.065531 -0.024076
v -0.740365 0.065531 -0.078877
v 0.489084 0.023183 0.018270
v 0.489084 0.023183 -0.121222
v -0.322778 0.162677 0.018270
v -0.322778 0.162677 -0.121222
v -0.322778 0.023183 -0.121222
v -0.322778 0.023183 0.018270
v 0.489084 0.037441 0.004013
v 0.489084 0.037441 -0.106965
v 0.489084 0.148419 -0.106965
v 0.489084 0.148419 0.004013
v -0.255198 0.023183 0.018270
v -0.255198 0.162677 0.018270
v -0.255198 0.162677 -0.121222
v -0.255198 0.023183 -0.121222
v -0.713437 0.122188 -0.080733
v -0.713437 0.122188 -0.022221
v -0.713437 0.063674 -0.022221
v -0.713437 0.063674 -0.080733
v 0.700396 0.162677 -0.154654
v 0.740364 0.162677 -0.288298
v -0.465371 0.120332 -0.547498
v -0.449669 0.120332 -0.600001
v -0.465371 0.065531 -0.547498
v -0.449669 0.065531 -0.600001
v 0.700396 0.023183 -0.154654
v 0.740364 0.023183 -0.288298
v -0.077427 0.162677 -0.387276
v -0.037457 0.162677 -0.520920
v -0.037457 0.023183 -0.520920
v -0.077427 0.023183 -0.387276
v 0.704480 0.037441 -0.168313
v 0.736279 0.037441 -0.274638
v 0.736279 0.148419 -0.274638
v 0.704480 0.148419 -0.168313
v -0.012680 0.023183 -0.367912
v -0.012680 0.162677 -0.367912
v 0.027289 0.162677 -0.501556
v 0.027288 0.023183 -0.501556
v -0.423338 0.122188 -0.594065
v -0.440104 0.122188 -0.538005
v -0.440104 0.063674 -0.538005
v -0.423338 0.063674 -0.594065
v 0.332591 0.134556 0.600001
v 0.453396 0.134556 0.530255
v -0.229286 0.417902 -0.457893
v -0.181827 0.417902 -0.485293
v -0.236512 0.365041 -0.470407
v -0.189053 0.365041 -0.497808
v 0.314199 0.000000 0.568146
v 0.435004 0.000000 0.498400
v -0.058973 0.348635 -0.078207
v 0.061831 0.348635 -0.147954
v 0.043440 0.214079 -0.179809
v -0.077365 0.214079 -0.110063
v 0.328426 0.013753 0.564273
v 0.424537 0.013753 0.508784
v 0.439169 0.120803 0.534128
v 0.343059 0.120803 0.589617
v -0.044770 0.196259 -0.053608
v -0.026379 0.330815 -0.021752
v 0.094426 0.330815 -0.091498
v 0.076035 0.196259 -0.123354
v -0.166988 0.412592 -0.463303
v -0.217662 0.412592 -0.434046
v -0.225376 0.356149 -0.447408
v -0.174703 0.356149 -0.476665
vt 0.356969 0.059886
vt 0.356969 0.059886
vt 0.140691 0.169394
vt 0.140691 0.169394
vt 0.172658 0.169394
vt 0.172658 0.169394
vt 0.172658 0.169394
vt 0.172658 0.169394
vt 0.140691 0.169394
vt 0.140691 0.169394
vt 0.356969 0.059886
vt 0.356969 0.059886
vt 0.112555 0.474522
vt 0.112555 0.474522
vt 0.112555 0.474522
vt 0.112555 0.474522
vt 0.319818 0.059886
vt 0.319818 0.059886
vt 0.103539 0.169394
vt 0.103539 0.169394
vt 0.335369 0.059886
vt 0.335369 0.059886
vt 0.119091 0.169394
vt 0.119091 0.169394
vt 0.192438 0.063663
vt 0.192438 0.063663
vt 0.256774 0.085565
vt 0.256774 0.085565
vt 0.145780 0.063663
vt 0.145780 0.063663
vt 0.210116 0.085565
vt 0.210116 0.085565
vt 0.256774 0.085565
vt 0.256774 0.085565
vt 0.192438 0.063663
vt 0.192438 0.063663
vt 0.165311 0.063663
vt 0.165311 0.063663
vt 0.229647 0.085565
vt 0.229647 0.085565
vt 0.149487 0.063080
vt 0.149487 0.063080
vt 0.149487 0.063080
vt 0.149487 0.063080
vt 0.149487 0.063080
vt 0.149487 0.063080
vt 0.149487 0.063080
vt 0.149487 0.063080
vt 0.149487 0.063080
vt 0.149487 0.063080
vt 0.149487 0.063080
vt 0.149487 0.063080
vt 0.149487 0.063080
vt 0.149487 0.063080
vt 0.149487 0.063080
vt 0.149487 0.063080
vt 0.229647 0.085565
vt 0.256774 0.085565
vt 0.165311 0.063663
vt 0.192438 0.063663
vt 0.192438 0.063663
vt 0.145780 0.063663
vt 0.192438 0.063663
vt 0.145780 0.063663
vt 0.356969 0.059886
vt 0.319818 0.059886
vt 0.119091 0.169394
vt 0.140691 0.169394
vt 0.119091 0.169394
vt 0.140691 0.169394
vt 0.140691 0.169394
vt 0.103539 0.169394
vt 0.356969 0.059886
vt 0.319818 0.059886
vt 0.140691 0.169394
vt 0.103539 0.169394
vt 0.335369 0.059886
vt 0.356969 0.059886
vt 0.356969 0.059886
vt 0.335369 0.059886
vt 0.210116 0.085565
vt 0.256774 0.085565
vt 0.165311 0.063663
vt 0.192438 0.063663
vt 0.256774 0.085565
vt 0.210116 0.085565
vt 0.229647 0.085565
vt 0.256774 0.085565
vt 0.356969 0.059886
vt 0.356969 0.059886
vt 0.356969 0.059886
vt 0.356969 0.059886
vt 0.172658 0.169394
vt 0.172658 0.169394
vt 0.172658 0.169394
vt 0.172658 0.169394
vt 0.356969 0.059886
vt 0.356969 0.059886
vt 0.356969 0.059886
vt 0.356969 0.059886
vt 0.112555 0.474522
vt 0.112555 0.474522
vt 0.112555 0.474522
vt 0.112555 0.474522
vt 0.319818 0.059886
vt 0.319818 0.059886
vt 0.319818 0.059886
vt 0.319818 0.059886
vt 0.335369 0.059886
vt 0.335369 0.059886
vt 0.335369 0.059886
vt 0.335369 0.059886
vt 0.256774 0.085565
vt 0.256774 0.085565
vt 0.256774 0.085565
vt 0.256774 0.085565
vt 0.210116 0.085565
vt 0.210116 0.085565
vt 0.210116 0.085565
vt 0.210116 0.085565
vt 0.256774 0.085565
vt 0.256774 0.085565
vt 0.256774 0.085565
vt 0.256774 0.085565
vt 0.229647 0.085565
vt 0.229647 0.085565
vt 0.229647 0.085565
vt 0.229647 0.085565
vt 0.149487 0.063080
vt 0.149487 0.063080
vt 0.149487 0.063080
vt 0.149487 0.063080
vt 0.149487 0.063080
vt 0.149487 0.063080
vt 0.149487 0.063080
vt 0.149487 0.063080
vt 0.149487 0.063080
vt 0.149487 0.063080
vt 0.149487 0.063080
vt 0.149487 0.063080
vt 0.149487 0.063080
vt 0.149487 0.063080
vt 0.149487 0.063080
vt 0.149487 0.063080
vt 0.165311 0.063663
vt 0.165311 0.063663
vt 0.165311 0.063663
vt 0.165311 0.063663
vt 0.192438 0.063663
vt 0.192438 0.063663
vt 0.192438 0.063663
vt 0.192438 0.063663
vt 0.145780 0.063663
vt 0.145780 0.063663
vt 0.145780 0.063663
vt 0.145780 0.063663
vt 0.192438 0.063663
vt 0.192438 0.063663
vt 0.192438 0.063663
vt 0.192438 0.063663
vt 0.140691 0.169394
vt 0.140691 0.169394
vt 0.140691 0.169394
vt 0.140691 0.169394
vt 0.119091 0.169394
vt 0.119091 0.169394
vt 0.119091 0.169394
vt 0.119091 0.169394
vt 0.140691 0.169394
vt 0.140691 0.169394
vt 0.140691 0.169394
vt 0.140691 0.169394
vt 0.103539 0.169394
vt 0.103539 0.169394
vt 0.103539 0.169394
vt 0.103539 0.169394
vt 0.356969 0.059886
vt 0.356969 0.059886
vt 0.356969 0.059886
vt 0.356969 0.059886
vt 0.172658 0.169394
vt 0.172658 0.169394
vt 0.172658 0.169394
vt 0.172658 0.169394
vt 0.356969 0.059886
vt 0.356969 0.059886
vt 0.356969 0.059886
vt 0.356969 0.059886
vt 0.112555 0.474522
vt 0.112555 0.474522
vt 0.112555 0.474522
vt 0.112555 0.474522
vt 0.319818 0.059886
vt 0.319818 0.059886
vt 0.319818 0.059886
vt 0.319818 0.059886
vt 0.335369 0.059886
vt 0.335369 0.059886
vt 0.335369 0.059886
vt 0.335369 0.059886
vt 0.256774 0.085565
vt 0.256774 0.085565
vt 0.256774 0.085565
vt 0.256774 0.085565
vt 0.210116 0.085565
vt 0.210116 0.085565
vt 0.210116 0.085565
vt 0.210116 0.085565
vt 0.256774 0.085565
vt 0.256774 0.085565
vt 0.256774 0.085565
vt 0.256774 0.085565
vt 0.229647 0.085565
vt 0.229647 0.085565
vt 0.229647 0.085565
vt 0.229647 0.085565
vt 0.149487 0.063080
vt 0.149487 0.063080
vt 0.149487 0.063080
vt 0.149487 0.063080
vt 0.149487 0.063080
vt 0.149487 0.063080
vt 0.149487 0.063080
vt 0.149487 0.063080
vt 0.149487 0.063080
vt 0.149487 0.063080
vt 0.149487 0.063080
vt 0.149487 0.063080
vt 0.149487 0.063080
vt 0.149487 0.063080
vt 0.149487 0.063080
vt 0.149487 0.063080
vt 0.165311 0.063663
vt 0.165311 0.063663
vt 0.165311 0.063663
vt 0.165311 0.063663
vt 0.192438 0.063663
vt 0.192438 0.063663
vt 0.192438 0.063663
vt 0.192438 0.063663
vt 0.145780 0.063663
vt 0.145780 0.063663
vt 0.145780 0.063663
vt 0.145780 0.063663
vt 0.192438 0.063663
vt 0.192438 0.063663
vt 0.192438 0.063663
vt 0.192438 0.063663
vt 0.140691 0.169394
vt 0.140691 0.169394
vt 0.140691 0.169394
vt 0.140691 0.169394
vt 0.119091 0.169394
vt 0.119091 0.169394
vt 0.119091 0.169394
vt 0.119091 0.169394
vt 0.140691 0.169394
vt 0.140691 0.169394
vt 0.140691 0.169394
vt 0.140691 0.169394
vt 0.103539 0.169394
vt 0.103539 0.169394
vt 0.103539 0.169394
vt 0.103539 0.169394
vn -0.081927 0.996638 0.000000
vn -0.081927 0.996638 0.000000
vn -0.101921 0.994793 0.000000
vn -0.101921 0.994793 0.000000
vn -1.000000 0.000000 0.000000
vn -1.000000 0.000000 0.000000
vn -1.000000 0.000000 0.000000
vn -1.000000 0.000000 0.000000
vn -0.101927 -0.994792 0.000000
vn -0.101927 -0.994792 0.000000
vn -0.081932 -0.996638 0.000000
vn -0.081932 -0.996638 0.000000
vn 1.000000 -0.000000 0.000000
vn 1.000000 -0.000000 0.000000
vn 1.000000 0.000000 0.000000
vn 1.000000 0.000000 0.000000
vn -0.081926 0.000000 -0.996638
vn -0.081926 0.000000 -0.996638
vn -0.101920 0.000000 -0.994793
vn -0.101920 0.000000 -0.994793
vn -0.081932 0.000000 0.996638
vn -0.081932 0.000000 0.996638
vn -0.101927 0.000000 0.994792
vn -0.101927 0.000000 0.994792
vn 0.000000 1.000000 0.000000
vn 0.000000 1.000000 0.000000
vn -0.081927 0.996638 0.000000
vn -0.081927 0.996638 0.000000
vn 0.000000 0.000000 -1.000000
vn 0.000000 0.000000 -1.000000
vn -0.081926 0.000000 -0.996638
vn -0.081926 0.000000 -0.996638
vn -0.081932 -0.996638 0.000000
vn -0.081932 -0.996638 0.000000
vn 0.000000 -1.000000 0.000000
vn 0.000000 -1.000000 0.000000
vn 0.000000 0.000000 1.000000
vn 0.000000 0.000000 1.000000
vn -0.081932 0.000000 0.996638
vn -0.081932 0.000000 0.996638
vn 1.000000 -0.000000 0.000000
vn 1.000000 -0.000000 0.000000
vn 1.000000 -0.000000 0.000000
vn 1.000000 -0.000000 0.000000
vn 1.000000 -0.000000 0.000000
vn 1.000000 0.000000 0.000000
vn 1.000000 0.000000 0.000000
vn 1.000000 -0.000000 0.000000
vn 1.000000 0.000000 0.000000
vn 1.000000 0.000000 0.000000
vn 1.000000 0.000000 0.000000
vn 1.000000 0.000000 0.000000
vn 1.000000 0.000000 0.000000
vn 1.000000 -0.000000 0.000000
vn 1.000000 -0.000000 0.000000
vn 1.000000 0.000000 0.000000
vn 0.000000 0.000000 1.000000
vn 0.000000 0.000000 1.000000
vn 0.000000 0.000000 1.000000
vn 0.000000 0.000000 1.000000
vn 0.000000 1.000000 0.000000
vn 0.000000 1.000000 0.000000
vn 0.000000 1.000000 0.000000
vn 0.000000 1.000000 0.000000
vn 0.000000 0.000000 -1.000000
vn 0.000000 0.000000 -1.000000
vn 0.000000 0.000000 -1.000000
vn 0.000000 0.000000 -1.000000
vn 0.000000 -1.000000 0.000000
vn 0.000000 -1.000000 0.000000
vn 0.000000 -1.000000 0.000000
vn 0.000000 -1.000000 0.000000
vn -0.101921 0.994793 0.000000
vn -0.101921 0.994793 0.000000
vn -0.068765 0.997633 0.000000
vn -0.068765 0.997633 0.000000
vn -0.101927 0.000000 0.994792
vn -0.101927 0.000000 0.994792
vn -0.068756 0.000000 0.997634
vn -0.068756 0.000000 0.997634
vn -0.068774 -0.997632 0.000000
vn -0.068774 -0.997632 0.000000
vn -0.101927 -0.994792 0.000000
vn -0.101927 -0.994792 0.000000
vn -0.101920 0.000000 -0.994793
vn -0.101920 0.000000 -0.994793
vn -0.068756 0.000000 -0.997634
vn -0.068756 0.000000 -0.997634
vn -0.078492 0.996638 -0.023475
vn -0.078492 0.996638 -0.023475
vn -0.097648 0.994793 -0.029204
vn -0.097648 0.994793 -0.029204
vn -0.958071 0.000000 -0.286531
vn -0.958071 0.000000 -0.286531
vn -0.958071 0.000000 -0.286531
vn -0.958071 0.000000 -0.286531
vn -0.097654 -0.994792 -0.029205
vn -0.097654 -0.994792 -0.029205
vn -0.078497 -0.996638 -0.023476
vn -0.078497 -0.996638 -0.023476
vn 0.958073 0.000005 0.286523
vn 0.958071 0.000005 0.286532
vn 0.958071 -0.000005 0.286532
vn 0.958073 -0.000005 0.286523
vn 0.207074 -0.000000 -0.978325
vn 0.207074 -0.000000 -0.978325
vn 0.187390 0.000000 -0.982286
vn 0.187390 0.000000 -0.982286
vn -0.364063 0.000000 0.931374
vn -0.364063 0.000000 0.931374
vn -0.382691 0.000000 0.923876
vn -0.382691 0.000000 0.923876
vn 0.000000 1.000000 0.000000
vn 0.000000 1.000000 0.000000
vn -0.078492 0.996638 -0.023475
vn -0.078492 0.996638 -0.023475
vn 0.286529 -0.000001 -0.958072
vn 0.286529 -0.000001 -0.958072
vn 0.207074 -0.000000 -0.978325
vn 0.207074 -0.000000 -0.978325
vn -0.078497 -0.996638 -0.023476
vn -0.078497 -0.996638 -0.023476
vn 0.000000 -1.000000 0.000000
vn 0.000000 -1.000000 0.000000
vn -0.286529 0.000000 0.958072
vn -0.286529 0.000000 0.958072
vn -0.364063 0.000000 0.931374
vn -0.364063 0.000000 0.931374
vn 0.958077 0.000016 0.286511
vn 0.958068 0.000016 0.286542
vn 0.958071 0.000005 0.286532
vn 0.958073 0.000005 0.286523
vn 0.958068 0.000016 0.286542
vn 0.958068 -0.000017 0.286542
vn 0.958071 -0.000005 0.286532
vn 0.958071 0.000005 0.286532
vn 0.958068 -0.000017 0.286542
vn 0.958077 -0.000017 0.286511
vn 0.958073 -0.000005 0.286523
vn 0.958071 -0.000005 0.286532
vn 0.958077 -0.000017 0.286511
vn 0.958077 0.000016 0.286511
vn 0.958073 0.000005 0.286523
vn 0.958073 -0.000005 0.286523
vn -0.286529 0.000000 0.958071
vn -0.286529 0.000000 0.958071
vn -0.286529 0.000000 0.958072
vn -0.286529 0.000000 0.958072
vn 0.000000 1.000000 0.000000
vn 0.000000 1.000000 0.000000
vn 0.000000 1.000000 0.000000
vn 0.000000 1.000000 0.000000
vn 0.286530 -0.000001 -0.958071
vn 0.286530 -0.000001 -0.958071
vn 0.286529 -0.000001 -0.958072
vn 0.286529 -0.000001 -0.958072
vn 0.000000 -1.000000 0.000000
vn 0.000000 -1.000000 0.000000
vn 0.000000 -1.000000 0.000000
vn 0.000000 -1.000000 0.000000
vn -0.097648 0.994793 -0.029204
vn -0.097648 0.994793 -0.029204
vn -0.065882 0.997633 -0.019703
vn -0.065882 0.997633 -0.019703
vn -0.382691 0.000000 0.923876
vn -0.382691 0.000000 0.923876
vn -0.351692 0.000000 0.936116
vn -0.351692 0.000000 0.936116
vn -0.065890 -0.997632 -0.019706
vn -0.065890 -0.997632 -0.019706
vn -0.097654 -0.994792 -0.029205
vn -0.097654 -0.994792 -0.029205
vn 0.187390 0.000000 -0.982286
vn 0.187390 0.000000 -0.982286
vn 0.219941 0.000000 -0.975513
vn 0.219941 0.000000 -0.975513
vn 0.091887 0.982969 0.159154
vn 0.091887 0.982968 0.159154
vn 0.082000 0.986460 0.142030
vn 0.082000 0.986460 0.142030
vn -0.482292 0.263698 -0.835379
vn -0.482292 0.263698 -0.835379
vn -0.482292 0.263698 -0.835379
vn -0.482292 0.263698 -0.835379
vn -0.180317 -0.932707 -0.312320
vn -0.180317 -0.932707 -0.312320
vn -0.170916 -0.939760 -0.296038
vn -0.170916 -0.939760 -0.296038
vn 0.482303 -0.263690 0.835375
vn 0.482299 -0.263689 0.835378
vn 0.482298 -0.263694 0.835377
vn 0.482302 -0.263694 0.835374
vn 0.823599 0.021604 -0.566760
vn 0.823599 0.021604 -0.566760
vn 0.812358 0.026876 -0.582539
vn 0.812358 0.026876 -0.582539
vn -0.902630 0.021604 0.429876
vn -0.902630 0.021604 0.429876
vn -0.910675 0.026876 0.412248
vn -0.910675 0.026876 0.412248
vn 0.131844 0.964608 0.228362
vn 0.131844 0.964608 0.228362
vn 0.091887 0.982968 0.159154
vn 0.091887 0.982969 0.159154
vn 0.866025 0.000001 -0.500000
vn 0.866025 0.000001 -0.500000
vn 0.823599 0.021604 -0.566760
vn 0.823599 0.021604 -0.566760
vn -0.170916 -0.939760 -0.296038
vn -0.170916 -0.939760 -0.296038
vn -0.131844 -0.964608 -0.228362
vn -0.131844 -0.964608 -0.228362
vn -0.866025 -0.000001 0.500000
vn -0.866025 -0.000001 0.500000
vn -0.902630 0.021604 0.429876
vn -0.902630 0.021604 0.429876
vn 0.482305 -0.263682 0.835377
vn 0.482293 -0.263682 0.835383
vn 0.482299 -0.263689 0.835378
vn 0.482303 -0.263690 0.835375
vn 0.482293 -0.263682 0.835383
vn 0.482291 -0.263695 0.835380
vn 0.482298 -0.263694 0.835377
vn 0.482299 -0.263689 0.835378
vn 0.482291 -0.263695 0.835380
vn 0.482303 -0.263695 0.835373
vn 0.482302 -0.263694 0.835374
vn 0.482298 -0.263694 0.835377
vn 0.482303 -0.263695 0.835373
vn 0.482305 -0.263682 0.835377
vn 0.482303 -0.263690 0.835375
vn 0.482302 -0.263694 0.835374
vn -0.866026 -0.000000 0.500000
vn -0.866026 -0.000000 0.500000
vn -0.866025 -0.000001 0.500000
vn -0.866025 -0.000001 0.500000
vn 0.131844 0.964608 0.228362
vn 0.131844 0.964608 0.228362
vn 0.131844 0.964608 0.228362
vn 0.131844 0.964608 0.228362
vn 0.866026 0.000000 -0.500000
vn 0.866026 0.000000 -0.500000
vn 0.866025 0.000001 -0.500000
vn 0.866025 0.000001 -0.500000
vn -0.131844 -0.964608 -0.228362
vn -0.131844 -0.964608 -0.228362
vn -0.131844 -0.964608 -0.228362
vn -0.131844 -0.964608 -0.228362
vn 0.082000 0.986460 0.142030
vn 0.082000 0.986460 0.142030
vn 0.098368 0.980456 0.170381
vn 0.098368 0.980456 0.170381
vn -0.910675 0.026876 0.412248
vn -0.910675 0.026876 0.412248
vn -0.897138 0.018135 0.441378
vn -0.897138 0.018135 0.441378
vn -0.164699 -0.944190 -0.285270
vn -0.164699 -0.944190 -0.285270
vn -0.180317 -0.932707 -0.312320
vn -0.180317 -0.932707 -0.312320
vn 0.812358 0.026876 -0.582539
vn 0.812358 0.026876 -0.582539
vn 0.830820 0.018124 -0.556246
vn 0.830820 0.018124 -0.556246
s off
f 9/1/1 10/2/2 21/65/3 22/79/4
f 3/5/5 4/6/6 6/7/7 5/8/8
f 23/78/9 24/73/10 11/11/11 12/12/12
f 13/13/13 14/14/14 15/15/15 16/16/16
f 10/17/17 11/18/18 24/74/19 21/66/20
f 12/21/21 9/22/22 22/80/23 23/77/24
f 18/88/25 19/85/26 10/27/27 9/28/28
f 19/86/29 20/81/30 11/31/31 10/32/32
f 12/33/33 11/34/34 20/82/35 17/58/36
f 17/57/37 18/87/38 9/39/39 12/40/40
f 7/41/41 8/55/42 14/53/43 13/44/44
f 8/42/45 2/54/46 15/51/47 14/43/48
f 2/45/49 1/52/50 16/50/51 15/46/52
f 1/47/53 7/56/54 13/49/55 16/48/56
f 7/37/57 1/38/58 18/59/59 17/83/60
f 1/25/61 2/26/62 19/61/63 18/60/64
f 2/29/65 8/30/66 20/64/67 19/62/68
f 17/84/69 20/63/70 8/35/71 7/36/72
f 22/68/73 21/75/74 4/3/75 3/4/76
f 23/69/77 22/67/78 3/23/79 5/24/80
f 5/9/81 6/10/82 24/71/83 23/70/84
f 21/76/85 24/72/86 6/19/87 4/20/88
f 33/89/89 34/90/90 45/91/91 46/92/92
f 27/93/93 28/94/94 30/95/95 29/96/96
f 47/97/97 48/98/98 35/99/99 36/100/100
f 37/101/101 38/102/102 39/103/103 40/104/104
f 34/105/105 35/106/106 48/107/107 45/108/108
f 36/109/109 33/110/110 46/111/111 47/112/112
f 42/113/113 43/114/114 34/115/115 33/116/116
f 43/117/117 44/118/118 35/119/119 34/120/120
f 36/121/121 35/122/122 44/123/123 41/124/124
f 41/125/125 42/126/126 33/127/127 36/128/128
f 31/129/129 32/130/130 38/131/131 37/132/132
f 32/133/133 26/134/134 39/135/135 38/136/136
f 26/137/137 25/138/138 40/139/139 39/140/140
f 25/141/141 31/142/142 37/143/143 40/144/144
f 31/145/145 25/146/146 42/147/147 41/148/148
f 25/149/149 26/150/150 43/151/151 42/152/152
f 26/153/153 32/154/154 44/155/155 43/156/156
f 41/157/157 44/158/158 32/159/159 31/160/160
f 46/161/161 45/162/162 28/163/163 27/164/164
f 47/165/165 46/166/166 27/167/167 29/168/168
f 29/169/169 30/170/170 48/171/171 47/172/172
f 45/173/173 48/174/174 30/175/175 28/176/176
f 57/177/177 58/178/178 69/179/179 70/180/180
f 51/181/181 52/182/182 54/183/183 53/184/184
f 71/185/185 72/186/186 59/187/187 60/188/188
f 61/189/189 62/190/190 63/191/191 64/192/192
f 58/193/193 59/194/194 72/195/195 69/196/196
f 60/197/197 57/198/198 70/199/199 71/200/200
f 66/201/201 67/202/202 58/203/203 57/204/204
f 67/205/205 68/206/206 59/207/207 58/208/208
f 60/209/209 59/210/210 68/211/211 65/212/212
f 65/213/213 66/214/214 57/215/215 60/216/216
f 55/217/217 56/218/218 62/219/219 61/220/220
f 56/221/221 50/222/222 63/223/223 62/224/224
f 50/225/225 49/226/226 64/227/227 63/228/228
f 49/229/229 55/230/230 61/231/231 64/232/232
f 55/233/233 49/234/234 66/235/235 65/236/236
f 49/237/237 50/238/238 67/239/239 66/240/240
f 50/241/241 56/242/242 68/243/243 67/244/244
f 65/245/245 68/246/246 56/247/247 55/248/248
f 70/249/249 69/250/250 52/251/251 51/252/252
f 71/253/253 70/254/254 51/255/255 53/256/256
f 53/257/257 54/258/258 72/259/259 71/260/260
f 69/261/261 72/262/262 54/263/263 52/264/264
