# This file uses meters as units for non-parametric coordinates.

v -0.011528 0.381816 0.012513
v 0.009026 0.381816 0.012513
v -0.027542 0.408162 0.028532
v 0.025040 0.408162 0.028532
v -0.027542 0.408162 -0.024055
v 0.025040 0.408162 -0.024055
v -0.011528 0.381816 -0.008036
v 0.009026 0.381816 -0.008036
v -0.001251 0.483363 0.002239
v -0.057571 0.000000 0.057577
v 0.057571 0.000000 0.057577
v -0.057571 0.360821 0.057577
v 0.057571 0.360821 0.057577
v -0.057571 0.360821 -0.057577
v 0.057571 0.360821 -0.057577
v -0.057571 0.000000 -0.057577
v 0.057571 0.000000 -0.057577
v -0.043633 0.360821 0.043636
v 0.043633 0.360821 0.043636
v 0.043633 0.360821 -0.043636
v -0.043633 0.360821 -0.043636
v -0.043633 0.341583 0.043636
v 0.043633 0.341583 0.043636
v 0.043633 0.341583 -0.043636
v -0.043633 0.341583 -0.043636
v -0.009888 0.341583 0.009891
v 0.009895 0.341583 0.009891
v 0.009895 0.341583 -0.009891
v -0.009888 0.341583 -0.009891
v -0.009888 0.369245 0.009891
v 0.009895 0.369245 0.009891
v 0.009895 0.369245 -0.009891
v -0.009888 0.369245 -0.009891
vt 0.487413 0.219461
vt 0.487413 0.219461
vt 0.487413 0.219461
vt 0.487413 0.219461
vt 0.487413 0.219461
vt 0.487413 0.219461
vt 0.487413 0.219461
vt 0.487413 0.219461
vt 0.487413 0.219461
vt 0.487413 0.219461
vt 0.487413 0.219461
vt 0.487413 0.219461
vt 0.487413 0.219461
vt 0.487413 0.219461
vt 0.487413 0.219461
vt 0.487413 0.219461
vt 0.487413 0.219461
vt 0.487413 0.219461
vt 0.487413 0.219461
vt 0.487413 0.219461
vt 0.487413 0.219461
vt 0.487413 0.219461
vt 0.487413 0.219461
vt 0.487413 0.219461
vt 0.487413 0.219461
vt 0.487413 0.219461
vt 0.487413 0.219461
vt 0.487413 0.219461
vt 0.487413 0.219461
vt 0.487413 0.219461
vt 0.487413 0.219461
vt 0.487413 0.219461
vt 0.242012 0.444982
vt 0.242012 0.444982
vt 0.242012 0.444982
vt 0.242012 0.444982
vt 0.204559 0.065099
vt 0.204559 0.065099
vt 0.204559 0.065099
vt 0.204559 0.065099
vt 0.242012 0.444982
vt 0.242012 0.444982
vt 0.242012 0.444982
vt 0.242012 0.444982
vt 0.266624 0.446052
vt 0.266624 0.446052
vt 0.266624 0.446052
vt 0.266624 0.446052
vt 0.266624 0.446052
vt 0.266624 0.446052
vt 0.266624 0.446052
vt 0.266624 0.446052
vt 0.266624 0.446052
vt 0.266624 0.446052
vt 0.266624 0.446052
vt 0.266624 0.446052
vt 0.297657 0.449262
vt 0.297657 0.449262
vt 0.297657 0.449262
vt 0.297657 0.449262
vt 0.297657 0.449262
vt 0.297657 0.449262
vt 0.297657 0.449262
vt 0.297657 0.449262
vt 0.176736 0.444982
vt 0.176736 0.444982
vt 0.176736 0.444982
vt 0.176736 0.444982
vt 0.201348 0.446052
vt 0.201348 0.446052
vt 0.201348 0.446052
vt 0.201348 0.446052
vt 0.176736 0.444982
vt 0.176736 0.444982
vt 0.176736 0.444982
vt 0.176736 0.444982
vt 0.201348 0.446052
vt 0.201348 0.446052
vt 0.201348 0.446052
vt 0.201348 0.446052
vt 0.273045 0.449262
vt 0.273045 0.449262
vt 0.273045 0.449262
vt 0.273045 0.449262
vt 0.273045 0.449262
vt 0.273045 0.449262
vt 0.273045 0.449262
vt 0.273045 0.449262
vt 0.273045 0.449262
vt 0.273045 0.449262
vt 0.273045 0.449262
vt 0.273045 0.449262
vt 0.273045 0.449262
vt 0.273045 0.449262
vt 0.273045 0.449262
vt 0.273045 0.449262
vt 0.142493 0.064028
vt 0.142493 0.064028
vt 0.142493 0.064028
vt 0.142493 0.064028
vt 0.167105 0.065099
vt 0.167105 0.065099
vt 0.167105 0.065099
vt 0.167105 0.065099
vt 0.142493 0.064028
vt 0.142493 0.064028
vt 0.142493 0.064028
vt 0.142493 0.064028
vt 0.167105 0.065099
vt 0.167105 0.065099
vt 0.167105 0.065099
vt 0.167105 0.065099
vn 0.000000 -0.519518 0.854459
vn 0.000000 -0.519518 0.854459
vn 0.000000 -0.519518 0.854459
vn 0.000000 -0.519518 0.854459
vn 0.000000 -0.519518 -0.854459
vn 0.000000 -0.519518 -0.854459
vn 0.000000 -0.519518 -0.854459
vn 0.000000 -0.519518 -0.854459
vn 0.000000 -1.000000 0.000000
vn 0.000000 -1.000000 0.000000
vn 0.000000 -1.000000 0.000000
vn 0.000000 -1.000000 0.000000
vn 0.854528 -0.519406 0.000000
vn 0.854528 -0.519406 0.000000
vn 0.854528 -0.519406 0.000000
vn 0.854528 -0.519406 0.000000
vn -0.854528 -0.519406 0.000000
vn -0.854528 -0.519406 0.000000
vn -0.854528 -0.519406 0.000000
vn -0.854528 -0.519406 0.000000
vn 0.000000 0.330047 0.943964
vn 0.000000 0.330047 0.943964
vn 0.000000 0.330047 0.943964
vn 0.943974 0.330021 0.000000
vn 0.943974 0.330021 0.000000
vn 0.943974 0.330021 0.000000
vn 0.000000 0.330047 -0.943964
vn 0.000000 0.330047 -0.943964
vn 0.000000 0.330047 -0.943964
vn -0.943974 0.330021 0.000000
vn -0.943974 0.330021 0.000000
vn -0.943974 0.330021 0.000000
vn 0.000000 0.000000 1.000000
vn 0.000000 0.000000 1.000000
vn 0.000000 0.000000 1.000000
vn 0.000000 0.000000 1.000000
vn 0.000000 1.000000 0.000000
vn 0.000000 1.000000 0.000000
vn 0.000000 1.000000 0.000000
vn 0.000000 1.000000 0.000000
vn 0.000000 0.000000 -1.000000
vn 0.000000 0.000000 -1.000000
vn 0.000000 0.000000 -1.000000
vn 0.000000 0.000000 -1.000000
vn 0.000000 -1.000000 0.000000
vn 0.000000 -1.000000 0.000000
vn 0.000000 -1.000000 0.000000
vn 0.000000 -1.000000 0.000000
vn 1.000000 0.000000 0.000000
vn 1.000000 0.000000 0.000000
vn 1.000000 0.000000 0.000000
vn 1.000000 0.000000 0.000000
vn -1.000000 0.000000 0.000000
vn -1.000000 0.000000 0.000000
vn -1.000000 0.000000 0.000000
vn -1.000000 0.000000 0.000000
vn 0.000000 1.000000 0.000001
vn 0.000000 1.000000 0.000001
vn 0.000000 1.000000 0.000001
vn 0.000000 1.000000 0.000001
vn 0.000000 1.000000 0.000001
vn 0.000000 1.000000 -0.000001
vn 0.000000 1.000000 -0.000001
vn 0.000000 1.000000 0.000001
vn 0.000000 1.000000 -0.000001
vn 0.000000 1.000000 -0.000001
vn 0.000000 1.000000 -0.000001
vn 0.000000 1.000000 -0.000001
vn 0.000000 1.000000 -0.000001
vn 0.000000 1.000000 0.000001
vn 0.000000 1.000000 0.000001
vn 0.000000 1.000000 -0.000001
vn 0.000000 0.000000 -1.000000
vn 0.000000 0.000000 -1.000000
vn 0.000000 0.000000 -1.000000
vn 0.000000 0.000000 -1.000000
vn -1.000000 0.000000 0.000000
vn -1.000000 0.000000 0.000000
vn -1.000000 0.000000 0.000000
vn -1.000000 0.000000 0.000000
vn 0.000000 0.000000 1.000000
vn 0.000000 0.000000 1.000000
vn 0.000000 0.000000 1.000000
vn 0.000000 0.000000 1.000000
vn 1.000000 0.000000 0.000000
vn 1.000000 0.000000 0.000000
vn 1.000000 0.000000 0.000000
vn 1.000000 0.000000 0.000000
vn 0.000000 1.000000 -0.000000
vn 0.000000 1.000000 -0.000000
vn 0.000000 1.000000 -0.000000
vn 0.000000 1.000000 -0.000000
vn 0.000000 1.000000 -0.000000
vn 0.000000 1.000000 -0.000000
vn 0.000000 1.000000 -0.000000
vn 0.000000 1.000000 -0.000000
vn 0.000000 1.000000 -0.000000
vn 0.000000 1.000000 -0.000000
vn 0.000000 1.000000 -0.000000
vn 0.000000 1.000000 -0.000000
vn 0.000000 1.000000 -0.000000
vn 0.000000 1.000000 -0.000000
vn 0.000000 1.000000 -0.000000
vn 0.000000 1.000000 -0.000000
vn 0.000000 0.000000 1.000000
vn 0.000000 0.000000 1.000000
vn 0.000000 0.000000 1.000000
vn 0.000000 0.000000 1.000000
vn 1.000000 0.000000 0.000000
vn 1.000000 0.000000 0.000000
vn 1.000000 0.000000 0.000000
vn 1.000000 0.000000 0.000000
vn 0.000000 0.000000 -1.000000
vn 0.000000 0.000000 -1.000000
vn 0.000000 0.000000 -1.000000
vn 0.000000 0.000000 -1.000000
vn -1.000000 0.000000 0.000000
vn -1.000000 0.000000 0.000000
vn -1.000000 0.000000 0.000000
vn -1.000000 0.000000 0.000000
s off
f 1/1/1 2/2/2 4/3/3 3/4/4
f 5/5/5 6/6/6 8/7/7 7/8/8
f 7/9/9 8/10/10 2/11/11 1/12/12
f 2/13/13 8/14/14 6/15/15 4/16/16
f 7/17/17 1/18/18 3/19/19 5/20/20
f 3/21/21 4/22/22 9/23/23
f 4/24/24 6/25/25 9/26/26
f 6/27/27 5/28/28 9/29/29
f 5/30/30 3/31/31 9/32/32
f 10/33/33 11/34/34 13/35/35 12/36/36
f 30/37/37 31/38/38 32/39/39 33/40/40
f 14/41/41 15/42/42 17/43/43 16/44/44
f 16/45/45 17/46/46 11/47/47 10/48/48
f 11/49/49 17/50/50 15/51/51 13/52/52
f 16/53/53 10/54/54 12/55/55 14/56/56
f 12/57/57 13/58/58 19/59/59 18/60/60
f 13/58/61 15/61/62 20/62/63 19/59/64
f 15/61/65 14/63/66 21/64/67 20/62/68
f 14/63/69 12/57/70 18/60/71 21/64/72
f 18/65/73 19/66/74 23/67/75 22/68/76
f 19/69/77 20/70/78 24/71/79 23/72/80
f 20/73/81 21/74/82 25/75/83 24/76/84
f 21/77/85 18/78/86 22/79/87 25/80/88
f 22/81/89 23/82/90 27/83/91 26/84/92
f 23/85/93 24/86/94 28/87/95 27/88/96
f 24/89/97 25/90/98 29/91/99 28/92/100
f 25/93/101 22/94/102 26/95/103 29/96/104
f 26/97/105 27/98/106 31/99/107 30/100/108
f 27/101/109 28/102/110 32/103/111 31/104/112
f 28/105/113 29/106/114 33/107/115 32/108/116
f 29/109/117 26/110/118 30/111/119 33/112/120
