# This file uses meters as units for non-parametric coordinates.

v -0.476774 0.000000 0.283962
v 0.476774 0.000000 0.283962
v -0.476774 0.388927 0.283962
v 0.476774 0.388927 0.283962
v -0.476774 0.388927 -0.279973
v 0.476774 0.388927 -0.279973
v -0.476774 0.000000 -0.279973
v 0.476774 0.000000 -0.279973
v -0.378287 0.070030 0.283962
v 0.378280 0.070030 0.283962
v 0.378280 0.388927 0.283962
v -0.378287 0.388927 0.283962
v 0.378280 0.388927 -0.245498
v -0.378287 0.388927 -0.245498
v -0.378287 0.070030 0.320315
v 0.378280 0.070030 0.320315
v 0.378280 0.417879 0.320315
v -0.378287 0.417879 0.320315
v 0.378280 0.417879 -0.245498
v -0.378287 0.417879 -0.245498
v -0.258124 0.070030 0.320315
v -0.189141 0.070030 0.320315
v -0.258124 0.147124 0.320315
v -0.189145 0.147124 0.320315
v 0.189134 0.070030 0.320315
v 0.256167 0.070030 0.320315
v 0.189134 0.144434 0.320315
v 0.256169 0.144434 0.320315
v -0.154643 0.417879 0.192462
v 0.154637 0.417879 0.192462
v 0.154637 0.417879 -0.117646
v -0.154643 0.417879 -0.117646
v 0.046485 0.417879 -0.007220
v -0.050074 0.417879 -0.007220
v 0.046485 0.417879 0.090773
v -0.050074 0.417879 0.090773
v 0.046485 0.417879 -0.084519
v -0.050074 0.417879 -0.084519
v -0.123277 0.417879 -0.007220
v -0.123277 0.417879 0.090773
v -0.050074 0.417879 0.161955
v 0.046485 0.417879 0.161955
v 0.122195 0.417879 0.090773
v 0.122195 0.417879 -0.007220
v -0.303480 0.388927 -0.279973
v -0.303480 0.000000 -0.279973
v -0.234299 0.388927 -0.279973
v -0.234299 0.000000 -0.279973
v 0.237360 0.388927 -0.279973
v 0.237360 0.000000 -0.279973
v 0.299472 0.388927 -0.279973
v 0.299472 0.000000 -0.279973
v -0.303480 0.388927 -0.320315
v -0.303480 0.000000 -0.320315
v -0.234299 0.388927 -0.320315
v -0.234299 0.000000 -0.320315
v 0.237360 0.388927 -0.320315
v 0.237360 0.000000 -0.320315
v 0.299472 0.388927 -0.320315
v 0.299472 0.000000 -0.320315
v -0.303480 0.388927 -0.245498
v -0.234299 0.388927 -0.245498
v 0.237360 0.388927 -0.245498
v 0.299472 0.388927 -0.245498
vt 0.453801 0.062050
vt 0.453801 0.062050
vt 0.453801 0.062050
vt 0.453801 0.062050
vt 0.453801 0.062050
vt 0.453801 0.062050
vt 0.453801 0.062050
vt 0.453801 0.062050
vt 0.453801 0.062050
vt 0.453801 0.062050
vt 0.484978 0.062050
vt 0.484978 0.062050
vt 0.203377 0.168657
vt 0.474922 0.061044
vt 0.474922 0.061044
vt 0.474922 0.061044
vt 0.455812 0.062050
vt 0.455812 0.062050
vt 0.424635 0.062050
vt 0.392452 0.062050
vt 0.392452 0.062050
vt 0.424635 0.062050
vt 0.392452 0.062050
vt 0.392452 0.062050
vt 0.424635 0.062050
vt 0.424635 0.062050
vt 0.424635 0.062050
vt 0.455812 0.062050
vt 0.424635 0.062050
vt 0.424635 0.062050
vt 0.424635 0.062050
vt 0.455812 0.062050
vt 0.424635 0.062050
vt 0.455812 0.062050
vt 0.424635 0.062050
vt 0.455812 0.062050
vt 0.455812 0.062050
vt 0.484978 0.062050
vt 0.455812 0.062050
vt 0.455812 0.062050
vt 0.455812 0.062050
vt 0.484978 0.062050
vt 0.203377 0.168657
vt 0.203377 0.168657
vt 0.203377 0.168657
vt 0.474922 0.061044
vt 0.474922 0.061044
vt 0.474922 0.061044
vt 0.474922 0.061044
vt 0.474922 0.061044
vt 0.474922 0.061044
vt 0.474922 0.061044
vt 0.474922 0.061044
vt 0.474922 0.061044
vt 0.202372 0.063056
vt 0.202372 0.063056
vt 0.202372 0.063056
vt 0.202372 0.063056
vt 0.424635 0.062050
vt 0.455812 0.062050
vt 0.202372 0.063056
vt 0.202372 0.063056
vt 0.202372 0.063056
vt 0.202372 0.063056
vt 0.202372 0.063056
vt 0.202372 0.063056
vt 0.202372 0.063056
vt 0.202372 0.063056
vt 0.202372 0.063056
vt 0.202372 0.063056
vt 0.202372 0.063056
vt 0.235560 0.063056
vt 0.202372 0.063056
vt 0.235560 0.063056
vt 0.202372 0.063056
vt 0.202372 0.063056
vt 0.202372 0.063056
vt 0.202372 0.063056
vt 0.202372 0.063056
vt 0.202372 0.063056
vt 0.202372 0.063056
vt 0.235560 0.063056
vt 0.171194 0.063056
vt 0.202372 0.063056
vt 0.202372 0.063056
vt 0.235560 0.063056
vt 0.171194 0.063056
vt 0.202372 0.063056
vt 0.171194 0.063056
vt 0.171194 0.063056
vt 0.235560 0.063056
vt 0.202372 0.063056
vt 0.171194 0.063056
vt 0.171194 0.063056
vt 0.235560 0.063056
vt 0.202372 0.063056
vt 0.171194 0.063056
vt 0.235560 0.063056
vt 0.235560 0.063056
vt 0.202372 0.063056
vt 0.171194 0.063056
vt 0.235560 0.063056
vt 0.235560 0.063056
vt 0.202372 0.063056
vt 0.171194 0.063056
vt 0.235560 0.063056
vt 0.171194 0.063056
vt 0.235560 0.063056
vt 0.202372 0.063056
vt 0.171194 0.063056
vt 0.171194 0.063056
vt 0.202372 0.063056
vt 0.171194 0.063056
vt 0.202372 0.063056
vt 0.202372 0.063056
vt 0.171194 0.063056
vt 0.171194 0.063056
vt 0.202372 0.063056
vt 0.171194 0.063056
vt 0.202372 0.063056
vt 0.455812 0.062050
vt 0.455812 0.062050
vt 0.424635 0.062050
vt 0.455812 0.062050
vt 0.424635 0.062050
vt 0.424635 0.062050
vt 0.424635 0.062050
vt 0.392452 0.062050
vt 0.455812 0.062050
vt 0.455812 0.062050
vt 0.392452 0.062050
vt 0.424635 0.062050
vt 0.392452 0.062050
vt 0.455812 0.062050
vt 0.455812 0.062050
vt 0.392452 0.062050
vt 0.424635 0.062050
vt 0.455812 0.062050
vt 0.424635 0.062050
vt 0.424635 0.062050
vt 0.392452 0.062050
vt 0.455812 0.062050
vt 0.424635 0.062050
vt 0.392452 0.062050
vt 0.424635 0.062050
vt 0.392452 0.062050
vt 0.424635 0.062050
vt 0.392452 0.062050
vt 0.424635 0.062050
vt 0.424635 0.062050
vt 0.484978 0.062050
vt 0.484978 0.062050
vt 0.484978 0.062050
vt 0.484978 0.062050
vt 0.484978 0.062050
vt 0.484978 0.062050
vt 0.484978 0.062050
vt 0.484978 0.062050
vt 0.484978 0.062050
vt 0.484978 0.062050
vt 0.453801 0.062050
vt 0.484978 0.062050
vt 0.453801 0.062050
vt 0.484978 0.062050
vt 0.203377 0.168657
vt 0.203377 0.168657
vt 0.203377 0.168657
vt 0.203377 0.168657
vt 0.203377 0.168657
vt 0.203377 0.168657
vt 0.203377 0.168657
vt 0.203377 0.168657
vt 0.203377 0.168657
vt 0.203377 0.168657
vt 0.203377 0.168657
vt 0.203377 0.168657
vn 0.000000 0.000000 1.000000
vn 0.000000 0.000000 1.000000
vn 0.000000 0.000000 1.000000
vn 0.000000 0.000000 1.000000
vn 0.000000 0.000000 1.000000
vn 0.000000 0.000000 1.000000
vn 0.000000 0.000000 1.000000
vn 0.000000 0.000000 1.000000
vn 0.000000 0.000000 1.000000
vn 0.000000 0.000000 1.000000
vn 0.000000 0.000000 1.000000
vn 0.000000 0.000000 1.000000
vn 0.000000 1.000000 0.000000
vn 0.000000 1.000000 -0.000000
vn 0.000000 1.000000 -0.000000
vn 0.000000 1.000000 -0.000000
vn 0.000000 0.000000 -1.000000
vn 0.000000 0.000000 -1.000000
vn 0.000000 0.000000 -1.000000
vn 0.000000 0.000000 -1.000000
vn 0.000000 -1.000000 0.000000
vn 0.000000 -1.000000 0.000000
vn 0.000000 -1.000000 0.000000
vn 0.000000 -1.000000 0.000000
vn 0.000000 -1.000000 0.000000
vn 0.000000 -1.000000 0.000000
vn 0.000000 -1.000000 0.000000
vn 0.000000 -1.000000 0.000000
vn 1.000000 0.000000 0.000000
vn 1.000000 0.000000 0.000000
vn 1.000000 0.000000 0.000000
vn 1.000000 0.000000 0.000000
vn -1.000000 0.000000 0.000000
vn -1.000000 0.000000 0.000000
vn -1.000000 0.000000 0.000000
vn -1.000000 0.000000 0.000000
vn 0.000000 0.000000 1.000000
vn 0.000000 0.000000 1.000000
vn 0.000000 0.000000 1.000000
vn 0.000000 0.000000 1.000000
vn 0.000000 0.000000 1.000000
vn 0.000000 0.000000 1.000000
vn 0.000000 0.000000 1.000000
vn 0.000000 0.000000 1.000000
vn 0.000000 0.000000 1.000000
vn 0.000000 0.000000 1.000000
vn 0.000000 0.000000 1.000000
vn 0.000000 0.000000 1.000000
vn 0.000000 1.000000 0.000000
vn 0.000000 1.000000 -0.000000
vn 0.000000 1.000000 -0.000000
vn 0.000000 1.000000 0.000000
vn 0.000000 1.000000 -0.000000
vn 0.000000 1.000000 -0.000000
vn 0.000000 1.000000 -0.000000
vn 0.000000 1.000000 -0.000000
vn 0.000000 1.000000 -0.000000
vn 0.000000 1.000000 0.000000
vn 0.000000 1.000000 0.000000
vn 0.000000 1.000000 -0.000000
vn 0.000000 -1.000000 0.000000
vn 0.000000 -1.000000 0.000000
vn 0.000000 -1.000000 0.000000
vn 0.000000 -1.000000 0.000000
vn 0.000000 -1.000000 0.000000
vn 0.000000 -1.000000 0.000000
vn 0.000000 -1.000000 0.000000
vn 0.000000 -1.000000 0.000000
vn 1.000000 0.000000 0.000000
vn 1.000000 -0.000001 0.000000
vn 1.000000 -0.000001 0.000000
vn 1.000000 0.000000 0.000000
vn -1.000000 -0.000001 0.000000
vn -1.000000 0.000000 0.000000
vn -1.000000 0.000000 0.000000
vn -1.000000 -0.000000 0.000000
vn 1.000000 -0.000001 0.000000
vn 1.000000 -0.000001 0.000000
vn 1.000000 -0.000001 0.000000
vn 1.000000 -0.000001 0.000000
vn 0.000000 0.000000 -1.000000
vn 0.000000 0.000000 -1.000000
vn 0.000000 0.000000 -1.000000
vn 0.000000 0.000000 -1.000000
vn 0.000000 0.000000 -1.000000
vn 0.000000 0.000000 -1.000000
vn 0.000000 0.000000 -1.000000
vn 0.000000 0.000000 -1.000000
vn -1.000000 -0.000001 0.000000
vn -1.000000 -0.000001 0.000000
vn -1.000000 -0.000000 0.000000
vn -1.000000 -0.000001 0.000000
vn 0.000000 0.000000 1.000000
vn 0.000000 0.000000 1.000000
vn 0.000000 0.000000 1.000000
vn 0.000000 0.000000 1.000000
vn 0.000000 0.000000 1.000000
vn 0.000000 0.000000 1.000000
vn 0.000000 0.000000 1.000000
vn 0.000000 0.000000 1.000000
vn 0.000000 1.000000 0.000000
vn 0.000000 1.000000 0.000000
vn 0.000000 1.000000 0.000000
vn 0.000000 1.000000 0.000000
vn 0.000000 1.000000 0.000000
vn 0.000000 1.000000 -0.000000
vn 0.000000 1.000000 -0.000000
vn 0.000000 1.000000 0.000000
vn 0.000000 1.000000 -0.000000
vn 0.000000 1.000000 -0.000000
vn 0.000000 1.000000 -0.000000
vn 0.000000 1.000000 -0.000000
vn 0.000000 1.000000 -0.000000
vn 0.000000 1.000000 0.000000
vn 0.000000 1.000000 0.000000
vn 0.000000 1.000000 -0.000000
vn 0.000000 1.000000 0.000000
vn 0.000000 1.000000 -0.000000
vn 0.000000 1.000000 -0.000000
vn 0.000000 1.000000 -0.000000
vn 0.000000 1.000000 -0.000000
vn 0.000000 1.000000 0.000000
vn 0.000000 1.000000 0.000000
vn 0.000000 1.000000 0.000000
vn 0.000000 1.000000 -0.000000
vn 0.000000 1.000000 0.000000
vn 0.000000 1.000000 0.000000
vn 0.000000 1.000000 0.000000
vn 0.000000 1.000000 -0.000000
vn 0.000000 1.000000 -0.000000
vn 0.000000 1.000000 0.000000
vn 0.000000 1.000000 0.000000
vn 0.000000 1.000000 0.000000
vn 0.000000 1.000000 0.000000
vn 0.000000 1.000000 0.000000
vn 0.000000 1.000000 0.000000
vn 0.000000 1.000000 -0.000000
vn 0.000000 1.000000 -0.000000
vn 0.000000 1.000000 -0.000000
vn 0.000000 1.000000 -0.000000
vn 0.000000 1.000000 -0.000000
vn 0.000000 1.000000 0.000000
vn 0.000000 1.000000 0.000000
vn 0.000000 1.000000 -0.000000
vn 0.000000 1.000000 0.000000
vn 0.000000 1.000000 -0.000000
vn 0.000000 1.000000 0.000000
vn 0.000000 1.000000 -0.000000
vn 0.000000 1.000000 -0.000000
vn 0.000000 1.000000 -0.000000
vn 0.000000 1.000000 0.000000
vn 0.000000 1.000000 0.000000
vn 0.000000 1.000000 -0.000000
vn 0.000000 1.000000 0.000000
vn 0.000000 1.000000 -0.000000
vn 0.000000 1.000000 0.000000
vn 0.000000 0.000000 -1.000000
vn 0.000000 0.000000 -1.000000
vn 0.000000 0.000000 -1.000000
vn 0.000000 0.000000 -1.000000
vn 0.000000 0.000000 -1.000000
vn 0.000000 0.000000 -1.000000
vn 0.000000 0.000000 -1.000000
vn 0.000000 0.000000 -1.000000
vn 0.000000 0.000000 -1.000000
vn 0.000000 0.000000 -1.000000
vn 0.000000 0.000000 -1.000000
vn 0.000000 0.000000 -1.000000
vn 0.000000 0.000000 -1.000000
vn 0.000000 0.000000 -1.000000
vn 0.000000 0.000000 -1.000000
vn 0.000000 0.000000 -1.000000
vn -1.000000 0.000000 0.000000
vn -1.000000 0.000000 0.000000
vn -1.000000 0.000000 0.000000
vn -1.000000 0.000000 0.000000
vn 0.000000 1.000000 0.000000
vn 0.000000 1.000000 0.000000
vn 0.000000 1.000000 0.000000
vn 0.000000 1.000000 -0.000000
vn 0.000000 1.000000 -0.000000
vn 0.000000 1.000000 0.000000
vn 1.000000 0.000000 0.000000
vn 1.000000 0.000000 0.000000
vn 1.000000 0.000000 0.000000
vn 1.000000 0.000000 0.000000
vn 0.000000 -1.000000 0.000000
vn 0.000000 -1.000000 0.000000
vn 0.000000 -1.000000 0.000000
vn 0.000000 -1.000000 0.000000
vn -1.000000 0.000000 0.000000
vn -1.000000 0.000000 0.000000
vn -1.000000 0.000000 0.000000
vn -1.000000 0.000000 0.000000
vn 0.000000 1.000000 -0.000000
vn 0.000000 1.000000 0.000000
vn 0.000000 1.000000 0.000000
vn 0.000000 1.000000 0.000000
vn 0.000000 1.000000 0.000000
vn 0.000000 1.000000 -0.000000
vn 1.000000 0.000000 0.000000
vn 1.000000 0.000000 0.000000
vn 1.000000 0.000000 0.000000
vn 1.000000 0.000000 0.000000
vn 0.000000 -1.000000 0.000000
vn 0.000000 -1.000000 0.000000
vn 0.000000 -1.000000 0.000000
vn 0.000000 -1.000000 0.000000
vn 0.000000 1.000000 -0.000000
vn 0.000000 1.000000 -0.000000
vn 0.000000 1.000000 -0.000000
vn 0.000000 1.000000 -0.000000
vn 0.000000 1.000000 0.000000
vn 0.000000 1.000000 0.000000
vn 0.000000 1.000000 0.000000
vn 0.000000 1.000000 0.000000
s off
f 15/1/1 21/2/2 23/3/3 24/4/4 22/5/5 25/6/6 27/7/7 28/8/8 26/9/9 16/10/10 17/161/11 18/163/12
f 30/13/13 43/43/14 35/44/15 42/45/16
f 5/137/17 45/125/18 46/19/19 7/150/20
f 7/20/21 46/133/22 48/21/23 50/131/24 52/23/25 8/24/26 2/146/27 1/148/28
f 2/146/29 8/24/30 6/128/31 4/144/32
f 7/20/33 1/148/34 3/141/35 5/136/36
f 1/26/37 2/147/38 10/143/39 9/31/40
f 2/25/41 4/145/42 11/139/43 10/30/44
f 3/29/45 1/149/46 9/140/47 12/33/48
f 4/28/49 6/129/50 13/122/51 11/32/52
f 6/130/53 51/121/54 64/36/55 13/34/56
f 5/17/57 3/142/58 12/134/59 14/37/60
f 9/55/61 10/56/62 16/57/63 26/58/64 25/61/65 22/62/66 21/63/67 15/64/68
f 10/56/69 11/65/70 17/66/71 16/57/72
f 12/67/73 9/55/74 15/64/75 18/68/76
f 11/65/77 13/69/78 19/70/79 17/66/80
f 13/69/81 64/71/82 63/100/83 62/73/84 61/104/85 14/75/86 20/76/87 19/70/88
f 14/75/89 12/67/90 18/68/91 20/76/92
f 22/62/93 24/77/94 23/78/95 21/63/96
f 26/58/97 28/79/98 27/80/99 25/61/100
f 18/12/101 17/162/102 30/156/103 29/151/104
f 17/11/105 19/160/106 31/158/107 30/155/108
f 19/38/109 20/159/110 32/154/111 31/157/112
f 20/42/113 18/164/114 29/152/115 32/153/116
f 29/165/117 41/166/118 36/167/119 40/168/120
f 31/169/121 37/170/122 33/171/123 44/172/124
f 32/173/125 39/174/126 34/175/127 38/176/128
f 35/14/129 43/15/130 44/16/131 33/46/132 37/47/133 38/48/134 34/49/135 39/50/136 40/51/137 36/52/138 41/53/139 42/54/140
f 32/173/141 38/176/142 37/170/143 31/169/144
f 29/165/145 40/168/146 39/174/147 32/173/148
f 42/45/149 41/166/150 29/165/151 30/13/152
f 31/169/153 44/172/154 43/43/155 30/13/156
f 54/81/157 53/118/158 55/115/159 56/84/160
f 48/132/161 47/59/162 49/123/163 50/22/164
f 58/85/165 57/112/166 59/109/167 60/88/168
f 52/126/169 51/35/170 6/27/171 8/127/172
f 46/89/173 45/90/174 53/107/175 54/119/176
f 47/91/177 55/108/178 53/82/179 45/103/180 61/74/181 62/102/182
f 47/101/183 48/117/184 56/116/185 55/83/186
f 48/92/187 46/120/188 54/81/189 56/84/190
f 50/93/191 49/94/192 57/105/193 58/113/194
f 51/95/195 59/106/196 57/86/197 49/99/198 63/72/199 64/98/200
f 51/97/201 52/111/202 60/110/203 59/87/204
f 52/96/205 50/114/206 58/85/207 60/88/208
f 61/41/209 45/18/210 5/138/211 14/135/212
f 63/39/213 49/60/214 47/124/215 62/40/216
