# This file uses meters as units for non-parametric coordinates.

v -0.290136 0.014396 -0.145796
v 0.282969 0.014396 -0.145796
v -0.290136 0.091556 -0.145796
v 0.282969 0.091556 -0.145796
v -0.290136 0.091556 -0.222956
v 0.282969 0.091556 -0.222956
v -0.290136 0.014396 -0.222956
v 0.282969 0.014396 -0.222956
v -0.290136 0.000000 -0.237352
v -0.290136 0.000000 -0.131400
v -0.290136 0.105952 -0.131400
v -0.290136 0.105952 -0.237352
v -0.462107 0.000000 -0.237352
v -0.462107 0.000000 -0.131400
v -0.462107 0.105952 -0.131400
v -0.462107 0.105952 -0.237352
v 0.354776 0.014396 -0.222956
v 0.354776 0.014396 -0.145796
v 0.354776 0.091556 -0.222956
v 0.354776 0.091556 -0.145796
v 0.498283 0.014396 -0.222956
v 0.498283 0.014396 -0.145796
v 0.498283 0.091556 -0.222956
v 0.498283 0.091556 -0.145796
v -0.410099 0.014396 -0.001261
v 0.157766 0.014396 0.076062
v -0.410099 0.091556 -0.001261
v 0.157766 0.091556 0.076062
v -0.399689 0.091556 -0.077715
v 0.168177 0.091556 -0.000392
v -0.399689 0.014396 -0.077715
v 0.168177 0.014396 -0.000392
v -0.397747 0.000000 -0.091980
v -0.412043 0.000000 0.013004
v -0.412043 0.105952 0.013004
v -0.397747 0.105952 -0.091980
v -0.568144 0.000000 -0.115182
v -0.582439 0.000000 -0.010198
v -0.582439 0.105952 -0.010198
v -0.568144 0.105952 -0.115182
v 0.239326 0.014396 0.009296
v 0.228916 0.014396 0.085750
v 0.239326 0.091556 0.009296
v 0.228916 0.091556 0.085750
v 0.381521 0.014396 0.028657
v 0.371111 0.014396 0.105112
v 0.381521 0.091556 0.028657
v 0.371111 0.091556 0.105112
v 0.409996 0.014396 0.147198
v -0.162525 0.014396 0.121312
v 0.409996 0.091556 0.147198
v -0.162525 0.091556 0.121312
v 0.406511 0.091556 0.224280
v -0.166010 0.091556 0.198394
v 0.406511 0.014396 0.224280
v -0.166010 0.014396 0.198394
v 0.405861 0.000000 0.238661
v 0.410646 0.000000 0.132817
v 0.410646 0.105952 0.132817
v 0.405861 0.105952 0.238661
v 0.577654 0.000000 0.246428
v 0.582439 0.000000 0.140584
v 0.582439 0.105952 0.140584
v 0.577654 0.105952 0.246428
v -0.237743 0.014396 0.195150
v -0.234259 0.014396 0.118069
v -0.237743 0.091556 0.195150
v -0.234259 0.091556 0.118069
v -0.381104 0.014396 0.188668
v -0.377619 0.014396 0.111587
v -0.381104 0.091556 0.188668
v -0.377619 0.091556 0.111587
v -0.167250 0.093644 0.260644
v 0.189814 0.093644 -0.187637
v -0.167250 0.170804 0.260644
v 0.189814 0.170804 -0.187637
v -0.227604 0.170804 0.212571
v 0.129459 0.170804 -0.235710
v -0.227604 0.093644 0.212571
v 0.129459 0.093644 -0.235710
v -0.238865 0.079248 0.203602
v -0.155989 0.079248 0.269614
v -0.155989 0.185200 0.269614
v -0.238865 0.185200 0.203602
v -0.346006 0.079248 0.338116
v -0.263130 0.079248 0.404128
v -0.263130 0.185200 0.404128
v -0.346006 0.185200 0.338116
v 0.174198 0.093644 -0.291877
v 0.234552 0.093644 -0.243804
v 0.174198 0.170804 -0.291877
v 0.234552 0.170804 -0.243804
v 0.263607 0.093644 -0.404128
v 0.323961 0.093644 -0.356055
v 0.263607 0.170804 -0.404128
v 0.323961 0.170804 -0.356055
vt 0.265041 0.061720
vt 0.233736 0.024824
vt 0.294111 0.061720
vt 0.110749 0.061720
vt 0.110749 0.061720
vt 0.262805 0.024824
vt 0.139819 0.061720
vt 0.233736 0.024824
vt 0.110749 0.061720
vt 0.233736 0.024824
vt 0.205784 0.024824
vt 0.233736 0.024824
vt 0.332125 0.061720
vt 0.294111 0.061720
vt 0.265041 0.061720
vt 0.265041 0.061720
vt 0.294111 0.061720
vt 0.294111 0.061720
vt 0.265041 0.061720
vt 0.332125 0.061720
vt 0.265041 0.061720
vt 0.294111 0.061720
vt 0.262805 0.024824
vt 0.233736 0.024824
vt 0.233736 0.024824
vt 0.233736 0.024824
vt 0.262805 0.024824
vt 0.233736 0.024824
vt 0.262805 0.024824
vt 0.233736 0.024824
vt 0.139819 0.061720
vt 0.262805 0.024824
vt 0.139819 0.061720
vt 0.110749 0.061720
vt 0.262805 0.024824
vt 0.139819 0.061720
vt 0.262805 0.024824
vt 0.233736 0.024824
vt 0.233736 0.024824
vt 0.262805 0.024824
vt 0.233736 0.024824
vt 0.205784 0.024824
vt 0.205784 0.024824
vt 0.205784 0.024824
vt 0.110749 0.061720
vt 0.110749 0.061720
vt 0.110749 0.061720
vt 0.233736 0.024824
vt 0.233736 0.024824
vt 0.110749 0.061720
vt 0.110749 0.061720
vt 0.110749 0.061720
vt 0.233736 0.024824
vt 0.110749 0.061720
vt 0.233736 0.024824
vt 0.110749 0.061720
vt 0.332125 0.061720
vt 0.265041 0.061720
vt 0.294111 0.061720
vt 0.294111 0.061720
vt 0.294111 0.061720
vt 0.265041 0.061720
vt 0.265041 0.061720
vt 0.332125 0.061720
vt 0.294111 0.061720
vt 0.265041 0.061720
vt 0.265041 0.061720
vt 0.294111 0.061720
vt 0.265041 0.061720
vt 0.294111 0.061720
vt 0.265041 0.061720
vt 0.294111 0.061720
vt 0.233736 0.024824
vt 0.233736 0.024824
vt 0.233736 0.024824
vt 0.233736 0.024824
vt 0.262805 0.024824
vt 0.262805 0.024824
vt 0.262805 0.024824
vt 0.262805 0.024824
vt 0.233736 0.024824
vt 0.233736 0.024824
vt 0.233736 0.024824
vt 0.233736 0.024824
vt 0.205784 0.024824
vt 0.205784 0.024824
vt 0.205784 0.024824
vt 0.205784 0.024824
vt 0.265041 0.061720
vt 0.265041 0.061720
vt 0.265041 0.061720
vt 0.265041 0.061720
vt 0.265041 0.061720
vt 0.265041 0.061720
vt 0.265041 0.061720
vt 0.265041 0.061720
vt 0.265041 0.061720
vt 0.265041 0.061720
vt 0.265041 0.061720
vt 0.265041 0.061720
vt 0.294111 0.061720
vt 0.294111 0.061720
vt 0.294111 0.061720
vt 0.294111 0.061720
vt 0.294111 0.061720
vt 0.294111 0.061720
vt 0.294111 0.061720
vt 0.294111 0.061720
vt 0.332125 0.061720
vt 0.332125 0.061720
vt 0.332125 0.061720
vt 0.332125 0.061720
vt 0.294111 0.061720
vt 0.294111 0.061720
vt 0.294111 0.061720
vt 0.294111 0.061720
vt 0.110749 0.061720
vt 0.110749 0.061720
vt 0.110749 0.061720
vt 0.110749 0.061720
vt 0.110749 0.061720
vt 0.110749 0.061720
vt 0.110749 0.061720
vt 0.110749 0.061720
vt 0.139819 0.061720
vt 0.139819 0.061720
vt 0.139819 0.061720
vt 0.139819 0.061720
vt 0.110749 0.061720
vt 0.110749 0.061720
vt 0.110749 0.061720
vt 0.110749 0.061720
vt 0.233736 0.024824
vt 0.233736 0.024824
vt 0.233736 0.024824
vt 0.233736 0.024824
vt 0.233736 0.024824
vt 0.233736 0.024824
vt 0.262805 0.024824
vt 0.262805 0.024824
vt 0.262805 0.024824
vt 0.262805 0.024824
vt 0.233736 0.024824
vt 0.233736 0.024824
vt 0.233736 0.024824
vt 0.233736 0.024824
vt 0.233736 0.024824
vt 0.233736 0.024824
vt 0.262805 0.024824
vt 0.262805 0.024824
vt 0.262805 0.024824
vt 0.262805 0.024824
vt 0.233736 0.024824
vt 0.233736 0.024824
vt 0.233736 0.024824
vt 0.233736 0.024824
vt 0.205784 0.024824
vt 0.205784 0.024824
vt 0.205784 0.024824
vt 0.205784 0.024824
vt 0.265041 0.061720
vt 0.265041 0.061720
vt 0.265041 0.061720
vt 0.265041 0.061720
vt 0.265041 0.061720
vt 0.265041 0.061720
vt 0.265041 0.061720
vt 0.265041 0.061720
vt 0.265041 0.061720
vt 0.265041 0.061720
vt 0.265041 0.061720
vt 0.265041 0.061720
vt 0.294111 0.061720
vt 0.294111 0.061720
vt 0.294111 0.061720
vt 0.294111 0.061720
vt 0.294111 0.061720
vt 0.294111 0.061720
vt 0.294111 0.061720
vt 0.294111 0.061720
vt 0.332125 0.061720
vt 0.332125 0.061720
vt 0.332125 0.061720
vt 0.332125 0.061720
vt 0.294111 0.061720
vt 0.294111 0.061720
vt 0.294111 0.061720
vt 0.294111 0.061720
vt 0.110749 0.061720
vt 0.110749 0.061720
vt 0.110749 0.061720
vt 0.110749 0.061720
vt 0.110749 0.061720
vt 0.110749 0.061720
vt 0.110749 0.061720
vt 0.110749 0.061720
vt 0.139819 0.061720
vt 0.139819 0.061720
vt 0.139819 0.061720
vt 0.139819 0.061720
vt 0.110749 0.061720
vt 0.110749 0.061720
vt 0.110749 0.061720
vt 0.110749 0.061720
vt 0.233736 0.024824
vt 0.233736 0.024824
vt 0.233736 0.024824
vt 0.233736 0.024824
vt 0.233736 0.024824
vt 0.233736 0.024824
vt 0.262805 0.024824
vt 0.262805 0.024824
vt 0.262805 0.024824
vt 0.262805 0.024824
vt 0.233736 0.024824
vt 0.233736 0.024824
vt 0.233736 0.024824
vt 0.233736 0.024824
vt 0.233736 0.024824
vt 0.233736 0.024824
vt 0.262805 0.024824
vt 0.262805 0.024824
vt 0.262805 0.024824
vt 0.262805 0.024824
vt 0.233736 0.024824
vt 0.233736 0.024824
vt 0.233736 0.024824
vt 0.233736 0.024824
vt 0.205784 0.024824
vt 0.205784 0.024824
vt 0.205784 0.024824
vt 0.205784 0.024824
vt 0.265041 0.061720
vt 0.265041 0.061720
vt 0.265041 0.061720
vt 0.265041 0.061720
vt 0.265041 0.061720
vt 0.265041 0.061720
vt 0.265041 0.061720
vt 0.265041 0.061720
vt 0.265041 0.061720
vt 0.265041 0.061720
vt 0.265041 0.061720
vt 0.265041 0.061720
vt 0.294111 0.061720
vt 0.294111 0.061720
vt 0.294111 0.061720
vt 0.294111 0.061720
vt 0.294111 0.061720
vt 0.294111 0.061720
vt 0.294111 0.061720
vt 0.294111 0.061720
vt 0.332125 0.061720
vt 0.332125 0.061720
vt 0.332125 0.061720
vt 0.332125 0.061720
vt 0.294111 0.061720
vt 0.294111 0.061720
vt 0.294111 0.061720
vt 0.294111 0.061720
vt 0.110749 0.061720
vt 0.110749 0.061720
vt 0.110749 0.061720
vt 0.110749 0.061720
vt 0.110749 0.061720
vt 0.110749 0.061720
vt 0.110749 0.061720
vt 0.110749 0.061720
vt 0.139819 0.061720
vt 0.139819 0.061720
vt 0.139819 0.061720
vt 0.139819 0.061720
vt 0.110749 0.061720
vt 0.110749 0.061720
vt 0.110749 0.061720
vt 0.110749 0.061720
vt 0.233736 0.024824
vt 0.233736 0.024824
vt 0.233736 0.024824
vt 0.233736 0.024824
vt 0.233736 0.024824
vt 0.233736 0.024824
vt 0.262805 0.024824
vt 0.262805 0.024824
vt 0.262805 0.024824
vt 0.262805 0.024824
vt 0.233736 0.024824
vt 0.233736 0.024824
vn 0.000000 0.000000 1.000000
vn 0.000000 0.000000 1.000000
vn 0.000000 0.000000 1.000000
vn 0.000000 0.000000 1.000000
vn 0.000000 1.000000 0.000000
vn 0.000000 1.000000 0.000000
vn 0.000000 1.000000 0.000000
vn 0.000000 1.000000 0.000000
vn 0.000000 0.000000 -1.000000
vn 0.000000 0.000000 -1.000000
vn 0.000000 0.000000 -1.000000
vn 0.000000 0.000000 -1.000000
vn 0.000000 -1.000000 0.000000
vn 0.000000 -1.000000 0.000000
vn 0.000000 -1.000000 0.000000
vn 0.000000 -1.000000 0.000000
vn 1.000000 0.000000 0.000000
vn 1.000000 0.000000 0.000000
vn 1.000000 0.000000 0.000000
vn 1.000000 0.000000 0.000000
vn -1.000000 0.000000 0.000000
vn -1.000000 0.000000 0.000000
vn -1.000000 0.000000 0.000000
vn -1.000000 0.000000 0.000000
vn 1.000000 0.000000 0.000000
vn 1.000000 0.000000 0.000000
vn 1.000000 0.000000 0.000000
vn 1.000000 0.000000 0.000000
vn 1.000000 0.000000 0.000000
vn 1.000000 -0.000000 0.000000
vn 1.000000 -0.000000 0.000000
vn 1.000000 0.000000 0.000000
vn 1.000000 -0.000000 0.000000
vn 1.000000 -0.000000 0.000000
vn 1.000000 -0.000000 0.000000
vn 1.000000 -0.000000 0.000000
vn 1.000000 -0.000000 0.000000
vn 1.000000 0.000000 0.000000
vn 1.000000 0.000000 0.000000
vn 1.000000 -0.000000 0.000000
vn 0.000000 -1.000000 0.000000
vn 0.000000 -1.000000 0.000000
vn 0.000000 -1.000000 0.000000
vn 0.000000 -1.000000 0.000000
vn 0.000000 0.000000 1.000000
vn 0.000000 0.000000 1.000000
vn 0.000000 0.000000 1.000000
vn 0.000000 0.000000 1.000000
vn 0.000000 1.000000 0.000000
vn 0.000000 1.000000 0.000000
vn 0.000000 1.000000 0.000000
vn 0.000000 1.000000 0.000000
vn 0.000000 0.000000 -1.000000
vn 0.000000 0.000000 -1.000000
vn 0.000000 0.000000 -1.000000
vn 0.000000 0.000000 -1.000000
vn 0.000000 -1.000000 0.000000
vn 0.000000 -1.000000 0.000000
vn 0.000000 -1.000000 0.000000
vn 0.000000 -1.000000 0.000000
vn 0.000000 0.000000 -1.000000
vn 0.000000 0.000000 -1.000000
vn 0.000000 0.000000 -1.000000
vn 0.000000 0.000000 -1.000000
vn 0.000000 1.000000 0.000000
vn 0.000000 1.000000 0.000000
vn 0.000000 1.000000 0.000000
vn 0.000000 1.000000 0.000000
vn 0.000000 0.000000 1.000000
vn 0.000000 0.000000 1.000000
vn 0.000000 0.000000 1.000000
vn 0.000000 0.000000 1.000000
vn 0.000000 -1.000000 0.000000
vn 0.000000 -1.000000 0.000000
vn 0.000000 -1.000000 0.000000
vn 0.000000 -1.000000 0.000000
vn 0.000000 0.000000 -1.000000
vn 0.000000 0.000000 -1.000000
vn 0.000000 0.000000 -1.000000
vn 0.000000 0.000000 -1.000000
vn 0.000000 1.000000 0.000000
vn 0.000000 1.000000 0.000000
vn 0.000000 1.000000 0.000000
vn 0.000000 1.000000 0.000000
vn 0.000000 0.000000 1.000000
vn 0.000000 0.000000 1.000000
vn 0.000000 0.000000 1.000000
vn 0.000000 0.000000 1.000000
vn -0.134919 0.000000 0.990857
vn -0.134919 0.000000 0.990857
vn -0.134919 0.000000 0.990857
vn -0.134919 0.000000 0.990857
vn 0.000000 1.000000 0.000000
vn 0.000000 1.000000 0.000000
vn 0.000000 1.000000 0.000000
vn 0.000000 1.000000 0.000000
vn 0.134919 0.000000 -0.990857
vn 0.134919 0.000000 -0.990857
vn 0.134919 0.000000 -0.990857
vn 0.134919 0.000000 -0.990857
vn 0.000000 -1.000000 0.000000
vn 0.000000 -1.000000 0.000000
vn 0.000000 -1.000000 0.000000
vn 0.000000 -1.000000 0.000000
vn 0.990857 0.000000 0.134918
vn 0.990857 0.000000 0.134918
vn 0.990857 0.000000 0.134918
vn 0.990857 0.000000 0.134918
vn -0.990856 0.000000 -0.134924
vn -0.990856 0.000000 -0.134924
vn -0.990856 0.000000 -0.134924
vn -0.990856 0.000000 -0.134924
vn 0.990859 -0.000032 0.134899
vn 0.990851 -0.000032 0.134964
vn 0.990851 -0.000032 0.134964
vn 0.990859 -0.000032 0.134899
vn 0.990851 -0.000032 0.134964
vn 0.990851 0.000032 0.134964
vn 0.990851 0.000032 0.134964
vn 0.990851 -0.000032 0.134964
vn 0.990851 0.000032 0.134964
vn 0.990859 0.000032 0.134899
vn 0.990859 0.000032 0.134899
vn 0.990851 0.000032 0.134964
vn 0.990859 0.000032 0.134899
vn 0.990859 -0.000032 0.134899
vn 0.990859 -0.000032 0.134899
vn 0.990859 0.000032 0.134899
vn 0.000000 -1.000000 0.000000
vn 0.000000 -1.000000 0.000000
vn 0.000000 -1.000000 0.000000
vn 0.000000 -1.000000 0.000000
vn -0.134919 0.000000 0.990857
vn -0.134919 0.000000 0.990857
vn -0.134919 0.000000 0.990857
vn -0.134919 0.000000 0.990857
vn 0.000000 1.000000 0.000000
vn 0.000000 1.000000 0.000000
vn 0.000000 1.000000 0.000000
vn 0.000000 1.000000 0.000000
vn 0.134921 0.000000 -0.990856
vn 0.134921 0.000000 -0.990856
vn 0.134921 0.000000 -0.990856
vn 0.134921 0.000000 -0.990856
vn 0.000000 -1.000000 0.000000
vn 0.000000 -1.000000 0.000000
vn 0.000000 -1.000000 0.000000
vn 0.000000 -1.000000 0.000000
vn 0.134919 0.000000 -0.990857
vn 0.134919 0.000000 -0.990857
vn 0.134918 0.000000 -0.990857
vn 0.134918 0.000000 -0.990857
vn 0.000000 1.000000 0.000000
vn 0.000000 1.000000 0.000000
vn 0.000000 1.000000 0.000000
vn 0.000000 1.000000 0.000000
vn -0.134919 0.000000 0.990857
vn -0.134919 0.000000 0.990857
vn -0.134919 0.000000 0.990857
vn -0.134919 0.000000 0.990857
vn 0.000000 -1.000000 0.000000
vn 0.000000 -1.000000 0.000000
vn 0.000000 -1.000000 0.000000
vn 0.000000 -1.000000 0.000000
vn 0.134918 0.000000 -0.990857
vn 0.134918 0.000000 -0.990857
vn 0.134919 0.000000 -0.990857
vn 0.134919 0.000000 -0.990857
vn 0.000000 1.000000 0.000000
vn 0.000000 1.000000 0.000000
vn 0.000000 1.000000 0.000000
vn 0.000000 1.000000 0.000000
vn -0.134919 0.000000 0.990857
vn -0.134919 0.000000 0.990857
vn -0.134919 0.000000 0.990857
vn -0.134919 0.000000 0.990857
vn 0.045168 0.000000 -0.998979
vn 0.045168 0.000000 -0.998980
vn 0.045168 0.000000 -0.998980
vn 0.045168 0.000000 -0.998979
vn 0.000000 1.000000 0.000000
vn 0.000000 1.000000 0.000000
vn 0.000000 1.000000 0.000000
vn 0.000000 1.000000 0.000000
vn -0.045168 0.000000 0.998979
vn -0.045168 0.000000 0.998980
vn -0.045168 0.000000 0.998980
vn -0.045168 0.000000 0.998979
vn 0.000000 -1.000000 0.000000
vn 0.000000 -1.000000 0.000000
vn 0.000000 -1.000000 0.000000
vn 0.000000 -1.000000 0.000000
vn -0.998980 0.000000 -0.045162
vn -0.998980 0.000000 -0.045162
vn -0.998980 0.000000 -0.045162
vn -0.998980 0.000000 -0.045162
vn 0.998980 0.000000 0.045167
vn 0.998980 0.000000 0.045167
vn 0.998980 0.000000 0.045167
vn 0.998980 0.000000 0.045167
vn -0.998979 0.000001 -0.045172
vn -0.998979 0.000001 -0.045172
vn -0.998979 0.000001 -0.045172
vn -0.998979 0.000001 -0.045172
vn -0.998979 0.000001 -0.045172
vn -0.998979 -0.000000 -0.045172
vn -0.998979 -0.000000 -0.045172
vn -0.998979 0.000001 -0.045172
vn -0.998979 -0.000000 -0.045172
vn -0.998979 -0.000000 -0.045172
vn -0.998979 -0.000000 -0.045172
vn -0.998979 -0.000000 -0.045172
vn -0.998979 -0.000000 -0.045172
vn -0.998979 0.000001 -0.045172
vn -0.998979 0.000001 -0.045172
vn -0.998979 -0.000000 -0.045172
vn 0.000000 -1.000000 0.000000
vn 0.000000 -1.000000 0.000000
vn 0.000000 -1.000000 0.000000
vn 0.000000 -1.000000 0.000000
vn 0.045168 0.000000 -0.998980
vn 0.045168 0.000000 -0.998980
vn 0.045168 0.000000 -0.998980
vn 0.045168 0.000000 -0.998980
vn 0.000000 1.000000 0.000000
vn 0.000000 1.000000 0.000000
vn 0.000000 1.000000 0.000000
vn 0.000000 1.000000 0.000000
vn -0.045168 0.000000 0.998980
vn -0.045168 0.000000 0.998980
vn -0.045168 0.000000 0.998980
vn -0.045168 0.000000 0.998980
vn 0.000000 -1.000000 0.000000
vn 0.000000 -1.000000 0.000000
vn 0.000000 -1.000000 0.000000
vn 0.000000 -1.000000 0.000000
vn -0.045168 0.000000 0.998980
vn -0.045168 0.000000 0.998980
vn -0.045167 0.000000 0.998980
vn -0.045167 0.000000 0.998980
vn 0.000000 1.000000 0.000000
vn 0.000000 1.000000 0.000000
vn 0.000000 1.000000 0.000000
vn 0.000000 1.000000 0.000000
vn 0.045168 0.000000 -0.998980
vn 0.045168 0.000000 -0.998980
vn 0.045167 0.000000 -0.998980
vn 0.045167 0.000000 -0.998980
vn 0.000000 -1.000000 0.000000
vn 0.000000 -1.000000 0.000000
vn 0.000000 -1.000000 0.000000
vn 0.000000 -1.000000 0.000000
vn -0.045167 0.000000 0.998980
vn -0.045167 0.000000 0.998980
vn -0.045168 0.000000 0.998979
vn -0.045168 0.000000 0.998979
vn 0.000000 1.000000 0.000000
vn 0.000000 1.000000 0.000000
vn 0.000000 1.000000 0.000000
vn 0.000000 1.000000 0.000000
vn 0.045167 0.000000 -0.998980
vn 0.045167 0.000000 -0.998980
vn 0.045168 0.000000 -0.998979
vn 0.045168 0.000000 -0.998979
vn 0.782197 0.000000 0.623032
vn 0.782196 0.000000 0.623033
vn 0.782196 0.000000 0.623033
vn 0.782197 0.000000 0.623032
vn 0.000000 1.000000 0.000000
vn 0.000000 1.000000 -0.000000
vn 0.000000 1.000000 -0.000000
vn 0.000000 1.000000 0.000000
vn -0.782197 0.000000 -0.623032
vn -0.782196 0.000000 -0.623033
vn -0.782196 0.000000 -0.623033
vn -0.782197 0.000000 -0.623032
vn 0.000000 -1.000000 -0.000000
vn 0.000000 -1.000000 -0.000000
vn 0.000000 -1.000000 -0.000000
vn 0.000000 -1.000000 -0.000000
vn 0.623031 0.000000 -0.782197
vn 0.623031 0.000000 -0.782197
vn 0.623031 0.000000 -0.782197
vn 0.623031 0.000000 -0.782197
vn -0.623029 0.000000 0.782199
vn -0.623029 0.000000 0.782199
vn -0.623029 0.000000 0.782199
vn -0.623029 0.000000 0.782199
vn 0.623026 0.000000 -0.782201
vn 0.623025 0.000000 -0.782202
vn 0.623025 0.000000 -0.782202
vn 0.623026 0.000000 -0.782201
vn 0.623025 0.000000 -0.782202
vn 0.623025 -0.000000 -0.782202
vn 0.623025 -0.000000 -0.782202
vn 0.623025 0.000000 -0.782202
vn 0.623025 -0.000000 -0.782202
vn 0.623026 -0.000000 -0.782201
vn 0.623026 -0.000000 -0.782201
vn 0.623025 -0.000000 -0.782202
vn 0.623026 -0.000000 -0.782201
vn 0.623026 0.000000 -0.782201
vn 0.623026 0.000000 -0.782201
vn 0.623026 -0.000000 -0.782201
vn 0.000000 -1.000000 0.000000
vn 0.000000 -1.000000 0.000000
vn 0.000000 -1.000000 0.000000
vn 0.000000 -1.000000 0.000000
vn 0.782200 0.000000 0.623028
vn 0.782200 0.000000 0.623028
vn 0.782200 0.000000 0.623028
vn 0.782200 0.000000 0.623028
vn 0.000000 1.000000 -0.000000
vn 0.000000 1.000000 -0.000000
vn 0.000000 1.000000 -0.000000
vn 0.000000 1.000000 -0.000000
vn -0.782200 0.000000 -0.623028
vn -0.782200 0.000000 -0.623028
vn -0.782200 0.000000 -0.623028
vn -0.782200 0.000000 -0.623028
vn 0.000000 -1.000000 -0.000000
vn 0.000000 -1.000000 -0.000000
vn 0.000000 -1.000000 0.000000
vn 0.000000 -1.000000 0.000000
vn -0.782196 0.000000 -0.623033
vn -0.782196 0.000000 -0.623033
vn -0.782195 0.000000 -0.623033
vn -0.782195 0.000000 -0.623033
vn 0.000000 1.000000 -0.000000
vn 0.000000 1.000000 -0.000000
vn 0.000000 1.000000 0.000000
vn 0.000000 1.000000 -0.000000
vn 0.782196 0.000000 0.623033
vn 0.782196 0.000000 0.623033
vn 0.782195 0.000000 0.623033
vn 0.782195 0.000000 0.623033
vn 0.000000 -1.000000 0.000000
vn 0.000000 -1.000000 0.000000
vn 0.000000 -1.000000 0.000000
vn 0.000000 -1.000000 0.000000
vn -0.782195 0.000000 -0.623033
vn -0.782195 0.000000 -0.623033
vn -0.782198 0.000000 -0.623030
vn -0.782198 0.000000 -0.623030
vn 0.000000 1.000000 -0.000000
vn 0.000000 1.000000 0.000000
vn 0.000000 1.000000 0.000000
vn 0.000000 1.000000 0.000000
vn 0.782195 0.000000 0.623033
vn 0.782195 0.000000 0.623033
vn 0.782199 0.000000 0.623029
vn 0.782199 0.000000 0.623029
s off
f 1/2/1 2/53/2 4/49/3 3/39/4
f 3/6/5 4/35/6 6/37/7 5/40/8
f 5/8/9 6/38/10 8/55/11 7/10/12
f 7/10/13 8/55/14 2/53/15 1/2/16
f 22/11/17 21/44/18 23/43/19 24/42/20
f 13/1/21 14/66/22 15/62/23 16/58/24
f 7/15/25 1/16/26 10/69/27 9/71/28
f 1/16/29 3/19/30 11/67/31 10/69/32
f 3/19/33 5/21/34 12/63/35 11/67/36
f 5/21/37 7/15/38 9/71/39 12/63/40
f 9/18/41 10/70/42 14/65/43 13/59/44
f 10/17/45 11/68/46 15/61/47 14/3/48
f 11/20/49 12/64/50 16/57/51 15/13/52
f 12/22/53 9/72/54 13/60/55 16/14/56
f 2/4/57 8/56/58 17/51/59 18/45/60
f 8/9/61 6/52/62 19/34/63 17/50/64
f 6/7/65 4/36/66 20/31/67 19/33/68
f 4/5/69 2/54/70 18/46/71 20/47/72
f 18/26/73 17/25/74 21/12/75 22/41/76
f 17/25/77 19/48/78 23/30/79 21/12/80
f 19/27/81 20/32/82 24/29/83 23/23/84
f 20/28/85 18/26/86 22/41/87 24/24/88
f 25/73/89 26/74/90 28/75/91 27/76/92
f 27/77/93 28/78/94 30/79/95 29/80/96
f 29/81/97 30/82/98 32/83/99 31/84/100
f 31/84/101 32/83/102 26/74/103 25/73/104
f 46/85/105 45/86/106 47/87/107 48/88/108
f 37/89/109 38/90/110 39/91/111 40/92/112
f 31/93/113 25/94/114 34/95/115 33/96/116
f 25/94/117 27/97/118 35/98/119 34/95/120
f 27/97/121 29/99/122 36/100/123 35/98/124
f 29/99/125 31/93/126 33/96/127 36/100/128
f 33/101/129 34/102/130 38/103/131 37/104/132
f 34/105/133 35/106/134 39/107/135 38/108/136
f 35/109/137 36/110/138 40/111/139 39/112/140
f 36/113/141 33/114/142 37/115/143 40/116/144
f 26/117/145 32/118/146 41/119/147 42/120/148
f 32/121/149 30/122/150 43/123/151 41/124/152
f 30/125/153 28/126/154 44/127/155 43/128/156
f 28/129/157 26/130/158 42/131/159 44/132/160
f 42/133/161 41/134/162 45/135/163 46/136/164
f 41/134/165 43/137/166 47/138/167 45/135/168
f 43/139/169 44/140/170 48/141/171 47/142/172
f 44/143/173 42/133/174 46/136/175 48/144/176
f 49/145/177 50/146/178 52/147/179 51/148/180
f 51/149/181 52/150/182 54/151/183 53/152/184
f 53/153/185 54/154/186 56/155/187 55/156/188
f 55/156/189 56/155/190 50/146/191 49/145/192
f 70/157/193 69/158/194 71/159/195 72/160/196
f 61/161/197 62/162/198 63/163/199 64/164/200
f 55/165/201 49/166/202 58/167/203 57/168/204
f 49/166/205 51/169/206 59/170/207 58/167/208
f 51/169/209 53/171/210 60/172/211 59/170/212
f 53/171/213 55/165/214 57/168/215 60/172/216
f 57/173/217 58/174/218 62/175/219 61/176/220
f 58/177/221 59/178/222 63/179/223 62/180/224
f 59/181/225 60/182/226 64/183/227 63/184/228
f 60/185/229 57/186/230 61/187/231 64/188/232
f 50/189/233 56/190/234 65/191/235 66/192/236
f 56/193/237 54/194/238 67/195/239 65/196/240
f 54/197/241 52/198/242 68/199/243 67/200/244
f 52/201/245 50/202/246 66/203/247 68/204/248
f 66/205/249 65/206/250 69/207/251 70/208/252
f 65/206/253 67/209/254 71/210/255 69/207/256
f 67/211/257 68/212/258 72/213/259 71/214/260
f 68/215/261 66/205/262 70/208/263 72/216/264
f 73/217/265 74/218/266 76/219/267 75/220/268
f 75/221/269 76/222/270 78/223/271 77/224/272
f 77/225/273 78/226/274 80/227/275 79/228/276
f 79/228/277 80/227/278 74/218/279 73/217/280
f 94/229/281 93/230/282 95/231/283 96/232/284
f 85/233/285 86/234/286 87/235/287 88/236/288
f 79/237/289 73/238/290 82/239/291 81/240/292
f 73/238/293 75/241/294 83/242/295 82/239/296
f 75/241/297 77/243/298 84/244/299 83/242/300
f 77/243/301 79/237/302 81/240/303 84/244/304
f 81/245/305 82/246/306 86/247/307 85/248/308
f 82/249/309 83/250/310 87/251/311 86/252/312
f 83/253/313 84/254/314 88/255/315 87/256/316
f 84/257/317 81/258/318 85/259/319 88/260/320
f 74/261/321 80/262/322 89/263/323 90/264/324
f 80/265/325 78/266/326 91/267/327 89/268/328
f 78/269/329 76/270/330 92/271/331 91/272/332
f 76/273/333 74/274/334 90/275/335 92/276/336
f 90/277/337 89/278/338 93/279/339 94/280/340
f 89/278/341 91/281/342 95/282/343 93/279/344
f 91/283/345 92/284/346 96/285/347 95/286/348
f 92/287/349 90/277/350 94/280/351 96/288/352
