# This file uses meters as units for non-parametric coordinates.

v -0.385521 0.000000 1.565351
v 0.385521 0.000000 1.565351
v -0.385521 0.508625 1.565351
v 0.385521 0.508625 1.565351
v -0.406540 0.370842 -1.565351
v 0.406540 0.370842 -1.565351
v -0.406540 0.000000 -1.565351
v 0.406540 0.000000 -1.565351
v 0.650902 0.386639 -0.670424
v -0.650902 0.386639 -0.670424
v -0.650902 0.000000 -0.670424
v 0.650902 0.000000 -0.670424
v -0.037316 0.516987 -0.670424
v 0.037316 0.516434 -0.685926
v -0.037316 0.401585 -1.489134
v 0.037316 0.401585 -1.489134
v -0.476082 0.280241 1.135479
v 0.476082 0.280241 1.135479
v 0.476082 0.000000 1.135479
v -0.476082 0.000000 1.135479
v -0.030872 0.436230 1.135479
v -0.028772 0.368099 1.565351
v 0.037316 0.508495 0.447466
v 0.030872 0.436230 1.135479
v 0.028772 0.368099 1.565351
v -0.028772 0.176271 1.565351
v 0.028772 0.176271 1.565351
v -0.037316 0.506371 0.447466
v 0.160573 0.518608 1.565351
v -0.160573 0.508625 1.565351
v 0.528721 0.000000 -1.117887
v 0.589809 0.117106 -0.894148
v -0.513695 0.000000 0.746950
v -0.476082 0.107145 1.135479
v -0.429909 0.060297 1.354647
v -0.487640 0.046614 1.016080
v -0.453960 0.129778 1.240492
v 0.559483 0.128165 -1.005232
v -0.067811 0.000000 -1.565351
v -0.406540 0.249573 -1.565351
v -0.539009 0.000000 -1.080214
v -0.454536 0.252819 -1.389570
v -0.497944 0.105073 -1.230589
v -0.292999 0.084277 -1.565351
v -0.191710 0.091289 -1.565351
vt 0.391114 0.477036
vt 0.391114 0.477034
vt 0.108055 0.400028
vt 0.391114 0.477032
vt 0.389992 0.475926
vt 0.389992 0.475926
vt 0.259309 0.482475
vt 0.259309 0.482475
vt 0.259301 0.482475
vt 0.259293 0.482475
vt 0.391114 0.477036
vt 0.200851 0.400289
vt 0.391114 0.477034
vt 0.391114 0.477032
vt 0.455635 0.476421
vt 0.080582 0.398157
vt 0.391099 0.477034
vt 0.455643 0.476421
vt 0.391099 0.477032
vt 0.259309 0.482475
vt 0.259309 0.482475
vt 0.391114 0.477032
vt 0.356722 0.477144
vt 0.356722 0.477144
vt 0.356722 0.477144
vt 0.455635 0.476421
vt 0.356722 0.477144
vt 0.455643 0.476421
vt 0.455643 0.476421
vt 0.391114 0.477034
vt 0.259309 0.482475
vt 0.391114 0.477032
vt 0.391114 0.477034
vt 0.391114 0.477032
vt 0.259309 0.482475
vt 0.356313 0.476959
vt 0.356313 0.476960
vt 0.356313 0.476959
vt 0.356313 0.476960
vt 0.356722 0.477144
vt 0.356313 0.476961
vt 0.356313 0.476961
vt 0.388688 0.477634
vt 0.455643 0.476423
vt 0.455643 0.476421
vt 0.455643 0.476421
vt 0.455643 0.476421
vt 0.455635 0.476423
vt 0.455643 0.476421
vt 0.388688 0.477634
vt 0.455643 0.476421
vt 0.356722 0.477144
vt 0.356722 0.477144
vt 0.356722 0.477144
vt 0.356722 0.477144
vt 0.356934 0.472111
vt 0.356934 0.472107
vt 0.356934 0.472107
vt 0.356934 0.472111
vt 0.356313 0.476959
vt 0.356313 0.476959
vt 0.356313 0.476959
vt 0.356313 0.476959
vt 0.389992 0.475927
vt 0.203407 0.396629
vt 0.388688 0.477634
vt 0.388688 0.477634
vt 0.388688 0.477634
vt 0.388688 0.477634
vt 0.391114 0.477033
vt 0.259305 0.482475
vt 0.391114 0.477034
vt 0.391114 0.477033
vt 0.108063 0.400028
vt 0.108063 0.400028
vt 0.455635 0.476421
vt 0.455635 0.476421
vt 0.455643 0.476421
vt 0.455643 0.476421
vt 0.455643 0.476421
vt 0.455643 0.476421
vt 0.356722 0.477144
vt 0.391111 0.477034
vt 0.259305 0.482475
vt 0.391114 0.477035
vt 0.391114 0.477034
vt 0.391113 0.477034
vt 0.391114 0.477034
vt 0.200851 0.400289
vt 0.200851 0.400289
vt 0.200851 0.400289
vt 0.200851 0.400289
vt 0.200851 0.400289
vt 0.200851 0.400289
vt 0.391114 0.477034
vt 0.108063 0.400028
vt 0.259309 0.482475
vt 0.389992 0.475927
vt 0.391114 0.477032
vt 0.389992 0.475927
vt 0.391106 0.477034
vt 0.259300 0.482476
vt 0.391111 0.477033
vt 0.391108 0.477033
vt 0.389992 0.475927
vt 0.389992 0.475927
vt 0.203407 0.396627
vt 0.203407 0.396627
vt 0.203415 0.396628
vt 0.203407 0.396628
vt 0.080582 0.398157
vt 0.080582 0.398157
vt 0.080582 0.398157
vt 0.080582 0.398157
vn -0.000000 0.000000 1.000000
vn 0.000000 0.000000 1.000000
vn 0.000000 0.000000 1.000000
vn 0.000000 0.000000 -1.000000
vn 0.000000 0.000000 -1.000000
vn 0.000000 0.000000 -1.000000
vn 0.000000 0.000000 -1.000000
vn 0.000000 0.000000 -1.000000
vn -0.000000 0.000000 -1.000000
vn -0.000000 0.000000 -1.000000
vn 0.000000 0.000000 -1.000000
vn 0.000000 0.000000 -1.000000
vn 0.000000 0.000000 -1.000000
vn 0.000000 0.000000 -1.000000
vn 0.000001 0.000000 -1.000000
vn 0.000000 0.000000 -1.000000
vn 0.000000 0.000000 -1.000000
vn 0.000001 0.000000 -1.000000
vn 0.000000 -1.000000 -0.000000
vn 0.000000 -1.000000 -0.000000
vn 0.000000 -1.000000 -0.000000
vn 0.000000 -1.000000 -0.000000
vn 0.000000 -1.000000 -0.000000
vn 0.000000 -1.000000 -0.000000
vn 0.000000 -1.000000 -0.000000
vn 0.000000 -1.000000 -0.000000
vn 0.000000 -1.000000 -0.000000
vn 0.000000 -1.000000 -0.000000
vn 0.000000 -1.000000 0.000000
vn 0.000000 -1.000000 -0.000000
vn 0.000000 -1.000000 0.000000
vn 0.000000 -1.000000 0.000000
vn 0.000000 -1.000000 -0.000000
vn -0.978523 0.000001 0.206139
vn -0.978522 0.000001 0.206143
vn -0.978521 -0.000000 0.206147
vn -0.994513 0.000000 0.104617
vn -0.978521 -0.000003 0.206148
vn -0.993067 0.000001 0.117551
vn -0.993067 0.000001 0.117551
vn -0.978521 -0.000003 0.206148
vn -0.978522 0.000001 0.206143
vn -0.978521 -0.000003 0.206148
vn -0.978521 -0.000000 0.206147
vn -0.978522 0.000001 0.206143
vn -0.238495 0.971128 -0.005462
vn -0.176824 0.983752 -0.031064
vn -0.139937 0.984780 -0.103084
vn -0.964686 0.000000 -0.263404
vn -0.964685 -0.000008 -0.263406
vn -0.964685 -0.000005 -0.263408
vn -0.964685 -0.000005 -0.263408
vn -0.964685 -0.000008 -0.263406
vn -0.964684 -0.000000 -0.263409
vn -0.964685 -0.000008 -0.263406
vn -0.964684 0.000005 -0.263410
vn -0.964684 -0.000000 -0.263409
vn -0.964684 0.000005 -0.263410
vn -0.964682 0.000015 -0.263417
vn -0.964684 -0.000000 -0.263409
vn -0.964682 0.000015 -0.263417
vn -0.964685 0.000000 -0.263406
vn -0.964684 -0.000000 -0.263409
vn 0.964681 0.000007 -0.263422
vn 0.964684 -0.000004 -0.263411
vn 0.964683 -0.000011 -0.263413
vn 0.964683 -0.000011 -0.263413
vn 0.964684 -0.000004 -0.263411
vn 0.964684 -0.000005 -0.263409
vn 0.964684 -0.000004 -0.263411
vn 0.964689 0.000028 -0.263391
vn 0.964684 -0.000005 -0.263409
vn 0.964689 0.000028 -0.263391
vn 0.964684 -0.000000 -0.263410
vn 0.964684 -0.000005 -0.263409
vn 0.964684 -0.000000 -0.263410
vn 0.964684 0.000000 -0.263409
vn 0.964684 -0.000005 -0.263409
vn 0.000000 -1.000000 -0.000000
vn 0.000000 -1.000000 -0.000000
vn 0.000000 -1.000000 -0.000000
vn 0.000000 -1.000000 -0.000000
vn 0.000000 -1.000000 0.000000
vn 0.000000 -1.000000 -0.000000
vn 0.000000 -1.000000 -0.000000
vn 0.000000 -1.000000 0.000000
vn 0.000000 -1.000000 -0.000000
vn 0.325922 0.942175 0.077979
vn 0.328948 0.938856 0.101694
vn 0.341189 0.935408 0.092744
vn 0.142680 0.986512 -0.080223
vn -0.176824 0.983752 -0.031064
vn -0.027434 0.998589 0.045470
vn -0.027434 0.998589 0.045470
vn -0.176824 0.983752 -0.031064
vn -0.027919 0.998580 0.045369
vn -0.139937 0.984780 -0.103084
vn -0.176824 0.983752 -0.031064
vn -0.045794 0.989134 -0.139706
vn 0.000000 0.927400 -0.374070
vn 0.000000 0.927401 -0.374070
vn 0.000000 0.927401 -0.374070
vn 0.000000 0.927401 -0.374070
vn 0.000000 0.927400 -0.374070
vn 0.000000 0.927401 -0.374070
vn -0.748527 0.655486 0.100231
vn -0.748527 0.655486 0.100231
vn -0.748527 0.655486 0.100231
vn 0.993029 0.000000 0.117870
vn 0.991708 0.000000 0.128509
vn 0.978522 0.000000 0.206144
vn 0.978522 0.000000 0.206144
vn 0.991708 0.000000 0.128509
vn 0.978522 0.000000 0.206144
vn -0.338848 0.936365 0.091663
vn -0.323541 0.942992 0.078022
vn -0.238495 0.971128 -0.005462
vn -0.238495 0.971128 -0.005462
vn -0.323541 0.942992 0.078022
vn -0.176824 0.983752 -0.031064
vn -0.995347 0.000000 0.096354
vn -0.995347 0.000000 0.096354
vn -0.993067 0.000001 0.117551
vn -0.993067 0.000001 0.117551
vn -0.995347 0.000000 0.096354
vn -0.994513 0.000000 0.104617
vn -0.994513 0.000000 0.104617
vn -0.995347 0.000000 0.096354
vn -0.995347 0.000004 0.096355
vn -0.995347 0.000000 0.096354
vn -0.995347 0.000034 0.096353
vn -0.995347 0.000004 0.096355
vn -0.338848 0.936365 0.091663
vn -0.329044 0.939129 0.098823
vn -0.323541 0.942992 0.078022
vn 0.000000 0.986114 -0.166073
vn -0.260489 0.893657 -0.365408
vn -0.215977 0.917941 -0.332774
vn -0.215977 0.917941 -0.332774
vn -0.260489 0.893657 -0.365408
vn -0.303578 0.866446 -0.396374
vn -0.027434 0.998589 0.045470
vn -0.027919 0.998580 0.045369
vn -0.001427 0.992465 0.122518
vn -0.001427 0.992465 0.122518
vn -0.027919 0.998580 0.045369
vn 0.000000 0.992452 0.122637
vn 0.000000 0.992452 0.122637
vn 0.000000 0.987672 0.156536
vn -0.001427 0.992465 0.122518
vn -0.001427 0.992465 0.122518
vn 0.000000 0.987672 0.156536
vn 0.000000 0.987672 0.156536
vn -0.000000 0.000000 1.000000
vn -0.000000 0.000000 1.000000
vn -0.000000 0.000000 1.000000
vn -0.000000 0.000000 1.000000
vn -0.000000 0.000000 1.000000
vn 0.000000 0.000000 1.000000
vn -0.000000 0.000000 1.000000
vn 0.000000 0.000000 1.000000
vn -0.000000 0.000000 1.000000
vn 0.000000 0.000000 1.000000
vn 0.000000 0.000000 1.000000
vn -0.000000 0.000000 1.000000
vn -0.000000 0.000000 1.000000
vn -0.000000 0.000000 1.000000
vn -0.000000 0.000000 1.000000
vn 0.206785 0.978362 0.006853
vn 0.325922 0.942175 0.077979
vn 0.257249 0.965677 0.035934
vn 0.257249 0.965677 0.035934
vn 0.325922 0.942175 0.077979
vn 0.341189 0.935408 0.092744
vn -0.000000 0.000000 1.000000
vn 0.000000 0.000000 1.000000
vn -0.000000 0.000000 1.000000
vn -0.000000 0.000000 1.000000
vn 0.000000 0.000000 1.000000
vn 0.000000 0.000000 1.000000
vn 0.725410 0.680371 0.104288
vn 0.725410 0.680371 0.104288
vn 0.725410 0.680371 0.104288
vn 0.043434 0.978698 -0.200657
vn 0.227336 0.912100 -0.341162
vn 0.266019 0.890374 -0.369417
vn 0.266019 0.890374 -0.369417
vn 0.227336 0.912100 -0.341162
vn 0.303578 0.866446 -0.396374
vn -0.000000 0.000000 1.000000
vn 0.000000 0.000000 1.000000
vn 0.000000 0.000000 1.000000
vn -0.000000 0.000000 1.000000
vn -0.000000 0.000000 1.000000
vn 0.000000 0.000000 1.000000
vn 0.000000 -1.000000 0.000000
vn 0.000000 -1.000000 -0.000000
vn 0.000000 -1.000000 0.000000
vn 0.000000 -1.000000 0.000000
vn 0.000000 -1.000000 -0.000000
vn 0.000000 -1.000000 -0.000000
vn 0.993029 0.000000 0.117870
vn 0.995347 0.000000 0.096354
vn 0.991708 0.000000 0.128509
vn 0.991708 0.000000 0.128509
vn 0.995347 0.000000 0.096354
vn 0.995347 0.000000 0.096354
vn 0.964689 0.000028 -0.263391
vn 0.964684 -0.000004 -0.263411
vn 0.964684 -0.000000 -0.263410
vn 0.964684 -0.000000 -0.263410
vn 0.964684 -0.000004 -0.263411
vn 0.964681 0.000007 -0.263422
vn 0.045118 0.988923 -0.141404
vn 0.142680 0.986512 -0.080223
vn 0.141355 0.984519 -0.103643
vn 0.141355 0.984519 -0.103643
vn 0.142680 0.986512 -0.080223
vn 0.208178 0.975283 -0.074058
vn -0.994513 0.000000 0.104617
vn -0.995347 0.000004 0.096355
vn -0.987330 -0.000002 0.158680
vn -0.987330 -0.000002 0.158680
vn -0.995347 0.000004 0.096355
vn -0.995347 0.000034 0.096353
vn -0.978523 0.000001 0.206139
vn -0.978521 -0.000000 0.206147
vn -0.987330 -0.000002 0.158680
vn -0.978521 -0.000000 0.206147
vn -0.978521 -0.000003 0.206148
vn -0.987330 -0.000002 0.158680
vn -0.978521 -0.000003 0.206148
vn -0.994513 0.000000 0.104617
vn -0.987330 -0.000002 0.158680
vn -0.045794 0.989134 -0.139706
vn -0.176824 0.983752 -0.031064
vn 0.142680 0.986512 -0.080223
vn -0.045794 0.989134 -0.139706
vn 0.142680 0.986512 -0.080223
vn 0.045118 0.988923 -0.141404
vn 0.000000 0.000000 -1.000000
vn -0.000000 0.000000 -1.000000
vn 0.000000 0.000000 -1.000000
vn 0.000001 0.000000 -1.000000
vn 0.000000 0.000000 -1.000000
vn 0.000000 0.000000 -1.000000
vn -0.000000 0.000000 -1.000000
vn 0.000000 0.000000 -1.000000
vn 0.000000 0.000000 -1.000000
vn -0.964682 0.000015 -0.263417
vn -0.964684 0.000005 -0.263410
vn -0.964686 0.000005 -0.263402
vn -0.964684 0.000005 -0.263410
vn -0.964685 -0.000008 -0.263406
vn -0.964686 0.000005 -0.263402
vn -0.964686 0.000005 -0.263402
vn -0.964685 -0.000008 -0.263406
vn -0.964686 0.000000 -0.263404
s off
f 29/36/1 2/37/2 4/38/3
f 5/5/4 6/6/5 40/100/6
f 40/100/7 6/6/8 44/105/9
f 44/105/10 6/6/11 45/106/12
f 45/106/13 6/6/14 39/98/15
f 6/6/16 8/64/17 39/98/18
f 12/9/19 11/10/20 31/71/21
f 11/10/22 41/102/23 31/71/24
f 41/102/25 7/7/26 31/71/27
f 7/7/28 39/97/29 31/71/30
f 39/97/31 8/8/32 31/71/33
f 1/13/34 3/14/35 35/86/36
f 34/85/37 37/88/38 17/11/39
f 17/11/40 37/88/41 3/14/42
f 37/88/43 35/86/44 3/14/45
f 10/15/46 13/18/47 5/26/48
f 40/99/49 42/103/50 5/22/51
f 5/22/52 42/103/53 10/19/54
f 42/103/55 43/104/56 10/19/57
f 43/104/58 41/101/59 10/19/60
f 41/101/61 11/17/62 10/19/63
f 12/70/64 32/73/65 9/4/66
f 9/4/67 32/73/68 6/32/69
f 32/73/70 38/95/71 6/32/72
f 38/95/73 31/72/74 6/32/75
f 31/72/76 8/30/77 6/32/78
f 11/10/79 12/9/80 33/84/81
f 19/20/82 20/35/83 12/9/84
f 12/9/85 20/35/86 33/84/87
f 23/28/88 24/29/89 18/44/90
f 14/23/91 13/24/92 23/40/93
f 23/40/94 13/24/95 28/25/96
f 5/26/97 13/18/98 15/45/99
f 6/46/100 5/26/101 16/47/102
f 5/26/103 15/45/104 16/47/105
f 24/43/106 25/50/107 29/66/108
f 19/2/109 18/1/110 2/33/111
f 2/33/112 18/1/113 4/34/114
f 17/48/115 28/49/116 10/15/117
f 10/15/118 28/49/119 13/18/120
f 10/19/121 11/17/122 17/11/123
f 17/11/124 11/17/125 34/85/126
f 34/85/127 11/17/128 36/87/129
f 11/17/130 33/83/131 36/87/132
f 17/48/133 21/51/134 28/49/135
f 30/77/136 21/51/137 3/76/138
f 3/76/139 21/51/140 17/48/141
f 23/40/142 28/25/143 24/53/144
f 24/53/145 28/25/146 21/52/147
f 21/52/148 22/54/149 24/53/150
f 24/53/151 22/54/152 25/55/153
f 22/56/154 26/57/155 25/59/156
f 25/59/157 26/57/158 27/58/159
f 1/39/160 2/37/161 26/42/162
f 2/37/163 27/41/164 26/42/165
f 1/39/166 26/42/167 22/60/168
f 14/78/169 23/28/170 9/79/171
f 9/79/172 23/28/173 18/44/174
f 25/61/175 2/37/176 29/36/177
f 1/39/178 30/62/179 3/63/180
f 21/67/181 30/68/182 22/69/183
f 29/80/184 4/81/185 24/29/186
f 24/29/187 4/81/188 18/44/189
f 25/61/190 27/41/191 2/37/192
f 1/39/193 22/60/194 30/62/195
f 20/35/196 19/20/197 1/31/198
f 1/31/199 19/20/200 2/21/201
f 19/2/202 12/70/203 18/1/204
f 18/1/205 12/70/206 9/4/207
f 38/96/208 32/75/209 31/74/210
f 31/74/211 32/75/212 12/3/213
f 16/47/214 14/78/215 6/46/216
f 6/46/217 14/78/218 9/79/219
f 34/12/220 36/89/221 20/91/222
f 20/91/223 36/89/224 33/90/225
f 1/92/226 35/93/227 20/91/228
f 35/93/229 37/94/230 20/91/231
f 37/94/232 34/12/233 20/91/234
f 15/27/235 13/24/236 14/23/237
f 15/27/238 14/23/239 16/82/240
f 40/65/241 44/107/242 7/110/243
f 39/109/244 7/110/245 45/108/246
f 44/107/247 45/108/248 7/110/249
f 41/111/250 43/112/251 7/16/252
f 43/112/253 42/113/254 7/16/255
f 7/16/256 42/113/257 40/114/258
