# This file uses meters as units for non-parametric coordinates.

v 1.445145 0.507107 0.074997
v 1.444420 0.509808 0.013397
v 1.413361 0.620987 0.080368
v 1.412636 0.623680 0.018768
v 1.299370 0.589161 0.080322
v 1.298630 0.591858 0.018738
v 1.331161 0.475288 0.074966
v 1.330429 0.477985 0.013367
v 1.449554 -0.302990 0.071487
v 1.448639 -0.301140 0.009872
v 1.431229 -0.186127 0.075272
v 1.430305 -0.184280 0.013657
v 1.314316 -0.204506 0.076462
v 1.313400 -0.202660 0.014847
v 1.332649 -0.321365 0.072678
v 1.331734 -0.319519 0.011063
v -1.811295 -0.729721 0.013245
v 1.910210 -0.445320 0.014847
v -1.910194 0.444893 0.018616
v 1.811310 0.729294 0.020218
v -1.910210 0.445324 -0.074982
v 1.811295 0.729721 -0.073380
v -1.811325 -0.729286 -0.080368
v 1.910202 -0.444893 -0.078766
v -1.232971 0.311527 0.073181
v -1.233200 0.315025 0.011627
v -1.260620 0.426411 0.079819
v -1.260841 0.429909 0.018250
v -1.375694 0.398792 0.078659
v -1.375916 0.402290 0.017105
v -1.348053 0.283905 0.072037
v -1.348267 0.287403 0.010468
v -1.259819 -0.595909 0.070114
v -1.260910 -0.594723 0.008484
v -1.248459 -0.478127 0.072189
v -1.249535 -0.476940 0.010559
v -1.366241 -0.466808 0.074478
v -1.367325 -0.465622 0.012848
v -1.377609 -0.584595 0.072403
v -1.378685 -0.583405 0.010773
vt 0.171476 0.478225
vt 0.171476 0.478225
vt 0.171476 0.478225
vt 0.171476 0.478225
vt 0.207149 0.479244
vt 0.207149 0.479244
vt 0.207149 0.479244
vt 0.207149 0.479244
vt 0.144976 0.479244
vt 0.144976 0.479244
vt 0.144976 0.479244
vt 0.144976 0.479244
vt 0.107264 0.479244
vt 0.107264 0.479244
vt 0.107264 0.479244
vt 0.107264 0.479244
vt 0.155168 0.479244
vt 0.155168 0.479244
vt 0.155168 0.479244
vt 0.155168 0.479244
vt 0.241802 0.479244
vt 0.241802 0.479244
vt 0.241802 0.479244
vt 0.241802 0.479244
vt 0.171476 0.478225
vt 0.171476 0.478225
vt 0.171476 0.478225
vt 0.171476 0.478225
vt 0.207149 0.479244
vt 0.207149 0.479244
vt 0.207149 0.479244
vt 0.207149 0.479244
vt 0.144976 0.479244
vt 0.144976 0.479244
vt 0.144976 0.479244
vt 0.144976 0.479244
vt 0.107264 0.479244
vt 0.107264 0.479244
vt 0.107264 0.479244
vt 0.107264 0.479244
vt 0.155168 0.479244
vt 0.155168 0.479244
vt 0.155168 0.479244
vt 0.155168 0.479244
vt 0.241802 0.479244
vt 0.241802 0.479244
vt 0.241802 0.479244
vt 0.241802 0.479244
vt 0.307336 0.397476
vt 0.307336 0.397476
vt 0.307336 0.397476
vt 0.307336 0.397476
vt 0.391017 0.397476
vt 0.391017 0.397476
vt 0.391017 0.397476
vt 0.391017 0.397476
vt 0.237152 0.397476
vt 0.237152 0.397476
vt 0.237152 0.397476
vt 0.237152 0.397476
vt 0.202059 0.397476
vt 0.202059 0.397476
vt 0.202059 0.397476
vt 0.202059 0.397476
vt 0.237152 0.397476
vt 0.237152 0.397476
vt 0.237152 0.397476
vt 0.237152 0.397476
vt 0.237152 0.397476
vt 0.237152 0.397476
vt 0.237152 0.397476
vt 0.237152 0.397476
vt 0.171476 0.478225
vt 0.171476 0.478225
vt 0.171476 0.478225
vt 0.171476 0.478225
vt 0.207149 0.479244
vt 0.207149 0.479244
vt 0.207149 0.479244
vt 0.207149 0.479244
vt 0.144976 0.479244
vt 0.144976 0.479244
vt 0.144976 0.479244
vt 0.144976 0.479244
vt 0.107264 0.479244
vt 0.107264 0.479244
vt 0.107264 0.479244
vt 0.107264 0.479244
vt 0.155168 0.479244
vt 0.155168 0.479244
vt 0.155168 0.479244
vt 0.155168 0.479244
vt 0.241802 0.479244
vt 0.241802 0.479244
vt 0.241802 0.479244
vt 0.241802 0.479244
vt 0.171476 0.478225
vt 0.171476 0.478225
vt 0.171476 0.478225
vt 0.171476 0.478225
vt 0.207149 0.479244
vt 0.207149 0.479244
vt 0.207149 0.479244
vt 0.207149 0.479244
vt 0.144976 0.479244
vt 0.144976 0.479244
vt 0.144976 0.479244
vt 0.144976 0.479244
vt 0.107264 0.479244
vt 0.107264 0.479244
vt 0.107264 0.479244
vt 0.107264 0.479244
vt 0.155168 0.479244
vt 0.155168 0.479244
vt 0.155168 0.479244
vt 0.155168 0.479244
vt 0.241802 0.479244
vt 0.241802 0.479244
vt 0.241802 0.479244
vt 0.241802 0.479244
vn 0.963192 0.268816 0.000436
vn 0.963192 0.268816 0.000436
vn 0.963192 0.268816 0.000436
vn 0.963192 0.268816 0.000436
vn -0.268620 0.962181 0.045298
vn -0.268620 0.962181 0.045298
vn -0.268620 0.962181 0.045298
vn -0.268620 0.962181 0.045298
vn -0.963162 -0.268921 -0.000263
vn -0.963162 -0.268921 -0.000263
vn -0.963162 -0.268921 -0.000263
vn -0.963162 -0.268921 -0.000263
vn 0.268612 -0.962181 -0.045334
vn 0.268612 -0.962181 -0.045334
vn 0.268612 -0.962181 -0.045334
vn 0.268612 -0.962181 -0.045334
vn -0.011954 0.043782 -0.998970
vn -0.011954 0.043782 -0.998970
vn -0.011954 0.043782 -0.998970
vn -0.011954 0.043782 -0.998970
vn 0.011876 -0.043736 0.998973
vn 0.011876 -0.043736 0.998973
vn 0.011876 -0.043736 0.998973
vn 0.011876 -0.043736 0.998973
vn 0.987822 0.155265 -0.010082
vn 0.987822 0.155265 -0.010082
vn 0.987822 0.155264 -0.010082
vn 0.987821 0.155265 -0.010082
vn -0.154906 0.987414 0.031899
vn -0.154906 0.987414 0.031899
vn -0.154906 0.987414 0.031899
vn -0.154906 0.987414 0.031899
vn -0.987817 -0.155298 0.010024
vn -0.987817 -0.155298 0.010024
vn -0.987817 -0.155298 0.010024
vn -0.987817 -0.155298 0.010024
vn 0.154895 -0.987415 -0.031921
vn 0.154895 -0.987415 -0.031921
vn 0.154895 -0.987415 -0.031921
vn 0.154895 -0.987415 -0.031921
vn -0.014896 0.030027 -0.999438
vn -0.014896 0.030027 -0.999438
vn -0.014896 0.030027 -0.999438
vn -0.014896 0.030027 -0.999438
vn 0.014895 -0.030027 0.999438
vn 0.014895 -0.030027 0.999438
vn 0.014895 -0.030027 0.999438
vn 0.014895 -0.030027 0.999438
vn -0.000081 -0.004579 0.999990
vn -0.000081 -0.004579 0.999990
vn -0.000081 -0.004579 0.999990
vn -0.000081 -0.004579 0.999990
vn -0.076199 0.997082 0.004584
vn -0.076199 0.997082 0.004584
vn -0.076199 0.997082 0.004584
vn -0.076199 0.997082 0.004584
vn 0.000080 0.004592 -0.999989
vn 0.000080 0.004592 -0.999990
vn 0.000080 0.004592 -0.999990
vn 0.000080 0.004592 -0.999990
vn 0.076199 -0.997082 -0.004608
vn 0.076199 -0.997082 -0.004608
vn 0.076199 -0.997082 -0.004608
vn 0.076199 -0.997082 -0.004608
vn 0.996474 0.083903 0.000261
vn 0.996474 0.083903 0.000261
vn 0.996474 0.083903 0.000261
vn 0.996474 0.083903 0.000261
vn -0.996475 -0.083894 -0.000144
vn -0.996475 -0.083894 -0.000144
vn -0.996475 -0.083894 -0.000144
vn -0.996475 -0.083894 -0.000144
vn 0.972328 0.233417 0.009709
vn 0.972328 0.233417 0.009709
vn 0.972328 0.233417 0.009709
vn 0.972328 0.233417 0.009709
vn -0.233542 0.970733 0.055998
vn -0.233542 0.970733 0.055998
vn -0.233542 0.970733 0.055998
vn -0.233542 0.970733 0.055998
vn -0.972330 -0.233404 -0.009828
vn -0.972330 -0.233404 -0.009828
vn -0.972330 -0.233404 -0.009828
vn -0.972330 -0.233404 -0.009828
vn 0.233572 -0.970726 -0.055998
vn 0.233572 -0.970726 -0.055998
vn 0.233572 -0.970726 -0.055998
vn 0.233572 -0.970726 -0.055998
vn -0.003625 0.056744 -0.998382
vn -0.003625 0.056744 -0.998382
vn -0.003625 0.056744 -0.998382
vn -0.003625 0.056744 -0.998382
vn 0.003625 -0.056744 0.998382
vn 0.003625 -0.056744 0.998382
vn 0.003625 -0.056744 0.998382
vn 0.003625 -0.056744 0.998382
vn 0.995221 -0.095713 -0.019337
vn 0.995221 -0.095713 -0.019337
vn 0.995221 -0.095713 -0.019337
vn 0.995221 -0.095713 -0.019337
vn 0.095972 0.995231 0.017477
vn 0.095972 0.995231 0.017477
vn 0.095972 0.995231 0.017477
vn 0.095972 0.995231 0.017477
vn -0.995225 0.095682 0.019278
vn -0.995225 0.095682 0.019278
vn -0.995225 0.095682 0.019278
vn -0.995225 0.095682 0.019278
vn -0.095960 -0.995231 -0.017503
vn -0.095960 -0.995231 -0.017503
vn -0.095960 -0.995231 -0.017503
vn -0.095960 -0.995231 -0.017503
vn -0.017571 0.019309 -0.999659
vn -0.017571 0.019309 -0.999659
vn -0.017571 0.019309 -0.999659
vn -0.017571 0.019309 -0.999659
vn 0.017570 -0.019308 0.999659
vn 0.017570 -0.019308 0.999659
vn 0.017570 -0.019308 0.999659
vn 0.017570 -0.019308 0.999659
s off
f 1/1/1 2/2/2 4/3/3 3/4/4
f 3/5/5 4/6/6 6/7/7 5/8/8
f 5/9/9 6/10/10 8/11/11 7/12/12
f 7/13/13 8/14/14 2/15/15 1/16/16
f 2/17/17 8/18/18 6/19/19 4/20/20
f 7/21/21 1/22/22 3/23/23 5/24/24
f 9/25/25 10/26/26 12/27/27 11/28/28
f 11/29/29 12/30/30 14/31/31 13/32/32
f 13/33/33 14/34/34 16/35/35 15/36/36
f 15/37/37 16/38/38 10/39/39 9/40/40
f 10/41/41 16/42/42 14/43/43 12/44/44
f 15/45/45 9/46/46 11/47/47 13/48/48
f 17/49/49 18/50/50 20/51/51 19/52/52
f 19/53/53 20/54/54 22/55/55 21/56/56
f 21/57/57 22/58/58 24/59/59 23/60/60
f 23/61/61 24/62/62 18/63/63 17/64/64
f 18/65/65 24/66/66 22/67/67 20/68/68
f 23/69/69 17/70/70 19/71/71 21/72/72
f 25/73/73 26/74/74 28/75/75 27/76/76
f 27/77/77 28/78/78 30/79/79 29/80/80
f 29/81/81 30/82/82 32/83/83 31/84/84
f 31/85/85 32/86/86 26/87/87 25/88/88
f 26/89/89 32/90/90 30/91/91 28/92/92
f 31/93/93 25/94/94 27/95/95 29/96/96
f 33/97/97 34/98/98 36/99/99 35/100/100
f 35/101/101 36/102/102 38/103/103 37/104/104
f 37/105/105 38/106/106 40/107/107 39/108/108
f 39/109/109 40/110/110 34/111/111 33/112/112
f 34/113/113 40/114/114 38/115/115 36/116/116
f 39/117/117 33/118/118 35/119/119 37/120/120
