# This file uses meters as units for non-parametric coordinates.

v 1.375343 0.000000 0.024017
v 1.375343 0.000000 -0.027710
v 1.375343 1.310148 0.024017
v 1.375343 1.310148 -0.027710
v 0.502945 1.285636 0.024017
v 0.502945 1.285636 -0.027710
v 0.502945 0.000000 0.024017
v 0.502945 0.000000 -0.027710
v -2.167137 0.353794 -0.027710
v -2.167137 0.353794 0.024033
v -2.167137 1.404990 -0.027710
v -2.167137 1.404990 0.024033
v -2.758385 1.486413 -0.027710
v -2.758385 1.486413 0.024033
v -2.758385 0.353794 -0.027710
v -2.758385 0.353794 0.024033
v -0.159889 0.066702 0.005249
v -1.951553 0.066702 0.005249
v -0.159889 1.262661 0.005249
v -1.951553 1.372849 0.005249
v -0.159889 1.262661 -0.036041
v -1.951553 1.372849 -0.036041
v -0.159889 0.066702 -0.036041
v -1.951553 0.066702 -0.036041
v 2.663567 0.264702 0.024796
v 1.509369 0.264702 0.024796
v 2.663567 1.460524 0.024796
v 1.509369 1.356941 0.024796
v 2.663567 1.460524 -0.016495
v 1.509369 1.356941 -0.016495
v 2.663567 0.264702 -0.016495
v 1.509369 0.264702 -0.016495
v 4.398636 1.763516 0.036057
v -4.398636 1.763516 0.036057
v 4.398636 1.831415 0.036057
v -4.398636 1.831415 0.036057
v 4.398636 1.831415 -0.031845
v -4.398636 1.831415 -0.031845
v 4.398636 1.763516 -0.031845
v -4.398636 1.763516 -0.031845
v 0.000000 1.294091 -0.031845
v 0.000000 1.294091 0.036057
v 0.000000 1.226191 0.036057
v 0.000000 1.226191 -0.031845
v 2.199318 1.452255 -0.031845
v 2.199318 1.452255 0.036057
v 2.199318 1.384355 0.036057
v 2.199318 1.384355 -0.031845
v -2.199318 1.384355 0.036057
v -2.199318 1.452255 0.036057
v -2.199318 1.452255 -0.031845
v -2.199318 1.384355 -0.031845
v -1.099655 1.334810 -0.031845
v -1.099655 1.334810 0.036057
v -1.099655 1.266910 0.036057
v -1.099655 1.266910 -0.031845
v -3.298973 1.524256 0.036057
v -3.298973 1.592156 0.036057
v -3.298973 1.592156 -0.031845
v -3.298973 1.524256 -0.031845
v 1.099655 1.266910 0.036057
v 1.099655 1.334810 0.036057
v 1.099655 1.334810 -0.031845
v 1.099655 1.266910 -0.031845
v 3.298973 1.592156 -0.031845
v 3.298973 1.592156 0.036057
v 3.298973 1.524256 0.036057
v 3.298973 1.524256 -0.031845
vt 0.357177 0.330675
vt 0.357177 0.330675
vt 0.357177 0.330675
vt 0.357177 0.330675
vt 0.388743 0.330675
vt 0.388743 0.330675
vt 0.388743 0.330675
vt 0.388743 0.330675
vt 0.357177 0.330675
vt 0.357177 0.330675
vt 0.357177 0.330675
vt 0.357177 0.330675
vt 0.301937 0.330675
vt 0.301937 0.330675
vt 0.301937 0.330675
vt 0.301937 0.330675
vt 0.459083 0.330675
vt 0.459083 0.330675
vt 0.459083 0.330675
vt 0.459083 0.330675
vt 0.459083 0.330675
vt 0.459083 0.330675
vt 0.459083 0.330675
vt 0.459083 0.330675
vt 0.142735 0.376556
vt 0.142735 0.376556
vt 0.142735 0.376556
vt 0.142735 0.376556
vt 0.174301 0.376556
vt 0.174301 0.376556
vt 0.174301 0.376556
vt 0.174301 0.376556
vt 0.142735 0.376556
vt 0.142735 0.376556
vt 0.142735 0.376556
vt 0.142735 0.376556
vt 0.087495 0.376556
vt 0.087495 0.376556
vt 0.087495 0.376556
vt 0.087495 0.376556
vt 0.244641 0.376556
vt 0.244641 0.376556
vt 0.244641 0.376556
vt 0.244641 0.376556
vt 0.244641 0.376556
vt 0.244641 0.376556
vt 0.244641 0.376556
vt 0.244641 0.376556
vt 0.357177 0.061148
vt 0.357177 0.061148
vt 0.357177 0.061148
vt 0.357177 0.061148
vt 0.388743 0.061148
vt 0.388743 0.061148
vt 0.388743 0.061148
vt 0.388743 0.061148
vt 0.357177 0.061148
vt 0.357177 0.061148
vt 0.357177 0.061148
vt 0.357177 0.061148
vt 0.301937 0.061148
vt 0.301937 0.061147
vt 0.301937 0.061147
vt 0.301937 0.061148
vt 0.328768 0.061148
vt 0.328768 0.061148
vt 0.328768 0.061148
vt 0.328768 0.061148
vt 0.328768 0.061148
vt 0.328768 0.061148
vt 0.328768 0.061148
vt 0.328768 0.061148
vt 0.357177 0.061148
vt 0.357177 0.061148
vt 0.357177 0.061148
vt 0.357177 0.061148
vt 0.388743 0.061148
vt 0.388743 0.061148
vt 0.388743 0.061148
vt 0.388743 0.061148
vt 0.357177 0.061148
vt 0.357177 0.061148
vt 0.357177 0.061148
vt 0.357177 0.061148
vt 0.301937 0.061148
vt 0.301937 0.061147
vt 0.301937 0.061147
vt 0.301937 0.061148
vt 0.328768 0.061148
vt 0.328768 0.061148
vt 0.328768 0.061148
vt 0.328768 0.061148
vt 0.328768 0.061148
vt 0.328768 0.061148
vt 0.328768 0.061148
vt 0.328768 0.061148
vt 0.170782 0.061306
vt 0.170782 0.061306
vt 0.170782 0.061306
vt 0.170782 0.061306
vt 0.202749 0.061306
vt 0.202749 0.061306
vt 0.202749 0.061306
vt 0.202749 0.061306
vt 0.170782 0.061306
vt 0.170782 0.061306
vt 0.170782 0.061306
vt 0.170782 0.061306
vt 0.202749 0.061306
vt 0.202749 0.061306
vt 0.202749 0.061306
vt 0.202749 0.061306
vt 0.133630 0.061306
vt 0.133630 0.061306
vt 0.133630 0.061306
vt 0.133630 0.061306
vt 0.137395 0.061306
vt 0.137395 0.061306
vt 0.137395 0.061306
vt 0.137395 0.061306
vt 0.202749 0.061306
vt 0.202749 0.061306
vt 0.202749 0.061306
vt 0.202749 0.061306
vt 0.170782 0.061306
vt 0.170782 0.061306
vt 0.170782 0.061306
vt 0.170782 0.061306
vt 0.202749 0.061306
vt 0.202749 0.061306
vt 0.202749 0.061306
vt 0.202749 0.061306
vt 0.170782 0.061306
vt 0.170782 0.061306
vt 0.170782 0.061306
vt 0.170782 0.061306
vt 0.202749 0.061306
vt 0.202749 0.061306
vt 0.170782 0.061306
vt 0.170782 0.061306
vt 0.202749 0.061306
vt 0.202749 0.061306
vt 0.170782 0.061306
vt 0.170782 0.061306
vt 0.170782 0.061306
vt 0.170782 0.061306
vt 0.202749 0.061306
vt 0.202749 0.061306
vt 0.170782 0.061306
vt 0.170782 0.061306
vt 0.202749 0.061306
vt 0.202749 0.061306
vt 0.202749 0.061306
vt 0.202749 0.061306
vt 0.170782 0.061306
vt 0.170782 0.061306
vt 0.202749 0.061306
vt 0.202749 0.061306
vt 0.170782 0.061306
vt 0.170782 0.061306
vt 0.170782 0.061306
vt 0.170782 0.061306
vt 0.202749 0.061306
vt 0.202749 0.061306
vt 0.170782 0.061306
vt 0.170782 0.061306
vt 0.202749 0.061306
vt 0.202749 0.061306
vt 0.202749 0.061306
vt 0.202749 0.061306
vt 0.170782 0.061306
vt 0.170782 0.061306
vt 0.202749 0.061306
vt 0.202749 0.061306
vt 0.170782 0.061306
vt 0.170782 0.061306
vn 1.000000 0.000000 0.000000
vn 1.000000 0.000000 0.000000
vn 1.000000 0.000000 0.000000
vn 1.000000 0.000000 0.000000
vn -0.028087 0.999605 0.000000
vn -0.028087 0.999605 0.000000
vn -0.028087 0.999605 0.000000
vn -0.028087 0.999605 0.000000
vn -1.000000 0.000000 0.000000
vn -1.000000 0.000000 0.000000
vn -1.000000 0.000000 0.000000
vn -1.000000 0.000000 0.000000
vn 0.000000 -1.000000 0.000000
vn 0.000000 -1.000000 0.000000
vn 0.000000 -1.000000 0.000000
vn 0.000000 -1.000000 0.000000
vn 0.000000 0.000000 -1.000000
vn 0.000000 0.000000 -1.000000
vn 0.000000 0.000000 -1.000000
vn 0.000000 0.000000 -1.000000
vn 0.000000 0.000000 1.000000
vn 0.000000 0.000000 1.000000
vn 0.000000 0.000000 1.000000
vn 0.000000 0.000000 1.000000
vn 1.000000 0.000000 0.000000
vn 1.000000 0.000000 0.000000
vn 1.000000 0.000000 0.000000
vn 1.000000 0.000000 0.000000
vn 0.136426 0.990650 0.000000
vn 0.136426 0.990650 0.000000
vn 0.136426 0.990650 0.000000
vn 0.136426 0.990650 0.000000
vn -1.000000 0.000000 0.000000
vn -1.000000 0.000000 0.000000
vn -1.000000 0.000000 0.000000
vn -1.000000 0.000000 0.000000
vn 0.000000 -1.000000 0.000000
vn 0.000000 -1.000000 0.000000
vn 0.000000 -1.000000 0.000000
vn 0.000000 -1.000000 0.000000
vn -0.000000 0.000000 1.000000
vn -0.000000 0.000000 1.000000
vn -0.000000 0.000000 1.000000
vn -0.000000 0.000000 1.000000
vn 0.000000 0.000000 -1.000000
vn 0.000000 0.000000 -1.000000
vn 0.000000 0.000000 -1.000000
vn 0.000000 0.000000 -1.000000
vn 0.000000 0.000000 1.000000
vn 0.000000 0.000000 1.000000
vn 0.000000 0.000000 1.000000
vn 0.000000 0.000000 1.000000
vn 0.061384 0.998114 0.000000
vn 0.061384 0.998114 0.000000
vn 0.061384 0.998114 0.000000
vn 0.061384 0.998114 0.000000
vn -0.000000 0.000000 -1.000000
vn -0.000000 0.000000 -1.000000
vn -0.000000 0.000000 -1.000000
vn -0.000000 0.000000 -1.000000
vn 0.000000 -1.000000 0.000000
vn 0.000000 -1.000000 0.000000
vn 0.000000 -1.000000 0.000000
vn 0.000000 -1.000000 0.000000
vn -1.000000 0.000000 0.000000
vn -1.000000 0.000000 0.000000
vn -1.000000 0.000000 0.000000
vn -1.000000 0.000000 0.000000
vn 1.000000 0.000000 0.000000
vn 1.000000 0.000000 0.000000
vn 1.000000 0.000000 0.000000
vn 1.000000 0.000000 0.000000
vn 0.000000 0.000000 1.000000
vn 0.000000 0.000000 1.000000
vn 0.000000 0.000000 1.000000
vn 0.000000 0.000000 1.000000
vn -0.089386 0.995997 0.000000
vn -0.089386 0.995997 0.000000
vn -0.089386 0.995997 0.000000
vn -0.089386 0.995997 0.000000
vn -0.000000 0.000000 -1.000000
vn -0.000000 0.000000 -1.000000
vn -0.000000 0.000000 -1.000000
vn -0.000000 0.000000 -1.000000
vn 0.000000 -1.000000 0.000000
vn 0.000000 -1.000000 0.000000
vn 0.000000 -1.000000 0.000000
vn 0.000000 -1.000000 0.000000
vn -1.000000 0.000000 0.000000
vn -1.000000 0.000000 0.000000
vn -1.000000 0.000000 0.000000
vn -1.000000 0.000000 0.000000
vn 1.000000 0.000000 0.000000
vn 1.000000 0.000000 0.000000
vn 1.000000 0.000000 0.000000
vn 1.000000 0.000000 0.000000
vn 0.000000 0.000000 1.000000
vn -0.000000 0.000000 1.000000
vn 0.000000 0.000000 1.000000
vn 0.000000 0.000000 1.000000
vn 0.071730 0.997424 0.000000
vn 0.116219 0.993224 0.000000
vn 0.116219 0.993224 0.000000
vn 0.071730 0.997424 0.000000
vn 0.000000 0.000000 -1.000000
vn 0.000000 0.000000 -1.000000
vn 0.000000 0.000000 -1.000000
vn 0.000000 0.000000 -1.000000
vn -0.071730 -0.997424 0.000000
vn -0.116219 -0.993224 0.000000
vn -0.116219 -0.993224 0.000000
vn -0.071730 -0.997424 0.000000
vn -1.000000 0.000000 0.000000
vn -1.000000 0.000000 0.000000
vn -1.000000 0.000000 0.000000
vn -1.000000 0.000000 0.000000
vn 1.000000 0.000000 0.000000
vn 1.000000 0.000000 0.000000
vn 1.000000 0.000000 0.000000
vn 1.000000 0.000000 0.000000
vn -0.116219 0.993224 0.000000
vn -0.071730 0.997424 0.000000
vn -0.071730 0.997424 0.000000
vn -0.116219 0.993224 0.000000
vn 0.000000 0.000000 1.000000
vn -0.000000 0.000000 1.000000
vn -0.000000 0.000000 1.000000
vn 0.000000 0.000000 1.000000
vn 0.116219 -0.993224 0.000000
vn 0.071730 -0.997424 0.000000
vn 0.071730 -0.997424 0.000000
vn 0.116219 -0.993224 0.000000
vn -0.000000 0.000000 -1.000000
vn 0.000000 0.000000 -1.000000
vn 0.000000 0.000000 -1.000000
vn -0.000000 0.000000 -1.000000
vn -0.169893 0.985463 0.000000
vn -0.116219 0.993224 0.000000
vn -0.116219 0.993224 0.000000
vn -0.169893 0.985463 0.000000
vn 0.000000 0.000000 1.000000
vn 0.000000 0.000000 1.000000
vn 0.000000 0.000000 1.000000
vn 0.000000 0.000000 1.000000
vn 0.169893 -0.985463 0.000000
vn 0.116219 -0.993224 0.000000
vn 0.116219 -0.993224 0.000000
vn 0.169893 -0.985463 0.000000
vn -0.000000 0.000000 -1.000000
vn -0.000000 0.000000 -1.000000
vn -0.000000 0.000000 -1.000000
vn -0.000000 0.000000 -1.000000
vn -0.000000 0.000000 1.000000
vn 0.000000 0.000000 1.000000
vn -0.000000 0.000000 1.000000
vn 0.000000 0.000000 1.000000
vn 0.116219 0.993224 0.000000
vn 0.169893 0.985463 0.000000
vn 0.169893 0.985463 0.000000
vn 0.116219 0.993224 0.000000
vn 0.000000 0.000000 -1.000000
vn 0.000000 0.000000 -1.000000
vn 0.000000 0.000000 -1.000000
vn 0.000000 0.000000 -1.000000
vn -0.116219 -0.993224 0.000000
vn -0.169893 -0.985463 0.000000
vn -0.169893 -0.985463 0.000000
vn -0.116219 -0.993224 0.000000
vn 0.000000 1.000000 0.000000
vn 0.071730 0.997424 0.000000
vn 0.071730 0.997424 0.000000
vn 0.000000 1.000000 0.000000
vn -0.000000 0.000000 1.000000
vn 0.000000 0.000000 1.000000
vn 0.000000 0.000000 1.000000
vn -0.000000 0.000000 1.000000
vn 0.000000 -1.000000 0.000000
vn -0.071730 -0.997424 0.000000
vn -0.071730 -0.997424 0.000000
vn 0.000000 -1.000000 0.000000
vn 0.000000 0.000000 -1.000000
vn 0.000000 0.000000 -1.000000
vn 0.000000 0.000000 -1.000000
vn 0.000000 0.000000 -1.000000
vn 0.000000 0.000000 1.000000
vn 0.000000 0.000000 1.000000
vn 0.000000 0.000000 1.000000
vn -0.000000 0.000000 1.000000
vn 0.169893 0.985463 0.000000
vn 0.212602 0.977139 0.000000
vn 0.212602 0.977139 0.000000
vn 0.169893 0.985463 0.000000
vn 0.000000 0.000000 -1.000000
vn -0.000000 0.000000 -1.000000
vn -0.000000 0.000000 -1.000000
vn 0.000000 0.000000 -1.000000
vn -0.169893 -0.985463 0.000000
vn -0.212602 -0.977139 0.000000
vn -0.212602 -0.977139 0.000000
vn -0.169893 -0.985463 0.000000
vn -0.000000 0.000000 1.000000
vn -0.000000 0.000000 1.000000
vn -0.000000 0.000000 1.000000
vn -0.000000 0.000000 1.000000
vn -0.071730 0.997424 0.000000
vn 0.000000 1.000000 0.000000
vn 0.000000 1.000000 0.000000
vn -0.071730 0.997424 0.000000
vn 0.000000 0.000000 -1.000000
vn 0.000000 0.000000 -1.000000
vn 0.000000 0.000000 -1.000000
vn 0.000000 0.000000 -1.000000
vn 0.071730 -0.997424 0.000000
vn 0.000000 -1.000000 0.000000
vn 0.000000 -1.000000 0.000000
vn 0.071730 -0.997424 0.000000
vn -0.212602 0.977139 0.000000
vn -0.212602 0.977139 0.000000
vn -0.169893 0.985463 0.000000
vn -0.169893 0.985463 0.000000
vn 0.000000 0.000000 1.000000
vn 0.000000 0.000000 1.000000
vn 0.000000 0.000000 1.000000
vn 0.000000 0.000000 1.000000
vn 0.212602 -0.977139 0.000000
vn 0.212602 -0.977139 0.000000
vn 0.169893 -0.985463 0.000000
vn 0.169893 -0.985463 0.000000
vn 0.000000 0.000000 -1.000000
vn 0.000000 0.000000 -1.000000
vn -0.000000 0.000000 -1.000000
vn -0.000000 0.000000 -1.000000
s off
f 1/1/1 2/2/2 4/3/3 3/4/4
f 3/5/5 4/6/6 6/7/7 5/8/8
f 5/9/9 6/10/10 8/11/11 7/12/12
f 7/13/13 8/14/14 2/15/15 1/16/16
f 2/17/17 8/18/18 6/19/19 4/20/20
f 7/21/21 1/22/22 3/23/23 5/24/24
f 9/25/25 11/28/26 12/27/27 10/26/28
f 11/29/29 13/32/30 14/31/31 12/30/32
f 13/33/33 15/36/34 16/35/35 14/34/36
f 15/37/37 9/40/38 10/39/39 16/38/40
f 10/41/41 12/44/42 14/43/43 16/42/44
f 15/45/45 13/48/46 11/47/47 9/46/48
f 17/49/49 19/50/50 20/51/51 18/52/52
f 19/53/53 21/54/54 22/55/55 20/56/56
f 21/57/57 23/58/58 24/59/59 22/60/60
f 23/61/61 17/62/62 18/63/63 24/64/64
f 18/65/65 20/66/66 22/67/67 24/68/68
f 23/69/69 21/70/70 19/71/71 17/72/72
f 25/73/73 27/74/74 28/75/75 26/76/76
f 27/77/77 29/78/78 30/79/79 28/80/80
f 29/81/81 31/82/82 32/83/83 30/84/84
f 31/85/85 25/86/86 26/87/87 32/88/88
f 26/89/89 28/90/90 30/91/91 32/92/92
f 31/93/93 29/94/94 27/95/95 25/96/96
f 54/97/97 50/98/98 49/99/99 55/100/100
f 53/101/101 51/102/102 50/103/103 54/104/104
f 56/105/105 52/106/106 51/107/107 53/108/108
f 55/109/109 49/110/110 52/111/111 56/112/112
f 34/113/113 36/114/114 38/115/115 40/116/116
f 39/117/117 37/118/118 35/119/119 33/120/120
f 45/121/121 63/122/122 62/123/123 46/124/124
f 46/125/125 62/126/126 61/127/127 47/128/128
f 47/129/129 61/130/130 64/131/131 48/132/132
f 48/133/133 64/134/134 63/135/135 45/136/136
f 65/137/137 45/121/138 46/124/139 66/138/140
f 66/139/141 46/125/142 47/128/143 67/140/144
f 67/141/145 47/129/146 48/132/147 68/142/148
f 68/143/149 48/133/150 45/136/151 65/144/152
f 50/98/153 58/145/154 57/146/155 49/99/156
f 51/102/157 59/147/158 58/148/159 50/103/160
f 52/106/161 60/149/162 59/150/163 51/107/164
f 49/110/165 57/151/166 60/152/167 52/111/168
f 41/153/169 53/101/170 54/104/171 42/154/172
f 42/155/173 54/97/174 55/100/175 43/156/176
f 43/157/177 55/109/178 56/112/179 44/158/180
f 44/159/181 56/105/182 53/108/183 41/160/184
f 58/145/185 36/161/186 34/162/187 57/146/188
f 59/147/189 38/163/190 36/164/191 58/148/192
f 60/149/193 40/165/194 38/166/195 59/150/196
f 57/151/197 34/167/198 40/168/199 60/152/200
f 62/126/201 42/155/202 43/156/203 61/127/204
f 63/122/205 41/153/206 42/154/207 62/123/208
f 64/134/209 44/159/210 41/160/211 63/135/212
f 61/130/213 43/157/214 44/158/215 64/131/216
f 35/169/217 37/170/218 65/137/219 66/138/220
f 33/171/221 35/172/222 66/139/223 67/140/224
f 39/173/225 33/174/226 67/141/227 68/142/228
f 37/175/229 39/176/230 68/143/231 65/144/232
