# This file uses meters as units for non-parametric coordinates.

v -1.926888 7.454577 10.759316
v 2.021271 8.855777 10.759316
v 2.021271 7.454577 10.759316
v 2.021271 6.395618 -1.204422
v 2.021271 6.395618 1.204437
v -1.926888 6.395618 1.204437
v -1.926888 6.395618 -1.204422
v 2.021271 0.768747 -1.204422
v 2.021271 0.768747 1.204437
v -1.926888 0.768747 1.204437
v -1.926888 0.768747 -1.204422
v 2.500000 0.768747 -1.773979
v 2.500000 0.768747 1.773994
v -2.500000 0.768747 1.773994
v -2.500000 0.768747 -1.773979
v 2.500000 -2.999999 -1.773979
v 2.500000 -2.999999 1.773994
v -2.500000 -2.999999 1.773994
v -2.500000 -2.999999 -1.773979
v -1.926888 7.658087 -3.316520
v -1.926888 8.855777 -1.893639
v 2.021271 9.015523 -3.319260
v 2.021271 7.454577 -4.780624
v 2.021263 6.801125 -3.970962
v -1.926888 6.751783 -2.861931
v 0.056297 8.936018 -3.682465
v 0.117981 7.552682 -5.060646
v -0.052139 6.775213 -4.461266
v -1.190300 8.855777 10.759316
v -1.926888 8.855777 10.000877
v -1.926888 8.167270 10.759316
vt 0.234724 0.472749
vt 0.296188 0.474753
vt 0.264485 0.471332
vt 0.234724 0.472749
vt 0.234724 0.472749
vt 0.234724 0.472749
vt 0.234724 0.472749
vt 0.234724 0.472749
vt 0.169422 0.468908
vt 0.169422 0.468908
vt 0.169422 0.468908
vt 0.296188 0.474753
vt 0.224608 0.476059
vt 0.224608 0.476059
vt 0.224608 0.476059
vt 0.106040 0.470828
vt 0.106040 0.470828
vt 0.106040 0.470828
vt 0.106040 0.470828
vt 0.224608 0.476059
vt 0.224608 0.476059
vt 0.224608 0.476059
vt 0.106040 0.470828
vt 0.106040 0.470828
vt 0.426926 0.064055
vt 0.426926 0.064055
vt 0.426926 0.064055
vt 0.426926 0.064055
vt 0.361624 0.060214
vt 0.361624 0.060214
vt 0.361624 0.060214
vt 0.361624 0.060214
vt 0.426926 0.064055
vt 0.426926 0.064055
vt 0.426926 0.064055
vt 0.426926 0.064055
vt 0.361624 0.060214
vt 0.361624 0.060214
vt 0.361624 0.060214
vt 0.361624 0.060214
vt 0.267375 0.470828
vt 0.267375 0.470828
vt 0.267375 0.470828
vt 0.267375 0.470828
vt 0.267375 0.470828
vt 0.267375 0.470828
vt 0.267375 0.470828
vt 0.267375 0.470828
vt 0.267375 0.470828
vt 0.267375 0.470828
vt 0.267375 0.470828
vt 0.267375 0.470828
vt 0.267375 0.470828
vt 0.267375 0.470828
vt 0.267375 0.470828
vt 0.267375 0.470828
vt 0.234724 0.472749
vt 0.234724 0.472749
vt 0.169422 0.468908
vt 0.169422 0.468908
vt 0.169422 0.468908
vt 0.169422 0.468908
vt 0.234724 0.472749
vt 0.234724 0.472749
vt 0.169422 0.468908
vt 0.169422 0.468908
vt 0.169422 0.468908
vt 0.169422 0.468908
vt 0.234724 0.472749
vt 0.224608 0.476059
vt 0.264485 0.471332
vt 0.234724 0.472749
vt 0.234724 0.472749
vt 0.224608 0.476059
vt 0.224608 0.476059
vt 0.106040 0.470828
vt 0.224608 0.476059
vt 0.106040 0.470828
vt 0.294772 0.480422
vt 0.294772 0.480422
vt 0.294772 0.480422
vt 0.294772 0.480422
vt 0.294772 0.480422
vt 0.294772 0.480422
vt 0.294772 0.480422
vt 0.294772 0.480422
vt 0.294772 0.480422
vt 0.264485 0.471332
vt 0.294772 0.480422
vt 0.294772 0.480422
vt 0.294772 0.480422
vt 0.106040 0.470828
vt 0.234724 0.472749
vt 0.264485 0.471332
vt 0.264485 0.471332
vt 0.264485 0.471332
vt 0.234724 0.472749
vt 0.294772 0.480422
vt 0.294772 0.480422
vt 0.294772 0.480422
vt 0.294772 0.480422
vt 0.264485 0.471332
vt 0.169422 0.468908
vt 0.234724 0.472749
vt 0.264485 0.471332
vt 0.234724 0.472749
vt 0.169422 0.468908
vt 0.296188 0.474753
vn 0.000000 -0.993914 0.110155
vn 0.000000 -0.993914 0.110155
vn 0.000000 -0.993914 0.110155
vn 0.000000 -0.993914 0.110155
vn -1.000000 0.000000 0.000000
vn -1.000000 0.000000 0.000000
vn -1.000000 0.000000 0.000000
vn -1.000000 0.000000 0.000000
vn -1.000000 0.000000 0.000000
vn 1.000000 -0.000001 -0.000000
vn 1.000000 -0.000001 -0.000000
vn 1.000000 0.000000 0.000000
vn 1.000000 0.000000 0.000000
vn 0.000000 0.000000 1.000000
vn 0.000000 0.000000 1.000000
vn 0.000000 0.000000 1.000000
vn 0.000000 0.000000 1.000000
vn -1.000000 0.000000 0.000000
vn -1.000000 0.000000 0.000000
vn -1.000000 0.000000 0.000000
vn -1.000000 0.000000 0.000000
vn 0.000000 0.000000 -1.000000
vn 0.000000 0.000000 -1.000000
vn 0.000000 0.000000 -1.000000
vn 0.000000 0.000000 -1.000000
vn 0.000000 1.000000 0.000000
vn 0.000000 1.000000 0.000000
vn 0.000000 1.000000 0.000000
vn 0.000000 1.000000 0.000000
vn 0.000000 1.000000 0.000000
vn 0.000000 1.000000 0.000000
vn 0.000000 1.000000 0.000000
vn 0.000000 1.000000 0.000000
vn 0.000000 1.000000 0.000000
vn 0.000000 1.000000 0.000000
vn 0.000000 1.000000 0.000000
vn 0.000000 1.000000 0.000000
vn 0.000000 1.000000 0.000000
vn 0.000000 1.000000 0.000000
vn 0.000000 1.000000 0.000000
vn 0.000000 1.000000 0.000000
vn 1.000000 0.000000 0.000000
vn 1.000000 0.000000 0.000000
vn 1.000000 0.000000 0.000000
vn 1.000000 0.000000 0.000000
vn 0.000000 0.000000 1.000000
vn 0.000000 0.000000 1.000000
vn 0.000000 0.000000 1.000000
vn 0.000000 0.000000 1.000000
vn -1.000000 0.000000 0.000000
vn -1.000000 0.000000 0.000000
vn -1.000000 0.000000 0.000000
vn -1.000000 0.000000 0.000000
vn 0.000000 0.000000 -1.000000
vn 0.000000 0.000000 -1.000000
vn 0.000000 0.000000 -1.000000
vn 0.000000 0.000000 -1.000000
vn -0.569088 0.608829 0.552690
vn -0.569088 0.608829 0.552690
vn -0.569088 0.608829 0.552690
vn 1.000000 -0.000000 -0.000000
vn 1.000000 0.000000 0.000000
vn 1.000000 0.000000 0.000000
vn 1.000000 -0.000000 -0.000000
vn 1.000000 -0.000001 -0.000000
vn 1.000000 -0.000000 -0.000000
vn 1.000000 -0.000000 -0.000000
vn 1.000000 -0.000001 -0.000000
vn 1.000000 -0.000001 -0.000000
vn -0.164722 -0.964328 -0.207214
vn -0.164722 -0.964328 -0.207214
vn -0.164722 -0.964328 -0.207214
vn -0.511959 0.626070 -0.588163
vn -0.511959 0.626070 -0.588163
vn -0.511959 0.626070 -0.588163
vn -0.511959 0.626070 -0.588163
vn -0.605543 -0.377389 -0.700639
vn -0.605543 -0.377389 -0.700639
vn -0.605543 -0.377389 -0.700639
vn -0.605543 -0.377389 -0.700639
vn -0.042517 0.999031 0.011336
vn -0.021604 0.999748 0.006153
vn -0.013381 0.999902 0.004115
vn 0.121904 0.690333 -0.713148
vn 0.121904 0.690333 -0.713148
vn 0.121904 0.690333 -0.713148
vn 0.121904 0.690333 -0.713148
vn 0.122784 -0.703703 -0.699805
vn 0.122784 -0.703703 -0.699805
vn 0.122784 -0.703703 -0.699805
vn 0.122784 -0.703703 -0.699805
vn 0.014432 -0.992075 -0.124817
vn 0.014432 -0.992075 -0.124817
vn 0.014432 -0.992075 -0.124817
vn 0.014432 -0.992075 -0.124817
vn -0.013381 0.999902 0.004115
vn -0.021604 0.999748 0.006153
vn -0.012448 0.999915 0.003884
vn -0.012448 0.999915 0.003884
vn -0.012448 0.999915 0.003884
vn -1.000000 0.000000 0.000000
vn -1.000000 0.000000 0.000000
vn -1.000000 0.000000 0.000000
vn -1.000000 0.000000 0.000000
vn -1.000000 0.000000 0.000000
vn -0.000000 0.000000 1.000000
vn -0.000000 0.000000 1.000000
vn -0.000000 0.000000 1.000000
vn -0.000000 0.000000 1.000000
vn -0.000000 0.000000 1.000000
s off
f 3/16/1 1/17/2 6/18/3 5/19/4
f 1/20/5 20/70/6 25/77/7 7/21/8 6/22/9
f 4/25/10 5/26/11 9/27/12 8/28/13
f 5/29/14 6/30/15 10/31/16 9/32/17
f 6/33/18 7/34/19 11/35/20 10/36/21
f 7/37/22 4/38/23 8/39/24 11/40/25
f 8/41/26 9/42/27 13/43/28 12/44/29
f 9/45/30 10/46/31 14/47/32 13/48/33
f 10/49/34 11/50/35 15/51/36 14/52/37
f 11/53/38 8/54/39 12/55/40 15/56/41
f 12/57/42 13/58/43 17/6/44 16/5/45
f 13/59/46 14/60/47 18/61/48 17/62/49
f 14/63/50 15/64/51 19/8/52 18/7/53
f 15/65/54 12/66/55 16/67/56 19/68/57
f 29/12/58 30/108/59 31/2/60
f 23/73/61 22/72/62 2/93/63 3/4/64
f 24/75/65 23/74/66 3/13/67 5/14/68 4/15/69
f 25/78/70 28/92/71 7/24/72
f 26/101/73 27/98/74 20/81/75 21/82/76
f 20/83/77 27/99/78 28/100/79 25/86/80
f 22/96/81 26/88/82 2/3/83
f 22/79/84 23/80/85 27/89/86 26/87/87
f 28/91/88 27/90/89 23/84/90 24/85/91
f 7/24/92 28/92/93 24/76/94 4/23/95
f 2/94/96 26/95/97 21/71/98 30/105/99 29/102/100
f 21/97/101 20/69/102 1/1/103 31/106/104 30/104/105
f 1/9/106 3/10/107 2/11/108 29/103/109 31/107/110
