# This file uses meters as units for non-parametric coordinates.

v -1.068275 1.348457 0.852463
v 1.068291 1.348457 0.852463
v -1.068275 1.445029 0.852463
v 1.068291 1.445029 0.852463
v -1.068275 1.445029 -0.852448
v 1.068291 1.445029 -0.852448
v -1.068275 1.348457 -0.852448
v 1.068291 1.348457 -0.852448
v 0.641571 -0.016907 0.681061
v 0.641571 -0.016907 -0.634247
v 0.641571 0.092584 0.681061
v 0.641571 0.092584 -0.634247
v 0.469666 0.092584 0.681061
v 0.469666 0.092584 -0.634247
v 0.469666 -0.016907 0.681061
v 0.469666 -0.016907 -0.634247
v 0.526627 -0.008474 -0.080215
v 0.526627 1.407385 -0.080215
v 0.595108 -0.008474 -0.080215
v 0.595108 1.407385 -0.080215
v 0.595108 -0.008474 0.127029
v 0.595108 1.407385 0.127029
v 0.526627 -0.008474 0.127029
v 0.526627 1.407385 0.127029
v -0.529655 -0.008474 0.127029
v -0.529655 1.407385 0.127029
v -0.598137 -0.008474 0.127029
v -0.598137 1.407385 0.127029
v -0.598137 -0.008474 -0.080215
v -0.598137 1.407385 -0.080215
v -0.529655 -0.008474 -0.080215
v -0.529655 1.407385 -0.080215
v -0.474380 -0.016907 0.681061
v -0.474380 -0.016907 -0.634247
v -0.474380 0.092584 0.681061
v -0.474380 0.092584 -0.634247
v -0.646286 0.092584 0.681061
v -0.646286 0.092584 -0.634247
v -0.646286 -0.016907 0.681061
v -0.646286 -0.016907 -0.634247
vt 0.293391 0.397251
vt 0.293391 0.397251
vt 0.293391 0.397251
vt 0.293391 0.397251
vt 0.388743 0.397251
vt 0.388743 0.397251
vt 0.388743 0.397251
vt 0.388743 0.397251
vt 0.293391 0.397251
vt 0.293391 0.397251
vt 0.293391 0.397251
vt 0.293391 0.397251
vt 0.238151 0.397251
vt 0.238151 0.397251
vt 0.238151 0.397251
vt 0.238151 0.397251
vt 0.264982 0.397251
vt 0.264982 0.397251
vt 0.264982 0.397251
vt 0.264982 0.397251
vt 0.264982 0.397251
vt 0.264982 0.397251
vt 0.264982 0.397251
vt 0.264982 0.397251
vt 0.234047 0.062170
vt 0.234047 0.062170
vt 0.234047 0.062170
vt 0.234047 0.062170
vt 0.291785 0.062170
vt 0.291785 0.062170
vt 0.291785 0.062170
vt 0.291785 0.062170
vt 0.234047 0.062170
vt 0.234047 0.062170
vt 0.234047 0.062170
vt 0.234047 0.062170
vt 0.234047 0.062170
vt 0.234047 0.062170
vt 0.234047 0.062170
vt 0.234047 0.062170
vt 0.234047 0.062170
vt 0.234047 0.062170
vt 0.234047 0.062170
vt 0.234047 0.062170
vt 0.234047 0.062170
vt 0.234047 0.062170
vt 0.234047 0.062170
vt 0.234047 0.062170
vt 0.234047 0.062170
vt 0.234047 0.062170
vt 0.234047 0.062170
vt 0.234047 0.062170
vt 0.266406 0.062170
vt 0.266406 0.062170
vt 0.266406 0.062170
vt 0.266406 0.062170
vt 0.234047 0.062170
vt 0.234047 0.062170
vt 0.234047 0.062170
vt 0.234047 0.062170
vt 0.203591 0.062170
vt 0.203591 0.062170
vt 0.203591 0.062170
vt 0.203591 0.062170
vt 0.234047 0.062170
vt 0.234047 0.062170
vt 0.234047 0.062170
vt 0.234047 0.062170
vt 0.234047 0.062170
vt 0.234047 0.062170
vt 0.234047 0.062170
vt 0.234047 0.062170
vt 0.234047 0.062170
vt 0.234047 0.062170
vt 0.234047 0.062170
vt 0.234047 0.062170
vt 0.266406 0.062170
vt 0.266406 0.062170
vt 0.266406 0.062170
vt 0.266406 0.062170
vt 0.234047 0.062170
vt 0.234047 0.062170
vt 0.234047 0.062170
vt 0.234047 0.062170
vt 0.203591 0.062170
vt 0.203591 0.062170
vt 0.203591 0.062170
vt 0.203591 0.062170
vt 0.234047 0.062170
vt 0.234047 0.062170
vt 0.234047 0.062170
vt 0.234047 0.062170
vt 0.234047 0.062170
vt 0.234047 0.062170
vt 0.234047 0.062170
vt 0.234047 0.062170
vt 0.234047 0.062170
vt 0.234047 0.062170
vt 0.234047 0.062170
vt 0.234047 0.062170
vt 0.291785 0.062170
vt 0.291785 0.062170
vt 0.291785 0.062170
vt 0.291785 0.062170
vt 0.234047 0.062170
vt 0.234047 0.062170
vt 0.234047 0.062170
vt 0.234047 0.062170
vt 0.234047 0.062170
vt 0.234047 0.062170
vt 0.234047 0.062170
vt 0.234047 0.062170
vt 0.234047 0.062170
vt 0.234047 0.062170
vt 0.234047 0.062170
vt 0.234047 0.062170
vt 0.234047 0.062170
vt 0.234047 0.062170
vt 0.234047 0.062170
vt 0.234047 0.062170
vn 0.000000 0.000000 1.000000
vn 0.000000 0.000000 1.000000
vn 0.000000 0.000000 1.000000
vn 0.000000 0.000000 1.000000
vn 0.000000 1.000000 0.000000
vn 0.000000 1.000000 0.000000
vn 0.000000 1.000000 0.000000
vn 0.000000 1.000000 0.000000
vn 0.000000 0.000000 -1.000000
vn 0.000000 0.000000 -1.000000
vn 0.000000 0.000000 -1.000000
vn 0.000000 0.000000 -1.000000
vn 0.000000 -1.000000 0.000000
vn 0.000000 -1.000000 0.000000
vn 0.000000 -1.000000 0.000000
vn 0.000000 -1.000000 0.000000
vn 1.000000 0.000000 0.000000
vn 1.000000 0.000000 0.000000
vn 1.000000 0.000000 0.000000
vn 1.000000 0.000000 0.000000
vn -1.000000 0.000000 0.000000
vn -1.000000 0.000000 0.000000
vn -1.000000 0.000000 0.000000
vn -1.000000 0.000000 0.000000
vn 1.000000 0.000000 0.000000
vn 1.000000 0.000000 0.000000
vn 1.000000 0.000000 0.000000
vn 1.000000 0.000000 0.000000
vn 0.000000 1.000000 0.000000
vn 0.000000 1.000000 0.000000
vn 0.000000 1.000000 0.000000
vn 0.000000 1.000000 0.000000
vn -1.000000 0.000000 0.000000
vn -1.000000 0.000000 0.000000
vn -1.000000 0.000000 0.000000
vn -1.000000 0.000000 0.000000
vn 0.000000 -1.000000 0.000000
vn 0.000000 -1.000000 0.000000
vn 0.000000 -1.000000 0.000000
vn 0.000000 -1.000000 0.000000
vn 0.000000 0.000000 -1.000000
vn 0.000000 0.000000 -1.000000
vn 0.000000 0.000000 -1.000000
vn 0.000000 0.000000 -1.000000
vn 0.000000 0.000000 1.000000
vn 0.000000 0.000000 1.000000
vn 0.000000 0.000000 1.000000
vn 0.000000 0.000000 1.000000
vn 0.000000 0.000000 -1.000000
vn 0.000000 0.000000 -1.000000
vn 0.000000 0.000000 -1.000000
vn 0.000000 0.000000 -1.000000
vn 1.000000 0.000000 0.000000
vn 1.000000 0.000000 0.000000
vn 1.000000 0.000000 0.000000
vn 1.000000 0.000000 0.000000
vn 0.000000 0.000000 1.000000
vn 0.000000 0.000000 1.000000
vn 0.000000 0.000000 1.000000
vn 0.000000 0.000000 1.000000
vn -1.000000 0.000000 0.000000
vn -1.000000 0.000000 0.000000
vn -1.000000 0.000000 0.000000
vn -1.000000 0.000000 0.000000
vn 0.000000 1.000000 0.000000
vn 0.000000 1.000000 0.000000
vn 0.000000 1.000000 0.000000
vn 0.000000 1.000000 0.000000
vn 0.000000 -1.000000 0.000000
vn 0.000000 -1.000000 0.000000
vn 0.000000 -1.000000 0.000000
vn 0.000000 -1.000000 0.000000
vn 0.000000 0.000000 1.000000
vn 0.000000 0.000000 1.000000
vn 0.000000 0.000000 1.000000
vn 0.000000 0.000000 1.000000
vn -1.000000 0.000000 0.000000
vn -1.000000 0.000000 0.000000
vn -1.000000 0.000000 0.000000
vn -1.000000 0.000000 0.000000
vn 0.000000 0.000000 -1.000000
vn 0.000000 0.000000 -1.000000
vn 0.000000 0.000000 -1.000000
vn 0.000000 0.000000 -1.000000
vn 1.000000 0.000000 0.000000
vn 1.000000 0.000000 0.000000
vn 1.000000 0.000000 0.000000
vn 1.000000 0.000000 0.000000
vn 0.000000 1.000000 0.000000
vn 0.000000 1.000000 0.000000
vn 0.000000 1.000000 0.000000
vn 0.000000 1.000000 0.000000
vn 0.000000 -1.000000 0.000000
vn 0.000000 -1.000000 0.000000
vn 0.000000 -1.000000 0.000000
vn 0.000000 -1.000000 0.000000
vn 1.000000 0.000000 0.000000
vn 1.000000 0.000000 0.000000
vn 1.000000 0.000000 0.000000
vn 1.000000 0.000000 0.000000
vn 0.000000 1.000000 0.000000
vn 0.000000 1.000000 0.000000
vn 0.000000 1.000000 0.000000
vn 0.000000 1.000000 0.000000
vn -1.000000 0.000000 0.000000
vn -1.000000 0.000000 0.000000
vn -1.000000 0.000000 0.000000
vn -1.000000 0.000000 0.000000
vn 0.000000 -1.000000 0.000000
vn 0.000000 -1.000000 0.000000
vn 0.000000 -1.000000 0.000000
vn 0.000000 -1.000000 0.000000
vn 0.000000 0.000000 -1.000000
vn 0.000000 0.000000 -1.000000
vn 0.000000 0.000000 -1.000000
vn 0.000000 0.000000 -1.000000
vn 0.000000 0.000000 1.000000
vn 0.000000 0.000000 1.000000
vn 0.000000 0.000000 1.000000
vn 0.000000 0.000000 1.000000
s off
f 1/1/1 2/2/2 4/3/3 3/4/4
f 4/5/5 6/6/6 5/7/7 3/8/8
f 5/9/9 6/10/10 8/11/11 7/12/12
f 7/13/13 8/14/14 2/15/15 1/16/16
f 8/17/17 6/18/18 4/19/19 2/20/20
f 3/21/21 5/22/22 7/23/23 1/24/24
f 9/25/25 10/26/26 12/27/27 11/28/28
f 11/29/29 12/30/30 14/31/31 13/32/32
f 13/33/33 14/34/34 16/35/35 15/36/36
f 15/37/37 16/38/38 10/39/39 9/40/40
f 10/41/41 16/42/42 14/43/43 12/44/44
f 15/45/45 9/46/46 11/47/47 13/48/48
f 17/49/49 18/50/50 20/51/51 19/52/52
f 19/53/53 20/54/54 22/55/55 21/56/56
f 21/57/57 22/58/58 24/59/59 23/60/60
f 23/61/61 24/62/62 18/63/63 17/64/64
f 18/65/65 24/66/66 22/67/67 20/68/68
f 23/69/69 17/70/70 19/71/71 21/72/72
f 25/73/73 26/74/74 28/75/75 27/76/76
f 27/77/77 28/78/78 30/79/79 29/80/80
f 29/81/81 30/82/82 32/83/83 31/84/84
f 31/85/85 32/86/86 26/87/87 25/88/88
f 26/89/89 32/90/90 30/91/91 28/92/92
f 31/93/93 25/94/94 27/95/95 29/96/96
f 33/97/97 34/98/98 36/99/99 35/100/100
f 35/101/101 36/102/102 38/103/103 37/104/104
f 37/105/105 38/106/106 40/107/107 39/108/108
f 39/109/109 40/110/110 34/111/111 33/112/112
f 34/113/113 40/114/114 38/115/115 36/116/116
f 39/117/117 33/118/118 35/119/119 37/120/120
