# This file uses meters as units for non-parametric coordinates.

v 0.301003 0.401229 0.255768
v 0.874641 0.610655 -0.311539
v 0.222870 1.480497 0.010208
v 0.573769 1.487718 -0.241577
v -0.031822 1.462734 -0.180984
v 0.266380 1.462734 -0.578232
v -0.192406 0.366818 -0.114624
v 0.328552 0.569024 -0.827377
v 0.167450 3.517240 0.071442
v 0.380249 3.476202 0.008133
v 0.045288 3.449295 -0.349228
v -0.114815 3.497554 -0.140450
v -0.669594 0.067066 0.096420
v 0.291069 0.269271 -1.202057
v 1.532959 0.351969 -0.386627
v 0.691689 0.147815 0.694611
v -0.613365 -0.140391 0.093330
v 0.535202 -0.140391 -1.436676
v 1.724434 -0.061200 -0.655823
v 0.690178 -0.063067 0.666138
v 2.337120 3.323844 -0.412445
v 0.577240 3.314189 -2.021301
v 1.979385 4.751010 -0.316437
v 0.588303 4.709858 -1.830444
v 0.034897 4.917586 1.732986
v -2.112053 4.876435 -0.409866
v -0.113060 3.223376 2.021286
v -2.337128 3.152455 -0.091110
v 0.009453 3.624562 0.727783
v 1.278656 3.563537 1.624420
v 0.312935 4.576771 0.689865
v 1.322273 4.503316 1.445557
v 0.773735 4.621644 -0.201233
v 1.929047 4.536087 0.597778
v 0.396942 3.478764 -0.494278
v 1.786400 3.367384 0.489716
v 1.299583 4.686966 -0.187424
v 0.218765 4.702535 -1.218842
v 1.349785 5.817531 -0.218903
v 0.254616 5.730534 -1.073257
v 0.139069 6.163785 0.844070
v -0.886765 6.124045 -0.108948
v 0.068024 4.550951 0.942574
v -0.997810 4.488620 0.052170
vt 0.243494 0.396585
vt 0.243494 0.396585
vt 0.243494 0.396585
vt 0.243494 0.396585
vt 0.243494 0.396585
vt 0.243494 0.396585
vt 0.243494 0.396585
vt 0.243494 0.396585
vt 0.211099 0.396585
vt 0.211099 0.396585
vt 0.211099 0.396585
vt 0.211099 0.396585
vt 0.211099 0.396585
vt 0.211099 0.396585
vt 0.211099 0.396585
vt 0.211099 0.396585
vt 0.211099 0.396585
vt 0.211099 0.396585
vt 0.211099 0.396585
vt 0.211099 0.396585
vt 0.243494 0.396585
vt 0.243494 0.396585
vt 0.243494 0.396585
vt 0.243494 0.396585
vt 0.211099 0.396585
vt 0.211099 0.396585
vt 0.211099 0.396585
vt 0.211099 0.396585
vt 0.175105 0.396585
vt 0.175105 0.396585
vt 0.175105 0.396585
vt 0.175105 0.396585
vt 0.270490 0.396585
vt 0.270490 0.396585
vt 0.270490 0.396585
vt 0.270490 0.396585
vt 0.245294 0.396585
vt 0.245294 0.396585
vt 0.245294 0.396585
vt 0.245294 0.396585
vt 0.270490 0.396585
vt 0.270490 0.396585
vt 0.270490 0.396585
vt 0.270490 0.396585
vt 0.245294 0.396585
vt 0.245294 0.396585
vt 0.245294 0.396585
vt 0.245294 0.396585
vt 0.211099 0.396585
vt 0.211099 0.396585
vt 0.211099 0.396585
vt 0.211099 0.396585
vt 0.211099 0.396585
vt 0.211099 0.396585
vt 0.211099 0.396585
vt 0.211099 0.396585
vt 0.211099 0.396585
vt 0.211099 0.396585
vt 0.211099 0.396585
vt 0.211099 0.396585
vt 0.211099 0.396585
vt 0.211099 0.396585
vt 0.211099 0.396585
vt 0.211099 0.396585
vt 0.243494 0.396585
vt 0.243494 0.396585
vt 0.243494 0.396585
vt 0.243494 0.396585
vt 0.258846 0.184645
vt 0.258846 0.184645
vt 0.258846 0.184645
vt 0.258846 0.184645
vt 0.290412 0.184645
vt 0.290412 0.184645
vt 0.290412 0.184645
vt 0.290412 0.184645
vt 0.258846 0.184645
vt 0.258846 0.184645
vt 0.258846 0.184645
vt 0.258846 0.184645
vt 0.203606 0.184645
vt 0.203606 0.184645
vt 0.203606 0.184645
vt 0.203606 0.184645
vt 0.230437 0.184645
vt 0.230437 0.184645
vt 0.230437 0.184645
vt 0.230437 0.184645
vt 0.230437 0.184645
vt 0.230437 0.184645
vt 0.230437 0.184645
vt 0.230437 0.184645
vt 0.258846 0.184645
vt 0.258846 0.184645
vt 0.258846 0.184645
vt 0.258846 0.184645
vt 0.290412 0.184645
vt 0.290412 0.184645
vt 0.290412 0.184645
vt 0.290412 0.184645
vt 0.258846 0.184645
vt 0.258846 0.184645
vt 0.258846 0.184645
vt 0.258846 0.184645
vt 0.203606 0.184645
vt 0.203606 0.184645
vt 0.203606 0.184645
vt 0.203606 0.184645
vt 0.230437 0.184645
vt 0.230437 0.184645
vt 0.230437 0.184645
vt 0.230437 0.184645
vt 0.230437 0.184645
vt 0.230437 0.184645
vt 0.230437 0.184645
vt 0.230437 0.184645
vt 0.258846 0.184645
vt 0.258846 0.184645
vt 0.258846 0.184645
vt 0.258846 0.184645
vt 0.290412 0.184645
vt 0.290412 0.184645
vt 0.290412 0.184645
vt 0.290412 0.184645
vt 0.258846 0.184645
vt 0.258846 0.184645
vt 0.258846 0.184645
vt 0.258846 0.184645
vt 0.203606 0.184645
vt 0.203606 0.184645
vt 0.203606 0.184645
vt 0.203606 0.184645
vt 0.230437 0.184645
vt 0.230437 0.184645
vt 0.230437 0.184645
vt 0.230437 0.184645
vt 0.230437 0.184645
vt 0.230437 0.184645
vt 0.230437 0.184645
vt 0.230437 0.184645
vn 0.625951 0.189176 0.756570
vn 0.625951 0.189176 0.756570
vn 0.625951 0.189176 0.756570
vn 0.625951 0.189176 0.756570
vn -0.804943 0.035782 -0.592272
vn -0.805482 0.041455 -0.591168
vn -0.809153 0.093320 -0.580141
vn -0.809153 0.093320 -0.580141
vn 0.044535 -0.998448 0.033432
vn 0.044535 -0.998448 0.033432
vn 0.044535 -0.998448 0.033432
vn 0.044535 -0.998448 0.033432
vn 0.671573 0.262546 -0.692864
vn 0.671573 0.262546 -0.692864
vn 0.700832 0.200062 -0.684697
vn 0.702456 0.196338 -0.684111
vn -0.600829 0.135740 0.787768
vn -0.600829 0.135740 0.787768
vn -0.600829 0.135740 0.787768
vn -0.600829 0.135740 0.787768
vn 0.485871 -0.037407 0.873230
vn 0.485871 -0.037407 0.873230
vn 0.485871 -0.037407 0.873230
vn 0.485871 -0.037407 0.873230
vn 0.702456 0.196338 -0.684111
vn 0.700832 0.200062 -0.684697
vn 0.718986 0.156544 -0.677165
vn 0.718986 0.156544 -0.677165
vn -0.598060 -0.040338 0.800436
vn -0.598060 -0.040338 0.800436
vn -0.598060 -0.040338 0.800436
vn -0.598060 -0.040338 0.800436
vn -0.660125 0.663058 -0.352972
vn -0.660125 0.663058 -0.352972
vn -0.660125 0.663057 -0.352972
vn -0.660125 0.663058 -0.352972
vn 0.331979 0.787405 -0.519406
vn 0.331979 0.787405 -0.519406
vn 0.331979 0.787405 -0.519406
vn 0.331979 0.787405 -0.519406
vn 0.264908 0.856839 0.442325
vn 0.264908 0.856839 0.442325
vn 0.264908 0.856839 0.442325
vn 0.264908 0.856839 0.442325
vn -0.348677 0.736108 0.580146
vn -0.348677 0.736108 0.580146
vn -0.348677 0.736108 0.580146
vn -0.348677 0.736108 0.580146
vn -0.786972 -0.152774 -0.597775
vn -0.786972 -0.152774 -0.597775
vn -0.786972 -0.152774 -0.597775
vn -0.786972 -0.152774 -0.597775
vn 0.399822 0.623206 -0.672128
vn 0.399822 0.623206 -0.672128
vn 0.399822 0.623206 -0.672128
vn 0.399822 0.623206 -0.672128
vn 0.789429 -0.051462 0.611681
vn 0.789429 -0.051462 0.611681
vn 0.789429 -0.051462 0.611681
vn 0.789429 -0.051462 0.611681
vn -0.393396 -0.120225 0.911475
vn -0.393396 -0.120225 0.911475
vn -0.393396 -0.120225 0.911475
vn -0.393396 -0.120225 0.911475
vn -0.805482 0.041455 -0.591168
vn -0.804943 0.035782 -0.592272
vn -0.798208 -0.020005 -0.602050
vn -0.798208 -0.020005 -0.602050
vn 0.693968 0.156643 -0.702760
vn 0.693968 0.156643 -0.702760
vn 0.693968 0.156643 -0.702760
vn 0.693968 0.156643 -0.702760
vn 0.031812 0.998075 -0.053242
vn 0.031812 0.998075 -0.053242
vn 0.031812 0.998075 -0.053242
vn 0.031812 0.998075 -0.053242
vn -0.686200 0.199136 0.699624
vn -0.686200 0.199136 0.699624
vn -0.686200 0.199136 0.699624
vn -0.686200 0.199136 0.699624
vn 0.035512 -0.999235 -0.016383
vn 0.035512 -0.999235 -0.016383
vn 0.035512 -0.999235 -0.016383
vn 0.035512 -0.999235 -0.016383
vn -0.512457 0.003585 -0.858705
vn -0.512457 0.003585 -0.858705
vn -0.512457 0.003585 -0.858705
vn -0.512457 0.003585 -0.858705
vn 0.711841 0.090745 0.696453
vn 0.711841 0.090745 0.696453
vn 0.711841 0.090745 0.696453
vn 0.711841 0.090745 0.696453
vn -0.568094 0.195807 0.799330
vn -0.568094 0.195807 0.799330
vn -0.568094 0.195807 0.799330
vn -0.568094 0.195807 0.799330
vn 0.028656 0.997656 0.062139
vn 0.028656 0.997656 0.062139
vn 0.028656 0.997656 0.062139
vn 0.028656 0.997656 0.062139
vn 0.574445 0.012932 -0.818441
vn 0.574445 0.012932 -0.818441
vn 0.574445 0.012932 -0.818441
vn 0.574445 0.012932 -0.818441
vn -0.130298 -0.987036 0.093718
vn -0.130298 -0.987036 0.093718
vn -0.130298 -0.987036 0.093718
vn -0.130298 -0.987036 0.093718
vn 0.867992 -0.060127 0.492925
vn 0.867992 -0.060127 0.492925
vn 0.867992 -0.060127 0.492925
vn 0.867992 -0.060127 0.492925
vn -0.871352 0.327427 -0.365426
vn -0.871352 0.327427 -0.365426
vn -0.871352 0.327427 -0.365426
vn -0.871352 0.327427 -0.365426
vn 0.654591 0.013860 -0.755856
vn 0.654591 0.013860 -0.755856
vn 0.654591 0.013860 -0.755856
vn 0.654591 0.013860 -0.755856
vn 0.122476 0.969625 -0.211722
vn 0.122476 0.969625 -0.211722
vn 0.122476 0.969625 -0.211722
vn 0.122476 0.969625 -0.211722
vn -0.660744 0.096535 0.744378
vn -0.660744 0.096535 0.744378
vn -0.660744 0.096535 0.744378
vn -0.660744 0.096535 0.744378
vn 0.079185 -0.994788 -0.064244
vn 0.079185 -0.994788 -0.064244
vn 0.079185 -0.994788 -0.064244
vn 0.079185 -0.994788 -0.064244
vn -0.686244 0.033611 -0.726594
vn -0.686244 0.033611 -0.726594
vn -0.686244 0.033611 -0.726594
vn -0.686244 0.033611 -0.726594
vn 0.668370 0.005702 0.743807
vn 0.668370 0.005702 0.743807
vn 0.668370 0.005702 0.743807
vn 0.668370 0.005702 0.743807
s off
f 1/1/1 2/2/2 4/3/3 3/4/4
f 5/5/5 6/6/6 8/7/7 7/8/8
f 17/9/9 18/10/10 19/11/11 20/12/12
f 2/13/13 8/14/14 6/15/15 4/16/16
f 7/17/17 1/18/18 3/19/19 5/20/20
f 3/21/21 4/22/22 10/23/23 9/24/24
f 4/25/25 6/26/26 11/27/27 10/28/28
f 5/29/29 3/30/30 9/31/31 12/32/32
f 7/33/33 8/34/34 14/35/35 13/36/36
f 8/37/37 2/38/38 15/39/39 14/40/40
f 2/41/41 1/42/42 16/43/43 15/44/44
f 1/45/45 7/46/46 13/47/47 16/48/48
f 13/49/49 14/50/50 18/51/51 17/52/52
f 14/53/53 15/54/54 19/55/55 18/56/56
f 15/57/57 16/58/58 20/59/59 19/60/60
f 16/61/61 13/62/62 17/63/63 20/64/64
f 6/65/65 5/66/66 12/67/67 11/68/68
f 21/69/69 22/70/70 24/71/71 23/72/72
f 23/73/73 24/74/74 26/75/75 25/76/76
f 25/77/77 26/78/78 28/79/79 27/80/80
f 27/81/81 28/82/82 22/83/83 21/84/84
f 22/85/85 28/86/86 26/87/87 24/88/88
f 27/89/89 21/90/90 23/91/91 25/92/92
f 29/93/93 30/94/94 32/95/95 31/96/96
f 31/97/97 32/98/98 34/99/99 33/100/100
f 33/101/101 34/102/102 36/103/103 35/104/104
f 35/105/105 36/106/106 30/107/107 29/108/108
f 30/109/109 36/110/110 34/111/111 32/112/112
f 35/113/113 29/114/114 31/115/115 33/116/116
f 37/117/117 38/118/118 40/119/119 39/120/120
f 39/121/121 40/122/122 42/123/123 41/124/124
f 41/125/125 42/126/126 44/127/127 43/128/128
f 43/129/129 44/130/130 38/131/131 37/132/132
f 38/133/133 44/134/134 42/135/135 40/136/136
f 43/137/137 37/138/138 39/139/139 41/140/140
