# This file uses meters as units for non-parametric coordinates.

v -0.440857 0.602110 0.541092
v 0.444168 0.602110 0.541092
v -0.440857 0.702405 0.541092
v 0.444168 0.702405 0.541092
v -0.440857 0.702405 -0.343933
v 0.444168 0.702405 -0.343933
v -0.440857 0.602110 -0.343933
v 0.444168 0.602110 -0.343933
v -0.440857 0.792388 -0.398239
v 0.444168 0.792388 -0.398239
v -0.440857 0.818346 -0.301361
v 0.444168 0.818346 -0.301361
v -0.440857 1.758389 -0.553223
v 0.444168 1.758389 -0.553223
v -0.440857 1.732431 -0.650101
v 0.444168 1.732431 -0.650101
v -0.526291 0.127565 0.617310
v 0.529602 0.127565 0.617310
v -0.526291 0.096123 0.522064
v 0.529602 0.096123 0.522064
v -0.526291 -0.003204 0.554855
v 0.529602 -0.003204 0.554855
v -0.526291 0.028239 0.650101
v 0.529602 0.028239 0.650101
v 0.445862 -0.003204 0.554855
v 0.445862 0.028239 0.650101
v 0.445862 0.106627 0.624237
v 0.445862 0.075187 0.528992
v -0.442551 -0.003204 0.554855
v -0.442551 0.028239 0.650101
v -0.442551 0.106627 0.624237
v -0.442551 0.075187 0.528992
v -0.526291 1.073114 0.305161
v -0.442551 1.073114 0.305161
v -0.442551 1.041672 0.209915
v -0.526291 1.041672 0.209915
v 0.445862 1.073114 0.305161
v 0.445862 1.041672 0.209915
v 0.529602 1.073114 0.305161
v 0.529602 1.041672 0.209915
v -0.526291 0.098336 -0.387650
v 0.529602 0.098336 -0.387650
v -0.526291 0.139663 -0.479034
v 0.529602 0.139663 -0.479034
v -0.526291 0.044357 -0.522141
v 0.529602 0.044357 -0.522141
v -0.526291 0.003030 -0.430756
v 0.529602 0.003030 -0.430756
v 0.445862 0.044357 -0.522141
v 0.445862 0.003030 -0.430756
v 0.445862 0.078246 -0.396744
v 0.445862 0.119574 -0.488129
v -0.442551 0.044357 -0.522141
v -0.442551 0.003030 -0.430756
v -0.442551 0.078246 -0.396744
v -0.442551 0.119574 -0.488129
v -0.526291 1.003479 0.021667
v -0.442551 1.003479 0.021667
v -0.442551 1.044807 -0.069702
v -0.526291 1.044807 -0.069702
v 0.445862 1.003479 0.021667
v 0.445862 1.044807 -0.069702
v 0.529602 1.003479 0.021667
v 0.529602 1.044807 -0.069702
v 0.409225 1.017502 0.397247
v 0.565979 1.017502 0.397247
v 0.409225 1.117658 0.393127
v 0.565979 1.117658 0.393127
v 0.409225 1.062683 -0.425888
v 0.565979 1.062683 -0.425888
v 0.409225 0.962527 -0.421768
v 0.565979 0.962527 -0.421768
v -0.565979 1.017502 0.397247
v -0.409195 1.017502 0.397247
v -0.565979 1.117658 0.393127
v -0.409195 1.117658 0.393127
v -0.565979 1.062683 -0.425888
v -0.409195 1.062683 -0.425888
v -0.565979 0.962527 -0.421768
v -0.409195 0.962527 -0.421768
vt 0.273707 0.239916
vt 0.273707 0.239916
vt 0.273707 0.239916
vt 0.273707 0.239916
vt 0.418387 0.245210
vt 0.418387 0.245210
vt 0.418387 0.245210
vt 0.418387 0.245210
vt 0.273707 0.239916
vt 0.273707 0.239916
vt 0.273707 0.239916
vt 0.273707 0.239916
vt 0.112559 0.238152
vt 0.112559 0.238152
vt 0.112559 0.238152
vt 0.112559 0.238152
vt 0.172549 0.240505
vt 0.172549 0.240505
vt 0.172549 0.240505
vt 0.172549 0.240505
vt 0.172549 0.240505
vt 0.172549 0.240505
vt 0.172549 0.240505
vt 0.172549 0.240505
vt 0.112559 0.238152
vt 0.112559 0.238152
vt 0.112559 0.238152
vt 0.112559 0.238152
vt 0.273707 0.239916
vt 0.273707 0.239916
vt 0.273707 0.239916
vt 0.273707 0.239916
vt 0.418387 0.245210
vt 0.418387 0.245210
vt 0.418387 0.245210
vt 0.418387 0.245210
vt 0.273707 0.239916
vt 0.273707 0.239916
vt 0.273707 0.239916
vt 0.273707 0.239916
vt 0.172549 0.240505
vt 0.172549 0.240505
vt 0.172549 0.240505
vt 0.172549 0.240505
vt 0.172549 0.240505
vt 0.172549 0.240505
vt 0.172549 0.240505
vt 0.172549 0.240505
vt 0.363102 0.087003
vt 0.363102 0.087003
vt 0.363102 0.087003
vt 0.363102 0.087003
vt 0.363102 0.087003
vt 0.363102 0.087003
vt 0.363102 0.087003
vt 0.363102 0.087003
vt 0.177254 0.088767
vt 0.177254 0.088767
vt 0.177254 0.088767
vt 0.177254 0.088767
vt 0.363102 0.087003
vt 0.363102 0.087003
vt 0.363102 0.087003
vt 0.363102 0.087003
vt 0.261944 0.087591
vt 0.261944 0.087591
vt 0.261944 0.087591
vt 0.261944 0.087591
vt 0.261944 0.087591
vt 0.261944 0.087591
vt 0.261944 0.087591
vt 0.261944 0.087591
vt 0.177254 0.088767
vt 0.177254 0.088767
vt 0.177254 0.088767
vt 0.177254 0.088767
vt 0.363102 0.087003
vt 0.363102 0.087003
vt 0.363102 0.087003
vt 0.363102 0.087003
vt 0.363102 0.087003
vt 0.363102 0.087003
vt 0.363102 0.087003
vt 0.363102 0.087003
vt 0.363102 0.087003
vt 0.363102 0.087003
vt 0.363102 0.087003
vt 0.363102 0.087003
vt 0.177254 0.088767
vt 0.177254 0.088767
vt 0.177254 0.088767
vt 0.177254 0.088767
vt 0.363102 0.087003
vt 0.363102 0.087003
vt 0.363102 0.087003
vt 0.363102 0.087003
vt 0.391333 0.088179
vt 0.391333 0.088179
vt 0.391333 0.088179
vt 0.391333 0.088179
vt 0.363102 0.087003
vt 0.363102 0.087003
vt 0.363102 0.087003
vt 0.363102 0.087003
vt 0.363102 0.087003
vt 0.363102 0.087003
vt 0.363102 0.087003
vt 0.363102 0.087003
vt 0.261944 0.087591
vt 0.261944 0.087591
vt 0.261944 0.087591
vt 0.261944 0.087591
vt 0.363102 0.087003
vt 0.363102 0.087003
vt 0.363102 0.087003
vt 0.363102 0.087003
vt 0.261944 0.087591
vt 0.261944 0.087591
vt 0.261944 0.087591
vt 0.261944 0.087591
vt 0.261944 0.087591
vt 0.261944 0.087591
vt 0.261944 0.087591
vt 0.261944 0.087591
vt 0.363102 0.087003
vt 0.363102 0.087003
vt 0.363102 0.087003
vt 0.363102 0.087003
vt 0.261944 0.087591
vt 0.261944 0.087591
vt 0.261944 0.087591
vt 0.261944 0.087591
vt 0.363102 0.087003
vt 0.363102 0.087003
vt 0.363102 0.087003
vt 0.363102 0.087003
vt 0.363102 0.087003
vt 0.363102 0.087003
vt 0.363102 0.087003
vt 0.363102 0.087003
vt 0.363102 0.087003
vt 0.363102 0.087003
vt 0.363102 0.087003
vt 0.363102 0.087003
vt 0.177254 0.088767
vt 0.177254 0.088767
vt 0.177254 0.088767
vt 0.177254 0.088767
vt 0.363102 0.087003
vt 0.363102 0.087003
vt 0.363102 0.087003
vt 0.363102 0.087003
vt 0.261944 0.087591
vt 0.261944 0.087591
vt 0.261944 0.087591
vt 0.261944 0.087591
vt 0.261944 0.087591
vt 0.261944 0.087591
vt 0.261944 0.087591
vt 0.261944 0.087591
vt 0.177254 0.088767
vt 0.177254 0.088767
vt 0.177254 0.088767
vt 0.177254 0.088767
vt 0.363102 0.087003
vt 0.363102 0.087003
vt 0.363102 0.087003
vt 0.363102 0.087003
vt 0.363102 0.087003
vt 0.363102 0.087003
vt 0.363102 0.087003
vt 0.363102 0.087003
vt 0.363102 0.087003
vt 0.363102 0.087003
vt 0.363102 0.087003
vt 0.363102 0.087003
vt 0.177254 0.088767
vt 0.177254 0.088767
vt 0.177254 0.088767
vt 0.177254 0.088767
vt 0.363102 0.087003
vt 0.363102 0.087003
vt 0.363102 0.087003
vt 0.363102 0.087003
vt 0.391333 0.088179
vt 0.391333 0.088179
vt 0.391333 0.088179
vt 0.391333 0.088179
vt 0.363102 0.087003
vt 0.363102 0.087003
vt 0.363102 0.087003
vt 0.363102 0.087003
vt 0.363102 0.087003
vt 0.363102 0.087003
vt 0.363102 0.087003
vt 0.363102 0.087003
vt 0.261944 0.087591
vt 0.261944 0.087591
vt 0.261944 0.087591
vt 0.261944 0.087591
vt 0.363102 0.087003
vt 0.363102 0.087003
vt 0.363102 0.087003
vt 0.363102 0.087003
vt 0.261944 0.087591
vt 0.261944 0.087591
vt 0.261944 0.087591
vt 0.261944 0.087591
vt 0.261944 0.087591
vt 0.261944 0.087591
vt 0.261944 0.087591
vt 0.261944 0.087591
vt 0.363102 0.087003
vt 0.363102 0.087003
vt 0.363102 0.087003
vt 0.363102 0.087003
vt 0.261944 0.087591
vt 0.261944 0.087591
vt 0.261944 0.087591
vt 0.261944 0.087591
vt 0.363102 0.087003
vt 0.363102 0.087003
vt 0.363102 0.087003
vt 0.363102 0.087003
vt 0.273707 0.239916
vt 0.273707 0.239916
vt 0.273707 0.239916
vt 0.273707 0.239916
vt 0.418387 0.245210
vt 0.418387 0.245210
vt 0.418387 0.245210
vt 0.418387 0.245210
vt 0.273707 0.239916
vt 0.273707 0.239916
vt 0.273707 0.239916
vt 0.273707 0.239916
vt 0.112559 0.238152
vt 0.112559 0.238152
vt 0.112559 0.238152
vt 0.112559 0.238152
vt 0.172549 0.240505
vt 0.172549 0.240505
vt 0.172549 0.240505
vt 0.172549 0.240505
vt 0.172549 0.240505
vt 0.172549 0.240505
vt 0.172549 0.240505
vt 0.172549 0.240505
vt 0.273707 0.239916
vt 0.273707 0.239916
vt 0.273707 0.239916
vt 0.273707 0.239916
vt 0.418387 0.245210
vt 0.418387 0.245210
vt 0.418387 0.245210
vt 0.418387 0.245210
vt 0.273707 0.239916
vt 0.273707 0.239916
vt 0.273707 0.239916
vt 0.273707 0.239916
vt 0.112559 0.238152
vt 0.112559 0.238152
vt 0.112559 0.238152
vt 0.112559 0.238152
vt 0.172549 0.240505
vt 0.172549 0.240505
vt 0.172549 0.240505
vt 0.172549 0.240505
vt 0.172549 0.240505
vt 0.172549 0.240505
vt 0.172549 0.240505
vt 0.172549 0.240505
vn 0.000000 0.000000 1.000000
vn 0.000000 0.000000 1.000000
vn 0.000000 0.000000 1.000000
vn 0.000000 0.000000 1.000000
vn 0.000000 1.000000 0.000000
vn 0.000000 1.000000 0.000000
vn 0.000000 1.000000 0.000000
vn 0.000000 1.000000 0.000000
vn 0.000000 0.000000 -1.000000
vn 0.000000 0.000000 -1.000000
vn 0.000000 0.000000 -1.000000
vn 0.000000 0.000000 -1.000000
vn 0.000000 -1.000000 0.000000
vn 0.000000 -1.000000 0.000000
vn 0.000000 -1.000000 0.000000
vn 0.000000 -1.000000 0.000000
vn 1.000000 0.000000 0.000000
vn 1.000000 0.000000 0.000000
vn 1.000000 0.000000 0.000000
vn 1.000000 0.000000 0.000000
vn -1.000000 0.000000 0.000000
vn -1.000000 0.000000 0.000000
vn -1.000000 0.000000 0.000000
vn -1.000000 0.000000 0.000000
vn 0.000000 -0.965925 0.258822
vn 0.000000 -0.965925 0.258822
vn 0.000000 -0.965925 0.258822
vn 0.000000 -0.965925 0.258822
vn 0.000000 0.258798 0.965932
vn 0.000000 0.258798 0.965932
vn 0.000000 0.258798 0.965932
vn 0.000000 0.258798 0.965932
vn 0.000000 0.965925 -0.258823
vn 0.000000 0.965925 -0.258823
vn 0.000000 0.965925 -0.258823
vn 0.000000 0.965925 -0.258823
vn 0.000000 -0.258798 -0.965932
vn 0.000000 -0.258798 -0.965932
vn 0.000000 -0.258798 -0.965932
vn 0.000000 -0.258798 -0.965932
vn 1.000000 -0.000000 0.000000
vn 1.000000 -0.000000 0.000000
vn 1.000000 -0.000000 0.000000
vn 1.000000 -0.000000 0.000000
vn -1.000000 -0.000000 0.000000
vn -1.000000 -0.000000 0.000000
vn -1.000000 -0.000000 0.000000
vn -1.000000 -0.000000 0.000000
vn 0.000000 0.949596 -0.313477
vn 0.000000 0.949596 -0.313477
vn 0.000000 0.949596 -0.313477
vn 0.000000 0.949596 -0.313477
vn 0.000090 -0.313487 -0.949593
vn 0.000047 -0.313405 -0.949619
vn 0.000010 -0.313331 -0.949644
vn 0.000100 -0.313417 -0.949615
vn 0.000000 -0.949596 0.313477
vn 0.000000 -0.949596 0.313477
vn 0.000000 -0.949596 0.313477
vn 0.000000 -0.949596 0.313477
vn -0.000096 0.313420 0.949615
vn -0.000009 0.313336 0.949642
vn -0.000046 0.313408 0.949619
vn -0.000087 0.313487 0.949593
vn 1.000000 0.000000 0.000000
vn 1.000000 0.000000 0.000000
vn 1.000000 0.000000 0.000000
vn 1.000000 0.000000 0.000000
vn -1.000000 -0.000000 0.000000
vn -1.000000 -0.000000 0.000000
vn -1.000000 -0.000000 0.000000
vn -1.000000 -0.000000 0.000000
vn 0.000000 -0.949596 0.313477
vn 0.000000 -0.949596 0.313477
vn 0.000000 -0.949596 0.313477
vn 0.000000 -0.949596 0.313477
vn 0.000046 0.313408 0.949619
vn 0.000009 0.313336 0.949642
vn 0.000096 0.313420 0.949615
vn 0.000087 0.313487 0.949593
vn 0.000000 0.949596 -0.313477
vn 0.000000 0.949596 -0.313477
vn 0.000000 0.949596 -0.313477
vn 0.000000 0.949596 -0.313477
vn -0.000010 -0.313331 -0.949644
vn -0.000047 -0.313406 -0.949619
vn -0.000090 -0.313487 -0.949593
vn -0.000100 -0.313417 -0.949616
vn 0.000000 -0.949596 0.313477
vn 0.000000 -0.949596 0.313477
vn 0.000000 -0.949596 0.313477
vn 0.000000 -0.949596 0.313477
vn -0.000046 0.313408 0.949619
vn -0.000009 0.313336 0.949642
vn 0.000009 0.313336 0.949642
vn 0.000046 0.313408 0.949619
vn 0.000000 0.949600 -0.313464
vn 0.000000 0.949600 -0.313464
vn 0.000000 0.949600 -0.313464
vn 0.000000 0.949600 -0.313464
vn 0.000010 -0.313331 -0.949644
vn 0.000047 -0.313405 -0.949619
vn -0.000047 -0.313406 -0.949619
vn -0.000010 -0.313331 -0.949644
vn -0.000087 0.313487 0.949593
vn -0.000046 0.313408 0.949619
vn -0.000087 0.313491 0.949591
vn -0.000087 0.313491 0.949591
vn 1.000000 0.000000 0.000000
vn 1.000000 0.000000 0.000000
vn 1.000000 0.000000 0.000000
vn 1.000000 0.000000 0.000000
vn 0.000047 -0.313405 -0.949619
vn 0.000090 -0.313487 -0.949593
vn 0.000090 -0.313491 -0.949591
vn 0.000090 -0.313491 -0.949591
vn -1.000000 -0.000000 0.000000
vn -1.000000 -0.000000 0.000000
vn -1.000000 0.000000 0.000000
vn -1.000000 0.000000 0.000000
vn -1.000000 0.000000 0.000000
vn -1.000000 0.000000 0.000000
vn -1.000000 0.000000 0.000000
vn -1.000000 0.000000 0.000000
vn 0.000046 0.313408 0.949619
vn 0.000087 0.313487 0.949593
vn 0.000087 0.313491 0.949591
vn 0.000087 0.313491 0.949591
vn 1.000000 0.000000 0.000000
vn 1.000000 0.000000 0.000000
vn 1.000000 0.000000 0.000000
vn 1.000000 0.000000 0.000000
vn -0.000090 -0.313487 -0.949593
vn -0.000047 -0.313406 -0.949619
vn -0.000090 -0.313492 -0.949591
vn -0.000090 -0.313492 -0.949591
vn 0.000000 0.911128 0.412123
vn 0.000000 0.911128 0.412123
vn 0.000000 0.911128 0.412123
vn 0.000000 0.911128 0.412123
vn -0.000052 0.412057 -0.911158
vn -0.000027 0.412038 -0.911167
vn -0.000005 0.412021 -0.911174
vn -0.000050 0.412064 -0.911155
vn 0.000000 -0.911160 -0.412054
vn 0.000000 -0.911160 -0.412054
vn 0.000000 -0.911160 -0.412054
vn 0.000000 -0.911160 -0.412054
vn 0.000047 -0.412067 0.911154
vn 0.000005 -0.412028 0.911171
vn 0.000026 -0.412035 0.911168
vn 0.000050 -0.412046 0.911163
vn 1.000000 -0.000000 0.000000
vn 1.000000 -0.000000 0.000000
vn 1.000000 -0.000000 0.000000
vn 1.000000 -0.000000 0.000000
vn -1.000000 0.000000 0.000000
vn -1.000000 0.000000 0.000000
vn -1.000000 0.000000 0.000000
vn -1.000000 0.000000 0.000000
vn 0.000000 -0.911160 -0.412054
vn 0.000000 -0.911160 -0.412054
vn 0.000000 -0.911160 -0.412054
vn 0.000000 -0.911160 -0.412054
vn -0.000026 -0.412036 0.911168
vn -0.000005 -0.412028 0.911171
vn -0.000047 -0.412067 0.911154
vn -0.000050 -0.412046 0.911163
vn 0.000000 0.911128 0.412123
vn 0.000000 0.911128 0.412123
vn 0.000000 0.911128 0.412123
vn 0.000000 0.911128 0.412123
vn 0.000005 0.412021 -0.911174
vn 0.000027 0.412038 -0.911167
vn 0.000052 0.412057 -0.911158
vn 0.000050 0.412064 -0.911155
vn 0.000000 -0.911160 -0.412054
vn 0.000000 -0.911160 -0.412054
vn 0.000000 -0.911160 -0.412054
vn 0.000000 -0.911160 -0.412054
vn 0.000026 -0.412035 0.911168
vn 0.000005 -0.412028 0.911171
vn -0.000005 -0.412028 0.911171
vn -0.000026 -0.412036 0.911168
vn 0.000000 0.911154 0.412066
vn 0.000000 0.911154 0.412066
vn 0.000000 0.911154 0.412066
vn 0.000000 0.911154 0.412066
vn -0.000005 0.412021 -0.911174
vn -0.000027 0.412038 -0.911167
vn 0.000027 0.412038 -0.911167
vn 0.000005 0.412021 -0.911174
vn 0.000050 -0.412046 0.911163
vn 0.000026 -0.412035 0.911168
vn 0.000050 -0.412044 0.911164
vn 0.000050 -0.412044 0.911164
vn 1.000000 0.000000 0.000000
vn 1.000000 0.000000 0.000000
vn 1.000000 0.000000 0.000000
vn 1.000000 0.000000 0.000000
vn -0.000027 0.412038 -0.911167
vn -0.000052 0.412057 -0.911158
vn -0.000052 0.412056 -0.911158
vn -0.000052 0.412056 -0.911158
vn -1.000000 0.000000 0.000000
vn -1.000000 0.000000 0.000000
vn -1.000000 0.000000 0.000000
vn -1.000000 0.000000 0.000000
vn -1.000000 0.000000 0.000000
vn -1.000000 0.000000 0.000000
vn -1.000000 0.000000 0.000000
vn -1.000000 0.000000 0.000000
vn -0.000026 -0.412036 0.911168
vn -0.000050 -0.412046 0.911163
vn -0.000050 -0.412044 0.911164
vn -0.000050 -0.412044 0.911164
vn 1.000000 -0.000000 0.000000
vn 1.000000 -0.000000 0.000000
vn 1.000000 0.000000 0.000000
vn 1.000000 0.000000 0.000000
vn 0.000052 0.412057 -0.911158
vn 0.000027 0.412038 -0.911167
vn 0.000052 0.412056 -0.911158
vn 0.000052 0.412056 -0.911158
vn 0.000000 0.041100 0.999155
vn 0.000000 0.041100 0.999155
vn 0.000000 0.041100 0.999155
vn 0.000000 0.041100 0.999155
vn 0.000000 0.997755 -0.066972
vn 0.000000 0.997755 -0.066972
vn 0.000000 0.997755 -0.066972
vn 0.000000 0.997755 -0.066972
vn 0.000000 -0.041100 -0.999155
vn 0.000000 -0.041100 -0.999155
vn 0.000000 -0.041100 -0.999155
vn 0.000000 -0.041100 -0.999155
vn 0.000000 -0.997755 0.066972
vn 0.000000 -0.997755 0.066972
vn 0.000000 -0.997755 0.066972
vn 0.000000 -0.997755 0.066972
vn 1.000000 0.000000 0.000000
vn 1.000000 0.000000 0.000000
vn 1.000000 0.000000 0.000000
vn 1.000000 0.000000 0.000000
vn -1.000000 -0.000000 0.000000
vn -1.000000 -0.000000 0.000000
vn -1.000000 -0.000000 0.000000
vn -1.000000 -0.000000 0.000000
vn 0.000000 0.041100 0.999155
vn 0.000000 0.041100 0.999155
vn 0.000000 0.041100 0.999155
vn 0.000000 0.041100 0.999155
vn 0.000000 0.997755 -0.066972
vn 0.000000 0.997755 -0.066972
vn 0.000000 0.997755 -0.066972
vn 0.000000 0.997755 -0.066972
vn 0.000000 -0.041100 -0.999155
vn 0.000000 -0.041100 -0.999155
vn 0.000000 -0.041100 -0.999155
vn 0.000000 -0.041100 -0.999155
vn 0.000000 -0.997755 0.066972
vn 0.000000 -0.997755 0.066972
vn 0.000000 -0.997755 0.066972
vn 0.000000 -0.997755 0.066972
vn 1.000000 0.000000 0.000000
vn 1.000000 0.000000 0.000000
vn 1.000000 0.000000 0.000000
vn 1.000000 0.000000 0.000000
vn -1.000000 -0.000000 0.000000
vn -1.000000 -0.000000 0.000000
vn -1.000000 -0.000000 0.000000
vn -1.000000 -0.000000 0.000000
s off
f 1/1/1 2/2/2 4/3/3 3/4/4
f 3/5/5 4/6/6 6/7/7 5/8/8
f 5/9/9 6/10/10 8/11/11 7/12/12
f 7/13/13 8/14/14 2/15/15 1/16/16
f 2/17/17 8/18/18 6/19/19 4/20/20
f 7/21/21 1/22/22 3/23/23 5/24/24
f 9/25/25 10/26/26 12/27/27 11/28/28
f 11/29/29 12/30/30 14/31/31 13/32/32
f 13/33/33 14/34/34 16/35/35 15/36/36
f 15/37/37 16/38/38 10/39/39 9/40/40
f 10/41/41 16/42/42 14/43/43 12/44/44
f 15/45/45 9/46/46 11/47/47 13/48/48
f 33/49/49 34/50/50 35/51/51 36/52/52
f 19/53/53 32/54/54 29/55/55 21/56/56
f 21/57/57 29/58/58 30/59/59 23/60/60
f 23/61/61 30/62/62 31/63/63 17/64/64
f 18/65/65 24/66/66 22/67/67 20/68/68
f 23/69/69 17/70/70 19/71/71 21/72/72
f 25/73/73 22/74/74 24/75/75 26/76/76
f 27/77/77 26/78/78 24/79/79 18/80/80
f 38/81/81 37/82/82 39/83/83 40/84/84
f 25/85/85 28/86/86 20/87/87 22/88/88
f 29/89/89 25/90/90 26/91/91 30/92/92
f 31/93/93 30/94/94 26/95/95 27/96/96
f 32/97/97 31/98/98 27/99/99 28/100/100
f 29/101/101 32/102/102 28/103/103 25/104/104
f 17/105/105 31/106/106 34/107/107 33/108/108
f 31/109/109 32/110/110 35/111/111 34/112/112
f 32/113/113 19/114/114 36/115/115 35/116/116
f 19/117/117 17/118/118 33/119/119 36/120/120
f 28/121/121 27/122/122 37/123/123 38/124/124
f 27/125/125 18/126/126 39/127/127 37/128/128
f 18/129/129 20/130/130 40/131/131 39/132/132
f 20/133/133 28/134/134 38/135/135 40/136/136
f 57/137/137 58/138/138 59/139/139 60/140/140
f 43/141/141 56/142/142 53/143/143 45/144/144
f 45/145/145 53/146/146 54/147/147 47/148/148
f 47/149/149 54/150/150 55/151/151 41/152/152
f 42/153/153 48/154/154 46/155/155 44/156/156
f 47/157/157 41/158/158 43/159/159 45/160/160
f 49/161/161 46/162/162 48/163/163 50/164/164
f 51/165/165 50/166/166 48/167/167 42/168/168
f 62/169/169 61/170/170 63/171/171 64/172/172
f 49/173/173 52/174/174 44/175/175 46/176/176
f 53/177/177 49/178/178 50/179/179 54/180/180
f 55/181/181 54/182/182 50/183/183 51/184/184
f 56/185/185 55/186/186 51/187/187 52/188/188
f 53/189/189 56/190/190 52/191/191 49/192/192
f 41/193/193 55/194/194 58/195/195 57/196/196
f 55/197/197 56/198/198 59/199/199 58/200/200
f 56/201/201 43/202/202 60/203/203 59/204/204
f 43/205/205 41/206/206 57/207/207 60/208/208
f 52/209/209 51/210/210 61/211/211 62/212/212
f 51/213/213 42/214/214 63/215/215 61/216/216
f 42/217/217 44/218/218 64/219/219 63/220/220
f 44/221/221 52/222/222 62/223/223 64/224/224
f 65/225/225 66/226/226 68/227/227 67/228/228
f 67/229/229 68/230/230 70/231/231 69/232/232
f 69/233/233 70/234/234 72/235/235 71/236/236
f 71/237/237 72/238/238 66/239/239 65/240/240
f 66/241/241 72/242/242 70/243/243 68/244/244
f 71/245/245 65/246/246 67/247/247 69/248/248
f 73/249/249 74/250/250 76/251/251 75/252/252
f 75/253/253 76/254/254 78/255/255 77/256/256
f 77/257/257 78/258/258 80/259/259 79/260/260
f 79/261/261 80/262/262 74/263/263 73/264/264
f 74/265/265 80/266/266 78/267/267 76/268/268
f 79/269/269 73/270/270 75/271/271 77/272/272
