# This file uses meters as units for non-parametric coordinates.

v -0.363717 0.000000 -0.363716
v -0.363717 0.000000 0.363716
v -0.363717 0.139487 -0.363716
v -0.363717 0.139487 0.363716
v 0.363717 0.139487 -0.363716
v 0.363717 0.139487 0.363716
v 0.363717 0.000000 -0.363716
v 0.363717 0.000000 0.363716
v -0.211329 0.139487 -0.211330
v -0.211329 0.139487 0.211327
v 0.211329 0.139487 0.211326
v 0.211329 0.139487 -0.211331
v -0.093156 1.401485 -0.093157
v -0.093156 1.401485 0.093153
v 0.093155 1.401485 0.093153
v 0.093155 1.401485 -0.093157
v 0.168943 0.592130 0.168944
v -0.168943 0.592130 0.168943
v -0.168943 0.592130 -0.168944
v 0.168943 0.592130 -0.168943
v 0.143224 0.866791 0.143222
v -0.143224 0.866791 0.143223
v -0.143225 0.866791 -0.143226
v 0.143224 0.866791 -0.143223
vt 0.234044 0.374217
vt 0.234044 0.374217
vt 0.234044 0.374217
vt 0.234044 0.374217
vt 0.234044 0.374217
vt 0.234044 0.374217
vt 0.234044 0.374217
vt 0.234044 0.374217
vt 0.234044 0.374217
vt 0.234044 0.374217
vt 0.234044 0.374217
vt 0.234044 0.374217
vt 0.263688 0.374217
vt 0.263688 0.374217
vt 0.263688 0.374217
vt 0.263688 0.374217
vt 0.263688 0.374217
vt 0.263688 0.374217
vt 0.263688 0.374217
vt 0.263688 0.374217
vt 0.291418 0.374217
vt 0.291418 0.374217
vt 0.234044 0.374217
vt 0.234044 0.374217
vt 0.234044 0.374217
vt 0.234044 0.374217
vt 0.263688 0.374217
vt 0.263688 0.374217
vt 0.263688 0.374217
vt 0.263688 0.374217
vt 0.234044 0.374217
vt 0.234044 0.374217
vt 0.234044 0.374217
vt 0.234044 0.374217
vt 0.263688 0.374217
vt 0.263688 0.374217
vt 0.263688 0.374217
vt 0.263688 0.374217
vt 0.291418 0.374217
vt 0.291418 0.374217
vt 0.291418 0.374217
vt 0.291418 0.374217
vt 0.263688 0.374217
vt 0.234044 0.374217
vt 0.389910 0.061528
vt 0.419554 0.061528
vt 0.419554 0.061528
vt 0.389910 0.061528
vt 0.389910 0.061528
vt 0.419554 0.061528
vt 0.419554 0.061528
vt 0.389910 0.061528
vt 0.234044 0.374217
vt 0.263688 0.374217
vt 0.263688 0.374217
vt 0.234044 0.374217
vt 0.234044 0.374217
vt 0.263688 0.374217
vt 0.263688 0.374217
vt 0.419554 0.061528
vt 0.419554 0.061528
vt 0.263688 0.374217
vt 0.389910 0.061528
vt 0.234044 0.374217
vt 0.389910 0.061528
vt 0.389910 0.061528
vt 0.234044 0.374217
vt 0.389910 0.061528
vt 0.234044 0.374217
vt 0.234044 0.374217
vt 0.291418 0.374217
vt 0.291418 0.374217
vt 0.291418 0.374217
vt 0.291418 0.374217
vt 0.291418 0.374217
vt 0.291418 0.374217
vt 0.419554 0.061528
vt 0.419554 0.061528
vt 0.263688 0.374217
vt 0.263688 0.374217
vt 0.291418 0.374217
vt 0.291418 0.374217
vt 0.291418 0.374217
vt 0.291418 0.374217
vt 0.291418 0.374217
vt 0.291418 0.374217
vt 0.291418 0.374217
vt 0.291418 0.374217
vn -1.000000 0.000000 0.000000
vn -1.000000 0.000000 0.000000
vn -1.000000 0.000000 0.000000
vn -1.000000 0.000000 0.000000
vn 1.000000 0.000000 0.000000
vn 1.000000 0.000000 0.000000
vn 1.000000 0.000000 0.000000
vn 1.000000 0.000000 0.000000
vn 0.000000 -1.000000 0.000000
vn 0.000000 -1.000000 0.000000
vn 0.000000 -1.000000 0.000000
vn 0.000000 -1.000000 0.000000
vn 0.000001 0.000000 1.000000
vn 0.000001 0.000000 1.000000
vn 0.000001 0.000000 1.000000
vn 0.000001 0.000000 1.000000
vn -0.000001 0.000000 -1.000000
vn -0.000001 0.000000 -1.000000
vn -0.000001 0.000000 -1.000000
vn -0.000001 0.000000 -1.000000
vn 0.000000 1.000000 0.000000
vn 0.000000 1.000000 -0.000000
vn 0.000000 1.000000 -0.000000
vn 0.000000 1.000000 0.000000
vn 0.000000 1.000000 -0.000000
vn 0.000000 1.000000 -0.000000
vn 0.000000 1.000000 -0.000000
vn 0.000000 1.000000 -0.000000
vn 0.000000 1.000000 -0.000000
vn 0.000000 1.000000 0.000000
vn 0.000000 1.000000 0.000000
vn 0.000000 1.000000 -0.000000
vn 0.000000 1.000000 0.000000
vn 0.000000 1.000000 0.000000
vn 0.000000 1.000000 0.000000
vn 0.000000 1.000000 0.000000
vn -0.995644 0.093232 -0.000000
vn -0.995644 0.093232 -0.000000
vn -0.995645 0.093232 0.000000
vn -0.995645 0.093232 0.000000
vn -0.000001 0.093227 0.995645
vn -0.000001 0.093227 0.995645
vn -0.000001 0.093230 0.995645
vn -0.000001 0.093230 0.995645
vn 0.995644 0.093232 0.000000
vn 0.995644 0.093232 0.000000
vn 0.995644 0.093232 -0.000000
vn 0.995644 0.093232 -0.000000
vn 0.000001 0.093235 -0.995644
vn 0.000001 0.093235 -0.995644
vn 0.000003 0.093234 -0.995644
vn 0.000003 0.093234 -0.995644
vn 0.000000 1.000000 0.000000
vn 0.000000 1.000000 0.000000
vn 0.000000 1.000000 0.000000
vn 0.000000 1.000000 0.000000
vn -0.000001 0.093230 0.995645
vn -0.000001 0.093230 0.995645
vn 0.000001 0.093235 0.995644
vn 0.000001 0.093235 0.995644
vn -0.995645 0.093232 0.000000
vn -0.995645 0.093232 0.000000
vn -0.995644 0.093231 0.000000
vn -0.995645 0.093231 0.000000
vn 0.000003 0.093234 -0.995644
vn 0.000003 0.093234 -0.995644
vn 0.000006 0.093230 -0.995645
vn 0.000006 0.093230 -0.995645
vn 0.995644 0.093232 -0.000000
vn 0.995644 0.093232 -0.000000
vn 0.995644 0.093232 -0.000000
vn 0.995644 0.093232 -0.000000
vn 0.000001 0.093235 0.995644
vn 0.000001 0.093235 0.995644
vn 0.000002 0.093234 0.995644
vn 0.000002 0.093234 0.995644
vn -0.995645 0.093231 0.000000
vn -0.995644 0.093231 0.000000
vn -0.995644 0.093232 0.000000
vn -0.995644 0.093232 0.000000
vn 0.000006 0.093230 -0.995645
vn 0.000006 0.093230 -0.995645
vn 0.000006 0.093230 -0.995645
vn 0.000006 0.093230 -0.995645
vn 0.995644 0.093232 -0.000000
vn 0.995644 0.093232 -0.000000
vn 0.995645 0.093232 -0.000000
vn 0.995645 0.093232 -0.000000
s off
f 1/1/1 2/2/2 4/3/3 3/4/4
f 5/5/5 6/6/6 8/7/7 7/8/8
f 7/9/9 8/10/10 2/11/11 1/12/12
f 2/13/13 8/14/14 6/15/15 4/16/16
f 7/17/17 1/18/18 3/19/19 5/20/20
f 3/21/21 4/88/22 10/85/23 9/22/24
f 4/76/25 6/86/26 11/83/27 10/74/28
f 6/75/29 5/84/30 12/82/31 11/72/32
f 5/73/33 3/87/34 9/81/35 12/71/36
f 9/23/37 10/24/38 18/69/39 19/70/40
f 10/27/41 11/28/42 17/43/43 18/62/44
f 11/31/45 12/32/46 20/67/47 17/44/48
f 12/35/49 9/36/50 19/79/51 20/80/52
f 14/39/53 15/40/54 16/41/55 13/42/56
f 18/46/57 17/61/58 21/51/59 22/60/60
f 19/48/61 18/45/62 22/65/63 23/66/64
f 20/50/65 19/47/66 23/77/67 24/78/68
f 17/68/69 20/49/70 24/63/71 21/52/72
f 22/54/73 21/59/74 15/29/75 14/30/76
f 23/56/77 22/53/78 14/25/79 13/26/80
f 24/58/81 23/55/82 13/37/83 16/38/84
f 21/64/85 24/57/86 16/33/87 15/34/88
