# This file uses meters as units for non-parametric coordinates.

v 0.938538 -0.865379 0.029114
v 0.938538 -0.865379 -0.077438
v 0.924812 0.797864 0.029114
v 0.924812 0.797864 -0.077438
v -0.938538 0.865379 0.029114
v -0.938538 0.865379 -0.077438
v -0.924812 -0.797864 0.029114
v -0.924812 -0.797864 -0.077438
v -0.470505 -0.814324 -0.077438
v -0.476852 -0.814095 0.029114
v -0.307785 -0.820220 -0.077438
v -0.320786 -0.819749 0.029114
v -0.481728 -0.322167 0.029114
v -0.407379 -0.319468 0.029114
v -0.409515 0.100680 0.029114
v -0.341675 0.097631 0.029114
v -0.745148 -0.711381 0.077438
v -0.745148 -0.711381 0.034882
v -0.746964 -0.629720 0.077438
v -0.746964 -0.629720 0.034882
v -0.828621 -0.631536 0.077438
v -0.828621 -0.631536 0.034882
v -0.826805 -0.713196 0.077438
v -0.826805 -0.713196 0.034882
v -0.771378 0.705951 0.077438
v -0.771378 0.705951 0.034882
v -0.773193 0.787611 0.077438
v -0.773193 0.787611 0.034882
v -0.854851 0.785795 0.077438
v -0.854851 0.785795 0.034882
v -0.853035 0.704135 0.077438
v -0.853035 0.704135 0.034882
v 0.873474 -0.795510 0.077438
v 0.873474 -0.795510 0.034882
v 0.871666 -0.713850 0.077438
v 0.871666 -0.713850 0.034882
v 0.790016 -0.715665 0.077438
v 0.790016 -0.715665 0.034882
v 0.791824 -0.797324 0.077438
v 0.791824 -0.797324 0.034882
v 0.853592 0.661715 0.077438
v 0.853592 0.661715 0.034882
v 0.851776 0.743376 0.077438
v 0.851776 0.743376 0.034882
v 0.770126 0.741561 0.077438
v 0.770126 0.741561 0.034882
v 0.771942 0.659900 0.077438
v 0.771942 0.659900 0.034882
vt 0.299899 0.479244
vt 0.299899 0.479244
vt 0.299899 0.479244
vt 0.299899 0.479244
vt 0.364110 0.479244
vt 0.364110 0.479244
vt 0.364110 0.479244
vt 0.364110 0.479244
vt 0.299899 0.479244
vt 0.299899 0.479244
vt 0.299899 0.479244
vt 0.299899 0.479244
vt 0.356117 0.479244
vt 0.356117 0.479244
vt 0.356117 0.479244
vt 0.356117 0.479244
vt 0.299899 0.479244
vt 0.299899 0.479244
vt 0.299899 0.479244
vt 0.299899 0.479244
vt 0.299899 0.479244
vt 0.299899 0.479244
vt 0.331495 0.479244
vt 0.331495 0.479244
vt 0.331495 0.479244
vt 0.331495 0.479244
vt 0.331495 0.479244
vt 0.331495 0.479244
vt 0.331495 0.479244
vt 0.331495 0.479244
vt 0.331495 0.479244
vt 0.331495 0.479244
vt 0.253967 0.112537
vt 0.253967 0.112537
vt 0.253967 0.112537
vt 0.253967 0.112537
vt 0.356117 0.479244
vt 0.356117 0.479244
vt 0.356117 0.479244
vt 0.356117 0.479244
vt 0.229345 0.112537
vt 0.229345 0.112537
vt 0.229345 0.112537
vt 0.229345 0.112537
vt 0.229345 0.112537
vt 0.229345 0.112537
vt 0.261168 0.479244
vt 0.261168 0.479244
vt 0.261168 0.479244
vt 0.261168 0.479244
vt 0.293783 0.479244
vt 0.293783 0.479244
vt 0.293783 0.479244
vt 0.293783 0.479244
vt 0.261168 0.479244
vt 0.261168 0.479244
vt 0.261168 0.479244
vt 0.261168 0.479244
vt 0.223456 0.479244
vt 0.223456 0.479244
vt 0.223456 0.479244
vt 0.223456 0.479244
vt 0.300918 0.479244
vt 0.300918 0.479244
vt 0.300918 0.479244
vt 0.300918 0.479244
vt 0.387552 0.479244
vt 0.387552 0.479244
vt 0.387552 0.479244
vt 0.387552 0.479244
vt 0.261168 0.479244
vt 0.261168 0.479244
vt 0.261168 0.479244
vt 0.261168 0.479244
vt 0.293783 0.479244
vt 0.293783 0.479244
vt 0.293783 0.479244
vt 0.293783 0.479244
vt 0.261168 0.479244
vt 0.261168 0.479244
vt 0.261168 0.479244
vt 0.261168 0.479244
vt 0.223456 0.479244
vt 0.223456 0.479244
vt 0.223456 0.479244
vt 0.223456 0.479244
vt 0.300918 0.479244
vt 0.300918 0.479244
vt 0.300918 0.479244
vt 0.300918 0.479244
vt 0.387552 0.479244
vt 0.387552 0.479244
vt 0.387552 0.479244
vt 0.387552 0.479244
vt 0.261168 0.479244
vt 0.261168 0.479244
vt 0.261168 0.479244
vt 0.261168 0.479244
vt 0.293783 0.479244
vt 0.293783 0.479244
vt 0.293783 0.479244
vt 0.293783 0.479244
vt 0.261168 0.479244
vt 0.261168 0.479244
vt 0.261168 0.479244
vt 0.261168 0.479244
vt 0.223456 0.479244
vt 0.223456 0.479244
vt 0.223456 0.479244
vt 0.223456 0.479244
vt 0.300918 0.479244
vt 0.300918 0.479244
vt 0.300918 0.479244
vt 0.300918 0.479244
vt 0.387552 0.479244
vt 0.387552 0.479244
vt 0.387552 0.479244
vt 0.387552 0.479244
vt 0.261168 0.479244
vt 0.261168 0.479244
vt 0.261168 0.479244
vt 0.261168 0.479244
vt 0.293783 0.479244
vt 0.293783 0.479244
vt 0.293783 0.479244
vt 0.293783 0.479244
vt 0.261168 0.479244
vt 0.261168 0.479244
vt 0.261168 0.479244
vt 0.261168 0.479244
vt 0.223456 0.479244
vt 0.223456 0.479244
vt 0.223456 0.479244
vt 0.223456 0.479244
vt 0.300918 0.479244
vt 0.300918 0.479244
vt 0.300918 0.479244
vt 0.300918 0.479244
vt 0.387552 0.479244
vt 0.387552 0.479244
vt 0.387552 0.479244
vt 0.387552 0.479244
vn 0.999966 0.008252 0.000000
vn 0.999966 0.008252 0.000000
vn 0.999966 0.008252 0.000000
vn 0.999966 0.008252 0.000000
vn 0.036210 0.999344 0.000000
vn 0.036210 0.999344 0.000000
vn 0.036210 0.999344 0.000000
vn 0.036210 0.999344 0.000000
vn -0.999966 -0.008252 0.000000
vn -0.999966 -0.008252 0.000000
vn -0.999966 -0.008252 0.000000
vn -0.999966 -0.008252 0.000000
vn -0.036209 -0.999344 -0.000002
vn -0.036209 -0.999344 -0.000002
vn -0.036209 -0.999344 -0.000003
vn -0.036209 -0.999344 -0.000003
vn 0.000000 0.000000 -1.000000
vn 0.000000 0.000000 -1.000000
vn 0.000000 0.000000 -1.000000
vn 0.000000 0.000000 -1.000000
vn 0.000000 0.000000 -1.000000
vn 0.000000 0.000000 -1.000000
vn 0.000000 0.000000 1.000000
vn -0.000000 0.000000 1.000000
vn -0.000000 0.000000 1.000000
vn -0.000000 0.000000 1.000000
vn -0.000000 0.000000 1.000000
vn -0.000000 0.000000 1.000000
vn -0.000000 0.000000 1.000000
vn 0.000000 0.000000 1.000000
vn 0.000000 0.000000 1.000000
vn 0.000000 0.000000 1.000000
vn -0.036209 -0.999344 -0.000003
vn -0.036209 -0.999344 -0.000003
vn -0.036210 -0.999344 -0.000000
vn -0.036210 -0.999344 -0.000000
vn -0.036210 -0.999344 -0.000000
vn -0.036210 -0.999344 -0.000000
vn -0.036210 -0.999344 0.000000
vn -0.036210 -0.999344 0.000000
vn -0.000000 0.000000 1.000000
vn -0.000000 0.000000 1.000000
vn -0.000000 0.000000 1.000000
vn -0.000000 0.000000 1.000000
vn -0.000000 0.000000 1.000000
vn -0.000000 0.000000 1.000000
vn 0.999753 0.022230 0.000000
vn 0.999753 0.022230 0.000000
vn 0.999753 0.022230 0.000000
vn 0.999753 0.022230 0.000000
vn -0.022225 0.999753 0.000000
vn -0.022225 0.999753 0.000000
vn -0.022225 0.999753 0.000000
vn -0.022225 0.999753 0.000000
vn -0.999753 -0.022230 0.000000
vn -0.999753 -0.022230 0.000000
vn -0.999753 -0.022230 0.000000
vn -0.999753 -0.022230 0.000000
vn 0.022220 -0.999753 0.000000
vn 0.022220 -0.999753 0.000000
vn 0.022220 -0.999753 0.000000
vn 0.022220 -0.999753 0.000000
vn 0.000000 0.000000 -1.000000
vn 0.000000 0.000000 -1.000000
vn 0.000000 0.000000 -1.000000
vn 0.000000 0.000000 -1.000000
vn 0.000000 0.000000 1.000000
vn 0.000000 0.000000 1.000000
vn 0.000000 0.000000 1.000000
vn 0.000000 0.000000 1.000000
vn 0.999753 0.022231 0.000000
vn 0.999753 0.022231 0.000000
vn 0.999753 0.022231 0.000000
vn 0.999753 0.022231 0.000000
vn -0.022231 0.999753 0.000000
vn -0.022231 0.999753 0.000000
vn -0.022231 0.999753 0.000000
vn -0.022231 0.999753 0.000000
vn -0.999753 -0.022230 0.000000
vn -0.999753 -0.022230 0.000000
vn -0.999753 -0.022230 0.000000
vn -0.999753 -0.022230 0.000000
vn 0.022243 -0.999753 0.000000
vn 0.022243 -0.999753 0.000000
vn 0.022243 -0.999753 0.000000
vn 0.022243 -0.999753 0.000000
vn 0.000000 0.000000 -1.000000
vn 0.000000 0.000000 -1.000000
vn 0.000000 0.000000 -1.000000
vn 0.000000 0.000000 -1.000000
vn 0.000000 0.000000 1.000000
vn 0.000000 0.000000 1.000000
vn 0.000000 0.000000 1.000000
vn 0.000000 0.000000 1.000000
vn 0.999755 0.022137 0.000000
vn 0.999755 0.022137 0.000000
vn 0.999755 0.022137 0.000000
vn 0.999755 0.022137 0.000000
vn -0.022222 0.999753 0.000000
vn -0.022222 0.999753 0.000000
vn -0.022222 0.999753 0.000000
vn -0.022222 0.999753 0.000000
vn -0.999755 -0.022137 0.000000
vn -0.999755 -0.022137 0.000000
vn -0.999755 -0.022137 0.000000
vn -0.999755 -0.022137 0.000000
vn 0.022216 -0.999753 0.000000
vn 0.022216 -0.999753 0.000000
vn 0.022216 -0.999753 0.000000
vn 0.022216 -0.999753 0.000000
vn 0.000000 0.000000 -1.000000
vn 0.000000 0.000000 -1.000000
vn 0.000000 0.000000 -1.000000
vn 0.000000 0.000000 -1.000000
vn -0.000000 0.000000 1.000000
vn -0.000000 0.000000 1.000000
vn -0.000000 0.000000 1.000000
vn -0.000000 0.000000 1.000000
vn 0.999753 0.022231 0.000000
vn 0.999753 0.022231 0.000000
vn 0.999753 0.022231 0.000000
vn 0.999753 0.022231 0.000000
vn -0.022222 0.999753 0.000000
vn -0.022222 0.999753 0.000000
vn -0.022222 0.999753 0.000000
vn -0.022222 0.999753 0.000000
vn -0.999753 -0.022230 0.000000
vn -0.999753 -0.022230 0.000000
vn -0.999753 -0.022230 0.000000
vn -0.999753 -0.022230 0.000000
vn 0.022222 -0.999753 0.000000
vn 0.022222 -0.999753 0.000000
vn 0.022222 -0.999753 0.000000
vn 0.022222 -0.999753 0.000000
vn 0.000000 0.000000 -1.000000
vn 0.000000 0.000000 -1.000000
vn 0.000000 0.000000 -1.000000
vn 0.000000 0.000000 -1.000000
vn 0.000000 0.000000 1.000000
vn 0.000000 0.000000 1.000000
vn 0.000000 0.000000 1.000000
vn 0.000000 0.000000 1.000000
s off
f 1/1/1 2/2/2 4/3/3 3/4/4
f 3/5/5 4/6/6 6/7/7 5/8/8
f 5/9/9 6/10/10 8/11/11 7/12/12
f 7/13/13 8/14/14 9/15/15 10/16/16
f 2/17/17 11/18/18 9/19/19 8/20/20 6/21/21 4/22/22
f 7/23/23 10/24/24 13/25/25 14/26/26 15/27/27 16/28/28 12/29/29 1/30/30 3/31/31 5/32/32
f 10/33/33 9/34/34 11/35/35 12/36/36
f 12/37/37 11/38/38 2/39/39 1/40/40
f 12/41/41 16/42/42 15/43/43 14/44/44 13/45/45 10/46/46
f 17/47/47 18/48/48 20/49/49 19/50/50
f 19/51/51 20/52/52 22/53/53 21/54/54
f 21/55/55 22/56/56 24/57/57 23/58/58
f 23/59/59 24/60/60 18/61/61 17/62/62
f 18/63/63 24/64/64 22/65/65 20/66/66
f 23/67/67 17/68/68 19/69/69 21/70/70
f 25/71/71 26/72/72 28/73/73 27/74/74
f 27/75/75 28/76/76 30/77/77 29/78/78
f 29/79/79 30/80/80 32/81/81 31/82/82
f 31/83/83 32/84/84 26/85/85 25/86/86
f 26/87/87 32/88/88 30/89/89 28/90/90
f 31/91/91 25/92/92 27/93/93 29/94/94
f 33/95/95 34/96/96 36/97/97 35/98/98
f 35/99/99 36/100/100 38/101/101 37/102/102
f 37/103/103 38/104/104 40/105/105 39/106/106
f 39/107/107 40/108/108 34/109/109 33/110/110
f 34/111/111 40/112/112 38/113/113 36/114/114
f 39/115/115 33/116/116 35/117/117 37/118/118
f 41/119/119 42/120/120 44/121/121 43/122/122
f 43/123/123 44/124/124 46/125/125 45/126/126
f 45/127/127 46/128/128 48/129/129 47/130/130
f 47/131/131 48/132/132 42/133/133 41/134/134
f 42/135/135 48/136/136 46/137/137 44/138/138
f 47/139/139 41/140/140 43/141/141 45/142/142
