# This file uses meters as units for non-parametric coordinates.

v -0.540396 0.000000 0.268095
v 0.540396 0.000000 0.268095
v -0.540396 0.948595 0.268095
v 0.540396 0.948595 0.268095
v -0.540396 0.948595 -0.268095
v 0.540396 0.948595 -0.268095
v -0.540396 0.000000 -0.268095
v 0.540396 0.000000 -0.268095
v -0.540396 0.818821 -0.268095
v -0.540396 0.818821 0.268095
v 0.540396 0.818821 0.268095
v 0.540396 0.818821 -0.268095
v -0.540396 0.772404 -0.268095
v -0.540396 0.772403 0.268095
v 0.540396 0.772403 0.268095
v 0.540396 0.772404 -0.268095
v -0.402542 0.948595 0.076512
v 0.402542 0.948595 0.076512
v 0.402542 0.948595 -0.076512
v -0.402542 0.948595 -0.076512
v -0.402542 1.081986 0.076512
v 0.402542 1.081986 0.076512
v 0.402542 1.081986 -0.076512
v -0.402542 1.081986 -0.076512
v -0.356357 0.948595 0.076512
v 0.356357 0.948595 0.076512
v 0.356357 1.039492 0.076512
v -0.356357 1.039492 0.076512
v -0.356357 0.948595 -0.076512
v 0.356357 0.948595 -0.076512
v -0.356357 1.039492 -0.076512
v 0.356357 1.039492 -0.076512
v -0.540396 0.597408 -0.144652
v -0.540396 0.597408 0.144652
v -0.540396 0.655486 0.144652
v -0.540396 0.655486 -0.144652
v -0.279724 0.463287 0.268095
v 0.279724 0.463287 0.268095
v 0.391791 0.636342 0.268095
v -0.391791 0.636342 0.268095
v -0.391791 0.580898 0.268095
v 0.391791 0.580898 0.268095
v 0.279724 0.517398 0.268095
v -0.279724 0.517398 0.268095
vt 0.110047 0.287485
vt 0.143434 0.287485
vt 0.175402 0.287485
vt 0.106283 0.287485
vt 0.143434 0.287485
vt 0.175402 0.287485
vt 0.175402 0.287485
vt 0.143434 0.287485
vt 0.175402 0.287485
vt 0.175402 0.287485
vt 0.106283 0.287485
vt 0.106283 0.287485
vt 0.110047 0.287485
vt 0.110047 0.287485
vt 0.175402 0.287485
vt 0.143434 0.287485
vt 0.175402 0.287485
vt 0.143434 0.287485
vt 0.143434 0.287485
vt 0.175402 0.287485
vt 0.106283 0.287485
vt 0.143434 0.287485
vt 0.143434 0.287485
vt 0.110047 0.287485
vt 0.110047 0.287485
vt 0.143435 0.287485
vt 0.044446 0.287485
vt 0.143434 0.287485
vt 0.077833 0.287485
vt 0.106283 0.287485
vt 0.077833 0.287485
vt 0.040681 0.287485
vt 0.044446 0.287485
vt 0.077833 0.287485
vt 0.110047 0.287485
vt 0.143434 0.287485
vt 0.143434 0.287485
vt 0.106283 0.287485
vt 0.143435 0.287485
vt 0.106283 0.287485
vt 0.040681 0.287485
vt 0.077833 0.287485
vt 0.110047 0.287485
vt 0.143435 0.287485
vt 0.077833 0.287485
vt 0.040681 0.287485
vt 0.044446 0.287485
vt 0.077833 0.287485
vt 0.143434 0.287485
vt 0.040681 0.287485
vt 0.110047 0.287485
vt 0.077833 0.287485
vt 0.106283 0.287485
vt 0.143435 0.287485
vt 0.044446 0.287485
vt 0.077833 0.287485
vt 0.114696 0.287485
vt 0.114696 0.287485
vt 0.114696 0.287485
vt 0.114696 0.287485
vt 0.114696 0.287485
vt 0.114696 0.287485
vt 0.114696 0.287485
vt 0.114696 0.287485
vt 0.114696 0.287485
vt 0.114696 0.287485
vt 0.114696 0.287485
vt 0.114696 0.287485
vt 0.114696 0.287485
vt 0.114696 0.287485
vt 0.114696 0.287485
vt 0.114696 0.287485
vt 0.172692 0.286747
vt 0.017010 0.286747
vt 0.172692 0.286747
vt 0.017010 0.286747
vt 0.017010 0.286747
vt 0.017010 0.286747
vt 0.017010 0.286747
vt 0.017010 0.286747
vt 0.017010 0.286747
vt 0.017010 0.286747
vt 0.017010 0.286747
vt 0.017010 0.286747
vt 0.172692 0.286747
vt 0.017010 0.286747
vt 0.172692 0.286747
vt 0.017010 0.286747
vt 0.200859 0.287485
vt 0.200859 0.287485
vt 0.200859 0.287485
vt 0.200859 0.287485
vt 0.114696 0.287485
vt 0.114696 0.287485
vt 0.114696 0.287485
vt 0.143091 0.287485
vt 0.114696 0.287485
vt 0.114696 0.287485
vt 0.143091 0.287485
vt 0.114696 0.287485
vt 0.175402 0.287485
vt 0.114696 0.287485
vt 0.143091 0.287485
vt 0.114696 0.287485
vt 0.114696 0.287485
vt 0.114696 0.287485
vt 0.114696 0.287485
vt 0.143091 0.287485
vt 0.114696 0.287485
vt 0.114696 0.287485
vt 0.143091 0.287485
vt 0.114696 0.287485
vt 0.143091 0.287485
vt 0.114696 0.287485
vt 0.175402 0.287485
vt 0.114696 0.287485
vt 0.175402 0.287485
vt 0.143091 0.287485
vt 0.175402 0.287485
vt 0.143091 0.287485
vt 0.110047 0.287485
vt 0.110047 0.287485
vt 0.110047 0.287485
vt 0.110047 0.287485
vt 0.166817 0.224082
vt 0.166817 0.224082
vt 0.166817 0.224082
vt 0.166817 0.224082
vt 0.234494 0.216008
vt 0.143434 0.287485
vt 0.234494 0.216008
vt 0.143434 0.287485
vt 0.143434 0.287485
vt 0.143434 0.287485
vt 0.143434 0.287485
vt 0.234494 0.216008
vt 0.234494 0.216008
vt 0.143434 0.287485
vt 0.234494 0.216008
vt 0.234494 0.216008
vt 0.143434 0.287485
vt 0.234494 0.216008
vt 0.143434 0.287485
vt 0.234494 0.216008
vn 0.000000 0.000000 1.000000
vn 0.000000 0.000000 1.000000
vn 0.000000 0.000000 1.000000
vn 0.000000 0.000000 1.000000
vn 0.000000 1.000000 0.000000
vn 0.000000 1.000000 0.000000
vn 0.000000 1.000000 0.000000
vn 0.000000 1.000000 0.000000
vn 0.000000 0.000000 -1.000000
vn 0.000000 0.000000 -1.000000
vn 0.000000 0.000000 -1.000000
vn 0.000000 0.000000 -1.000000
vn 0.000000 -1.000000 0.000000
vn 0.000000 -1.000000 0.000000
vn 0.000000 -1.000000 0.000000
vn 0.000000 -1.000000 0.000000
vn 1.000000 0.000000 0.000000
vn 1.000000 0.000000 0.000000
vn 1.000000 0.000000 0.000000
vn 1.000000 0.000000 0.000000
vn -1.000000 0.000000 0.000000
vn -1.000000 0.000000 0.000000
vn -1.000000 0.000000 0.000000
vn -1.000000 0.000000 0.000000
vn -1.000000 0.000000 0.000000
vn -1.000000 0.000000 0.000000
vn -1.000000 0.000000 0.000000
vn -1.000000 0.000000 0.000000
vn -0.000000 0.000000 1.000000
vn 0.000000 0.000000 1.000000
vn 0.000000 0.000000 1.000000
vn 0.000000 0.000000 1.000000
vn 1.000000 0.000000 0.000000
vn 1.000000 0.000000 0.000000
vn 1.000000 0.000000 0.000000
vn 1.000000 0.000000 0.000000
vn 0.000000 0.000000 -1.000000
vn 0.000000 0.000000 -1.000000
vn 0.000000 0.000000 -1.000000
vn 0.000000 0.000000 -1.000000
vn -1.000000 0.000000 0.000000
vn -1.000000 0.000000 0.000000
vn -1.000000 0.000000 0.000000
vn -1.000000 0.000000 0.000000
vn -0.000000 0.000000 1.000000
vn 0.000000 0.000000 1.000000
vn 0.000000 0.000000 1.000000
vn -0.000000 0.000000 1.000000
vn 1.000000 0.000000 0.000000
vn 1.000000 0.000000 0.000000
vn 1.000000 0.000000 0.000000
vn 1.000000 0.000000 0.000000
vn 0.000000 0.000000 -1.000000
vn 0.000000 0.000000 -1.000000
vn 0.000000 0.000000 -1.000000
vn 0.000000 0.000000 -1.000000
vn 0.000000 1.000000 0.000000
vn 0.000000 1.000000 0.000000
vn 0.000000 1.000000 0.000000
vn 0.000000 1.000000 0.000000
vn 0.000000 1.000000 0.000000
vn 0.000000 1.000000 0.000000
vn 0.000000 1.000000 0.000000
vn 0.000000 1.000000 0.000000
vn 0.000000 1.000000 0.000000
vn 0.000000 1.000000 0.000000
vn 0.000000 1.000000 0.000000
vn 0.000000 1.000000 0.000000
vn 0.000000 1.000000 0.000000
vn 0.000000 1.000000 0.000000
vn 0.000000 1.000000 0.000000
vn 0.000000 1.000000 0.000000
vn 1.000000 0.000000 0.000000
vn 1.000000 0.000000 0.000000
vn 1.000000 0.000000 0.000000
vn 1.000000 0.000000 0.000000
vn -1.000000 0.000000 0.000000
vn -1.000000 0.000000 0.000000
vn -1.000000 0.000000 0.000000
vn -1.000000 0.000000 0.000000
vn 0.000000 0.000000 -0.000000
vn 0.000000 0.000000 -0.000000
vn 0.000000 0.000000 -1.000000
vn 0.000000 0.000000 -1.000000
vn 0.000000 0.000000 1.000000
vn 0.000000 0.000000 1.000000
vn 0.000000 0.000000 1.000000
vn 0.000000 0.000000 1.000000
vn 0.000000 0.000000 1.000000
vn 0.000000 0.000000 1.000000
vn 0.000000 0.000000 1.000000
vn 0.000000 0.000000 1.000000
vn 0.000000 0.000000 1.000000
vn 0.000000 0.000000 1.000000
vn 0.000000 0.000000 1.000000
vn 0.000000 0.000000 1.000000
vn 0.000000 0.000000 0.000000
vn 0.000000 0.000000 0.000000
vn 0.000000 0.000000 1.000000
vn 0.000000 0.000000 1.000000
vn 0.000000 0.000000 -1.000000
vn 0.000000 0.000000 -1.000000
vn 0.000000 0.000000 -1.000000
vn 0.000000 0.000000 -1.000000
vn 0.000000 0.000000 -1.000000
vn 0.000000 0.000000 -1.000000
vn 0.000000 0.000000 -1.000000
vn 0.000000 0.000000 -1.000000
vn 0.000000 0.000000 -1.000000
vn 0.000000 0.000000 -1.000000
vn 0.000000 0.000000 -1.000000
vn 0.000000 0.000000 -1.000000
vn 0.000000 1.000000 0.000000
vn 0.000000 1.000000 0.000000
vn 0.000000 1.000000 0.000000
vn 0.000000 1.000000 0.000000
vn 0.000000 -1.000000 0.000000
vn 0.000000 -1.000000 0.000000
vn 0.000000 -1.000000 0.000000
vn 0.000000 -1.000000 0.000000
vn -1.000000 0.000000 0.000000
vn -1.000000 0.000000 0.000000
vn -1.000000 0.000000 0.000000
vn -1.000000 0.000000 0.000000
vn 1.000000 0.000000 0.000000
vn 1.000000 0.000000 0.000000
vn 1.000000 0.000000 0.000000
vn 1.000000 0.000000 0.000000
vn -1.000000 0.000000 0.000000
vn -1.000000 0.000000 0.000000
vn -1.000000 0.000000 0.000000
vn -1.000000 0.000000 0.000000
vn -1.000000 0.000000 0.000000
vn -1.000000 0.000000 0.000000
vn -1.000000 0.000000 0.000000
vn -1.000000 0.000000 0.000000
vn -1.000000 0.000000 0.000000
vn -1.000000 0.000000 0.000000
vn -1.000000 0.000000 0.000000
vn -1.000000 0.000000 0.000000
vn -1.000000 0.000000 0.000000
vn -1.000000 0.000000 0.000000
vn -1.000000 0.000000 0.000000
vn -1.000000 0.000000 0.000000
vn -0.000000 0.000000 1.000000
vn 0.000000 0.000000 1.000000
vn 0.000000 0.000000 1.000000
vn -0.000000 0.000000 1.000000
vn 0.000000 0.000000 1.000000
vn 0.000000 0.000000 1.000000
vn 0.000000 0.000000 1.000000
vn 0.000000 0.000000 1.000000
vn 0.000000 0.000000 1.000000
vn 0.000000 0.000000 1.000000
vn 0.000000 0.000000 1.000000
vn -0.000000 0.000000 1.000000
vn -0.000000 0.000000 1.000000
vn 0.000000 0.000000 1.000000
vn -0.000000 0.000000 1.000000
vn -0.000000 0.000000 1.000000
vn -0.000000 0.000000 1.000000
vn -0.000000 0.000000 1.000000
vn -0.000000 0.000000 1.000000
vn -0.000000 0.000000 1.000000
vn -0.000000 0.000000 1.000000
vn 0.000000 0.000000 1.000000
vn 0.000000 0.000000 1.000000
vn -0.000000 0.000000 1.000000
vn -0.000000 0.000000 1.000000
vn 0.000000 0.000000 1.000000
vn 0.000000 0.000000 1.000000
vn -0.000000 0.000000 1.000000
s off
f 10/28/1 11/49/2 4/22/3 3/19/4
f 21/89/5 22/92/6 23/91/7 24/90/8
f 5/5/9 6/18/10 12/54/11 9/26/12
f 7/7/13 8/15/14 2/10/15 1/9/16
f 11/30/17 12/53/18 6/12/19 4/4/20
f 9/25/21 10/51/22 3/24/23 5/14/24
f 13/33/25 14/47/26 10/27/27 9/55/28
f 14/48/29 15/45/30 11/29/31 10/52/32
f 15/46/33 16/41/34 12/32/35 11/50/36
f 9/56/37 12/31/38 16/42/39 13/34/40
f 33/125/41 34/126/42 35/127/43 36/128/44
f 41/139/45 42/140/46 39/131/47 40/142/48
f 2/21/49 8/11/50 16/40/51 15/38/52
f 13/44/53 16/39/54 8/8/55 7/16/56
f 3/3/57 4/17/58 18/119/59 17/115/60
f 4/17/61 6/6/62 19/101/63 18/119/64
f 6/6/65 5/20/66 20/117/67 19/101/68
f 5/20/69 3/3/70 17/115/71 20/117/72
f 18/113/73 19/118/74 23/96/75 22/111/76
f 20/103/77 17/120/78 21/108/79 24/99/80
f 17/57/81 18/114/82 26/110/83 25/65/84
f 18/58/85 22/112/86 27/107/87 26/66/88
f 22/62/89 21/109/90 28/106/91 27/67/92
f 21/61/93 17/116/94 25/105/95 28/68/96
f 19/59/97 20/104/98 29/98/99 30/69/100
f 20/60/101 24/100/102 31/95/103 29/70/104
f 24/64/105 23/97/106 32/94/107 31/71/108
f 23/63/109 19/102/110 30/93/111 32/72/112
f 25/73/113 26/87/114 30/75/115 29/85/116
f 27/77/117 28/83/118 31/79/119 32/81/120
f 26/74/121 27/82/122 32/80/123 30/88/124
f 28/78/125 25/86/126 29/76/127 31/84/128
f 7/13/129 1/1/130 34/122/131 33/121/132
f 1/1/133 14/35/134 35/123/135 34/122/136
f 14/35/137 13/43/138 36/124/139 35/123/140
f 13/43/141 7/13/142 33/121/143 36/124/144
f 1/23/145 2/2/146 38/130/147 37/143/148
f 2/2/149 15/37/150 39/141/151 42/134/152 43/135/153 38/130/154
f 15/37/155 14/36/156 40/132/157 39/141/158
f 14/36/159 1/23/160 37/143/161 44/138/162 41/133/163 40/132/164
f 37/129/165 38/144/166 43/137/167 44/136/168
f 44/138/169 43/135/170 42/134/171 41/133/172
