# This file uses meters as units for non-parametric coordinates.

v -0.067007 1.439574 0.067025
v 0.067007 1.439574 0.067025
v -0.092538 1.752287 0.092529
v 0.092538 1.752287 0.092529
v -0.092538 1.752287 -0.092529
v 0.092538 1.752287 -0.092529
v -0.067007 1.439574 -0.066997
v 0.067007 1.439574 -0.066997
v -0.092776 1.720171 -0.092767
v -0.092776 1.720171 0.092767
v 0.092776 1.720171 0.092767
v 0.092776 1.720171 -0.092767
v -0.075044 1.755319 0.075044
v 0.075054 1.755319 0.075044
v 0.075054 1.755319 -0.075034
v -0.075044 1.755319 -0.075034
v -0.059985 1.483156 0.059987
v 0.059995 1.483156 0.059987
v 0.059995 1.483156 -0.059977
v -0.059985 1.483156 -0.059977
vt 0.237143 0.174728
vt 0.265552 0.174728
vt 0.388743 0.468527
vt 0.328768 0.468527
vt 0.357177 0.468527
vt 0.388743 0.468527
vt 0.301937 0.468527
vt 0.265552 0.174728
vt 0.301937 0.468527
vt 0.301937 0.468527
vt 0.237143 0.174728
vt 0.328768 0.468527
vt 0.237143 0.174728
vt 0.328768 0.468527
vt 0.388743 0.468527
vt 0.357177 0.468527
vt 0.357177 0.468527
vt 0.388743 0.468527
vt 0.237143 0.174728
vt 0.265552 0.174728
vt 0.357177 0.468527
vt 0.328768 0.468527
vt 0.301937 0.468527
vt 0.265552 0.174728
vt 0.328768 0.468527
vt 0.357177 0.468527
vt 0.237143 0.174728
vt 0.265552 0.174728
vt 0.265552 0.174728
vt 0.237143 0.174728
vt 0.265552 0.174728
vt 0.237143 0.174728
vt 0.335959 0.468527
vt 0.335959 0.468527
vt 0.335959 0.468527
vt 0.335959 0.468527
vt 0.388743 0.468527
vt 0.335959 0.468527
vt 0.335959 0.468527
vt 0.335959 0.468527
vt 0.328768 0.468527
vt 0.357177 0.468527
vt 0.237143 0.174728
vt 0.265552 0.174728
vt 0.357177 0.468527
vt 0.328768 0.468527
vt 0.328768 0.468527
vt 0.357177 0.468527
vt 0.335959 0.468527
vt 0.335959 0.468527
vt 0.335959 0.468527
vt 0.388743 0.468527
vt 0.335959 0.468527
vt 0.388743 0.468527
vt 0.388743 0.468527
vt 0.335959 0.468527
vt 0.335959 0.468527
vt 0.388743 0.468527
vt 0.388743 0.468527
vt 0.335959 0.468527
vt 0.388743 0.468527
vt 0.335959 0.468527
vt 0.388743 0.468527
vt 0.335959 0.468527
vn 0.000000 -0.079291 0.996852
vn 0.000000 -0.079291 0.996852
vn 0.000000 0.007410 0.999973
vn 0.000000 0.007410 0.999973
vn 0.000000 1.000000 0.000000
vn 0.000000 1.000000 0.000000
vn 0.000000 1.000000 0.000000
vn 0.000000 1.000000 0.000000
vn 0.000000 0.007410 -0.999973
vn 0.000000 0.007410 -0.999973
vn 0.000000 -0.079381 -0.996844
vn 0.000000 -0.079381 -0.996844
vn 0.000000 -1.000000 0.000000
vn 0.000000 -1.000000 0.000000
vn 0.000000 -1.000000 0.000000
vn 0.000000 -1.000000 0.000000
vn 0.996845 -0.079380 0.000000
vn 0.996845 -0.079379 0.000000
vn 0.999973 0.007411 0.000000
vn 0.999973 0.007411 0.000000
vn -0.996845 -0.079379 0.000000
vn -0.996845 -0.079380 0.000000
vn -0.999973 0.007411 0.000000
vn -0.999973 0.007411 0.000000
vn -0.995809 -0.091453 0.000000
vn -0.995809 -0.091453 0.000000
vn -0.996845 -0.079380 0.000000
vn -0.996845 -0.079379 0.000000
vn 0.000000 -0.091354 0.995818
vn 0.000000 -0.091354 0.995818
vn 0.000000 -0.079291 0.996852
vn 0.000000 -0.079291 0.996852
vn 0.995809 -0.091453 0.000000
vn 0.995809 -0.091453 0.000000
vn 0.996845 -0.079379 0.000000
vn 0.996845 -0.079380 0.000000
vn 0.000000 -0.079381 -0.996844
vn 0.000000 -0.079381 -0.996844
vn 0.000000 -0.091455 -0.995809
vn 0.000000 -0.091455 -0.995809
vn -0.086068 0.992569 0.086021
vn 0.086062 0.992565 0.086074
vn 0.086063 0.992565 0.086073
vn -0.086030 0.992569 0.086059
vn 0.086062 0.992565 0.086074
vn 0.086010 0.992569 -0.086082
vn 0.086050 0.992568 -0.086042
vn 0.086063 0.992565 0.086073
vn 0.086010 0.992569 -0.086082
vn -0.086016 0.992572 -0.086030
vn -0.086017 0.992572 -0.086029
vn 0.086050 0.992568 -0.086042
vn -0.086016 0.992572 -0.086030
vn -0.086068 0.992569 0.086021
vn -0.086030 0.992569 0.086059
vn -0.086017 0.992572 -0.086029
vn 0.000000 0.055238 -0.998473
vn 0.000000 0.055238 -0.998473
vn 0.000000 0.055238 -0.998473
vn 0.000000 0.055238 -0.998473
vn -0.998473 0.055245 0.000000
vn -0.998473 0.055245 0.000000
vn -0.998473 0.055245 0.000000
vn -0.998473 0.055245 0.000000
vn 0.000000 0.055238 0.998473
vn 0.000000 0.055238 0.998473
vn 0.000000 0.055238 0.998473
vn 0.000000 0.055238 0.998473
vn 0.998473 0.055245 0.000000
vn 0.998473 0.055245 0.000000
vn 0.998473 0.055245 0.000000
vn 0.998473 0.055245 0.000000
s off
f 10/48/1 11/45/2 4/21/3 3/17/4
f 17/37/5 18/58/6 19/54/7 20/52/8
f 5/5/9 6/16/10 12/42/11 9/26/12
f 7/7/13 8/23/14 2/10/15 1/9/16
f 11/46/17 12/41/18 6/12/19 4/4/20
f 9/25/21 10/47/22 3/22/23 5/14/24
f 7/13/25 1/1/26 10/27/27 9/43/28
f 1/20/29 2/2/30 11/29/31 10/28/32
f 2/19/33 8/11/34 12/32/35 11/30/36
f 9/44/37 12/31/38 8/8/39 7/24/40
f 3/3/41 4/15/42 14/61/43 13/63/44
f 4/15/45 6/6/46 15/59/47 14/61/48
f 6/6/49 5/18/50 16/55/51 15/59/52
f 5/18/53 3/3/54 13/63/55 16/55/56
f 13/33/57 14/62/58 18/57/59 17/49/60
f 14/34/61 15/60/62 19/53/63 18/38/64
f 15/35/65 16/56/66 20/51/67 19/39/68
f 16/36/69 13/64/70 17/50/71 20/40/72
