# This file uses meters as units for non-parametric coordinates.

v -0.193993 -0.062886 1.254745
v 0.081261 -0.094836 1.308685
v -0.193993 0.125285 1.254745
v 0.081261 0.157235 1.308685
v -0.417053 0.105375 0.714779
v 0.124512 0.130563 0.700665
v -0.417053 -0.042976 0.714779
v 0.124512 -0.068164 0.700665
v 0.379547 -0.076862 -0.240303
v 0.681114 -0.126825 -1.047592
v 0.379547 0.217398 -0.240303
v 0.681114 0.267360 -1.047592
v -0.177422 0.186262 -0.471004
v -0.091858 0.225652 -1.145016
v -0.177422 -0.045727 -0.471004
v -0.091858 -0.085117 -1.145016
v -0.521919 -0.187999 0.495277
v -1.432457 -0.237962 -0.265850
v -0.521919 0.106261 0.495277
v -1.432457 0.156223 -0.265850
v -0.982971 0.075125 0.900196
v -1.795097 0.114515 0.425591
v -0.982971 -0.156864 0.900196
v -1.795097 -0.196254 0.425591
v 0.883255 -0.228520 -0.336555
v 0.542221 -0.365548 0.016506
v 0.800407 0.195786 -0.341793
v 0.431236 0.202845 0.009476
v 1.370979 0.268583 0.305012
v 0.835503 0.233069 1.120029
v 1.436310 -0.065932 0.309147
v 0.923004 -0.215041 1.125565
vt 0.170818 0.062674
vt 0.170818 0.062674
vt 0.170818 0.062674
vt 0.170818 0.062674
vt 0.231695 0.062674
vt 0.231695 0.062674
vt 0.231695 0.062674
vt 0.231695 0.062674
vt 0.170818 0.062674
vt 0.170818 0.062674
vt 0.170818 0.062674
vt 0.170818 0.062674
vt 0.202427 0.062674
vt 0.202427 0.062674
vt 0.202427 0.062674
vt 0.202427 0.062674
vt 0.202427 0.062674
vt 0.202427 0.062674
vt 0.202427 0.062674
vt 0.202427 0.062674
vt 0.170818 0.062674
vt 0.170818 0.062674
vt 0.170818 0.062674
vt 0.170818 0.062674
vt 0.231695 0.062382
vt 0.231695 0.062382
vt 0.231695 0.062382
vt 0.231695 0.062382
vt 0.170818 0.062674
vt 0.170818 0.062674
vt 0.170818 0.062674
vt 0.170818 0.062674
vt 0.202427 0.062674
vt 0.202427 0.062674
vt 0.202427 0.062674
vt 0.202427 0.062674
vt 0.202427 0.062674
vt 0.202427 0.062674
vt 0.202427 0.062674
vt 0.202427 0.062674
vt 0.170818 0.062674
vt 0.170818 0.062674
vt 0.170818 0.062674
vt 0.170818 0.062674
vt 0.231695 0.062382
vt 0.231695 0.062382
vt 0.231695 0.062382
vt 0.231695 0.062382
vt 0.170818 0.062674
vt 0.170818 0.062674
vt 0.170818 0.062674
vt 0.170818 0.062674
vt 0.202427 0.062674
vt 0.202427 0.062674
vt 0.202427 0.062674
vt 0.202427 0.062674
vt 0.202427 0.062674
vt 0.202427 0.062674
vt 0.202427 0.062674
vt 0.202427 0.062674
vt 0.136868 0.062674
vt 0.136868 0.062674
vt 0.136868 0.062674
vt 0.136868 0.062674
vt 0.197744 0.062674
vt 0.197744 0.062674
vt 0.197744 0.062674
vt 0.197744 0.062674
vt 0.136868 0.062674
vt 0.136868 0.062674
vt 0.136868 0.062674
vt 0.136868 0.062674
vt 0.168477 0.062674
vt 0.168477 0.062674
vt 0.168477 0.062674
vt 0.168477 0.062674
vt 0.168477 0.062674
vt 0.168477 0.062674
vt 0.168477 0.062674
vt 0.168477 0.062674
vn -0.192307 0.000000 0.981335
vn -0.192307 0.000000 0.981335
vn -0.192307 0.000000 0.981335
vn -0.192307 0.000000 0.981335
vn -0.068305 0.997220 -0.029765
vn -0.068305 0.997220 -0.029765
vn -0.068305 0.997220 -0.029765
vn -0.068305 0.997220 -0.029765
vn -0.026053 0.000000 -0.999661
vn -0.026053 0.000000 -0.999661
vn -0.026053 0.000000 -0.999661
vn -0.026053 0.000000 -0.999661
vn 0.997480 0.000000 0.070955
vn 0.997479 0.000000 0.070955
vn 0.997480 0.000000 0.070955
vn 0.997480 0.000000 0.070955
vn -0.924243 0.000000 0.381805
vn -0.924243 0.000000 0.381805
vn -0.924243 0.000000 0.381805
vn -0.924243 0.000000 0.381805
vn 0.936773 0.000000 0.349937
vn 0.936773 0.000000 0.349937
vn 0.936773 0.000000 0.349937
vn 0.936773 0.000000 0.349937
vn -0.065235 0.996939 0.043086
vn -0.065235 0.996939 0.043086
vn -0.065235 0.996939 0.043086
vn -0.065235 0.996939 0.043086
vn -0.992038 0.000000 -0.125936
vn -0.992038 0.000000 -0.125936
vn -0.992038 0.000000 -0.125936
vn -0.992038 0.000000 -0.125936
vn 0.125048 0.000000 -0.992151
vn 0.125048 0.000000 -0.992151
vn 0.125048 0.000000 -0.992151
vn 0.125048 0.000000 -0.992151
vn -0.382680 0.000000 0.923881
vn -0.382680 0.000000 0.923881
vn -0.382680 0.000000 0.923881
vn -0.382680 0.000000 0.923881
vn 0.641350 0.000000 -0.767248
vn 0.641350 0.000000 -0.767248
vn 0.641350 0.000000 -0.767248
vn 0.641350 0.000000 -0.767248
vn 0.002727 0.997659 0.068335
vn 0.002727 0.997659 0.068335
vn 0.002727 0.997659 0.068335
vn 0.002727 0.997659 0.068335
vn -0.504557 0.000000 0.863378
vn -0.504557 0.000000 0.863378
vn -0.504557 0.000000 0.863378
vn -0.504557 0.000000 0.863378
vn -0.885591 0.000000 -0.464466
vn -0.885591 0.000000 -0.464466
vn -0.885591 0.000000 -0.464466
vn -0.885591 0.000000 -0.464466
vn 0.659886 0.000000 0.751365
vn 0.659886 0.000000 0.751365
vn 0.659886 0.000000 0.751365
vn 0.659886 0.000000 0.751365
vn -0.683738 -0.142351 -0.715709
vn -0.683738 -0.142351 -0.715709
vn -0.683738 -0.142351 -0.715709
vn -0.683738 -0.142351 -0.715709
vn -0.062265 0.997772 -0.023953
vn -0.062265 0.997772 -0.023953
vn -0.062265 0.997772 -0.023953
vn -0.062265 0.997772 -0.023953
vn 0.820659 0.167011 0.546467
vn 0.820659 0.167011 0.546467
vn 0.820659 0.167011 0.546467
vn 0.820659 0.167011 0.546467
vn -0.923441 -0.176100 0.340949
vn -0.923441 -0.176100 0.340949
vn -0.923441 -0.176100 0.340949
vn -0.923441 -0.176100 0.340949
vn 0.735398 0.135403 -0.663969
vn 0.735398 0.135403 -0.663969
vn 0.735398 0.135403 -0.663969
vn 0.735398 0.135403 -0.663969
s off
f 1/1/1 2/2/2 4/3/3 3/4/4
f 3/5/5 4/6/6 6/7/7 5/8/8
f 5/9/9 6/10/10 8/11/11 7/12/12
f 2/13/13 8/14/14 6/15/15 4/16/16
f 7/17/17 1/18/18 3/19/19 5/20/20
f 9/21/21 10/22/22 12/23/23 11/24/24
f 11/25/25 12/26/26 14/27/27 13/28/28
f 13/29/29 14/30/30 16/31/31 15/32/32
f 10/33/33 16/34/34 14/35/35 12/36/36
f 15/37/37 9/38/38 11/39/39 13/40/40
f 17/41/41 18/42/42 20/43/43 19/44/44
f 19/45/45 20/46/46 22/47/47 21/48/48
f 21/49/49 22/50/50 24/51/51 23/52/52
f 18/53/53 24/54/54 22/55/55 20/56/56
f 23/57/57 17/58/58 19/59/59 21/60/60
f 25/61/61 26/62/62 28/63/63 27/64/64
f 27/65/65 28/66/66 30/67/67 29/68/68
f 29/69/69 30/70/70 32/71/71 31/72/72
f 26/73/73 32/74/74 30/75/75 28/76/76
f 31/77/77 25/78/78 27/79/79 29/80/80
