# This file uses meters as units for non-parametric coordinates.

v -0.165958 0.000000 5.029794
v -0.053087 0.000000 5.029794
v -0.165958 3.075221 5.029794
v -0.053087 3.075221 5.029794
v -0.165958 3.075221 0.262806
v -0.053087 3.075221 0.262806
v -0.165958 0.000000 0.262806
v -0.053087 0.000000 0.262806
v -0.250121 0.000000 5.029794
v 0.031077 0.000000 5.029794
v 0.031077 3.151417 5.029794
v -0.250121 3.151417 5.029794
v -0.250121 0.000000 5.356427
v 0.031077 0.000000 5.356427
v 0.031077 3.151417 5.356427
v -0.250121 3.151417 5.356427
v -0.219044 3.129347 0.262806
v 0.000000 3.129347 0.262806
v 0.000000 0.000000 0.262806
v -0.219044 0.000000 0.262806
v -0.219044 3.129347 0.000000
v 0.000000 3.129347 0.000000
v 0.000000 0.000000 0.000000
v -0.219044 0.000000 0.000000
v -0.165958 0.000000 0.659735
v -0.165958 3.075221 0.659736
v -0.053087 3.075221 0.659736
v -0.053087 0.000000 0.659735
v -0.165958 0.000000 0.738214
v -0.165958 3.075221 0.738214
v -0.053087 3.075221 0.738214
v -0.053087 0.000000 0.738214
v -0.165958 0.000000 1.126301
v -0.165958 3.075221 1.126302
v -0.053087 3.075221 1.126302
v -0.053087 0.000000 1.126301
v -0.165958 0.000000 1.204435
v -0.165958 3.075221 1.204434
v -0.053087 3.075221 1.204434
v -0.053087 0.000000 1.204435
v -0.165958 0.000000 1.605676
v -0.165958 3.075221 1.605676
v -0.053087 3.075221 1.605676
v -0.053087 0.000000 1.605676
v -0.165958 0.000000 1.703637
v -0.053087 0.000000 1.703637
v -0.165958 -0.000000 2.120804
v -0.053087 -0.000000 2.120804
v -0.165958 0.000000 2.203919
v -0.053087 0.000000 2.203919
v -0.165958 0.000000 2.631429
v -0.053087 0.000000 2.631429
v -0.165958 0.000000 2.721337
v -0.053087 0.000000 2.721337
v -0.053087 0.000000 3.197551
v -0.165958 0.000000 3.197551
v -0.053087 0.000000 3.310162
v -0.165958 0.000000 3.310162
v -0.053087 0.000000 3.802603
v -0.165958 0.000000 3.802603
v -0.165958 3.075221 3.926472
v -0.053087 3.075221 3.926472
v -0.053087 0.000000 3.926473
v -0.165958 0.000000 3.926473
v -0.165958 3.075221 4.451862
v -0.053087 3.075221 4.451862
v -0.053087 0.000000 4.451862
v -0.165958 0.000000 4.451862
v -0.165958 3.075221 4.553210
v -0.053087 3.075221 4.553210
v -0.053087 -0.000000 4.553211
v -0.165958 -0.000000 4.553211
v -0.165958 0.315854 3.926473
v -0.165958 0.315854 3.802603
v -0.165958 0.315854 3.310162
v -0.165958 0.315854 3.197551
v -0.165958 0.485322 3.197551
v -0.165958 0.485322 2.721337
v -0.165958 0.096712 2.721337
v -0.165958 0.096712 2.631429
v -0.165958 0.096712 2.203919
v -0.165958 0.096712 2.120804
v -0.165958 1.707098 2.120803
v -0.165958 1.707098 1.703637
v -0.165958 1.707098 1.605676
v -0.053087 0.315854 3.197551
v -0.053087 0.315854 3.310162
v -0.053087 0.315854 3.802603
v -0.053087 0.315854 3.926473
v -0.053087 0.485322 3.197551
v -0.053087 0.485322 2.721337
v -0.053087 1.707098 2.120803
v -0.053087 1.707098 1.703637
v -0.053087 1.707098 1.605676
v -0.053087 0.096712 2.120804
v -0.053087 0.096712 2.203919
v -0.053087 0.096712 2.631429
v -0.053087 0.096712 2.721337
v -2.308845 0.006164 1.911337
v -0.531515 0.006164 2.628208
v -2.308845 0.109420 1.911337
v -0.531515 0.109420 2.628208
v -2.201428 0.109420 1.508727
v -0.424098 0.109420 2.225599
v -2.201428 0.006164 1.508727
v -0.424098 0.006164 2.225599
v -1.734548 0.006164 3.576229
v -0.545559 0.006164 3.341819
v -1.734548 0.109420 3.576229
v -0.545559 0.109420 3.341819
v -1.789109 0.109420 3.157854
v -0.600119 0.109420 2.923445
v -1.789109 0.006164 3.157854
v -0.600119 0.006164 2.923445
vt 0.265044 0.398526
vt 0.265044 0.398526
vt 0.265044 0.398526
vt 0.265044 0.398526
vt 0.421002 0.398526
vt 0.421002 0.398526
vt 0.421002 0.398526
vt 0.421002 0.398526
vt 0.270913 0.398526
vt 0.270913 0.398526
vt 0.270913 0.398526
vt 0.270913 0.398526
vt 0.389140 0.398526
vt 0.389140 0.398526
vt 0.389140 0.398526
vt 0.389140 0.398526
vt 0.389140 0.398526
vt 0.389140 0.398526
vt 0.389140 0.398526
vt 0.389140 0.398526
vt 0.238212 0.398526
vt 0.238212 0.398526
vt 0.238212 0.398526
vt 0.238212 0.398526
vt 0.238212 0.398526
vt 0.238212 0.398526
vt 0.238212 0.398526
vt 0.238212 0.398526
vt 0.238212 0.398526
vt 0.238212 0.398526
vt 0.238212 0.398526
vt 0.238212 0.398526
vt 0.323738 0.398526
vt 0.323738 0.398526
vt 0.323738 0.398526
vt 0.323738 0.398526
vt 0.355600 0.398526
vt 0.355600 0.398526
vt 0.355600 0.398526
vt 0.355600 0.398526
vt 0.323738 0.398526
vt 0.323738 0.398526
vt 0.323738 0.398526
vt 0.323738 0.398526
vt 0.238212 0.398526
vt 0.238212 0.398526
vt 0.238212 0.398526
vt 0.238212 0.398526
vt 0.238212 0.398526
vt 0.238212 0.398526
vt 0.238212 0.398526
vt 0.238212 0.398526
vt 0.238212 0.398526
vt 0.238212 0.398526
vt 0.238212 0.398526
vt 0.238212 0.398526
vt 0.355600 0.398526
vt 0.355600 0.398526
vt 0.355600 0.398526
vt 0.355600 0.398526
vt 0.323738 0.398526
vt 0.323738 0.398526
vt 0.323738 0.398526
vt 0.323738 0.398526
vt 0.323738 0.398526
vt 0.323738 0.398526
vt 0.323738 0.398526
vt 0.323738 0.398526
vt 0.303614 0.398526
vt 0.303614 0.398526
vt 0.303614 0.398526
vt 0.303614 0.398526
vt 0.325415 0.398526
vt 0.325415 0.398526
vt 0.325415 0.398526
vt 0.325415 0.398526
vt 0.303614 0.398526
vt 0.303614 0.398526
vt 0.303614 0.398526
vt 0.303614 0.398526
vt 0.389140 0.398526
vt 0.389140 0.398526
vt 0.389140 0.398526
vt 0.389140 0.398526
vt 0.421002 0.398526
vt 0.421002 0.398526
vt 0.421002 0.398526
vt 0.421002 0.398526
vt 0.389140 0.398526
vt 0.389140 0.398526
vt 0.389140 0.398526
vt 0.389140 0.398526
vt 0.303614 0.398526
vt 0.303614 0.398526
vt 0.303614 0.398526
vt 0.303614 0.398526
vt 0.325415 0.398526
vt 0.325415 0.398526
vt 0.325415 0.398526
vt 0.325415 0.398526
vt 0.303614 0.398526
vt 0.303614 0.398526
vt 0.303614 0.398526
vt 0.303614 0.398526
vt 0.389140 0.398526
vt 0.389140 0.398526
vt 0.389140 0.398526
vt 0.389140 0.398526
vt 0.389140 0.398526
vt 0.421002 0.398526
vt 0.421002 0.398526
vt 0.421002 0.398526
vt 0.421002 0.398526
vt 0.389140 0.398526
vt 0.389140 0.398526
vt 0.389140 0.398526
vt 0.389140 0.398526
vt 0.389140 0.398526
vt 0.303614 0.398526
vt 0.303614 0.398526
vt 0.303614 0.398526
vt 0.303614 0.398526
vt 0.389140 0.398526
vt 0.389140 0.398526
vt 0.389140 0.398526
vt 0.389140 0.398526
vt 0.389140 0.398526
vt 0.303614 0.398526
vt 0.303614 0.398526
vt 0.303614 0.398526
vt 0.303614 0.398526
vt 0.303614 0.398526
vt 0.303614 0.398526
vt 0.303614 0.398526
vt 0.303614 0.398526
vt 0.389140 0.398526
vt 0.389140 0.398526
vt 0.389140 0.398526
vt 0.389140 0.398526
vt 0.389140 0.398526
vt 0.389140 0.398526
vt 0.389140 0.398526
vt 0.389140 0.398526
vt 0.303614 0.398526
vt 0.303614 0.398526
vt 0.303614 0.398526
vt 0.303614 0.398526
vt 0.303614 0.398526
vt 0.303614 0.398526
vt 0.303614 0.398526
vt 0.303614 0.398526
vt 0.389140 0.398526
vt 0.389140 0.398526
vt 0.389140 0.398526
vt 0.389140 0.398526
vt 0.389140 0.398526
vt 0.389140 0.398526
vt 0.303614 0.398526
vt 0.303614 0.398526
vt 0.303614 0.398526
vt 0.303614 0.398526
vt 0.303614 0.398526
vt 0.303614 0.398526
vt 0.303614 0.398526
vt 0.303614 0.398526
vt 0.389140 0.398526
vt 0.389140 0.398526
vt 0.389140 0.398526
vt 0.389140 0.398526
vt 0.389140 0.398526
vt 0.389140 0.398526
vt 0.389140 0.398526
vt 0.389140 0.398526
vt 0.303614 0.398526
vt 0.303614 0.398526
vt 0.303614 0.398526
vt 0.303614 0.398526
vt 0.303614 0.398526
vt 0.303614 0.398526
vt 0.303614 0.398526
vt 0.303614 0.398526
vt 0.421002 0.398526
vt 0.421002 0.398526
vt 0.421002 0.398526
vt 0.421002 0.398526
vt 0.389140 0.398526
vt 0.389140 0.398526
vt 0.389140 0.398526
vt 0.389140 0.398526
vt 0.389140 0.398526
vt 0.389140 0.398526
vt 0.389140 0.398526
vt 0.389140 0.398526
vt 0.389140 0.398526
vt 0.389140 0.398526
vt 0.325415 0.398526
vt 0.325415 0.398526
vt 0.325415 0.398526
vt 0.325415 0.398526
vt 0.303614 0.398526
vt 0.303614 0.398526
vt 0.303614 0.398526
vt 0.303614 0.398526
vt 0.303614 0.398526
vt 0.303614 0.398526
vt 0.303614 0.398526
vt 0.303614 0.398526
vt 0.421002 0.398526
vt 0.421002 0.398526
vt 0.421002 0.398526
vt 0.421002 0.398526
vt 0.389140 0.398526
vt 0.389140 0.398526
vt 0.389140 0.398526
vt 0.389140 0.398526
vt 0.389140 0.398526
vt 0.389140 0.398526
vt 0.389140 0.398526
vt 0.389140 0.398526
vt 0.389140 0.398526
vt 0.389140 0.398526
vt 0.389140 0.398526
vt 0.389140 0.398526
vt 0.389140 0.398526
vt 0.389140 0.398526
vt 0.389140 0.398526
vt 0.389140 0.398526
vt 0.389140 0.398526
vt 0.389140 0.398526
vt 0.389140 0.398526
vt 0.303614 0.398526
vt 0.303614 0.398526
vt 0.303614 0.398526
vt 0.303614 0.398526
vt 0.296471 0.399673
vt 0.296471 0.399673
vt 0.296471 0.399673
vt 0.296471 0.399673
vt 0.432031 0.399673
vt 0.432031 0.399673
vt 0.432031 0.399673
vt 0.432031 0.399673
vt 0.327081 0.399673
vt 0.327081 0.399673
vt 0.327081 0.399673
vt 0.327081 0.399673
vt 0.296471 0.399673
vt 0.296471 0.399673
vt 0.296471 0.399673
vt 0.296471 0.399673
vt 0.432031 0.399673
vt 0.432031 0.399673
vt 0.432031 0.399673
vt 0.432031 0.399673
vt 0.327081 0.399673
vt 0.327081 0.399673
vt 0.327081 0.399673
vt 0.327081 0.399673
vt 0.327081 0.399673
vt 0.327081 0.399673
vt 0.327081 0.399673
vt 0.327081 0.399673
vt 0.296471 0.399673
vt 0.296471 0.399673
vt 0.296471 0.399673
vt 0.296471 0.399673
vt 0.432031 0.399673
vt 0.432031 0.399673
vt 0.432031 0.399673
vt 0.432031 0.399673
vt 0.327081 0.399673
vt 0.327081 0.399673
vt 0.327081 0.399673
vt 0.327081 0.399673
vt 0.432031 0.399673
vt 0.432031 0.399673
vt 0.432031 0.399673
vt 0.432031 0.399673
vt 0.327081 0.399673
vt 0.327081 0.399673
vt 0.327081 0.399673
vt 0.327081 0.399673
vt 0.296471 0.399673
vt 0.296471 0.399673
vt 0.296471 0.399673
vt 0.296471 0.399673
vt 0.359793 0.396849
vt 0.359793 0.396849
vt 0.359793 0.396849
vt 0.359793 0.396849
vt 0.423518 0.396849
vt 0.423518 0.396849
vt 0.423518 0.396849
vt 0.423518 0.396849
vt 0.359793 0.396849
vt 0.359793 0.396849
vt 0.359793 0.396849
vt 0.359793 0.396849
vt 0.359793 0.396849
vt 0.359793 0.396849
vt 0.359793 0.396849
vt 0.359793 0.396849
vt 0.383270 0.396849
vt 0.383270 0.396849
vt 0.383270 0.396849
vt 0.383270 0.396849
vt 0.383270 0.396849
vt 0.383270 0.396849
vt 0.383270 0.396849
vt 0.383270 0.396849
vt 0.359793 0.396849
vt 0.359793 0.396849
vt 0.359793 0.396849
vt 0.359793 0.396849
vt 0.423518 0.396849
vt 0.423518 0.396849
vt 0.423518 0.396849
vt 0.423518 0.396849
vt 0.359793 0.396849
vt 0.359793 0.396849
vt 0.359793 0.396849
vt 0.359793 0.396849
vt 0.359793 0.396849
vt 0.359793 0.396849
vt 0.359793 0.396849
vt 0.359793 0.396849
vt 0.383270 0.396849
vt 0.383270 0.396849
vt 0.383270 0.396849
vt 0.383270 0.396849
vt 0.383270 0.396849
vt 0.383270 0.396849
vt 0.383270 0.396849
vt 0.383270 0.396849
vn 0.000000 0.000000 1.000000
vn 0.000000 0.000000 1.000000
vn 0.000000 0.000000 1.000000
vn 0.000000 0.000000 1.000000
vn 0.000000 1.000000 0.000000
vn 0.000000 1.000000 0.000000
vn 0.000000 1.000000 0.000000
vn 0.000000 1.000000 0.000000
vn 0.000000 0.000000 -1.000000
vn 0.000000 0.000000 -1.000000
vn 0.000000 0.000000 -1.000000
vn 0.000000 0.000000 -1.000000
vn 1.000000 0.000000 0.000000
vn 1.000000 0.000000 0.000000
vn 1.000000 0.000000 0.000000
vn 1.000000 0.000000 0.000000
vn -1.000000 0.000000 0.000000
vn -1.000000 -0.000000 0.000000
vn -1.000000 -0.000000 0.000000
vn -1.000000 0.000000 0.000000
vn 0.000000 0.000000 -1.000000
vn 0.000000 0.000000 -1.000000
vn 0.000000 0.000000 -1.000000
vn 0.000000 0.000000 -1.000000
vn 0.000000 0.000000 -1.000000
vn 0.000001 0.000000 -1.000000
vn 0.000001 0.000000 -1.000000
vn 0.000000 0.000000 -1.000000
vn 0.000001 0.000000 -1.000000
vn 0.000001 0.000000 -1.000000
vn 0.000001 0.000000 -1.000000
vn 0.000001 0.000000 -1.000000
vn 1.000000 0.000000 0.000000
vn 1.000000 0.000000 0.000000
vn 1.000000 0.000000 0.000000
vn 1.000000 0.000000 0.000000
vn 0.000000 1.000000 0.000000
vn 0.000000 1.000000 0.000000
vn 0.000000 1.000000 0.000000
vn 0.000000 1.000000 0.000000
vn -1.000000 0.000000 0.000000
vn -1.000000 0.000000 0.000000
vn -1.000000 0.000000 0.000000
vn -1.000000 0.000000 0.000000
vn 0.000000 0.000000 1.000000
vn -0.000000 0.000000 1.000000
vn -0.000000 0.000000 1.000000
vn 0.000000 0.000000 1.000000
vn -0.000000 0.000000 1.000000
vn -0.000000 0.000000 1.000000
vn -0.000000 0.000000 1.000000
vn -0.000000 0.000000 1.000000
vn 0.000000 0.000000 1.000000
vn 0.000000 0.000000 1.000000
vn 0.000000 0.000000 1.000000
vn 0.000000 0.000000 1.000000
vn 0.000000 1.000000 0.000000
vn 0.000000 1.000000 0.000000
vn 0.000000 1.000000 0.000000
vn 0.000000 1.000000 0.000000
vn 1.000000 0.000000 0.000000
vn 1.000000 0.000000 0.000000
vn 1.000000 0.000000 0.000000
vn 1.000000 0.000000 0.000000
vn -1.000000 0.000000 0.000000
vn -1.000000 0.000000 0.000000
vn -1.000000 0.000000 0.000000
vn -1.000000 0.000000 0.000000
vn -1.000000 -0.000000 0.000000
vn -1.000000 -0.000000 0.000000
vn -1.000000 -0.000000 0.000000
vn -1.000000 -0.000000 0.000000
vn 0.000000 1.000000 0.000000
vn 0.000000 1.000000 0.000000
vn 0.000000 1.000000 0.000000
vn 0.000000 1.000000 0.000000
vn 1.000000 0.000000 0.000000
vn 1.000000 0.000000 0.000000
vn 1.000000 0.000000 0.000000
vn 1.000000 0.000000 0.000000
vn -1.000000 -0.000000 0.000000
vn -1.000000 -0.000000 0.000000
vn -1.000000 0.000000 0.000000
vn -1.000000 0.000000 0.000000
vn 0.000000 1.000000 0.000000
vn 0.000000 1.000000 0.000000
vn 0.000000 1.000000 0.000000
vn 0.000000 1.000000 0.000000
vn 1.000000 0.000000 0.000000
vn 1.000000 0.000000 0.000000
vn 1.000000 0.000000 0.000000
vn 1.000000 0.000000 0.000000
vn -1.000000 0.000000 0.000000
vn -1.000000 0.000000 0.000000
vn -1.000000 -0.000000 0.000000
vn -1.000000 -0.000000 0.000000
vn 0.000000 1.000000 0.000000
vn 0.000000 1.000000 0.000000
vn 0.000000 1.000000 0.000000
vn 0.000000 1.000000 0.000000
vn 1.000000 0.000000 0.000000
vn 1.000000 0.000000 0.000000
vn 1.000000 0.000000 0.000000
vn 1.000000 0.000000 0.000000
vn -1.000000 -0.000000 0.000000
vn -1.000000 -0.000000 0.000000
vn -1.000000 -0.000000 0.000000
vn -1.000000 -0.000000 0.000000
vn -1.000000 -0.000000 0.000000
vn 0.000000 1.000000 0.000000
vn 0.000000 1.000000 0.000000
vn 0.000000 1.000000 0.000000
vn 0.000000 1.000000 0.000000
vn 1.000000 0.000000 0.000000
vn 1.000000 -0.000000 0.000000
vn 1.000000 -0.000000 0.000000
vn 1.000000 0.000000 0.000000
vn 1.000000 0.000000 0.000000
vn -1.000000 0.000000 0.000000
vn -1.000000 -0.000000 0.000000
vn -1.000000 -0.000000 0.000000
vn -1.000000 0.000000 0.000000
vn -1.000000 0.000000 0.000000
vn -1.000000 0.000000 0.000000
vn -1.000000 0.000000 0.000000
vn -1.000000 0.000000 0.000000
vn -1.000000 0.000000 0.000000
vn -1.000000 0.000000 0.000000
vn -1.000000 0.000000 0.000000
vn -1.000000 0.000000 0.000000
vn -1.000000 0.000000 0.000000
vn 1.000000 0.000000 0.000000
vn 1.000000 0.000000 0.000000
vn 1.000000 0.000000 0.000000
vn 1.000000 0.000000 0.000000
vn -1.000000 0.000000 0.000000
vn -1.000000 0.000000 0.000000
vn -1.000000 0.000000 0.000000
vn -1.000000 0.000000 0.000000
vn 1.000000 0.000000 0.000000
vn 1.000000 0.000000 0.000000
vn 1.000000 0.000000 0.000000
vn 1.000000 0.000000 0.000000
vn -1.000000 0.000000 0.000000
vn -1.000000 0.000000 0.000000
vn -1.000000 0.000000 0.000000
vn -1.000000 0.000000 0.000000
vn 1.000000 0.000000 0.000000
vn 1.000000 -0.000000 0.000000
vn 1.000000 -0.000000 0.000000
vn 1.000000 0.000000 0.000000
vn -1.000000 0.000000 0.000000
vn -1.000000 0.000000 0.000000
vn -1.000000 0.000000 0.000000
vn -1.000000 0.000000 0.000000
vn -1.000000 0.000000 0.000000
vn -1.000000 0.000000 0.000000
vn 1.000000 -0.000000 0.000000
vn 1.000000 0.000000 0.000000
vn 1.000000 0.000000 0.000000
vn 1.000000 -0.000000 0.000000
vn -1.000000 0.000000 0.000000
vn -1.000000 0.000000 0.000000
vn -1.000000 0.000000 0.000000
vn -1.000000 0.000000 0.000000
vn 1.000000 0.000000 0.000000
vn 1.000000 0.000000 0.000000
vn 1.000000 0.000000 0.000000
vn 1.000000 0.000000 0.000000
vn -1.000000 0.000000 0.000000
vn -1.000000 0.000000 0.000000
vn -1.000000 0.000000 0.000000
vn -1.000000 0.000000 0.000000
vn 1.000000 0.000000 0.000000
vn 1.000000 0.000000 0.000000
vn 1.000000 0.000000 0.000000
vn 1.000000 0.000000 0.000000
vn -1.000000 -0.000000 0.000000
vn -1.000000 0.000000 0.000000
vn -1.000000 0.000000 0.000000
vn -1.000000 -0.000000 0.000000
vn 0.000000 1.000000 0.000000
vn 0.000000 1.000000 0.000000
vn 0.000000 1.000000 0.000000
vn 0.000000 1.000000 0.000000
vn 1.000000 0.000000 0.000000
vn 1.000000 0.000000 0.000000
vn 1.000000 0.000000 0.000000
vn 1.000000 0.000000 0.000000
vn 1.000000 0.000000 0.000000
vn -1.000000 -0.000000 0.000000
vn -1.000000 -0.000000 0.000000
vn -1.000000 -0.000000 0.000000
vn -1.000000 -0.000000 0.000000
vn -1.000000 -0.000000 0.000000
vn 0.000000 1.000000 0.000000
vn 0.000000 1.000000 0.000000
vn 0.000000 1.000000 0.000000
vn 0.000000 1.000000 0.000000
vn 1.000000 0.000000 0.000000
vn 1.000000 0.000000 0.000000
vn 1.000000 0.000000 0.000000
vn 1.000000 0.000000 0.000000
vn -1.000000 -0.000000 0.000000
vn -1.000000 -0.000000 0.000000
vn -1.000000 -0.000000 0.000000
vn -1.000000 -0.000000 0.000000
vn 0.000000 1.000000 0.000000
vn 0.000000 1.000000 0.000000
vn 0.000000 1.000000 0.000000
vn 0.000000 1.000000 0.000000
vn 1.000000 0.000000 0.000000
vn 1.000000 0.000000 0.000000
vn 1.000000 0.000000 0.000000
vn 1.000000 0.000000 0.000000
vn -1.000000 -0.000000 0.000000
vn -1.000000 -0.000000 0.000000
vn -1.000000 0.000000 0.000000
vn -1.000000 0.000000 0.000000
vn 1.000000 -0.000000 0.000000
vn 1.000000 -0.000000 0.000000
vn 1.000000 -0.000000 0.000000
vn 1.000000 -0.000000 0.000000
vn 1.000000 -0.000000 0.000000
vn 1.000000 -0.000000 0.000000
vn 1.000000 0.000000 0.000000
vn 1.000000 0.000000 0.000000
vn 1.000000 0.000000 0.000000
vn 1.000000 0.000000 0.000000
vn 1.000000 0.000000 0.000000
vn 1.000000 -0.000000 0.000000
vn 1.000000 0.000000 0.000000
vn 1.000000 0.000000 0.000000
vn 1.000000 -0.000000 0.000000
vn 0.000000 0.000000 1.000000
vn 0.000000 0.000000 1.000000
vn 0.000000 0.000000 1.000000
vn 0.000000 0.000000 1.000000
vn 0.000000 1.000000 0.000000
vn 0.000000 1.000000 0.000000
vn 0.000000 1.000000 0.000000
vn 0.000000 1.000000 0.000000
vn 0.000000 1.000000 0.000000
vn 0.000000 1.000000 0.000000
vn 0.000000 1.000000 0.000000
vn 0.000000 1.000000 0.000000
vn 0.000000 0.000000 1.000000
vn 0.000000 0.000000 1.000000
vn 0.000000 0.000000 1.000000
vn 0.000000 0.000000 1.000000
vn 0.000000 1.000000 0.000000
vn 0.000000 1.000000 0.000000
vn 0.000000 1.000000 0.000000
vn 0.000000 1.000000 0.000000
vn 0.000000 1.000000 0.000000
vn 0.000000 1.000000 0.000000
vn 0.000000 1.000000 0.000000
vn 0.000000 1.000000 0.000000
vn 0.000000 1.000000 0.000000
vn 0.000000 1.000000 0.000000
vn 0.000000 1.000000 0.000000
vn 0.000000 1.000000 0.000000
vn 0.000000 0.000001 -1.000000
vn 0.000000 0.000001 -1.000000
vn 0.000000 0.000001 -1.000000
vn 0.000000 0.000001 -1.000000
vn 0.000000 1.000000 0.000000
vn 0.000000 1.000000 0.000000
vn 0.000000 1.000000 0.000000
vn 0.000000 1.000000 0.000000
vn 0.000000 1.000000 0.000000
vn 0.000000 1.000000 0.000000
vn 0.000000 1.000000 0.000000
vn 0.000000 1.000000 0.000000
vn 0.000000 1.000000 0.000000
vn 0.000000 1.000000 0.000000
vn 0.000000 1.000000 0.000000
vn 0.000000 1.000000 0.000000
vn 0.000000 1.000000 0.000000
vn 0.000000 1.000000 0.000000
vn 0.000000 1.000000 0.000000
vn 0.000000 1.000000 0.000000
vn 0.000000 -0.000000 -1.000000
vn 0.000000 -0.000000 -1.000000
vn 0.000000 -0.000000 -1.000000
vn 0.000000 -0.000000 -1.000000
vn -0.374061 0.000000 0.927404
vn -0.374061 0.000000 0.927404
vn -0.374061 0.000000 0.927404
vn -0.374061 0.000000 0.927404
vn 0.000000 1.000000 0.000000
vn 0.000000 1.000000 0.000000
vn 0.000000 1.000000 0.000000
vn 0.000000 1.000000 0.000000
vn 0.374061 0.000000 -0.927404
vn 0.374061 0.000000 -0.927404
vn 0.374061 0.000000 -0.927404
vn 0.374061 0.000000 -0.927404
vn 0.000000 -1.000000 0.000000
vn 0.000000 -1.000000 0.000000
vn 0.000000 -1.000000 0.000000
vn 0.000000 -1.000000 0.000000
vn 0.966203 0.000000 0.257784
vn 0.966203 0.000000 0.257784
vn 0.966203 0.000000 0.257784
vn 0.966203 0.000000 0.257784
vn -0.966203 0.000000 -0.257784
vn -0.966203 0.000000 -0.257784
vn -0.966203 0.000000 -0.257784
vn -0.966203 0.000000 -0.257784
vn 0.193427 0.000000 0.981115
vn 0.193427 0.000000 0.981115
vn 0.193427 0.000000 0.981115
vn 0.193427 0.000000 0.981115
vn 0.000000 1.000000 0.000000
vn 0.000000 1.000000 0.000000
vn 0.000000 1.000000 0.000000
vn 0.000000 1.000000 0.000000
vn -0.193427 0.000000 -0.981115
vn -0.193427 0.000000 -0.981115
vn -0.193427 0.000000 -0.981115
vn -0.193427 0.000000 -0.981115
vn 0.000000 -1.000000 0.000000
vn 0.000000 -1.000000 0.000000
vn 0.000000 -1.000000 0.000000
vn 0.000000 -1.000000 0.000000
vn 0.991604 0.000000 -0.129315
vn 0.991604 0.000000 -0.129315
vn 0.991604 0.000000 -0.129315
vn 0.991604 0.000000 -0.129315
vn -0.991604 0.000000 0.129315
vn -0.991604 0.000000 0.129315
vn -0.991604 0.000000 0.129315
vn -0.991604 0.000000 0.129315
s off
f 13/1/1 14/2/2 15/3/3 16/4/4
f 26/5/5 27/6/6 6/7/7 5/8/8
f 21/9/9 22/10/10 23/11/11 24/12/12
f 27/13/13 28/14/14 8/15/15 6/16/16
f 7/17/17 25/18/18 26/19/19 5/20/20
f 2/21/21 4/22/22 11/23/23 10/24/24
f 4/25/25 3/26/26 12/27/27 11/28/28
f 3/29/29 1/30/30 9/31/31 12/32/32
f 10/33/33 11/34/34 15/35/35 14/36/36
f 11/37/37 12/38/38 16/39/39 15/40/40
f 12/41/41 9/42/42 13/43/43 16/44/44
f 5/45/45 6/46/46 18/47/47 17/48/48
f 6/49/49 8/50/50 19/51/51 18/52/52
f 7/53/53 5/54/54 17/55/55 20/56/56
f 17/57/57 18/58/58 22/59/59 21/60/60
f 18/61/61 19/62/62 23/63/63 22/64/64
f 20/65/65 17/66/66 21/67/67 24/68/68
f 26/69/69 25/70/70 29/71/71 30/72/72
f 30/73/73 31/74/74 27/75/75 26/76/76
f 31/77/77 32/78/78 28/79/79 27/80/80
f 30/81/81 29/82/82 33/83/83 34/84/84
f 34/85/85 35/86/86 31/87/87 30/88/88
f 35/89/89 36/90/90 32/91/91 31/92/92
f 34/93/93 33/94/94 37/95/95 38/96/96
f 38/97/97 39/98/98 35/99/99 34/100/100
f 39/101/101 40/102/102 36/103/103 35/104/104
f 38/105/105 37/106/106 41/107/107 85/108/108 42/109/109
f 42/110/110 43/111/111 39/112/112 38/113/113
f 43/114/114 94/115/115 44/116/116 40/117/117 39/118/118
f 84/119/119 85/120/120 41/121/121 45/122/122
f 83/123/123 84/124/124 45/125/125 47/126/126 82/127/127
f 81/128/128 82/129/129 47/130/130 49/131/131
f 95/132/132 96/133/133 50/134/134 48/135/135
f 80/136/136 81/137/137 49/138/138 51/139/139
f 96/140/140 97/141/141 52/142/142 50/143/143
f 79/144/144 80/145/145 51/146/146 53/147/147
f 97/148/148 98/149/149 54/150/150 52/151/151
f 77/152/152 78/153/153 79/154/154 53/155/155 56/156/156 76/157/157
f 86/158/158 87/159/159 57/160/160 55/161/161
f 75/162/162 76/163/163 56/164/164 58/165/165
f 87/166/166 88/167/167 59/168/168 57/169/169
f 74/170/170 75/171/171 58/172/172 60/173/173
f 88/174/174 89/175/175 63/176/176 59/177/177
f 73/178/178 74/179/179 60/180/180 64/181/181
f 65/182/182 66/183/183 62/184/184 61/185/185
f 66/186/186 67/187/187 63/188/188 89/189/189 62/190/190
f 61/191/191 73/192/192 64/193/193 68/194/194 65/195/195
f 69/196/196 70/197/197 66/198/198 65/199/199
f 70/200/200 71/201/201 67/202/202 66/203/203
f 65/204/204 68/205/205 72/206/206 69/207/207
f 3/208/208 4/209/209 70/210/210 69/211/211
f 2/212/212 71/213/213 70/214/214 4/215/215
f 69/216/216 72/217/217 1/218/218 3/219/219
f 91/220/220 90/221/221 86/222/222 55/223/223 54/224/224 98/225/225
f 93/226/226 92/227/227 95/228/228 48/229/229 46/230/230
f 94/231/231 93/232/232 46/233/233 44/234/234
f 94/235/235 43/236/236 42/237/237 85/238/238
f 92/239/239 93/240/240 84/241/241 83/242/242
f 85/243/243 84/244/244 93/245/245 94/246/246
f 95/247/247 92/248/248 83/249/249 82/250/250
f 97/251/251 96/252/252 81/253/253 80/254/254
f 96/255/255 95/256/256 82/257/257 81/258/258
f 98/259/259 97/260/260 80/261/261 79/262/262
f 91/263/263 98/264/264 79/265/265 78/266/266
f 90/267/267 91/268/268 78/269/269 77/270/270
f 87/271/271 86/272/272 76/273/273 75/274/274
f 88/275/275 87/276/276 75/277/277 74/278/278
f 89/279/279 88/280/280 74/281/281 73/282/282
f 62/283/283 89/284/284 73/285/285 61/286/286
f 99/287/287 100/288/288 102/289/289 101/290/290
f 101/291/291 102/292/292 104/293/293 103/294/294
f 103/295/295 104/296/296 106/297/297 105/298/298
f 105/299/299 106/300/300 100/301/301 99/302/302
f 100/303/303 106/304/304 104/305/305 102/306/306
f 105/307/307 99/308/308 101/309/309 103/310/310
f 107/311/311 108/312/312 110/313/313 109/314/314
f 109/315/315 110/316/316 112/317/317 111/318/318
f 111/319/319 112/320/320 114/321/321 113/322/322
f 113/323/323 114/324/324 108/325/325 107/326/326
f 108/327/327 114/328/328 112/329/329 110/330/330
f 113/331/331 107/332/332 109/333/333 111/334/334
