# This file uses meters as units for non-parametric coordinates.

v -0.350267 0.000000 0.442694
v 0.000000 0.000000 0.442694
v -0.350267 2.999723 0.442694
v 0.000000 2.999723 0.442694
v -0.350267 2.999723 0.000000
v 0.000000 2.999723 0.000000
v -0.350267 0.000000 0.000000
v 0.000000 0.000000 0.000000
v -0.041708 1.612686 1.601589
v -0.041708 1.612686 2.393627
v -0.041708 1.849758 1.601589
v -0.041708 1.849758 2.393627
v -0.041708 2.113278 2.772178
v -0.041708 2.113278 1.965361
v -0.041708 1.883191 2.772178
v -0.041708 1.883191 1.965361
v -0.041708 1.849758 0.777089
v -0.041708 1.612686 0.777089
v -0.041708 1.849758 1.562627
v -0.041708 1.612686 1.562627
v -0.041708 1.612686 4.439711
v -0.041708 1.849758 4.439711
v -0.041708 1.612686 3.654149
v -0.041708 1.849758 3.654149
v -0.041708 1.341850 1.158789
v -0.041708 1.341850 1.967815
v -0.041708 1.577895 1.158790
v -0.041708 1.577895 1.967813
v -0.041708 0.574010 1.608773
v -0.041708 0.574010 2.392427
v -0.041708 0.812012 1.608776
v -0.041708 0.812012 2.392427
v -0.041708 2.371788 2.388161
v -0.041708 2.371788 1.588976
v -0.041708 2.141896 2.388161
v -0.041708 2.141896 1.588977
v -0.041708 0.047078 0.421312
v -0.041708 2.842919 0.421312
v -0.041708 2.842919 5.064731
v -0.041708 0.047078 5.064731
v -0.305862 1.612686 3.884452
v -0.305862 1.612686 3.092413
v -0.305862 1.849758 3.884452
v -0.305862 1.849758 3.092413
v -0.305862 2.113278 2.713863
v -0.305862 2.113278 3.520680
v -0.305862 1.883191 2.713863
v -0.305862 1.883191 3.520680
v -0.305862 1.849758 4.708951
v -0.305862 1.612686 4.708951
v -0.305862 1.849758 3.923412
v -0.305862 1.612686 3.923412
v -0.305862 1.612686 1.046329
v -0.305862 1.849758 1.046329
v -0.305862 1.612686 1.831892
v -0.305862 1.849758 1.831892
v -0.305862 1.341850 4.327251
v -0.305862 1.341850 3.518225
v -0.305862 1.577895 4.327250
v -0.305862 1.577895 3.518226
v -0.305862 0.574010 3.877267
v -0.305862 0.574010 3.093613
v -0.305862 0.812012 3.877264
v -0.305862 0.812012 3.093613
v -0.305862 2.371788 3.097878
v -0.305862 2.371788 3.897063
v -0.305862 2.141896 3.097878
v -0.305862 2.141896 3.897062
v -0.305862 0.047078 5.064728
v -0.305862 2.842919 5.064728
v -0.305862 2.842919 0.421311
v -0.305862 0.047078 0.421311
vt 0.104946 0.183527
vt 0.104946 0.183527
vt 0.104946 0.183527
vt 0.104946 0.183527
vt 0.168368 0.183527
vt 0.168368 0.183527
vt 0.168368 0.183527
vt 0.168368 0.183527
vt 0.146266 0.183527
vt 0.146266 0.183527
vt 0.146266 0.183527
vt 0.146266 0.183527
vt 0.146266 0.183527
vt 0.146266 0.183527
vt 0.146266 0.183527
vt 0.146266 0.183527
vt 0.146266 0.183527
vt 0.146266 0.183527
vt 0.146266 0.183527
vt 0.146266 0.183527
vt 0.142423 0.181605
vt 0.142423 0.181605
vt 0.142423 0.181605
vt 0.142423 0.181605
vt 0.142423 0.181605
vt 0.142423 0.181605
vt 0.142423 0.181605
vt 0.142423 0.181605
vt 0.142423 0.181605
vt 0.142423 0.181605
vt 0.142423 0.181605
vt 0.142423 0.181605
vt 0.142423 0.181605
vt 0.142423 0.181605
vt 0.142423 0.181605
vt 0.142423 0.181605
vt 0.142423 0.181605
vt 0.142423 0.181605
vt 0.142423 0.181605
vt 0.142423 0.181605
vt 0.142423 0.181605
vt 0.142423 0.181605
vt 0.142423 0.181605
vt 0.142423 0.181605
vt 0.169329 0.181605
vt 0.169329 0.181605
vt 0.169329 0.181605
vt 0.169329 0.181605
vt 0.169329 0.181605
vt 0.169329 0.181605
vt 0.169329 0.181605
vt 0.169329 0.181605
vt 0.169329 0.181605
vt 0.169329 0.181605
vt 0.169329 0.181605
vt 0.169329 0.181605
vt 0.169329 0.181605
vt 0.169329 0.181605
vt 0.169329 0.181605
vt 0.169329 0.181605
vt 0.169329 0.181605
vt 0.169329 0.181605
vt 0.169329 0.181605
vt 0.169329 0.181605
vt 0.169329 0.181605
vt 0.169329 0.181605
vt 0.169329 0.181605
vt 0.169329 0.181605
vt 0.169329 0.181605
vt 0.142423 0.181605
vt 0.142423 0.181605
vt 0.142423 0.181605
vt 0.142423 0.181605
vt 0.169329 0.181605
vt 0.169329 0.181605
vt 0.169329 0.181605
vt 0.169329 0.181605
vt 0.169329 0.181605
vt 0.169329 0.181605
vt 0.169329 0.181605
vt 0.142423 0.181605
vt 0.142423 0.181605
vt 0.142423 0.181605
vt 0.142423 0.181605
vt 0.142423 0.181605
vt 0.142423 0.181605
vt 0.142423 0.181605
vt 0.142423 0.181605
vt 0.142423 0.181605
vt 0.142423 0.181605
vt 0.142423 0.181605
vt 0.142423 0.181605
vt 0.142423 0.181605
vt 0.142423 0.181605
vt 0.142423 0.181605
vt 0.142423 0.181605
vt 0.142423 0.181605
vt 0.142423 0.181605
vt 0.142423 0.181605
vt 0.142423 0.181605
vt 0.142423 0.181605
vt 0.142423 0.181605
vt 0.142423 0.181605
vt 0.142423 0.181605
vt 0.169329 0.181605
vt 0.169329 0.181605
vt 0.169329 0.181605
vt 0.169329 0.181605
vt 0.169329 0.181605
vt 0.169329 0.181605
vt 0.169329 0.181605
vt 0.169329 0.181605
vt 0.169329 0.181605
vt 0.169329 0.181605
vt 0.169329 0.181605
vt 0.169329 0.181605
vt 0.169329 0.181605
vt 0.169329 0.181605
vt 0.169329 0.181605
vt 0.169329 0.181605
vt 0.169329 0.181605
vt 0.169329 0.181605
vt 0.169329 0.181605
vt 0.169329 0.181605
vt 0.169329 0.181605
vt 0.169329 0.181605
vt 0.169329 0.181605
vt 0.169329 0.181605
vt 0.169329 0.181605
vt 0.142423 0.181605
vt 0.142423 0.181605
vt 0.142423 0.181605
vt 0.142423 0.181605
vt 0.169329 0.181605
vt 0.169329 0.181605
vt 0.169329 0.181605
vt 0.169329 0.181605
vt 0.169329 0.181605
vt 0.169329 0.181605
vt 0.169329 0.181605
vt 0.198157 0.181605
vt 0.198157 0.181605
vt 0.198157 0.181605
vt 0.198157 0.181605
vn 0.000000 0.000000 1.000000
vn 0.000000 0.000000 1.000000
vn 0.000000 0.000000 1.000000
vn 0.000000 0.000000 1.000000
vn 0.000000 1.000000 0.000000
vn 0.000000 1.000000 0.000000
vn 0.000000 1.000000 0.000000
vn 0.000000 1.000000 0.000000
vn 0.000000 0.000000 -1.000000
vn 0.000000 0.000000 -1.000000
vn 0.000000 0.000000 -1.000000
vn 0.000000 0.000000 -1.000000
vn 1.000000 0.000000 0.000000
vn 1.000000 0.000000 0.000000
vn 1.000000 0.000000 0.000000
vn 1.000000 0.000000 0.000000
vn -1.000000 0.000000 0.000000
vn -1.000000 0.000000 0.000000
vn -1.000000 0.000000 0.000000
vn -1.000000 0.000000 0.000000
vn 1.000000 0.000000 0.000000
vn 1.000000 0.000000 0.000000
vn 1.000000 0.000000 0.000000
vn 1.000000 0.000000 0.000000
vn 1.000000 0.000000 0.000000
vn 1.000000 0.000000 0.000000
vn 1.000000 0.000000 0.000000
vn 1.000000 0.000000 0.000000
vn 1.000000 0.000000 0.000000
vn 1.000000 0.000000 0.000000
vn 1.000000 0.000000 0.000000
vn 1.000000 0.000000 0.000000
vn 1.000000 0.000000 0.000000
vn 1.000000 0.000000 0.000000
vn 1.000000 0.000000 0.000000
vn 1.000000 0.000000 0.000000
vn 1.000000 0.000000 0.000000
vn 1.000000 0.000000 0.000000
vn 1.000000 0.000000 0.000000
vn 1.000000 0.000000 0.000000
vn 1.000000 -0.000000 0.000000
vn 1.000000 -0.000000 0.000000
vn 1.000000 -0.000000 0.000000
vn 1.000000 0.000000 0.000000
vn 1.000000 0.000000 0.000000
vn 1.000000 0.000000 0.000000
vn 1.000000 0.000000 0.000000
vn 1.000000 0.000000 0.000000
vn 1.000000 0.000000 0.000000
vn 1.000000 0.000000 0.000000
vn 1.000000 0.000000 0.000000
vn 1.000000 0.000000 0.000000
vn 1.000000 0.000000 0.000000
vn 1.000000 0.000000 0.000000
vn 1.000000 0.000000 0.000000
vn 1.000000 0.000000 0.000000
vn 1.000000 0.000000 0.000000
vn 1.000000 0.000000 0.000000
vn 1.000000 -0.000000 0.000000
vn 1.000000 0.000000 0.000000
vn 1.000000 0.000000 0.000000
vn 1.000000 0.000000 0.000000
vn 1.000000 0.000000 0.000000
vn 1.000000 0.000000 0.000000
vn 1.000000 0.000000 0.000000
vn 1.000000 0.000000 0.000000
vn 1.000000 0.000000 0.000000
vn 1.000000 0.000000 0.000000
vn 1.000000 0.000000 0.000000
vn 1.000000 0.000000 0.000000
vn 1.000000 0.000000 0.000000
vn 1.000000 0.000000 0.000000
vn 1.000000 0.000000 0.000000
vn 1.000000 0.000000 0.000000
vn 1.000000 0.000000 0.000000
vn 1.000000 0.000000 0.000000
vn 1.000000 0.000000 0.000000
vn 1.000000 0.000000 0.000000
vn 1.000000 0.000000 0.000000
vn 1.000000 0.000000 0.000000
vn 1.000000 0.000000 0.000000
vn 1.000000 0.000000 0.000000
vn 1.000000 0.000000 0.000000
vn 1.000000 0.000000 0.000000
vn 1.000000 0.000000 0.000000
vn 1.000000 0.000000 0.000000
vn 1.000000 0.000000 0.000000
vn 1.000000 0.000000 0.000000
vn 1.000000 0.000000 0.000000
vn 1.000000 0.000000 0.000000
vn 1.000000 0.000000 0.000000
vn 1.000000 0.000000 0.000000
vn 1.000000 0.000000 0.000000
vn 1.000000 0.000000 0.000000
vn 1.000000 0.000000 0.000000
vn 1.000000 0.000000 0.000000
vn 1.000000 0.000000 0.000000
vn 1.000000 0.000000 0.000000
vn 1.000000 0.000000 0.000000
vn 1.000000 0.000000 0.000000
vn 1.000000 0.000000 0.000000
vn 1.000000 0.000000 0.000000
vn 1.000000 0.000000 0.000000
vn 1.000000 0.000000 0.000000
vn 1.000000 0.000000 0.000000
vn 1.000000 0.000000 0.000000
vn 1.000000 -0.000000 0.000000
vn 1.000000 -0.000000 0.000000
vn 1.000000 0.000000 0.000000
vn 1.000000 -0.000000 0.000000
vn 1.000000 -0.000000 0.000000
vn 1.000000 0.000000 0.000000
vn 1.000000 0.000000 0.000000
vn 1.000000 0.000000 0.000000
vn 1.000000 0.000000 0.000000
vn 1.000000 0.000000 0.000000
vn 1.000000 0.000000 0.000000
vn 1.000000 0.000000 0.000000
vn 1.000000 0.000000 0.000000
vn 1.000000 -0.000000 0.000000
vn -1.000000 0.000000 0.000000
vn -1.000000 0.000000 0.000000
vn -1.000000 -0.000000 0.000000
vn -1.000000 -0.000000 0.000000
vn -1.000000 0.000000 0.000000
vn -1.000000 0.000000 0.000000
vn -1.000000 0.000000 0.000000
vn -1.000000 0.000000 0.000000
vn -1.000000 0.000000 0.000000
vn -1.000000 -0.000000 0.000000
vn -1.000000 -0.000000 0.000000
vn -1.000000 0.000000 0.000000
vn -1.000000 -0.000000 0.000000
vn -1.000000 -0.000000 0.000000
vn -1.000000 -0.000000 0.000000
vn -1.000000 -0.000000 0.000000
vn -1.000000 -0.000000 0.000000
vn -1.000000 0.000000 0.000000
vn -1.000000 0.000000 0.000000
vn -1.000000 -0.000000 0.000000
vn -1.000000 0.000000 0.000000
vn -1.000000 0.000000 0.000000
vn -1.000000 0.000000 0.000000
vn -1.000000 -0.000000 0.000000
vn -1.000000 -0.000000 0.000000
vn -1.000000 -0.000000 0.000000
vn -1.000000 -0.000000 0.000000
vn -1.000000 -0.000000 0.000000
vn -1.000000 -0.000000 0.000000
vn -1.000000 -0.000000 0.000000
vn -1.000000 -0.000000 0.000000
vn -1.000000 0.000000 0.000000
vn -1.000000 -0.000000 0.000000
vn -1.000000 -0.000000 0.000000
vn -1.000000 -0.000000 0.000000
vn -1.000000 -0.000000 0.000000
vn -1.000000 -0.000000 0.000000
vn -1.000000 -0.000000 0.000000
vn -1.000000 0.000000 0.000000
vn -1.000000 -0.000000 0.000000
vn -1.000000 -0.000000 0.000000
vn -1.000000 0.000000 0.000000
vn -1.000000 0.000000 0.000000
vn -1.000000 -0.000000 0.000000
vn -1.000000 -0.000000 0.000000
vn -1.000000 0.000000 0.000000
vn -1.000000 0.000000 0.000000
vn -1.000000 -0.000000 0.000000
vn -1.000000 0.000000 0.000000
vn -1.000000 0.000000 0.000000
vn -1.000000 0.000000 0.000000
vn -1.000000 0.000000 0.000000
vn -1.000000 -0.000000 0.000000
vn -1.000000 0.000000 0.000000
vn -1.000000 0.000000 0.000000
vn -1.000000 0.000000 0.000000
vn -1.000000 0.000000 0.000000
vn -1.000000 -0.000000 0.000000
vn -1.000000 -0.000000 0.000000
vn -1.000000 0.000000 0.000000
vn -1.000000 -0.000000 0.000000
vn -1.000000 -0.000000 0.000000
vn -1.000000 0.000000 0.000000
vn -1.000000 0.000000 0.000000
vn -1.000000 0.000000 0.000000
vn -1.000000 0.000000 0.000000
vn -1.000000 0.000000 0.000000
vn -1.000000 0.000000 0.000000
vn -1.000000 0.000000 0.000000
vn -1.000000 -0.000000 0.000000
vn -1.000000 -0.000000 0.000000
vn -1.000000 -0.000000 0.000000
vn -1.000000 0.000000 0.000000
vn -1.000000 0.000000 0.000000
vn -1.000000 0.000000 0.000000
vn -1.000000 0.000000 0.000000
vn -1.000000 -0.000000 0.000000
vn -1.000000 -0.000000 0.000000
vn -1.000000 0.000000 0.000000
vn -1.000000 0.000000 0.000000
vn -1.000000 0.000000 0.000000
vn -1.000000 0.000000 0.000000
vn -1.000000 0.000000 0.000000
vn -1.000000 0.000000 0.000000
vn -1.000000 -0.000000 0.000000
vn -1.000000 -0.000000 0.000000
vn -1.000000 0.000000 0.000000
vn -1.000000 0.000000 0.000000
vn -1.000000 -0.000000 0.000000
vn -1.000000 0.000000 0.000000
vn -1.000000 0.000000 0.000000
vn -1.000000 -0.000000 0.000000
vn -1.000000 -0.000000 0.000000
vn -1.000000 -0.000000 0.000000
vn -1.000000 -0.000000 0.000000
vn -1.000000 -0.000000 0.000000
vn -1.000000 -0.000000 0.000000
vn -1.000000 -0.000000 0.000000
vn -1.000000 -0.000000 0.000000
vn -1.000000 0.000000 0.000000
vn 0.000000 1.000000 0.000000
vn 0.000000 1.000000 0.000000
vn 0.000000 1.000000 0.000000
vn 0.000000 1.000000 0.000000
s off
f 1/1/1 2/2/2 4/3/3 3/4/4
f 3/5/5 4/6/6 6/7/7 5/8/8
f 5/9/9 6/10/10 8/11/11 7/12/12
f 2/13/13 8/14/14 6/15/15 4/16/16
f 7/17/17 1/18/18 3/19/19 5/20/20
f 10/21/21 9/22/22 11/23/23 12/24/24
f 26/25/25 25/26/26 27/27/27 28/28/28
f 18/29/29 17/30/30 19/31/31 20/32/32
f 14/33/33 13/34/34 15/35/35 16/36/36
f 22/37/37 21/38/38 23/39/39 24/40/40
f 34/41/41 33/42/42 35/43/43 36/44/44
f 12/45/45 11/46/46 16/47/47 15/48/48
f 37/49/49 38/50/50 17/51/51 18/52/52
f 14/53/53 16/47/54 11/46/55 19/54/56 17/51/57 38/50/58 34/55/59 36/56/60
f 11/46/61 9/57/62 20/58/63 19/54/64
f 39/59/65 40/60/66 21/61/67 22/62/68
f 10/63/69 23/64/70 21/61/71 40/60/72 30/65/73 32/66/74 26/67/75 28/68/76
f 10/63/77 12/45/78 24/69/79 23/64/80
f 30/70/81 29/71/82 31/72/83 32/73/84
f 9/57/85 10/63/86 28/68/87 27/74/88
f 40/60/89 37/49/90 29/75/91 30/65/92
f 9/57/93 27/74/94 25/76/95 31/77/96 29/75/97 37/49/98 18/52/99 20/58/100
f 25/76/101 26/67/102 32/66/103 31/77/104
f 38/50/105 39/59/106 33/78/107 34/55/108
f 13/79/109 35/80/110 33/78/111 39/59/112 22/62/113 24/69/114 12/45/115 15/48/116
f 13/79/117 14/53/118 36/56/119 35/80/120
f 42/81/121 41/82/122 43/83/123 44/84/124
f 58/85/125 57/86/126 59/87/127 60/88/128
f 50/89/129 49/90/130 51/91/131 52/92/132
f 46/93/133 45/94/134 47/95/135 48/96/136
f 54/97/137 53/98/138 55/99/139 56/100/140
f 66/101/141 65/102/142 67/103/143 68/104/144
f 44/105/145 43/106/146 48/107/147 47/108/148
f 69/109/149 70/110/150 49/111/151 50/112/152
f 46/113/153 48/107/154 43/106/155 51/114/156 49/111/157 70/110/158 66/115/159 68/116/160
f 43/106/161 41/117/162 52/118/163 51/114/164
f 71/119/165 72/120/166 53/121/167 54/122/168
f 42/123/169 55/124/170 53/121/171 72/120/172 62/125/173 64/126/174 58/127/175 60/128/176
f 42/123/177 44/105/178 56/129/179 55/124/180
f 62/130/181 61/131/182 63/132/183 64/133/184
f 41/117/185 42/123/186 60/128/187 59/134/188
f 72/120/189 69/109/190 61/135/191 62/125/192
f 41/117/193 59/134/194 57/136/195 63/137/196 61/135/197 69/109/198 50/112/199 52/118/200
f 57/136/201 58/127/202 64/126/203 63/137/204
f 70/110/205 71/119/206 65/138/207 66/115/208
f 45/139/209 67/140/210 65/138/211 71/119/212 54/122/213 56/129/214 44/105/215 47/108/216
f 45/139/217 46/113/218 68/116/219 67/140/220
f 70/141/221 39/142/222 38/143/223 71/144/224
