# This file uses meters as units for non-parametric coordinates.

v -0.814117 0.067918 2.214386
v 0.518509 0.060525 1.504822
v -1.553513 0.067384 0.594269
v -1.201950 0.065423 0.407089
v -1.242874 0.065423 0.330261
v -1.594406 0.067384 0.517456
v -1.751358 0.067918 0.454224
v -1.751663 -0.003440 0.454376
v -0.814438 -0.003440 2.214569
v -0.418716 0.060525 -0.255371
v 0.518204 -0.010833 1.504974
v -0.419022 -0.010833 -0.255188
v 0.287796 0.849274 0.802200
v 1.705757 0.849274 0.802200
v 0.287796 0.849274 -1.131302
v 1.705757 0.849274 -1.131302
v 0.275658 0.009888 -1.132889
v 1.722069 0.009888 -1.132889
v 0.275658 0.009888 0.822861
v 1.722069 0.009888 0.822861
v 0.260368 0.783417 0.334305
v 1.738411 0.783417 0.334305
v 0.260368 0.783417 0.270477
v 1.738411 0.783417 0.270477
v 0.260368 0.005981 0.270477
v 1.738411 0.005981 0.270477
v 0.260368 0.005981 0.334305
v 1.738411 0.005981 0.334305
v 0.260368 0.783417 -0.142731
v 1.738411 0.783417 -0.142731
v 0.260368 0.783417 -0.206558
v 1.738411 0.783417 -0.206558
v 0.260368 0.005981 -0.206558
v 1.738411 0.005981 -0.206558
v 0.260368 0.005981 -0.142731
v 1.738411 0.005981 -0.142731
v 0.260368 0.783417 -0.625397
v 1.738411 0.783417 -0.625397
v 0.260368 0.783417 -0.689224
v 1.738411 0.783417 -0.689224
v 0.260368 0.005981 -0.689224
v 1.738411 0.005981 -0.689224
v 0.260368 0.005981 -0.625397
v 1.738411 0.005981 -0.625397
v 0.241882 0.929291 -2.214554
v 1.751671 0.929291 -2.214554
v 0.241882 0.004425 -2.214554
v 1.751671 0.004425 -2.214554
v 0.241882 0.004425 0.862854
v 1.751671 0.004425 0.862854
v 0.241882 0.810379 0.862854
v 0.241882 0.810379 -2.214554
v 1.751671 0.810379 -2.214554
v 1.751671 0.810379 0.862854
v 0.241882 0.810379 -1.131302
v 0.241882 0.929291 -1.131302
v 1.751671 0.929291 -1.131302
v 1.751671 0.810379 -1.131302
v 1.751671 0.810379 -1.223618
v 1.751671 0.929291 -1.223618
v 0.241882 0.929291 -1.223618
v 0.241882 0.810379 -1.223618
v 0.400162 0.004425 -1.780411
v 1.593376 0.004425 -1.780411
v 1.593376 0.004425 -0.012329
v 0.400162 0.004425 -0.012329
v 0.536873 0.004425 0.744522
v 1.456657 0.004425 0.744522
v 0.536873 0.004425 0.288666
v 1.456657 0.004425 0.288666
v 0.241882 0.849274 0.862854
v 0.241882 0.849274 -1.131302
v 0.241882 0.849274 -1.223618
v 0.241882 0.849274 -2.214554
v 1.751671 0.849274 -2.214554
v 1.751671 0.849274 -1.223618
v 1.751671 0.849289 -1.131302
v 1.751671 0.849289 0.862854
v 0.744865 0.929291 -1.340271
v 0.350494 0.929291 -1.340271
v 0.744865 0.929291 -1.423218
v 0.350494 0.929291 -1.423218
vt 0.140182 0.060732
vt 0.140182 0.060732
vt 0.140182 0.060733
vt 0.140182 0.060733
vt 0.205168 0.063184
vt 0.205168 0.063184
vt 0.205168 0.063184
vt 0.205168 0.063184
vt 0.205168 0.063184
vt 0.205168 0.063184
vt 0.205168 0.063184
vt 0.205168 0.063184
vt 0.178337 0.063184
vt 0.178337 0.063184
vt 0.178337 0.063184
vt 0.178337 0.063184
vt 0.357177 0.445077
vt 0.357177 0.445077
vt 0.357177 0.445077
vt 0.357177 0.445077
vt 0.357177 0.445077
vt 0.357177 0.445077
vt 0.357177 0.445077
vt 0.357177 0.445077
vt 0.201985 0.059970
vt 0.201985 0.059970
vt 0.201985 0.059970
vt 0.201985 0.059970
vt 0.273705 0.441100
vt 0.273705 0.441100
vt 0.273705 0.441099
vt 0.273705 0.441099
vt 0.388743 0.446237
vt 0.388743 0.446237
vt 0.388743 0.446237
vt 0.388743 0.446237
vt 0.357177 0.446237
vt 0.357177 0.446237
vt 0.357177 0.446237
vt 0.357177 0.446237
vt 0.301937 0.446237
vt 0.301937 0.446237
vt 0.301937 0.446237
vt 0.301937 0.446237
vt 0.328768 0.446237
vt 0.328768 0.446237
vt 0.328768 0.446237
vt 0.328768 0.446237
vt 0.328768 0.446237
vt 0.328768 0.446237
vt 0.328768 0.446237
vt 0.328768 0.446237
vt 0.228703 0.476494
vt 0.228703 0.476494
vt 0.228703 0.476494
vt 0.228703 0.476494
vt 0.260269 0.476494
vt 0.260269 0.476494
vt 0.260269 0.476494
vt 0.260269 0.476494
vt 0.228703 0.476494
vt 0.228703 0.476494
vt 0.228703 0.476494
vt 0.228703 0.476494
vt 0.173462 0.476494
vt 0.173462 0.476494
vt 0.173462 0.476494
vt 0.173462 0.476494
vt 0.200293 0.476494
vt 0.200293 0.476494
vt 0.200293 0.476494
vt 0.200293 0.476494
vt 0.200293 0.476494
vt 0.200293 0.476494
vt 0.200293 0.476494
vt 0.200293 0.476494
vt 0.228703 0.476494
vt 0.228703 0.476494
vt 0.228703 0.476494
vt 0.228703 0.476494
vt 0.260269 0.476494
vt 0.260269 0.476494
vt 0.260269 0.476494
vt 0.260269 0.476494
vt 0.228703 0.476494
vt 0.228703 0.476494
vt 0.228703 0.476494
vt 0.228703 0.476494
vt 0.173462 0.476494
vt 0.173462 0.476494
vt 0.173462 0.476494
vt 0.173462 0.476494
vt 0.200293 0.476494
vt 0.200293 0.476494
vt 0.200293 0.476494
vt 0.200293 0.476494
vt 0.200293 0.476494
vt 0.200293 0.476494
vt 0.200293 0.476494
vt 0.200293 0.476494
vt 0.228703 0.476494
vt 0.228703 0.476494
vt 0.228703 0.476494
vt 0.228703 0.476494
vt 0.260269 0.476494
vt 0.260269 0.476494
vt 0.260269 0.476494
vt 0.260269 0.476494
vt 0.228703 0.476494
vt 0.228703 0.476494
vt 0.228703 0.476494
vt 0.228703 0.476494
vt 0.173462 0.476494
vt 0.173462 0.476494
vt 0.173462 0.476494
vt 0.173462 0.476494
vt 0.200293 0.476494
vt 0.200293 0.476494
vt 0.200293 0.476494
vt 0.200293 0.476494
vt 0.200293 0.476494
vt 0.200293 0.476494
vt 0.200293 0.476494
vt 0.200293 0.476494
vt 0.199950 0.063184
vt 0.199950 0.063184
vt 0.199950 0.063184
vt 0.199950 0.063184
vt 0.388743 0.446237
vt 0.388743 0.446237
vt 0.388743 0.446237
vt 0.388743 0.446237
vt 0.236662 0.063184
vt 0.236662 0.063184
vt 0.236662 0.063184
vt 0.236662 0.063184
vt 0.202110 0.060911
vt 0.202110 0.060911
vt 0.202110 0.060911
vt 0.202110 0.060911
vt 0.328768 0.446237
vt 0.328768 0.446237
vt 0.328768 0.446237
vt 0.328768 0.446237
vt 0.328768 0.446237
vt 0.328768 0.446237
vt 0.328768 0.446237
vt 0.328768 0.446237
vt 0.328768 0.446237
vt 0.328768 0.446237
vt 0.328768 0.446237
vt 0.328768 0.446237
vt 0.171541 0.063184
vt 0.171541 0.063184
vt 0.171541 0.063184
vt 0.171541 0.063184
vt 0.231516 0.063184
vt 0.231516 0.063184
vt 0.231516 0.063184
vt 0.231516 0.063184
vt 0.171541 0.063184
vt 0.171541 0.063184
vt 0.171541 0.063184
vt 0.171541 0.063184
vt 0.144709 0.063184
vt 0.144709 0.063184
vt 0.144709 0.063184
vt 0.144709 0.063184
vt 0.171541 0.063184
vt 0.171541 0.063184
vt 0.171541 0.063184
vt 0.171541 0.063184
vt 0.171541 0.063184
vt 0.171541 0.063184
vt 0.171541 0.063184
vt 0.171541 0.063184
vt 0.171541 0.063184
vt 0.171541 0.063184
vt 0.171541 0.063184
vt 0.171541 0.063184
vt 0.140182 0.060733
vt 0.140182 0.060733
vt 0.140182 0.060733
vt 0.140182 0.060733
vt 0.171541 0.063184
vt 0.171541 0.063184
vt 0.171541 0.063184
vt 0.171541 0.063184
vt 0.357177 0.446237
vt 0.357177 0.446237
vt 0.357177 0.446237
vt 0.357177 0.446237
vt 0.357177 0.446237
vt 0.357177 0.446237
vt 0.143410 0.062183
vt 0.143410 0.062183
vt 0.143410 0.062183
vt 0.143410 0.062183
vt 0.357177 0.446237
vt 0.357177 0.446237
vt 0.357177 0.446237
vt 0.357177 0.446237
vt 0.357177 0.446237
vt 0.357177 0.446237
vt 0.171541 0.063184
vt 0.171541 0.063184
vt 0.171541 0.063184
vt 0.171541 0.063184
vt 0.328768 0.446237
vt 0.328768 0.446237
vt 0.328768 0.446237
vt 0.328768 0.446237
vt 0.388743 0.446237
vt 0.388743 0.446237
vt 0.388743 0.446237
vt 0.388743 0.446237
vt 0.328768 0.446237
vt 0.328768 0.446237
vt 0.328768 0.446237
vt 0.328768 0.446237
vt 0.171541 0.063184
vt 0.171541 0.063184
vt 0.171541 0.063184
vt 0.171541 0.063184
vt 0.357177 0.446237
vt 0.357177 0.446237
vt 0.357177 0.446237
vt 0.357177 0.446237
vt 0.357177 0.446237
vt 0.357177 0.446237
vt 0.357177 0.446237
vt 0.357177 0.446237
vt 0.270653 0.441497
vt 0.270653 0.441497
vt 0.270653 0.441497
vt 0.270653 0.441497
vt 0.270653 0.441497
vt 0.270653 0.441497
vt 0.270653 0.441497
vt 0.270653 0.441497
vt 0.140465 0.063572
vt 0.140465 0.063572
vt 0.140465 0.063572
vt 0.140465 0.063572
vn 0.004326 0.999988 -0.002308
vn 0.004319 0.999988 -0.002303
vn 0.004321 0.999988 -0.002287
vn 0.004346 0.999988 -0.002278
vn -0.882660 0.004976 0.469986
vn -0.882660 0.004976 0.469986
vn -0.882660 0.004976 0.469986
vn -0.882660 0.004976 0.469986
vn 0.882662 -0.004880 -0.469983
vn 0.882662 -0.004880 -0.469983
vn 0.882662 -0.004880 -0.469983
vn 0.882662 -0.004880 -0.469983
vn 0.469991 0.000016 0.882671
vn 0.469991 0.000016 0.882671
vn 0.469991 0.000016 0.882671
vn 0.469991 0.000016 0.882671
vn 0.004325 0.999988 -0.002308
vn 0.004322 0.999988 -0.002306
vn 0.004319 0.999988 -0.002303
vn 0.004326 0.999988 -0.002308
vn 0.004322 0.999988 -0.002306
vn 0.004312 0.999988 -0.002295
vn 0.004321 0.999988 -0.002287
vn 0.004319 0.999988 -0.002303
vn 0.004312 0.999988 -0.002295
vn 0.004348 0.999988 -0.002270
vn 0.004346 0.999988 -0.002278
vn 0.004321 0.999988 -0.002287
vn 0.004348 0.999988 -0.002270
vn 0.004325 0.999988 -0.002308
vn 0.004326 0.999988 -0.002308
vn 0.004346 0.999988 -0.002278
vn -0.469989 -0.000066 -0.882672
vn -0.469989 -0.000066 -0.882672
vn -0.469989 -0.000066 -0.882672
vn -0.469989 -0.000066 -0.882672
vn -0.004322 -0.999988 0.002301
vn -0.004322 -0.999988 0.002301
vn -0.004322 -0.999988 0.002301
vn -0.004322 -0.999988 0.002301
vn 0.000000 -0.001891 0.999998
vn 0.000000 -0.001891 0.999998
vn 0.000000 -0.001891 0.999998
vn 0.000000 -0.001891 0.999998
vn 0.000000 1.000000 0.000000
vn 0.000000 1.000000 0.000000
vn 0.000000 1.000000 0.000000
vn 0.000000 1.000000 0.000000
vn 0.000000 -0.024606 -0.999697
vn 0.000000 -0.024606 -0.999697
vn 0.000000 -0.024606 -0.999697
vn 0.000000 -0.024606 -0.999697
vn -0.999811 -0.019429 0.000000
vn -0.999811 -0.019429 0.000000
vn -0.999811 -0.019429 0.000000
vn -0.999811 -0.019429 0.000000
vn 0.999896 -0.014459 0.000000
vn 0.999895 -0.014459 0.000000
vn 0.999896 -0.014459 0.000000
vn 0.999895 -0.014459 0.000000
vn 0.000000 1.000000 0.000000
vn 0.000000 1.000000 0.000000
vn 0.000000 1.000000 0.000000
vn 0.000000 1.000000 0.000000
vn 0.000000 0.000000 -1.000000
vn 0.000000 0.000000 -1.000000
vn 0.000000 0.000000 -1.000000
vn 0.000000 0.000000 -1.000000
vn 0.000000 -1.000000 0.000000
vn 0.000000 -1.000000 0.000000
vn 0.000000 -1.000000 0.000000
vn 0.000000 -1.000000 0.000000
vn 0.000000 0.000000 1.000000
vn 0.000000 0.000000 1.000000
vn 0.000000 0.000000 1.000000
vn 0.000000 0.000000 1.000000
vn 1.000000 0.000000 0.000000
vn 1.000000 0.000000 0.000000
vn 1.000000 0.000000 0.000000
vn 1.000000 0.000000 0.000000
vn -1.000000 0.000000 0.000000
vn -1.000000 0.000000 0.000000
vn -1.000000 0.000000 0.000000
vn -1.000000 0.000000 0.000000
vn 0.000000 1.000000 0.000000
vn 0.000000 1.000000 0.000000
vn 0.000000 1.000000 0.000000
vn 0.000000 1.000000 0.000000
vn 0.000000 0.000000 -1.000000
vn 0.000000 0.000000 -1.000000
vn 0.000000 0.000000 -1.000000
vn 0.000000 0.000000 -1.000000
vn 0.000000 -1.000000 0.000000
vn 0.000000 -1.000000 0.000000
vn 0.000000 -1.000000 0.000000
vn 0.000000 -1.000000 0.000000
vn 0.000000 0.000000 1.000000
vn 0.000000 0.000000 1.000000
vn 0.000000 0.000000 1.000000
vn 0.000000 0.000000 1.000000
vn 1.000000 0.000000 0.000000
vn 1.000000 0.000000 0.000000
vn 1.000000 0.000000 0.000000
vn 1.000000 0.000000 0.000000
vn -1.000000 0.000000 0.000000
vn -1.000000 0.000000 0.000000
vn -1.000000 0.000000 0.000000
vn -1.000000 0.000000 0.000000
vn 0.000000 1.000000 0.000000
vn 0.000000 1.000000 0.000000
vn 0.000000 1.000000 0.000000
vn 0.000000 1.000000 0.000000
vn 0.000000 0.000000 -1.000000
vn 0.000000 0.000000 -1.000000
vn 0.000000 0.000000 -1.000000
vn 0.000000 0.000000 -1.000000
vn 0.000000 -1.000000 0.000000
vn 0.000000 -1.000000 0.000000
vn 0.000000 -1.000000 0.000000
vn 0.000000 -1.000000 0.000000
vn 0.000000 0.000000 1.000000
vn 0.000000 0.000000 1.000000
vn 0.000000 0.000000 1.000000
vn 0.000000 0.000000 1.000000
vn 1.000000 0.000000 0.000000
vn 1.000000 0.000000 0.000000
vn 1.000000 0.000000 0.000000
vn 1.000000 0.000000 0.000000
vn -1.000000 0.000000 0.000000
vn -1.000000 0.000000 0.000000
vn -1.000000 0.000000 0.000000
vn -1.000000 0.000000 0.000000
vn 0.000000 1.000000 0.000000
vn 0.000000 1.000000 0.000000
vn 0.000000 1.000000 0.000000
vn 0.000000 1.000000 0.000000
vn 0.000000 0.000000 -1.000000
vn 0.000000 0.000000 -1.000000
vn 0.000000 0.000000 -1.000000
vn 0.000000 0.000000 -1.000000
vn 0.000000 -1.000000 -0.000000
vn 0.000000 -1.000000 -0.000000
vn 0.000000 -1.000000 0.000000
vn 0.000000 -1.000000 0.000000
vn 0.000000 0.000000 1.000000
vn 0.000000 0.000000 1.000000
vn -0.000000 0.000000 1.000000
vn -0.000000 0.000000 1.000000
vn 1.000000 0.000000 0.000000
vn 1.000000 0.000000 0.000000
vn 1.000000 0.000000 0.000000
vn 1.000000 0.000000 0.000000
vn 1.000000 0.000000 0.000000
vn 1.000000 0.000000 0.000000
vn -1.000000 0.000000 0.000000
vn -1.000000 0.000000 0.000000
vn -1.000000 0.000000 0.000000
vn -1.000000 0.000000 0.000000
vn -1.000000 0.000000 0.000000
vn -1.000000 0.000000 0.000000
vn -1.000000 0.000000 0.000000
vn -1.000000 0.000000 0.000000
vn -1.000000 0.000000 0.000000
vn -1.000000 0.000000 0.000000
vn 0.000000 0.000000 -1.000000
vn 0.000000 0.000000 -1.000000
vn 0.000000 0.000000 -1.000000
vn 0.000000 0.000000 -1.000000
vn 1.000000 0.000000 0.000000
vn 1.000000 0.000000 0.000000
vn 1.000000 0.000000 0.000000
vn 1.000000 0.000000 0.000000
vn -0.000000 0.000000 1.000000
vn -0.000000 0.000000 1.000000
vn -0.000000 0.000000 1.000000
vn -0.000000 0.000000 1.000000
vn -1.000000 0.000000 0.000000
vn -1.000000 0.000000 0.000000
vn -1.000000 0.000000 0.000000
vn -1.000000 0.000000 0.000000
vn 1.000000 0.000000 0.000000
vn 1.000000 0.000000 0.000000
vn 1.000000 0.000000 0.000000
vn 1.000000 0.000000 0.000000
vn 1.000000 0.000000 0.000000
vn 1.000000 0.000000 0.000000
vn 1.000000 0.000000 0.000000
vn 1.000000 0.000000 0.000000
vn 0.000000 1.000000 0.000000
vn 0.000000 1.000000 0.000000
vn 0.000000 1.000000 -0.000000
vn 0.000000 1.000000 -0.000000
vn -1.000000 0.000000 0.000000
vn -1.000000 0.000000 0.000000
vn -1.000000 0.000000 0.000000
vn -1.000000 0.000000 0.000000
vn 0.000000 -1.000000 -0.000000
vn 0.000000 -1.000000 -0.000000
vn 0.000000 -1.000000 -0.000000
vn 0.000000 -1.000000 -0.000000
vn 0.000000 -1.000000 -0.000000
vn 0.000000 -1.000000 0.000000
vn 0.000000 -1.000000 0.000000
vn 0.000000 -1.000000 -0.000000
vn 0.000000 -1.000000 0.000000
vn 0.000000 -1.000000 0.000000
vn 0.000000 -1.000000 0.000000
vn 0.000000 -1.000000 0.000000
vn 0.000000 -1.000000 0.000000
vn 0.000000 -1.000000 -0.000000
vn 0.000000 -1.000000 -0.000000
vn 0.000000 -1.000000 0.000000
vn 0.000000 -1.000000 0.000000
vn 0.000000 -1.000000 0.000000
vn 0.000000 -1.000000 0.000000
vn 0.000000 -1.000000 0.000000
vn 0.000000 -1.000000 0.000000
vn 0.000000 -1.000000 0.000000
vn 0.000000 -1.000000 0.000000
vn 0.000000 -1.000000 0.000000
vn 0.000000 -1.000000 0.000000
vn 0.000000 -1.000000 0.000000
vn 0.000000 -1.000000 0.000000
vn 0.000000 -1.000000 0.000000
vn 0.000000 -1.000000 0.000000
vn 0.000000 -1.000000 0.000000
vn 0.000000 -1.000000 0.000000
vn 0.000000 -1.000000 0.000000
vn -1.000000 0.000000 0.000000
vn -1.000000 0.000000 0.000000
vn -1.000000 0.000000 0.000000
vn -1.000000 0.000000 0.000000
vn -1.000000 0.000000 0.000000
vn -1.000000 0.000000 0.000000
vn -1.000000 0.000000 0.000000
vn -1.000000 0.000000 0.000000
vn 0.000000 0.000000 -1.000000
vn 0.000000 0.000000 -1.000000
vn 0.000000 0.000000 -1.000000
vn 0.000000 0.000000 -1.000000
vn 1.000000 0.000000 0.000000
vn 1.000000 0.000000 0.000000
vn 1.000000 0.000000 0.000000
vn 1.000000 0.000000 0.000000
vn 1.000000 0.000000 0.000000
vn 1.000000 0.000000 0.000000
vn 1.000000 0.000000 0.000000
vn 1.000000 0.000000 0.000000
vn 0.000000 1.000000 0.000000
vn 0.000000 1.000000 0.000000
vn 0.000000 1.000000 0.000000
vn 0.000000 1.000000 0.000000
vn 0.000000 1.000000 0.000000
vn 0.000000 1.000000 -0.000000
vn 0.000000 1.000000 -0.000000
vn 0.000000 1.000000 0.000000
vn 0.000000 1.000000 -0.000000
vn 0.000000 1.000000 -0.000000
vn 0.000000 1.000000 -0.000000
vn 0.000000 1.000000 -0.000000
vn 0.000000 1.000000 -0.000000
vn 0.000000 1.000000 0.000000
vn 0.000000 1.000000 0.000000
vn 0.000000 1.000000 -0.000000
vn 0.000000 1.000000 0.000000
vn -0.000003 1.000000 -0.000073
vn -0.000002 1.000000 -0.000059
vn 0.000000 1.000000 0.000000
vn -0.000141 1.000000 -0.000073
vn -0.000332 1.000000 0.000000
vn -0.000332 1.000000 0.000000
vn -0.000180 1.000000 -0.000059
vn -0.000003 1.000000 -0.000073
vn -0.000141 1.000000 -0.000073
vn -0.000180 1.000000 -0.000059
vn -0.000002 1.000000 -0.000059
vn 0.000000 0.000000 1.000000
vn 0.000000 0.000000 1.000000
vn 0.000000 0.000000 1.000000
vn 0.000000 0.000000 1.000000
s off
f 3/1/1 4/2/2 5/3/3 6/4/4
f 7/5/5 8/6/6 9/7/7 1/8/8
f 2/9/9 11/10/10 12/11/11 10/12/12
f 9/13/13 11/14/14 2/15/15 1/16/16
f 1/17/17 2/18/18 4/19/19 3/20/20
f 2/18/21 10/21/22 5/22/23 4/19/24
f 10/21/25 7/23/26 6/24/27 5/22/28
f 7/23/29 1/17/30 3/20/31 6/24/32
f 7/25/33 10/26/34 12/27/35 8/28/36
f 8/29/37 12/30/38 11/31/39 9/32/40
f 15/33/41 17/34/42 18/35/43 16/36/44
f 17/37/45 19/38/46 20/39/47 18/40/48
f 19/41/49 13/42/50 14/43/51 20/44/52
f 14/45/53 16/46/54 18/47/55 20/48/56
f 19/49/57 17/50/58 15/51/59 13/52/60
f 21/53/61 22/54/62 24/55/63 23/56/64
f 23/57/65 24/58/66 26/59/67 25/60/68
f 25/61/69 26/62/70 28/63/71 27/64/72
f 27/65/73 28/66/74 22/67/75 21/68/76
f 22/69/77 28/70/78 26/71/79 24/72/80
f 27/73/81 21/74/82 23/75/83 25/76/84
f 29/77/85 30/78/86 32/79/87 31/80/88
f 31/81/89 32/82/90 34/83/91 33/84/92
f 33/85/93 34/86/94 36/87/95 35/88/96
f 35/89/97 36/90/98 30/91/99 29/92/100
f 30/93/101 36/94/102 34/95/103 32/96/104
f 35/97/105 29/98/106 31/99/107 33/100/108
f 37/101/109 38/102/110 40/103/111 39/104/112
f 39/105/113 40/106/114 42/107/115 41/108/116
f 41/109/117 42/110/118 44/111/119 43/112/120
f 43/113/121 44/114/122 38/115/123 37/116/124
f 38/117/125 44/118/126 42/119/127 40/120/128
f 43/121/129 37/122/130 39/123/131 41/124/132
f 56/125/133 57/126/134 60/127/135 61/128/136
f 52/129/137 53/130/138 48/131/139 47/132/140
f 63/133/141 64/134/142 65/135/143 66/136/144
f 49/137/145 50/138/146 54/139/147 51/140/148
f 53/141/149 59/142/150 58/143/151 54/144/152 50/145/153 48/146/154
f 49/147/155 51/148/156 55/149/157 62/150/158 52/151/159 47/152/160
f 72/153/161 73/154/162 62/155/163 55/156/164
f 74/157/165 75/158/166 53/159/167 52/160/168
f 76/161/169 77/162/170 58/163/171 59/164/172
f 51/165/173 54/166/174 78/167/175 71/168/176
f 71/169/177 72/170/178 55/171/179 51/172/180
f 77/173/181 78/174/182 54/175/183 58/176/184
f 75/177/185 76/178/186 59/179/187 53/180/188
f 80/181/189 79/182/190 81/183/191 82/184/192
f 52/185/193 62/186/194 73/187/195 74/188/196
f 47/189/197 48/190/198 64/191/199 63/192/200
f 48/190/201 50/193/202 65/194/203 64/191/204
f 68/195/205 67/196/206 69/197/207 70/198/208
f 49/199/209 47/189/210 63/192/211 66/200/212
f 50/193/213 49/199/214 67/201/215 68/202/216
f 49/199/217 66/200/218 69/203/219 67/201/220
f 66/200/221 65/194/222 70/204/223 69/203/224
f 65/194/225 50/193/226 68/202/227 70/204/228
f 61/205/229 73/206/230 72/207/231 56/208/232
f 74/209/233 73/210/234 61/211/235 45/212/236
f 45/213/237 46/214/238 75/215/239 74/216/240
f 60/217/241 76/218/242 75/219/243 46/220/244
f 57/221/245 77/222/246 76/223/247 60/224/248
f 61/225/249 60/226/250 79/227/251 80/228/252
f 60/226/253 46/229/254 81/230/255 79/227/256
f 46/229/257 45/231/258 82/232/259 81/230/260
f 45/231/261 61/225/262 80/228/263 82/232/264
f 72/233/265 71/234/266 13/235/267 15/236/268
f 78/237/269 77/238/270 16/239/271 14/240/272
f 71/234/273 78/237/274 14/240/275 13/235/276
f 57/241/277 56/242/278 72/243/279 77/244/280
