# This file uses meters as units for non-parametric coordinates.

v 0.150819 0.078824 0.150819
v 0.150819 0.078824 -0.150819
v 0.150819 1.531464 0.150819
v 0.150819 1.531464 -0.150819
v -0.150819 1.531464 0.150819
v -0.150819 1.531464 -0.150819
v -0.150819 0.078824 0.150819
v -0.150819 0.078824 -0.150819
v -0.075676 0.029500 0.075713
v -0.075676 0.029500 -0.075741
v 0.075713 0.029500 -0.075741
v 0.075713 0.029500 0.075713
v -0.075676 0.003917 0.075713
v -0.075676 0.003917 -0.075741
v 0.075713 0.003917 -0.075741
v 0.075713 0.003917 0.075713
v 0.075096 1.577845 0.075060
v 0.075096 1.577845 -0.075087
v -0.075087 1.577845 -0.075087
v -0.075087 1.577845 0.075060
v 0.075096 1.654557 0.075060
v 0.075096 1.654557 -0.075087
v -0.075087 1.654557 -0.075087
v -0.075087 1.654557 0.075060
v 0.059806 1.654557 0.059788
v 0.059806 1.654557 -0.059797
v -0.059760 1.654557 -0.059797
v -0.059760 1.654557 0.059788
v 0.059806 1.586267 0.059788
v 0.059806 1.586267 -0.059797
v -0.059760 1.586267 -0.059797
v -0.059760 1.586267 0.059788
v 0.030442 1.586267 0.030442
v 0.030442 1.586267 -0.030469
v -0.030442 1.586267 -0.030469
v -0.030442 1.586267 0.030442
v 0.030442 1.597427 0.030442
v 0.030442 1.597427 -0.030469
v -0.030442 1.597427 -0.030469
v -0.030442 1.597427 0.030442
v 0.019478 1.597427 0.019469
v 0.019478 1.597427 -0.019497
v -0.019478 1.597427 -0.019497
v -0.019478 1.597427 0.019469
v 0.019478 1.635596 0.019469
v 0.019478 1.635596 -0.019497
v -0.019478 1.635596 -0.019497
v -0.019478 1.635596 0.019469
v -0.119890 1.150393 0.150819
v 0.004105 1.026406 0.150819
v 0.119899 1.142211 0.150819
v -0.004086 1.266197 0.150819
v -0.095664 1.149566 0.150819
v 0.003268 1.050630 0.150819
v 0.095673 1.143037 0.150819
v -0.003259 1.241973 0.150819
vt 0.240175 0.480885
vt 0.240175 0.480885
vt 0.240175 0.480885
vt 0.266343 0.480885
vt 0.295316 0.480885
vt 0.240175 0.480885
vt 0.240175 0.480885
vt 0.266343 0.480885
vt 0.240175 0.480885
vt 0.266343 0.480885
vt 0.240175 0.480885
vt 0.295316 0.480885
vt 0.240175 0.480885
vt 0.295316 0.480885
vt 0.240175 0.480885
vt 0.240175 0.480885
vt 0.295316 0.480885
vt 0.240175 0.480885
vt 0.240175 0.480885
vt 0.266343 0.480885
vt 0.247651 0.480885
vt 0.247651 0.480885
vt 0.247651 0.480885
vt 0.266343 0.477147
vt 0.295316 0.480885
vt 0.247651 0.480885
vt 0.247651 0.480885
vt 0.266343 0.477147
vt 0.247651 0.480885
vt 0.266343 0.477147
vt 0.247651 0.480885
vt 0.295316 0.480885
vt 0.247651 0.480885
vt 0.295316 0.480885
vt 0.295316 0.480885
vt 0.247651 0.480885
vt 0.247651 0.480885
vt 0.295316 0.480885
vt 0.295316 0.480885
vt 0.247651 0.480885
vt 0.295316 0.480885
vt 0.247651 0.480885
vt 0.295316 0.480885
vt 0.266343 0.477147
vt 0.144064 0.180492
vt 0.144064 0.180492
vt 0.144064 0.180492
vt 0.144064 0.180492
vt 0.295316 0.480885
vt 0.295316 0.480885
vt 0.295316 0.480885
vt 0.295316 0.480885
vt 0.144064 0.180492
vt 0.144064 0.180492
vt 0.144064 0.180492
vt 0.144064 0.180492
vt 0.144064 0.180492
vt 0.144064 0.180492
vt 0.144064 0.180492
vt 0.144064 0.180492
vt 0.177709 0.180492
vt 0.177709 0.180492
vt 0.177709 0.180492
vt 0.177709 0.180492
vt 0.108549 0.180492
vt 0.108549 0.180492
vt 0.108549 0.180492
vt 0.108549 0.180492
vt 0.142195 0.180492
vt 0.142195 0.180492
vt 0.142195 0.180492
vt 0.142195 0.180492
vt 0.108549 0.180492
vt 0.108549 0.180492
vt 0.108549 0.180492
vt 0.108549 0.180492
vt 0.142195 0.180492
vt 0.142195 0.180492
vt 0.142195 0.180492
vt 0.142195 0.180492
vt 0.144064 0.180492
vt 0.144064 0.180492
vt 0.177709 0.180492
vt 0.177709 0.180492
vt 0.177709 0.180492
vt 0.177709 0.180492
vt 0.144064 0.180492
vt 0.144064 0.180492
vt 0.177709 0.180492
vt 0.177709 0.180492
vt 0.177709 0.180492
vt 0.177709 0.180492
vt 0.169298 0.180492
vt 0.169298 0.180492
vt 0.169298 0.180492
vt 0.169298 0.180492
vt 0.202944 0.180492
vt 0.202944 0.180492
vt 0.202944 0.180492
vt 0.202944 0.180492
vt 0.169298 0.180492
vt 0.169298 0.180492
vt 0.169298 0.180492
vt 0.169298 0.180492
vt 0.202944 0.180492
vt 0.202944 0.180492
vt 0.202944 0.180492
vt 0.202944 0.180492
vt 0.144064 0.180492
vt 0.144064 0.180492
vt 0.144064 0.180492
vt 0.144064 0.180492
vt 0.177709 0.180492
vt 0.177709 0.180492
vt 0.177709 0.180492
vt 0.177709 0.180492
vt 0.144064 0.180492
vt 0.144064 0.180492
vt 0.144064 0.180492
vt 0.144064 0.180492
vt 0.264481 0.183560
vt 0.264481 0.183560
vt 0.264481 0.183560
vt 0.264481 0.183560
vt 0.264481 0.183560
vt 0.264481 0.183560
vt 0.264481 0.183560
vt 0.264481 0.183560
vt 0.264481 0.183560
vt 0.264481 0.183560
vt 0.264481 0.183560
vt 0.264481 0.183560
vt 0.076773 0.180492
vt 0.076773 0.180492
vt 0.076773 0.180492
vt 0.076773 0.180492
vt 0.052473 0.180492
vt 0.052473 0.180492
vt 0.052473 0.180492
vt 0.052473 0.180492
vt 0.076773 0.180492
vt 0.076773 0.180492
vt 0.076773 0.180492
vt 0.076773 0.180492
vt 0.264481 0.183560
vt 0.264481 0.183560
vt 0.264481 0.183560
vt 0.264481 0.183560
vt 0.177709 0.180492
vt 0.177709 0.180492
vt 0.177709 0.180492
vt 0.177709 0.180492
vt 0.240175 0.480885
vt 0.240175 0.480885
vt 0.240175 0.480885
vt 0.240175 0.480885
vt 0.240175 0.480885
vt 0.240175 0.480885
vt 0.240175 0.480885
vt 0.240175 0.480885
vt 0.240175 0.480885
vt 0.240175 0.480885
vt 0.240175 0.480885
vt 0.240175 0.480885
vt 0.266343 0.480885
vt 0.266343 0.480885
vt 0.266343 0.480885
vt 0.266343 0.480885
vt 0.206682 0.180492
vt 0.206682 0.180492
vt 0.206682 0.180492
vt 0.206682 0.180492
vt 0.107615 0.180492
vt 0.107615 0.180492
vt 0.107615 0.180492
vt 0.107615 0.180492
vt 0.107615 0.180492
vt 0.107615 0.180492
vt 0.107615 0.180492
vt 0.107615 0.180492
vt 0.295316 0.480885
vt 0.295316 0.480885
vt 0.295316 0.480885
vt 0.295316 0.480885
vt 0.295316 0.480885
vt 0.295316 0.480885
vt 0.295316 0.480885
vt 0.295316 0.480885
vt 0.247651 0.480885
vt 0.247651 0.480885
vt 0.247651 0.480885
vt 0.247651 0.480885
vt 0.247651 0.480885
vt 0.247651 0.480885
vt 0.247651 0.480885
vt 0.247651 0.480885
vt 0.247651 0.480885
vt 0.247651 0.480885
vt 0.247651 0.480885
vt 0.247651 0.480885
vt 0.266343 0.477147
vt 0.266343 0.477147
vt 0.266343 0.477147
vt 0.266343 0.477147
vt 0.177709 0.180492
vt 0.177709 0.180492
vt 0.177709 0.180492
vt 0.177709 0.180492
vt 0.389717 0.037324
vt 0.389717 0.037324
vt 0.389717 0.037324
vt 0.389717 0.037324
vt 0.301933 0.221758
vt 0.301933 0.221758
vt 0.301933 0.221758
vt 0.301933 0.221758
vt 0.389717 0.037324
vt 0.389717 0.037324
vt 0.389717 0.037324
vt 0.389717 0.037324
vn 0.000000 -1.000000 0.000000
vn 0.000000 -1.000000 0.000000
vn 0.000000 -1.000000 0.000000
vn 0.000000 -1.000000 0.000000
vn -1.000000 0.000000 0.000000
vn -1.000000 0.000000 0.000000
vn -1.000000 0.000000 0.000000
vn -1.000000 0.000000 0.000000
vn 0.000000 0.000000 1.000000
vn 0.000000 0.000000 1.000000
vn 0.000000 0.000000 1.000000
vn 0.000000 0.000000 1.000000
vn 1.000000 0.000000 0.000000
vn 1.000000 0.000000 0.000000
vn 1.000000 0.000000 0.000000
vn 1.000000 0.000000 0.000000
vn 0.000000 0.000000 -1.000000
vn 0.000000 0.000000 -1.000000
vn 0.000000 0.000000 -1.000000
vn 0.000000 0.000000 -1.000000
vn 0.000000 -1.000000 0.000000
vn 0.000000 -1.000000 0.000000
vn 0.000000 -1.000000 0.000000
vn 0.000000 -1.000000 0.000000
vn 0.000000 -1.000000 0.000000
vn 0.000000 -1.000000 0.000000
vn 0.000000 -1.000000 0.000000
vn 0.000000 -1.000000 0.000000
vn 0.000000 -1.000000 -0.000001
vn 0.000000 -1.000000 -0.000001
vn 0.000000 -1.000000 -0.000001
vn 0.000000 -1.000000 -0.000001
vn 0.000000 -1.000000 0.000000
vn 0.000000 -1.000000 0.000000
vn 0.000000 -1.000000 0.000000
vn 0.000000 -1.000000 0.000000
vn -1.000000 0.000000 0.000000
vn -1.000000 0.000000 0.000000
vn -1.000000 0.000000 0.000000
vn -1.000000 0.000000 0.000000
vn 0.000000 0.000000 1.000000
vn 0.000000 0.000000 1.000000
vn 0.000000 0.000000 1.000000
vn 0.000000 0.000000 1.000000
vn 1.000000 0.000000 0.000000
vn 1.000000 0.000000 0.000000
vn 1.000000 0.000000 0.000000
vn 1.000000 0.000000 0.000000
vn 0.000000 0.000000 -1.000000
vn 0.000000 0.000000 -1.000000
vn 0.000000 0.000000 -1.000000
vn 0.000000 0.000000 -1.000000
vn 1.000000 0.000000 -0.000000
vn 1.000000 0.000000 -0.000000
vn 1.000000 0.000000 -0.000000
vn 1.000000 0.000000 -0.000000
vn 0.000000 1.000000 0.000000
vn 0.000000 1.000000 0.000000
vn 0.000000 1.000000 0.000000
vn 0.000000 1.000000 0.000000
vn -1.000000 0.000000 0.000000
vn -1.000000 0.000000 0.000000
vn -1.000000 0.000000 0.000000
vn -1.000000 0.000000 0.000000
vn 0.000000 -1.000000 0.000000
vn 0.000000 -1.000000 0.000000
vn 0.000000 -1.000000 0.000000
vn 0.000000 -1.000000 0.000000
vn 0.000000 0.000000 -1.000000
vn 0.000000 0.000000 -1.000000
vn 0.000000 0.000000 -1.000000
vn 0.000000 0.000000 -1.000000
vn -0.548741 -0.835993 0.000000
vn -0.548741 -0.835993 0.000000
vn -0.548741 -0.835993 0.000000
vn -0.548741 -0.835993 0.000000
vn 0.000000 -0.835777 -0.549070
vn 0.000000 -0.835777 -0.549070
vn 0.000000 -0.835777 -0.549070
vn 0.000000 -0.835777 -0.549070
vn 0.548929 -0.835869 -0.000000
vn 0.548929 -0.835869 -0.000000
vn 0.548929 -0.835869 -0.000000
vn 0.548929 -0.835869 -0.000000
vn 0.000000 -0.835869 0.548929
vn 0.000000 -0.835869 0.548929
vn 0.000000 -0.835869 0.548929
vn 0.000000 -0.835869 0.548929
vn -1.000000 0.000000 0.000000
vn -1.000000 0.000000 0.000000
vn -1.000000 0.000000 0.000000
vn -1.000000 0.000000 0.000000
vn 0.000000 0.000000 -1.000000
vn 0.000000 0.000000 -1.000000
vn 0.000000 0.000000 -1.000000
vn 0.000000 0.000000 -1.000000
vn 1.000000 0.000000 0.000000
vn 1.000000 0.000000 0.000000
vn 1.000000 0.000000 0.000000
vn 1.000000 0.000000 0.000000
vn 0.000000 0.000000 1.000000
vn 0.000000 0.000000 1.000000
vn 0.000000 0.000000 1.000000
vn 0.000000 0.000000 1.000000
vn 0.522323 0.852748 0.000000
vn 0.522323 0.852748 0.000000
vn 0.522323 0.852748 0.000000
vn 0.522323 0.852748 0.000000
vn -0.000000 0.852776 -0.522276
vn -0.000000 0.852777 -0.522276
vn -0.000000 0.852776 -0.522276
vn -0.000000 0.852776 -0.522276
vn -0.522276 0.852776 0.000000
vn -0.522276 0.852776 0.000000
vn -0.522276 0.852776 0.000000
vn -0.522276 0.852776 0.000000
vn 0.000000 0.852861 0.522138
vn 0.000000 0.852861 0.522138
vn 0.000000 0.853854 0.520513
vn 0.000000 0.853853 0.520515
vn 1.000000 0.000000 -0.000000
vn 1.000000 0.000000 -0.000000
vn 1.000000 0.000000 -0.000000
vn 1.000000 0.000000 -0.000000
vn -0.000001 0.000000 -1.000000
vn -0.000001 0.000000 -1.000000
vn -0.000001 0.000000 -1.000000
vn -0.000001 0.000000 -1.000000
vn -1.000000 0.000000 0.000000
vn -1.000000 0.000000 0.000000
vn -1.000000 0.000000 0.000000
vn -1.000000 0.000000 0.000000
vn 0.000000 1.000000 0.000000
vn 0.000000 1.000000 0.000001
vn 0.000000 1.000000 0.000001
vn 0.000000 1.000000 0.000000
vn 0.000000 1.000000 0.000001
vn 0.000000 1.000000 0.000001
vn 0.000000 1.000000 0.000001
vn 0.000000 1.000000 0.000001
vn 0.000000 1.000000 0.000001
vn 0.000000 1.000000 0.000000
vn 0.000000 1.000000 0.000000
vn 0.000000 1.000000 0.000001
vn -1.000000 0.000000 0.000000
vn -1.000000 0.000000 0.000000
vn -1.000000 0.000000 0.000000
vn -1.000000 0.000000 0.000000
vn 0.000000 0.000000 1.000000
vn 0.000000 0.000000 1.000000
vn 0.000000 0.000000 1.000000
vn 0.000000 0.000000 1.000000
vn 1.000000 0.000000 0.000000
vn 1.000000 0.000000 0.000000
vn 1.000000 0.000000 0.000000
vn 1.000000 0.000000 0.000000
vn 0.000000 1.000000 -0.000001
vn 0.000000 1.000000 0.000002
vn 0.000000 1.000000 0.000002
vn 0.000000 1.000000 -0.000001
vn 0.000000 1.000000 0.000002
vn 0.000000 1.000000 0.000002
vn 0.000000 1.000000 0.000002
vn 0.000000 1.000000 0.000002
vn 0.000000 1.000000 0.000002
vn 0.000000 1.000000 -0.000001
vn 0.000000 1.000000 -0.000001
vn 0.000000 1.000000 0.000002
vn 0.000000 1.000000 -0.000001
vn 0.000000 1.000000 -0.000001
vn 0.000000 1.000000 -0.000001
vn 0.000000 1.000000 -0.000001
vn 1.000000 0.000000 0.000000
vn 1.000000 0.000000 0.000000
vn 1.000000 0.000000 0.000000
vn 1.000000 0.000000 0.000000
vn 0.000000 0.000000 -1.000000
vn 0.000000 0.000000 -1.000000
vn 0.000000 0.000000 -1.000000
vn 0.000000 0.000000 -1.000000
vn -1.000000 0.000000 -0.000000
vn -1.000000 0.000000 -0.000000
vn -1.000000 0.000000 -0.000000
vn -1.000000 0.000000 -0.000000
vn 0.000000 0.000000 1.000000
vn 0.000000 0.000000 1.000000
vn 0.000000 0.000000 1.000000
vn 0.000000 0.000000 1.000000
vn 0.000000 0.875670 0.482911
vn 0.000000 0.875669 0.482911
vn 0.000000 0.853853 0.520515
vn 0.000000 0.853854 0.520513
vn 0.705831 0.000000 0.708381
vn 0.705831 0.000000 0.708381
vn 0.705831 0.000000 0.708381
vn 0.705831 0.000000 0.708381
vn -0.706684 0.000000 0.707529
vn -0.706684 0.000000 0.707529
vn -0.706684 0.000000 0.707529
vn -0.706684 0.000000 0.707529
vn 0.000000 1.000000 0.000000
vn 0.000000 1.000000 0.000000
vn 0.000000 1.000000 0.000000
vn 0.000000 1.000000 0.000000
vn 0.000000 1.000000 0.000003
vn 0.000000 1.000000 0.000003
vn 0.000000 1.000000 0.000003
vn 0.000000 1.000000 0.000003
vn 0.000000 1.000000 0.000000
vn 0.000000 1.000000 0.000000
vn 0.000000 1.000000 0.000000
vn 0.000000 1.000000 0.000000
vn 0.000000 1.000000 -0.000003
vn 0.000000 1.000000 -0.000003
vn 0.000000 1.000000 -0.000003
vn 0.000000 1.000000 -0.000003
vn 1.000000 0.000000 0.000000
vn 1.000000 0.000000 0.000000
vn 1.000000 0.000000 0.000000
vn 1.000000 0.000000 0.000000
vn 0.000000 0.000000 -1.000000
vn 0.000000 0.000000 -1.000000
vn 0.000000 0.000000 -1.000000
vn 0.000000 0.000000 -1.000000
vn -1.000000 0.000000 0.000000
vn -1.000000 0.000000 0.000000
vn -1.000000 0.000000 0.000000
vn -1.000000 0.000000 0.000000
vn 0.000000 0.000000 1.000000
vn 0.000000 0.000000 1.000000
vn 0.000000 0.000000 1.000000
vn 0.000000 0.000000 1.000000
vn -0.000000 0.000000 1.000000
vn 0.000000 0.000000 1.000000
vn 0.000000 0.000000 1.000000
vn -0.000000 0.000000 1.000000
vn 0.000000 0.000000 1.000000
vn 0.000000 0.000000 1.000000
vn 0.000000 0.000000 1.000000
vn 0.000000 0.000000 1.000000
vn 0.000000 0.000000 1.000000
vn 0.000000 0.000000 1.000000
vn 0.000000 0.000000 1.000000
vn 0.000000 0.000000 1.000000
vn 0.000000 0.000000 1.000000
vn 0.000000 0.000000 1.000000
vn -0.000000 0.000000 1.000000
vn 0.000000 0.000000 1.000000
vn 0.000000 0.000000 1.000000
vn 0.000000 0.000000 1.000000
vn 0.000000 0.000000 1.000000
vn -0.000000 0.000000 1.000000
vn 0.000000 0.000000 1.000000
vn 0.000000 0.000000 1.000000
vn 0.000000 0.000000 1.000000
vn -0.000000 0.000000 1.000000
vn 0.000000 0.000000 1.000000
vn 0.000000 0.000000 1.000000
vn 0.000000 0.000000 1.000000
vn 0.000000 0.000000 1.000000
vn 0.000000 0.000000 1.000000
vn -0.000000 0.000000 1.000000
vn -0.000000 0.000000 1.000000
vn 0.000000 0.000000 1.000000
vn -0.000000 0.000000 1.000000
vn 0.000000 0.000000 1.000000
vn -0.000000 0.000000 1.000000
vn -0.000000 0.000000 1.000000
s off
f 45/25/1 48/32/2 47/34/3 46/38/4
f 33/1/5 37/9/6 38/16/7 34/19/8
f 34/2/9 38/6/10 39/13/11 35/18/12
f 35/3/13 39/7/14 40/11/15 36/15/16
f 36/4/17 40/8/18 37/10/19 33/20/20
f 37/5/21 41/43/22 42/41/23 38/17/24
f 38/17/25 42/41/26 43/39/27 39/14/28
f 39/14/29 43/39/30 44/35/31 40/12/32
f 40/12/33 44/35/34 41/43/35 37/5/36
f 41/21/37 45/29/38 46/37/39 42/42/40
f 42/22/41 46/26/42 47/33/43 43/40/44
f 43/23/45 47/27/46 48/31/47 44/36/48
f 44/24/49 48/28/50 45/30/51 41/44/52
f 1/45/53 2/46/54 4/47/55 3/48/56
f 45/49/57 46/50/58 47/51/59 48/52/60
f 5/53/61 6/54/62 8/55/63 7/56/64
f 13/57/65 14/58/66 15/59/67 16/60/68
f 2/61/69 8/62/70 6/63/71 4/64/72
f 7/65/73 8/66/74 10/67/75 9/68/76
f 8/69/77 2/70/78 11/71/79 10/72/80
f 2/73/81 1/74/82 12/75/83 11/76/84
f 1/77/85 7/78/86 9/79/87 12/80/88
f 9/81/89 10/82/90 14/58/91 13/57/92
f 10/83/93 11/84/94 15/85/95 14/86/96
f 11/87/97 12/88/98 16/60/99 15/59/100
f 12/89/101 9/90/102 13/91/103 16/92/104
f 3/93/105 4/94/106 18/95/107 17/96/108
f 4/97/109 6/98/110 19/99/111 18/100/112
f 6/101/113 5/102/114 20/103/115 19/104/116
f 5/105/117 3/106/118 17/107/119 20/108/120
f 17/109/121 18/110/122 22/111/123 21/112/124
f 18/113/125 19/114/126 23/115/127 22/116/128
f 19/117/129 20/118/130 24/119/131 23/120/132
f 21/121/133 22/122/134 26/123/135 25/124/136
f 22/122/137 23/125/138 27/126/139 26/123/140
f 23/125/141 24/127/142 28/128/143 27/126/144
f 25/133/145 26/134/146 30/135/147 29/136/148
f 26/137/149 27/138/150 31/139/151 30/140/152
f 27/141/153 28/142/154 32/143/155 31/144/156
f 29/129/157 30/130/158 34/131/159 33/132/160
f 30/130/161 31/145/162 35/146/163 34/131/164
f 31/145/165 32/147/166 36/148/167 35/146/168
f 32/147/169 29/129/170 33/132/171 36/148/172
f 33/153/173 34/154/174 38/155/175 37/156/176
f 34/157/177 35/158/178 39/159/179 38/160/180
f 35/161/181 36/162/182 40/163/183 39/164/184
f 36/165/185 33/166/186 37/167/187 40/168/188
f 29/169/189 32/170/190 20/171/191 17/172/192
f 32/173/193 28/174/194 24/175/195 20/176/196
f 25/177/197 29/178/198 17/179/199 21/180/200
f 37/181/201 38/182/202 42/183/203 41/184/204
f 38/182/205 39/185/206 43/186/207 42/183/208
f 39/185/209 40/187/210 44/188/211 43/186/212
f 40/187/213 37/181/214 41/184/215 44/188/216
f 41/189/217 42/190/218 46/191/219 45/192/220
f 42/193/221 43/194/222 47/195/223 46/196/224
f 43/197/225 44/198/226 48/199/227 47/200/228
f 44/201/229 41/202/230 45/203/231 48/204/232
f 53/213/233 54/214/234 55/215/235 56/216/236
f 7/152/237 1/151/238 50/206/239 49/205/240
f 1/151/241 3/150/242 51/207/243 50/206/244
f 3/150/245 5/149/246 52/208/247 51/207/248
f 5/149/249 7/152/250 49/205/251 52/208/252
f 49/209/253 50/210/254 54/211/255 53/212/256
f 50/210/257 51/217/258 55/218/259 54/211/260
f 51/217/261 52/219/262 56/220/263 55/218/264
f 52/219/265 49/209/266 53/212/267 56/220/268
