# This file uses meters as units for non-parametric coordinates.

v -0.132889 3.108414 2.796852
v -0.132889 3.219069 0.069031
v -0.132889 2.988204 2.784546
v -0.132889 3.098859 0.056717
v -0.012268 2.988204 2.784546
v -0.012268 3.098859 0.056717
v -0.012268 3.108414 2.796852
v -0.012268 3.219069 0.069031
v 0.942375 0.156491 4.314625
v -2.030769 0.191730 5.875366
v 0.946533 -0.000386 4.331940
v -2.026619 0.034852 5.892681
v 0.884781 -0.014967 4.154610
v -2.088364 0.020273 5.715355
v 0.880630 0.141911 4.137299
v -2.092522 0.177150 5.698040
v 0.000000 0.000000 0.178474
v 0.000000 3.232978 0.178474
v -0.145157 0.000000 0.178474
v -0.145157 3.232978 0.178474
v -0.145157 0.000000 0.000000
v -0.145157 3.232978 0.000000
v 0.000000 0.000000 0.000000
v 0.000000 3.232978 0.000000
v -0.036835 1.100055 0.097832
v -0.108322 1.100055 0.097832
v -0.108322 1.049509 0.035679
v -0.036835 1.049509 0.035679
v -0.036835 2.094557 0.097832
v -0.108322 2.094557 0.097832
v -0.108322 2.044010 0.035679
v -0.036835 2.044010 0.035679
v -0.036835 2.626936 0.097832
v -0.108322 2.626936 0.097832
v -0.108322 2.576389 0.035679
v -0.036835 2.576389 0.035679
v -0.036835 3.172622 0.097832
v -0.108322 3.172622 0.097832
v -0.108322 3.122076 0.035679
v -0.036835 3.122076 0.035679
v -0.108322 0.127286 0.035679
v -0.036835 0.127286 0.035679
v -0.036835 0.076739 0.097832
v -0.108322 0.076739 0.097832
v -0.108322 1.121787 0.035679
v -0.036835 1.121787 0.035679
v -0.036835 1.071241 0.097832
v -0.108322 1.071241 0.097832
v -0.108322 2.199853 0.035679
v -0.036835 2.199853 0.035679
v -0.036835 2.149306 0.097832
v -0.108322 2.149306 0.097832
v -0.036835 3.060295 1.337215
v -0.108322 3.060295 1.337215
v -0.108322 3.110841 1.399368
v -0.036835 3.110841 1.399368
v -0.036835 3.087369 2.452438
v -0.108322 3.087369 2.452438
v -0.108322 3.036823 2.514587
v -0.036835 3.036823 2.514587
v -0.036835 3.115177 1.161106
v -0.108322 3.115177 1.161106
v -0.108322 3.064631 1.223259
v -0.036835 3.064631 1.223259
v -0.108322 -0.038292 2.595951
v -0.108322 0.012255 2.658100
v -0.036835 0.012255 2.658100
v -0.036835 -0.038292 2.595951
v -0.108322 -0.013332 1.342484
v -0.108322 0.037214 1.404633
v -0.036835 0.037214 1.404633
v -0.036835 -0.013332 1.342484
v -0.036835 0.024440 1.134800
v -0.108322 0.024440 1.134800
v -0.108322 -0.026107 1.196953
v -0.036835 -0.026107 1.196953
v -0.108322 2.444587 2.094254
v -0.108322 2.495134 2.156403
v -0.036835 2.495134 2.156403
v -0.036835 2.444587 2.094254
v -0.036835 1.985486 1.557457
v -0.108322 1.985486 1.557457
v -0.108322 1.934939 1.495312
v -0.036835 1.934939 1.495312
v -0.036835 1.358536 1.673847
v -0.036835 1.409083 1.611698
v -0.108322 1.409083 1.611698
v -0.108322 1.358536 1.673847
v -0.036835 0.775470 1.595398
v -0.036835 0.826016 1.657551
v -0.108322 0.826016 1.657551
v -0.108322 0.775470 1.595398
v -0.108322 0.210308 2.290283
v -0.108322 0.260855 2.352436
v -0.036835 0.260855 2.352436
v -0.036835 0.210308 2.290283
v -0.108322 0.305927 1.605202
v -0.036835 0.305927 1.605202
v -0.036835 0.356474 1.543049
v -0.108322 0.356474 1.543049
vt 0.202599 0.061306
vt 0.235986 0.061306
vt 0.267953 0.061306
vt 0.334453 0.064892
vt 0.235986 0.061306
vt 0.267953 0.061306
vt 0.267953 0.061306
vt 0.235986 0.061306
vt 0.267953 0.061306
vt 0.267953 0.061306
vt 0.334453 0.064892
vt 0.334453 0.064892
vt 0.202599 0.061306
vt 0.202599 0.061306
vt 0.267953 0.061306
vt 0.235986 0.061306
vt 0.267953 0.061306
vt 0.235986 0.061306
vt 0.235986 0.061306
vt 0.267953 0.061306
vt 0.334453 0.064892
vt 0.235986 0.061306
vt 0.235986 0.061306
vt 0.202599 0.061306
vt 0.235986 0.061306
vt 0.235986 0.061306
vt 0.235986 0.061306
vt 0.235986 0.061306
vt 0.267953 0.061306
vt 0.267953 0.061306
vt 0.267953 0.061306
vt 0.267953 0.061306
vt 0.235986 0.061306
vt 0.235986 0.061306
vt 0.235986 0.061306
vt 0.235986 0.061306
vt 0.267953 0.061306
vt 0.267953 0.061306
vt 0.267953 0.061306
vt 0.267953 0.061306
vt 0.334453 0.064892
vt 0.334453 0.064892
vt 0.334453 0.064892
vt 0.334453 0.064892
vt 0.202599 0.061306
vt 0.202599 0.061306
vt 0.202599 0.061306
vt 0.202599 0.061306
vt 0.235986 0.061306
vt 0.235986 0.061306
vt 0.235986 0.061306
vt 0.235986 0.061306
vt 0.267953 0.061306
vt 0.267953 0.061306
vt 0.267953 0.061306
vt 0.267953 0.061306
vt 0.235986 0.061306
vt 0.235986 0.061306
vt 0.235986 0.061306
vt 0.235986 0.061306
vt 0.267953 0.061306
vt 0.267953 0.061306
vt 0.267953 0.061306
vt 0.267953 0.061306
vt 0.332737 0.060701
vt 0.332737 0.060701
vt 0.324436 0.060701
vt 0.324436 0.060701
vt 0.202599 0.061306
vt 0.202599 0.061306
vt 0.202599 0.061306
vt 0.202599 0.061306
vt 0.329566 0.061306
vt 0.329566 0.061306
vt 0.329566 0.061306
vt 0.329566 0.061306
vt 0.361534 0.061306
vt 0.361534 0.061306
vt 0.361534 0.061306
vt 0.361534 0.061306
vt 0.329566 0.061306
vt 0.329566 0.061306
vt 0.329566 0.061306
vt 0.329566 0.061306
vt 0.361534 0.061306
vt 0.361534 0.061306
vt 0.361534 0.061306
vt 0.361534 0.061306
vt 0.428034 0.064892
vt 0.428034 0.064892
vt 0.428034 0.064892
vt 0.428034 0.064892
vt 0.428034 0.064892
vt 0.428034 0.064892
vt 0.428034 0.064892
vt 0.428034 0.064892
vt 0.428034 0.064892
vt 0.428034 0.064892
vt 0.428034 0.064892
vt 0.428034 0.064892
vt 0.428034 0.064892
vt 0.428034 0.064892
vt 0.428034 0.064892
vt 0.428034 0.064892
vt 0.296179 0.061306
vt 0.296179 0.061306
vt 0.296179 0.061306
vt 0.296179 0.061306
vt 0.296179 0.061306
vt 0.296179 0.061306
vt 0.296179 0.061306
vt 0.296179 0.061306
vt 0.296179 0.061306
vt 0.296179 0.061306
vt 0.296179 0.061306
vt 0.296179 0.061306
vt 0.329566 0.061306
vt 0.329566 0.061306
vt 0.329566 0.061306
vt 0.329566 0.061306
vt 0.361534 0.061306
vt 0.361534 0.061306
vt 0.361534 0.061306
vt 0.361534 0.061306
vt 0.329566 0.061306
vt 0.329566 0.061306
vt 0.329566 0.061306
vt 0.329566 0.061306
vt 0.361534 0.061306
vt 0.361534 0.061306
vt 0.361534 0.061306
vt 0.361534 0.061306
vt 0.329566 0.061306
vt 0.329566 0.061306
vt 0.329566 0.061306
vt 0.329566 0.061306
vt 0.361534 0.061306
vt 0.361534 0.061306
vt 0.361534 0.061306
vt 0.361534 0.061306
vt 0.329566 0.061306
vt 0.329566 0.061306
vt 0.329566 0.061306
vt 0.329566 0.061306
vt 0.361534 0.061306
vt 0.361534 0.061306
vt 0.361534 0.061306
vt 0.361534 0.061306
vt 0.329566 0.061306
vt 0.329566 0.061306
vt 0.329566 0.061306
vt 0.329566 0.061306
vt 0.361534 0.061306
vt 0.361534 0.061306
vt 0.361534 0.061306
vt 0.361534 0.061306
vt 0.329566 0.061306
vt 0.329566 0.061306
vt 0.329566 0.061306
vt 0.329566 0.061306
vt 0.361534 0.061306
vt 0.361534 0.061306
vt 0.361534 0.061306
vt 0.361534 0.061306
vt 0.329566 0.061306
vt 0.329566 0.061306
vt 0.329566 0.061306
vt 0.329566 0.061306
vt 0.361534 0.061306
vt 0.361534 0.061306
vt 0.361534 0.061306
vt 0.361534 0.061306
vt 0.329566 0.061306
vt 0.329566 0.061306
vt 0.329566 0.061306
vt 0.329566 0.061306
vt 0.361534 0.061306
vt 0.361534 0.061306
vt 0.361534 0.061306
vt 0.361534 0.061306
vt 0.361534 0.061306
vt 0.361534 0.061306
vt 0.361534 0.061306
vt 0.361534 0.061306
vt 0.329566 0.061306
vt 0.329566 0.061306
vt 0.329566 0.061306
vt 0.329566 0.061306
vt 0.361534 0.061306
vt 0.361534 0.061306
vt 0.361534 0.061306
vt 0.361534 0.061306
vt 0.329566 0.061306
vt 0.329566 0.061306
vt 0.329566 0.061306
vt 0.329566 0.061306
vt 0.361534 0.061306
vt 0.361534 0.061306
vt 0.361534 0.061306
vt 0.361534 0.061306
vt 0.329566 0.061306
vt 0.329566 0.061306
vt 0.329566 0.061306
vt 0.329566 0.061306
vt 0.361534 0.061306
vt 0.361534 0.061306
vt 0.361534 0.061306
vt 0.361534 0.061306
vt 0.329566 0.061306
vt 0.329566 0.061306
vt 0.329566 0.061306
vt 0.329566 0.061306
vt 0.361534 0.061306
vt 0.361534 0.061306
vt 0.361534 0.061306
vt 0.361534 0.061306
vt 0.329566 0.061306
vt 0.329566 0.061306
vt 0.329566 0.061306
vt 0.329566 0.061306
vt 0.361534 0.061306
vt 0.361534 0.061306
vt 0.361534 0.061306
vt 0.361534 0.061306
vt 0.329566 0.061306
vt 0.329566 0.061306
vt 0.329566 0.061306
vt 0.329566 0.061306
vt 0.329566 0.061306
vt 0.329566 0.061306
vt 0.329566 0.061306
vt 0.329566 0.061306
vt 0.361534 0.061306
vt 0.361534 0.061306
vt 0.361534 0.061306
vt 0.361534 0.061306
vt 0.329566 0.061306
vt 0.329566 0.061306
vt 0.329566 0.061306
vt 0.329566 0.061306
vt 0.361534 0.061306
vt 0.361534 0.061306
vt 0.361534 0.061306
vt 0.361534 0.061306
vn -1.000000 -0.000000 0.000000
vn -1.000000 -0.000000 0.000000
vn -1.000000 -0.000000 0.000000
vn -1.000000 -0.000000 0.000000
vn -0.000002 -0.999178 -0.040532
vn -0.000002 -0.999178 -0.040532
vn -0.000002 -0.999178 -0.040532
vn -0.000002 -0.999178 -0.040532
vn 1.000000 0.000000 0.000000
vn 1.000000 0.000000 0.000000
vn 1.000000 0.000000 0.000000
vn 1.000000 0.000000 0.000000
vn 0.000000 0.999178 0.040532
vn 0.000000 0.999178 0.040532
vn 0.000000 0.999178 0.040532
vn 0.000000 0.999178 0.040532
vn 0.000000 0.101902 -0.994794
vn 0.000000 0.101902 -0.994794
vn 0.000000 0.101902 -0.994794
vn 0.000000 0.101902 -0.994794
vn 0.000000 -0.101840 0.994801
vn 0.000000 -0.101840 0.994801
vn 0.000000 -0.101840 0.994801
vn 0.000000 -0.101840 0.994801
vn 0.463025 0.109342 0.879575
vn 0.463025 0.109342 0.879575
vn 0.463025 0.109342 0.879575
vn 0.463025 0.109342 0.879575
vn 0.026391 -0.996998 0.072785
vn 0.026391 -0.996998 0.072785
vn 0.026391 -0.996998 0.072785
vn 0.026391 -0.996998 0.072785
vn -0.463026 -0.109331 -0.879576
vn -0.463026 -0.109331 -0.879576
vn -0.463026 -0.109331 -0.879576
vn -0.463026 -0.109331 -0.879576
vn -0.026392 0.996998 -0.072786
vn -0.026392 0.996998 -0.072786
vn -0.026392 0.996998 -0.072786
vn -0.026392 0.996998 -0.072786
vn -0.944608 0.011189 0.328011
vn -0.944608 0.011189 0.328011
vn -0.944608 0.011189 0.328011
vn -0.944608 0.011189 0.328011
vn 0.944609 -0.011185 -0.328008
vn 0.944609 -0.011185 -0.328008
vn 0.944609 -0.011185 -0.328009
vn 0.944609 -0.011185 -0.328009
vn 0.000000 0.000000 1.000000
vn 0.000000 0.000000 1.000000
vn 0.000000 0.000000 1.000000
vn 0.000000 0.000000 1.000000
vn -1.000000 0.000000 0.000000
vn -1.000000 0.000000 0.000000
vn -1.000000 0.000000 0.000000
vn -1.000000 0.000000 0.000000
vn 0.000000 0.000000 -1.000000
vn 0.000000 0.000000 -1.000000
vn 0.000000 0.000000 -1.000000
vn 0.000000 0.000000 -1.000000
vn 1.000000 0.000000 0.000000
vn 1.000000 0.000000 0.000000
vn 1.000000 0.000000 0.000000
vn 1.000000 0.000000 0.000000
vn 0.000000 1.000000 0.000000
vn 0.000000 1.000000 0.000000
vn 0.000000 1.000000 0.000000
vn 0.000000 1.000000 0.000000
vn 0.000000 -1.000000 0.000000
vn 0.000000 -1.000000 0.000000
vn 0.000000 -1.000000 0.000000
vn 0.000000 -1.000000 0.000000
vn 0.000000 0.775804 0.630973
vn 0.000000 0.775804 0.630973
vn 0.000000 0.775804 0.630973
vn 0.000000 0.775804 0.630973
vn -1.000000 -0.000000 0.000000
vn -1.000000 -0.000000 0.000000
vn -1.000000 -0.000000 0.000000
vn -1.000000 -0.000000 0.000000
vn 0.000000 -0.775805 -0.630972
vn 0.000000 -0.775805 -0.630972
vn 0.000000 -0.775805 -0.630972
vn 0.000000 -0.775805 -0.630972
vn 1.000000 0.000000 0.000000
vn 1.000000 0.000000 0.000000
vn 1.000000 0.000000 0.000000
vn 1.000000 0.000000 0.000000
vn 0.000000 0.775824 -0.630949
vn 0.000000 0.775824 -0.630949
vn 0.000000 0.775824 -0.630949
vn 0.000000 0.775824 -0.630949
vn 0.000000 0.775823 -0.630950
vn 0.000000 0.775823 -0.630950
vn 0.000000 0.775823 -0.630950
vn 0.000000 0.775823 -0.630950
vn 0.000000 0.775823 -0.630950
vn 0.000000 0.775823 -0.630950
vn 0.000000 0.775823 -0.630950
vn 0.000000 0.775823 -0.630950
vn 0.000000 0.775823 -0.630950
vn 0.000000 0.775823 -0.630950
vn 0.000000 0.775823 -0.630950
vn 0.000000 0.775823 -0.630950
vn 0.000000 -0.775824 -0.630949
vn 0.000000 -0.775824 -0.630949
vn 0.000000 -0.775824 -0.630949
vn 0.000000 -0.775824 -0.630949
vn 0.000000 -0.775824 -0.630949
vn 0.000000 -0.775824 -0.630949
vn 0.000000 -0.775824 -0.630949
vn 0.000000 -0.775824 -0.630949
vn 0.000000 -0.775823 -0.630950
vn 0.000000 -0.775823 -0.630950
vn 0.000000 -0.775823 -0.630950
vn 0.000000 -0.775823 -0.630950
vn 0.000000 -0.775806 -0.630971
vn 0.000000 -0.775806 -0.630971
vn 0.000000 -0.775806 -0.630971
vn 0.000000 -0.775806 -0.630971
vn -1.000000 0.000000 0.000000
vn -1.000000 0.000000 0.000000
vn -1.000000 0.000000 0.000000
vn -1.000000 0.000000 0.000000
vn 0.000000 0.775805 0.630973
vn 0.000000 0.775805 0.630973
vn 0.000000 0.775805 0.630973
vn 0.000000 0.775805 0.630973
vn 1.000000 0.000000 0.000000
vn 1.000000 0.000000 0.000000
vn 1.000000 0.000000 0.000000
vn 1.000000 0.000000 0.000000
vn 0.000000 0.775805 -0.630973
vn 0.000000 0.775805 -0.630973
vn 0.000000 0.775805 -0.630973
vn 0.000000 0.775805 -0.630973
vn -1.000000 0.000000 0.000000
vn -1.000000 0.000000 0.000000
vn -1.000000 0.000000 0.000000
vn -1.000000 0.000000 0.000000
vn 0.000000 -0.775805 0.630973
vn 0.000000 -0.775805 0.630973
vn 0.000000 -0.775805 0.630973
vn 0.000000 -0.775805 0.630973
vn 1.000000 0.000000 0.000000
vn 1.000000 0.000000 0.000000
vn 1.000000 0.000000 0.000000
vn 1.000000 0.000000 0.000000
vn 0.000000 0.775806 -0.630972
vn 0.000000 0.775806 -0.630972
vn 0.000000 0.775806 -0.630972
vn 0.000000 0.775806 -0.630972
vn -1.000000 0.000000 0.000000
vn -1.000000 0.000000 0.000000
vn -1.000000 0.000000 0.000000
vn -1.000000 0.000000 0.000000
vn 0.000000 -0.775805 0.630972
vn 0.000000 -0.775805 0.630972
vn 0.000000 -0.775805 0.630972
vn 0.000000 -0.775805 0.630972
vn 1.000000 0.000000 0.000000
vn 1.000000 0.000000 0.000000
vn 1.000000 0.000000 0.000000
vn 1.000000 0.000000 0.000000
vn 0.000000 0.775804 0.630974
vn 0.000000 0.775804 0.630974
vn 0.000000 0.775804 0.630974
vn 0.000000 0.775804 0.630974
vn -1.000000 -0.000000 0.000000
vn -1.000000 -0.000000 0.000000
vn -1.000000 -0.000000 0.000000
vn -1.000000 -0.000000 0.000000
vn 0.000000 -0.775806 -0.630972
vn 0.000000 -0.775806 -0.630972
vn 0.000000 -0.775806 -0.630972
vn 0.000000 -0.775806 -0.630972
vn 1.000000 0.000000 0.000000
vn 1.000000 0.000000 0.000000
vn 1.000000 0.000000 0.000000
vn 1.000000 0.000000 0.000000
vn 1.000000 -0.000000 0.000000
vn 1.000000 -0.000000 0.000000
vn 1.000000 -0.000000 0.000000
vn 1.000000 -0.000000 0.000000
vn 0.000000 0.775805 -0.630972
vn 0.000000 0.775805 -0.630972
vn 0.000000 0.775805 -0.630972
vn 0.000000 0.775805 -0.630972
vn -1.000000 -0.000000 0.000000
vn -1.000000 -0.000000 0.000000
vn -1.000000 -0.000000 0.000000
vn -1.000000 -0.000000 0.000000
vn 0.000000 -0.775805 0.630973
vn 0.000000 -0.775805 0.630973
vn 0.000000 -0.775805 0.630973
vn 0.000000 -0.775805 0.630973
vn 1.000000 0.000000 0.000000
vn 1.000000 0.000000 0.000000
vn 1.000000 0.000000 0.000000
vn 1.000000 0.000000 0.000000
vn 0.000000 0.775805 0.630973
vn 0.000000 0.775805 0.630973
vn 0.000000 0.775805 0.630973
vn 0.000000 0.775805 0.630973
vn -1.000000 0.000000 0.000000
vn -1.000000 0.000000 0.000000
vn -1.000000 0.000000 0.000000
vn -1.000000 0.000000 0.000000
vn 0.000000 -0.775805 -0.630973
vn 0.000000 -0.775805 -0.630973
vn 0.000000 -0.775805 -0.630973
vn 0.000000 -0.775805 -0.630973
vn -1.000000 0.000000 0.000000
vn -1.000000 0.000000 0.000000
vn -1.000000 0.000000 0.000000
vn -1.000000 0.000000 0.000000
vn 0.000000 0.775806 0.630972
vn 0.000000 0.775806 0.630972
vn 0.000000 0.775806 0.630972
vn 0.000000 0.775806 0.630972
vn 1.000000 0.000000 0.000000
vn 1.000000 0.000000 0.000000
vn 1.000000 0.000000 0.000000
vn 1.000000 0.000000 0.000000
vn 0.000000 -0.775810 -0.630967
vn 0.000000 -0.775810 -0.630967
vn 0.000000 -0.775810 -0.630967
vn 0.000000 -0.775810 -0.630967
vn 0.000000 -0.775805 0.630972
vn 0.000000 -0.775805 0.630972
vn 0.000000 -0.775805 0.630972
vn 0.000000 -0.775805 0.630972
vn 1.000000 0.000000 0.000000
vn 1.000000 0.000000 0.000000
vn 1.000000 0.000000 0.000000
vn 1.000000 0.000000 0.000000
vn 0.000000 0.775805 -0.630972
vn 0.000000 0.775805 -0.630972
vn 0.000000 0.775805 -0.630972
vn 0.000000 0.775805 -0.630972
vn -1.000000 0.000000 0.000000
vn -1.000000 0.000000 0.000000
vn -1.000000 0.000000 0.000000
vn -1.000000 0.000000 0.000000
s off
f 1/23/1 2/2/2 4/22/3 3/19/4
f 3/3/5 4/17/6 6/6/7 5/20/8
f 5/5/9 6/18/10 8/8/11 7/16/12
f 7/7/13 8/15/14 2/10/15 1/9/16
f 2/4/17 8/11/18 6/12/19 4/21/20
f 7/13/21 1/1/22 3/24/23 5/14/24
f 9/25/25 10/26/26 12/27/27 11/28/28
f 11/29/29 12/30/30 14/31/31 13/32/32
f 13/33/33 14/34/34 16/35/35 15/36/36
f 15/37/37 16/38/38 10/39/39 9/40/40
f 10/41/41 16/42/42 14/43/43 12/44/44
f 15/45/45 9/46/46 11/47/47 13/48/48
f 17/49/49 18/50/50 20/51/51 19/52/52
f 19/53/53 20/54/54 22/55/55 21/56/56
f 21/57/57 22/58/58 24/59/59 23/60/60
f 23/61/61 24/62/62 18/63/63 17/64/64
f 18/65/65 24/66/66 22/67/67 20/68/68
f 23/69/69 17/70/70 19/71/71 21/72/72
f 70/73/73 71/74/74 25/75/75 26/76/76
f 69/77/77 70/78/78 26/79/79 27/80/80
f 72/81/81 69/82/82 27/83/83 28/84/84
f 71/85/85 72/86/86 28/87/87 25/88/88
f 25/89/89 28/90/90 27/91/91 26/92/92
f 29/93/93 32/94/94 31/95/95 30/96/96
f 33/97/97 36/98/98 35/99/99 34/100/100
f 37/101/101 40/102/102 39/103/103 38/104/104
f 44/105/105 41/106/106 42/107/107 43/108/108
f 48/109/109 45/110/110 46/111/111 47/112/112
f 52/113/113 49/114/114 50/115/115 51/116/116
f 80/117/117 77/118/118 54/119/119 53/120/120
f 77/121/121 78/122/122 55/123/123 54/124/124
f 78/125/125 79/126/126 56/127/127 55/128/128
f 79/129/129 80/130/130 53/131/131 56/132/132
f 45/133/133 58/134/134 57/135/135 46/136/136
f 48/137/137 59/138/138 58/139/139 45/140/140
f 47/141/141 60/142/142 59/143/143 48/144/144
f 46/145/145 57/146/146 60/147/147 47/148/148
f 49/149/149 62/150/150 61/151/151 50/152/152
f 52/153/153 63/154/154 62/155/155 49/156/156
f 51/157/157 64/158/158 63/159/159 52/160/160
f 50/161/161 61/162/162 64/163/163 51/164/164
f 82/165/165 81/166/166 37/167/167 38/168/168
f 83/169/169 82/170/170 38/171/171 39/172/172
f 84/173/173 83/174/174 39/175/175 40/176/176
f 81/177/177 84/178/178 40/179/179 37/180/180
f 42/181/181 86/182/182 85/183/183 43/184/184
f 41/185/185 87/186/186 86/187/187 42/188/188
f 44/189/189 88/190/190 87/191/191 41/192/192
f 43/193/193 85/194/194 88/195/195 44/196/196
f 90/197/197 89/198/198 32/199/199 29/200/200
f 91/201/201 90/202/202 29/203/203 30/204/204
f 92/205/205 91/206/206 30/207/207 31/208/208
f 89/209/209 92/210/210 31/211/211 32/212/212
f 65/213/213 66/214/214 94/215/215 93/216/216
f 66/217/217 67/218/218 95/219/219 94/220/220
f 67/221/221 68/222/222 96/223/223 95/224/224
f 68/225/225 65/226/226 93/227/227 96/228/228
f 75/229/229 76/230/230 98/231/231 97/232/232
f 76/233/233 73/234/234 99/235/235 98/236/236
f 73/237/237 74/238/238 100/239/239 99/240/240
f 74/241/241 75/242/242 97/243/243 100/244/244
