# This file uses meters as units for non-parametric coordinates.

v 0.408540 0.256160 -0.325027
v -0.379213 0.256160 -0.325027
v 0.408540 2.488788 -0.325027
v -0.379213 2.488788 -0.325027
v 0.408540 2.488788 0.420757
v -0.379213 2.488788 0.420757
v 0.408540 0.256160 0.420757
v -0.379213 0.256160 0.420757
v 0.159210 2.488788 -0.088980
v -0.129883 2.488788 -0.088980
v -0.129883 2.488788 0.184711
v 0.159210 2.488788 0.184711
v 0.159210 8.550314 -0.088980
v -0.129883 8.550314 -0.088980
v -0.129883 8.550314 0.184711
v 0.159210 8.550314 0.184711
v -0.129883 8.135485 0.184711
v -0.129883 8.135485 -0.088980
v 0.159210 8.135485 -0.088980
v 0.159210 8.135485 0.184711
v -0.129883 7.698175 0.184711
v -0.129883 7.698175 -0.088980
v 0.159210 7.698175 -0.088980
v 0.159210 7.698175 0.184711
v 0.095323 7.995890 0.174149
v -0.065996 7.995890 0.174149
v -0.065996 7.837770 0.174149
v 0.095323 7.837770 0.174149
v 0.095323 7.995890 2.382838
v -0.065996 7.995890 2.382838
v -0.065996 7.837770 2.382838
v 0.095323 7.837770 2.382838
v 0.095323 7.995890 3.328439
v -0.065996 7.995890 3.328439
v -0.065996 7.837770 3.328439
v 0.095323 7.837770 3.328439
v -0.256207 7.837770 2.382838
v -0.256207 7.995890 2.382838
v -0.256207 7.837770 3.328439
v -0.256207 7.995890 3.328439
v 0.285534 7.837770 2.382838
v 0.285534 7.995890 2.382838
v 0.285534 7.995890 3.328439
v 0.285534 7.837770 3.328439
v 0.569543 0.256160 0.573182
v -0.540216 0.256160 0.573182
v -0.540216 -0.002672 0.573182
v 0.569543 -0.002672 0.573182
v -0.540216 0.256160 -0.477452
v -0.540216 -0.002672 -0.477452
v 0.569543 0.256160 -0.477452
v 0.569543 -0.002672 -0.477452
v 0.077248 7.837770 2.488790
v -0.047921 7.837770 2.488790
v 0.077248 7.837770 3.222486
v -0.047921 7.837770 3.222486
v -0.195506 7.837770 3.222486
v -0.195506 7.837770 2.488790
v 0.224833 7.837770 2.488790
v 0.224833 7.837770 3.222486
vt 0.264944 0.066570
vt 0.264944 0.066570
vt 0.264944 0.066570
vt 0.264944 0.066570
vt 0.327671 0.066570
vt 0.327671 0.066570
vt 0.327671 0.066570
vt 0.327671 0.066570
vt 0.264944 0.066570
vt 0.264944 0.066570
vt 0.264944 0.066570
vt 0.264944 0.066570
vt 0.295503 0.066570
vt 0.295503 0.066570
vt 0.295503 0.066570
vt 0.295503 0.066570
vt 0.295503 0.066570
vt 0.295503 0.066570
vt 0.295503 0.066570
vt 0.295503 0.066570
vt 0.327671 0.066570
vt 0.327671 0.066570
vt 0.327671 0.066570
vt 0.327671 0.066570
vt 0.327671 0.066570
vt 0.327671 0.066570
vt 0.327671 0.066570
vt 0.327671 0.066570
vt 0.264944 0.066570
vt 0.264944 0.066570
vt 0.264944 0.066570
vt 0.264944 0.066570
vt 0.264944 0.066570
vt 0.264944 0.066570
vt 0.264944 0.066570
vt 0.264944 0.066570
vt 0.295503 0.066570
vt 0.295503 0.066570
vt 0.295503 0.066570
vt 0.295503 0.066570
vt 0.295503 0.066570
vt 0.295503 0.066570
vt 0.295503 0.066570
vt 0.295503 0.066570
vt 0.264944 0.066570
vt 0.264944 0.066570
vt 0.264944 0.066570
vt 0.264944 0.066570
vt 0.264944 0.066570
vt 0.264944 0.066570
vt 0.264944 0.066570
vt 0.264944 0.066570
vt 0.264944 0.066570
vt 0.264944 0.066570
vt 0.264944 0.066570
vt 0.264944 0.066570
vt 0.295503 0.066570
vt 0.295503 0.066570
vt 0.295503 0.066570
vt 0.295503 0.066570
vt 0.295503 0.066570
vt 0.295503 0.066570
vt 0.295503 0.066570
vt 0.295503 0.066570
vt 0.327671 0.066570
vt 0.327671 0.066570
vt 0.327671 0.066570
vt 0.327671 0.066570
vt 0.327671 0.066570
vt 0.327671 0.066570
vt 0.327671 0.066570
vt 0.327671 0.066570
vt 0.327671 0.066570
vt 0.327671 0.066570
vt 0.295503 0.066570
vt 0.295503 0.066570
vt 0.295503 0.066570
vt 0.295503 0.066570
vt 0.295503 0.066570
vt 0.295503 0.066570
vt 0.295503 0.066570
vt 0.295503 0.066570
vt 0.233632 0.066570
vt 0.233632 0.066570
vt 0.233632 0.066570
vt 0.233632 0.066570
vt 0.233632 0.066570
vt 0.233632 0.066570
vt 0.233632 0.066570
vt 0.233632 0.066570
vt 0.233632 0.066570
vt 0.233632 0.066570
vt 0.295503 0.066570
vt 0.295503 0.066570
vt 0.295503 0.066570
vt 0.295503 0.066570
vt 0.295503 0.066570
vt 0.295503 0.066570
vt 0.295503 0.066570
vt 0.295503 0.066570
vt 0.264944 0.066570
vt 0.264944 0.066570
vt 0.264944 0.066570
vt 0.264944 0.066570
vt 0.264944 0.066570
vt 0.264944 0.066570
vt 0.264944 0.066570
vt 0.264944 0.066570
vt 0.264944 0.066570
vt 0.264944 0.066570
vt 0.264944 0.066570
vt 0.264944 0.066570
vt 0.264944 0.066570
vt 0.264944 0.066570
vt 0.264944 0.066570
vt 0.264944 0.066570
vt 0.264944 0.066570
vt 0.264944 0.066570
vt 0.264944 0.066570
vt 0.264944 0.066570
vt 0.295503 0.066570
vt 0.295503 0.066570
vt 0.295503 0.066570
vt 0.295503 0.066570
vt 0.264944 0.066570
vt 0.264944 0.066570
vt 0.264944 0.066570
vt 0.264944 0.066570
vt 0.295503 0.066570
vt 0.295503 0.066570
vt 0.295503 0.066570
vt 0.295503 0.066570
vt 0.327671 0.066570
vt 0.327671 0.066570
vt 0.327671 0.066570
vt 0.327671 0.066570
vt 0.327671 0.066570
vt 0.327671 0.066570
vt 0.327671 0.066570
vt 0.327671 0.066570
vt 0.327671 0.066570
vt 0.327671 0.066570
vt 0.327671 0.066570
vt 0.327671 0.066570
vt 0.327671 0.066570
vt 0.327671 0.066570
vt 0.327671 0.066570
vt 0.327671 0.066570
vt 0.327671 0.066570
vt 0.327671 0.066570
vt 0.327671 0.066570
vt 0.327671 0.066570
vt 0.327671 0.066570
vt 0.327671 0.066570
vt 0.327671 0.066570
vt 0.327671 0.066570
vt 0.327671 0.066570
vt 0.327671 0.066570
vt 0.327671 0.066570
vt 0.327671 0.066570
vt 0.327671 0.066570
vt 0.327671 0.066570
vt 0.264944 0.066570
vt 0.264944 0.066570
vt 0.264944 0.066570
vt 0.264944 0.066570
vt 0.264944 0.066570
vt 0.264944 0.066570
vt 0.264944 0.066570
vt 0.264944 0.066570
vt 0.264944 0.066570
vt 0.264944 0.066570
vt 0.264944 0.066570
vt 0.264944 0.066570
vt 0.264944 0.066570
vt 0.264944 0.066570
vt 0.264944 0.066570
vt 0.264944 0.066570
vt 0.264944 0.066570
vt 0.264944 0.066570
vt 0.264944 0.066570
vt 0.264944 0.066570
vt 0.295503 0.066570
vt 0.295503 0.066570
vt 0.295503 0.066570
vt 0.295503 0.066570
vt 0.295503 0.066570
vt 0.295503 0.066570
vt 0.295503 0.066570
vt 0.295503 0.066570
vt 0.233632 0.066570
vt 0.233632 0.066570
vt 0.233632 0.066570
vt 0.233632 0.066570
vt 0.233632 0.066570
vt 0.233632 0.066570
vt 0.233632 0.066570
vt 0.233632 0.066570
vt 0.152575 0.985981
vt 0.152575 0.985981
vt 0.152575 0.985981
vt 0.152575 0.985981
vt 0.152575 0.985981
vt 0.152575 0.985981
vt 0.152575 0.985981
vt 0.152575 0.985981
vt 0.233632 0.066570
vt 0.233632 0.066570
vt 0.233632 0.066570
vt 0.233632 0.066570
vt 0.233632 0.066570
vt 0.233632 0.066570
vt 0.233632 0.066570
vt 0.233632 0.066570
vt 0.233632 0.066570
vt 0.233632 0.066570
vt 0.233632 0.066570
vt 0.233632 0.066570
vt 0.233632 0.066570
vt 0.233632 0.066570
vt 0.233632 0.066570
vt 0.233632 0.066570
vt 0.233632 0.066570
vt 0.233632 0.066570
vn 0.000000 0.000000 -1.000000
vn 0.000000 0.000000 -1.000000
vn 0.000000 0.000000 -1.000000
vn 0.000000 0.000000 -1.000000
vn 0.000000 1.000000 0.000000
vn 0.000000 1.000000 0.000000
vn 0.000000 1.000000 0.000000
vn 0.000000 1.000000 0.000000
vn 0.000000 0.000000 1.000000
vn 0.000000 0.000000 1.000000
vn 0.000000 0.000000 1.000000
vn 0.000000 0.000000 1.000000
vn -1.000000 0.000000 0.000000
vn -1.000000 0.000000 0.000000
vn -1.000000 0.000000 0.000000
vn -1.000000 0.000000 0.000000
vn 1.000000 0.000000 0.000000
vn 1.000000 0.000000 0.000000
vn 1.000000 0.000000 0.000000
vn 1.000000 0.000000 0.000000
vn 0.000000 1.000000 0.000000
vn 0.000000 1.000000 0.000000
vn 0.000000 1.000000 0.000000
vn 0.000000 1.000000 0.000000
vn 0.000000 1.000000 0.000000
vn 0.000000 1.000000 0.000000
vn 0.000000 1.000000 0.000000
vn 0.000000 1.000000 0.000000
vn 0.000000 1.000000 0.000000
vn 0.000000 1.000000 0.000000
vn 0.000000 1.000000 0.000000
vn 0.000000 1.000000 0.000000
vn 0.000000 1.000000 0.000000
vn 0.000000 1.000000 0.000000
vn 0.000000 1.000000 0.000000
vn 0.000000 1.000000 0.000000
vn 0.000000 0.000000 -1.000000
vn 0.000000 0.000000 -1.000000
vn 0.000000 0.000000 -1.000000
vn 0.000000 0.000000 -1.000000
vn -1.000000 0.000000 0.000000
vn -1.000000 0.000000 0.000000
vn -1.000000 0.000000 0.000000
vn -1.000000 0.000000 0.000000
vn 0.000000 0.000000 1.000000
vn 0.000000 0.000000 1.000000
vn 0.000000 0.001132 0.999999
vn 0.000000 0.001132 0.999999
vn 1.000000 0.000000 0.000000
vn 1.000000 0.000000 0.000000
vn 1.000000 0.000000 0.000000
vn 1.000000 0.000000 0.000000
vn -1.000000 0.000000 0.000000
vn -1.000000 0.000000 0.000000
vn -1.000000 0.000000 0.000000
vn -1.000000 0.000000 0.000000
vn 0.000000 0.000000 -1.000000
vn 0.000000 0.000000 -1.000000
vn 0.000000 0.000000 -1.000000
vn 0.000000 0.000000 -1.000000
vn 1.000000 0.000000 0.000000
vn 1.000000 0.000000 0.000000
vn 1.000000 0.000000 0.000000
vn 1.000000 0.000000 0.000000
vn 0.000000 -0.012116 0.999927
vn 0.000000 -0.012116 0.999927
vn 0.000000 0.000000 1.000000
vn 0.000000 0.000000 1.000000
vn -1.000000 0.000000 0.000000
vn -1.000000 0.000000 0.000000
vn -1.000000 0.000000 0.000000
vn -1.000000 0.000000 0.000000
vn 0.000000 0.000000 -1.000000
vn 0.000000 0.000000 -1.000000
vn 0.000000 0.000000 -1.000000
vn 0.000000 0.000000 -1.000000
vn 1.000000 0.000000 0.000000
vn 1.000000 0.000000 0.000000
vn 1.000000 0.000000 0.000000
vn 1.000000 0.000000 0.000000
vn 0.000000 -0.012116 0.999927
vn 0.000000 -0.012116 0.999927
vn 0.000000 -0.075444 0.997150
vn 0.000000 -0.075444 0.997150
vn 0.163106 0.000000 0.986609
vn 0.163106 0.000000 0.986609
vn 0.163106 0.000000 0.986609
vn 0.163106 0.000000 0.986609
vn -0.163106 0.000000 0.986609
vn -0.163106 0.000000 0.986609
vn -0.163106 0.000000 0.986609
vn -0.163106 0.000000 0.986609
vn 0.000000 0.001132 0.999999
vn 0.000000 0.001132 0.999999
vn 0.000000 0.075445 0.997150
vn 0.000000 0.075445 0.997150
vn 0.000000 1.000000 0.000000
vn 0.000000 1.000000 0.000000
vn 0.000000 1.000000 0.000000
vn 0.000000 1.000000 0.000000
vn -1.000000 0.000000 0.000000
vn -1.000000 0.000000 0.000000
vn -1.000000 0.000000 0.000000
vn -1.000000 0.000000 0.000000
vn 1.000000 0.000000 0.000000
vn 1.000000 0.000000 0.000000
vn 1.000000 0.000000 0.000000
vn 1.000000 0.000000 0.000000
vn 0.000000 -1.000000 0.000000
vn 0.000000 -1.000000 0.000000
vn 0.000000 -1.000000 -0.000000
vn 0.000000 -1.000000 -0.000000
vn 0.000000 1.000000 0.000000
vn 0.000000 1.000000 0.000000
vn 0.000000 1.000000 0.000000
vn 0.000000 1.000000 0.000000
vn -1.000000 0.000000 0.000000
vn -1.000000 0.000000 0.000000
vn -1.000000 0.000000 0.000000
vn -1.000000 0.000000 0.000000
vn 1.000000 0.000000 0.000000
vn 1.000000 0.000000 0.000000
vn 1.000000 0.000000 0.000000
vn 1.000000 0.000000 0.000000
vn 0.000000 -1.000000 -0.000000
vn 0.000000 -1.000000 -0.000000
vn 0.000000 -1.000000 0.000000
vn 0.000000 -1.000000 -0.000000
vn 0.000000 -1.000000 0.000000
vn 0.000000 -1.000000 -0.000000
vn 0.000000 -1.000000 -0.000000
vn 0.000000 -1.000000 0.000000
vn 0.000000 0.000000 -1.000000
vn 0.000000 0.000000 -1.000000
vn 0.000000 0.000000 -1.000000
vn 0.000000 0.000000 -1.000000
vn 0.000000 0.000000 1.000000
vn 0.000000 0.000000 1.000000
vn 0.000000 0.000000 1.000000
vn 0.000000 0.000000 1.000000
vn 0.000000 1.000000 0.000000
vn 0.000000 1.000000 0.000000
vn 0.000000 1.000000 0.000000
vn 0.000000 1.000000 0.000000
vn 0.000000 0.000000 -1.000000
vn 0.000000 0.000000 -1.000000
vn 0.000000 0.000000 -1.000000
vn 0.000000 0.000000 -1.000000
vn 0.000000 1.000000 0.000000
vn 0.000000 1.000000 0.000000
vn 0.000000 1.000000 0.000000
vn 0.000000 1.000000 0.000000
vn 0.000000 0.000000 1.000000
vn 0.000000 0.000000 1.000000
vn 0.000000 0.000000 1.000000
vn 0.000000 0.000000 1.000000
vn 0.000000 0.000000 1.000000
vn 0.000000 0.000000 1.000000
vn 0.000000 0.000000 1.000000
vn 0.000000 0.000000 1.000000
vn 0.000000 0.000000 1.000000
vn 0.000000 0.000000 1.000000
vn 0.000000 0.000000 1.000000
vn 0.000000 0.000000 1.000000
vn -1.000000 0.000000 0.000000
vn -1.000000 0.000000 0.000000
vn -1.000000 0.000000 0.000000
vn -1.000000 0.000000 0.000000
vn 0.000000 0.000000 -1.000000
vn 0.000000 0.000000 -1.000000
vn 0.000000 0.000000 -1.000000
vn 0.000000 0.000000 -1.000000
vn 1.000000 0.000000 0.000000
vn 1.000000 0.000000 0.000000
vn 1.000000 0.000000 0.000000
vn 1.000000 0.000000 0.000000
vn 0.000000 1.000000 0.000000
vn 0.000000 1.000000 0.000000
vn 0.000000 1.000000 0.000000
vn 0.000000 1.000000 0.000000
vn 0.000000 1.000000 0.000000
vn 0.000000 1.000000 -0.000000
vn 0.000000 1.000000 -0.000000
vn 0.000000 1.000000 0.000000
vn 0.000000 1.000000 -0.000000
vn 0.000000 1.000000 -0.000000
vn 0.000000 1.000000 -0.000000
vn 0.000000 1.000000 -0.000000
vn 0.000000 1.000000 -0.000000
vn 0.000000 1.000000 0.000000
vn 0.000000 1.000000 0.000000
vn 0.000000 1.000000 -0.000000
vn 0.000000 -1.000000 -0.000000
vn 0.000000 -1.000000 -0.000000
vn 0.000000 -1.000000 -0.000000
vn 0.000000 -1.000000 -0.000000
vn 0.000000 -1.000000 0.000000
vn 0.000000 -1.000000 -0.000002
vn 0.000000 -1.000000 -0.000000
vn 0.000000 -1.000000 0.000000
vn 0.000000 -1.000000 -0.000002
vn 0.000000 -1.000000 -0.000003
vn 0.000000 -1.000000 -0.000000
vn 0.000000 -1.000000 -0.000000
vn 0.000000 -1.000000 -0.000003
vn 0.000000 -1.000000 0.000001
vn 0.000000 -1.000000 0.000000
vn 0.000000 -1.000000 -0.000000
vn 0.000000 -1.000000 0.000001
vn 0.000000 -1.000000 -0.000000
vn 0.000000 -1.000000 -0.000000
vn 0.000000 -1.000000 0.000000
vn 0.000000 -1.000000 -0.000000
vn 0.000000 -1.000000 0.000002
vn 0.000000 -1.000000 0.000000
vn 0.000000 -1.000000 -0.000000
vn 0.000000 -1.000000 0.000002
vn 0.000000 -1.000000 -0.000001
vn 0.000000 -1.000000 -0.000000
vn 0.000000 -1.000000 0.000000
vn 0.000000 -1.000000 -0.000001
vn 0.000000 -1.000000 0.000000
vn 0.000000 -1.000000 0.000000
vn 0.000000 -1.000000 -0.000000
s off
f 1/1/1 2/2/2 4/3/3 3/4/4
f 13/5/5 14/6/6 15/7/7 16/8/8
f 5/9/9 6/10/10 8/11/11 7/12/12
f 2/13/13 8/14/14 6/15/15 4/16/16
f 7/17/17 1/18/18 3/19/19 5/20/20
f 3/21/21 4/161/22 10/159/23 9/24/24
f 4/22/25 6/160/26 11/157/27 10/23/28
f 6/25/29 5/158/30 12/156/31 11/26/32
f 5/27/33 3/162/34 9/155/35 12/28/36
f 9/29/37 10/30/38 22/179/39 23/180/40
f 10/37/41 11/38/42 21/39/43 22/188/44
f 11/45/45 12/46/46 24/170/47 21/173/48
f 12/57/49 9/58/50 23/59/51 24/184/52
f 18/42/53 17/190/54 15/43/55 14/44/56
f 19/34/57 18/182/58 14/35/59 13/36/60
f 20/62/61 19/185/62 13/63/63 16/64/64
f 17/175/65 20/177/66 16/55/67 15/56/68
f 22/40/69 21/189/70 17/41/71 18/187/72
f 23/32/73 22/31/74 18/33/75 19/181/76
f 24/60/77 23/186/78 19/61/79 20/183/80
f 20/51/81 17/176/82 26/172/83 25/52/84
f 17/53/85 21/174/86 27/168/87 26/54/88
f 24/47/89 20/178/90 25/169/91 28/49/92
f 21/48/93 24/171/94 28/167/95 27/50/96
f 25/65/97 26/66/98 30/67/99 29/143/100
f 26/75/101 27/76/102 31/77/103 30/78/104
f 28/79/105 25/80/106 29/81/107 32/82/108
f 27/83/109 28/84/110 32/223/111 31/221/112
f 29/142/113 30/145/114 34/144/115 33/70/116
f 38/93/117 37/94/118 39/95/119 40/96/120
f 41/97/121 42/98/122 43/99/123 44/100/124
f 54/199/125 53/200/126 59/201/127 60/202/128 55/203/129 56/204/130 57/205/131 58/206/132
f 30/101/133 31/102/134 37/103/135 38/104/136
f 35/105/137 34/165/138 40/107/139 39/108/140
f 34/69/141 30/146/142 38/71/143 40/72/144
f 32/113/145 29/114/146 42/115/147 41/116/148
f 29/68/149 33/141/150 43/73/151 42/74/152
f 33/110/153 36/163/154 44/111/155 43/112/156
f 36/109/157 33/164/158 34/106/159 35/166/160
f 45/117/161 46/118/162 47/119/163 48/120/164
f 46/121/165 49/122/166 50/123/167 47/124/168
f 49/125/169 51/126/170 52/127/171 50/128/172
f 51/129/173 45/130/174 48/131/175 52/132/176
f 7/133/177 8/153/178 46/151/179 45/136/180
f 8/134/181 2/152/182 49/149/183 46/135/184
f 2/137/185 1/150/186 51/148/187 49/138/188
f 1/139/189 7/154/190 45/147/191 51/140/192
f 31/86/193 32/224/194 53/211/195 54/191/196
f 36/87/197 35/219/198 56/217/199 55/193/200
f 35/88/201 39/218/202 57/215/203 56/194/204
f 39/91/205 37/216/206 58/214/207 57/195/208
f 37/92/209 31/222/210 54/213/211 58/196/212
f 32/85/213 41/212/214 59/209/215 53/192/216
f 41/89/217 44/210/218 60/208/219 59/197/220
f 44/90/221 36/220/222 55/207/223 60/198/224
