# This file uses meters as units for non-parametric coordinates.

v -0.266006 0.391025 -0.066605
v 0.222191 0.391025 0.577911
v -0.054688 1.480307 -0.071671
v 0.217133 1.480307 0.366577
v 0.348145 1.480307 -0.494247
v 0.770729 1.480307 -0.091415
v 0.343094 0.391025 -0.705582
v 0.982063 0.391025 -0.096481
v -0.004517 3.514309 -0.243484
v 0.098175 3.465976 0.033554
v 0.492859 3.465976 -0.257736
v 0.239388 3.514309 -0.499359
v 0.041435 5.349651 0.341095
v 0.061516 5.317073 0.539383
v 0.376701 5.317073 0.331482
v 0.205849 5.349651 0.168625
v 0.034920 6.976582 -0.142593
v 0.103287 6.995131 -0.066513
v 0.225792 6.940806 -0.150513
v 0.129738 6.976582 -0.242065
v 0.200691 0.105933 -1.216019
v 1.369781 0.105933 -0.101578
v 0.412781 0.105933 1.037811
v -0.554543 0.105933 0.067352
v 0.205193 -0.103602 -1.168228
v 1.324707 -0.103602 -0.101044
v 0.408272 -0.103602 0.990005
v -0.518013 -0.103602 0.060730
v -0.042816 3.799322 -0.077362
v 0.051979 3.781278 0.102005
v 0.023811 4.057575 0.169434
v -0.029297 4.102291 0.008560
v -0.727364 4.154023 0.674240
v -0.650604 4.176185 0.813553
v -0.566307 4.376794 0.754990
v -0.602768 4.362741 0.622467
v -1.433441 5.304086 0.543076
v -1.402390 5.338937 0.696747
v -1.315735 5.541894 0.651154
v -1.310783 5.518416 0.515106
v -2.183731 5.900465 0.846725
v -2.159538 5.907449 0.890625
v -2.132957 5.970685 0.872162
v -2.144470 5.966255 0.830399
v 0.060112 4.975513 0.169662
v 0.165207 4.988703 0.059402
v 0.081787 5.189509 0.232452
v 0.173431 5.201010 0.136322
v -0.643738 5.626121 -0.386368
v -0.592377 5.631421 -0.435699
v -0.599495 5.698044 -0.324493
v -0.554703 5.702667 -0.367508
v -0.882202 6.221710 -0.545364
v -0.850365 6.223905 -0.574402
v -0.845726 6.243853 -0.498703
v -0.817978 6.245766 -0.524017
v 0.242874 7.666244 0.052719
v 0.263977 7.677011 0.087540
v 0.341713 7.645474 0.060684
v 0.285957 7.666244 0.007523
v 0.310036 2.881482 -0.471069
v 0.515083 2.881482 -0.275604
v 0.296112 3.365770 -0.464584
v 0.483322 3.354261 -0.286102
v 1.028854 3.453319 -0.906265
v 1.162628 3.449340 -0.756348
v 0.908401 3.745192 -0.812576
v 1.033249 3.734509 -0.677963
v 1.553642 4.308944 -0.904129
v 1.625298 4.330194 -0.821762
v 1.419075 4.401214 -0.822876
v 1.487648 4.418326 -0.749634
v 1.680000 4.910907 -1.340454
v 1.711174 4.926494 -1.318039
v 1.633789 4.949769 -1.309357
v 1.663330 4.963040 -1.289627
vt 0.243494 0.396893
vt 0.243494 0.396893
vt 0.243494 0.396893
vt 0.243494 0.396893
vt 0.211099 0.396893
vt 0.211099 0.396893
vt 0.211099 0.396893
vt 0.211099 0.396893
vt 0.243494 0.396893
vt 0.243494 0.396893
vt 0.243494 0.396893
vt 0.243494 0.396893
vt 0.211099 0.396893
vt 0.211099 0.396893
vt 0.211099 0.396893
vt 0.211099 0.396893
vt 0.211099 0.396893
vt 0.211099 0.396893
vt 0.211099 0.396893
vt 0.211099 0.396893
vt 0.211099 0.396893
vt 0.211099 0.396893
vt 0.211099 0.396893
vt 0.211099 0.396893
vt 0.243494 0.396893
vt 0.243494 0.396893
vt 0.243494 0.396893
vt 0.243494 0.396893
vt 0.211099 0.396893
vt 0.211099 0.396893
vt 0.211099 0.396893
vt 0.211099 0.396893
vt 0.243494 0.396893
vt 0.243494 0.396893
vt 0.243494 0.396893
vt 0.243494 0.396893
vt 0.175105 0.396893
vt 0.175105 0.396893
vt 0.175105 0.396893
vt 0.175105 0.396893
vt 0.243494 0.396893
vt 0.243494 0.396893
vt 0.243494 0.396893
vt 0.243494 0.396893
vt 0.175105 0.396893
vt 0.175105 0.396893
vt 0.175105 0.396893
vt 0.175105 0.396893
vt 0.243494 0.396893
vt 0.243494 0.396893
vt 0.243494 0.396893
vt 0.243494 0.396893
vt 0.211099 0.396893
vt 0.211099 0.396893
vt 0.211099 0.396893
vt 0.211099 0.396893
vt 0.243494 0.396893
vt 0.243494 0.396893
vt 0.243494 0.396893
vt 0.243494 0.396893
vt 0.211099 0.396893
vt 0.211099 0.396893
vt 0.211099 0.396893
vt 0.211099 0.396893
vt 0.243494 0.396893
vt 0.243494 0.396893
vt 0.243494 0.396893
vt 0.243494 0.396893
vt 0.175105 0.396893
vt 0.175105 0.396893
vt 0.175105 0.396893
vt 0.175105 0.396893
vt 0.270490 0.396893
vt 0.270490 0.396893
vt 0.270490 0.396893
vt 0.270490 0.396893
vt 0.245294 0.396893
vt 0.245294 0.396893
vt 0.245294 0.396893
vt 0.245294 0.396893
vt 0.270490 0.396893
vt 0.270490 0.396893
vt 0.270490 0.396893
vt 0.270490 0.396893
vt 0.245294 0.396893
vt 0.245294 0.396893
vt 0.245294 0.396893
vt 0.245294 0.396893
vt 0.211099 0.396893
vt 0.211099 0.396893
vt 0.211099 0.396893
vt 0.211099 0.396893
vt 0.211099 0.396893
vt 0.211099 0.396893
vt 0.211099 0.396893
vt 0.211099 0.396893
vt 0.211099 0.396893
vt 0.211099 0.396893
vt 0.211099 0.396893
vt 0.211099 0.396893
vt 0.211099 0.396893
vt 0.211099 0.396893
vt 0.211099 0.396893
vt 0.211099 0.396893
vt 0.243494 0.396893
vt 0.243494 0.396893
vt 0.243494 0.396893
vt 0.243494 0.396893
vt 0.243494 0.396893
vt 0.243494 0.396893
vt 0.243494 0.396893
vt 0.243494 0.396893
vt 0.243494 0.396893
vt 0.243494 0.396893
vt 0.243494 0.396893
vt 0.243494 0.396893
vt 0.243494 0.396893
vt 0.243494 0.396893
vt 0.243494 0.396893
vt 0.243494 0.396893
vt 0.180504 0.396893
vt 0.180504 0.396893
vt 0.180504 0.396893
vt 0.180504 0.396893
vt 0.243494 0.396893
vt 0.243494 0.396893
vt 0.243494 0.396893
vt 0.243494 0.396893
vt 0.304684 0.396893
vt 0.304684 0.396893
vt 0.304684 0.396893
vt 0.304684 0.396893
vt 0.243494 0.396893
vt 0.243494 0.396893
vt 0.243494 0.396893
vt 0.243494 0.396893
vt 0.180504 0.396893
vt 0.180504 0.396893
vt 0.180504 0.396893
vt 0.180504 0.396893
vt 0.207500 0.396893
vt 0.207500 0.396893
vt 0.207500 0.396893
vt 0.207500 0.396893
vt 0.274089 0.396893
vt 0.274089 0.396893
vt 0.274089 0.396893
vt 0.274089 0.396893
vt 0.207500 0.396893
vt 0.207500 0.396893
vt 0.207500 0.396893
vt 0.207500 0.396893
vt 0.180504 0.396893
vt 0.180504 0.396893
vt 0.180504 0.396893
vt 0.180504 0.396893
vt 0.243494 0.396893
vt 0.243494 0.396893
vt 0.243494 0.396893
vt 0.243494 0.396893
vt 0.304684 0.396893
vt 0.304684 0.396893
vt 0.304684 0.396893
vt 0.304684 0.396893
vt 0.243494 0.396893
vt 0.243494 0.396893
vt 0.243494 0.396893
vt 0.243494 0.396893
vt 0.211099 0.396893
vt 0.211099 0.396893
vt 0.211099 0.396893
vt 0.211099 0.396893
vt 0.211099 0.396893
vt 0.211099 0.396893
vt 0.211099 0.396893
vt 0.211099 0.396893
vt 0.211099 0.396893
vt 0.211099 0.396893
vt 0.211099 0.396893
vt 0.211099 0.396893
vt 0.211099 0.396893
vt 0.211099 0.396893
vt 0.211099 0.396893
vt 0.211099 0.396893
vt 0.176905 0.396893
vt 0.176905 0.396893
vt 0.176905 0.396893
vt 0.176905 0.396893
vt 0.243494 0.396893
vt 0.243494 0.396893
vt 0.243494 0.396893
vt 0.243494 0.396893
vt 0.297485 0.396893
vt 0.297485 0.396893
vt 0.297485 0.396893
vt 0.297485 0.396893
vt 0.243494 0.396893
vt 0.243494 0.396893
vt 0.243494 0.396893
vt 0.243494 0.396893
vt 0.211099 0.396893
vt 0.211099 0.396893
vt 0.211099 0.396893
vt 0.211099 0.396893
vt 0.243494 0.396893
vt 0.243494 0.396893
vt 0.243494 0.396893
vt 0.243494 0.396893
vt 0.270490 0.396893
vt 0.270490 0.396893
vt 0.270490 0.396893
vt 0.270490 0.396893
vt 0.243494 0.396893
vt 0.243494 0.396893
vt 0.243494 0.396893
vt 0.243494 0.396893
vt 0.211099 0.396893
vt 0.211099 0.396893
vt 0.211099 0.396893
vt 0.211099 0.396893
vt 0.211099 0.396893
vt 0.211099 0.396893
vt 0.211099 0.396893
vt 0.211099 0.396893
vt 0.211099 0.396893
vt 0.211099 0.396893
vt 0.211099 0.396893
vt 0.211099 0.396893
vt 0.211099 0.396893
vt 0.211099 0.396893
vt 0.211099 0.396893
vt 0.211099 0.396893
vt 0.243494 0.396893
vt 0.243494 0.396893
vt 0.243494 0.396893
vt 0.243494 0.396893
vt 0.243494 0.396893
vt 0.243494 0.396893
vt 0.243494 0.396893
vt 0.243494 0.396893
vt 0.243494 0.396893
vt 0.243494 0.396893
vt 0.243494 0.396893
vt 0.243494 0.396893
vt 0.243494 0.396893
vt 0.243494 0.396893
vt 0.243494 0.396893
vt 0.243494 0.396893
vt 0.176905 0.396893
vt 0.176905 0.396893
vt 0.176905 0.396893
vt 0.176905 0.396893
vt 0.211099 0.396893
vt 0.211099 0.396893
vt 0.211099 0.396893
vt 0.211099 0.396893
vt 0.243494 0.396893
vt 0.243494 0.396893
vt 0.243494 0.396893
vt 0.243494 0.396893
vt 0.211099 0.396893
vt 0.211099 0.396893
vt 0.211099 0.396893
vt 0.211099 0.396893
vt 0.176905 0.396893
vt 0.176905 0.396893
vt 0.176905 0.396893
vt 0.176905 0.396893
vt 0.211099 0.396893
vt 0.211099 0.396893
vt 0.211099 0.396893
vt 0.211099 0.396893
vt 0.272289 0.396893
vt 0.272289 0.396893
vt 0.272289 0.396893
vt 0.272289 0.396893
vt 0.211099 0.396893
vt 0.211099 0.396893
vt 0.211099 0.396893
vt 0.211099 0.396893
vt 0.176905 0.396893
vt 0.176905 0.396893
vt 0.176905 0.396893
vt 0.176905 0.396893
vt 0.211099 0.396893
vt 0.211099 0.396893
vt 0.211099 0.396893
vt 0.211099 0.396893
vt 0.243494 0.396893
vt 0.243494 0.396893
vt 0.243494 0.396893
vt 0.243494 0.396893
vt 0.211099 0.396893
vt 0.211099 0.396893
vt 0.211099 0.396893
vt 0.211099 0.396893
vn -0.811181 0.133358 0.569387
vn -0.811181 0.133358 0.569387
vn -0.848040 0.091163 0.522032
vn -0.851558 0.086813 0.517023
vn 0.210745 0.974790 -0.073290
vn 0.210745 0.974790 -0.073290
vn 0.210745 0.974790 -0.073290
vn 0.210744 0.974790 -0.073290
vn 0.686926 0.092779 -0.720780
vn 0.686958 0.096604 -0.720248
vn 0.683580 0.135957 -0.717101
vn 0.683580 0.135957 -0.717101
vn 0.000000 -1.000000 0.000000
vn 0.000000 -1.000000 0.000000
vn 0.000000 -1.000000 0.000000
vn 0.000000 -1.000000 0.000000
vn 0.646962 0.135312 0.750420
vn 0.646962 0.135312 0.750420
vn 0.628713 0.147664 0.763489
vn 0.628585 0.147749 0.763578
vn -0.717102 0.135943 -0.683582
vn -0.717102 0.135943 -0.683582
vn -0.717102 0.135943 -0.683582
vn -0.717102 0.135943 -0.683582
vn -0.851558 0.086813 0.517023
vn -0.848040 0.091163 0.522032
vn -0.883874 0.043364 0.465711
vn -0.883874 0.043364 0.465711
vn 0.628585 0.147749 0.763578
vn 0.628713 0.147664 0.763489
vn 0.612126 0.158574 0.774697
vn 0.612126 0.158574 0.774697
vn 0.137579 0.713645 -0.686864
vn 0.137579 0.713645 -0.686864
vn 0.137579 0.713645 -0.686864
vn 0.137579 0.713645 -0.686864
vn -0.723232 -0.040400 -0.689423
vn -0.723232 -0.040400 -0.689423
vn -0.723232 -0.040400 -0.689423
vn -0.723232 -0.040400 -0.689423
vn -0.823470 0.494984 0.277287
vn -0.823470 0.494984 0.277287
vn -0.823470 0.494984 0.277287
vn -0.823470 0.494984 0.277287
vn 0.562002 -0.213189 0.799189
vn 0.562003 -0.213189 0.799189
vn 0.562002 -0.213189 0.799189
vn 0.562002 -0.213189 0.799189
vn 0.695561 0.241949 -0.676502
vn 0.690290 0.246011 -0.680425
vn 0.691938 0.258046 -0.674266
vn 0.691938 0.258046 -0.674266
vn -0.273628 0.934083 -0.229381
vn -0.273628 0.934083 -0.229381
vn -0.273628 0.934083 -0.229381
vn -0.273628 0.934084 -0.229381
vn -0.964330 0.054876 0.258954
vn -0.968701 0.039525 0.245063
vn -0.944057 0.112296 0.310075
vn -0.944057 0.112296 0.310075
vn 0.556728 0.276497 0.783328
vn 0.556728 0.276497 0.783328
vn 0.556728 0.276497 0.783328
vn 0.556728 0.276497 0.783328
vn 0.660380 -0.155622 -0.734630
vn 0.660380 -0.155622 -0.734630
vn 0.660380 -0.155622 -0.734630
vn 0.660380 -0.155622 -0.734630
vn -0.708648 -0.203674 -0.675526
vn -0.708648 -0.203674 -0.675526
vn -0.708648 -0.203674 -0.675526
vn -0.708648 -0.203674 -0.675526
vn 0.499914 0.689247 -0.524428
vn 0.499914 0.689247 -0.524428
vn 0.499914 0.689247 -0.524428
vn 0.499914 0.689247 -0.524428
vn 0.446041 0.789169 0.422209
vn 0.446041 0.789169 0.422209
vn 0.446041 0.789169 0.422209
vn 0.446041 0.789169 0.422209
vn -0.573030 0.636329 0.516452
vn -0.573030 0.636329 0.516452
vn -0.573030 0.636329 0.516452
vn -0.573030 0.636329 0.516452
vn -0.577074 0.706572 -0.409563
vn -0.577074 0.706572 -0.409563
vn -0.577074 0.706572 -0.409563
vn -0.577074 0.706572 -0.409563
vn 0.682326 -0.148600 -0.715785
vn 0.682326 -0.148600 -0.715785
vn 0.682326 -0.148600 -0.715785
vn 0.682326 -0.148600 -0.715785
vn 0.755735 -0.161020 0.634773
vn 0.755735 -0.161020 0.634773
vn 0.755735 -0.161020 0.634773
vn 0.755735 -0.161020 0.634773
vn -0.700837 -0.144280 0.698577
vn -0.700837 -0.144280 0.698577
vn -0.700837 -0.144280 0.698577
vn -0.700837 -0.144280 0.698577
vn -0.854186 -0.133013 -0.502666
vn -0.854186 -0.133013 -0.502666
vn -0.854186 -0.133013 -0.502666
vn -0.854186 -0.133013 -0.502666
vn -0.898717 -0.263476 0.350556
vn -0.898716 -0.263476 0.350556
vn -0.898716 -0.263476 0.350556
vn -0.898717 -0.263476 0.350556
vn -0.373042 -0.251984 0.892941
vn -0.373042 -0.251983 0.892941
vn -0.373042 -0.251984 0.892941
vn -0.373042 -0.251983 0.892941
vn -0.968701 0.039525 0.245063
vn -0.964330 0.054876 0.258954
vn -0.980318 -0.012803 0.197011
vn -0.980318 -0.012803 0.197011
vn -0.847667 0.184183 -0.497531
vn -0.840939 0.183552 -0.509049
vn -0.840026 0.183465 -0.510585
vn -0.840026 0.183465 -0.510585
vn -0.313251 -0.932325 0.180676
vn -0.313251 -0.932325 0.180676
vn -0.313251 -0.932325 0.180676
vn -0.313251 -0.932325 0.180676
vn 0.679011 -0.093452 0.728156
vn 0.679011 -0.093452 0.728156
vn 0.679010 -0.093452 0.728156
vn 0.679011 -0.093452 0.728156
vn 0.418335 0.907699 -0.032844
vn 0.418335 0.907699 -0.032844
vn 0.418335 0.907699 -0.032844
vn 0.418335 0.907699 -0.032844
vn -0.663314 0.226640 -0.713197
vn -0.663314 0.226640 -0.713197
vn -0.663314 0.226640 -0.713196
vn -0.663314 0.226640 -0.713197
vn -0.799103 -0.462531 0.384057
vn -0.799103 -0.462531 0.384057
vn -0.799103 -0.462531 0.384057
vn -0.799103 -0.462531 0.384057
vn 0.148397 0.187730 0.970946
vn 0.148397 0.187730 0.970946
vn 0.148397 0.187730 0.970946
vn 0.148397 0.187730 0.970946
vn 0.841381 0.512881 -0.170385
vn 0.841381 0.512881 -0.170385
vn 0.841381 0.512881 -0.170385
vn 0.841381 0.512881 -0.170385
vn -0.070077 -0.145075 -0.986936
vn -0.070077 -0.145075 -0.986936
vn -0.070077 -0.145075 -0.986936
vn -0.070077 -0.145075 -0.986936
vn -0.513973 -0.798727 0.312837
vn -0.513973 -0.798727 0.312837
vn -0.513973 -0.798727 0.312837
vn -0.513973 -0.798727 0.312837
vn 0.309945 0.095778 0.945918
vn 0.309945 0.095778 0.945918
vn 0.309945 0.095778 0.945918
vn 0.309945 0.095778 0.945918
vn 0.423331 0.892495 -0.155705
vn 0.423331 0.892495 -0.155705
vn 0.423331 0.892495 -0.155705
vn 0.423331 0.892495 -0.155705
vn -0.337043 0.046120 -0.940359
vn -0.337043 0.046120 -0.940359
vn -0.337043 0.046120 -0.940359
vn -0.337043 0.046120 -0.940359
vn -0.710171 0.219192 -0.669038
vn -0.710171 0.219192 -0.669038
vn -0.710171 0.219192 -0.669038
vn -0.710171 0.219192 -0.669038
vn -0.840939 0.183552 -0.509049
vn -0.847667 0.184183 -0.497531
vn -0.849233 0.184328 -0.494800
vn -0.849233 0.184328 -0.494800
vn -0.700556 0.281340 -0.655796
vn -0.700556 0.281340 -0.655796
vn -0.700556 0.281340 -0.655796
vn -0.700556 0.281340 -0.655796
vn -0.418679 0.305885 -0.855069
vn -0.418679 0.305885 -0.855069
vn -0.418679 0.305885 -0.855069
vn -0.418679 0.305885 -0.855069
vn -0.377174 -0.802267 -0.462718
vn -0.377174 -0.802267 -0.462718
vn -0.377174 -0.802267 -0.462718
vn -0.377174 -0.802267 -0.462718
vn -0.691960 -0.148510 0.706496
vn -0.691960 -0.148510 0.706496
vn -0.704342 -0.142479 0.695415
vn -0.703164 -0.143059 0.696487
vn 0.311395 0.859682 0.404945
vn 0.311395 0.859682 0.404945
vn 0.311395 0.859682 0.404945
vn 0.311395 0.859682 0.404945
vn 0.665968 0.251595 -0.702272
vn 0.665968 0.251595 -0.702272
vn 0.689290 0.240077 -0.683551
vn 0.692419 0.238485 -0.680941
vn -0.601413 -0.421390 -0.678773
vn -0.601413 -0.421390 -0.678773
vn -0.601413 -0.421390 -0.678773
vn -0.601413 -0.421390 -0.678773
vn -0.703164 -0.143059 0.696487
vn -0.704342 -0.142479 0.695415
vn -0.742340 -0.122957 0.658645
vn -0.742340 -0.122957 0.658645
vn 0.581137 0.473039 0.662203
vn 0.581137 0.473039 0.662203
vn 0.581137 0.473039 0.662203
vn 0.581137 0.473040 0.662203
vn 0.692419 0.238485 -0.680941
vn 0.689290 0.240077 -0.683551
vn 0.769580 0.195203 -0.607983
vn 0.769580 0.195203 -0.607983
vn -0.784021 0.053196 0.618451
vn -0.784021 0.053196 0.618451
vn -0.784021 0.053196 0.618451
vn -0.784021 0.053196 0.618451
vn 0.358320 -0.304012 0.882714
vn 0.358320 -0.304012 0.882714
vn 0.358320 -0.304012 0.882714
vn 0.358320 -0.304012 0.882714
vn 0.705132 0.094609 -0.702737
vn 0.705132 0.094609 -0.702737
vn 0.705132 0.094609 -0.702737
vn 0.705132 0.094609 -0.702737
vn -0.668866 0.382247 -0.637578
vn -0.668866 0.382247 -0.637578
vn -0.668866 0.382247 -0.637578
vn -0.668866 0.382247 -0.637578
vn 0.686958 0.096604 -0.720248
vn 0.686926 0.092779 -0.720780
vn 0.672580 0.030452 -0.739397
vn 0.704676 0.034541 -0.708688
vn 0.686926 0.092779 -0.720780
vn 0.690290 0.246011 -0.680425
vn 0.620706 0.054431 -0.782152
vn 0.672580 0.030452 -0.739397
vn 0.690290 0.246011 -0.680425
vn 0.695561 0.241949 -0.676502
vn 0.745852 0.060699 -0.663340
vn 0.620706 0.054431 -0.782152
vn 0.695561 0.241949 -0.676502
vn 0.686958 0.096604 -0.720248
vn 0.704676 0.034541 -0.708688
vn 0.745852 0.060699 -0.663340
vn 0.407174 -0.816733 -0.408848
vn 0.407174 -0.816733 -0.408848
vn 0.407174 -0.816733 -0.408848
vn 0.407174 -0.816733 -0.408848
vn -0.517946 0.020698 -0.855163
vn -0.517946 0.020698 -0.855163
vn -0.517946 0.020698 -0.855163
vn -0.517946 0.020698 -0.855163
vn -0.322351 0.865833 0.382652
vn -0.322351 0.865833 0.382652
vn -0.322351 0.865833 0.382652
vn -0.322351 0.865833 0.382652
vn 0.564197 0.046115 0.824351
vn 0.564197 0.046115 0.824351
vn 0.564197 0.046115 0.824351
vn 0.564197 0.046115 0.824351
vn 0.695986 -0.417076 -0.584509
vn 0.695986 -0.417076 -0.584509
vn 0.696949 -0.441676 -0.564964
vn 0.697091 -0.448212 -0.559616
vn -0.315975 0.211444 -0.924906
vn -0.315975 0.211444 -0.924906
vn -0.315975 0.211444 -0.924906
vn -0.315975 0.211444 -0.924906
vn -0.642341 0.498298 0.582321
vn -0.642341 0.498298 0.582321
vn -0.642341 0.498298 0.582321
vn -0.642341 0.498298 0.582321
vn 0.350151 -0.123882 0.928465
vn 0.350151 -0.123882 0.928465
vn 0.350151 -0.123882 0.928465
vn 0.350151 -0.123882 0.928465
vn 0.697091 -0.448212 -0.559616
vn 0.696949 -0.441676 -0.564964
vn 0.695632 -0.513907 -0.501992
vn 0.695632 -0.513907 -0.501992
vn -0.661792 -0.339803 -0.668255
vn -0.661792 -0.339803 -0.668255
vn -0.661792 -0.339803 -0.668255
vn -0.661792 -0.339803 -0.668255
vn -0.622604 0.642180 0.447179
vn -0.622604 0.642180 0.447179
vn -0.622604 0.642180 0.447179
vn -0.622604 0.642180 0.447179
vn 0.636858 0.433221 0.637755
vn 0.636858 0.433221 0.637755
vn 0.636858 0.433221 0.637755
vn 0.636858 0.433221 0.637755
s off
f 1/1/1 2/2/2 4/3/3 3/4/4
f 57/5/5 58/6/6 59/7/7 60/8/8
f 5/9/9 6/10/10 8/11/11 7/12/12
f 25/13/13 26/14/14 27/15/15 28/16/16
f 2/17/17 8/18/18 6/19/19 4/20/20
f 7/21/21 1/22/22 3/23/23 5/24/24
f 3/25/25 4/26/26 10/27/27 9/28/28
f 4/29/29 6/30/30 11/31/31 10/32/32
f 74/33/33 73/34/34 75/35/35 76/36/36
f 5/37/37 3/38/38 9/39/39 12/40/40
f 41/41/41 42/42/42 43/43/43 44/44/44
f 10/45/45 11/46/46 15/47/47 14/48/48
f 11/49/49 12/50/50 16/51/51 15/52/52
f 54/53/53 53/54/54 55/55/55 56/56/56
f 13/57/57 14/58/58 18/59/59 17/60/60
f 14/61/61 15/62/62 19/63/63 18/64/64
f 15/65/65 16/66/66 20/67/67 19/68/68
f 16/69/69 13/70/70 17/71/71 20/72/72
f 7/73/73 8/74/74 22/75/75 21/76/76
f 8/77/77 2/78/78 23/79/79 22/80/80
f 2/81/81 1/82/82 24/83/83 23/84/84
f 1/85/85 7/86/86 21/87/87 24/88/88
f 21/89/89 22/90/90 26/91/91 25/92/92
f 22/93/93 23/94/94 27/95/95 26/96/96
f 23/97/97 24/98/98 28/99/99 27/100/100
f 24/101/101 21/102/102 25/103/103 28/104/104
f 9/105/105 10/106/106 30/107/107 29/108/108
f 10/109/109 14/110/110 31/111/111 30/112/112
f 14/113/113 13/114/114 32/115/115 31/116/116
f 13/117/117 9/118/118 29/119/119 32/120/120
f 29/121/121 30/122/122 34/123/123 33/124/124
f 30/125/125 31/126/126 35/127/127 34/128/128
f 31/129/129 32/130/130 36/131/131 35/132/132
f 32/133/133 29/134/134 33/135/135 36/136/136
f 33/137/137 34/138/138 38/139/139 37/140/140
f 34/141/141 35/142/142 39/143/143 38/144/144
f 35/145/145 36/146/146 40/147/147 39/148/148
f 36/149/149 33/150/150 37/151/151 40/152/152
f 37/153/153 38/154/154 42/155/155 41/156/156
f 38/157/157 39/158/158 43/159/159 42/160/160
f 39/161/161 40/162/162 44/163/163 43/164/164
f 40/165/165 37/166/166 41/167/167 44/168/168
f 12/169/169 9/170/170 45/171/171 46/172/172
f 9/173/173 13/174/174 47/175/175 45/176/176
f 13/177/177 16/178/178 48/179/179 47/180/180
f 16/181/181 12/182/182 46/183/183 48/184/184
f 46/185/185 45/186/186 49/187/187 50/188/188
f 45/189/189 47/190/190 51/191/191 49/192/192
f 47/193/193 48/194/194 52/195/195 51/196/196
f 48/197/197 46/198/198 50/199/199 52/200/200
f 50/201/201 49/202/202 53/203/203 54/204/204
f 49/205/205 51/206/206 55/207/207 53/208/208
f 51/209/209 52/210/210 56/211/211 55/212/212
f 52/213/213 50/214/214 54/215/215 56/216/216
f 17/217/217 18/218/218 58/219/219 57/220/220
f 18/221/221 19/222/222 59/223/223 58/224/224
f 19/225/225 20/226/226 60/227/227 59/228/228
f 20/229/229 17/230/230 57/231/231 60/232/232
f 6/233/233 5/234/234 61/235/235 62/236/236
f 5/237/237 12/238/238 63/239/239 61/240/240
f 12/241/241 11/242/242 64/243/243 63/244/244
f 11/245/245 6/246/246 62/247/247 64/248/248
f 62/249/249 61/250/250 65/251/251 66/252/252
f 61/253/253 63/254/254 67/255/255 65/256/256
f 63/257/257 64/258/258 68/259/259 67/260/260
f 64/261/261 62/262/262 66/263/263 68/264/264
f 66/265/265 65/266/266 69/267/267 70/268/268
f 65/269/269 67/270/270 71/271/271 69/272/272
f 67/273/273 68/274/274 72/275/275 71/276/276
f 68/277/277 66/278/278 70/279/279 72/280/280
f 70/281/281 69/282/282 73/283/283 74/284/284
f 69/285/285 71/286/286 75/287/287 73/288/288
f 71/289/289 72/290/290 76/291/291 75/292/292
f 72/293/293 70/294/294 74/295/295 76/296/296
