# This file uses meters as units for non-parametric coordinates.

v -0.506195 0.401229 -0.286621
v -0.010071 0.610655 0.349579
v -0.253159 1.480497 -0.335434
v -0.044266 1.487718 0.042572
v -0.033424 1.462734 -0.565948
v 0.326111 1.462734 -0.223221
v -0.080490 0.366818 -0.733200
v 0.566261 0.569024 -0.132263
v -0.307495 3.517240 -0.397644
v -0.269554 3.476202 -0.178894
v 0.124611 3.449295 -0.469650
v -0.063950 3.497554 -0.653122
v -0.234138 0.067066 -1.231842
v 0.942741 0.269271 -0.125565
v -0.012672 0.351969 1.012146
v -0.987816 0.147815 0.049896
v -0.237663 -0.140391 -1.175644
v 1.147125 -0.140391 0.144394
v 0.232216 -0.061200 1.233871
v -0.959366 -0.063067 0.051743
vt 0.243494 0.396893
vt 0.243494 0.396893
vt 0.243494 0.396893
vt 0.243494 0.396893
vt 0.243494 0.396893
vt 0.243494 0.396893
vt 0.243494 0.396893
vt 0.243494 0.396893
vt 0.211099 0.396893
vt 0.211099 0.396893
vt 0.211099 0.396893
vt 0.211099 0.396893
vt 0.211099 0.396893
vt 0.211099 0.396893
vt 0.211099 0.396893
vt 0.211099 0.396893
vt 0.211099 0.396893
vt 0.211099 0.396893
vt 0.211099 0.396893
vt 0.211099 0.396893
vt 0.243494 0.396893
vt 0.243494 0.396893
vt 0.243494 0.396893
vt 0.243494 0.396893
vt 0.211099 0.396893
vt 0.211099 0.396893
vt 0.211099 0.396893
vt 0.211099 0.396893
vt 0.175105 0.396893
vt 0.175105 0.396893
vt 0.175105 0.396893
vt 0.175105 0.396893
vt 0.270490 0.396893
vt 0.270490 0.396893
vt 0.270490 0.396893
vt 0.270490 0.396893
vt 0.245294 0.396893
vt 0.245294 0.396893
vt 0.245294 0.396893
vt 0.245294 0.396893
vt 0.270490 0.396893
vt 0.270490 0.396893
vt 0.270490 0.396893
vt 0.270490 0.396893
vt 0.245294 0.396893
vt 0.245294 0.396893
vt 0.245294 0.396893
vt 0.245294 0.396893
vt 0.211099 0.396893
vt 0.211099 0.396893
vt 0.211099 0.396893
vt 0.211099 0.396893
vt 0.211099 0.396893
vt 0.211099 0.396893
vt 0.211099 0.396893
vt 0.211099 0.396893
vt 0.211099 0.396893
vt 0.211099 0.396893
vt 0.211099 0.396893
vt 0.211099 0.396893
vt 0.211099 0.396893
vt 0.211099 0.396893
vt 0.211099 0.396893
vt 0.211099 0.396893
vt 0.243494 0.396893
vt 0.243494 0.396893
vt 0.243494 0.396893
vt 0.243494 0.396893
vt 0.297310 0.397320
vt 0.297310 0.397320
vt 0.297310 0.397320
vt 0.297310 0.397320
vn -0.824753 0.189186 0.532908
vn -0.824753 0.189186 0.532908
vn -0.824753 0.189186 0.532908
vn -0.824753 0.189186 0.532908
vn 0.682573 0.035784 -0.729941
vn 0.681540 0.041457 -0.730605
vn 0.671018 0.093325 -0.735544
vn 0.671018 0.093325 -0.735544
vn -0.038424 -0.998448 0.040308
vn -0.038424 -0.998448 0.040308
vn -0.038424 -0.998448 0.040308
vn -0.038423 -0.998448 0.040308
vn 0.609331 0.262551 0.748186
vn 0.609331 0.262551 0.748186
vn 0.597799 0.200066 0.776280
vn 0.597027 0.196341 0.777823
vn -0.711881 0.135735 -0.689059
vn -0.711881 0.135735 -0.689059
vn -0.711881 0.135735 -0.689059
vn -0.711881 0.135735 -0.689059
vn -0.924172 -0.037410 0.380141
vn -0.924172 -0.037410 0.380141
vn -0.924172 -0.037410 0.380141
vn -0.924172 -0.037410 0.380141
vn 0.597027 0.196341 0.777823
vn 0.597799 0.200066 0.776280
vn 0.588197 0.156545 0.793422
vn 0.588197 0.156545 0.793422
vn -0.724780 -0.040341 -0.687799
vn -0.724780 -0.040341 -0.687799
vn -0.724780 -0.040341 -0.687799
vn -0.724780 -0.040341 -0.687799
vn 0.427940 0.663054 -0.614188
vn 0.427940 0.663054 -0.614188
vn 0.427940 0.663054 -0.614188
vn 0.427940 0.663054 -0.614188
vn 0.476899 0.787402 0.390596
vn 0.476899 0.787402 0.390596
vn 0.476899 0.787402 0.390596
vn 0.476899 0.787402 0.390596
vn -0.470344 0.856832 0.211225
vn -0.470344 0.856832 0.211225
vn -0.470344 0.856832 0.211225
vn -0.470344 0.856832 0.211225
vn -0.535249 0.736116 -0.414296
vn -0.535249 0.736116 -0.414296
vn -0.535249 0.736116 -0.414296
vn -0.535249 0.736116 -0.414296
vn 0.685924 -0.152762 -0.711458
vn 0.685924 -0.152762 -0.711458
vn 0.685924 -0.152762 -0.711458
vn 0.685924 -0.152762 -0.711458
vn 0.620609 0.623213 0.475868
vn 0.620609 0.623213 0.475868
vn 0.620609 0.623213 0.475868
vn 0.620609 0.623213 0.475868
vn -0.700025 -0.051441 0.712263
vn -0.700025 -0.051441 0.712263
vn -0.700025 -0.051441 0.712263
vn -0.700026 -0.051441 0.712263
vn -0.859059 -0.120220 -0.497558
vn -0.859059 -0.120220 -0.497558
vn -0.859059 -0.120220 -0.497558
vn -0.859059 -0.120220 -0.497558
vn 0.681540 0.041457 -0.730605
vn 0.682573 0.035784 -0.729941
vn 0.691495 -0.020006 -0.722104
vn 0.691495 -0.020006 -0.722104
vn 0.173589 0.977569 0.119275
vn 0.173589 0.977568 0.119275
vn 0.173589 0.977569 0.119275
vn 0.173589 0.977568 0.119275
s off
f 1/1/1 2/2/2 4/3/3 3/4/4
f 5/5/5 6/6/6 8/7/7 7/8/8
f 17/9/9 18/10/10 19/11/11 20/12/12
f 2/13/13 8/14/14 6/15/15 4/16/16
f 7/17/17 1/18/18 3/19/19 5/20/20
f 3/21/21 4/22/22 10/23/23 9/24/24
f 4/25/25 6/26/26 11/27/27 10/28/28
f 5/29/29 3/30/30 9/31/31 12/32/32
f 7/33/33 8/34/34 14/35/35 13/36/36
f 8/37/37 2/38/38 15/39/39 14/40/40
f 2/41/41 1/42/42 16/43/43 15/44/44
f 1/45/45 7/46/46 13/47/47 16/48/48
f 13/49/49 14/50/50 18/51/51 17/52/52
f 14/53/53 15/54/54 19/55/55 18/56/56
f 15/57/57 16/58/58 20/59/59 19/60/60
f 16/61/61 13/62/62 17/63/63 20/64/64
f 6/65/65 5/66/66 12/67/67 11/68/68
f 10/69/69 11/70/70 12/71/71 9/72/72
