# This file uses meters as units for non-parametric coordinates.

v -2.953590 0.017898 1.961098
v -3.418991 -0.035684 2.029499
v -2.953590 0.333478 1.961098
v -3.418991 0.387060 2.029499
v -2.299324 0.300087 2.690432
v -3.147865 0.342329 3.015171
v -2.299324 0.051289 2.690432
v -3.147865 0.009047 3.015171
v 1.470947 -0.026601 2.402542
v 1.444824 -0.110393 3.847584
v 1.470947 0.466898 2.402542
v 1.444824 0.550688 3.847584
v 2.480553 0.414680 2.456348
v 2.721603 0.480740 3.570011
v 2.480553 0.025615 2.456348
v 2.721603 -0.040445 3.570011
v 2.485741 -0.212987 0.735912
v 4.350677 -0.296779 1.431087
v 2.485741 0.280512 0.735912
v 4.350677 0.364302 1.431087
v 2.988724 0.228294 -0.161880
v 4.538040 0.294354 0.135151
v 2.988724 -0.160771 -0.161880
v 4.538040 -0.226831 0.135151
v -1.398872 0.581367 -0.462952
v -3.044113 -0.185956 -1.886120
v -1.495720 0.941066 -0.527870
v -3.173859 0.295890 -1.973095
v -2.953674 0.676601 0.414707
v -4.510223 0.167953 -0.376305
v -2.877296 0.393020 0.465897
v -4.407959 -0.211926 -0.307735
v 2.235237 -0.097846 -2.069866
v 0.877197 -0.129768 -2.570541
v 2.277435 0.389803 -2.132786
v 0.933716 0.523477 -2.654842
v 1.890961 0.490451 -1.202469
v 0.769836 0.633791 -1.361343
v 1.857704 0.105998 -1.152859
v 0.725281 0.118784 -1.294888
v 0.022408 -0.481373 3.034176
v 0.347603 -0.572222 2.248997
v 0.155586 0.226051 3.121170
v 0.526031 0.375428 2.365547
v -1.123398 0.467269 2.478283
v -0.767471 0.694207 0.897091
v -1.228401 -0.090450 2.409691
v -0.908127 -0.052904 0.805218
v -1.901123 -0.333370 -3.510063
v -1.619064 -0.053692 -2.117916
v -1.999229 0.138813 -3.614750
v -1.750488 0.578835 -2.258156
v -1.009560 0.249376 -3.797394
v -0.567650 0.627934 -2.815487
v -0.932213 -0.122883 -3.714863
v -0.464020 0.129259 -2.704929
v -1.042366 0.373547 -2.819073
v 1.688866 0.373547 -0.456703
v 0.284378 0.041154 1.844440
v -3.525589 0.245347 0.935543
v -1.033745 0.329754 -1.118874
v 0.866104 0.712002 -0.528572
v -0.422737 0.634404 0.712559
v -2.603081 0.398405 0.373051
v 0.264580 0.373547 -1.942917
v 0.126205 0.590155 -0.875866
v -1.661224 0.601799 0.892929
v -2.433754 0.174937 1.753067
v -1.098259 -0.022385 -3.441246
v 0.486320 -0.022385 -2.378971
v 2.213188 -0.022385 -0.577038
v 0.510330 -0.425387 2.212940
v -4.108986 -0.177818 1.110966
v -2.785225 -0.263185 2.102154
v 1.058838 -0.229751 0.672104
v 0.688049 0.202513 0.540909
v 0.202927 0.672073 0.110050
v -0.793518 0.596146 0.034275
v -1.841255 0.365079 -0.351196
v -2.802567 0.307581 -1.210545
v -3.129875 -0.102364 -1.422310
v -2.696495 -0.380431 1.707539
v -2.538712 1.711857 -0.782253
v -2.534660 -0.582515 1.547974
v -2.376869 1.509775 -0.941814
v -2.277603 -0.466497 1.661766
v -2.119812 1.625790 -0.828026
v -2.439453 -0.264420 1.821316
v -2.281639 1.827873 -0.668461
v -0.754890 0.939432 -1.075050
v 2.102165 -0.478029 1.858562
v -0.684143 1.320871 -0.959671
v 2.172935 -0.096586 1.973949
v -0.388168 1.349045 -1.234314
v 2.468903 -0.068411 1.699318
v -0.458946 0.967604 -1.349697
v 2.398186 -0.449848 1.583935
vt 0.170818 0.062674
vt 0.170818 0.062674
vt 0.170818 0.062674
vt 0.170818 0.062674
vt 0.231695 0.062674
vt 0.231695 0.062674
vt 0.231695 0.062674
vt 0.231695 0.062674
vt 0.170818 0.062674
vt 0.170818 0.062674
vt 0.170818 0.062674
vt 0.170818 0.062674
vt 0.202427 0.062674
vt 0.202427 0.062674
vt 0.202427 0.062674
vt 0.202427 0.062674
vt 0.202427 0.062674
vt 0.202427 0.062674
vt 0.202427 0.062674
vt 0.202427 0.062674
vt 0.170818 0.062674
vt 0.170818 0.062674
vt 0.170818 0.062674
vt 0.170818 0.062674
vt 0.231695 0.062382
vt 0.231695 0.062382
vt 0.231695 0.062382
vt 0.231695 0.062382
vt 0.170818 0.062674
vt 0.170818 0.062674
vt 0.170818 0.062674
vt 0.170818 0.062674
vt 0.202427 0.062674
vt 0.202427 0.062674
vt 0.202427 0.062674
vt 0.202427 0.062674
vt 0.202427 0.062674
vt 0.202427 0.062674
vt 0.202427 0.062674
vt 0.202427 0.062674
vt 0.170818 0.062674
vt 0.170818 0.062674
vt 0.170818 0.062674
vt 0.170818 0.062674
vt 0.231695 0.062382
vt 0.231695 0.062382
vt 0.231695 0.062382
vt 0.231695 0.062382
vt 0.170818 0.062674
vt 0.170818 0.062674
vt 0.170818 0.062674
vt 0.170818 0.062674
vt 0.202427 0.062674
vt 0.202427 0.062674
vt 0.202427 0.062674
vt 0.202427 0.062674
vt 0.202427 0.062674
vt 0.202427 0.062674
vt 0.202427 0.062674
vt 0.202427 0.062674
vt 0.170818 0.062674
vt 0.170818 0.062674
vt 0.170818 0.062674
vt 0.170818 0.062674
vt 0.231695 0.062674
vt 0.231695 0.062674
vt 0.231695 0.062674
vt 0.231695 0.062674
vt 0.170818 0.062674
vt 0.170818 0.062674
vt 0.170818 0.062674
vt 0.170818 0.062674
vt 0.202427 0.062674
vt 0.202427 0.062674
vt 0.202427 0.062674
vt 0.202427 0.062674
vt 0.202427 0.062674
vt 0.202427 0.062674
vt 0.202427 0.062674
vt 0.202427 0.062674
vt 0.170818 0.062674
vt 0.170818 0.062674
vt 0.170818 0.062674
vt 0.170818 0.062674
vt 0.231695 0.062674
vt 0.231695 0.062674
vt 0.231695 0.062674
vt 0.231695 0.062674
vt 0.170818 0.062674
vt 0.170818 0.062674
vt 0.170818 0.062674
vt 0.170818 0.062674
vt 0.202427 0.062674
vt 0.202427 0.062674
vt 0.202427 0.062674
vt 0.202427 0.062674
vt 0.202427 0.062674
vt 0.202427 0.062674
vt 0.202427 0.062674
vt 0.202427 0.062674
vt 0.136868 0.062674
vt 0.136868 0.062674
vt 0.136868 0.062674
vt 0.136868 0.062674
vt 0.197744 0.062674
vt 0.197744 0.062674
vt 0.197744 0.062674
vt 0.197744 0.062674
vt 0.136868 0.062674
vt 0.136868 0.062674
vt 0.136868 0.062674
vt 0.136868 0.062674
vt 0.168477 0.062674
vt 0.168477 0.062674
vt 0.168477 0.062674
vt 0.168477 0.062674
vt 0.168477 0.062674
vt 0.168477 0.062674
vt 0.168477 0.062674
vt 0.168477 0.062674
vt 0.170818 0.062674
vt 0.170818 0.062674
vt 0.170818 0.062674
vt 0.170818 0.062674
vt 0.231695 0.062674
vt 0.231695 0.062674
vt 0.231695 0.062674
vt 0.231695 0.062674
vt 0.170818 0.062674
vt 0.170818 0.062674
vt 0.170818 0.062674
vt 0.170818 0.062674
vt 0.202427 0.062674
vt 0.202427 0.062674
vt 0.202427 0.062674
vt 0.202427 0.062674
vt 0.202427 0.062674
vt 0.202427 0.062674
vt 0.202427 0.062674
vt 0.202427 0.062674
vt 0.301009 0.061306
vt 0.301009 0.061306
vt 0.301009 0.061306
vt 0.301009 0.061306
vt 0.237553 0.061306
vt 0.237553 0.061306
vt 0.237553 0.061306
vt 0.237553 0.061306
vt 0.237553 0.061306
vt 0.237553 0.061306
vt 0.237553 0.061306
vt 0.237553 0.061306
vt 0.263366 0.061306
vt 0.263366 0.061306
vt 0.263366 0.061306
vt 0.263366 0.061306
vt 0.263366 0.061306
vt 0.263366 0.061306
vt 0.263366 0.061306
vt 0.263366 0.061306
vt 0.198835 0.061306
vt 0.198835 0.061306
vt 0.198835 0.061306
vt 0.198835 0.061306
vt 0.263366 0.061306
vt 0.263366 0.061306
vt 0.263366 0.061306
vt 0.263366 0.061306
vt 0.204212 0.061306
vt 0.204212 0.061306
vt 0.204212 0.061306
vt 0.204212 0.061306
vt 0.210785 0.068363
vt 0.210785 0.068363
vt 0.210785 0.068363
vt 0.210785 0.068363
vt 0.210785 0.068363
vt 0.210785 0.068363
vt 0.210785 0.068363
vt 0.210785 0.068363
vt 0.230178 0.068363
vt 0.230178 0.068363
vt 0.230178 0.068363
vt 0.230178 0.068363
vt 0.230178 0.068363
vt 0.230178 0.068363
vt 0.230178 0.068363
vt 0.230178 0.068363
vt 0.210785 0.068363
vt 0.210785 0.068363
vt 0.210785 0.068363
vt 0.210785 0.068363
vt 0.237553 0.061306
vt 0.237553 0.061306
vt 0.263366 0.061306
vt 0.263366 0.061306
vt 0.301009 0.061306
vt 0.301009 0.061306
vt 0.263366 0.061306
vt 0.263366 0.061306
vt 0.230178 0.068363
vt 0.230178 0.068363
vt 0.170782 0.061306
vt 0.170782 0.061306
vt 0.170782 0.061306
vt 0.170782 0.061306
vt 0.202749 0.061306
vt 0.202749 0.061306
vt 0.202749 0.061306
vt 0.202749 0.061306
vt 0.170782 0.061306
vt 0.170782 0.061306
vt 0.170782 0.061306
vt 0.170782 0.061306
vt 0.202749 0.061306
vt 0.202749 0.061306
vt 0.202749 0.061306
vt 0.202749 0.061306
vt 0.133630 0.061306
vt 0.133630 0.061306
vt 0.133630 0.061306
vt 0.133630 0.061306
vt 0.137395 0.061306
vt 0.137395 0.061306
vt 0.137395 0.061306
vt 0.137395 0.061306
vt 0.170782 0.061306
vt 0.170782 0.061306
vt 0.170782 0.061306
vt 0.170782 0.061306
vt 0.202749 0.061306
vt 0.202749 0.061306
vt 0.202749 0.061306
vt 0.202749 0.061306
vt 0.170782 0.061306
vt 0.170782 0.061306
vt 0.170782 0.061306
vt 0.170782 0.061306
vt 0.202749 0.061306
vt 0.202749 0.061306
vt 0.202749 0.061306
vt 0.202749 0.061306
vt 0.133630 0.061306
vt 0.133630 0.061306
vt 0.133630 0.061306
vt 0.133630 0.061306
vt 0.137395 0.061306
vt 0.137395 0.061306
vt 0.137395 0.061306
vt 0.137395 0.061306
vn -0.145411 0.000000 -0.989371
vn -0.145411 0.000000 -0.989371
vn -0.145411 0.000000 -0.989371
vn -0.145411 0.000000 -0.989371
vn 0.074319 0.997220 0.005324
vn 0.074319 0.997220 0.005324
vn 0.074319 0.997220 0.005324
vn 0.074319 0.997220 0.005324
vn 0.357423 0.000000 0.933943
vn 0.357423 0.000000 0.933943
vn 0.357423 0.000000 0.933943
vn 0.357423 0.000000 0.933943
vn -0.964189 0.000000 0.265217
vn -0.964189 0.000000 0.265217
vn -0.964189 0.000000 0.265217
vn -0.964189 0.000000 0.265217
vn 0.744376 0.000000 -0.667761
vn 0.744376 0.000000 -0.667760
vn 0.744376 0.000000 -0.667760
vn 0.744376 0.000000 -0.667760
vn -0.999837 0.000000 -0.018075
vn -0.999837 0.000000 -0.018075
vn -0.999837 0.000000 -0.018075
vn -0.999837 0.000000 -0.018075
vn 0.047166 0.996939 -0.062348
vn 0.047166 0.996939 -0.062348
vn 0.047166 0.996939 -0.062348
vn 0.047166 0.996939 -0.062348
vn 0.977367 0.000000 -0.211550
vn 0.977367 0.000000 -0.211550
vn 0.977367 0.000000 -0.211550
vn 0.977367 0.000000 -0.211550
vn 0.212439 0.000000 0.977174
vn 0.212439 0.000000 0.977174
vn 0.212439 0.000000 0.977175
vn 0.212439 0.000000 0.977174
vn 0.053219 0.000000 -0.998583
vn 0.053219 0.000000 -0.998583
vn 0.053219 0.000000 -0.998583
vn 0.053219 0.000000 -0.998583
vn -0.349283 0.000000 0.937017
vn -0.349283 0.000000 0.937017
vn -0.349283 0.000000 0.937017
vn -0.349283 0.000000 0.937017
vn -0.025325 0.997659 -0.063528
vn -0.025325 0.997659 -0.063528
vn -0.025325 0.997659 -0.063528
vn -0.025325 0.997659 -0.063528
vn 0.188289 0.000000 -0.982114
vn 0.188289 0.000000 -0.982114
vn 0.188289 0.000000 -0.982114
vn 0.188289 0.000000 -0.982114
vn 0.989710 0.000000 0.143089
vn 0.989710 0.000000 0.143089
vn 0.989710 0.000000 0.143089
vn 0.989710 0.000000 0.143089
vn -0.872415 0.000000 -0.488765
vn -0.872415 0.000000 -0.488765
vn -0.872415 0.000000 -0.488765
vn -0.872415 0.000000 -0.488765
vn 0.644262 0.035580 -0.763977
vn 0.644262 0.035580 -0.763976
vn 0.644262 0.035580 -0.763977
vn 0.644262 0.035580 -0.763977
vn -0.252439 0.958893 -0.129608
vn -0.252439 0.958893 -0.129608
vn -0.252439 0.958893 -0.129608
vn -0.252439 0.958893 -0.129608
vn -0.461964 0.035574 0.886185
vn -0.461964 0.035574 0.886185
vn -0.461964 0.035574 0.886185
vn -0.461964 0.035574 0.886185
vn -0.717835 -0.306137 -0.625295
vn -0.717835 -0.306137 -0.625295
vn -0.717835 -0.306137 -0.625295
vn -0.717835 -0.306137 -0.625295
vn 0.484848 0.280107 0.828530
vn 0.484848 0.280107 0.828530
vn 0.484848 0.280107 0.828530
vn 0.484848 0.280107 0.828530
vn 0.345125 -0.149428 -0.926585
vn 0.345125 -0.149428 -0.926585
vn 0.345125 -0.149428 -0.926585
vn 0.345125 -0.149428 -0.926585
vn 0.128397 0.989775 -0.062119
vn 0.128397 0.989775 -0.062119
vn 0.128397 0.989775 -0.062119
vn 0.128397 0.989775 -0.062119
vn -0.121738 0.137379 0.983009
vn -0.121738 0.137379 0.983009
vn -0.121738 0.137379 0.983009
vn -0.121738 0.137379 0.983009
vn -0.988983 0.068640 -0.131152
vn -0.988983 0.068640 -0.131152
vn -0.988983 0.068640 -0.131152
vn -0.988983 0.068640 -0.131152
vn 0.921922 -0.029931 0.386217
vn 0.921922 -0.029931 0.386217
vn 0.921922 -0.029931 0.386217
vn 0.921922 -0.029931 0.386217
vn 0.892828 -0.216658 0.394864
vn 0.892828 -0.216658 0.394864
vn 0.892828 -0.216658 0.394864
vn 0.892828 -0.216658 0.394864
vn 0.066881 0.981598 0.178863
vn 0.066881 0.981598 0.178863
vn 0.066881 0.981598 0.178863
vn 0.066881 0.981598 0.178863
vn -0.960953 0.203920 -0.187045
vn -0.960953 0.203920 -0.187045
vn -0.960953 0.203920 -0.187045
vn -0.960953 0.203920 -0.187045
vn 0.742876 -0.057847 -0.666925
vn 0.742876 -0.057847 -0.666925
vn 0.742876 -0.057847 -0.666925
vn 0.742876 -0.057847 -0.666925
vn -0.452647 -0.024401 0.891356
vn -0.452647 -0.024401 0.891356
vn -0.452647 -0.024401 0.891356
vn -0.452647 -0.024401 0.891356
vn -0.962683 -0.150092 0.225199
vn -0.962683 -0.150092 0.225199
vn -0.962683 -0.150092 0.225199
vn -0.962683 -0.150092 0.225199
vn -0.165484 0.945054 -0.281937
vn -0.165484 0.945054 -0.281937
vn -0.165484 0.945054 -0.281937
vn -0.165484 0.945054 -0.281937
vn 0.894978 0.089060 -0.437130
vn 0.894978 0.089060 -0.437130
vn 0.894978 0.089060 -0.437130
vn 0.894978 0.089060 -0.437130
vn 0.400148 0.276840 0.873636
vn 0.400148 0.276840 0.873636
vn 0.400148 0.276840 0.873636
vn 0.400148 0.276840 0.873636
vn -0.149642 -0.243547 -0.958276
vn -0.149642 -0.243547 -0.958275
vn -0.149643 -0.243547 -0.958275
vn -0.149642 -0.243547 -0.958276
vn -0.117815 0.984890 -0.126934
vn -0.086363 0.993113 -0.079177
vn -0.113184 0.990652 -0.076151
vn -0.121796 0.982500 -0.140926
vn -0.042638 0.998583 -0.031850
vn -0.066925 0.995603 -0.065548
vn -0.101064 0.990119 -0.097211
vn -0.075239 0.995001 -0.065666
vn 0.368244 0.857665 0.358898
vn 0.365972 0.855537 0.366226
vn 0.385600 0.872748 0.299371
vn 0.385600 0.872748 0.299371
vn -0.180820 0.967128 0.178794
vn -0.180820 0.967128 0.178795
vn -0.180820 0.967128 0.178795
vn -0.180820 0.967128 0.178795
vn -0.104142 0.993595 -0.043867
vn -0.113184 0.990652 -0.076151
vn -0.086363 0.993113 -0.079177
vn -0.044194 0.998902 -0.015567
vn 0.212022 0.926186 -0.311812
vn 0.212022 0.926186 -0.311812
vn 0.212022 0.926186 -0.311812
vn 0.212022 0.926186 -0.311812
vn -0.121796 0.982500 -0.140926
vn -0.049841 0.998334 -0.029064
vn -0.083483 0.994482 -0.063532
vn -0.117815 0.984890 -0.126934
vn 0.033004 0.889153 0.456418
vn 0.033004 0.889153 0.456418
vn 0.033004 0.889153 0.456418
vn 0.033004 0.889153 0.456418
vn 0.351846 0.775077 -0.524843
vn 0.425037 0.767159 -0.480428
vn 0.411932 0.769025 -0.488787
vn 0.351846 0.775077 -0.524843
vn 0.700649 0.640253 0.314907
vn 0.700649 0.640253 0.314907
vn 0.700649 0.640253 0.314907
vn 0.700649 0.640253 0.314907
vn -0.370375 0.742175 0.558568
vn -0.370375 0.742175 0.558568
vn -0.370375 0.742175 0.558568
vn -0.370375 0.742175 0.558568
vn -0.654222 0.724607 -0.216654
vn -0.654222 0.724607 -0.216654
vn -0.654222 0.724607 -0.216654
vn -0.654222 0.724607 -0.216654
vn 0.425037 0.767159 -0.480428
vn 0.469929 0.759179 -0.450350
vn 0.469929 0.759179 -0.450350
vn 0.411932 0.769025 -0.488787
vn 0.004222 0.621080 0.783736
vn 0.004222 0.621080 0.783736
vn 0.004222 0.621080 0.783736
vn 0.004222 0.621080 0.783736
vn 0.533835 0.584973 0.610595
vn 0.533835 0.584973 0.610595
vn 0.533835 0.584973 0.610595
vn 0.533835 0.584973 0.610595
vn 0.337733 0.826676 0.450048
vn 0.337733 0.826676 0.450048
vn 0.365972 0.855537 0.366226
vn 0.368244 0.857665 0.358898
vn -0.117815 0.984890 -0.126934
vn -0.083483 0.994482 -0.063532
vn -0.094768 0.992662 -0.075105
vn -0.101064 0.990119 -0.097211
vn -0.066925 0.995603 -0.065548
vn -0.086363 0.993113 -0.079177
vn -0.117815 0.984890 -0.126934
vn -0.101064 0.990119 -0.097211
vn -0.044194 0.998902 -0.015567
vn -0.086363 0.993113 -0.079177
vn -0.066925 0.995603 -0.065548
vn -0.042638 0.998583 -0.031850
vn -0.487632 0.728997 -0.480395
vn -0.487632 0.728997 -0.480395
vn -0.487632 0.728996 -0.480395
vn -0.487632 0.728996 -0.480395
vn -0.845261 -0.381498 -0.374158
vn -0.845261 -0.381498 -0.374158
vn -0.845261 -0.381498 -0.374158
vn -0.845261 -0.381498 -0.374158
vn 0.532151 -0.664482 -0.524671
vn 0.532151 -0.664482 -0.524671
vn 0.532151 -0.664482 -0.524671
vn 0.532151 -0.664482 -0.524671
vn 0.845255 0.381501 0.374167
vn 0.845255 0.381501 0.374167
vn 0.845255 0.381501 0.374167
vn 0.845255 0.381501 0.374167
vn -0.532138 0.664488 0.524676
vn -0.532138 0.664488 0.524676
vn -0.532138 0.664487 0.524676
vn -0.532138 0.664488 0.524676
vn 0.048473 0.642597 -0.764669
vn 0.048473 0.642597 -0.764669
vn 0.048473 0.642597 -0.764669
vn 0.048473 0.642597 -0.764669
vn -0.048470 -0.642588 0.764678
vn -0.048470 -0.642588 0.764678
vn -0.048470 -0.642588 0.764677
vn -0.048470 -0.642588 0.764678
vn -0.731255 -0.069604 0.678543
vn -0.731255 -0.069604 0.678543
vn -0.731255 -0.069604 0.678543
vn -0.731255 -0.069604 0.678543
vn 0.174828 0.942422 0.285089
vn 0.174828 0.942422 0.285089
vn 0.174828 0.942422 0.285089
vn 0.174828 0.942422 0.285089
vn 0.731257 0.069625 -0.678540
vn 0.731257 0.069625 -0.678540
vn 0.731257 0.069625 -0.678540
vn 0.731257 0.069625 -0.678540
vn -0.174821 -0.942422 -0.285095
vn -0.174821 -0.942422 -0.285095
vn -0.174821 -0.942422 -0.285095
vn -0.174821 -0.942421 -0.285095
vn 0.659292 -0.327073 0.677021
vn 0.659292 -0.327073 0.677021
vn 0.659292 -0.327073 0.677021
vn 0.659292 -0.327073 0.677021
vn -0.659344 0.327091 -0.676962
vn -0.659344 0.327091 -0.676962
vn -0.659344 0.327091 -0.676962
vn -0.659344 0.327091 -0.676962
s off
f 1/1/1 2/2/2 4/3/3 3/4/4
f 3/5/5 4/6/6 6/7/7 5/8/8
f 5/9/9 6/10/10 8/11/11 7/12/12
f 2/13/13 8/14/14 6/15/15 4/16/16
f 7/17/17 1/18/18 3/19/19 5/20/20
f 9/21/21 10/22/22 12/23/23 11/24/24
f 11/25/25 12/26/26 14/27/27 13/28/28
f 13/29/29 14/30/30 16/31/31 15/32/32
f 10/33/33 16/34/34 14/35/35 12/36/36
f 15/37/37 9/38/38 11/39/39 13/40/40
f 17/41/41 18/42/42 20/43/43 19/44/44
f 19/45/45 20/46/46 22/47/47 21/48/48
f 21/49/49 22/50/50 24/51/51 23/52/52
f 18/53/53 24/54/54 22/55/55 20/56/56
f 23/57/57 17/58/58 19/59/59 21/60/60
f 25/61/61 26/62/62 28/63/63 27/64/64
f 27/65/65 28/66/66 30/67/67 29/68/68
f 29/69/69 30/70/70 32/71/71 31/72/72
f 26/73/73 32/74/74 30/75/75 28/76/76
f 31/77/77 25/78/78 27/79/79 29/80/80
f 33/81/81 34/82/82 36/83/83 35/84/84
f 35/85/85 36/86/86 38/87/87 37/88/88
f 37/89/89 38/90/90 40/91/91 39/92/92
f 34/93/93 40/94/94 38/95/95 36/96/96
f 39/97/97 33/98/98 35/99/99 37/100/100
f 41/101/101 42/102/102 44/103/103 43/104/104
f 43/105/105 44/106/106 46/107/107 45/108/108
f 45/109/109 46/110/110 48/111/111 47/112/112
f 42/113/113 48/114/114 46/115/115 44/116/116
f 47/117/117 41/118/118 43/119/119 45/120/120
f 49/121/121 50/122/122 52/123/123 51/124/124
f 51/125/125 52/126/126 54/127/127 53/128/128
f 53/129/129 54/130/130 56/131/131 55/132/132
f 50/133/133 56/134/134 54/135/135 52/136/136
f 55/137/137 49/138/138 51/139/139 53/140/140
f 78/141/141 79/142/142 64/143/143 67/144/144
f 57/145/145 61/146/146 66/147/147 65/148/148
f 76/149/149 77/150/150 63/151/151 59/152/152
f 67/153/153 64/154/154 60/155/155 68/156/156
f 60/157/157 64/158/158 79/159/159 80/160/160
f 66/161/161 62/162/162 58/163/163 65/164/164
f 67/165/165 63/166/166 77/167/167 78/168/168
f 59/169/169 63/170/170 67/171/171 68/172/172
f 57/173/173 65/174/174 70/175/175 69/176/176
f 75/177/177 76/178/178 59/179/179 72/180/180
f 68/181/181 60/182/182 73/183/183 74/184/184
f 60/185/185 80/186/186 81/187/187 73/188/188
f 65/174/189 58/189/190 71/190/191 70/175/192
f 59/179/193 68/191/194 74/192/195 72/180/196
f 58/189/197 76/178/198 75/177/199 71/190/200
f 58/193/201 62/194/202 77/150/203 76/149/204
f 78/168/205 77/167/206 62/195/207 66/196/208
f 61/197/209 79/142/210 78/141/211 66/198/212
f 80/160/213 79/159/214 61/199/215 57/200/216
f 81/187/217 80/186/218 57/201/219 69/202/220
f 82/203/221 83/204/222 85/205/223 84/206/224
f 84/207/225 85/208/226 87/209/227 86/210/228
f 86/211/229 87/212/230 89/213/231 88/214/232
f 88/215/233 89/216/234 83/217/235 82/218/236
f 83/219/237 89/220/238 87/221/239 85/222/240
f 88/223/241 82/224/242 84/225/243 86/226/244
f 90/227/245 91/228/246 93/229/247 92/230/248
f 92/231/249 93/232/250 95/233/251 94/234/252
f 94/235/253 95/236/254 97/237/255 96/238/256
f 96/239/257 97/240/258 91/241/259 90/242/260
f 91/243/261 97/244/262 95/245/263 93/246/264
f 96/247/265 90/248/266 92/249/267 94/250/268
