# This file uses meters as units for non-parametric coordinates.

v -2.541370 -0.323919 1.776678
v 2.020513 -0.323919 1.776678
v -1.456712 1.859754 0.844990
v 1.127650 2.058960 0.733520
v -1.648505 2.041434 -1.742057
v 0.935857 2.240641 -1.853527
v -2.541370 -0.323919 -3.054563
v 2.020513 -0.323919 -3.054563
v -1.829301 -0.323919 1.832940
v 1.308440 -0.323919 1.832940
v 0.694312 1.137205 1.115430
v -1.083253 1.268167 1.192104
v -1.531838 -0.323919 3.561937
v 1.010981 -0.323919 3.561937
v 0.513293 0.973554 2.980443
v -0.927244 1.130493 3.042603
v -2.596016 -0.323919 -2.528163
v -2.596016 -0.323919 0.980904
v -1.761686 1.404307 0.264247
v -1.838202 1.544057 -1.552659
v -3.023916 -0.323919 -2.279547
v -3.023916 -0.323919 0.403699
v -2.307820 1.288274 0.117137
v -2.434443 1.290706 -1.432320
v -1.482597 1.796372 -2.073748
v 0.792872 1.814768 -2.171914
v 1.747887 -0.323919 -2.992219
v -2.268744 -0.323919 -2.992219
v -1.288995 1.557456 -2.788979
v 0.242716 1.658434 -2.871561
v 1.429752 -0.323919 -3.561937
v -1.950612 -0.323919 -3.561937
v 2.061666 -0.323919 -2.223895
v 2.061666 -0.323919 0.676653
v 1.477416 1.015785 -1.716738
v 1.464383 1.090894 -0.058665
v 3.023916 -0.323919 -1.905940
v 3.023916 -0.323919 0.339747
v 2.443377 0.848314 -1.363738
v 2.433287 0.906465 -0.080011
vt 0.236179 0.060626
vt 0.328418 0.060626
vt 0.236179 0.060626
vt 0.263944 0.060626
vt 0.328418 0.060626
vt 0.263944 0.060626
vt 0.236179 0.060626
vt 0.236179 0.060626
vt 0.236179 0.060626
vt 0.236179 0.060626
vt 0.328418 0.060626
vt 0.263944 0.060626
vt 0.263944 0.060626
vt 0.328418 0.060626
vt 0.236179 0.060626
vt 0.263944 0.060626
vt 0.263944 0.060626
vt 0.236179 0.060626
vt 0.263944 0.060626
vt 0.236179 0.060626
vt 0.236179 0.060626
vt 0.328418 0.060626
vt 0.236179 0.060626
vt 0.263944 0.060626
vt 0.236179 0.060626
vt 0.328418 0.060626
vt 0.236179 0.060626
vt 0.236179 0.060626
vt 0.263944 0.060626
vt 0.328418 0.060626
vt 0.263944 0.060626
vt 0.236179 0.060626
vt 0.263944 0.060626
vt 0.328418 0.060626
vt 0.263944 0.060626
vt 0.328418 0.060626
vt 0.236179 0.060626
vt 0.236179 0.060626
vt 0.236179 0.060626
vt 0.263944 0.060626
vt 0.236179 0.060626
vt 0.236179 0.060626
vt 0.236179 0.060626
vt 0.236179 0.060626
vt 0.263944 0.060626
vt 0.328418 0.060626
vt 0.263944 0.060626
vt 0.236179 0.060626
vt 0.263944 0.060626
vt 0.328418 0.060626
vt 0.263944 0.060626
vt 0.328418 0.060626
vt 0.263944 0.060626
vt 0.328418 0.060626
vt 0.236179 0.060626
vt 0.328418 0.060626
vt 0.328418 0.060626
vt 0.328418 0.060626
vt 0.263944 0.060626
vt 0.263944 0.060626
vt 0.328418 0.060626
vt 0.328418 0.060626
vt 0.236179 0.060626
vt 0.328418 0.060626
vt 0.236179 0.060626
vt 0.328418 0.060626
vt 0.263944 0.060626
vt 0.263944 0.060626
vt 0.236179 0.060626
vt 0.236179 0.060626
vt 0.236179 0.060626
vt 0.236179 0.060626
vt 0.263944 0.060626
vt 0.263944 0.060626
vt 0.236179 0.060626
vt 0.236179 0.060626
vt 0.263944 0.060626
vt 0.263944 0.060626
vt 0.263944 0.060626
vt 0.263944 0.060626
vt 0.236179 0.060626
vt 0.263944 0.060626
vt 0.263944 0.060626
vt 0.263944 0.060626
vt 0.263944 0.060626
vt 0.263944 0.060626
vt 0.263944 0.060626
vt 0.236179 0.060626
vt 0.263944 0.060626
vt 0.236179 0.060626
vt 0.236179 0.060626
vt 0.236179 0.060626
vt 0.263944 0.060626
vt 0.236179 0.060626
vt 0.263944 0.060626
vt 0.236179 0.060626
vt 0.263944 0.060626
vt 0.263944 0.060626
vt 0.263944 0.060626
vt 0.263944 0.060626
vt 0.263944 0.060626
vt 0.263944 0.060626
vt 0.263944 0.060626
vt 0.236179 0.060626
vt 0.263944 0.060626
vt 0.263944 0.060626
vt 0.263944 0.060626
vt 0.263944 0.060626
vn 0.029077 0.370282 0.928464
vn 0.029077 0.370282 0.928464
vn 0.029077 0.370282 0.928464
vn 0.029077 0.370282 0.928464
vn -0.073407 0.994457 0.075280
vn -0.073407 0.994457 0.075280
vn -0.073407 0.994457 0.075280
vn -0.073407 0.994457 0.075280
vn -0.022958 0.351360 -0.935959
vn -0.022958 0.351360 -0.935959
vn -0.022958 0.351360 -0.935959
vn -0.022958 0.351360 -0.935959
vn 0.898789 0.438357 -0.004653
vn 0.898789 0.438357 -0.004653
vn 0.898789 0.438357 -0.004653
vn 0.898789 0.438357 -0.004653
vn -0.928317 0.370735 0.027984
vn -0.928317 0.370735 0.027984
vn -0.928317 0.370735 0.027984
vn -0.928317 0.370735 0.027984
vn 0.009627 0.419525 0.907693
vn 0.023658 0.427817 0.903556
vn 0.020478 0.425948 0.904516
vn 0.009627 0.419525 0.907693
vn 0.023658 0.427817 0.903556
vn -0.020337 0.430495 0.902364
vn -0.029147 0.430000 0.902358
vn 0.020478 0.425948 0.904516
vn -0.020337 0.430495 0.902364
vn -0.102904 0.424535 0.899545
vn -0.102904 0.424535 0.899544
vn -0.029147 0.430000 0.902358
vn 0.894257 0.425606 0.138434
vn 0.894257 0.425606 0.138434
vn 0.894257 0.425606 0.138434
vn 0.894257 0.425606 0.138434
vn 0.092284 0.992424 0.081106
vn 0.092284 0.992424 0.081106
vn 0.092284 0.992424 0.081106
vn 0.092284 0.992424 0.081106
vn -0.887295 0.442667 0.129433
vn -0.887295 0.442667 0.129433
vn -0.887295 0.442667 0.129433
vn -0.887295 0.442667 0.129433
vn -0.882018 0.464949 0.076594
vn -0.887236 0.454397 0.079602
vn -0.889524 0.449661 0.080942
vn -0.882018 0.464949 0.076594
vn -0.887236 0.454397 0.079602
vn -0.909707 0.413868 0.033856
vn -0.913002 0.407652 0.015720
vn -0.889524 0.449661 0.080942
vn -0.909707 0.413868 0.033856
vn -0.921746 0.384914 -0.047186
vn -0.921746 0.384914 -0.047186
vn -0.913002 0.407652 0.015720
vn -0.562986 0.466247 0.682393
vn -0.562986 0.466247 0.682393
vn -0.562986 0.466247 0.682393
vn -0.562986 0.466247 0.682393
vn -0.308378 0.949450 0.058710
vn -0.308378 0.949450 0.058710
vn -0.308378 0.949450 0.058710
vn -0.308378 0.949450 0.058710
vn -0.400287 0.541708 -0.739137
vn -0.400287 0.541708 -0.739137
vn -0.400287 0.541707 -0.739137
vn -0.400287 0.541708 -0.739137
vn -0.062014 0.693423 -0.717857
vn -0.062014 0.693423 -0.717857
vn -0.062014 0.693423 -0.717857
vn -0.062014 0.693423 -0.717857
vn 0.108892 0.431993 -0.895279
vn 0.108892 0.431993 -0.895279
vn 0.108892 0.431993 -0.895279
vn 0.108892 0.431993 -0.895279
vn -0.231820 0.501371 -0.833599
vn -0.231820 0.501371 -0.833599
vn -0.231820 0.501371 -0.833599
vn -0.231820 0.501371 -0.833599
vn -0.042546 0.964981 -0.258848
vn -0.042546 0.964981 -0.258848
vn -0.042546 0.964981 -0.258848
vn -0.042546 0.964981 -0.258848
vn 0.664463 0.536201 -0.520555
vn 0.664463 0.536201 -0.520555
vn 0.664463 0.536201 -0.520555
vn 0.664463 0.536201 -0.520555
vn -0.793983 0.456811 -0.401142
vn -0.793983 0.456811 -0.401142
vn -0.793983 0.456811 -0.401142
vn -0.793983 0.456811 -0.401142
vn 0.913146 0.406047 -0.035921
vn 0.922684 0.384335 -0.030662
vn 0.918946 0.393020 -0.032761
vn 0.913146 0.406047 -0.035921
vn 0.922684 0.384335 -0.030662
vn 0.928034 0.372186 -0.015219
vn 0.927797 0.372730 -0.016313
vn 0.918946 0.393020 -0.032761
vn 0.928034 0.372186 -0.015219
vn 0.931026 0.364953 -0.000780
vn 0.931026 0.364953 -0.000780
vn 0.927797 0.372730 -0.016313
vn 0.324278 0.488719 -0.809937
vn 0.324278 0.488719 -0.809937
vn 0.324278 0.488719 -0.809937
vn 0.324278 0.488719 -0.809937
vn 0.185903 0.981627 -0.043005
vn 0.185903 0.981627 -0.043005
vn 0.185903 0.981627 -0.043005
vn 0.185903 0.981627 -0.043005
vn 0.204204 0.467320 0.860182
vn 0.204204 0.467320 0.860182
vn 0.204204 0.467320 0.860182
vn 0.204204 0.467320 0.860182
s off
f 13/24/1 14/99/2 15/98/3 16/97/4
f 3/2/5 4/11/6 6/5/7 5/14/8
f 29/40/9 30/79/10 31/78/11 32/77/12
f 38/48/13 37/72/14 39/71/15 40/69/16
f 21/32/17 22/91/18 23/92/19 24/88/20
f 2/108/21 4/17/22 11/103/23 10/106/24
f 4/107/25 3/13/26 12/102/27 11/67/28
f 3/105/29 1/16/30 9/100/31 12/101/32
f 10/21/33 11/104/34 15/65/35 14/25/36
f 11/22/37 12/66/38 16/64/39 15/26/40
f 12/23/41 9/20/42 13/96/43 16/27/44
f 1/1/45 3/18/46 19/63/47 18/94/48
f 3/18/49 5/10/50 20/90/51 19/63/52
f 5/10/53 7/9/54 17/28/55 20/90/56
f 18/29/57 19/93/58 23/60/59 22/33/60
f 19/30/61 20/62/62 24/61/63 23/34/64
f 20/31/65 17/95/66 21/89/67 24/35/68
f 5/4/69 6/12/70 26/85/71 25/59/72
f 6/86/73 8/6/74 27/83/75 26/84/76
f 7/19/77 5/87/78 25/80/79 28/82/80
f 25/36/81 26/58/82 30/57/83 29/56/84
f 26/37/85 27/38/86 31/42/87 30/41/88
f 28/39/89 25/81/90 29/76/91 32/43/92
f 8/7/93 6/8/94 35/55/95 33/75/96
f 6/8/97 4/3/98 36/70/99 35/55/100
f 4/3/101 2/15/102 34/44/103 36/70/104
f 33/45/105 35/73/106 39/53/107 37/49/108
f 35/46/109 36/54/110 40/52/111 39/50/112
f 36/47/113 34/74/114 38/68/115 40/51/116
