# This file uses meters as units for non-parametric coordinates.

v -0.416306 -0.035800 0.467857
v 0.416306 -0.035800 0.467857
v -0.416306 1.433095 0.467857
v 0.416306 1.433095 0.467857
v -0.416306 1.433095 -0.467857
v 0.416306 1.433095 -0.467857
v -0.416306 -0.035800 -0.467857
v 0.416306 -0.035800 -0.467857
v -0.416306 1.825326 0.200653
v 0.416306 1.825326 0.200653
v 0.416306 1.825326 -0.200645
v -0.416306 1.825326 -0.200645
v -0.277359 1.498552 0.423264
v 0.277359 1.498552 0.423264
v 0.277359 1.759870 0.245247
v -0.277359 1.759870 0.245247
v -0.416306 1.382816 -0.467857
v -0.416306 1.382816 0.467857
v 0.416306 1.382816 0.467857
v 0.416306 1.382816 -0.467857
vt 0.321891 0.063184
vt 0.321891 0.063184
vt 0.321891 0.063184
vt 0.321891 0.063184
vt 0.418516 0.063184
vt 0.418516 0.063184
vt 0.418516 0.063184
vt 0.418516 0.063184
vt 0.321891 0.063184
vt 0.321891 0.063184
vt 0.321891 0.063184
vt 0.321891 0.063184
vt 0.301937 0.063184
vt 0.301937 0.063184
vt 0.301937 0.063184
vt 0.301937 0.063184
vt 0.293482 0.063184
vt 0.293482 0.063184
vt 0.293482 0.063184
vt 0.293482 0.063184
vt 0.293482 0.063184
vt 0.293482 0.063184
vt 0.293482 0.063184
vt 0.293482 0.063184
vt 0.138738 0.476924
vt 0.138738 0.476924
vt 0.138738 0.476924
vt 0.138738 0.476924
vt 0.325094 0.063413
vt 0.325094 0.063413
vt 0.325094 0.063413
vt 0.325094 0.063413
vt 0.388743 0.063184
vt 0.388743 0.063184
vt 0.388743 0.063184
vt 0.388743 0.063184
vt 0.325094 0.063413
vt 0.325094 0.063413
vt 0.325094 0.063413
vt 0.325094 0.063413
vt 0.388743 0.063184
vt 0.388743 0.063184
vt 0.388743 0.063184
vt 0.388743 0.063184
vt 0.388743 0.063184
vt 0.388743 0.063184
vt 0.388743 0.063184
vt 0.388743 0.063184
vt 0.328768 0.063184
vt 0.328768 0.063184
vt 0.328768 0.063184
vt 0.328768 0.063184
vt 0.357177 0.063184
vt 0.357177 0.063184
vt 0.357177 0.063184
vt 0.357177 0.063184
vt 0.328768 0.063184
vt 0.328768 0.063184
vt 0.328768 0.063184
vt 0.328768 0.063184
vt 0.357178 0.063184
vt 0.357178 0.063184
vt 0.357177 0.063184
vt 0.357177 0.063184
vn 0.000000 0.000000 1.000000
vn 0.000000 0.000000 1.000000
vn 0.000000 0.000000 1.000000
vn 0.000000 0.000000 1.000000
vn 0.000000 1.000000 0.000000
vn 0.000000 1.000000 0.000000
vn 0.000000 1.000000 0.000000
vn 0.000000 1.000000 0.000000
vn 0.000000 0.000000 -1.000000
vn 0.000000 0.000000 -1.000000
vn 0.000000 0.000000 -1.000000
vn 0.000000 0.000000 -1.000000
vn 0.000000 -1.000000 0.000000
vn 0.000000 -1.000000 0.000000
vn 0.000000 -1.000000 0.000000
vn 0.000000 -1.000000 0.000000
vn 1.000000 0.000000 0.000000
vn 1.000000 0.000000 0.000000
vn 1.000000 -0.000000 0.000000
vn 1.000000 -0.000000 0.000000
vn -1.000000 0.000000 0.000000
vn -1.000000 0.000000 0.000000
vn -1.000000 0.000000 0.000000
vn -1.000000 0.000000 0.000000
vn -0.000000 0.563011 0.826450
vn 0.000000 0.563011 0.826450
vn 0.000000 0.563011 0.826450
vn -0.000000 0.563011 0.826450
vn 1.000000 -0.000000 0.000000
vn 1.000000 -0.000000 0.000000
vn 1.000000 -0.000000 0.000000
vn 1.000000 -0.000000 0.000000
vn 0.000000 0.563022 -0.826442
vn 0.000000 0.563022 -0.826442
vn 0.000000 0.563022 -0.826442
vn 0.000000 0.563022 -0.826442
vn -1.000000 0.000000 0.000000
vn -1.000000 0.000000 0.000000
vn -1.000000 0.000000 0.000000
vn -1.000000 0.000000 0.000000
vn -0.000000 0.563015 0.826447
vn 0.000000 0.563015 0.826447
vn 0.000000 0.563011 0.826450
vn -0.000000 0.563011 0.826450
vn 0.000000 0.563015 0.826447
vn 0.000000 0.563015 0.826447
vn 0.000000 0.563011 0.826450
vn 0.000000 0.563011 0.826450
vn 0.000000 0.563015 0.826447
vn -0.000000 0.563015 0.826447
vn -0.000000 0.563011 0.826450
vn 0.000000 0.563011 0.826450
vn -0.000000 0.563015 0.826447
vn -0.000000 0.563015 0.826447
vn -0.000000 0.563011 0.826450
vn -0.000000 0.563011 0.826450
vn -1.000000 0.000000 0.000000
vn -1.000000 0.000000 0.000000
vn -1.000000 0.000000 0.000000
vn -1.000000 0.000000 0.000000
vn 0.000000 0.000000 1.000000
vn 0.000000 0.000000 1.000000
vn 0.000000 0.000000 1.000000
vn 0.000000 0.000000 1.000000
vn 1.000000 0.000000 0.000000
vn 1.000000 0.000000 0.000000
vn 1.000000 0.000000 0.000000
vn 1.000000 0.000000 0.000000
vn 0.000000 0.000000 -1.000000
vn 0.000000 0.000000 -1.000000
vn 0.000000 0.000000 -1.000000
vn 0.000000 0.000000 -1.000000
s off
f 18/1/1 19/2/2 4/3/3 3/4/4
f 9/5/5 10/6/6 11/7/7 12/8/8
f 5/9/9 6/10/10 20/11/11 17/12/12
f 7/13/13 8/14/14 2/15/15 1/16/16
f 19/17/17 20/18/18 6/19/19 4/20/20
f 17/21/21 18/22/22 3/23/23 5/24/24
f 13/25/25 14/26/26 15/27/27 16/28/28
f 4/29/29 6/30/30 11/31/31 10/32/32
f 6/33/33 5/34/34 12/35/35 11/36/36
f 5/37/37 3/38/38 9/39/39 12/40/40
f 3/41/41 4/42/42 14/43/43 13/44/44
f 4/42/45 10/45/46 15/46/47 14/43/48
f 10/45/49 9/47/50 16/48/51 15/46/52
f 9/47/53 3/41/54 13/44/55 16/48/56
f 7/49/57 1/50/58 18/51/59 17/52/60
f 1/53/61 2/54/62 19/55/63 18/56/64
f 2/57/65 8/58/66 20/59/67 19/60/68
f 17/61/69 20/62/70 8/63/71 7/64/72
