# This file uses meters as units for non-parametric coordinates.

v -1.364731 2.024530 1.418945
v 1.585434 1.914829 1.572845
v -0.556351 4.859735 0.568939
v 0.581528 4.859735 0.568939
v -0.556351 4.859735 -0.568939
v 0.581528 4.859735 -0.568939
v -1.585442 1.826049 -1.300751
v 1.585434 1.914829 -1.572845
v -1.331245 3.811747 1.296875
v 1.384697 3.272038 1.372101
v -0.483742 6.249253 0.496338
v 0.508919 6.249253 0.496338
v -0.483742 6.249253 -0.496338
v 0.508919 6.249253 -0.496338
v -1.359520 3.680194 -1.372116
v 1.384697 3.680194 -1.203491
v -0.867470 5.263141 0.921692
v 1.088173 5.153440 1.075592
v -0.376480 7.167305 0.389069
v 0.401657 7.167305 0.389069
v -0.376480 7.167305 -0.389069
v 0.401657 7.167305 -0.389069
v -1.062996 5.153440 -0.906952
v 1.326851 5.346805 -1.001785
v -0.773788 6.348998 0.898193
v 1.031906 6.482905 0.860107
v -0.289963 8.110447 0.302551
v 0.315140 8.110447 0.302551
v -0.289963 8.110447 -0.302551
v 0.315140 8.110447 -0.302551
v -0.823822 6.544400 -0.836395
v 0.848999 6.544400 -0.836395
v -0.591919 7.615479 0.604492
v 0.668060 7.494455 0.654785
v -0.206078 8.747320 0.218658
v 0.231255 8.747320 0.218658
v -0.206078 8.747320 -0.218658
v 0.231255 8.747320 -0.218658
v -0.591919 7.615479 -0.604492
v 0.617096 7.615479 -0.604492
v -0.421097 8.354273 0.433685
v 0.446274 8.354273 0.433685
v -0.144287 9.166277 0.156860
v 0.169464 9.166277 0.156860
v -0.144287 9.166277 -0.156860
v 0.169464 9.166277 -0.156860
v -0.421097 8.354273 -0.457306
v 0.446274 8.354273 -0.433685
v -0.450607 0.401229 0.010132
v 0.045517 0.610655 0.646362
v -0.197571 1.480497 -0.038666
v 0.011322 1.487718 0.339355
v 0.022156 1.462734 -0.269165
v 0.381683 1.462734 0.073547
v -0.024918 0.366818 -0.436401
v 0.621841 0.569024 0.164490
v -0.251907 1.925435 0.070953
v -0.213974 1.884397 0.289673
v 0.180191 1.857490 -0.001068
v -0.008362 1.905749 -0.184540
v -0.178558 0.067066 -0.935059
v 0.998322 0.269271 0.171204
v 0.042908 0.351969 1.308929
v -0.932220 0.147815 0.346680
v -0.182068 -0.140391 -0.878876
v 1.202698 -0.140391 0.441162
v 0.287796 -0.061200 1.530640
v -0.903778 -0.063067 0.348511
vt 0.078648 0.286409
vt 0.107057 0.286409
vt 0.138623 0.286409
vt 0.078648 0.286409
vt 0.107057 0.286409
vt 0.138623 0.286409
vt 0.051817 0.286409
vt 0.107057 0.286409
vt 0.051817 0.286409
vt 0.051817 0.286409
vt 0.078648 0.286409
vt 0.078648 0.286409
vt 0.078648 0.286409
vt 0.078648 0.286409
vt 0.138623 0.286409
vt 0.107057 0.286409
vt 0.107057 0.286409
vt 0.138623 0.286409
vt 0.078648 0.286409
vt 0.107057 0.286409
vt 0.107057 0.286409
vt 0.078648 0.286409
vt 0.051817 0.286409
vt 0.107057 0.286409
vt 0.107057 0.286409
vt 0.107057 0.286409
vt 0.107057 0.286409
vt 0.107057 0.286409
vt 0.138623 0.286409
vt 0.138623 0.286409
vt 0.138623 0.286409
vt 0.138623 0.286409
vt 0.107057 0.286409
vt 0.107057 0.286409
vt 0.107057 0.286409
vt 0.107057 0.286409
vt 0.051817 0.286409
vt 0.051817 0.286409
vt 0.051817 0.286409
vt 0.051817 0.286409
vt 0.078648 0.286409
vt 0.078648 0.286409
vt 0.078648 0.286409
vt 0.078648 0.286409
vt 0.078648 0.286409
vt 0.078648 0.286409
vt 0.078648 0.286409
vt 0.078648 0.286409
vt 0.107057 0.286409
vt 0.107057 0.286409
vt 0.107057 0.286409
vt 0.107057 0.286409
vt 0.138623 0.286409
vt 0.138623 0.286409
vt 0.138623 0.286409
vt 0.138623 0.286409
vt 0.107057 0.286409
vt 0.107057 0.286409
vt 0.107057 0.286409
vt 0.107057 0.286409
vt 0.051817 0.286409
vt 0.051817 0.286409
vt 0.051817 0.286409
vt 0.051817 0.286409
vt 0.078648 0.286409
vt 0.078648 0.286409
vt 0.078648 0.286409
vt 0.078648 0.286409
vt 0.078648 0.286409
vt 0.078648 0.286409
vt 0.078648 0.286409
vt 0.078648 0.286409
vt 0.107057 0.286409
vt 0.107057 0.286409
vt 0.107057 0.286409
vt 0.107057 0.286409
vt 0.138623 0.286409
vt 0.138623 0.286409
vt 0.138623 0.286409
vt 0.138623 0.286409
vt 0.107057 0.286409
vt 0.107057 0.286409
vt 0.107057 0.286409
vt 0.107057 0.286409
vt 0.051817 0.286409
vt 0.051817 0.286409
vt 0.051817 0.286409
vt 0.051817 0.286409
vt 0.078648 0.286409
vt 0.078648 0.286409
vt 0.078648 0.286409
vt 0.078648 0.286409
vt 0.078648 0.286409
vt 0.078648 0.286409
vt 0.078648 0.286409
vt 0.078648 0.286409
vt 0.107057 0.286409
vt 0.107057 0.286409
vt 0.107057 0.286409
vt 0.107057 0.286409
vt 0.138623 0.286409
vt 0.138623 0.286409
vt 0.138623 0.286409
vt 0.138623 0.286409
vt 0.107057 0.286409
vt 0.107057 0.286409
vt 0.107057 0.286409
vt 0.107057 0.286409
vt 0.051817 0.286409
vt 0.051817 0.286409
vt 0.051817 0.286409
vt 0.051817 0.286409
vt 0.078648 0.286409
vt 0.078648 0.286409
vt 0.078648 0.286409
vt 0.078648 0.286409
vt 0.078648 0.286409
vt 0.078648 0.286409
vt 0.078648 0.286409
vt 0.078648 0.286409
vt 0.107057 0.286409
vt 0.107057 0.286409
vt 0.107057 0.286409
vt 0.107057 0.286409
vt 0.138623 0.286409
vt 0.138623 0.286409
vt 0.138623 0.286409
vt 0.138623 0.286409
vt 0.107057 0.286409
vt 0.107057 0.286409
vt 0.107057 0.286409
vt 0.107057 0.286409
vt 0.051817 0.286409
vt 0.051817 0.286409
vt 0.051817 0.286409
vt 0.051817 0.286409
vt 0.078648 0.286409
vt 0.078648 0.286409
vt 0.078648 0.286409
vt 0.078648 0.286409
vt 0.078648 0.286409
vt 0.078648 0.286409
vt 0.078648 0.286409
vt 0.078648 0.286409
vt 0.243494 0.396893
vt 0.243494 0.396893
vt 0.243494 0.396893
vt 0.243494 0.396893
vt 0.243494 0.396893
vt 0.243494 0.396893
vt 0.243494 0.396893
vt 0.243494 0.396893
vt 0.211099 0.396893
vt 0.211099 0.396893
vt 0.211099 0.396893
vt 0.211099 0.396893
vt 0.211099 0.396893
vt 0.211099 0.396893
vt 0.211099 0.396893
vt 0.211099 0.396893
vt 0.211099 0.396893
vt 0.211099 0.396893
vt 0.211099 0.396893
vt 0.211099 0.396893
vt 0.243494 0.396893
vt 0.243494 0.396893
vt 0.243494 0.396893
vt 0.243494 0.396893
vt 0.211099 0.396893
vt 0.211099 0.396893
vt 0.211099 0.396893
vt 0.211099 0.396893
vt 0.175105 0.396893
vt 0.175105 0.396893
vt 0.175105 0.396893
vt 0.175105 0.396893
vt 0.270490 0.396893
vt 0.270490 0.396893
vt 0.270490 0.396893
vt 0.270490 0.396893
vt 0.245294 0.396893
vt 0.245294 0.396893
vt 0.245294 0.396893
vt 0.245294 0.396893
vt 0.270490 0.396893
vt 0.270490 0.396893
vt 0.270490 0.396893
vt 0.270490 0.396893
vt 0.245294 0.396893
vt 0.245294 0.396893
vt 0.245294 0.396893
vt 0.245294 0.396893
vt 0.211099 0.396893
vt 0.211099 0.396893
vt 0.211099 0.396893
vt 0.211099 0.396893
vt 0.211099 0.396893
vt 0.211099 0.396893
vt 0.211099 0.396893
vt 0.211099 0.396893
vt 0.211099 0.396893
vt 0.211099 0.396893
vt 0.211099 0.396893
vt 0.211099 0.396893
vt 0.211099 0.396893
vt 0.211099 0.396893
vt 0.211099 0.396893
vt 0.211099 0.396893
vt 0.243494 0.396893
vt 0.243494 0.396893
vt 0.243494 0.396893
vt 0.243494 0.396893
vt 0.297310 0.397320
vt 0.297310 0.397320
vt 0.297310 0.397320
vt 0.297310 0.397320
vn -0.027674 0.304449 0.952127
vn -0.027674 0.304449 0.952127
vn -0.027674 0.304449 0.952127
vn -0.027674 0.304449 0.952127
vn 0.000000 1.000000 0.000000
vn 0.000000 1.000000 0.000000
vn 0.000000 1.000000 0.000000
vn 0.000000 1.000000 0.000000
vn -0.066245 0.278455 -0.958162
vn -0.066245 0.278455 -0.958162
vn -0.066245 0.278455 -0.958162
vn -0.066245 0.278455 -0.958162
vn -0.002761 -0.999421 0.033924
vn -0.002761 -0.999421 0.033924
vn -0.002761 -0.999421 0.033924
vn -0.002761 -0.999421 0.033924
vn 0.946514 0.322663 0.000000
vn 0.946514 0.322663 0.000000
vn 0.946514 0.322663 0.000000
vn 0.946514 0.322663 0.000000
vn -0.953364 0.299274 0.039148
vn -0.953364 0.299274 0.039148
vn -0.953364 0.299274 0.039148
vn -0.953364 0.299274 0.039148
vn 0.023672 0.295764 0.954968
vn 0.023672 0.295764 0.954968
vn 0.023672 0.295764 0.954968
vn 0.023672 0.295764 0.954968
vn 0.000000 1.000000 0.000000
vn 0.000000 1.000000 0.000000
vn 0.000000 1.000000 0.000000
vn 0.000000 1.000000 0.000000
vn 0.043084 0.294148 -0.954788
vn 0.043084 0.294148 -0.954788
vn 0.043084 0.294148 -0.954788
vn 0.043084 0.294148 -0.954789
vn -0.095937 -0.994033 -0.051909
vn -0.095937 -0.994033 -0.051909
vn -0.095937 -0.994033 -0.051909
vn -0.095937 -0.994033 -0.051909
vn 0.952707 0.301922 0.034535
vn 0.952707 0.301922 0.034535
vn 0.952707 0.301922 0.034535
vn 0.952707 0.301922 0.034535
vn -0.945525 0.325520 -0.004394
vn -0.945525 0.325520 -0.004394
vn -0.945525 0.325520 -0.004394
vn -0.945525 0.325520 -0.004394
vn -0.041904 0.294944 0.954595
vn -0.041904 0.294944 0.954595
vn -0.041904 0.294944 0.954595
vn -0.041904 0.294944 0.954595
vn 0.000000 1.000000 0.000000
vn 0.000000 1.000000 0.000000
vn 0.000000 1.000000 0.000000
vn 0.000000 1.000000 0.000000
vn -0.045790 0.279901 -0.958936
vn -0.045790 0.279901 -0.958936
vn -0.045790 0.279901 -0.958936
vn -0.045790 0.279901 -0.958936
vn 0.019533 -0.999585 -0.021194
vn 0.019533 -0.999585 -0.021194
vn 0.019533 -0.999585 -0.021194
vn 0.019533 -0.999585 -0.021194
vn 0.916280 0.387121 0.102802
vn 0.916280 0.387121 0.102802
vn 0.916280 0.387121 0.102802
vn 0.916280 0.387121 0.102802
vn -0.955921 0.287512 0.059601
vn -0.955921 0.287512 0.059601
vn -0.955921 0.287512 0.059601
vn -0.955921 0.287512 0.059601
vn -0.002926 0.321957 0.946750
vn -0.002926 0.321957 0.946750
vn -0.002926 0.321957 0.946750
vn -0.002926 0.321957 0.946750
vn 0.000000 1.000000 0.000000
vn 0.000000 1.000000 0.000000
vn 0.000000 1.000000 0.000000
vn 0.000000 1.000000 0.000000
vn 0.000000 0.322655 -0.946517
vn 0.000000 0.322655 -0.946517
vn 0.000000 0.322655 -0.946517
vn 0.000000 0.322655 -0.946517
vn 0.037509 -0.996314 -0.077144
vn 0.037509 -0.996314 -0.077144
vn 0.037509 -0.996314 -0.077144
vn 0.037509 -0.996314 -0.077144
vn 0.929392 0.363478 -0.064147
vn 0.929392 0.363478 -0.064147
vn 0.929392 0.363478 -0.064147
vn 0.929392 0.363478 -0.064147
vn -0.955078 0.292936 0.044889
vn -0.955078 0.292936 0.044889
vn -0.955078 0.292936 0.044889
vn -0.955078 0.292936 0.044889
vn -0.004786 0.325771 0.945437
vn -0.004786 0.325771 0.945437
vn -0.004786 0.325771 0.945437
vn -0.004786 0.325771 0.945437
vn 0.000000 1.000000 0.000000
vn 0.000000 1.000000 0.000000
vn 0.000000 1.000000 0.000000
vn 0.000000 1.000000 0.000000
vn 0.000000 0.322658 -0.946516
vn 0.000000 0.322658 -0.946516
vn 0.000000 0.322658 -0.946516
vn 0.000000 0.322658 -0.946516
vn -0.047928 -0.997700 -0.047929
vn -0.047928 -0.997700 -0.047929
vn -0.047928 -0.997700 -0.047929
vn -0.047928 -0.997700 -0.047929
vn 0.945353 0.326008 -0.005142
vn 0.945353 0.326008 -0.005142
vn 0.945353 0.326008 -0.005142
vn 0.945353 0.326008 -0.005142
vn -0.946514 0.322664 0.000000
vn -0.946514 0.322664 0.000000
vn -0.946514 0.322664 0.000000
vn -0.946514 0.322664 0.000000
vn 0.000000 0.322680 0.946508
vn 0.000000 0.322680 0.946508
vn 0.000000 0.322680 0.946508
vn 0.000000 0.322680 0.946508
vn 0.000000 1.000000 0.000000
vn 0.000000 1.000000 0.000000
vn 0.000000 1.000000 0.000000
vn 0.000000 1.000000 0.000000
vn 0.018840 0.334871 -0.942076
vn 0.018840 0.334871 -0.942076
vn 0.018840 0.334871 -0.942076
vn 0.018840 0.334871 -0.942076
vn 0.000000 -1.000000 0.000000
vn 0.000000 -1.000000 0.000000
vn 0.000000 -1.000000 0.000000
vn 0.000000 -1.000000 0.000000
vn 0.946514 0.322664 0.000000
vn 0.946514 0.322664 0.000000
vn 0.946514 0.322664 0.000000
vn 0.946514 0.322664 0.000000
vn -0.946514 0.322664 0.000000
vn -0.946514 0.322664 0.000000
vn -0.946514 0.322664 0.000000
vn -0.946514 0.322664 0.000000
vn -0.824764 0.189180 0.532893
vn -0.824764 0.189180 0.532893
vn -0.824764 0.189180 0.532893
vn -0.824764 0.189180 0.532893
vn 0.674419 0.111152 -0.729934
vn 0.673539 0.106448 -0.731447
vn 0.670994 0.093323 -0.735566
vn 0.670994 0.093323 -0.735566
vn -0.038424 -0.998448 0.040308
vn -0.038424 -0.998448 0.040308
vn -0.038424 -0.998448 0.040308
vn -0.038424 -0.998448 0.040308
vn 0.609363 0.262547 0.748162
vn 0.609363 0.262547 0.748162
vn 0.599411 0.293714 0.744606
vn 0.594570 0.308076 0.742681
vn -0.711861 0.135736 -0.689079
vn -0.711861 0.135736 -0.689079
vn -0.713565 0.122977 -0.689711
vn -0.713169 0.126026 -0.689570
vn -0.882369 -0.317881 0.346955
vn -0.882369 -0.317881 0.346955
vn -0.882369 -0.317881 0.346955
vn -0.882369 -0.317881 0.346955
vn 0.594570 0.308076 0.742681
vn 0.599411 0.293714 0.744606
vn 0.554280 0.412443 0.722955
vn 0.554280 0.412443 0.722955
vn -0.713169 0.126026 -0.689570
vn -0.713565 0.122977 -0.689711
vn -0.718172 0.082521 -0.690956
vn -0.718172 0.082521 -0.690956
vn 0.427923 0.663059 -0.614195
vn 0.427923 0.663059 -0.614195
vn 0.427923 0.663059 -0.614195
vn 0.427923 0.663059 -0.614195
vn 0.476905 0.787402 0.390589
vn 0.476905 0.787402 0.390589
vn 0.476905 0.787402 0.390589
vn 0.476905 0.787402 0.390589
vn -0.470346 0.856832 0.211218
vn -0.470346 0.856832 0.211218
vn -0.470346 0.856832 0.211218
vn -0.470346 0.856832 0.211218
vn -0.535260 0.736104 -0.414304
vn -0.535260 0.736104 -0.414304
vn -0.535260 0.736104 -0.414304
vn -0.535260 0.736104 -0.414304
vn 0.685927 -0.152737 -0.711460
vn 0.685927 -0.152737 -0.711461
vn 0.685927 -0.152737 -0.711461
vn 0.685927 -0.152737 -0.711461
vn 0.620617 0.623204 0.475870
vn 0.620617 0.623204 0.475870
vn 0.620617 0.623204 0.475870
vn 0.620617 0.623204 0.475870
vn -0.700027 -0.051469 0.712259
vn -0.700027 -0.051469 0.712259
vn -0.700027 -0.051469 0.712259
vn -0.700027 -0.051469 0.712259
vn -0.859062 -0.120200 -0.497558
vn -0.859062 -0.120200 -0.497558
vn -0.859062 -0.120200 -0.497558
vn -0.859062 -0.120200 -0.497558
vn 0.673539 0.106448 -0.731447
vn 0.674419 0.111152 -0.729934
vn 0.687778 0.198813 -0.698165
vn 0.687778 0.198813 -0.698165
vn 0.173598 0.977566 0.119286
vn 0.173598 0.977566 0.119286
vn 0.173598 0.977566 0.119286
vn 0.173598 0.977566 0.119286
s off
f 1/20/1 2/2/2 4/21/3 3/17/4
f 3/3/5 4/15/6 6/6/7 5/18/8
f 5/5/9 6/16/10 8/8/11 7/24/12
f 7/7/13 8/23/14 2/10/15 1/9/16
f 2/19/17 8/11/18 6/12/19 4/4/20
f 7/13/21 1/1/22 3/22/23 5/14/24
f 9/25/25 10/26/26 12/27/27 11/28/28
f 11/29/29 12/30/30 14/31/31 13/32/32
f 13/33/33 14/34/34 16/35/35 15/36/36
f 15/37/37 16/38/38 10/39/39 9/40/40
f 10/41/41 16/42/42 14/43/43 12/44/44
f 15/45/45 9/46/46 11/47/47 13/48/48
f 17/49/49 18/50/50 20/51/51 19/52/52
f 19/53/53 20/54/54 22/55/55 21/56/56
f 21/57/57 22/58/58 24/59/59 23/60/60
f 23/61/61 24/62/62 18/63/63 17/64/64
f 18/65/65 24/66/66 22/67/67 20/68/68
f 23/69/69 17/70/70 19/71/71 21/72/72
f 25/73/73 26/74/74 28/75/75 27/76/76
f 27/77/77 28/78/78 30/79/79 29/80/80
f 29/81/81 30/82/82 32/83/83 31/84/84
f 31/85/85 32/86/86 26/87/87 25/88/88
f 26/89/89 32/90/90 30/91/91 28/92/92
f 31/93/93 25/94/94 27/95/95 29/96/96
f 33/97/97 34/98/98 36/99/99 35/100/100
f 35/101/101 36/102/102 38/103/103 37/104/104
f 37/105/105 38/106/106 40/107/107 39/108/108
f 39/109/109 40/110/110 34/111/111 33/112/112
f 34/113/113 40/114/114 38/115/115 36/116/116
f 39/117/117 33/118/118 35/119/119 37/120/120
f 41/121/121 42/122/122 44/123/123 43/124/124
f 43/125/125 44/126/126 46/127/127 45/128/128
f 45/129/129 46/130/130 48/131/131 47/132/132
f 47/133/133 48/134/134 42/135/135 41/136/136
f 42/137/137 48/138/138 46/139/139 44/140/140
f 47/141/141 41/142/142 43/143/143 45/144/144
f 49/145/145 50/146/146 52/147/147 51/148/148
f 53/149/149 54/150/150 56/151/151 55/152/152
f 65/153/153 66/154/154 67/155/155 68/156/156
f 50/157/157 56/158/158 54/159/159 52/160/160
f 55/161/161 49/162/162 51/163/163 53/164/164
f 51/165/165 52/166/166 58/167/167 57/168/168
f 52/169/169 54/170/170 59/171/171 58/172/172
f 53/173/173 51/174/174 57/175/175 60/176/176
f 55/177/177 56/178/178 62/179/179 61/180/180
f 56/181/181 50/182/182 63/183/183 62/184/184
f 50/185/185 49/186/186 64/187/187 63/188/188
f 49/189/189 55/190/190 61/191/191 64/192/192
f 61/193/193 62/194/194 66/195/195 65/196/196
f 62/197/197 63/198/198 67/199/199 66/200/200
f 63/201/201 64/202/202 68/203/203 67/204/204
f 64/205/205 61/206/206 65/207/207 68/208/208
f 54/209/209 53/210/210 60/211/211 59/212/212
f 58/213/213 59/214/214 60/215/215 57/216/216
