# This file uses meters as units for non-parametric coordinates.

v -0.277012 0.401229 0.090717
v 0.303711 0.610655 0.163784
v -0.322887 1.580938 0.011955
v 0.010994 1.460712 0.074120
v -0.325413 1.563651 -0.140961
v 0.058399 1.416917 -0.140961
v -0.277012 0.366818 -0.290745
v 0.356075 0.569024 -0.297722
v 0.002247 4.022607 0.008331
v 0.103748 3.941634 0.071793
v 0.150883 3.895965 -0.159851
v -0.000553 4.003449 -0.161144
v -0.471230 0.067066 -0.448357
v 0.381947 0.270898 -0.494598
v 0.439728 0.353596 0.422165
v -0.407188 0.149441 0.407528
v -0.448830 -0.140391 -0.421707
v 0.588585 -0.138764 -0.460972
v 0.643913 -0.059573 0.416912
v -0.393669 -0.061440 0.396221
v 0.418755 2.904048 0.398487
v 0.506775 2.899543 -0.236988
v 0.161514 3.587502 0.117599
v 0.214455 3.579827 -0.144196
v -0.128986 3.618569 0.083992
v -0.070961 3.610895 -0.279461
v -0.466202 2.857172 0.269424
v -0.346069 2.824081 -0.540470
v -0.476620 1.684910 -0.571342
v -0.643909 1.726545 0.440811
v -0.257622 2.560674 -0.283222
v -0.257477 2.560673 0.135166
v 0.196957 2.560673 -0.256721
v 0.129314 2.560673 0.148777
v 0.579540 1.764864 -0.340748
v 0.438770 1.789787 0.571346
v -0.275913 3.891898 -0.445145
v -0.340714 3.898672 0.201706
v -0.086475 4.440257 -0.226036
v -0.092358 4.440257 0.002861
v 0.165157 4.440257 -0.183006
v 0.139999 4.440257 0.047375
v 0.441360 3.832712 -0.324814
v 0.420944 3.805590 0.279163
vt 0.243494 0.396585
vt 0.243494 0.396585
vt 0.243494 0.396585
vt 0.243494 0.396585
vt 0.243494 0.396585
vt 0.243494 0.396585
vt 0.243494 0.396585
vt 0.243494 0.396585
vt 0.211099 0.396585
vt 0.211099 0.396585
vt 0.211099 0.396585
vt 0.211099 0.396585
vt 0.211099 0.396585
vt 0.211099 0.396585
vt 0.211099 0.396585
vt 0.211099 0.396585
vt 0.211099 0.396585
vt 0.211099 0.396585
vt 0.211099 0.396585
vt 0.211099 0.396585
vt 0.243494 0.396585
vt 0.243494 0.396585
vt 0.243494 0.396585
vt 0.243494 0.396585
vt 0.211099 0.396585
vt 0.211099 0.396585
vt 0.211099 0.396585
vt 0.211099 0.396585
vt 0.175105 0.396585
vt 0.175105 0.396585
vt 0.175105 0.396585
vt 0.175105 0.396585
vt 0.270490 0.396585
vt 0.270490 0.396585
vt 0.270490 0.396585
vt 0.270490 0.396585
vt 0.245294 0.396585
vt 0.245294 0.396585
vt 0.245294 0.396585
vt 0.245294 0.396585
vt 0.270490 0.396585
vt 0.270490 0.396585
vt 0.270490 0.396585
vt 0.270490 0.396585
vt 0.245294 0.396585
vt 0.245294 0.396585
vt 0.245294 0.396585
vt 0.245294 0.396585
vt 0.211099 0.396585
vt 0.211099 0.396585
vt 0.211099 0.396585
vt 0.211099 0.396585
vt 0.211099 0.396585
vt 0.211099 0.396585
vt 0.211099 0.396585
vt 0.211099 0.396585
vt 0.211099 0.396585
vt 0.211099 0.396585
vt 0.211099 0.396585
vt 0.211099 0.396585
vt 0.211099 0.396585
vt 0.211099 0.396585
vt 0.211099 0.396585
vt 0.211099 0.396585
vt 0.243494 0.396585
vt 0.243494 0.396585
vt 0.243494 0.396585
vt 0.243494 0.396585
vt 0.133786 0.286963
vt 0.133786 0.286963
vt 0.133786 0.286963
vt 0.133786 0.286963
vt 0.165352 0.286963
vt 0.165352 0.286963
vt 0.165352 0.286963
vt 0.165352 0.286963
vt 0.133786 0.286963
vt 0.133786 0.286963
vt 0.133786 0.286963
vt 0.133786 0.286963
vt 0.078546 0.286963
vt 0.078546 0.286963
vt 0.078546 0.286963
vt 0.078546 0.286963
vt 0.105377 0.286963
vt 0.105377 0.286963
vt 0.105377 0.286963
vt 0.105377 0.286963
vt 0.105377 0.286963
vt 0.105377 0.286963
vt 0.105377 0.286963
vt 0.105377 0.286963
vt 0.133786 0.286963
vt 0.133786 0.286963
vt 0.133786 0.286963
vt 0.133786 0.286963
vt 0.165352 0.286963
vt 0.165352 0.286963
vt 0.165352 0.286963
vt 0.165352 0.286963
vt 0.133786 0.286963
vt 0.133786 0.286963
vt 0.133786 0.286963
vt 0.133786 0.286963
vt 0.078546 0.286963
vt 0.078546 0.286963
vt 0.078546 0.286963
vt 0.078546 0.286963
vt 0.105377 0.286963
vt 0.105377 0.286963
vt 0.105377 0.286963
vt 0.105377 0.286963
vt 0.105377 0.286963
vt 0.105377 0.286963
vt 0.105377 0.286963
vt 0.105377 0.286963
vt 0.133786 0.286963
vt 0.133786 0.286963
vt 0.133786 0.286963
vt 0.133786 0.286963
vt 0.165352 0.286963
vt 0.165352 0.286963
vt 0.165352 0.286963
vt 0.165352 0.286963
vt 0.133786 0.286963
vt 0.133786 0.286963
vt 0.133786 0.286963
vt 0.133786 0.286963
vt 0.078546 0.286963
vt 0.078546 0.286963
vt 0.078546 0.286963
vt 0.078546 0.286963
vt 0.105377 0.286963
vt 0.105377 0.286963
vt 0.105377 0.286963
vt 0.105377 0.286963
vt 0.105377 0.286963
vt 0.105377 0.286963
vt 0.105377 0.286963
vt 0.105377 0.286963
vn -0.151435 0.056625 0.986844
vn -0.151435 0.056625 0.986844
vn -0.198550 0.043431 0.979128
vn -0.226446 0.035503 0.973377
vn -0.005809 0.043619 -0.999031
vn -0.009190 0.082267 -0.996568
vn -0.014741 0.145806 -0.989203
vn -0.014741 0.145806 -0.989203
vn 0.002506 -0.995692 0.092689
vn 0.002506 -0.995692 0.092689
vn 0.002506 -0.995692 0.092689
vn 0.002506 -0.995692 0.092689
vn 0.952531 0.302059 0.038023
vn 0.953774 0.299042 0.029810
vn 0.941183 0.323387 0.097956
vn 0.941183 0.323387 0.097956
vn -0.999167 -0.039893 0.008581
vn -0.999167 -0.039893 0.008581
vn -0.998184 0.060077 0.004460
vn -0.998886 0.046925 0.005006
vn -0.226446 0.035503 0.973377
vn -0.198550 0.043431 0.979128
vn -0.266971 0.023828 0.963410
vn -0.266971 0.023828 0.963410
vn 0.976248 -0.035545 0.213721
vn 0.976248 -0.035545 0.213721
vn 0.976248 -0.035545 0.213721
vn 0.976248 -0.035545 0.213721
vn -0.998886 0.046925 0.005006
vn -0.998184 0.060077 0.004460
vn -0.991249 0.131997 0.001452
vn -0.991249 0.131997 0.001452
vn -0.176568 0.538303 -0.824047
vn -0.176568 0.538303 -0.824047
vn -0.176568 0.538303 -0.824047
vn -0.176568 0.538303 -0.824047
vn 0.953774 0.299042 0.029810
vn 0.952531 0.302059 0.038023
vn 0.960474 0.276883 -0.028751
vn 0.960474 0.276883 -0.028751
vn -0.249270 0.724082 0.643094
vn -0.249270 0.724082 0.643094
vn -0.249270 0.724082 0.643094
vn -0.249270 0.724082 0.643094
vn -0.862356 0.506294 -0.003153
vn -0.862356 0.506294 -0.003153
vn -0.862355 0.506294 -0.003153
vn -0.862355 0.506294 -0.003153
vn -0.033053 -0.109302 -0.993459
vn -0.033053 -0.109302 -0.993459
vn -0.033053 -0.109302 -0.993459
vn -0.033053 -0.109302 -0.993459
vn 0.891865 0.441978 -0.096080
vn 0.891865 0.441978 -0.096080
vn 0.891865 0.441978 -0.096080
vn 0.891865 0.441978 -0.096080
vn -0.015254 -0.031841 0.999377
vn -0.015254 -0.031841 0.999377
vn -0.015254 -0.031841 0.999377
vn -0.015254 -0.031841 0.999377
vn -0.993486 -0.082416 0.078695
vn -0.993486 -0.082416 0.078695
vn -0.993486 -0.082416 0.078695
vn -0.993486 -0.082416 0.078695
vn -0.009190 0.082267 -0.996568
vn -0.005809 0.043619 -0.999031
vn -0.001304 -0.007833 -0.999968
vn -0.001304 -0.007833 -0.999968
vn 0.911899 0.386514 0.138012
vn 0.911899 0.386514 0.138012
vn 0.911899 0.386514 0.138012
vn 0.911899 0.386514 0.138012
vn 0.108744 0.994057 -0.005104
vn 0.108744 0.994057 -0.005104
vn 0.108744 0.994057 -0.005104
vn 0.108744 0.994057 -0.005104
vn -0.916543 0.369917 -0.152017
vn -0.916543 0.369917 -0.152017
vn -0.916543 0.369917 -0.152017
vn -0.916543 0.369917 -0.152017
vn 0.061558 -0.997496 0.034811
vn 0.061558 -0.997496 0.034811
vn 0.061558 -0.997496 0.034811
vn 0.061558 -0.997496 0.034811
vn 0.342900 0.224023 -0.912268
vn 0.342900 0.224023 -0.912268
vn 0.342900 0.224023 -0.912268
vn 0.342900 0.224023 -0.912268
vn -0.134385 0.311088 0.940832
vn -0.134385 0.311088 0.940832
vn -0.134385 0.311088 0.940832
vn -0.134385 0.311088 0.940832
vn -0.936338 0.330314 -0.119015
vn -0.936338 0.330314 -0.119015
vn -0.936338 0.330314 -0.119015
vn -0.936338 0.330314 -0.119015
vn 0.000000 1.000000 0.000001
vn 0.000000 1.000000 0.000001
vn 0.000000 1.000000 0.000001
vn 0.000000 1.000000 0.000001
vn 0.895537 0.424450 0.133624
vn 0.895537 0.424450 0.133624
vn 0.895537 0.424450 0.133624
vn 0.895537 0.424450 0.133624
vn 0.059340 -0.997268 0.043994
vn 0.059339 -0.997268 0.043994
vn 0.059339 -0.997268 0.043994
vn 0.059339 -0.997268 0.043994
vn -0.106495 0.415055 0.903542
vn -0.106495 0.415055 0.903542
vn -0.106495 0.415055 0.903542
vn -0.106495 0.415055 0.903542
vn 0.151526 0.228908 -0.961582
vn 0.151526 0.228908 -0.961582
vn 0.151526 0.228908 -0.961582
vn 0.151526 0.228908 -0.961582
vn -0.924651 0.372843 -0.077514
vn -0.924651 0.372843 -0.077514
vn -0.924651 0.372843 -0.077514
vn -0.924651 0.372843 -0.077514
vn 0.000000 1.000000 0.000000
vn 0.000000 1.000000 0.000000
vn 0.000000 1.000000 0.000000
vn 0.000000 1.000000 0.000000
vn 0.908900 0.412221 0.063045
vn 0.908900 0.412221 0.063045
vn 0.908900 0.412220 0.063045
vn 0.908900 0.412221 0.063045
vn -0.099352 -0.994788 -0.022951
vn -0.099352 -0.994788 -0.022951
vn -0.099352 -0.994788 -0.022951
vn -0.099352 -0.994788 -0.022951
vn -0.083027 0.340575 0.936544
vn -0.083027 0.340575 0.936544
vn -0.083027 0.340575 0.936544
vn -0.083027 0.340575 0.936544
vn 0.176424 0.305414 -0.935733
vn 0.176424 0.305414 -0.935733
vn 0.176424 0.305414 -0.935733
vn 0.176424 0.305414 -0.935733
s off
f 1/1/1 2/2/2 4/3/3 3/4/4
f 5/5/5 6/6/6 8/7/7 7/8/8
f 17/9/9 18/10/10 19/11/11 20/12/12
f 2/13/13 8/14/14 6/15/15 4/16/16
f 7/17/17 1/18/18 3/19/19 5/20/20
f 3/21/21 4/22/22 10/23/23 9/24/24
f 4/25/25 6/26/26 11/27/27 10/28/28
f 5/29/29 3/30/30 9/31/31 12/32/32
f 7/33/33 8/34/34 14/35/35 13/36/36
f 8/37/37 2/38/38 15/39/39 14/40/40
f 2/41/41 1/42/42 16/43/43 15/44/44
f 1/45/45 7/46/46 13/47/47 16/48/48
f 13/49/49 14/50/50 18/51/51 17/52/52
f 14/53/53 15/54/54 19/55/55 18/56/56
f 15/57/57 16/58/58 20/59/59 19/60/60
f 16/61/61 13/62/62 17/63/63 20/64/64
f 6/65/65 5/66/66 12/67/67 11/68/68
f 21/69/69 22/70/70 24/71/71 23/72/72
f 23/73/73 24/74/74 26/75/75 25/76/76
f 25/77/77 26/78/78 28/79/79 27/80/80
f 27/81/81 28/82/82 22/83/83 21/84/84
f 22/85/85 28/86/86 26/87/87 24/88/88
f 27/89/89 21/90/90 23/91/91 25/92/92
f 29/93/93 30/94/94 32/95/95 31/96/96
f 31/97/97 32/98/98 34/99/99 33/100/100
f 33/101/101 34/102/102 36/103/103 35/104/104
f 35/105/105 36/106/106 30/107/107 29/108/108
f 30/109/109 36/110/110 34/111/111 32/112/112
f 35/113/113 29/114/114 31/115/115 33/116/116
f 37/117/117 38/118/118 40/119/119 39/120/120
f 39/121/121 40/122/122 42/123/123 41/124/124
f 41/125/125 42/126/126 44/127/127 43/128/128
f 43/129/129 44/130/130 38/131/131 37/132/132
f 38/133/133 44/134/134 42/135/135 40/136/136
f 43/137/137 37/138/138 39/139/139 41/140/140
