# This file uses meters as units for non-parametric coordinates.

v 0.284612 -0.000000 -0.323520
v -0.300683 -0.000000 -0.323520
v 0.284612 0.132379 -0.323520
v -0.300683 0.132379 -0.323520
v 0.284612 0.132379 0.261777
v -0.300683 0.132379 0.261777
v 0.284612 -0.000000 0.261777
v -0.300683 -0.000000 0.261777
v 0.088725 0.132379 -0.127631
v -0.104796 0.132379 -0.127631
v -0.104796 0.132379 0.065888
v 0.088725 0.132379 0.065888
v 0.088552 2.823959 -0.127460
v -0.104623 2.823959 -0.127460
v -0.104623 2.823959 0.065717
v 0.088552 2.823959 0.065717
v 0.589573 2.754710 0.057519
v 0.277868 3.050170 0.057519
v -0.324265 3.044742 0.057519
v -0.625713 2.738723 0.057519
v -0.620281 2.124913 0.057519
v -0.308581 1.829453 0.057519
v 0.293554 1.834884 0.057519
v 0.595003 2.140904 0.057519
v 0.589573 2.754710 0.144101
v 0.277868 3.050170 0.144101
v -0.324265 3.044742 0.144101
v -0.625713 2.738723 0.144101
v -0.620281 2.124913 0.144101
v -0.308581 1.829453 0.144101
v 0.293554 1.834884 0.144101
v 0.595003 2.140904 0.144101
v -0.015356 2.439813 0.057519
v -0.280305 1.888309 0.144101
v -0.561949 2.155278 0.144101
v 0.263767 1.893216 0.144101
v 0.536147 2.169728 0.144101
v 0.531241 2.724345 0.144101
v 0.249593 2.991314 0.144101
v -0.294477 2.986409 0.144101
v -0.566858 2.709899 0.144101
v -0.241085 1.969948 0.144101
v -0.481037 2.197398 0.144101
v 0.222448 1.974128 0.144101
v 0.454508 2.209708 0.144101
v 0.450328 2.682226 0.144101
v 0.210373 2.909675 0.144101
v -0.253159 2.905497 0.144101
v -0.485219 2.669918 0.144101
v -0.337083 2.347435 0.144101
v 0.309262 2.352126 0.144101
v 0.306373 2.532188 0.144101
v -0.339972 2.527498 0.144101
vt 0.297247 0.066919
vt 0.324657 0.066919
vt 0.297247 0.066919
vt 0.324657 0.066919
vt 0.297247 0.066919
vt 0.324657 0.066919
vt 0.297247 0.066919
vt 0.324657 0.066919
vt 0.360515 0.066919
vt 0.360515 0.066919
vt 0.297247 0.066919
vt 0.324657 0.066919
vt 0.360515 0.066919
vt 0.324657 0.066919
vt 0.360515 0.066919
vt 0.297247 0.066919
vt 0.297247 0.066919
vt 0.357917 0.066919
vt 0.324657 0.066919
vt 0.297247 0.066919
vt 0.357917 0.066919
vt 0.171009 0.171559
vt 0.171009 0.171559
vt 0.171009 0.171559
vt 0.171009 0.171559
vt 0.171009 0.171559
vt 0.171009 0.171559
vt 0.171009 0.171559
vt 0.143193 0.171559
vt 0.204123 0.171559
vt 0.229289 0.171559
vt 0.204123 0.171559
vt 0.229289 0.171559
vt 0.204123 0.171559
vt 0.204123 0.171559
vt 0.143193 0.171559
vt 0.143193 0.171559
vt 0.120676 0.171559
vt 0.120676 0.171559
vt 0.078290 0.171559
vt 0.078290 0.171559
vt 0.120676 0.171559
vt 0.120676 0.171559
vt 0.143193 0.171559
vt 0.171009 0.171559
vt 0.171009 0.171559
vt 0.171009 0.171559
vt 0.171009 0.171559
vt 0.171009 0.171559
vt 0.171009 0.171559
vt 0.171009 0.171559
vt 0.171009 0.171559
vt 0.171009 0.171559
vt 0.171009 0.171559
vt 0.297247 0.066919
vt 0.324657 0.066919
vt 0.357917 0.066919
vt 0.360515 0.066919
vt 0.297247 0.066919
vt 0.324657 0.066919
vt 0.297247 0.066919
vt 0.297247 0.066919
vt 0.360515 0.066919
vt 0.297247 0.066919
vt 0.324657 0.066919
vt 0.297247 0.066919
vt 0.324657 0.066919
vt 0.324657 0.066919
vt 0.297247 0.066919
vt 0.324657 0.066919
vt 0.297247 0.066919
vt 0.360515 0.066919
vt 0.360515 0.066919
vt 0.360515 0.066919
vt 0.324657 0.066919
vt 0.360515 0.066919
vt 0.360515 0.066919
vt 0.360515 0.066919
vt 0.360515 0.066919
vt 0.324657 0.066919
vt 0.360515 0.066919
vt 0.360515 0.066919
vt 0.360515 0.066919
vt 0.324657 0.066919
vt 0.357917 0.066919
vt 0.171009 0.171559
vt 0.171009 0.171559
vt 0.171009 0.171559
vt 0.171009 0.171559
vt 0.171009 0.171559
vt 0.171009 0.171559
vt 0.171009 0.171559
vt 0.143193 0.171559
vt 0.171009 0.171559
vt 0.120676 0.171559
vt 0.171009 0.171559
vt 0.078290 0.171559
vt 0.171009 0.171559
vt 0.120676 0.171559
vt 0.171009 0.171559
vt 0.143193 0.171559
vt 0.171009 0.171559
vt 0.204123 0.171559
vt 0.171009 0.171559
vt 0.229289 0.171559
vt 0.171009 0.171559
vt 0.204123 0.171559
vt 0.171009 0.171559
vt 0.143193 0.171559
vt 0.120676 0.171559
vt 0.078290 0.171559
vt 0.120676 0.171559
vt 0.143193 0.171559
vt 0.204123 0.171559
vt 0.229289 0.171559
vt 0.204123 0.171559
vt 0.171009 0.171559
vt 0.171009 0.171559
vt 0.171009 0.171559
vt 0.171009 0.171559
vt 0.171009 0.171559
vt 0.171009 0.171559
vt 0.171009 0.171559
vt 0.171009 0.171559
vt 0.171009 0.171559
vt 0.171009 0.171559
vt 0.171009 0.171559
vt 0.171009 0.171559
vt 0.171009 0.171559
vt 0.171009 0.171559
vt 0.171009 0.171559
vt 0.171009 0.171559
vt 0.171009 0.171559
vt 0.171009 0.171559
vt 0.171009 0.171559
vt 0.171009 0.171559
vt 0.387985 0.064068
vt 0.387985 0.064068
vt 0.387985 0.064068
vt 0.387985 0.064068
vt 0.387985 0.064068
vt 0.387985 0.064068
vt 0.387985 0.064068
vt 0.387985 0.064068
vt 0.387985 0.064068
vt 0.387985 0.064068
vt 0.387985 0.064068
vt 0.387985 0.064068
vt 0.387985 0.064068
vt 0.387985 0.064068
vt 0.387985 0.064068
vt 0.387985 0.064068
vt 0.387985 0.064068
vt 0.387985 0.064068
vt 0.387985 0.064068
vt 0.387985 0.064068
vn 0.000000 0.000000 -1.000000
vn 0.000000 0.000000 -1.000000
vn 0.000000 0.000000 -1.000000
vn 0.000000 0.000000 -1.000000
vn 0.000000 0.000000 1.000000
vn 0.000000 0.000000 1.000000
vn 0.000000 0.000000 1.000000
vn 0.000000 0.000000 1.000000
vn 0.000000 -1.000000 0.000000
vn 0.000000 -1.000000 0.000000
vn 0.000000 -1.000000 0.000000
vn 0.000000 -1.000000 0.000000
vn -1.000000 0.000000 0.000000
vn -1.000000 0.000000 0.000000
vn -1.000000 0.000000 0.000000
vn -1.000000 0.000000 0.000000
vn 1.000000 0.000000 0.000000
vn 1.000000 0.000000 0.000000
vn 1.000000 0.000000 0.000000
vn 1.000000 0.000000 0.000000
vn 0.000000 1.000000 0.000000
vn 0.000000 1.000000 0.000000
vn 0.000000 1.000000 0.000000
vn 0.000000 1.000000 0.000000
vn 0.000000 1.000000 0.000000
vn 0.000000 1.000000 -0.000000
vn 0.000000 1.000000 -0.000000
vn 0.000000 1.000000 0.000000
vn 0.000000 1.000000 -0.000000
vn 0.000000 1.000000 -0.000000
vn 0.000000 1.000000 -0.000000
vn 0.000000 1.000000 -0.000000
vn 0.000000 1.000000 -0.000000
vn 0.000000 1.000000 0.000000
vn 0.000000 1.000000 0.000000
vn 0.000000 1.000000 -0.000000
vn 0.000000 0.000064 -1.000000
vn 0.000000 0.000064 -1.000000
vn 0.000000 0.000064 -1.000000
vn 0.000000 0.000064 -1.000000
vn -1.000000 0.000064 0.000000
vn -1.000000 0.000064 0.000000
vn -1.000000 0.000064 0.000000
vn -1.000000 0.000064 0.000000
vn 0.000000 0.000064 1.000000
vn 0.000000 0.000064 1.000000
vn 0.000000 0.000064 1.000000
vn 0.000000 0.000064 1.000000
vn 1.000000 0.000064 0.000000
vn 1.000000 0.000064 0.000000
vn 1.000000 0.000064 0.000000
vn 1.000000 0.000064 0.000000
vn 0.000000 1.000000 0.000000
vn 0.000000 1.000000 0.000000
vn 0.000000 1.000000 0.000000
vn 0.000000 1.000000 0.000000
vn 0.687942 0.725766 0.000000
vn 0.687942 0.725766 0.000000
vn 0.687942 0.725766 0.000000
vn 0.687942 0.725766 0.000000
vn -0.009015 0.999959 0.000000
vn -0.009015 0.999959 0.000000
vn -0.009015 0.999959 0.000000
vn -0.009015 0.999959 0.000000
vn -0.712406 0.701767 0.000000
vn -0.712406 0.701767 0.000000
vn -0.712406 0.701767 0.000000
vn -0.712406 0.701767 0.000000
vn -0.999961 -0.008850 0.000000
vn -0.999961 -0.008850 0.000000
vn -0.999961 -0.008850 0.000000
vn -0.999961 -0.008850 0.000000
vn -0.687946 -0.725762 0.000000
vn -0.687946 -0.725762 0.000000
vn -0.687946 -0.725762 0.000000
vn -0.687946 -0.725762 0.000000
vn 0.009018 -0.999959 0.000000
vn 0.009018 -0.999959 0.000000
vn 0.009018 -0.999959 0.000000
vn 0.009018 -0.999959 0.000000
vn 0.712408 -0.701765 0.000000
vn 0.712408 -0.701765 0.000000
vn 0.712408 -0.701765 0.000000
vn 0.712408 -0.701765 0.000000
vn 0.999961 0.008846 0.000000
vn 0.999961 0.008846 0.000000
vn 0.999961 0.008846 0.000000
vn 0.999961 0.008846 0.000000
vn -0.000000 0.000000 -1.000000
vn -0.000000 0.000000 -1.000000
vn -0.000000 0.000000 -1.000000
vn 0.000000 0.000000 -1.000000
vn -0.000000 0.000000 -1.000000
vn -0.000000 0.000000 -1.000000
vn -0.000000 0.000000 -1.000000
vn 0.000000 0.000000 -1.000000
vn -0.000000 0.000000 -1.000000
vn -0.000000 0.000000 -1.000000
vn -0.000000 0.000000 -1.000000
vn -0.000000 0.000000 -1.000000
vn 0.000000 0.000000 -1.000000
vn -0.000000 0.000000 -1.000000
vn -0.000000 0.000000 -1.000000
vn -0.000000 0.000000 -1.000000
vn 0.000000 0.000000 -1.000000
vn -0.000000 0.000000 -1.000000
vn -0.000000 0.000000 -1.000000
vn -0.000000 0.000000 -1.000000
vn -0.000000 0.000000 -1.000000
vn -0.000000 0.000000 -1.000000
vn -0.000000 0.000000 -1.000000
vn -0.000000 0.000000 -1.000000
vn -0.000000 0.000000 1.000000
vn -0.000000 0.000000 1.000000
vn -0.000000 0.000000 1.000000
vn 0.000000 0.000000 1.000000
vn 0.000000 0.000000 1.000000
vn -0.000000 0.000000 1.000000
vn -0.000000 0.000000 1.000000
vn 0.000000 0.000000 1.000000
vn -0.000000 0.000000 1.000000
vn 0.000000 0.000000 1.000000
vn 0.000000 0.000000 1.000000
vn -0.000000 0.000000 1.000000
vn 0.000000 0.000000 1.000000
vn 0.000000 0.000000 1.000000
vn -0.000000 0.000000 1.000000
vn 0.000000 0.000000 1.000000
vn 0.000000 0.000000 1.000000
vn 0.000000 0.000000 1.000000
vn -0.000000 0.000000 1.000000
vn -0.000000 0.000000 1.000000
vn 0.000000 0.000000 1.000000
vn 0.000000 0.000000 1.000000
vn 0.000000 0.000000 1.000000
vn -0.000000 0.000000 1.000000
vn 0.000000 0.000000 1.000000
vn 0.000000 0.000000 1.000000
vn 0.000000 0.000000 1.000000
vn 0.000000 0.000000 1.000000
vn 0.000000 0.000000 1.000000
vn 0.000000 0.000000 1.000000
vn 0.000000 0.000000 1.000000
vn 0.000000 0.000000 1.000000
vn 0.000000 0.000000 1.000000
vn 0.000000 0.000000 1.000000
vn 0.000000 0.000000 1.000000
vn 0.000000 0.000000 1.000000
vn 0.000000 0.000000 1.000000
vn -0.000000 0.000000 1.000000
vn -0.000000 0.000000 1.000000
vn -0.000000 0.000000 1.000000
vn -0.000000 0.000000 1.000000
vn 0.000000 0.000000 1.000000
vn -0.000000 0.000000 1.000000
vn -0.000000 0.000000 1.000000
vn 0.000000 0.000000 1.000000
vn -0.000000 0.000000 1.000000
vn -0.000000 0.000000 1.000000
vn -0.000000 0.000000 1.000000
vn -0.000000 0.000000 1.000000
vn -0.000000 0.000000 1.000000
vn -0.000000 0.000000 1.000000
vn -0.000000 0.000000 1.000000
vn -0.000000 0.000000 1.000000
vn 0.000000 0.000000 1.000000
vn 0.000000 0.000000 1.000000
vn -0.000000 0.000000 1.000000
vn 0.000000 0.000000 1.000000
vn 0.000000 0.000000 1.000000
vn 0.000000 0.000000 1.000000
vn 0.000000 0.000000 1.000000
vn 0.000000 0.000000 1.000000
vn 0.000000 0.000000 1.000000
vn 0.000000 0.000000 1.000000
vn 0.000000 0.000000 1.000000
vn 0.000000 0.000000 1.000000
vn 0.000000 0.000000 1.000000
vn -0.000000 0.000000 1.000000
vn 0.000000 0.000000 1.000000
vn -0.000000 0.000000 1.000000
vn -0.000000 0.000000 1.000000
vn -0.000000 0.000000 1.000000
vn -0.000000 0.000000 1.000000
vn -0.000000 0.000000 1.000000
vn -0.000000 0.000000 1.000000
vn -0.000000 0.000000 1.000000
vn -0.000000 0.000000 1.000000
vn -0.000000 0.000000 1.000000
vn -0.000000 0.000000 1.000000
vn 0.000000 0.000000 1.000000
vn -0.000000 0.000000 1.000000
vn -0.000000 0.000000 1.000000
vn 0.000000 0.000000 1.000000
vn 0.000000 0.000000 1.000000
vn 0.000000 0.000000 1.000000
vn 0.000000 0.000000 1.000000
vn -0.000000 0.000000 1.000000
vn -0.000000 0.000000 1.000000
vn 0.000000 0.000000 1.000000
s off
f 1/68/1 2/2/2 4/67/3 3/4/4
f 5/65/5 6/6/6 8/70/7 7/8/8
f 7/8/9 8/70/10 2/2/11 1/68/12
f 2/71/13 8/7/14 6/66/15 4/3/16
f 7/69/17 1/1/18 3/64/19 5/5/20
f 3/9/21 4/83/22 10/79/23 9/72/24
f 4/10/25 6/81/26 11/77/27 10/63/28
f 6/13/29 5/78/30 12/74/31 11/76/32
f 5/15/33 3/82/34 9/73/35 12/58/36
f 9/12/37 10/80/38 14/60/39 13/84/40
f 10/11/41 11/61/42 15/59/43 14/17/44
f 11/14/45 12/75/46 16/56/47 15/19/48
f 12/16/49 9/62/50 13/55/51 16/20/52
f 14/85/53 15/21/54 16/57/55 13/18/56
f 17/107/57 18/30/58 26/116/59 25/32/60
f 18/105/61 19/33/62 27/115/63 26/31/64
f 19/103/65 20/35/66 28/114/67 27/34/68
f 20/101/69 21/37/70 29/113/71 28/36/72
f 21/99/73 22/39/74 30/112/75 29/38/76
f 22/97/77 23/41/78 31/111/79 30/40/80
f 23/95/81 24/43/82 32/110/83 31/42/84
f 24/93/85 17/29/86 25/109/87 32/44/88
f 18/45/89 17/108/90 33/86/91
f 19/48/92 18/106/93 33/87/94
f 20/49/95 19/104/96 33/88/97
f 21/50/98 20/102/99 33/89/100
f 22/51/101 21/100/102 33/90/103
f 23/52/104 22/98/105 33/91/106
f 24/53/107 23/96/108 33/92/109
f 17/46/110 24/94/111 33/47/112
f 50/137/113 51/138/114 52/139/115 53/140/116
f 29/25/117 30/24/118 34/118/119 35/117/120
f 30/24/121 31/23/122 36/119/123 34/118/124
f 31/23/125 32/22/126 37/120/127 36/119/128
f 32/22/129 25/54/130 38/121/131 37/120/132
f 25/54/133 26/28/134 39/122/135 38/121/136
f 26/28/137 27/27/138 40/123/139 39/122/140
f 27/27/141 28/26/142 41/124/143 40/123/144
f 28/26/145 29/25/146 35/117/147 41/124/148
f 35/141/149 34/142/150 42/143/151 43/144/152
f 34/142/153 36/145/154 44/146/155 42/143/156
f 36/145/157 37/147/158 45/148/159 44/146/160
f 37/147/161 38/149/162 46/150/163 45/148/164
f 38/149/165 39/151/166 47/152/167 46/150/168
f 39/151/169 40/153/170 48/154/171 47/152/172
f 40/153/173 41/155/174 49/156/175 48/154/176
f 41/155/177 35/141/178 43/144/179 49/156/180
f 51/134/181 50/133/182 43/125/183 42/126/184 44/127/185 45/128/186
f 45/128/187 46/129/188 52/135/189 51/134/190
f 53/136/191 52/135/192 46/129/193 47/130/194 48/131/195 49/132/196
f 49/132/197 43/125/198 50/133/199 53/136/200
