# This file uses meters as units for non-parametric coordinates.

v -0.144863 -0.001883 0.144903
v 0.144863 -0.001883 0.144903
v -0.198039 0.450916 0.198052
v 0.198048 0.450916 0.198052
v -0.198039 0.450916 -0.198167
v 0.198048 0.450916 -0.198167
v -0.144863 -0.001883 -0.144991
v 0.144863 -0.001883 -0.144991
v -0.214512 0.450916 0.214525
v 0.214512 0.450916 0.214525
v 0.214512 0.450916 -0.214525
v -0.214512 0.450916 -0.214525
v -0.214512 0.537659 0.214525
v 0.214512 0.537659 0.214525
v 0.214512 0.537659 -0.214525
v -0.214512 0.537659 -0.214525
v -0.167278 0.537659 0.167273
v 0.167287 0.537659 0.167273
v 0.167287 0.537659 -0.167362
v -0.167278 0.537659 -0.167362
v -0.167278 0.492083 0.167273
v 0.167287 0.492083 0.167273
v 0.167287 0.492083 -0.167362
v -0.167278 0.492083 -0.167362
v -0.058232 0.492083 0.051607
v 0.052863 0.492083 0.051607
v 0.052863 0.492083 -0.059520
v -0.058232 0.492083 -0.059520
v -0.012962 0.652270 0.062965
v 0.057606 0.652270 0.062965
v 0.057606 0.652270 -0.007549
v -0.012962 0.652270 -0.007549
v -0.022448 0.806407 0.041174
v 0.022414 0.800655 0.033065
v 0.015509 0.807008 -0.011873
v -0.029353 0.812759 -0.003763
v 0.009356 0.916601 0.043885
v 0.022478 0.914917 0.041562
v 0.020456 0.916777 0.028311
v 0.007324 0.918461 0.030763
v -0.016769 0.715685 0.046445
v -0.016769 0.715685 0.009079
v -0.021846 0.748012 0.034936
v -0.025492 0.749345 0.011080
v -0.104159 0.751187 -0.006344
v -0.104159 0.751187 -0.031319
v -0.107547 0.772769 -0.014045
v -0.109989 0.773659 -0.029985
v 0.042516 0.709161 0.046896
v 0.042516 0.709161 0.006735
v 0.030620 0.750117 0.004261
v 0.032567 0.748435 0.029859
v 0.097908 0.752988 0.081874
v 0.111740 0.749920 0.069268
v 0.103877 0.763974 0.053780
v 0.095875 0.765625 0.062836
v 0.126550 0.799917 0.095286
v 0.134897 0.798069 0.087725
v 0.130143 0.806537 0.078389
v 0.125324 0.807532 0.083810
vt 0.189650 0.105004
vt 0.233675 0.105004
vt 0.177933 0.109272
vt 0.189650 0.105004
vt 0.233675 0.105004
vt 0.177933 0.109272
vt 0.162819 0.105004
vt 0.233675 0.105004
vt 0.162819 0.105004
vt 0.162819 0.105004
vt 0.189650 0.105004
vt 0.189650 0.105004
vt 0.189650 0.105004
vt 0.189650 0.105004
vt 0.177933 0.109272
vt 0.233675 0.105004
vt 0.233675 0.105004
vt 0.177933 0.109272
vt 0.189650 0.105004
vt 0.233675 0.105004
vt 0.233675 0.105004
vt 0.189650 0.105004
vt 0.162819 0.105004
vt 0.233675 0.105004
vt 0.265241 0.105004
vt 0.237005 0.105004
vt 0.265241 0.105004
vt 0.237005 0.105004
vt 0.319949 0.105004
vt 0.319949 0.105004
vt 0.319949 0.105004
vt 0.319949 0.105004
vt 0.177933 0.109272
vt 0.177933 0.109272
vt 0.177933 0.109272
vt 0.177933 0.109272
vt 0.233833 0.045511
vt 0.177933 0.109272
vt 0.177933 0.109272
vt 0.177933 0.109272
vt 0.177933 0.109272
vt 0.177933 0.109272
vt 0.177933 0.109272
vt 0.233833 0.045511
vt 0.177933 0.109272
vt 0.233833 0.045511
vt 0.319949 0.105004
vt 0.319949 0.105004
vt 0.177933 0.109272
vt 0.177933 0.109272
vt 0.233833 0.045511
vt 0.319949 0.105004
vt 0.319949 0.105004
vt 0.177933 0.109272
vt 0.319949 0.105004
vt 0.319949 0.105004
vt 0.177933 0.109272
vt 0.319949 0.105004
vt 0.319949 0.105004
vt 0.177933 0.109272
vt 0.237005 0.105004
vt 0.265241 0.105004
vt 0.319949 0.105004
vt 0.265241 0.105004
vt 0.237005 0.105004
vt 0.319949 0.105004
vt 0.237005 0.105004
vt 0.265241 0.105004
vt 0.319949 0.105004
vt 0.265241 0.105004
vt 0.237005 0.105004
vt 0.319949 0.105004
vt 0.177933 0.109272
vt 0.177933 0.109272
vt 0.265241 0.105004
vt 0.177933 0.109272
vt 0.177933 0.109272
vt 0.237005 0.105004
vt 0.177933 0.109272
vt 0.177933 0.109272
vt 0.265241 0.105004
vt 0.177933 0.109272
vt 0.177933 0.109272
vt 0.237005 0.105004
vt 0.177933 0.109272
vt 0.177933 0.109272
vt 0.177933 0.109272
vt 0.177933 0.109272
vt 0.233833 0.045511
vt 0.233833 0.045511
vt 0.233833 0.045511
vt 0.233833 0.045511
vt 0.364068 0.395726
vt 0.198166 0.395726
vt 0.263831 0.395726
vt 0.198166 0.395726
vt 0.263831 0.395726
vt 0.198166 0.395726
vt 0.198166 0.395726
vt 0.198166 0.395726
vt 0.263831 0.395726
vt 0.198166 0.395726
vt 0.198166 0.395726
vt 0.198166 0.395726
vt 0.198166 0.395726
vt 0.198166 0.395726
vt 0.352484 0.395726
vt 0.263831 0.395726
vt 0.352484 0.395726
vt 0.263831 0.395726
vt 0.198166 0.395726
vt 0.198166 0.395726
vt 0.198166 0.395726
vt 0.263831 0.395726
vt 0.352484 0.395726
vt 0.263831 0.395726
vt 0.263831 0.395726
vt 0.198166 0.395726
vt 0.352484 0.395726
vt 0.263831 0.395726
vt 0.263831 0.395726
vt 0.198166 0.395726
vt 0.352484 0.395726
vt 0.263831 0.395726
vt 0.263831 0.395726
vt 0.198166 0.395726
vt 0.352484 0.395726
vt 0.263831 0.395726
vt 0.263831 0.395726
vt 0.352484 0.395726
vt 0.263831 0.395726
vt 0.352484 0.395726
vt 0.198166 0.395726
vt 0.263831 0.395726
vt 0.263831 0.395726
vt 0.263831 0.395726
vt 0.263831 0.395726
vt 0.198166 0.395726
vt 0.263831 0.395726
vt 0.263831 0.395726
vt 0.198166 0.395726
vt 0.263831 0.395726
vt 0.198166 0.395726
vt 0.263831 0.395726
vt 0.263831 0.395726
vt 0.352484 0.395726
vt 0.198166 0.395726
vt 0.198166 0.395726
vt 0.263831 0.395726
vt 0.263831 0.395726
vt 0.263831 0.395726
vt 0.198166 0.395726
vt 0.263831 0.395726
vt 0.198166 0.395726
vt 0.263831 0.395726
vt 0.364068 0.395726
vt 0.198166 0.395726
vt 0.364068 0.395726
vt 0.263831 0.395726
vt 0.263831 0.395726
vt 0.263831 0.395726
vt 0.364068 0.395726
vt 0.263831 0.395726
vt 0.263831 0.395726
vt 0.263831 0.395726
vt 0.263831 0.395726
vt 0.263831 0.395726
vt 0.263831 0.395726
vt 0.263831 0.395726
vt 0.263831 0.395726
vt 0.263831 0.395726
vt 0.263831 0.395726
vt 0.263831 0.395726
vt 0.263831 0.395726
vt 0.263831 0.395726
vt 0.263831 0.395726
vt 0.263831 0.395726
vt 0.198166 0.395726
vt 0.263831 0.395726
vt 0.198166 0.395726
vt 0.198166 0.395726
vt 0.352484 0.395726
vt 0.352484 0.395726
vt 0.352484 0.395726
vt 0.352484 0.395726
vt 0.352484 0.395726
vt 0.352484 0.395726
vt 0.198166 0.395726
vt 0.198166 0.395726
vt 0.198166 0.395726
vt 0.352484 0.395726
vt 0.198166 0.395726
vn 0.000000 -0.116579 0.993181
vn 0.000000 -0.116579 0.993181
vn 0.000000 -0.116579 0.993181
vn 0.000000 -0.116579 0.993181
vn 0.147116 0.982300 0.115950
vn 0.147116 0.982300 0.115950
vn 0.147116 0.982300 0.115950
vn 0.147116 0.982300 0.115950
vn 0.000000 -0.116636 -0.993175
vn 0.000000 -0.116636 -0.993175
vn 0.000000 -0.116636 -0.993175
vn 0.000000 -0.116636 -0.993175
vn 0.000000 -1.000000 0.000000
vn 0.000000 -1.000000 0.000000
vn 0.000000 -1.000000 0.000000
vn 0.000000 -1.000000 0.000000
vn 0.993172 -0.116656 0.000000
vn 0.993172 -0.116656 0.000000
vn 0.993172 -0.116656 0.000000
vn 0.993172 -0.116656 0.000000
vn -0.993175 -0.116636 0.000000
vn -0.993175 -0.116636 0.000000
vn -0.993175 -0.116636 0.000000
vn -0.993175 -0.116636 0.000000
vn 0.000000 -1.000000 0.000000
vn 0.000000 -1.000000 0.000000
vn 0.000000 -1.000000 0.000000
vn 0.000000 -1.000000 0.000000
vn 0.000000 -1.000000 0.000000
vn 0.000000 -1.000000 -0.000000
vn 0.000000 -1.000000 -0.000000
vn 0.000000 -1.000000 0.000000
vn 0.000000 -1.000000 -0.000000
vn 0.000000 -1.000000 -0.000000
vn 0.000000 -1.000000 -0.000000
vn 0.000000 -1.000000 -0.000000
vn 0.000000 -1.000000 -0.000000
vn 0.000000 -1.000000 0.000000
vn 0.000000 -1.000000 0.000000
vn 0.000000 -1.000000 -0.000000
vn 0.000000 0.000000 1.000000
vn 0.000000 0.000000 1.000000
vn 0.000000 0.000000 1.000000
vn 0.000000 0.000000 1.000000
vn 1.000000 0.000000 0.000000
vn 1.000000 0.000000 0.000000
vn 1.000000 0.000000 0.000000
vn 1.000000 0.000000 0.000000
vn 0.000000 0.000000 -1.000000
vn 0.000000 0.000000 -1.000000
vn 0.000000 0.000000 -1.000000
vn 0.000000 0.000000 -1.000000
vn -1.000000 0.000000 0.000000
vn -1.000000 0.000000 0.000000
vn -1.000000 0.000000 0.000000
vn -1.000000 0.000000 0.000000
vn 0.000000 1.000000 -0.000000
vn 0.000000 1.000000 -0.000000
vn 0.000000 1.000000 -0.000000
vn 0.000000 1.000000 -0.000000
vn 0.000000 1.000000 -0.000000
vn 0.000000 1.000000 0.000000
vn 0.000000 1.000000 0.000000
vn 0.000000 1.000000 -0.000000
vn 0.000000 1.000000 0.000000
vn 0.000000 1.000000 0.000000
vn 0.000000 1.000000 0.000000
vn 0.000000 1.000000 0.000000
vn 0.000000 1.000000 0.000000
vn 0.000000 1.000000 -0.000000
vn 0.000000 1.000000 -0.000000
vn 0.000000 1.000000 0.000000
vn 0.000000 0.000000 -1.000000
vn 0.000000 0.000000 -1.000000
vn 0.000000 0.000000 -1.000000
vn 0.000000 0.000000 -1.000000
vn -1.000000 0.000000 0.000000
vn -1.000000 0.000000 0.000000
vn -1.000000 0.000000 0.000000
vn -1.000000 0.000000 0.000000
vn 0.000000 0.000000 1.000000
vn 0.000000 0.000000 1.000000
vn 0.000000 0.000000 1.000000
vn 0.000000 0.000000 1.000000
vn 1.000000 0.000000 0.000000
vn 1.000000 0.000000 0.000000
vn 1.000000 0.000000 0.000000
vn 1.000000 0.000000 0.000000
vn 0.000000 1.000000 -0.000000
vn 0.000000 1.000000 -0.000000
vn 0.000000 1.000000 -0.000000
vn 0.000000 1.000000 -0.000000
vn 0.000000 1.000000 -0.000000
vn 0.000000 1.000000 0.000000
vn 0.000000 1.000000 0.000000
vn 0.000000 1.000000 -0.000000
vn 0.000000 1.000000 0.000000
vn 0.000000 1.000000 0.000000
vn 0.000000 1.000000 0.000000
vn 0.000000 1.000000 0.000000
vn 0.000000 1.000000 0.000000
vn 0.000000 1.000000 -0.000000
vn 0.000000 1.000000 -0.000000
vn 0.000000 1.000000 0.000000
vn 0.000000 -0.070727 0.997496
vn 0.000000 -0.070727 0.997496
vn 0.000000 -0.070727 0.997496
vn 0.000000 -0.070727 0.997496
vn 0.999562 -0.029598 0.000000
vn 0.999562 -0.029598 0.000000
vn 0.999562 -0.029598 0.000000
vn 0.999562 -0.029598 0.000000
vn 0.000000 0.308606 -0.951190
vn 0.000000 0.308606 -0.951190
vn 0.000000 0.308606 -0.951190
vn 0.000000 0.308606 -0.951190
vn -0.962309 0.271959 0.000000
vn -0.962309 0.271960 0.000000
vn -0.962309 0.271959 0.000000
vn -0.962309 0.271959 0.000000
vn 0.077828 0.179075 0.980752
vn 0.077828 0.179075 0.980752
vn 0.077828 0.179075 0.980752
vn 0.077828 0.179075 0.980752
vn 0.554716 0.727881 0.403088
vn 0.554716 0.727881 0.403088
vn 0.554716 0.727881 0.403088
vn 0.554716 0.727881 0.403088
vn -0.070813 -0.014841 -0.997379
vn -0.070813 -0.014841 -0.997379
vn -0.070813 -0.014841 -0.997379
vn -0.070813 -0.014841 -0.997379
vn -0.978908 -0.196999 0.054132
vn -0.978908 -0.196999 0.054132
vn -0.978908 -0.196999 0.054132
vn -0.978908 -0.196999 0.054132
vn 0.167554 -0.072881 0.983165
vn 0.167554 -0.072881 0.983165
vn 0.167554 -0.072881 0.983165
vn 0.167554 -0.072881 0.983165
vn 0.988602 0.010517 -0.150186
vn 0.988602 0.010517 -0.150187
vn 0.988602 0.010517 -0.150186
vn 0.988602 0.010517 -0.150186
vn -0.124895 0.346478 -0.929706
vn -0.124895 0.346478 -0.929706
vn -0.124895 0.346478 -0.929706
vn -0.124895 0.346478 -0.929706
vn -0.945686 0.268313 0.183539
vn -0.945686 0.268313 0.183539
vn -0.945686 0.268313 0.183539
vn -0.945686 0.268313 0.183539
vn -0.997882 -0.065055 0.000127
vn -0.998205 -0.059810 0.003237
vn -0.997402 -0.058267 0.042353
vn -0.996096 -0.088274 0.000701
vn -0.998205 -0.059810 0.003237
vn -0.988712 -0.027776 0.147234
vn -0.989505 -0.038631 0.139240
vn -0.997402 -0.058267 0.042353
vn -0.988712 -0.027776 0.147234
vn -0.988541 -0.025717 0.148747
vn -0.988541 -0.025717 0.148747
vn -0.989505 -0.038631 0.139240
vn -0.991729 -0.128337 0.001694
vn -0.997882 -0.065055 0.000127
vn -0.996096 -0.088274 0.000701
vn -0.991729 -0.128337 0.001694
vn -0.376378 -0.926466 0.000000
vn -0.376378 -0.926466 0.000000
vn -0.376378 -0.926466 0.000000
vn -0.376378 -0.926466 0.000000
vn -0.427321 0.243189 0.870779
vn -0.427321 0.243189 0.870779
vn -0.427321 0.243189 0.870779
vn -0.427321 0.243189 0.870779
vn 0.271004 0.962500 0.012280
vn 0.271003 0.962500 0.012280
vn 0.271004 0.962500 0.012280
vn 0.271003 0.962500 0.012280
vn 0.470406 0.173352 -0.865256
vn 0.470406 0.173352 -0.865256
vn 0.470406 0.173352 -0.865256
vn 0.470406 0.173352 -0.865256
vn 0.966575 0.256383 0.000000
vn 0.966356 0.257208 -0.000059
vn 0.965482 0.260471 -0.000293
vn 0.966575 0.256383 0.000000
vn 0.966356 0.257208 -0.000059
vn 0.971618 0.221222 -0.083777
vn 0.969108 0.242550 -0.044708
vn 0.965482 0.260471 -0.000293
vn 0.971618 0.221222 -0.083777
vn 0.971781 0.211469 -0.104514
vn 0.969276 0.199476 -0.143920
vn 0.969108 0.242550 -0.044708
vn 0.971781 0.211469 -0.104514
vn 0.962406 0.180811 -0.202688
vn 0.962406 0.180811 -0.202688
vn 0.969276 0.199476 -0.143920
vn 0.458335 -0.872202 0.170858
vn 0.458335 -0.872202 0.170858
vn 0.458335 -0.872202 0.170858
vn 0.458335 -0.872202 0.170858
vn 0.625021 -0.030203 -0.780023
vn 0.625021 -0.030203 -0.780023
vn 0.625021 -0.030203 -0.780023
vn 0.625021 -0.030203 -0.780023
vn -0.201754 0.978832 -0.034389
vn -0.201754 0.978832 -0.034389
vn -0.201754 0.978832 -0.034389
vn -0.201754 0.978832 -0.034389
vn -0.596108 0.360844 0.717250
vn -0.596108 0.360844 0.717250
vn -0.596108 0.360844 0.717250
vn -0.596108 0.360844 0.717250
vn 0.513589 -0.510878 0.689369
vn 0.513589 -0.510878 0.689369
vn 0.513589 -0.510878 0.689369
vn 0.513589 -0.510878 0.689369
vn 0.806866 -0.171183 -0.565389
vn 0.806865 -0.171183 -0.565389
vn 0.806865 -0.171183 -0.565389
vn 0.806865 -0.171183 -0.565389
vn -0.510412 0.644109 -0.569740
vn -0.510412 0.644109 -0.569740
vn -0.510412 0.644109 -0.569740
vn -0.510412 0.644109 -0.569740
vn -0.838396 0.408613 0.360734
vn -0.838395 0.408613 0.360734
vn -0.838395 0.408613 0.360734
vn -0.838395 0.408613 0.360734
s off
f 1/20/1 2/2/2 4/21/3 3/17/4
f 37/93/5 38/162/6 39/158/7 40/156/8
f 5/5/9 6/16/10 8/8/11 7/24/12
f 7/7/13 8/23/14 2/10/15 1/9/16
f 2/19/17 8/11/18 6/12/19 4/4/20
f 7/13/21 1/1/22 3/22/23 5/14/24
f 3/3/25 4/87/26 10/80/27 9/82/28
f 4/15/29 6/86/30 11/77/31 10/79/32
f 6/6/33 5/85/34 12/74/35 11/76/36
f 5/18/37 3/88/38 9/83/39 12/73/40
f 9/25/41 10/81/42 14/68/43 13/70/44
f 10/26/45 11/78/46 15/65/47 14/67/48
f 11/27/49 12/75/50 16/62/51 15/64/52
f 12/28/53 9/84/54 13/71/55 16/61/56
f 13/29/57 14/69/58 18/56/59 17/58/60
f 14/30/61 15/66/62 19/53/63 18/55/64
f 15/31/65 16/63/66 20/48/67 19/52/68
f 16/32/69 13/72/70 17/59/71 20/47/72
f 17/33/73 18/57/74 22/50/75 21/41/76
f 18/34/77 19/54/78 23/45/79 22/38/80
f 19/35/81 20/49/82 24/43/83 23/39/84
f 20/36/85 17/60/86 21/42/87 24/40/88
f 21/37/89 22/44/90 26/90/91 25/89/92
f 22/44/93 23/46/94 27/91/95 26/90/96
f 23/46/97 24/51/98 28/92/99 27/91/100
f 24/51/101 21/37/102 25/89/103 28/92/104
f 25/97/105 26/179/106 30/173/107 29/176/108
f 26/98/109 27/178/110 31/102/111 30/99/112
f 27/101/113 28/177/114 32/169/115 31/172/116
f 28/103/117 25/180/118 29/100/119 32/104/120
f 29/175/121 30/174/122 34/165/123 33/168/124
f 57/107/125 58/185/126 59/183/127 60/182/128
f 31/171/129 32/170/130 36/159/131 35/164/132
f 46/113/133 45/148/134 47/189/135 48/190/136
f 33/167/137 34/166/138 38/161/139 37/153/140
f 34/105/141 35/112/142 39/157/143 38/94/144
f 35/163/145 36/160/146 40/155/147 39/95/148
f 36/111/149 33/106/150 37/154/151 40/96/152
f 32/104/153 29/100/154 41/152/155 42/118/156
f 29/100/157 33/106/158 43/192/159 41/152/160
f 33/106/161 36/111/162 44/147/163 43/192/164
f 36/111/165 32/104/166 42/118/167 44/147/168
f 42/118/169 41/152/170 45/148/171 46/113/172
f 41/117/173 43/150/174 47/149/175 45/114/176
f 43/119/177 44/191/178 48/146/179 47/115/180
f 44/120/181 42/151/182 46/145/183 48/116/184
f 30/99/185 31/102/186 50/143/187 49/122/188
f 31/102/189 35/112/190 51/188/191 50/143/192
f 35/112/193 34/105/194 52/141/195 51/188/196
f 34/105/197 30/99/198 49/122/199 52/141/200
f 49/122/201 50/143/202 54/138/203 53/126/204
f 50/121/205 51/142/206 55/135/207 54/137/208
f 51/123/209 52/187/210 56/132/211 55/186/212
f 52/124/213 49/144/214 53/139/215 56/131/216
f 53/126/217 54/138/218 58/133/219 57/181/220
f 54/125/221 55/136/222 59/134/223 58/108/224
f 55/127/225 56/184/226 60/130/227 59/109/228
f 56/128/229 53/140/230 57/129/231 60/110/232
