# This file uses meters as units for non-parametric coordinates.

v -1.364826 0.000000 0.697880
v 1.364826 0.000000 0.697880
v -1.364826 1.135090 0.697880
v 1.364826 1.135090 0.697880
v -1.364826 1.135090 -0.697882
v 1.364826 1.135090 -0.697882
v -1.364826 0.000000 -0.697882
v 1.364826 0.000000 -0.697882
v -0.235432 1.135090 -0.550655
v -0.834492 1.135090 -0.550655
v -1.134022 1.135090 -0.031857
v -0.834492 1.135090 0.486942
v -0.235432 1.135090 0.486942
v 0.064098 1.135090 -0.031857
v -0.397541 1.135090 -0.269871
v -0.672382 1.135090 -0.269871
v -0.534962 1.135090 -0.031857
v -0.809795 1.135090 -0.031857
v -0.672382 1.135090 0.206165
v -0.397541 1.135090 0.206165
v -0.260120 1.135090 -0.031857
v 0.344448 1.135090 0.455349
v 1.123493 1.135090 0.455349
v 1.123493 1.135090 -0.477077
v 0.344448 1.135090 -0.477077
vt 0.223423 0.478387
vt 0.223423 0.478387
vt 0.223423 0.478387
vt 0.223423 0.478387
vt 0.231150 0.471626
vt 0.231150 0.471626
vt 0.231150 0.471626
vt 0.231150 0.471626
vt 0.201209 0.477421
vt 0.201209 0.477421
vt 0.201209 0.477421
vt 0.201209 0.477421
vt 0.201209 0.477421
vt 0.201209 0.477421
vt 0.201209 0.477421
vt 0.201209 0.477421
vt 0.320006 0.479353
vt 0.320006 0.479353
vt 0.320006 0.479353
vt 0.320006 0.479353
vt 0.320006 0.479353
vt 0.320006 0.479353
vt 0.320006 0.479353
vt 0.320006 0.479353
vt 0.320006 0.479353
vt 0.320006 0.479353
vt 0.320006 0.479353
vt 0.320006 0.479353
vt 0.320006 0.479353
vt 0.320006 0.479353
vt 0.320006 0.479353
vt 0.320006 0.479353
vt 0.320006 0.479353
vt 0.320006 0.479353
vt 0.263988 0.468728
vt 0.263988 0.468728
vt 0.263988 0.468728
vt 0.263988 0.468728
vt 0.263988 0.468728
vt 0.263988 0.468728
vt 0.263988 0.468728
vt 0.263988 0.468728
vt 0.229218 0.477421
vt 0.229218 0.477421
vt 0.229218 0.477421
vt 0.229218 0.477421
vt 0.263988 0.468728
vt 0.196380 0.477421
vt 0.196380 0.477421
vt 0.196380 0.477421
vt 0.196380 0.477421
vt 0.196380 0.477421
vt 0.196380 0.477421
vt 0.196380 0.477421
vt 0.196380 0.477421
vt 0.196380 0.477421
vt 0.196380 0.477421
vt 0.196380 0.477421
vt 0.196380 0.477421
vt 0.196380 0.477421
vt 0.196380 0.477421
vt 0.196380 0.477421
vt 0.196380 0.477421
vt 0.196380 0.477421
vt 0.196380 0.477421
vt 0.196380 0.477421
vt 0.196380 0.477421
vt 0.196380 0.477421
vt 0.196380 0.477421
vt 0.196380 0.477421
vt 0.196380 0.477421
vt 0.263988 0.468728
vt 0.263988 0.468728
vt 0.263988 0.468728
vt 0.263988 0.468728
vt 0.263988 0.468728
vt 0.169792 0.481765
vt 0.169792 0.481765
vt 0.169792 0.481765
vt 0.169792 0.481765
vn 0.000000 0.000000 1.000000
vn 0.000000 0.000000 1.000000
vn 0.000000 0.000000 1.000000
vn 0.000000 0.000000 1.000000
vn 0.000000 0.000000 -1.000000
vn 0.000000 0.000000 -1.000000
vn 0.000000 0.000000 -1.000000
vn 0.000000 0.000000 -1.000000
vn 1.000000 0.000000 0.000000
vn 1.000000 0.000000 0.000000
vn 1.000000 0.000000 0.000000
vn 1.000000 0.000000 0.000000
vn -1.000000 0.000000 0.000000
vn -1.000000 0.000000 0.000000
vn -1.000000 0.000000 0.000000
vn -1.000000 0.000000 0.000000
vn 0.000000 1.000000 -0.000000
vn 0.000000 1.000000 0.000000
vn 0.000000 1.000000 -0.000000
vn 0.000000 1.000000 0.000000
vn 0.000000 1.000000 0.000000
vn 0.000000 1.000000 -0.000000
vn 0.000000 1.000000 0.000000
vn 0.000000 1.000000 0.000000
vn 0.000000 1.000000 -0.000000
vn 0.000000 1.000000 0.000000
vn 0.000000 1.000000 0.000000
vn 0.000000 1.000000 -0.000000
vn 0.000000 1.000000 0.000000
vn 0.000000 1.000000 -0.000000
vn 0.000000 1.000000 -0.000000
vn 0.000000 1.000000 -0.000000
vn 0.000000 1.000000 -0.000000
vn 0.000000 1.000000 -0.000000
vn 0.000000 1.000000 -0.000000
vn 0.000000 1.000000 0.000000
vn 0.000000 1.000000 0.000000
vn 0.000000 1.000000 -0.000000
vn 0.000000 1.000000 0.000000
vn 0.000000 1.000000 0.000000
vn 0.000000 1.000000 0.000000
vn 0.000000 1.000000 0.000000
vn 0.000000 1.000000 -0.000000
vn 0.000000 1.000000 -0.000000
vn 0.000000 1.000000 0.000000
vn 0.000000 1.000000 0.000000
vn 0.000000 1.000000 0.000000
vn 0.000000 1.000000 0.000000
vn 0.000000 1.000000 0.000000
vn 0.000000 1.000000 0.000000
vn 0.000000 1.000000 0.000000
vn 0.000000 1.000000 0.000000
vn 0.000000 1.000000 0.000000
vn 0.000000 1.000000 0.000000
vn 0.000000 1.000000 0.000000
vn 0.000000 1.000000 0.000000
vn 0.000000 1.000000 -0.000000
vn 0.000000 1.000000 0.000000
vn 0.000000 1.000000 0.000000
vn 0.000000 1.000000 0.000000
vn 0.000000 1.000000 0.000000
vn 0.000000 1.000000 0.000000
vn 0.000000 1.000000 0.000000
vn 0.000000 1.000000 0.000000
vn 0.000000 1.000000 0.000000
vn 0.000000 1.000000 0.000000
vn 0.000000 1.000000 -0.000000
vn 0.000000 1.000000 0.000000
vn 0.000000 1.000000 0.000000
vn 0.000000 1.000000 -0.000000
vn 0.000000 1.000000 -0.000000
vn 0.000000 1.000000 -0.000000
vn 0.000000 1.000000 0.000000
vn 0.000000 1.000000 -0.000000
vn 0.000000 1.000000 0.000000
vn 0.000000 1.000000 -0.000000
vn 0.000000 1.000000 -0.000000
vn 0.000000 1.000000 -0.000000
vn 0.000000 1.000000 -0.000000
vn 0.000000 1.000000 -0.000000
vn 0.000000 1.000000 -0.000000
vn 0.000000 1.000000 -0.000000
vn 0.000000 1.000000 -0.000000
vn 0.000000 1.000000 -0.000000
vn 0.000000 1.000000 -0.000000
vn 0.000000 1.000000 0.000000
vn 0.000000 1.000000 0.000000
vn 0.000000 1.000000 -0.000000
vn 0.000000 1.000000 0.000000
vn 0.000000 1.000000 0.000000
vn 0.000000 1.000000 0.000000
vn 0.000000 1.000000 0.000000
vn 0.000000 1.000000 0.000000
vn 0.000000 1.000000 -0.000000
vn 0.000000 1.000000 -0.000000
vn 0.000000 1.000000 0.000000
vn 0.000000 -1.000000 0.000000
vn 0.000000 -1.000000 0.000000
vn 0.000000 -1.000000 0.000000
vn 0.000000 -1.000000 0.000000
s off
f 1/1/1 2/2/2 4/3/3 3/4/4
f 5/5/5 6/6/6 8/7/7 7/8/8
f 2/9/9 8/10/10 6/11/11 4/12/12
f 7/13/13 1/14/14 3/15/15 5/16/16
f 15/17/17 16/18/18 17/19/19
f 16/20/20 18/21/21 17/22/22
f 18/23/23 19/24/24 17/25/25
f 19/26/26 20/27/27 17/28/28
f 20/29/29 21/30/30 17/31/31
f 21/32/32 15/33/33 17/34/34
f 13/35/35 12/36/36 3/37/37 4/38/38
f 10/39/39 9/40/40 6/41/41 5/42/42
f 22/43/43 23/44/44 24/45/45 25/46/46
f 11/47/47 10/39/48 5/42/49 3/37/50
f 12/36/51 11/47/52 3/37/53
f 9/48/54 10/49/55 16/50/56 15/51/57
f 10/52/58 11/53/59 18/54/60 16/55/61
f 11/56/62 12/57/63 19/58/64 18/59/65
f 12/60/66 13/61/67 20/62/68 19/63/69
f 13/64/70 14/65/71 21/66/72 20/67/73
f 14/68/74 9/69/75 15/70/76 21/71/77
f 14/72/78 13/35/79 22/73/80
f 13/35/81 4/38/82 23/74/83 22/73/84
f 4/38/85 6/41/86 24/75/87 23/74/88
f 6/41/89 9/40/90 25/76/91 24/75/92
f 9/40/93 14/72/94 22/73/95 25/76/96
f 7/77/97 8/78/98 2/79/99 1/80/100
