# This file uses meters as units for non-parametric coordinates.

v -0.385520 0.000000 1.657998
v 0.385522 0.000000 1.657998
v -0.385520 0.508625 1.657998
v 0.385522 0.508625 1.657998
v -0.406539 0.354435 -1.472697
v 0.406537 0.354435 -1.472697
v -0.406539 0.000000 -1.472697
v 0.406537 0.000000 -1.472697
v 0.650903 0.386639 -0.577769
v -0.650901 0.386639 -0.577769
v -0.650901 0.000000 -0.577769
v 0.650903 0.000000 -0.577769
v -0.342002 0.516987 -0.577769
v 0.325450 0.516987 -0.577769
v -0.312152 0.516247 -0.598445
v 0.000000 0.508495 0.421880
v 0.297048 0.516247 -0.598445
v -0.371058 0.355175 -1.396480
v 0.371060 0.355175 -1.396480
v -0.284316 0.329628 -0.588527
v 0.000000 0.322569 0.340810
v 0.270558 0.329628 -0.588527
v -0.337970 0.169941 -1.315394
v 0.337970 0.169941 -1.315394
v -0.476081 0.280241 1.228126
v 0.476083 0.280241 1.228126
v 0.476083 0.000000 1.228126
v -0.476081 0.000000 1.228126
v -0.030872 0.436230 1.228126
v -0.028772 0.368099 1.657998
v 0.037316 0.508495 0.540112
v 0.030872 0.436230 1.228126
v 0.028772 0.368099 1.657998
v -0.028772 0.176271 1.657998
v 0.028772 0.176271 1.657998
v -0.037316 0.506371 0.540112
v 0.160573 0.518608 1.657998
v -0.160573 0.508625 1.657998
v 0.650903 0.193319 -0.577769
v 0.563493 0.000000 0.325177
v 0.607198 0.174118 -0.126292
v 0.629048 0.144990 -0.352031
v 0.528722 0.000000 -1.025233
v 0.589810 0.063298 -0.801509
v 0.365995 0.435711 -1.025233
v 0.393243 0.489834 -0.577769
v 0.346223 0.475342 -0.807048
v 0.379727 0.462990 -0.831767
v 0.473893 0.457535 -0.718852
v 0.332166 0.439816 -0.977122
v 0.032097 0.449966 1.122420
v 0.033033 0.460457 0.875743
v 0.066734 0.440357 1.081176
v 0.069779 0.449364 0.944776
v 0.068256 0.444862 1.034677
v 0.098186 0.436588 1.027732
v 0.100440 0.440109 0.987945
v -0.513694 0.000000 0.839597
v -0.476081 0.107145 1.228126
v -0.429911 0.029509 1.447295
v -0.487639 0.137563 1.108727
v -0.453959 0.129778 1.333139
vt 0.391114 0.477036
vt 0.391114 0.477034
vt 0.108047 0.400026
vt 0.391114 0.477032
vt 0.389992 0.475926
vt 0.389992 0.475926
vt 0.259309 0.482475
vt 0.259309 0.482475
vt 0.259301 0.482475
vt 0.259293 0.482475
vt 0.391114 0.477036
vt 0.200851 0.400289
vt 0.391114 0.477034
vt 0.391114 0.477032
vt 0.421253 0.475884
vt 0.391114 0.477034
vt 0.391099 0.477034
vt 0.421222 0.475884
vt 0.391099 0.477032
vt 0.259309 0.482475
vt 0.259309 0.482475
vt 0.391114 0.477032
vt 0.356722 0.477144
vt 0.356722 0.477144
vt 0.356722 0.477144
vt 0.356722 0.477144
vt 0.356722 0.477144
vt 0.356722 0.477144
vt 0.356722 0.477144
vt 0.262849 0.476700
vt 0.262849 0.476700
vt 0.262849 0.476700
vt 0.262849 0.476700
vt 0.262849 0.476700
vt 0.421222 0.475884
vt 0.421222 0.475884
vt 0.391114 0.477034
vt 0.259309 0.482475
vt 0.391114 0.477032
vt 0.391114 0.477034
vt 0.391114 0.477032
vt 0.259309 0.482475
vt 0.356722 0.477144
vt 0.356313 0.476959
vt 0.356722 0.477144
vt 0.356722 0.477144
vt 0.356313 0.476960
vt 0.356313 0.476959
vt 0.356313 0.476960
vt 0.356722 0.477144
vt 0.356313 0.476961
vt 0.356313 0.476961
vt 0.262849 0.476700
vt 0.262849 0.476700
vt 0.262849 0.476700
vt 0.262849 0.476700
vt 0.262849 0.476700
vt 0.421222 0.475884
vt 0.421253 0.475884
vt 0.421222 0.475884
vt 0.421222 0.475884
vt 0.421222 0.475887
vt 0.388688 0.477634
vt 0.421222 0.475884
vt 0.421222 0.475887
vt 0.421222 0.475884
vt 0.421222 0.475884
vt 0.421222 0.475884
vt 0.421222 0.475884
vt 0.388688 0.477634
vt 0.421222 0.475884
vt 0.356722 0.477144
vt 0.356722 0.477144
vt 0.356722 0.477144
vt 0.356722 0.477144
vt 0.356934 0.472111
vt 0.356934 0.472107
vt 0.356934 0.472107
vt 0.356934 0.472111
vt 0.356313 0.476959
vt 0.356313 0.476959
vt 0.356313 0.476959
vt 0.356313 0.476959
vt 0.389992 0.475927
vt 0.389992 0.475927
vt 0.388688 0.477634
vt 0.388688 0.477634
vt 0.388688 0.477634
vt 0.388688 0.477634
vt 0.391114 0.477033
vt 0.259305 0.482475
vt 0.391114 0.477034
vt 0.391114 0.477033
vt 0.391114 0.477033
vt 0.259305 0.482475
vt 0.391114 0.477034
vt 0.391114 0.477033
vt 0.108063 0.400028
vt 0.108063 0.400026
vt 0.108063 0.400028
vt 0.108047 0.400028
vt 0.108063 0.400028
vt 0.108063 0.400028
vt 0.356722 0.477144
vt 0.421222 0.475884
vt 0.421229 0.475884
vt 0.356722 0.477144
vt 0.421222 0.475884
vt 0.421226 0.475884
vt 0.421227 0.475884
vt 0.262849 0.476700
vt 0.356722 0.477144
vt 0.199432 0.172562
vt 0.199432 0.172562
vt 0.199432 0.172562
vt 0.199432 0.172562
vt 0.199432 0.172562
vt 0.199432 0.172562
vt 0.199432 0.172562
vt 0.421222 0.475884
vt 0.356722 0.477144
vt 0.421222 0.475884
vt 0.356722 0.477144
vt 0.421222 0.475884
vt 0.421222 0.475884
vt 0.421222 0.475884
vt 0.421222 0.475884
vt 0.421222 0.475884
vt 0.172562 0.171146
vt 0.172562 0.171146
vt 0.172562 0.171146
vt 0.172562 0.171146
vt 0.172562 0.171146
vt 0.172562 0.171146
vt 0.172562 0.171146
vt 0.391111 0.477034
vt 0.259305 0.482475
vt 0.391114 0.477035
vt 0.391114 0.477034
vt 0.391113 0.477034
vt 0.391114 0.477034
vt 0.200851 0.400289
vt 0.200851 0.400289
vt 0.200851 0.400289
vt 0.200851 0.400289
vt 0.200851 0.400289
vt 0.200851 0.400289
vn -0.000000 0.000000 1.000000
vn 0.000000 0.000000 1.000000
vn 0.000000 0.000000 1.000000
vn 0.348432 0.922129 -0.168146
vn -0.000668 0.876024 -0.482268
vn -0.280534 0.945124 -0.167454
vn 0.000000 0.000000 -1.000000
vn 0.000000 0.000000 -1.000000
vn 0.000000 0.000000 -1.000000
vn 0.000000 0.000000 -1.000000
vn 0.000000 0.000000 -1.000000
vn 0.000000 0.000000 -1.000000
vn 0.000000 -1.000000 -0.000000
vn 0.000000 -1.000000 -0.000000
vn 0.000000 -1.000000 -0.000000
vn 0.000000 -1.000000 -0.000000
vn 0.000000 -1.000000 0.000000
vn 0.000000 -1.000000 -0.000000
vn 0.000000 -1.000000 0.000000
vn 0.000000 -1.000000 0.000000
vn 0.000000 -1.000000 -0.000000
vn 0.995347 -0.000002 0.096355
vn 0.999125 0.000000 -0.041825
vn 0.995347 -0.000001 0.096355
vn 0.995347 -0.000001 0.096355
vn 0.999125 0.000000 -0.041825
vn 0.995348 0.000021 0.096348
vn 0.997938 0.000000 -0.064183
vn 0.995348 0.000021 0.096348
vn 0.999125 0.000000 -0.041825
vn -0.988800 0.000000 0.149246
vn -0.978523 0.000007 0.206139
vn -0.990915 0.000003 0.134488
vn -0.990915 0.000003 0.134488
vn -0.978523 0.000007 0.206139
vn -0.978521 0.000004 0.206148
vn -0.978519 0.000000 0.206158
vn -0.978521 0.000004 0.206148
vn -0.978520 0.000003 0.206151
vn -0.978523 0.000007 0.206139
vn -0.978520 0.000003 0.206151
vn -0.978521 0.000004 0.206148
vn -0.373652 0.927299 0.022395
vn -0.359436 0.933109 0.010672
vn -0.209299 0.972694 -0.100299
vn -0.964684 0.000000 -0.263409
vn -0.999006 0.000000 -0.044586
vn -0.964684 0.000000 -0.263409
vn -0.964684 0.000000 -0.263409
vn -0.999006 0.000000 -0.044586
vn -0.998562 0.000000 -0.053608
vn 0.964682 0.000000 -0.263417
vn 0.964683 0.000002 -0.263415
vn 0.964683 0.000005 -0.263413
vn 0.996086 -0.000001 -0.088392
vn 0.979582 0.000002 -0.201043
vn 0.964683 0.000002 -0.263415
vn 0.979582 0.000002 -0.201043
vn 0.964684 0.000006 -0.263412
vn 0.964683 0.000002 -0.263415
vn 0.964684 0.000006 -0.263412
vn 0.964683 0.000005 -0.263413
vn 0.964683 0.000002 -0.263415
vn 0.000000 -1.000000 -0.000000
vn 0.000000 -1.000000 -0.000000
vn 0.000000 -1.000000 0.000000
vn 0.000000 -1.000000 -0.000000
vn 0.000000 -1.000000 0.000000
vn 0.000000 -1.000000 0.000000
vn 0.000000 -1.000000 0.000000
vn 0.000000 -1.000000 0.000000
vn 0.000000 -1.000000 0.000000
vn 0.000000 -1.000000 0.000000
vn 0.000000 -1.000000 0.000000
vn 0.000000 -1.000000 0.000000
vn 0.179190 0.970704 -0.160079
vn 0.241032 0.958499 -0.152258
vn 0.328605 0.933566 -0.143084
vn 0.348432 0.922129 -0.168146
vn -0.280534 0.945124 -0.167454
vn 0.324583 0.944797 0.044776
vn 0.324583 0.944797 0.044776
vn -0.280534 0.945124 -0.167454
vn -0.290604 0.955636 0.048064
vn 0.330306 0.939542 0.090329
vn 0.292023 0.948671 0.121437
vn 0.341888 0.935192 0.092348
vn 0.292023 0.948671 0.121437
vn 0.435817 0.895479 -0.090446
vn 0.341888 0.935192 0.092348
vn 0.435817 0.895479 -0.090446
vn 0.416580 0.907871 -0.047237
vn 0.341888 0.935192 0.092348
vn 0.416580 0.907871 -0.047237
vn 0.326707 0.938179 0.114380
vn 0.341888 0.935192 0.092348
vn 0.292136 0.947964 0.126576
vn 0.341888 0.935192 0.092348
vn 0.131069 0.985667 0.106212
vn 0.131069 0.985667 0.106212
vn 0.341888 0.935192 0.092348
vn 0.332824 0.938290 0.094019
vn 0.286929 0.952540 0.101684
vn 0.332824 0.938290 0.094019
vn 0.326707 0.938179 0.114380
vn 0.326707 0.938179 0.114380
vn 0.332824 0.938290 0.094019
vn 0.341888 0.935192 0.092348
vn -0.046009 0.993721 -0.101993
vn -0.359436 0.933109 0.010672
vn -0.013948 0.999864 0.008797
vn -0.013948 0.999864 0.008797
vn -0.359436 0.933109 0.010672
vn -0.331278 0.939284 0.089441
vn -0.209299 0.972694 -0.100299
vn -0.359436 0.933109 0.010672
vn 0.165968 0.982200 -0.087961
vn 0.165968 0.982200 -0.087961
vn -0.359436 0.933109 0.010672
vn -0.046009 0.993721 -0.101993
vn 0.254858 0.965993 0.043651
vn 0.103078 0.981320 -0.162438
vn 0.003006 0.998944 -0.045851
vn 0.003006 0.998944 -0.045851
vn 0.103078 0.981320 -0.162438
vn -0.039337 0.978760 -0.201199
vn 0.151097 0.985720 -0.074337
vn -0.209299 0.972694 -0.100299
vn -0.099188 0.993461 -0.056547
vn -0.099188 0.993461 -0.056547
vn -0.209299 0.972694 -0.100299
vn 0.165968 0.982200 -0.087961
vn 0.002142 0.399689 -0.916649
vn -0.000668 0.876024 -0.482268
vn 0.968714 0.132540 -0.209824
vn 0.968714 0.132540 -0.209824
vn -0.000668 0.876024 -0.482268
vn 0.348432 0.922129 -0.168146
vn 0.002142 0.399689 -0.916649
vn -0.964427 0.124500 -0.233195
vn -0.000668 0.876024 -0.482268
vn -0.000668 0.876024 -0.482268
vn -0.964427 0.124500 -0.233195
vn -0.280534 0.945124 -0.167454
vn 0.750307 0.372965 0.545836
vn 0.968714 0.132540 -0.209824
vn 0.324583 0.944797 0.044776
vn 0.324583 0.944797 0.044776
vn 0.968714 0.132540 -0.209824
vn 0.348432 0.922129 -0.168146
vn -0.964427 0.124500 -0.233195
vn -0.983994 0.133375 -0.118182
vn -0.280534 0.945124 -0.167454
vn -0.290604 0.955636 0.048064
vn -0.280534 0.945124 -0.167454
vn -0.669594 0.395461 0.628693
vn -0.983994 0.133375 -0.118182
vn -0.669594 0.395461 0.628693
vn -0.280534 0.945124 -0.167454
vn -0.669594 0.395461 0.628693
vn 0.750307 0.372965 0.545836
vn -0.290604 0.955636 0.048064
vn -0.290604 0.955636 0.048064
vn 0.750307 0.372965 0.545836
vn 0.324583 0.944797 0.044776
vn 0.125521 0.954137 -0.271785
vn -0.607757 0.784787 0.121412
vn -0.277577 0.955551 -0.099366
vn 0.991202 0.000000 0.132355
vn 0.990109 0.000000 0.140300
vn 0.978522 0.000000 0.206144
vn 0.978522 0.000000 0.206144
vn 0.990109 0.000000 0.140300
vn 0.978522 0.000000 0.206144
vn -0.338848 0.936365 0.091663
vn -0.331278 0.939284 0.089441
vn -0.373652 0.927299 0.022395
vn -0.373652 0.927299 0.022395
vn -0.331278 0.939284 0.089441
vn -0.359436 0.933109 0.010672
vn -0.988800 0.000000 0.149246
vn -0.990915 0.000003 0.134488
vn -0.995347 0.000002 0.096355
vn -0.990915 0.000003 0.134488
vn -0.998562 0.000000 -0.053608
vn -0.995347 0.000002 0.096355
vn -0.995347 0.000002 0.096355
vn -0.998562 0.000000 -0.053608
vn -0.995347 0.000005 0.096355
vn -0.998562 0.000000 -0.053608
vn -0.999006 0.000000 -0.044586
vn -0.995347 0.000005 0.096355
vn -0.338848 0.936365 0.091663
vn -0.313356 0.944403 0.099559
vn -0.331278 0.939284 0.089441
vn 0.288293 0.954694 -0.073798
vn -0.129819 0.954546 -0.268307
vn -0.215977 0.917941 -0.332774
vn -0.215977 0.917941 -0.332774
vn -0.129819 0.954546 -0.268307
vn -0.303578 0.866446 -0.396373
vn 0.292136 0.947964 0.126576
vn 0.131069 0.985667 0.106212
vn -0.313356 0.944403 0.099559
vn -0.313356 0.944403 0.099559
vn 0.131069 0.985667 0.106212
vn -0.331278 0.939284 0.089441
vn 0.131069 0.985667 0.106212
vn 0.292023 0.948671 0.121437
vn -0.331278 0.939284 0.089441
vn 0.330306 0.939542 0.090329
vn -0.331278 0.939284 0.089441
vn 0.292023 0.948671 0.121437
vn -0.129819 0.954546 -0.268307
vn 0.580860 0.804403 0.124652
vn 0.125521 0.954137 -0.271785
vn 0.125521 0.954137 -0.271785
vn 0.580860 0.804403 0.124652
vn -0.607757 0.784787 0.121412
vn 0.000000 0.000000 1.000000
vn -0.000001 0.000000 1.000000
vn -0.000000 0.000000 1.000000
vn -0.000000 0.000000 1.000000
vn -0.000001 0.000000 1.000000
vn 0.000001 0.000000 1.000000
vn 0.000000 0.000000 1.000000
vn 0.000000 0.000000 1.000000
vn -0.000001 0.000000 1.000000
vn 0.000000 0.000000 1.000000
vn 0.000001 0.000000 1.000000
vn -0.000001 0.000000 1.000000
vn 0.000000 0.000000 1.000000
vn -0.000001 0.000000 1.000000
vn 0.000000 0.000000 1.000000
vn 0.341888 0.935192 0.092348
vn 0.360269 0.929999 0.072849
vn 0.330306 0.939542 0.090329
vn 0.254858 0.965993 0.043651
vn 0.330306 0.939542 0.090329
vn 0.366615 0.926497 0.084836
vn 0.330306 0.939542 0.090329
vn 0.360269 0.929999 0.072849
vn 0.366615 0.926497 0.084836
vn -0.013948 0.999864 0.008797
vn -0.331278 0.939284 0.089441
vn 0.330306 0.939542 0.090329
vn 0.330306 0.939542 0.090329
vn 0.254858 0.965993 0.043651
vn -0.013948 0.999864 0.008797
vn -0.013948 0.999864 0.008797
vn 0.254858 0.965993 0.043651
vn 0.003006 0.998944 -0.045851
vn -0.000000 0.000000 1.000000
vn 0.000000 0.000000 1.000000
vn -0.000000 0.000000 1.000000
vn 0.000000 0.000000 1.000000
vn 0.000001 0.000000 1.000000
vn 0.000000 0.000000 1.000000
vn -0.129819 0.954546 -0.268307
vn 0.288293 0.954694 -0.073798
vn 0.580860 0.804403 0.124652
vn -0.277577 0.955551 -0.099366
vn 0.227335 0.912100 -0.341162
vn 0.125521 0.954137 -0.271785
vn 0.125521 0.954137 -0.271785
vn 0.227335 0.912100 -0.341162
vn 0.303577 0.866446 -0.396374
vn -0.000000 0.000000 1.000000
vn 0.000001 0.000000 1.000000
vn 0.000000 0.000000 1.000000
vn 0.000000 0.000000 1.000000
vn 0.000000 0.000000 1.000000
vn 0.000001 0.000000 1.000000
vn 0.000000 -1.000000 0.000000
vn 0.000000 -1.000000 -0.000000
vn 0.000000 -1.000000 0.000000
vn 0.000000 -1.000000 0.000000
vn 0.000000 -1.000000 -0.000000
vn 0.000000 -1.000000 -0.000000
vn 0.991202 0.000000 0.132355
vn 0.995347 0.000000 0.096355
vn 0.990109 0.000000 0.140300
vn 0.979582 0.000002 -0.201043
vn 0.996086 -0.000001 -0.088392
vn 0.995347 -0.000011 0.096350
vn 0.990109 0.000000 0.140300
vn 0.995347 0.000000 0.096355
vn 0.996086 -0.000001 -0.088392
vn 0.995347 0.000000 0.096355
vn 0.995347 0.000007 0.096357
vn 0.996086 -0.000001 -0.088392
vn 0.995347 0.000007 0.096357
vn 0.995347 -0.000011 0.096350
vn 0.996086 -0.000001 -0.088392
vn 0.964684 -0.000002 -0.263409
vn 0.964684 -0.000001 -0.263409
vn 0.999125 0.000000 -0.041825
vn 0.999125 0.000000 -0.041825
vn 0.964684 -0.000001 -0.263409
vn 0.997938 0.000000 -0.064183
vn 0.151097 0.985720 -0.074337
vn 0.328605 0.933566 -0.143084
vn 0.360269 0.929999 0.072849
vn 0.328605 0.933566 -0.143084
vn 0.405440 0.899571 -0.162450
vn 0.360269 0.929999 0.072849
vn 0.405440 0.899571 -0.162450
vn 0.490303 0.851158 -0.187439
vn 0.360269 0.929999 0.072849
vn 0.490303 0.851158 -0.187439
vn 0.366615 0.926497 0.084836
vn 0.360269 0.929999 0.072849
vn 0.239924 0.958535 -0.153778
vn 0.103078 0.981320 -0.162438
vn 0.208875 0.972172 -0.106078
vn 0.254858 0.965993 0.043651
vn 0.366615 0.926497 0.084836
vn 0.103078 0.981320 -0.162438
vn 0.366615 0.926497 0.084836
vn 0.208875 0.972172 -0.106078
vn 0.103078 0.981320 -0.162438
vn 0.179190 0.970704 -0.160079
vn 0.328605 0.933566 -0.143084
vn -0.161659 0.967150 -0.196182
vn 0.151097 0.985720 -0.074337
vn -0.099188 0.993461 -0.056547
vn 0.328605 0.933566 -0.143084
vn -0.161659 0.967150 -0.196182
vn 0.328605 0.933566 -0.143084
vn -0.099188 0.993461 -0.056547
vn 0.292023 0.948671 0.121437
vn 0.131069 0.985667 0.106212
vn 0.216413 0.975372 0.042596
vn 0.216413 0.975372 0.042596
vn 0.131069 0.985667 0.106212
vn 0.271634 0.960767 0.056053
vn 0.376393 0.920879 0.101544
vn 0.271634 0.960767 0.056053
vn 0.131069 0.985667 0.106212
vn 0.286718 0.952723 0.100556
vn 0.227745 0.971993 0.057984
vn 0.243388 0.967456 0.069218
vn 0.243388 0.967456 0.069218
vn 0.227745 0.971993 0.057984
vn 0.220087 0.974066 0.052499
vn -0.989017 0.000000 0.147802
vn -0.995347 0.000002 0.096358
vn -0.990920 -0.000002 0.134451
vn -0.990920 -0.000002 0.134451
vn -0.995347 0.000002 0.096358
vn -0.995347 0.000002 0.096358
vn -0.978522 -0.000099 0.206144
vn -0.978523 -0.000063 0.206140
vn -0.990920 -0.000002 0.134451
vn -0.978523 -0.000063 0.206140
vn -0.978524 -0.000002 0.206131
vn -0.990920 -0.000002 0.134451
vn -0.978524 -0.000002 0.206131
vn -0.989017 0.000000 0.147802
vn -0.990920 -0.000002 0.134451
s off
f 37/44/1 2/47/2 4/48/3
f 20/30/4 21/31/5 22/32/6
f 5/5/7 6/6/8 7/85/9
f 7/85/10 6/6/11 8/84/12
f 12/9/13 11/10/14 43/95/15
f 11/10/16 7/7/17 43/95/18
f 7/7/19 8/8/20 43/95/21
f 40/100/22 12/101/23 41/99/24
f 41/99/25 12/101/26 42/98/27
f 39/3/28 42/98/29 12/101/30
f 59/138/31 62/141/32 25/11/33
f 25/11/34 62/141/35 3/14/36
f 1/13/37 3/14/38 60/139/39
f 62/141/40 60/139/41 3/14/42
f 10/15/43 13/18/44 5/35/45
f 7/16/46 11/17/47 5/22/48
f 5/22/49 11/17/50 10/19/51
f 8/37/52 6/39/53 43/96/54
f 9/4/55 39/90/56 6/39/57
f 39/90/58 44/97/59 6/39/60
f 44/97/61 43/96/62 6/39/63
f 11/10/64 12/9/65 58/137/66
f 12/9/67 40/91/68 58/137/69
f 40/91/70 27/20/71 58/137/72
f 27/20/73 28/42/74 58/137/75
f 47/108/76 48/109/77 45/105/78
f 20/30/79 22/32/80 23/33/81
f 23/33/82 22/32/83 24/34/84
f 31/60/85 52/122/86 26/62/87
f 52/122/88 54/125/89 26/62/90
f 54/125/91 57/128/92 26/62/93
f 57/128/94 56/127/95 26/62/96
f 32/61/97 26/62/98 51/120/99
f 51/120/100 26/62/101 53/124/102
f 55/126/103 53/124/104 56/127/105
f 56/127/106 53/124/107 26/62/108
f 15/24/109 13/25/110 16/23/111
f 16/23/112 13/25/113 36/26/114
f 5/27/115 13/25/116 18/28/117
f 18/28/118 13/25/119 15/24/120
f 14/113/121 47/114/122 17/116/123
f 17/116/124 47/114/125 50/115/126
f 6/43/127 5/27/128 19/45/129
f 19/45/130 5/27/131 18/28/132
f 16/54/133 21/31/134 15/53/135
f 15/53/136 21/31/137 20/30/138
f 16/54/139 17/55/140 21/31/141
f 21/31/142 17/55/143 22/32/144
f 18/56/145 15/53/146 23/33/147
f 23/33/148 15/53/149 20/30/150
f 17/55/151 50/111/152 22/32/153
f 24/34/154 22/32/155 19/57/156
f 50/111/157 19/57/158 22/32/159
f 19/57/160 18/56/161 24/34/162
f 24/34/163 18/56/164 23/33/165
f 32/63/166 33/70/167 37/86/168
f 27/2/169 26/1/170 2/40/171
f 2/40/172 26/1/173 4/41/174
f 25/65/175 36/66/176 10/15/177
f 10/15/178 36/66/179 13/18/180
f 59/138/181 25/11/182 61/140/183
f 25/11/184 10/19/185 61/140/186
f 61/140/187 10/19/188 58/136/189
f 10/19/190 11/17/191 58/136/192
f 25/65/193 29/67/194 36/66/195
f 38/69/196 29/67/197 3/68/198
f 3/68/199 29/67/200 25/65/201
f 32/73/202 51/121/203 29/72/204
f 29/72/205 51/121/206 36/26/207
f 51/121/208 52/123/209 36/26/210
f 31/50/211 36/26/212 52/123/213
f 29/72/214 30/74/215 32/73/216
f 32/73/217 30/74/218 33/75/219
f 30/76/220 34/77/221 33/79/222
f 33/79/223 34/77/224 35/78/225
f 1/49/226 2/47/227 34/52/228
f 2/47/229 35/51/230 34/52/231
f 1/49/232 34/52/233 30/80/234
f 26/62/235 9/59/236 31/60/237
f 14/58/238 31/60/239 46/106/240
f 31/60/241 9/59/242 46/106/243
f 16/23/244 36/26/245 31/50/246
f 31/50/247 14/29/248 16/23/249
f 16/23/250 14/29/251 17/46/252
f 33/81/253 2/47/254 37/44/255
f 1/49/256 38/82/257 3/83/258
f 29/87/259 38/88/260 30/89/261
f 37/64/262 4/71/263 32/61/264
f 32/61/265 4/71/266 26/62/267
f 33/81/268 35/51/269 2/47/270
f 1/49/271 30/80/272 38/82/273
f 28/42/274 27/20/275 1/38/276
f 1/38/277 27/20/278 2/21/279
f 27/2/280 40/92/281 26/1/282
f 39/90/283 9/4/284 42/94/285
f 26/1/286 40/92/287 9/4/288
f 40/92/289 41/93/290 9/4/291
f 41/93/292 42/94/293 9/4/294
f 43/102/295 44/103/296 12/101/297
f 12/101/298 44/103/299 39/3/300
f 6/36/301 45/105/302 9/59/303
f 45/105/304 48/109/305 9/59/306
f 48/109/307 49/110/308 9/59/309
f 49/110/310 46/106/311 9/59/312
f 48/119/313 47/114/314 49/118/315
f 14/113/316 46/117/317 47/114/318
f 46/117/319 49/118/320 47/114/321
f 47/107/322 45/104/323 50/112/324
f 6/43/325 19/45/326 45/104/327
f 50/112/328 45/104/329 19/45/330
f 52/132/331 51/133/332 54/131/333
f 54/131/334 51/133/335 55/130/336
f 53/129/337 55/130/338 51/133/339
f 56/134/340 57/135/341 55/130/342
f 55/130/343 57/135/344 54/131/345
f 59/12/346 61/142/347 28/144/348
f 28/144/349 61/142/350 58/143/351
f 1/145/352 60/146/353 28/144/354
f 60/146/355 62/147/356 28/144/357
f 62/147/358 59/12/359 28/144/360
v -0.465838 0.333839 0.326272
v -0.440509 0.455673 -0.724933
v 0.436444 0.426895 -0.706079
v 0.411115 0.305054 0.345125
v -0.362374 0.576477 -0.728389
v -0.356849 0.407043 -1.418975
v 0.353032 0.368286 -1.403787
v 0.347509 0.537720 -0.713199
v -0.390406 0.107941 -0.613649
v -0.366517 0.087913 -1.285214
v 0.329091 0.083672 -1.305787
v 0.327504 0.203384 -0.631324
vt 0.901724 0.402732
vt 0.901724 0.302001
vt 0.994810 0.402732
vt 0.994810 0.302001
vt 0.916456 0.412111
vt 0.916456 0.495915
vt 0.922456 0.494521
vt 0.922456 0.410717
vt 0.832653 0.495915
vt 0.832653 0.412111
vt 0.982068 0.476960
vt 0.982068 0.438950
vt 0.973400 0.412111
vt 0.956241 0.476960
vt 0.981403 0.495915
vt 0.985830 0.494521
vt 0.969915 0.410717
vt 0.784015 0.495915
vt 0.792018 0.412111
vt 0.963638 0.438950
vn 0.030095 0.992817 0.115796
vn 0.030095 0.992817 0.115796
vn 0.030095 0.992817 0.115796
vn 0.030095 0.992817 0.115796
vn -0.007771 0.238292 0.971163
vn -0.007771 0.238292 0.971163
vn -0.007771 0.238292 0.971162
vn -0.007771 0.238292 0.971163
vn 0.058021 0.969668 -0.237441
vn 0.058021 0.969668 -0.237441
vn 0.058021 0.969668 -0.237441
vn 0.058021 0.969668 -0.237441
vn -0.998862 0.039280 -0.027034
vn -0.998863 0.039280 -0.027034
vn -0.998863 0.039280 -0.027034
vn -0.998863 0.039280 -0.027034
vn -0.014518 -0.357632 -0.933750
vn -0.014518 -0.357632 -0.933750
vn -0.014518 -0.357632 -0.933750
vn -0.014518 -0.357632 -0.933750
vn 0.997684 -0.065305 0.019030
vn 0.997684 -0.065305 0.019030
vn 0.997684 -0.065305 0.019030
vn 0.997684 -0.065305 0.019030
s off
f 66/151/361 65/150/362 64/148/363 63/149/364
f 67/158/365 71/161/366 74/167/367 70/159/368
f 69/156/369 68/153/370 67/152/371 70/157/372
f 72/162/373 71/160/374 67/152/375 68/153/376
f 73/164/377 72/163/378 68/154/379 69/155/380
f 74/166/381 73/165/382 69/156/383 70/157/384
