# This file uses meters as units for non-parametric coordinates.

v 0.000000 0.715797 -0.498779
v 2.360779 0.715797 -0.498779
v 0.000000 5.186035 -0.498779
v 2.360779 5.186035 -0.498779
v 0.000000 5.186035 -1.034180
v 2.360779 5.186035 -1.034180
v 0.000000 0.715797 -1.034180
v 2.360779 0.715797 -1.034180
v 0.000000 0.334675 -1.532959
v 2.360779 0.334675 -1.532959
v 2.360779 0.334675 0.000000
v 0.000000 0.334675 0.000000
v 0.000000 -0.003430 -1.532959
v 2.360779 -0.003430 -1.532959
v 2.360779 -0.003430 0.000000
v 0.000000 -0.003430 0.000000
v 2.360779 0.658089 -0.552246
v 2.360779 0.658089 -0.980713
v 2.360779 5.107391 -0.980713
v 2.360779 5.107391 -0.552246
v 2.360779 0.333977 -0.153320
v 2.360779 0.333977 -1.379639
v 2.360779 0.003430 -0.153320
v 2.360779 0.003430 -1.379639
v 2.500000 0.658089 -0.552246
v 2.500000 0.658089 -0.980713
v 2.500000 5.107391 -0.980713
v 2.500000 5.107391 -0.552246
v 2.500000 0.333977 -0.153320
v 2.500000 0.333977 -1.379639
v 2.500000 0.003430 -0.153320
v 2.500000 0.003430 -1.379639
v 0.000000 0.658089 -0.980713
v 0.000000 0.658089 -0.552246
v 0.000000 5.107391 -0.552246
v 0.000000 5.107391 -0.980713
v 0.000000 0.333977 -1.379639
v 0.000000 0.333977 -0.153320
v 0.000000 0.003430 -1.379639
v 0.000000 0.003430 -0.153320
vt 0.230001 0.064670
vt 0.323469 0.064670
vt 0.418141 0.064670
vt 0.232778 0.064670
vt 0.323469 0.064670
vt 0.418141 0.064670
vt 0.359243 0.064670
vt 0.232778 0.064670
vt 0.230001 0.064670
vt 0.359243 0.064670
vt 0.232778 0.064670
vt 0.232778 0.064670
vt 0.230001 0.064670
vt 0.230001 0.064670
vt 0.323469 0.064670
vt 0.323469 0.064670
vt 0.232778 0.064670
vt 0.323469 0.064670
vt 0.230001 0.064670
vt 0.323469 0.064670
vt 0.232778 0.064670
vt 0.323469 0.064670
vt 0.359243 0.064670
vt 0.232778 0.064670
vt 0.323469 0.064670
vt 0.418141 0.064670
vt 0.323469 0.064670
vt 0.323469 0.064670
vt 0.230001 0.064670
vt 0.323469 0.064670
vt 0.418141 0.064670
vt 0.359243 0.064670
vt 0.232778 0.064670
vt 0.359243 0.064670
vt 0.232778 0.064670
vt 0.359243 0.064670
vt 0.359243 0.064670
vt 0.323469 0.064670
vt 0.359243 0.064670
vt 0.323469 0.064670
vt 0.230001 0.064670
vt 0.230001 0.064670
vt 0.230001 0.064670
vt 0.323469 0.064670
vt 0.232778 0.064670
vt 0.323469 0.064670
vt 0.230001 0.064670
vt 0.323469 0.064670
vt 0.260651 0.064670
vt 0.356526 0.064689
vt 0.356526 0.064689
vt 0.260651 0.064670
vt 0.292077 0.064670
vt 0.292077 0.064670
vt 0.292047 0.064670
vt 0.292047 0.064670
vt 0.260651 0.064670
vt 0.260651 0.064670
vt 0.260651 0.064670
vt 0.356465 0.064689
vt 0.356465 0.064689
vt 0.260651 0.064670
vt 0.292077 0.064670
vt 0.292077 0.064670
vt 0.292047 0.064670
vt 0.292047 0.064670
vt 0.260651 0.064670
vt 0.260651 0.064670
vt 0.260651 0.064670
vt 0.260651 0.064670
vt 0.260651 0.064670
vt 0.260651 0.064670
vt 0.260651 0.064670
vt 0.260651 0.064670
vt 0.260651 0.064670
vt 0.260651 0.064670
vt 0.232778 0.064670
vt 0.232778 0.064670
vt 0.232778 0.064670
vt 0.232778 0.064670
vt 0.232778 0.064670
vt 0.232778 0.064670
vt 0.230001 0.064670
vt 0.230001 0.064670
vt 0.230001 0.064670
vt 0.230001 0.064670
vt 0.230001 0.064670
vt 0.230001 0.064670
vt 0.202934 0.064256
vt 0.202934 0.064256
vt 0.202934 0.064256
vt 0.202934 0.064256
vt 0.202934 0.064256
vt 0.202934 0.064256
vt 0.202934 0.064256
vt 0.202934 0.064256
vt 0.202934 0.064256
vt 0.202934 0.064256
vt 0.202934 0.064256
vt 0.202934 0.064256
vt 0.202934 0.064256
vt 0.202934 0.064256
vt 0.202934 0.064256
vt 0.202934 0.064256
vn 0.000000 0.000000 1.000000
vn 0.000000 0.000000 1.000000
vn 0.000000 0.000000 1.000000
vn 0.000000 0.000000 1.000000
vn 0.000000 1.000000 0.000000
vn 0.000000 1.000000 0.000000
vn 0.000000 1.000000 0.000000
vn 0.000000 1.000000 0.000000
vn 0.000000 0.000000 -1.000000
vn 0.000000 0.000000 -1.000000
vn 0.000000 0.000000 -1.000000
vn 0.000000 0.000000 -1.000000
vn 0.000000 0.794586 -0.607152
vn 0.000000 0.794586 -0.607152
vn 0.000000 0.794586 -0.607152
vn 0.000000 0.794586 -0.607152
vn 0.000000 0.794586 0.607152
vn 0.000000 0.794586 0.607152
vn 0.000000 0.794586 0.607152
vn 0.000000 0.794586 0.607152
vn 0.000000 0.000000 -1.000000
vn 0.000000 0.000000 -1.000000
vn 0.000000 0.000000 -1.000000
vn 0.000000 0.000000 -1.000000
vn 0.000000 0.000000 1.000000
vn 0.000000 0.000000 1.000000
vn 0.000000 0.000000 1.000000
vn 0.000000 0.000000 1.000000
vn 1.000000 -0.000000 0.000000
vn 1.000000 0.000000 0.000000
vn 1.000000 0.000000 0.000000
vn 1.000000 -0.000000 0.000000
vn 1.000000 0.000000 0.000000
vn 1.000000 0.000000 0.000000
vn 1.000000 0.000000 0.000000
vn 1.000000 0.000000 0.000000
vn 1.000000 0.000000 0.000000
vn 1.000000 -0.000000 0.000000
vn 1.000000 -0.000000 0.000000
vn 1.000000 0.000000 0.000000
vn 1.000000 -0.000000 0.000000
vn 1.000000 -0.000000 0.000000
vn 1.000000 -0.000000 0.000000
vn 1.000000 -0.000000 0.000000
vn 1.000000 -0.000000 0.000000
vn 1.000000 -0.000000 0.000000
vn 1.000000 -0.000000 0.000000
vn 1.000000 -0.000001 0.000000
vn 1.000000 -0.000000 0.000000
vn 1.000000 0.000000 0.000000
vn 1.000000 0.000000 0.000000
vn 1.000000 -0.000000 0.000000
vn 1.000000 0.000000 0.000000
vn 1.000000 -0.000000 0.000000
vn 1.000000 -0.000001 0.000000
vn 1.000000 0.000000 0.000000
vn 0.000000 0.000000 -1.000000
vn 0.000000 0.000000 -1.000000
vn 0.000000 0.000000 -1.000000
vn 0.000000 0.000000 -1.000000
vn 0.000000 1.000000 0.000000
vn 0.000000 1.000000 0.000000
vn 0.000000 1.000000 0.000000
vn 0.000000 1.000000 0.000000
vn 0.000000 0.000000 1.000000
vn 0.000000 0.000000 1.000000
vn 0.000000 0.000000 1.000000
vn 0.000000 0.000000 1.000000
vn 0.000000 0.776128 0.630575
vn 0.000000 0.776128 0.630575
vn 0.000000 0.776128 0.630575
vn 0.000000 0.776128 0.630575
vn 0.000000 0.776128 -0.630575
vn 0.000000 0.776128 -0.630575
vn 0.000000 0.776128 -0.630575
vn 0.000000 0.776128 -0.630575
vn 0.000000 0.000000 1.000000
vn 0.000000 0.000000 1.000000
vn 0.000000 0.000000 1.000000
vn 0.000000 0.000000 1.000000
vn 0.000000 0.000000 -1.000000
vn 0.000000 0.000000 -1.000000
vn 0.000000 0.000000 -1.000000
vn 0.000000 0.000000 -1.000000
vn -1.000000 0.000000 0.000000
vn -1.000000 0.000000 0.000000
vn -1.000000 0.000000 0.000000
vn -1.000000 0.000000 0.000000
vn -1.000000 0.000000 0.000000
vn -1.000000 0.000000 0.000000
vn -1.000000 0.000000 0.000000
vn -1.000000 0.000000 0.000000
vn -1.000000 0.000000 0.000000
vn -1.000000 0.000000 0.000000
vn -1.000000 0.000000 0.000000
vn -1.000000 0.000000 0.000000
vn -1.000000 0.000000 0.000000
vn -1.000000 0.000000 0.000000
vn -1.000000 0.000000 0.000000
vn -1.000000 0.000000 0.000000
vn -1.000000 0.000000 0.000000
vn -1.000000 0.000000 0.000000
vn -1.000000 0.000000 0.000000
vn -1.000000 0.000000 0.000000
vn -1.000000 0.000000 0.000000
vn -1.000000 0.000000 0.000000
vn -1.000000 0.000000 0.000000
vn -1.000000 0.000000 0.000000
vn -1.000000 0.000000 0.000000
vn -1.000000 0.000000 0.000000
vn -1.000000 0.000000 0.000000
vn -1.000000 0.000000 0.000000
vn 1.000000 0.000000 0.000000
vn 1.000000 0.000000 0.000000
vn 1.000000 0.000000 0.000000
vn 1.000000 0.000000 0.000000
vn 1.000000 0.000000 0.000000
vn 1.000000 0.000000 0.000000
vn 1.000000 0.000000 0.000000
vn 1.000000 0.000000 0.000000
vn 1.000000 0.000000 0.000000
vn 1.000000 0.000000 0.000000
vn 1.000000 0.000000 0.000000
vn 1.000000 0.000000 0.000000
vn -1.000000 0.000000 0.000000
vn -1.000000 0.000000 0.000000
vn -1.000000 0.000000 0.000000
vn -1.000000 0.000000 0.000000
vn -1.000000 0.000000 0.000000
vn -1.000000 0.000000 0.000000
vn -1.000000 0.000000 0.000000
vn -1.000000 0.000000 0.000000
vn -1.000000 0.000000 0.000000
vn -1.000000 0.000000 0.000000
vn -1.000000 0.000000 0.000000
vn -1.000000 0.000000 0.000000
s off
f 1/2/1 2/5/2 4/15/3 3/16/4
f 3/3/5 4/6/6 6/26/7 5/31/8
f 5/18/9 6/20/10 8/22/11 7/25/12
f 7/7/13 8/10/14 10/23/15 9/32/16
f 2/34/17 1/36/18 12/37/19 11/39/20
f 9/27/21 10/28/22 14/30/23 13/38/24
f 11/40/25 12/44/26 16/46/27 15/48/28
f 8/4/29 6/8/30 19/11/31 18/12/32
f 6/8/33 4/17/34 20/21/35 19/11/36
f 4/17/37 2/24/38 17/33/39 20/21/40
f 2/24/41 11/35/42 21/45/43 17/33/44
f 10/77/45 8/4/46 18/12/47 22/78/48
f 11/35/49 15/79/50 23/80/51 21/45/52
f 14/81/53 10/77/54 22/78/55 24/82/56
f 18/49/57 19/52/58 27/57/59 26/58/60
f 19/50/61 20/51/62 28/60/63 27/61/64
f 20/59/65 17/62/66 25/67/67 28/68/68
f 17/53/69 21/54/70 29/55/71 25/56/72
f 22/63/73 18/64/74 26/65/75 30/66/76
f 21/69/77 23/70/78 31/71/79 29/72/80
f 24/73/81 22/74/82 30/75/83 32/76/84
f 1/1/85 3/9/86 35/13/87 34/14/88
f 3/9/89 5/19/90 36/29/91 35/13/92
f 5/19/93 7/41/94 33/42/95 36/29/96
f 7/41/97 9/43/98 37/47/99 33/42/100
f 12/83/101 1/1/102 34/14/103 38/84/104
f 9/43/105 13/85/106 39/86/107 37/47/108
f 16/87/109 12/83/110 38/84/111 40/88/112
f 26/89/113 27/90/114 28/91/115 25/92/116
f 30/93/117 26/89/118 25/92/119 29/94/120
f 29/94/121 31/95/122 32/96/123 30/93/124
f 36/97/125 33/98/126 34/99/127 35/100/128
f 38/101/129 34/99/130 33/98/131 37/102/132
f 37/102/133 39/103/134 40/104/135 38/101/136
