# This file uses meters as units for non-parametric coordinates.

v -0.934068 0.000000 0.655944
v 0.934068 0.000000 0.655944
v -0.934068 3.956303 0.655944
v 0.934068 3.956303 0.655944
v -0.934068 3.956303 -0.655944
v 0.934068 3.956303 -0.655944
v -0.934068 0.000003 -0.655944
v 0.934068 0.000003 -0.655944
v -0.751913 0.183545 0.655944
v 0.751914 0.183545 0.655944
v 0.751914 3.772758 0.655944
v -0.751913 3.772758 0.655944
v -0.407709 0.322590 0.655944
v 0.407710 0.322590 0.655944
v 0.407710 0.765720 0.655944
v -0.407709 0.765720 0.655944
v 0.751914 3.168058 0.655944
v 0.294729 3.168058 0.655944
v 0.751914 1.416193 0.655944
v 0.294729 1.416193 0.655944
v 0.294729 2.292126 0.655944
v 0.751914 2.292126 0.655944
v 0.294729 2.730092 0.655944
v 0.751914 2.730092 0.655944
v 0.294729 1.854159 0.655944
v 0.751914 1.854159 0.655944
v 0.294729 2.511109 0.655944
v 0.751914 2.511109 0.655944
v 0.294729 2.949075 0.655944
v 0.751914 2.949075 0.655944
v 0.663737 1.500665 0.655944
v 0.382905 1.500665 0.655944
v 0.663737 1.769688 0.655944
v 0.382905 1.769688 0.655944
v 0.294729 2.773888 0.655944
v 0.751914 2.773888 0.655944
v 0.294729 2.554905 0.655944
v 0.751914 2.554905 0.655944
v 0.294729 2.335922 0.655944
v 0.751914 2.335922 0.655944
v 0.294729 2.116938 0.655944
v 0.751914 2.116938 0.655944
v 0.660477 2.949075 0.655944
v 0.660477 2.773888 0.655944
v 0.660477 2.730092 0.655944
v 0.660477 2.554905 0.655944
v 0.660477 2.511109 0.655944
v 0.660477 2.335922 0.655944
v 0.660477 2.292126 0.655944
v 0.660477 2.116938 0.655944
v -0.934068 3.956303 0.131746
v 0.934068 3.956303 0.131746
v 0.934068 3.956303 -0.131746
v -0.934068 3.956303 -0.131746
v 0.934068 0.000003 -0.131746
v 0.934068 0.000000 0.131746
v -0.934068 0.000003 -0.131746
v -0.934068 0.000000 0.131746
v -0.373627 3.956303 -0.131746
v 0.373627 3.956303 -0.131746
v -0.373627 3.956303 0.131746
v 0.373627 3.956303 0.131746
vt 0.201586 0.352168
vt 0.163264 0.068916
vt 0.261561 0.352168
vt 0.201586 0.352168
vt 0.175250 0.059962
vt 0.261561 0.352168
vt 0.174755 0.352168
vt 0.175250 0.059962
vt 0.174755 0.352168
vt 0.174755 0.352168
vt 0.201586 0.352168
vt 0.201586 0.352168
vt 0.201586 0.352168
vt 0.201586 0.352168
vt 0.261561 0.352168
vt 0.175250 0.059962
vt 0.163264 0.068916
vt 0.261561 0.352168
vt 0.201586 0.352168
vt 0.163264 0.068916
vt 0.163264 0.068916
vt 0.201586 0.352168
vt 0.174755 0.352168
vt 0.175250 0.059962
vt 0.229995 0.352168
vt 0.229995 0.352168
vt 0.229995 0.352168
vt 0.229995 0.352168
vt 0.229995 0.352168
vt 0.229995 0.352168
vt 0.229995 0.352168
vt 0.229995 0.352168
vt 0.229995 0.352168
vt 0.229995 0.352168
vt 0.229995 0.352168
vt 0.229995 0.352168
vt 0.163264 0.068915
vt 0.163264 0.068915
vt 0.163264 0.068915
vt 0.163264 0.068916
vt 0.163264 0.068915
vt 0.163264 0.068915
vt 0.108913 0.483893
vt 0.108913 0.483893
vt 0.108913 0.483892
vt 0.108913 0.483892
vt 0.147964 0.472735
vt 0.147964 0.472735
vt 0.147964 0.472735
vt 0.147964 0.472735
vt 0.135691 0.469388
vt 0.229995 0.352168
vt 0.135691 0.469388
vt 0.163264 0.068916
vt 0.135691 0.469388
vt 0.229995 0.352168
vt 0.135691 0.469388
vt 0.163264 0.068915
vt 0.147964 0.472735
vt 0.229995 0.352168
vt 0.147964 0.472735
vt 0.163264 0.068916
vt 0.135691 0.469388
vt 0.229995 0.352168
vt 0.135691 0.469388
vt 0.163264 0.068916
vt 0.147964 0.472735
vt 0.229995 0.352168
vt 0.147964 0.472735
vt 0.163264 0.068915
vt 0.147964 0.472735
vt 0.147964 0.472735
vt 0.147964 0.472735
vt 0.147964 0.472735
vt 0.264002 0.265206
vt 0.264002 0.265206
vt 0.264002 0.265206
vt 0.264002 0.265206
vt 0.135691 0.469388
vt 0.135691 0.469388
vt 0.394544 0.064372
vt 0.237224 0.291984
vt 0.394544 0.064372
vt 0.163585 0.127969
vt 0.394544 0.064372
vt 0.169163 0.218345
vt 0.394544 0.064372
vt 0.113376 0.242891
vt 0.237224 0.291984
vt 0.229995 0.352168
vt 0.394544 0.064372
vt 0.163264 0.068915
vt 0.163585 0.127969
vt 0.229995 0.352168
vt 0.394544 0.064372
vt 0.163264 0.068916
vt 0.169163 0.218345
vt 0.229995 0.352168
vt 0.394544 0.064372
vt 0.163264 0.068916
vt 0.113376 0.242891
vt 0.229995 0.352168
vt 0.394544 0.064372
vt 0.163264 0.068916
vt 0.147964 0.472735
vt 0.237224 0.291984
vt 0.237224 0.291984
vt 0.135691 0.469388
vt 0.163585 0.127969
vt 0.163585 0.127969
vt 0.135691 0.469388
vt 0.169163 0.218345
vt 0.169163 0.218345
vt 0.135691 0.469388
vt 0.113376 0.242891
vt 0.113376 0.242891
vt 0.135691 0.469388
vt 0.135691 0.469388
vt 0.135691 0.469388
vt 0.135691 0.469388
vt 0.135691 0.469388
vt 0.135691 0.469388
vt 0.135691 0.469388
vt 0.135691 0.469388
vt 0.135691 0.469388
vt 0.135691 0.469388
vt 0.394544 0.064372
vt 0.394544 0.064372
vt 0.394544 0.064372
vt 0.394544 0.064372
vt 0.394544 0.064372
vt 0.394544 0.064372
vt 0.394544 0.064372
vt 0.394544 0.064372
vt 0.421113 0.060443
vt 0.421113 0.060443
vt 0.261561 0.352168
vt 0.261561 0.352168
vt 0.361138 0.060443
vt 0.201586 0.352168
vt 0.201586 0.352168
vt 0.361138 0.060443
vt 0.361138 0.060443
vt 0.201586 0.352168
vt 0.361138 0.060443
vt 0.201586 0.352168
vt 0.421113 0.060443
vt 0.261561 0.352168
vt 0.261561 0.352168
vt 0.421113 0.060443
vt 0.421113 0.060443
vt 0.261561 0.352168
vt 0.261561 0.352168
vt 0.421113 0.060443
vt 0.201586 0.352168
vt 0.261561 0.352168
vt 0.361138 0.060443
vt 0.421113 0.060443
vt 0.421113 0.060443
vt 0.361138 0.060443
vt 0.201586 0.352168
vt 0.361138 0.060443
vt 0.261561 0.352168
vt 0.201586 0.352168
vt 0.201586 0.352168
vt 0.361138 0.060443
vn 0.000000 0.000000 1.000000
vn 0.000000 0.000000 1.000000
vn 0.000000 0.000000 1.000000
vn 0.000000 0.000000 1.000000
vn 0.000000 1.000000 -0.000000
vn 0.000000 1.000000 0.000000
vn 0.000000 1.000000 0.000000
vn 0.000000 1.000000 -0.000000
vn 0.000000 0.000000 -1.000000
vn 0.000000 0.000000 -1.000000
vn 0.000000 0.000000 -1.000000
vn 0.000000 0.000000 -1.000000
vn 0.000000 -1.000000 -0.000002
vn 0.000000 -1.000000 -0.000002
vn 0.000000 -1.000000 -0.000002
vn 0.000000 -1.000000 -0.000002
vn 1.000000 0.000000 0.000000
vn 1.000000 0.000000 0.000000
vn 1.000000 0.000000 0.000000
vn 1.000000 0.000000 0.000000
vn -1.000000 0.000000 0.000000
vn -1.000000 0.000000 0.000000
vn -1.000000 0.000000 0.000000
vn -1.000000 0.000000 0.000000
vn -0.000000 0.000000 1.000000
vn 0.000000 0.000000 1.000000
vn 0.000000 0.000000 1.000000
vn -0.000000 0.000000 1.000000
vn 0.000000 0.000000 1.000000
vn 0.000000 0.000000 1.000000
vn 0.000000 0.000000 1.000000
vn 0.000000 0.000000 1.000000
vn 0.000000 0.000000 1.000000
vn 0.000000 0.000000 1.000000
vn 0.000000 0.000000 1.000000
vn 0.000000 0.000000 1.000000
vn 0.000000 0.000000 1.000000
vn 0.000000 0.000000 1.000000
vn 0.000000 0.000000 1.000000
vn 0.000000 0.000000 1.000000
vn 0.000000 0.000000 1.000000
vn 0.000000 0.000000 1.000000
vn 0.000000 0.000000 1.000000
vn 0.000000 0.000000 1.000000
vn -0.000000 0.000000 1.000000
vn -0.000000 0.000000 1.000000
vn 0.000000 0.000000 1.000000
vn -0.000000 0.000000 1.000000
vn -0.000000 0.000000 1.000000
vn -0.000000 0.000000 1.000000
vn -0.000000 0.000000 1.000000
vn -0.000000 0.000000 1.000000
vn 0.000000 0.000000 1.000000
vn 0.000000 0.000000 1.000000
vn 0.000000 0.000000 1.000000
vn 0.000000 0.000000 1.000000
vn 0.000000 0.000000 1.000000
vn 0.000000 0.000000 1.000000
vn 0.000000 0.000000 1.000000
vn 0.000000 0.000000 1.000000
vn 0.000000 0.000000 1.000000
vn -0.000000 0.000000 1.000000
vn 0.000000 0.000000 1.000000
vn 0.000000 0.000000 1.000000
vn 0.000000 0.000000 1.000000
vn 0.000000 0.000000 1.000000
vn 0.000000 0.000000 1.000000
vn 0.000000 0.000000 1.000000
vn 0.000000 0.000000 1.000000
vn 0.000000 0.000000 1.000000
vn 0.000000 0.000000 1.000000
vn 0.000000 0.000000 1.000000
vn 0.000000 0.000000 1.000000
vn 0.000000 0.000000 1.000000
vn 0.000000 0.000000 1.000000
vn -0.000000 0.000000 1.000000
vn -0.000000 0.000000 1.000000
vn 0.000000 0.000000 1.000000
vn 0.000000 0.000000 1.000000
vn 0.000000 0.000000 1.000000
vn 0.000000 0.000000 1.000000
vn 0.000000 0.000000 1.000000
vn 0.000000 0.000000 1.000000
vn 0.000000 0.000000 1.000000
vn 0.000000 0.000000 1.000000
vn 0.000000 0.000000 1.000000
vn 0.000000 0.000000 1.000000
vn 0.000000 0.000000 1.000000
vn 0.000000 0.000000 1.000000
vn 0.000000 0.000000 1.000000
vn 0.000000 0.000000 1.000000
vn 0.000000 0.000000 1.000000
vn 0.000000 0.000000 1.000000
vn 0.000000 0.000000 1.000000
vn 0.000000 0.000000 1.000000
vn -0.000000 0.000000 1.000000
vn -0.000000 0.000000 1.000000
vn -0.000000 0.000000 1.000000
vn -0.000000 0.000000 1.000000
vn 0.000000 0.000000 1.000000
vn 0.000000 0.000000 1.000000
vn 0.000000 0.000000 1.000000
vn 0.000000 0.000000 1.000000
vn 0.000000 0.000000 1.000000
vn 0.000000 0.000000 1.000000
vn 0.000000 0.000000 1.000000
vn 0.000000 0.000000 1.000000
vn 0.000000 0.000000 1.000000
vn 0.000000 0.000000 1.000000
vn -0.000000 0.000000 1.000000
vn -0.000000 0.000000 1.000000
vn 0.000000 0.000000 1.000000
vn 0.000000 0.000000 1.000000
vn -0.000000 0.000000 1.000000
vn -0.000000 0.000000 1.000000
vn 0.000000 0.000000 1.000000
vn 0.000000 0.000000 1.000000
vn -0.000000 0.000000 1.000000
vn -0.000000 0.000000 1.000000
vn 0.000000 0.000000 1.000000
vn 0.000000 0.000000 1.000000
vn -0.000000 0.000000 1.000000
vn -0.000000 0.000000 1.000000
vn 0.000000 0.000000 1.000000
vn 0.000000 0.000000 1.000000
vn 0.000000 0.000000 1.000000
vn 0.000000 0.000000 1.000000
vn 0.000000 0.000000 1.000000
vn 0.000000 0.000000 1.000000
vn 0.000000 0.000000 1.000000
vn 0.000000 0.000000 1.000000
vn 0.000000 0.000000 1.000000
vn 0.000000 0.000000 1.000000
vn 0.000000 0.000000 1.000000
vn 0.000000 0.000000 1.000000
vn 0.000000 0.000000 1.000000
vn 0.000000 0.000000 1.000000
vn 0.000000 0.000000 1.000000
vn 0.000000 0.000000 1.000000
vn 0.000000 0.000000 1.000000
vn 0.000000 0.000000 1.000000
vn 0.000000 0.000000 1.000000
vn 0.000000 0.000000 1.000000
vn 0.000000 0.000000 1.000000
vn 0.000000 0.000000 1.000000
vn 0.000000 0.000000 1.000000
vn 0.000000 0.000000 1.000000
vn 0.000000 0.000000 1.000000
vn 0.000000 0.000000 1.000000
vn 0.000000 0.000000 1.000000
vn 0.000000 0.000000 1.000000
vn 0.000000 0.000000 1.000000
vn 0.000000 0.000000 1.000000
vn 0.000000 0.000000 1.000000
vn 0.000000 0.000000 1.000000
vn 0.000000 0.000000 1.000000
vn 0.000000 0.000000 1.000000
vn 0.000000 0.000000 1.000000
vn 0.000000 0.000000 1.000000
vn 0.000000 0.000000 1.000000
vn 0.000000 0.000000 1.000000
vn 0.000000 0.000000 1.000000
vn 0.000000 0.000000 1.000000
vn 0.000000 0.000000 1.000000
vn 0.000000 0.000000 1.000000
vn 0.000000 0.000000 1.000000
vn 0.000000 0.000000 1.000000
vn 0.000000 0.000000 1.000000
vn 0.000000 1.000000 0.000000
vn 0.000000 1.000000 0.000000
vn 0.000000 1.000000 0.000000
vn 0.000000 1.000000 0.000000
vn 0.000000 1.000000 0.000000
vn 0.000000 1.000000 0.000000
vn 0.000000 1.000000 -0.000000
vn 0.000000 1.000000 -0.000000
vn 0.000000 1.000000 -0.000000
vn 0.000000 1.000000 -0.000000
vn 0.000000 1.000000 -0.000000
vn 0.000000 1.000000 -0.000000
vn 0.000000 0.000000 0.000000
vn 0.000000 0.000000 0.000000
vn 0.000000 0.000000 0.000000
vn 0.000000 0.000000 0.000000
vn 1.000000 0.000000 0.000000
vn 1.000000 0.000000 0.000000
vn 1.000000 0.000000 0.000000
vn 1.000000 0.000000 0.000000
vn 1.000000 0.000000 0.000000
vn 1.000000 0.000000 0.000000
vn 1.000000 0.000000 0.000000
vn 1.000000 0.000000 0.000000
vn 0.000000 -1.000000 -0.000002
vn 0.000000 -1.000000 -0.000002
vn 0.000000 -1.000000 0.000000
vn 0.000000 -1.000000 0.000000
vn -1.000000 0.000000 0.000000
vn -1.000000 0.000000 0.000000
vn -1.000000 0.000000 0.000000
vn -1.000000 0.000000 0.000000
vn -1.000000 0.000000 0.000000
vn -1.000000 0.000000 0.000000
vn -1.000000 0.000000 0.000000
vn -1.000000 0.000000 0.000000
vn 0.000000 1.000000 0.000000
vn 0.000000 1.000000 0.000000
vn 0.000000 1.000000 -0.000000
vn 0.000000 1.000000 -0.000000
vn 0.000000 1.000000 -0.000000
vn 0.000000 1.000000 0.000000
vn 0.000000 1.000000 0.000000
vn 0.000000 1.000000 -0.000000
s off
f 13/43/1 14/44/2 15/45/3 16/46/4
f 60/151/5 62/150/6 52/136/7 53/158/8
f 5/5/9 6/16/10 8/8/11 7/24/12
f 7/7/13 8/23/14 2/10/15 1/9/16
f 56/139/17 55/166/18 53/157/19 52/142/20
f 57/143/21 58/162/22 51/145/23 54/160/24
f 1/2/25 2/17/26 10/20/27 9/21/28
f 2/17/29 4/37/30 11/38/31 17/39/32 30/70/33 36/92/34 24/58/35 38/96/36 28/66/37 40/100/38 22/54/39 42/104/40 26/62/41 19/40/42 10/20/43
f 4/37/44 3/41/45 12/42/46 11/38/47
f 3/41/48 1/2/49 9/21/50 12/42/51
f 9/25/52 10/26/53 14/30/54 13/29/55
f 10/26/56 19/35/57 20/36/58 15/31/59 14/30/60
f 11/27/61 12/28/62 16/32/63 15/31/64 20/36/65 25/60/66 41/102/67 21/52/68 39/98/69 27/64/70 37/94/71 23/56/72 35/90/73 29/68/74 18/34/75
f 12/28/76 9/25/77 13/29/78 16/32/79
f 18/34/80 17/33/81 11/27/82
f 29/67/83 43/105/84 30/69/85 17/49/86 18/50/87
f 49/81/88 50/83/89 42/85/90 22/87/91
f 45/91/92 46/95/93 38/99/94 24/103/95
f 32/75/96 31/76/97 33/77/98 34/78/99
f 47/127/100 48/128/101 40/129/102 28/130/103
f 43/131/104 44/132/105 36/133/106 30/134/107
f 20/47/108 19/48/109 31/72/110 32/71/111
f 19/48/112 26/61/113 33/73/114 31/72/115
f 26/61/116 25/59/117 34/74/118 33/73/119
f 25/59/120 20/47/121 32/71/122 34/74/123
f 44/51/124 45/53/125 24/55/126 36/57/127
f 46/63/128 47/65/129 28/79/130 38/80/131
f 48/108/132 49/111/133 22/114/134 40/117/135
f 26/61/136 42/119/137 50/118/138 41/126/139 25/59/140
f 35/89/141 44/107/142 43/106/143 29/82/144
f 23/120/145 45/53/146 44/51/147 35/121/148
f 37/93/149 46/110/150 45/109/151 23/84/152
f 27/122/153 47/65/154 46/63/155 37/123/156
f 39/97/157 48/113/158 47/112/159 27/86/160
f 21/124/161 49/111/162 48/108/163 39/125/164
f 41/101/165 50/116/166 49/115/167 21/88/168
f 3/3/169 4/15/170 52/156/171 62/152/172 61/149/173 51/163/174
f 6/6/175 5/18/176 54/138/177 59/153/178 60/148/179 53/137/180
f 2/19/181 8/11/182 55/140/183 56/165/184
f 8/11/185 6/12/186 53/141/187 55/140/188
f 4/4/189 2/19/190 56/165/191 52/155/192
f 7/13/193 1/1/194 58/144/195 57/161/196
f 1/1/197 3/22/198 51/164/199 58/144/200
f 5/14/201 7/13/202 57/161/203 54/146/204
f 51/135/205 61/154/206 59/147/207 54/159/208
f 59/153/209 61/149/210 62/152/211 60/148/212
