# This file uses meters as units for non-parametric coordinates.

v 0.568233 1.160775 0.683788
v 0.674275 1.160775 0.683788
v 0.568233 1.358104 0.683788
v 0.674275 1.358104 0.683788
v 0.568232 1.358104 0.649626
v 0.674275 1.358104 0.649626
v 0.568232 1.160775 0.649626
v 0.674275 1.160775 0.649626
v -0.672799 1.160775 0.683788
v -0.566755 1.160775 0.683788
v -0.672799 1.358104 0.683788
v -0.566755 1.358104 0.683788
v -0.672799 1.358104 0.649626
v -0.566755 1.358104 0.649626
v -0.672799 1.160775 0.649626
v -0.566755 1.160775 0.649626
v -1.296238 0.000000 0.649685
v 1.296238 0.000000 0.649685
v -1.296238 1.285595 0.649685
v 1.296238 1.285595 0.649685
v -1.296238 1.285595 -0.635946
v 1.296238 1.285595 -0.635946
v -1.296238 0.000000 -0.635946
v 1.296238 0.000000 -0.635946
v -1.296238 0.479556 0.649685
v 1.296238 0.479556 0.649685
v 1.296238 0.479556 -0.635946
v -1.296238 0.479556 -0.635946
v -1.296238 0.298982 0.649685
v 1.296238 0.298982 0.649685
v 1.296238 0.298982 -0.635946
v -1.296238 0.298982 -0.635946
v -0.279555 0.619868 0.649685
v 0.382511 0.619868 0.649685
v 0.382511 1.103401 0.649685
v -0.279555 1.103401 0.649685
v 0.382511 0.925378 0.649685
v -0.279555 0.925378 0.649685
v -0.279555 0.803910 0.649685
v 0.382511 0.803910 0.649685
v 0.382511 0.739398 0.649685
v -0.279555 0.739398 0.649685
v 0.382511 0.982555 0.649685
v -0.279555 0.982555 0.649685
v -0.427553 1.042978 0.649685
v -0.427553 0.864644 0.649685
v -0.427553 0.679633 0.649685
v -0.850583 1.155626 -0.634351
v 0.853051 1.155626 -0.634351
v -0.850583 1.352955 -0.634351
v 0.853051 1.352955 -0.634351
v -0.850583 1.352955 -0.683788
v 0.853051 1.352955 -0.683788
v -0.850583 1.155626 -0.683788
v 0.853051 1.155626 -0.683788
v -1.296238 1.456208 0.649685
v 1.296238 1.456208 0.649685
v -1.296238 1.456208 -0.635946
v 1.296238 1.456208 -0.635946
v -0.536854 1.456208 0.649688
v -0.536853 1.456208 -0.635944
v -0.700106 1.456208 0.649683
v -0.700107 1.456208 -0.635948
v 0.531440 1.456208 0.649685
v 0.531440 1.456208 -0.635946
v 0.707087 1.456208 0.649685
v 0.707087 1.456208 -0.635946
v -0.700106 1.541781 0.649683
v -0.700107 1.541781 -0.635948
v -0.536854 1.541781 0.649688
v -0.536853 1.541781 -0.635944
v 0.531440 1.541781 0.649685
v 0.531440 1.541781 -0.635946
v 0.707087 1.541781 0.649685
v 0.707087 1.541781 -0.635946
v -0.268270 1.456208 0.237137
v -0.268270 1.456208 -0.223396
v 0.384297 1.456208 0.237137
v 0.384297 1.456208 -0.223396
v -0.268270 1.456208 -0.046936
v 0.384297 1.456208 -0.046936
v -0.268270 1.456208 -0.108263
v 0.384297 1.456208 -0.108263
v 0.384297 1.456208 0.122004
v -0.268270 1.456208 0.122004
v -0.268270 1.456208 0.069284
v 0.384297 1.456208 0.069284
v -0.422067 1.456208 -0.165829
v -0.422067 1.456208 0.011175
v -0.422067 1.456208 0.179571
vt 0.330449 0.061306
vt 0.330449 0.061306
vt 0.330449 0.061306
vt 0.330449 0.061306
vt 0.362416 0.061306
vt 0.362416 0.061306
vt 0.362416 0.061306
vt 0.362416 0.061306
vt 0.362416 0.061306
vt 0.362416 0.061306
vt 0.362416 0.061306
vt 0.362416 0.061306
vt 0.293297 0.061306
vt 0.293297 0.061306
vt 0.293297 0.061306
vt 0.293297 0.061306
vt 0.297061 0.061306
vt 0.297061 0.061306
vt 0.297061 0.061306
vt 0.297061 0.061306
vt 0.330449 0.061306
vt 0.330449 0.061306
vt 0.330449 0.061306
vt 0.330449 0.061306
vt 0.362416 0.061306
vt 0.362416 0.061306
vt 0.362416 0.061306
vt 0.362416 0.061306
vt 0.362416 0.061306
vt 0.362416 0.061306
vt 0.362416 0.061306
vt 0.362416 0.061306
vt 0.293297 0.061306
vt 0.293297 0.061306
vt 0.293297 0.061306
vt 0.293297 0.061306
vt 0.297061 0.061306
vt 0.297061 0.061306
vt 0.297061 0.061306
vt 0.297061 0.061306
vt 0.227640 0.221883
vt 0.227640 0.221883
vt 0.227640 0.221883
vt 0.227640 0.221883
vt 0.227640 0.221883
vt 0.138539 0.288464
vt 0.138539 0.288464
vt 0.138539 0.288464
vt 0.138539 0.288464
vt 0.170506 0.288464
vt 0.170506 0.288464
vt 0.170506 0.288464
vt 0.170506 0.288464
vt 0.101387 0.288464
vt 0.101387 0.288464
vt 0.101387 0.288464
vt 0.101387 0.288464
vt 0.105152 0.288464
vt 0.105152 0.288464
vt 0.105152 0.288464
vt 0.105152 0.288464
vt 0.363739 0.060326
vt 0.363739 0.060326
vt 0.363739 0.060327
vt 0.363739 0.060327
vt 0.326588 0.060326
vt 0.326588 0.060326
vt 0.326588 0.060327
vt 0.326588 0.060327
vt 0.363739 0.060327
vt 0.363739 0.060327
vt 0.363739 0.060326
vt 0.363739 0.060326
vt 0.330352 0.060326
vt 0.330352 0.060326
vt 0.330352 0.060327
vt 0.330352 0.060327
vt 0.138539 0.288464
vt 0.138539 0.288464
vt 0.138539 0.288464
vt 0.138539 0.288464
vt 0.101387 0.288464
vt 0.101387 0.288464
vt 0.101387 0.288464
vt 0.101387 0.288464
vt 0.138539 0.288464
vt 0.138539 0.288464
vt 0.138539 0.288464
vt 0.138539 0.288464
vt 0.105152 0.288464
vt 0.105152 0.288464
vt 0.105152 0.288464
vt 0.105152 0.288464
vt 0.138539 0.288464
vt 0.138539 0.288464
vt 0.138539 0.288464
vt 0.138539 0.288464
vt 0.138539 0.288464
vt 0.138539 0.288464
vt 0.138539 0.288464
vt 0.138539 0.288464
vt 0.138539 0.288464
vt 0.138539 0.288464
vt 0.138539 0.288464
vt 0.138539 0.288464
vt 0.138539 0.288464
vt 0.138539 0.288464
vt 0.138539 0.288464
vt 0.138539 0.288464
vt 0.138539 0.288464
vt 0.138539 0.288464
vt 0.138539 0.288464
vt 0.227640 0.221883
vt 0.227640 0.221883
vt 0.227640 0.221883
vt 0.227640 0.221883
vt 0.227640 0.221883
vt 0.227640 0.221883
vt 0.227640 0.221883
vt 0.227640 0.221883
vt 0.227640 0.221883
vt 0.227640 0.221883
vt 0.362416 0.061306
vt 0.362416 0.061306
vt 0.362416 0.061306
vt 0.362416 0.061306
vt 0.330449 0.061306
vt 0.330449 0.061306
vt 0.330449 0.061306
vt 0.330449 0.061306
vt 0.362416 0.061306
vt 0.362416 0.061306
vt 0.362416 0.061306
vt 0.362416 0.061306
vt 0.293297 0.061306
vt 0.293297 0.061306
vt 0.293297 0.061306
vt 0.293297 0.061306
vt 0.297061 0.061306
vt 0.297061 0.061306
vt 0.297061 0.061306
vt 0.297061 0.061306
vt 0.174767 0.288464
vt 0.174767 0.288464
vt 0.174767 0.288464
vt 0.174767 0.288464
vt 0.174767 0.288464
vt 0.174767 0.288464
vt 0.174767 0.288464
vt 0.174767 0.288464
vt 0.206734 0.288464
vt 0.206734 0.288464
vt 0.206734 0.288464
vt 0.206734 0.288464
vt 0.174767 0.288464
vt 0.174767 0.288464
vt 0.174767 0.288464
vt 0.174767 0.288464
vt 0.174767 0.288464
vt 0.174767 0.288464
vt 0.174767 0.288464
vt 0.174767 0.288464
vt 0.137615 0.288464
vt 0.137615 0.288464
vt 0.137615 0.288464
vt 0.137615 0.288464
vt 0.141380 0.288464
vt 0.141380 0.288464
vt 0.141380 0.288464
vt 0.141380 0.288464
vt 0.270605 0.222124
vt 0.270605 0.222124
vt 0.270605 0.222124
vt 0.270605 0.222124
vt 0.270605 0.222124
vt 0.234150 0.288464
vt 0.234150 0.288464
vt 0.234150 0.288464
vt 0.234150 0.288464
vt 0.234150 0.288464
vt 0.234150 0.288464
vt 0.234150 0.288464
vt 0.234150 0.288464
vt 0.206734 0.288464
vt 0.206734 0.288464
vt 0.206734 0.288464
vt 0.206734 0.288464
vt 0.137216 0.288464
vt 0.137216 0.288464
vt 0.137216 0.288464
vt 0.137216 0.288464
vt 0.173444 0.288464
vt 0.173444 0.288464
vt 0.173444 0.288464
vt 0.173444 0.288464
vt 0.137216 0.288464
vt 0.137216 0.288464
vt 0.137216 0.288464
vt 0.137216 0.288464
vt 0.173444 0.288464
vt 0.173444 0.288464
vt 0.173444 0.288464
vt 0.173444 0.288464
vt 0.137216 0.288464
vt 0.137216 0.288464
vt 0.137216 0.288464
vt 0.137216 0.288464
vt 0.173444 0.288464
vt 0.173444 0.288464
vt 0.173444 0.288464
vt 0.173444 0.288464
vt 0.137216 0.288464
vt 0.137216 0.288464
vt 0.137216 0.288464
vt 0.137216 0.288464
vt 0.173444 0.288464
vt 0.173444 0.288464
vt 0.173444 0.288464
vt 0.173444 0.288464
vt 0.206734 0.288464
vt 0.206734 0.288464
vt 0.206734 0.288464
vt 0.206734 0.288464
vt 0.206734 0.288464
vt 0.206734 0.288464
vt 0.206734 0.288464
vt 0.206734 0.288464
vt 0.206734 0.288464
vt 0.206734 0.288464
vt 0.206734 0.288464
vt 0.206734 0.288464
vt 0.206734 0.288464
vt 0.206734 0.288464
vt 0.206734 0.288464
vt 0.206734 0.288464
vt 0.206734 0.288464
vt 0.206734 0.288464
vt 0.206734 0.288464
vt 0.270605 0.222124
vt 0.270605 0.222124
vt 0.270605 0.222124
vt 0.270605 0.222124
vt 0.270605 0.222124
vt 0.270605 0.222124
vt 0.270605 0.222124
vt 0.270605 0.222124
vt 0.270605 0.222124
vt 0.270605 0.222124
vn 0.000000 0.000000 1.000000
vn 0.000000 0.000000 1.000000
vn 0.000000 0.000000 1.000000
vn 0.000000 0.000000 1.000000
vn 0.000000 1.000000 0.000000
vn 0.000000 1.000000 0.000000
vn 0.000000 1.000000 0.000000
vn 0.000000 1.000000 0.000000
vn 0.000000 -1.000000 -0.000001
vn 0.000000 -1.000000 -0.000001
vn 0.000000 -1.000000 -0.000001
vn 0.000000 -1.000000 -0.000001
vn 1.000000 0.000000 0.000000
vn 1.000000 0.000000 0.000000
vn 1.000000 0.000000 0.000000
vn 1.000000 0.000000 0.000000
vn -1.000000 0.000000 0.000028
vn -1.000000 0.000000 0.000028
vn -1.000000 0.000000 0.000028
vn -1.000000 0.000000 0.000028
vn 0.000000 0.000000 1.000000
vn 0.000000 0.000000 1.000000
vn 0.000000 0.000000 1.000000
vn 0.000000 0.000000 1.000000
vn 0.000000 1.000000 0.000000
vn 0.000000 1.000000 0.000000
vn 0.000000 1.000000 0.000000
vn 0.000000 1.000000 0.000000
vn 0.000000 -1.000000 0.000000
vn 0.000000 -1.000000 0.000000
vn 0.000000 -1.000000 0.000000
vn 0.000000 -1.000000 0.000000
vn 1.000000 0.000000 0.000000
vn 1.000000 0.000000 0.000000
vn 1.000000 0.000000 0.000000
vn 1.000000 0.000000 0.000000
vn -1.000000 0.000000 0.000000
vn -1.000000 0.000000 0.000000
vn -1.000000 0.000000 0.000000
vn -1.000000 0.000000 0.000000
vn 0.000000 0.000000 1.000000
vn -0.000000 0.000000 1.000000
vn -0.000000 0.000000 1.000000
vn 0.000000 0.000000 1.000000
vn 0.000000 0.000000 1.000000
vn 0.000000 0.000000 -1.000000
vn 0.000000 0.000000 -1.000000
vn 0.000000 0.000000 -1.000000
vn 0.000000 0.000000 -1.000000
vn 0.000000 -1.000000 0.000000
vn 0.000000 -1.000000 0.000000
vn 0.000000 -1.000000 0.000000
vn 0.000000 -1.000000 0.000000
vn 1.000000 0.000000 0.000000
vn 1.000000 0.000000 0.000000
vn 1.000000 0.000000 0.000000
vn 1.000000 0.000000 0.000000
vn -1.000000 0.000000 0.000000
vn -1.000000 0.000000 0.000000
vn -1.000000 0.000000 0.000000
vn -1.000000 0.000000 0.000000
vn 0.000000 0.000000 1.000000
vn 0.000000 0.000000 1.000000
vn -0.000000 0.000000 1.000000
vn 0.000000 0.000000 1.000000
vn 1.000000 0.000000 0.000000
vn 1.000000 0.000000 0.000000
vn 1.000000 0.000000 0.000000
vn 1.000000 0.000000 0.000000
vn 0.000000 0.000000 -1.000000
vn 0.000000 0.000000 -1.000000
vn 0.000000 0.000000 -1.000000
vn 0.000000 0.000000 -1.000000
vn -1.000000 0.000000 0.000000
vn -1.000000 0.000000 0.000000
vn -1.000000 0.000000 0.000000
vn -1.000000 0.000000 0.000000
vn 0.000000 0.000000 1.000000
vn 0.000000 0.000000 1.000000
vn 0.000000 0.000000 1.000000
vn 0.000000 0.000000 1.000000
vn 1.000000 0.000000 0.000000
vn 1.000000 0.000000 0.000000
vn 1.000000 0.000000 0.000000
vn 1.000000 0.000000 0.000000
vn 0.000000 0.000000 -1.000000
vn 0.000000 0.000000 -1.000000
vn 0.000000 0.000000 -1.000000
vn 0.000000 0.000000 -1.000000
vn -1.000000 0.000000 0.000000
vn -1.000000 0.000000 0.000000
vn -1.000000 0.000000 0.000000
vn -1.000000 0.000000 0.000000
vn 0.000000 0.000000 1.000000
vn -0.000000 0.000000 1.000000
vn -0.000000 0.000000 1.000000
vn 0.000000 0.000000 1.000000
vn -0.000000 0.000000 1.000000
vn -0.000000 -0.000001 1.000000
vn -0.000000 0.000000 1.000000
vn -0.000000 0.000000 1.000000
vn -0.000000 0.000000 1.000000
vn -0.000000 0.000000 1.000000
vn -0.000000 0.000000 1.000000
vn -0.000000 0.000000 1.000000
vn -0.000000 -0.000001 1.000000
vn 0.000000 -0.000001 1.000000
vn 0.000000 0.000000 1.000000
vn -0.000000 0.000000 1.000000
vn 0.000000 -0.000001 1.000000
vn 0.000000 0.000000 1.000000
vn 0.000000 0.000000 1.000000
vn 0.000000 0.000000 1.000000
vn 0.000000 0.000000 1.000000
vn 0.000000 0.000000 1.000000
vn 0.000000 0.000000 1.000000
vn 0.000000 0.000000 1.000000
vn 0.000000 0.000000 1.000000
vn 0.000000 0.000000 1.000000
vn 0.000000 0.000000 1.000000
vn 0.000000 0.000000 1.000000
vn -0.000000 0.000000 1.000000
vn -0.000000 0.000000 1.000000
vn 0.000000 0.000000 1.000000
vn 0.000000 0.000000 1.000000
vn -0.000000 0.000000 1.000000
vn -0.000000 0.000000 1.000000
vn 0.000000 0.000000 1.000000
vn 0.000000 0.000000 1.000000
vn 0.000000 0.000000 1.000000
vn -0.000000 0.000000 1.000000
vn -0.000000 0.000000 1.000000
vn 0.000000 0.000000 1.000000
vn 0.000000 0.000000 1.000000
vn -0.000000 0.000000 1.000000
vn -0.000000 0.000000 1.000000
vn 0.000000 0.000000 1.000000
vn 0.000000 0.000000 1.000000
vn 0.000000 1.000000 0.000000
vn 0.000000 1.000000 0.000000
vn 0.000000 1.000000 0.000000
vn 0.000000 1.000000 0.000000
vn 0.000000 0.000000 -1.000000
vn 0.000000 0.000000 -1.000000
vn 0.000000 0.000000 -1.000000
vn 0.000000 0.000000 -1.000000
vn 0.000000 -1.000000 0.000000
vn 0.000000 -1.000000 0.000000
vn 0.000000 -1.000000 0.000000
vn 0.000000 -1.000000 0.000000
vn 1.000000 0.000000 0.000000
vn 1.000000 0.000000 0.000000
vn 1.000000 0.000000 0.000000
vn 1.000000 0.000000 0.000000
vn -1.000000 0.000000 0.000000
vn -1.000000 0.000000 0.000000
vn -1.000000 0.000000 0.000000
vn -1.000000 0.000000 0.000000
vn 0.000000 -0.000001 1.000000
vn -0.000000 -0.000001 1.000000
vn 0.000000 -0.000002 1.000000
vn 0.000000 -0.000002 1.000000
vn 0.000000 -0.000002 1.000000
vn -0.000000 -0.000002 1.000000
vn -0.000000 -0.000002 1.000000
vn 0.000000 -0.000002 1.000000
vn 0.000000 1.000000 0.000000
vn 0.000000 1.000000 0.000000
vn 0.000000 1.000000 0.000000
vn 0.000000 1.000000 0.000000
vn 0.000000 0.000001 -1.000000
vn 0.000000 0.000001 -1.000000
vn 0.000000 0.000001 -1.000000
vn -0.000000 0.000001 -1.000000
vn -0.000000 0.000001 -1.000000
vn 0.000000 0.000001 -1.000000
vn 0.000000 0.000000 -1.000000
vn 0.000000 0.000000 -1.000000
vn 1.000000 0.000000 0.000000
vn 1.000000 0.000000 0.000000
vn 1.000000 0.000000 0.000000
vn 1.000000 0.000000 0.000000
vn -1.000000 0.000000 0.000000
vn -1.000000 0.000000 0.000000
vn -1.000000 0.000000 0.000000
vn -1.000000 0.000000 0.000000
vn 0.000000 1.000000 0.000000
vn 0.000000 1.000000 0.000000
vn 0.000000 1.000000 0.000000
vn 0.000000 1.000000 0.000000
vn 0.000000 1.000000 0.000000
vn 0.000000 1.000000 0.000000
vn 0.000000 1.000000 0.000000
vn 0.000000 1.000000 0.000000
vn 0.000000 1.000000 0.000000
vn 0.000000 1.000000 0.000000
vn 0.000000 1.000000 0.000000
vn 0.000000 1.000000 0.000000
vn 0.000000 1.000000 0.000000
vn 0.000000 1.000000 0.000000
vn 0.000000 1.000000 0.000000
vn 0.000000 1.000000 0.000000
vn 0.000000 1.000000 0.000000
vn -1.000000 0.000000 0.000001
vn -1.000000 0.000000 0.000001
vn -1.000000 0.000000 0.000001
vn -1.000000 0.000000 0.000001
vn -0.000000 -0.000002 1.000000
vn -0.000000 -0.000002 1.000000
vn -0.000029 0.000000 1.000000
vn -0.000029 0.000000 1.000000
vn 1.000000 0.000000 0.000001
vn 1.000000 0.000000 0.000001
vn 1.000000 0.000000 0.000001
vn 1.000000 0.000000 0.000001
vn 0.000000 0.000001 -1.000000
vn 0.000000 0.000001 -1.000000
vn 0.000023 0.000000 -1.000000
vn 0.000023 0.000000 -1.000000
vn -1.000000 0.000000 0.000000
vn -1.000000 0.000000 0.000000
vn -1.000000 0.000000 0.000000
vn -1.000000 0.000000 0.000000
vn 0.000000 -0.000002 1.000000
vn 0.000000 -0.000002 1.000000
vn 0.000000 0.000000 1.000000
vn 0.000000 0.000000 1.000000
vn 1.000000 0.000000 0.000000
vn 1.000000 0.000000 0.000000
vn 1.000000 0.000000 0.000000
vn 1.000000 0.000000 0.000000
vn -0.000000 0.000001 -1.000000
vn -0.000000 0.000001 -1.000000
vn -0.000001 0.000000 -1.000000
vn -0.000001 0.000000 -1.000000
vn 0.000000 1.000000 0.000000
vn 0.000000 1.000000 0.000000
vn 0.000000 1.000000 0.000000
vn 0.000000 1.000000 0.000000
vn 0.000000 1.000000 0.000000
vn 0.000000 1.000000 0.000000
vn 0.000000 1.000000 0.000000
vn 0.000000 1.000000 0.000000
vn 0.000000 1.000000 0.000000
vn 0.000000 1.000000 0.000000
vn 0.000000 1.000000 0.000000
vn 0.000000 1.000000 0.000000
vn 0.000000 1.000000 0.000000
vn 0.000000 1.000000 0.000000
vn 0.000000 1.000000 0.000000
vn 0.000000 1.000000 0.000000
vn 0.000000 1.000000 0.000000
vn 0.000000 1.000000 0.000000
vn 0.000000 1.000000 0.000000
vn 0.000000 1.000000 0.000000
vn 0.000000 1.000000 0.000000
vn 0.000000 1.000000 0.000000
vn 0.000000 1.000000 0.000000
vn 0.000000 1.000000 0.000000
vn 0.000000 1.000000 0.000000
vn 0.000000 1.000000 0.000000
vn 0.000000 1.000000 0.000000
vn 0.000000 1.000000 0.000000
vn 0.000000 1.000000 0.000000
vn 0.000000 1.000000 0.000000
vn 0.000000 1.000000 0.000000
vn 0.000000 1.000000 0.000000
vn 0.000000 1.000000 0.000000
vn 0.000000 1.000000 0.000000
vn 0.000000 1.000000 0.000000
vn 0.000000 1.000000 0.000000
vn 0.000000 1.000000 0.000000
vn 0.000000 1.000000 0.000000
vn 0.000000 1.000000 0.000000
vn 0.000000 1.000000 0.000000
vn 0.000000 1.000000 0.000000
vn 0.000000 1.000000 0.000000
vn 0.000000 1.000000 0.000000
vn 0.000000 1.000000 0.000000
vn 0.000000 1.000000 0.000000
s off
f 1/1/1 2/2/2 4/3/3 3/4/4
f 3/5/5 4/6/6 6/7/7 5/8/8
f 7/9/9 8/10/10 2/11/11 1/12/12
f 2/13/13 8/14/14 6/15/15 4/16/16
f 7/17/17 1/18/18 3/19/19 5/20/20
f 9/21/21 10/22/22 12/23/23 11/24/24
f 11/25/25 12/26/26 14/27/27 13/28/28
f 15/29/29 16/30/30 10/31/31 9/32/32
f 10/33/33 16/34/34 14/35/35 12/36/36
f 15/37/37 9/38/38 11/39/39 13/40/40
f 39/41/41 40/42/42 37/43/43 38/44/44 46/45/45
f 21/46/46 22/47/47 27/48/48 28/49/49
f 23/50/50 24/51/51 18/52/52 17/53/53
f 26/54/54 27/55/55 22/56/56 20/57/57
f 28/58/58 25/59/59 19/60/60 21/61/61
f 29/62/62 30/63/63 26/64/64 25/65/65
f 30/66/66 31/67/67 27/68/68 26/69/69
f 28/70/70 27/71/71 31/72/72 32/73/73
f 32/74/74 29/75/75 25/76/76 28/77/77
f 17/78/78 18/79/79 30/80/80 29/81/81
f 18/82/82 24/83/83 31/84/84 30/85/85
f 32/86/86 31/87/87 24/88/88 23/89/89
f 23/90/90 17/91/91 29/92/92 32/93/93
f 25/94/94 26/95/95 34/96/96 33/97/97
f 26/95/98 20/98/99 35/99/100 43/100/101 37/101/102 40/102/103 41/103/104 34/96/105
f 20/98/106 19/104/107 36/105/108 35/99/109
f 19/104/110 25/94/111 33/97/112 47/106/113 42/107/114 39/108/115 46/109/116 38/110/117 44/111/118 45/112/119 36/105/120
f 38/110/121 37/101/122 43/100/123 44/111/124
f 33/113/125 34/114/126 41/115/127 42/116/128 47/117/129
f 42/107/130 41/103/131 40/102/132 39/108/133
f 44/118/134 43/119/135 35/120/136 36/121/137 45/122/138
f 50/123/139 51/124/140 53/125/141 52/126/142
f 52/127/143 53/128/144 55/129/145 54/130/146
f 54/131/147 55/132/148 49/133/149 48/134/150
f 49/135/151 55/136/152 53/137/153 51/138/154
f 54/139/155 48/140/156 50/141/157 52/142/158
f 19/143/159 20/144/160 57/145/161 66/146/162 64/147/163 60/148/164 62/149/165 56/150/166
f 56/151/167 62/152/168 63/153/169 58/154/170
f 58/155/171 63/156/172 61/157/173 65/158/174 67/159/175 59/160/176 22/161/177 21/162/178
f 20/163/179 22/164/180 59/165/181 57/166/182
f 21/167/183 19/168/184 56/169/185 58/170/186
f 77/171/187 88/172/188 82/173/189 83/174/190 79/175/191
f 69/176/192 68/177/193 70/178/194 71/179/195
f 73/180/196 72/181/197 74/182/198 75/183/199
f 67/184/200 66/185/201 57/186/202 59/187/203
f 63/188/204 62/189/205 68/190/206 69/191/207
f 62/192/208 60/193/209 70/194/210 68/195/211
f 60/196/212 61/197/213 71/198/214 70/199/215
f 61/200/216 63/201/217 69/202/218 71/203/219
f 65/204/220 64/205/221 72/206/222 73/207/223
f 64/208/224 66/209/225 74/210/226 72/211/227
f 66/212/228 67/213/229 75/214/230 74/215/231
f 67/216/232 65/217/233 73/218/234 75/219/235
f 61/220/236 60/221/237 76/222/238 90/223/239 85/224/240 86/225/241 89/226/242 80/227/243 82/228/244 88/229/245 77/230/246
f 60/221/247 64/231/248 78/232/249 76/222/250
f 64/231/251 65/233/252 79/234/253 83/235/254 81/236/255 87/237/256 84/238/257 78/232/258
f 65/233/259 61/220/260 77/230/261 79/234/262
f 84/239/263 85/240/264 90/241/265 76/242/266 78/243/267
f 83/235/268 82/228/269 80/227/270 81/236/271
f 81/244/272 80/245/273 89/246/274 86/247/275 87/248/276
f 87/237/277 86/225/278 85/224/279 84/238/280
