# This file uses meters as units for non-parametric coordinates.

v -0.114601 0.401229 0.367432
v 0.290138 0.610655 -0.055359
v -0.205200 1.580938 0.357330
v 0.043701 1.460712 0.126266
v -0.329491 1.563651 0.268234
v -0.100761 1.416917 -0.039978
v -0.420929 0.366818 0.140091
v -0.049248 0.569024 -0.372452
v -0.175850 2.025650 0.296661
v -0.027863 1.958392 0.185669
v -0.133293 1.920458 0.004883
v -0.291801 2.009737 0.216675
v -0.663239 0.067066 0.202133
v -0.191925 0.270898 -0.510544
v 0.578674 0.353596 -0.010605
v 0.062225 0.149441 0.660767
v -0.628502 -0.140391 0.200012
v -0.041779 -0.138764 -0.656448
v 0.696152 -0.059573 -0.177704
v 0.061188 -0.061440 0.643173
vt 0.207959 0.060329
vt 0.207959 0.060329
vt 0.207959 0.060329
vt 0.207959 0.060329
vt 0.207959 0.060329
vt 0.207959 0.060329
vt 0.207959 0.060329
vt 0.207959 0.060329
vt 0.175564 0.060329
vt 0.175564 0.060329
vt 0.175564 0.060329
vt 0.175564 0.060329
vt 0.175564 0.060329
vt 0.175564 0.060329
vt 0.175564 0.060329
vt 0.175564 0.060329
vt 0.175564 0.060329
vt 0.175564 0.060329
vt 0.175564 0.060329
vt 0.175564 0.060329
vt 0.207959 0.060329
vt 0.207959 0.060329
vt 0.207959 0.060329
vt 0.207959 0.060329
vt 0.175564 0.060329
vt 0.175564 0.060329
vt 0.175564 0.060329
vt 0.175564 0.060329
vt 0.139570 0.060329
vt 0.139570 0.060329
vt 0.139570 0.060329
vt 0.139570 0.060329
vt 0.234954 0.060329
vt 0.234954 0.060329
vt 0.234954 0.060329
vt 0.234954 0.060329
vt 0.209758 0.060329
vt 0.209758 0.060329
vt 0.209758 0.060329
vt 0.209758 0.060329
vt 0.234954 0.060329
vt 0.234954 0.060329
vt 0.234954 0.060329
vt 0.234954 0.060329
vt 0.209759 0.060329
vt 0.209759 0.060329
vt 0.209759 0.060329
vt 0.209759 0.060329
vt 0.175564 0.060329
vt 0.175564 0.060329
vt 0.175564 0.060329
vt 0.175564 0.060329
vt 0.175564 0.060329
vt 0.175564 0.060329
vt 0.175564 0.060329
vt 0.175564 0.060329
vt 0.175564 0.060329
vt 0.175564 0.060329
vt 0.175564 0.060329
vt 0.175564 0.060329
vt 0.175564 0.060329
vt 0.175564 0.060329
vt 0.175564 0.060329
vt 0.175564 0.060329
vt 0.207959 0.060329
vt 0.207959 0.060329
vt 0.207959 0.060329
vt 0.207959 0.060329
vt 0.260859 0.059978
vt 0.260859 0.059978
vt 0.260859 0.059978
vt 0.260859 0.059978
vn 0.702214 0.056627 0.709710
vn 0.702214 0.056627 0.709710
vn 0.697958 0.053880 0.714109
vn 0.691024 0.049443 0.721139
vn -0.804650 0.101050 -0.585087
vn -0.803943 0.127947 -0.580780
vn -0.803141 0.145814 -0.577670
vn -0.803141 0.145814 -0.577670
vn 0.075925 -0.995692 0.053226
vn 0.075925 -0.995692 0.053226
vn 0.075925 -0.995692 0.053226
vn 0.075925 -0.995692 0.053226
vn 0.598207 0.302051 -0.742235
vn 0.592352 0.299033 -0.748130
vn 0.639570 0.323387 -0.697403
vn 0.639570 0.323387 -0.697403
vn -0.588568 -0.039899 0.807463
vn -0.588568 -0.039899 0.807463
vn -0.588568 -0.039899 0.807463
vn -0.588568 -0.039899 0.807463
vn 0.691024 0.049443 0.721139
vn 0.697958 0.053880 0.714109
vn 0.660793 0.030607 0.749944
vn 0.660793 0.030607 0.749944
vn 0.786579 0.144302 -0.600392
vn 0.786579 0.144302 -0.600392
vn 0.786579 0.144302 -0.600392
vn 0.786579 0.144302 -0.600392
vn -0.582784 0.144605 0.799658
vn -0.582784 0.144605 0.799658
vn -0.582784 0.144605 0.799658
vn -0.582784 0.144605 0.799658
vn -0.766959 0.538293 -0.349305
vn -0.766959 0.538293 -0.349305
vn -0.766959 0.538293 -0.349305
vn -0.766959 0.538293 -0.349305
vn 0.592352 0.299033 -0.748130
vn 0.598207 0.302051 -0.742235
vn 0.549319 0.276866 -0.788412
vn 0.549319 0.276866 -0.788412
vn 0.367881 0.724078 0.583416
vn 0.367881 0.724078 0.583416
vn 0.367881 0.724078 0.583416
vn 0.367881 0.724078 0.583416
vn -0.516449 0.506301 0.690608
vn -0.516449 0.506301 0.690608
vn -0.516449 0.506301 0.690608
vn -0.516449 0.506301 0.690608
vn -0.817472 -0.109261 -0.565510
vn -0.817472 -0.109261 -0.565511
vn -0.817472 -0.109261 -0.565510
vn -0.817472 -0.109261 -0.565510
vn 0.454350 0.441991 -0.773440
vn 0.454350 0.441991 -0.773440
vn 0.454350 0.441991 -0.773440
vn 0.454350 0.441991 -0.773440
vn 0.793438 -0.031843 0.607817
vn 0.793438 -0.031843 0.607817
vn 0.793438 -0.031843 0.607817
vn 0.793438 -0.031843 0.607817
vn -0.528876 -0.082410 0.844689
vn -0.528876 -0.082410 0.844689
vn -0.528876 -0.082410 0.844689
vn -0.528876 -0.082410 0.844689
vn -0.803943 0.127947 -0.580780
vn -0.804650 0.101050 -0.585087
vn -0.802012 0.000142 -0.597308
vn -0.802012 0.000142 -0.597308
vn 0.145132 0.937337 -0.316760
vn 0.145132 0.937337 -0.316760
vn 0.145132 0.937337 -0.316760
vn 0.145132 0.937337 -0.316760
s off
f 1/1/1 2/2/2 4/3/3 3/4/4
f 5/5/5 6/6/6 8/7/7 7/8/8
f 17/9/9 18/10/10 19/11/11 20/12/12
f 2/13/13 8/14/14 6/15/15 4/16/16
f 7/17/17 1/18/18 3/19/19 5/20/20
f 3/21/21 4/22/22 10/23/23 9/24/24
f 4/25/25 6/26/26 11/27/27 10/28/28
f 5/29/29 3/30/30 9/31/31 12/32/32
f 7/33/33 8/34/34 14/35/35 13/36/36
f 8/37/37 2/38/38 15/39/39 14/40/40
f 2/41/41 1/42/42 16/43/43 15/44/44
f 1/45/45 7/46/46 13/47/47 16/48/48
f 13/49/49 14/50/50 18/51/51 17/52/52
f 14/53/53 15/54/54 19/55/55 18/56/56
f 15/57/57 16/58/58 20/59/59 19/60/60
f 16/61/61 13/62/62 17/63/63 20/64/64
f 6/65/65 5/66/66 12/67/67 11/68/68
f 10/69/69 11/70/70 12/71/71 9/72/72
