# This file uses meters as units for non-parametric coordinates.

v 0.311891 -0.000000 -0.285330
v -0.273404 -0.000000 -0.285330
v 0.311891 0.132379 -0.285330
v -0.273404 0.132379 -0.285330
v 0.311891 0.132379 0.299966
v -0.273404 0.132379 0.299966
v 0.311891 -0.000000 0.299966
v -0.273404 -0.000000 0.299966
v 0.116004 0.132379 -0.089442
v -0.077516 0.132379 -0.089442
v -0.077516 0.132379 0.104078
v 0.116004 0.132379 0.104078
v 0.115832 2.823959 -0.089270
v -0.077344 2.823959 -0.089270
v -0.077344 2.823959 0.103906
v 0.115832 2.823959 0.103906
v 0.616852 2.754710 0.095708
v 0.305147 3.050170 0.095708
v -0.296985 3.044742 0.095708
v -0.598434 2.738723 0.095708
v -0.593002 2.124913 0.095708
v -0.281301 1.829453 0.095708
v 0.320833 1.834884 0.095708
v 0.622282 2.140904 0.095708
v 0.616852 2.754710 0.182290
v 0.305147 3.050170 0.182290
v -0.296985 3.044742 0.182290
v -0.598434 2.738723 0.182290
v -0.593002 2.124913 0.182290
v -0.281301 1.829453 0.182290
v 0.320833 1.834884 0.182290
v 0.622282 2.140904 0.182290
v 0.011923 2.439813 0.095708
v 0.005555 2.933199 0.182290
v 0.011924 2.439813 0.182290
v 0.505310 2.446304 0.182290
v 0.503105 2.695499 0.182290
v 0.250012 2.935402 0.182290
v -0.542926 2.150981 0.182290
v -0.547908 2.713979 0.182290
v -0.479256 2.184124 0.182290
v -0.481461 2.433321 0.182290
v -0.257028 1.879979 0.182290
v -0.226165 1.944221 0.182290
v 0.295262 1.884960 0.182290
v 0.018292 1.946426 0.182290
v 0.571756 2.165648 0.182290
v 0.566776 2.728642 0.182290
v 0.280874 2.999644 0.182290
v -0.271414 2.994665 0.182290
vt 0.297247 0.066919
vt 0.324657 0.066919
vt 0.297247 0.066919
vt 0.324657 0.066919
vt 0.297247 0.066919
vt 0.324657 0.066919
vt 0.297247 0.066919
vt 0.324657 0.066919
vt 0.360515 0.066919
vt 0.360515 0.066919
vt 0.297247 0.066919
vt 0.324657 0.066919
vt 0.360515 0.066919
vt 0.324657 0.066919
vt 0.360515 0.066919
vt 0.297247 0.066919
vt 0.297247 0.066919
vt 0.357917 0.066919
vt 0.324657 0.066919
vt 0.297247 0.066919
vt 0.357917 0.066919
vt 0.240075 0.219091
vt 0.240075 0.219091
vt 0.107353 0.475537
vt 0.240075 0.219091
vt 0.240075 0.219091
vt 0.107353 0.475537
vt 0.240075 0.219091
vt 0.240075 0.219091
vt 0.240075 0.219091
vt 0.240075 0.219091
vt 0.240075 0.219091
vt 0.240075 0.219091
vt 0.240075 0.219091
vt 0.240075 0.219091
vt 0.240075 0.219091
vt 0.240075 0.219091
vt 0.240075 0.219091
vt 0.240075 0.219091
vt 0.117476 0.471038
vt 0.117476 0.471038
vt 0.240075 0.219091
vt 0.240075 0.219091
vt 0.240075 0.219091
vt 0.117476 0.471038
vt 0.240075 0.219091
vt 0.240075 0.219091
vt 0.357917 0.066919
vt 0.324657 0.066919
vt 0.360515 0.066919
vt 0.297247 0.066919
vt 0.324657 0.066919
vt 0.357917 0.066919
vt 0.360515 0.066919
vt 0.297247 0.066919
vt 0.324657 0.066919
vt 0.297247 0.066919
vt 0.297247 0.066919
vt 0.360515 0.066919
vt 0.297247 0.066919
vt 0.324657 0.066919
vt 0.297247 0.066919
vt 0.324657 0.066919
vt 0.324657 0.066919
vt 0.297247 0.066919
vt 0.324657 0.066919
vt 0.297247 0.066919
vt 0.360515 0.066919
vt 0.360515 0.066919
vt 0.360515 0.066919
vt 0.324657 0.066919
vt 0.360515 0.066919
vt 0.360515 0.066919
vt 0.360515 0.066919
vt 0.360515 0.066919
vt 0.324657 0.066919
vt 0.360515 0.066919
vt 0.360515 0.066919
vt 0.297438 0.219091
vt 0.297438 0.219091
vt 0.297438 0.219091
vt 0.297438 0.219091
vt 0.265945 0.220215
vt 0.265945 0.220215
vt 0.265945 0.220215
vt 0.265945 0.220215
vt 0.265945 0.220215
vt 0.265945 0.220215
vt 0.265945 0.220215
vt 0.265945 0.220215
vt 0.240075 0.219091
vt 0.117476 0.471038
vt 0.240075 0.219091
vt 0.117476 0.471038
vt 0.117476 0.471038
vt 0.117476 0.471038
vt 0.240075 0.219091
vt 0.117476 0.471038
vt 0.240075 0.219091
vt 0.117476 0.471038
vt 0.117476 0.471038
vt 0.240075 0.219091
vt 0.240075 0.219091
vt 0.240075 0.219091
vt 0.240075 0.219091
vt 0.240075 0.219091
vt 0.240075 0.219091
vt 0.240075 0.219091
vt 0.240075 0.219091
vt 0.107353 0.475537
vt 0.107353 0.475537
vt 0.107353 0.475537
vt 0.107353 0.475537
vt 0.107353 0.475537
vt 0.107353 0.475537
vt 0.107353 0.475537
vt 0.107353 0.475537
vt 0.107353 0.475537
vt 0.107353 0.475537
vt 0.107353 0.475537
vt 0.107353 0.475537
vt 0.107353 0.475537
vt 0.107353 0.475537
vn 0.000000 0.000000 -1.000000
vn 0.000000 0.000000 -1.000000
vn 0.000000 0.000000 -1.000000
vn 0.000000 0.000000 -1.000000
vn 0.000000 0.000000 1.000000
vn 0.000000 0.000000 1.000000
vn 0.000000 0.000000 1.000000
vn 0.000000 0.000000 1.000000
vn 0.000000 -1.000000 0.000000
vn 0.000000 -1.000000 0.000000
vn 0.000000 -1.000000 0.000000
vn 0.000000 -1.000000 0.000000
vn -1.000000 0.000000 0.000000
vn -1.000000 0.000000 0.000000
vn -1.000000 0.000000 0.000000
vn -1.000000 0.000000 0.000000
vn 1.000000 0.000000 0.000000
vn 1.000000 0.000000 0.000000
vn 1.000000 0.000000 0.000000
vn 1.000000 0.000000 0.000000
vn 0.000000 1.000000 0.000000
vn 0.000000 1.000000 0.000000
vn 0.000000 1.000000 0.000000
vn 0.000000 1.000000 0.000000
vn 0.000000 1.000000 0.000000
vn 0.000000 1.000000 0.000000
vn 0.000000 1.000000 0.000000
vn 0.000000 1.000000 0.000000
vn 0.000000 1.000000 0.000000
vn 0.000000 1.000000 0.000000
vn 0.000000 1.000000 0.000000
vn 0.000000 1.000000 0.000000
vn 0.000000 1.000000 0.000000
vn 0.000000 1.000000 0.000000
vn 0.000000 1.000000 0.000000
vn 0.000000 1.000000 0.000000
vn 0.000000 0.000064 -1.000000
vn 0.000000 0.000064 -1.000000
vn 0.000000 0.000064 -1.000000
vn 0.000000 0.000064 -1.000000
vn -1.000000 0.000064 0.000000
vn -1.000000 0.000064 0.000000
vn -1.000000 0.000064 0.000000
vn -1.000000 0.000064 0.000000
vn 0.000000 0.000064 1.000000
vn 0.000000 0.000064 1.000000
vn 0.000000 0.000064 1.000000
vn 0.000000 0.000064 1.000000
vn 1.000000 0.000064 0.000000
vn 1.000000 0.000064 0.000000
vn 1.000000 0.000064 0.000000
vn 1.000000 0.000064 0.000000
vn 0.000000 1.000000 0.000000
vn 0.000000 1.000000 0.000000
vn 0.000000 1.000000 0.000000
vn 0.000000 1.000000 0.000000
vn 0.687942 0.725766 0.000000
vn 0.687942 0.725766 0.000000
vn 0.687942 0.725766 0.000000
vn 0.687942 0.725766 0.000000
vn -0.009015 0.999959 0.000000
vn -0.009015 0.999959 0.000000
vn -0.009015 0.999959 0.000000
vn -0.009015 0.999959 0.000000
vn -0.712406 0.701767 0.000000
vn -0.712406 0.701767 0.000000
vn -0.712406 0.701767 0.000000
vn -0.712406 0.701767 0.000000
vn -0.999961 -0.008850 0.000000
vn -0.999961 -0.008850 0.000000
vn -0.999961 -0.008850 0.000000
vn -0.999961 -0.008850 0.000000
vn -0.687946 -0.725762 0.000000
vn -0.687946 -0.725762 0.000000
vn -0.687946 -0.725762 0.000000
vn -0.687946 -0.725762 0.000000
vn 0.009018 -0.999959 0.000000
vn 0.009018 -0.999959 0.000000
vn 0.009018 -0.999959 0.000000
vn 0.009018 -0.999959 0.000000
vn 0.712409 -0.701765 0.000000
vn 0.712409 -0.701765 0.000000
vn 0.712409 -0.701765 0.000000
vn 0.712409 -0.701765 0.000000
vn 0.999961 0.008846 0.000000
vn 0.999961 0.008846 0.000000
vn 0.999961 0.008846 0.000000
vn 0.999961 0.008846 0.000000
vn -0.000000 0.000000 -1.000000
vn -0.000000 0.000000 -1.000000
vn 0.000000 0.000000 -1.000000
vn 0.000000 0.000000 -1.000000
vn -0.000000 0.000000 -1.000000
vn 0.000000 0.000000 -1.000000
vn 0.000000 0.000000 -1.000000
vn 0.000000 0.000000 -1.000000
vn 0.000000 0.000000 -1.000000
vn 0.000000 0.000000 -1.000000
vn 0.000000 0.000000 -1.000000
vn 0.000000 0.000000 -1.000000
vn 0.000000 0.000000 -1.000000
vn 0.000000 0.000000 -1.000000
vn 0.000000 0.000000 -1.000000
vn 0.000000 0.000000 -1.000000
vn 0.000000 0.000000 -1.000000
vn 0.000000 0.000000 -1.000000
vn 0.000000 0.000000 -1.000000
vn 0.000000 0.000000 -1.000000
vn 0.000000 0.000000 -1.000000
vn -0.000000 0.000000 -1.000000
vn 0.000000 0.000000 -1.000000
vn 0.000000 0.000000 -1.000000
vn -0.000000 0.000000 1.000000
vn 0.000000 0.000000 1.000000
vn 0.000000 0.000000 1.000000
vn 0.000000 0.000000 1.000000
vn -0.000000 0.000000 1.000000
vn 0.000000 0.000000 1.000000
vn 0.000000 0.000000 1.000000
vn 0.000000 0.000000 1.000000
vn -0.000000 0.000000 1.000000
vn 0.000000 0.000000 1.000000
vn -0.000000 0.000000 1.000000
vn 0.000000 0.000000 1.000000
vn 0.000000 0.000000 1.000000
vn 0.000000 0.000000 1.000000
vn 0.000000 0.000000 1.000000
vn 0.000000 0.000000 1.000000
vn 0.000000 0.000000 1.000000
vn 0.000000 0.000000 1.000000
vn -0.000000 0.000000 1.000000
vn -0.000000 0.000000 1.000000
vn -0.000000 0.000000 1.000000
vn 0.000000 0.000000 1.000000
vn -0.000000 0.000000 1.000000
vn -0.000000 0.000000 1.000000
vn 0.000000 0.000000 1.000000
vn -0.000000 0.000000 1.000000
vn -0.000000 0.000000 1.000000
vn 0.000000 0.000000 1.000000
vn -0.000000 0.000000 1.000000
vn -0.000000 0.000000 1.000000
vn -0.000000 0.000000 1.000000
vn 0.000000 0.000000 1.000000
vn 0.000000 0.000000 1.000000
vn -0.000000 0.000000 1.000000
vn -0.000000 0.000000 1.000000
vn 0.000000 0.000000 1.000000
vn 0.000000 0.000000 1.000000
vn 0.000000 0.000000 1.000000
vn 0.000000 0.000000 1.000000
vn -0.000000 0.000000 1.000000
vn 0.000000 0.000000 1.000000
vn 0.000000 0.000000 1.000000
vn 0.000000 0.000000 1.000000
vn 0.000000 0.000000 1.000000
vn 0.000000 0.000000 1.000000
vn -0.000000 0.000000 1.000000
vn 0.000000 0.000000 1.000000
vn 0.000000 0.000000 1.000000
vn -0.000000 0.000000 1.000000
vn -0.000000 0.000000 1.000000
vn 0.000000 0.000000 1.000000
vn 0.000000 0.000000 1.000000
vn -0.000000 0.000000 1.000000
vn -0.000000 0.000000 1.000000
vn -0.000000 0.000000 1.000000
vn 0.000000 0.000000 1.000000
vn -0.000000 0.000000 1.000000
vn -0.000000 0.000000 1.000000
vn -0.000000 0.000000 1.000000
vn -0.000000 0.000000 1.000000
vn -0.000000 0.000000 1.000000
vn 0.000000 0.000000 1.000000
vn -0.000000 0.000000 1.000000
vn -0.000000 0.000000 1.000000
vn 0.000000 0.000000 1.000000
vn 0.000000 0.000000 1.000000
vn -0.000000 0.000000 1.000000
vn -0.000000 0.000000 1.000000
s off
f 1/64/1 2/2/2 4/63/3 3/4/4
f 5/61/5 6/6/6 8/66/7 7/8/8
f 7/8/9 8/66/10 2/2/11 1/64/12
f 2/67/13 8/7/14 6/62/15 4/3/16
f 7/65/17 1/1/18 3/60/19 5/5/20
f 3/9/21 4/50/22 10/75/23 9/68/24
f 4/10/25 6/77/26 11/73/27 10/59/28
f 6/13/29 5/74/30 12/70/31 11/72/32
f 5/15/33 3/78/34 9/69/35 12/54/36
f 9/12/37 10/76/38 14/56/39 13/49/40
f 10/11/41 11/57/42 15/55/43 14/17/44
f 11/14/45 12/71/46 16/52/47 15/19/48
f 12/16/49 9/58/50 13/51/51 16/20/52
f 14/48/53 15/21/54 16/53/55 13/18/56
f 17/88/57 18/90/58 26/89/59 25/87/60
f 18/82/61 19/81/62 27/79/63 26/80/64
f 19/86/65 20/85/66 28/83/67 27/84/68
f 20/28/69 21/30/70 29/31/71 28/29/72
f 21/30/73 22/32/74 30/33/75 29/31/76
f 22/32/77 23/34/78 31/35/79 30/33/80
f 23/34/81 24/36/82 32/37/83 31/35/84
f 24/36/85 17/22/86 25/25/87 32/37/88
f 18/23/89 17/22/90 33/38/91
f 19/26/92 18/23/93 33/38/94
f 20/28/95 19/26/96 33/38/97
f 21/30/98 20/28/99 33/38/100
f 22/32/101 21/30/102 33/38/103
f 23/34/104 22/32/105 33/38/106
f 24/36/107 23/34/108 33/38/109
f 17/22/110 24/36/111 33/38/112
f 34/95/113 35/92/114 36/41/115 37/100/116 38/98/117
f 39/103/118 43/104/119 44/46/120 41/44/121
f 47/106/122 48/107/123 37/42/124 36/97/125 35/93/126 46/47/127 44/46/128 43/104/129 45/105/130
f 48/107/131 49/108/132 38/43/133 37/42/134
f 50/109/135 40/102/136 39/103/137 41/44/138 42/99/139 35/91/140 34/39/141 38/43/142 49/108/143
f 46/94/144 35/40/145 42/45/146 41/101/147 44/96/148
f 28/24/149 29/27/150 39/110/151 40/111/152
f 29/27/153 30/112/154 43/113/155 39/110/156
f 30/112/157 31/114/158 45/115/159 43/113/160
f 31/114/161 32/116/162 47/117/163 45/115/164
f 32/116/165 25/118/166 48/119/167 47/117/168
f 25/118/169 26/120/170 49/121/171 48/119/172
f 26/120/173 27/122/174 50/123/175 49/121/176
f 27/122/177 28/24/178 40/111/179 50/123/180
