# This file uses meters as units for non-parametric coordinates.

v 1.346527 0.000000 0.000000
v 13.641937 0.000000 0.000000
v 1.346527 18.833843 -0.701263
v 13.641937 18.833843 -0.701263
v 1.346527 18.833843 -1.550224
v 13.641937 18.833843 -1.550224
v 1.346527 0.000000 -2.251526
v 13.641937 0.000000 -2.251526
v 13.641937 19.403744 -2.251526
v 13.641937 19.403744 0.000000
v 1.346527 19.403744 0.000000
v 1.346527 19.403744 -2.251526
v 14.988556 0.000000 -2.251526
v 14.988556 0.000000 0.000000
v 14.988556 19.403744 -2.251526
v 14.988556 19.403744 0.000000
v 0.000000 0.000000 -2.251526
v 0.000000 0.000000 0.000000
v 0.000000 19.403744 0.000000
v 0.000000 19.403744 -2.251526
v 1.346527 1.776272 -2.251526
v 0.000000 1.776272 -2.251526
v 0.000000 1.776272 0.000061
v 1.346527 1.776272 0.000061
v 1.346527 1.776272 -0.701263
v 13.641937 1.776272 -0.701263
v 13.641937 1.776272 0.000061
v 14.988556 1.776272 0.000061
v 14.988556 1.776272 -2.251526
v 13.641937 1.776272 -2.251526
v 13.641937 1.776272 -1.550224
v 1.346527 1.776272 -1.550224
v 13.641937 7.318714 -2.251526
v 14.988556 7.318714 -2.251526
v 14.988556 7.318714 0.000061
v 13.641937 7.318714 0.000061
v 13.641937 7.318714 -0.701263
v 1.346527 7.318714 -0.701263
v 1.346527 7.318714 0.000061
v 0.000000 7.318714 0.000061
v 0.000000 7.318714 -2.251526
v 1.346527 7.318714 -2.251526
v 1.346527 7.318714 -1.550224
v 13.641937 7.318714 -1.550224
v 13.641937 13.036064 -2.251526
v 14.988556 13.036064 -2.251526
v 14.988556 13.036064 0.000061
v 13.641937 13.036064 0.000061
v 13.641937 13.036064 -0.701263
v 1.346527 13.036064 -0.701263
v 1.346527 13.036064 0.000061
v 0.000000 13.036064 0.000061
v 0.000000 13.036064 -2.251526
v 1.346527 13.036064 -2.251526
v 1.346527 13.036064 -1.550224
v 13.641937 13.036064 -1.550224
v 13.641937 17.499733 -1.550224
v 11.912170 13.036064 -1.550262
v 13.052094 7.318714 -1.550224
v 13.641937 4.845634 -1.550224
v 12.975311 16.505714 -1.550224
v 12.656403 14.857662 -1.550224
v 11.976166 13.736412 -1.550224
v 11.763641 11.410858 -1.550224
v 12.886292 9.241711 -1.550224
v 13.139130 6.309044 -1.550224
v 5.952362 0.000000 0.000000
v 3.200500 1.776272 -0.701263
v 1.346527 4.170177 -0.701263
v 4.850159 0.849300 -0.335300
v 3.573456 1.314419 -0.518926
v 2.668518 3.374249 -0.701263
vt 0.291014 0.063184
vt 0.291014 0.063184
vt 0.291014 0.063184
vt 0.291014 0.063184
vt 0.388743 0.063184
vt 0.388743 0.063184
vt 0.388743 0.063184
vt 0.388743 0.063184
vt 0.357177 0.063184
vt 0.357177 0.063184
vt 0.357177 0.063184
vt 0.357177 0.063184
vt 0.357177 0.063184
vt 0.357177 0.063184
vt 0.204826 0.065649
vt 0.204826 0.065649
vt 0.204826 0.065649
vt 0.204826 0.065649
vt 0.204826 0.065649
vt 0.275411 0.063184
vt 0.275410 0.063184
vt 0.275410 0.063184
vt 0.275411 0.063184
vt 0.275411 0.063184
vt 0.275411 0.063184
vt 0.275411 0.063184
vt 0.275411 0.063184
vt 0.265806 0.063184
vt 0.265806 0.063184
vt 0.265806 0.063184
vt 0.265806 0.063184
vt 0.265806 0.063184
vt 0.265806 0.063184
vt 0.265806 0.063184
vt 0.265806 0.063184
vt 0.265806 0.063184
vt 0.265806 0.063184
vt 0.265806 0.063184
vt 0.265806 0.063184
vt 0.265806 0.063184
vt 0.265806 0.063184
vt 0.265806 0.063184
vt 0.265806 0.063184
vt 0.265806 0.063184
vt 0.265806 0.063184
vt 0.265806 0.063184
vt 0.265806 0.063184
vt 0.265806 0.063184
vt 0.265806 0.063184
vt 0.265806 0.063184
vt 0.265806 0.063184
vt 0.265806 0.063184
vt 0.265806 0.063184
vt 0.204826 0.065649
vt 0.204826 0.065649
vt 0.204826 0.065649
vt 0.204826 0.065649
vt 0.290351 0.063184
vt 0.290351 0.063184
vt 0.290351 0.063184
vt 0.290351 0.063184
vt 0.328768 0.063184
vt 0.328768 0.063184
vt 0.328768 0.063184
vt 0.328768 0.063184
vt 0.290351 0.063184
vt 0.290351 0.063184
vt 0.290351 0.063184
vt 0.290351 0.063184
vt 0.204826 0.065649
vt 0.204826 0.065649
vt 0.204826 0.065649
vt 0.204826 0.065649
vt 0.290351 0.063184
vt 0.290351 0.063184
vt 0.290351 0.063184
vt 0.290351 0.063184
vt 0.328768 0.063184
vt 0.328768 0.063184
vt 0.328768 0.063184
vt 0.328768 0.063184
vt 0.290351 0.063184
vt 0.290351 0.063184
vt 0.290351 0.063184
vt 0.290351 0.063184
vt 0.199643 0.063184
vt 0.199643 0.063184
vt 0.199643 0.063184
vt 0.199643 0.063184
vt 0.184703 0.063184
vt 0.184703 0.063184
vt 0.184703 0.063184
vt 0.184703 0.063184
vt 0.199643 0.063184
vt 0.199643 0.063184
vt 0.199643 0.063184
vt 0.199643 0.063184
vt 0.175098 0.063184
vt 0.175098 0.063184
vt 0.175098 0.063184
vt 0.238724 0.063184
vt 0.238724 0.063184
vt 0.238724 0.063184
vt 0.238724 0.063184
vt 0.238724 0.063184
vt 0.238724 0.063184
vt 0.175098 0.063184
vt 0.175098 0.063184
vt 0.175098 0.063184
vt 0.199643 0.063184
vt 0.199643 0.063184
vt 0.199643 0.063184
vt 0.199643 0.063184
vt 0.184703 0.063184
vt 0.184703 0.063184
vt 0.184703 0.063184
vt 0.184703 0.063184
vt 0.199643 0.063184
vt 0.199643 0.063184
vt 0.199643 0.063184
vt 0.199643 0.063184
vt 0.175098 0.063184
vt 0.175098 0.063184
vt 0.175098 0.063184
vt 0.266470 0.063184
vt 0.266470 0.063184
vt 0.266470 0.063184
vt 0.266470 0.063184
vt 0.175098 0.063184
vt 0.175098 0.063184
vt 0.175098 0.063184
vt 0.290351 0.063184
vt 0.290351 0.063184
vt 0.290351 0.063184
vt 0.290351 0.063184
vt 0.275411 0.063184
vt 0.275410 0.063184
vt 0.275410 0.063184
vt 0.275411 0.063184
vt 0.290351 0.063184
vt 0.290351 0.063184
vt 0.290351 0.063184
vt 0.290351 0.063184
vt 0.265806 0.063184
vt 0.265806 0.063184
vt 0.265806 0.063184
vt 0.265806 0.063184
vt 0.330499 0.063184
vt 0.330499 0.063184
vt 0.330499 0.063184
vt 0.330499 0.063184
vt 0.265806 0.063184
vt 0.265806 0.063184
vt 0.265806 0.063184
vt 0.265806 0.063184
vt 0.290351 0.063184
vt 0.290351 0.063184
vt 0.290351 0.063184
vt 0.290351 0.063184
vt 0.275411 0.063184
vt 0.275411 0.063184
vt 0.275411 0.063184
vt 0.275411 0.063184
vt 0.290351 0.063184
vt 0.290351 0.063184
vt 0.290351 0.063184
vt 0.290351 0.063184
vt 0.265806 0.063184
vt 0.265806 0.063184
vt 0.265806 0.063184
vt 0.265806 0.063184
vt 0.330499 0.063184
vt 0.330499 0.063184
vt 0.330499 0.063184
vt 0.330499 0.063184
vt 0.330499 0.063184
vt 0.330499 0.063184
vt 0.265806 0.063184
vt 0.265806 0.063184
vt 0.265806 0.063184
vt 0.265806 0.063184
vt 0.290351 0.063184
vt 0.290351 0.063184
vt 0.290351 0.063184
vt 0.290351 0.063184
vt 0.275411 0.063184
vt 0.275410 0.063184
vt 0.275410 0.063184
vt 0.275411 0.063184
vt 0.290351 0.063184
vt 0.290351 0.063184
vt 0.290351 0.063184
vt 0.290351 0.063184
vt 0.265806 0.063184
vt 0.265806 0.063184
vt 0.265806 0.063184
vt 0.265806 0.063184
vt 0.357177 0.063184
vt 0.357177 0.063184
vt 0.357177 0.063184
vt 0.357177 0.063184
vt 0.265806 0.063184
vt 0.265806 0.063184
vt 0.265806 0.063184
vt 0.265806 0.063184
vt 0.290351 0.063184
vt 0.290351 0.063184
vt 0.290351 0.063184
vt 0.290351 0.063184
vt 0.275411 0.063184
vt 0.275411 0.063184
vt 0.275411 0.063184
vt 0.275411 0.063184
vt 0.290351 0.063184
vt 0.290351 0.063184
vt 0.290351 0.063184
vt 0.290351 0.063184
vt 0.265806 0.063184
vt 0.265806 0.063184
vt 0.265806 0.063184
vt 0.265806 0.063184
vt 0.357177 0.063184
vt 0.357177 0.063184
vt 0.357177 0.063184
vt 0.357177 0.063184
vt 0.357177 0.063184
vt 0.357177 0.063184
vt 0.357177 0.063184
vt 0.357177 0.063184
vt 0.265806 0.063184
vt 0.265806 0.063184
vt 0.265806 0.063184
vt 0.265806 0.063184
vt 0.265806 0.063184
vt 0.291014 0.062117
vt 0.291014 0.062117
vt 0.291014 0.062117
vt 0.291014 0.062117
vt 0.291014 0.062117
vt 0.291014 0.062117
vt 0.264335 0.062117
vt 0.264335 0.062117
vt 0.264335 0.062117
vt 0.264335 0.062117
vt 0.264335 0.062117
vt 0.264335 0.062117
vt 0.291014 0.062117
vt 0.291014 0.062117
vt 0.291014 0.062117
vt 0.291014 0.062117
vt 0.266470 0.063184
vt 0.266470 0.063184
vt 0.266470 0.063184
vt 0.266470 0.063184
vt 0.266470 0.063184
vt 0.266470 0.063184
vt 0.357177 0.063184
vt 0.357177 0.063184
vt 0.357177 0.063184
vt 0.357177 0.063184
vt 0.357177 0.063184
vt 0.357177 0.063184
vn 0.000000 0.000000 1.000000
vn -0.000000 0.000000 1.000000
vn -0.000000 0.000000 1.000000
vn -0.000000 0.000000 1.000000
vn 0.000000 1.000000 0.000000
vn 0.000000 1.000000 0.000000
vn 0.000000 1.000000 0.000000
vn 0.000000 1.000000 0.000000
vn -0.000000 -0.000002 -1.000000
vn 0.000000 -0.000002 -1.000000
vn 0.000000 0.000000 -1.000000
vn 0.000000 0.000000 -1.000000
vn 0.000000 0.000000 -1.000000
vn 0.000000 0.000000 -1.000000
vn 0.000000 -1.000000 0.000000
vn 0.000000 -1.000000 0.000000
vn 0.000000 -1.000000 0.000000
vn 0.000000 -1.000000 0.000000
vn 0.000000 -1.000000 0.000000
vn 1.000000 -0.000000 0.000000
vn 1.000000 -0.000000 0.000000
vn 1.000000 0.000000 0.000000
vn 1.000000 0.000000 0.000000
vn -1.000000 0.000000 0.000000
vn -1.000000 0.000000 0.000000
vn -1.000000 0.000000 0.000000
vn -1.000000 0.000000 0.000000
vn -1.000000 0.000000 0.000000
vn -1.000000 0.000000 0.000000
vn -1.000000 0.000000 0.000000
vn -1.000000 0.000000 0.000000
vn -1.000000 0.000000 0.000000
vn -1.000000 0.000000 0.000000
vn -1.000000 -0.000000 0.000000
vn -1.000000 -0.000000 0.000000
vn -1.000000 0.000000 0.000000
vn -1.000000 0.000000 0.000000
vn -1.000000 0.000000 0.000000
vn -1.000000 0.000000 0.000000
vn -1.000000 0.000000 0.000000
vn 1.000000 -0.000000 0.000000
vn 1.000000 -0.000000 0.000000
vn 1.000000 0.000000 0.000000
vn 1.000000 0.000000 0.000000
vn 1.000000 0.000000 0.000000
vn 1.000000 -0.000000 0.000000
vn 1.000000 -0.000000 0.000000
vn 1.000000 -0.000000 0.000000
vn 1.000000 -0.000000 0.000000
vn 1.000000 0.000000 0.000000
vn 1.000000 0.000000 0.000000
vn 1.000000 0.000000 0.000000
vn 1.000000 0.000000 0.000000
vn 0.000000 -1.000000 0.000000
vn 0.000000 -1.000000 0.000000
vn 0.000000 -1.000000 0.000000
vn 0.000000 -1.000000 0.000000
vn 0.000000 0.000000 -1.000000
vn 0.000000 0.000000 -1.000000
vn 0.000000 0.000000 -1.000000
vn 0.000000 0.000000 -1.000000
vn 0.000000 1.000000 0.000000
vn 0.000000 1.000000 0.000000
vn 0.000000 1.000000 0.000000
vn 0.000000 1.000000 0.000000
vn 0.000000 0.000000 1.000000
vn 0.000000 0.000000 1.000000
vn 0.000000 -0.000008 1.000000
vn 0.000000 -0.000008 1.000000
vn 0.000000 -1.000000 0.000000
vn 0.000000 -1.000000 0.000000
vn 0.000000 -1.000000 0.000000
vn 0.000000 -1.000000 0.000000
vn 0.000000 -0.000008 1.000000
vn 0.000000 -0.000008 1.000000
vn 0.000000 0.000000 1.000000
vn 0.000000 0.000000 1.000000
vn 0.000000 1.000000 0.000000
vn 0.000000 1.000000 0.000000
vn 0.000000 1.000000 0.000000
vn 0.000000 1.000000 0.000000
vn 0.000000 0.000000 -1.000000
vn 0.000000 0.000000 -1.000000
vn 0.000000 0.000000 -1.000000
vn 0.000000 0.000000 -1.000000
vn 0.000000 0.000000 -1.000000
vn 0.000000 0.000000 -1.000000
vn 0.000000 0.000000 -1.000000
vn 0.000000 0.000000 -1.000000
vn -1.000000 0.000000 0.000000
vn -1.000000 0.000000 0.000000
vn -1.000000 0.000000 0.000000
vn -1.000000 0.000000 0.000000
vn 0.000000 -0.000034 1.000000
vn 0.000000 -0.000008 1.000000
vn 0.000000 -0.000008 1.000000
vn 0.000000 -0.000034 1.000000
vn 1.000000 -0.000000 0.000000
vn 1.000000 -0.000000 0.000000
vn 1.000000 -0.000000 0.000000
vn 0.000000 0.367213 0.930137
vn -0.000000 0.367213 0.930137
vn 0.000000 0.367213 0.930137
vn 0.000000 0.367213 0.930137
vn 0.000000 0.367213 0.930137
vn 0.000000 0.367213 0.930137
vn -1.000000 0.000000 0.000000
vn -1.000000 0.000000 0.000000
vn -1.000000 0.000001 0.000000
vn 0.000000 -0.000008 1.000000
vn 0.000000 -0.000008 1.000000
vn 0.000000 -0.000034 1.000000
vn 0.000000 -0.000034 1.000000
vn 1.000000 -0.000000 0.000000
vn 1.000000 -0.000000 0.000000
vn 1.000000 -0.000000 0.000000
vn 1.000000 -0.000000 0.000000
vn 0.000000 0.000000 -1.000000
vn 0.000000 0.000000 -1.000000
vn 0.000000 0.000000 -1.000000
vn 0.000000 0.000000 -1.000000
vn -1.000000 0.000000 0.000000
vn -1.000000 0.000000 0.000000
vn -1.000000 0.000000 0.000000
vn 0.000000 0.367231 -0.930130
vn 0.000000 0.367231 -0.930130
vn 0.000000 0.367231 -0.930130
vn 0.000000 0.367231 -0.930130
vn 1.000000 0.000000 0.000000
vn 1.000000 0.000000 0.000000
vn 1.000000 0.000000 0.000000
vn 0.000000 0.000000 -1.000000
vn 0.000000 0.000000 -1.000000
vn 0.000000 0.000000 -1.000000
vn 0.000000 0.000000 -1.000000
vn 1.000000 0.000000 0.000000
vn 1.000000 0.000000 0.000000
vn 1.000000 0.000000 0.000000
vn 1.000000 0.000000 0.000000
vn 0.000000 0.000005 1.000000
vn 0.000000 0.000005 1.000000
vn 0.000000 0.000000 1.000000
vn 0.000000 0.000000 1.000000
vn -1.000000 -0.000000 0.000000
vn -1.000000 -0.000000 0.000000
vn -1.000000 0.000000 0.000000
vn -1.000000 0.000000 0.000000
vn -0.000000 0.000000 1.000000
vn -0.000000 0.000000 1.000000
vn 0.000000 0.000000 1.000000
vn 0.000000 0.000000 1.000000
vn 1.000000 0.000000 0.000000
vn 1.000000 0.000000 0.000000
vn 1.000000 0.000000 0.000000
vn 1.000000 0.000000 0.000000
vn 0.000000 0.000000 1.000000
vn 0.000000 0.000000 1.000000
vn 0.000000 0.000005 1.000000
vn 0.000000 0.000005 1.000000
vn -1.000000 0.000000 0.000000
vn -1.000000 0.000000 0.000000
vn -1.000000 0.000000 0.000000
vn -1.000000 0.000000 0.000000
vn 0.000000 0.000000 -1.000000
vn 0.000000 0.000000 -1.000000
vn 0.000000 0.000000 -1.000000
vn 0.000000 0.000000 -1.000000
vn 1.000000 0.000000 0.000000
vn 1.000000 0.000000 0.000000
vn 1.000000 0.000000 0.000000
vn 1.000000 0.000000 0.000000
vn -0.000000 0.000000 -1.000000
vn 0.000000 0.000000 -1.000000
vn 0.000000 -0.000003 -1.000000
vn 0.000000 -0.000003 -1.000000
vn 0.000000 -0.000002 -1.000000
vn -0.000000 -0.000002 -1.000000
vn -1.000000 0.000000 0.000000
vn -1.000000 0.000000 0.000000
vn -1.000000 0.000000 0.000000
vn -1.000000 0.000000 0.000000
vn 0.000000 0.000000 -1.000000
vn 0.000000 0.000000 -1.000000
vn 0.000000 0.000000 -1.000000
vn 0.000000 0.000000 -1.000000
vn 1.000000 0.000000 0.000000
vn 1.000000 0.000000 0.000000
vn 1.000000 0.000000 0.000000
vn 1.000000 0.000000 0.000000
vn 0.000000 0.000010 1.000000
vn 0.000000 0.000005 1.000000
vn 0.000000 0.000005 1.000000
vn 0.000000 0.000010 1.000000
vn -1.000000 -0.000000 0.000000
vn -1.000000 -0.000000 0.000000
vn -1.000000 -0.000000 0.000000
vn -1.000000 -0.000000 0.000000
vn 0.000000 0.000000 1.000000
vn 0.000000 0.000000 1.000000
vn 0.000000 0.000000 1.000000
vn 0.000000 0.000000 1.000000
vn 1.000000 0.000000 0.000000
vn 1.000000 0.000000 0.000000
vn 1.000000 -0.000000 0.000000
vn 1.000000 -0.000000 0.000000
vn 0.000000 0.000005 1.000000
vn 0.000000 0.000005 1.000000
vn 0.000000 0.000010 1.000000
vn 0.000000 0.000010 1.000000
vn -1.000000 0.000000 0.000000
vn -1.000000 0.000000 0.000000
vn -1.000000 0.000000 0.000000
vn -1.000000 0.000000 0.000000
vn 0.000000 0.000000 -1.000000
vn 0.000000 0.000000 -1.000000
vn 0.000000 0.000000 -1.000000
vn 0.000000 0.000000 -1.000000
vn 1.000000 -0.000000 0.000000
vn 1.000000 0.000000 0.000000
vn 1.000000 0.000000 0.000000
vn 1.000000 -0.000000 0.000000
vn -0.000000 0.000003 -1.000000
vn -0.000000 0.000003 -1.000000
vn -0.000000 0.000003 -1.000000
vn -0.000000 0.000003 -1.000000
vn -0.000000 0.000003 -1.000000
vn -0.000000 0.000003 -1.000000
vn 0.000000 0.000000 -1.000000
vn -0.000000 0.000000 -1.000000
vn -1.000000 0.000000 0.000000
vn -1.000000 0.000000 0.000000
vn -1.000000 0.000000 0.000000
vn -1.000000 0.000000 0.000000
vn -1.000000 0.000000 0.000000
vn 0.000000 0.000000 -1.000000
vn -0.000000 0.000003 -1.000000
vn -0.000000 0.000003 -1.000000
vn -0.000000 0.000003 -1.000000
vn -0.000000 0.000003 -1.000000
vn 0.000004 -0.000000 -1.000000
vn 0.000000 -0.000002 -1.000000
vn 0.000000 -0.000003 -1.000000
vn 0.000000 -0.000003 -1.000000
vn 0.000000 0.000000 -1.000000
vn 0.000004 -0.000000 -1.000000
vn 0.000004 -0.000004 -1.000000
vn 0.000000 0.000000 -1.000000
vn 0.000000 0.000000 -1.000000
vn 0.000000 -0.000002 -1.000000
vn 0.000004 -0.000004 -1.000000
vn 0.000000 0.367213 0.930137
vn 0.000000 0.367213 0.930137
vn 0.000000 0.367213 0.930137
vn -0.000000 0.367213 0.930137
vn -0.000000 0.367213 0.930137
vn -0.000000 0.367213 0.930137
vn -0.000000 0.000000 1.000000
vn -0.000000 0.000000 1.000000
vn -0.000000 0.000000 1.000000
vn -0.000000 0.000000 1.000000
vn -0.000000 0.000000 1.000000
vn -0.000000 0.000000 1.000000
s off
f 25/1/1 68/2/2 72/3/3 69/4/4
f 3/5/5 4/6/6 6/7/7 5/8/8
f 43/9/9 59/10/10 66/11/11 60/12/12 31/13/13 32/14/14
f 7/15/15 8/16/16 2/17/17 67/18/18 1/19/19
f 28/20/20 29/21/21 34/22/22 35/23/23
f 22/24/24 23/25/25 40/26/26 41/27/27
f 30/28/28 31/29/29 60/30/30 44/31/31 33/32/32
f 6/33/33 4/34/34 10/35/35 9/36/36
f 36/37/37 37/38/38 26/39/39 27/40/40
f 24/41/41 25/42/42 69/43/43 38/44/44 39/45/45
f 3/46/46 5/47/47 12/48/48 11/49/49
f 42/50/50 43/51/51 32/52/52 21/53/53
f 2/54/54 8/55/55 13/56/56 14/57/57
f 29/58/58 30/59/59 33/60/60 34/61/61
f 9/62/62 10/63/63 16/64/64 15/65/65
f 35/66/66 36/67/67 27/68/68 28/69/69
f 7/70/70 1/71/71 18/72/72 17/73/73
f 23/74/74 24/75/75 39/76/76 40/77/77
f 11/78/78 12/79/79 20/80/80 19/81/81
f 41/82/82 42/83/83 21/84/84 22/85/85
f 22/86/86 21/87/87 7/88/88 17/89/89
f 17/90/90 18/91/91 23/92/92 22/93/93
f 1/94/94 24/95/95 23/96/96 18/97/97
f 1/98/98 25/99/99 24/100/100
f 1/101/101 67/102/102 70/103/103 71/104/104 68/105/105 25/106/106
f 27/107/107 26/108/108 2/109/109
f 28/110/110 27/111/111 2/112/112 14/113/113
f 14/114/114 13/115/115 29/116/116 28/117/117
f 8/118/118 30/119/119 29/120/120 13/121/121
f 8/122/122 31/123/123 30/124/124
f 32/125/125 31/126/126 8/127/127 7/128/128
f 21/129/129 32/130/130 7/131/131
f 34/132/132 33/133/133 45/134/134 46/135/135
f 35/136/136 34/137/137 46/138/138 47/139/139
f 47/140/140 48/141/141 36/142/142 35/143/143
f 48/144/144 49/145/145 37/146/146 36/147/147
f 38/148/148 37/149/149 49/150/150 50/151/151
f 39/152/152 38/153/153 50/154/154 51/155/155
f 40/156/156 39/157/157 51/158/158 52/159/159
f 41/160/160 40/161/161 52/162/162 53/163/163
f 53/164/164 54/165/165 42/166/166 41/167/167
f 54/168/168 55/169/169 43/170/170 42/171/171
f 55/172/172 58/173/173 64/174/174 65/175/175 59/176/176 43/177/177
f 33/178/178 44/179/179 56/180/180 45/181/181
f 46/182/182 45/183/183 9/184/184 15/185/185
f 47/186/186 46/187/187 15/188/188 16/189/189
f 10/190/190 48/191/191 47/192/192 16/193/193
f 4/194/194 49/195/195 48/196/196 10/197/197
f 50/198/198 49/199/199 4/200/200 3/201/201
f 51/202/202 50/203/203 3/204/204 11/205/205
f 52/206/206 51/207/207 11/208/208 19/209/209
f 53/210/210 52/211/211 19/212/212 20/213/213
f 12/214/214 54/215/215 53/216/216 20/217/217
f 5/218/218 55/219/219 54/220/220 12/221/221
f 5/222/222 6/223/223 57/224/224 61/225/225 62/226/226 63/227/227 58/228/228 55/229/229
f 45/230/230 56/231/231 57/232/232 6/233/233 9/234/234
f 58/235/235 63/236/236 62/237/237 61/238/238 57/239/239 56/240/240
f 59/241/241 65/242/242 64/243/243 58/244/244 56/245/245 44/246/246
f 60/247/247 66/248/248 59/249/249 44/250/250
f 68/251/251 71/252/252 70/253/253 67/254/254 2/255/255 26/256/256
f 69/257/257 72/258/258 68/259/259 26/260/260 37/261/261 38/262/262
