# This file uses meters as units for non-parametric coordinates.

v -0.144879 -0.001883 0.144894
v 0.144879 -0.001883 0.144894
v -0.198063 0.450916 0.198044
v 0.198041 0.450916 0.198044
v -0.198063 0.450916 -0.198070
v 0.198041 0.450916 -0.198070
v -0.144879 -0.001883 -0.144885
v 0.144879 -0.001883 -0.144885
v -0.214510 0.450916 0.214516
v 0.214510 0.450916 0.214516
v 0.214510 0.450916 -0.214516
v -0.214510 0.450916 -0.214516
v -0.214510 0.537659 0.214516
v 0.214510 0.537659 0.214516
v 0.214510 0.537659 -0.214516
v -0.214510 0.537659 -0.214516
v -0.167267 0.537659 0.167264
v 0.167271 0.537659 0.167264
v 0.167271 0.537659 -0.167264
v -0.167267 0.537659 -0.167264
v -0.167267 0.492083 0.167264
v 0.167271 0.492083 0.167264
v 0.167271 0.492083 -0.167264
v -0.167267 0.492083 -0.167264
vt 0.189650 0.105004
vt 0.233675 0.105004
vt 0.177933 0.109272
vt 0.189650 0.105004
vt 0.233675 0.105004
vt 0.177933 0.109272
vt 0.162819 0.105004
vt 0.233675 0.105004
vt 0.162819 0.105004
vt 0.162819 0.105004
vt 0.189650 0.105004
vt 0.189650 0.105004
vt 0.189650 0.105004
vt 0.189650 0.105004
vt 0.177933 0.109272
vt 0.233675 0.105004
vt 0.233675 0.105004
vt 0.177933 0.109272
vt 0.189650 0.105004
vt 0.233675 0.105004
vt 0.233675 0.105004
vt 0.189650 0.105004
vt 0.162819 0.105004
vt 0.233675 0.105004
vt 0.265241 0.105004
vt 0.237005 0.105004
vt 0.265241 0.105004
vt 0.237005 0.105004
vt 0.319949 0.105004
vt 0.319949 0.105004
vt 0.319949 0.105004
vt 0.319949 0.105004
vt 0.177933 0.109272
vt 0.177933 0.109272
vt 0.177933 0.109272
vt 0.177933 0.109272
vt 0.233833 0.045511
vt 0.177933 0.109272
vt 0.177933 0.109272
vt 0.177933 0.109272
vt 0.177933 0.109272
vt 0.177933 0.109272
vt 0.177933 0.109272
vt 0.233833 0.045511
vt 0.177933 0.109272
vt 0.233833 0.045511
vt 0.319949 0.105004
vt 0.319949 0.105004
vt 0.177933 0.109272
vt 0.177933 0.109272
vt 0.233833 0.045511
vt 0.319949 0.105004
vt 0.319949 0.105004
vt 0.177933 0.109272
vt 0.319949 0.105004
vt 0.319949 0.105004
vt 0.177933 0.109272
vt 0.319949 0.105004
vt 0.319949 0.105004
vt 0.177933 0.109272
vt 0.237005 0.105004
vt 0.265241 0.105004
vt 0.319949 0.105004
vt 0.265241 0.105004
vt 0.237005 0.105004
vt 0.319949 0.105004
vt 0.237005 0.105004
vt 0.265241 0.105004
vt 0.319949 0.105004
vt 0.265241 0.105004
vt 0.237005 0.105004
vt 0.319949 0.105004
vt 0.177933 0.109272
vt 0.177933 0.109272
vt 0.265241 0.105004
vt 0.177933 0.109272
vt 0.177933 0.109272
vt 0.237005 0.105004
vt 0.177933 0.109272
vt 0.177933 0.109272
vt 0.265241 0.105004
vt 0.177933 0.109272
vt 0.177933 0.109272
vt 0.237005 0.105004
vt 0.177933 0.109272
vt 0.177933 0.109272
vt 0.177933 0.109272
vt 0.177933 0.109272
vn 0.000000 -0.116579 0.993181
vn 0.000000 -0.116579 0.993181
vn 0.000000 -0.116579 0.993181
vn 0.000000 -0.116579 0.993181
vn 0.000000 1.000000 0.000000
vn 0.000000 1.000000 0.000000
vn 0.000000 1.000000 0.000000
vn 0.000000 1.000000 0.000000
vn 0.000000 -0.116656 -0.993172
vn 0.000000 -0.116656 -0.993172
vn 0.000000 -0.116656 -0.993172
vn 0.000000 -0.116656 -0.993172
vn 0.000000 -1.000000 0.000000
vn 0.000000 -1.000000 0.000000
vn 0.000000 -1.000000 0.000000
vn 0.000000 -1.000000 0.000000
vn 0.993178 -0.116608 0.000000
vn 0.993178 -0.116608 0.000000
vn 0.993178 -0.116608 0.000000
vn 0.993178 -0.116608 0.000000
vn -0.993172 -0.116656 0.000000
vn -0.993172 -0.116656 0.000000
vn -0.993173 -0.116656 0.000000
vn -0.993172 -0.116656 0.000000
vn 0.000000 -1.000000 -0.000000
vn 0.000000 -1.000000 -0.000000
vn 0.000000 -1.000000 -0.000000
vn 0.000000 -1.000000 -0.000000
vn 0.000000 -1.000000 -0.000000
vn 0.000000 -1.000000 0.000000
vn 0.000000 -1.000000 0.000000
vn 0.000000 -1.000000 -0.000000
vn 0.000000 -1.000000 0.000000
vn 0.000000 -1.000000 0.000000
vn 0.000000 -1.000000 0.000000
vn 0.000000 -1.000000 0.000000
vn 0.000000 -1.000000 0.000000
vn 0.000000 -1.000000 -0.000000
vn 0.000000 -1.000000 -0.000000
vn 0.000000 -1.000000 0.000000
vn 0.000000 0.000000 1.000000
vn 0.000000 0.000000 1.000000
vn 0.000000 0.000000 1.000000
vn 0.000000 0.000000 1.000000
vn 1.000000 0.000000 0.000000
vn 1.000000 0.000000 0.000000
vn 1.000000 0.000000 0.000000
vn 1.000000 0.000000 0.000000
vn 0.000000 0.000000 -1.000000
vn 0.000000 0.000000 -1.000000
vn 0.000000 0.000000 -1.000000
vn 0.000000 0.000000 -1.000000
vn -1.000000 0.000000 0.000000
vn -1.000000 0.000000 0.000000
vn -1.000000 0.000000 0.000000
vn -1.000000 0.000000 0.000000
vn 0.000000 1.000000 -0.000000
vn 0.000000 1.000000 -0.000000
vn 0.000000 1.000000 -0.000000
vn 0.000000 1.000000 -0.000000
vn 0.000000 1.000000 -0.000000
vn 0.000000 1.000000 0.000000
vn 0.000000 1.000000 0.000000
vn 0.000000 1.000000 -0.000000
vn 0.000000 1.000000 0.000000
vn 0.000000 1.000000 0.000000
vn 0.000000 1.000000 0.000000
vn 0.000000 1.000000 0.000000
vn 0.000000 1.000000 0.000000
vn 0.000000 1.000000 -0.000000
vn 0.000000 1.000000 -0.000000
vn 0.000000 1.000000 0.000000
vn 0.000000 0.000000 -1.000000
vn 0.000000 0.000000 -1.000000
vn 0.000000 0.000000 -1.000000
vn 0.000000 0.000000 -1.000000
vn -1.000000 0.000000 0.000000
vn -1.000000 0.000000 0.000000
vn -1.000000 0.000000 0.000000
vn -1.000000 0.000000 0.000000
vn 0.000000 0.000000 1.000000
vn 0.000000 0.000000 1.000000
vn 0.000000 0.000000 1.000000
vn 0.000000 0.000000 1.000000
vn 1.000000 0.000000 0.000000
vn 1.000000 0.000000 0.000000
vn 1.000000 0.000000 0.000000
vn 1.000000 0.000000 0.000000
s off
f 1/20/1 2/2/2 4/21/3 3/17/4
f 21/37/5 22/44/6 23/46/7 24/51/8
f 5/5/9 6/16/10 8/8/11 7/24/12
f 7/7/13 8/23/14 2/10/15 1/9/16
f 2/19/17 8/11/18 6/12/19 4/4/20
f 7/13/21 1/1/22 3/22/23 5/14/24
f 3/3/25 4/87/26 10/80/27 9/82/28
f 4/15/29 6/86/30 11/77/31 10/79/32
f 6/6/33 5/85/34 12/74/35 11/76/36
f 5/18/37 3/88/38 9/83/39 12/73/40
f 9/25/41 10/81/42 14/68/43 13/70/44
f 10/26/45 11/78/46 15/65/47 14/67/48
f 11/27/49 12/75/50 16/62/51 15/64/52
f 12/28/53 9/84/54 13/71/55 16/61/56
f 13/29/57 14/69/58 18/56/59 17/58/60
f 14/30/61 15/66/62 19/53/63 18/55/64
f 15/31/65 16/63/66 20/48/67 19/52/68
f 16/32/69 13/72/70 17/59/71 20/47/72
f 17/33/73 18/57/74 22/50/75 21/41/76
f 18/34/77 19/54/78 23/45/79 22/38/80
f 19/35/81 20/49/82 24/43/83 23/39/84
f 20/36/85 17/60/86 21/42/87 24/40/88
