# This file uses meters as units for non-parametric coordinates.

v -0.028633 0.000000 5.463699
v -0.028633 6.168478 5.463699
v -0.429367 0.000000 5.463699
v -0.429367 6.168478 5.463699
v -0.429367 0.000000 5.062958
v -0.429367 6.168478 5.062958
v -0.028633 0.000000 5.062958
v -0.028633 6.168478 5.062958
v -0.964737 5.429110 3.951088
v -0.964737 4.896591 3.951088
v -0.828949 5.429110 3.951088
v -0.828949 4.896591 3.951088
v -0.828949 5.429110 3.457710
v -0.828949 4.896591 3.457710
v -0.964737 5.429110 3.457710
v -0.964737 4.896591 3.457710
v -0.828949 5.321773 3.833984
v -0.828949 4.896591 3.833984
v -0.828949 4.896591 3.574821
v -0.828949 5.321773 3.574821
v -0.964737 5.321773 3.574821
v -0.964737 4.896591 3.574821
v -0.964737 4.896591 3.833984
v -0.964737 5.321773 3.833984
v -0.964737 5.429110 2.381874
v -0.964737 4.896591 2.381874
v -0.828949 5.429110 2.381874
v -0.828949 4.896591 2.381874
v -0.828949 5.429110 1.888496
v -0.828949 4.896591 1.888496
v -0.964737 5.429110 1.888496
v -0.964737 4.896591 1.888496
v -0.828949 5.321773 2.264771
v -0.828949 4.896591 2.264771
v -0.828949 4.896591 2.005608
v -0.828949 5.321773 2.005608
v -0.964737 5.321773 2.005608
v -0.964737 4.896591 2.005608
v -0.964737 4.896591 2.264771
v -0.964737 5.321773 2.264771
v -1.400711 0.054639 4.470665
v -0.400711 0.054639 4.470665
v -1.117279 4.978785 4.470665
v -0.684143 4.978785 4.470665
v -1.117279 4.978785 1.314667
v -0.684143 4.978785 1.314667
v -1.400711 0.054639 1.314667
v -0.400711 0.054639 1.314667
v -0.454018 0.008890 2.907310
v -0.454018 0.008890 4.851379
v -0.454018 6.326086 2.907310
v -0.454018 6.326086 4.851379
v -0.295387 6.326086 2.907310
v -0.295387 6.326086 4.851379
v -0.295387 0.008890 2.907310
v -0.295387 0.008890 4.851379
v -0.454018 0.008890 0.816505
v -0.454018 0.008890 2.760574
v -0.454018 6.326086 0.816505
v -0.454018 6.326086 2.760574
v -0.295387 6.326086 0.816505
v -0.295387 6.326086 2.760574
v -0.295387 0.008890 0.816505
v -0.295387 0.008890 2.760574
v -0.005943 3.717951 5.337456
v -0.005943 3.322695 5.337456
v 0.084000 3.717951 5.337456
v 0.084000 3.322695 5.337456
v 0.084000 3.717951 0.079826
v 0.084000 3.322695 0.079826
v -0.005943 3.717951 0.079826
v -0.005943 3.322695 0.079826
v 0.074257 3.557696 5.221230
v 0.074257 3.471536 5.221230
v 0.125023 3.557696 5.221230
v 0.125023 3.471536 5.221230
v 0.125023 3.557696 5.135078
v 0.125023 3.471536 5.135078
v 0.074257 3.557696 5.135078
v 0.074257 3.471536 5.135078
v 0.074257 3.545784 0.314247
v 0.074257 3.459624 0.314247
v 0.125023 3.545784 0.314247
v 0.125023 3.459624 0.314247
v 0.125023 3.545784 0.228088
v 0.125023 3.459624 0.228088
v 0.074257 3.545784 0.228088
v 0.074257 3.459624 0.228088
v 0.000000 0.000000 0.457993
v 0.000000 6.197694 0.457993
v -0.457993 0.000000 0.457993
v -0.457993 6.197694 0.457993
v -0.457993 0.000000 0.000000
v -0.457993 6.197694 0.000000
v 0.000000 0.000000 0.000000
v 0.000000 6.197694 0.000000
vt 0.171740 0.399610
vt 0.171740 0.399610
vt 0.171740 0.399610
vt 0.171740 0.399610
vt 0.203708 0.399610
vt 0.203708 0.399610
vt 0.203708 0.399610
vt 0.203708 0.399610
vt 0.171740 0.399610
vt 0.171740 0.399610
vt 0.171740 0.399610
vt 0.171740 0.399610
vt 0.203708 0.399610
vt 0.203708 0.399610
vt 0.203708 0.399610
vt 0.203708 0.399610
vt 0.422691 0.399377
vt 0.422691 0.399377
vt 0.422691 0.399377
vt 0.422691 0.399377
vt 0.138353 0.399610
vt 0.138353 0.399610
vt 0.138353 0.399610
vt 0.138353 0.399610
vt 0.233002 0.060201
vt 0.233002 0.060201
vt 0.233002 0.060201
vt 0.233002 0.060201
vt 0.233002 0.060201
vt 0.233002 0.060201
vt 0.233002 0.060201
vt 0.233002 0.060201
vt 0.323967 0.060201
vt 0.323968 0.060201
vt 0.323968 0.060201
vt 0.323967 0.060201
vt 0.295341 0.063734
vt 0.295341 0.063734
vt 0.295341 0.063734
vt 0.295341 0.063734
vt 0.295341 0.063734
vt 0.295341 0.063734
vt 0.295341 0.063734
vt 0.295341 0.063734
vt 0.295341 0.063734
vt 0.295341 0.063734
vt 0.295341 0.063734
vt 0.295341 0.063734
vt 0.295341 0.063734
vt 0.295341 0.063734
vt 0.295341 0.063734
vt 0.295341 0.063734
vt 0.201941 0.061316
vt 0.201941 0.061316
vt 0.201941 0.061316
vt 0.201941 0.061316
vt 0.201941 0.061316
vt 0.201941 0.061316
vt 0.201941 0.061316
vt 0.201941 0.061316
vt 0.201941 0.061316
vt 0.201941 0.061316
vt 0.201941 0.061316
vt 0.201941 0.061316
vt 0.233002 0.060201
vt 0.233002 0.060201
vt 0.233002 0.060201
vt 0.233002 0.060201
vt 0.233002 0.060201
vt 0.233002 0.060201
vt 0.233002 0.060201
vt 0.233002 0.060201
vt 0.323967 0.060201
vt 0.323968 0.060201
vt 0.323968 0.060201
vt 0.323967 0.060201
vt 0.295341 0.063734
vt 0.295341 0.063734
vt 0.295341 0.063734
vt 0.295341 0.063734
vt 0.295341 0.063734
vt 0.295341 0.063734
vt 0.295341 0.063734
vt 0.295341 0.063734
vt 0.295341 0.063734
vt 0.295341 0.063734
vt 0.295341 0.063734
vt 0.295341 0.063734
vt 0.295341 0.063734
vt 0.295341 0.063734
vt 0.295341 0.063734
vt 0.295341 0.063734
vt 0.201941 0.061316
vt 0.201941 0.061316
vt 0.201941 0.061316
vt 0.201941 0.061316
vt 0.201941 0.061316
vt 0.201941 0.061316
vt 0.201941 0.061316
vt 0.201941 0.061316
vt 0.201941 0.061316
vt 0.201941 0.061316
vt 0.201941 0.061316
vt 0.201941 0.061316
vt 0.357177 0.063184
vt 0.357177 0.063184
vt 0.357177 0.063184
vt 0.357177 0.063184
vt 0.388743 0.063184
vt 0.388743 0.063184
vt 0.388743 0.063184
vt 0.388743 0.063184
vt 0.357177 0.063184
vt 0.357177 0.063184
vt 0.357177 0.063184
vt 0.357177 0.063184
vt 0.301937 0.063184
vt 0.301937 0.063184
vt 0.301937 0.063184
vt 0.301937 0.063184
vt 0.328768 0.063184
vt 0.328768 0.063184
vt 0.328768 0.063184
vt 0.328768 0.063184
vt 0.328768 0.063184
vt 0.328768 0.063184
vt 0.328768 0.063184
vt 0.328768 0.063184
vt 0.322676 0.399571
vt 0.322676 0.399571
vt 0.322676 0.399571
vt 0.322676 0.399571
vt 0.354242 0.399571
vt 0.354242 0.399571
vt 0.354242 0.399571
vt 0.354242 0.399571
vt 0.322676 0.399571
vt 0.322676 0.399571
vt 0.322676 0.399571
vt 0.322676 0.399571
vt 0.267436 0.399571
vt 0.267436 0.399571
vt 0.267436 0.399571
vt 0.267436 0.399571
vt 0.294267 0.399571
vt 0.294267 0.399571
vt 0.294267 0.399571
vt 0.294267 0.399571
vt 0.294267 0.399571
vt 0.294267 0.399571
vt 0.294267 0.399571
vt 0.294267 0.399571
vt 0.322676 0.399571
vt 0.322676 0.399571
vt 0.322676 0.399571
vt 0.322676 0.399571
vt 0.354242 0.399571
vt 0.354242 0.399571
vt 0.354242 0.399571
vt 0.354242 0.399571
vt 0.322676 0.399571
vt 0.322676 0.399571
vt 0.322676 0.399571
vt 0.322676 0.399571
vt 0.267436 0.399571
vt 0.267436 0.399571
vt 0.267436 0.399571
vt 0.267436 0.399571
vt 0.294267 0.399571
vt 0.294267 0.399571
vt 0.294267 0.399571
vt 0.294267 0.399571
vt 0.294267 0.399571
vt 0.294267 0.399571
vt 0.294267 0.399571
vt 0.294267 0.399571
vt 0.268691 0.063549
vt 0.268691 0.063549
vt 0.268691 0.063549
vt 0.268691 0.063549
vt 0.355818 0.063549
vt 0.355818 0.063549
vt 0.355818 0.063549
vt 0.355818 0.063549
vt 0.268691 0.063549
vt 0.268691 0.063549
vt 0.268691 0.063549
vt 0.268691 0.063549
vt 0.296205 0.063549
vt 0.296205 0.063549
vt 0.296205 0.063549
vt 0.296205 0.063549
vt 0.299644 0.062403
vt 0.299644 0.062403
vt 0.299644 0.062403
vt 0.299644 0.062403
vt 0.299644 0.062403
vt 0.299644 0.062403
vt 0.299644 0.062403
vt 0.299644 0.062403
vt 0.331744 0.063549
vt 0.331744 0.063549
vt 0.331744 0.063549
vt 0.331744 0.063549
vt 0.452117 0.063549
vt 0.452117 0.063549
vt 0.452117 0.063549
vt 0.452117 0.063549
vt 0.331744 0.063549
vt 0.331744 0.063549
vt 0.331744 0.063549
vt 0.331744 0.063549
vt 0.331744 0.063549
vt 0.331744 0.063549
vt 0.331744 0.063549
vt 0.331744 0.063549
vt 0.362697 0.062403
vt 0.362697 0.062403
vt 0.362697 0.062403
vt 0.362697 0.062403
vt 0.362697 0.062403
vt 0.362697 0.062403
vt 0.362697 0.062403
vt 0.362697 0.062403
vt 0.331744 0.063549
vt 0.331744 0.063549
vt 0.331744 0.063549
vt 0.331744 0.063549
vt 0.452117 0.063549
vt 0.452117 0.063549
vt 0.452117 0.063549
vt 0.452117 0.063549
vt 0.331744 0.063549
vt 0.331744 0.063549
vt 0.331744 0.063549
vt 0.331744 0.063549
vt 0.331744 0.063549
vt 0.331744 0.063549
vt 0.331744 0.063549
vt 0.331744 0.063549
vt 0.362697 0.062403
vt 0.362697 0.062403
vt 0.362697 0.062403
vt 0.362697 0.062403
vt 0.362697 0.062403
vt 0.362697 0.062403
vt 0.362697 0.062403
vt 0.362697 0.062403
vt 0.171740 0.399610
vt 0.171740 0.399610
vt 0.171740 0.399610
vt 0.171740 0.399610
vt 0.203708 0.399610
vt 0.203708 0.399610
vt 0.203708 0.399610
vt 0.203708 0.399610
vt 0.171740 0.399610
vt 0.171740 0.399610
vt 0.171740 0.399610
vt 0.171740 0.399610
vt 0.203708 0.399610
vt 0.203708 0.399610
vt 0.203708 0.399610
vt 0.203708 0.399610
vt 0.422691 0.399377
vt 0.422691 0.399377
vt 0.422691 0.399377
vt 0.422691 0.399377
vt 0.138353 0.399610
vt 0.138353 0.399610
vt 0.138353 0.399610
vt 0.138353 0.399610
vn 0.000000 0.000000 1.000000
vn 0.000000 0.000000 1.000000
vn 0.000000 0.000000 1.000000
vn 0.000000 0.000000 1.000000
vn -1.000000 0.000000 0.000000
vn -1.000000 0.000000 0.000000
vn -1.000000 0.000000 0.000000
vn -1.000000 0.000000 0.000000
vn 0.000000 0.000000 -1.000000
vn 0.000000 0.000000 -1.000000
vn 0.000000 0.000000 -1.000000
vn 0.000000 0.000000 -1.000000
vn 1.000000 0.000000 0.000000
vn 1.000000 0.000000 0.000000
vn 1.000000 0.000000 0.000000
vn 1.000000 0.000000 0.000000
vn 0.000000 1.000000 0.000000
vn 0.000000 1.000000 0.000000
vn 0.000000 1.000000 0.000000
vn 0.000000 1.000000 0.000000
vn 0.000000 -1.000000 0.000000
vn 0.000000 -1.000000 0.000000
vn 0.000000 -1.000000 0.000000
vn 0.000000 -1.000000 0.000000
vn 0.000000 0.000000 1.000000
vn 0.000000 0.000000 1.000000
vn 0.000000 0.000000 1.000000
vn 0.000000 0.000000 1.000000
vn 0.000000 0.000000 -1.000000
vn 0.000000 0.000000 -1.000000
vn 0.000000 0.000000 -1.000000
vn 0.000000 0.000000 -1.000000
vn 0.000000 1.000000 0.000000
vn 0.000000 1.000000 0.000000
vn 0.000000 1.000000 0.000000
vn 0.000000 1.000000 0.000000
vn 1.000000 -0.000000 0.000000
vn 1.000000 0.000000 0.000000
vn 1.000000 0.000000 0.000000
vn 1.000000 -0.000000 0.000000
vn 1.000000 0.000000 0.000000
vn 1.000000 -0.000000 0.000000
vn 1.000000 -0.000000 0.000000
vn 1.000000 0.000000 0.000000
vn 1.000000 -0.000000 0.000000
vn 1.000000 -0.000000 0.000000
vn 1.000000 -0.000000 0.000000
vn 1.000000 -0.000000 0.000000
vn -1.000000 -0.000000 0.000000
vn -1.000000 0.000000 0.000000
vn -1.000000 0.000000 0.000000
vn -1.000000 -0.000000 0.000000
vn -1.000000 0.000000 0.000000
vn -1.000000 -0.000000 0.000000
vn -1.000000 -0.000000 0.000000
vn -1.000000 0.000000 0.000000
vn -1.000000 -0.000000 0.000000
vn -1.000000 -0.000000 0.000000
vn -1.000000 -0.000000 0.000000
vn -1.000000 -0.000000 0.000000
vn 0.000000 0.000000 1.000000
vn 0.000000 0.000000 1.000000
vn 0.000000 0.000000 1.000000
vn 0.000000 0.000000 1.000000
vn 0.000000 -1.000000 0.000000
vn 0.000000 -1.000000 0.000000
vn 0.000000 -1.000000 0.000000
vn 0.000000 -1.000000 0.000000
vn 0.000000 0.000000 -1.000000
vn 0.000000 0.000000 -1.000000
vn 0.000000 0.000000 -1.000000
vn 0.000000 0.000000 -1.000000
vn 0.000000 0.000000 1.000000
vn 0.000000 0.000000 1.000000
vn 0.000000 0.000000 1.000000
vn 0.000000 0.000000 1.000000
vn 0.000000 0.000000 -1.000000
vn 0.000000 0.000000 -1.000000
vn 0.000000 0.000000 -1.000000
vn 0.000000 0.000000 -1.000000
vn 0.000000 1.000000 0.000000
vn 0.000000 1.000000 0.000000
vn 0.000000 1.000000 0.000000
vn 0.000000 1.000000 0.000000
vn 1.000000 -0.000000 0.000000
vn 1.000000 0.000000 0.000000
vn 1.000000 0.000000 0.000000
vn 1.000000 -0.000000 0.000000
vn 1.000000 0.000000 0.000000
vn 1.000000 -0.000000 0.000000
vn 1.000000 -0.000000 0.000000
vn 1.000000 0.000000 0.000000
vn 1.000000 -0.000000 0.000000
vn 1.000000 -0.000000 0.000000
vn 1.000000 -0.000000 0.000000
vn 1.000000 -0.000000 0.000000
vn -1.000000 -0.000000 0.000000
vn -1.000000 0.000000 0.000000
vn -1.000000 0.000000 0.000000
vn -1.000000 -0.000000 0.000000
vn -1.000000 0.000000 0.000000
vn -1.000000 -0.000000 0.000000
vn -1.000000 -0.000000 0.000000
vn -1.000000 0.000000 0.000000
vn -1.000000 -0.000000 0.000000
vn -1.000000 -0.000000 0.000000
vn -1.000000 -0.000000 0.000000
vn -1.000000 -0.000000 0.000000
vn 0.000000 0.000000 1.000000
vn 0.000000 0.000000 1.000000
vn 0.000000 0.000000 1.000000
vn 0.000000 0.000000 1.000000
vn 0.000000 -1.000000 0.000000
vn 0.000000 -1.000000 0.000000
vn 0.000000 -1.000000 0.000000
vn 0.000000 -1.000000 0.000000
vn 0.000000 0.000000 -1.000000
vn 0.000000 0.000000 -1.000000
vn 0.000000 0.000000 -1.000000
vn 0.000000 0.000000 -1.000000
vn 0.000000 0.000000 1.000000
vn 0.000000 0.000000 1.000000
vn 0.000000 0.000000 1.000000
vn 0.000000 0.000000 1.000000
vn 0.000000 1.000000 0.000000
vn 0.000000 1.000000 0.000000
vn 0.000000 1.000000 0.000000
vn 0.000000 1.000000 0.000000
vn 0.000000 0.000000 -1.000000
vn 0.000000 0.000000 -1.000000
vn 0.000000 0.000000 -1.000000
vn 0.000000 0.000000 -1.000000
vn 0.000000 -1.000000 0.000000
vn 0.000000 -1.000000 0.000000
vn 0.000000 -1.000000 0.000000
vn 0.000000 -1.000000 0.000000
vn 0.998348 0.057465 0.000000
vn 0.998348 0.057465 0.000000
vn 0.998348 0.057465 0.000000
vn 0.998348 0.057465 0.000000
vn -0.998348 0.057465 0.000000
vn -0.998348 0.057465 0.000000
vn -0.998348 0.057465 0.000000
vn -0.998348 0.057465 0.000000
vn -1.000000 0.000000 0.000000
vn -1.000000 0.000000 0.000000
vn -1.000000 0.000000 0.000000
vn -1.000000 0.000000 0.000000
vn 0.000000 1.000000 0.000000
vn 0.000000 1.000000 0.000000
vn 0.000000 1.000000 0.000000
vn 0.000000 1.000000 0.000000
vn 1.000000 0.000000 0.000000
vn 1.000000 0.000000 0.000000
vn 1.000000 0.000000 0.000000
vn 1.000000 0.000000 0.000000
vn 0.000000 -1.000000 0.000000
vn 0.000000 -1.000000 0.000000
vn 0.000000 -1.000000 0.000000
vn 0.000000 -1.000000 0.000000
vn 0.000000 0.000000 1.000000
vn 0.000000 0.000000 1.000000
vn 0.000000 0.000000 1.000000
vn 0.000000 0.000000 1.000000
vn 0.000000 0.000000 -1.000000
vn 0.000000 0.000000 -1.000000
vn 0.000000 0.000000 -1.000000
vn 0.000000 0.000000 -1.000000
vn -1.000000 0.000000 0.000000
vn -1.000000 0.000000 0.000000
vn -1.000000 0.000000 0.000000
vn -1.000000 0.000000 0.000000
vn 0.000000 1.000000 0.000000
vn 0.000000 1.000000 0.000000
vn 0.000000 1.000000 0.000000
vn 0.000000 1.000000 0.000000
vn 1.000000 0.000000 0.000000
vn 1.000000 0.000000 0.000000
vn 1.000000 0.000000 0.000000
vn 1.000000 0.000000 0.000000
vn 0.000000 -1.000000 0.000000
vn 0.000000 -1.000000 0.000000
vn 0.000000 -1.000000 0.000000
vn 0.000000 -1.000000 0.000000
vn 0.000000 0.000000 1.000000
vn 0.000000 0.000000 1.000000
vn 0.000000 0.000000 1.000000
vn 0.000000 0.000000 1.000000
vn 0.000000 0.000000 -1.000000
vn 0.000000 0.000000 -1.000000
vn 0.000000 0.000000 -1.000000
vn 0.000000 0.000000 -1.000000
vn 0.000000 0.000000 1.000000
vn 0.000000 0.000000 1.000000
vn 0.000000 0.000000 1.000000
vn 0.000000 0.000000 1.000000
vn 1.000000 0.000000 0.000000
vn 1.000000 0.000000 0.000000
vn 1.000000 0.000000 0.000000
vn 1.000000 0.000000 0.000000
vn 0.000000 0.000000 -1.000000
vn 0.000000 0.000000 -1.000000
vn 0.000000 0.000000 -1.000000
vn 0.000000 0.000000 -1.000000
vn -1.000000 0.000000 0.000000
vn -1.000000 0.000000 0.000000
vn -1.000000 0.000000 0.000000
vn -1.000000 0.000000 0.000000
vn 0.000000 -1.000000 0.000000
vn 0.000000 -1.000000 0.000000
vn 0.000000 -1.000000 0.000000
vn 0.000000 -1.000000 0.000000
vn 0.000000 1.000000 0.000000
vn 0.000000 1.000000 0.000000
vn 0.000000 1.000000 0.000000
vn 0.000000 1.000000 0.000000
vn 0.000000 0.000000 1.000000
vn 0.000000 0.000000 1.000000
vn 0.000000 0.000000 1.000000
vn 0.000000 0.000000 1.000000
vn 1.000000 0.000000 0.000000
vn 1.000000 0.000000 0.000000
vn 1.000000 0.000000 0.000000
vn 1.000000 0.000000 0.000000
vn 0.000000 0.000000 -1.000000
vn 0.000000 0.000000 -1.000000
vn 0.000000 0.000000 -1.000000
vn 0.000000 0.000000 -1.000000
vn -1.000000 0.000000 0.000000
vn -1.000000 0.000000 0.000000
vn -1.000000 0.000000 0.000000
vn -1.000000 0.000000 0.000000
vn 0.000000 -1.000000 0.000000
vn 0.000000 -1.000000 0.000000
vn 0.000000 -1.000000 0.000000
vn 0.000000 -1.000000 0.000000
vn 0.000000 1.000000 0.000000
vn 0.000000 1.000000 0.000000
vn 0.000000 1.000000 0.000000
vn 0.000000 1.000000 0.000000
vn 0.000000 0.000000 1.000000
vn 0.000000 0.000000 1.000000
vn 0.000000 0.000000 1.000000
vn 0.000000 0.000000 1.000000
vn 1.000000 0.000000 0.000000
vn 1.000000 0.000000 0.000000
vn 1.000000 0.000000 0.000000
vn 1.000000 0.000000 0.000000
vn 0.000000 0.000000 -1.000000
vn 0.000000 0.000000 -1.000000
vn 0.000000 0.000000 -1.000000
vn 0.000000 0.000000 -1.000000
vn -1.000000 0.000000 0.000000
vn -1.000000 0.000000 0.000000
vn -1.000000 0.000000 0.000000
vn -1.000000 0.000000 0.000000
vn 0.000000 -1.000000 0.000000
vn 0.000000 -1.000000 0.000000
vn 0.000000 -1.000000 0.000000
vn 0.000000 -1.000000 0.000000
vn 0.000000 1.000000 0.000000
vn 0.000000 1.000000 0.000000
vn 0.000000 1.000000 0.000000
vn 0.000000 1.000000 0.000000
vn 0.000000 0.000000 1.000000
vn 0.000000 0.000000 1.000000
vn 0.000000 0.000000 1.000000
vn 0.000000 0.000000 1.000000
vn -1.000000 0.000000 0.000000
vn -1.000000 0.000000 0.000000
vn -1.000000 0.000000 0.000000
vn -1.000000 0.000000 0.000000
vn 0.000000 0.000000 -1.000000
vn 0.000000 0.000000 -1.000000
vn 0.000000 0.000000 -1.000000
vn 0.000000 0.000000 -1.000000
vn 1.000000 0.000000 0.000000
vn 1.000000 0.000000 0.000000
vn 1.000000 0.000000 0.000000
vn 1.000000 0.000000 0.000000
vn 0.000000 1.000000 0.000000
vn 0.000000 1.000000 0.000000
vn 0.000000 1.000000 0.000000
vn 0.000000 1.000000 0.000000
vn 0.000000 -1.000000 0.000000
vn 0.000000 -1.000000 0.000000
vn 0.000000 -1.000000 0.000000
vn 0.000000 -1.000000 0.000000
s off
f 1/1/1 2/2/2 4/3/3 3/4/4
f 3/5/5 4/6/6 6/7/7 5/8/8
f 5/9/9 6/10/10 8/11/11 7/12/12
f 7/13/13 8/14/14 2/15/15 1/16/16
f 2/17/17 8/18/18 6/19/19 4/20/20
f 7/21/21 1/22/22 3/23/23 5/24/24
f 9/25/25 10/26/26 12/27/27 11/28/28
f 13/29/29 14/30/30 16/31/31 15/32/32
f 15/33/33 9/34/34 11/35/35 13/36/36
f 11/37/37 12/38/38 18/39/39 17/40/40
f 14/41/41 13/42/42 20/43/43 19/44/44
f 13/42/45 11/37/46 17/40/47 20/43/48
f 15/45/49 16/46/50 22/47/51 21/48/52
f 10/49/53 9/50/54 24/51/55 23/52/56
f 9/50/57 15/45/58 21/48/59 24/51/60
f 19/53/61 20/54/62 21/55/63 22/56/64
f 20/57/65 17/58/66 24/59/67 21/60/68
f 18/61/69 23/62/70 24/63/71 17/64/72
f 25/65/73 26/66/74 28/67/75 27/68/76
f 29/69/77 30/70/78 32/71/79 31/72/80
f 31/73/81 25/74/82 27/75/83 29/76/84
f 27/77/85 28/78/86 34/79/87 33/80/88
f 30/81/89 29/82/90 36/83/91 35/84/92
f 29/82/93 27/77/94 33/80/95 36/83/96
f 31/85/97 32/86/98 38/87/99 37/88/100
f 26/89/101 25/90/102 40/91/103 39/92/104
f 25/90/105 31/85/106 37/88/107 40/91/108
f 35/93/109 36/94/110 37/95/111 38/96/112
f 36/97/113 33/98/114 40/99/115 37/100/116
f 34/101/117 39/102/118 40/103/119 33/104/120
f 41/105/121 42/106/122 44/107/123 43/108/124
f 43/109/125 44/110/126 46/111/127 45/112/128
f 45/113/129 46/114/130 48/115/131 47/116/132
f 47/117/133 48/118/134 42/119/135 41/120/136
f 42/121/137 48/122/138 46/123/139 44/124/140
f 47/125/141 41/126/142 43/127/143 45/128/144
f 49/129/145 50/130/146 52/131/147 51/132/148
f 51/133/149 52/134/150 54/135/151 53/136/152
f 53/137/153 54/138/154 56/139/155 55/140/156
f 55/141/157 56/142/158 50/143/159 49/144/160
f 50/145/161 56/146/162 54/147/163 52/148/164
f 55/149/165 49/150/166 51/151/167 53/152/168
f 57/153/169 58/154/170 60/155/171 59/156/172
f 59/157/173 60/158/174 62/159/175 61/160/176
f 61/161/177 62/162/178 64/163/179 63/164/180
f 63/165/181 64/166/182 58/167/183 57/168/184
f 58/169/185 64/170/186 62/171/187 60/172/188
f 63/173/189 57/174/190 59/175/191 61/176/192
f 65/177/193 66/178/194 68/179/195 67/180/196
f 67/181/197 68/182/198 70/183/199 69/184/200
f 69/185/201 70/186/202 72/187/203 71/188/204
f 71/189/205 72/190/206 66/191/207 65/192/208
f 66/193/209 72/194/210 70/195/211 68/196/212
f 71/197/213 65/198/214 67/199/215 69/200/216
f 73/201/217 74/202/218 76/203/219 75/204/220
f 75/205/221 76/206/222 78/207/223 77/208/224
f 77/209/225 78/210/226 80/211/227 79/212/228
f 79/213/229 80/214/230 74/215/231 73/216/232
f 74/217/233 80/218/234 78/219/235 76/220/236
f 79/221/237 73/222/238 75/223/239 77/224/240
f 81/225/241 82/226/242 84/227/243 83/228/244
f 83/229/245 84/230/246 86/231/247 85/232/248
f 85/233/249 86/234/250 88/235/251 87/236/252
f 87/237/253 88/238/254 82/239/255 81/240/256
f 82/241/257 88/242/258 86/243/259 84/244/260
f 87/245/261 81/246/262 83/247/263 85/248/264
f 89/249/265 90/250/266 92/251/267 91/252/268
f 91/253/269 92/254/270 94/255/271 93/256/272
f 93/257/273 94/258/274 96/259/275 95/260/276
f 95/261/277 96/262/278 90/263/279 89/264/280
f 90/265/281 96/266/282 94/267/283 92/268/284
f 95/269/285 89/270/286 91/271/287 93/272/288
