# This file uses meters as units for non-parametric coordinates.

v 0.443619 0.790224 0.588198
v 0.443619 0.790224 -0.330454
v 0.443619 1.020166 -0.330454
v -0.443617 1.020166 0.588198
v -0.443619 1.020166 -0.330454
v -0.443617 0.790224 0.588198
v -0.443619 0.790224 -0.330454
v -0.443617 0.645032 0.588198
v 0.443619 0.645032 0.588198
v -0.443619 0.790224 -0.489599
v 0.443619 0.790224 -0.489599
v -0.443619 1.020166 -0.489599
v 0.443619 1.020166 -0.489599
v 0.443619 0.645032 -0.489599
v -0.443619 0.645032 -0.489599
v 0.443619 1.869870 -0.429045
v -0.443619 1.869870 -0.429045
v 0.443619 1.869870 -0.588198
v -0.443619 1.869870 -0.588198
v -0.443619 0.645032 -0.393141
v 0.443619 0.645032 -0.393141
v 0.395756 0.000000 -0.329359
v 0.395756 0.000000 -0.437529
v 0.395756 0.645032 -0.329359
v 0.395756 0.645032 -0.437529
v 0.287584 0.645032 -0.329359
v 0.287584 0.645032 -0.437529
v 0.287584 0.000000 -0.329359
v 0.287584 0.000000 -0.437529
v 0.395756 0.000000 0.537439
v 0.395756 0.000000 0.429270
v 0.395756 0.645032 0.537439
v 0.395756 0.645032 0.429270
v 0.287584 0.645032 0.537439
v 0.287584 0.645032 0.429270
v 0.287584 0.000000 0.537439
v 0.287584 0.000000 0.429270
v -0.288052 0.000000 0.537439
v -0.288052 0.000000 0.429270
v -0.288052 0.645032 0.537439
v -0.288052 0.645032 0.429270
v -0.396235 0.645032 0.537439
v -0.396235 0.645032 0.429270
v -0.396235 0.000000 0.537439
v -0.396235 0.000000 0.429270
v -0.288052 0.000000 -0.329359
v -0.288052 0.000000 -0.437529
v -0.288052 0.645032 -0.329359
v -0.288052 0.645032 -0.437529
v -0.396235 0.645032 -0.329359
v -0.396235 0.645032 -0.437529
v -0.396235 0.000000 -0.329359
v -0.396235 0.000000 -0.437529
v 0.332712 1.356042 -0.369452
v -0.332712 1.356042 -0.369452
v 0.332712 1.721432 -0.411856
v -0.332712 1.721432 -0.411856
v 0.332712 1.356042 -0.528605
v -0.332712 1.356042 -0.528605
v -0.332712 1.721432 -0.571005
v 0.332714 1.721432 -0.571005
v 0.093870 1.020166 0.588198
v 0.443619 0.862152 0.588198
v 0.443619 1.020166 0.304603
v 0.122243 0.897965 0.588198
v 0.293817 0.902387 0.588198
v 0.443619 0.872777 0.415735
v 0.300542 1.020166 0.191554
v 0.077516 1.020166 0.278890
v 0.145719 1.020166 0.443277
v 0.029364 1.020166 0.508853
v 0.392841 0.881521 0.539578
v 0.392841 0.889541 0.409395
v 0.392841 1.000797 0.325508
v 0.322170 1.000797 0.477488
v 0.284840 1.000797 0.240173
v 0.151387 1.000797 0.317561
v 0.181643 1.000797 0.445512
v 0.102520 1.000797 0.501531
v 0.128834 1.000797 0.539578
v 0.150251 0.908554 0.539579
v 0.279763 0.911892 0.539579
v 0.443619 1.586786 -0.396199
v 0.332712 1.503490 -0.397729
v 0.332713 1.503490 -0.556879
v 0.443619 1.586786 -0.555349
v -0.056675 1.356042 -0.369452
v -0.405960 1.134213 -0.343696
v -0.443619 1.085676 -0.340646
v -0.443619 1.128858 -0.502212
v -0.397965 1.158426 -0.505656
v -0.053298 1.356042 -0.528605
v -0.176472 1.234073 -0.355290
v -0.205835 1.135422 -0.343836
v -0.245436 1.153616 -0.505097
v -0.188493 1.282916 -0.520112
v 0.035221 1.869870 -0.429045
v 0.026416 1.721432 -0.411856
v 0.026417 1.721432 -0.571005
v 0.035221 1.869870 -0.588198
v 0.216183 1.721432 -0.571005
v 0.216182 1.721432 -0.411856
v 0.288244 1.869870 -0.429045
v 0.288244 1.869870 -0.588198
vt 0.203400 0.442560
vt 0.140959 0.442560
vt 0.357616 0.061847
vt 0.140959 0.442560
vt 0.262881 0.442560
vt 0.140959 0.198728
vt 0.140959 0.442560
vt 0.171563 0.198728
vt 0.171563 0.198728
vt 0.203400 0.442560
vt 0.203400 0.442560
vt 0.109882 0.198728
vt 0.171563 0.198728
vt 0.171563 0.198728
vt 0.140959 0.198728
vt 0.140959 0.198728
vt 0.140959 0.198728
vt 0.171563 0.198728
vt 0.140959 0.198728
vt 0.109882 0.198728
vt 0.140959 0.198728
vt 0.267968 0.045611
vt 0.205526 0.045611
vt 0.205526 0.045611
vt 0.140959 0.198728
vt 0.140959 0.198728
vt 0.140959 0.198728
vt 0.109882 0.198728
vt 0.140959 0.198728
vt 0.140959 0.198728
vt 0.140959 0.198728
vt 0.140959 0.198728
vt 0.267968 0.045611
vt 0.236131 0.045611
vt 0.236131 0.045611
vt 0.140959 0.442560
vt 0.140959 0.442560
vt 0.262881 0.442560
vt 0.171563 0.198728
vt 0.140959 0.442560
vt 0.140959 0.442560
vt 0.262881 0.442560
vt 0.299448 0.061847
vt 0.329662 0.061847
vt 0.140959 0.198728
vt 0.205526 0.045611
vt 0.171563 0.198728
vt 0.171563 0.198728
vt 0.140959 0.198728
vt 0.109882 0.198728
vt 0.109882 0.198728
vt 0.140959 0.198728
vt 0.171563 0.198728
vt 0.140959 0.198728
vt 0.140959 0.198728
vt 0.140959 0.198728
vt 0.109882 0.198728
vt 0.171563 0.198728
vt 0.109882 0.198728
vt 0.140959 0.198728
vt 0.171563 0.198728
vt 0.140959 0.198728
vt 0.140959 0.198728
vt 0.171563 0.198728
vt 0.140959 0.198728
vt 0.267968 0.045611
vt 0.171563 0.198728
vt 0.171563 0.198728
vt 0.140959 0.198728
vt 0.236131 0.045611
vt 0.267968 0.045611
vt 0.236131 0.045611
vt 0.205526 0.045611
vt 0.140959 0.198728
vt 0.140959 0.198728
vt 0.171563 0.198728
vt 0.140959 0.198728
vt 0.109882 0.198728
vt 0.140959 0.198728
vt 0.171563 0.198728
vt 0.109882 0.198728
vt 0.109882 0.198728
vt 0.109882 0.198728
vt 0.109882 0.198728
vt 0.109882 0.198728
vt 0.109882 0.198728
vt 0.109882 0.198728
vt 0.109882 0.198728
vt 0.109882 0.198728
vt 0.109882 0.198728
vt 0.171563 0.198728
vt 0.171563 0.198728
vt 0.171563 0.198728
vt 0.171563 0.198728
vt 0.171563 0.198728
vt 0.171563 0.198728
vt 0.171563 0.198728
vt 0.171563 0.198728
vt 0.109882 0.198728
vt 0.109882 0.198728
vt 0.109882 0.198728
vt 0.109882 0.198728
vt 0.109882 0.198728
vt 0.109882 0.198728
vt 0.109882 0.198728
vt 0.109882 0.198728
vt 0.109882 0.198728
vt 0.109882 0.198728
vt 0.171563 0.198728
vt 0.171563 0.198728
vt 0.171563 0.198728
vt 0.171563 0.198728
vt 0.171563 0.198728
vt 0.171563 0.198728
vt 0.171563 0.198728
vt 0.171563 0.198728
vt 0.109882 0.198728
vt 0.109882 0.198728
vt 0.109882 0.198728
vt 0.109882 0.198728
vt 0.109882 0.198728
vt 0.109882 0.198728
vt 0.109882 0.198728
vt 0.109882 0.198728
vt 0.109882 0.198728
vt 0.109882 0.198728
vt 0.171563 0.198728
vt 0.171563 0.198728
vt 0.171563 0.198728
vt 0.171563 0.198728
vt 0.171563 0.198728
vt 0.171563 0.198728
vt 0.171563 0.198728
vt 0.171563 0.198728
vt 0.109882 0.198728
vt 0.109882 0.198728
vt 0.109882 0.198728
vt 0.109882 0.198728
vt 0.109882 0.198728
vt 0.109882 0.198728
vt 0.109882 0.198728
vt 0.109882 0.198728
vt 0.109882 0.198728
vt 0.109882 0.198728
vt 0.171563 0.198728
vt 0.171563 0.198728
vt 0.171563 0.198728
vt 0.171563 0.198728
vt 0.171563 0.198728
vt 0.171563 0.198728
vt 0.171563 0.198728
vt 0.171563 0.198728
vt 0.236131 0.045611
vt 0.171563 0.198728
vt 0.236131 0.045611
vt 0.236131 0.045611
vt 0.171563 0.198728
vt 0.236131 0.045611
vt 0.236131 0.045611
vt 0.236131 0.045611
vt 0.174450 0.045611
vt 0.174450 0.045611
vt 0.174450 0.045611
vt 0.174450 0.045611
vt 0.174450 0.045611
vt 0.109882 0.198728
vt 0.109882 0.198728
vt 0.174450 0.045611
vt 0.174450 0.045611
vt 0.174450 0.045611
vt 0.174450 0.045611
vt 0.174450 0.045611
vt 0.174450 0.045611
vt 0.109882 0.198728
vt 0.109882 0.198728
vt 0.174450 0.045611
vt 0.262881 0.442560
vt 0.203400 0.442560
vt 0.140959 0.442560
vt 0.203400 0.442560
vt 0.140959 0.442560
vt 0.262881 0.442560
vt 0.203400 0.442560
vt 0.203400 0.442560
vt 0.140959 0.442560
vt 0.262881 0.442560
vt 0.262881 0.442560
vt 0.262881 0.442560
vt 0.262881 0.442560
vt 0.299448 0.061847
vt 0.236397 0.446406
vt 0.236397 0.446406
vt 0.236397 0.446406
vt 0.236397 0.446406
vt 0.236397 0.446406
vt 0.236397 0.446406
vt 0.236397 0.446406
vt 0.236397 0.446406
vt 0.236397 0.446406
vt 0.236397 0.446406
vt 0.236397 0.446406
vt 0.329662 0.061847
vt 0.329662 0.061847
vt 0.236397 0.446406
vt 0.236397 0.446406
vt 0.329662 0.061847
vt 0.357616 0.061847
vt 0.329662 0.061847
vt 0.357616 0.061847
vt 0.357616 0.061847
vt 0.357616 0.061847
vt 0.357616 0.061847
vt 0.299448 0.061847
vt 0.357616 0.061847
vt 0.299448 0.061847
vt 0.236397 0.446406
vt 0.236397 0.446406
vt 0.236397 0.446406
vt 0.236397 0.446406
vt 0.236397 0.446406
vt 0.236397 0.446406
vt 0.236397 0.446406
vt 0.140959 0.198728
vt 0.171563 0.198728
vt 0.236131 0.045611
vt 0.174450 0.045611
vt 0.236131 0.045611
vt 0.174450 0.045611
vt 0.205526 0.045611
vt 0.236131 0.045611
vt 0.171563 0.198728
vt 0.109882 0.198728
vt 0.236131 0.045611
vt 0.205526 0.045611
vt 0.236131 0.045611
vt 0.205526 0.045611
vt 0.236131 0.045611
vt 0.236131 0.045611
vt 0.236131 0.045611
vt 0.174450 0.045611
vt 0.236131 0.045611
vt 0.236131 0.045611
vt 0.236131 0.045611
vt 0.236131 0.045611
vt 0.171563 0.198728
vt 0.109882 0.198728
vt 0.236131 0.045611
vt 0.174450 0.045611
vt 0.171563 0.198728
vt 0.171563 0.198728
vt 0.236131 0.045611
vt 0.171563 0.198728
vt 0.140959 0.198728
vt 0.171563 0.198728
vt 0.171563 0.198728
vt 0.140959 0.198728
vt 0.236131 0.045611
vt 0.171563 0.198728
vt 0.171563 0.198728
vt 0.171563 0.198728
vt 0.236131 0.045611
vt 0.236131 0.045611
vt 0.236131 0.045611
vt 0.171563 0.198728
vt 0.140959 0.198728
vt 0.236131 0.045611
vt 0.205526 0.045611
vt 0.109882 0.198728
vt 0.171563 0.198728
vt 0.171563 0.198728
vt 0.109882 0.198728
vt 0.236131 0.045611
vt 0.236131 0.045611
vt 0.236131 0.045611
vt 0.236131 0.045611
vt 0.236131 0.045611
vt 0.236131 0.045611
vt 0.236131 0.045611
vt 0.267968 0.331849
vt 0.236131 0.331849
vt 0.236131 0.045611
vt 0.174450 0.045611
vt 0.236131 0.331849
vt 0.174450 0.045611
vt 0.267968 0.331849
vt 0.236131 0.045611
vt 0.236131 0.331849
vt 0.174450 0.331849
vt 0.236131 0.045611
vt 0.174450 0.045611
vt 0.267968 0.045611
vt 0.236131 0.045611
vt 0.267968 0.045611
vt 0.236131 0.045611
vt 0.267968 0.331849
vt 0.236131 0.331849
vt 0.174450 0.045611
vt 0.236131 0.045611
vt 0.236131 0.331849
vt 0.267968 0.331849
vt 0.174450 0.331849
vt 0.236131 0.331849
vt 0.267968 0.045611
vt 0.236131 0.331849
vt 0.236131 0.045611
vt 0.174450 0.331849
vt 0.236131 0.045611
vt 0.267968 0.045611
vt 0.236131 0.331849
vt 0.174450 0.331849
vn 0.879081 0.416399 0.232009
vn 0.879081 0.416399 0.232009
vn 0.879081 0.416399 0.232009
vn 0.879081 0.416399 0.232009
vn 0.000001 1.000000 0.000001
vn 0.000001 1.000000 0.000001
vn 0.000001 1.000000 0.000001
vn 0.000001 1.000000 0.000001
vn 0.000001 1.000000 0.000001
vn 0.000001 1.000000 0.000001
vn 0.000001 1.000000 0.000001
vn -1.000000 0.000000 0.000002
vn -1.000000 -0.000000 0.000002
vn -1.000000 -0.000000 0.000002
vn -1.000000 -0.000000 0.000002
vn 0.000000 -1.000000 0.000000
vn 0.000000 -1.000000 0.000000
vn 0.000000 -1.000000 0.000000
vn 0.000000 -1.000000 0.000000
vn 0.000000 0.000000 -1.000000
vn 0.000000 0.000000 -1.000000
vn -0.000000 -0.054229 -0.998529
vn 0.000670 -0.055725 -0.998446
vn 0.166957 0.369543 0.914092
vn 0.166957 0.369543 0.914091
vn 0.166957 0.369543 0.914092
vn 0.166957 0.369543 0.914091
vn 0.166957 0.369543 0.914092
vn -1.000000 -0.000001 0.000002
vn -1.000000 -0.000000 0.000002
vn -1.000000 -0.000000 0.000002
vn -1.000000 -0.000001 0.000002
vn 0.000000 0.000000 -1.000000
vn 0.000000 0.000000 -1.000000
vn 0.000000 0.000000 -1.000000
vn 0.000000 0.000000 -1.000000
vn -0.000000 -0.000000 1.000000
vn -0.000000 -0.000000 1.000000
vn 0.000000 0.000000 1.000000
vn 0.000000 0.000000 1.000000
vn 1.000000 0.000000 0.000000
vn 1.000000 0.000000 0.000000
vn 1.000000 -0.000000 -0.000000
vn 1.000000 -0.000000 -0.000000
vn 0.000000 1.000000 0.000000
vn 0.000000 1.000000 0.000000
vn 0.000000 1.000000 0.000000
vn 0.000000 1.000000 0.000000
vn -1.000000 -0.000000 0.000000
vn -1.000000 -0.000000 0.000002
vn -1.000000 -0.000000 0.000000
vn -1.000000 -0.000000 0.000000
vn -1.000000 -0.000000 0.000002
vn -1.000000 -0.000000 0.000002
vn -1.000000 -0.000000 0.000000
vn -1.000000 0.000000 0.000000
vn -1.000000 -0.000001 0.000002
vn -1.000000 -0.000000 0.000002
vn -1.000000 0.000000 0.000000
vn -1.000000 0.000000 0.000000
vn 0.000000 -1.000000 0.000000
vn 0.000000 -1.000000 0.000000
vn 0.000000 -1.000000 0.000000
vn 0.000000 -1.000000 0.000000
vn 1.000000 -0.000000 -0.000000
vn 1.000000 0.000000 0.000000
vn 1.000000 0.000000 0.000000
vn 1.000000 0.000000 0.000000
vn 1.000000 -0.000000 -0.000000
vn 1.000000 -0.000000 -0.000000
vn 1.000000 0.000000 0.000000
vn 1.000000 0.000000 0.000000
vn 1.000000 0.000000 0.000000
vn 1.000000 0.000000 0.000000
vn 1.000000 -0.000000 -0.000000
vn 1.000000 0.000000 0.000000
vn 1.000000 0.000000 0.000000
vn 1.000000 0.000000 0.000000
vn 1.000000 0.000000 0.000000
vn 1.000000 0.000000 0.000000
vn 0.000000 1.000000 0.000000
vn 0.000000 1.000000 0.000000
vn 0.000000 1.000000 0.000000
vn 0.000000 1.000000 0.000000
vn -1.000000 0.000000 0.000000
vn -1.000000 0.000000 0.000000
vn -1.000000 0.000000 0.000000
vn -1.000000 0.000000 0.000000
vn 0.000000 -1.000000 0.000000
vn 0.000000 -1.000000 0.000000
vn 0.000000 -1.000000 0.000000
vn 0.000000 -1.000000 0.000000
vn 0.000000 0.000000 -1.000000
vn 0.000000 0.000000 -1.000000
vn 0.000000 0.000000 -1.000000
vn 0.000000 0.000000 -1.000000
vn 0.000000 0.000000 1.000000
vn 0.000000 0.000000 1.000000
vn 0.000000 0.000000 1.000000
vn 0.000000 0.000000 1.000000
vn 1.000000 0.000000 0.000000
vn 1.000000 0.000000 0.000000
vn 1.000000 0.000000 0.000000
vn 1.000000 0.000000 0.000000
vn 0.000000 1.000000 0.000000
vn 0.000000 1.000000 0.000000
vn 0.000000 1.000000 0.000000
vn 0.000000 1.000000 0.000000
vn -1.000000 0.000000 0.000000
vn -1.000000 0.000000 0.000000
vn -1.000000 0.000000 0.000000
vn -1.000000 0.000000 0.000000
vn 0.000000 -1.000000 0.000000
vn 0.000000 -1.000000 0.000000
vn 0.000000 -1.000000 0.000000
vn 0.000000 -1.000000 0.000000
vn 0.000000 0.000000 -1.000000
vn 0.000000 0.000000 -1.000000
vn 0.000000 0.000000 -1.000000
vn 0.000000 0.000000 -1.000000
vn 0.000000 0.000000 1.000000
vn 0.000000 0.000000 1.000000
vn 0.000000 0.000000 1.000000
vn 0.000000 0.000000 1.000000
vn 1.000000 0.000000 0.000000
vn 1.000000 0.000000 0.000000
vn 1.000000 0.000000 0.000000
vn 1.000000 0.000000 0.000000
vn 0.000000 1.000000 0.000000
vn 0.000000 1.000000 0.000000
vn 0.000000 1.000000 0.000000
vn 0.000000 1.000000 0.000000
vn -1.000000 0.000000 0.000000
vn -1.000000 0.000000 0.000000
vn -1.000000 0.000000 0.000000
vn -1.000000 0.000000 0.000000
vn 0.000000 -1.000000 0.000000
vn 0.000000 -1.000000 0.000000
vn 0.000000 -1.000000 0.000000
vn 0.000000 -1.000000 0.000000
vn 0.000000 0.000000 -1.000000
vn 0.000000 0.000000 -1.000000
vn 0.000000 0.000000 -1.000000
vn 0.000000 0.000000 -1.000000
vn 0.000000 0.000000 1.000000
vn 0.000000 0.000000 1.000000
vn 0.000000 0.000000 1.000000
vn 0.000000 0.000000 1.000000
vn 1.000000 0.000000 0.000000
vn 1.000000 0.000000 0.000000
vn 1.000000 0.000000 0.000000
vn 1.000000 0.000000 0.000000
vn 0.000000 1.000000 0.000000
vn 0.000000 1.000000 0.000000
vn 0.000000 1.000000 0.000000
vn 0.000000 1.000000 0.000000
vn -1.000000 0.000000 0.000000
vn -1.000000 0.000000 0.000000
vn -1.000000 0.000000 0.000000
vn -1.000000 0.000000 0.000000
vn 0.000000 -1.000000 0.000000
vn 0.000000 -1.000000 0.000000
vn 0.000000 -1.000000 0.000000
vn 0.000000 -1.000000 0.000000
vn 0.000000 0.000000 -1.000000
vn 0.000000 0.000000 -1.000000
vn 0.000000 0.000000 -1.000000
vn 0.000000 0.000000 -1.000000
vn 0.000000 0.000000 1.000000
vn 0.000000 0.000000 1.000000
vn 0.000000 0.000000 1.000000
vn 0.000000 0.000000 1.000000
vn -0.000175 0.115390 0.993320
vn -0.001466 0.116019 0.993246
vn -0.007086 0.118649 0.992911
vn -0.000000 0.115332 0.993327
vn 0.000000 0.115332 0.993327
vn 0.000000 0.115332 0.993327
vn -0.004088 0.115131 0.993342
vn -0.001466 0.116019 0.993246
vn -0.029209 0.107336 0.993794
vn -0.031285 0.122020 0.992034
vn -0.007086 0.118649 0.992911
vn -0.000000 0.115031 0.993362
vn 0.000000 0.115031 0.993362
vn -0.000000 0.115031 0.993362
vn -0.000000 0.115031 0.993362
vn -0.004088 0.115131 0.993342
vn -0.020880 0.117095 0.992901
vn -0.000175 0.115390 0.993320
vn 0.000670 -0.055725 -0.998446
vn -0.000000 -0.054229 -0.998529
vn -0.000072 -0.115332 -0.993327
vn 0.000000 -0.115355 -0.993324
vn 0.000000 -0.115355 -0.993324
vn 0.000000 -0.115355 -0.993324
vn 0.006801 -0.118531 -0.992927
vn -0.000000 -0.054229 -0.998529
vn -0.000279 -0.115266 -0.993335
vn -0.000072 -0.115332 -0.993327
vn 0.000000 -0.115056 -0.993359
vn 0.000000 -0.115056 -0.993359
vn 0.000000 -0.115056 -0.993359
vn 0.000000 -0.115056 -0.993359
vn 0.031305 -0.122024 -0.992033
vn 0.029211 -0.107339 -0.993793
vn 0.000670 -0.055725 -0.998446
vn 0.006801 -0.118531 -0.992927
vn 1.000000 0.000000 0.000000
vn 1.000000 0.000000 0.000000
vn 1.000000 0.000000 0.000000
vn 1.000000 0.000000 0.000000
vn -1.000000 0.000002 -0.000007
vn -1.000000 0.000002 -0.000008
vn -1.000000 0.000004 -0.000004
vn -1.000000 0.000004 -0.000004
vn -0.000000 -1.000000 0.000001
vn 0.000000 -1.000000 0.000001
vn 0.000000 -1.000000 0.000000
vn 0.000000 -1.000000 0.000000
vn 0.000000 1.000000 0.000000
vn 0.000000 1.000000 0.000000
vn 0.000000 1.000000 0.000000
vn 0.000000 1.000000 0.000000
vn -0.000000 -0.000000 1.000000
vn -0.000000 -0.000000 1.000000
vn -0.000000 -0.000000 1.000000
vn -0.000000 -0.000000 1.000000
vn -0.000000 -0.000000 1.000000
vn -0.000000 -0.000000 1.000000
vn -0.000000 -0.000000 1.000000
vn 1.000000 -0.000000 -0.000000
vn 1.000000 -0.000000 -0.000000
vn 1.000000 -0.000000 -0.000000
vn 1.000000 -0.000000 -0.000000
vn 1.000000 -0.000000 -0.000000
vn 1.000000 -0.000000 -0.000000
vn -0.000000 1.000000 -0.000000
vn -0.000000 1.000000 -0.000000
vn -0.000000 1.000000 -0.000000
vn -0.000000 1.000000 -0.000000
vn -0.000000 1.000000 -0.000000
vn -0.000000 1.000000 -0.000000
vn -0.000000 1.000000 -0.000000
vn -0.000000 1.000000 -0.000000
vn -0.000000 1.000000 -0.000000
vn 0.285900 0.954765 0.081762
vn 0.306368 0.950112 0.058532
vn 0.306368 0.950112 0.058532
vn 0.284161 0.955115 0.083718
vn 0.098595 0.599112 0.794571
vn 0.098595 0.599112 0.794571
vn 0.098595 0.599112 0.794571
vn 0.098595 0.599112 0.794571
vn -0.232476 0.927031 0.294226
vn -0.232476 0.927031 0.294226
vn -0.232476 0.927031 0.294226
vn -0.232476 0.927031 0.294226
vn 0.146862 0.936707 0.317824
vn 0.146862 0.936707 0.317824
vn 0.146862 0.936707 0.317824
vn 0.146862 0.936707 0.317824
vn 0.371202 0.920097 -0.125021
vn 0.371202 0.920097 -0.125021
vn 0.371202 0.920097 -0.125021
vn 0.371202 0.920097 -0.125021
vn 0.310543 0.808905 0.499235
vn 0.310543 0.808905 0.499235
vn 0.310543 0.808905 0.499235
vn 0.310543 0.808905 0.499235
vn 0.243443 0.951454 -0.188338
vn 0.243443 0.951454 -0.188338
vn 0.243443 0.951454 -0.188338
vn 0.243443 0.951454 -0.188338
vn 0.831433 0.193043 0.521012
vn 0.831433 0.193043 0.521012
vn 0.831433 0.193043 0.521012
vn 0.831433 0.193043 0.521012
vn -0.025250 0.979708 0.198832
vn -0.025250 0.979708 0.198832
vn -0.025250 0.979708 0.198832
vn -0.025250 0.979708 0.198832
vn 0.257728 0.959575 0.113101
vn 0.285900 0.954765 0.081762
vn 0.284161 0.955115 0.083718
vn 0.257728 0.959575 0.113101
vn -0.031285 0.122020 0.992034
vn -0.029209 0.107336 0.993794
vn -0.013200 0.104516 0.994436
vn -0.016574 0.101823 0.994664
vn -1.000000 0.000001 -0.000010
vn -1.000000 0.000002 -0.000008
vn -1.000000 0.000002 -0.000007
vn -1.000000 0.000001 -0.000010
vn 0.013193 -0.104531 -0.994434
vn 0.029211 -0.107339 -0.993793
vn 0.031305 -0.122024 -0.992033
vn 0.016565 -0.101835 -0.994663
vn 1.000000 0.000000 0.000000
vn 1.000000 0.000000 0.000000
vn 1.000000 0.000000 0.000000
vn 1.000000 0.000000 0.000000
vn -0.004088 0.115131 0.993342
vn 0.000000 0.115332 0.993327
vn 0.000000 0.115332 0.993327
vn -0.000000 0.115332 0.993327
vn -0.009428 0.114795 0.993344
vn -0.005920 0.114822 0.993369
vn -0.020880 0.117095 0.992901
vn -0.004088 0.115131 0.993342
vn -0.009428 0.114795 0.993344
vn -0.007676 0.114759 0.993364
vn -1.000000 -0.000000 0.000000
vn -1.000000 -0.000000 0.000000
vn -1.000000 0.000000 0.000000
vn -1.000000 0.000000 0.000000
vn -0.000072 -0.115332 -0.993327
vn -0.000279 -0.115266 -0.993335
vn -0.000116 -0.115143 -0.993349
vn -0.000151 -0.115170 -0.993346
vn -0.000203 -0.115290 -0.993332
vn 0.000000 -0.115355 -0.993324
vn 0.000000 -0.115355 -0.993324
vn 0.000000 -0.115355 -0.993324
vn -0.000072 -0.115332 -0.993327
vn -0.000203 -0.115290 -0.993332
vn 0.000000 1.000000 0.000000
vn 0.000000 1.000000 0.000000
vn 0.000000 1.000000 0.000000
vn 0.000000 1.000000 0.000000
vn -0.000000 0.115031 0.993362
vn -0.000000 0.115031 0.993362
vn -0.005920 0.114822 0.993369
vn -0.007676 0.114759 0.993364
vn 0.000000 -1.000000 0.000000
vn 0.000000 -1.000000 0.000000
vn 0.000000 -1.000000 0.000000
vn 0.000000 -1.000000 0.000000
vn -0.000116 -0.115143 -0.993349
vn 0.000000 -0.115056 -0.993359
vn 0.000000 -0.115056 -0.993359
vn -0.000151 -0.115170 -0.993346
vn 0.000000 1.000000 0.000000
vn 0.000000 1.000000 0.000000
vn 0.000000 1.000000 0.000000
vn 0.000000 1.000000 0.000000
vn -0.000001 -1.000000 0.000002
vn 0.000000 -1.000000 0.000001
vn -0.000000 -1.000000 0.000001
vn -0.000001 -1.000000 0.000002
vn -0.013200 0.104516 0.994436
vn 0.000000 0.115031 0.993362
vn -0.000000 0.115031 0.993362
vn -0.016574 0.101823 0.994664
vn 0.000000 1.000000 0.000000
vn 0.000000 1.000000 0.000000
vn 0.000000 1.000000 0.000000
vn 0.000000 1.000000 0.000000
vn 0.000000 -0.115056 -0.993359
vn 0.000000 -0.115056 -0.993359
vn 0.013193 -0.104531 -0.994434
vn 0.016565 -0.101835 -0.994663
s off
f 72/190/1 73/215/2 74/213/3 75/43/4
f 75/3/5 74/214/6 76/212/7 77/211/8 78/210/9 79/209/10 80/207/11
f 4/4/12 5/36/13 7/7/14 6/40/15
f 9/78/16 8/12/17 20/57/18 21/51/19
f 11/53/20 10/14/21 12/67/22 13/48/23
f 80/208/24 81/206/25 82/203/26 72/202/27 75/44/28
f 8/75/29 6/6/30 7/60/31 20/56/32
f 10/64/33 11/18/34 14/58/35 15/61/36
f 1/8/37 6/80/38 8/76/39 9/13/40
f 9/77/41 21/52/42 2/74/43 1/79/44
f 100/285/45 97/279/46 103/300/47 104/295/48
f 12/69/49 5/63/50 89/256/51 90/253/52
f 7/27/53 5/25/54 12/15/55 10/65/56
f 20/55/57 7/26/58 10/21/59 15/62/60
f 21/50/61 20/28/62 15/20/63 14/59/64
f 2/31/65 21/29/66 14/19/67 11/54/68
f 3/45/69 2/30/70 11/17/71 13/49/72
f 86/265/73 83/223/74 3/32/75 13/16/76
f 22/81/77 23/82/78 25/83/79 24/84/80
f 24/84/81 25/83/82 27/85/83 26/86/84
f 26/86/85 27/85/86 29/87/87 28/88/88
f 28/88/89 29/87/90 23/89/91 22/90/92
f 23/91/93 29/92/94 27/93/95 25/94/96
f 28/95/97 22/96/98 24/97/99 26/98/100
f 30/99/101 31/100/102 33/101/103 32/102/104
f 32/102/105 33/101/106 35/103/107 34/104/108
f 34/104/109 35/103/110 37/105/111 36/106/112
f 36/106/113 37/105/114 31/107/115 30/108/116
f 31/109/117 37/110/118 35/111/119 33/112/120
f 36/113/121 30/114/122 32/115/123 34/116/124
f 38/117/125 39/118/126 41/119/127 40/120/128
f 40/120/129 41/119/130 43/121/131 42/122/132
f 42/122/133 43/121/134 45/123/135 44/124/136
f 44/124/137 45/123/138 39/125/139 38/126/140
f 39/127/141 45/128/142 43/129/143 41/130/144
f 44/131/145 38/132/146 40/133/147 42/134/148
f 46/135/149 47/136/150 49/137/151 48/138/152
f 48/138/153 49/137/154 51/139/155 50/140/156
f 50/140/157 51/139/158 53/141/159 52/142/160
f 52/142/161 53/141/162 47/143/163 46/144/164
f 47/145/165 53/146/166 51/147/167 49/148/168
f 52/149/169 46/150/170 48/151/171 50/152/172
f 5/9/173 3/39/174 54/154/175 87/231/176 93/260/177 94/259/178 88/258/179
f 3/39/180 83/224/181 84/270/182 54/154/183
f 102/302/184 103/299/185 97/280/186 98/309/187
f 88/258/188 89/255/189 5/9/190
f 13/47/191 12/68/192 91/252/193 95/250/194 96/249/195 92/245/196 58/157/197
f 12/68/198 90/254/199 91/252/200
f 99/283/201 100/304/202 104/296/203 101/287/204
f 85/269/205 86/264/206 13/47/207 58/157/208
f 59/161/209 60/162/210 57/163/211 55/164/212
f 84/271/213 85/268/214 58/166/215 54/167/216
f 101/288/217 102/301/218 98/310/219 99/306/220
f 92/246/221 87/232/222 54/174/223 58/175/224
f 6/10/225 1/1/226 63/180/227 66/184/228 65/183/229 62/178/230 4/11/231
f 1/41/232 2/2/233 3/37/234 64/181/235 67/185/236 63/179/237
f 62/177/238 71/189/239 70/188/240 69/187/241 68/186/242 64/182/243 3/38/244 5/5/245 4/42/246
f 63/191/247 67/192/248 73/193/249 72/194/250
f 67/192/251 64/195/252 74/196/253 73/193/254
f 64/195/255 68/197/256 76/198/257 74/196/258
f 68/197/259 69/199/260 77/200/261 76/198/262
f 69/199/263 70/201/264 78/204/265 77/200/266
f 70/201/267 71/205/268 79/216/269 78/204/270
f 71/205/271 62/217/272 80/218/273 79/216/274
f 62/217/275 65/219/276 81/220/277 80/218/278
f 65/219/279 66/221/280 82/222/281 81/220/282
f 66/221/283 63/191/284 72/194/285 82/222/286
f 84/225/287 83/266/288 16/278/289 56/274/290
f 61/165/291 85/228/292 84/226/293 56/168/294
f 18/272/295 86/230/296 85/227/297 61/160/298
f 16/46/299 83/267/300 86/229/301 18/73/302
f 88/257/303 94/242/304 93/241/305 87/247/306 55/153/307
f 17/262/308 89/235/309 88/233/310 55/263/311 57/156/312
f 90/236/313 89/234/314 17/24/315 19/23/316
f 91/251/317 90/237/318 19/277/319 60/275/320 59/261/321
f 92/239/322 96/244/323 95/243/324 91/238/325 59/158/326
f 55/173/327 87/248/328 92/240/329 59/176/330
f 98/281/331 97/307/332 17/34/333 57/276/334
f 99/284/335 98/282/336 57/170/337 60/171/338
f 19/70/339 100/286/340 99/305/341 60/159/342
f 17/66/343 97/308/344 100/303/345 19/71/346
f 56/169/347 102/290/348 101/297/349 61/172/350
f 16/35/351 103/292/352 102/289/353 56/155/354
f 104/293/355 103/291/356 16/33/357 18/22/358
f 101/298/359 104/294/360 18/72/361 61/273/362
