# This file uses meters as units for non-parametric coordinates.

v 0.284612 -0.000000 -0.323520
v -0.300683 -0.000000 -0.323520
v 0.284612 0.132379 -0.323520
v -0.300683 0.132379 -0.323520
v 0.284612 0.132379 0.261777
v -0.300683 0.132379 0.261777
v 0.284612 -0.000000 0.261777
v -0.300683 -0.000000 0.261777
v 0.088725 0.132379 -0.127631
v -0.104796 0.132379 -0.127631
v -0.104796 0.132379 0.065888
v 0.088725 0.132379 0.065888
v -0.009700 2.656542 -0.978563
v -0.186919 2.685419 -0.907313
v -0.110636 2.773738 -0.753372
v 0.066582 2.744862 -0.824622
v 0.168010 2.527293 -1.256205
v 0.069105 2.922427 -1.120033
v -0.220516 2.996386 -0.879640
v -0.481914 2.773158 -0.622037
v -0.446542 2.234211 -0.330357
v -0.145961 1.928583 -0.303959
v 0.162104 1.838125 -0.578915
v 0.214364 1.980708 -0.980735
v 0.251651 2.542607 -1.239893
v 0.152746 2.937742 -1.103721
v -0.186326 3.035971 -0.810643
v -0.447723 2.812743 -0.553040
v -0.412352 2.273796 -0.261361
v -0.111771 1.968168 -0.234962
v 0.245745 1.853440 -0.562603
v 0.298005 1.996022 -0.964423
v 0.041739 2.504939 -0.652655
v -0.088745 2.015541 -0.273551
v -0.360341 2.291698 -0.297404
v 0.234086 1.917887 -0.563329
v 0.281307 2.046721 -0.926402
v 0.239423 2.540599 -1.175309
v 0.150055 2.897632 -1.052267
v -0.156111 2.980378 -0.793720
v -0.392302 2.778675 -0.560957
v -0.056807 2.081252 -0.327078
v -0.288198 2.316529 -0.347400
v 0.217915 2.007282 -0.564335
v 0.258145 2.117045 -0.873663
v 0.222461 2.537815 -1.085724
v 0.146323 2.841995 -0.980896
v -0.114200 2.903264 -0.770247
v -0.315428 2.731419 -0.571940
v -0.163563 2.426550 -0.472282
v 0.211710 2.305372 -0.812374
v 0.197791 2.466268 -0.892058
v -0.175128 2.584846 -0.557370
v -0.027347 1.297883 0.052225
v 0.150069 1.268974 -0.019104
v 0.073701 1.180557 -0.173216
v -0.103715 1.209466 -0.101886
v 0.161933 2.102231 -0.366433
v 0.168378 2.029333 -0.331041
v 0.173025 1.976779 -0.305525
v 0.089383 1.961464 -0.386728
v 0.088479 2.940103 -0.776411
v 0.082161 3.012785 -0.812253
v 0.077607 3.065184 -0.838092
v -0.006035 3.049870 -0.919294
v 0.118138 2.601799 -0.610876
v 0.132275 2.440530 -0.531965
vt 0.297247 0.066919
vt 0.324657 0.066919
vt 0.297247 0.066919
vt 0.324657 0.066919
vt 0.297247 0.066919
vt 0.324657 0.066919
vt 0.297247 0.066919
vt 0.324657 0.066919
vt 0.360515 0.066919
vt 0.360515 0.066919
vt 0.297247 0.066919
vt 0.324657 0.066919
vt 0.360515 0.066919
vt 0.324657 0.066919
vt 0.360515 0.066919
vt 0.297247 0.066919
vt 0.297247 0.066919
vt 0.357917 0.066919
vt 0.324657 0.066919
vt 0.297247 0.066919
vt 0.357917 0.066919
vt 0.137665 0.171559
vt 0.137665 0.171559
vt 0.171009 0.171559
vt 0.171009 0.171559
vt 0.171009 0.171559
vt 0.171009 0.171559
vt 0.137665 0.171559
vt 0.109850 0.171559
vt 0.170779 0.171559
vt 0.195946 0.171559
vt 0.170779 0.171559
vt 0.229289 0.171559
vt 0.204123 0.171559
vt 0.204123 0.171559
vt 0.143193 0.171559
vt 0.143193 0.171559
vt 0.120676 0.171559
vt 0.120676 0.171559
vt 0.078290 0.171559
vt 0.044946 0.171559
vt 0.087332 0.171559
vt 0.087332 0.171559
vt 0.109850 0.171559
vt 0.137665 0.171559
vt 0.137665 0.171559
vt 0.171009 0.171559
vt 0.171009 0.171559
vt 0.171009 0.171559
vt 0.171009 0.171559
vt 0.137665 0.171559
vt 0.137665 0.171559
vt 0.137665 0.171559
vt 0.297247 0.066919
vt 0.324657 0.066919
vt 0.357917 0.066919
vt 0.360515 0.066919
vt 0.297247 0.066919
vt 0.324657 0.066919
vt 0.297247 0.066919
vt 0.297247 0.066919
vt 0.360515 0.066919
vt 0.297247 0.066919
vt 0.324657 0.066919
vt 0.297247 0.066919
vt 0.324657 0.066919
vt 0.324657 0.066919
vt 0.297247 0.066919
vt 0.324657 0.066919
vt 0.297247 0.066919
vt 0.360515 0.066919
vt 0.360515 0.066919
vt 0.360515 0.066919
vt 0.324657 0.066919
vt 0.360515 0.066919
vt 0.360515 0.066919
vt 0.360515 0.066919
vt 0.360515 0.066919
vt 0.324657 0.066919
vt 0.360515 0.066919
vt 0.360515 0.066919
vt 0.360515 0.066919
vt 0.324657 0.066919
vt 0.357917 0.066919
vt 0.171009 0.171559
vt 0.171009 0.171559
vt 0.171009 0.171559
vt 0.171009 0.171559
vt 0.171009 0.171559
vt 0.109850 0.171559
vt 0.137665 0.171559
vt 0.087332 0.171559
vt 0.137665 0.171559
vt 0.078290 0.171559
vt 0.171009 0.171559
vt 0.120676 0.171559
vt 0.171009 0.171559
vt 0.143193 0.171559
vt 0.171009 0.171559
vt 0.204123 0.171559
vt 0.171009 0.171559
vt 0.195946 0.171559
vt 0.137665 0.171559
vt 0.170779 0.171559
vt 0.137665 0.171559
vt 0.109850 0.171559
vt 0.087332 0.171559
vt 0.044946 0.171559
vt 0.120676 0.171559
vt 0.143193 0.171559
vt 0.204123 0.171559
vt 0.229289 0.171559
vt 0.170779 0.171559
vt 0.171009 0.171559
vt 0.171009 0.171559
vt 0.137665 0.171559
vt 0.137665 0.171559
vt 0.137665 0.171559
vt 0.137665 0.171559
vt 0.171009 0.171559
vt 0.171009 0.171559
vt 0.171009 0.171559
vt 0.171009 0.171559
vt 0.137665 0.171559
vt 0.137665 0.171559
vt 0.137665 0.171559
vt 0.137665 0.171559
vt 0.171009 0.171559
vt 0.171009 0.171559
vt 0.171009 0.171559
vt 0.137665 0.171559
vt 0.137665 0.171559
vt 0.171009 0.171559
vt 0.387985 0.064068
vt 0.354642 0.064068
vt 0.354642 0.064068
vt 0.387985 0.064068
vt 0.387985 0.064068
vt 0.387985 0.064068
vt 0.387985 0.064068
vt 0.387985 0.064068
vt 0.354642 0.064068
vt 0.354642 0.064068
vt 0.354642 0.064068
vt 0.354642 0.064068
vt 0.354642 0.064068
vt 0.354642 0.064068
vt 0.354642 0.064068
vt 0.354642 0.064068
vt 0.387985 0.064068
vt 0.387985 0.064068
vt 0.387985 0.064068
vt 0.387985 0.064068
vt 0.297247 0.066919
vt 0.324657 0.066919
vt 0.324657 0.066919
vt 0.297247 0.066919
vt 0.324657 0.066919
vt 0.297247 0.066919
vt 0.324657 0.066919
vt 0.297247 0.066919
vt 0.354642 0.064068
vt 0.137665 0.171559
vt 0.171009 0.171559
vt 0.387985 0.064068
vt 0.078290 0.171559
vt 0.171009 0.171559
vt 0.078290 0.171559
vt 0.171009 0.171559
vt 0.387985 0.064068
vt 0.171009 0.171559
vt 0.137665 0.171559
vt 0.354642 0.064068
vt 0.195946 0.171559
vt 0.137665 0.171559
vt 0.195946 0.171559
vt 0.137665 0.171559
vt 0.171009 0.171559
vt 0.387985 0.064068
vt 0.171009 0.171559
vt 0.387985 0.064068
vt 0.137665 0.171559
vt 0.137665 0.171559
vt 0.137665 0.171559
vt 0.137665 0.171559
vt 0.137665 0.171559
vt 0.044946 0.171559
vt 0.137665 0.171559
vt 0.229289 0.171559
vt 0.171009 0.171559
vt 0.354642 0.064068
vt 0.137665 0.171559
vt 0.387985 0.064068
vt 0.171009 0.171559
vt 0.137665 0.171559
vt 0.354642 0.064068
vt 0.354642 0.064068
vt 0.137665 0.171559
vt 0.137665 0.171559
vt 0.171009 0.171559
vt 0.229289 0.171559
vt 0.387985 0.064068
vt 0.171009 0.171559
vt 0.137665 0.171559
vt 0.137665 0.171559
vt 0.354642 0.064068
vt 0.354642 0.064068
vt 0.137665 0.171559
vt 0.044946 0.171559
vt 0.354642 0.064068
vt 0.137665 0.171559
vt 0.137665 0.171559
vt 0.354642 0.064068
vt 0.137665 0.171559
vt 0.354642 0.064068
vt 0.137665 0.171559
vt 0.137665 0.171559
vt 0.354642 0.064068
vt 0.354642 0.064068
vt 0.137665 0.171559
vt 0.354642 0.064068
vt 0.137665 0.171559
vt 0.354642 0.064068
vt 0.137665 0.171559
vt 0.137665 0.171559
vt 0.137665 0.171559
vn 0.000000 0.000000 -1.000000
vn 0.000000 0.000000 -1.000000
vn 0.000000 0.000000 -1.000000
vn 0.000000 0.000000 -1.000000
vn 0.000000 0.000000 1.000000
vn 0.000000 0.000000 1.000000
vn 0.000000 0.000000 1.000000
vn 0.000000 0.000000 1.000000
vn 0.000000 -1.000000 0.000000
vn 0.000000 -1.000000 0.000000
vn 0.000000 -1.000000 0.000000
vn 0.000000 -1.000000 0.000000
vn -1.000000 0.000000 0.000000
vn -1.000000 0.000000 0.000000
vn -1.000000 0.000000 0.000000
vn -1.000000 0.000000 0.000000
vn 1.000000 0.000000 0.000000
vn 1.000000 0.000000 0.000000
vn 1.000000 0.000000 0.000000
vn 1.000000 0.000000 0.000000
vn 0.000000 1.000000 0.000000
vn 0.000000 1.000000 0.000000
vn 0.000000 1.000000 0.000000
vn 0.000000 1.000000 0.000000
vn 0.000000 1.000000 0.000000
vn 0.000000 1.000000 -0.000000
vn 0.000000 1.000000 -0.000000
vn 0.000000 1.000000 0.000000
vn 0.000000 1.000000 -0.000000
vn 0.000000 1.000000 -0.000000
vn 0.000000 1.000000 -0.000000
vn 0.000000 1.000000 -0.000000
vn 0.000000 1.000000 -0.000000
vn 0.000000 1.000000 0.000000
vn 0.000000 1.000000 0.000000
vn 0.000000 1.000000 -0.000000
vn -0.394889 -0.457141 -0.796922
vn -0.394889 -0.457141 -0.796922
vn -0.394889 -0.457141 -0.796922
vn -0.394889 -0.457141 -0.796922
vn -0.917398 0.149541 0.368806
vn -0.917398 0.149541 0.368806
vn -0.917398 0.149541 0.368806
vn -0.917398 0.149541 0.368806
vn 0.394883 0.457253 0.796861
vn 0.394883 0.457253 0.796861
vn 0.394883 0.457253 0.796861
vn 0.394883 0.457253 0.796861
vn 0.917392 -0.149428 -0.368867
vn 0.917392 -0.149428 -0.368867
vn 0.917392 -0.149428 -0.368867
vn 0.917392 -0.149428 -0.368867
vn -0.049509 0.876713 -0.478458
vn -0.049509 0.876713 -0.478458
vn -0.049509 0.876713 -0.478458
vn -0.049509 0.876713 -0.478458
vn 0.117255 0.349678 -0.929503
vn 0.117255 0.349678 -0.929503
vn 0.117255 0.349678 -0.929503
vn 0.117255 0.349678 -0.929503
vn -0.193954 0.960623 -0.198961
vn -0.193954 0.960623 -0.198961
vn -0.193954 0.960623 -0.198961
vn -0.193954 0.960623 -0.198961
vn -0.688301 0.721742 -0.073005
vn -0.688301 0.721742 -0.073005
vn -0.688301 0.721742 -0.073005
vn -0.688301 0.721742 -0.073005
vn -0.916921 0.141720 0.373056
vn -0.916921 0.141720 0.373056
vn -0.916921 0.141720 0.373056
vn -0.916921 0.141720 0.373056
vn -0.595188 -0.533448 0.600986
vn -0.595188 -0.533448 0.600986
vn -0.595188 -0.533448 0.600986
vn -0.595188 -0.533448 0.600986
vn -0.102042 -0.885551 0.453196
vn -0.102042 -0.885551 0.453197
vn -0.102042 -0.885551 0.453197
vn -0.102042 -0.885551 0.453196
vn 0.227993 -0.926573 -0.299135
vn 0.227993 -0.926573 -0.299135
vn 0.227993 -0.926573 -0.299135
vn 0.227993 -0.926573 -0.299135
vn 0.247143 -0.419301 -0.873560
vn 0.247143 -0.419301 -0.873560
vn 0.247143 -0.419301 -0.873560
vn 0.247143 -0.419301 -0.873560
vn -0.055062 -0.442738 -0.894959
vn -0.055062 -0.442738 -0.894959
vn -0.055062 -0.442738 -0.894959
vn -0.302626 -0.498063 -0.812620
vn -0.318485 -0.532246 -0.784399
vn -0.304527 -0.468284 -0.829441
vn -0.315273 -0.435292 -0.843282
vn -0.302626 -0.498063 -0.812620
vn -0.304527 -0.468284 -0.829441
vn -0.305391 -0.418131 -0.855513
vn -0.315273 -0.435292 -0.843282
vn -0.304527 -0.468284 -0.829441
vn -0.304527 -0.468284 -0.829441
vn -0.241583 -0.443502 -0.863101
vn -0.305391 -0.418131 -0.855513
vn 0.966032 0.176878 0.188403
vn 0.966032 0.176877 0.188404
vn 0.966032 0.176877 0.188403
vn 0.966032 0.176878 0.188403
vn 0.394887 0.457197 0.796891
vn 0.394887 0.457197 0.796891
vn 0.394887 0.457197 0.796891
vn 0.394887 0.457197 0.796891
vn 0.966032 0.176877 0.188404
vn 0.966033 0.176877 0.188403
vn 0.966032 0.176878 0.188404
vn 0.966032 0.176877 0.188404
vn 0.966032 0.176878 0.188404
vn 0.966032 0.176878 0.188405
vn 0.966032 0.176878 0.188404
vn 0.966032 0.176877 0.188404
vn 0.966032 0.176878 0.188405
vn 0.966032 0.176878 0.188405
vn 0.966032 0.176878 0.188405
vn 0.966032 0.176878 0.188404
vn 0.966032 0.176878 0.188405
vn 0.966032 0.176877 0.188405
vn 0.966032 0.176877 0.188405
vn 0.966032 0.176878 0.188405
vn 0.015258 0.372362 0.927962
vn 0.038231 0.378509 0.924808
vn 0.038231 0.378509 0.924808
vn 0.018797 0.373323 0.927511
vn 0.394887 0.457197 0.796891
vn 0.394887 0.457197 0.796891
vn 0.394887 0.457197 0.796891
vn 0.394887 0.457197 0.796891
vn 0.394887 0.457197 0.796891
vn 0.394887 0.457197 0.796891
vn 0.394887 0.457197 0.796891
vn 0.394887 0.457197 0.796891
vn 0.394887 0.457197 0.796891
vn 0.394887 0.457197 0.796891
vn 0.394887 0.457197 0.796891
vn 0.394886 0.457197 0.796891
vn 0.966032 0.176878 0.188404
vn 0.966032 0.176877 0.188404
vn 0.966032 0.176877 0.188404
vn 0.966032 0.176877 0.188404
vn 0.966032 0.176877 0.188404
vn 0.966032 0.176878 0.188404
vn 0.966032 0.176878 0.188404
vn 0.966032 0.176877 0.188404
vn 0.966032 0.176878 0.188404
vn 0.966032 0.176878 0.188405
vn 0.966032 0.176878 0.188404
vn 0.966032 0.176878 0.188404
vn 0.966032 0.176878 0.188405
vn 0.966032 0.176877 0.188405
vn 0.966032 0.176877 0.188403
vn 0.966032 0.176878 0.188404
vn -0.005469 0.366633 0.930349
vn 0.015258 0.372362 0.927962
vn 0.018797 0.373323 0.927511
vn -0.005469 0.366633 0.930349
vn 0.394887 0.457197 0.796891
vn 0.394887 0.457197 0.796891
vn 0.394886 0.457197 0.796891
vn 0.394886 0.457197 0.796891
vn 0.394887 0.457197 0.796891
vn 0.394887 0.457197 0.796891
vn 0.394886 0.457197 0.796891
vn 0.394886 0.457197 0.796891
vn 0.966032 0.176877 0.188403
vn 0.966032 0.176877 0.188404
vn 0.966032 0.176878 0.188404
vn 0.966032 0.176877 0.188404
vn 0.966032 0.176878 0.188404
vn 0.966032 0.176878 0.188404
vn 0.966032 0.176878 0.188404
vn 0.966032 0.176878 0.188403
vn 0.966032 0.176877 0.188403
vn 0.966033 0.176878 0.188403
vn 0.966032 0.176878 0.188403
vn 0.966032 0.176878 0.188403
vn 0.966032 0.176878 0.188404
vn 0.966032 0.176877 0.188403
vn 0.394886 0.457197 0.796891
vn 0.394886 0.457197 0.796891
vn 0.394886 0.457197 0.796892
vn 0.394886 0.457197 0.796892
vn 0.191042 0.030527 0.981107
vn 0.191042 0.030527 0.981107
vn 0.191042 0.030527 0.981107
vn 0.191042 0.030527 0.981107
vn 0.977906 -0.033070 -0.206415
vn 0.977906 -0.033070 -0.206415
vn 0.977906 -0.033070 -0.206415
vn 0.977906 -0.033070 -0.206415
vn -0.189608 -0.010409 -0.981805
vn -0.189608 -0.010409 -0.981805
vn -0.189608 -0.010409 -0.981805
vn -0.189608 -0.010409 -0.981805
vn -0.977907 0.033131 0.206399
vn -0.977907 0.033131 0.206399
vn -0.977907 0.033131 0.206399
vn -0.977907 0.033131 0.206399
vn 0.161815 0.511583 0.843859
vn 0.153246 0.513455 0.844322
vn 0.199670 0.451142 0.869829
vn 0.199241 0.451597 0.869692
vn 0.178152 0.507896 0.842795
vn 0.178152 0.507896 0.842795
vn 0.153246 0.513455 0.844322
vn 0.161815 0.511583 0.843859
vn 0.146298 -0.960595 0.236336
vn 0.146298 -0.960595 0.236336
vn 0.146298 -0.960595 0.236336
vn 0.146298 -0.960595 0.236336
vn 0.966032 0.176877 0.188405
vn 0.966032 0.176877 0.188404
vn 0.966033 0.176878 0.188403
vn 0.966032 0.176877 0.188403
vn 0.966032 0.176877 0.188405
vn 0.966032 0.176878 0.188404
vn 0.966032 0.176877 0.188404
vn 0.966032 0.176877 0.188405
vn 0.101104 0.886351 -0.451840
vn 0.101104 0.886351 -0.451840
vn 0.101104 0.886351 -0.451840
vn 0.101104 0.886351 -0.451840
vn 0.143461 0.484912 0.862716
vn 0.143501 0.483426 0.863543
vn 0.143257 0.492371 0.858515
vn 0.143257 0.492371 0.858515
vn 0.143257 0.492371 0.858515
vn 0.195141 0.446193 0.873402
vn 0.188825 0.448096 0.873816
vn 0.143501 0.483426 0.863543
vn 0.143461 0.484912 0.862716
vn 0.199670 0.451142 0.869829
vn 0.188825 0.448096 0.873816
vn 0.195141 0.446193 0.873402
vn 0.208015 0.442246 0.872438
vn 0.199241 0.451597 0.869692
vn -0.960214 -0.186016 -0.208294
vn -0.952679 -0.196856 -0.231625
vn -0.959320 -0.180313 -0.217237
vn -0.959320 -0.180313 -0.217237
vn -0.961730 -0.178567 -0.207821
vn -0.960214 -0.186016 -0.208294
vn -0.961730 -0.178567 -0.207821
vn -0.960873 -0.190659 -0.200930
vn -0.960214 -0.186016 -0.208294
vn -0.960873 -0.190659 -0.200930
vn -0.958433 -0.195940 -0.207398
vn -0.960214 -0.186016 -0.208294
vn -0.958433 -0.195940 -0.207398
vn -0.952079 -0.197668 -0.233394
vn -0.960214 -0.186016 -0.208294
s off
f 1/67/1 2/2/2 4/66/3 3/4/4
f 5/64/5 6/6/6 8/69/7 7/8/8
f 7/8/9 8/69/10 2/2/11 1/67/12
f 2/70/13 8/7/14 6/65/15 4/3/16
f 7/68/17 1/1/18 3/63/19 5/5/20
f 3/9/21 4/82/22 10/78/23 9/71/24
f 4/10/25 6/80/26 11/76/27 10/62/28
f 6/13/29 5/77/30 12/73/31 11/75/32
f 5/15/33 3/81/34 9/72/35 12/57/36
f 56/158/37 57/160/38 14/59/39 13/83/40
f 57/161/41 54/154/42 15/58/43 14/17/44
f 54/155/45 55/156/46 16/55/47 15/19/48
f 55/157/49 56/159/50 13/54/51 16/20/52
f 14/84/53 15/21/54 16/56/55 13/18/56
f 17/104/57 18/30/58 26/113/59 25/32/60
f 64/201/61 65/189/62 19/33/63 27/112/64
f 19/100/65 20/35/66 28/111/67 27/34/68
f 20/98/69 21/37/70 29/110/71 28/36/72
f 21/96/73 22/39/74 30/109/75 29/38/76
f 60/209/77 61/187/78 23/41/79 31/108/80
f 23/92/81 24/43/82 32/107/83 31/42/84
f 24/90/85 17/29/86 25/106/87 32/44/88
f 19/47/89 65/190/90 33/85/91
f 20/48/92 19/101/93 33/86/94
f 21/49/95 20/99/96 33/87/97
f 22/50/98 21/97/99 33/88/100
f 33/89/101 61/169/102 22/95/103
f 66/196/104 67/191/105 51/135/106 52/136/107
f 29/25/108 30/24/109 34/115/110 35/114/111
f 59/211/112 60/208/113 31/226/114 36/222/115
f 31/23/116 32/225/117 37/220/118 36/116/119
f 32/22/120 25/224/121 38/217/122 37/117/123
f 25/53/124 26/28/125 39/205/126 38/118/127
f 63/203/128 64/200/129 27/27/130 40/120/131
f 27/27/132 28/26/133 41/121/134 40/120/135
f 28/26/136 29/25/137 35/114/138 41/121/139
f 35/138/140 34/139/141 42/140/142 43/141/143
f 58/162/144 59/210/145 36/223/146 44/219/147
f 36/142/148 37/221/149 45/215/150 44/143/151
f 37/144/152 38/218/153 46/213/154 45/145/155
f 38/146/156 39/148/157 47/207/158 46/147/159
f 62/170/160 63/202/161 40/150/162 48/151/163
f 40/150/164 41/152/165 49/153/166 48/151/167
f 41/152/168 35/138/169 43/141/170 49/153/171
f 51/212/172 67/192/173 58/163/174 44/124/175 45/216/176
f 45/125/177 46/214/178 52/199/179 51/131/180
f 62/198/181 66/195/182 52/132/183 46/126/184 47/127/185
f 49/129/186 43/122/187 50/130/188 53/133/189
f 11/14/190 12/74/191 55/156/192 54/155/193
f 12/16/194 9/61/195 56/159/196 55/157/197
f 9/12/198 10/79/199 57/160/200 56/158/201
f 10/11/202 11/60/203 54/154/204 57/161/205
f 34/139/206 59/165/207 58/193/208 42/140/209
f 30/24/210 60/167/211 59/164/212 34/115/213
f 22/94/214 61/168/215 60/166/216 30/40/217
f 39/206/218 63/173/219 62/197/220 47/149/221
f 26/204/222 64/175/223 63/172/224 39/119/225
f 18/102/226 65/176/227 64/174/228 26/31/229
f 53/133/230 66/178/231 62/171/232 48/128/233 49/129/234
f 50/134/235 67/181/236 66/179/237 53/137/238
f 58/194/239 67/180/240 50/130/241 43/122/242 42/123/243
f 33/183/244 65/177/245 18/103/246
f 18/45/247 17/105/248 33/182/249
f 17/46/250 24/91/251 33/184/252
f 24/52/253 23/93/254 33/185/255
f 23/51/256 61/188/257 33/186/258
