# This file uses meters as units for non-parametric coordinates.

v 0.453590 1.525015 -0.107084
v -0.455109 1.525015 -0.107084
v 0.453590 1.525015 0.094393
v -0.455109 1.525015 0.094393
v 0.453590 0.134554 0.094393
v -0.455109 0.134554 0.094393
v 0.453590 0.134554 -0.107084
v -0.455109 0.134554 -0.107084
v 0.367008 1.347508 0.094393
v -0.368526 1.347508 0.094393
v -0.368526 0.935229 0.094393
v 0.367008 0.935229 0.094393
v -0.455109 0.551693 -0.107084
v -0.455109 0.551693 0.094393
v -0.368526 0.992244 0.094393
v 0.367008 0.992244 0.094393
v 0.453590 0.551693 0.094393
v 0.453590 0.551693 -0.107084
v -0.368526 1.108833 0.094393
v 0.367008 1.108833 0.094393
v -0.455109 1.107877 -0.107084
v -0.455109 1.107877 0.094393
v -0.368526 1.173905 0.094393
v 0.367008 1.173905 0.094393
v 0.453590 1.107877 0.094393
v 0.453590 1.107877 -0.107084
v -0.368526 1.290494 0.094393
v 0.367008 1.290494 0.094393
v 0.694569 0.000000 -0.286346
v -0.694569 0.000000 -0.286346
v 0.694569 0.205155 -0.286346
v -0.694569 0.205155 -0.286346
v 0.694569 0.205155 0.286346
v -0.694569 0.205155 0.286346
v 0.694569 0.000000 0.286346
v -0.694569 0.000000 0.286346
vt 0.330112 0.060937
vt 0.330112 0.060937
vt 0.330112 0.060937
vt 0.330112 0.060937
vt 0.298415 0.060937
vt 0.298415 0.060937
vt 0.298415 0.060937
vt 0.298415 0.060937
vt 0.258501 0.060937
vt 0.258501 0.060937
vt 0.258501 0.060937
vt 0.258501 0.060937
vt 0.258501 0.060937
vt 0.258501 0.060937
vt 0.258501 0.060937
vt 0.258501 0.060937
vt 0.258501 0.060937
vt 0.258501 0.060937
vt 0.258501 0.060937
vt 0.258501 0.060937
vt 0.200977 0.060937
vt 0.298415 0.060937
vt 0.200977 0.060937
vt 0.298415 0.060937
vt 0.258501 0.060937
vt 0.298415 0.060937
vt 0.258501 0.060937
vt 0.298415 0.060937
vt 0.298415 0.060937
vt 0.258501 0.060937
vt 0.298415 0.060937
vt 0.258501 0.060937
vt 0.200977 0.060937
vt 0.298415 0.060937
vt 0.258501 0.060937
vt 0.298415 0.060937
vt 0.258501 0.060937
vt 0.298415 0.060937
vt 0.298415 0.060937
vt 0.258501 0.060937
vt 0.298415 0.060937
vt 0.258501 0.060937
vt 0.298415 0.060937
vt 0.298415 0.060937
vt 0.200977 0.060937
vt 0.200977 0.060937
vt 0.200977 0.060937
vt 0.200977 0.060937
vt 0.200977 0.060937
vt 0.298415 0.060937
vt 0.200977 0.060937
vt 0.200977 0.060937
vt 0.200977 0.060937
vt 0.298415 0.060937
vt 0.298415 0.060937
vt 0.200977 0.060937
vt 0.298415 0.060937
vt 0.298415 0.060937
vt 0.298415 0.060937
vt 0.298415 0.060937
vt 0.298415 0.060937
vt 0.298415 0.060937
vt 0.298415 0.060937
vt 0.298415 0.060937
vt 0.298415 0.060937
vt 0.298415 0.060937
vt 0.298415 0.060937
vt 0.298415 0.060937
vt 0.330112 0.060937
vt 0.330112 0.060937
vt 0.330112 0.060937
vt 0.330112 0.060937
vt 0.298415 0.060937
vt 0.298415 0.060937
vt 0.298415 0.060937
vt 0.298415 0.060937
vt 0.258501 0.060937
vt 0.258501 0.060937
vt 0.258501 0.060937
vt 0.258501 0.060937
vt 0.258501 0.060937
vt 0.258501 0.060937
vt 0.258501 0.060937
vt 0.258501 0.060937
vt 0.298415 0.060937
vt 0.298415 0.060937
vt 0.298415 0.060937
vt 0.298415 0.060937
vt 0.298415 0.060937
vt 0.298415 0.060937
vt 0.298415 0.060937
vt 0.298415 0.060937
vt 0.298415 0.060937
vt 0.298415 0.060937
vt 0.298415 0.060937
vt 0.298415 0.060937
vt 0.298415 0.060937
vt 0.298415 0.060937
vt 0.298415 0.060937
vt 0.298415 0.060937
vt 0.298415 0.060937
vt 0.298415 0.060937
vt 0.298415 0.060937
vt 0.298415 0.060937
vt 0.298415 0.060937
vt 0.298415 0.060937
vt 0.298415 0.060937
vt 0.298415 0.060937
vt 0.298415 0.060937
vt 0.298415 0.060937
vt 0.298415 0.060937
vt 0.298415 0.060937
vt 0.298415 0.060937
vt 0.298415 0.060937
vt 0.298415 0.060937
vt 0.298415 0.060937
vt 0.298415 0.060937
vt 0.298415 0.060937
vt 0.298415 0.060937
vt 0.298415 0.060937
vn 0.000000 1.000000 0.000000
vn 0.000000 1.000000 0.000000
vn 0.000000 1.000000 0.000000
vn 0.000000 1.000000 0.000000
vn 0.000000 0.000000 1.000000
vn 0.000000 0.000000 1.000000
vn 0.000000 0.000000 1.000000
vn -0.000000 0.000000 1.000000
vn 0.000000 -1.000000 0.000000
vn 0.000000 -1.000000 0.000000
vn 0.000000 -1.000000 0.000000
vn 0.000000 -1.000000 0.000000
vn -1.000000 0.000000 0.000000
vn -1.000000 0.000000 0.000000
vn -1.000000 0.000000 0.000000
vn -1.000000 0.000000 0.000000
vn 1.000000 0.000000 0.000000
vn 1.000000 0.000000 0.000000
vn 1.000000 0.000000 0.000000
vn 1.000000 0.000000 0.000000
vn 0.000000 0.000000 1.000000
vn 0.000000 0.000000 1.000000
vn 0.000000 0.000000 1.000000
vn 0.000000 0.000000 1.000000
vn 0.000000 0.000000 1.000000
vn 0.000000 0.000000 1.000000
vn 0.000000 0.000000 1.000000
vn 0.000000 0.000000 1.000000
vn -0.000000 0.000000 1.000000
vn 0.000000 0.000000 1.000000
vn 0.000000 0.000000 1.000000
vn -0.000000 0.000000 1.000000
vn -0.000000 0.000000 1.000000
vn 0.000000 0.000000 1.000000
vn 0.000000 0.000000 1.000000
vn -0.000000 0.000000 1.000000
vn -1.000000 0.000000 0.000000
vn -1.000000 0.000000 0.000000
vn -1.000000 0.000000 0.000000
vn -1.000000 0.000000 0.000000
vn 0.000000 0.000000 1.000000
vn -0.000000 0.000000 1.000000
vn -0.000000 0.000000 1.000000
vn -0.000000 0.000000 1.000000
vn 0.000000 0.000000 1.000000
vn 0.000000 0.000000 1.000000
vn -0.000000 0.000000 1.000000
vn 0.000000 0.000000 1.000000
vn 0.000000 0.000000 1.000000
vn 0.000000 0.000000 1.000000
vn 0.000000 0.000000 1.000000
vn 0.000000 0.000000 1.000000
vn 1.000000 0.000000 0.000000
vn 1.000000 0.000000 0.000000
vn 1.000000 0.000000 0.000000
vn 1.000000 0.000000 0.000000
vn 0.000000 0.000000 1.000000
vn -0.000000 0.000000 1.000000
vn 0.000000 0.000000 1.000000
vn 0.000000 0.000000 1.000000
vn 0.000000 0.000000 1.000000
vn 0.000000 0.000000 1.000000
vn 0.000000 0.000000 1.000000
vn 0.000000 0.000000 1.000000
vn 0.000000 0.000000 1.000000
vn 0.000000 0.000000 1.000000
vn -1.000000 0.000000 0.000000
vn -1.000000 0.000000 0.000000
vn -1.000000 0.000000 0.000000
vn -1.000000 0.000000 0.000000
vn 0.000000 0.000000 1.000000
vn 0.000000 0.000000 1.000000
vn -0.000000 0.000000 1.000000
vn 0.000000 0.000000 1.000000
vn -0.000000 0.000000 1.000000
vn 0.000000 0.000000 1.000000
vn 0.000000 0.000000 1.000000
vn 0.000000 0.000000 1.000000
vn 0.000000 0.000000 1.000000
vn -0.000000 0.000000 1.000000
vn -0.000000 0.000000 1.000000
vn 0.000000 0.000000 1.000000
vn 1.000000 0.000000 0.000000
vn 1.000000 0.000000 0.000000
vn 1.000000 0.000000 0.000000
vn 1.000000 0.000000 0.000000
vn 0.000000 0.000000 1.000000
vn 0.000000 0.000000 1.000000
vn 0.000000 0.000000 1.000000
vn -0.000000 0.000000 1.000000
vn 0.000000 0.000000 1.000000
vn 0.000000 0.000000 1.000000
vn -0.000000 0.000000 1.000000
vn -0.000000 0.000000 1.000000
vn -0.000000 0.000000 1.000000
vn -0.000000 0.000000 1.000000
vn 0.000000 0.000000 -1.000000
vn 0.000000 0.000000 -1.000000
vn 0.000000 0.000000 -1.000000
vn 0.000000 0.000000 -1.000000
vn 0.000000 0.000000 -1.000000
vn 0.000000 0.000000 -1.000000
vn 0.000000 0.000000 -1.000000
vn -0.000000 0.000000 -1.000000
vn -0.000000 0.000000 -1.000000
vn -0.000000 0.000000 -1.000000
vn -0.000000 0.000000 -1.000000
vn 0.000000 0.000000 -1.000000
vn 0.000000 0.000000 -1.000000
vn 0.000000 0.000000 -1.000000
vn 0.000000 0.000000 -1.000000
vn 0.000000 0.000000 -1.000000
vn 0.000000 1.000000 0.000000
vn 0.000000 1.000000 0.000000
vn 0.000000 1.000000 0.000000
vn 0.000000 1.000000 0.000000
vn 0.000000 0.000000 1.000000
vn 0.000000 0.000000 1.000000
vn 0.000000 0.000000 1.000000
vn 0.000000 0.000000 1.000000
vn -1.000000 0.000000 0.000000
vn -1.000000 0.000000 0.000000
vn -1.000000 0.000000 0.000000
vn -1.000000 0.000000 0.000000
vn 1.000000 0.000000 0.000000
vn 1.000000 0.000000 0.000000
vn 1.000000 0.000000 0.000000
vn 1.000000 0.000000 0.000000
s off
f 1/1/1 2/2/2 4/3/3 3/4/4
f 9/21/5 10/56/6 27/45/7 28/46/8
f 5/9/9 6/10/10 8/11/11 7/12/12
f 2/13/13 21/35/14 22/37/15 4/16/16
f 26/42/17 1/18/18 3/19/19 25/40/20
f 3/5/21 4/119/22 10/22/23 9/117/24
f 4/6/25 22/105/26 27/95/27 10/120/28
f 6/116/29 5/8/30 12/114/31 11/54/32
f 25/97/33 3/118/34 9/55/35 28/91/36
f 13/25/37 8/14/38 6/15/39 14/27/40
f 15/111/41 14/108/42 6/7/43 11/115/44
f 16/52/45 15/51/46 11/23/47 12/53/48
f 5/113/49 17/31/50 16/109/51 12/24/52
f 7/17/53 18/32/54 17/30/55 5/20/56
f 19/103/57 14/107/58 15/112/59
f 20/102/60 19/50/61 15/28/62 16/110/63
f 17/99/64 20/101/65 16/29/66
f 21/35/67 13/25/68 14/27/69 22/37/70
f 23/93/71 22/36/72 14/26/73 19/104/74
f 24/48/75 23/47/76 19/33/77 20/49/78
f 17/100/79 25/98/80 24/89/81 20/34/82
f 18/32/83 26/42/84 25/40/85 17/30/86
f 27/43/87 22/106/88 23/94/89
f 28/44/90 27/96/91 23/38/92 24/90/93
f 25/41/94 28/92/95 24/39/96
f 1/57/97 26/87/98 21/59/99 2/60/100
f 13/61/101 21/88/102 26/58/103 18/85/104
f 18/62/105 7/63/106 8/64/107 13/86/108
f 29/65/109 30/66/110 32/67/111 31/68/112
f 31/69/113 32/70/114 34/71/115 33/72/116
f 33/73/117 34/74/118 36/75/119 35/76/120
f 30/77/121 36/78/122 34/79/123 32/80/124
f 35/81/125 29/82/126 31/83/127 33/84/128
