# This file uses meters as units for non-parametric coordinates.

v -0.032709 0.002626 -2.066820
v -0.215800 0.008003 -2.128183
v -0.210697 0.201105 -2.126486
v -0.027606 0.195728 -2.065125
v -0.581523 0.002626 -0.488420
v -0.783504 0.008011 -0.434654
v -0.778395 0.201340 -0.432957
v -0.576415 0.195955 -0.486723
v 0.425039 0.173592 -1.840385
v 0.223495 0.182249 -2.219543
v -0.348930 0.199011 -2.405666
v -0.731888 0.207424 -2.211267
v -0.921793 0.207312 -1.627548
v -0.720253 0.198654 -1.248390
v -0.147825 0.181892 -1.062269
v 0.235133 0.173481 -1.256670
v 0.427326 0.260139 -1.839624
v 0.225782 0.268797 -2.218784
v -0.346643 0.285559 -2.404907
v -0.729601 0.293972 -2.210506
v -0.919505 0.293859 -1.626787
v -0.717966 0.285202 -1.247629
v -0.145538 0.268440 -1.061508
v 0.237420 0.260029 -1.255911
v -0.248379 0.190453 -1.733969
v -0.672464 0.284410 -1.294453
v -0.854569 0.292234 -1.637049
v -0.155234 0.269264 -1.126278
v 0.190796 0.261665 -1.301935
v 0.362390 0.261765 -1.829363
v 0.180280 0.269588 -2.171961
v -0.336947 0.284735 -2.340136
v -0.682977 0.292336 -2.164480
v -0.609348 0.283314 -1.359402
v -0.764497 0.289980 -1.651283
v -0.168684 0.270411 -1.216122
v 0.126124 0.263935 -1.365776
v 0.272316 0.264021 -1.815128
v 0.117164 0.270685 -2.107012
v -0.323498 0.283588 -2.250292
v -0.618304 0.290064 -2.100639
v -0.580379 0.285961 -1.747816
v 0.033716 0.267969 -1.546949
v 0.088198 0.268038 -1.718597
v -0.525897 0.286030 -1.919464
v 0.284611 -0.000000 -0.323521
v -0.300683 -0.000000 -0.323521
v 0.284611 0.132379 -0.323521
v -0.300683 0.132379 -0.323521
v 0.284611 0.132379 0.261776
v -0.300683 0.132379 0.261776
v 0.284611 -0.000000 0.261776
v -0.300683 -0.000000 0.261776
v 0.088725 0.132379 -0.127632
v -0.104796 0.132379 -0.127632
v -0.104796 0.132379 0.065887
v 0.088725 0.132379 0.065887
v -0.104738 1.037810 0.065830
v 0.088667 0.969415 0.065830
v 0.088667 0.969415 -0.127573
v -0.104738 1.037810 -0.127573
v 0.062348 0.969415 0.039513
v 0.062348 0.969415 -0.101255
v -0.078419 1.037810 -0.101255
v -0.078419 1.037810 0.039513
v -0.607164 0.031219 -0.497017
v -0.756393 0.035054 -0.425570
v -0.603526 0.168912 -0.495808
v -0.752755 0.172747 -0.424360
vt 0.324657 0.066919
vt 0.324657 0.066919
vt 0.324657 0.066919
vt 0.324657 0.066919
vt 0.297247 0.066919
vt 0.297247 0.066919
vt 0.297247 0.066919
vt 0.297247 0.066919
vt 0.324657 0.066919
vt 0.324657 0.066919
vt 0.324657 0.066919
vt 0.324657 0.066919
vt 0.297247 0.066919
vt 0.297247 0.066919
vt 0.297247 0.066919
vt 0.297247 0.066919
vt 0.357917 0.066919
vt 0.357917 0.066919
vt 0.357917 0.066919
vt 0.357917 0.066919
vt 0.204123 0.171559
vt 0.204123 0.171559
vt 0.204123 0.171559
vt 0.204123 0.171559
vt 0.229289 0.171559
vt 0.229289 0.171559
vt 0.229289 0.171559
vt 0.229289 0.171559
vt 0.204123 0.171559
vt 0.204123 0.171559
vt 0.204123 0.171559
vt 0.204123 0.171559
vt 0.143193 0.171559
vt 0.143193 0.171559
vt 0.143193 0.171559
vt 0.143193 0.171559
vt 0.120676 0.171559
vt 0.120676 0.171559
vt 0.120676 0.171559
vt 0.120676 0.171559
vt 0.078290 0.171559
vt 0.078290 0.171559
vt 0.078290 0.171559
vt 0.078290 0.171559
vt 0.120676 0.171559
vt 0.120676 0.171559
vt 0.120676 0.171559
vt 0.120676 0.171559
vt 0.143193 0.171559
vt 0.143193 0.171559
vt 0.143193 0.171559
vt 0.143193 0.171559
vt 0.171009 0.171559
vt 0.171009 0.171559
vt 0.171009 0.171559
vt 0.171009 0.171559
vt 0.171009 0.171559
vt 0.171009 0.171559
vt 0.171009 0.171559
vt 0.171009 0.171559
vt 0.171009 0.171559
vt 0.171009 0.171559
vt 0.171009 0.171559
vt 0.171009 0.171559
vt 0.171009 0.171559
vt 0.171009 0.171559
vt 0.171009 0.171559
vt 0.171009 0.171559
vt 0.171009 0.171559
vt 0.171009 0.171559
vt 0.171009 0.171559
vt 0.171009 0.171559
vt 0.171009 0.171559
vt 0.171009 0.171559
vt 0.171009 0.171559
vt 0.171009 0.171559
vt 0.387985 0.064068
vt 0.387985 0.064068
vt 0.387985 0.064068
vt 0.387985 0.064068
vt 0.171009 0.171559
vt 0.171009 0.171559
vt 0.171009 0.171559
vt 0.171009 0.171559
vt 0.171009 0.171559
vt 0.171009 0.171559
vt 0.171009 0.171559
vt 0.171009 0.171559
vt 0.171009 0.171559
vt 0.171009 0.171559
vt 0.171009 0.171559
vt 0.171009 0.171559
vt 0.171009 0.171559
vt 0.171009 0.171559
vt 0.171009 0.171559
vt 0.171009 0.171559
vt 0.387985 0.064068
vt 0.387985 0.064068
vt 0.387985 0.064068
vt 0.387985 0.064068
vt 0.387985 0.064068
vt 0.387985 0.064068
vt 0.387985 0.064068
vt 0.387985 0.064068
vt 0.387985 0.064068
vt 0.387985 0.064068
vt 0.387985 0.064068
vt 0.387985 0.064068
vt 0.387985 0.064068
vt 0.387985 0.064068
vt 0.387985 0.064068
vt 0.387985 0.064068
vt 0.171009 0.171559
vt 0.171009 0.171559
vt 0.171009 0.171559
vt 0.171009 0.171559
vt 0.171009 0.171559
vt 0.171009 0.171559
vt 0.171009 0.171559
vt 0.171009 0.171559
vt 0.171009 0.171559
vt 0.171009 0.171559
vt 0.171009 0.171559
vt 0.171009 0.171559
vt 0.324657 0.066919
vt 0.324657 0.066919
vt 0.324657 0.066919
vt 0.324657 0.066919
vt 0.324657 0.066919
vt 0.324657 0.066919
vt 0.324657 0.066919
vt 0.324657 0.066919
vt 0.297247 0.066919
vt 0.297247 0.066919
vt 0.297247 0.066919
vt 0.297247 0.066919
vt 0.297247 0.066919
vt 0.297247 0.066919
vt 0.297247 0.066919
vt 0.297247 0.066919
vt 0.360515 0.066919
vt 0.360515 0.066919
vt 0.360515 0.066919
vt 0.360515 0.066919
vt 0.360515 0.066919
vt 0.360515 0.066919
vt 0.360515 0.066919
vt 0.360515 0.066919
vt 0.360515 0.066919
vt 0.360515 0.066919
vt 0.360515 0.066919
vt 0.360515 0.066919
vt 0.360515 0.066919
vt 0.360515 0.066919
vt 0.360515 0.066919
vt 0.360515 0.066919
vt 0.324657 0.066919
vt 0.324657 0.066919
vt 0.324657 0.066919
vt 0.324657 0.066919
vt 0.297247 0.066919
vt 0.297247 0.066919
vt 0.297247 0.066919
vt 0.297247 0.066919
vt 0.324657 0.066919
vt 0.324657 0.066919
vt 0.324657 0.066919
vt 0.324657 0.066919
vt 0.297247 0.066919
vt 0.297247 0.066919
vt 0.297247 0.066919
vt 0.297247 0.066919
vt 0.355717 0.061917
vt 0.355717 0.061917
vt 0.355717 0.061917
vt 0.355717 0.061917
vt 0.355717 0.061917
vt 0.355717 0.061917
vt 0.355717 0.061917
vt 0.355717 0.061917
vt 0.355717 0.061917
vt 0.355717 0.061917
vt 0.355717 0.061917
vt 0.355717 0.061917
vt 0.109404 0.474949
vt 0.109404 0.474949
vt 0.109404 0.474949
vt 0.109404 0.474949
vt 0.355717 0.061917
vt 0.355717 0.061917
vt 0.355717 0.061917
vt 0.355717 0.061917
vt 0.108329 0.479251
vt 0.108329 0.479251
vt 0.108329 0.479251
vt 0.108329 0.479251
vn -0.027747 -0.999570 -0.009466
vn -0.027747 -0.999570 -0.009466
vn -0.027747 -0.999570 -0.009466
vn -0.027747 -0.999570 -0.009466
vn -0.947778 0.027838 -0.317714
vn -0.947778 0.027838 -0.317714
vn -0.947778 0.027838 -0.317714
vn -0.947778 0.027838 -0.317714
vn 0.027750 0.999571 0.009328
vn 0.027750 0.999571 0.009328
vn 0.027750 0.999571 0.009328
vn 0.027750 0.999571 0.009328
vn 0.944167 -0.027834 0.328290
vn 0.944167 -0.027834 0.328290
vn 0.944167 -0.027834 0.328290
vn 0.944167 -0.027834 0.328290
vn 0.317772 -0.000067 -0.948167
vn 0.317772 -0.000067 -0.948167
vn 0.317772 -0.000067 -0.948167
vn 0.317772 -0.000067 -0.948167
vn 0.882660 -0.019199 -0.469620
vn 0.882660 -0.019199 -0.469620
vn 0.882660 -0.019199 -0.469620
vn 0.882660 -0.019199 -0.469620
vn 0.309218 0.000170 -0.950991
vn 0.309218 0.000170 -0.950991
vn 0.309218 0.000170 -0.950991
vn 0.309218 0.000170 -0.950991
vn -0.452212 0.019781 -0.891691
vn -0.452212 0.019781 -0.891691
vn -0.452212 0.019781 -0.891691
vn -0.452212 0.019781 -0.891691
vn -0.950573 0.027840 -0.309250
vn -0.950573 0.027840 -0.309250
vn -0.950573 0.027840 -0.309250
vn -0.950573 0.027840 -0.309250
vn -0.882663 0.019196 0.469614
vn -0.882663 0.019196 0.469614
vn -0.882663 0.019196 0.469614
vn -0.882663 0.019196 0.469614
vn -0.309214 -0.000191 0.950992
vn -0.309214 -0.000191 0.950992
vn -0.309214 -0.000191 0.950992
vn -0.309214 -0.000191 0.950992
vn 0.452215 -0.019781 0.891689
vn 0.452216 -0.019781 0.891689
vn 0.452216 -0.019781 0.891689
vn 0.452215 -0.019781 0.891689
vn 0.950572 -0.027834 0.309254
vn 0.950572 -0.027834 0.309254
vn 0.950572 -0.027834 0.309254
vn 0.950572 -0.027834 0.309254
vn -0.026416 -0.999612 -0.008782
vn -0.026416 -0.999612 -0.008783
vn -0.026415 -0.999613 -0.008784
vn -0.026417 -0.999612 -0.008782
vn -0.026416 -0.999612 -0.008782
vn -0.026415 -0.999613 -0.008784
vn -0.026416 -0.999613 -0.008784
vn -0.026417 -0.999612 -0.008782
vn -0.026415 -0.999613 -0.008784
vn -0.026414 -0.999613 -0.008785
vn -0.026416 -0.999613 -0.008784
vn -0.026415 -0.999613 -0.008784
vn -0.026414 -0.999613 -0.008785
vn -0.026414 -0.999613 -0.008785
vn -0.026415 -0.999613 -0.008784
vn -0.026415 -0.999613 -0.008785
vn -0.026414 -0.999613 -0.008785
vn -0.026415 -0.999613 -0.008784
vn -0.026416 -0.999613 -0.008784
vn -0.026415 -0.999613 -0.008785
vn -0.026415 -0.999613 -0.008784
vn -0.026416 -0.999612 -0.008783
vn -0.026416 -0.999613 -0.008784
vn -0.026415 -0.999613 -0.008784
vn 0.026416 0.999612 0.008784
vn 0.026415 0.999613 0.008784
vn 0.026414 0.999613 0.008783
vn 0.026415 0.999612 0.008783
vn 0.026411 0.999613 0.008785
vn 0.026418 0.999613 0.008776
vn 0.026415 0.999613 0.008783
vn 0.026414 0.999613 0.008786
vn 0.026418 0.999613 0.008776
vn 0.026415 0.999613 0.008771
vn 0.026415 0.999613 0.008780
vn 0.026415 0.999613 0.008783
vn 0.026415 0.999613 0.008771
vn 0.026409 0.999613 0.008778
vn 0.026413 0.999613 0.008782
vn 0.026415 0.999613 0.008780
vn 0.026409 0.999613 0.008778
vn 0.026412 0.999613 0.008783
vn 0.026415 0.999612 0.008783
vn 0.026413 0.999613 0.008782
vn 0.026412 0.999613 0.008783
vn 0.026418 0.999613 0.008776
vn 0.026417 0.999612 0.008781
vn 0.026415 0.999612 0.008783
vn 0.026418 0.999613 0.008776
vn 0.026417 0.999613 0.008770
vn 0.026417 0.999612 0.008781
vn 0.026417 0.999612 0.008781
vn 0.026417 0.999613 0.008770
vn 0.026410 0.999613 0.008779
vn 0.026415 0.999613 0.008785
vn 0.026417 0.999612 0.008781
vn 0.026410 0.999613 0.008779
vn 0.026411 0.999613 0.008785
vn 0.026414 0.999613 0.008786
vn 0.026415 0.999613 0.008785
vn 0.026414 0.999613 0.008786
vn 0.026415 0.999613 0.008783
vn 0.026415 0.999612 0.008785
vn 0.026416 0.999612 0.008784
vn 0.026415 0.999613 0.008783
vn 0.026415 0.999613 0.008780
vn 0.026415 0.999612 0.008785
vn 0.026415 0.999612 0.008785
vn 0.026415 0.999613 0.008780
vn 0.026413 0.999613 0.008782
vn 0.026416 0.999612 0.008785
vn 0.026415 0.999612 0.008785
vn 0.026413 0.999613 0.008782
vn 0.026415 0.999612 0.008783
vn 0.026416 0.999612 0.008784
vn 0.026416 0.999612 0.008785
vn 0.026415 0.999612 0.008783
vn 0.026417 0.999612 0.008781
vn 0.026414 0.999613 0.008784
vn 0.026416 0.999612 0.008784
vn 0.026417 0.999612 0.008781
vn 0.026417 0.999612 0.008781
vn 0.026415 0.999612 0.008786
vn 0.026414 0.999613 0.008784
vn 0.026417 0.999612 0.008781
vn 0.026415 0.999613 0.008785
vn 0.026417 0.999612 0.008785
vn 0.026415 0.999612 0.008786
vn 0.026415 0.999613 0.008785
vn 0.026414 0.999613 0.008786
vn 0.026416 0.999612 0.008784
vn 0.026417 0.999612 0.008785
vn 0.026415 0.999613 0.008784
vn 0.026416 0.999612 0.008784
vn 0.026416 0.999612 0.008784
vn 0.026415 0.999612 0.008785
vn 0.026415 0.999612 0.008785
vn 0.026416 0.999612 0.008785
vn 0.026416 0.999612 0.008785
vn 0.026416 0.999612 0.008784
vn 0.026414 0.999613 0.008783
vn 0.026415 0.999613 0.008784
vn 0.026415 0.999612 0.008783
vn 0.026414 0.999613 0.008783
vn 0.026416 0.999612 0.008784
vn 0.026414 0.999613 0.008784
vn 0.026415 0.999612 0.008786
vn 0.026417 0.999612 0.008785
vn 0.026417 0.999612 0.008785
vn 0.026416 0.999612 0.008784
vn 0.026416 0.999612 0.008784
vn 0.026415 0.999612 0.008783
vn 0.000000 0.000000 -1.000000
vn 0.000000 0.000000 -1.000000
vn 0.000000 0.000000 -1.000000
vn 0.000000 0.000000 -1.000000
vn 0.000000 0.000000 1.000000
vn 0.000000 0.000000 1.000000
vn 0.000000 0.000000 1.000000
vn 0.000000 0.000000 1.000000
vn 0.000000 -1.000000 0.000000
vn 0.000000 -1.000000 0.000000
vn 0.000000 -1.000000 0.000000
vn 0.000000 -1.000000 0.000000
vn -1.000000 0.000000 0.000000
vn -1.000000 0.000000 0.000000
vn -1.000000 0.000000 0.000000
vn -1.000000 0.000000 0.000000
vn 1.000000 0.000000 0.000000
vn 1.000000 0.000000 0.000000
vn 1.000000 0.000000 0.000000
vn 1.000000 0.000000 0.000000
vn 0.000000 1.000000 0.000000
vn 0.000000 1.000000 0.000000
vn 0.000000 1.000000 0.000000
vn 0.000000 1.000000 0.000000
vn 0.000000 1.000000 0.000000
vn 0.000000 1.000000 -0.000000
vn 0.000000 1.000000 -0.000000
vn 0.000000 1.000000 0.000000
vn 0.000000 1.000000 -0.000000
vn 0.000000 1.000000 -0.000000
vn 0.000000 1.000000 -0.000000
vn 0.000000 1.000000 -0.000000
vn 0.000000 1.000000 -0.000000
vn 0.000000 1.000000 0.000000
vn 0.000000 1.000000 0.000000
vn 0.000000 1.000000 -0.000000
vn 0.000012 0.000066 1.000000
vn 0.000012 0.000066 1.000000
vn 0.000012 0.000066 1.000000
vn 0.000012 0.000066 1.000000
vn 1.000000 0.000069 0.000000
vn 1.000000 0.000069 0.000000
vn 1.000000 0.000069 0.000000
vn 1.000000 0.000069 0.000000
vn 0.000012 0.000068 -1.000000
vn 0.000012 0.000068 -1.000000
vn 0.000012 0.000068 -1.000000
vn 0.000012 0.000068 -1.000000
vn -1.000000 0.000064 0.000000
vn -1.000000 0.000064 0.000000
vn -1.000000 0.000064 0.000000
vn -1.000000 0.000064 0.000000
vn 0.409377 -0.018827 0.912171
vn 0.409268 -0.018825 0.912220
vn 0.409377 -0.018828 0.912171
vn 0.409268 -0.018825 0.912220
vn 0.423397 0.905944 -0.000000
vn 0.423397 0.905944 -0.000000
vn 0.423397 0.905944 -0.000000
vn 0.423397 0.905944 -0.000000
vn 0.000000 1.000000 0.000000
vn 0.000000 1.000000 0.000000
vn 0.000000 1.000000 0.000000
vn 0.000000 1.000000 0.000000
vn 0.378833 0.925465 -0.000000
vn 0.378833 0.925465 -0.000000
vn 0.423397 0.905944 -0.000000
vn 0.423397 0.905944 -0.000000
vn 0.000000 1.000000 0.000000
vn 0.000000 1.000000 0.000000
vn 0.000000 1.000000 0.000000
vn 0.000000 1.000000 0.000000
vn 0.378833 0.925465 -0.000001
vn 0.378833 0.925465 -0.000001
vn 0.423397 0.905944 -0.000000
vn 0.423397 0.905944 -0.000000
vn 0.335368 -0.017130 0.941931
vn 0.335369 -0.017130 0.941931
vn 0.409268 -0.018825 0.912220
vn 0.409377 -0.018827 0.912171
vn -0.317798 0.000072 0.948159
vn -0.317798 0.000072 0.948159
vn -0.317798 0.000072 0.948159
vn -0.317798 0.000072 0.948159
vn 0.335369 -0.017130 0.941931
vn 0.335369 -0.017130 0.941931
vn 0.409268 -0.018825 0.912220
vn 0.409377 -0.018828 0.912171
vn -0.317799 0.000072 0.948158
vn -0.317799 0.000072 0.948158
vn -0.317799 0.000072 0.948158
vn -0.317798 0.000072 0.948158
s off
f 5/1/1 6/2/2 2/3/3 1/4/4
f 6/5/5 7/6/6 3/7/7 2/8/8
f 7/9/9 8/10/10 4/11/11 3/12/12
f 8/13/13 5/14/14 1/15/15 4/16/16
f 2/17/17 3/18/18 4/19/19 1/20/20
f 9/21/21 10/22/22 18/23/23 17/24/24
f 10/25/25 11/26/26 19/27/27 18/28/28
f 11/29/29 12/30/30 20/31/31 19/32/32
f 12/33/33 13/34/34 21/35/35 20/36/36
f 13/37/37 14/38/38 22/39/39 21/40/40
f 14/41/41 15/42/42 23/43/43 22/44/44
f 15/45/45 16/46/46 24/47/47 23/48/48
f 16/49/49 9/50/50 17/51/51 24/52/52
f 10/53/53 9/54/54 25/55/55
f 11/56/56 10/57/57 25/58/58
f 12/59/59 11/60/60 25/61/61
f 13/62/62 12/63/63 25/64/64
f 14/65/65 13/66/66 25/67/67
f 15/68/68 14/69/69 25/70/70
f 16/71/71 15/72/72 25/73/73
f 9/74/74 16/75/75 25/76/76
f 42/77/77 43/78/78 44/79/79 45/80/80
f 21/81/81 22/82/82 26/83/83 27/84/84
f 22/82/85 23/85/86 28/86/87 26/83/88
f 23/85/89 24/87/90 29/88/91 28/86/92
f 24/87/93 17/89/94 30/90/95 29/88/96
f 17/89/97 18/91/98 31/92/99 30/90/100
f 18/91/101 19/93/102 32/94/103 31/92/104
f 19/93/105 20/95/106 33/96/107 32/94/108
f 20/95/109 21/81/110 27/84/111 33/96/112
f 27/97/113 26/98/114 34/99/115 35/100/116
f 26/98/117 28/101/118 36/102/119 34/99/120
f 28/101/121 29/103/122 37/104/123 36/102/124
f 29/103/125 30/105/126 38/106/127 37/104/128
f 30/105/129 31/107/130 39/108/131 38/106/132
f 31/107/133 32/109/134 40/110/135 39/108/136
f 32/109/137 33/111/138 41/112/139 40/110/140
f 33/111/141 27/97/142 35/100/143 41/112/144
f 43/113/145 42/114/146 35/115/147 34/116/148 36/117/149 37/118/150
f 37/118/151 38/119/152 44/120/153 43/113/154
f 45/121/155 44/120/156 38/119/157 39/122/158 40/123/159 41/124/160
f 41/124/161 35/115/162 42/114/163 45/121/164
f 46/125/165 47/126/166 49/127/167 48/128/168
f 50/129/169 51/130/170 53/131/171 52/132/172
f 52/132/173 53/131/174 47/126/175 46/125/176
f 47/133/177 53/134/178 51/135/179 49/136/180
f 52/137/181 46/138/182 48/139/183 50/140/184
f 48/141/185 49/142/186 55/143/187 54/144/188
f 49/145/189 51/146/190 56/147/191 55/148/192
f 51/149/193 50/150/194 57/151/195 56/152/196
f 50/153/197 48/154/198 54/155/199 57/156/200
f 56/157/201 57/158/202 59/159/203 58/160/204
f 57/161/205 54/162/206 60/163/207 59/164/208
f 54/165/209 55/166/210 61/167/211 60/168/212
f 55/169/213 56/170/214 58/171/215 61/172/216
f 67/193/217 66/194/218 68/195/219 69/196/220
f 62/185/221 63/186/222 64/187/223 65/188/224
f 59/177/225 60/178/226 63/182/227 62/181/228
f 60/178/229 61/179/230 64/183/231 63/182/232
f 61/179/233 58/180/234 65/184/235 64/183/236
f 58/180/237 59/177/238 62/181/239 65/184/240
f 6/173/241 5/174/242 66/190/243 67/189/244
f 5/174/245 8/175/246 68/191/247 66/190/248
f 8/175/249 7/176/250 69/192/251 68/191/252
f 7/176/253 6/173/254 67/189/255 69/192/256
