# This file uses meters as units for non-parametric coordinates.

v 0.311891 -0.000000 -0.285330
v -0.273404 -0.000000 -0.285330
v 0.311891 0.132379 -0.285330
v -0.273404 0.132379 -0.285330
v 0.311891 0.132379 0.299966
v -0.273404 0.132379 0.299966
v 0.311891 -0.000000 0.299966
v -0.273404 -0.000000 0.299966
v 0.116004 0.132379 -0.089442
v -0.077516 0.132379 -0.089442
v -0.077516 0.132379 0.104078
v 0.116004 0.132379 0.104078
v -0.060919 2.668114 -0.715486
v -0.237075 2.609692 -0.661890
v -0.228019 2.724600 -0.506870
v -0.051863 2.783022 -0.560466
v 1.762529 -0.006170 -0.896446
v 1.531612 -0.000282 -1.258522
v 0.946141 0.010283 -1.398897
v 0.579653 0.015143 -1.174883
v 0.436420 0.014182 -0.577994
v 0.667333 0.008293 -0.215919
v 1.252807 -0.002270 -0.075547
v 1.619295 -0.007131 -0.299562
v 1.763975 0.080399 -0.895961
v 1.533057 0.086287 -1.258036
v 0.947586 0.096851 -1.398410
v 0.581099 0.101712 -1.174396
v 0.437865 0.100751 -0.577508
v 0.668779 0.094862 -0.215433
v 1.254252 0.084298 -0.075060
v 1.620740 0.079437 -0.299076
v 1.099473 0.004007 -0.737222
v 1.214109 0.091382 -1.217004
v 1.100919 0.090575 -0.736736
v 1.581148 0.081922 -0.623696
v 1.639298 0.082312 -0.866021
v 1.451801 0.087093 -1.160014
v 0.492754 0.099909 -0.590689
v 0.624130 0.100790 -1.138166
v 0.562541 0.098838 -0.607447
v 0.620692 0.099228 -0.849775
v 0.704552 0.094507 -0.258587
v 0.750036 0.094056 -0.313455
v 1.241559 0.084818 -0.129834
v 0.987728 0.089767 -0.256466
v 1.577709 0.080359 -0.335306
v 1.709086 0.081241 -0.882779
v 1.497284 0.086642 -1.214882
v 0.960279 0.096331 -1.343637
v 0.179637 1.979871 0.021427
v 0.355910 2.038332 -0.032205
v 0.346849 1.923348 -0.187327
v 0.170576 1.864886 -0.133695
v -0.050675 1.350938 0.049563
v 0.131470 1.389498 0.014189
v 0.125493 1.313657 -0.154005
v -0.056652 1.275097 -0.118630
vt 0.297247 0.066919
vt 0.324657 0.066919
vt 0.297247 0.066919
vt 0.324657 0.066919
vt 0.297247 0.066919
vt 0.324657 0.066919
vt 0.297247 0.066919
vt 0.324657 0.066919
vt 0.360515 0.066919
vt 0.360515 0.066919
vt 0.297247 0.066919
vt 0.324657 0.066919
vt 0.360515 0.066919
vt 0.324657 0.066919
vt 0.360515 0.066919
vt 0.297247 0.066919
vt 0.297247 0.066919
vt 0.357917 0.066919
vt 0.324657 0.066919
vt 0.297247 0.066919
vt 0.357917 0.066919
vt 0.240075 0.219091
vt 0.240075 0.219091
vt 0.107353 0.475537
vt 0.240075 0.219091
vt 0.240075 0.219091
vt 0.107353 0.475537
vt 0.240075 0.219091
vt 0.240075 0.219091
vt 0.240075 0.219091
vt 0.240075 0.219091
vt 0.240075 0.219091
vt 0.240075 0.219091
vt 0.240075 0.219091
vt 0.240075 0.219091
vt 0.240075 0.219091
vt 0.240075 0.219091
vt 0.240075 0.219091
vt 0.240075 0.219091
vt 0.117476 0.471038
vt 0.117476 0.471038
vt 0.240075 0.219091
vt 0.240075 0.219091
vt 0.240075 0.219091
vt 0.117476 0.471038
vt 0.240075 0.219091
vt 0.240075 0.219091
vt 0.357917 0.066919
vt 0.324657 0.066919
vt 0.360515 0.066919
vt 0.297247 0.066919
vt 0.324657 0.066919
vt 0.357917 0.066919
vt 0.360515 0.066919
vt 0.297247 0.066919
vt 0.324657 0.066919
vt 0.297247 0.066919
vt 0.297247 0.066919
vt 0.360515 0.066919
vt 0.297247 0.066919
vt 0.324657 0.066919
vt 0.297247 0.066919
vt 0.324657 0.066919
vt 0.324657 0.066919
vt 0.297247 0.066919
vt 0.324657 0.066919
vt 0.297247 0.066919
vt 0.360515 0.066919
vt 0.360515 0.066919
vt 0.360515 0.066919
vt 0.324657 0.066919
vt 0.360515 0.066919
vt 0.360515 0.066919
vt 0.360515 0.066919
vt 0.360515 0.066919
vt 0.324657 0.066919
vt 0.360515 0.066919
vt 0.360515 0.066919
vt 0.297438 0.219091
vt 0.297438 0.219091
vt 0.297438 0.219091
vt 0.297438 0.219091
vt 0.265945 0.220215
vt 0.265945 0.220215
vt 0.265945 0.220215
vt 0.265945 0.220215
vt 0.265945 0.220215
vt 0.265945 0.220215
vt 0.265945 0.220215
vt 0.265945 0.220215
vt 0.240075 0.219091
vt 0.117476 0.471038
vt 0.240075 0.219091
vt 0.117476 0.471038
vt 0.117476 0.471038
vt 0.117476 0.471038
vt 0.240075 0.219091
vt 0.117476 0.471038
vt 0.240075 0.219091
vt 0.117476 0.471038
vt 0.117476 0.471038
vt 0.240075 0.219091
vt 0.240075 0.219091
vt 0.240075 0.219091
vt 0.240075 0.219091
vt 0.240075 0.219091
vt 0.240075 0.219091
vt 0.240075 0.219091
vt 0.240075 0.219091
vt 0.107353 0.475537
vt 0.107353 0.475537
vt 0.107353 0.475537
vt 0.107353 0.475537
vt 0.107353 0.475537
vt 0.107353 0.475537
vt 0.107353 0.475537
vt 0.107353 0.475537
vt 0.107353 0.475537
vt 0.107353 0.475537
vt 0.107353 0.475537
vt 0.107353 0.475537
vt 0.107353 0.475537
vt 0.107353 0.475537
vt 0.297247 0.066919
vt 0.324657 0.066919
vt 0.324657 0.066919
vt 0.297247 0.066919
vt 0.324657 0.066919
vt 0.297247 0.066919
vt 0.324657 0.066919
vt 0.297247 0.066919
vt 0.297247 0.066919
vt 0.324657 0.066919
vt 0.324657 0.066919
vt 0.297247 0.066919
vt 0.324657 0.066919
vt 0.297247 0.066919
vt 0.324657 0.066919
vt 0.297247 0.066919
vn 0.000000 0.000000 -1.000000
vn 0.000000 0.000000 -1.000000
vn 0.000000 0.000000 -1.000000
vn 0.000000 0.000000 -1.000000
vn 0.000000 0.000000 1.000000
vn 0.000000 0.000000 1.000000
vn 0.000000 0.000000 1.000000
vn 0.000000 0.000000 1.000000
vn 0.000000 -1.000000 0.000000
vn 0.000000 -1.000000 0.000000
vn 0.000000 -1.000000 0.000000
vn 0.000000 -1.000000 0.000000
vn -1.000000 0.000000 0.000000
vn -1.000000 0.000000 0.000000
vn -1.000000 0.000000 0.000000
vn -1.000000 0.000000 0.000000
vn 1.000000 0.000000 0.000000
vn 1.000000 0.000000 0.000000
vn 1.000000 0.000000 0.000000
vn 1.000000 0.000000 0.000000
vn 0.000000 1.000000 0.000000
vn 0.000000 1.000000 0.000000
vn 0.000000 1.000000 0.000000
vn 0.000000 1.000000 0.000000
vn 0.000000 1.000000 0.000000
vn 0.000000 1.000000 0.000000
vn 0.000000 1.000000 0.000000
vn 0.000000 1.000000 0.000000
vn 0.000000 1.000000 0.000000
vn 0.000000 1.000000 0.000000
vn 0.000000 1.000000 0.000000
vn 0.000000 1.000000 0.000000
vn 0.000000 1.000000 0.000000
vn 0.000000 1.000000 0.000000
vn 0.000000 1.000000 0.000000
vn 0.000000 1.000000 0.000000
vn -0.046904 -0.594790 -0.802512
vn -0.046904 -0.594790 -0.802512
vn -0.046904 -0.594790 -0.802512
vn -0.046904 -0.594790 -0.802511
vn -0.911924 -0.302385 0.277414
vn -0.911924 -0.302385 0.277414
vn -0.911924 -0.302385 0.277414
vn -0.911924 -0.302385 0.277414
vn 0.046852 0.594885 0.802444
vn 0.046852 0.594885 0.802444
vn 0.046852 0.594885 0.802444
vn 0.046852 0.594885 0.802444
vn 0.911871 0.302480 -0.277482
vn 0.911871 0.302480 -0.277482
vn 0.911871 0.302480 -0.277482
vn 0.911871 0.302480 -0.277482
vn -0.407731 0.744784 -0.528255
vn -0.407731 0.744784 -0.528255
vn -0.407731 0.744784 -0.528255
vn -0.407731 0.744784 -0.528255
vn 0.842995 -0.011056 -0.537808
vn 0.842995 -0.011056 -0.537808
vn 0.842995 -0.011056 -0.537808
vn 0.842995 -0.011056 -0.537808
vn 0.233182 0.001574 -0.972432
vn 0.233182 0.001574 -0.972432
vn 0.233182 0.001574 -0.972432
vn 0.233182 0.001574 -0.972432
vn -0.521356 0.013503 -0.853233
vn -0.521356 0.013503 -0.853233
vn -0.521356 0.013503 -0.853233
vn -0.521356 0.013503 -0.853233
vn -0.972251 0.017546 -0.233280
vn -0.972251 0.017546 -0.233280
vn -0.972251 0.017546 -0.233280
vn -0.972251 0.017546 -0.233280
vn -0.842999 0.011056 0.537802
vn -0.842999 0.011056 0.537802
vn -0.842999 0.011056 0.537802
vn -0.842999 0.011056 0.537802
vn -0.233178 -0.001570 0.972433
vn -0.233178 -0.001570 0.972433
vn -0.233178 -0.001570 0.972433
vn -0.233178 -0.001570 0.972433
vn 0.521358 -0.013501 0.853231
vn 0.521358 -0.013501 0.853231
vn 0.521358 -0.013501 0.853231
vn 0.521358 -0.013501 0.853231
vn 0.972251 -0.017537 0.233283
vn 0.972251 -0.017537 0.233283
vn 0.972251 -0.017537 0.233283
vn 0.972251 -0.017537 0.233283
vn -0.016695 -0.999845 -0.005614
vn -0.016694 -0.999845 -0.005615
vn -0.016694 -0.999845 -0.005615
vn -0.016694 -0.999845 -0.005615
vn -0.016695 -0.999845 -0.005614
vn -0.016694 -0.999845 -0.005615
vn -0.016693 -0.999845 -0.005615
vn -0.016694 -0.999845 -0.005615
vn -0.016694 -0.999845 -0.005615
vn -0.016693 -0.999845 -0.005616
vn -0.016693 -0.999845 -0.005615
vn -0.016694 -0.999845 -0.005615
vn -0.016693 -0.999845 -0.005616
vn -0.016693 -0.999845 -0.005616
vn -0.016694 -0.999845 -0.005615
vn -0.016694 -0.999845 -0.005616
vn -0.016693 -0.999845 -0.005616
vn -0.016694 -0.999845 -0.005615
vn -0.016695 -0.999845 -0.005616
vn -0.016694 -0.999845 -0.005616
vn -0.016694 -0.999845 -0.005615
vn -0.016694 -0.999845 -0.005615
vn -0.016695 -0.999845 -0.005616
vn -0.016694 -0.999845 -0.005615
vn 0.016693 0.999845 0.005615
vn 0.016694 0.999845 0.005615
vn 0.016694 0.999845 0.005615
vn 0.016694 0.999845 0.005615
vn 0.016694 0.999845 0.005614
vn 0.016694 0.999845 0.005615
vn 0.016695 0.999845 0.005616
vn 0.016694 0.999845 0.005616
vn 0.016694 0.999845 0.005615
vn 0.016694 0.999845 0.005616
vn 0.016693 0.999845 0.005616
vn 0.016694 0.999845 0.005615
vn 0.016694 0.999845 0.005615
vn 0.016694 0.999845 0.005615
vn 0.016694 0.999845 0.005616
vn 0.016694 0.999845 0.005616
vn 0.016695 0.999845 0.005616
vn 0.016695 0.999845 0.005616
vn 0.016693 0.999845 0.005616
vn 0.016694 0.999845 0.005615
vn 0.016694 0.999845 0.005614
vn 0.016694 0.999845 0.005615
vn 0.016694 0.999845 0.005615
vn 0.016694 0.999845 0.005615
vn 0.016694 0.999845 0.005615
vn 0.016694 0.999845 0.005615
vn 0.016694 0.999845 0.005615
vn 0.016694 0.999845 0.005615
vn 0.016693 0.999845 0.005615
vn 0.016694 0.999845 0.005614
vn 0.016694 0.999845 0.005615
vn 0.016694 0.999845 0.005616
vn 0.016694 0.999845 0.005615
vn 0.016694 0.999845 0.005615
vn 0.016694 0.999845 0.005615
vn 0.016694 0.999845 0.005616
vn 0.016696 0.999845 0.005617
vn 0.016696 0.999845 0.005615
vn 0.016694 0.999845 0.005615
vn 0.016694 0.999845 0.005615
vn 0.016696 0.999845 0.005615
vn 0.016695 0.999845 0.005616
vn 0.016695 0.999845 0.005616
vn 0.016694 0.999845 0.005615
vn 0.016695 0.999845 0.005616
vn 0.016694 0.999845 0.005617
vn 0.016695 0.999845 0.005616
vn 0.016695 0.999845 0.005616
vn 0.016694 0.999845 0.005617
vn 0.016690 0.999845 0.005616
vn 0.016694 0.999845 0.005616
vn 0.016695 0.999845 0.005616
vn 0.016690 0.999845 0.005616
vn 0.016689 0.999845 0.005615
vn 0.016693 0.999845 0.005616
vn 0.016694 0.999845 0.005616
vn 0.016689 0.999845 0.005615
vn 0.016693 0.999845 0.005615
vn 0.016694 0.999845 0.005615
vn 0.016693 0.999845 0.005616
vn 0.016693 0.999845 0.005615
vn 0.016695 0.999845 0.005617
vn 0.016694 0.999845 0.005615
vn 0.016694 0.999845 0.005615
vn 0.016695 0.999845 0.005617
vn 0.016696 0.999845 0.005617
vn 0.016694 0.999845 0.005615
vn 0.016694 0.999845 0.005615
vn 0.249083 -0.032189 0.967947
vn 0.249083 -0.032189 0.967947
vn 0.249083 -0.032189 0.967947
vn 0.249083 -0.032189 0.967947
vn 0.935318 -0.322026 0.146559
vn 0.935318 -0.322026 0.146559
vn 0.935318 -0.322026 0.146559
vn 0.935318 -0.322026 0.146559
vn -0.254985 0.056419 -0.965298
vn -0.254985 0.056419 -0.965298
vn -0.254985 0.056419 -0.965298
vn -0.254985 0.056419 -0.965298
vn -0.926155 0.342073 -0.158817
vn -0.926155 0.342073 -0.158818
vn -0.926155 0.342073 -0.158817
vn -0.926155 0.342073 -0.158817
vn 0.087849 0.056508 0.994530
vn 0.087849 0.056509 0.994530
vn 0.087849 0.056508 0.994530
vn 0.087849 0.056508 0.994530
vn 0.999837 -0.011131 -0.014187
vn 0.999837 -0.011131 -0.014187
vn 0.999837 -0.011131 -0.014187
vn 0.999837 -0.011131 -0.014187
vn -0.089712 -0.038975 -0.995205
vn -0.089712 -0.038975 -0.995205
vn -0.089712 -0.038975 -0.995205
vn -0.089712 -0.038975 -0.995205
vn -0.999713 0.020630 0.012193
vn -0.999713 0.020630 0.012193
vn -0.999713 0.020630 0.012193
vn -0.999713 0.020630 0.012193
s off
f 1/64/1 2/2/2 4/63/3 3/4/4
f 5/61/5 6/6/6 8/66/7 7/8/8
f 7/8/9 8/66/10 2/2/11 1/64/12
f 2/67/13 8/7/14 6/62/15 4/3/16
f 7/65/17 1/1/18 3/60/19 5/5/20
f 3/9/21 4/50/22 10/75/23 9/68/24
f 4/10/25 6/77/26 11/73/27 10/59/28
f 6/13/29 5/74/30 12/70/31 11/72/32
f 5/15/33 3/78/34 9/69/35 12/54/36
f 53/128/37 54/130/38 14/56/39 13/49/40
f 54/131/41 51/124/42 15/55/43 14/17/44
f 51/125/45 52/126/46 16/52/47 15/19/48
f 52/127/49 53/129/50 13/51/51 16/20/52
f 14/48/53 15/21/54 16/53/55 13/18/56
f 17/88/57 18/90/58 26/89/59 25/87/60
f 18/82/61 19/81/62 27/79/63 26/80/64
f 19/86/65 20/85/66 28/83/67 27/84/68
f 20/28/69 21/30/70 29/31/71 28/29/72
f 21/30/73 22/32/74 30/33/75 29/31/76
f 22/32/77 23/34/78 31/35/79 30/33/80
f 23/34/81 24/36/82 32/37/83 31/35/84
f 24/36/85 17/22/86 25/25/87 32/37/88
f 18/23/89 17/22/90 33/38/91
f 19/26/92 18/23/93 33/38/94
f 20/28/95 19/26/96 33/38/97
f 21/30/98 20/28/99 33/38/100
f 22/32/101 21/30/102 33/38/103
f 23/34/104 22/32/105 33/38/106
f 24/36/107 23/34/108 33/38/109
f 17/22/110 24/36/111 33/38/112
f 34/95/113 35/92/114 36/41/115 37/100/116 38/98/117
f 39/103/118 43/104/119 44/46/120 41/44/121
f 47/106/122 48/107/123 37/42/124 36/97/125 35/93/126 46/47/127 44/46/128 43/104/129 45/105/130
f 48/107/131 49/108/132 38/43/133 37/42/134
f 50/109/135 40/102/136 39/103/137 41/44/138 42/99/139 35/91/140 34/39/141 38/43/142 49/108/143
f 46/94/144 35/40/145 42/45/146 41/101/147 44/96/148
f 28/24/149 29/27/150 39/110/151 40/111/152
f 29/27/153 30/112/154 43/113/155 39/110/156
f 30/112/157 31/114/158 45/115/159 43/113/160
f 31/114/161 32/116/162 47/117/163 45/115/164
f 32/116/165 25/118/166 48/119/167 47/117/168
f 25/118/169 26/120/170 49/121/171 48/119/172
f 26/120/173 27/122/174 50/123/175 49/121/176
f 27/122/177 28/24/178 40/111/179 50/123/180
f 55/133/181 56/134/182 52/126/183 51/125/184
f 56/135/185 57/137/186 53/129/187 52/127/188
f 57/136/189 58/138/190 54/130/191 53/128/192
f 58/139/193 55/132/194 51/124/195 54/131/196
f 11/14/197 12/71/198 56/134/199 55/133/200
f 12/16/201 9/58/202 57/137/203 56/135/204
f 9/12/205 10/76/206 58/138/207 57/136/208
f 10/11/209 11/57/210 55/132/211 58/139/212
