# This file uses meters as units for non-parametric coordinates.

v -0.165961 0.000000 0.501876
v -0.165961 0.000000 0.380351
v -0.165961 0.023946 0.501876
v -0.165961 0.023946 0.380351
v -0.287486 0.023946 0.501876
v -0.287486 0.023946 0.380352
v -0.287486 0.000000 0.501876
v -0.287486 0.000000 0.380352
v 0.199185 0.000000 -0.193076
v -0.212205 0.000000 -0.193076
v 0.199185 0.023946 -0.193076
v -0.212205 0.023946 -0.193076
v 0.199185 0.023946 0.207588
v -0.212205 0.023946 0.207588
v 0.199185 0.000000 0.207588
v -0.212205 0.000000 0.207588
v -0.047649 0.000000 0.207588
v -0.047649 0.023946 0.207588
v 0.133557 0.000000 0.207588
v 0.133557 0.023946 0.207588
v 0.133557 0.000000 0.281138
v 0.133557 0.023946 0.281138
v -0.047649 0.023946 0.281138
v -0.047649 0.000000 0.281138
v -0.212205 0.023946 -0.121495
v -0.212205 0.000000 -0.121495
v -0.212205 0.023946 0.124950
v -0.212205 0.000000 0.124950
v -0.321990 0.023946 -0.121496
v -0.321990 0.000000 -0.121496
v -0.321990 0.000000 0.124950
v -0.321990 0.023946 0.124950
v -0.103478 0.023946 -0.193076
v -0.103478 0.000000 -0.193076
v 0.019125 0.023946 -0.193076
v 0.019125 0.000000 -0.193076
v 0.019125 0.023946 -0.314424
v 0.019125 0.000000 -0.314424
v -0.103478 0.000000 -0.314424
v -0.103478 0.023946 -0.314424
v 0.321990 0.000000 -0.359737
v 0.321990 0.000000 -0.501877
v 0.321990 0.023946 -0.359737
v 0.321990 0.023946 -0.501877
v 0.179851 0.023946 -0.359737
v 0.179851 0.023946 -0.501877
v 0.179851 0.000000 -0.359737
v 0.179851 0.000000 -0.501877
vt 0.200235 0.173112
vt 0.200235 0.173112
vt 0.200235 0.173112
vt 0.200235 0.173112
vt 0.233138 0.171843
vt 0.233138 0.171843
vt 0.233138 0.171843
vt 0.233138 0.171843
vt 0.200235 0.173112
vt 0.200235 0.173112
vt 0.200235 0.173112
vt 0.200235 0.173112
vt 0.167331 0.171843
vt 0.167331 0.171843
vt 0.167331 0.171843
vt 0.167331 0.171843
vt 0.174809 0.173112
vt 0.174809 0.173112
vt 0.174809 0.173112
vt 0.174809 0.173112
vt 0.174809 0.173112
vt 0.174809 0.173112
vt 0.174809 0.173112
vt 0.174809 0.173112
vt 0.200235 0.173112
vt 0.200235 0.173112
vt 0.200235 0.173112
vt 0.200235 0.173112
vt 0.233138 0.171843
vt 0.233138 0.171843
vt 0.233138 0.171843
vt 0.233138 0.171843
vt 0.233138 0.171843
vt 0.233138 0.171843
vt 0.233138 0.171843
vt 0.233138 0.171843
vt 0.233138 0.171843
vt 0.233138 0.171843
vt 0.200235 0.173112
vt 0.200235 0.173112
vt 0.200235 0.173112
vt 0.200235 0.173112
vt 0.143401 0.171843
vt 0.143401 0.171843
vt 0.143401 0.171843
vt 0.143401 0.171843
vt 0.143401 0.171843
vt 0.143401 0.171843
vt 0.143401 0.171843
vt 0.143401 0.171843
vt 0.143401 0.171843
vt 0.143401 0.171843
vt 0.174809 0.173112
vt 0.174809 0.173112
vt 0.174809 0.173112
vt 0.174809 0.173112
vt 0.174809 0.173112
vt 0.174809 0.173112
vt 0.174809 0.173112
vt 0.174809 0.173112
vt 0.200235 0.173112
vt 0.200235 0.173112
vt 0.200235 0.173112
vt 0.200235 0.173112
vt 0.200235 0.173112
vt 0.200235 0.173112
vt 0.200235 0.173112
vt 0.200235 0.173112
vt 0.233138 0.173112
vt 0.233138 0.173112
vt 0.233138 0.173112
vt 0.233138 0.173112
vt 0.143401 0.171843
vt 0.143401 0.171843
vt 0.143401 0.171843
vt 0.143401 0.171843
vt 0.174809 0.173112
vt 0.174809 0.173112
vt 0.174809 0.173112
vt 0.174809 0.173112
vt 0.174809 0.173112
vt 0.174809 0.173112
vt 0.174809 0.173112
vt 0.174809 0.173112
vt 0.138914 0.173112
vt 0.138914 0.173112
vt 0.138914 0.173112
vt 0.138914 0.173112
vt 0.231643 0.173112
vt 0.231643 0.173112
vt 0.231643 0.173112
vt 0.231643 0.173112
vt 0.200235 0.173112
vt 0.200235 0.173112
vt 0.200235 0.173112
vt 0.200235 0.173112
vt 0.200235 0.173112
vt 0.200235 0.173112
vt 0.200235 0.173112
vt 0.200235 0.173112
vt 0.134427 0.173112
vt 0.134427 0.173112
vt 0.134427 0.173112
vt 0.134427 0.173112
vt 0.231643 0.173112
vt 0.231643 0.173112
vt 0.231643 0.173112
vt 0.231643 0.173112
vt 0.200235 0.173112
vt 0.200235 0.173112
vt 0.200235 0.173112
vt 0.200235 0.173112
vt 0.233138 0.171843
vt 0.233138 0.171843
vt 0.233138 0.171843
vt 0.233138 0.171843
vt 0.200235 0.173112
vt 0.200235 0.173112
vt 0.200235 0.173112
vt 0.200235 0.173112
vt 0.167331 0.171843
vt 0.167331 0.171843
vt 0.167331 0.171843
vt 0.167331 0.171843
vt 0.174809 0.173112
vt 0.174809 0.173112
vt 0.174809 0.173112
vt 0.174809 0.173112
vt 0.174809 0.173112
vt 0.174809 0.173112
vt 0.174809 0.173112
vt 0.174809 0.173112
vt 0.200235 0.173112
vt 0.200235 0.173112
vt 0.200235 0.173112
vt 0.200235 0.173112
vt 0.200235 0.173112
vt 0.200235 0.173112
vt 0.200235 0.173112
vt 0.200235 0.173112
vt 0.174809 0.173112
vt 0.174809 0.173112
vt 0.174809 0.173112
vt 0.174809 0.173112
vt 0.174809 0.173112
vt 0.174809 0.173112
vt 0.174809 0.173112
vt 0.174809 0.173112
vt 0.200235 0.173112
vt 0.200235 0.173112
vt 0.200235 0.173112
vt 0.200235 0.173112
vt 0.200235 0.173112
vt 0.200235 0.173112
vt 0.200235 0.173112
vt 0.200235 0.173112
vn 1.000000 0.000000 -0.000000
vn 1.000000 0.000000 -0.000000
vn 1.000000 0.000000 -0.000000
vn 1.000000 0.000000 -0.000000
vn 0.000000 1.000000 0.000000
vn 0.000000 1.000000 0.000000
vn 0.000000 1.000000 0.000000
vn 0.000000 1.000000 0.000000
vn -1.000000 0.000000 0.000000
vn -1.000000 0.000000 0.000000
vn -1.000000 0.000000 0.000000
vn -1.000000 0.000000 0.000000
vn 0.000000 -1.000000 0.000000
vn 0.000000 -1.000000 0.000000
vn 0.000000 -1.000000 0.000000
vn 0.000000 -1.000000 0.000000
vn -0.000002 0.000000 -1.000000
vn -0.000002 0.000000 -1.000000
vn -0.000002 0.000000 -1.000000
vn -0.000002 0.000000 -1.000000
vn 0.000000 0.000000 1.000000
vn 0.000000 0.000000 1.000000
vn 0.000000 0.000000 1.000000
vn 0.000000 0.000000 1.000000
vn 0.000000 0.000000 -1.000000
vn 0.000000 0.000000 -1.000000
vn 0.000000 0.000000 -1.000000
vn 0.000000 0.000000 -1.000000
vn 0.000000 1.000000 -0.000000
vn 0.000000 1.000000 -0.000000
vn 0.000000 1.000000 -0.000000
vn 0.000000 1.000000 -0.000000
vn 0.000000 1.000000 -0.000000
vn 0.000000 1.000000 -0.000000
vn 0.000000 1.000000 -0.000000
vn 0.000000 1.000000 -0.000000
vn 0.000000 1.000000 -0.000000
vn 0.000000 1.000000 -0.000000
vn 0.000000 0.000000 1.000000
vn 0.000000 0.000000 1.000000
vn 0.000000 0.000000 1.000000
vn 0.000000 0.000000 1.000000
vn 0.000000 -1.000000 0.000000
vn 0.000000 -1.000000 0.000000
vn 0.000000 -1.000000 0.000000
vn 0.000000 -1.000000 0.000000
vn 0.000000 -1.000000 0.000000
vn 0.000000 -1.000000 0.000000
vn 0.000000 -1.000000 0.000000
vn 0.000000 -1.000000 0.000000
vn 0.000000 -1.000000 0.000000
vn 0.000000 -1.000000 0.000000
vn -1.000000 0.000000 0.000000
vn -1.000000 0.000000 0.000000
vn -1.000000 0.000000 0.000000
vn -1.000000 0.000000 0.000000
vn 1.000000 0.000000 0.000000
vn 1.000000 0.000000 0.000000
vn 1.000000 0.000000 0.000000
vn 1.000000 0.000000 0.000000
vn 0.000000 0.000000 1.000000
vn 0.000000 0.000000 1.000000
vn 0.000000 0.000000 1.000000
vn 0.000000 0.000000 1.000000
vn 0.000000 0.000000 1.000000
vn 0.000000 0.000000 1.000000
vn 0.000000 0.000000 1.000000
vn 0.000000 0.000000 1.000000
vn 1.000000 0.000000 -0.000003
vn 1.000000 0.000000 -0.000003
vn 1.000000 0.000000 -0.000003
vn 1.000000 0.000000 -0.000003
vn 0.000000 1.000000 0.000000
vn 0.000000 1.000000 0.000000
vn 0.000000 1.000000 0.000000
vn 0.000000 1.000000 0.000000
vn -1.000000 0.000000 0.000000
vn -1.000000 0.000000 0.000000
vn -1.000000 0.000000 0.000000
vn -1.000000 0.000000 0.000000
vn 0.000000 -1.000000 0.000000
vn 0.000000 -1.000000 0.000000
vn 0.000000 -1.000000 0.000000
vn 0.000000 -1.000000 0.000000
vn -1.000000 0.000000 0.000000
vn -1.000000 0.000000 0.000000
vn -1.000000 0.000000 0.000000
vn -1.000000 0.000000 0.000000
vn -1.000000 0.000000 -0.000000
vn -1.000000 0.000000 -0.000000
vn -1.000000 0.000000 -0.000000
vn -1.000000 0.000000 -0.000000
vn 0.000002 0.000000 -1.000000
vn 0.000002 0.000000 -1.000000
vn 0.000002 0.000000 -1.000000
vn 0.000002 0.000000 -1.000000
vn 0.000000 -1.000000 0.000000
vn 0.000000 -1.000000 0.000000
vn 0.000000 -1.000000 0.000000
vn 0.000000 -1.000000 0.000000
vn 0.000000 0.000000 1.000000
vn 0.000000 0.000000 1.000000
vn 0.000000 0.000000 1.000000
vn 0.000000 0.000000 1.000000
vn 0.000000 1.000000 -0.000000
vn 0.000000 1.000000 -0.000000
vn 0.000000 1.000000 -0.000000
vn 0.000000 1.000000 -0.000000
vn -0.000002 0.000000 -1.000000
vn -0.000002 0.000000 -1.000000
vn -0.000002 0.000000 -1.000000
vn -0.000002 0.000000 -1.000000
vn 0.000000 0.000000 -1.000000
vn 0.000000 0.000000 -1.000000
vn 0.000000 0.000000 -1.000000
vn 0.000000 0.000000 -1.000000
vn 1.000000 0.000000 0.000000
vn 1.000000 0.000000 0.000000
vn 1.000000 0.000000 0.000000
vn 1.000000 0.000000 0.000000
vn 0.000000 -1.000000 0.000000
vn 0.000000 -1.000000 0.000000
vn 0.000000 -1.000000 0.000000
vn 0.000000 -1.000000 0.000000
vn -1.000000 0.000000 -0.000000
vn -1.000000 0.000000 -0.000000
vn -1.000000 0.000000 -0.000000
vn -1.000000 0.000000 -0.000000
vn 0.000000 1.000000 0.000000
vn 0.000000 1.000000 0.000000
vn 0.000000 1.000000 0.000000
vn 0.000000 1.000000 0.000000
vn 1.000000 0.000000 0.000000
vn 1.000000 0.000000 0.000000
vn 1.000000 0.000000 0.000000
vn 1.000000 0.000000 0.000000
vn 0.000000 1.000000 0.000000
vn 0.000000 1.000000 0.000000
vn 0.000000 1.000000 0.000000
vn 0.000000 1.000000 0.000000
vn -1.000000 0.000000 0.000000
vn -1.000000 0.000000 0.000000
vn -1.000000 0.000000 0.000000
vn -1.000000 0.000000 0.000000
vn 0.000000 -1.000000 0.000000
vn 0.000000 -1.000000 0.000000
vn 0.000000 -1.000000 0.000000
vn 0.000000 -1.000000 0.000000
vn 0.000000 0.000000 -1.000000
vn 0.000000 0.000000 -1.000000
vn 0.000000 0.000000 -1.000000
vn 0.000000 0.000000 -1.000000
vn 0.000000 0.000000 1.000000
vn 0.000000 0.000000 1.000000
vn 0.000000 0.000000 1.000000
vn 0.000000 0.000000 1.000000
s off
f 1/1/1 2/2/2 4/3/3 3/4/4
f 3/5/5 4/6/6 6/7/7 5/8/8
f 5/9/9 6/10/10 8/11/11 7/12/12
f 7/13/13 8/14/14 2/15/15 1/16/16
f 2/17/17 8/18/18 6/19/19 4/20/20
f 7/21/21 1/22/22 3/23/23 5/24/24
f 33/25/25 34/138/26 10/27/27 12/28/28
f 11/29/29 35/30/30 33/31/31 12/32/32 25/33/33 27/34/34 14/35/35 18/36/36 20/37/37 13/38/38
f 17/39/39 18/154/40 14/41/41 16/42/42
f 15/43/43 19/44/44 17/45/45 16/46/46 28/47/47 26/48/48 10/49/49 34/50/50 36/51/51 9/52/52
f 27/53/53 28/146/54 16/55/55 14/56/56
f 15/57/57 9/58/58 11/59/59 13/60/60
f 21/61/61 22/153/62 23/151/63 24/150/64
f 13/65/65 20/66/66 19/156/67 15/68/68
f 19/67/69 20/155/70 22/62/71 21/149/72
f 20/69/73 18/70/74 23/71/75 22/72/76
f 18/40/77 17/152/78 24/64/79 23/63/80
f 17/73/81 19/74/82 21/75/83 24/76/84
f 10/77/85 26/78/86 25/148/87 12/80/88
f 29/81/89 30/145/90 31/143/91 32/142/92
f 25/79/93 26/147/94 30/82/95 29/141/96
f 26/85/97 28/86/98 31/87/99 30/88/100
f 28/54/101 27/144/102 32/84/103 31/83/104
f 27/89/105 25/90/106 29/91/107 32/92/108
f 37/93/109 38/137/110 39/135/111 40/134/112
f 9/97/113 36/98/114 35/140/115 11/100/116
f 35/99/117 36/139/118 38/94/119 37/133/120
f 36/101/121 34/102/122 39/103/123 38/104/124
f 34/26/125 33/136/126 40/96/127 39/95/128
f 33/105/129 35/106/130 37/107/131 40/108/132
f 41/109/133 42/110/134 44/111/135 43/112/136
f 43/113/137 44/114/138 46/115/139 45/116/140
f 45/117/141 46/118/142 48/119/143 47/120/144
f 47/121/145 48/122/146 42/123/147 41/124/148
f 42/125/149 48/126/150 46/127/151 44/128/152
f 47/129/153 41/130/154 43/131/155 45/132/156
