# This file uses meters as units for non-parametric coordinates.

v -0.169487 -0.124672 -0.085539
v -0.091839 -0.124672 0.169210
v -0.169487 0.024904 -0.085539
v -0.091839 0.097470 0.169210
v 0.085262 0.052105 -0.163187
v 0.162910 0.124672 0.091560
v 0.085262 -0.124672 -0.163187
v 0.162910 -0.124672 0.091560
v 0.103239 -0.124672 -0.104210
v 0.144936 -0.124672 0.032585
v 0.103239 0.009222 -0.104210
v 0.144936 -0.039020 0.032585
v 0.161076 -0.018102 -0.121841
v 0.202774 -0.066344 0.014956
v 0.161076 -0.124672 -0.121841
v 0.202774 -0.124672 0.014956
v -0.202776 -0.124672 0.272297
v -0.165581 -0.124672 0.394334
v -0.202776 -0.005222 0.272297
v -0.165581 -0.052571 0.394334
v -0.080738 -0.023441 0.235100
v -0.043537 -0.070790 0.357138
v -0.080738 -0.124672 0.235100
v -0.043537 -0.124672 0.357138
v -0.021679 -0.124672 -0.357138
v 0.015518 -0.124672 -0.235100
v -0.021679 -0.041483 -0.357138
v 0.015518 -0.073538 -0.235100
v 0.100359 -0.005222 -0.394334
v 0.137558 -0.037277 -0.272297
v 0.100359 -0.124672 -0.394334
v 0.137558 -0.124672 -0.272297
vt 0.052518 0.438310
vt 0.052518 0.438310
vt 0.052518 0.438310
vt 0.052518 0.438310
vt 0.177227 0.438310
vt 0.177227 0.438310
vt 0.177227 0.438310
vt 0.177227 0.438310
vt 0.052518 0.438310
vt 0.052518 0.438310
vt 0.052518 0.438310
vt 0.052518 0.438310
vt 0.117664 0.438310
vt 0.117664 0.438310
vt 0.117664 0.438310
vt 0.117664 0.438310
vt 0.117664 0.438310
vt 0.117664 0.438310
vt 0.117664 0.438310
vt 0.117664 0.438310
vt 0.177227 0.438310
vt 0.177227 0.438310
vt 0.177227 0.438310
vt 0.177227 0.438310
vt 0.052518 0.438310
vt 0.052518 0.438310
vt 0.052518 0.438310
vt 0.052518 0.438310
vt 0.117664 0.438310
vt 0.117664 0.438310
vt 0.117664 0.438310
vt 0.117664 0.438310
vt 0.117664 0.438310
vt 0.117664 0.438310
vt 0.117664 0.438310
vt 0.117664 0.438310
vt 0.052518 0.438310
vt 0.052518 0.438310
vt 0.052518 0.438310
vt 0.052518 0.438310
vt 0.177227 0.438310
vt 0.177227 0.438310
vt 0.177227 0.438310
vt 0.177227 0.438310
vt 0.052518 0.438310
vt 0.052518 0.438310
vt 0.052518 0.438310
vt 0.052518 0.438310
vt 0.117664 0.438310
vt 0.117664 0.438310
vt 0.117664 0.438310
vt 0.117664 0.438310
vt 0.117664 0.438310
vt 0.117664 0.438310
vt 0.117664 0.438310
vt 0.117664 0.438310
vt 0.052518 0.438310
vt 0.052518 0.438310
vt 0.052518 0.438310
vt 0.052518 0.438310
vt 0.177227 0.438310
vt 0.177227 0.438310
vt 0.177227 0.438310
vt 0.177227 0.438310
vt 0.052518 0.438310
vt 0.052518 0.438310
vt 0.052518 0.438310
vt 0.052518 0.438310
vt 0.117664 0.438310
vt 0.117664 0.438310
vt 0.117664 0.438310
vt 0.117664 0.438310
vt 0.117664 0.438310
vt 0.117664 0.438310
vt 0.117664 0.438310
vt 0.117664 0.438310
vn -0.956553 0.000000 0.291559
vn -0.956553 0.000000 0.291559
vn -0.956553 0.000000 0.291559
vn -0.956553 0.000000 0.291559
vn -0.170090 0.960174 -0.221666
vn -0.170090 0.960174 -0.221666
vn -0.170090 0.960174 -0.221666
vn -0.170090 0.960174 -0.221666
vn 0.956552 0.000000 -0.291561
vn 0.956552 0.000000 -0.291561
vn 0.956552 0.000000 -0.291561
vn 0.956552 0.000000 -0.291561
vn 0.291566 0.000000 0.956551
vn 0.291566 0.000000 0.956551
vn 0.291566 0.000000 0.956551
vn 0.291566 0.000000 0.956551
vn -0.291559 0.000000 -0.956553
vn -0.291559 0.000000 -0.956553
vn -0.291559 0.000000 -0.956553
vn -0.291559 0.000000 -0.956553
vn 0.462199 0.871045 0.166293
vn 0.462198 0.871045 0.166293
vn 0.462199 0.871045 0.166293
vn 0.462199 0.871045 0.166293
vn 0.956548 0.000000 -0.291575
vn 0.956548 0.000000 -0.291575
vn 0.956548 0.000000 -0.291575
vn 0.956548 0.000000 -0.291575
vn 0.291565 0.000000 0.956551
vn 0.291565 0.000000 0.956551
vn 0.291565 0.000000 0.956551
vn 0.291565 0.000000 0.956551
vn -0.291602 0.000000 -0.956540
vn -0.291602 0.000000 -0.956540
vn -0.291602 0.000000 -0.956540
vn -0.291602 0.000000 -0.956540
vn -0.956557 0.000000 0.291546
vn -0.956557 0.000000 0.291546
vn -0.956557 0.000000 0.291546
vn -0.956557 0.000000 0.291546
vn 0.227470 0.929228 0.291193
vn 0.227471 0.929228 0.291193
vn 0.227470 0.929228 0.291193
vn 0.227471 0.929228 0.291193
vn 0.956545 0.000000 -0.291585
vn 0.956545 0.000000 -0.291585
vn 0.956545 0.000000 -0.291585
vn 0.956545 0.000000 -0.291585
vn 0.291538 0.000000 0.956559
vn 0.291538 0.000000 0.956559
vn 0.291538 0.000000 0.956559
vn 0.291538 0.000000 0.956559
vn -0.291557 0.000000 -0.956553
vn -0.291557 0.000000 -0.956553
vn -0.291557 0.000000 -0.956553
vn -0.291557 0.000000 -0.956553
vn -0.956553 0.000000 0.291557
vn -0.956553 0.000000 0.291557
vn -0.956553 0.000000 0.291557
vn -0.956553 0.000000 0.291557
vn -0.185698 0.934985 0.302191
vn -0.185698 0.934985 0.302191
vn -0.185698 0.934985 0.302191
vn -0.185698 0.934985 0.302191
vn 0.956549 0.000000 -0.291573
vn 0.956549 0.000000 -0.291573
vn 0.956549 0.000000 -0.291573
vn 0.956549 0.000000 -0.291573
vn 0.291553 0.000000 0.956555
vn 0.291553 0.000000 0.956555
vn 0.291553 0.000000 0.956555
vn 0.291553 0.000000 0.956555
vn -0.291550 0.000000 -0.956555
vn -0.291550 0.000000 -0.956555
vn -0.291550 0.000000 -0.956555
vn -0.291550 0.000000 -0.956555
s off
f 1/1/1 2/2/2 4/3/3 3/4/4
f 3/5/5 4/6/6 6/7/7 5/8/8
f 5/9/9 6/10/10 8/11/11 7/12/12
f 2/13/13 8/14/14 6/15/15 4/16/16
f 7/17/17 1/18/18 3/19/19 5/20/20
f 11/21/21 12/22/22 14/23/23 13/24/24
f 13/25/25 14/26/26 16/27/27 15/28/28
f 10/29/29 16/30/30 14/31/31 12/32/32
f 15/33/33 9/34/34 11/35/35 13/36/36
f 17/37/37 18/38/38 20/39/39 19/40/40
f 19/41/41 20/42/42 22/43/43 21/44/44
f 21/45/45 22/46/46 24/47/47 23/48/48
f 18/49/49 24/50/50 22/51/51 20/52/52
f 23/53/53 17/54/54 19/55/55 21/56/56
f 25/57/57 26/58/58 28/59/59 27/60/60
f 27/61/61 28/62/62 30/63/63 29/64/64
f 29/65/65 30/66/66 32/67/67 31/68/68
f 26/69/69 32/70/70 30/71/71 28/72/72
f 31/73/73 25/74/74 27/75/75 29/76/76
