# This file uses meters as units for non-parametric coordinates.

v -0.385520 0.000000 1.657998
v 0.385521 0.000000 1.657998
v -0.385520 0.508625 1.657998
v 0.385521 0.508625 1.657998
v -0.406539 0.354435 -1.472697
v 0.406540 0.354435 -1.472697
v -0.406539 0.000000 -1.472697
v 0.406540 0.000000 -1.472697
v 0.650902 0.386639 -0.577769
v -0.650901 0.386639 -0.577769
v -0.650901 0.000000 -0.577769
v 0.650902 0.000000 -0.577769
v -0.341999 0.516987 -0.577769
v 0.325451 0.516987 -0.577769
v -0.312152 0.516247 -0.598445
v 0.000000 0.508495 0.421880
v 0.297047 0.516247 -0.598445
v -0.371059 0.355175 -1.396480
v 0.371060 0.355175 -1.396480
v -0.284317 0.329628 -0.588527
v 0.000000 0.322569 0.340810
v 0.270558 0.329628 -0.588527
v -0.337970 0.169941 -1.315394
v 0.337971 0.169941 -1.315394
v -0.476081 0.280241 1.228126
v 0.476082 0.280241 1.228126
v 0.476082 0.000000 1.228126
v -0.476081 0.000000 1.228126
v -0.030872 0.436230 1.228126
v -0.028772 0.368099 1.657998
v 0.037316 0.508495 0.540112
v 0.030872 0.436230 1.228126
v 0.028772 0.368099 1.657998
v -0.028772 0.176271 1.657998
v 0.028772 0.176271 1.657998
v -0.037316 0.506371 0.540112
v 0.160573 0.518608 1.657998
v -0.160573 0.508625 1.657998
v 0.650902 0.193319 -0.577769
v 0.563492 0.000000 0.325177
v 0.607197 0.174118 -0.126292
v 0.629048 0.144990 -0.352031
v 0.528721 0.000000 -1.025233
v 0.589810 0.063298 -0.801509
v 0.365994 0.435711 -1.025233
v 0.393242 0.489834 -0.577769
v 0.346226 0.475342 -0.807048
v 0.379731 0.462990 -0.799693
v 0.473893 0.457535 -0.718852
v 0.332165 0.439816 -0.977122
v 0.032097 0.449966 1.122420
v 0.033032 0.460457 0.875743
v 0.066734 0.440357 1.081176
v 0.069779 0.449364 0.944776
v 0.068257 0.444862 1.034677
v 0.098186 0.436588 1.027732
v 0.100441 0.440109 0.987945
v -0.513694 0.000000 0.839597
v -0.476081 0.107145 1.228126
v -0.429912 0.029509 1.447295
v -0.487640 0.137563 1.108727
v -0.453960 0.129778 1.333139
vt 0.143906 0.477036
vt 0.143906 0.477034
vt 0.108047 0.400026
vt 0.143906 0.477032
vt 0.142783 0.475926
vt 0.142783 0.475926
vt 0.012100 0.482475
vt 0.012100 0.482475
vt 0.012093 0.482475
vt 0.012085 0.482475
vt 0.143906 0.477036
vt 0.200851 0.400289
vt 0.143906 0.477034
vt 0.143906 0.477032
vt 0.174045 0.475884
vt 0.143906 0.477034
vt 0.143890 0.477034
vt 0.174014 0.475884
vt 0.143890 0.477032
vt 0.012100 0.482475
vt 0.012100 0.482475
vt 0.143906 0.477032
vt 0.109513 0.477144
vt 0.109513 0.477144
vt 0.109513 0.477144
vt 0.109513 0.477144
vt 0.109513 0.477144
vt 0.109513 0.477144
vt 0.109513 0.477144
vt 0.015640 0.476700
vt 0.015640 0.476700
vt 0.015640 0.476700
vt 0.015640 0.476700
vt 0.015640 0.476700
vt 0.174014 0.475884
vt 0.174014 0.475884
vt 0.143906 0.477034
vt 0.012100 0.482475
vt 0.143906 0.477032
vt 0.143906 0.477034
vt 0.143906 0.477032
vt 0.012100 0.482475
vt 0.109513 0.477144
vt 0.109105 0.476959
vt 0.109513 0.477144
vt 0.109513 0.477144
vt 0.109105 0.476960
vt 0.109105 0.476959
vt 0.109105 0.476960
vt 0.109513 0.477144
vt 0.109105 0.476961
vt 0.109105 0.476961
vt 0.015640 0.476700
vt 0.015640 0.476700
vt 0.015640 0.476700
vt 0.015640 0.476700
vt 0.015640 0.476700
vt 0.174014 0.475884
vt 0.174045 0.475884
vt 0.174014 0.475884
vt 0.174014 0.475884
vt 0.174014 0.475887
vt 0.141479 0.477634
vt 0.174014 0.475884
vt 0.174014 0.475887
vt 0.174014 0.475884
vt 0.174014 0.475884
vt 0.174014 0.475884
vt 0.174014 0.475884
vt 0.141479 0.477634
vt 0.174014 0.475884
vt 0.109513 0.477144
vt 0.109513 0.477144
vt 0.109513 0.477144
vt 0.109513 0.477144
vt 0.109726 0.472111
vt 0.109726 0.472107
vt 0.109726 0.472107
vt 0.109726 0.472111
vt 0.109105 0.476959
vt 0.109105 0.476959
vt 0.109105 0.476959
vt 0.109105 0.476959
vt 0.142783 0.475927
vt 0.142783 0.475927
vt 0.141479 0.477634
vt 0.141479 0.477634
vt 0.141479 0.477634
vt 0.141479 0.477634
vt 0.143906 0.477033
vt 0.012096 0.482475
vt 0.143906 0.477034
vt 0.143906 0.477033
vt 0.143906 0.477033
vt 0.012096 0.482475
vt 0.143906 0.477034
vt 0.143906 0.477033
vt 0.108063 0.400028
vt 0.108063 0.400026
vt 0.108063 0.400028
vt 0.108047 0.400028
vt 0.108063 0.400028
vt 0.108063 0.400028
vt 0.109513 0.477144
vt 0.174014 0.475884
vt 0.174020 0.475884
vt 0.109513 0.477144
vt 0.174014 0.475884
vt 0.174017 0.475884
vt 0.174019 0.475884
vt 0.015640 0.476700
vt 0.109513 0.477144
vt 0.199432 0.172562
vt 0.199432 0.172562
vt 0.199432 0.172562
vt 0.199432 0.172562
vt 0.199432 0.172562
vt 0.199432 0.172562
vt 0.199432 0.172562
vt 0.174014 0.475884
vt 0.109513 0.477144
vt 0.174014 0.475884
vt 0.109513 0.477144
vt 0.174014 0.475884
vt 0.174014 0.475884
vt 0.174014 0.475884
vt 0.174014 0.475884
vt 0.174014 0.475884
vt 0.172562 0.171146
vt 0.172562 0.171146
vt 0.172562 0.171146
vt 0.172562 0.171146
vt 0.172562 0.171146
vt 0.172562 0.171146
vt 0.172562 0.171146
vt 0.143902 0.477034
vt 0.012097 0.482475
vt 0.143906 0.477035
vt 0.143906 0.477034
vt 0.143905 0.477034
vt 0.143906 0.477034
vt 0.200851 0.400289
vt 0.200851 0.400289
vt 0.200851 0.400289
vt 0.200851 0.400289
vt 0.200851 0.400289
vt 0.200851 0.400289
vn -0.000000 0.000000 1.000000
vn 0.000000 0.000000 1.000000
vn 0.000000 0.000000 1.000000
vn 0.431214 0.876524 -0.213917
vn -0.000934 0.754234 -0.656605
vn -0.428290 0.877940 -0.213984
vn 0.000000 0.000000 -1.000000
vn 0.000000 0.000000 -1.000000
vn 0.000000 0.000000 -1.000000
vn 0.000000 0.000000 -1.000000
vn 0.000000 -1.000000 -0.000000
vn 0.000000 -1.000000 -0.000000
vn 0.000000 -1.000000 -0.000000
vn 0.000000 -1.000000 -0.000000
vn 0.000000 -1.000000 -0.000000
vn 0.999715 0.000001 0.023882
vn 0.995347 0.000002 0.096355
vn 0.995347 0.000002 0.096355
vn 0.995347 0.000002 0.096355
vn 0.999967 0.000001 0.008145
vn -0.992346 0.000003 0.123486
vn -0.992821 0.000002 0.119613
vn -0.978521 0.000005 0.206146
vn -0.978521 0.000005 0.206146
vn -0.978521 0.000005 0.206146
vn -0.978521 0.000005 0.206146
vn -0.361758 0.930533 0.056918
vn -0.329196 0.942786 0.052766
vn -0.150248 0.985403 -0.080040
vn -0.964684 0.000000 -0.263409
vn -0.999226 0.000001 -0.039341
vn -0.999172 0.000001 -0.040688
vn -0.964684 0.000000 -0.263409
vn 0.999032 -0.000000 -0.043986
vn 0.998410 -0.000000 -0.056380
vn 0.964684 0.000000 -0.263409
vn 0.964684 0.000000 -0.263409
vn 0.964684 0.000000 -0.263409
vn 0.964684 0.000000 -0.263409
vn 0.000000 -1.000000 -0.000000
vn 0.000000 -1.000000 -0.000000
vn 0.000000 -1.000000 0.000000
vn 0.000000 -1.000000 0.000000
vn 0.000000 -1.000000 0.000000
vn 0.000000 -1.000000 0.000000
vn 0.181063 0.970005 -0.162195
vn 0.368509 0.919958 -0.133712
vn 0.312801 0.938622 -0.145413
vn 0.311144 0.948315 0.062360
vn 0.431214 0.876524 -0.213917
vn -0.428290 0.877940 -0.213984
vn -0.315235 0.947132 0.059733
vn 0.332548 0.938579 0.092093
vn 0.248129 0.963026 0.104938
vn 0.314330 0.943492 0.104973
vn 0.314330 0.943492 0.104973
vn 0.314330 0.943492 0.104973
vn 0.314330 0.943492 0.104973
vn 0.314330 0.943492 0.104973
vn 0.242841 0.964394 0.104749
vn 0.255434 0.961078 0.105276
vn 0.344263 0.934003 0.095506
vn -0.009614 0.999935 0.006054
vn 0.072874 0.993986 -0.081736
vn -0.329196 0.942786 0.052766
vn -0.330705 0.938984 0.094574
vn -0.150248 0.985403 -0.080040
vn -0.329196 0.942786 0.052766
vn 0.072874 0.993986 -0.081736
vn 0.064386 0.994569 -0.081778
vn 0.322601 0.943238 0.078934
vn 0.161540 0.973927 -0.159281
vn 0.012777 0.981796 -0.189508
vn -0.010628 0.999136 -0.040190
vn 0.145256 0.986769 -0.072023
vn -0.150248 0.985403 -0.080040
vn 0.064386 0.994569 -0.081778
vn -0.077805 0.994875 -0.064569
vn 0.969178 0.131308 -0.208451
vn 0.002142 0.399685 -0.916650
vn -0.000934 0.754234 -0.656605
vn 0.431214 0.876524 -0.213917
vn 0.002142 0.399685 -0.916650
vn -0.970119 0.124580 -0.208202
vn -0.428290 0.877940 -0.213984
vn -0.000934 0.754234 -0.656605
vn 0.714112 0.386647 0.583566
vn 0.969178 0.131308 -0.208451
vn 0.431214 0.876524 -0.213917
vn 0.311144 0.948315 0.062360
vn -0.970119 0.124580 -0.208202
vn -0.984581 0.128768 -0.118400
vn -0.720109 0.384825 0.577367
vn -0.315235 0.947132 0.059733
vn -0.428290 0.877940 -0.213984
vn -0.720109 0.384825 0.577367
vn 0.714112 0.386647 0.583566
vn 0.311144 0.948315 0.062360
vn -0.315235 0.947132 0.059733
vn 0.130997 0.959455 -0.249573
vn -0.494409 0.858884 0.133709
vn 0.081463 0.951596 -0.296359
vn 0.978522 0.000000 0.206144
vn 0.992138 -0.000001 0.125145
vn 0.991476 -0.000001 0.130290
vn 0.978522 0.000000 0.206144
vn -0.348836 0.932219 0.096345
vn -0.330705 0.938984 0.094574
vn -0.329196 0.942786 0.052766
vn -0.361758 0.930533 0.056918
vn -0.999172 0.000001 -0.040688
vn -0.999226 0.000001 -0.039341
vn -0.995347 0.000002 0.096355
vn -0.995347 0.000002 0.096355
vn -0.992821 0.000002 0.119613
vn -0.992346 0.000003 0.123486
vn -0.348836 0.932219 0.096345
vn -0.247321 0.963639 0.101158
vn -0.330705 0.938984 0.094574
vn -0.213906 0.918980 -0.331241
vn -0.077017 0.954906 -0.286745
vn -0.125447 0.962336 -0.241190
vn -0.213906 0.918980 -0.331241
vn 0.332548 0.938579 0.092093
vn -0.330705 0.938984 0.094574
vn -0.247321 0.963639 0.101158
vn 0.255434 0.961078 0.105276
vn 0.242841 0.964394 0.104749
vn 0.248129 0.963026 0.104938
vn -0.125447 0.962336 -0.241190
vn 0.469451 0.872425 0.135977
vn -0.494409 0.858884 0.133709
vn 0.130997 0.959455 -0.249573
vn 0.000000 0.000000 1.000000
vn -0.000000 0.000000 1.000000
vn 0.000000 0.000000 1.000000
vn -0.000000 0.000000 1.000000
vn 0.000000 0.000000 1.000000
vn 0.000000 0.000000 1.000000
vn 0.000000 0.000000 1.000000
vn -0.000000 0.000000 1.000000
vn 0.000000 0.000000 1.000000
vn -0.000000 0.000000 1.000000
vn 0.000000 0.000000 1.000000
vn 0.322601 0.943238 0.078934
vn 0.332548 0.938579 0.092093
vn 0.344263 0.934003 0.095506
vn 0.359007 0.931427 0.059653
vn 0.354366 0.932088 0.075085
vn -0.009614 0.999935 0.006054
vn -0.330705 0.938984 0.094574
vn 0.332548 0.938579 0.092093
vn -0.009614 0.999935 0.006054
vn 0.332548 0.938579 0.092093
vn 0.322601 0.943238 0.078934
vn -0.010628 0.999136 -0.040190
vn -0.000000 0.000000 1.000000
vn 0.000000 0.000000 1.000000
vn -0.000000 0.000000 1.000000
vn 0.000000 0.000000 1.000000
vn 0.000001 0.000000 1.000000
vn 0.000000 0.000000 1.000000
vn -0.125447 0.962336 -0.241190
vn -0.077017 0.954906 -0.286745
vn 0.469451 0.872425 0.135977
vn 0.130997 0.959455 -0.249573
vn 0.081463 0.951596 -0.296359
vn 0.226057 0.912770 -0.340220
vn 0.226057 0.912770 -0.340220
vn -0.000000 0.000000 1.000000
vn 0.000000 0.000000 1.000000
vn 0.000000 0.000000 1.000000
vn 0.000000 0.000000 1.000000
vn 0.000000 0.000000 1.000000
vn 0.000001 0.000000 1.000000
vn 0.000000 -1.000000 0.000000
vn 0.000000 -1.000000 0.000000
vn 0.000000 -1.000000 0.000000
vn 0.000000 -1.000000 0.000000
vn 0.991476 -0.000001 0.130290
vn 0.992138 -0.000001 0.125145
vn 0.995347 -0.000001 0.096355
vn 0.995347 -0.000001 0.096355
vn 0.995347 -0.000001 0.096355
vn 0.998410 -0.000000 -0.056380
vn 0.999032 -0.000000 -0.043986
vn 0.964684 -0.000002 -0.263408
vn 0.964684 -0.000002 -0.263408
vn 0.999715 0.000001 0.023882
vn 0.999967 0.000001 0.008145
vn 0.145256 0.986769 -0.072023
vn 0.312801 0.938622 -0.145413
vn 0.383269 0.913883 -0.133878
vn 0.383269 0.913883 -0.133878
vn 0.354366 0.932088 0.075085
vn 0.359007 0.931427 0.059653
vn 0.354366 0.932088 0.075085
vn 0.279510 0.951019 -0.132052
vn 0.279510 0.951019 -0.132052
vn 0.161540 0.973927 -0.159281
vn 0.322601 0.943238 0.078934
vn -0.274956 0.939746 -0.203170
vn 0.181063 0.970005 -0.162195
vn 0.312801 0.938622 -0.145413
vn 0.145256 0.986769 -0.072023
vn -0.077805 0.994875 -0.064569
vn 0.245524 0.968010 0.051725
vn 0.245524 0.968010 0.051725
vn 0.245524 0.968010 0.051725
vn 0.248129 0.963026 0.104938
vn 0.242841 0.964394 0.104749
vn 0.240164 0.968425 0.066899
vn 0.240163 0.968424 0.066899
vn 0.240163 0.968424 0.066899
vn 0.240163 0.968425 0.066899
vn -0.989685 -0.000011 0.143258
vn -0.995347 0.000002 0.096358
vn -0.995347 0.000002 0.096358
vn -0.989597 -0.000011 0.143864
vn -0.978524 -0.000027 0.206134
vn -0.978524 -0.000027 0.206134
vn -0.978524 -0.000027 0.206134
vn -0.989685 -0.000011 0.143258
vn -0.989597 -0.000011 0.143864
s off
f 37/44/1 2/47/2 4/48/3
f 20/30/4 21/31/5 22/32/6
f 5/5/7 6/6/8 8/84/9 7/85/10
f 7/7/11 8/8/12 43/95/13 12/9/14 11/10/15
f 39/3/16 42/98/17 41/99/18 40/100/19 12/101/20
f 25/11/21 59/138/22 62/141/23 60/139/24 1/13/25 3/14/26
f 10/15/27 13/18/28 5/35/29
f 7/16/30 11/17/31 10/19/32 5/22/33
f 9/4/34 39/90/35 44/97/36 43/96/37 8/37/38 6/39/39
f 11/10/40 12/9/41 40/91/42 27/20/43 28/42/44 58/137/45
f 47/108/46 48/109/47 45/105/48
f 23/33/49 20/30/50 22/32/51 24/34/52
f 31/60/53 52/122/54 54/125/55 57/128/56 56/127/57 55/126/58 53/124/59 51/120/60 32/61/61 26/62/62
f 16/23/63 15/24/64 13/25/65 36/26/66
f 5/27/67 13/25/68 15/24/69 18/28/70
f 14/113/71 47/114/72 50/115/73 17/116/74
f 6/43/75 5/27/76 18/28/77 19/45/78
f 15/53/79 16/54/80 21/31/81 20/30/82
f 16/54/83 17/55/84 22/32/85 21/31/86
f 18/56/87 15/53/88 20/30/89 23/33/90
f 17/55/91 50/111/92 19/57/93 24/34/94 22/32/95
f 19/57/96 18/56/97 23/33/98 24/34/99
f 32/63/100 33/70/101 37/86/102
f 2/40/103 27/2/104 26/1/105 4/41/106
f 25/65/107 36/66/108 13/18/109 10/15/110
f 10/19/111 11/17/112 58/136/113 61/140/114 59/138/115 25/11/116
f 25/65/117 29/67/118 36/66/119
f 3/68/120 38/69/121 29/67/122 25/65/123
f 31/50/124 36/26/125 29/72/126 32/73/127 51/121/128 52/123/129
f 29/72/130 30/74/131 33/75/132 32/73/133
f 30/76/134 34/77/135 35/78/136 33/79/137
f 1/49/138 2/47/139 35/51/140 34/52/141
f 1/49/142 34/52/143 30/80/144
f 14/58/145 31/60/146 26/62/147 9/59/148 46/106/149
f 16/23/150 36/26/151 31/50/152
f 16/23/153 31/50/154 14/29/155 17/46/156
f 33/81/157 2/47/158 37/44/159
f 1/49/160 38/82/161 3/83/162
f 29/87/163 38/88/164 30/89/165
f 32/61/166 37/64/167 4/71/168 26/62/169
f 33/81/170 35/51/171 2/47/172
f 1/49/173 30/80/174 38/82/175
f 28/42/176 27/20/177 2/21/178 1/38/179
f 26/1/180 27/2/181 40/92/182 41/93/183 42/94/184 39/90/185 9/4/186
f 43/102/187 44/103/188 39/3/189 12/101/190
f 6/36/191 45/105/192 48/109/193 49/110/194 46/106/195 9/59/196
f 46/117/197 49/118/198 48/119/199 47/114/200 14/113/201
f 50/112/202 47/107/203 45/104/204 6/43/205 19/45/206
f 53/129/207 55/130/208 54/131/209 52/132/210 51/133/211
f 56/134/212 57/135/213 54/131/214 55/130/215
f 59/12/216 61/142/217 58/143/218 28/144/219
f 1/145/220 60/146/221 62/147/222 59/12/223 28/144/224
v -0.465839 0.334801 0.328155
v -0.440505 0.398712 -0.669465
v 0.436444 0.371078 -0.648969
v 0.411114 0.307167 0.348650
v -0.342212 0.515869 -0.657855
v -0.320268 0.582245 -1.365504
v 0.377793 0.446991 -1.356542
v 0.355847 0.380615 -0.648892
v -0.433105 0.043655 -0.704962
v -0.401477 0.043640 -1.414884
v 0.300160 0.043640 -1.396776
v 0.290989 0.043655 -0.682507
vt 0.901724 0.402732
vt 0.901724 0.302001
vt 0.994810 0.402732
vt 0.994810 0.302001
vt 0.916456 0.412111
vt 0.916456 0.495915
vt 0.922456 0.494521
vt 0.922456 0.410717
vt 0.832653 0.495915
vt 0.832653 0.412111
vt 0.982068 0.476960
vt 0.982068 0.438950
vt 0.973400 0.412111
vt 0.956241 0.476960
vt 0.981403 0.495915
vt 0.985830 0.494521
vt 0.969915 0.410717
vt 0.784015 0.495915
vt 0.792018 0.412111
vt 0.963638 0.438950
vn 0.029920 0.997459 0.064661
vn 0.029920 0.997459 0.064661
vn 0.029920 0.997459 0.064661
vn 0.029920 0.997459 0.064661
vn 0.029920 0.997459 0.064661
vn 0.029920 0.997459 0.064661
vn -0.030861 -0.093334 0.995156
vn -0.030861 -0.093334 0.995157
vn -0.030861 -0.093334 0.995156
vn -0.030861 -0.093334 0.995156
vn -0.030861 -0.093334 0.995157
vn -0.030861 -0.093334 0.995156
vn 0.188106 0.977297 0.097502
vn 0.188106 0.977297 0.097501
vn 0.188106 0.977297 0.097501
vn 0.188106 0.977297 0.097501
vn 0.188106 0.977297 0.097501
vn 0.188106 0.977297 0.097501
vn -0.987264 0.152889 -0.043987
vn -0.984436 0.173736 -0.026506
vn -0.985555 0.166132 -0.032897
vn -0.985555 0.166132 -0.032897
vn -0.984436 0.173736 -0.026506
vn -0.981663 0.190210 -0.012600
vn 0.025700 0.087424 -0.995840
vn 0.027187 0.089126 -0.995649
vn 0.028433 0.090552 -0.995486
vn 0.028433 0.090552 -0.995486
vn 0.027187 0.089126 -0.995649
vn 0.030860 0.093328 -0.995157
vn 0.981665 -0.190199 0.012608
vn 0.981664 -0.190201 0.012606
vn 0.981664 -0.190203 0.012605
vn 0.981664 -0.190203 0.012605
vn 0.981664 -0.190201 0.012606
vn 0.981663 -0.190206 0.012603
s off
f 66/151/225 65/150/226 63/149/227
f 63/149/228 65/150/229 64/148/230
f 71/161/231 74/167/232 67/158/233
f 67/158/234 74/167/235 70/159/236
f 69/156/237 68/153/238 70/157/239
f 70/157/240 68/153/241 67/152/242
f 72/162/243 71/160/244 68/153/245
f 68/153/246 71/160/247 67/152/248
f 72/163/249 68/154/250 73/164/251
f 73/164/252 68/154/253 69/155/254
f 73/165/255 69/156/256 74/166/257
f 74/166/258 69/156/259 70/157/260
