# This file uses meters as units for non-parametric coordinates.

v -0.165956 0.000000 5.029795
v -0.053087 0.000000 5.029795
v -0.165956 3.075222 5.029795
v -0.053087 3.075222 5.029795
v -0.165956 3.075222 0.262806
v -0.053087 3.075222 0.262806
v -0.165956 0.000000 0.262806
v -0.053087 0.000000 0.262806
v -0.219046 3.129348 0.262806
v 0.000000 3.129348 0.262806
v 0.000000 0.000000 0.262806
v -0.219046 0.000000 0.262806
v -0.219046 3.129348 0.000000
v 0.000000 3.129348 0.000000
v 0.000000 0.000000 0.000000
v -0.219046 0.000000 0.000000
v -0.165956 0.000000 0.659735
v -0.165956 3.075222 0.659736
v -0.053087 3.075222 0.659736
v -0.053087 0.000000 0.659735
v -0.165956 0.000000 0.738214
v -0.165956 3.075222 0.738214
v -0.053087 3.075222 0.738214
v -0.053087 0.000000 0.738214
v -0.165956 0.000000 1.126301
v -0.165956 3.075222 1.126302
v -0.053087 3.075222 1.126302
v -0.053087 0.000000 1.126301
v -0.165956 0.000000 1.204434
v -0.165956 3.075222 1.204433
v -0.053087 3.075222 1.204433
v -0.053087 0.000000 1.204434
v -0.165956 0.000000 1.605677
v -0.165956 3.075222 1.605676
v -0.053087 3.075222 1.605676
v -0.053087 0.000000 1.605677
v -0.165956 0.000000 1.703637
v -0.165956 3.075222 1.703637
v -0.053087 3.075222 1.703637
v -0.053087 0.000000 1.703637
v -0.165956 -0.000000 2.120804
v -0.165956 3.075222 2.120804
v -0.053087 3.075222 2.120804
v -0.053087 -0.000000 2.120804
v -0.165956 0.000000 2.203919
v -0.165956 3.075222 2.203919
v -0.053087 3.075222 2.203919
v -0.053087 0.000000 2.203919
v -0.165956 0.000000 2.631430
v -0.165956 3.075222 2.631430
v -0.053087 3.075222 2.631430
v -0.053087 0.000000 2.631430
v -0.165956 0.000000 2.721337
v -0.165956 3.075222 2.721337
v -0.053087 3.075222 2.721337
v -0.053087 0.000000 2.721337
v -0.165956 3.075222 3.197552
v -0.053087 3.075222 3.197552
v -0.053087 0.000000 3.197552
v -0.165956 0.000000 3.197552
v -0.165956 3.075222 3.310162
v -0.053087 3.075222 3.310162
v -0.053087 0.000000 3.310162
v -0.165956 0.000000 3.310162
v -0.165956 3.075222 3.802602
v -0.053087 3.075222 3.802602
v -0.053087 0.000000 3.802604
v -0.165956 0.000000 3.802604
v -0.165956 3.075222 3.926473
v -0.053087 3.075222 3.926473
v -0.053087 0.000000 3.926474
v -0.165956 0.000000 3.926474
v -0.165956 3.075222 4.451861
v -0.053087 3.075222 4.451861
v -0.053087 0.000000 4.451862
v -0.165956 0.000000 4.451862
v -0.165956 3.075222 4.553210
v -0.053087 3.075222 4.553210
v -0.053087 -0.000000 4.553210
v -0.165956 -0.000000 4.553210
vt 0.421002 0.398526
vt 0.421002 0.398526
vt 0.421002 0.398526
vt 0.421002 0.398526
vt 0.270913 0.398526
vt 0.270913 0.398526
vt 0.270913 0.398526
vt 0.270913 0.398526
vt 0.389140 0.398526
vt 0.389140 0.398526
vt 0.389140 0.398526
vt 0.389140 0.398526
vt 0.389140 0.398526
vt 0.389140 0.398526
vt 0.389140 0.398526
vt 0.389140 0.398526
vt 0.238212 0.398526
vt 0.238212 0.398526
vt 0.238212 0.398526
vt 0.238212 0.398526
vt 0.238212 0.398526
vt 0.238212 0.398526
vt 0.238212 0.398526
vt 0.238212 0.398526
vt 0.238212 0.398526
vt 0.238212 0.398526
vt 0.238212 0.398526
vt 0.238212 0.398526
vt 0.355600 0.398526
vt 0.355600 0.398526
vt 0.355600 0.398526
vt 0.355600 0.398526
vt 0.323738 0.398526
vt 0.323738 0.398526
vt 0.323738 0.398526
vt 0.323738 0.398526
vt 0.323738 0.398526
vt 0.323738 0.398526
vt 0.323738 0.398526
vt 0.323738 0.398526
vt 0.303614 0.398526
vt 0.303614 0.398526
vt 0.303614 0.398526
vt 0.303614 0.398526
vt 0.325415 0.398526
vt 0.325415 0.398526
vt 0.325415 0.398526
vt 0.325415 0.398526
vt 0.303614 0.398526
vt 0.303614 0.398526
vt 0.303614 0.398526
vt 0.303614 0.398526
vt 0.389140 0.398526
vt 0.389140 0.398526
vt 0.389140 0.398526
vt 0.389140 0.398526
vt 0.421002 0.398526
vt 0.421002 0.398526
vt 0.421002 0.398526
vt 0.421002 0.398526
vt 0.389140 0.398526
vt 0.389140 0.398526
vt 0.389140 0.398526
vt 0.389140 0.398526
vt 0.303614 0.398526
vt 0.303614 0.398526
vt 0.303614 0.398526
vt 0.303614 0.398526
vt 0.325415 0.398526
vt 0.325415 0.398526
vt 0.325415 0.398526
vt 0.325415 0.398526
vt 0.303614 0.398526
vt 0.303614 0.398526
vt 0.303614 0.398526
vt 0.303614 0.398526
vt 0.389140 0.398526
vt 0.389140 0.398526
vt 0.389140 0.398526
vt 0.389140 0.398526
vt 0.421002 0.398526
vt 0.421002 0.398526
vt 0.421002 0.398526
vt 0.421002 0.398526
vt 0.389140 0.398526
vt 0.389140 0.398526
vt 0.389140 0.398526
vt 0.389140 0.398526
vt 0.303614 0.398526
vt 0.303614 0.398526
vt 0.303614 0.398526
vt 0.303614 0.398526
vt 0.325415 0.398526
vt 0.325415 0.398526
vt 0.325415 0.398526
vt 0.325415 0.398526
vt 0.303614 0.398526
vt 0.303614 0.398526
vt 0.303614 0.398526
vt 0.303614 0.398526
vt 0.389140 0.398526
vt 0.389140 0.398526
vt 0.389140 0.398526
vt 0.389140 0.398526
vt 0.421002 0.398526
vt 0.421002 0.398526
vt 0.421002 0.398526
vt 0.421002 0.398526
vt 0.389140 0.398526
vt 0.389140 0.398526
vt 0.389140 0.398526
vt 0.389140 0.398526
vt 0.303614 0.398526
vt 0.303614 0.398526
vt 0.303614 0.398526
vt 0.303614 0.398526
vt 0.325415 0.398526
vt 0.325415 0.398526
vt 0.325415 0.398526
vt 0.325415 0.398526
vt 0.303614 0.398526
vt 0.303614 0.398526
vt 0.303614 0.398526
vt 0.303614 0.398526
vt 0.389140 0.398526
vt 0.389140 0.398526
vt 0.389140 0.398526
vt 0.389140 0.398526
vt 0.421002 0.398526
vt 0.421002 0.398526
vt 0.421002 0.398526
vt 0.421002 0.398526
vt 0.389140 0.398526
vt 0.389140 0.398526
vt 0.389140 0.398526
vt 0.389140 0.398526
vt 0.303614 0.398526
vt 0.303614 0.398526
vt 0.303614 0.398526
vt 0.303614 0.398526
vt 0.325415 0.398526
vt 0.325415 0.398526
vt 0.325415 0.398526
vt 0.325415 0.398526
vt 0.303614 0.398526
vt 0.303614 0.398526
vt 0.303614 0.398526
vt 0.303614 0.398526
vt 0.389140 0.398526
vt 0.389140 0.398526
vt 0.389140 0.398526
vt 0.389140 0.398526
vt 0.421002 0.398526
vt 0.421002 0.398526
vt 0.421002 0.398526
vt 0.421002 0.398526
vt 0.389140 0.398526
vt 0.389140 0.398526
vt 0.389140 0.398526
vt 0.389140 0.398526
vt 0.325415 0.398526
vt 0.325415 0.398526
vt 0.325415 0.398526
vt 0.325415 0.398526
vt 0.303614 0.398526
vt 0.303614 0.398526
vt 0.303614 0.398526
vt 0.303614 0.398526
vt 0.303614 0.398526
vt 0.303614 0.398526
vt 0.303614 0.398526
vt 0.303614 0.398526
vt 0.421002 0.398526
vt 0.421002 0.398526
vt 0.421002 0.398526
vt 0.421002 0.398526
vt 0.389140 0.398526
vt 0.389140 0.398526
vt 0.389140 0.398526
vt 0.389140 0.398526
vt 0.389140 0.398526
vt 0.389140 0.398526
vt 0.389140 0.398526
vt 0.389140 0.398526
vt 0.325415 0.398526
vt 0.325415 0.398526
vt 0.325415 0.398526
vt 0.325415 0.398526
vt 0.303614 0.398526
vt 0.303614 0.398526
vt 0.303614 0.398526
vt 0.303614 0.398526
vt 0.303614 0.398526
vt 0.303614 0.398526
vt 0.303614 0.398526
vt 0.303614 0.398526
vt 0.421002 0.398526
vt 0.421002 0.398526
vt 0.421002 0.398526
vt 0.421002 0.398526
vt 0.389140 0.398526
vt 0.389140 0.398526
vt 0.389140 0.398526
vt 0.389140 0.398526
vt 0.389140 0.398526
vt 0.389140 0.398526
vt 0.389140 0.398526
vt 0.389140 0.398526
vt 0.325415 0.398526
vt 0.325415 0.398526
vt 0.325415 0.398526
vt 0.325415 0.398526
vt 0.303614 0.398526
vt 0.303614 0.398526
vt 0.303614 0.398526
vt 0.303614 0.398526
vt 0.303614 0.398526
vt 0.303614 0.398526
vt 0.303614 0.398526
vt 0.303614 0.398526
vt 0.421002 0.398526
vt 0.421002 0.398526
vt 0.421002 0.398526
vt 0.421002 0.398526
vt 0.389140 0.398526
vt 0.389140 0.398526
vt 0.389140 0.398526
vt 0.389140 0.398526
vt 0.389140 0.398526
vt 0.389140 0.398526
vt 0.389140 0.398526
vt 0.389140 0.398526
vn 0.000000 1.000000 0.000000
vn 0.000000 1.000000 0.000000
vn 0.000000 1.000000 0.000000
vn 0.000000 1.000000 0.000000
vn 0.000000 0.000000 -1.000000
vn 0.000000 0.000000 -1.000000
vn 0.000000 0.000000 -1.000000
vn 0.000000 0.000000 -1.000000
vn 1.000000 0.000000 0.000000
vn 1.000000 0.000000 0.000000
vn 1.000000 0.000000 0.000000
vn 1.000000 0.000000 0.000000
vn -1.000000 -0.000000 0.000000
vn -1.000000 -0.000000 0.000000
vn -1.000000 -0.000000 0.000000
vn -1.000000 -0.000000 0.000000
vn 0.000000 0.000000 1.000000
vn -0.000000 0.000000 1.000000
vn -0.000000 0.000000 1.000000
vn 0.000000 0.000000 1.000000
vn -0.000000 0.000000 1.000000
vn -0.000000 0.000000 1.000000
vn -0.000000 0.000000 1.000000
vn -0.000000 0.000000 1.000000
vn 0.000000 0.000000 1.000000
vn 0.000000 0.000000 1.000000
vn 0.000000 0.000000 1.000000
vn 0.000000 0.000000 1.000000
vn 0.000000 1.000000 0.000000
vn 0.000000 1.000000 0.000000
vn 0.000000 1.000000 0.000000
vn 0.000000 1.000000 0.000000
vn 1.000000 0.000000 0.000000
vn 1.000000 0.000000 0.000000
vn 1.000000 0.000000 0.000000
vn 1.000000 0.000000 0.000000
vn -1.000000 0.000000 0.000000
vn -1.000000 0.000000 0.000000
vn -1.000000 0.000000 0.000000
vn -1.000000 0.000000 0.000000
vn -1.000000 -0.000000 0.000000
vn -1.000000 -0.000000 0.000000
vn -1.000000 -0.000000 0.000000
vn -1.000000 -0.000000 0.000000
vn 0.000000 1.000000 0.000000
vn 0.000000 1.000000 0.000000
vn 0.000000 1.000000 0.000000
vn 0.000000 1.000000 0.000000
vn 1.000000 0.000000 0.000000
vn 1.000000 0.000000 0.000000
vn 1.000000 0.000000 0.000000
vn 1.000000 0.000000 0.000000
vn -1.000000 -0.000000 0.000000
vn -1.000000 -0.000000 0.000000
vn -1.000000 -0.000000 0.000000
vn -1.000000 -0.000000 0.000000
vn 0.000000 1.000000 0.000000
vn 0.000000 1.000000 0.000000
vn 0.000000 1.000000 0.000000
vn 0.000000 1.000000 0.000000
vn 1.000000 0.000000 0.000000
vn 1.000000 0.000000 0.000000
vn 1.000000 0.000000 0.000000
vn 1.000000 0.000000 0.000000
vn -1.000000 -0.000000 0.000000
vn -1.000000 -0.000000 0.000000
vn -1.000000 -0.000000 0.000000
vn -1.000000 -0.000000 0.000000
vn 0.000000 1.000000 0.000000
vn 0.000000 1.000000 0.000000
vn 0.000000 1.000000 0.000000
vn 0.000000 1.000000 0.000000
vn 1.000000 0.000000 0.000000
vn 1.000000 0.000000 0.000000
vn 1.000000 0.000000 0.000000
vn 1.000000 0.000000 0.000000
vn -1.000000 -0.000000 0.000000
vn -1.000000 -0.000000 0.000000
vn -1.000000 0.000000 0.000000
vn -1.000000 0.000000 0.000000
vn 0.000000 1.000000 0.000000
vn 0.000000 1.000000 0.000000
vn 0.000000 1.000000 0.000000
vn 0.000000 1.000000 0.000000
vn 1.000000 -0.000000 0.000000
vn 1.000000 -0.000000 0.000000
vn 1.000000 0.000000 0.000000
vn 1.000000 0.000000 0.000000
vn -1.000000 0.000000 0.000000
vn -1.000000 0.000000 0.000000
vn -1.000000 0.000000 0.000000
vn -1.000000 0.000000 0.000000
vn 0.000000 1.000000 0.000000
vn 0.000000 1.000000 0.000000
vn 0.000000 1.000000 0.000000
vn 0.000000 1.000000 0.000000
vn 1.000000 -0.000000 0.000000
vn 1.000000 -0.000000 0.000000
vn 1.000000 -0.000000 0.000000
vn 1.000000 -0.000000 0.000000
vn -1.000000 0.000000 0.000000
vn -1.000000 0.000000 0.000000
vn -1.000000 0.000000 0.000000
vn -1.000000 0.000000 0.000000
vn 0.000000 1.000000 0.000000
vn 0.000000 1.000000 0.000000
vn 0.000000 1.000000 0.000000
vn 0.000000 1.000000 0.000000
vn 1.000000 0.000000 0.000000
vn 1.000000 0.000000 0.000000
vn 1.000000 -0.000000 0.000000
vn 1.000000 -0.000000 0.000000
vn -1.000000 0.000000 0.000000
vn -1.000000 0.000000 0.000000
vn -1.000000 0.000000 0.000000
vn -1.000000 0.000000 0.000000
vn 0.000000 1.000000 0.000000
vn 0.000000 1.000000 0.000000
vn 0.000000 1.000000 0.000000
vn 0.000000 1.000000 0.000000
vn 1.000000 0.000000 0.000000
vn 1.000000 0.000000 0.000000
vn 1.000000 0.000000 0.000000
vn 1.000000 0.000000 0.000000
vn -1.000000 0.000000 0.000000
vn -1.000000 0.000000 0.000000
vn -1.000000 0.000000 0.000000
vn -1.000000 0.000000 0.000000
vn 0.000000 1.000000 0.000000
vn 0.000000 1.000000 0.000000
vn 0.000000 1.000000 0.000000
vn 0.000000 1.000000 0.000000
vn 1.000000 0.000000 0.000000
vn 1.000000 0.000000 0.000000
vn 1.000000 0.000000 0.000000
vn 1.000000 0.000000 0.000000
vn -1.000000 0.000000 0.000000
vn -1.000000 0.000000 0.000000
vn -1.000000 0.000000 0.000000
vn -1.000000 0.000000 0.000000
vn 0.000000 1.000000 0.000000
vn 0.000000 1.000000 0.000000
vn 0.000000 1.000000 0.000000
vn 0.000000 1.000000 0.000000
vn 1.000000 0.000000 0.000000
vn 1.000000 0.000000 0.000000
vn 1.000000 0.000000 0.000000
vn 1.000000 0.000000 0.000000
vn -1.000000 0.000000 0.000000
vn -1.000000 0.000000 0.000000
vn -1.000000 0.000000 0.000000
vn -1.000000 0.000000 0.000000
vn 0.000000 1.000000 0.000000
vn 0.000000 1.000000 0.000000
vn 0.000000 1.000000 0.000000
vn 0.000000 1.000000 0.000000
vn 1.000000 0.000000 0.000000
vn 1.000000 0.000000 0.000000
vn 1.000000 0.000000 0.000000
vn 1.000000 0.000000 0.000000
vn 0.000000 1.000000 0.000000
vn 0.000000 1.000000 0.000000
vn 0.000000 1.000000 0.000000
vn 0.000000 1.000000 0.000000
vn 1.000000 0.000000 0.000000
vn 1.000000 0.000000 0.000000
vn 1.000000 0.000000 0.000000
vn 1.000000 0.000000 0.000000
vn -1.000000 0.000000 0.000000
vn -1.000000 0.000000 0.000000
vn -1.000000 0.000000 0.000000
vn -1.000000 0.000000 0.000000
vn 0.000000 1.000000 0.000000
vn 0.000000 1.000000 0.000000
vn 0.000000 1.000000 0.000000
vn 0.000000 1.000000 0.000000
vn 1.000000 0.000000 0.000000
vn 1.000000 0.000000 0.000000
vn 1.000000 0.000000 0.000000
vn 1.000000 0.000000 0.000000
vn -1.000000 0.000000 0.000000
vn -1.000000 0.000000 0.000000
vn -1.000000 0.000000 0.000000
vn -1.000000 0.000000 0.000000
vn 0.000000 1.000000 0.000000
vn 0.000000 1.000000 0.000000
vn 0.000000 1.000000 0.000000
vn 0.000000 1.000000 0.000000
vn 1.000000 0.000000 0.000000
vn 1.000000 0.000000 0.000000
vn 1.000000 0.000000 0.000000
vn 1.000000 0.000000 0.000000
vn -1.000000 0.000000 0.000000
vn -1.000000 0.000000 0.000000
vn -1.000000 0.000000 0.000000
vn -1.000000 0.000000 0.000000
vn 0.000000 1.000000 0.000000
vn 0.000000 1.000000 0.000000
vn 0.000000 1.000000 0.000000
vn 0.000000 1.000000 0.000000
vn 1.000000 0.000000 0.000000
vn 1.000000 0.000000 0.000000
vn 1.000000 0.000000 0.000000
vn 1.000000 0.000000 0.000000
vn -1.000000 0.000000 0.000000
vn -1.000000 0.000000 0.000000
vn -1.000000 0.000000 0.000000
vn -1.000000 0.000000 0.000000
vn 0.000000 1.000000 0.000000
vn 0.000000 1.000000 0.000000
vn 0.000000 1.000000 0.000000
vn 0.000000 1.000000 0.000000
vn 1.000000 0.000000 0.000000
vn 1.000000 0.000000 0.000000
vn 1.000000 0.000000 0.000000
vn 1.000000 0.000000 0.000000
vn -1.000000 0.000000 0.000000
vn -1.000000 0.000000 0.000000
vn -1.000000 0.000000 0.000000
vn -1.000000 0.000000 0.000000
vn 0.000000 1.000000 0.000000
vn 0.000000 1.000000 0.000000
vn 0.000000 1.000000 0.000000
vn 0.000000 1.000000 0.000000
vn 1.000000 0.000000 0.000000
vn 1.000000 0.000000 0.000000
vn 1.000000 0.000000 0.000000
vn 1.000000 0.000000 0.000000
vn -1.000000 0.000000 0.000000
vn -1.000000 0.000000 0.000000
vn -1.000000 0.000000 0.000000
vn -1.000000 0.000000 0.000000
s off
f 18/1/1 19/2/2 6/3/3 5/4/4
f 13/5/5 14/6/6 15/7/7 16/8/8
f 19/9/9 20/10/10 8/11/11 6/12/12
f 7/13/13 17/14/14 18/15/15 5/16/16
f 5/17/17 6/18/18 10/19/19 9/20/20
f 6/21/21 8/22/22 11/23/23 10/24/24
f 7/25/25 5/26/26 9/27/27 12/28/28
f 9/29/29 10/30/30 14/31/31 13/32/32
f 10/33/33 11/34/34 15/35/35 14/36/36
f 12/37/37 9/38/38 13/39/39 16/40/40
f 18/41/41 17/42/42 21/43/43 22/44/44
f 22/45/45 23/46/46 19/47/47 18/48/48
f 23/49/49 24/50/50 20/51/51 19/52/52
f 22/53/53 21/54/54 25/55/55 26/56/56
f 26/57/57 27/58/58 23/59/59 22/60/60
f 27/61/61 28/62/62 24/63/63 23/64/64
f 26/65/65 25/66/66 29/67/67 30/68/68
f 30/69/69 31/70/70 27/71/71 26/72/72
f 31/73/73 32/74/74 28/75/75 27/76/76
f 30/77/77 29/78/78 33/79/79 34/80/80
f 34/81/81 35/82/82 31/83/83 30/84/84
f 35/85/85 36/86/86 32/87/87 31/88/88
f 34/89/89 33/90/90 37/91/91 38/92/92
f 38/93/93 39/94/94 35/95/95 34/96/96
f 39/97/97 40/98/98 36/99/99 35/100/100
f 38/101/101 37/102/102 41/103/103 42/104/104
f 42/105/105 43/106/106 39/107/107 38/108/108
f 43/109/109 44/110/110 40/111/111 39/112/112
f 42/113/113 41/114/114 45/115/115 46/116/116
f 46/117/117 47/118/118 43/119/119 42/120/120
f 47/121/121 48/122/122 44/123/123 43/124/124
f 46/125/125 45/126/126 49/127/127 50/128/128
f 50/129/129 51/130/130 47/131/131 46/132/132
f 51/133/133 52/134/134 48/135/135 47/136/136
f 50/137/137 49/138/138 53/139/139 54/140/140
f 54/141/141 55/142/142 51/143/143 50/144/144
f 55/145/145 56/146/146 52/147/147 51/148/148
f 54/149/149 53/150/150 60/151/151 57/152/152
f 57/153/153 58/154/154 55/155/155 54/156/156
f 58/157/157 59/158/158 56/159/159 55/160/160
f 61/161/161 62/162/162 58/163/163 57/164/164
f 62/165/165 63/166/166 59/167/167 58/168/168
f 57/169/169 60/170/170 64/171/171 61/172/172
f 65/173/173 66/174/174 62/175/175 61/176/176
f 66/177/177 67/178/178 63/179/179 62/180/180
f 61/181/181 64/182/182 68/183/183 65/184/184
f 69/185/185 70/186/186 66/187/187 65/188/188
f 70/189/189 71/190/190 67/191/191 66/192/192
f 65/193/193 68/194/194 72/195/195 69/196/196
f 73/197/197 74/198/198 70/199/199 69/200/200
f 74/201/201 75/202/202 71/203/203 70/204/204
f 69/205/205 72/206/206 76/207/207 73/208/208
f 77/209/209 78/210/210 74/211/211 73/212/212
f 78/213/213 79/214/214 75/215/215 74/216/216
f 73/217/217 76/218/218 80/219/219 77/220/220
f 3/221/221 4/222/222 78/223/223 77/224/224
f 2/225/225 79/226/226 78/227/227 4/228/228
f 77/229/229 80/230/230 1/231/231 3/232/232
