# This file uses meters as units for non-parametric coordinates.

v -1.517590 -0.323835 0.228999
v 1.517590 -0.323835 0.228999
v -1.517590 0.134164 0.228999
v 1.517590 0.134164 0.228999
v -1.517590 0.134164 -0.228999
v 1.517590 0.134164 -0.228999
v -1.517590 -0.323835 -0.228999
v 1.517590 -0.323835 -0.228999
vt 0.137395 0.061306
vt 0.170782 0.061306
vt 0.202749 0.061306
vt 0.133630 0.061306
vt 0.170782 0.061306
vt 0.202749 0.061306
vt 0.202749 0.061306
vt 0.170782 0.061306
vt 0.202749 0.061306
vt 0.202749 0.061306
vt 0.133630 0.061306
vt 0.133630 0.061306
vt 0.137395 0.061306
vt 0.137395 0.061306
vt 0.202749 0.061306
vt 0.170782 0.061306
vt 0.202749 0.061306
vt 0.170782 0.061306
vt 0.170782 0.061306
vt 0.202749 0.061306
vt 0.133630 0.061306
vt 0.170782 0.061306
vt 0.170782 0.061306
vt 0.137395 0.061306
vn 0.000000 0.000000 1.000000
vn 0.000000 0.000000 1.000000
vn 0.000000 0.000000 1.000000
vn 0.000000 0.000000 1.000000
vn 0.000000 1.000000 0.000000
vn 0.000000 1.000000 0.000000
vn 0.000000 1.000000 0.000000
vn 0.000000 1.000000 0.000000
vn 0.000000 0.000000 -1.000000
vn 0.000000 0.000000 -1.000000
vn 0.000000 0.000000 -1.000000
vn 0.000000 0.000000 -1.000000
vn 0.000000 -1.000000 0.000000
vn 0.000000 -1.000000 0.000000
vn 0.000000 -1.000000 0.000000
vn 0.000000 -1.000000 0.000000
vn 1.000000 0.000000 0.000000
vn 1.000000 0.000000 0.000000
vn 1.000000 0.000000 0.000000
vn 1.000000 0.000000 0.000000
vn -1.000000 0.000000 0.000000
vn -1.000000 0.000000 0.000000
vn -1.000000 0.000000 0.000000
vn -1.000000 0.000000 0.000000
s off
f 1/23/1 2/2/2 4/22/3 3/19/4
f 3/3/5 4/17/6 6/6/7 5/20/8
f 5/5/9 6/18/10 8/8/11 7/16/12
f 7/7/13 8/15/14 2/10/15 1/9/16
f 2/21/17 8/11/18 6/12/19 4/4/20
f 7/13/21 1/1/22 3/24/23 5/14/24
