# This file uses meters as units for non-parametric coordinates.

v -0.260449 0.000810 -0.255889
v -0.260448 0.000582 0.262508
v -0.066116 0.732417 -0.067653
v -0.066116 0.732360 0.061680
v 0.063216 0.732505 -0.067653
v 0.063216 0.732448 0.061680
v 0.257946 0.001162 -0.255889
v 0.257947 0.000933 0.262507
v 0.257804 0.649884 -0.262221
v -0.260592 0.649532 -0.262221
v -0.260591 0.649304 0.256176
v 0.257805 0.649656 0.256175
v -0.066184 0.832141 -0.067609
v -0.066184 0.832084 0.061724
v 0.063149 0.832172 0.061724
v 0.063149 0.832229 -0.067609
vt 0.263449 0.199788
vt 0.263449 0.199788
vt 0.263449 0.199788
vt 0.263449 0.199788
vt 0.266099 0.199788
vt 0.266099 0.199788
vt 0.266099 0.199788
vt 0.266099 0.199788
vt 0.263449 0.199788
vt 0.263449 0.199788
vt 0.263449 0.199788
vt 0.263449 0.199788
vt 0.144393 0.199788
vt 0.144393 0.199788
vt 0.144393 0.199788
vt 0.144393 0.199788
vt 0.235040 0.199788
vt 0.235040 0.199788
vt 0.235040 0.199788
vt 0.235040 0.199788
vt 0.235040 0.199788
vt 0.235040 0.199788
vt 0.235040 0.199788
vt 0.235040 0.199788
vt 0.171225 0.199788
vt 0.171225 0.199788
vt 0.171225 0.199788
vt 0.171225 0.199788
vt 0.199634 0.199788
vt 0.199634 0.199788
vt 0.199634 0.199788
vt 0.199634 0.199788
vt 0.171225 0.199788
vt 0.171224 0.199788
vt 0.171224 0.199788
vt 0.171225 0.199788
vt 0.199634 0.199788
vt 0.199634 0.199788
vt 0.199634 0.199788
vt 0.199634 0.199788
vt 0.201287 0.199788
vt 0.201287 0.199788
vt 0.201287 0.199788
vt 0.201287 0.199788
vt 0.172370 0.199788
vt 0.172370 0.199788
vt 0.172370 0.199788
vt 0.172370 0.199788
vt 0.201287 0.199788
vt 0.201287 0.199788
vt 0.201287 0.199788
vt 0.201287 0.199788
vt 0.172370 0.199788
vt 0.172370 0.199788
vt 0.172370 0.199788
vt 0.172370 0.199788
vn -0.392416 0.919788 0.000405
vn -0.392416 0.919788 0.000405
vn -0.392416 0.919788 0.000405
vn -0.392416 0.919788 0.000405
vn -0.000680 1.000000 0.000441
vn -0.000680 1.000000 0.000441
vn -0.000680 1.000000 0.000441
vn -0.000680 1.000000 0.000441
vn 0.391167 0.920319 0.000404
vn 0.391167 0.920319 0.000404
vn 0.391167 0.920319 0.000404
vn 0.391167 0.920319 0.000404
vn 0.000678 -1.000000 -0.000440
vn 0.000678 -1.000000 -0.000440
vn 0.000678 -1.000000 -0.000440
vn 0.000678 -1.000000 -0.000440
vn -0.000624 0.919881 0.392197
vn -0.000624 0.919881 0.392197
vn -0.000624 0.919881 0.392197
vn -0.000624 0.919881 0.392197
vn -0.000625 0.920226 -0.391388
vn -0.000625 0.920226 -0.391388
vn -0.000625 0.920226 -0.391388
vn -0.000625 0.920226 -0.391388
vn 0.000005 -0.009760 -0.999952
vn 0.000005 -0.009760 -0.999952
vn 0.000005 -0.009760 -0.999952
vn 0.000005 -0.009760 -0.999952
vn -1.000000 -0.000220 0.000002
vn -1.000000 -0.000220 0.000002
vn -1.000000 -0.000220 0.000002
vn -1.000000 -0.000220 0.000002
vn -0.000005 0.009760 0.999952
vn -0.000005 0.009760 0.999952
vn -0.000005 0.009760 0.999952
vn -0.000005 0.009760 0.999952
vn 1.000000 0.000220 -0.000002
vn 1.000000 0.000220 -0.000002
vn 1.000000 0.000220 -0.000002
vn 1.000000 0.000220 -0.000002
vn -1.000000 -0.000679 -0.000000
vn -1.000000 -0.000679 -0.000000
vn -1.000000 -0.000679 -0.000000
vn -1.000000 -0.000679 -0.000000
vn 0.000002 -0.000440 1.000000
vn 0.000002 -0.000440 1.000000
vn 0.000002 -0.000440 1.000000
vn 0.000002 -0.000440 1.000000
vn 1.000000 0.000669 0.000000
vn 1.000000 0.000669 0.000000
vn 1.000000 0.000669 0.000000
vn 1.000000 0.000669 0.000000
vn -0.000002 0.000440 -1.000000
vn -0.000002 0.000440 -1.000000
vn -0.000002 0.000440 -1.000000
vn -0.000002 0.000440 -1.000000
s off
f 10/1/1 11/2/2 4/3/3 3/4/4
f 13/5/5 14/6/6 15/7/7 16/8/8
f 5/9/9 6/10/10 12/11/11 9/12/12
f 7/13/13 8/14/14 2/15/15 1/16/16
f 11/17/17 12/18/18 6/19/19 4/20/20
f 9/21/21 10/22/22 3/23/23 5/24/24
f 7/25/25 1/26/26 10/27/27 9/28/28
f 1/29/29 2/30/30 11/31/31 10/32/32
f 2/33/33 8/34/34 12/35/35 11/36/36
f 9/37/37 12/38/38 8/39/39 7/40/40
f 3/41/41 4/42/42 14/43/43 13/44/44
f 4/45/45 6/46/46 15/47/47 14/48/48
f 6/49/49 5/50/50 16/51/51 15/52/52
f 5/53/53 3/54/54 13/55/55 16/56/56
