# This file uses meters as units for non-parametric coordinates.

v -0.163185 0.401229 0.362930
v 0.634895 0.610655 0.481094
v -0.013710 1.480497 0.153030
v 0.398315 1.487718 0.282486
v -0.013710 1.462734 -0.165451
v 0.483009 1.462734 -0.165451
v -0.163185 0.366818 -0.254028
v 0.719589 0.569024 -0.265305
v -0.095955 3.517240 0.145462
v 0.082436 3.476202 0.277634
v 0.167122 3.449295 -0.204788
v -0.095955 3.497554 -0.207474
v -0.618454 0.067066 -0.508942
v 0.996719 0.269271 -0.520218
v 1.090172 0.351969 0.962509
v -0.279594 0.147815 0.938828
v -0.582222 -0.140391 -0.465836
v 1.330925 -0.140391 -0.465836
v 1.420410 -0.061200 0.954010
v -0.257729 -0.063067 0.920547
v 1.593605 3.323844 1.590118
v 1.823708 3.314189 -0.783218
v 1.302055 4.751010 1.361664
v 1.677711 4.709858 -0.659775
v -1.504326 4.917586 1.036972
v -1.079552 4.876435 -1.966476
v -1.823708 3.223376 1.091721
v -1.469597 3.152455 -1.955124
v 1.531990 3.625424 1.541855
v -1.756218 3.581386 1.080154
v -1.387177 3.516756 -1.957520
v 1.792854 3.609114 -0.757126
v -0.715706 3.624562 0.413147
v -0.670799 3.563537 1.966476
v -0.503181 4.576771 0.633087
v -0.501572 4.503316 1.893967
v 0.486099 4.621644 0.466629
v 0.540703 4.536087 1.870255
v 0.494255 3.478764 -0.010635
v 0.541481 3.367384 1.691299
v -0.650078 3.918638 0.481079
v -0.618538 3.853775 1.944092
v 0.541237 3.728321 1.746567
v 0.491737 3.831727 0.136765
v 0.790756 4.686966 0.895462
v 0.966736 4.702535 -0.588120
v 0.846062 5.817531 0.916702
v 0.871834 5.730534 -0.472061
v -0.730888 6.163785 0.586624
v -0.584595 6.124045 -0.805923
v -0.852318 4.550951 0.588943
v -0.780113 4.488620 -0.798004
v 0.813942 5.160932 0.904358
v -0.801414 5.227098 0.587967
v -0.698143 5.174238 -0.801315
v 0.926949 5.133502 -0.539474
vt 0.243494 0.396585
vt 0.243494 0.396585
vt 0.243494 0.396585
vt 0.243494 0.396585
vt 0.243494 0.396585
vt 0.243494 0.396585
vt 0.243494 0.396585
vt 0.243494 0.396585
vt 0.211099 0.396585
vt 0.211099 0.396585
vt 0.211099 0.396585
vt 0.211099 0.396585
vt 0.211099 0.396585
vt 0.211099 0.396585
vt 0.211099 0.396585
vt 0.211099 0.396585
vt 0.211099 0.396585
vt 0.211099 0.396585
vt 0.211099 0.396585
vt 0.211099 0.396585
vt 0.243494 0.396585
vt 0.243494 0.396585
vt 0.243494 0.396585
vt 0.243494 0.396585
vt 0.211099 0.396585
vt 0.211099 0.396585
vt 0.211099 0.396585
vt 0.211099 0.396585
vt 0.175105 0.396585
vt 0.175105 0.396585
vt 0.175105 0.396585
vt 0.175105 0.396585
vt 0.270490 0.396585
vt 0.270490 0.396585
vt 0.270490 0.396585
vt 0.270490 0.396585
vt 0.245294 0.396585
vt 0.245294 0.396585
vt 0.245294 0.396585
vt 0.245294 0.396585
vt 0.270490 0.396585
vt 0.270490 0.396585
vt 0.270490 0.396585
vt 0.270490 0.396585
vt 0.245294 0.396585
vt 0.245294 0.396585
vt 0.245294 0.396585
vt 0.245294 0.396585
vt 0.211099 0.396585
vt 0.211099 0.396585
vt 0.211099 0.396585
vt 0.211099 0.396585
vt 0.211099 0.396585
vt 0.211099 0.396585
vt 0.211099 0.396585
vt 0.211099 0.396585
vt 0.211099 0.396585
vt 0.211099 0.396585
vt 0.211099 0.396585
vt 0.211099 0.396585
vt 0.211099 0.396585
vt 0.211099 0.396585
vt 0.211099 0.396585
vt 0.211099 0.396585
vt 0.243494 0.396585
vt 0.243494 0.396585
vt 0.243494 0.396585
vt 0.243494 0.396585
vt 0.258846 0.286963
vt 0.258846 0.286963
vt 0.258846 0.286963
vt 0.258846 0.286963
vt 0.422512 0.476522
vt 0.422512 0.476522
vt 0.422512 0.476522
vt 0.422512 0.476522
vt 0.258846 0.286963
vt 0.258846 0.286963
vt 0.258846 0.286963
vt 0.258846 0.286963
vt 0.203606 0.286963
vt 0.203606 0.286963
vt 0.203606 0.286963
vt 0.203606 0.286963
vt 0.230437 0.286963
vt 0.230437 0.286963
vt 0.230437 0.286963
vt 0.230437 0.286963
vt 0.230437 0.286963
vt 0.230437 0.286963
vt 0.230437 0.286963
vt 0.230437 0.286963
vt 0.327394 0.473419
vt 0.327394 0.473419
vt 0.327394 0.473419
vt 0.327394 0.473419
vt 0.355803 0.473419
vt 0.355803 0.473419
vt 0.355803 0.473419
vt 0.355803 0.473419
vt 0.327394 0.473419
vt 0.327394 0.473419
vt 0.327394 0.473419
vt 0.327394 0.473419
vt 0.355803 0.473419
vt 0.355803 0.473419
vt 0.355803 0.473419
vt 0.355803 0.473419
vt 0.355803 0.473419
vt 0.355803 0.473419
vt 0.355803 0.473419
vt 0.355803 0.473419
vt 0.422512 0.476522
vt 0.422512 0.476522
vt 0.422512 0.476522
vt 0.422512 0.476522
vt 0.355803 0.473419
vt 0.355803 0.473419
vt 0.355803 0.473419
vt 0.355803 0.473419
vt 0.203606 0.286963
vt 0.203606 0.286963
vt 0.203606 0.286963
vt 0.203606 0.286963
vt 0.327394 0.473419
vt 0.327394 0.473419
vt 0.327394 0.473419
vt 0.327394 0.473419
vt 0.327394 0.473419
vt 0.327394 0.473419
vt 0.327394 0.473419
vt 0.327394 0.473419
vt 0.258846 0.286963
vt 0.258846 0.286963
vt 0.258846 0.286963
vt 0.258846 0.286963
vt 0.230437 0.286963
vt 0.230437 0.286963
vt 0.230437 0.286963
vt 0.230437 0.286963
vt 0.258846 0.286963
vt 0.258846 0.286963
vt 0.258846 0.286963
vt 0.258846 0.286963
vt 0.230437 0.286963
vt 0.230437 0.286963
vt 0.230437 0.286963
vt 0.230437 0.286963
vt 0.258846 0.286963
vt 0.258846 0.286963
vt 0.258846 0.286963
vt 0.258846 0.286963
vt 0.422512 0.476522
vt 0.422512 0.476522
vt 0.422512 0.476522
vt 0.422512 0.476522
vt 0.258846 0.286963
vt 0.258846 0.286963
vt 0.258846 0.286963
vt 0.258846 0.286963
vt 0.203606 0.286963
vt 0.203606 0.286963
vt 0.203606 0.286963
vt 0.203606 0.286963
vt 0.230437 0.286963
vt 0.230437 0.286963
vt 0.230437 0.286963
vt 0.230437 0.286963
vt 0.230437 0.286963
vt 0.230437 0.286963
vt 0.230437 0.286963
vt 0.230437 0.286963
vt 0.327394 0.473419
vt 0.327394 0.473419
vt 0.327394 0.473419
vt 0.327394 0.473419
vt 0.355803 0.473419
vt 0.355803 0.473419
vt 0.355803 0.473419
vt 0.355803 0.473419
vt 0.327394 0.473419
vt 0.327394 0.473419
vt 0.327394 0.473419
vt 0.327394 0.473419
vt 0.355803 0.473419
vt 0.355803 0.473419
vt 0.355803 0.473419
vt 0.355803 0.473419
vn -0.229246 0.189170 0.954809
vn -0.229247 0.189170 0.954809
vn -0.229247 0.189170 0.954809
vn -0.229247 0.189170 0.954809
vn -0.009593 0.035781 -0.999314
vn -0.010798 0.041454 -0.999082
vn -0.021815 0.093316 -0.995398
vn -0.021815 0.093316 -0.995398
vn 0.000000 -0.998448 0.055688
vn 0.000000 -0.998448 0.055688
vn 0.000000 -0.998448 0.055688
vn 0.000000 -0.998448 0.055688
vn 0.957287 0.262547 0.121125
vn 0.957287 0.262547 0.121125
vn 0.968323 0.200064 0.149416
vn 0.968829 0.196339 0.151066
vn -0.990716 0.135739 -0.007571
vn -0.990716 0.135739 -0.007571
vn -0.990716 0.135739 -0.007571
vn -0.990716 0.135739 -0.007571
vn -0.406636 -0.037403 0.912824
vn -0.406636 -0.037403 0.912824
vn -0.406636 -0.037403 0.912824
vn -0.406636 -0.037403 0.912824
vn 0.968829 0.196339 0.151066
vn 0.968323 0.200064 0.149416
vn 0.973200 0.156547 0.168448
vn 0.973200 0.156547 0.168448
vn -0.999184 -0.040339 0.002250
vn -0.999184 -0.040339 0.002250
vn -0.999184 -0.040339 0.002250
vn -0.999184 -0.040339 0.002250
vn -0.114026 0.663051 -0.739839
vn -0.114026 0.663051 -0.739839
vn -0.114026 0.663051 -0.739839
vn -0.114026 0.663051 -0.739839
vn 0.614698 0.787401 -0.046332
vn 0.614698 0.787401 -0.046332
vn 0.614698 0.787401 -0.046332
vn 0.614698 0.787401 -0.046332
vn -0.194705 0.856840 0.477405
vn -0.194705 0.856840 0.477405
vn -0.194705 0.856840 0.477405
vn -0.194705 0.856840 0.477405
vn -0.673287 0.736113 0.069442
vn -0.673287 0.736113 0.069442
vn -0.673287 0.736113 0.069442
vn -0.673287 0.736113 0.069442
vn 0.005596 -0.152758 -0.988248
vn 0.005596 -0.152758 -0.988248
vn 0.005596 -0.152758 -0.988248
vn 0.005596 -0.152758 -0.988248
vn 0.777554 0.623211 -0.083765
vn 0.777555 0.623211 -0.083765
vn 0.777554 0.623211 -0.083765
vn 0.777554 0.623211 -0.083765
vn -0.015244 -0.051451 0.998559
vn -0.015244 -0.051451 0.998559
vn -0.015244 -0.051451 0.998559
vn -0.015244 -0.051451 0.998559
vn -0.965113 -0.120229 0.232597
vn -0.965113 -0.120229 0.232597
vn -0.965113 -0.120229 0.232597
vn -0.965113 -0.120229 0.232597
vn -0.010798 0.041454 -0.999082
vn -0.009593 0.035781 -0.999314
vn 0.002263 -0.020004 -0.999797
vn 0.002263 -0.020004 -0.999797
vn 0.982423 0.156097 0.102366
vn 0.982423 0.156097 0.102366
vn 0.978781 0.156629 0.132122
vn 0.978806 0.156626 0.131940
vn 0.061678 0.998075 -0.006523
vn 0.061678 0.998075 -0.006523
vn 0.061678 0.998075 -0.006523
vn 0.061678 0.998075 -0.006523
vn -0.971487 0.199138 -0.128673
vn -0.971474 0.199134 -0.128781
vn -0.972515 0.199517 -0.120029
vn -0.972515 0.199517 -0.120029
vn 0.034422 -0.999235 0.018565
vn 0.034422 -0.999235 0.018565
vn 0.034422 -0.999235 0.018565
vn 0.034422 -0.999235 0.018565
vn 0.343848 0.006857 -0.939000
vn 0.343848 0.006857 -0.939000
vn 0.376568 0.003828 -0.926381
vn 0.378684 0.003631 -0.925519
vn -0.143066 0.090671 0.985551
vn -0.143066 0.090671 0.985551
vn -0.130489 0.090738 0.987289
vn -0.130431 0.090739 0.987296
vn -0.130431 0.090739 0.987296
vn -0.130489 0.090738 0.987289
vn -0.125647 0.090760 0.987915
vn -0.125647 0.090760 0.987915
vn -0.971185 0.199029 -0.131101
vn -0.971185 0.199029 -0.131101
vn -0.971474 0.199134 -0.128781
vn -0.971487 0.199138 -0.128673
vn 0.378684 0.003631 -0.925519
vn 0.376568 0.003828 -0.926381
vn 0.389030 0.002662 -0.921221
vn 0.389030 0.002662 -0.921221
vn 0.978806 0.156626 0.131940
vn 0.978781 0.156629 0.132122
vn 0.977386 0.156774 0.141912
vn 0.977386 0.156774 0.141912
vn -0.980303 0.195758 0.026159
vn -0.980306 0.195777 0.025933
vn -0.980338 0.196107 0.021889
vn -0.980338 0.196107 0.021889
vn -0.032491 0.997656 0.060223
vn -0.032491 0.997656 0.060223
vn -0.032491 0.997656 0.060223
vn -0.032491 0.997656 0.060223
vn 0.999343 0.013422 -0.033682
vn 0.999342 0.013422 -0.033682
vn 0.999401 0.012968 -0.032076
vn 0.999425 0.012783 -0.031420
vn -0.153174 -0.987036 -0.047940
vn -0.153174 -0.987036 -0.047940
vn -0.153174 -0.987036 -0.047940
vn -0.153174 -0.987036 -0.047940
vn 0.129003 -0.060277 0.989811
vn 0.130301 -0.060372 0.989635
vn 0.097383 -0.057934 0.993559
vn 0.097383 -0.057934 0.993559
vn -0.233604 0.327460 -0.915532
vn -0.231888 0.327439 -0.915976
vn -0.214140 0.327169 -0.920383
vn -0.214140 0.327169 -0.920383
vn -0.980210 0.195192 0.032989
vn -0.980210 0.195192 0.032989
vn -0.980306 0.195777 0.025933
vn -0.980303 0.195758 0.026159
vn 0.186624 -0.064411 0.980318
vn 0.186624 -0.064411 0.980318
vn 0.130301 -0.060372 0.989635
vn 0.129003 -0.060277 0.989811
vn 0.999425 0.012783 -0.031420
vn 0.999401 0.012968 -0.032076
vn 0.999525 0.011935 -0.028419
vn 0.999525 0.011935 -0.028419
vn -0.263874 0.327651 -0.907202
vn -0.263874 0.327651 -0.907202
vn -0.231888 0.327439 -0.915976
vn -0.233604 0.327460 -0.915532
vn 0.995096 0.012013 0.098184
vn 0.995096 0.012013 0.098184
vn 0.997319 0.013723 0.071885
vn 0.997507 0.013898 0.069192
vn 0.242850 0.969626 -0.029159
vn 0.242850 0.969626 -0.029159
vn 0.242850 0.969626 -0.029159
vn 0.242850 0.969626 -0.029159
vn -0.991965 0.096533 -0.081770
vn -0.992000 0.096538 -0.081339
vn -0.993072 0.096688 -0.066780
vn -0.993072 0.096688 -0.066780
vn 0.098917 -0.994788 0.024758
vn 0.098917 -0.994788 0.024758
vn 0.098917 -0.994788 0.024758
vn 0.098917 -0.994788 0.024758
vn 0.136698 0.035030 -0.989993
vn 0.136698 0.035030 -0.989993
vn 0.167418 0.033680 -0.985310
vn 0.167326 0.033685 -0.985326
vn -0.187876 0.005340 0.982178
vn -0.187876 0.005340 0.982178
vn -0.193618 0.005707 0.981060
vn -0.193481 0.005698 0.981088
vn -0.193481 0.005698 0.981088
vn -0.193618 0.005707 0.981060
vn -0.197735 0.005970 0.980237
vn -0.197735 0.005970 0.980237
vn -0.991069 0.096413 -0.092121
vn -0.991069 0.096413 -0.092121
vn -0.992000 0.096538 -0.081339
vn -0.991965 0.096533 -0.081770
vn 0.167326 0.033685 -0.985326
vn 0.167418 0.033680 -0.985310
vn 0.194110 0.032475 -0.980442
vn 0.194110 0.032475 -0.980442
vn 0.997507 0.013898 0.069192
vn 0.997319 0.013723 0.071885
vn 0.998716 0.015245 0.048315
vn 0.998716 0.015245 0.048315
s off
f 1/1/1 2/2/2 4/3/3 3/4/4
f 5/5/5 6/6/6 8/7/7 7/8/8
f 17/9/9 18/10/10 19/11/11 20/12/12
f 2/13/13 8/14/14 6/15/15 4/16/16
f 7/17/17 1/18/18 3/19/19 5/20/20
f 3/21/21 4/22/22 10/23/23 9/24/24
f 4/25/25 6/26/26 11/27/27 10/28/28
f 5/29/29 3/30/30 9/31/31 12/32/32
f 7/33/33 8/34/34 14/35/35 13/36/36
f 8/37/37 2/38/38 15/39/39 14/40/40
f 2/41/41 1/42/42 16/43/43 15/44/44
f 1/45/45 7/46/46 13/47/47 16/48/48
f 13/49/49 14/50/50 18/51/51 17/52/52
f 14/53/53 15/54/54 19/55/55 18/56/56
f 15/57/57 16/58/58 20/59/59 19/60/60
f 16/61/61 13/62/62 17/63/63 20/64/64
f 6/65/65 5/66/66 12/67/67 11/68/68
f 21/69/69 22/70/70 32/71/71 29/72/72
f 23/73/73 24/74/74 26/75/75 25/76/76
f 30/77/77 31/78/78 28/79/79 27/80/80
f 27/81/81 28/82/82 22/83/83 21/84/84
f 22/85/85 28/86/86 31/87/87 32/88/88
f 27/89/89 21/90/90 29/91/91 30/92/92
f 30/93/93 29/94/94 23/95/95 25/96/96
f 25/97/97 26/98/98 31/99/99 30/100/100
f 32/101/101 31/102/102 26/103/103 24/104/104
f 29/105/105 32/106/106 24/107/107 23/108/108
f 41/109/109 42/110/110 36/111/111 35/112/112
f 35/113/113 36/114/114 38/115/115 37/116/116
f 37/117/117 38/118/118 43/119/119 44/120/120
f 39/121/121 40/122/122 34/123/123 33/124/124
f 42/125/125 43/126/126 38/127/127 36/128/128
f 44/129/129 41/130/130 35/131/131 37/132/132
f 33/133/133 34/134/134 42/135/135 41/136/136
f 34/137/137 40/138/138 43/139/139 42/140/140
f 44/141/141 43/142/142 40/143/143 39/144/144
f 39/145/145 33/146/146 41/147/147 44/148/148
f 45/149/149 46/150/150 56/151/151 53/152/152
f 47/153/153 48/154/154 50/155/155 49/156/156
f 54/157/157 55/158/158 52/159/159 51/160/160
f 51/161/161 52/162/162 46/163/163 45/164/164
f 46/165/165 52/166/166 55/167/167 56/168/168
f 51/169/169 45/170/170 53/171/171 54/172/172
f 54/173/173 53/174/174 47/175/175 49/176/176
f 49/177/177 50/178/178 55/179/179 54/180/180
f 56/181/181 55/182/182 50/183/183 48/184/184
f 53/185/185 56/186/186 48/187/187 47/188/188
