# This file uses meters as units for non-parametric coordinates.

v 0.408540 0.256160 -0.325027
v -0.379210 0.256160 -0.325027
v 0.408540 2.488788 -0.325027
v -0.379210 2.488788 -0.325027
v 0.408540 2.488788 0.420754
v -0.379210 2.488788 0.420754
v 0.408540 0.256160 0.420754
v -0.379210 0.256160 0.420754
v 0.159211 2.488788 -0.088981
v -0.129882 2.488788 -0.088981
v -0.129882 2.488788 0.184708
v 0.159211 2.488788 0.184708
v -0.024154 8.048364 -1.328029
v -0.312697 8.038391 -1.342700
v -0.328536 8.107917 -1.078464
v -0.039992 8.117889 -1.063792
v -0.320075 7.706952 -0.972453
v -0.304236 7.637425 -1.236693
v -0.015685 7.647398 -1.222018
v -0.031524 7.716924 -0.957782
v -0.311149 7.284257 -0.860698
v -0.295302 7.214731 -1.124938
v -0.006759 7.224703 -1.110267
v -0.022597 7.294230 -0.846026
v -0.091826 7.577107 -0.935546
v -0.252845 7.571543 -0.943736
v -0.249617 7.418707 -0.903327
v -0.088599 7.424272 -0.895141
v -0.219649 8.138186 1.196858
v -0.380668 8.132621 1.188672
v -0.377440 7.979785 1.229081
v -0.216422 7.985350 1.237267
v -0.274375 8.378399 2.109803
v -0.435386 8.372834 2.101613
v -0.432158 8.219998 2.142022
v -0.271148 8.225563 2.150208
v -0.567290 7.973224 1.219426
v -0.570517 8.126060 1.179017
v -0.622016 8.213437 2.132367
v -0.625243 8.366273 2.091962
v -0.026572 7.991912 1.246922
v -0.029799 8.144748 1.206513
v -0.084517 8.384961 2.119454
v -0.081290 8.232125 2.159863
v 0.569543 0.256160 0.573182
v -0.540213 0.256160 0.573182
v -0.540213 -0.002672 0.573182
v 0.569543 -0.002672 0.573182
v -0.540213 0.256160 -0.477454
v -0.540213 -0.002672 -0.477454
v 0.569543 0.256160 -0.477454
v 0.569543 -0.002672 -0.477454
v -0.240592 8.011642 1.338643
v -0.365531 8.007324 1.332291
v -0.283057 8.198025 2.046998
v -0.407988 8.193707 2.040647
v -0.555297 8.188616 2.033158
v -0.512832 8.002233 1.324799
v -0.093291 8.016733 1.346135
v -0.135749 8.203115 2.054490
v -0.207625 3.062911 -0.027255
v -0.223464 3.132437 0.236981
v 0.065080 3.142410 0.251653
v 0.080918 3.072884 -0.012584
v 0.408540 0.539056 0.420754
v 0.408540 1.882038 0.420754
v -0.005484 1.242042 0.420754
v 0.408540 1.135786 -0.040431
v 0.182481 1.297498 0.273839
vt 0.264944 0.066570
vt 0.264944 0.066570
vt 0.264944 0.066570
vt 0.264944 0.066570
vt 0.327671 0.066570
vt 0.327671 0.066570
vt 0.327671 0.066570
vt 0.327671 0.066570
vt 0.264944 0.066570
vt 0.264944 0.066570
vt 0.264944 0.066570
vt 0.264944 0.066570
vt 0.295503 0.066570
vt 0.295503 0.066570
vt 0.295503 0.066570
vt 0.295503 0.066570
vt 0.295503 0.066570
vt 0.295503 0.066570
vt 0.295503 0.066570
vt 0.295503 0.066570
vt 0.327671 0.066570
vt 0.327671 0.066570
vt 0.327671 0.066570
vt 0.327671 0.066570
vt 0.327671 0.066570
vt 0.327671 0.066570
vt 0.327671 0.066570
vt 0.327671 0.066570
vt 0.264944 0.066570
vt 0.264944 0.066570
vt 0.264944 0.066570
vt 0.264944 0.066570
vt 0.264944 0.066570
vt 0.264944 0.066570
vt 0.264944 0.066570
vt 0.264944 0.066570
vt 0.295503 0.066570
vt 0.295503 0.066570
vt 0.295503 0.066570
vt 0.295503 0.066570
vt 0.295503 0.066570
vt 0.295503 0.066570
vt 0.295503 0.066570
vt 0.295503 0.066570
vt 0.264944 0.066570
vt 0.264944 0.066570
vt 0.264944 0.066570
vt 0.264944 0.066570
vt 0.264944 0.066570
vt 0.264944 0.066570
vt 0.264944 0.066570
vt 0.264944 0.066570
vt 0.264944 0.066570
vt 0.264944 0.066570
vt 0.264944 0.066570
vt 0.264944 0.066570
vt 0.295503 0.066570
vt 0.295503 0.066570
vt 0.295503 0.066570
vt 0.295503 0.066570
vt 0.295503 0.066570
vt 0.295503 0.066570
vt 0.295503 0.066570
vt 0.295503 0.066570
vt 0.327671 0.066570
vt 0.327671 0.066570
vt 0.327671 0.066570
vt 0.327671 0.066570
vt 0.327671 0.066570
vt 0.327671 0.066570
vt 0.327671 0.066570
vt 0.327671 0.066570
vt 0.327671 0.066570
vt 0.327671 0.066570
vt 0.295503 0.066570
vt 0.295503 0.066570
vt 0.295503 0.066570
vt 0.295503 0.066570
vt 0.295503 0.066570
vt 0.295503 0.066570
vt 0.295503 0.066570
vt 0.295503 0.066570
vt 0.233632 0.066570
vt 0.233632 0.066570
vt 0.233632 0.066570
vt 0.233632 0.066570
vt 0.233632 0.066570
vt 0.233632 0.066570
vt 0.233632 0.066570
vt 0.233632 0.066570
vt 0.233632 0.066570
vt 0.233632 0.066570
vt 0.295503 0.066570
vt 0.295503 0.066570
vt 0.295503 0.066570
vt 0.295503 0.066570
vt 0.295503 0.066570
vt 0.295503 0.066570
vt 0.295503 0.066570
vt 0.295503 0.066570
vt 0.264944 0.066570
vt 0.264944 0.066570
vt 0.264944 0.066570
vt 0.264944 0.066570
vt 0.264944 0.066570
vt 0.264944 0.066570
vt 0.264944 0.066570
vt 0.264944 0.066570
vt 0.264944 0.066570
vt 0.264944 0.066570
vt 0.264944 0.066570
vt 0.264944 0.066570
vt 0.264944 0.066570
vt 0.264944 0.066570
vt 0.264944 0.066570
vt 0.264944 0.066570
vt 0.264944 0.066570
vt 0.264944 0.066570
vt 0.264944 0.066570
vt 0.264944 0.066570
vt 0.295503 0.066570
vt 0.295503 0.066570
vt 0.295503 0.066570
vt 0.295503 0.066570
vt 0.264944 0.066570
vt 0.264944 0.066570
vt 0.264944 0.066570
vt 0.264944 0.066570
vt 0.295503 0.066570
vt 0.295503 0.066570
vt 0.295503 0.066570
vt 0.295503 0.066570
vt 0.327671 0.066570
vt 0.327671 0.066570
vt 0.327671 0.066570
vt 0.327671 0.066570
vt 0.327671 0.066570
vt 0.327671 0.066570
vt 0.327671 0.066570
vt 0.327671 0.066570
vt 0.327671 0.066570
vt 0.327671 0.066570
vt 0.327671 0.066570
vt 0.327671 0.066570
vt 0.327671 0.066570
vt 0.327671 0.066570
vt 0.327671 0.066570
vt 0.327671 0.066570
vt 0.327671 0.066570
vt 0.327671 0.066570
vt 0.327671 0.066570
vt 0.327671 0.066570
vt 0.327671 0.066570
vt 0.327671 0.066570
vt 0.327671 0.066570
vt 0.327671 0.066570
vt 0.327671 0.066570
vt 0.327671 0.066570
vt 0.327671 0.066570
vt 0.327671 0.066570
vt 0.327671 0.066570
vt 0.327671 0.066570
vt 0.264944 0.066570
vt 0.264944 0.066570
vt 0.264944 0.066570
vt 0.264944 0.066570
vt 0.264944 0.066570
vt 0.264944 0.066570
vt 0.264944 0.066570
vt 0.264944 0.066570
vt 0.264944 0.066570
vt 0.264944 0.066570
vt 0.264944 0.066570
vt 0.264944 0.066570
vt 0.264944 0.066570
vt 0.264944 0.066570
vt 0.264944 0.066570
vt 0.264944 0.066570
vt 0.264944 0.066570
vt 0.264944 0.066570
vt 0.264944 0.066570
vt 0.264944 0.066570
vt 0.295503 0.066570
vt 0.295503 0.066570
vt 0.295503 0.066570
vt 0.295503 0.066570
vt 0.295503 0.066570
vt 0.295503 0.066570
vt 0.295503 0.066570
vt 0.295503 0.066570
vt 0.233632 0.066570
vt 0.233632 0.066570
vt 0.233632 0.066570
vt 0.233632 0.066570
vt 0.233632 0.066570
vt 0.233632 0.066570
vt 0.233632 0.066570
vt 0.233632 0.066570
vt 0.172974 0.065125
vt 0.172974 0.065125
vt 0.172974 0.065125
vt 0.172974 0.065125
vt 0.172974 0.065125
vt 0.172974 0.065125
vt 0.172974 0.065125
vt 0.172974 0.065125
vt 0.233632 0.066570
vt 0.233632 0.066570
vt 0.233632 0.066570
vt 0.233632 0.066570
vt 0.233632 0.066570
vt 0.233632 0.066570
vt 0.233632 0.066570
vt 0.233632 0.066570
vt 0.233632 0.066570
vt 0.233632 0.066570
vt 0.233632 0.066570
vt 0.233632 0.066570
vt 0.233632 0.066570
vt 0.233632 0.066570
vt 0.233632 0.066570
vt 0.233632 0.066570
vt 0.233632 0.066570
vt 0.233632 0.066570
vt 0.264944 0.066570
vt 0.295503 0.066570
vt 0.295503 0.066570
vt 0.264944 0.066570
vt 0.264944 0.066570
vt 0.295503 0.066570
vt 0.264944 0.066570
vt 0.295503 0.066570
vt 0.264944 0.066570
vt 0.295503 0.066570
vt 0.138132 0.066570
vt 0.295503 0.066570
vt 0.171009 0.066570
vt 0.168691 0.066570
vt 0.138132 0.066570
vt 0.168691 0.066570
vt 0.201568 0.066570
vt 0.171009 0.066570
vt 0.264944 0.066570
vt 0.138132 0.066570
vt 0.295503 0.066570
vt 0.201568 0.066570
vt 0.264944 0.066570
vt 0.168691 0.066570
vt 0.171009 0.066570
vt 0.201568 0.066570
vn 0.000000 0.000000 -1.000000
vn 0.000000 0.000000 -1.000000
vn 0.000000 0.000000 -1.000000
vn 0.000000 0.000000 -1.000000
vn -0.020413 0.966580 -0.255552
vn -0.020413 0.966580 -0.255552
vn -0.020413 0.966580 -0.255552
vn -0.020413 0.966580 -0.255552
vn -0.000000 0.000000 1.000000
vn -0.000000 0.000000 1.000000
vn -0.000000 0.000000 1.000000
vn -0.000000 0.000000 1.000000
vn -0.000000 0.000000 1.000000
vn -0.000000 0.000000 1.000000
vn -0.000000 0.000000 1.000000
vn -1.000000 0.000000 0.000000
vn -1.000000 0.000000 0.000000
vn -1.000000 0.000000 0.000000
vn -1.000000 0.000000 0.000000
vn 1.000000 0.000000 0.000000
vn 1.000000 0.000000 0.000000
vn 1.000000 0.000000 0.000000
vn 1.000000 0.000000 0.000000
vn 1.000000 0.000000 0.000000
vn 1.000000 0.000000 0.000000
vn 1.000000 0.000000 0.000000
vn 0.000000 1.000000 0.000000
vn 0.000000 1.000000 0.000000
vn 0.000000 1.000000 0.000000
vn 0.000000 1.000000 0.000000
vn 0.000000 1.000000 0.000000
vn 0.000000 1.000000 0.000000
vn 0.000000 1.000000 0.000000
vn 0.000000 1.000000 0.000000
vn 0.000000 1.000000 0.000000
vn 0.000000 1.000000 0.000000
vn 0.000000 1.000000 0.000000
vn 0.000000 1.000000 0.000000
vn 0.000000 1.000000 0.000000
vn 0.000000 1.000000 0.000000
vn 0.000000 1.000000 0.000000
vn 0.000000 1.000000 0.000000
vn 0.057870 -0.254033 -0.965463
vn 0.057870 -0.254033 -0.965463
vn 0.057871 -0.254032 -0.965463
vn 0.057871 -0.254032 -0.965463
vn -0.997747 -0.049736 -0.045018
vn -0.997898 -0.044692 -0.046922
vn -0.998115 -0.034501 -0.050764
vn -0.998115 -0.034501 -0.050764
vn -0.057869 0.254032 0.965463
vn -0.057869 0.254032 0.965463
vn -0.057897 0.255354 0.965113
vn -0.057897 0.255354 0.965113
vn 0.997906 0.044494 0.046944
vn 0.997748 0.049815 0.044915
vn 0.998115 0.034496 0.050751
vn 0.998115 0.034496 0.050751
vn -0.998115 -0.034495 -0.050759
vn -0.998115 -0.034495 -0.050759
vn -0.998116 -0.034481 -0.050755
vn -0.998116 -0.034481 -0.050755
vn 0.057875 -0.254030 -0.965463
vn 0.057875 -0.254030 -0.965463
vn 0.057875 -0.254030 -0.965463
vn 0.057875 -0.254030 -0.965463
vn 0.998115 0.034497 0.050751
vn 0.998115 0.034497 0.050751
vn 0.998115 0.034499 0.050751
vn 0.998115 0.034499 0.050751
vn -0.057619 0.242304 0.968488
vn -0.057619 0.242304 0.968488
vn -0.057869 0.254035 0.965462
vn -0.057869 0.254035 0.965462
vn -0.998115 -0.034501 -0.050764
vn -0.998115 -0.034501 -0.050764
vn -0.998115 -0.034495 -0.050759
vn -0.998115 -0.034495 -0.050759
vn 0.057871 -0.254032 -0.965463
vn 0.057871 -0.254032 -0.965463
vn 0.057875 -0.254030 -0.965463
vn 0.057875 -0.254030 -0.965463
vn 0.998115 0.034496 0.050751
vn 0.998115 0.034496 0.050751
vn 0.998115 0.034497 0.050751
vn 0.998115 0.034497 0.050751
vn -0.057619 0.242304 0.968488
vn -0.057619 0.242304 0.968488
vn -0.056170 0.180383 0.981991
vn -0.056170 0.180383 0.981991
vn 0.105721 0.256261 0.960809
vn 0.105721 0.256261 0.960809
vn 0.105721 0.256261 0.960809
vn 0.105721 0.256261 0.960809
vn -0.219904 0.245001 0.944255
vn -0.219904 0.245001 0.944255
vn -0.219904 0.245001 0.944255
vn -0.219904 0.245001 0.944254
vn -0.057897 0.255354 0.965113
vn -0.057897 0.255354 0.965113
vn -0.059242 0.326241 0.943428
vn -0.059242 0.326241 0.943428
vn -0.020409 0.966581 -0.255549
vn -0.020409 0.966581 -0.255549
vn -0.020410 0.966581 -0.255550
vn -0.020411 0.966581 -0.255550
vn -0.998115 -0.034495 -0.050754
vn -0.998115 -0.034495 -0.050754
vn -0.998115 -0.034495 -0.050754
vn -0.998115 -0.034495 -0.050754
vn 0.998115 0.034494 0.050754
vn 0.998115 0.034494 0.050754
vn 0.998115 0.034494 0.050754
vn 0.998115 0.034494 0.050754
vn 0.020413 -0.966580 0.255550
vn 0.020413 -0.966580 0.255550
vn 0.020413 -0.966580 0.255550
vn 0.020413 -0.966580 0.255550
vn -0.020411 0.966581 -0.255550
vn -0.020410 0.966581 -0.255550
vn -0.020410 0.966580 -0.255550
vn -0.020413 0.966580 -0.255550
vn -0.998115 -0.034495 -0.050755
vn -0.998115 -0.034495 -0.050755
vn -0.998115 -0.034495 -0.050755
vn -0.998115 -0.034495 -0.050755
vn 0.998116 0.034493 0.050747
vn 0.998116 0.034493 0.050747
vn 0.998116 0.034493 0.050747
vn 0.998116 0.034493 0.050747
vn 0.020412 -0.966580 0.255551
vn 0.020412 -0.966580 0.255551
vn 0.020413 -0.966580 0.255550
vn 0.020413 -0.966580 0.255551
vn 0.020412 -0.966580 0.255550
vn 0.020412 -0.966580 0.255551
vn 0.020410 -0.966580 0.255551
vn 0.020410 -0.966580 0.255551
vn 0.057879 -0.254040 -0.965460
vn 0.057879 -0.254040 -0.965460
vn 0.057879 -0.254040 -0.965460
vn 0.057879 -0.254040 -0.965460
vn -0.057872 0.254030 0.965464
vn -0.057872 0.254030 0.965463
vn -0.057867 0.254029 0.965464
vn -0.057867 0.254029 0.965464
vn -0.020410 0.966580 -0.255550
vn -0.020410 0.966581 -0.255550
vn -0.020411 0.966580 -0.255550
vn -0.020411 0.966580 -0.255550
vn 0.057880 -0.254041 -0.965460
vn 0.057880 -0.254041 -0.965460
vn 0.057880 -0.254041 -0.965460
vn 0.057880 -0.254041 -0.965460
vn -0.020411 0.966581 -0.255550
vn -0.020413 0.966580 -0.255550
vn -0.020416 0.966580 -0.255550
vn -0.020416 0.966580 -0.255550
vn -0.057873 0.254030 0.965463
vn -0.057873 0.254030 0.965463
vn -0.057868 0.254030 0.965464
vn -0.057868 0.254030 0.965464
vn -0.057873 0.254030 0.965463
vn -0.057873 0.254030 0.965463
vn -0.057872 0.254030 0.965463
vn -0.057872 0.254030 0.965464
vn 0.000000 0.000000 1.000000
vn 0.000000 0.000000 1.000000
vn 0.000000 0.000000 1.000000
vn 0.000000 0.000000 1.000000
vn -1.000000 0.000000 0.000000
vn -1.000000 0.000000 0.000000
vn -1.000000 0.000000 0.000000
vn -1.000000 0.000000 0.000000
vn 0.000000 0.000000 -1.000000
vn 0.000000 0.000000 -1.000000
vn 0.000000 0.000000 -1.000000
vn 0.000000 0.000000 -1.000000
vn 1.000000 0.000000 0.000000
vn 1.000000 0.000000 0.000000
vn 1.000000 0.000000 0.000000
vn 1.000000 0.000000 0.000000
vn 0.000000 1.000000 0.000000
vn 0.000000 1.000000 0.000000
vn 0.000000 1.000000 0.000000
vn 0.000000 1.000000 0.000000
vn 0.000000 1.000000 0.000000
vn 0.000000 1.000000 -0.000000
vn 0.000000 1.000000 -0.000000
vn 0.000000 1.000000 0.000000
vn 0.000000 1.000000 -0.000000
vn 0.000000 1.000000 -0.000000
vn 0.000000 1.000000 -0.000000
vn 0.000000 1.000000 -0.000000
vn 0.000000 1.000000 -0.000000
vn 0.000000 1.000000 0.000000
vn 0.000000 1.000000 0.000000
vn 0.000000 1.000000 -0.000000
vn 0.020413 -0.966580 0.255550
vn 0.020413 -0.966580 0.255550
vn 0.020412 -0.966580 0.255551
vn 0.020412 -0.966580 0.255551
vn 0.020412 -0.966582 0.255543
vn 0.020412 -0.966582 0.255544
vn 0.020412 -0.966580 0.255551
vn 0.020412 -0.966580 0.255550
vn 0.020412 -0.966582 0.255544
vn 0.020406 -0.966581 0.255550
vn 0.020410 -0.966580 0.255551
vn 0.020412 -0.966580 0.255551
vn 0.020406 -0.966581 0.255550
vn 0.020406 -0.966580 0.255550
vn 0.020410 -0.966580 0.255551
vn 0.020410 -0.966580 0.255551
vn 0.020406 -0.966580 0.255550
vn 0.020413 -0.966580 0.255550
vn 0.020412 -0.966580 0.255551
vn 0.020410 -0.966580 0.255551
vn 0.020413 -0.966580 0.255550
vn 0.020415 -0.966581 0.255548
vn 0.020413 -0.966580 0.255550
vn 0.020412 -0.966580 0.255551
vn 0.020415 -0.966581 0.255548
vn 0.020414 -0.966581 0.255548
vn 0.020413 -0.966580 0.255551
vn 0.020413 -0.966580 0.255550
vn 0.020414 -0.966581 0.255548
vn 0.020412 -0.966582 0.255543
vn 0.020412 -0.966580 0.255550
vn 0.020413 -0.966580 0.255551
vn -0.990330 -0.138271 -0.011288
vn -0.990330 -0.138271 -0.011288
vn -0.997898 -0.044692 -0.046922
vn -0.997747 -0.049736 -0.045018
vn -0.023639 -0.094878 0.995208
vn -0.023639 -0.094878 0.995208
vn -0.023639 -0.094878 0.995208
vn -0.023639 -0.094878 0.995208
vn 0.990551 0.136660 0.011502
vn 0.990551 0.136660 0.011502
vn 0.997748 0.049815 0.044915
vn 0.997906 0.044494 0.046944
vn 0.023107 0.121452 -0.992328
vn 0.023107 0.121452 -0.992328
vn 0.023107 0.121452 -0.992328
vn 0.023107 0.121452 -0.992328
vn 0.526897 0.310317 0.791254
vn 0.526897 0.310317 0.791254
vn 0.526897 0.310317 0.791254
vn 0.838277 0.333423 0.431417
vn 0.838277 0.333423 0.431417
vn 0.838277 0.333423 0.431417
vn 0.629976 -0.409484 0.659889
vn 0.627791 -0.409205 0.662141
vn 0.629429 -0.409415 0.660453
vn 0.629429 -0.409415 0.660453
vn 0.633701 -0.409952 0.656020
vn 0.629976 -0.409484 0.659889
s off
f 1/1/1 2/2/2 4/3/3 3/4/4
f 13/5/5 14/6/6 15/7/7 16/8/8
f 5/9/9 6/10/10 8/11/11 7/12/12 65/233/13 67/243/14 66/247/15
f 2/13/16 8/14/17 6/15/18 4/16/19
f 7/17/20 1/18/21 3/19/22 5/20/23 66/236/24 68/245/25 65/234/26
f 3/21/27 4/161/28 10/159/29 9/24/30
f 4/22/31 6/160/32 11/157/33 10/23/34
f 6/25/35 5/158/36 12/156/37 11/26/38
f 5/27/39 3/162/40 9/155/41 12/28/42
f 64/231/43 61/225/44 22/179/45 23/180/46
f 61/226/47 62/227/48 21/39/49 22/188/50
f 62/228/51 63/229/52 24/170/53 21/173/54
f 63/230/55 64/232/56 23/59/57 24/184/58
f 18/42/59 17/190/60 15/43/61 14/44/62
f 19/34/63 18/182/64 14/35/65 13/36/66
f 20/62/67 19/185/68 13/63/69 16/64/70
f 17/175/71 20/177/72 16/55/73 15/56/74
f 22/40/75 21/189/76 17/41/77 18/187/78
f 23/32/79 22/31/80 18/33/81 19/181/82
f 24/60/83 23/186/84 19/61/85 20/183/86
f 20/51/87 17/176/88 26/172/89 25/52/90
f 17/53/91 21/174/92 27/168/93 26/54/94
f 24/47/95 20/178/96 25/169/97 28/49/98
f 21/48/99 24/171/100 28/167/101 27/50/102
f 25/65/103 26/66/104 30/67/105 29/143/106
f 26/75/107 27/76/108 31/77/109 30/78/110
f 28/79/111 25/80/112 29/81/113 32/82/114
f 27/83/115 28/84/116 32/223/117 31/221/118
f 29/142/119 30/145/120 34/144/121 33/70/122
f 38/93/123 37/94/124 39/95/125 40/96/126
f 41/97/127 42/98/128 43/99/129 44/100/130
f 54/199/131 53/200/132 59/201/133 60/202/134 55/203/135 56/204/136 57/205/137 58/206/138
f 30/101/139 31/102/140 37/103/141 38/104/142
f 35/105/143 34/165/144 40/107/145 39/108/146
f 34/69/147 30/146/148 38/71/149 40/72/150
f 32/113/151 29/114/152 42/115/153 41/116/154
f 29/68/155 33/141/156 43/73/157 42/74/158
f 33/110/159 36/163/160 44/111/161 43/112/162
f 36/109/163 33/164/164 34/106/165 35/166/166
f 45/117/167 46/118/168 47/119/169 48/120/170
f 46/121/171 49/122/172 50/123/173 47/124/174
f 49/125/175 51/126/176 52/127/177 50/128/178
f 51/129/179 45/130/180 48/131/181 52/132/182
f 7/133/183 8/153/184 46/151/185 45/136/186
f 8/134/187 2/152/188 49/149/189 46/135/190
f 2/137/191 1/150/192 51/148/193 49/138/194
f 1/139/195 7/154/196 45/147/197 51/140/198
f 31/86/199 32/224/200 53/211/201 54/191/202
f 36/87/203 35/219/204 56/217/205 55/193/206
f 35/88/207 39/218/208 57/215/209 56/194/210
f 39/91/211 37/216/212 58/214/213 57/195/214
f 37/92/215 31/222/216 54/213/217 58/196/218
f 32/85/219 41/212/220 59/209/221 53/192/222
f 41/89/223 44/210/224 60/208/225 59/197/226
f 44/90/227 36/220/228 55/207/229 60/198/230
f 10/37/231 11/38/232 62/227/233 61/226/234
f 11/45/235 12/46/236 63/229/237 62/228/238
f 12/57/239 9/58/240 64/232/241 63/230/242
f 9/29/243 10/30/244 61/225/245 64/231/246
f 69/242/247 67/237/248 65/249/249
f 65/250/250 68/246/251 69/241/252
f 69/240/253 68/238/254 66/248/255
f 66/235/256 67/244/257 69/239/258
