# This file uses meters as units for non-parametric coordinates.

v -0.078950 0.305003 0.668889
v 0.105569 0.305003 0.668889
v -0.078950 0.489522 0.668889
v 0.105569 0.489522 0.668889
v -0.078950 0.489522 0.614466
v 0.105569 0.489522 0.614466
v -0.078950 0.305003 0.614466
v 0.105569 0.305003 0.614466
v -1.296238 0.000000 0.616744
v 1.296238 0.000000 0.616744
v -1.296238 0.545650 0.616744
v 1.296238 0.545650 0.616744
v -1.296238 0.545650 -0.668888
v 1.296238 0.545650 -0.668887
v -1.296238 0.000000 -0.668888
v 1.296238 0.000000 -0.668887
v -0.536854 0.545650 0.616748
v -0.536853 0.545650 -0.668885
v -0.700106 0.545650 0.616743
v -0.700107 0.545650 -0.668889
v 0.531440 0.545650 0.616744
v 0.531440 0.545650 -0.668887
v 0.707087 0.545650 0.616744
v 0.707087 0.545650 -0.668887
v -0.700106 0.631223 0.616743
v -0.700107 0.631223 -0.668889
v -0.536854 0.631223 0.616748
v -0.536853 0.631223 -0.668885
v 0.531440 0.631223 0.616744
v 0.531440 0.631223 -0.668887
v 0.707087 0.631223 0.616744
v 0.707087 0.631223 -0.668887
v -1.296238 0.377562 0.616744
v -1.296238 0.377562 -0.668888
v 1.296238 0.377562 0.616744
v 1.296238 0.377562 -0.668887
v -1.296238 0.430493 -0.668888
v -1.296238 0.430493 0.616744
v 1.296238 0.430493 -0.668887
v 1.296238 0.430493 0.616744
vt 0.330496 0.061306
vt 0.363883 0.061306
vt 0.395851 0.061306
vt 0.326732 0.061306
vt 0.395851 0.061306
vt 0.395851 0.061306
vt 0.395851 0.061306
vt 0.395851 0.061306
vt 0.326732 0.061306
vt 0.326732 0.061306
vt 0.330496 0.061306
vt 0.330496 0.061306
vt 0.395851 0.061306
vt 0.395851 0.061306
vt 0.363883 0.061306
vt 0.395851 0.061306
vt 0.326732 0.061306
vt 0.363883 0.061306
vt 0.363883 0.061306
vt 0.330496 0.061306
vt 0.242379 0.398427
vt 0.242379 0.398427
vt 0.242379 0.398427
vt 0.242379 0.398427
vt 0.335271 0.398427
vt 0.335271 0.398427
vt 0.335271 0.398427
vt 0.335271 0.398427
vt 0.242379 0.398427
vt 0.242379 0.398427
vt 0.242379 0.398427
vt 0.242379 0.398427
vt 0.243233 0.398427
vt 0.243233 0.398427
vt 0.243233 0.398427
vt 0.243233 0.398427
vt 0.205227 0.398427
vt 0.205227 0.398427
vt 0.205227 0.398427
vt 0.205227 0.398427
vt 0.269917 0.398427
vt 0.269917 0.398427
vt 0.269917 0.398427
vt 0.269917 0.398427
vt 0.362687 0.398427
vt 0.362687 0.398427
vt 0.362687 0.398427
vt 0.362687 0.398427
vt 0.362687 0.398427
vt 0.362687 0.398427
vt 0.362687 0.398427
vt 0.362687 0.398427
vt 0.335271 0.398427
vt 0.335271 0.398427
vt 0.335271 0.398427
vt 0.335271 0.398427
vt 0.265753 0.398427
vt 0.265753 0.398427
vt 0.265753 0.398427
vt 0.265753 0.398427
vt 0.301981 0.398427
vt 0.301981 0.398427
vt 0.301981 0.398427
vt 0.301981 0.398427
vt 0.265753 0.398427
vt 0.265753 0.398427
vt 0.265753 0.398427
vt 0.265753 0.398427
vt 0.301981 0.398427
vt 0.301981 0.398427
vt 0.301981 0.398427
vt 0.301981 0.398427
vt 0.265753 0.398427
vt 0.265753 0.398427
vt 0.265753 0.398427
vt 0.265753 0.398427
vt 0.301981 0.398427
vt 0.301981 0.398427
vt 0.301981 0.398427
vt 0.301981 0.398427
vt 0.265753 0.398427
vt 0.265753 0.398427
vt 0.265753 0.398427
vt 0.265753 0.398427
vt 0.301981 0.398427
vt 0.301981 0.398427
vt 0.301981 0.398427
vt 0.301981 0.398427
vt 0.333885 0.399687
vt 0.333885 0.399687
vt 0.333885 0.399687
vt 0.333885 0.399687
vt 0.269917 0.398427
vt 0.269917 0.398427
vt 0.269917 0.398427
vt 0.269917 0.398427
vt 0.303304 0.398427
vt 0.303304 0.398427
vt 0.303304 0.398427
vt 0.303304 0.398427
vt 0.266153 0.398427
vt 0.266153 0.398427
vt 0.266153 0.398427
vt 0.266153 0.398427
vt 0.303304 0.398427
vt 0.303304 0.398427
vt 0.303304 0.398427
vt 0.303304 0.398427
vt 0.208992 0.398427
vt 0.208992 0.398427
vt 0.208992 0.398427
vt 0.208992 0.398427
vt 0.303304 0.398427
vt 0.303304 0.398427
vt 0.303304 0.398427
vt 0.303304 0.398427
vt 0.303304 0.398427
vt 0.303304 0.398427
vt 0.303304 0.398427
vt 0.303304 0.398427
vt 0.266153 0.398427
vt 0.266153 0.398427
vt 0.266153 0.398427
vt 0.266153 0.398427
vt 0.303304 0.398427
vt 0.303304 0.398427
vt 0.303304 0.398427
vt 0.303304 0.398427
vt 0.303304 0.398427
vt 0.303304 0.398427
vt 0.303304 0.398427
vt 0.303304 0.398427
vn 0.000000 0.000000 1.000000
vn 0.000000 0.000000 1.000000
vn 0.000000 0.000000 1.000000
vn 0.000000 0.000000 1.000000
vn 0.000000 1.000000 0.000000
vn 0.000000 1.000000 0.000000
vn 0.000000 1.000000 0.000000
vn 0.000000 1.000000 0.000000
vn 0.000000 -1.000000 0.000000
vn 0.000000 -1.000000 0.000000
vn 0.000000 -1.000000 0.000000
vn 0.000000 -1.000000 0.000000
vn 1.000000 0.000000 0.000000
vn 1.000000 0.000000 0.000000
vn 1.000000 0.000000 0.000000
vn 1.000000 0.000000 0.000000
vn -1.000000 0.000000 0.000000
vn -1.000000 0.000000 0.000000
vn -1.000000 0.000000 0.000000
vn -1.000000 0.000000 0.000000
vn 0.000000 0.000000 1.000000
vn 0.000000 0.000000 1.000000
vn 0.000000 -0.000005 1.000000
vn 0.000000 -0.000005 1.000000
vn 0.000000 1.000000 -0.000000
vn 0.000000 1.000000 -0.000000
vn 0.000000 1.000000 -0.000000
vn 0.000000 1.000000 -0.000000
vn 0.000000 0.000002 -1.000000
vn 0.000000 0.000002 -1.000000
vn 0.000000 0.000000 -1.000000
vn 0.000000 0.000000 -1.000000
vn 0.000000 -1.000000 0.000000
vn 0.000000 -1.000000 0.000000
vn 0.000000 -1.000000 0.000000
vn 0.000000 -1.000000 0.000000
vn 1.000000 0.000000 0.000000
vn 1.000000 0.000000 0.000000
vn 1.000000 0.000000 0.000000
vn 1.000000 0.000000 0.000000
vn -1.000000 0.000000 0.000000
vn -1.000000 0.000000 0.000000
vn -1.000000 0.000000 0.000000
vn -1.000000 0.000000 0.000000
vn 0.000000 1.000000 0.000000
vn 0.000000 1.000000 0.000000
vn 0.000000 1.000000 0.000000
vn 0.000000 1.000000 0.000000
vn 0.000000 1.000000 0.000000
vn 0.000000 1.000000 0.000000
vn 0.000000 1.000000 0.000000
vn 0.000000 1.000000 0.000000
vn 0.000000 1.000000 0.000000
vn 0.000000 1.000000 0.000000
vn 0.000000 1.000000 0.000000
vn 0.000000 1.000000 0.000000
vn -1.000000 0.000000 0.000001
vn -1.000000 0.000000 0.000001
vn -1.000000 0.000000 0.000001
vn -1.000000 0.000000 0.000001
vn -0.000001 -0.000007 1.000000
vn -0.000001 -0.000007 1.000000
vn -0.000029 0.000000 1.000000
vn -0.000029 0.000000 1.000000
vn 1.000000 0.000000 0.000001
vn 1.000000 0.000000 0.000001
vn 1.000000 0.000000 0.000001
vn 1.000000 0.000000 0.000001
vn 0.000001 0.000003 -1.000000
vn 0.000001 0.000003 -1.000000
vn 0.000023 0.000000 -1.000000
vn 0.000023 0.000000 -1.000000
vn -1.000000 0.000000 0.000000
vn -1.000000 0.000000 0.000000
vn -1.000000 0.000000 0.000000
vn -1.000000 0.000000 0.000000
vn 0.000000 -0.000006 1.000000
vn 0.000000 -0.000006 1.000000
vn 0.000000 0.000000 1.000000
vn 0.000000 0.000000 1.000000
vn 1.000000 0.000000 0.000000
vn 1.000000 0.000000 0.000000
vn 1.000000 0.000000 0.000000
vn 1.000000 0.000000 0.000000
vn 0.000000 0.000003 -1.000000
vn 0.000000 0.000003 -1.000000
vn 0.000000 0.000000 -1.000000
vn 0.000000 0.000000 -1.000000
vn 0.000000 1.000000 0.000000
vn 0.000000 1.000000 0.000000
vn 0.000000 1.000000 0.000000
vn 0.000000 1.000000 0.000000
vn -1.000000 0.000000 0.000000
vn -1.000000 0.000000 0.000000
vn -1.000000 0.000000 0.000000
vn -1.000000 0.000000 0.000000
vn 0.000000 0.000000 1.000000
vn 0.000000 0.000000 1.000000
vn 0.000000 0.000000 1.000000
vn 0.000000 0.000000 1.000000
vn 1.000000 0.000000 0.000000
vn 1.000000 0.000000 0.000000
vn 1.000000 0.000000 0.000000
vn 1.000000 0.000000 0.000000
vn 0.000000 0.000000 -1.000000
vn 0.000000 0.000000 -1.000000
vn 0.000000 0.000000 -1.000000
vn 0.000000 0.000000 -1.000000
vn -1.000000 0.000000 0.000000
vn -1.000000 0.000000 0.000000
vn -1.000000 0.000000 0.000000
vn -1.000000 0.000000 0.000000
vn 0.000000 0.000003 -1.000000
vn 0.000001 0.000003 -1.000000
vn 0.000001 0.000003 -1.000000
vn 0.000000 0.000003 -1.000000
vn 0.000000 0.000003 -1.000000
vn 0.000000 0.000003 -1.000000
vn 0.000000 0.000002 -1.000000
vn 0.000000 0.000002 -1.000000
vn 1.000000 0.000000 0.000000
vn 1.000000 0.000000 0.000000
vn 1.000000 0.000000 0.000000
vn 1.000000 0.000000 0.000000
vn 0.000000 -0.000005 1.000000
vn 0.000000 -0.000005 1.000000
vn 0.000000 -0.000007 1.000000
vn 0.000000 -0.000006 1.000000
vn 0.000000 -0.000006 1.000000
vn -0.000001 -0.000007 1.000000
vn -0.000001 -0.000007 1.000000
vn 0.000000 -0.000007 1.000000
s off
f 1/19/1 2/2/2 4/18/3 3/15/4
f 3/3/5 4/14/6 6/5/7 5/16/8
f 7/6/9 8/13/10 2/8/11 1/7/12
f 2/17/13 8/9/14 6/10/15 4/4/16
f 7/11/17 1/1/18 3/20/19 5/12/20
f 33/21/21 35/22/22 40/23/23 38/24/24
f 11/25/25 19/26/26 20/27/27 13/28/28
f 37/29/29 39/30/30 36/31/31 34/32/32
f 15/33/33 16/34/34 10/35/35 9/36/36
f 35/37/37 36/38/38 39/39/39 40/40/40
f 15/41/41 9/42/42 33/43/43 34/44/44
f 26/45/45 25/46/46 27/47/47 28/48/48
f 30/49/49 29/50/50 31/51/51 32/52/52
f 24/53/53 23/54/54 12/55/55 14/56/56
f 20/57/57 19/58/58 25/59/59 26/60/60
f 19/61/61 17/62/62 27/63/63 25/64/64
f 17/65/65 18/66/66 28/67/67 27/68/68
f 18/69/69 20/70/70 26/71/71 28/72/72
f 22/73/73 21/74/74 29/75/75 30/76/76
f 21/77/77 23/78/78 31/79/79 29/80/80
f 23/81/81 24/82/82 32/83/83 31/84/84
f 24/85/85 22/86/86 30/87/87 32/88/88
f 18/89/89 17/90/90 21/91/91 22/92/92
f 37/93/93 38/94/94 11/95/95 13/96/96
f 9/97/97 10/98/98 35/99/99 33/100/100
f 10/101/101 16/102/102 36/103/103 35/104/104
f 34/105/105 36/106/106 16/107/107 15/108/108
f 34/109/109 33/110/110 38/111/111 37/112/112
f 13/113/113 20/114/114 18/115/115 22/116/116 24/117/117 14/118/118 39/119/119 37/120/120
f 40/121/121 39/122/122 14/123/123 12/124/124
f 38/125/125 40/126/126 12/127/127 23/128/128 21/129/129 17/130/130 19/131/131 11/132/132
