# This file uses meters as units for non-parametric coordinates.

v 1.240459 0.253743 -2.880843
v -0.000003 2.017360 -2.880843
v -1.240463 0.253743 -2.880843
v -1.150344 0.253743 2.629966
v -1.150344 0.253743 -2.880843
v 1.150341 0.253743 -2.880843
v 1.150341 0.253743 2.629965
v -1.082517 0.253743 2.629965
v -1.082517 0.253743 -2.880843
v 1.082515 0.253743 -2.880844
v 1.082515 0.253743 2.629965
v -1.082517 -0.002499 2.629965
v -1.082517 -0.002499 -2.880843
v 1.082515 -0.002499 -2.880844
v 1.082515 -0.002499 2.629965
v -1.430238 -0.011235 -2.880843
v -1.326329 -0.011235 -2.880843
v 1.430238 -0.011235 -2.880843
v 1.326326 -0.011235 -2.880843
v -0.004763 1.895118 2.629965
v -0.004763 1.895118 2.897963
v -0.000003 2.017360 2.897963
v -1.430238 -0.011235 2.897963
v -1.326329 -0.011235 2.897963
v 1.326326 -0.011235 2.897963
v 1.430238 -0.011235 2.897963
v -0.000000 0.253743 2.629966
v -0.176977 0.253743 2.629966
v -0.004763 1.895118 2.552271
v -0.000000 0.253743 2.552271
v -0.176977 0.253743 2.552271
v -0.000003 1.833634 0.008560
v 0.033370 -0.089262 4.697521
v 0.033370 1.859663 2.711657
v 0.033370 -0.042736 4.742201
v 0.033370 1.906190 2.758183
v -0.032429 -0.042736 4.742201
v -0.032429 1.906190 2.758183
v -0.032429 -0.089262 4.697521
v -0.032429 1.859663 2.711657
v -0.032429 -0.089262 -4.697521
v -0.032429 1.859663 -2.711658
v -0.032429 -0.042736 -4.742201
v -0.032429 1.906190 -2.758184
v 0.033370 -0.042736 -4.742201
v 0.033370 1.906190 -2.758184
v 0.033370 -0.089262 -4.697521
v 0.033370 1.859663 -2.711658
vt 0.245563 0.168586
vt 0.207498 0.168586
vt 0.109266 0.168586
vt 0.180932 0.168586
vt 0.109266 0.168586
vt 0.180932 0.168586
vt 0.109266 0.168586
vt 0.109266 0.168586
vt 0.180932 0.168586
vt 0.109266 0.168586
vt 0.180932 0.168586
vt 0.109266 0.168586
vt 0.109266 0.168586
vt 0.175573 0.168586
vt 0.180932 0.168586
vt 0.109266 0.168586
vt 0.109266 0.168586
vt 0.109266 0.168586
vt 0.109266 0.168586
vt 0.245563 0.168586
vt 0.109266 0.168586
vt 0.143647 0.168586
vt 0.143648 0.168586
vt 0.109266 0.168586
vt 0.109266 0.168586
vt 0.245563 0.168586
vt 0.109266 0.168586
vt 0.109266 0.168586
vt 0.109266 0.168586
vt 0.245563 0.168586
vt 0.109266 0.168586
vt 0.109266 0.168586
vt 0.084708 0.168586
vt 0.109266 0.168586
vt 0.109266 0.168586
vt 0.109266 0.168586
vt 0.084708 0.168586
vt 0.109157 0.478860
vt 0.109157 0.478860
vt 0.109157 0.478860
vt 0.207498 0.168586
vt 0.245563 0.168586
vt 0.178029 0.168586
vt 0.207498 0.168586
vt 0.109266 0.168586
vt 0.180932 0.168586
vt 0.207498 0.168586
vt 0.207498 0.168586
vt 0.180932 0.168586
vt 0.245563 0.168586
vt 0.180932 0.168586
vt 0.207498 0.168586
vt 0.109266 0.168586
vt 0.175573 0.168586
vt 0.175573 0.168586
vt 0.175573 0.168586
vt 0.178029 0.168586
vt 0.178029 0.168586
vt 0.178029 0.168586
vt 0.178029 0.168586
vt 0.178029 0.168586
vt 0.143648 0.168586
vt 0.109266 0.168586
vt 0.143648 0.168586
vt 0.143647 0.168586
vt 0.143648 0.168586
vt 0.109266 0.168586
vt 0.109266 0.168586
vt 0.084708 0.168586
vt 0.109266 0.168586
vt 0.084708 0.168586
vt 0.109266 0.168586
vt 0.180932 0.168586
vt 0.109266 0.168586
vt 0.180932 0.168586
vt 0.180932 0.168586
vt 0.180932 0.168586
vt 0.109266 0.168586
vt 0.180932 0.168586
vt 0.109266 0.168586
vt 0.109266 0.168586
vt 0.180932 0.168586
vt 0.180932 0.168586
vt 0.109266 0.168586
vt 0.169497 0.063184
vt 0.169497 0.063184
vt 0.169497 0.063184
vt 0.169497 0.063184
vt 0.201063 0.063184
vt 0.201063 0.063184
vt 0.201063 0.063184
vt 0.201063 0.063184
vt 0.169497 0.063184
vt 0.169497 0.063184
vt 0.169497 0.063184
vt 0.169497 0.063184
vt 0.114256 0.063184
vt 0.114256 0.063184
vt 0.114256 0.063184
vt 0.114256 0.063184
vt 0.169497 0.063184
vt 0.169497 0.063184
vt 0.169497 0.063184
vt 0.169497 0.063184
vt 0.201063 0.063184
vt 0.201063 0.063184
vt 0.201063 0.063184
vt 0.201063 0.063184
vt 0.169497 0.063184
vt 0.169497 0.063184
vt 0.169497 0.063184
vt 0.169497 0.063184
vt 0.114256 0.063184
vt 0.114256 0.063184
vt 0.114256 0.063184
vt 0.114256 0.063184
vn 0.000000 -1.000000 0.000000
vn 0.000000 -1.000000 0.000000
vn 0.000000 -1.000000 0.000000
vn 0.000000 -1.000000 0.000000
vn 0.000000 0.000000 -1.000000
vn 0.000000 0.000000 -1.000000
vn 0.000000 0.000000 -1.000000
vn 0.000000 0.000000 -0.000000
vn 0.000000 0.000000 -0.000000
vn 0.000000 0.000000 -1.000000
vn 0.000000 0.000000 -1.000000
vn 0.000000 -1.000000 0.000000
vn 0.000000 -1.000000 0.000000
vn 0.000000 -1.000000 0.000000
vn 0.000000 -1.000000 0.000000
vn 0.000000 -1.000000 -0.000000
vn 0.000000 -1.000000 0.000000
vn 0.000000 -1.000000 0.000000
vn 0.000000 -1.000000 -0.000000
vn 0.000000 0.000000 0.000000
vn 0.000000 0.000000 0.000000
vn 0.000000 0.999999 0.001166
vn 0.000000 0.999999 0.001166
vn 0.000000 -1.000000 0.000000
vn 0.000000 -1.000000 -0.000000
vn 0.000000 -1.000000 -0.000000
vn 0.000000 -1.000000 0.000000
vn 0.000000 -1.000000 -0.000000
vn 0.000000 -0.999999 -0.001539
vn 0.000000 -0.999999 -0.001539
vn 0.000000 -1.000000 -0.000000
vn 0.000000 -1.000000 -0.000000
vn 0.000000 -1.000000 -0.000000
vn -1.000000 0.000000 0.000000
vn -1.000000 0.000000 0.000000
vn -1.000000 0.000000 0.000000
vn -1.000000 0.000000 0.000000
vn -0.000001 0.000000 -1.000000
vn -0.000001 0.000000 -1.000000
vn -0.000001 0.000000 -1.000000
vn -0.000001 0.000000 -1.000000
vn 1.000000 0.000000 0.000000
vn 1.000000 0.000000 0.000000
vn 1.000000 0.000000 0.000000
vn 1.000000 0.000000 0.000000
vn 0.000000 0.000000 1.000000
vn 0.000000 0.000000 1.000000
vn 0.000000 0.000000 1.000000
vn 0.000000 0.000000 1.000000
vn 0.000000 0.000000 -1.000000
vn 0.000000 0.000000 -1.000000
vn 0.000000 0.000000 -1.000000
vn 0.000000 0.000000 -1.000000
vn 0.830116 -0.557582 -0.003094
vn 0.830116 -0.557582 -0.003094
vn 0.830116 -0.557582 -0.003094
vn 0.830116 -0.557582 -0.003094
vn 0.830116 -0.557582 -0.003094
vn 0.830116 -0.557582 -0.003094
vn 0.000000 0.000000 1.000000
vn 0.000000 0.000000 1.000000
vn 0.000000 0.000000 1.000000
vn 0.000000 0.000000 1.000000
vn 0.000000 0.000000 1.000000
vn 0.000000 0.000000 1.000000
vn 0.000000 0.000000 -1.000000
vn 0.000000 0.000000 -1.000000
vn 0.000000 0.000000 -1.000000
vn 0.000000 0.000000 -1.000000
vn 0.000001 0.000000 1.000000
vn 0.000001 0.000000 1.000000
vn 0.000001 0.000000 1.000000
vn -0.829617 -0.558321 -0.003624
vn -0.829617 -0.558321 -0.003624
vn -0.829617 -0.558321 -0.003624
vn -0.829617 -0.558321 -0.003624
vn -0.829617 -0.558321 -0.003624
vn -0.829617 -0.558321 -0.003624
vn 0.804426 0.594053 -0.000216
vn 0.804426 0.594053 -0.000216
vn 0.804426 0.594053 -0.000216
vn 0.804426 0.594053 -0.000216
vn 0.804426 0.594054 -0.000216
vn 0.804426 0.594053 -0.000216
vn -0.804427 0.594052 -0.000215
vn -0.804427 0.594052 -0.000215
vn -0.804427 0.594052 -0.000215
vn -0.804427 0.594052 -0.000215
vn -0.804427 0.594052 -0.000215
vn -0.804427 0.594052 -0.000215
vn 0.000000 -1.000000 0.000000
vn 0.000000 -1.000000 0.000000
vn 0.000000 -1.000000 0.000000
vn 0.000000 -1.000000 0.000000
vn 0.000000 0.000000 1.000000
vn 0.000000 0.000000 1.000000
vn 0.000000 0.000000 1.000000
vn 0.000000 0.000000 1.000000
vn 0.000000 0.000000 1.000000
vn 0.000000 0.000000 1.000000
vn -0.999996 -0.002902 0.000000
vn -0.999996 -0.002902 0.000000
vn -0.999996 -0.002902 0.000000
vn -0.999996 -0.002902 0.000000
vn 0.994541 -0.104348 0.000000
vn 0.994541 -0.104348 0.000000
vn 0.994541 -0.104348 0.000000
vn 0.994541 -0.104348 0.000000
vn 0.000000 1.000000 0.000000
vn 0.000000 1.000000 0.000000
vn 0.000000 1.000000 0.000000
vn 0.000000 1.000000 0.000000
vn 1.000000 0.000000 0.000000
vn 1.000000 0.000000 0.000000
vn 1.000000 0.000000 0.000000
vn 1.000000 0.000000 0.000000
vn 0.000000 0.713388 0.700770
vn 0.000000 0.713388 0.700770
vn 0.000000 0.713388 0.700770
vn 0.000000 0.713388 0.700770
vn -1.000000 0.000000 0.000000
vn -1.000000 0.000000 0.000000
vn -1.000000 0.000000 0.000000
vn -1.000000 0.000000 0.000000
vn 0.000000 -0.713713 -0.700438
vn 0.000000 -0.713713 -0.700438
vn 0.000000 -0.713713 -0.700438
vn 0.000000 -0.713713 -0.700438
vn -1.000000 0.000000 0.000000
vn -1.000000 0.000000 0.000000
vn -1.000000 0.000000 0.000000
vn -1.000000 0.000000 0.000000
vn 0.000000 0.713387 -0.700770
vn 0.000000 0.713387 -0.700770
vn 0.000000 0.713387 -0.700770
vn 0.000000 0.713387 -0.700770
vn 1.000000 -0.000000 0.000000
vn 1.000000 -0.000000 0.000000
vn 1.000000 -0.000000 0.000000
vn 1.000000 -0.000000 0.000000
vn 0.000000 -0.713713 0.700438
vn 0.000000 -0.713713 0.700438
vn 0.000000 -0.713713 0.700438
vn 0.000000 -0.713713 0.700438
s off
f 12/14/1 13/56/2 14/55/3 15/54/4
f 1/51/5 3/6/6 2/49/7
f 3/80/8 1/5/9 6/74/10 5/78/11
f 19/21/12 18/72/13 26/45/14 25/29/15
f 4/7/16 5/78/17 9/84/18 8/10/19
f 5/78/20 6/74/21 10/12/22 9/84/23
f 6/74/24 7/3/25 11/13/26 10/12/27
f 7/3/28 27/32/29 28/34/30 4/7/31 8/10/32 11/13/33
f 8/10/34 9/84/35 13/81/36 12/53/37
f 9/11/38 10/83/39 14/82/40 13/15/41
f 10/12/42 11/13/43 15/17/44 14/16/45
f 11/13/46 8/10/47 12/53/48 15/17/49
f 3/4/50 5/79/51 17/77/52 16/76/53
f 21/25/54 24/28/55 17/19/56 5/8/57 4/67/58 20/63/59
f 21/59/60 25/58/61 26/57/62 22/43/63 23/61/64 24/60/65
f 6/9/66 1/75/67 18/46/68 19/73/69
f 7/23/70 20/64/71 27/66/72
f 21/25/73 20/63/74 7/3/75 6/74/76 19/21/77 25/29/78
f 18/20/79 1/1/80 2/50/81 32/42/82 22/26/83 26/30/84
f 16/48/85 23/47/86 22/44/87 32/41/88 2/2/89 3/52/90
f 17/19/91 24/28/92 23/27/93 16/18/94
f 30/38/95 29/39/96 31/40/97
f 28/65/98 20/62/99 4/22/100
f 27/31/101 20/24/102 29/36/103 30/35/104
f 20/24/105 28/70/106 31/68/107 29/36/108
f 28/33/109 27/71/110 30/69/111 31/37/112
f 33/85/113 34/86/114 36/87/115 35/88/116
f 35/89/117 36/90/118 38/91/119 37/92/120
f 37/93/121 38/94/122 40/95/123 39/96/124
f 39/97/125 40/98/126 34/99/127 33/100/128
f 41/101/129 42/102/130 44/103/131 43/104/132
f 43/105/133 44/106/134 46/107/135 45/108/136
f 45/109/137 46/110/138 48/111/139 47/112/140
f 47/113/141 48/114/142 42/115/143 41/116/144
