# This file uses meters as units for non-parametric coordinates.

v 1.300491 -0.239290 -1.587843
v 2.160774 -0.239290 -0.861893
v 1.520519 0.330447 -1.606485
v 2.142132 0.330447 -1.081942
v 2.045063 0.330447 -2.228085
v 2.666676 0.330447 -1.703541
v 2.026421 -0.239290 -2.448133
v 2.886711 -0.239290 -1.722183
v 1.820850 -0.065244 -0.525339
v 1.433716 -0.065244 -0.084204
v 1.828339 0.231820 -0.410435
v 1.548599 0.231820 -0.091688
v 2.147087 0.231820 -0.130707
v 1.867344 0.231820 0.188040
v 2.261982 -0.065244 -0.138205
v 1.874847 -0.065244 0.302931
v 0.516678 -0.040835 2.699169
v 0.912148 -0.040835 2.989271
v 0.611782 0.207411 2.684555
v 0.897541 0.207411 2.894173
v 0.821404 0.207411 2.398798
v 1.107159 0.207411 2.608421
v 0.806786 -0.040835 2.303699
v 1.202251 -0.040835 2.593805
v -1.105122 -0.214482 2.838329
v -0.193794 -0.214482 2.363487
v -1.044579 0.305640 2.646048
v -0.386074 0.305640 2.302938
v -1.387688 0.305640 1.987549
v -0.729183 0.305640 1.644440
v -1.579971 -0.214482 1.927002
v -0.668644 -0.214482 1.452158
v -2.780235 -0.040835 2.064989
v -2.289772 -0.040835 2.064989
v -2.712196 0.207411 1.996954
v -2.357796 0.207411 1.996954
v -2.712196 0.207411 1.642559
v -2.357796 0.207411 1.642559
v -2.780235 -0.040835 1.574526
v -2.289772 -0.040835 1.574526
v -1.023563 -0.065244 -2.766382
v -0.800674 -0.065244 -2.223440
v -0.917328 0.231820 -2.721979
v -0.756271 0.231820 -2.329662
v -0.525009 0.231820 -2.883036
v -0.363953 0.231820 -2.490719
v -0.480621 -0.065244 -2.989271
v -0.257732 -0.065244 -2.446329
v -2.445538 0.283026 0.144247
v -0.374165 0.328124 1.598984
v -1.629959 0.679417 0.015594
v -0.511543 0.679032 0.858004
v 0.031773 0.679362 -1.350815
v 1.005623 0.678818 -1.094671
v -0.459549 0.380524 -1.814919
v 1.488873 0.444136 -1.345566
v -1.123371 0.144853 -2.659477
v 2.039284 0.101180 -1.740961
v -0.793831 0.100159 2.676716
v -2.886711 0.100159 1.001656
v -1.123371 -0.048268 -2.659477
v 2.039284 -0.091940 -1.740961
v -0.793831 -0.092962 2.676716
v -2.886711 -0.092962 1.001656
v -2.612717 -0.092962 -0.408533
v -2.612717 0.100159 -0.408533
v -1.945721 0.283026 -0.815760
v -1.282181 0.679417 -0.351460
v 0.608028 0.678695 0.503252
v 0.955769 0.283026 0.694828
v 1.591877 0.100159 2.012955
v 1.591877 -0.092962 2.012955
v -0.608788 0.873632 -0.614794
v 0.371479 0.873258 -0.171535
v 0.577663 0.873322 -0.844151
v 0.072636 0.873604 -0.976988
vt 0.200194 0.047185
vt 0.200194 0.047185
vt 0.200194 0.047185
vt 0.200194 0.047185
vt 0.231499 0.047185
vt 0.231499 0.047185
vt 0.231499 0.047185
vt 0.231499 0.047185
vt 0.170006 0.047185
vt 0.170006 0.047185
vt 0.170006 0.047185
vt 0.170006 0.047185
vt 0.170006 0.047185
vt 0.170006 0.047185
vt 0.170006 0.047185
vt 0.170006 0.047185
vt 0.170006 0.047185
vt 0.170006 0.047185
vt 0.170006 0.047185
vt 0.170006 0.047185
vt 0.170006 0.047185
vt 0.170006 0.047185
vt 0.170006 0.047185
vt 0.170006 0.047185
vt 0.200194 0.047185
vt 0.200194 0.047185
vt 0.200194 0.047185
vt 0.200194 0.047185
vt 0.231499 0.047185
vt 0.231499 0.047185
vt 0.231499 0.047185
vt 0.231499 0.047185
vt 0.170006 0.047185
vt 0.170006 0.047185
vt 0.170006 0.047185
vt 0.170006 0.047185
vt 0.170006 0.047185
vt 0.170006 0.047185
vt 0.170006 0.047185
vt 0.170006 0.047185
vt 0.170006 0.047185
vt 0.170006 0.047185
vt 0.170006 0.047185
vt 0.170006 0.047185
vt 0.170006 0.047185
vt 0.170006 0.047185
vt 0.170006 0.047185
vt 0.170006 0.047185
vt 0.200194 0.047185
vt 0.200194 0.047185
vt 0.200194 0.047185
vt 0.200194 0.047185
vt 0.231499 0.047185
vt 0.231499 0.047185
vt 0.231499 0.047185
vt 0.231499 0.047185
vt 0.170006 0.047185
vt 0.170006 0.047185
vt 0.170006 0.047185
vt 0.170006 0.047185
vt 0.170006 0.047185
vt 0.170006 0.047185
vt 0.170006 0.047185
vt 0.170006 0.047185
vt 0.170006 0.047185
vt 0.170006 0.047185
vt 0.170006 0.047185
vt 0.170006 0.047185
vt 0.170006 0.047185
vt 0.170006 0.047185
vt 0.170006 0.047185
vt 0.170006 0.047185
vt 0.200194 0.047185
vt 0.200194 0.047185
vt 0.200194 0.047185
vt 0.200194 0.047185
vt 0.231499 0.047185
vt 0.231499 0.047185
vt 0.231499 0.047185
vt 0.231499 0.047185
vt 0.170006 0.047185
vt 0.170006 0.047185
vt 0.170006 0.047185
vt 0.170006 0.047185
vt 0.170006 0.047185
vt 0.170006 0.047185
vt 0.170006 0.047185
vt 0.170006 0.047185
vt 0.170006 0.047185
vt 0.170006 0.047185
vt 0.170006 0.047185
vt 0.170006 0.047185
vt 0.170006 0.047185
vt 0.170006 0.047185
vt 0.170006 0.047185
vt 0.170006 0.047185
vt 0.200194 0.047185
vt 0.200194 0.047185
vt 0.200194 0.047185
vt 0.200194 0.047185
vt 0.231499 0.047185
vt 0.231499 0.047185
vt 0.231499 0.047185
vt 0.231499 0.047185
vt 0.170006 0.047185
vt 0.170006 0.047185
vt 0.170006 0.047185
vt 0.170006 0.047185
vt 0.170006 0.047185
vt 0.170006 0.047185
vt 0.170006 0.047185
vt 0.170006 0.047185
vt 0.170006 0.047185
vt 0.170006 0.047185
vt 0.170006 0.047185
vt 0.170006 0.047185
vt 0.170006 0.047185
vt 0.170006 0.047185
vt 0.170006 0.047185
vt 0.170006 0.047185
vt 0.200194 0.047185
vt 0.200194 0.047185
vt 0.200194 0.047185
vt 0.200194 0.047185
vt 0.231499 0.047185
vt 0.231499 0.047185
vt 0.231499 0.047185
vt 0.231499 0.047185
vt 0.170006 0.047185
vt 0.170006 0.047185
vt 0.170006 0.047185
vt 0.170006 0.047185
vt 0.170006 0.047185
vt 0.170006 0.047185
vt 0.170006 0.047185
vt 0.170006 0.047185
vt 0.170006 0.047185
vt 0.170006 0.047185
vt 0.170006 0.047185
vt 0.170006 0.047185
vt 0.170006 0.047185
vt 0.170006 0.047185
vt 0.170006 0.047185
vt 0.170006 0.047185
vt 0.232618 0.047185
vt 0.232617 0.047185
vt 0.232617 0.047185
vt 0.232618 0.047185
vt 0.295229 0.047185
vt 0.295229 0.047185
vt 0.295229 0.047185
vt 0.295229 0.047185
vt 0.208602 0.047185
vt 0.208602 0.047185
vt 0.208602 0.047185
vt 0.208602 0.047185
vt 0.173361 0.047185
vt 0.173360 0.047185
vt 0.173360 0.047185
vt 0.173361 0.047185
vt 0.208602 0.047185
vt 0.208602 0.047185
vt 0.208602 0.047185
vt 0.208602 0.047185
vt 0.227358 0.047185
vt 0.227358 0.047185
vt 0.227358 0.047185
vt 0.227358 0.047185
vt 0.174411 0.047185
vt 0.174411 0.047185
vt 0.174411 0.047185
vt 0.174411 0.047185
vt 0.169608 0.047185
vt 0.169608 0.047185
vt 0.169608 0.047185
vt 0.169608 0.047185
vt 0.265041 0.047185
vt 0.265041 0.047185
vt 0.265041 0.047185
vt 0.265041 0.047185
vt 0.198853 0.047185
vt 0.198853 0.047185
vt 0.198853 0.047185
vt 0.198853 0.047185
vt 0.173361 0.047185
vt 0.173360 0.047185
vt 0.116340 0.047185
vt 0.116340 0.047185
vt 0.116340 0.047185
vt 0.116340 0.047185
vt 0.200194 0.047185
vt 0.200194 0.047185
vt 0.200194 0.047185
vt 0.200194 0.047185
vt 0.173361 0.047185
vt 0.116340 0.047185
vt 0.116340 0.047185
vt 0.116340 0.047185
vt 0.116340 0.047185
vt 0.169608 0.047185
vt 0.169608 0.047185
vt 0.169608 0.047185
vt 0.169608 0.047185
vt 0.208602 0.047185
vt 0.208602 0.047185
vt 0.208602 0.047185
vt 0.208602 0.047185
vt 0.268395 0.047185
vt 0.268395 0.047185
vt 0.268395 0.047185
vt 0.268395 0.047185
vt 0.204666 0.047185
vt 0.204666 0.047185
vt 0.204666 0.047185
vt 0.204666 0.047185
vt 0.237090 0.047185
vt 0.237090 0.047185
vt 0.237090 0.047185
vt 0.237090 0.047185
vt 0.173360 0.047185
vt 0.173360 0.047185
vt 0.173360 0.047185
vt 0.173361 0.047185
vt 0.233736 0.047185
vt 0.233736 0.047185
vt 0.233736 0.047185
vt 0.233736 0.047185
vt 0.268395 0.047185
vt 0.268395 0.047185
vt 0.268395 0.047185
vt 0.268395 0.047185
vt 0.235972 0.047185
vt 0.235972 0.047185
vt 0.235972 0.047185
vt 0.235972 0.047185
vt 0.268395 0.047185
vt 0.268395 0.047185
vt 0.268395 0.047185
vt 0.268395 0.047185
vn -0.621977 0.264324 0.737073
vn -0.621977 0.264324 0.737073
vn -0.621977 0.264324 0.737073
vn -0.621977 0.264324 0.737073
vn 0.000000 1.000000 0.000000
vn 0.000000 1.000000 0.000000
vn 0.000000 1.000000 0.000000
vn 0.000000 1.000000 0.000000
vn 0.621975 0.264328 -0.737074
vn 0.621975 0.264328 -0.737074
vn 0.621975 0.264328 -0.737074
vn 0.621975 0.264328 -0.737074
vn 0.000000 -1.000000 0.000000
vn 0.000000 -1.000000 0.000000
vn 0.000000 -1.000000 0.000000
vn 0.000000 -1.000000 0.000000
vn 0.737075 0.264327 0.621974
vn 0.737075 0.264327 0.621975
vn 0.737075 0.264327 0.621975
vn 0.737075 0.264327 0.621975
vn -0.737078 0.264322 -0.621973
vn -0.737078 0.264322 -0.621973
vn -0.737078 0.264322 -0.621973
vn -0.737078 0.264322 -0.621973
vn -0.724876 0.264320 -0.636152
vn -0.724876 0.264320 -0.636153
vn -0.724876 0.264320 -0.636152
vn -0.724876 0.264320 -0.636152
vn 0.000000 1.000000 0.000000
vn 0.000000 1.000000 0.000000
vn 0.000000 1.000000 0.000000
vn 0.000000 1.000000 0.000000
vn 0.724873 0.264324 0.636154
vn 0.724873 0.264324 0.636154
vn 0.724873 0.264324 0.636154
vn 0.724873 0.264324 0.636154
vn 0.000000 -1.000000 0.000000
vn 0.000000 -1.000000 0.000000
vn 0.000000 -1.000000 0.000000
vn 0.000000 -1.000000 0.000000
vn -0.636156 0.264284 0.724886
vn -0.636156 0.264284 0.724886
vn -0.636156 0.264284 0.724886
vn -0.636155 0.264284 0.724886
vn 0.636143 0.264341 -0.724876
vn 0.636143 0.264341 -0.724876
vn 0.636143 0.264341 -0.724876
vn 0.636143 0.264341 -0.724876
vn -0.570443 0.264327 0.777641
vn -0.570443 0.264327 0.777641
vn -0.570443 0.264327 0.777641
vn -0.570443 0.264327 0.777641
vn 0.000000 1.000000 -0.000000
vn 0.000000 1.000000 -0.000000
vn 0.000000 1.000000 -0.000000
vn 0.000000 1.000000 -0.000000
vn 0.570458 0.264306 -0.777638
vn 0.570458 0.264306 -0.777638
vn 0.570458 0.264306 -0.777638
vn 0.570458 0.264306 -0.777638
vn 0.000000 -1.000000 0.000000
vn 0.000000 -1.000000 0.000000
vn 0.000000 -1.000000 0.000000
vn 0.000000 -1.000000 0.000000
vn 0.777643 0.264292 0.570457
vn 0.777643 0.264292 0.570457
vn 0.777643 0.264292 0.570457
vn 0.777643 0.264292 0.570457
vn -0.777635 0.264327 -0.570452
vn -0.777635 0.264327 -0.570452
vn -0.777635 0.264327 -0.570452
vn -0.777635 0.264327 -0.570452
vn 0.445648 0.264317 0.855298
vn 0.445648 0.264317 0.855298
vn 0.445648 0.264317 0.855298
vn 0.445648 0.264317 0.855298
vn 0.000000 1.000000 0.000000
vn 0.000000 1.000000 0.000000
vn 0.000000 1.000000 0.000000
vn 0.000000 1.000000 0.000000
vn -0.445648 0.264318 -0.855297
vn -0.445648 0.264318 -0.855297
vn -0.445648 0.264318 -0.855297
vn -0.445648 0.264318 -0.855297
vn 0.000000 -1.000000 0.000000
vn 0.000000 -1.000000 0.000000
vn 0.000000 -1.000000 0.000000
vn 0.000000 -1.000000 0.000000
vn 0.855298 0.264306 -0.445653
vn 0.855298 0.264306 -0.445653
vn 0.855298 0.264306 -0.445653
vn 0.855298 0.264306 -0.445653
vn -0.855297 0.264313 0.445653
vn -0.855297 0.264313 0.445653
vn -0.855297 0.264313 0.445653
vn -0.855297 0.264313 0.445653
vn 0.000000 0.264317 0.964436
vn 0.000000 0.264317 0.964436
vn 0.000000 0.264317 0.964436
vn 0.000000 0.264317 0.964436
vn 0.000000 1.000000 0.000000
vn 0.000000 1.000000 0.000000
vn 0.000000 1.000000 0.000000
vn 0.000000 1.000000 0.000000
vn 0.000000 0.264310 -0.964438
vn 0.000000 0.264310 -0.964438
vn 0.000000 0.264310 -0.964438
vn 0.000000 0.264310 -0.964438
vn 0.000000 -1.000000 0.000000
vn 0.000000 -1.000000 0.000000
vn 0.000000 -1.000000 0.000000
vn 0.000000 -1.000000 0.000000
vn 0.964447 0.264276 0.000000
vn 0.964447 0.264275 0.000000
vn 0.964447 0.264275 0.000000
vn 0.964447 0.264275 0.000000
vn -0.964432 0.264330 0.000000
vn -0.964432 0.264330 0.000000
vn -0.964432 0.264330 0.000000
vn -0.964432 0.264330 0.000000
vn -0.892182 0.264318 0.366261
vn -0.892182 0.264318 0.366261
vn -0.892182 0.264318 0.366261
vn -0.892182 0.264319 0.366261
vn 0.000000 1.000000 0.000000
vn 0.000000 1.000000 0.000000
vn 0.000000 1.000000 0.000000
vn 0.000000 1.000000 0.000000
vn 0.892189 0.264291 -0.366264
vn 0.892189 0.264291 -0.366264
vn 0.892189 0.264291 -0.366264
vn 0.892189 0.264291 -0.366264
vn 0.000000 -1.000000 0.000000
vn 0.000000 -1.000000 0.000000
vn 0.000000 -1.000000 0.000000
vn 0.000000 -1.000000 0.000000
vn 0.366265 0.264280 0.892192
vn 0.366265 0.264280 0.892192
vn 0.366265 0.264280 0.892192
vn 0.366265 0.264280 0.892192
vn -0.366259 0.264335 -0.892178
vn -0.366259 0.264335 -0.892178
vn -0.366259 0.264335 -0.892178
vn -0.366259 0.264335 -0.892178
vn -0.335467 0.827780 0.449713
vn -0.335467 0.827780 0.449713
vn -0.335467 0.827780 0.449713
vn -0.335467 0.827780 0.449713
vn 0.000322 1.000000 0.000309
vn 0.000322 1.000000 0.000309
vn 0.000322 1.000000 0.000309
vn 0.000322 1.000000 0.000309
vn 0.129265 0.810642 -0.571095
vn 0.129507 0.806955 -0.576240
vn 0.130306 0.793927 -0.593886
vn 0.130306 0.793927 -0.593886
vn -0.002160 -0.999963 -0.008310
vn -0.002160 -0.999963 -0.008310
vn -0.001635 -0.999979 -0.006289
vn -0.001556 -0.999981 -0.005986
vn 0.602033 0.775930 0.188388
vn 0.602033 0.775930 0.188388
vn 0.602033 0.775930 0.188388
vn 0.602033 0.775930 0.188388
vn -0.258240 0.929537 -0.263197
vn -0.279612 0.933172 -0.225846
vn -0.309518 0.896355 -0.317405
vn -0.271828 0.901445 -0.336907
vn 0.112894 0.896398 -0.428631
vn 0.112894 0.896398 -0.428631
vn 0.112894 0.896398 -0.428631
vn 0.112894 0.896398 -0.428631
vn 0.347722 0.933740 0.084968
vn 0.347722 0.933740 0.084968
vn 0.347722 0.933740 0.084968
vn 0.347722 0.933740 0.084968
vn -0.125189 0.980352 0.152440
vn -0.125189 0.980352 0.152440
vn -0.125189 0.980352 0.152440
vn -0.125189 0.980352 0.152440
vn -0.241142 0.953832 -0.179039
vn -0.279612 0.933172 -0.225846
vn -0.258240 0.929537 -0.263197
vn -0.241142 0.953832 -0.179039
vn 0.278902 0.000000 -0.960320
vn 0.278902 0.000000 -0.960320
vn 0.278902 0.000000 -0.960320
vn 0.278902 0.000000 -0.960320
vn 0.992972 0.000000 0.118346
vn 0.992972 0.000000 0.118346
vn 0.992972 0.000000 0.118346
vn 0.992972 0.000000 0.118346
vn -0.624867 0.000000 0.780731
vn -0.624867 0.000000 0.780731
vn -0.624867 0.000000 0.780731
vn -0.624867 0.000000 0.780731
vn -0.833975 0.000000 -0.551802
vn -0.833975 0.000000 -0.551803
vn -0.833975 0.000000 -0.551802
vn -0.833975 0.000000 -0.551803
vn -0.981643 0.000000 -0.190730
vn -0.981643 0.000000 -0.190730
vn -0.981643 0.000000 -0.190730
vn -0.981643 0.000000 -0.190730
vn -0.444791 0.876149 -0.185806
vn -0.279612 0.933172 -0.225846
vn -0.460251 0.874980 -0.150261
vn -0.460251 0.874980 -0.150261
vn -0.309518 0.896355 -0.317405
vn -0.279612 0.933172 -0.225846
vn -0.444791 0.876149 -0.185806
vn -0.409236 0.874189 -0.261380
vn 0.000294 1.000000 0.000131
vn 0.000294 1.000000 0.000131
vn 0.000294 1.000000 0.000131
vn 0.000294 1.000000 0.000131
vn 0.276604 0.815252 0.508777
vn 0.276604 0.815252 0.508777
vn 0.276604 0.815252 0.508777
vn 0.276604 0.815252 0.508777
vn 0.080061 0.983630 0.161437
vn 0.080061 0.983630 0.161437
vn 0.080061 0.983630 0.161437
vn 0.080061 0.983630 0.161437
vn 0.268043 0.000000 0.963407
vn 0.268043 0.000000 0.963407
vn 0.268043 0.000000 0.963407
vn 0.268043 0.000000 0.963407
vn -0.001556 -0.999981 -0.005986
vn -0.001635 -0.999979 -0.006289
vn 0.000000 -1.000000 -0.000000
vn 0.000000 -1.000000 -0.000000
vn -0.144613 0.936109 0.320604
vn -0.144613 0.936109 0.320604
vn -0.144613 0.936109 0.320604
vn -0.144613 0.936109 0.320604
vn 0.444412 0.887984 0.118250
vn 0.444412 0.887984 0.118250
vn 0.444412 0.887984 0.118250
vn 0.444412 0.887984 0.118250
vn 0.129507 0.806955 -0.576240
vn 0.129265 0.810642 -0.571095
vn 0.123622 0.874962 -0.468144
vn 0.123622 0.874962 -0.468144
vn -0.348455 0.785970 -0.510715
vn -0.348455 0.785970 -0.510715
vn -0.348455 0.785970 -0.510715
vn -0.348455 0.785970 -0.510715
s off
f 1/1/1 2/2/2 4/3/3 3/4/4
f 3/5/5 4/6/6 6/7/7 5/8/8
f 5/9/9 6/10/10 8/11/11 7/12/12
f 7/13/13 8/14/14 2/15/15 1/16/16
f 2/17/17 8/18/18 6/19/19 4/20/20
f 7/21/21 1/22/22 3/23/23 5/24/24
f 9/25/25 10/26/26 12/27/27 11/28/28
f 11/29/29 12/30/30 14/31/31 13/32/32
f 13/33/33 14/34/34 16/35/35 15/36/36
f 15/37/37 16/38/38 10/39/39 9/40/40
f 10/41/41 16/42/42 14/43/43 12/44/44
f 15/45/45 9/46/46 11/47/47 13/48/48
f 17/49/49 18/50/50 20/51/51 19/52/52
f 19/53/53 20/54/54 22/55/55 21/56/56
f 21/57/57 22/58/58 24/59/59 23/60/60
f 23/61/61 24/62/62 18/63/63 17/64/64
f 18/65/65 24/66/66 22/67/67 20/68/68
f 23/69/69 17/70/70 19/71/71 21/72/72
f 25/73/73 26/74/74 28/75/75 27/76/76
f 27/77/77 28/78/78 30/79/79 29/80/80
f 29/81/81 30/82/82 32/83/83 31/84/84
f 31/85/85 32/86/86 26/87/87 25/88/88
f 26/89/89 32/90/90 30/91/91 28/92/92
f 31/93/93 25/94/94 27/95/95 29/96/96
f 33/97/97 34/98/98 36/99/99 35/100/100
f 35/101/101 36/102/102 38/103/103 37/104/104
f 37/105/105 38/106/106 40/107/107 39/108/108
f 39/109/109 40/110/110 34/111/111 33/112/112
f 34/113/113 40/114/114 38/115/115 36/116/116
f 39/117/117 33/118/118 35/119/119 37/120/120
f 41/121/121 42/122/122 44/123/123 43/124/124
f 43/125/125 44/126/126 46/127/127 45/128/128
f 45/129/129 46/130/130 48/131/131 47/132/132
f 47/133/133 48/134/134 42/135/135 41/136/136
f 42/137/137 48/138/138 46/139/139 44/140/140
f 47/141/141 41/142/142 43/143/143 45/144/144
f 49/145/145 50/146/146 52/147/147 51/148/148
f 73/149/149 74/150/150 75/151/151 76/152/152
f 53/153/153 54/154/154 56/155/155 55/156/156
f 61/157/157 62/158/158 72/159/159 65/160/160
f 69/161/161 70/162/162 56/163/163 54/164/164
f 55/165/165 67/166/166 68/167/167 53/168/168
f 55/169/169 56/170/170 58/171/171 57/172/172
f 56/173/173 70/174/174 71/175/175 58/176/176
f 50/177/177 49/178/178 60/179/179 59/180/180
f 66/181/181 67/182/182 55/183/183 57/184/184
f 57/185/185 58/186/186 62/158/187 61/157/188
f 58/187/189 71/188/190 72/189/191 62/190/192
f 59/191/193 60/192/194 64/193/195 63/194/196
f 65/160/197 66/195/198 57/185/199 61/157/200
f 60/196/201 66/197/202 65/198/203 64/199/204
f 49/200/205 67/201/206 66/202/207 60/203/208
f 68/204/209 67/205/210 49/206/211 51/207/212
f 51/208/213 52/209/214 69/210/215 68/211/216
f 50/212/217 70/213/218 69/214/219 52/215/220
f 71/216/221 70/217/222 50/218/223 59/219/224
f 72/159/225 71/220/226 59/221/227 63/222/228
f 65/160/229 72/159/230 63/222/231 64/223/232
f 68/224/233 69/225/234 74/226/235 73/227/236
f 69/228/237 54/229/238 75/230/239 74/231/240
f 54/232/241 53/233/242 76/234/243 75/235/244
f 53/236/245 68/237/246 73/238/247 76/239/248
