# This file uses meters as units for non-parametric coordinates.

v -0.068624 -0.011263 0.008617
v 0.153337 -0.011263 -0.003202
v 0.266626 2.311635 -0.313253
v 0.325744 2.306630 -0.316402
v 0.263021 2.307568 -0.372438
v 0.322138 2.302563 -0.375587
v -0.082162 -0.011263 -0.213602
v 0.139801 -0.011263 -0.225422
v -0.325744 -0.011263 -0.018026
v -0.140823 -0.011263 -0.015593
v -0.287848 1.965159 -0.228909
v -0.238598 1.965764 -0.228260
v -0.287160 1.962515 -0.278070
v -0.237908 1.963119 -0.277422
v -0.323154 -0.011263 -0.202610
v -0.138234 -0.011263 -0.200176
v -0.125784 -0.011263 0.246098
v 0.099588 -0.011263 0.194447
v -0.170547 2.387986 0.375587
v -0.110521 2.390884 0.361832
v -0.184514 2.391681 0.315670
v -0.124488 2.394579 0.301912
v -0.178227 -0.011263 0.021124
v 0.047146 -0.011263 -0.030529
vt 0.328768 0.288501
vt 0.357177 0.288501
vt 0.388743 0.288502
vt 0.328768 0.288502
vt 0.357177 0.288502
vt 0.388743 0.288502
vt 0.357177 0.288501
vt 0.328768 0.288501
vt 0.328768 0.288502
vt 0.328768 0.288501
vt 0.328768 0.288502
vt 0.388743 0.288502
vt 0.357177 0.288502
vt 0.357177 0.288502
vt 0.388743 0.288502
vt 0.328768 0.288501
vt 0.357177 0.288501
vt 0.357177 0.288502
vt 0.328768 0.288502
vt 0.357177 0.288501
vt 0.357177 0.288501
vt 0.357177 0.288501
vt 0.357177 0.288502
vt 0.357177 0.288502
vt 0.388743 0.288502
vt 0.388743 0.288502
vt 0.388743 0.288502
vt 0.388743 0.288502
vt 0.357177 0.288502
vt 0.357177 0.288502
vt 0.357177 0.288501
vt 0.357177 0.288501
vt 0.328768 0.288501
vt 0.328768 0.288501
vt 0.328768 0.288502
vt 0.328768 0.288502
vt 0.328768 0.288501
vt 0.328768 0.288501
vt 0.328768 0.288502
vt 0.328768 0.288502
vt 0.357177 0.288501
vt 0.357177 0.288501
vt 0.357177 0.288502
vt 0.357177 0.288502
vt 0.388743 0.288502
vt 0.388743 0.288502
vt 0.388743 0.288502
vt 0.388743 0.288502
vt 0.357177 0.288502
vt 0.357177 0.288502
vt 0.357177 0.288501
vt 0.357177 0.288501
vt 0.328768 0.288501
vt 0.328768 0.288501
vt 0.328768 0.288502
vt 0.328768 0.288502
vt 0.328768 0.288501
vt 0.328768 0.288501
vt 0.328768 0.288502
vt 0.328768 0.288502
vn 0.055031 0.129465 0.990056
vn 0.055031 0.129465 0.990056
vn 0.055031 0.129465 0.990056
vn 0.055031 0.129465 0.990056
vn 0.080259 0.994083 -0.073195
vn 0.080259 0.994083 -0.073195
vn 0.080259 0.994083 -0.073195
vn 0.080259 0.994083 -0.073195
vn -0.054154 -0.060315 -0.996709
vn -0.054154 -0.060315 -0.996709
vn -0.054154 -0.060315 -0.996709
vn -0.054154 -0.060315 -0.996709
vn 0.994848 -0.082139 -0.059416
vn 0.994848 -0.082139 -0.059416
vn 0.994848 -0.082139 -0.059416
vn 0.994848 -0.082139 -0.059416
vn -0.986885 0.150669 0.057940
vn -0.986885 0.150669 0.057940
vn -0.986885 0.150669 0.057940
vn -0.986885 0.150669 0.057940
vn -0.013361 0.106315 0.994243
vn -0.013361 0.106315 0.994243
vn -0.013361 0.106315 0.994243
vn -0.013361 0.106315 0.994243
vn -0.011548 0.998481 -0.053875
vn -0.011548 0.998481 -0.053875
vn -0.011548 0.998481 -0.053875
vn -0.011548 0.998481 -0.053875
vn 0.013251 -0.038432 -0.999173
vn 0.013251 -0.038432 -0.999173
vn 0.013251 -0.038432 -0.999173
vn 0.013251 -0.038432 -0.999173
vn 0.998614 0.050885 0.013432
vn 0.998614 0.050885 0.013432
vn 0.998614 0.050885 0.013432
vn 0.998614 0.050885 0.013432
vn -0.999743 0.017670 -0.014219
vn -0.999743 0.017670 -0.014219
vn -0.999743 0.017670 -0.014219
vn -0.999743 0.017670 -0.014219
vn 0.223592 -0.048323 0.973484
vn 0.223592 -0.048323 0.973484
vn 0.223592 -0.048323 0.973484
vn 0.223592 -0.048323 0.973484
vn -0.032328 0.997091 0.069019
vn -0.032328 0.997091 0.069019
vn -0.032328 0.997091 0.069019
vn -0.032328 0.997091 0.069019
vn -0.222977 0.117918 -0.967666
vn -0.222977 0.117918 -0.967666
vn -0.222977 0.117918 -0.967666
vn -0.222977 0.117918 -0.967666
vn 0.969266 0.100310 -0.224635
vn 0.969266 0.100310 -0.224635
vn 0.969266 0.100310 -0.224635
vn 0.969266 0.100310 -0.224635
vn -0.973528 -0.030353 0.226546
vn -0.973528 -0.030353 0.226546
vn -0.973528 -0.030353 0.226546
vn -0.973527 -0.030353 0.226546
s off
f 1/17/1 2/2/2 4/18/3 3/14/4
f 3/3/5 4/12/6 6/6/7 5/15/8
f 5/5/9 6/13/10 8/7/11 7/20/12
f 2/16/13 8/8/14 6/9/15 4/4/16
f 7/10/17 1/1/18 3/19/19 5/11/20
f 9/21/21 10/22/22 12/23/23 11/24/24
f 11/25/25 12/26/26 14/27/27 13/28/28
f 13/29/29 14/30/30 16/31/31 15/32/32
f 10/33/33 16/34/34 14/35/35 12/36/36
f 15/37/37 9/38/38 11/39/39 13/40/40
f 17/41/41 18/42/42 20/43/43 19/44/44
f 19/45/45 20/46/46 22/47/47 21/48/48
f 21/49/49 22/50/50 24/51/51 23/52/52
f 18/53/53 24/54/54 22/55/55 20/56/56
f 23/57/57 17/58/58 19/59/59 21/60/60
