# This file uses meters as units for non-parametric coordinates.

v -0.383116 0.914975 0.261859
v 0.383116 0.914975 0.254326
v -0.447473 0.979332 0.288158
v 0.447473 0.979332 0.280163
v -0.447473 0.979332 -0.296461
v 0.447473 0.979332 -0.304457
v -0.383116 0.914975 -0.270624
v 0.383116 0.914975 -0.278158
v 0.447473 -0.057046 -0.367841
v -0.518189 0.908616 -0.367841
v 0.518189 0.013670 -0.367841
v -0.447473 0.979332 -0.367841
v 0.518189 0.013670 0.368635
v -0.447473 0.979332 0.368635
v 0.447473 -0.057046 0.368635
v -0.518189 0.908616 0.368635
v 0.453832 0.078028 -0.271670
v -0.383116 0.914975 -0.271670
v -0.383116 0.914975 0.272464
v 0.453832 0.078028 0.272464
v 0.383116 0.007311 0.272464
v -0.453832 0.844259 0.272464
v -0.453832 0.844259 -0.271670
v 0.383116 0.007311 -0.271670
v -0.447473 -0.057046 0.367841
v 0.518189 0.908616 0.367841
v -0.518189 0.013670 0.367841
v 0.447473 0.979332 0.367841
v -0.518189 0.013670 -0.368635
v 0.447473 0.979332 -0.368635
v -0.447473 -0.057046 -0.368635
v 0.518189 0.908616 -0.368635
v -0.453832 0.078028 0.271670
v 0.383116 0.914975 0.271670
v 0.383116 0.914975 -0.272465
v -0.453832 0.078028 -0.272465
v -0.383116 0.007311 -0.272465
v 0.453832 0.844259 -0.272465
v 0.453832 0.844259 0.271670
v -0.383116 0.007311 0.271670
v -0.518189 0.908616 -0.294193
v -0.453832 0.844259 -0.242922
v -0.518189 0.908616 0.302352
v -0.453831 0.844259 0.249893
v 0.518189 0.908616 0.294193
v 0.453832 0.844259 0.242923
v 0.518189 0.908616 -0.302353
v 0.453832 0.844259 -0.249895
v 0.000000 0.914814 -0.300459
v 0.000000 0.914814 0.284161
v 0.000000 0.850457 0.258093
v 0.000000 0.850457 -0.274391
vt 0.325486 0.332195
vt 0.357052 0.332195
vt 0.325486 0.332195
vt 0.357052 0.332195
vt 0.270246 0.332195
vt 0.325486 0.332195
vt 0.270246 0.332195
vt 0.270246 0.332195
vt 0.357052 0.332195
vt 0.325486 0.332195
vt 0.325486 0.332195
vt 0.357052 0.332195
vt 0.325486 0.332195
vt 0.325486 0.332195
vt 0.270246 0.332195
vt 0.325486 0.332195
vt 0.173288 0.060201
vt 0.173288 0.060201
vt 0.173288 0.060201
vt 0.173288 0.060201
vt 0.173288 0.060201
vt 0.173288 0.060201
vt 0.173288 0.060201
vt 0.173288 0.060201
vt 0.199293 0.060201
vt 0.199293 0.060201
vt 0.325254 0.329213
vt 0.325254 0.329213
vt 0.199293 0.060201
vt 0.199293 0.060201
vt 0.199293 0.060201
vt 0.199293 0.060201
vt 0.231208 0.060201
vt 0.231208 0.060201
vt 0.231208 0.060201
vt 0.231208 0.060201
vt 0.231208 0.060201
vt 0.231208 0.060201
vt 0.231208 0.060201
vt 0.231208 0.060201
vt 0.231208 0.060201
vt 0.231208 0.060201
vt 0.231208 0.060201
vt 0.231208 0.060201
vt 0.102366 0.060201
vt 0.102366 0.060201
vt 0.102366 0.060201
vt 0.102366 0.060201
vt 0.102366 0.060201
vt 0.228327 0.329213
vt 0.228327 0.329213
vt 0.102366 0.060201
vt 0.102366 0.060201
vt 0.102366 0.060201
vt 0.102366 0.060201
vt 0.102366 0.060201
vt 0.102366 0.060201
vt 0.102366 0.060201
vt 0.102366 0.060201
vt 0.102366 0.060201
vt 0.142227 0.061316
vt 0.142226 0.061316
vt 0.142226 0.061316
vt 0.142227 0.061316
vt 0.142226 0.061316
vt 0.142226 0.061316
vt 0.142226 0.061316
vt 0.142226 0.061316
vt 0.142227 0.061316
vt 0.142227 0.061316
vt 0.268188 0.330328
vt 0.268188 0.330328
vt 0.142227 0.061316
vt 0.142227 0.061316
vt 0.142226 0.061316
vt 0.142226 0.061316
vt 0.173288 0.060201
vt 0.173288 0.060201
vt 0.173288 0.060201
vt 0.173288 0.060201
vt 0.173288 0.060201
vt 0.173288 0.060201
vt 0.173288 0.060201
vt 0.173288 0.060201
vt 0.199293 0.060201
vt 0.199293 0.060201
vt 0.325254 0.329213
vt 0.325254 0.329213
vt 0.199293 0.060201
vt 0.199293 0.060201
vt 0.199293 0.060201
vt 0.199293 0.060201
vt 0.231208 0.060201
vt 0.231208 0.060201
vt 0.231208 0.060201
vt 0.231208 0.060201
vt 0.231208 0.060201
vt 0.231208 0.060201
vt 0.231208 0.060201
vt 0.231208 0.060201
vt 0.231208 0.060201
vt 0.231208 0.060201
vt 0.231208 0.060201
vt 0.231208 0.060201
vt 0.102366 0.060201
vt 0.102366 0.060201
vt 0.102366 0.060201
vt 0.102366 0.060201
vt 0.102366 0.060201
vt 0.228327 0.329213
vt 0.228327 0.329213
vt 0.102366 0.060201
vt 0.102366 0.060201
vt 0.102366 0.060201
vt 0.102366 0.060201
vt 0.102366 0.060201
vt 0.102366 0.060201
vt 0.102366 0.060201
vt 0.102366 0.060201
vt 0.102366 0.060201
vt 0.142227 0.061316
vt 0.142226 0.061316
vt 0.142226 0.061316
vt 0.142227 0.061316
vt 0.142226 0.061316
vt 0.142226 0.061316
vt 0.142226 0.061316
vt 0.142226 0.061316
vt 0.142227 0.061316
vt 0.142227 0.061316
vt 0.268188 0.330328
vt 0.268188 0.330328
vt 0.142227 0.061316
vt 0.142227 0.061316
vt 0.142226 0.061316
vt 0.142226 0.061316
vt 0.231208 0.060201
vt 0.231208 0.060201
vt 0.231208 0.060201
vt 0.231208 0.060201
vt 0.199293 0.060201
vt 0.199293 0.060201
vt 0.102366 0.060201
vt 0.102366 0.060201
vt 0.142227 0.061316
vt 0.142227 0.061316
vt 0.199293 0.060201
vt 0.199293 0.060201
vt 0.231208 0.060201
vt 0.231208 0.060201
vt 0.231208 0.060201
vt 0.231208 0.060201
vt 0.142227 0.061316
vt 0.142227 0.061316
vt 0.102366 0.060201
vt 0.102366 0.060201
vt 0.231208 0.060201
vt 0.231208 0.060201
vt 0.231208 0.060201
vt 0.231208 0.060201
vt 0.199293 0.060201
vt 0.199293 0.060201
vt 0.102366 0.060201
vt 0.102366 0.060201
vt 0.142227 0.061316
vt 0.142227 0.061316
vt 0.199293 0.060201
vt 0.199293 0.060201
vt 0.231208 0.060201
vt 0.231208 0.060201
vt 0.231208 0.060201
vt 0.231208 0.060201
vt 0.142227 0.061316
vt 0.142227 0.061316
vt 0.102366 0.060201
vt 0.102366 0.060201
vt 0.268188 0.330328
vt 0.228327 0.329213
vt 0.199293 0.060201
vt 0.102366 0.060201
vt 0.268188 0.330328
vt 0.199293 0.060201
vt 0.142227 0.061316
vt 0.228327 0.329213
vt 0.102366 0.060201
vt 0.325254 0.329213
vt 0.142227 0.061316
vt 0.325254 0.329213
vt 0.268188 0.330328
vt 0.228327 0.329213
vt 0.199293 0.060201
vt 0.102366 0.060201
vt 0.268188 0.330328
vt 0.199293 0.060201
vt 0.142227 0.061316
vt 0.228327 0.329213
vt 0.102366 0.060201
vt 0.325254 0.329213
vt 0.142227 0.061316
vt 0.325254 0.329213
vt 0.325486 0.332195
vt 0.357052 0.332195
vt 0.357052 0.332195
vt 0.325486 0.332195
vt 0.325486 0.332195
vt 0.270246 0.332195
vt 0.270246 0.332195
vt 0.325486 0.332195
vn 0.008880 -0.402078 0.915563
vn 0.009165 -0.402088 0.915555
vn 0.071208 -0.403462 0.912221
vn 0.071208 -0.403462 0.912222
vn -0.142707 0.989765 0.000000
vn -0.142707 0.989765 0.000000
vn -0.142707 0.989765 0.000000
vn -0.142707 0.989765 0.000000
vn -0.009166 -0.402084 -0.915557
vn -0.008881 -0.402074 -0.915564
vn 0.053448 -0.399122 -0.915339
vn 0.053448 -0.399122 -0.915339
vn 0.166065 -0.986115 0.000000
vn 0.166065 -0.986115 0.000000
vn 0.166065 -0.986115 0.000000
vn 0.166065 -0.986115 0.000000
vn -0.000000 0.000000 -1.000000
vn -0.000000 0.000000 -1.000000
vn -0.000000 0.000000 -1.000000
vn -0.000000 0.000000 -1.000000
vn -0.000000 0.000000 1.000000
vn -0.000000 0.000000 1.000000
vn -0.000000 0.000000 1.000000
vn -0.000000 0.000000 1.000000
vn -0.707108 0.707106 0.000000
vn -0.707108 0.707106 0.000000
vn -0.707108 0.707106 -0.000000
vn -0.707108 0.707106 0.000000
vn 0.707107 -0.707107 0.000000
vn 0.707107 -0.707107 0.000000
vn 0.707107 -0.707107 0.000000
vn 0.707107 -0.707107 0.000000
vn 0.707107 0.707107 -0.000000
vn 0.707107 0.707107 -0.000001
vn 0.707107 0.707107 -0.000001
vn 0.707107 0.707107 -0.000000
vn 0.707107 0.707107 0.000001
vn 0.707107 0.707107 0.000000
vn 0.707107 0.707107 0.000000
vn 0.707107 0.707107 0.000000
vn 0.707107 0.707107 0.000000
vn 0.707107 0.707107 -0.000000
vn 0.707107 0.707107 -0.000000
vn 0.707107 0.707107 0.000000
vn -0.707107 -0.707107 -0.000000
vn -0.707107 -0.707107 -0.000000
vn -0.707107 -0.707107 -0.000000
vn -0.707107 -0.707107 -0.000000
vn -0.707106 -0.707107 0.000000
vn -0.707106 -0.707107 -0.000000
vn -0.707106 -0.707107 0.000000
vn -0.707106 -0.707107 0.000000
vn -0.707107 -0.707107 0.000000
vn -0.707107 -0.707107 0.000000
vn -0.707107 -0.707107 0.000000
vn -0.707107 -0.707107 0.000000
vn -0.707107 -0.707107 0.000000
vn -0.707107 -0.707107 -0.000000
vn -0.707107 -0.707107 -0.000000
vn -0.707107 -0.707107 0.000000
vn 0.000000 0.000000 -1.000000
vn 0.000000 0.000000 -1.000000
vn 0.000000 0.000000 -1.000000
vn 0.000000 0.000000 -1.000000
vn -0.707107 0.707106 0.000000
vn -0.707107 0.707106 0.000000
vn -0.707107 0.707106 0.000000
vn -0.707107 0.707106 0.000000
vn 0.707108 -0.707106 0.000000
vn 0.707108 -0.707106 -0.000000
vn 0.707108 -0.707106 -0.000000
vn 0.707108 -0.707106 -0.000000
vn 0.000000 0.000000 1.000000
vn 0.000000 0.000000 1.000000
vn 0.000000 0.000000 1.000000
vn 0.000000 0.000000 1.000000
vn 0.000000 0.000000 1.000000
vn 0.000000 0.000000 1.000000
vn 0.000000 0.000000 1.000000
vn 0.000000 0.000000 1.000000
vn 0.000000 0.000000 -1.000000
vn 0.000000 0.000000 -1.000000
vn 0.000000 0.000000 -1.000000
vn 0.000000 0.000000 -1.000000
vn 0.707107 0.707107 0.000000
vn 0.707107 0.707107 0.000000
vn 0.707107 0.707107 0.000000
vn 0.707107 0.707107 0.000000
vn -0.707107 -0.707107 0.000000
vn -0.707107 -0.707107 0.000000
vn -0.707107 -0.707107 0.000000
vn -0.707107 -0.707107 0.000000
vn -0.707107 0.707107 0.000000
vn -0.707107 0.707107 0.000001
vn -0.707107 0.707107 0.000001
vn -0.707107 0.707107 0.000000
vn -0.707107 0.707107 -0.000001
vn -0.707107 0.707107 -0.000000
vn -0.707107 0.707107 -0.000000
vn -0.707107 0.707107 -0.000001
vn -0.707107 0.707107 -0.000000
vn -0.707107 0.707107 0.000000
vn -0.707107 0.707107 0.000000
vn -0.707107 0.707107 -0.000000
vn 0.707107 -0.707107 0.000000
vn 0.707107 -0.707107 0.000000
vn 0.707107 -0.707107 0.000000
vn 0.707107 -0.707107 0.000000
vn 0.707107 -0.707107 0.000000
vn 0.707107 -0.707107 -0.000000
vn 0.707107 -0.707107 0.000000
vn 0.707107 -0.707107 0.000000
vn 0.707107 -0.707107 -0.000000
vn 0.707107 -0.707107 -0.000000
vn 0.707107 -0.707107 -0.000000
vn 0.707107 -0.707107 -0.000000
vn 0.707107 -0.707107 -0.000000
vn 0.707107 -0.707107 0.000000
vn 0.707107 -0.707107 0.000000
vn 0.707107 -0.707107 -0.000000
vn -0.000000 0.000000 1.000000
vn -0.000000 0.000000 1.000000
vn -0.000000 0.000000 1.000000
vn -0.000000 0.000000 1.000000
vn 0.707107 0.707106 0.000000
vn 0.707107 0.707106 0.000000
vn 0.707107 0.707106 0.000000
vn 0.707107 0.707106 0.000000
vn -0.707107 -0.707107 -0.000000
vn -0.707107 -0.707107 -0.000000
vn -0.707107 -0.707107 -0.000000
vn -0.707107 -0.707107 -0.000000
vn -0.000000 0.000000 -1.000000
vn -0.000000 0.000000 -1.000000
vn -0.000000 0.000000 -1.000000
vn -0.000000 0.000000 -1.000000
vn 0.707107 0.707107 -0.000001
vn 0.707106 0.707108 0.000000
vn 0.707106 0.707108 0.000000
vn 0.707107 0.707107 -0.000001
vn -0.707107 0.707107 0.000000
vn -0.707108 0.707106 0.000000
vn -0.707108 0.707106 0.000000
vn -0.707107 0.707107 0.000000
vn -0.707106 -0.707107 0.000000
vn -0.707106 -0.707107 0.000000
vn -0.707107 -0.707107 0.000000
vn -0.707107 -0.707107 0.000000
vn 0.707108 -0.707106 -0.000000
vn 0.707108 -0.707106 -0.000000
vn 0.707107 -0.707106 0.000000
vn 0.707107 -0.707106 0.000000
vn -0.707108 0.707106 0.000000
vn -0.707108 0.707106 -0.000000
vn -0.707108 0.707106 -0.000001
vn -0.707108 0.707106 -0.000001
vn 0.707106 0.707107 0.000000
vn 0.707106 0.707107 0.000000
vn 0.707107 0.707107 0.000001
vn 0.707107 0.707107 0.000000
vn 0.707107 -0.707106 0.000004
vn 0.707107 -0.707106 0.000004
vn 0.707108 -0.707106 -0.000000
vn 0.707108 -0.707106 0.000000
vn -0.707107 -0.707107 -0.000000
vn -0.707106 -0.707107 -0.000000
vn -0.707106 -0.707107 0.000000
vn -0.707107 -0.707107 -0.000000
vn -0.707107 0.707107 0.000001
vn -0.707106 0.707108 0.000000
vn -0.707106 0.707108 0.000000
vn -0.707107 0.707107 0.000001
vn 0.707107 0.707106 0.000000
vn 0.707107 0.707107 0.000000
vn 0.707107 0.707107 0.000000
vn 0.707107 0.707106 0.000000
vn 0.707107 -0.707107 0.000000
vn 0.707107 -0.707107 0.000000
vn 0.707107 -0.707107 -0.000000
vn 0.707107 -0.707107 -0.000000
vn -0.707107 -0.707107 -0.000000
vn -0.707107 -0.707107 -0.000000
vn -0.707107 -0.707106 0.000000
vn -0.707107 -0.707106 0.000000
vn 0.707107 0.707107 0.000000
vn 0.707107 0.707107 0.000000
vn 0.707107 0.707106 0.000000
vn 0.707107 0.707106 0.000000
vn -0.707106 0.707108 0.000000
vn -0.707106 0.707108 0.000000
vn -0.707107 0.707107 -0.000001
vn -0.707107 0.707107 -0.000001
vn -0.707108 -0.707106 0.000009
vn -0.707108 -0.707106 0.000009
vn -0.707107 -0.707107 -0.000000
vn -0.707107 -0.707107 -0.000000
vn 0.707107 -0.707107 0.000000
vn 0.707107 -0.707107 -0.000000
vn 0.707107 -0.707107 0.000000
vn 0.707107 -0.707107 0.000000
vn 0.142707 0.989765 0.000000
vn 0.142707 0.989765 0.000000
vn 0.142707 0.989765 0.000000
vn 0.142707 0.989765 0.000000
vn -0.053450 -0.399128 0.915336
vn 0.009165 -0.402088 0.915555
vn 0.008880 -0.402078 0.915563
vn -0.053450 -0.399128 0.915336
vn -0.166065 -0.986115 0.000000
vn -0.166065 -0.986115 0.000000
vn -0.166065 -0.986115 0.000000
vn -0.166065 -0.986115 0.000000
vn -0.071208 -0.403462 -0.912222
vn -0.008881 -0.402074 -0.915564
vn -0.009166 -0.402084 -0.915557
vn -0.071208 -0.403462 -0.912222
s off
f 50/204/1 51/205/2 2/1/3 4/14/4
f 49/202/5 50/203/6 4/9/7 6/4/8
f 52/208/9 49/201/10 6/10/11 8/6/12
f 51/206/13 52/207/14 8/15/15 2/8/16
f 9/17/17 10/18/18 12/19/19 11/20/20
f 13/21/21 14/22/22 16/23/23 15/24/24
f 5/200/25 41/198/26 43/27/27 3/28/28
f 15/29/29 9/30/30 11/31/31 13/32/32
f 11/33/33 12/34/34 18/35/35 17/36/36
f 14/37/37 13/38/38 20/39/39 19/40/40
f 13/41/41 11/42/42 17/43/43 20/44/44
f 15/45/45 16/46/46 22/47/47 21/48/48
f 44/190/49 43/50/50 41/51/51 42/196/52
f 10/53/53 9/54/54 24/55/55 23/56/56
f 9/57/57 15/58/58 21/59/59 24/60/60
f 19/61/61 20/62/62 21/63/63 22/64/64
f 20/65/65 17/66/66 24/67/67 21/68/68
f 1/193/69 44/189/70 42/71/71 7/72/72
f 18/73/73 23/74/74 24/75/75 17/76/76
f 25/77/77 26/78/78 28/79/79 27/80/80
f 29/81/81 30/82/82 32/83/83 31/84/84
f 4/188/85 45/186/86 47/87/87 6/88/88
f 31/89/89 25/90/90 27/91/91 29/92/92
f 27/93/93 28/94/94 34/95/95 33/96/96
f 30/97/97 29/98/98 36/99/99 35/100/100
f 29/101/101 27/102/102 33/103/103 36/104/104
f 31/105/105 32/106/106 38/107/107 37/108/108
f 48/178/109 47/110/110 45/111/111 46/184/112
f 26/113/113 25/114/114 40/115/115 39/116/116
f 25/117/117 31/118/118 37/119/119 40/120/120
f 35/121/121 36/122/122 37/123/123 38/124/124
f 36/125/125 33/126/126 40/127/127 37/128/128
f 8/181/129 48/177/130 46/131/131 2/132/132
f 34/133/133 39/134/134 40/135/135 33/136/136
f 12/137/137 5/138/138 7/139/139 18/140/140
f 10/141/141 41/26/142 5/25/143 12/142/144
f 42/52/145 41/197/146 10/143/147 23/144/148
f 7/199/149 42/195/150 23/145/151 18/146/152
f 3/194/153 43/191/154 16/147/155 14/148/156
f 1/149/157 3/150/158 14/151/159 19/152/160
f 19/153/161 22/154/162 44/70/163 1/69/164
f 16/155/165 43/192/166 44/49/167 22/156/168
f 28/157/169 4/158/170 2/159/171 34/160/172
f 26/161/173 45/86/174 4/85/175 28/162/176
f 46/112/177 45/185/178 26/163/179 39/164/180
f 2/187/181 46/183/182 39/165/183 34/166/184
f 6/182/185 47/179/186 32/167/187 30/168/188
f 8/169/189 6/170/190 30/171/191 35/172/192
f 35/173/193 38/174/194 48/130/195 8/129/196
f 32/175/197 47/180/198 48/109/199 38/176/200
f 3/2/201 50/203/202 49/202/203 5/12/204
f 1/13/205 51/205/206 50/204/207 3/11/208
f 7/5/209 52/207/210 51/206/211 1/7/212
f 5/3/213 49/201/214 52/208/215 7/16/216
