# This file uses meters as units for non-parametric coordinates.

v -0.165957 3.075221 0.262807
v -0.053086 3.075221 0.262807
v -0.165957 0.000000 0.262807
v -0.053086 0.000000 0.262807
v -0.219044 3.129347 0.262807
v 0.000000 3.129347 0.262807
v 0.000000 0.000000 0.262807
v -0.219044 0.000000 0.262807
v -0.219044 3.129347 0.000000
v 0.000000 3.129347 0.000000
v 0.000000 0.000000 0.000000
v -0.219044 0.000000 0.000000
v -0.165957 0.000000 0.659736
v -0.165957 3.075221 0.659736
v -0.053086 3.075221 0.659736
v -0.053086 0.000000 0.659736
v -0.165957 0.000000 0.738215
v -0.165957 3.075221 0.738214
v -0.053086 3.075221 0.738214
v -0.053086 0.000000 0.738215
v -0.165957 0.000000 1.126301
v -0.165957 3.075221 1.126302
v -0.053086 3.075221 1.126302
v -0.053086 0.000000 1.126301
v -0.165957 0.000000 1.204435
v -0.165957 3.075221 1.204435
v -0.053086 3.075221 1.204435
v -0.053086 0.000000 1.204435
v -0.165957 0.000000 1.605677
v -0.165957 3.075221 1.605676
v -0.053086 3.075221 1.605676
v -0.053086 0.000000 1.605677
v -0.165957 0.000000 1.703638
v -0.053086 0.000000 1.703638
v -0.165957 -0.000000 2.120805
v -0.053086 -0.000000 2.120805
v -0.165957 0.000000 2.203920
v -0.053086 0.000000 2.203920
v -0.165957 0.000000 2.631431
v -0.053086 0.000000 2.631431
v -0.165957 0.000000 2.721337
v -0.053086 0.000000 2.721337
v -0.053086 0.000000 3.197552
v -0.165957 0.000000 3.197552
v -0.053086 0.000000 3.310162
v -0.165957 0.000000 3.310162
v -0.053086 0.000000 3.802603
v -0.165957 0.000000 3.802603
v -0.165957 0.154049 3.926473
v -0.053086 0.154049 3.926473
v -0.053086 0.000000 3.926474
v -0.165957 0.000000 3.926474
v -0.165957 0.154049 4.451862
v -0.053086 0.154049 4.451862
v -0.053086 0.000000 4.451862
v -0.165957 0.000000 4.451862
v -0.165957 0.100105 3.926474
v -0.165957 0.100105 3.802603
v -0.165957 0.100105 3.310162
v -0.165957 0.100105 3.197552
v -0.165957 0.780607 3.197552
v -0.165957 0.780607 2.721337
v -0.165957 0.343008 2.721337
v -0.165957 0.343008 2.631431
v -0.165957 0.343008 2.203920
v -0.165957 0.343008 2.120805
v -0.165957 2.300871 2.120804
v -0.165957 2.300871 1.703637
v -0.165957 2.300871 1.605676
v -0.053086 0.100105 3.197552
v -0.053086 0.100105 3.310162
v -0.053086 0.100105 3.802603
v -0.053086 0.100105 3.926474
v -0.053086 0.780607 3.197552
v -0.053086 0.780607 2.721337
v -0.053086 2.300871 2.120804
v -0.053086 2.300871 1.703637
v -0.053086 2.300871 1.605676
v -0.053086 0.343008 2.120805
v -0.053086 0.343008 2.203920
v -0.053086 0.343008 2.631431
v -0.053086 0.343008 2.721337
v 0.696938 0.006164 2.056832
v 0.332081 0.006164 3.736712
v 0.696938 0.109420 2.056832
v 0.332081 0.109420 3.736712
v 1.025376 0.109420 2.155154
v 0.660521 0.109420 3.835034
v 1.025376 0.006164 2.155154
v 0.660521 0.006164 3.835034
v -1.251700 0.006164 3.754213
v -0.659635 0.006164 4.653823
v -1.251700 0.109420 3.754213
v -0.659635 0.109420 4.653823
v -0.968707 0.109420 3.516155
v -0.376642 0.109420 4.415766
v -0.968707 0.006164 3.516155
v -0.376642 0.006164 4.415766
vt 0.421002 0.398526
vt 0.421002 0.398526
vt 0.421002 0.398526
vt 0.421002 0.398526
vt 0.270913 0.398526
vt 0.270913 0.398526
vt 0.270913 0.398526
vt 0.270913 0.398526
vt 0.389140 0.398526
vt 0.389140 0.398526
vt 0.389140 0.398526
vt 0.389140 0.398526
vt 0.389140 0.398526
vt 0.389140 0.398526
vt 0.389140 0.398526
vt 0.389140 0.398526
vt 0.238212 0.398526
vt 0.238212 0.398526
vt 0.238212 0.398526
vt 0.238212 0.398526
vt 0.238212 0.398526
vt 0.238212 0.398526
vt 0.238212 0.398526
vt 0.238212 0.398526
vt 0.238212 0.398526
vt 0.238212 0.398526
vt 0.238212 0.398526
vt 0.238212 0.398526
vt 0.355600 0.398526
vt 0.355600 0.398526
vt 0.355600 0.398526
vt 0.355600 0.398526
vt 0.323738 0.398526
vt 0.323738 0.398526
vt 0.323738 0.398526
vt 0.323738 0.398526
vt 0.323738 0.398526
vt 0.323738 0.398526
vt 0.323738 0.398526
vt 0.323738 0.398526
vt 0.303614 0.398526
vt 0.303614 0.398526
vt 0.303614 0.398526
vt 0.303614 0.398526
vt 0.325415 0.398526
vt 0.325415 0.398526
vt 0.325415 0.398526
vt 0.325415 0.398526
vt 0.303614 0.398526
vt 0.303614 0.398526
vt 0.303614 0.398526
vt 0.303614 0.398526
vt 0.389140 0.398526
vt 0.389140 0.398526
vt 0.389140 0.398526
vt 0.389140 0.398526
vt 0.421002 0.398526
vt 0.421002 0.398526
vt 0.421002 0.398526
vt 0.421002 0.398526
vt 0.389140 0.398526
vt 0.389140 0.398526
vt 0.389140 0.398526
vt 0.389140 0.398526
vt 0.303614 0.398526
vt 0.303614 0.398526
vt 0.303614 0.398526
vt 0.303614 0.398526
vt 0.325415 0.398526
vt 0.325415 0.398526
vt 0.325415 0.398526
vt 0.325415 0.398526
vt 0.303614 0.398526
vt 0.303614 0.398526
vt 0.303614 0.398526
vt 0.303614 0.398526
vt 0.389140 0.398526
vt 0.389140 0.398526
vt 0.389140 0.398526
vt 0.389140 0.398526
vt 0.389140 0.398526
vt 0.421002 0.398526
vt 0.421002 0.398526
vt 0.421002 0.398526
vt 0.421002 0.398526
vt 0.389140 0.398526
vt 0.389140 0.398526
vt 0.389140 0.398526
vt 0.389140 0.398526
vt 0.389140 0.398526
vt 0.303614 0.398526
vt 0.303614 0.398526
vt 0.303614 0.398526
vt 0.303614 0.398526
vt 0.389140 0.398526
vt 0.389140 0.398526
vt 0.389140 0.398526
vt 0.389140 0.398526
vt 0.389140 0.398526
vt 0.303614 0.398526
vt 0.303614 0.398526
vt 0.303614 0.398526
vt 0.303614 0.398526
vt 0.303614 0.398526
vt 0.303614 0.398526
vt 0.303614 0.398526
vt 0.303614 0.398526
vt 0.389140 0.398526
vt 0.389140 0.398526
vt 0.389140 0.398526
vt 0.389140 0.398526
vt 0.389140 0.398526
vt 0.389140 0.398526
vt 0.389140 0.398526
vt 0.389140 0.398526
vt 0.303614 0.398526
vt 0.303614 0.398526
vt 0.303614 0.398526
vt 0.303614 0.398526
vt 0.303614 0.398526
vt 0.303614 0.398526
vt 0.303614 0.398526
vt 0.303614 0.398526
vt 0.389140 0.398526
vt 0.389140 0.398526
vt 0.389140 0.398526
vt 0.389140 0.398526
vt 0.389140 0.398526
vt 0.389140 0.398526
vt 0.303614 0.398526
vt 0.303614 0.398526
vt 0.303614 0.398526
vt 0.303614 0.398526
vt 0.303614 0.398526
vt 0.303614 0.398526
vt 0.303614 0.398526
vt 0.303614 0.398526
vt 0.389140 0.398526
vt 0.389140 0.398526
vt 0.389140 0.398526
vt 0.389140 0.398526
vt 0.389140 0.398526
vt 0.389140 0.398526
vt 0.389140 0.398526
vt 0.389140 0.398526
vt 0.303614 0.398526
vt 0.303614 0.398526
vt 0.303614 0.398526
vt 0.303614 0.398526
vt 0.303614 0.398526
vt 0.303614 0.398526
vt 0.303614 0.398526
vt 0.303614 0.398526
vt 0.421002 0.398526
vt 0.421002 0.398526
vt 0.421002 0.398526
vt 0.421002 0.398526
vt 0.389140 0.398526
vt 0.389140 0.398526
vt 0.389140 0.398526
vt 0.389140 0.398526
vt 0.389140 0.398526
vt 0.389140 0.398526
vt 0.389140 0.398526
vt 0.389140 0.398526
vt 0.389140 0.398526
vt 0.389140 0.398526
vt 0.389140 0.398526
vt 0.389140 0.398526
vt 0.389140 0.398526
vt 0.389140 0.398526
vt 0.389140 0.398526
vt 0.389140 0.398526
vt 0.389140 0.398526
vt 0.389140 0.398526
vt 0.389140 0.398526
vt 0.389140 0.398526
vt 0.389140 0.398526
vt 0.303614 0.398526
vt 0.303614 0.398526
vt 0.303614 0.398526
vt 0.303614 0.398526
vt 0.296471 0.399673
vt 0.296471 0.399673
vt 0.296471 0.399673
vt 0.296471 0.399673
vt 0.432031 0.399673
vt 0.432031 0.399673
vt 0.432031 0.399673
vt 0.432031 0.399673
vt 0.327081 0.399673
vt 0.327081 0.399673
vt 0.327081 0.399673
vt 0.327081 0.399673
vt 0.296471 0.399673
vt 0.296471 0.399673
vt 0.296471 0.399673
vt 0.296471 0.399673
vt 0.432031 0.399673
vt 0.432031 0.399673
vt 0.432031 0.399673
vt 0.432031 0.399673
vt 0.327081 0.399673
vt 0.327081 0.399673
vt 0.327081 0.399673
vt 0.327081 0.399673
vt 0.327081 0.399673
vt 0.327081 0.399673
vt 0.327081 0.399673
vt 0.327081 0.399673
vt 0.296471 0.399673
vt 0.296471 0.399673
vt 0.296471 0.399673
vt 0.296471 0.399673
vt 0.432031 0.399673
vt 0.432031 0.399673
vt 0.432031 0.399673
vt 0.432031 0.399673
vt 0.327081 0.399673
vt 0.327081 0.399673
vt 0.327081 0.399673
vt 0.327081 0.399673
vt 0.432031 0.399673
vt 0.432031 0.399673
vt 0.432031 0.399673
vt 0.432031 0.399673
vt 0.327081 0.399673
vt 0.327081 0.399673
vt 0.327081 0.399673
vt 0.327081 0.399673
vt 0.296471 0.399673
vt 0.296471 0.399673
vt 0.296471 0.399673
vt 0.296471 0.399673
vt 0.359793 0.396849
vt 0.359793 0.396849
vt 0.359793 0.396849
vt 0.359793 0.396849
vt 0.423518 0.396849
vt 0.423518 0.396849
vt 0.423518 0.396849
vt 0.423518 0.396849
vt 0.359793 0.396849
vt 0.359793 0.396849
vt 0.359793 0.396849
vt 0.359793 0.396849
vt 0.359793 0.396849
vt 0.359793 0.396849
vt 0.359793 0.396849
vt 0.359793 0.396849
vt 0.383270 0.396849
vt 0.383270 0.396849
vt 0.383270 0.396849
vt 0.383270 0.396849
vt 0.383270 0.396849
vt 0.383270 0.396849
vt 0.383270 0.396849
vt 0.383270 0.396849
vt 0.359793 0.396849
vt 0.359793 0.396849
vt 0.359793 0.396849
vt 0.359793 0.396849
vt 0.423518 0.396849
vt 0.423518 0.396849
vt 0.423518 0.396849
vt 0.423518 0.396849
vt 0.359793 0.396849
vt 0.359793 0.396849
vt 0.359793 0.396849
vt 0.359793 0.396849
vt 0.359793 0.396849
vt 0.359793 0.396849
vt 0.359793 0.396849
vt 0.359793 0.396849
vt 0.383270 0.396849
vt 0.383270 0.396849
vt 0.383270 0.396849
vt 0.383270 0.396849
vt 0.383270 0.396849
vt 0.383270 0.396849
vt 0.383270 0.396849
vt 0.383270 0.396849
vt 0.272927 0.405676
vt 0.272927 0.405676
vt 0.272927 0.405676
vt 0.272927 0.405676
vt 0.284379 0.397279
vt 0.284379 0.397279
vt 0.284379 0.397279
vt 0.284379 0.397279
vn 0.000000 1.000000 0.000000
vn 0.000000 1.000000 0.000000
vn 0.000000 1.000000 0.000000
vn 0.000000 1.000000 0.000000
vn 0.000000 0.000000 -1.000000
vn 0.000000 0.000000 -1.000000
vn 0.000000 0.000000 -1.000000
vn 0.000000 0.000000 -1.000000
vn 1.000000 0.000000 0.000000
vn 1.000000 0.000000 0.000000
vn 1.000000 0.000000 0.000000
vn 1.000000 0.000000 0.000000
vn -1.000000 0.000000 0.000000
vn -1.000000 0.000000 0.000000
vn -1.000000 0.000000 0.000000
vn -1.000000 0.000000 0.000000
vn 0.000000 0.000000 1.000000
vn -0.000000 0.000000 1.000000
vn -0.000000 0.000000 1.000000
vn 0.000000 0.000000 1.000000
vn -0.000000 0.000000 1.000000
vn -0.000000 0.000000 1.000000
vn -0.000000 0.000000 1.000000
vn -0.000000 0.000000 1.000000
vn 0.000000 0.000000 1.000000
vn 0.000000 0.000000 1.000000
vn 0.000000 0.000000 1.000000
vn 0.000000 0.000000 1.000000
vn 0.000000 1.000000 0.000000
vn 0.000000 1.000000 0.000000
vn 0.000000 1.000000 0.000000
vn 0.000000 1.000000 0.000000
vn 1.000000 0.000000 0.000000
vn 1.000000 0.000000 0.000000
vn 1.000000 0.000000 0.000000
vn 1.000000 0.000000 0.000000
vn -1.000000 0.000000 0.000000
vn -1.000000 0.000000 0.000000
vn -1.000000 0.000000 0.000000
vn -1.000000 0.000000 0.000000
vn -1.000000 0.000000 0.000000
vn -1.000000 0.000000 0.000000
vn -1.000000 0.000000 0.000000
vn -1.000000 0.000000 0.000000
vn 0.000000 1.000000 0.000000
vn 0.000000 1.000000 0.000000
vn 0.000000 1.000000 0.000000
vn 0.000000 1.000000 0.000000
vn 1.000000 0.000000 0.000000
vn 1.000000 0.000000 0.000000
vn 1.000000 0.000000 0.000000
vn 1.000000 0.000000 0.000000
vn -1.000000 0.000000 0.000000
vn -1.000000 0.000000 0.000000
vn -1.000000 0.000000 0.000000
vn -1.000000 0.000000 0.000000
vn 0.000000 1.000000 0.000000
vn 0.000000 1.000000 0.000000
vn 0.000000 1.000000 0.000000
vn 0.000000 1.000000 0.000000
vn 1.000000 0.000000 0.000000
vn 1.000000 0.000000 0.000000
vn 1.000000 0.000000 0.000000
vn 1.000000 0.000000 0.000000
vn -1.000000 0.000000 0.000000
vn -1.000000 0.000000 0.000000
vn -1.000000 0.000000 0.000000
vn -1.000000 0.000000 0.000000
vn 0.000000 1.000000 0.000000
vn 0.000000 1.000000 0.000000
vn 0.000000 1.000000 0.000000
vn 0.000000 1.000000 0.000000
vn 1.000000 0.000000 0.000000
vn 1.000000 0.000000 0.000000
vn 1.000000 0.000000 0.000000
vn 1.000000 0.000000 0.000000
vn -1.000000 0.000000 0.000000
vn -1.000000 0.000000 0.000000
vn -1.000000 -0.000000 0.000000
vn -1.000000 -0.000000 0.000000
vn -1.000000 0.000000 0.000000
vn 0.000000 1.000000 0.000000
vn 0.000000 1.000000 0.000000
vn 0.000000 1.000000 0.000000
vn 0.000000 1.000000 0.000000
vn 1.000000 0.000000 0.000000
vn 1.000000 0.000000 0.000000
vn 1.000000 0.000000 0.000000
vn 1.000000 0.000000 0.000000
vn 1.000000 0.000000 0.000000
vn -1.000000 0.000000 0.000000
vn -1.000000 -0.000000 0.000000
vn -1.000000 -0.000000 0.000000
vn -1.000000 0.000000 0.000000
vn -1.000000 0.000000 0.000000
vn -1.000000 0.000000 0.000000
vn -1.000000 0.000000 0.000000
vn -1.000000 0.000000 0.000000
vn -1.000000 0.000000 0.000000
vn -1.000000 0.000000 0.000000
vn -1.000000 0.000000 0.000000
vn -1.000000 0.000000 0.000000
vn -1.000000 0.000000 0.000000
vn 1.000000 0.000000 0.000000
vn 1.000000 0.000000 0.000000
vn 1.000000 0.000000 0.000000
vn 1.000000 0.000000 0.000000
vn -1.000000 0.000000 0.000000
vn -1.000000 0.000000 0.000000
vn -1.000000 0.000000 0.000000
vn -1.000000 0.000000 0.000000
vn 1.000000 0.000000 0.000000
vn 1.000000 0.000000 0.000000
vn 1.000000 0.000000 0.000000
vn 1.000000 0.000000 0.000000
vn -1.000000 0.000000 0.000000
vn -1.000000 0.000000 0.000000
vn -1.000000 0.000000 0.000000
vn -1.000000 0.000000 0.000000
vn 1.000000 0.000000 0.000000
vn 1.000000 0.000000 0.000000
vn 1.000000 0.000000 0.000000
vn 1.000000 0.000000 0.000000
vn -1.000000 0.000000 0.000000
vn -1.000000 0.000000 0.000000
vn -1.000000 0.000000 0.000000
vn -1.000000 0.000000 0.000000
vn -1.000000 0.000000 0.000000
vn -1.000000 0.000000 0.000000
vn 1.000000 0.000000 0.000000
vn 1.000000 0.000000 0.000000
vn 1.000000 0.000000 0.000000
vn 1.000000 0.000000 0.000000
vn -1.000000 0.000000 0.000000
vn -1.000000 0.000000 0.000000
vn -1.000000 0.000000 0.000000
vn -1.000000 0.000000 0.000000
vn 1.000000 0.000000 0.000000
vn 1.000000 0.000000 0.000000
vn 1.000000 0.000000 0.000000
vn 1.000000 0.000000 0.000000
vn -1.000000 0.000000 0.000000
vn -1.000000 0.000000 0.000000
vn -1.000000 0.000000 0.000000
vn -1.000000 0.000000 0.000000
vn 1.000000 0.000000 0.000000
vn 1.000000 0.000000 0.000000
vn 1.000000 0.000000 0.000000
vn 1.000000 0.000000 0.000000
vn -1.000000 0.000000 0.000000
vn -1.000000 0.000000 0.000000
vn -1.000000 0.000000 0.000000
vn -1.000000 0.000000 0.000000
vn 0.000000 1.000000 0.000000
vn 0.000000 1.000000 0.000000
vn 0.000000 1.000000 0.000000
vn 0.000000 1.000000 0.000000
vn 1.000000 0.000000 0.000000
vn 1.000000 0.000000 0.000000
vn 1.000000 0.000000 0.000000
vn 1.000000 0.000000 0.000000
vn 1.000000 0.000000 0.000000
vn -1.000000 0.000000 0.000000
vn -1.000000 0.000000 0.000000
vn -1.000000 0.000000 0.000000
vn -1.000000 0.000000 0.000000
vn -1.000000 0.000000 0.000000
vn 1.000000 0.000000 0.000000
vn 1.000000 0.000000 0.000000
vn 1.000000 0.000000 0.000000
vn 1.000000 0.000000 0.000000
vn 1.000000 0.000000 0.000000
vn 1.000000 0.000000 0.000000
vn 1.000000 0.000000 0.000000
vn 1.000000 0.000000 0.000000
vn 1.000000 0.000000 0.000000
vn 1.000000 0.000000 0.000000
vn 1.000000 0.000000 0.000000
vn 1.000000 0.000000 0.000000
vn 1.000000 0.000000 0.000000
vn 1.000000 0.000000 0.000000
vn 1.000000 0.000000 0.000000
vn 0.000000 0.000000 1.000000
vn 0.000000 0.000000 1.000000
vn 0.000000 0.000000 1.000000
vn 0.000000 0.000000 1.000000
vn 0.000000 1.000000 0.000000
vn 0.000000 1.000000 0.000000
vn 0.000000 1.000000 0.000000
vn 0.000000 1.000000 0.000000
vn 0.000000 1.000000 0.000000
vn 0.000000 1.000000 0.000000
vn 0.000000 1.000000 0.000000
vn 0.000000 1.000000 0.000000
vn 0.000000 0.000001 1.000000
vn 0.000000 0.000001 1.000000
vn 0.000000 0.000001 1.000000
vn 0.000000 0.000001 1.000000
vn 0.000000 1.000000 0.000000
vn 0.000000 1.000000 0.000000
vn 0.000000 1.000000 0.000000
vn 0.000000 1.000000 0.000000
vn 0.000000 1.000000 0.000000
vn 0.000000 1.000000 0.000000
vn 0.000000 1.000000 0.000000
vn 0.000000 1.000000 0.000000
vn 0.000000 1.000000 0.000000
vn 0.000000 1.000000 0.000000
vn 0.000000 1.000000 0.000000
vn 0.000000 1.000000 0.000000
vn 0.000000 0.000000 -1.000000
vn 0.000000 0.000000 -1.000000
vn 0.000000 0.000000 -1.000000
vn 0.000000 0.000000 -1.000000
vn 0.000000 1.000000 0.000000
vn 0.000000 1.000000 0.000000
vn 0.000000 1.000000 0.000000
vn 0.000000 1.000000 0.000000
vn 0.000000 1.000000 0.000000
vn 0.000000 1.000000 0.000000
vn 0.000000 1.000000 0.000000
vn 0.000000 1.000000 0.000000
vn 0.000000 1.000000 0.000000
vn 0.000000 1.000000 0.000000
vn 0.000000 1.000000 0.000000
vn 0.000000 1.000000 0.000000
vn 0.000000 1.000000 0.000000
vn 0.000000 1.000000 0.000000
vn 0.000000 1.000000 0.000000
vn 0.000000 1.000000 0.000000
vn 0.000000 -0.000022 -1.000000
vn 0.000000 -0.000022 -1.000000
vn 0.000000 -0.000022 -1.000000
vn 0.000000 -0.000022 -1.000000
vn -0.977217 0.000000 -0.212244
vn -0.977217 0.000000 -0.212244
vn -0.977217 0.000000 -0.212244
vn -0.977217 0.000000 -0.212244
vn 0.000000 1.000000 0.000000
vn 0.000000 1.000000 0.000000
vn 0.000000 1.000000 0.000000
vn 0.000000 1.000000 0.000000
vn 0.977217 0.000000 0.212243
vn 0.977217 0.000000 0.212243
vn 0.977217 0.000000 0.212243
vn 0.977217 0.000000 0.212243
vn 0.000000 -1.000000 0.000000
vn 0.000000 -1.000000 0.000000
vn 0.000000 -1.000000 0.000000
vn 0.000000 -1.000000 0.000000
vn -0.286785 0.000000 0.957995
vn -0.286785 0.000000 0.957995
vn -0.286785 0.000000 0.957995
vn -0.286785 0.000000 0.957995
vn 0.286787 0.000000 -0.957994
vn 0.286787 0.000000 -0.957994
vn 0.286787 0.000000 -0.957994
vn 0.286787 0.000000 -0.957994
vn -0.835325 0.000000 0.549757
vn -0.835325 0.000000 0.549757
vn -0.835325 0.000000 0.549757
vn -0.835325 0.000000 0.549757
vn 0.000000 1.000000 0.000000
vn 0.000000 1.000000 0.000000
vn 0.000000 1.000000 0.000000
vn 0.000000 1.000000 0.000000
vn 0.835325 0.000000 -0.549757
vn 0.835325 0.000000 -0.549757
vn 0.835325 0.000000 -0.549757
vn 0.835325 0.000000 -0.549757
vn 0.000000 -1.000000 0.000000
vn 0.000000 -1.000000 0.000000
vn 0.000000 -1.000000 0.000000
vn 0.000000 -1.000000 0.000000
vn 0.643735 0.000000 0.765248
vn 0.643735 0.000000 0.765248
vn 0.643735 0.000000 0.765248
vn 0.643735 0.000000 0.765248
vn -0.643738 0.000000 -0.765246
vn -0.643738 0.000000 -0.765246
vn -0.643738 0.000000 -0.765246
vn -0.643738 0.000000 -0.765246
vn 0.000000 0.000000 1.000000
vn 0.000000 0.000000 1.000000
vn 0.000000 0.000000 1.000000
vn 0.000000 0.000000 1.000000
vn 0.000000 0.000000 1.000000
vn 0.000000 0.000000 1.000000
vn 0.000000 0.000000 1.000000
vn 0.000000 0.000000 1.000000
s off
f 14/1/1 15/2/2 2/3/3 1/4/4
f 9/5/5 10/6/6 11/7/7 12/8/8
f 15/9/9 16/10/10 4/11/11 2/12/12
f 3/13/13 13/14/14 14/15/15 1/16/16
f 1/17/17 2/18/18 6/19/19 5/20/20
f 2/21/21 4/22/22 7/23/23 6/24/24
f 3/25/25 1/26/26 5/27/27 8/28/28
f 5/29/29 6/30/30 10/31/31 9/32/32
f 6/33/33 7/34/34 11/35/35 10/36/36
f 8/37/37 5/38/38 9/39/39 12/40/40
f 14/41/41 13/42/42 17/43/43 18/44/44
f 18/45/45 19/46/46 15/47/47 14/48/48
f 19/49/49 20/50/50 16/51/51 15/52/52
f 18/53/53 17/54/54 21/55/55 22/56/56
f 22/57/57 23/58/58 19/59/59 18/60/60
f 23/61/61 24/62/62 20/63/63 19/64/64
f 22/65/65 21/66/66 25/67/67 26/68/68
f 26/69/69 27/70/70 23/71/71 22/72/72
f 27/73/73 28/74/74 24/75/75 23/76/76
f 26/77/77 25/78/78 29/79/79 69/80/80 30/81/81
f 30/82/82 31/83/83 27/84/84 26/85/85
f 31/86/86 78/87/87 32/88/88 28/89/89 27/90/90
f 68/91/91 69/92/92 29/93/93 33/94/94
f 67/95/95 68/96/96 33/97/97 35/98/98 66/99/99
f 65/100/100 66/101/101 35/102/102 37/103/103
f 79/104/104 80/105/105 38/106/106 36/107/107
f 64/108/108 65/109/109 37/110/110 39/111/111
f 80/112/112 81/113/113 40/114/114 38/115/115
f 63/116/116 64/117/117 39/118/118 41/119/119
f 81/120/120 82/121/121 42/122/122 40/123/123
f 61/124/124 62/125/125 63/126/126 41/127/127 44/128/128 60/129/129
f 70/130/130 71/131/131 45/132/132 43/133/133
f 59/134/134 60/135/135 44/136/136 46/137/137
f 71/138/138 72/139/139 47/140/140 45/141/141
f 58/142/142 59/143/143 46/144/144 48/145/145
f 72/146/146 73/147/147 51/148/148 47/149/149
f 57/150/150 58/151/151 48/152/152 52/153/153
f 53/154/154 54/155/155 50/156/156 49/157/157
f 54/158/158 55/159/159 51/160/160 73/161/161 50/162/162
f 49/163/163 57/164/164 52/165/165 56/166/166 53/167/167
f 75/168/168 74/169/169 70/170/170 43/171/171 42/172/172 82/173/173
f 77/174/174 76/175/175 79/176/176 36/177/177 34/178/178
f 78/179/179 77/180/180 34/181/181 32/182/182
f 78/183/183 31/184/184 30/185/185 69/186/186
f 76/187/187 77/188/188 68/189/189 67/190/190
f 69/191/191 68/192/192 77/193/193 78/194/194
f 79/195/195 76/196/196 67/197/197 66/198/198
f 81/199/199 80/200/200 65/201/201 64/202/202
f 80/203/203 79/204/204 66/205/205 65/206/206
f 82/207/207 81/208/208 64/209/209 63/210/210
f 75/211/211 82/212/212 63/213/213 62/214/214
f 74/215/215 75/216/216 62/217/217 61/218/218
f 71/219/219 70/220/220 60/221/221 59/222/222
f 72/223/223 71/224/224 59/225/225 58/226/226
f 73/227/227 72/228/228 58/229/229 57/230/230
f 50/231/231 73/232/232 57/233/233 49/234/234
f 83/235/235 84/236/236 86/237/237 85/238/238
f 85/239/239 86/240/240 88/241/241 87/242/242
f 87/243/243 88/244/244 90/245/245 89/246/246
f 89/247/247 90/248/248 84/249/249 83/250/250
f 84/251/251 90/252/252 88/253/253 86/254/254
f 89/255/255 83/256/256 85/257/257 87/258/258
f 91/259/259 92/260/260 94/261/261 93/262/262
f 93/263/263 94/264/264 96/265/265 95/266/266
f 95/267/267 96/268/268 98/269/269 97/270/270
f 97/271/271 98/272/272 92/273/273 91/274/274
f 92/275/275 98/276/276 96/277/277 94/278/278
f 97/279/279 91/280/280 93/281/281 95/282/282
f 53/283/283 56/284/284 55/285/285 54/286/286
f 70/287/287 74/288/288 61/289/289 60/290/290
