# This file uses meters as units for non-parametric coordinates.

v 0.473984 0.147826 -0.322479
v -0.474017 0.147826 -0.322479
v 0.473984 1.366969 -0.322479
v -0.474017 1.366969 -0.322479
v 0.473984 1.366969 0.322483
v -0.474011 1.366969 0.322483
v 0.473984 0.147826 0.322483
v -0.474011 0.147826 0.322483
v 0.216489 1.557101 -0.147293
v -0.216521 1.557101 -0.147293
v -0.216521 1.557101 0.147293
v 0.216489 1.557101 0.147293
v 0.700270 0.000000 -0.542488
v -0.700270 0.000000 -0.542488
v 0.700270 0.234847 -0.542488
v -0.700270 0.234847 -0.542488
v 0.700270 0.234847 0.542488
v -0.700270 0.234847 0.542488
v 0.700270 0.000000 0.542488
v -0.700270 0.000000 0.542488
v 0.376520 1.206804 0.306019
v -0.385747 1.206804 0.306019
v 0.376520 1.206804 0.401314
v -0.385747 1.206804 0.401314
v 0.376520 0.850759 0.401314
v -0.385747 0.850759 0.401314
v 0.376520 0.850759 0.306019
v -0.385747 0.850759 0.306019
v 0.303889 1.122795 0.401314
v -0.313116 1.122795 0.401314
v -0.313116 0.934768 0.401314
v 0.303889 0.934768 0.401314
v -0.385747 0.921968 0.306019
v -0.385747 0.921968 0.401314
v -0.313116 0.960770 0.401314
v 0.303889 0.960770 0.401314
v 0.376520 0.921968 0.401314
v 0.376520 0.921968 0.306019
v -0.385747 0.993177 0.306019
v -0.385747 0.993177 0.401314
v -0.313116 1.013943 0.401314
v 0.303889 1.013943 0.401314
v 0.376520 0.993177 0.401314
v 0.376520 0.993177 0.306019
v -0.385747 1.064386 0.306019
v -0.385747 1.064386 0.401314
v -0.313116 1.043620 0.401314
v 0.303889 1.043620 0.401314
v 0.376520 1.064386 0.401314
v 0.376520 1.064386 0.306019
v -0.385747 1.135595 0.306019
v -0.385747 1.135595 0.401314
v -0.313116 1.096793 0.401314
v 0.303889 1.096793 0.401314
v 0.376520 1.135595 0.401314
v 0.376520 1.135595 0.306019
vt 0.296067 0.064459
vt 0.296067 0.064459
vt 0.296067 0.064459
vt 0.296067 0.064459
vt 0.330112 0.064459
vt 0.296067 0.064459
vt 0.330112 0.064459
vt 0.296067 0.064459
vt 0.296067 0.064459
vt 0.296067 0.064459
vt 0.296067 0.064459
vt 0.296067 0.064459
vt 0.266718 0.064459
vt 0.266718 0.064459
vt 0.266718 0.064459
vt 0.266718 0.064459
vt 0.266718 0.064459
vt 0.266718 0.064459
vt 0.266718 0.064459
vt 0.266718 0.064459
vt 0.330112 0.064459
vt 0.330112 0.064459
vt 0.330112 0.064459
vt 0.296067 0.064459
vt 0.296067 0.064459
vt 0.296067 0.064459
vt 0.296067 0.064459
vt 0.296067 0.064459
vt 0.330112 0.064459
vt 0.296067 0.064459
vt 0.330112 0.064459
vt 0.330112 0.064459
vt 0.296067 0.064459
vt 0.296067 0.064459
vt 0.296067 0.064459
vt 0.296067 0.064459
vt 0.330112 0.064459
vt 0.330112 0.064459
vt 0.330112 0.064459
vt 0.330112 0.064459
vt 0.296067 0.064459
vt 0.296067 0.064459
vt 0.296067 0.064459
vt 0.296067 0.064459
vt 0.266718 0.064459
vt 0.266718 0.064459
vt 0.266718 0.064459
vt 0.266718 0.064459
vt 0.266718 0.064459
vt 0.266718 0.064459
vt 0.266718 0.064459
vt 0.266718 0.064459
vt 0.266718 0.064459
vt 0.266718 0.064459
vt 0.266718 0.064459
vt 0.266718 0.064459
vt 0.170454 0.064459
vt 0.170454 0.064459
vt 0.170454 0.064459
vt 0.170454 0.064459
vt 0.266718 0.064459
vt 0.266718 0.064459
vt 0.266718 0.064459
vt 0.266718 0.064459
vt 0.266718 0.064459
vt 0.266718 0.064459
vt 0.266718 0.064459
vt 0.266718 0.064459
vt 0.266718 0.064459
vt 0.266718 0.064459
vt 0.266718 0.064459
vt 0.266718 0.064459
vt 0.296067 0.064459
vt 0.296067 0.064459
vt 0.296067 0.064459
vt 0.296067 0.064459
vt 0.296067 0.064459
vt 0.296067 0.064459
vt 0.296067 0.064459
vt 0.296067 0.064459
vt 0.296067 0.064459
vt 0.296067 0.064459
vt 0.296067 0.064459
vt 0.296067 0.064459
vt 0.266718 0.064459
vt 0.266718 0.064459
vt 0.266718 0.064459
vt 0.266718 0.064459
vt 0.296067 0.064459
vt 0.296067 0.064459
vt 0.170454 0.064459
vt 0.170454 0.064459
vt 0.170454 0.064459
vt 0.170454 0.064459
vt 0.296067 0.064459
vt 0.296067 0.064459
vt 0.266718 0.064459
vt 0.266718 0.064459
vt 0.266718 0.064459
vt 0.266718 0.064459
vt 0.266718 0.064459
vt 0.266718 0.064459
vt 0.296067 0.064459
vt 0.296067 0.064459
vt 0.296067 0.064459
vt 0.296067 0.064459
vt 0.266718 0.064459
vt 0.266718 0.064459
vt 0.266718 0.064459
vt 0.266718 0.064459
vt 0.296067 0.064459
vt 0.296067 0.064459
vt 0.170454 0.064459
vt 0.170454 0.064459
vt 0.170454 0.064459
vt 0.170454 0.064459
vt 0.296067 0.064459
vt 0.296067 0.064459
vt 0.266718 0.064459
vt 0.266718 0.064459
vt 0.296067 0.064459
vt 0.296067 0.064459
vt 0.296067 0.064459
vt 0.296067 0.064459
vt 0.296067 0.064459
vt 0.296067 0.064459
vt 0.296067 0.064459
vt 0.296067 0.064459
vt 0.296067 0.064459
vt 0.296067 0.064459
vt 0.296067 0.064459
vt 0.296067 0.064459
vt 0.296067 0.064459
vt 0.296067 0.064459
vt 0.296067 0.064459
vt 0.296067 0.064459
vt 0.296067 0.064459
vt 0.296067 0.064459
vt 0.296067 0.064459
vt 0.296067 0.064459
vt 0.296067 0.064459
vt 0.296067 0.064459
vt 0.296067 0.064459
vt 0.296067 0.064459
vt 0.296067 0.064459
vt 0.296067 0.064459
vt 0.296067 0.064459
vt 0.296067 0.064459
vt 0.296067 0.064459
vt 0.296067 0.064459
vt 0.296067 0.064459
vt 0.296067 0.064459
vt 0.362983 0.055068
vt 0.362983 0.055068
vt 0.362983 0.055068
vt 0.362983 0.055068
vn 0.000000 0.000000 -1.000000
vn 0.000000 0.000000 -1.000000
vn 0.000000 0.000000 -1.000000
vn 0.000000 0.000000 -1.000000
vn 0.000000 0.000000 1.000000
vn 0.000000 0.000000 1.000000
vn 0.000000 0.000000 1.000000
vn 0.000000 0.000000 1.000000
vn -1.000000 0.000000 0.000008
vn -1.000000 0.000000 0.000008
vn -1.000000 0.000000 0.000008
vn -1.000000 0.000000 0.000008
vn 1.000000 0.000000 0.000000
vn 1.000000 0.000000 0.000000
vn 1.000000 0.000000 0.000000
vn 1.000000 0.000000 0.000000
vn 0.000000 0.677611 -0.735421
vn 0.000000 0.677611 -0.735421
vn 0.000000 0.677611 -0.735421
vn 0.000000 0.677611 -0.735421
vn -0.594010 0.804458 0.000004
vn -0.594010 0.804458 0.000004
vn -0.594010 0.804458 0.000004
vn -0.594010 0.804458 0.000004
vn 0.000000 0.677619 0.735413
vn 0.000000 0.677619 0.735413
vn 0.000000 0.677619 0.735413
vn 0.000000 0.677619 0.735413
vn 0.594006 0.804461 0.000000
vn 0.594006 0.804461 0.000000
vn 0.594006 0.804461 0.000000
vn 0.594006 0.804461 0.000000
vn 0.000000 0.000000 -1.000000
vn 0.000000 0.000000 -1.000000
vn 0.000000 0.000000 -1.000000
vn 0.000000 0.000000 -1.000000
vn 0.000000 1.000000 0.000000
vn 0.000000 1.000000 0.000000
vn 0.000000 1.000000 0.000000
vn 0.000000 1.000000 0.000000
vn 0.000000 0.000000 1.000000
vn 0.000000 0.000000 1.000000
vn 0.000000 0.000000 1.000000
vn 0.000000 0.000000 1.000000
vn -1.000000 0.000000 0.000000
vn -1.000000 0.000000 0.000000
vn -1.000000 0.000000 0.000000
vn -1.000000 0.000000 0.000000
vn 1.000000 0.000000 0.000000
vn 1.000000 0.000000 0.000000
vn 1.000000 0.000000 0.000000
vn 1.000000 0.000000 0.000000
vn 0.000000 1.000000 0.000000
vn 0.000000 1.000000 0.000000
vn 0.000000 1.000000 0.000000
vn 0.000000 1.000000 0.000000
vn 0.000000 0.000000 1.000000
vn 0.000000 0.000000 1.000000
vn 0.000000 0.000000 1.000000
vn 0.000000 0.000000 1.000000
vn 0.000000 -1.000000 0.000000
vn 0.000000 -1.000000 0.000000
vn 0.000000 -1.000000 0.000000
vn 0.000000 -1.000000 0.000000
vn -1.000000 0.000000 0.000000
vn -1.000000 0.000000 0.000000
vn -1.000000 0.000000 0.000000
vn -1.000000 0.000000 0.000000
vn 1.000000 0.000000 0.000000
vn 1.000000 0.000000 0.000000
vn 1.000000 0.000000 0.000000
vn 1.000000 0.000000 0.000000
vn 0.000000 0.000000 1.000000
vn 0.000000 0.000000 1.000000
vn 0.000000 0.000000 1.000000
vn 0.000000 0.000000 1.000000
vn 0.000000 0.000000 1.000000
vn 0.000000 0.000000 1.000000
vn 0.000000 0.000000 1.000000
vn 0.000000 0.000000 1.000000
vn -0.000000 0.000000 1.000000
vn 0.000000 0.000000 1.000000
vn 0.000000 0.000000 1.000000
vn -0.000000 0.000000 1.000000
vn 0.000000 0.000000 1.000000
vn 0.000000 0.000000 1.000000
vn 0.000000 0.000000 1.000000
vn 0.000000 0.000000 1.000000
vn -1.000000 0.000000 0.000000
vn -1.000000 0.000000 0.000000
vn -1.000000 0.000000 0.000000
vn -1.000000 0.000000 0.000000
vn -0.000000 0.000000 1.000000
vn -0.000001 0.000000 1.000000
vn -0.000000 0.000000 1.000000
vn -0.000000 0.000000 1.000000
vn 0.000000 0.000000 1.000000
vn -0.000000 0.000000 1.000000
vn -0.000000 0.000000 1.000000
vn 0.000000 0.000000 1.000000
vn 0.000000 0.000000 1.000000
vn 0.000001 0.000000 1.000000
vn 0.000000 0.000000 1.000000
vn 0.000000 0.000000 1.000000
vn 1.000000 0.000000 0.000000
vn 1.000000 0.000000 0.000000
vn 1.000000 0.000000 0.000000
vn 1.000000 0.000000 0.000000
vn -1.000000 0.000000 0.000000
vn -1.000000 0.000000 0.000000
vn -1.000000 0.000000 0.000000
vn -1.000000 0.000000 0.000000
vn -0.000000 0.000000 1.000000
vn -0.000000 0.000000 1.000000
vn -0.000001 0.000000 1.000000
vn -0.000000 0.000000 1.000000
vn 0.000000 0.000000 1.000000
vn -0.000000 0.000000 1.000000
vn -0.000000 0.000000 1.000000
vn 0.000000 0.000000 1.000000
vn 0.000001 0.000000 1.000000
vn 0.000000 0.000000 1.000000
vn 0.000000 0.000000 1.000000
vn 0.000000 0.000000 1.000000
vn 1.000000 0.000000 0.000000
vn 1.000000 0.000000 0.000000
vn 1.000000 0.000000 0.000000
vn 1.000000 0.000000 0.000000
vn -1.000000 0.000000 0.000000
vn -1.000000 0.000000 0.000000
vn -1.000000 0.000000 0.000000
vn -1.000000 0.000000 0.000000
vn 0.000000 0.000000 1.000000
vn 0.000000 0.000000 1.000000
vn -0.000000 0.000000 1.000000
vn -0.000000 0.000000 1.000000
vn 0.000000 0.000000 1.000000
vn 0.000000 0.000000 1.000000
vn -0.000000 0.000000 1.000000
vn 0.000000 0.000000 1.000000
vn 0.000000 0.000000 1.000000
vn 0.000000 0.000000 1.000000
vn 0.000000 0.000000 1.000000
vn 0.000000 0.000000 1.000000
vn 1.000000 0.000000 0.000000
vn 1.000000 0.000000 0.000000
vn 1.000000 0.000000 0.000000
vn 1.000000 0.000000 0.000000
vn -1.000000 0.000000 0.000000
vn -1.000000 0.000000 0.000000
vn -1.000000 0.000000 0.000000
vn -1.000000 0.000000 0.000000
vn 0.000000 0.000000 1.000000
vn 0.000000 0.000000 1.000000
vn 0.000000 0.000000 1.000000
vn 0.000000 0.000000 1.000000
vn 0.000000 0.000000 1.000000
vn 0.000000 0.000000 1.000000
vn 0.000000 0.000000 1.000000
vn 0.000000 0.000000 1.000000
vn 0.000000 0.000000 1.000000
vn 0.000000 0.000000 1.000000
vn 0.000000 0.000000 1.000000
vn 0.000000 0.000000 1.000000
vn 1.000000 0.000000 0.000000
vn 1.000000 0.000000 0.000000
vn 1.000000 0.000000 0.000000
vn 1.000000 0.000000 0.000000
vn 0.000000 1.000000 0.000000
vn 0.000000 1.000000 0.000000
vn 0.000000 1.000000 0.000000
vn 0.000000 1.000000 0.000000
s off
f 1/1/1 2/2/2 4/3/3 3/4/4
f 5/9/5 6/10/6 8/11/7 7/12/8
f 2/13/9 8/14/10 6/15/11 4/16/12
f 7/17/13 1/18/14 3/19/15 5/20/16
f 3/5/17 4/29/18 10/31/19 9/32/20
f 4/6/21 6/24/22 11/28/23 10/27/24
f 6/7/25 5/23/26 12/21/27 11/22/28
f 5/8/29 3/30/30 9/25/31 12/26/32
f 13/33/33 14/34/34 16/35/35 15/36/36
f 15/37/37 16/38/38 18/39/39 17/40/40
f 17/41/41 18/42/42 20/43/43 19/44/44
f 14/45/45 20/46/46 18/47/47 16/48/48
f 19/49/49 13/50/50 15/51/51 17/52/52
f 21/53/53 22/54/54 24/55/55 23/56/56
f 29/57/57 30/58/58 53/59/59 54/60/60
f 25/61/61 26/62/62 28/63/63 27/64/64
f 22/65/65 51/66/66 52/67/67 24/68/68
f 56/69/69 21/70/70 23/71/71 55/72/72
f 23/73/73 24/151/74 30/75/75 29/149/76
f 24/74/77 52/77/78 53/129/79 30/152/80
f 26/148/81 25/80/82 32/146/83 31/82/84
f 55/122/85 23/150/86 29/76/87 54/125/88
f 33/85/89 28/86/90 26/87/91 34/88/92
f 35/142/93 34/144/94 26/79/95 31/147/96
f 36/91/97 35/92/98 31/93/99 32/94/100
f 25/145/101 37/95/102 36/140/103 32/81/104
f 27/97/105 38/98/106 37/99/107 25/100/108
f 39/101/109 33/85/110 34/88/111 40/102/112
f 41/136/113 40/138/114 34/90/115 35/143/116
f 42/135/117 41/103/118 35/89/119 36/141/120
f 37/139/121 43/106/122 42/134/123 36/96/124
f 38/98/125 44/107/126 43/108/127 37/99/128
f 45/109/129 39/101/130 40/102/131 46/110/132
f 47/127/133 46/131/134 40/104/135 41/137/136
f 48/113/137 47/114/138 41/115/139 42/116/140
f 43/133/141 49/117/142 48/123/143 42/105/144
f 44/107/145 50/119/146 49/120/147 43/108/148
f 51/66/149 45/109/150 46/110/151 52/67/152
f 53/78/153 52/132/154 46/112/155 47/128/156
f 54/84/157 53/130/158 47/111/159 48/124/160
f 49/121/161 55/83/162 54/126/163 48/118/164
f 50/119/165 56/69/166 55/72/167 49/120/168
f 9/153/169 10/154/170 11/155/171 12/156/172
