# This file uses meters as units for non-parametric coordinates.

v 0.336449 0.147826 -0.322479
v -0.336472 0.147826 -0.322479
v 0.336449 0.147826 0.322483
v -0.336468 0.147826 0.322483
v 0.599117 0.000000 -0.542488
v -0.599117 0.000000 -0.542488
v 0.599117 0.234847 -0.542488
v -0.599117 0.234847 -0.542488
v 0.599117 0.234847 0.542488
v -0.599117 0.234847 0.542488
v 0.599117 0.000000 0.542488
v -0.599117 0.000000 0.542488
v -0.336468 0.565138 0.322483
v 0.336449 0.388872 0.322483
v 0.336449 0.388872 -0.322479
v -0.336472 0.565138 -0.322479
v -0.000011 0.565138 -0.322479
v -0.000010 0.565138 0.322483
v -0.336469 0.565138 0.097755
v -0.000011 0.565138 -0.191402
v 0.119820 0.502360 -0.322479
v -0.108735 0.565138 0.031734
v -0.000011 0.654488 -0.191402
v 0.119820 0.591710 -0.322479
v -0.000011 0.654488 -0.322479
v -0.336469 0.654488 0.097755
v -0.108735 0.654488 0.031734
v -0.336472 0.654488 -0.322479
vt 0.296067 0.064459
vt 0.296067 0.064459
vt 0.296067 0.064459
vt 0.296067 0.064459
vt 0.266718 0.064459
vt 0.266718 0.064459
vt 0.266718 0.064459
vt 0.266718 0.064459
vt 0.296067 0.064459
vt 0.296067 0.064459
vt 0.296067 0.064459
vt 0.296067 0.064459
vt 0.330112 0.064459
vt 0.330112 0.064459
vt 0.330112 0.064459
vt 0.330112 0.064459
vt 0.296067 0.064459
vt 0.296067 0.064459
vt 0.296067 0.064459
vt 0.296067 0.064459
vt 0.266718 0.064459
vt 0.266718 0.064459
vt 0.266718 0.064459
vt 0.266718 0.064459
vt 0.266718 0.064459
vt 0.266718 0.064459
vt 0.266718 0.064459
vt 0.266718 0.064459
vt 0.296067 0.064459
vt 0.266718 0.064459
vt 0.296067 0.064459
vt 0.266718 0.064459
vt 0.296067 0.064459
vt 0.266718 0.064459
vt 0.296067 0.064459
vt 0.266718 0.064459
vt 0.360445 0.059992
vt 0.360445 0.059992
vt 0.297571 0.063485
vt 0.391882 0.059992
vt 0.297571 0.063485
vt 0.296067 0.064459
vt 0.360445 0.059992
vt 0.296067 0.064459
vt 0.297571 0.063485
vt 0.391882 0.059992
vt 0.358698 0.059992
vt 0.266718 0.064459
vt 0.327261 0.059992
vt 0.391882 0.059992
vt 0.360445 0.059992
vt 0.296067 0.064459
vt 0.358698 0.059992
vt 0.387515 0.059992
vt 0.327261 0.059992
vt 0.387515 0.059992
vt 0.391882 0.059992
vt 0.358698 0.059992
vt 0.391882 0.059992
vt 0.391882 0.059992
vt 0.391882 0.059992
vt 0.265261 0.060866
vt 0.265261 0.060866
vt 0.265261 0.060866
vt 0.265261 0.060866
vt 0.297571 0.063485
vt 0.297571 0.063485
vt 0.297571 0.063485
vt 0.358698 0.059992
vt 0.391882 0.059992
vt 0.327261 0.059992
vt 0.358698 0.059992
vt 0.358698 0.059992
vt 0.391882 0.059992
vt 0.358698 0.059992
vt 0.391882 0.059992
vt 0.387515 0.059992
vt 0.327261 0.059992
vt 0.360445 0.059992
vt 0.358698 0.059992
vn 0.000000 0.000000 -1.000000
vn 0.000000 0.000000 -1.000000
vn 0.000000 0.000000 -1.000000
vn 0.000000 0.000000 -1.000000
vn 0.000000 1.000000 0.000000
vn 0.000000 1.000000 0.000000
vn 0.000000 1.000000 0.000000
vn 0.000000 1.000000 0.000000
vn 0.000000 0.000000 1.000000
vn 0.000000 0.000000 1.000000
vn 0.000000 0.000000 1.000000
vn 0.000000 0.000000 1.000000
vn -1.000000 0.000000 0.000000
vn -1.000000 0.000000 0.000000
vn -1.000000 0.000000 0.000000
vn -1.000000 0.000000 0.000000
vn 1.000000 0.000000 0.000000
vn 1.000000 0.000000 0.000000
vn 1.000000 0.000000 0.000000
vn 1.000000 0.000000 0.000000
vn 0.000000 0.000000 1.000000
vn 0.000000 0.000000 1.000000
vn 0.000000 0.000000 1.000000
vn 0.000000 0.000000 1.000000
vn 0.000000 0.000000 1.000000
vn 1.000000 0.000000 0.000000
vn 1.000000 0.000000 0.000000
vn 1.000000 0.000000 0.000000
vn 1.000000 0.000000 0.000000
vn 0.000000 0.000000 -1.000000
vn 0.000000 0.000000 -1.000000
vn 0.000000 0.000000 -1.000000
vn 0.000000 0.000000 -1.000000
vn 0.000000 0.000000 -1.000000
vn 0.000000 0.000000 -1.000000
vn -1.000000 0.000000 0.000006
vn -1.000000 0.000000 0.000006
vn -1.000000 0.000000 0.000006
vn -1.000000 0.000000 0.000006
vn -1.000000 0.000000 0.000006
vn 0.464058 0.885805 -0.000001
vn 0.464058 0.885805 -0.000001
vn 0.464058 0.885805 -0.000001
vn -0.000000 1.000000 -0.000000
vn -0.000000 1.000000 -0.000000
vn -0.000000 1.000000 -0.000000
vn -0.000000 1.000000 -0.000000
vn -0.000000 1.000000 -0.000000
vn 0.000000 1.000000 0.000000
vn 0.000000 1.000000 0.000000
vn 0.000000 1.000000 0.000000
vn 0.000000 1.000000 0.000000
vn 0.000000 1.000000 0.000000
vn 0.464059 0.885804 -0.000001
vn 0.464059 0.885804 -0.000001
vn 0.464059 0.885804 -0.000001
vn 0.464059 0.885804 -0.000001
vn 0.464059 0.885804 -0.000001
vn 0.738058 0.000000 0.674737
vn 0.738058 0.000000 0.674737
vn 0.738058 0.000000 0.674737
vn 0.738058 0.000000 0.674737
vn 0.000000 0.000000 -1.000000
vn 0.000000 0.000000 -1.000000
vn 0.000000 0.000000 -1.000000
vn 0.000000 0.000000 -1.000000
vn 0.278439 0.000000 0.960454
vn 0.278439 0.000000 0.960454
vn 0.278439 0.000000 0.960454
vn 0.278439 0.000000 0.960454
vn 0.898964 0.000000 0.438022
vn 0.898964 0.000000 0.438022
vn 0.898964 0.000000 0.438022
vn 0.898964 0.000000 0.438022
vn 0.000000 0.000000 -1.000000
vn 0.000000 0.000000 -1.000000
vn 0.000000 0.000000 -1.000000
vn 0.000000 0.000000 -1.000000
vn -1.000000 0.000000 0.000006
vn -1.000000 0.000000 0.000006
vn -1.000000 0.000000 0.000006
vn -1.000000 0.000000 0.000006
s off
f 5/9/1 6/10/2 8/11/3 7/12/4
f 7/13/5 8/14/6 10/15/7 9/16/8
f 9/17/9 10/18/10 12/19/11 11/20/12
f 6/21/13 12/22/14 10/23/15 8/24/16
f 11/25/17 5/26/18 7/27/19 9/28/20
f 14/31/21 18/44/22 13/29/23 4/3/24 3/4/25
f 3/7/26 1/8/27 15/34/28 14/32/29
f 1/1/30 2/2/31 16/35/32 17/42/33 21/52/34 15/33/35
f 2/5/36 4/6/37 13/30/38 19/48/39 16/36/40
f 23/54/41 24/77/42 25/56/43
f 26/57/44 27/70/45 23/59/46 25/60/47 28/61/48
f 18/46/49 20/50/50 22/74/51 19/76/52 13/40/53
f 14/37/54 15/38/55 21/51/56 20/79/57 18/43/58
f 20/49/59 21/78/60 24/55/61 23/71/62
f 21/39/63 17/41/64 25/45/65 24/66/66
f 19/47/67 22/75/68 27/69/69 26/73/70
f 22/53/71 20/80/72 23/72/73 27/58/74
f 17/41/75 16/67/76 28/68/77 25/45/78
f 16/62/79 19/63/80 26/64/81 28/65/82
