# This file uses meters as units for non-parametric coordinates.

v -1.474110 -0.265642 1.441867
v 1.495156 -0.265642 1.441867
v -0.768121 3.685289 0.835444
v 0.914004 4.045712 0.762890
v -0.892957 4.014003 -0.848429
v 0.789168 4.374428 -0.920983
v -1.474110 -0.265642 -1.527406
v 1.495156 -0.265642 -1.527406
v -1.010634 -0.265642 1.515945
v 1.031678 -0.265642 1.515945
v 0.631950 2.377976 1.048927
v -0.525042 2.614925 1.098834
v -0.817020 -0.265642 1.965553
v 0.838066 -0.265642 1.965553
v 0.514127 2.081881 1.587066
v -0.423498 2.365833 1.627526
v -1.505368 -0.265642 -1.184780
v -1.505368 -0.265642 1.099224
v -0.962313 2.861244 0.632761
v -1.058340 3.114095 -0.662516
v -1.937146 -0.265642 -1.022959
v -1.937146 -0.265642 0.723529
v -1.471049 2.651307 0.537010
v -1.553466 2.655705 -0.471511
v -0.784969 3.570611 -0.996912
v 0.696102 3.603893 -1.003518
v 1.317708 -0.265642 -1.537444
v -1.296662 -0.265642 -1.594732
v -0.658957 3.138338 -1.462445
v 0.338013 3.321039 -1.458909
v 1.110638 -0.265642 -1.908265
v -1.089594 -0.265642 -1.965553
v 1.563434 -0.265642 -0.986736
v 1.563434 -0.265642 0.901191
v 1.183154 2.158291 -0.656634
v 1.174671 2.294185 0.422582
v 1.937146 -0.265642 -0.779783
v 1.937146 -0.265642 0.681903
v 1.559281 1.855284 -0.426872
v 1.552713 1.960497 0.408688
vt 0.236179 0.060626
vt 0.328418 0.060626
vt 0.236179 0.060626
vt 0.263944 0.060626
vt 0.328418 0.060626
vt 0.263944 0.060626
vt 0.236179 0.060626
vt 0.236179 0.060626
vt 0.236179 0.060626
vt 0.236179 0.060626
vt 0.328418 0.060626
vt 0.263944 0.060626
vt 0.263944 0.060626
vt 0.328418 0.060626
vt 0.236179 0.060626
vt 0.263944 0.060626
vt 0.263944 0.060626
vt 0.236179 0.060626
vt 0.263944 0.060626
vt 0.236179 0.060626
vt 0.236179 0.060626
vt 0.328418 0.060626
vt 0.236179 0.060626
vt 0.263944 0.060626
vt 0.236179 0.060626
vt 0.328418 0.060626
vt 0.236179 0.060626
vt 0.236179 0.060626
vt 0.263944 0.060626
vt 0.328418 0.060626
vt 0.263944 0.060626
vt 0.236179 0.060626
vt 0.263944 0.060626
vt 0.328418 0.060626
vt 0.263944 0.060626
vt 0.328418 0.060626
vt 0.236179 0.060626
vt 0.236179 0.060626
vt 0.236179 0.060626
vt 0.263944 0.060626
vt 0.236179 0.060626
vt 0.236179 0.060626
vt 0.236179 0.060626
vt 0.236179 0.060626
vt 0.263944 0.060626
vt 0.328418 0.060626
vt 0.263944 0.060626
vt 0.236179 0.060626
vt 0.263944 0.060626
vt 0.328418 0.060626
vt 0.263944 0.060626
vt 0.328418 0.060626
vt 0.263944 0.060626
vt 0.328418 0.060626
vt 0.236179 0.060626
vt 0.328418 0.060626
vt 0.328418 0.060626
vt 0.328418 0.060626
vt 0.263944 0.060626
vt 0.263944 0.060626
vt 0.328418 0.060626
vt 0.328418 0.060626
vt 0.236179 0.060626
vt 0.328418 0.060626
vt 0.236179 0.060626
vt 0.328418 0.060626
vt 0.263944 0.060626
vt 0.263944 0.060626
vt 0.236179 0.060626
vt 0.236179 0.060626
vt 0.236179 0.060626
vt 0.236179 0.060626
vt 0.263944 0.060626
vt 0.263944 0.060626
vt 0.236179 0.060626
vt 0.236179 0.060626
vt 0.263944 0.060626
vt 0.263944 0.060626
vt 0.263944 0.060626
vt 0.263944 0.060626
vt 0.236179 0.060626
vt 0.263944 0.060626
vt 0.263944 0.060626
vt 0.263944 0.060626
vt 0.263944 0.060626
vt 0.263944 0.060626
vt 0.263944 0.060626
vt 0.236179 0.060626
vt 0.263944 0.060626
vt 0.236179 0.060626
vt 0.236179 0.060626
vt 0.236179 0.060626
vt 0.263944 0.060626
vt 0.236179 0.060626
vt 0.263944 0.060626
vt 0.236179 0.060626
vt 0.263944 0.060626
vt 0.263944 0.060626
vt 0.263944 0.060626
vt 0.263944 0.060626
vt 0.263944 0.060626
vt 0.263944 0.060626
vt 0.263944 0.060626
vt 0.236179 0.060626
vt 0.263944 0.060626
vt 0.263944 0.060626
vt 0.263944 0.060626
vt 0.263944 0.060626
vn 0.030985 0.141947 0.989389
vn 0.030985 0.141947 0.989389
vn 0.030985 0.141947 0.989389
vn 0.030985 0.141947 0.989389
vn -0.196864 0.959420 0.201887
vn -0.196864 0.959420 0.201887
vn -0.196864 0.959420 0.201887
vn -0.196864 0.959420 0.201887
vn 0.011103 0.135526 -0.990712
vn 0.011103 0.135526 -0.990712
vn 0.011103 0.135526 -0.990712
vn 0.011103 0.135526 -0.990712
vn 0.984942 0.172812 -0.005099
vn 0.984942 0.172812 -0.005099
vn 0.984942 0.172812 -0.005099
vn 0.984942 0.172812 -0.005099
vn -0.989396 0.142145 0.029825
vn -0.989397 0.142145 0.029825
vn -0.989396 0.142145 0.029825
vn -0.989396 0.142145 0.029825
vn 0.085348 0.173695 0.981094
vn 0.043035 0.192167 0.980418
vn 0.065574 0.182383 0.981038
vn 0.085348 0.173695 0.981094
vn 0.043035 0.192167 0.980418
vn 0.033739 0.196165 0.979990
vn 0.033739 0.196165 0.979990
vn 0.065574 0.182383 0.981038
vn -0.191372 0.177998 0.965243
vn -0.191372 0.177998 0.965243
vn -0.191372 0.177998 0.965243
vn -0.191373 0.177998 0.965243
vn 0.918035 0.191884 0.346975
vn 0.918035 0.191884 0.346975
vn 0.918035 0.191884 0.346975
vn 0.918035 0.191884 0.346975
vn 0.234137 0.864258 0.445239
vn 0.234137 0.864258 0.445239
vn 0.234137 0.864258 0.445239
vn 0.234137 0.864258 0.445239
vn -0.924856 0.192445 0.328033
vn -0.924856 0.192445 0.328033
vn -0.924856 0.192445 0.328033
vn -0.924856 0.192445 0.328033
vn -0.974919 0.189692 0.116407
vn -0.973414 0.199536 0.112478
vn -0.974203 0.194467 0.114504
vn -0.974919 0.189692 0.116407
vn -0.973414 0.199536 0.112478
vn -0.973040 0.201868 0.111544
vn -0.973040 0.201868 0.111544
vn -0.974203 0.194467 0.114504
vn -0.982506 0.149340 -0.111265
vn -0.982506 0.149340 -0.111265
vn -0.982506 0.149340 -0.111265
vn -0.982506 0.149340 -0.111265
vn -0.471876 0.172211 0.864683
vn -0.471876 0.172211 0.864683
vn -0.471876 0.172211 0.864683
vn -0.471876 0.172211 0.864683
vn -0.540252 0.830669 0.134601
vn -0.540252 0.830669 0.134601
vn -0.540252 0.830669 0.134601
vn -0.540252 0.830669 0.134601
vn -0.435693 0.206718 -0.876036
vn -0.435693 0.206718 -0.876036
vn -0.435693 0.206718 -0.876036
vn -0.435693 0.206718 -0.876036
vn -0.047731 0.186171 -0.981357
vn -0.044514 0.177207 -0.983166
vn -0.035609 0.152362 -0.987683
vn -0.047731 0.186171 -0.981357
vn -0.044514 0.177207 -0.983166
vn -0.027110 0.128615 -0.991324
vn -0.027110 0.128615 -0.991324
vn -0.035609 0.152362 -0.987683
vn -0.382338 0.193624 -0.903508
vn -0.382338 0.193624 -0.903508
vn -0.382338 0.193624 -0.903508
vn -0.382338 0.193624 -0.903508
vn -0.070155 0.796370 -0.600727
vn -0.070155 0.796370 -0.600727
vn -0.070155 0.796370 -0.600727
vn -0.070155 0.796370 -0.600727
vn 0.767411 0.222781 -0.601206
vn 0.767411 0.222781 -0.601206
vn 0.767411 0.222781 -0.601206
vn 0.767411 0.222781 -0.601206
vn -0.877702 0.181662 -0.443439
vn -0.877702 0.181662 -0.443440
vn -0.877702 0.181663 -0.443439
vn -0.877702 0.181662 -0.443440
vn 0.980302 0.165114 -0.108373
vn 0.985731 0.163563 -0.039762
vn 0.983558 0.164448 -0.074634
vn 0.980302 0.165114 -0.108373
vn 0.985731 0.163563 -0.039762
vn 0.986711 0.161645 -0.016499
vn 0.987378 0.156967 0.021134
vn 0.983558 0.164448 -0.074634
vn 0.986711 0.161645 -0.016499
vn 0.986195 0.150751 0.068513
vn 0.986195 0.150751 0.068513
vn 0.987378 0.156967 0.021134
vn 0.554641 0.213389 -0.804263
vn 0.554641 0.213389 -0.804263
vn 0.554641 0.213389 -0.804263
vn 0.554641 0.213389 -0.804263
vn 0.657284 0.748361 -0.089066
vn 0.657284 0.748361 -0.089066
vn 0.657284 0.748361 -0.089066
vn 0.657284 0.748361 -0.089066
vn 0.370935 0.202305 0.906356
vn 0.370935 0.202305 0.906355
vn 0.370935 0.202305 0.906356
vn 0.370935 0.202305 0.906356
s off
f 13/24/1 14/99/2 15/98/3 16/97/4
f 3/2/5 4/11/6 6/5/7 5/14/8
f 29/40/9 30/79/10 31/78/11 32/77/12
f 38/48/13 37/72/14 39/71/15 40/69/16
f 21/32/17 22/91/18 23/92/19 24/88/20
f 2/108/21 4/17/22 11/103/23 10/106/24
f 4/107/25 3/13/26 12/102/27 11/67/28
f 3/105/29 1/16/30 9/100/31 12/101/32
f 10/21/33 11/104/34 15/65/35 14/25/36
f 11/22/37 12/66/38 16/64/39 15/26/40
f 12/23/41 9/20/42 13/96/43 16/27/44
f 1/1/45 3/18/46 19/63/47 18/94/48
f 3/18/49 5/10/50 20/90/51 19/63/52
f 5/10/53 7/9/54 17/28/55 20/90/56
f 18/29/57 19/93/58 23/60/59 22/33/60
f 19/30/61 20/62/62 24/61/63 23/34/64
f 20/31/65 17/95/66 21/89/67 24/35/68
f 5/4/69 6/12/70 26/85/71 25/59/72
f 6/86/73 8/6/74 27/83/75 26/84/76
f 7/19/77 5/87/78 25/80/79 28/82/80
f 25/36/81 26/58/82 30/57/83 29/56/84
f 26/37/85 27/38/86 31/42/87 30/41/88
f 28/39/89 25/81/90 29/76/91 32/43/92
f 8/7/93 6/8/94 35/55/95 33/75/96
f 6/8/97 4/3/98 36/70/99 35/55/100
f 4/3/101 2/15/102 34/44/103 36/70/104
f 33/45/105 35/73/106 39/53/107 37/49/108
f 35/46/109 36/54/110 40/52/111 39/50/112
f 36/47/113 34/74/114 38/68/115 40/51/116
