# This file uses meters as units for non-parametric coordinates.

v -0.005994 -0.546343 -1.046280
v 0.136586 -0.698794 -0.839010
v 0.393391 -0.599816 -0.942865
v 0.250811 -0.447365 -1.150134
v -0.175456 1.915941 0.881353
v -0.032876 1.763490 1.088624
v 0.223928 1.862468 0.984769
v 0.081348 2.014919 0.777498
v -0.013976 2.444429 1.367727
v -0.391762 -0.564869 -1.054738
v -0.303288 -0.700865 -0.809364
v -0.031832 -0.594416 -0.848245
v -0.120306 -0.458421 -1.093619
v -1.145701 1.970260 0.622171
v -1.057227 1.834264 0.867546
v -0.785772 1.940713 0.828665
v -0.874246 2.076708 0.583291
v -1.135744 2.527137 1.103547
v -0.628821 -0.644955 -1.235681
v -0.563961 -0.749210 -1.061069
v -0.378775 -0.643184 -1.066552
v -0.443635 -0.538929 -1.241164
v -1.711361 1.255379 0.106122
v -1.646500 1.151124 0.280733
v -1.461314 1.257150 0.275250
v -1.526175 1.361405 0.100638
v -1.788111 1.623916 0.485148
v 0.373985 -0.675658 -1.209116
v 0.541430 -0.853640 -1.008512
v 0.808952 -0.759327 -1.148135
v 0.641507 -0.581344 -1.348740
v 0.573688 1.918688 0.925971
v 0.741134 1.740706 1.126575
v 1.008656 1.835020 0.986951
v 0.841209 2.013002 0.786346
v 0.836203 2.461858 1.437905
v 0.711597 -0.599982 -1.289857
v 0.863075 -0.778178 -1.174777
v 1.064000 -0.702989 -1.322826
v 0.912522 -0.524794 -1.437905
v 1.435709 1.260355 0.637667
v 1.587186 1.082160 0.752746
v 1.788111 1.157348 0.604697
v 1.636633 1.335544 0.489617
v 1.775190 1.628343 1.055822
vt 0.108283 0.401783
vt 0.108283 0.401783
vt 0.142937 0.401783
vt 0.204091 0.401783
vt 0.169437 0.401783
vt 0.108283 0.401783
vt 0.142937 0.401783
vt 0.204091 0.401783
vt 0.169437 0.401783
vt 0.169437 0.401783
vt 0.392648 0.401783
vt 0.331495 0.401783
vt 0.392648 0.401783
vt 0.452783 0.401783
vt 0.392648 0.401783
vt 0.204091 0.401783
vt 0.142937 0.401783
vt 0.142937 0.401783
vt 0.108283 0.401783
vt 0.169437 0.401783
vt 0.204091 0.401783
vt 0.392648 0.401783
vt 0.331495 0.401783
vt 0.392648 0.401783
vt 0.452783 0.401783
vt 0.331495 0.401783
vt 0.392648 0.401783
vt 0.452783 0.401783
vt 0.108283 0.401783
vt 0.108283 0.401783
vt 0.108283 0.401783
vt 0.108283 0.401783
vt 0.142937 0.401783
vt 0.142937 0.401783
vt 0.142937 0.401783
vt 0.142937 0.401783
vt 0.204091 0.401783
vt 0.204091 0.401783
vt 0.204091 0.401783
vt 0.204091 0.401783
vt 0.169437 0.401783
vt 0.169437 0.401783
vt 0.169437 0.401783
vt 0.169437 0.401783
vt 0.392648 0.401783
vt 0.392648 0.401783
vt 0.392648 0.401783
vt 0.331495 0.401783
vt 0.331495 0.401783
vt 0.331495 0.401783
vt 0.392648 0.401783
vt 0.392648 0.401783
vt 0.392648 0.401783
vt 0.452783 0.401783
vt 0.452783 0.401783
vt 0.452783 0.401783
vt 0.108283 0.401783
vt 0.108283 0.401783
vt 0.108283 0.401783
vt 0.108283 0.401783
vt 0.142937 0.401783
vt 0.142937 0.401783
vt 0.142937 0.401783
vt 0.142937 0.401783
vt 0.204091 0.401783
vt 0.204091 0.401783
vt 0.204091 0.401783
vt 0.204091 0.401783
vt 0.169437 0.401783
vt 0.169437 0.401783
vt 0.169437 0.401783
vt 0.169437 0.401783
vt 0.392648 0.401783
vt 0.392648 0.401783
vt 0.392648 0.401783
vt 0.331495 0.401783
vt 0.331495 0.401783
vt 0.331495 0.401783
vt 0.392648 0.401783
vt 0.392648 0.401783
vt 0.392648 0.401783
vt 0.452783 0.401783
vt 0.452783 0.401783
vt 0.452783 0.401783
vt 0.108283 0.401783
vt 0.108283 0.401783
vt 0.108283 0.401783
vt 0.108283 0.401783
vt 0.142937 0.401783
vt 0.142937 0.401783
vt 0.142937 0.401783
vt 0.142937 0.401783
vt 0.204091 0.401783
vt 0.204091 0.401783
vt 0.204091 0.401783
vt 0.204091 0.401783
vt 0.169437 0.401783
vt 0.169437 0.401783
vt 0.169437 0.401783
vt 0.169437 0.401783
vt 0.392648 0.401783
vt 0.392648 0.401783
vt 0.392648 0.401783
vt 0.331495 0.401783
vt 0.331495 0.401783
vt 0.331495 0.401783
vt 0.392648 0.401783
vt 0.392648 0.401783
vt 0.392648 0.401783
vt 0.452783 0.401783
vt 0.452783 0.401783
vt 0.452783 0.401783
vt 0.108283 0.401783
vt 0.108283 0.401783
vt 0.108283 0.401783
vt 0.108283 0.401783
vt 0.142937 0.401783
vt 0.142937 0.401783
vt 0.142937 0.401783
vt 0.142937 0.401783
vt 0.204091 0.401783
vt 0.204091 0.401783
vt 0.204091 0.401783
vt 0.204091 0.401783
vt 0.169437 0.401783
vt 0.169437 0.401783
vt 0.169437 0.401783
vt 0.169437 0.401783
vt 0.392648 0.401783
vt 0.392648 0.401783
vt 0.392648 0.401783
vt 0.331495 0.401783
vt 0.331495 0.401783
vt 0.331495 0.401783
vt 0.392648 0.401783
vt 0.392648 0.401783
vt 0.392648 0.401783
vt 0.452783 0.401783
vt 0.452783 0.401783
vt 0.452783 0.401783
vn -0.873005 -0.336475 0.353053
vn -0.873005 -0.336475 0.353053
vn -0.873005 -0.336475 0.353053
vn -0.873005 -0.336475 0.353053
vn 0.484701 -0.518256 0.704610
vn 0.484701 -0.518256 0.704610
vn 0.484701 -0.518256 0.704610
vn 0.484701 -0.518256 0.704610
vn 0.873005 0.336475 -0.353053
vn 0.873005 0.336475 -0.353053
vn 0.873005 0.336475 -0.353053
vn 0.873005 0.336475 -0.353053
vn -0.484700 0.518256 -0.704611
vn -0.484700 0.518256 -0.704611
vn -0.484700 0.518256 -0.704611
vn -0.484700 0.518256 -0.704611
vn -0.865699 -0.169084 0.471144
vn -0.865699 -0.169084 0.471144
vn -0.865699 -0.169084 0.471144
vn 0.463484 -0.347046 0.815317
vn 0.463484 -0.347046 0.815317
vn 0.463484 -0.347046 0.815317
vn 0.843630 0.489727 -0.220125
vn 0.843630 0.489727 -0.220125
vn 0.843630 0.489727 -0.220125
vn -0.485552 0.667689 -0.564297
vn -0.485552 0.667689 -0.564297
vn -0.485552 0.667689 -0.564297
vn -0.922811 -0.361870 0.132175
vn -0.922811 -0.361870 0.132175
vn -0.922811 -0.361870 0.132174
vn -0.922811 -0.361870 0.132174
vn 0.300768 -0.462316 0.834148
vn 0.300768 -0.462316 0.834148
vn 0.300768 -0.462316 0.834148
vn 0.300768 -0.462316 0.834148
vn 0.922811 0.361870 -0.132173
vn 0.922811 0.361870 -0.132173
vn 0.922811 0.361870 -0.132173
vn 0.922811 0.361870 -0.132173
vn -0.300768 0.462316 -0.834148
vn -0.300768 0.462316 -0.834148
vn -0.300768 0.462316 -0.834148
vn -0.300768 0.462316 -0.834148
vn -0.952513 -0.189203 0.238582
vn -0.952513 -0.189203 0.238582
vn -0.952513 -0.189203 0.238582
vn 0.245362 -0.287537 0.925808
vn 0.245362 -0.287537 0.925808
vn 0.245362 -0.287537 0.925808
vn 0.854334 0.519331 -0.020211
vn 0.854334 0.519331 -0.020211
vn 0.854334 0.519331 -0.020211
vn -0.343537 0.617667 -0.707439
vn -0.343537 0.617667 -0.707439
vn -0.343537 0.617667 -0.707439
vn -0.862913 -0.504994 0.019019
vn -0.862913 -0.504994 0.019019
vn -0.862913 -0.504994 0.019019
vn -0.862913 -0.504994 0.019019
vn 0.278790 -0.442870 0.852140
vn 0.278790 -0.442870 0.852140
vn 0.274000 -0.434194 0.858137
vn 0.273935 -0.434076 0.858218
vn 0.862914 0.504993 -0.019017
vn 0.862914 0.504993 -0.019017
vn 0.862914 0.504993 -0.019017
vn 0.862914 0.504993 -0.019017
vn -0.278791 0.442870 -0.852140
vn -0.278791 0.442870 -0.852140
vn -0.278791 0.442870 -0.852140
vn -0.278791 0.442870 -0.852140
vn -0.929604 -0.339972 0.142325
vn -0.929604 -0.339972 0.142325
vn -0.929604 -0.339972 0.142325
vn 0.273935 -0.434076 0.858218
vn 0.274000 -0.434194 0.858137
vn 0.217177 -0.331852 0.917992
vn 0.769027 0.632558 0.092021
vn 0.769027 0.632558 0.092021
vn 0.769027 0.632557 0.092021
vn -0.377757 0.624438 -0.683649
vn -0.377757 0.624438 -0.683649
vn -0.377757 0.624438 -0.683649
vn -0.846156 -0.298311 0.441622
vn -0.846156 -0.298311 0.441622
vn -0.846156 -0.298311 0.441622
vn -0.846156 -0.298311 0.441622
vn 0.529621 -0.562948 0.634501
vn 0.529621 -0.562948 0.634501
vn 0.529621 -0.562948 0.634501
vn 0.529621 -0.562948 0.634501
vn 0.846157 0.298311 -0.441622
vn 0.846157 0.298311 -0.441622
vn 0.846157 0.298311 -0.441622
vn 0.846157 0.298311 -0.441622
vn -0.529622 0.562947 -0.634501
vn -0.529622 0.562947 -0.634501
vn -0.529622 0.562947 -0.634501
vn -0.529622 0.562947 -0.634501
vn -0.816280 -0.134879 0.561689
vn -0.816280 -0.134879 0.561689
vn -0.816280 -0.134879 0.561689
vn 0.530592 -0.393955 0.750514
vn 0.530592 -0.393955 0.750514
vn 0.530592 -0.393955 0.750514
vn 0.840477 0.449210 -0.303000
vn 0.840477 0.449210 -0.303000
vn 0.840477 0.449210 -0.303000
vn -0.506398 0.708286 -0.491826
vn -0.506398 0.708286 -0.491826
vn -0.506398 0.708286 -0.491826
vn -0.770838 -0.288455 0.567981
vn -0.770838 -0.288455 0.567981
vn -0.770838 -0.288455 0.567981
vn -0.770838 -0.288455 0.567981
vn 0.581136 -0.683639 0.441496
vn 0.581136 -0.683639 0.441496
vn 0.581136 -0.683639 0.441496
vn 0.581136 -0.683639 0.441496
vn 0.770837 0.288456 -0.567982
vn 0.770837 0.288456 -0.567982
vn 0.770837 0.288456 -0.567982
vn 0.770837 0.288456 -0.567982
vn -0.581137 0.683639 -0.441495
vn -0.581137 0.683639 -0.441495
vn -0.581137 0.683639 -0.441495
vn -0.581137 0.683639 -0.441495
vn -0.701436 -0.145698 0.697682
vn -0.701436 -0.145698 0.697682
vn -0.701436 -0.145698 0.697682
vn 0.622133 -0.532580 0.573855
vn 0.622133 -0.532580 0.573855
vn 0.622133 -0.532580 0.573855
vn 0.807850 0.419093 -0.414414
vn 0.807850 0.419093 -0.414414
vn 0.807850 0.419093 -0.414414
vn -0.515721 0.805973 -0.290585
vn -0.515721 0.805973 -0.290585
vn -0.515721 0.805973 -0.290585
s off
f 1/1/1 2/2/2 6/19/3 5/6/4
f 2/18/5 3/3/6 7/17/7 6/7/8
f 3/16/9 4/4/10 8/21/11 7/8/12
f 4/20/13 1/5/14 5/10/15 8/9/16
f 5/13/17 6/27/18 9/24/19
f 6/12/20 7/26/21 9/23/22
f 7/11/23 8/22/24 9/15/25
f 8/14/26 5/28/27 9/25/28
f 10/29/29 11/30/30 15/31/31 14/32/32
f 11/33/33 12/34/34 16/35/35 15/36/36
f 12/37/37 13/38/38 17/39/39 16/40/40
f 13/41/41 10/42/42 14/43/43 17/44/44
f 14/45/45 15/46/46 18/47/47
f 15/48/48 16/49/49 18/50/50
f 16/51/51 17/52/52 18/53/53
f 17/54/54 14/55/55 18/56/56
f 19/57/57 20/58/58 24/59/59 23/60/60
f 20/61/61 21/62/62 25/63/63 24/64/64
f 21/65/65 22/66/66 26/67/67 25/68/68
f 22/69/69 19/70/70 23/71/71 26/72/72
f 23/73/73 24/74/74 27/75/75
f 24/76/76 25/77/77 27/78/78
f 25/79/79 26/80/80 27/81/81
f 26/82/82 23/83/83 27/84/84
f 28/85/85 29/86/86 33/87/87 32/88/88
f 29/89/89 30/90/90 34/91/91 33/92/92
f 30/93/93 31/94/94 35/95/95 34/96/96
f 31/97/97 28/98/98 32/99/99 35/100/100
f 32/101/101 33/102/102 36/103/103
f 33/104/104 34/105/105 36/106/106
f 34/107/107 35/108/108 36/109/109
f 35/110/110 32/111/111 36/112/112
f 37/113/113 38/114/114 42/115/115 41/116/116
f 38/117/117 39/118/118 43/119/119 42/120/120
f 39/121/121 40/122/122 44/123/123 43/124/124
f 40/125/125 37/126/126 41/127/127 44/128/128
f 41/129/129 42/130/130 45/131/131
f 42/132/132 43/133/133 45/134/134
f 43/135/135 44/136/136 45/137/137
f 44/138/138 41/139/139 45/140/140
