# This file uses meters as units for non-parametric coordinates.

v -0.069481 0.401229 0.224457
v 0.337601 0.610655 -0.196106
v -0.160004 1.580938 0.213852
v 0.090149 1.460712 -0.015839
v -0.283813 1.563651 0.124069
v -0.053391 1.416917 -0.182877
v -0.374550 0.366818 -0.004562
v -0.000046 0.569024 -0.515045
v 0.032288 3.549507 -0.048340
v 0.143982 3.468534 -0.091415
v -0.012970 3.422865 -0.268181
v -0.104935 3.530349 -0.147842
v -0.617188 0.067066 0.056137
v -0.141968 0.270898 -0.653938
v 0.625885 0.353596 -0.149765
v 0.105728 0.149441 0.518753
v -0.582428 -0.140391 0.054214
v 0.008987 -0.138764 -0.799011
v 0.744278 -0.059573 -0.316208
v 0.104797 -0.061440 0.501160
v 1.275696 3.189578 -0.188004
v 0.315582 3.184307 -1.140823
v 0.865051 3.975381 -0.138412
v 0.251671 3.957212 -0.881226
v 0.006546 4.048926 0.766418
v -0.940567 4.030758 -0.254028
v -0.062119 3.134721 1.140823
v -1.275696 3.095998 -0.086914
v -0.833954 2.331939 0.340424
v -0.093292 2.356973 0.863655
v -0.656845 2.887611 0.318291
v -0.067841 2.784100 0.759285
v -0.381287 2.737734 -0.312286
v 0.328430 2.679899 0.174896
v -0.632980 2.380013 -0.508026
v 0.295151 2.394999 0.149261
v -0.431587 3.858498 -0.093231
v 0.115982 3.866252 0.410568
v -0.238937 4.421573 -0.103859
v 0.101929 4.378244 0.166000
v 0.113235 4.594024 -0.436913
v 0.434402 4.574232 -0.136093
v 0.171432 3.790756 -0.667099
v 0.710251 3.759712 -0.233383
vt 0.243494 0.396585
vt 0.243494 0.396585
vt 0.243494 0.396585
vt 0.243494 0.396585
vt 0.243494 0.396585
vt 0.243494 0.396585
vt 0.243494 0.396585
vt 0.243494 0.396585
vt 0.211099 0.396585
vt 0.211099 0.396585
vt 0.211099 0.396585
vt 0.211099 0.396585
vt 0.211099 0.396585
vt 0.211099 0.396585
vt 0.211099 0.396585
vt 0.211099 0.396585
vt 0.211099 0.396585
vt 0.211099 0.396585
vt 0.211099 0.396585
vt 0.211099 0.396585
vt 0.243494 0.396585
vt 0.243494 0.396585
vt 0.243494 0.396585
vt 0.243494 0.396585
vt 0.211099 0.396585
vt 0.211099 0.396585
vt 0.211099 0.396585
vt 0.211099 0.396585
vt 0.175105 0.396585
vt 0.175105 0.396585
vt 0.175105 0.396585
vt 0.175105 0.396585
vt 0.270490 0.396585
vt 0.270490 0.396585
vt 0.270490 0.396585
vt 0.270490 0.396585
vt 0.245294 0.396585
vt 0.245294 0.396585
vt 0.245294 0.396585
vt 0.245294 0.396585
vt 0.270490 0.396585
vt 0.270490 0.396585
vt 0.270490 0.396585
vt 0.270490 0.396585
vt 0.245294 0.396585
vt 0.245294 0.396585
vt 0.245294 0.396585
vt 0.245294 0.396585
vt 0.211099 0.396585
vt 0.211099 0.396585
vt 0.211099 0.396585
vt 0.211099 0.396585
vt 0.211099 0.396585
vt 0.211099 0.396585
vt 0.211099 0.396585
vt 0.211099 0.396585
vt 0.211099 0.396585
vt 0.211099 0.396585
vt 0.211099 0.396585
vt 0.211099 0.396585
vt 0.211099 0.396585
vt 0.211099 0.396585
vt 0.211099 0.396585
vt 0.211099 0.396585
vt 0.243494 0.396585
vt 0.243494 0.396585
vt 0.243494 0.396585
vt 0.243494 0.396585
vt 0.258846 0.184645
vt 0.258846 0.184645
vt 0.258846 0.184645
vt 0.258846 0.184645
vt 0.290412 0.184645
vt 0.290412 0.184645
vt 0.290412 0.184645
vt 0.290412 0.184645
vt 0.258846 0.184645
vt 0.258846 0.184645
vt 0.258846 0.184645
vt 0.258846 0.184645
vt 0.203606 0.184645
vt 0.203606 0.184645
vt 0.203606 0.184645
vt 0.203606 0.184645
vt 0.230437 0.184645
vt 0.230437 0.184645
vt 0.230437 0.184645
vt 0.230437 0.184645
vt 0.230437 0.184645
vt 0.230437 0.184645
vt 0.230437 0.184645
vt 0.230437 0.184645
vt 0.258846 0.184645
vt 0.258846 0.184645
vt 0.258846 0.184645
vt 0.258846 0.184645
vt 0.290412 0.184645
vt 0.290412 0.184645
vt 0.290412 0.184645
vt 0.290412 0.184645
vt 0.258846 0.184645
vt 0.258846 0.184645
vt 0.258846 0.184645
vt 0.258846 0.184645
vt 0.203606 0.184645
vt 0.203606 0.184645
vt 0.203606 0.184645
vt 0.203606 0.184645
vt 0.230437 0.184645
vt 0.230437 0.184645
vt 0.230437 0.184645
vt 0.230437 0.184645
vt 0.230437 0.184645
vt 0.230437 0.184645
vt 0.230437 0.184645
vt 0.230437 0.184645
vt 0.258846 0.184645
vt 0.258846 0.184645
vt 0.258846 0.184645
vt 0.258846 0.184645
vt 0.290412 0.184645
vt 0.290412 0.184645
vt 0.290412 0.184645
vt 0.290412 0.184645
vt 0.258846 0.184645
vt 0.258846 0.184645
vt 0.258846 0.184645
vt 0.258846 0.184645
vt 0.203606 0.184645
vt 0.203606 0.184645
vt 0.203606 0.184645
vt 0.203606 0.184645
vt 0.230437 0.184645
vt 0.230437 0.184645
vt 0.230437 0.184645
vt 0.230437 0.184645
vt 0.230437 0.184645
vt 0.230437 0.184645
vt 0.230437 0.184645
vt 0.230437 0.184645
vn 0.698298 0.056628 0.713563
vn 0.698298 0.056628 0.713563
vn 0.668494 0.046904 0.742237
vn 0.648188 0.040448 0.760406
vn -0.802903 0.050400 -0.593975
vn -0.802606 0.088845 -0.589855
vn -0.799943 0.145809 -0.582092
vn -0.799943 0.145809 -0.582092
vn 0.075631 -0.995692 0.053643
vn 0.075631 -0.995692 0.053643
vn 0.075631 -0.995692 0.053643
vn 0.075631 -0.995692 0.053643
vn 0.602264 0.302059 -0.738944
vn 0.596442 0.299042 -0.744870
vn 0.643383 0.323390 -0.693886
vn 0.643383 0.323390 -0.693886
vn -0.592997 -0.039887 0.804216
vn -0.592997 -0.039887 0.804216
vn -0.592997 -0.039887 0.804216
vn -0.592997 -0.039887 0.804216
vn 0.648188 0.040448 0.760406
vn 0.668494 0.046904 0.742237
vn 0.612011 0.029250 0.790308
vn 0.612011 0.029250 0.790308
vn 0.757847 -0.043888 -0.650954
vn 0.757847 -0.043888 -0.650954
vn 0.757847 -0.043888 -0.650954
vn 0.757847 -0.043888 -0.650954
vn -0.594006 0.162946 0.787785
vn -0.594006 0.162946 0.787785
vn -0.594006 0.162946 0.787785
vn -0.594006 0.162946 0.787785
vn -0.765021 0.538302 -0.353516
vn -0.765022 0.538302 -0.353516
vn -0.765022 0.538302 -0.353516
vn -0.765021 0.538302 -0.353516
vn 0.596442 0.299042 -0.744870
vn 0.602264 0.302059 -0.738944
vn 0.553630 0.276880 -0.785386
vn 0.553630 0.276880 -0.785386
vn 0.364663 0.724072 0.585440
vn 0.364663 0.724072 0.585440
vn 0.364663 0.724072 0.585440
vn 0.364663 0.724072 0.585440
vn -0.520250 0.506280 0.687765
vn -0.520250 0.506280 0.687765
vn -0.520250 0.506279 0.687765
vn -0.520250 0.506280 0.687765
vn -0.814348 -0.109299 -0.569992
vn -0.814348 -0.109299 -0.569992
vn -0.814348 -0.109299 -0.569992
vn -0.814348 -0.109299 -0.569992
vn 0.458598 0.441986 -0.770932
vn 0.458598 0.441986 -0.770932
vn 0.458598 0.441986 -0.770932
vn 0.458598 0.441986 -0.770932
vn 0.790072 -0.031826 0.612187
vn 0.790072 -0.031826 0.612187
vn 0.790072 -0.031826 0.612187
vn 0.790072 -0.031826 0.612187
vn -0.533521 -0.082412 0.841763
vn -0.533521 -0.082412 0.841762
vn -0.533521 -0.082412 0.841763
vn -0.533521 -0.082412 0.841763
vn -0.802606 0.088845 -0.589855
vn -0.802903 0.050400 -0.593975
vn -0.800975 -0.009612 -0.598620
vn -0.800975 -0.009612 -0.598620
vn 0.687823 0.336945 -0.642936
vn 0.687823 0.336945 -0.642936
vn 0.687823 0.336945 -0.642936
vn 0.687823 0.336945 -0.642936
vn 0.033847 0.998149 -0.050525
vn 0.033847 0.998149 -0.050525
vn 0.033847 0.998149 -0.050525
vn 0.033847 0.998149 -0.050525
vn -0.682645 0.338721 0.647506
vn -0.682645 0.338721 0.647506
vn -0.682645 0.338721 0.647506
vn -0.682645 0.338721 0.647506
vn 0.036026 -0.999227 -0.015752
vn 0.036026 -0.999227 -0.015752
vn 0.036026 -0.999227 -0.015752
vn 0.036026 -0.999227 -0.015752
vn -0.513257 0.127482 -0.848714
vn -0.513257 0.127482 -0.848714
vn -0.513257 0.127482 -0.848714
vn -0.513257 0.127482 -0.848714
vn 0.688211 0.267312 0.674470
vn 0.688211 0.267312 0.674470
vn 0.688211 0.267312 0.674470
vn 0.688211 0.267312 0.674470
vn -0.564338 0.218776 0.796027
vn -0.564338 0.218776 0.796027
vn -0.564338 0.218776 0.796027
vn -0.564338 0.218775 0.796027
vn 0.191567 0.976546 -0.098289
vn 0.191567 0.976546 -0.098289
vn 0.191567 0.976546 -0.098289
vn 0.191567 0.976546 -0.098289
vn 0.573050 0.028027 -0.819041
vn 0.573050 0.028027 -0.819041
vn 0.573050 0.028027 -0.819041
vn 0.573050 0.028027 -0.819041
vn 0.049602 -0.998110 -0.036281
vn 0.049602 -0.998110 -0.036281
vn 0.049602 -0.998110 -0.036281
vn 0.049602 -0.998110 -0.036281
vn 0.855529 -0.013334 0.517583
vn 0.855529 -0.013334 0.517583
vn 0.855529 -0.013334 0.517583
vn 0.855529 -0.013334 0.517583
vn -0.839718 0.451545 -0.301631
vn -0.839718 0.451545 -0.301631
vn -0.839718 0.451545 -0.301631
vn -0.839718 0.451545 -0.301631
vn -0.624667 0.277077 0.730081
vn -0.624667 0.277077 0.730081
vn -0.624667 0.277077 0.730081
vn -0.624667 0.277077 0.730081
vn -0.193995 0.924780 0.327336
vn -0.193995 0.924780 0.327336
vn -0.193995 0.924780 0.327336
vn -0.193995 0.924780 0.327336
vn 0.633462 0.277044 -0.722476
vn 0.633462 0.277044 -0.722476
vn 0.633462 0.277044 -0.722476
vn 0.633462 0.277044 -0.722476
vn -0.078003 -0.994788 0.065677
vn -0.078003 -0.994788 0.065677
vn -0.078003 -0.994788 0.065677
vn -0.078003 -0.994788 0.065677
vn 0.684984 0.226577 0.692430
vn 0.684984 0.226577 0.692430
vn 0.684984 0.226577 0.692430
vn 0.684984 0.226577 0.692430
vn -0.687558 0.180671 -0.703294
vn -0.687558 0.180671 -0.703294
vn -0.687558 0.180671 -0.703294
vn -0.687558 0.180671 -0.703294
s off
f 1/1/1 2/2/2 4/3/3 3/4/4
f 5/5/5 6/6/6 8/7/7 7/8/8
f 17/9/9 18/10/10 19/11/11 20/12/12
f 2/13/13 8/14/14 6/15/15 4/16/16
f 7/17/17 1/18/18 3/19/19 5/20/20
f 3/21/21 4/22/22 10/23/23 9/24/24
f 4/25/25 6/26/26 11/27/27 10/28/28
f 5/29/29 3/30/30 9/31/31 12/32/32
f 7/33/33 8/34/34 14/35/35 13/36/36
f 8/37/37 2/38/38 15/39/39 14/40/40
f 2/41/41 1/42/42 16/43/43 15/44/44
f 1/45/45 7/46/46 13/47/47 16/48/48
f 13/49/49 14/50/50 18/51/51 17/52/52
f 14/53/53 15/54/54 19/55/55 18/56/56
f 15/57/57 16/58/58 20/59/59 19/60/60
f 16/61/61 13/62/62 17/63/63 20/64/64
f 6/65/65 5/66/66 12/67/67 11/68/68
f 21/69/69 22/70/70 24/71/71 23/72/72
f 23/73/73 24/74/74 26/75/75 25/76/76
f 25/77/77 26/78/78 28/79/79 27/80/80
f 27/81/81 28/82/82 22/83/83 21/84/84
f 22/85/85 28/86/86 26/87/87 24/88/88
f 27/89/89 21/90/90 23/91/91 25/92/92
f 29/93/93 30/94/94 32/95/95 31/96/96
f 31/97/97 32/98/98 34/99/99 33/100/100
f 33/101/101 34/102/102 36/103/103 35/104/104
f 35/105/105 36/106/106 30/107/107 29/108/108
f 30/109/109 36/110/110 34/111/111 32/112/112
f 35/113/113 29/114/114 31/115/115 33/116/116
f 37/117/117 38/118/118 40/119/119 39/120/120
f 39/121/121 40/122/122 42/123/123 41/124/124
f 41/125/125 42/126/126 44/127/127 43/128/128
f 43/129/129 44/130/130 38/131/131 37/132/132
f 38/133/133 44/134/134 42/135/135 40/136/136
f 43/137/137 37/138/138 39/139/139 41/140/140
