# This file uses meters as units for non-parametric coordinates.

v 0.159889 0.249773 0.005249
v 1.747467 0.249773 0.005249
v 0.159889 1.477344 0.005249
v 1.747467 1.587531 0.005249
v 0.159889 1.477344 -0.036041
v 1.747467 1.587531 -0.036041
v 0.159889 0.249773 -0.036041
v 1.747467 0.249773 -0.036041
v -2.746918 0.000000 0.024796
v -1.509369 0.000000 0.024796
v -2.746918 1.675207 0.024796
v -1.509369 1.571624 0.024796
v -2.746918 1.675207 -0.016495
v -1.509369 1.571624 -0.016495
v -2.746918 0.000000 -0.016495
v -1.509369 0.000000 -0.016495
v -4.398636 1.978199 0.036041
v 4.398636 1.978199 0.036041
v -4.398636 2.046098 0.036041
v 4.398636 2.046098 0.036041
v -4.398636 2.046098 -0.031860
v 4.398636 2.046098 -0.031860
v -4.398636 1.978199 -0.031860
v 4.398636 1.978199 -0.031860
v 0.000000 1.508773 -0.031860
v 0.000000 1.508773 0.036041
v 0.000000 1.440874 0.036041
v 0.000000 1.440874 -0.031860
v -2.199318 1.666938 -0.031860
v -2.199318 1.666938 0.036041
v -2.199318 1.599038 0.036041
v -2.199318 1.599038 -0.031860
v 2.199318 1.599038 0.036041
v 2.199318 1.666938 0.036041
v 2.199318 1.666938 -0.031860
v 2.199318 1.599038 -0.031860
v 1.099655 1.549493 -0.031860
v 1.099655 1.549493 0.036041
v 1.099655 1.481593 0.036041
v 1.099655 1.481593 -0.031860
v 3.298973 1.738939 0.036041
v 3.298973 1.806839 0.036041
v 3.298973 1.806839 -0.031860
v 3.298973 1.738939 -0.031860
v -1.099655 1.481593 0.036041
v -1.099655 1.549493 0.036041
v -1.099655 1.549493 -0.031860
v -1.099655 1.481593 -0.031860
v -3.298973 1.806839 -0.031860
v -3.298973 1.806839 0.036041
v -3.298973 1.738939 0.036041
v -3.298973 1.738939 -0.031860
v -1.088661 1.001468 0.017166
v -0.887962 1.001468 0.017166
v -1.088661 1.518583 0.017166
v -0.887962 1.518583 0.017166
v -1.088661 1.518583 -0.022324
v -0.887962 1.518583 -0.022324
v -1.088661 1.001468 -0.022324
v -0.887962 1.001468 -0.022324
v -1.404701 1.001468 0.017166
v -1.204002 1.001468 0.017166
v -1.404701 1.518583 0.017166
v -1.204002 1.518583 0.017166
v -1.404701 1.518583 -0.022324
v -1.204002 1.518583 -0.022324
v -1.404701 1.001468 -0.022324
v -1.204002 1.001468 -0.022324
vt 0.357177 0.061148
vt 0.357177 0.061148
vt 0.357177 0.061148
vt 0.357177 0.061148
vt 0.388743 0.061148
vt 0.388743 0.061148
vt 0.388743 0.061148
vt 0.388743 0.061148
vt 0.357177 0.061148
vt 0.357177 0.061148
vt 0.357177 0.061148
vt 0.357177 0.061148
vt 0.301937 0.061148
vt 0.301937 0.061148
vt 0.301937 0.061147
vt 0.301937 0.061147
vt 0.328768 0.061148
vt 0.328768 0.061148
vt 0.328768 0.061148
vt 0.328768 0.061148
vt 0.328768 0.061148
vt 0.328768 0.061148
vt 0.328768 0.061148
vt 0.328768 0.061148
vt 0.357177 0.061148
vt 0.357177 0.061148
vt 0.357177 0.061148
vt 0.357177 0.061148
vt 0.388743 0.061148
vt 0.388743 0.061148
vt 0.388743 0.061148
vt 0.388743 0.061148
vt 0.357177 0.061148
vt 0.357177 0.061148
vt 0.357177 0.061148
vt 0.357177 0.061148
vt 0.301937 0.061148
vt 0.301937 0.061148
vt 0.301937 0.061147
vt 0.301937 0.061147
vt 0.328768 0.061148
vt 0.328768 0.061148
vt 0.328768 0.061148
vt 0.328768 0.061148
vt 0.328768 0.061148
vt 0.328768 0.061148
vt 0.328768 0.061148
vt 0.328768 0.061148
vt 0.170782 0.061306
vt 0.170782 0.061306
vt 0.170782 0.061306
vt 0.170782 0.061306
vt 0.202749 0.061306
vt 0.202749 0.061306
vt 0.202749 0.061306
vt 0.202749 0.061306
vt 0.170782 0.061306
vt 0.170782 0.061306
vt 0.170782 0.061306
vt 0.170782 0.061306
vt 0.202749 0.061306
vt 0.202749 0.061306
vt 0.202749 0.061306
vt 0.202749 0.061306
vt 0.133630 0.061306
vt 0.133630 0.061306
vt 0.133630 0.061306
vt 0.133630 0.061306
vt 0.137395 0.061306
vt 0.137395 0.061306
vt 0.137395 0.061306
vt 0.137395 0.061306
vt 0.202749 0.061306
vt 0.202749 0.061306
vt 0.202749 0.061306
vt 0.202749 0.061306
vt 0.170782 0.061306
vt 0.170782 0.061306
vt 0.170782 0.061306
vt 0.170782 0.061306
vt 0.202749 0.061306
vt 0.202749 0.061306
vt 0.202749 0.061306
vt 0.202749 0.061306
vt 0.170782 0.061306
vt 0.170782 0.061306
vt 0.170782 0.061306
vt 0.170782 0.061306
vt 0.202749 0.061306
vt 0.202749 0.061306
vt 0.170782 0.061306
vt 0.170782 0.061306
vt 0.202749 0.061306
vt 0.202749 0.061306
vt 0.170782 0.061306
vt 0.170782 0.061306
vt 0.170782 0.061306
vt 0.170782 0.061306
vt 0.202749 0.061306
vt 0.202749 0.061306
vt 0.170782 0.061306
vt 0.170782 0.061306
vt 0.202749 0.061306
vt 0.202749 0.061306
vt 0.202749 0.061306
vt 0.202749 0.061306
vt 0.170782 0.061306
vt 0.170782 0.061306
vt 0.202749 0.061306
vt 0.202749 0.061306
vt 0.170782 0.061306
vt 0.170782 0.061306
vt 0.170782 0.061306
vt 0.170782 0.061306
vt 0.202749 0.061306
vt 0.202749 0.061306
vt 0.170782 0.061306
vt 0.170782 0.061306
vt 0.202749 0.061306
vt 0.202749 0.061306
vt 0.202749 0.061306
vt 0.202749 0.061306
vt 0.170782 0.061306
vt 0.170782 0.061306
vt 0.202749 0.061306
vt 0.202749 0.061306
vt 0.170782 0.061306
vt 0.170782 0.061306
vt 0.227881 0.063184
vt 0.227881 0.063184
vt 0.227881 0.063184
vt 0.227881 0.063184
vt 0.259447 0.063184
vt 0.259447 0.063184
vt 0.259447 0.063184
vt 0.259447 0.063184
vt 0.227881 0.063184
vt 0.227881 0.063184
vt 0.227881 0.063184
vt 0.227881 0.063184
vt 0.172640 0.063184
vt 0.172640 0.063184
vt 0.172640 0.063184
vt 0.172640 0.063184
vt 0.199471 0.063184
vt 0.199471 0.063184
vt 0.199471 0.063184
vt 0.199471 0.063184
vt 0.199471 0.063184
vt 0.199471 0.063184
vt 0.199471 0.063184
vt 0.199471 0.063184
vt 0.227881 0.063184
vt 0.227881 0.063184
vt 0.227881 0.063184
vt 0.227881 0.063184
vt 0.259447 0.063184
vt 0.259447 0.063184
vt 0.259447 0.063184
vt 0.259447 0.063184
vt 0.227881 0.063184
vt 0.227881 0.063184
vt 0.227881 0.063184
vt 0.227881 0.063184
vt 0.172640 0.063184
vt 0.172640 0.063184
vt 0.172640 0.063184
vt 0.172640 0.063184
vt 0.199471 0.063184
vt 0.199471 0.063184
vt 0.199471 0.063184
vt 0.199471 0.063184
vt 0.199471 0.063184
vt 0.199471 0.063184
vt 0.199471 0.063184
vt 0.199471 0.063184
vn 0.000000 0.000000 1.000000
vn 0.000000 0.000000 1.000000
vn 0.000000 0.000000 1.000000
vn 0.000000 0.000000 1.000000
vn -0.069239 0.997600 0.000000
vn -0.069239 0.997600 0.000000
vn -0.069239 0.997600 0.000000
vn -0.069239 0.997600 0.000000
vn 0.000000 0.000000 -1.000000
vn 0.000000 0.000000 -1.000000
vn 0.000000 0.000000 -1.000000
vn 0.000000 0.000000 -1.000000
vn 0.000000 -1.000000 0.000000
vn 0.000000 -1.000000 0.000000
vn 0.000000 -1.000000 0.000000
vn 0.000000 -1.000000 0.000000
vn 1.000000 0.000000 0.000000
vn 1.000000 0.000000 0.000000
vn 1.000000 0.000000 0.000000
vn 1.000000 0.000000 0.000000
vn -1.000000 0.000000 0.000000
vn -1.000000 0.000000 0.000000
vn -1.000000 0.000000 0.000000
vn -1.000000 0.000000 0.000000
vn 0.000000 0.000000 1.000000
vn 0.000000 0.000000 1.000000
vn 0.000000 0.000000 1.000000
vn 0.000000 0.000000 1.000000
vn 0.083409 0.996515 0.000000
vn 0.083409 0.996515 0.000000
vn 0.083409 0.996515 0.000000
vn 0.083409 0.996515 0.000000
vn 0.000000 0.000000 -1.000000
vn 0.000000 0.000000 -1.000000
vn 0.000000 0.000000 -1.000000
vn 0.000000 0.000000 -1.000000
vn 0.000000 -1.000000 0.000000
vn 0.000000 -1.000000 0.000000
vn 0.000000 -1.000000 0.000000
vn 0.000000 -1.000000 0.000000
vn 1.000000 0.000000 0.000000
vn 1.000000 0.000000 0.000000
vn 1.000000 0.000000 0.000000
vn 1.000000 0.000000 0.000000
vn -1.000000 0.000000 0.000000
vn -1.000000 0.000000 0.000000
vn -1.000000 0.000000 0.000000
vn -1.000000 0.000000 0.000000
vn 0.000000 0.000000 1.000000
vn 0.000000 0.000000 1.000000
vn -0.000000 0.000000 1.000000
vn -0.000000 0.000000 1.000000
vn -0.071730 0.997424 0.000000
vn -0.071730 0.997424 0.000000
vn -0.116219 0.993224 0.000000
vn -0.116219 0.993224 0.000000
vn 0.000000 0.000000 -1.000000
vn 0.000000 0.000000 -1.000000
vn 0.000000 0.000000 -1.000000
vn 0.000000 0.000000 -1.000000
vn 0.071730 -0.997424 0.000000
vn 0.071730 -0.997424 0.000000
vn 0.116219 -0.993224 0.000000
vn 0.116219 -0.993224 0.000000
vn 1.000000 0.000000 0.000000
vn 1.000000 0.000000 0.000000
vn 1.000000 0.000000 0.000000
vn 1.000000 0.000000 0.000000
vn -1.000000 0.000000 0.000000
vn -1.000000 0.000000 0.000000
vn -1.000000 0.000000 0.000000
vn -1.000000 0.000000 0.000000
vn 0.116219 0.993224 0.000000
vn 0.116219 0.993224 0.000000
vn 0.071730 0.997424 0.000000
vn 0.071730 0.997424 0.000000
vn 0.000000 0.000000 1.000000
vn 0.000000 0.000000 1.000000
vn -0.000000 0.000000 1.000000
vn -0.000000 0.000000 1.000000
vn -0.116219 -0.993224 0.000000
vn -0.116219 -0.993224 0.000000
vn -0.071730 -0.997424 0.000000
vn -0.071730 -0.997424 0.000000
vn -0.000000 0.000000 -1.000000
vn -0.000000 0.000000 -1.000000
vn -0.000000 0.000000 -1.000000
vn -0.000000 0.000000 -1.000000
vn 0.169893 0.985463 0.000000
vn 0.169893 0.985463 0.000000
vn 0.116219 0.993224 0.000000
vn 0.116219 0.993224 0.000000
vn 0.000000 0.000000 1.000000
vn 0.000000 0.000000 1.000000
vn 0.000000 0.000000 1.000000
vn 0.000000 0.000000 1.000000
vn -0.169893 -0.985463 0.000000
vn -0.169893 -0.985463 0.000000
vn -0.116219 -0.993224 0.000000
vn -0.116219 -0.993224 0.000000
vn -0.000000 0.000000 -1.000000
vn -0.000000 0.000000 -1.000000
vn -0.000000 0.000000 -1.000000
vn -0.000000 0.000000 -1.000000
vn -0.000000 0.000000 1.000000
vn -0.000000 0.000000 1.000000
vn -0.000000 0.000000 1.000000
vn -0.000000 0.000000 1.000000
vn -0.116219 0.993224 0.000000
vn -0.116219 0.993224 0.000000
vn -0.169893 0.985463 0.000000
vn -0.169893 0.985463 0.000000
vn 0.000000 0.000000 -1.000000
vn 0.000000 0.000000 -1.000000
vn 0.000000 0.000000 -1.000000
vn 0.000000 0.000000 -1.000000
vn 0.116219 -0.993224 0.000000
vn 0.116219 -0.993224 0.000000
vn 0.169893 -0.985463 0.000000
vn 0.169893 -0.985463 0.000000
vn 0.000000 1.000000 0.000000
vn 0.000000 1.000000 0.000000
vn -0.071730 0.997424 0.000000
vn -0.071730 0.997424 0.000000
vn -0.000000 0.000000 1.000000
vn -0.000000 0.000000 1.000000
vn 0.000000 0.000000 1.000000
vn 0.000000 0.000000 1.000000
vn 0.000000 -1.000000 0.000000
vn 0.000000 -1.000000 0.000000
vn 0.071730 -0.997424 0.000000
vn 0.071730 -0.997424 0.000000
vn 0.000000 0.000000 -1.000000
vn 0.000000 0.000000 -1.000000
vn 0.000000 0.000000 -1.000000
vn 0.000000 0.000000 -1.000000
vn -0.000000 0.000000 1.000000
vn -0.000000 0.000000 1.000000
vn 0.000000 0.000000 1.000000
vn 0.000000 0.000000 1.000000
vn -0.169893 0.985463 0.000000
vn -0.169893 0.985463 0.000000
vn -0.212602 0.977139 0.000000
vn -0.212602 0.977139 0.000000
vn 0.000000 0.000000 -1.000000
vn 0.000000 0.000000 -1.000000
vn 0.000000 0.000000 -1.000000
vn 0.000000 0.000000 -1.000000
vn 0.169893 -0.985463 0.000000
vn 0.169893 -0.985463 0.000000
vn 0.212602 -0.977139 0.000000
vn 0.212602 -0.977139 0.000000
vn -0.000000 0.000000 1.000000
vn -0.000000 0.000000 1.000000
vn -0.000000 0.000000 1.000000
vn -0.000000 0.000000 1.000000
vn 0.071730 0.997424 0.000000
vn 0.071730 0.997424 0.000000
vn 0.000000 1.000000 0.000000
vn 0.000000 1.000000 0.000000
vn -0.000000 0.000000 -1.000000
vn -0.000000 0.000000 -1.000000
vn 0.000000 0.000000 -1.000000
vn 0.000000 0.000000 -1.000000
vn -0.071730 -0.997424 0.000000
vn -0.071730 -0.997424 0.000000
vn 0.000000 -1.000000 0.000000
vn 0.000000 -1.000000 0.000000
vn 0.212602 0.977139 0.000000
vn 0.169893 0.985463 0.000000
vn 0.169893 0.985463 0.000000
vn 0.212602 0.977139 0.000000
vn 0.000000 0.000000 1.000000
vn 0.000000 0.000000 1.000000
vn 0.000000 0.000000 1.000000
vn 0.000000 0.000000 1.000000
vn -0.212602 -0.977139 0.000000
vn -0.169893 -0.985463 0.000000
vn -0.169893 -0.985463 0.000000
vn -0.212602 -0.977139 0.000000
vn -0.000000 0.000000 -1.000000
vn -0.000000 0.000000 -1.000000
vn -0.000000 0.000000 -1.000000
vn -0.000000 0.000000 -1.000000
vn 0.000000 0.000000 1.000000
vn 0.000000 0.000000 1.000000
vn 0.000000 0.000000 1.000000
vn 0.000000 0.000000 1.000000
vn 0.000000 1.000000 0.000000
vn 0.000000 1.000000 0.000000
vn 0.000000 1.000000 0.000000
vn 0.000000 1.000000 0.000000
vn 0.000000 0.000000 -1.000000
vn 0.000000 0.000000 -1.000000
vn 0.000000 0.000000 -1.000000
vn 0.000000 0.000000 -1.000000
vn 0.000000 -1.000000 0.000000
vn 0.000000 -1.000000 0.000000
vn 0.000000 -1.000000 0.000000
vn 0.000000 -1.000000 0.000000
vn 1.000000 0.000000 0.000000
vn 1.000000 0.000000 0.000000
vn 1.000000 0.000000 0.000000
vn 1.000000 0.000000 0.000000
vn -1.000000 0.000000 0.000000
vn -1.000000 0.000000 0.000000
vn -1.000000 0.000000 0.000000
vn -1.000000 0.000000 0.000000
vn 0.000000 0.000000 1.000000
vn 0.000000 0.000000 1.000000
vn 0.000000 0.000000 1.000000
vn 0.000000 0.000000 1.000000
vn 0.000000 1.000000 0.000000
vn 0.000000 1.000000 0.000000
vn 0.000000 1.000000 0.000000
vn 0.000000 1.000000 0.000000
vn 0.000000 0.000000 -1.000000
vn 0.000000 0.000000 -1.000000
vn 0.000000 0.000000 -1.000000
vn 0.000000 0.000000 -1.000000
vn 0.000000 -1.000000 0.000000
vn 0.000000 -1.000000 0.000000
vn 0.000000 -1.000000 0.000000
vn 0.000000 -1.000000 0.000000
vn 1.000000 0.000000 0.000000
vn 1.000000 0.000000 0.000000
vn 1.000000 0.000000 0.000000
vn 1.000000 0.000000 0.000000
vn -1.000000 0.000000 0.000000
vn -1.000000 0.000000 0.000000
vn -1.000000 0.000000 0.000000
vn -1.000000 0.000000 0.000000
s off
f 1/1/1 2/2/2 4/3/3 3/4/4
f 3/5/5 4/6/6 6/7/7 5/8/8
f 5/9/9 6/10/10 8/11/11 7/12/12
f 7/13/13 8/14/14 2/15/15 1/16/16
f 2/17/17 8/18/18 6/19/19 4/20/20
f 7/21/21 1/22/22 3/23/23 5/24/24
f 9/25/25 10/26/26 12/27/27 11/28/28
f 11/29/29 12/30/30 14/31/31 13/32/32
f 13/33/33 14/34/34 16/35/35 15/36/36
f 15/37/37 16/38/38 10/39/39 9/40/40
f 10/41/41 16/42/42 14/43/43 12/44/44
f 15/45/45 9/46/46 11/47/47 13/48/48
f 38/49/49 39/50/50 33/51/51 34/52/52
f 37/53/53 38/54/54 34/55/55 35/56/56
f 40/57/57 37/58/58 35/59/59 36/60/60
f 39/61/61 40/62/62 36/63/63 33/64/64
f 18/65/65 24/66/66 22/67/67 20/68/68
f 23/69/69 17/70/70 19/71/71 21/72/72
f 29/73/73 30/74/74 46/75/75 47/76/76
f 30/77/77 31/78/78 45/79/79 46/80/80
f 31/81/81 32/82/82 48/83/83 45/84/84
f 32/85/85 29/86/86 47/87/87 48/88/88
f 49/89/89 50/90/90 30/74/91 29/73/92
f 50/91/93 51/92/94 31/78/95 30/77/96
f 51/93/97 52/94/98 32/82/99 31/81/100
f 52/95/101 49/96/102 29/86/103 32/85/104
f 34/52/105 33/51/106 41/97/107 42/98/108
f 35/56/109 34/55/110 42/99/111 43/100/112
f 36/60/113 35/59/114 43/101/115 44/102/116
f 33/64/117 36/63/118 44/103/119 41/104/120
f 25/105/121 26/106/122 38/54/123 37/53/124
f 26/107/125 27/108/126 39/50/127 38/49/128
f 27/109/129 28/110/130 40/62/131 39/61/132
f 28/111/133 25/112/134 37/58/135 40/57/136
f 42/98/137 41/97/138 18/113/139 20/114/140
f 43/100/141 42/99/142 20/115/143 22/116/144
f 44/102/145 43/101/146 22/117/147 24/118/148
f 41/104/149 44/103/150 24/119/151 18/120/152
f 46/80/153 45/79/154 27/108/155 26/107/156
f 47/76/157 46/75/158 26/106/159 25/105/160
f 48/88/161 47/87/162 25/112/163 28/111/164
f 45/84/165 48/83/166 28/110/167 27/109/168
f 19/121/169 50/90/170 49/89/171 21/122/172
f 17/123/173 51/92/174 50/91/175 19/124/176
f 23/125/177 52/94/178 51/93/179 17/126/180
f 21/127/181 49/96/182 52/95/183 23/128/184
f 53/129/185 54/130/186 56/131/187 55/132/188
f 55/133/189 56/134/190 58/135/191 57/136/192
f 57/137/193 58/138/194 60/139/195 59/140/196
f 59/141/197 60/142/198 54/143/199 53/144/200
f 54/145/201 60/146/202 58/147/203 56/148/204
f 59/149/205 53/150/206 55/151/207 57/152/208
f 61/153/209 62/154/210 64/155/211 63/156/212
f 63/157/213 64/158/214 66/159/215 65/160/216
f 65/161/217 66/162/218 68/163/219 67/164/220
f 67/165/221 68/166/222 62/167/223 61/168/224
f 62/169/225 68/170/226 66/171/227 64/172/228
f 67/173/229 61/174/230 63/175/231 65/176/232
