# This file uses meters as units for non-parametric coordinates.

v -1.718941 -0.042165 2.787155
v -0.018242 -0.046498 3.054611
v -1.446251 0.352887 2.430374
v -0.284935 0.579910 2.855621
v -2.011116 0.578631 -3.155945
v 2.607796 0.448914 -3.440094
v -2.217796 -0.087257 -3.587555
v 2.934363 -0.119088 -4.185349
v 2.933449 0.623378 -1.924805
v 3.197929 -0.082793 -1.731323
v -1.412865 0.160504 0.128723
v 0.290169 0.174792 0.266724
v -1.336998 1.020735 0.087997
v 0.008827 1.118228 0.096558
v -1.306877 1.313865 -1.291351
v -0.263100 1.285798 -1.419647
v -1.456535 0.174792 -1.454758
v -0.259010 0.130771 -1.699768
v -1.254509 0.323245 -2.708206
v -1.293541 0.323245 -0.619751
v -0.821342 1.009230 -2.362228
v -1.092705 0.996192 -0.866837
v 1.400337 1.087076 -2.557968
v 1.422890 1.074037 -1.038315
v 1.490578 0.323245 -3.172287
v 1.723976 0.302795 -1.102463
v -0.597404 1.927039 -0.825562
v -0.310310 1.925139 -0.658203
v -0.619057 2.433958 -0.843292
v -0.394707 2.474340 -0.788605
v -0.528923 2.659353 -2.259888
v 0.008385 2.625934 -2.283539
v -0.545998 1.745180 -2.246902
v -0.017220 1.695405 -2.299545
v 0.140343 2.666216 -2.044601
v 0.142311 1.684753 -2.038208
v -0.004341 2.727973 -1.611694
v -0.607567 1.025893 2.333084
v -0.763649 0.978044 1.099564
v -0.626579 1.550473 2.361069
v -0.706718 1.510574 1.077026
v -0.278191 1.723036 2.502808
v -0.278191 1.698367 0.937485
v -0.278191 0.721886 2.435913
v -0.278191 0.683195 0.955826
v -0.587822 1.594963 -1.333191
v -0.708305 1.579889 -1.926315
v -0.602501 2.078212 -1.517975
v -0.664360 2.047412 -1.937134
v -0.333549 2.211424 -1.451935
v -0.333549 2.192381 -2.002167
v -0.333549 1.499188 -1.261353
v -0.333549 1.486999 -2.026733
v 0.666023 3.365339 -2.292007
v 1.264702 3.328136 -2.448059
v 0.646278 3.773203 -2.311005
v 1.280617 3.742181 -2.391159
v 0.546333 3.907371 -1.962601
v 1.379005 3.888191 -1.962601
v 0.593498 3.128973 -1.962601
v 1.366081 3.098890 -1.962601
v 1.446236 2.904497 -2.367416
v 0.282326 2.867294 -2.523468
v 1.484596 3.312361 -2.386414
v 0.251411 3.281339 -2.466568
v 1.678933 3.446529 -2.038010
v 0.060127 3.427349 -2.038010
v 1.587196 2.668130 -2.038010
v 0.085243 2.638048 -2.038010
v -0.551613 3.689416 -1.039093
v -0.653984 3.662056 -1.644928
v -0.564079 4.076347 -0.963928
v -0.616646 4.204375 -1.599503
v -0.344078 4.106573 -0.869308
v -0.344078 4.298312 -1.744125
v -0.344078 3.563017 -0.996597
v -0.344078 3.534729 -1.817017
v 0.070717 0.238647 4.157486
v -0.077034 0.402267 2.296463
v -0.690529 0.258545 4.319977
v -0.862892 0.342590 2.373444
v -0.906929 -0.106720 4.602310
v -1.173775 -0.106720 2.173355
v 0.542412 -0.106720 4.268890
v 0.317986 -0.106720 1.984070
v 4.238411 0.238647 -1.899704
v 2.753624 0.402267 -2.060944
v 4.334877 0.258545 -2.675003
v 2.762718 0.342590 -2.861954
v 4.597740 -0.106720 -2.893723
v 2.536476 -0.106720 -3.180481
v 4.390083 -0.106720 -1.417786
v 2.476158 -0.106720 -1.660263
v -2.815300 -0.075979 -1.354233
v -1.229179 -0.078962 -1.608826
v -2.716087 0.364913 -1.583206
v -1.334526 0.352200 -1.682938
v -2.982841 0.416373 -3.467682
v -0.952843 0.403660 -3.702805
v -3.072960 -0.107017 -3.666519
v -1.026741 -0.128926 -3.955093
v -3.887016 -0.039758 -3.190674
v -4.597740 -0.041686 -2.771225
v -3.891472 0.245183 -3.062561
v -4.533455 0.236966 -2.755554
v -3.410210 0.278441 -2.211426
v -4.246727 0.270224 -2.026108
v -3.329796 -0.059817 -2.133255
v -4.164055 -0.073977 -1.919327
v 2.155266 -0.039758 -3.409027
v 1.991081 -0.041686 -4.217804
v 2.035652 0.245183 -3.455109
v 1.955254 0.236966 -4.162170
v 1.073982 0.278441 -3.278381
v 1.172173 0.270224 -4.129532
v 0.973824 -0.059817 -3.227905
v 1.044228 -0.073977 -4.086273
vt 0.258846 0.286963
vt 0.258846 0.286963
vt 0.258846 0.286963
vt 0.258846 0.286963
vt 0.290412 0.286963
vt 0.290412 0.286963
vt 0.290412 0.286963
vt 0.290412 0.286963
vt 0.290412 0.286963
vt 0.258846 0.286963
vt 0.258846 0.286963
vt 0.258846 0.286963
vt 0.258846 0.286963
vt 0.230437 0.286963
vt 0.230437 0.286963
vt 0.230437 0.286963
vt 0.230437 0.286963
vt 0.230437 0.286963
vt 0.230437 0.286963
vt 0.230437 0.286963
vt 0.230437 0.286963
vt 0.236586 0.286963
vt 0.236586 0.286963
vt 0.236586 0.286963
vt 0.236586 0.286963
vt 0.290412 0.286963
vt 0.290412 0.286963
vt 0.290412 0.286963
vt 0.290412 0.286963
vt 0.236586 0.286963
vt 0.236586 0.286963
vt 0.236586 0.286963
vt 0.236586 0.286963
vt 0.203606 0.286963
vt 0.203606 0.286963
vt 0.203606 0.286963
vt 0.203606 0.286963
vt 0.230437 0.286963
vt 0.230437 0.286963
vt 0.230437 0.286963
vt 0.230437 0.286963
vt 0.263827 0.286963
vt 0.263827 0.286963
vt 0.263827 0.286963
vt 0.263827 0.286963
vt 0.258846 0.286963
vt 0.258846 0.286963
vt 0.258846 0.286963
vt 0.258846 0.286963
vt 0.290412 0.286963
vt 0.290412 0.286963
vt 0.290412 0.286963
vt 0.290412 0.286963
vt 0.258846 0.286963
vt 0.258846 0.286963
vt 0.258846 0.286963
vt 0.258846 0.286963
vt 0.203606 0.286963
vt 0.203606 0.286963
vt 0.203606 0.286963
vt 0.203606 0.286963
vt 0.230437 0.286963
vt 0.230437 0.286963
vt 0.230437 0.286963
vt 0.230437 0.286963
vt 0.230437 0.286963
vt 0.230437 0.286963
vt 0.230437 0.286963
vt 0.230437 0.286963
vt 0.258846 0.286963
vt 0.258846 0.286963
vt 0.258846 0.286963
vt 0.258846 0.286963
vt 0.290412 0.286963
vt 0.290412 0.286963
vt 0.290412 0.286963
vt 0.290412 0.286963
vt 0.258846 0.286963
vt 0.258846 0.286963
vt 0.258846 0.286963
vt 0.258846 0.286963
vt 0.203606 0.286963
vt 0.203606 0.286963
vt 0.203606 0.286963
vt 0.203606 0.286963
vt 0.203606 0.286963
vt 0.230437 0.286963
vt 0.230437 0.286963
vt 0.230437 0.286963
vt 0.230437 0.286963
vt 0.230437 0.286963
vt 0.230437 0.286963
vt 0.230437 0.286963
vt 0.230437 0.286963
vt 0.290412 0.286963
vt 0.290412 0.286963
vt 0.258846 0.286963
vt 0.258846 0.286963
vt 0.258846 0.286963
vt 0.258846 0.286963
vt 0.290412 0.286963
vt 0.290412 0.286963
vt 0.290412 0.286963
vt 0.290412 0.286963
vt 0.203606 0.286963
vt 0.203606 0.286963
vt 0.203606 0.286963
vt 0.203606 0.286963
vt 0.230437 0.286963
vt 0.230437 0.286963
vt 0.230437 0.286963
vt 0.230437 0.286963
vt 0.230437 0.286963
vt 0.230437 0.286963
vt 0.230437 0.286963
vt 0.230437 0.286963
vt 0.258846 0.286963
vt 0.258846 0.286963
vt 0.258846 0.286963
vt 0.258846 0.286963
vt 0.290412 0.286963
vt 0.290412 0.286963
vt 0.290412 0.286963
vt 0.290412 0.286963
vt 0.203606 0.286963
vt 0.203606 0.286963
vt 0.203606 0.286963
vt 0.203606 0.286963
vt 0.230437 0.286963
vt 0.230437 0.286963
vt 0.230437 0.286963
vt 0.230437 0.286963
vt 0.230437 0.286963
vt 0.230437 0.286963
vt 0.230437 0.286963
vt 0.230437 0.286963
vt 0.258846 0.286963
vt 0.258846 0.286963
vt 0.258846 0.286963
vt 0.258846 0.286963
vt 0.290412 0.286963
vt 0.290412 0.286963
vt 0.290412 0.286963
vt 0.290412 0.286963
vt 0.203606 0.286963
vt 0.203606 0.286963
vt 0.203606 0.286963
vt 0.203606 0.286963
vt 0.230437 0.286963
vt 0.230437 0.286963
vt 0.230437 0.286963
vt 0.230437 0.286963
vt 0.230437 0.286963
vt 0.230437 0.286963
vt 0.230437 0.286963
vt 0.230437 0.286963
vt 0.258846 0.286963
vt 0.258846 0.286963
vt 0.258846 0.286963
vt 0.258846 0.286963
vt 0.290412 0.286963
vt 0.290412 0.286963
vt 0.290412 0.286963
vt 0.290412 0.286963
vt 0.203606 0.286963
vt 0.203606 0.286963
vt 0.203606 0.286963
vt 0.203606 0.286963
vt 0.230437 0.286963
vt 0.230437 0.286963
vt 0.230437 0.286963
vt 0.230437 0.286963
vt 0.230437 0.286963
vt 0.230437 0.286963
vt 0.230437 0.286963
vt 0.230437 0.286963
vt 0.258846 0.286963
vt 0.258846 0.286963
vt 0.258846 0.286963
vt 0.258846 0.286963
vt 0.290412 0.286963
vt 0.290412 0.286963
vt 0.290412 0.286963
vt 0.290412 0.286963
vt 0.203606 0.286963
vt 0.203606 0.286963
vt 0.203606 0.286963
vt 0.203606 0.286963
vt 0.230437 0.286963
vt 0.230437 0.286963
vt 0.230437 0.286963
vt 0.230437 0.286963
vt 0.230437 0.286963
vt 0.230437 0.286963
vt 0.230437 0.286963
vt 0.230437 0.286963
vt 0.299143 0.286963
vt 0.299143 0.286963
vt 0.299143 0.286963
vt 0.299143 0.286963
vt 0.237391 0.286963
vt 0.237391 0.286963
vt 0.237391 0.286963
vt 0.237391 0.286963
vt 0.203606 0.286963
vt 0.203606 0.286963
vt 0.203606 0.286963
vt 0.203606 0.286963
vt 0.230437 0.286963
vt 0.230437 0.286963
vt 0.230437 0.286963
vt 0.230437 0.286963
vt 0.202866 0.286963
vt 0.202866 0.286963
vt 0.202866 0.286963
vt 0.202866 0.286963
vt 0.299143 0.286963
vt 0.299143 0.286963
vt 0.299143 0.286963
vt 0.299143 0.286963
vt 0.237391 0.286963
vt 0.237391 0.286963
vt 0.237391 0.286963
vt 0.237391 0.286963
vt 0.203606 0.286963
vt 0.203606 0.286963
vt 0.203606 0.286963
vt 0.203606 0.286963
vt 0.230437 0.286963
vt 0.230437 0.286963
vt 0.230437 0.286963
vt 0.230437 0.286963
vt 0.202866 0.286963
vt 0.202866 0.286963
vt 0.202866 0.286963
vt 0.202866 0.286963
vt 0.258846 0.286963
vt 0.258846 0.286963
vt 0.258846 0.286963
vt 0.258846 0.286963
vt 0.290412 0.286963
vt 0.290412 0.286963
vt 0.290412 0.286963
vt 0.290412 0.286963
vt 0.258846 0.286963
vt 0.258846 0.286963
vt 0.258846 0.286963
vt 0.258846 0.286963
vt 0.203606 0.286963
vt 0.203606 0.286963
vt 0.203606 0.286963
vt 0.203606 0.286963
vt 0.230437 0.286963
vt 0.230437 0.286963
vt 0.230437 0.286963
vt 0.230437 0.286963
vt 0.230437 0.286963
vt 0.230437 0.286963
vt 0.230437 0.286963
vt 0.230437 0.286963
vt 0.258846 0.286963
vt 0.258846 0.286963
vt 0.258846 0.286963
vt 0.258846 0.286963
vt 0.290412 0.286963
vt 0.290412 0.286963
vt 0.290412 0.286963
vt 0.290412 0.286963
vt 0.258846 0.286963
vt 0.258846 0.286963
vt 0.258846 0.286963
vt 0.258846 0.286963
vt 0.203606 0.286963
vt 0.203606 0.286963
vt 0.203606 0.286963
vt 0.203606 0.286963
vt 0.230437 0.286963
vt 0.230437 0.286963
vt 0.230437 0.286963
vt 0.230437 0.286963
vt 0.230437 0.286963
vt 0.230437 0.286963
vt 0.230437 0.286963
vt 0.230437 0.286963
vt 0.258846 0.286963
vt 0.258846 0.286963
vt 0.258846 0.286963
vt 0.258846 0.286963
vt 0.290412 0.286963
vt 0.290412 0.286963
vt 0.290412 0.286963
vt 0.290412 0.286963
vt 0.258846 0.286963
vt 0.258846 0.286963
vt 0.258846 0.286963
vt 0.258846 0.286963
vt 0.203606 0.286963
vt 0.203606 0.286963
vt 0.203606 0.286963
vt 0.203606 0.286963
vt 0.230437 0.286963
vt 0.230437 0.286963
vt 0.230437 0.286963
vt 0.230437 0.286963
vt 0.230437 0.286963
vt 0.230437 0.286963
vt 0.230437 0.286963
vt 0.230437 0.286963
vn -0.242287 0.464788 0.851627
vn -0.242287 0.464788 0.851627
vn -0.242287 0.464788 0.851627
vn -0.242287 0.464788 0.851627
vn -0.036240 0.999299 -0.009441
vn -0.036240 0.999299 -0.009441
vn -0.036240 0.999299 -0.009441
vn -0.036240 0.999299 -0.009441
vn -0.036240 0.999299 -0.009441
vn -0.054107 0.686418 -0.725191
vn -0.054107 0.686418 -0.725191
vn -0.054107 0.686418 -0.725191
vn -0.054107 0.686418 -0.725191
vn 0.869201 0.469873 -0.153976
vn 0.869201 0.469873 -0.153976
vn 0.869201 0.469873 -0.153976
vn 0.869201 0.469873 -0.153976
vn -0.910124 0.405086 0.087058
vn -0.910124 0.405086 0.087058
vn -0.910124 0.405086 0.087058
vn -0.910124 0.405086 0.087058
vn -0.051752 0.110159 0.992566
vn -0.051752 0.110159 0.992566
vn -0.051752 0.110159 0.992566
vn -0.051752 0.110159 0.992566
vn -0.020723 0.987096 0.158783
vn -0.020723 0.987096 0.158783
vn -0.020723 0.987096 0.158783
vn -0.020723 0.987096 0.158783
vn -0.154907 0.196994 -0.968090
vn -0.154907 0.196994 -0.968090
vn -0.154907 0.196994 -0.968090
vn -0.154907 0.196994 -0.968090
vn -0.009880 -0.999901 0.010025
vn -0.009880 -0.999901 0.010025
vn -0.009880 -0.999901 0.010025
vn -0.009880 -0.999901 0.010025
vn 0.964455 0.142833 -0.222320
vn 0.964455 0.142833 -0.222320
vn 0.964455 0.142833 -0.222320
vn 0.964455 0.142833 -0.222320
vn -0.993679 0.111103 0.016072
vn -0.993679 0.111103 0.016072
vn -0.993679 0.111103 0.016072
vn -0.993679 0.111103 0.016072
vn -0.901423 0.426123 -0.076521
vn -0.901423 0.426123 -0.076521
vn -0.901423 0.426123 -0.076521
vn -0.901423 0.426123 -0.076521
vn -0.032384 0.999458 0.005972
vn -0.032384 0.999458 0.005972
vn -0.032384 0.999458 0.005972
vn -0.032384 0.999458 0.005972
vn 0.959550 0.273724 -0.065868
vn 0.959550 0.273725 -0.065868
vn 0.959550 0.273724 -0.065868
vn 0.959550 0.273725 -0.065868
vn -0.004323 -0.999980 -0.004716
vn -0.004323 -0.999980 -0.004716
vn -0.004323 -0.999980 -0.004716
vn -0.004323 -0.999979 -0.004716
vn 0.115018 0.132687 0.984462
vn 0.115018 0.132687 0.984462
vn 0.115018 0.132687 0.984462
vn 0.115018 0.132687 0.984462
vn -0.117163 0.567521 -0.814980
vn -0.117163 0.567521 -0.814980
vn -0.117163 0.567521 -0.814980
vn -0.117163 0.567521 -0.814980
vn -0.402245 0.087436 0.911348
vn -0.402245 0.087436 0.911348
vn -0.402245 0.087436 0.911348
vn -0.402245 0.087436 0.911348
vn 0.037909 0.988058 -0.149347
vn 0.037909 0.988058 -0.149347
vn 0.037909 0.988058 -0.149347
vn 0.037909 0.988058 -0.149347
vn -0.071127 0.003279 -0.997462
vn -0.071127 0.003279 -0.997462
vn -0.071127 0.003279 -0.997462
vn -0.071127 0.003279 -0.997462
vn -0.110653 -0.986807 0.118184
vn -0.110653 -0.986807 0.118184
vn -0.110653 -0.986807 0.118184
vn -0.110653 -0.986807 0.118184
vn -0.110653 -0.986807 0.118184
vn 0.864214 -0.008154 -0.503058
vn 0.864214 -0.008154 -0.503058
vn 0.864214 -0.008154 -0.503058
vn 0.864214 -0.008154 -0.503058
vn -0.998746 -0.004295 -0.049878
vn -0.998746 -0.004295 -0.049878
vn -0.998746 -0.004295 -0.049878
vn -0.998746 -0.004295 -0.049878
vn -0.274052 0.950788 0.144561
vn -0.274052 0.950788 0.144561
vn -0.274052 0.950788 0.144561
vn -0.274052 0.950788 0.144561
vn -0.995123 0.035220 0.092144
vn -0.995123 0.035220 0.092144
vn -0.995123 0.035220 0.092144
vn -0.995123 0.035220 0.092144
vn -0.420733 0.907143 -0.008723
vn -0.420733 0.907143 -0.008723
vn -0.420733 0.907143 -0.008723
vn -0.420733 0.907143 -0.008723
vn -0.589209 -0.805780 0.059588
vn -0.589209 -0.805780 0.059588
vn -0.589209 -0.805780 0.059588
vn -0.589209 -0.805780 0.059588
vn -0.297540 -0.014269 -0.954603
vn -0.297540 -0.014269 -0.954603
vn -0.297540 -0.014269 -0.954603
vn -0.297540 -0.014269 -0.954603
vn -0.349460 -0.062490 0.934865
vn -0.349460 -0.062490 0.934865
vn -0.349460 -0.062490 0.934865
vn -0.349460 -0.062490 0.934865
vn -0.982531 0.066039 0.173990
vn -0.982531 0.066039 0.173990
vn -0.982531 0.066039 0.173990
vn -0.982531 0.066039 0.173990
vn -0.420652 0.907006 -0.019794
vn -0.420652 0.907006 -0.019794
vn -0.420652 0.907006 -0.019794
vn -0.420652 0.907006 -0.019794
vn -0.285147 -0.957450 0.044504
vn -0.285147 -0.957450 0.044504
vn -0.285147 -0.957450 0.044504
vn -0.285147 -0.957450 0.044504
vn -0.229655 0.020010 -0.973066
vn -0.229655 0.020010 -0.973066
vn -0.229655 0.020010 -0.973066
vn -0.229655 0.020010 -0.973066
vn -0.263256 0.286056 0.921340
vn -0.263256 0.286056 0.921340
vn -0.263256 0.286056 0.921340
vn -0.263256 0.286056 0.921340
vn -0.185590 0.044403 -0.981624
vn -0.185590 0.044403 -0.981624
vn -0.185590 0.044403 -0.981624
vn -0.185590 0.044403 -0.981623
vn 0.013658 0.940626 -0.339169
vn 0.013658 0.940626 -0.339169
vn 0.013658 0.940626 -0.339169
vn 0.013658 0.940626 -0.339169
vn -0.098357 -0.865541 -0.491086
vn -0.098357 -0.865541 -0.491086
vn -0.098357 -0.865541 -0.491086
vn -0.098357 -0.865541 -0.491086
vn 0.976600 -0.013255 -0.214654
vn 0.976600 -0.013255 -0.214654
vn 0.976600 -0.013255 -0.214654
vn 0.976600 -0.013255 -0.214654
vn -0.965314 -0.058522 -0.254450
vn -0.965314 -0.058522 -0.254450
vn -0.965314 -0.058522 -0.254450
vn -0.965314 -0.058522 -0.254450
vn 0.096696 0.044977 -0.994297
vn 0.096696 0.044977 -0.994297
vn 0.096696 0.044977 -0.994297
vn 0.096696 0.044977 -0.994297
vn -0.007026 0.940691 -0.339192
vn -0.007026 0.940691 -0.339192
vn -0.007026 0.940691 -0.339192
vn -0.007026 0.940691 -0.339192
vn 0.050773 -0.868637 -0.492840
vn 0.050773 -0.868637 -0.492840
vn 0.050773 -0.868637 -0.492840
vn 0.050773 -0.868637 -0.492840
vn -0.919297 -0.024230 -0.392817
vn -0.919297 -0.024230 -0.392817
vn -0.919297 -0.024230 -0.392817
vn -0.919297 -0.024230 -0.392817
vn 0.885094 -0.104332 -0.453567
vn 0.885094 -0.104332 -0.453567
vn 0.885094 -0.104332 -0.453567
vn 0.885094 -0.104332 -0.453567
vn -0.992144 0.010377 0.124669
vn -0.992144 0.010377 0.124669
vn -0.992144 0.010377 0.124669
vn -0.992144 0.010377 0.124669
vn -0.218970 0.953001 0.209381
vn -0.218970 0.953001 0.209381
vn -0.218970 0.953001 0.209381
vn -0.218970 0.953001 0.209381
vn -0.425984 -0.902336 0.065783
vn -0.425984 -0.902336 0.065783
vn -0.425984 -0.902336 0.065783
vn -0.425984 -0.902336 0.065783
vn -0.471503 0.092934 -0.876954
vn -0.471503 0.092934 -0.876954
vn -0.471503 0.092934 -0.876954
vn -0.471503 0.092934 -0.876954
vn -0.340315 -0.204265 0.917857
vn -0.340315 -0.204265 0.917857
vn -0.340315 -0.204265 0.917857
vn -0.340315 -0.204265 0.917857
vn -0.015407 0.997688 0.066191
vn -0.015407 0.997688 0.066191
vn -0.015407 0.997688 0.066191
vn -0.015407 0.997688 0.066191
vn -0.831404 0.547664 0.093976
vn -0.831404 0.547664 0.093976
vn -0.831404 0.547664 0.093975
vn -0.831404 0.547664 0.093976
vn 0.697542 0.715719 -0.034373
vn 0.697542 0.715719 -0.034373
vn 0.697542 0.715719 -0.034373
vn 0.697542 0.715719 -0.034373
vn -0.114961 0.460589 -0.880137
vn -0.114961 0.460589 -0.880137
vn -0.114961 0.460589 -0.880137
vn -0.114961 0.460589 -0.880137
vn 0.190512 0.527251 0.828077
vn 0.190512 0.527251 0.828077
vn 0.190512 0.527251 0.828077
vn 0.190512 0.527251 0.828077
vn 0.082954 0.996361 -0.019589
vn 0.082954 0.996361 -0.019589
vn 0.082954 0.996361 -0.019589
vn 0.082954 0.996361 -0.019589
vn 0.120447 0.550335 -0.826210
vn 0.120447 0.550336 -0.826210
vn 0.120447 0.550335 -0.826210
vn 0.120447 0.550336 -0.826210
vn -0.047396 0.721070 0.691240
vn -0.047396 0.721070 0.691240
vn -0.047396 0.721070 0.691240
vn -0.047396 0.721070 0.691240
vn -0.885868 0.462347 -0.038377
vn -0.885868 0.462347 -0.038377
vn -0.885868 0.462347 -0.038377
vn -0.885868 0.462347 -0.038377
vn 0.838122 0.532583 0.117930
vn 0.838122 0.532583 0.117930
vn 0.838122 0.532583 0.117930
vn 0.838122 0.532583 0.117930
vn 0.113744 0.326874 0.938198
vn 0.113744 0.326874 0.938198
vn 0.113744 0.326874 0.938198
vn 0.113744 0.326874 0.938198
vn 0.010065 0.999594 0.026646
vn 0.010065 0.999594 0.026646
vn 0.010065 0.999594 0.026646
vn 0.010065 0.999594 0.026646
vn -0.113116 0.405148 -0.907226
vn -0.113116 0.405148 -0.907226
vn -0.113116 0.405148 -0.907227
vn -0.113116 0.405148 -0.907226
vn -0.004245 -0.999839 0.017435
vn -0.004245 -0.999839 0.017435
vn -0.004245 -0.999839 0.017435
vn -0.004245 -0.999839 0.017435
vn 0.991139 0.007827 0.132602
vn 0.991139 0.007827 0.132602
vn 0.991139 0.007827 0.132602
vn 0.991139 0.007827 0.132602
vn -0.973137 0.194900 0.122549
vn -0.973137 0.194900 0.122549
vn -0.973137 0.194900 0.122549
vn -0.973137 0.194900 0.122549
vn -0.457742 0.265098 -0.848643
vn -0.457742 0.265098 -0.848643
vn -0.457742 0.265098 -0.848643
vn -0.457742 0.265098 -0.848643
vn -0.021612 0.999269 -0.031551
vn -0.021612 0.999268 -0.031551
vn -0.021612 0.999268 -0.031551
vn -0.021612 0.999269 -0.031551
vn 0.217613 0.303410 0.927678
vn 0.217613 0.303410 0.927678
vn 0.217613 0.303410 0.927678
vn 0.217613 0.303410 0.927678
vn -0.000682 -0.999634 -0.027054
vn -0.000682 -0.999634 -0.027054
vn -0.000682 -0.999634 -0.027054
vn -0.000682 -0.999634 -0.027054
vn -0.909504 0.033758 0.414322
vn -0.909504 0.033758 0.414322
vn -0.909504 0.033758 0.414322
vn -0.909504 0.033758 0.414322
vn 0.867181 0.155995 -0.472930
vn 0.867181 0.155995 -0.472930
vn 0.867181 0.155995 -0.472930
vn 0.867181 0.155995 -0.472930
vn 0.951630 0.265096 -0.155321
vn 0.951630 0.265096 -0.155321
vn 0.951630 0.265096 -0.155321
vn 0.951630 0.265096 -0.155321
vn 0.036881 0.999269 -0.010117
vn 0.036881 0.999268 -0.010117
vn 0.036881 0.999268 -0.010117
vn 0.036881 0.999268 -0.010117
vn -0.947859 0.303425 -0.097450
vn -0.947859 0.303425 -0.097450
vn -0.947859 0.303425 -0.097450
vn -0.947859 0.303425 -0.097450
vn 0.025792 -0.999634 0.008195
vn 0.025792 -0.999634 0.008195
vn 0.025792 -0.999634 0.008195
vn 0.025792 -0.999634 0.008195
vn -0.094402 0.033730 -0.994963
vn -0.094402 0.033730 -0.994963
vn -0.094402 0.033730 -0.994963
vn -0.094402 0.033730 -0.994963
vn 0.163614 0.156034 0.974107
vn 0.163614 0.156034 0.974107
vn 0.163614 0.156034 0.974107
vn 0.163614 0.156034 0.974107
s off
f 1/1/1 2/2/2 4/3/3 3/4/4
f 3/5/5 4/6/6 9/7/7 6/8/8 5/9/9
f 5/10/10 6/11/11 8/12/12 7/13/13
f 9/14/14 10/15/15 8/16/16 6/17/17
f 7/18/18 1/19/19 3/20/20 5/21/21
f 11/22/22 12/23/23 14/24/24 13/25/25
f 13/26/26 14/27/27 16/28/28 15/29/29
f 15/30/30 16/31/31 18/32/32 17/33/33
f 17/34/34 18/35/35 12/36/36 11/37/37
f 12/38/38 18/39/39 16/40/40 14/41/41
f 17/42/42 11/43/43 13/44/44 15/45/45
f 19/46/46 20/47/47 22/48/48 21/49/49
f 21/50/50 22/51/51 24/52/52 23/53/53
f 23/54/54 24/55/55 26/56/56 25/57/57
f 25/58/58 26/59/59 20/60/60 19/61/61
f 20/62/62 26/63/63 24/64/64 22/65/65
f 25/66/66 19/67/67 21/68/68 23/69/69
f 27/70/70 28/71/71 30/72/72 29/73/73
f 31/74/74 37/75/75 35/76/76 32/77/77
f 31/78/78 32/79/79 34/80/80 33/81/81
f 33/82/82 34/83/83 36/84/84 28/85/85 27/86/86
f 35/87/87 36/88/88 34/89/89 32/90/90
f 33/91/91 27/92/92 29/93/93 31/94/94
f 29/95/95 30/96/96 37/75/97 31/74/98
f 38/97/99 40/98/100 41/99/101 39/100/102
f 40/101/103 42/102/104 43/103/105 41/104/106
f 44/105/107 38/106/108 39/107/109 45/108/110
f 39/109/111 41/110/112 43/111/113 45/112/114
f 44/113/115 42/114/116 40/115/117 38/116/118
f 46/117/119 48/118/120 49/119/121 47/120/122
f 48/121/123 50/122/124 51/123/125 49/124/126
f 52/125/127 46/126/128 47/127/129 53/128/130
f 47/129/131 49/130/132 51/131/133 53/132/134
f 52/133/135 50/134/136 48/135/137 46/136/138
f 54/137/139 56/138/140 57/139/141 55/140/142
f 56/141/143 58/142/144 59/143/145 57/144/146
f 60/145/147 54/146/148 55/147/149 61/148/150
f 55/149/151 57/150/152 59/151/153 61/152/154
f 60/153/155 58/154/156 56/155/157 54/156/158
f 62/157/159 63/158/160 65/159/161 64/160/162
f 64/161/163 65/162/164 67/163/165 66/164/166
f 68/165/167 69/166/168 63/167/169 62/168/170
f 63/169/171 69/170/172 67/171/173 65/172/174
f 68/173/175 62/174/176 64/175/177 66/176/178
f 70/177/179 72/178/180 73/179/181 71/180/182
f 72/181/183 74/182/184 75/183/185 73/184/186
f 76/185/187 70/186/188 71/187/189 77/188/190
f 71/189/191 73/190/192 75/191/193 77/192/194
f 76/193/195 74/194/196 72/195/197 70/196/198
f 78/197/199 79/198/200 81/199/201 80/200/202
f 80/201/203 81/202/204 83/203/205 82/204/206
f 84/205/207 85/206/208 79/207/209 78/208/210
f 79/209/211 85/210/212 83/211/213 81/212/214
f 84/213/215 78/214/216 80/215/217 82/216/218
f 86/217/219 88/218/220 89/219/221 87/220/222
f 88/221/223 90/222/224 91/223/225 89/224/226
f 92/225/227 86/226/228 87/227/229 93/228/230
f 87/229/231 89/230/232 91/231/233 93/232/234
f 92/233/235 90/234/236 88/235/237 86/236/238
f 94/237/239 95/238/240 97/239/241 96/240/242
f 96/241/243 97/242/244 99/243/245 98/244/246
f 98/245/247 99/246/248 101/247/249 100/248/250
f 100/249/251 101/250/252 95/251/253 94/252/254
f 95/253/255 101/254/256 99/255/257 97/256/258
f 100/257/259 94/258/260 96/259/261 98/260/262
f 102/261/263 103/262/264 105/263/265 104/264/266
f 104/265/267 105/266/268 107/267/269 106/268/270
f 106/269/271 107/270/272 109/271/273 108/272/274
f 108/273/275 109/274/276 103/275/277 102/276/278
f 103/277/279 109/278/280 107/279/281 105/280/282
f 108/281/283 102/282/284 104/283/285 106/284/286
f 110/285/287 111/286/288 113/287/289 112/288/290
f 112/289/291 113/290/292 115/291/293 114/292/294
f 114/293/295 115/294/296 117/295/297 116/296/298
f 116/297/299 117/298/300 111/299/301 110/300/302
f 111/301/303 117/302/304 115/303/305 113/304/306
f 116/305/307 110/306/308 112/307/309 114/308/310
