# This file uses meters as units for non-parametric coordinates.

v 0.707108 -0.027554 -0.707108
v 0.000000 -0.027554 -1.000000
v -0.707108 -0.027554 -0.707108
v -1.000000 -0.027554 0.000000
v -0.707108 -0.027554 0.707108
v 0.000000 -0.027554 1.000000
v 0.707108 -0.027554 0.707108
v 1.000000 -0.027554 0.000000
v 0.707108 2.825927 -0.707108
v 0.000000 2.825927 -1.000000
v -0.707108 2.825927 -0.707108
v -1.000000 2.825927 0.000000
v -0.707108 2.825927 0.707108
v 0.000000 2.825927 1.000000
v 0.707108 2.825927 0.707108
v 1.000000 2.825927 0.000000
v 0.707108 0.604485 -0.707108
v 1.000000 0.604485 0.000000
v 0.707108 0.604485 0.707108
v 0.000000 0.604485 1.000000
v -0.707108 0.604485 0.707108
v -1.000000 0.604485 0.000000
v -0.707108 0.604485 -0.707108
v 0.000000 0.604485 -1.000000
v 0.707108 0.674840 -0.707108
v 1.000000 0.674840 0.000000
v 0.707108 0.674840 0.707108
v 0.000000 0.674840 1.000000
v -0.707108 0.674840 0.707108
v -1.000000 0.674840 0.000000
v -0.707108 0.674840 -0.707108
v 0.000000 0.674840 -1.000000
v 0.707108 2.196237 -0.707108
v 1.000000 2.196237 0.000000
v 0.707108 2.196237 0.707108
v 0.000000 2.196237 1.000000
v -0.707108 2.196237 0.707108
v -1.000000 2.196237 0.000000
v -0.707108 2.196237 -0.707108
v 0.000000 2.196237 -1.000000
v -0.707108 2.107875 -0.707108
v -1.000000 2.107875 0.000000
v -0.707108 2.107875 0.707108
v 0.000000 2.107875 1.000000
v 0.707108 2.107875 0.707108
v 1.000000 2.107875 0.000000
v 0.707108 2.107875 -0.707108
v 0.000000 2.107875 -1.000000
v 0.752357 0.604485 -0.752361
v 1.063995 0.604485 0.000000
v 0.752357 0.674840 -0.752361
v 1.063995 0.674840 0.000000
v 0.752357 0.604485 0.752361
v 0.752357 0.674840 0.752361
v 0.000000 0.604485 1.063995
v 0.000000 0.674840 1.063995
v -0.752357 0.604485 0.752361
v -0.752357 0.674840 0.752361
v -1.063995 0.604485 0.000000
v -1.063995 0.674840 0.000000
v -0.752357 0.604485 -0.752361
v -0.752357 0.674840 -0.752361
v 0.000000 0.604485 -1.063995
v 0.000000 0.674840 -1.063995
v 1.063995 2.107875 0.000000
v 0.752357 2.107875 -0.752361
v 0.752357 2.196237 -0.752361
v 1.063995 2.196237 0.000000
v 0.752357 2.107875 0.752361
v 0.752357 2.196237 0.752361
v 0.000000 2.107875 1.063995
v 0.000000 2.196237 1.063995
v -0.752357 2.107875 0.752361
v -0.752357 2.196237 0.752361
v -1.063995 2.107875 0.000000
v -1.063995 2.196237 0.000000
v -0.752357 2.107875 -0.752361
v -0.752357 2.196237 -0.752361
v 0.000000 2.107875 -1.063995
v 0.000000 2.196237 -1.063995
v 0.888832 2.825927 0.000000
v 0.628502 2.825927 -0.628502
v 0.000000 2.825927 -0.888832
v -0.628502 2.825927 -0.628502
v -0.888832 2.825927 0.000000
v -0.628502 2.825927 0.628502
v 0.000000 2.825927 0.888832
v 0.628502 2.825927 0.628502
v 0.569679 2.825927 -0.108574
v 0.352531 2.825927 -0.108574
v 0.352531 2.825927 0.108574
v 0.569679 2.825927 0.108574
vt 0.142190 0.217547
vt 0.142190 0.217547
vt 0.142190 0.217547
vt 0.142190 0.217547
vt 0.142190 0.217547
vt 0.142190 0.217547
vt 0.142190 0.217547
vt 0.142190 0.217547
vt 0.198675 0.217547
vt 0.174845 0.217547
vt 0.198675 0.217547
vt 0.234861 0.217547
vt 0.198675 0.217547
vt 0.174845 0.217547
vt 0.198675 0.217547
vt 0.234861 0.217547
vt 0.234861 0.217547
vt 0.198675 0.217547
vt 0.198675 0.217547
vt 0.174845 0.217547
vt 0.198675 0.217547
vt 0.234861 0.217547
vt 0.198675 0.217547
vt 0.174845 0.217547
vt 0.198675 0.217547
vt 0.234861 0.217547
vt 0.264869 0.217547
vt 0.264869 0.217547
vt 0.264869 0.217547
vt 0.264869 0.217547
vt 0.264869 0.217547
vt 0.264869 0.217547
vt 0.264869 0.217547
vt 0.264869 0.217547
vt 0.234861 0.217547
vt 0.136894 0.482321
vt 0.136894 0.482321
vt 0.136894 0.482321
vt 0.136894 0.482321
vt 0.136894 0.482321
vt 0.136894 0.482321
vt 0.136894 0.482321
vt 0.136894 0.482321
vt 0.171315 0.482321
vt 0.198675 0.217547
vt 0.171315 0.482321
vt 0.171315 0.482321
vt 0.171315 0.482321
vt 0.171315 0.482321
vt 0.171315 0.482321
vt 0.171315 0.482321
vt 0.171315 0.482321
vt 0.171315 0.482321
vt 0.198675 0.217547
vt 0.171315 0.482321
vt 0.171315 0.482321
vt 0.171315 0.482321
vt 0.171315 0.482321
vt 0.171315 0.482321
vt 0.171315 0.482321
vt 0.171315 0.482321
vt 0.136894 0.482321
vt 0.136894 0.482321
vt 0.136894 0.482321
vt 0.136894 0.482321
vt 0.136894 0.482321
vt 0.136894 0.482321
vt 0.234861 0.217547
vt 0.136894 0.482321
vt 0.136894 0.482321
vt 0.136894 0.482321
vt 0.136894 0.482321
vt 0.136894 0.482321
vt 0.171315 0.482321
vt 0.136894 0.482321
vt 0.171315 0.482321
vt 0.136894 0.482321
vt 0.171315 0.482321
vt 0.136894 0.482321
vt 0.171315 0.482321
vt 0.136894 0.482321
vt 0.171315 0.482321
vt 0.136894 0.482321
vt 0.171315 0.482321
vt 0.136894 0.482321
vt 0.171315 0.482321
vt 0.136894 0.482321
vt 0.136894 0.482321
vt 0.136894 0.482321
vt 0.136894 0.482321
vt 0.136894 0.482321
vt 0.171315 0.482321
vt 0.136894 0.482321
vt 0.171315 0.482321
vt 0.136894 0.482321
vt 0.171315 0.482321
vt 0.136894 0.482321
vt 0.171315 0.482321
vt 0.136894 0.482321
vt 0.171315 0.482321
vt 0.136894 0.482321
vt 0.171315 0.482321
vt 0.136894 0.482321
vt 0.171315 0.482321
vt 0.136894 0.482321
vt 0.136894 0.482321
vt 0.171315 0.482321
vt 0.136894 0.482321
vt 0.136894 0.482321
vt 0.171315 0.482321
vt 0.171315 0.482321
vt 0.136894 0.482321
vt 0.136894 0.482321
vt 0.136894 0.482321
vt 0.136894 0.482321
vt 0.136894 0.482321
vt 0.171315 0.482321
vt 0.136894 0.482321
vt 0.136894 0.482321
vt 0.198675 0.217547
vt 0.171315 0.482321
vt 0.136894 0.482321
vt 0.136894 0.482321
vt 0.136894 0.482321
vt 0.174845 0.217547
vt 0.136894 0.482321
vt 0.171315 0.482321
vt 0.136894 0.482321
vt 0.136894 0.482321
vt 0.174845 0.217547
vt 0.171315 0.482321
vt 0.136894 0.482321
vt 0.136894 0.482321
vt 0.136894 0.482321
vt 0.198675 0.217547
vt 0.136894 0.482321
vt 0.171315 0.482321
vt 0.136894 0.482321
vt 0.136894 0.482321
vt 0.198675 0.217547
vt 0.171315 0.482321
vt 0.136894 0.482321
vt 0.136894 0.482321
vt 0.136894 0.482321
vt 0.234861 0.217547
vt 0.136894 0.482321
vt 0.171315 0.482321
vt 0.136894 0.482321
vt 0.136894 0.482321
vt 0.234861 0.217547
vt 0.171315 0.482321
vt 0.136894 0.482321
vt 0.136894 0.482321
vt 0.136894 0.482321
vt 0.198675 0.217547
vt 0.136894 0.482321
vt 0.171315 0.482321
vt 0.136894 0.482321
vt 0.136894 0.482321
vt 0.198675 0.217547
vt 0.171315 0.482321
vt 0.136894 0.482321
vt 0.136894 0.482321
vt 0.136894 0.482321
vt 0.174845 0.217547
vt 0.136894 0.482321
vt 0.171315 0.482321
vt 0.136894 0.482321
vt 0.136894 0.482321
vt 0.174845 0.217547
vt 0.171315 0.482321
vt 0.136894 0.482321
vt 0.136894 0.482321
vt 0.136894 0.482321
vt 0.198675 0.217547
vt 0.136894 0.482321
vt 0.198675 0.217547
vt 0.171315 0.482321
vt 0.234861 0.217547
vt 0.171315 0.482321
vt 0.198675 0.217547
vt 0.136894 0.482321
vt 0.234861 0.217547
vt 0.136894 0.482321
vt 0.171315 0.482321
vt 0.136894 0.482321
vt 0.136894 0.482321
vt 0.171315 0.482321
vt 0.171315 0.482321
vt 0.136894 0.482321
vt 0.136894 0.482321
vt 0.136894 0.482321
vt 0.136894 0.482321
vt 0.136894 0.482321
vt 0.171315 0.482321
vt 0.136894 0.482321
vt 0.136894 0.482321
vt 0.198675 0.217547
vt 0.171315 0.482321
vt 0.136894 0.482321
vt 0.136894 0.482321
vt 0.136894 0.482321
vt 0.174845 0.217547
vt 0.136894 0.482321
vt 0.171315 0.482321
vt 0.136894 0.482321
vt 0.136894 0.482321
vt 0.174845 0.217547
vt 0.171315 0.482321
vt 0.136894 0.482321
vt 0.136894 0.482321
vt 0.136894 0.482321
vt 0.198675 0.217547
vt 0.136894 0.482321
vt 0.171315 0.482321
vt 0.136894 0.482321
vt 0.136894 0.482321
vt 0.198675 0.217547
vt 0.171315 0.482321
vt 0.136894 0.482321
vt 0.136894 0.482321
vt 0.136894 0.482321
vt 0.234861 0.217547
vt 0.136894 0.482321
vt 0.171315 0.482321
vt 0.136894 0.482321
vt 0.136894 0.482321
vt 0.234861 0.217547
vt 0.171315 0.482321
vt 0.136894 0.482321
vt 0.136894 0.482321
vt 0.136894 0.482321
vt 0.198675 0.217547
vt 0.136894 0.482321
vt 0.171315 0.482321
vt 0.136894 0.482321
vt 0.136894 0.482321
vt 0.198675 0.217547
vt 0.171315 0.482321
vt 0.136894 0.482321
vt 0.136894 0.482321
vt 0.136894 0.482321
vt 0.174845 0.217547
vt 0.136894 0.482321
vt 0.171315 0.482321
vt 0.136894 0.482321
vt 0.136894 0.482321
vt 0.174845 0.217547
vt 0.171315 0.482321
vt 0.136894 0.482321
vt 0.136894 0.482321
vt 0.136894 0.482321
vt 0.198675 0.217547
vt 0.136894 0.482321
vt 0.198675 0.217547
vt 0.171315 0.482321
vt 0.234861 0.217547
vt 0.171315 0.482321
vt 0.234861 0.217547
vt 0.136894 0.482321
vt 0.198675 0.217547
vt 0.136894 0.482321
vt 0.198675 0.217547
vt 0.198675 0.217547
vt 0.234861 0.217547
vt 0.198675 0.217547
vt 0.234861 0.217547
vt 0.234861 0.217547
vt 0.234861 0.217547
vt 0.198675 0.217547
vt 0.234861 0.217547
vt 0.198675 0.217547
vt 0.234861 0.217547
vt 0.234861 0.217547
vt 0.234861 0.217547
vt 0.198675 0.217547
vt 0.198675 0.217547
vt 0.198675 0.217547
vt 0.234861 0.217547
vt 0.198675 0.217547
vt 0.198675 0.217547
vt 0.174845 0.217547
vt 0.198675 0.217547
vt 0.174845 0.217547
vt 0.198675 0.217547
vt 0.174845 0.217547
vt 0.198675 0.217547
vt 0.174845 0.217547
vt 0.174845 0.217547
vt 0.198675 0.217547
vt 0.174845 0.217547
vt 0.198675 0.217547
vt 0.198675 0.217547
vt 0.174845 0.217547
vt 0.198675 0.217547
vt 0.174845 0.217547
vt 0.174845 0.217547
vt 0.198675 0.217547
vt 0.174845 0.217547
vt 0.198675 0.217547
vt 0.174845 0.217547
vt 0.198675 0.217547
vt 0.174845 0.217547
vt 0.198675 0.217547
vt 0.198675 0.217547
vt 0.198675 0.217547
vt 0.264869 0.217547
vt 0.198675 0.217547
vt 0.264869 0.217547
vt 0.198675 0.217547
vt 0.264869 0.217547
vt 0.198675 0.217547
vt 0.198675 0.217547
vt 0.198675 0.217547
vt 0.198675 0.217547
vt 0.198675 0.217547
vt 0.144836 0.469965
vt 0.144836 0.469965
vt 0.144836 0.469965
vt 0.144836 0.469965
vt 0.264869 0.217547
vt 0.264869 0.217547
vt 0.264869 0.217547
vt 0.264869 0.217547
vt 0.264869 0.217547
vt 0.198675 0.217547
vt 0.264869 0.217547
vt 0.264869 0.217547
vt 0.264869 0.217547
vt 0.264869 0.217547
vt 0.264869 0.217547
vt 0.198675 0.217547
vt 0.264869 0.217547
vt 0.264869 0.217547
vt 0.264869 0.217547
vt 0.264869 0.217547
vt 0.264869 0.217547
vt 0.198675 0.217547
vt 0.264869 0.217547
vt 0.264869 0.217547
vt 0.264869 0.217547
vt 0.264869 0.217547
vt 0.264869 0.217547
vt 0.264869 0.217547
vn 0.382682 0.000000 -0.923880
vn 0.382682 0.000000 -0.923880
vn 0.382682 0.000000 -0.923880
vn 0.382682 0.000000 -0.923880
vn -0.382682 0.000000 -0.923880
vn -0.382682 0.000000 -0.923880
vn -0.382682 0.000000 -0.923880
vn -0.382682 0.000000 -0.923880
vn -0.923880 0.000000 -0.382682
vn -0.923880 0.000000 -0.382682
vn -0.923880 0.000000 -0.382682
vn -0.923880 0.000000 -0.382682
vn -0.923880 0.000000 0.382682
vn -0.923880 0.000000 0.382682
vn -0.923880 0.000000 0.382682
vn -0.923880 0.000000 0.382682
vn -0.382682 0.000000 0.923880
vn -0.382682 0.000000 0.923880
vn -0.382682 0.000000 0.923880
vn -0.382682 0.000000 0.923880
vn 0.382682 0.000000 0.923880
vn 0.382682 0.000000 0.923880
vn 0.382682 0.000000 0.923880
vn 0.382682 0.000000 0.923880
vn 0.923880 0.000000 0.382682
vn 0.923880 0.000000 0.382682
vn 0.923880 0.000000 0.382682
vn 0.923880 0.000000 0.382682
vn 0.923880 0.000000 -0.382682
vn 0.923880 0.000000 -0.382682
vn 0.923880 0.000000 -0.382682
vn 0.923880 0.000000 -0.382682
vn 0.000000 -1.000000 -0.000000
vn 0.000000 -1.000000 -0.000000
vn 0.000000 -1.000000 -0.000000
vn 0.000000 -1.000000 -0.000000
vn 0.000000 -1.000000 -0.000000
vn 0.000000 -1.000000 -0.000000
vn 0.000000 -1.000000 -0.000000
vn 0.000000 -1.000000 -0.000000
vn 0.000000 1.000000 -0.000000
vn 0.000000 1.000000 -0.000000
vn 0.000000 1.000000 0.000000
vn 0.000000 1.000000 0.000000
vn 0.923880 0.000000 -0.382683
vn 0.923880 0.000000 -0.382683
vn 0.923880 0.000000 -0.382683
vn 0.923880 0.000000 -0.382683
vn 0.923880 0.000000 0.382683
vn 0.923880 0.000000 0.382683
vn 0.923880 0.000000 0.382683
vn 0.923880 0.000000 0.382683
vn 0.382681 0.000000 0.923881
vn 0.382681 0.000000 0.923881
vn 0.382681 0.000000 0.923881
vn 0.382681 0.000000 0.923881
vn -0.382681 0.000000 0.923881
vn -0.382681 0.000000 0.923881
vn -0.382681 0.000000 0.923881
vn -0.382681 0.000000 0.923881
vn -0.923880 0.000000 0.382683
vn -0.923880 0.000000 0.382683
vn -0.923880 0.000000 0.382683
vn -0.923880 0.000000 0.382683
vn -0.923880 0.000000 -0.382683
vn -0.923880 0.000000 -0.382683
vn -0.923880 0.000000 -0.382683
vn -0.923880 0.000000 -0.382683
vn -0.382681 0.000000 -0.923881
vn -0.382681 0.000000 -0.923881
vn -0.382681 0.000000 -0.923881
vn -0.382681 0.000000 -0.923881
vn 0.382681 0.000000 -0.923881
vn 0.382681 0.000000 -0.923881
vn 0.382681 0.000000 -0.923881
vn 0.382681 0.000000 -0.923881
vn 0.923880 0.000000 -0.382683
vn 0.923880 0.000000 -0.382683
vn 0.923880 0.000000 -0.382683
vn 0.923880 0.000000 -0.382683
vn 0.923880 0.000000 0.382683
vn 0.923880 0.000000 0.382683
vn 0.923880 0.000000 0.382683
vn 0.923880 0.000000 0.382683
vn 0.382681 0.000000 0.923881
vn 0.382681 0.000000 0.923881
vn 0.382681 0.000000 0.923881
vn 0.382681 0.000000 0.923881
vn -0.382681 0.000000 0.923881
vn -0.382681 0.000000 0.923881
vn -0.382681 0.000000 0.923881
vn -0.382681 0.000000 0.923881
vn -0.923880 0.000000 0.382683
vn -0.923880 0.000000 0.382683
vn -0.923880 0.000000 0.382683
vn -0.923880 0.000000 0.382683
vn -0.923880 0.000000 -0.382683
vn -0.923880 0.000000 -0.382683
vn -0.923880 0.000000 -0.382683
vn -0.923880 0.000000 -0.382683
vn -0.382681 0.000000 -0.923881
vn -0.382681 0.000000 -0.923881
vn -0.382681 0.000000 -0.923881
vn -0.382681 0.000000 -0.923881
vn 0.382681 0.000000 -0.923881
vn 0.382681 0.000000 -0.923881
vn 0.382681 0.000000 -0.923881
vn 0.382681 0.000000 -0.923881
vn 0.923880 0.000000 -0.382682
vn 0.923880 0.000000 -0.382682
vn 0.923880 0.000000 -0.382682
vn 0.923880 0.000000 -0.382682
vn 0.923880 0.000000 0.382682
vn 0.923880 0.000000 0.382682
vn 0.923880 0.000000 0.382682
vn 0.923880 0.000000 0.382682
vn 0.382682 0.000000 0.923880
vn 0.382682 0.000000 0.923880
vn 0.382682 0.000000 0.923880
vn 0.382682 0.000000 0.923880
vn -0.382682 0.000000 0.923880
vn -0.382682 0.000000 0.923880
vn -0.382682 0.000000 0.923880
vn -0.382682 0.000000 0.923880
vn -0.923880 0.000000 0.382682
vn -0.923880 0.000000 0.382682
vn -0.923880 0.000000 0.382682
vn -0.923880 0.000000 0.382682
vn -0.923880 0.000000 -0.382682
vn -0.923880 0.000000 -0.382682
vn -0.923880 0.000000 -0.382682
vn -0.923880 0.000000 -0.382682
vn -0.382682 0.000000 -0.923880
vn -0.382682 0.000000 -0.923880
vn -0.382682 0.000000 -0.923880
vn -0.382682 0.000000 -0.923880
vn 0.382682 0.000000 -0.923880
vn 0.382682 0.000000 -0.923880
vn 0.382682 0.000000 -0.923880
vn 0.382682 0.000000 -0.923880
vn -0.923880 0.000000 -0.382682
vn -0.923880 0.000000 -0.382682
vn -0.923880 0.000000 -0.382682
vn -0.923880 0.000000 -0.382682
vn -0.923880 0.000000 0.382682
vn -0.923880 0.000000 0.382682
vn -0.923880 0.000000 0.382682
vn -0.923880 0.000000 0.382682
vn -0.382682 0.000000 0.923880
vn -0.382682 0.000000 0.923880
vn -0.382682 0.000000 0.923880
vn -0.382682 0.000000 0.923880
vn 0.382682 0.000000 0.923880
vn 0.382682 0.000000 0.923880
vn 0.382682 0.000000 0.923880
vn 0.382682 0.000000 0.923880
vn 0.923880 0.000000 0.382682
vn 0.923880 0.000000 0.382682
vn 0.923880 0.000000 0.382682
vn 0.923880 0.000000 0.382682
vn 0.923880 0.000000 -0.382682
vn 0.923880 0.000000 -0.382682
vn 0.923880 0.000000 -0.382682
vn 0.923880 0.000000 -0.382682
vn 0.382682 0.000000 -0.923880
vn 0.382682 0.000000 -0.923880
vn 0.382682 0.000000 -0.923880
vn 0.382682 0.000000 -0.923880
vn -0.382682 0.000000 -0.923880
vn -0.382682 0.000000 -0.923880
vn -0.382682 0.000000 -0.923880
vn -0.382682 0.000000 -0.923880
vn 0.000000 -1.000000 0.000000
vn 0.000000 -1.000000 0.000000
vn 0.000000 -1.000000 0.000000
vn 0.000000 -1.000000 0.000000
vn 0.000000 1.000000 -0.000000
vn 0.000000 1.000000 -0.000000
vn 0.000000 1.000000 -0.000000
vn 0.000000 1.000000 -0.000000
vn 0.000000 -1.000000 -0.000000
vn 0.000000 -1.000000 0.000000
vn 0.000000 -1.000000 0.000000
vn 0.000000 -1.000000 -0.000000
vn 0.000000 1.000000 -0.000000
vn 0.000000 1.000000 -0.000000
vn 0.000000 1.000000 -0.000000
vn 0.000000 1.000000 -0.000000
vn 0.000000 -1.000000 -0.000000
vn 0.000000 -1.000000 -0.000000
vn 0.000000 -1.000000 -0.000000
vn 0.000000 -1.000000 -0.000000
vn 0.000000 1.000000 -0.000000
vn 0.000000 1.000000 -0.000000
vn 0.000000 1.000000 -0.000000
vn 0.000000 1.000000 -0.000000
vn 0.000000 -1.000000 -0.000000
vn 0.000000 -1.000000 -0.000000
vn 0.000000 -1.000000 -0.000000
vn 0.000000 -1.000000 -0.000000
vn 0.000000 1.000000 -0.000000
vn 0.000000 1.000000 0.000000
vn 0.000000 1.000000 0.000000
vn 0.000000 1.000000 -0.000000
vn 0.000000 -1.000000 -0.000000
vn 0.000000 -1.000000 -0.000000
vn 0.000000 -1.000000 -0.000000
vn 0.000000 -1.000000 -0.000000
vn 0.000000 1.000000 0.000000
vn 0.000000 1.000000 0.000000
vn 0.000000 1.000000 0.000000
vn 0.000000 1.000000 0.000000
vn 0.000000 -1.000000 0.000000
vn 0.000000 -1.000000 -0.000000
vn 0.000000 -1.000000 -0.000000
vn 0.000000 -1.000000 0.000000
vn 0.000000 1.000000 0.000000
vn 0.000000 1.000000 0.000000
vn 0.000000 1.000000 0.000000
vn 0.000000 1.000000 0.000000
vn 0.000000 -1.000000 0.000000
vn 0.000000 -1.000000 0.000000
vn 0.000000 -1.000000 0.000000
vn 0.000000 -1.000000 0.000000
vn 0.000000 1.000000 0.000000
vn 0.000000 1.000000 0.000000
vn 0.000000 1.000000 0.000000
vn 0.000000 1.000000 0.000000
vn 0.000000 -1.000000 0.000000
vn 0.000000 -1.000000 0.000000
vn 0.000000 -1.000000 0.000000
vn 0.000000 -1.000000 0.000000
vn 0.000000 1.000000 0.000000
vn 0.000000 1.000000 -0.000000
vn 0.000000 1.000000 -0.000000
vn 0.000000 1.000000 0.000000
vn 0.000000 -1.000000 0.000000
vn 0.000000 -1.000000 -0.000001
vn 0.000000 -1.000000 -0.000001
vn 0.000000 -1.000000 0.000000
vn 0.000000 1.000000 -0.000002
vn 0.000000 1.000000 0.000000
vn 0.000000 1.000000 0.000000
vn 0.000000 1.000000 -0.000002
vn 0.000000 -1.000000 0.000000
vn 0.000000 -1.000000 0.000000
vn 0.000000 -1.000000 0.000000
vn 0.000000 -1.000000 0.000000
vn 0.000000 1.000000 0.000000
vn 0.000000 1.000000 0.000001
vn 0.000000 1.000000 0.000001
vn 0.000000 1.000000 0.000000
vn 0.000000 -1.000000 0.000001
vn 0.000000 -1.000000 0.000000
vn 0.000000 -1.000000 0.000000
vn 0.000000 -1.000000 0.000001
vn 0.000000 1.000000 0.000001
vn 0.000000 1.000000 0.000002
vn 0.000000 1.000000 0.000002
vn 0.000000 1.000000 0.000001
vn 0.000000 -1.000000 0.000001
vn 0.000000 -1.000000 0.000001
vn 0.000000 -1.000000 0.000001
vn 0.000000 -1.000000 0.000001
vn 0.000000 1.000000 0.000002
vn 0.000000 1.000000 0.000002
vn 0.000000 1.000000 0.000002
vn 0.000000 1.000000 0.000002
vn 0.000000 -1.000000 0.000000
vn 0.000000 -1.000000 0.000001
vn 0.000000 -1.000000 0.000001
vn 0.000000 -1.000000 0.000000
vn 0.000000 1.000000 0.000002
vn 0.000000 1.000000 -0.000000
vn 0.000000 1.000000 -0.000000
vn 0.000000 1.000000 0.000002
vn 0.000000 -1.000000 0.000000
vn 0.000000 -1.000000 0.000000
vn 0.000000 -1.000000 0.000000
vn 0.000000 -1.000000 0.000000
vn 0.000000 1.000000 -0.000000
vn 0.000000 1.000000 -0.000001
vn 0.000000 1.000000 -0.000001
vn 0.000000 1.000000 -0.000000
vn 0.000000 -1.000000 -0.000001
vn 0.000000 -1.000000 0.000000
vn 0.000000 -1.000000 0.000000
vn 0.000000 -1.000000 -0.000001
vn 0.000000 1.000000 -0.000001
vn 0.000000 1.000000 -0.000002
vn 0.000000 1.000000 -0.000002
vn 0.000000 1.000000 -0.000001
vn 0.000000 -1.000000 -0.000001
vn 0.000000 -1.000000 -0.000001
vn 0.000000 -1.000000 -0.000001
vn 0.000000 -1.000000 -0.000001
vn 0.000000 1.000000 -0.000002
vn 0.000000 1.000000 -0.000002
vn 0.000000 1.000000 -0.000002
vn 0.000000 1.000000 -0.000002
vn 0.000000 1.000000 -0.000000
vn 0.000000 1.000000 0.000000
vn 0.000000 1.000000 -0.000000
vn 0.000000 1.000000 -0.000000
vn 0.000000 1.000000 0.000000
vn 0.000000 1.000000 0.000001
vn 0.000000 1.000000 -0.000000
vn 0.000000 1.000000 -0.000000
vn 0.000000 1.000000 0.000001
vn 0.000000 1.000000 0.000001
vn 0.000000 1.000000 0.000000
vn 0.000000 1.000000 -0.000000
vn 0.000000 1.000000 0.000001
vn 0.000000 1.000000 0.000000
vn 0.000000 1.000000 0.000000
vn 0.000000 1.000000 0.000000
vn 0.000000 1.000000 0.000000
vn 0.000000 1.000000 0.000000
vn 0.000000 1.000000 0.000000
vn 0.000000 1.000000 0.000000
vn 0.000000 1.000000 0.000000
vn 0.000000 1.000000 -0.000001
vn 0.000000 1.000000 -0.000000
vn 0.000000 1.000000 0.000000
vn 0.000000 1.000000 -0.000001
vn 0.000000 1.000000 -0.000001
vn 0.000000 1.000000 -0.000000
vn 0.000000 1.000000 -0.000000
vn 0.000000 1.000000 -0.000001
vn 0.000000 1.000000 -0.000000
vn 0.000000 1.000000 -0.000000
vn 0.000000 1.000000 -0.000000
vn 0.000000 1.000000 -0.000000
vn 0.000000 1.000000 -0.000000
vn 0.000000 1.000000 -0.000000
vn 0.000000 1.000000 0.000000
vn 0.000000 1.000000 -0.000000
vn 0.000000 1.000000 -0.000000
vn 0.000000 1.000000 0.000000
vn 0.000000 1.000000 0.000000
vn 0.000000 1.000000 0.000000
vn 0.000000 1.000000 0.000000
vn 0.000000 1.000000 0.000000
vn 0.000000 1.000000 0.000000
vn 0.000000 1.000000 -0.000000
vn 0.000000 1.000000 -0.000000
vn 0.000000 1.000000 0.000000
vn 0.000000 1.000000 -0.000000
vn 0.000000 1.000000 0.000000
vn 0.000000 1.000000 -0.000000
vn 0.000000 1.000000 -0.000000
vn 0.000000 1.000000 -0.000000
s off
f 1/9/1 2/304/2 24/298/3 17/261/4
f 2/10/5 3/303/6 23/297/7 24/203/8
f 3/11/9 4/280/10 22/276/11 23/213/12
f 4/12/13 5/279/14 21/275/15 22/223/16
f 5/13/17 6/302/18 20/300/19 21/233/20
f 6/14/21 7/301/22 19/299/23 20/243/24
f 7/15/25 8/278/26 18/277/27 19/253/28
f 8/16/29 1/17/30 17/35/31 18/259/32
f 7/7/33 6/6/34 5/5/35 4/4/36 3/3/37 2/2/38 1/1/39 8/8/40
f 89/317/41 90/318/42 91/319/43 92/320/44
f 50/250/45 49/193/46 51/73/47 52/246/48
f 53/240/49 50/71/50 52/247/51 54/236/52
f 55/230/53 53/75/54 54/237/55 56/226/56
f 57/220/57 55/77/58 56/227/59 58/216/60
f 59/210/61 57/79/62 58/217/63 60/206/64
f 61/200/65 59/81/66 60/207/67 62/196/68
f 63/190/69 61/83/70 62/197/71 64/186/72
f 49/194/73 63/85/74 64/187/75 51/88/76
f 65/172/77 66/112/78 67/91/79 68/168/80
f 69/162/81 65/89/82 68/169/83 70/158/84
f 71/152/85 69/93/86 70/159/87 72/148/88
f 73/142/89 71/95/90 72/149/91 74/138/92
f 75/132/93 73/97/94 74/139/95 76/128/96
f 77/122/97 75/99/98 76/129/99 78/118/100
f 79/114/101 77/101/102 78/119/103 80/108/104
f 66/113/105 79/103/106 80/109/107 67/106/108
f 34/268/109 33/179/110 9/26/111 16/271/112
f 35/287/113 34/177/114 16/25/115 15/292/116
f 36/288/117 35/170/118 15/24/119 14/291/120
f 37/266/121 36/160/122 14/23/123 13/270/124
f 38/267/125 37/150/126 13/22/127 12/269/128
f 39/285/129 38/140/130 12/21/131 11/290/132
f 40/286/133 39/130/134 11/20/135 10/289/136
f 33/54/137 40/120/138 10/19/139 9/18/140
f 31/293/141 30/218/142 42/264/143 41/135/144
f 30/273/145 29/228/146 43/265/147 42/145/148
f 29/272/149 28/238/150 44/283/151 43/155/152
f 28/296/153 27/248/154 45/284/155 44/165/156
f 27/295/157 26/255/158 46/263/159 45/175/160
f 26/274/161 25/257/162 47/68/163 46/183/164
f 25/45/165 32/198/166 48/281/167 47/181/168
f 32/294/169 31/208/170 41/282/171 48/125/172
f 18/37/173 17/262/174 49/72/175 50/251/176
f 25/44/177 26/256/178 52/245/179 51/188/180
f 19/38/181 18/260/182 50/252/183 53/241/184
f 26/46/185 27/249/186 54/235/187 52/74/188
f 20/39/189 19/254/190 53/242/191 55/231/192
f 27/47/193 28/239/194 56/225/195 54/76/196
f 21/40/197 20/244/198 55/232/199 57/221/200
f 28/48/201 29/229/202 58/215/203 56/78/204
f 22/41/205 21/234/206 57/222/207 59/211/208
f 29/49/209 30/219/210 60/205/211 58/80/212
f 23/42/213 22/224/214 59/212/215 61/201/216
f 30/50/217 31/209/218 62/195/219 60/82/220
f 24/43/221 23/214/222 61/202/223 63/191/224
f 31/51/225 32/199/226 64/185/227 62/84/228
f 17/36/229 24/204/230 63/192/231 49/87/232
f 32/52/233 25/258/234 51/189/235 64/86/236
f 46/67/237 47/182/238 66/90/239 65/173/240
f 33/53/241 34/178/242 68/167/243 67/110/244
f 45/66/245 46/184/246 65/174/247 69/163/248
f 34/55/249 35/171/250 70/157/251 68/92/252
f 44/65/253 45/176/254 69/164/255 71/153/256
f 35/56/257 36/161/258 72/147/259 70/94/260
f 43/64/261 44/166/262 71/154/263 73/143/264
f 36/57/265 37/151/266 74/137/267 72/96/268
f 42/63/269 43/156/270 73/144/271 75/133/272
f 37/58/273 38/141/274 76/127/275 74/98/276
f 41/62/277 42/146/278 75/134/279 77/123/280
f 38/59/281 39/131/282 78/117/283 76/100/284
f 48/70/285 41/136/286 77/124/287 79/115/288
f 39/60/289 40/121/290 80/107/291 78/102/292
f 47/69/293 48/126/294 79/116/295 66/105/296
f 40/61/297 33/180/298 67/111/299 80/104/300
f 16/34/301 9/343/302 82/341/303 81/323/304
f 9/33/305 10/342/306 83/337/307 82/340/308
f 10/32/309 11/339/310 84/335/311 83/307/312
f 11/31/313 12/336/314 85/331/315 84/334/316
f 12/30/317 13/333/318 86/329/319 85/309/320
f 13/29/321 14/330/322 87/325/323 86/328/324
f 14/28/325 15/327/326 88/322/327 87/311/328
f 15/27/329 16/344/330 81/324/331 88/321/332
f 89/313/333 82/306/334 83/338/335 84/308/336 90/314/337
f 90/314/338 84/308/339 85/332/340 86/310/341 91/315/342
f 91/315/343 86/310/344 87/326/345 88/312/346 92/316/347
f 89/313/348 92/316/349 88/312/350 81/305/351 82/306/352
