# This file uses meters as units for non-parametric coordinates.

v -0.140709 -0.001883 0.127457
v 0.149048 -0.001883 0.127457
v -0.193893 0.450916 0.180603
v 0.202209 0.450916 0.180603
v -0.193893 0.450916 -0.215500
v 0.202209 0.450916 -0.215500
v -0.140709 -0.001883 -0.162323
v 0.149048 -0.001883 -0.162323
v -0.210342 0.450916 0.197083
v 0.218681 0.450916 0.197083
v 0.218681 0.450916 -0.231949
v -0.210342 0.450916 -0.231949
v -0.210342 0.537659 0.197083
v 0.218681 0.537659 0.197083
v 0.218681 0.537659 -0.231949
v -0.210342 0.537659 -0.231949
v -0.163094 0.537659 0.149826
v 0.171440 0.537659 0.149826
v 0.171440 0.537659 -0.184692
v -0.163094 0.537659 -0.184692
v -0.163094 0.492083 0.149826
v 0.171440 0.492083 0.149826
v 0.171440 0.492083 -0.184692
v -0.163094 0.492083 -0.184692
v -0.098236 0.675000 0.090332
v 0.080116 0.675000 0.103622
v -0.066597 0.848454 0.054947
v 0.059952 0.843443 0.085281
v -0.072731 0.878372 -0.135925
v 0.057297 0.873361 -0.130600
v -0.124817 0.675000 -0.146561
v 0.053246 0.667140 -0.156647
v 0.200958 0.531774 0.178223
v 0.194382 0.530701 -0.201492
v 0.185562 0.697722 0.155457
v 0.201118 0.693153 -0.170166
v -0.149536 0.716221 0.157043
v -0.142128 0.711651 -0.202682
v -0.186371 0.528079 0.168015
v -0.187897 0.520203 -0.195816
v 0.161278 0.682729 0.090103
v 0.160904 0.684735 -0.115494
v 0.169769 0.803490 0.096893
v 0.149849 0.817177 -0.098068
v -0.002556 0.844641 0.054108
v -0.004814 0.840701 -0.094162
v -0.015289 0.684735 0.055893
v -0.025269 0.678555 -0.090851
v 0.088615 0.775611 0.129547
v 0.198013 0.689792 0.089249
v 0.155693 0.841484 0.135498
v 0.229790 0.783357 0.108200
v 0.145515 0.872002 0.042862
v 0.219612 0.813874 0.015579
v 0.073593 0.820667 -0.007217
v 0.182991 0.734848 -0.047501
v 0.016922 0.840075 0.034943
v 0.029861 0.855830 -0.108383
v -0.041107 0.913930 0.027740
v -0.032349 0.924601 -0.069336
v -0.121773 0.859775 0.014511
v -0.113007 0.870446 -0.082565
v -0.102173 0.760121 0.015411
v -0.089233 0.775876 -0.127914
v 0.058029 0.740139 -0.060425
v 0.052261 0.646913 -0.171036
v 0.056755 0.805351 -0.128403
v 0.052849 0.742207 -0.203308
v -0.040947 0.813501 -0.130173
v -0.044846 0.750356 -0.205093
v -0.086212 0.752171 -0.063049
v -0.091980 0.658945 -0.173660
v 0.003441 0.688590 0.110229
v -0.135750 0.698144 0.071625
v -0.027428 0.722548 0.192505
v -0.121712 0.729019 0.166351
v -0.044418 0.634403 0.231949
v -0.138702 0.640874 0.205795
v -0.021645 0.558453 0.168472
v -0.160835 0.568008 0.129868
v -0.127098 0.695917 -0.011093
v -0.138847 0.639259 -0.109497
v -0.199829 0.708786 -0.018951
v -0.207787 0.670410 -0.085602
v -0.221832 0.645725 0.019989
v -0.229790 0.607349 -0.046661
v -0.159584 0.602814 0.046387
v -0.171333 0.546157 -0.052002
vt 0.189650 0.105004
vt 0.233675 0.105004
vt 0.177933 0.109272
vt 0.189650 0.105004
vt 0.233675 0.105004
vt 0.177933 0.109272
vt 0.162819 0.105004
vt 0.233675 0.105004
vt 0.162819 0.105004
vt 0.162819 0.105004
vt 0.189650 0.105004
vt 0.189650 0.105004
vt 0.189650 0.105004
vt 0.189650 0.105004
vt 0.177933 0.109272
vt 0.233675 0.105004
vt 0.233675 0.105004
vt 0.177933 0.109272
vt 0.189650 0.105004
vt 0.233675 0.105004
vt 0.233675 0.105004
vt 0.189650 0.105004
vt 0.162819 0.105004
vt 0.233675 0.105004
vt 0.265241 0.105004
vt 0.237005 0.105004
vt 0.265241 0.105004
vt 0.237005 0.105004
vt 0.319949 0.105004
vt 0.319949 0.105004
vt 0.319949 0.105004
vt 0.319949 0.105004
vt 0.177933 0.109272
vt 0.177933 0.109272
vt 0.177933 0.109272
vt 0.177933 0.109272
vt 0.233833 0.045511
vt 0.177933 0.109272
vt 0.177933 0.109272
vt 0.177933 0.109272
vt 0.177933 0.109272
vt 0.177933 0.109272
vt 0.177933 0.109272
vt 0.233833 0.045511
vt 0.177933 0.109272
vt 0.233833 0.045511
vt 0.319949 0.105004
vt 0.319949 0.105004
vt 0.177933 0.109272
vt 0.177933 0.109272
vt 0.233833 0.045511
vt 0.319949 0.105004
vt 0.319949 0.105004
vt 0.177933 0.109272
vt 0.319949 0.105004
vt 0.319949 0.105004
vt 0.177933 0.109272
vt 0.319949 0.105004
vt 0.319949 0.105004
vt 0.177933 0.109272
vt 0.237005 0.105004
vt 0.265241 0.105004
vt 0.319949 0.105004
vt 0.265241 0.105004
vt 0.237005 0.105004
vt 0.319949 0.105004
vt 0.237005 0.105004
vt 0.265241 0.105004
vt 0.319949 0.105004
vt 0.265241 0.105004
vt 0.237005 0.105004
vt 0.319949 0.105004
vt 0.177933 0.109272
vt 0.177933 0.109272
vt 0.265241 0.105004
vt 0.177933 0.109272
vt 0.177933 0.109272
vt 0.237005 0.105004
vt 0.177933 0.109272
vt 0.177933 0.109272
vt 0.265241 0.105004
vt 0.177933 0.109272
vt 0.177933 0.109272
vt 0.237005 0.105004
vt 0.177933 0.109272
vt 0.177933 0.109272
vt 0.177933 0.109272
vt 0.177933 0.109272
vt 0.258846 0.286963
vt 0.258846 0.286963
vt 0.258846 0.286963
vt 0.258846 0.286963
vt 0.290412 0.286963
vt 0.290412 0.286963
vt 0.290412 0.286963
vt 0.290412 0.286963
vt 0.258846 0.286963
vt 0.258846 0.286963
vt 0.258846 0.286963
vt 0.258846 0.286963
vt 0.203606 0.286963
vt 0.203606 0.286963
vt 0.203606 0.286963
vt 0.203606 0.286963
vt 0.230437 0.286963
vt 0.230437 0.286963
vt 0.230437 0.286963
vt 0.230437 0.286963
vt 0.230437 0.286963
vt 0.230437 0.286963
vt 0.230437 0.286963
vt 0.230437 0.286963
vt 0.258846 0.286963
vt 0.258846 0.286963
vt 0.258846 0.286963
vt 0.258846 0.286963
vt 0.290412 0.286963
vt 0.290412 0.286963
vt 0.290412 0.286963
vt 0.290412 0.286963
vt 0.258846 0.286963
vt 0.258846 0.286963
vt 0.258846 0.286963
vt 0.258846 0.286963
vt 0.203606 0.286963
vt 0.203606 0.286963
vt 0.203606 0.286963
vt 0.203606 0.286963
vt 0.230437 0.286963
vt 0.230437 0.286963
vt 0.230437 0.286963
vt 0.230437 0.286963
vt 0.230437 0.286963
vt 0.230437 0.286963
vt 0.230437 0.286963
vt 0.230437 0.286963
vt 0.258846 0.286963
vt 0.258846 0.286963
vt 0.258846 0.286963
vt 0.258846 0.286963
vt 0.290412 0.286963
vt 0.290412 0.286963
vt 0.290412 0.286963
vt 0.290412 0.286963
vt 0.258846 0.286963
vt 0.258846 0.286963
vt 0.258846 0.286963
vt 0.258846 0.286963
vt 0.203606 0.286963
vt 0.203606 0.286963
vt 0.203606 0.286963
vt 0.203606 0.286963
vt 0.230437 0.286963
vt 0.230437 0.286963
vt 0.230437 0.286963
vt 0.230437 0.286963
vt 0.230437 0.286963
vt 0.230437 0.286963
vt 0.230437 0.286963
vt 0.230437 0.286963
vt 0.357177 0.440364
vt 0.357177 0.440364
vt 0.357177 0.440364
vt 0.357177 0.440364
vt 0.388743 0.440364
vt 0.388743 0.440364
vt 0.388743 0.440364
vt 0.388743 0.440364
vt 0.357177 0.440364
vt 0.357177 0.440364
vt 0.357177 0.440364
vt 0.357177 0.440364
vt 0.301937 0.440364
vt 0.301937 0.440364
vt 0.301937 0.440364
vt 0.301937 0.440364
vt 0.328768 0.440364
vt 0.328768 0.440364
vt 0.328768 0.440364
vt 0.328768 0.440364
vt 0.328768 0.440364
vt 0.328768 0.440364
vt 0.328768 0.440364
vt 0.328768 0.440364
vt 0.357177 0.440364
vt 0.357177 0.440364
vt 0.357177 0.440364
vt 0.357177 0.440364
vt 0.388743 0.440364
vt 0.388743 0.440364
vt 0.388743 0.440364
vt 0.388743 0.440364
vt 0.357177 0.440364
vt 0.357177 0.440364
vt 0.357177 0.440364
vt 0.357177 0.440364
vt 0.301937 0.440364
vt 0.301937 0.440364
vt 0.301937 0.440364
vt 0.301937 0.440364
vt 0.328768 0.440364
vt 0.328768 0.440364
vt 0.328768 0.440364
vt 0.328768 0.440364
vt 0.328768 0.440364
vt 0.328768 0.440364
vt 0.328768 0.440364
vt 0.328768 0.440364
vt 0.357177 0.440364
vt 0.357177 0.440364
vt 0.357177 0.440364
vt 0.357177 0.440364
vt 0.388743 0.440364
vt 0.388743 0.440364
vt 0.388743 0.440364
vt 0.388743 0.440364
vt 0.357177 0.440364
vt 0.357177 0.440364
vt 0.357177 0.440364
vt 0.357177 0.440364
vt 0.301937 0.440364
vt 0.301937 0.440364
vt 0.301937 0.440364
vt 0.301937 0.440364
vt 0.328768 0.440364
vt 0.328768 0.440364
vt 0.328768 0.440364
vt 0.328768 0.440364
vt 0.328768 0.440364
vt 0.328768 0.440364
vt 0.328768 0.440364
vt 0.328768 0.440364
vt 0.357177 0.440364
vt 0.357177 0.440364
vt 0.357177 0.440364
vt 0.357177 0.440364
vt 0.388743 0.440364
vt 0.388743 0.440364
vt 0.388743 0.440364
vt 0.388743 0.440364
vt 0.357177 0.440364
vt 0.357177 0.440364
vt 0.357177 0.440364
vt 0.357177 0.440364
vt 0.301937 0.440364
vt 0.301937 0.440364
vt 0.301937 0.440364
vt 0.301937 0.440364
vt 0.328768 0.440364
vt 0.328768 0.440364
vt 0.328768 0.440364
vt 0.328768 0.440364
vt 0.328768 0.440364
vt 0.328768 0.440364
vt 0.328768 0.440364
vt 0.328768 0.440364
vt 0.357177 0.440364
vt 0.357177 0.440364
vt 0.357177 0.440364
vt 0.357177 0.440364
vt 0.388743 0.440364
vt 0.388743 0.440364
vt 0.388743 0.440364
vt 0.388743 0.440364
vt 0.357177 0.440364
vt 0.357177 0.440364
vt 0.357177 0.440364
vt 0.357177 0.440364
vt 0.301937 0.440364
vt 0.301937 0.440364
vt 0.301937 0.440364
vt 0.301937 0.440364
vt 0.328768 0.440364
vt 0.328768 0.440364
vt 0.328768 0.440364
vt 0.328768 0.440364
vt 0.328768 0.440364
vt 0.328768 0.440364
vt 0.328768 0.440364
vt 0.328768 0.440364
vn 0.000000 -0.116573 0.993182
vn 0.000000 -0.116573 0.993182
vn 0.000000 -0.116573 0.993182
vn 0.000000 -0.116573 0.993182
vn 0.000000 1.000000 0.000000
vn 0.000000 1.000000 0.000000
vn 0.000000 1.000000 0.000000
vn 0.000000 1.000000 0.000000
vn 0.000000 -0.116639 -0.993174
vn 0.000000 -0.116639 -0.993174
vn 0.000000 -0.116639 -0.993174
vn 0.000000 -0.116639 -0.993174
vn 0.000000 -1.000000 0.000000
vn 0.000000 -1.000000 0.000000
vn 0.000000 -1.000000 0.000000
vn 0.000000 -1.000000 0.000000
vn 0.993178 -0.116606 0.000000
vn 0.993178 -0.116606 0.000000
vn 0.993178 -0.116606 0.000000
vn 0.993178 -0.116606 0.000000
vn -0.993173 -0.116655 0.000000
vn -0.993173 -0.116655 0.000000
vn -0.993173 -0.116655 0.000000
vn -0.993173 -0.116655 0.000000
vn 0.000000 -1.000000 0.000000
vn 0.000000 -1.000000 0.000000
vn 0.000000 -1.000000 0.000000
vn 0.000000 -1.000000 0.000000
vn 0.000000 -1.000000 0.000000
vn 0.000000 -1.000000 0.000001
vn 0.000000 -1.000000 0.000001
vn 0.000000 -1.000000 0.000000
vn 0.000000 -1.000000 0.000001
vn 0.000000 -1.000000 0.000001
vn 0.000000 -1.000000 0.000001
vn 0.000000 -1.000000 0.000001
vn 0.000000 -1.000000 0.000001
vn 0.000000 -1.000000 0.000000
vn 0.000000 -1.000000 0.000000
vn 0.000000 -1.000000 0.000001
vn 0.000000 0.000000 1.000000
vn 0.000000 0.000000 1.000000
vn 0.000000 0.000000 1.000000
vn 0.000000 0.000000 1.000000
vn 1.000000 0.000000 0.000000
vn 1.000000 0.000000 0.000000
vn 1.000000 0.000000 0.000000
vn 1.000000 0.000000 0.000000
vn 0.000000 0.000000 -1.000000
vn 0.000000 0.000000 -1.000000
vn 0.000000 0.000000 -1.000000
vn 0.000000 0.000000 -1.000000
vn -1.000000 0.000000 0.000000
vn -1.000000 0.000000 0.000000
vn -1.000000 0.000000 0.000000
vn -1.000000 0.000000 0.000000
vn 0.000000 1.000000 0.000000
vn 0.000000 1.000000 0.000000
vn 0.000000 1.000000 0.000000
vn 0.000000 1.000000 0.000000
vn 0.000000 1.000000 0.000000
vn 0.000000 1.000000 0.000000
vn 0.000000 1.000000 0.000000
vn 0.000000 1.000000 0.000000
vn 0.000000 1.000000 0.000000
vn 0.000000 1.000000 0.000000
vn 0.000000 1.000000 0.000000
vn 0.000000 1.000000 0.000000
vn 0.000000 1.000000 0.000000
vn 0.000000 1.000000 0.000000
vn 0.000000 1.000000 0.000000
vn 0.000000 1.000000 0.000000
vn 0.000000 0.000000 -1.000000
vn 0.000000 0.000000 -1.000000
vn 0.000000 0.000000 -1.000000
vn 0.000000 0.000000 -1.000000
vn -1.000000 0.000000 0.000000
vn -1.000000 0.000000 0.000000
vn -1.000000 0.000000 0.000000
vn -1.000000 0.000000 0.000000
vn 0.000000 0.000000 1.000000
vn 0.000000 0.000000 1.000000
vn 0.000000 0.000000 1.000000
vn 0.000000 0.000000 1.000000
vn 1.000000 0.000000 0.000000
vn 1.000000 0.000000 0.000000
vn 1.000000 0.000000 0.000000
vn 1.000000 0.000000 0.000000
vn -0.137302 0.158262 0.977804
vn -0.137302 0.158262 0.977804
vn -0.137302 0.158262 0.977804
vn -0.137302 0.158262 0.977804
vn 0.018470 0.989241 0.145126
vn 0.018470 0.989241 0.145126
vn 0.018470 0.989241 0.145126
vn 0.018470 0.989241 0.145126
vn -0.011596 0.090771 -0.995804
vn -0.011596 0.090771 -0.995804
vn -0.011596 0.090771 -0.995804
vn -0.011596 0.090771 -0.995804
vn -0.022206 -0.999588 0.018190
vn -0.022206 -0.999588 0.018190
vn -0.022206 -0.999588 0.018190
vn -0.022206 -0.999588 0.018190
vn 0.997235 0.044118 -0.059794
vn 0.997235 0.044118 -0.059794
vn 0.997235 0.044118 -0.059794
vn 0.997235 0.044118 -0.059794
vn -0.970990 0.221634 0.089761
vn -0.970990 0.221634 0.089761
vn -0.970990 0.221634 0.089761
vn -0.970990 0.221634 0.089761
vn 0.999583 0.026031 0.012518
vn 0.999583 0.026031 0.012518
vn 0.999583 0.026031 0.012518
vn 0.999583 0.026031 0.012518
vn 0.054977 0.998422 -0.011473
vn 0.054977 0.998422 -0.011473
vn 0.054977 0.998422 -0.011473
vn 0.054977 0.998422 -0.011473
vn -0.977179 0.212101 -0.011592
vn -0.977179 0.212101 -0.011592
vn -0.977179 0.212101 -0.011592
vn -0.977179 0.212101 -0.011592
vn 0.018369 -0.999761 0.011831
vn 0.018369 -0.999761 0.011831
vn 0.018369 -0.999761 0.011831
vn 0.018369 -0.999761 0.011831
vn 0.037592 0.063350 -0.997283
vn 0.037592 0.063350 -0.997283
vn 0.037592 0.063350 -0.997283
vn 0.037592 0.063350 -0.997283
vn -0.009923 0.095439 0.995386
vn -0.009923 0.095439 0.995386
vn -0.009923 0.095439 0.995386
vn -0.009923 0.095439 0.995386
vn 0.998638 0.014893 -0.050012
vn 0.998638 0.014893 -0.050012
vn 0.998638 0.014893 -0.050012
vn 0.998638 0.014893 -0.050012
vn 0.192239 0.981227 0.015441
vn 0.192239 0.981227 0.015441
vn 0.192239 0.981227 0.015441
vn 0.192239 0.981227 0.015441
vn -0.993964 0.103026 0.037697
vn -0.993964 0.103026 0.037697
vn -0.993964 0.103026 0.037697
vn -0.993964 0.103026 0.037697
vn 0.011202 -0.999871 0.011516
vn 0.011202 -0.999871 0.011516
vn 0.011202 -0.999871 0.011516
vn 0.011202 -0.999871 0.011516
vn -0.080824 0.050274 -0.995460
vn -0.080824 0.050274 -0.995460
vn -0.080824 0.050274 -0.995460
vn -0.080824 0.050274 -0.995460
vn -0.215632 -0.001106 0.976474
vn -0.215632 -0.001106 0.976474
vn -0.215632 -0.001106 0.976474
vn -0.215632 -0.001106 0.976474
vn 0.158119 -0.247343 0.955939
vn 0.158119 -0.247343 0.955939
vn 0.158119 -0.247343 0.955939
vn 0.158119 -0.247343 0.955939
vn 0.646643 0.742761 0.173663
vn 0.646643 0.742761 0.173663
vn 0.646643 0.742761 0.173663
vn 0.646643 0.742761 0.173663
vn 0.152409 0.572443 -0.805655
vn 0.152409 0.572443 -0.805655
vn 0.152409 0.572443 -0.805655
vn 0.152409 0.572443 -0.805655
vn -0.646637 -0.742762 -0.173681
vn -0.646637 -0.742762 -0.173681
vn -0.646637 -0.742762 -0.173681
vn -0.646637 -0.742762 -0.173681
vn 0.940007 -0.279645 -0.195413
vn 0.940007 -0.279645 -0.195413
vn 0.940007 -0.279645 -0.195413
vn 0.940007 -0.279645 -0.195413
vn -0.682655 0.668457 0.295207
vn -0.682655 0.668457 0.295207
vn -0.682655 0.668457 0.295207
vn -0.682655 0.668457 0.295207
vn 0.772214 0.620222 0.137876
vn 0.772214 0.620222 0.137876
vn 0.772214 0.620222 0.137876
vn 0.772214 0.620222 0.137876
vn -0.561491 0.826507 0.040173
vn -0.561491 0.826507 0.040173
vn -0.561491 0.826507 0.040173
vn -0.561491 0.826507 0.040173
vn -0.975146 -0.192766 -0.109235
vn -0.975146 -0.192766 -0.109235
vn -0.975146 -0.192766 -0.109235
vn -0.975146 -0.192766 -0.109235
vn 0.561469 -0.826523 -0.040166
vn 0.561469 -0.826523 -0.040166
vn 0.561469 -0.826523 -0.040166
vn 0.561469 -0.826523 -0.040166
vn -0.122501 0.403921 -0.906555
vn -0.122501 0.403921 -0.906555
vn -0.122501 0.403921 -0.906555
vn -0.122501 0.403921 -0.906555
vn -0.148529 -0.020283 0.988700
vn -0.148529 -0.020283 0.988700
vn -0.148529 -0.020283 0.988700
vn -0.148529 -0.020283 0.988700
vn 0.999162 -0.018519 -0.036493
vn 0.999162 -0.018519 -0.036493
vn 0.999162 -0.018519 -0.036493
vn 0.999162 -0.018519 -0.036493
vn 0.075176 0.760514 -0.644956
vn 0.075176 0.760514 -0.644955
vn 0.075176 0.760514 -0.644955
vn 0.075176 0.760514 -0.644955
vn -0.891225 0.368629 -0.264255
vn -0.891225 0.368629 -0.264255
vn -0.891225 0.368629 -0.264255
vn -0.891225 0.368629 -0.264255
vn -0.075178 -0.760540 0.644924
vn -0.075178 -0.760540 0.644924
vn -0.075178 -0.760540 0.644924
vn -0.075178 -0.760540 0.644924
vn -0.009493 -0.320740 -0.947120
vn -0.009493 -0.320740 -0.947120
vn -0.009493 -0.320740 -0.947120
vn -0.009493 -0.320740 -0.947120
vn 0.047612 0.721239 0.691049
vn 0.047612 0.721238 0.691049
vn 0.047612 0.721238 0.691049
vn 0.047612 0.721238 0.691049
vn 0.154642 0.932355 -0.326803
vn 0.154642 0.932355 -0.326803
vn 0.154642 0.932355 -0.326803
vn 0.154642 0.932355 -0.326803
vn -0.213220 0.433013 0.875806
vn -0.213220 0.433013 0.875806
vn -0.213220 0.433013 0.875806
vn -0.213220 0.433013 0.875806
vn -0.241844 -0.663913 0.707624
vn -0.241843 -0.663913 0.707624
vn -0.241843 -0.663913 0.707624
vn -0.241844 -0.663913 0.707624
vn 0.213177 -0.433056 -0.875796
vn 0.213177 -0.433056 -0.875796
vn 0.213177 -0.433056 -0.875796
vn 0.213177 -0.433056 -0.875796
vn -0.972813 0.219957 0.072480
vn -0.972813 0.219957 0.072480
vn -0.972813 0.219957 0.072480
vn -0.972813 0.219957 0.072480
vn 0.933404 -0.019579 0.358292
vn 0.933404 -0.019579 0.358292
vn 0.933404 -0.019579 0.358292
vn 0.933404 -0.019579 0.358292
vn 0.202998 0.837900 -0.506672
vn 0.202998 0.837900 -0.506672
vn 0.202998 0.837900 -0.506672
vn 0.202997 0.837900 -0.506672
vn -0.953104 0.297167 -0.057309
vn -0.953104 0.297167 -0.057309
vn -0.953104 0.297167 -0.057309
vn -0.953104 0.297167 -0.057309
vn -0.628570 -0.639182 0.443109
vn -0.628570 -0.639182 0.443109
vn -0.628570 -0.639182 0.443109
vn -0.628570 -0.639182 0.443109
vn 0.953101 -0.297176 0.057309
vn 0.953101 -0.297176 0.057309
vn 0.953101 -0.297176 0.057309
vn 0.953101 -0.297176 0.057309
vn -0.444817 -0.353074 -0.823090
vn -0.444817 -0.353074 -0.823090
vn -0.444817 -0.353074 -0.823090
vn -0.444817 -0.353074 -0.823090
vn 0.001014 0.525103 0.851038
vn 0.001014 0.525103 0.851038
vn 0.001014 0.525103 0.851038
vn 0.001014 0.525103 0.851038
s off
f 1/20/1 2/2/2 4/21/3 3/17/4
f 21/37/5 22/44/6 23/46/7 24/51/8
f 5/5/9 6/16/10 8/8/11 7/24/12
f 7/7/13 8/23/14 2/10/15 1/9/16
f 2/19/17 8/11/18 6/12/19 4/4/20
f 7/13/21 1/1/22 3/22/23 5/14/24
f 3/3/25 4/87/26 10/80/27 9/82/28
f 4/15/29 6/86/30 11/77/31 10/79/32
f 6/6/33 5/85/34 12/74/35 11/76/36
f 5/18/37 3/88/38 9/83/39 12/73/40
f 9/25/41 10/81/42 14/68/43 13/70/44
f 10/26/45 11/78/46 15/65/47 14/67/48
f 11/27/49 12/75/50 16/62/51 15/64/52
f 12/28/53 9/84/54 13/71/55 16/61/56
f 13/29/57 14/69/58 18/56/59 17/58/60
f 14/30/61 15/66/62 19/53/63 18/55/64
f 15/31/65 16/63/66 20/48/67 19/52/68
f 16/32/69 13/72/70 17/59/71 20/47/72
f 17/33/73 18/57/74 22/50/75 21/41/76
f 18/34/77 19/54/78 23/45/79 22/38/80
f 19/35/81 20/49/82 24/43/83 23/39/84
f 20/36/85 17/60/86 21/42/87 24/40/88
f 25/89/89 26/90/90 28/91/91 27/92/92
f 27/93/93 28/94/94 30/95/95 29/96/96
f 29/97/97 30/98/98 32/99/99 31/100/100
f 31/101/101 32/102/102 26/103/103 25/104/104
f 26/105/105 32/106/106 30/107/107 28/108/108
f 31/109/109 25/110/110 27/111/111 29/112/112
f 33/113/113 34/114/114 36/115/115 35/116/116
f 35/117/117 36/118/118 38/119/119 37/120/120
f 37/121/121 38/122/122 40/123/123 39/124/124
f 39/125/125 40/126/126 34/127/127 33/128/128
f 34/129/129 40/130/130 38/131/131 36/132/132
f 39/133/133 33/134/134 35/135/135 37/136/136
f 41/137/137 42/138/138 44/139/139 43/140/140
f 43/141/141 44/142/142 46/143/143 45/144/144
f 45/145/145 46/146/146 48/147/147 47/148/148
f 47/149/149 48/150/150 42/151/151 41/152/152
f 42/153/153 48/154/154 46/155/155 44/156/156
f 47/157/157 41/158/158 43/159/159 45/160/160
f 49/161/161 50/162/162 52/163/163 51/164/164
f 51/165/165 52/166/166 54/167/167 53/168/168
f 53/169/169 54/170/170 56/171/171 55/172/172
f 55/173/173 56/174/174 50/175/175 49/176/176
f 50/177/177 56/178/178 54/179/179 52/180/180
f 55/181/181 49/182/182 51/183/183 53/184/184
f 57/185/185 58/186/186 60/187/187 59/188/188
f 59/189/189 60/190/190 62/191/191 61/192/192
f 61/193/193 62/194/194 64/195/195 63/196/196
f 63/197/197 64/198/198 58/199/199 57/200/200
f 58/201/201 64/202/202 62/203/203 60/204/204
f 63/205/205 57/206/206 59/207/207 61/208/208
f 65/209/209 66/210/210 68/211/211 67/212/212
f 67/213/213 68/214/214 70/215/215 69/216/216
f 69/217/217 70/218/218 72/219/219 71/220/220
f 71/221/221 72/222/222 66/223/223 65/224/224
f 66/225/225 72/226/226 70/227/227 68/228/228
f 71/229/229 65/230/230 67/231/231 69/232/232
f 73/233/233 74/234/234 76/235/235 75/236/236
f 75/237/237 76/238/238 78/239/239 77/240/240
f 77/241/241 78/242/242 80/243/243 79/244/244
f 79/245/245 80/246/246 74/247/247 73/248/248
f 74/249/249 80/250/250 78/251/251 76/252/252
f 79/253/253 73/254/254 75/255/255 77/256/256
f 81/257/257 82/258/258 84/259/259 83/260/260
f 83/261/261 84/262/262 86/263/263 85/264/264
f 85/265/265 86/266/266 88/267/267 87/268/268
f 87/269/269 88/270/270 82/271/271 81/272/272
f 82/273/273 88/274/274 86/275/275 84/276/276
f 87/277/277 81/278/278 83/279/279 85/280/280
