# This file uses meters as units for non-parametric coordinates.

v -0.004761 3.521835 -6.074402
v -0.004761 3.521835 0.019379
v -0.004761 3.619048 -6.074402
v -0.004761 3.619048 0.019379
v 1.927521 3.619048 -6.074402
v 1.927521 3.619048 0.019379
v 1.927521 3.521835 -6.074402
v 1.927521 3.521835 0.019379
v 0.106979 0.084448 -0.045975
v 0.106979 3.523011 -6.001740
v 0.106979 -0.001176 -0.095413
v 0.106979 3.437387 -6.051186
v 1.853462 -0.001176 -0.095413
v 1.853462 3.437387 -6.051178
v 1.853462 0.084448 -0.045975
v 1.853462 3.523011 -6.001740
v 0.202072 -0.001176 -0.095413
v 0.202072 3.437387 -6.051178
v 1.758362 3.437387 -6.051178
v 1.758362 -0.001176 -0.095413
v 1.758362 0.084448 -0.045975
v 1.758362 3.523011 -6.001740
v 0.202072 3.523011 -6.001740
v 0.202072 0.084448 -0.045975
v 0.106979 -0.001176 -6.001740
v 0.106979 3.437387 -0.045975
v 0.106979 0.084448 -6.051186
v 0.106979 3.523011 -0.095413
v 1.853462 0.084448 -6.051178
v 1.853462 3.523011 -0.095413
v 1.853462 -0.001176 -6.001740
v 1.853462 3.437387 -0.045975
v 0.202072 0.084448 -6.051178
v 0.202072 3.523011 -0.095413
v 1.758362 3.523011 -0.095413
v 1.758362 0.084448 -6.051178
v 1.758362 -0.001176 -6.001740
v 1.758362 3.437387 -0.045975
v 0.202072 3.437387 -0.045975
v 0.202072 -0.001176 -6.001740
v -0.000008 0.000000 -5.958923
v -0.000008 3.521835 -5.958923
v -0.000008 0.000000 -6.057793
v -0.000008 3.521835 -6.057793
v 1.960434 0.000000 -6.057785
v 1.960434 3.521835 -6.057785
v 1.960434 0.000000 -5.958916
v 1.960434 3.521835 -5.958916
v 0.106743 0.104551 -6.057793
v 0.106743 3.417284 -6.057793
v 1.853683 3.417284 -6.057793
v 1.853683 0.104551 -6.057793
v 1.853683 0.104551 -5.958923
v 1.853683 3.417284 -5.958923
v 0.106743 3.417284 -5.958923
v 0.106743 0.104551 -5.958923
v 0.000000 0.000000 0.000000
v 0.000000 3.521835 0.000000
v 0.000000 0.000000 -0.098869
v 0.000000 3.521835 -0.098869
v 1.960434 0.000000 -0.098869
v 1.960434 3.521835 -0.098869
v 1.960434 0.000000 0.000000
v 1.960434 3.521835 0.000000
v 0.106750 0.104551 -0.098869
v 0.106750 3.417284 -0.098869
v 1.853691 3.417284 -0.098869
v 1.853691 0.104551 -0.098869
v 1.853691 0.104551 0.000000
v 1.853691 3.417284 0.000000
v 0.106750 3.417284 0.000000
v 0.106750 0.104551 0.000000
vt 0.233681 0.397189
vt 0.267068 0.397189
vt 0.299036 0.397189
vt 0.229917 0.397189
vt 0.267068 0.397189
vt 0.299036 0.397189
vt 0.299036 0.397189
vt 0.267068 0.397189
vt 0.299036 0.397189
vt 0.299036 0.397189
vt 0.229917 0.397189
vt 0.229917 0.397189
vt 0.233681 0.397189
vt 0.233681 0.397189
vt 0.299036 0.397189
vt 0.267068 0.397189
vt 0.299036 0.397189
vt 0.267068 0.397189
vt 0.267068 0.397189
vt 0.299036 0.397189
vt 0.229917 0.397189
vt 0.267068 0.397189
vt 0.267068 0.397189
vt 0.233681 0.397189
vt 0.262326 0.060201
vt 0.262326 0.060201
vt 0.262326 0.060201
vt 0.262326 0.060201
vt 0.262326 0.060201
vt 0.262326 0.060201
vt 0.262326 0.060201
vt 0.262326 0.060201
vt 0.290922 0.060201
vt 0.290922 0.060201
vt 0.290922 0.060201
vt 0.290922 0.060201
vt 0.290922 0.060201
vt 0.290922 0.060201
vt 0.290922 0.060201
vt 0.290922 0.060201
vt 0.295715 0.062605
vt 0.295715 0.062605
vt 0.295715 0.062605
vt 0.295715 0.062605
vt 0.295715 0.062605
vt 0.295715 0.062605
vt 0.295715 0.062605
vt 0.295715 0.062605
vt 0.231264 0.061316
vt 0.231264 0.061316
vt 0.231264 0.061316
vt 0.231264 0.061316
vt 0.231264 0.061316
vt 0.231264 0.061316
vt 0.231264 0.061316
vt 0.231264 0.061316
vt 0.357025 0.060828
vt 0.357025 0.060828
vt 0.357025 0.060828
vt 0.357025 0.060828
vt 0.357025 0.060828
vt 0.357025 0.060828
vt 0.357025 0.060828
vt 0.357025 0.060828
vt 0.357025 0.060828
vt 0.357025 0.060828
vt 0.357025 0.060828
vt 0.357025 0.060828
vt 0.357025 0.060828
vt 0.357025 0.060828
vt 0.357025 0.060828
vt 0.357025 0.060828
vt 0.262326 0.060201
vt 0.262326 0.060201
vt 0.262326 0.060201
vt 0.262326 0.060201
vt 0.262326 0.060201
vt 0.262326 0.060201
vt 0.262326 0.060201
vt 0.262326 0.060201
vt 0.290922 0.060201
vt 0.290922 0.060201
vt 0.290922 0.060201
vt 0.290922 0.060201
vt 0.290922 0.060201
vt 0.290922 0.060201
vt 0.290922 0.060201
vt 0.290922 0.060201
vt 0.295715 0.062605
vt 0.295715 0.062605
vt 0.295715 0.062605
vt 0.295715 0.062605
vt 0.295715 0.062605
vt 0.295715 0.062605
vt 0.295715 0.062605
vt 0.295715 0.062605
vt 0.231264 0.061316
vt 0.231264 0.061316
vt 0.231264 0.061316
vt 0.231264 0.061316
vt 0.231264 0.061316
vt 0.231264 0.061316
vt 0.231264 0.061316
vt 0.231264 0.061316
vt 0.357025 0.060828
vt 0.357025 0.060828
vt 0.357025 0.060828
vt 0.357025 0.060828
vt 0.357025 0.060828
vt 0.357025 0.060828
vt 0.357025 0.060828
vt 0.357025 0.060828
vt 0.357025 0.060828
vt 0.357025 0.060828
vt 0.357025 0.060828
vt 0.357025 0.060828
vt 0.357025 0.060828
vt 0.357025 0.060828
vt 0.357025 0.060828
vt 0.357025 0.060828
vt 0.173877 0.330027
vt 0.173877 0.330027
vt 0.173877 0.330027
vt 0.173877 0.330027
vt 0.173877 0.330027
vt 0.173877 0.330027
vt 0.173877 0.330027
vt 0.173877 0.330027
vt 0.240757 0.330027
vt 0.240757 0.330027
vt 0.240757 0.330027
vt 0.240757 0.330027
vt 0.170558 0.330027
vt 0.170558 0.330027
vt 0.170558 0.330027
vt 0.170558 0.330027
vt 0.202473 0.330027
vt 0.202473 0.330027
vt 0.202473 0.330027
vt 0.202473 0.330027
vt 0.202473 0.330027
vt 0.202473 0.330027
vt 0.202473 0.330027
vt 0.202473 0.330027
vt 0.202473 0.330027
vt 0.202473 0.330027
vt 0.202473 0.330027
vt 0.202473 0.330027
vt 0.202473 0.330027
vt 0.202473 0.330027
vt 0.202473 0.330027
vt 0.202473 0.330027
vt 0.209929 0.332431
vt 0.209929 0.332431
vt 0.209929 0.332431
vt 0.209929 0.332431
vt 0.209929 0.332431
vt 0.209929 0.332431
vt 0.209929 0.332431
vt 0.209929 0.332431
vt 0.209929 0.332431
vt 0.209929 0.332431
vt 0.209929 0.332431
vt 0.209929 0.332431
vt 0.209929 0.332431
vt 0.209929 0.332431
vt 0.209929 0.332431
vt 0.209929 0.332431
vt 0.142815 0.331142
vt 0.142815 0.331142
vt 0.142815 0.331142
vt 0.142815 0.331142
vt 0.142815 0.331142
vt 0.142815 0.331142
vt 0.142815 0.331142
vt 0.142815 0.331142
vt 0.142815 0.331142
vt 0.142815 0.331142
vt 0.142815 0.331142
vt 0.142815 0.331142
vt 0.142815 0.331142
vt 0.142815 0.331142
vt 0.142815 0.331142
vt 0.142815 0.331142
vt 0.173877 0.330027
vt 0.173877 0.330027
vt 0.173877 0.330027
vt 0.173877 0.330027
vt 0.173877 0.330027
vt 0.173877 0.330027
vt 0.173877 0.330027
vt 0.173877 0.330027
vt 0.240757 0.330027
vt 0.240757 0.330027
vt 0.240757 0.330027
vt 0.240757 0.330027
vt 0.170558 0.330027
vt 0.170558 0.330027
vt 0.170558 0.330027
vt 0.170558 0.330027
vt 0.202473 0.330027
vt 0.202473 0.330027
vt 0.202473 0.330027
vt 0.202473 0.330027
vt 0.202473 0.330027
vt 0.202473 0.330027
vt 0.202473 0.330027
vt 0.202473 0.330027
vt 0.202473 0.330027
vt 0.202473 0.330027
vt 0.202473 0.330027
vt 0.202473 0.330027
vt 0.202473 0.330027
vt 0.202473 0.330027
vt 0.202473 0.330027
vt 0.202473 0.330027
vt 0.208151 0.332431
vt 0.208151 0.332431
vt 0.208151 0.332431
vt 0.208151 0.332431
vt 0.208151 0.332431
vt 0.208151 0.332431
vt 0.208151 0.332431
vt 0.208151 0.332431
vt 0.208151 0.332431
vt 0.208151 0.332431
vt 0.208151 0.332431
vt 0.208151 0.332431
vt 0.208151 0.332431
vt 0.208151 0.332431
vt 0.208151 0.332431
vt 0.208151 0.332431
vt 0.142815 0.331142
vt 0.142815 0.331142
vt 0.142815 0.331142
vt 0.142815 0.331142
vt 0.142815 0.331142
vt 0.142815 0.331142
vt 0.142815 0.331142
vt 0.142815 0.331142
vt 0.142815 0.331142
vt 0.142815 0.331142
vt 0.142815 0.331142
vt 0.142815 0.331142
vt 0.142815 0.331142
vt 0.142815 0.331142
vt 0.142815 0.331142
vt 0.142815 0.331142
vn -1.000000 0.000000 0.000000
vn -1.000000 0.000000 0.000000
vn -1.000000 0.000000 0.000000
vn -1.000000 0.000000 0.000000
vn 0.000000 1.000000 0.000000
vn 0.000000 1.000000 0.000000
vn 0.000000 1.000000 0.000000
vn 0.000000 1.000000 0.000000
vn 1.000000 0.000000 0.000000
vn 1.000000 0.000000 0.000000
vn 1.000000 0.000000 0.000000
vn 1.000000 0.000000 0.000000
vn 0.000000 -1.000000 0.000000
vn 0.000000 -1.000000 0.000000
vn 0.000000 -1.000000 0.000000
vn 0.000000 -1.000000 0.000000
vn 0.000000 0.000000 1.000000
vn 0.000000 0.000000 1.000000
vn 0.000000 0.000000 1.000000
vn 0.000000 0.000000 1.000000
vn 0.000000 0.000000 -1.000000
vn 0.000000 0.000000 -1.000000
vn 0.000000 0.000000 -1.000000
vn 0.000000 0.000000 -1.000000
vn -1.000000 0.000000 0.000000
vn -1.000000 0.000000 0.000000
vn -1.000000 0.000000 0.000000
vn -1.000000 0.000000 0.000000
vn 1.000000 0.000001 0.000000
vn 1.000000 0.000001 0.000000
vn 1.000000 0.000001 0.000000
vn 1.000000 0.000001 0.000000
vn 0.000019 -0.866026 -0.500000
vn 0.000019 -0.866026 -0.500000
vn 0.000019 -0.866026 -0.500000
vn 0.000019 -0.866026 -0.500000
vn 0.000000 -0.866025 -0.500000
vn 0.000000 -0.866025 -0.500000
vn 0.000000 -0.866025 -0.500000
vn 0.000000 -0.866025 -0.500000
vn 0.000000 0.866025 0.500000
vn 0.000000 0.866025 0.500000
vn 0.000000 0.866025 0.500000
vn 0.000000 0.866025 0.500000
vn 0.000000 0.866025 0.500000
vn 0.000000 0.866025 0.500000
vn 0.000000 0.866025 0.500000
vn 0.000000 0.866025 0.500000
vn -1.000000 0.000001 0.000000
vn -1.000000 0.000001 0.000000
vn -1.000000 0.000001 0.000000
vn -1.000000 0.000001 0.000000
vn 1.000000 0.000000 0.000000
vn 1.000000 0.000000 0.000000
vn 1.000000 0.000000 0.000000
vn 1.000000 0.000000 0.000000
vn 0.000000 -0.500023 0.866012
vn 0.000000 -0.500023 0.866012
vn 0.000000 -0.500023 0.866012
vn 0.000000 -0.500023 0.866012
vn 0.000038 0.500052 -0.865996
vn 0.000038 0.500052 -0.865995
vn 0.000038 0.500052 -0.865995
vn 0.000038 0.500052 -0.865996
vn 0.000000 -0.500023 0.866012
vn 0.000000 -0.500023 0.866012
vn 0.000000 -0.500023 0.866012
vn 0.000000 -0.500023 0.866012
vn 0.000000 0.500023 -0.866012
vn 0.000000 0.500023 -0.866012
vn 0.000000 0.500023 -0.866012
vn 0.000000 0.500023 -0.866012
vn -1.000000 0.000000 0.000000
vn -1.000000 0.000000 0.000000
vn -1.000000 0.000000 0.000000
vn -1.000000 0.000000 0.000000
vn 1.000000 0.000001 0.000000
vn 1.000000 0.000001 0.000000
vn 1.000000 0.000001 0.000000
vn 1.000000 0.000001 0.000000
vn 0.000019 0.866026 -0.500000
vn 0.000019 0.866026 -0.500000
vn 0.000019 0.866026 -0.500000
vn 0.000019 0.866026 -0.500000
vn 0.000000 0.866025 -0.500000
vn 0.000000 0.866025 -0.500000
vn 0.000000 0.866025 -0.500000
vn 0.000000 0.866025 -0.500000
vn 0.000000 -0.866025 0.500000
vn 0.000000 -0.866025 0.500000
vn 0.000000 -0.866025 0.500000
vn 0.000000 -0.866025 0.500000
vn 0.000000 -0.866025 0.500000
vn 0.000000 -0.866025 0.500000
vn 0.000000 -0.866025 0.500000
vn 0.000000 -0.866025 0.500000
vn -1.000000 0.000001 0.000000
vn -1.000000 0.000001 0.000000
vn -1.000000 0.000001 0.000000
vn -1.000000 0.000001 0.000000
vn 1.000000 0.000000 0.000000
vn 1.000000 0.000000 0.000000
vn 1.000000 0.000000 0.000000
vn 1.000000 0.000000 0.000000
vn 0.000038 -0.500052 -0.865995
vn 0.000038 -0.500052 -0.865995
vn 0.000038 -0.500052 -0.865995
vn 0.000038 -0.500052 -0.865995
vn 0.000000 0.500023 0.866012
vn 0.000000 0.500023 0.866012
vn 0.000000 0.500023 0.866012
vn 0.000000 0.500023 0.866012
vn 0.000000 -0.500023 -0.866012
vn 0.000000 -0.500023 -0.866012
vn 0.000000 -0.500023 -0.866012
vn 0.000000 -0.500023 -0.866012
vn 0.000000 0.500023 0.866012
vn 0.000000 0.500023 0.866012
vn 0.000000 0.500023 0.866012
vn 0.000000 0.500023 0.866012
vn -1.000000 0.000000 0.000000
vn -1.000000 0.000000 0.000000
vn -1.000000 0.000000 0.000000
vn -1.000000 0.000000 0.000000
vn 1.000000 0.000000 0.000000
vn 1.000000 0.000000 0.000000
vn 1.000000 0.000000 0.000000
vn 1.000000 0.000000 0.000000
vn 0.000000 1.000000 0.000000
vn 0.000000 1.000000 0.000000
vn 0.000000 1.000000 0.000000
vn 0.000000 1.000000 0.000000
vn 0.000000 -1.000000 0.000000
vn 0.000000 -1.000000 0.000000
vn 0.000000 -1.000000 0.000000
vn 0.000000 -1.000000 0.000000
vn 0.000001 -0.000012 -1.000000
vn 0.000001 0.000012 -1.000000
vn 0.000001 0.000013 -1.000000
vn 0.000001 -0.000013 -1.000000
vn 0.000001 0.000012 -1.000000
vn 0.000050 0.000012 -1.000000
vn 0.000049 0.000013 -1.000000
vn 0.000001 0.000013 -1.000000
vn 0.000050 0.000012 -1.000000
vn 0.000050 -0.000012 -1.000000
vn 0.000049 -0.000013 -1.000000
vn 0.000049 0.000013 -1.000000
vn 0.000050 -0.000012 -1.000000
vn 0.000001 -0.000012 -1.000000
vn 0.000001 -0.000013 -1.000000
vn 0.000049 -0.000013 -1.000000
vn -0.000050 0.000012 1.000000
vn -0.000050 -0.000012 1.000000
vn -0.000049 -0.000013 1.000000
vn -0.000049 0.000013 1.000000
vn -0.000050 -0.000012 1.000000
vn -0.000001 -0.000012 1.000000
vn -0.000001 -0.000013 1.000000
vn -0.000049 -0.000013 1.000000
vn -0.000001 -0.000012 1.000000
vn -0.000001 0.000012 1.000000
vn -0.000001 0.000013 1.000000
vn -0.000001 -0.000013 1.000000
vn -0.000001 0.000012 1.000000
vn -0.000050 0.000012 1.000000
vn -0.000049 0.000013 1.000000
vn -0.000001 0.000013 1.000000
vn -1.000000 0.000000 0.000000
vn -1.000000 0.000000 0.000000
vn -1.000000 0.000000 0.000000
vn -1.000000 0.000000 0.000000
vn 0.000000 1.000000 0.000000
vn 0.000000 1.000000 0.000000
vn 0.000000 1.000000 0.000000
vn 0.000000 1.000000 0.000000
vn 0.000000 -1.000000 0.000000
vn 0.000000 -1.000000 0.000000
vn 0.000000 -1.000000 0.000000
vn 0.000000 -1.000000 0.000000
vn 1.000000 0.000000 0.000000
vn 1.000000 0.000000 0.000000
vn 1.000000 0.000000 0.000000
vn 1.000000 0.000000 0.000000
vn -1.000000 0.000000 0.000000
vn -1.000000 0.000000 0.000000
vn -1.000000 0.000000 0.000000
vn -1.000000 0.000000 0.000000
vn 1.000000 0.000000 0.000000
vn 1.000000 0.000000 0.000000
vn 1.000000 0.000000 0.000000
vn 1.000000 0.000000 0.000000
vn 0.000000 1.000000 0.000000
vn 0.000000 1.000000 0.000000
vn 0.000000 1.000000 0.000000
vn 0.000000 1.000000 0.000000
vn 0.000000 -1.000000 0.000000
vn 0.000000 -1.000000 0.000000
vn 0.000000 -1.000000 0.000000
vn 0.000000 -1.000000 0.000000
vn -0.000000 0.000000 -1.000000
vn -0.000000 0.000000 -1.000000
vn -0.000000 0.000000 -1.000000
vn -0.000000 0.000000 -1.000000
vn -0.000000 0.000000 -1.000000
vn -0.000000 0.000000 -1.000000
vn -0.000000 0.000000 -1.000000
vn -0.000000 0.000000 -1.000000
vn -0.000000 0.000000 -1.000000
vn -0.000000 0.000000 -1.000000
vn -0.000000 0.000000 -1.000000
vn -0.000000 0.000000 -1.000000
vn -0.000000 0.000000 -1.000000
vn -0.000000 0.000000 -1.000000
vn -0.000000 0.000000 -1.000000
vn -0.000000 0.000000 -1.000000
vn 0.000000 0.000000 1.000000
vn 0.000000 0.000000 1.000000
vn 0.000000 0.000000 1.000000
vn 0.000000 0.000000 1.000000
vn 0.000000 0.000000 1.000000
vn 0.000000 0.000000 1.000000
vn 0.000000 0.000000 1.000000
vn 0.000000 0.000000 1.000000
vn 0.000000 0.000000 1.000000
vn 0.000000 0.000000 1.000000
vn 0.000000 0.000000 1.000000
vn 0.000000 0.000000 1.000000
vn 0.000000 0.000000 1.000000
vn 0.000000 0.000000 1.000000
vn 0.000000 0.000000 1.000000
vn 0.000000 0.000000 1.000000
vn -1.000000 0.000000 0.000000
vn -1.000000 0.000000 0.000000
vn -1.000000 0.000000 0.000000
vn -1.000000 0.000000 0.000000
vn 0.000000 1.000000 0.000000
vn 0.000000 1.000000 0.000000
vn 0.000000 1.000000 0.000000
vn 0.000000 1.000000 0.000000
vn 0.000000 -1.000000 0.000000
vn 0.000000 -1.000000 0.000000
vn 0.000000 -1.000000 0.000000
vn 0.000000 -1.000000 0.000000
vn 1.000000 0.000000 0.000000
vn 1.000000 0.000000 0.000000
vn 1.000000 0.000000 0.000000
vn 1.000000 0.000000 0.000000
s off
f 1/23/1 2/2/2 4/22/3 3/19/4
f 3/3/5 4/17/6 6/6/7 5/20/8
f 5/5/9 6/18/10 8/8/11 7/16/12
f 7/7/13 8/15/14 2/10/15 1/9/16
f 2/21/17 8/11/18 6/12/19 4/4/20
f 7/13/21 1/1/22 3/24/23 5/14/24
f 9/25/25 10/26/26 12/27/27 11/28/28
f 13/29/29 14/30/30 16/31/31 15/32/32
f 11/33/33 12/34/34 18/35/35 17/36/36
f 14/37/37 13/38/38 20/39/39 19/40/40
f 15/41/41 16/42/42 22/43/43 21/44/44
f 10/45/45 9/46/46 24/47/47 23/48/48
f 19/49/49 20/50/50 21/51/51 22/52/52
f 18/53/53 23/54/54 24/55/55 17/56/56
f 11/57/57 17/58/58 24/59/59 9/60/60
f 12/61/61 10/62/62 23/63/63 18/64/64
f 15/65/65 21/66/66 20/67/67 13/68/68
f 16/69/69 14/70/70 19/71/71 22/72/72
f 25/73/73 26/74/74 28/75/75 27/76/76
f 29/77/77 30/78/78 32/79/79 31/80/80
f 27/81/81 28/82/82 34/83/83 33/84/84
f 30/85/85 29/86/86 36/87/87 35/88/88
f 31/89/89 32/90/90 38/91/91 37/92/92
f 26/93/93 25/94/94 40/95/95 39/96/96
f 35/97/97 36/98/98 37/99/99 38/100/100
f 34/101/101 39/102/102 40/103/103 33/104/104
f 27/105/105 33/106/106 40/107/107 25/108/108
f 28/109/109 26/110/110 39/111/111 34/112/112
f 31/113/113 37/114/114 36/115/115 29/116/116
f 32/117/117 30/118/118 35/119/119 38/120/120
f 41/121/121 42/122/122 44/123/123 43/124/124
f 45/125/125 46/126/126 48/127/127 47/128/128
f 42/129/129 48/130/130 46/131/131 44/132/132
f 47/133/133 41/134/134 43/135/135 45/136/136
f 43/137/137 44/138/138 50/139/139 49/140/140
f 44/141/141 46/142/142 51/143/143 50/144/144
f 46/145/145 45/146/146 52/147/147 51/148/148
f 45/149/149 43/150/150 49/151/151 52/152/152
f 47/153/153 48/154/154 54/155/155 53/156/156
f 48/157/157 42/158/158 55/159/159 54/160/160
f 42/161/161 41/162/162 56/163/163 55/164/164
f 41/165/165 47/166/166 53/167/167 56/168/168
f 51/169/169 52/170/170 53/171/171 54/172/172
f 52/173/173 49/174/174 56/175/175 53/176/176
f 51/177/177 54/178/178 55/179/179 50/180/180
f 50/181/181 55/182/182 56/183/183 49/184/184
f 57/185/185 58/186/186 60/187/187 59/188/188
f 61/189/189 62/190/190 64/191/191 63/192/192
f 58/193/193 64/194/194 62/195/195 60/196/196
f 63/197/197 57/198/198 59/199/199 61/200/200
f 59/201/201 60/202/202 66/203/203 65/204/204
f 60/205/205 62/206/206 67/207/207 66/208/208
f 62/209/209 61/210/210 68/211/211 67/212/212
f 61/213/213 59/214/214 65/215/215 68/216/216
f 63/217/217 64/218/218 70/219/219 69/220/220
f 64/221/221 58/222/222 71/223/223 70/224/224
f 58/225/225 57/226/226 72/227/227 71/228/228
f 57/229/229 63/230/230 69/231/231 72/232/232
f 67/233/233 68/234/234 69/235/235 70/236/236
f 68/237/237 65/238/238 72/239/239 69/240/240
f 67/241/241 70/242/242 71/243/243 66/244/244
f 66/245/245 71/246/246 72/247/247 65/248/248
