# This file uses meters as units for non-parametric coordinates.

v 1.979063 -0.075605 0.085164
v 2.149390 -0.075605 0.085164
v 1.979063 4.699836 0.085164
v 2.149390 4.699836 0.085164
v 1.979063 4.699836 -0.085164
v 2.149390 4.699836 -0.085164
v 1.979063 -0.075605 -0.085164
v 2.149390 -0.075605 -0.085164
v 2.012477 3.635946 0.063427
v 2.012477 3.635946 -0.063427
v 2.012477 4.585109 0.063427
v 2.012477 4.585109 -0.063427
v -2.064439 4.585109 0.063427
v -2.064439 4.585109 -0.063427
v -2.064439 3.635946 0.063427
v -2.064439 3.635946 -0.063427
v -1.693205 3.649200 0.063427
v 1.641243 3.649200 0.063427
v 1.641243 4.571855 0.063427
v -1.693205 4.571855 0.063427
v -2.149390 -0.075605 0.085164
v -1.979063 -0.075605 0.085164
v -2.149390 4.699836 0.085164
v -1.979063 4.699836 0.085164
v -2.149390 4.699836 -0.085164
v -1.979063 4.699836 -0.085164
v -2.149390 -0.075605 -0.085164
v -1.979063 -0.075605 -0.085164
v -1.739283 3.895441 -0.063427
v 1.687321 3.895441 -0.063427
v -1.739283 4.325614 -0.063427
v 1.687321 4.325614 -0.063427
vt 0.262986 0.266394
vt 0.296528 0.266394
vt 0.330070 0.266394
vt 0.262986 0.266394
vt 0.330070 0.266394
vt 0.262986 0.266394
vt 0.262986 0.266394
vt 0.262986 0.266394
vt 0.262986 0.266394
vt 0.330070 0.266394
vt 0.296528 0.266394
vt 0.330070 0.266394
vt 0.296528 0.266394
vt 0.262986 0.266394
vt 0.262986 0.266394
vt 0.296528 0.266394
vt 0.391120 0.479264
vt 0.391120 0.479264
vt 0.391120 0.479264
vt 0.391120 0.479264
vt 0.454956 0.479264
vt 0.454956 0.479264
vt 0.454956 0.479264
vt 0.454956 0.479264
vt 0.391120 0.479264
vt 0.391120 0.479264
vt 0.391120 0.479264
vt 0.391120 0.479264
vt 0.391120 0.479264
vt 0.391120 0.479264
vt 0.391120 0.479264
vt 0.391120 0.479264
vt 0.427168 0.479264
vt 0.427168 0.479264
vt 0.427168 0.479264
vt 0.427168 0.479264
vt 0.765179 0.693574
vt 0.995292 0.693574
vt 0.995292 0.746131
vt 0.765179 0.746131
vt 0.765179 0.693574
vt 0.995292 0.693574
vt 0.995292 0.746131
vt 0.765179 0.746131
vt 0.296528 0.266394
vt 0.296528 0.266394
vt 0.296528 0.266394
vt 0.296528 0.266394
vt 0.330070 0.266394
vt 0.330070 0.266394
vt 0.330070 0.266394
vt 0.330070 0.266394
vt 0.262986 0.266394
vt 0.262986 0.266394
vt 0.262986 0.266394
vt 0.262986 0.266394
vt 0.262986 0.266394
vt 0.262986 0.266394
vt 0.262986 0.266394
vt 0.262986 0.266394
vt 0.229429 0.266376
vt 0.229429 0.266375
vt 0.229429 0.266375
vt 0.229429 0.266376
vt 0.229428 0.266376
vt 0.229428 0.266375
vt 0.229428 0.266375
vt 0.229428 0.266376
vt 0.300863 0.479264
vt 0.427168 0.479264
vt 0.427168 0.479264
vt 0.427168 0.479264
vt 0.427168 0.479264
vt 0.300863 0.479264
vt 0.300863 0.479264
vt 0.300863 0.479264
vn 0.000000 0.000000 1.000000
vn 0.000000 0.000000 1.000000
vn 0.000000 0.000000 1.000000
vn 0.000000 0.000000 1.000000
vn 0.000000 1.000000 0.000000
vn 0.000000 1.000000 0.000000
vn 0.000000 1.000000 0.000000
vn 0.000000 1.000000 0.000000
vn 1.000000 0.000000 0.000000
vn 1.000000 0.000000 0.000000
vn 1.000000 0.000000 0.000000
vn 1.000000 0.000000 0.000000
vn -1.000000 0.000000 0.000000
vn -1.000000 0.000000 0.000000
vn -1.000000 0.000000 0.000000
vn -1.000000 0.000000 0.000000
vn 1.000000 0.000000 0.000000
vn 1.000000 0.000000 0.000000
vn 1.000000 0.000000 0.000000
vn 1.000000 0.000000 0.000000
vn 0.000000 1.000000 0.000000
vn 0.000000 1.000000 0.000000
vn 0.000000 1.000000 0.000000
vn 0.000000 1.000000 0.000000
vn -1.000000 0.000000 0.000000
vn -1.000000 0.000000 0.000000
vn -1.000000 0.000000 0.000000
vn -1.000000 0.000000 0.000000
vn 0.000000 -1.000000 0.000000
vn 0.000000 -1.000000 0.000000
vn 0.000000 -1.000000 0.000000
vn 0.000000 -1.000000 0.000000
vn 0.000000 0.000000 -1.000000
vn 0.000000 0.000000 -1.000000
vn 0.000000 0.000000 -1.000000
vn 0.000000 0.000000 -1.000000
vn -0.000000 0.000000 1.000000
vn 0.000000 0.000000 1.000000
vn 0.000000 0.000000 1.000000
vn -0.000000 0.000000 1.000000
vn -0.000000 0.000000 1.000000
vn 0.000000 0.000000 1.000000
vn 0.000000 0.000000 1.000000
vn -0.000000 0.000000 1.000000
vn 0.000000 0.000000 1.000000
vn 0.000000 0.000000 1.000000
vn 0.000000 0.000000 1.000000
vn 0.000000 0.000000 1.000000
vn 0.000000 0.000000 1.000000
vn -0.000000 0.000000 1.000000
vn -0.000000 0.000000 1.000000
vn 0.000000 0.000000 1.000000
vn -0.000000 0.000000 1.000000
vn -0.000000 0.000000 1.000000
vn -0.000000 0.000000 1.000000
vn -0.000000 0.000000 1.000000
vn 0.000000 0.000000 1.000000
vn 0.000000 0.000000 1.000000
vn 0.000000 0.000000 1.000000
vn 0.000000 0.000000 1.000000
vn 0.000000 1.000000 0.000000
vn 0.000000 1.000000 0.000000
vn 0.000000 1.000000 0.000000
vn 0.000000 1.000000 0.000000
vn 1.000000 0.000000 0.000000
vn 1.000000 0.000000 0.000000
vn 1.000000 0.000000 0.000000
vn 1.000000 0.000000 0.000000
vn -1.000000 0.000000 0.000000
vn -1.000000 0.000000 0.000000
vn -1.000000 0.000000 0.000000
vn -1.000000 0.000000 0.000000
vn 0.000000 0.000000 -1.000000
vn 0.000000 0.000000 -1.000000
vn 0.000000 0.000000 -1.000000
vn 0.000000 0.000000 -1.000000
vn 0.000000 0.000000 -1.000000
vn 0.000000 0.000000 -1.000000
vn 0.000000 0.000000 -1.000000
vn 0.000000 0.000000 -1.000000
vn 0.000000 0.000000 -1.000000
vn 0.000000 0.000000 -1.000000
vn 0.000000 0.000000 -1.000000
vn 0.000000 0.000000 -1.000000
vn 0.000000 0.000000 -1.000000
vn 0.000000 0.000000 -1.000000
vn 0.000000 0.000000 -1.000000
vn 0.000000 0.000000 -1.000000
vn 0.000000 0.000000 -1.000000
vn 0.000000 0.000000 -1.000000
vn 0.000000 0.000000 -1.000000
vn 0.000000 0.000000 -1.000000
vn 0.000000 0.000000 -1.000000
vn 0.000000 0.000000 -1.000000
vn 0.000000 0.000000 -1.000000
vn 0.000000 0.000000 -1.000000
s off
f 1/16/1 2/2/2 4/13/3 3/11/4
f 3/3/5 4/10/6 6/5/7 5/12/8
f 2/15/9 8/6/10 6/7/11 4/4/12
f 7/8/13 1/1/14 3/14/15 5/9/16
f 9/17/17 10/18/18 12/19/19 11/20/20
f 11/21/21 12/22/22 14/23/23 13/24/24
f 13/25/25 14/26/26 16/27/27 15/28/28
f 15/29/29 16/30/30 10/31/31 9/32/32
f 30/69/33 29/76/34 31/75/35 32/74/36
f 17/37/37 18/38/38 19/39/39 20/40/40
f 15/41/41 9/42/42 18/38/43 17/37/44
f 9/42/45 11/43/46 19/39/47 18/38/48
f 11/43/49 13/44/50 20/40/51 19/39/52
f 13/44/53 15/41/54 17/37/55 20/40/56
f 21/45/57 22/46/58 24/47/59 23/48/60
f 23/49/61 24/50/62 26/51/63 25/52/64
f 22/53/65 28/54/66 26/55/67 24/56/68
f 27/57/69 21/58/70 23/59/71 25/60/72
f 6/61/73 8/62/74 7/63/75 5/64/76
f 26/65/77 28/66/78 27/67/79 25/68/80
f 10/33/81 16/34/82 29/70/83 30/73/84
f 16/34/85 14/35/86 31/71/87 29/70/88
f 14/35/89 12/36/90 32/72/91 31/71/92
f 12/36/93 10/33/94 30/73/95 32/72/96
