# This file uses meters as units for non-parametric coordinates.

v -0.500000 0.040556 -0.362736
v -0.500000 0.040556 0.400356
v -0.500000 1.536776 -0.362736
v -0.500000 1.536776 0.400356
v 0.500000 1.536776 -0.362736
v 0.500000 1.536776 0.400356
v 0.500000 0.040556 -0.362736
v 0.500000 0.040556 0.400356
v 0.500000 1.536776 0.248165
v -0.500000 1.536776 0.248165
v -0.500000 0.040556 0.248165
v 0.500000 0.040556 0.248165
v 0.500000 1.536776 0.185772
v -0.500000 1.536776 0.185772
v -0.500000 0.040556 0.185772
v 0.500000 0.040556 0.185772
v -0.205471 1.536776 -0.312292
v -0.205471 1.536776 -0.190205
v 0.205471 1.536776 -0.190205
v 0.205471 1.536776 -0.312292
v -0.205471 2.020318 -0.312292
v -0.205471 2.020318 -0.190205
v 0.205471 2.020318 -0.190205
v 0.205471 2.020318 -0.312292
v 0.112431 1.536776 -0.190205
v -0.112431 1.536776 -0.190205
v 0.112431 1.944563 -0.190205
v -0.112431 1.944563 -0.190205
v -0.112431 1.536776 -0.312292
v 0.112431 1.536776 -0.312292
v -0.112431 1.944563 -0.312292
v 0.112431 1.944563 -0.312292
v 0.359515 0.204434 0.400356
v -0.359515 0.204434 0.400356
v 0.359515 1.404020 0.400356
v -0.359515 1.404020 0.400356
v -0.359515 0.864206 0.400356
v 0.359515 0.864206 0.400356
v 0.359515 0.744248 0.400356
v -0.359515 0.744248 0.400356
v -0.314423 0.864206 0.400356
v 0.314423 0.864206 0.400356
v 0.314423 1.359107 0.400356
v -0.314423 1.359107 0.400356
v 0.315099 0.204434 0.400356
v -0.315099 0.204434 0.400356
v 0.315099 0.700458 0.400356
v -0.315099 0.700458 0.400356
v -0.314423 0.941299 0.400356
v -0.359515 0.941299 0.400356
v -0.315099 0.281527 0.400356
v -0.359515 0.281527 0.400356
v -0.500000 0.392422 0.185772
v -0.500000 0.392422 0.248165
v -0.500000 0.295975 0.248165
v -0.500000 0.295975 0.185772
v -0.500000 0.273467 0.248165
v -0.500000 0.273467 0.185772
v -0.500000 0.172747 0.248165
v -0.500000 0.172747 0.185772
v 0.332509 0.040556 -0.362736
v 0.203920 0.040556 -0.362736
v 0.203920 0.040556 -0.286547
v 0.332509 0.040556 -0.286547
v 0.332509 0.104708 -0.362736
v 0.203920 0.104708 -0.362736
v -0.204241 0.040556 -0.362736
v -0.331845 0.040556 -0.362736
v -0.204241 0.104708 -0.362736
v -0.331845 0.104708 -0.362736
v -0.331845 0.040556 -0.286547
v -0.204241 0.040556 -0.286547
v 0.332509 0.000000 -0.286547
v 0.332509 0.000000 -0.400356
v 0.203920 0.000000 -0.286547
v 0.203920 0.000000 -0.400356
v 0.203920 0.104708 -0.400356
v 0.332509 0.104708 -0.400356
v -0.331845 0.104708 -0.400356
v -0.331845 0.000000 -0.400356
v -0.204241 0.104708 -0.400356
v -0.204241 0.000000 -0.400356
v -0.204241 0.000000 -0.286547
v -0.331845 0.000000 -0.286547
vt 0.145697 0.169808
vt 0.175112 0.169808
vt 0.226796 0.169808
vt 0.203032 0.169808
vt 0.175112 0.169808
vt 0.226796 0.169808
vt 0.139989 0.169808
vt 0.175112 0.169808
vt 0.139989 0.169808
vt 0.139989 0.169808
vt 0.203032 0.169808
vt 0.203032 0.169808
vt 0.145697 0.169808
vt 0.145697 0.169808
vt 0.226796 0.169808
vt 0.175112 0.169808
vt 0.175112 0.169808
vt 0.226796 0.169808
vt 0.203032 0.169808
vt 0.175112 0.169808
vt 0.175112 0.169808
vt 0.145697 0.169808
vt 0.139989 0.169808
vt 0.175112 0.169808
vt 0.136888 0.063184
vt 0.226796 0.169808
vt 0.168454 0.063184
vt 0.175112 0.169808
vt 0.136888 0.063184
vt 0.139989 0.169808
vt 0.081648 0.063184
vt 0.175112 0.169808
vt 0.136888 0.063184
vt 0.168454 0.063184
vt 0.226796 0.169808
vt 0.175112 0.169808
vt 0.175112 0.169808
vt 0.139989 0.169808
vt 0.139989 0.169808
vt 0.175112 0.169808
vt 0.081648 0.063184
vt 0.136888 0.063184
vt 0.226796 0.169808
vt 0.175112 0.169808
vt 0.136888 0.063184
vt 0.081648 0.063184
vt 0.168454 0.063184
vt 0.136888 0.063184
vt 0.139989 0.169808
vt 0.136888 0.063184
vt 0.175112 0.169808
vt 0.081648 0.063184
vt 0.226796 0.169808
vt 0.136888 0.063184
vt 0.175112 0.169808
vt 0.168454 0.063184
vt 0.226796 0.169808
vt 0.226796 0.169808
vt 0.226796 0.169808
vt 0.226796 0.169808
vt 0.170167 0.064029
vt 0.170167 0.064029
vt 0.170167 0.064029
vt 0.170167 0.064029
vt 0.226796 0.169808
vt 0.226796 0.169808
vt 0.170167 0.064029
vt 0.145020 0.064029
vt 0.226796 0.169808
vt 0.226796 0.169808
vt 0.170167 0.064029
vt 0.145020 0.064029
vt 0.145020 0.064029
vt 0.145020 0.064029
vt 0.145020 0.064029
vt 0.170167 0.064029
vt 0.113836 0.169647
vt 0.113836 0.169647
vt 0.113836 0.169647
vt 0.113836 0.169647
vt 0.145020 0.064029
vt 0.145020 0.064029
vt 0.145020 0.064029
vt 0.170167 0.064029
vt 0.200343 0.064029
vt 0.200343 0.064029
vt 0.200343 0.064029
vt 0.200343 0.064029
vt 0.145020 0.064029
vt 0.170167 0.064029
vt 0.170167 0.064029
vt 0.170167 0.064029
vt 0.170167 0.064029
vt 0.145020 0.064029
vt 0.170167 0.064029
vt 0.170167 0.064029
vt 0.145020 0.064029
vt 0.170167 0.064029
vt 0.170167 0.064029
vt 0.145020 0.064029
vt 0.145020 0.064029
vt 0.170167 0.064029
vt 0.170167 0.064029
vt 0.170167 0.064029
vt 0.170167 0.064029
vt 0.145020 0.064029
vt 0.170167 0.064029
vt 0.170167 0.064029
vt 0.145020 0.064029
vt 0.170167 0.064029
vt 0.170167 0.064029
vt 0.145020 0.064029
vt 0.147031 0.060005
vt 0.147031 0.060005
vt 0.147031 0.060005
vt 0.204367 0.169647
vt 0.147031 0.060005
vt 0.147031 0.060005
vt 0.147031 0.060005
vt 0.147031 0.060005
vt 0.147031 0.060005
vt 0.147031 0.060005
vt 0.147031 0.060005
vt 0.147031 0.060005
vt 0.147031 0.060005
vt 0.331108 0.061011
vt 0.147031 0.060005
vt 0.203032 0.169808
vt 0.147031 0.060005
vt 0.203032 0.169808
vt 0.203032 0.169808
vt 0.147031 0.060005
vt 0.204367 0.169647
vt 0.203032 0.169808
vt 0.203032 0.169808
vt 0.147031 0.060005
vt 0.203032 0.169808
vt 0.331108 0.061011
vt 0.203032 0.169808
vt 0.204367 0.169647
vt 0.331108 0.061011
vt 0.147031 0.060005
vt 0.203032 0.169808
vt 0.147031 0.060005
vt 0.203032 0.169808
vt 0.203032 0.169808
vt 0.147031 0.060005
vt 0.203032 0.169808
vt 0.203032 0.169808
vt 0.147031 0.060005
vt 0.203032 0.169808
vt 0.204367 0.169647
vt 0.203032 0.169808
vt 0.331108 0.061011
vt 0.147031 0.060005
vt 0.204233 0.169663
vt 0.203032 0.169808
vt 0.147031 0.060005
vt 0.147031 0.060005
vt 0.204233 0.169663
vt 0.203032 0.169808
vt 0.147031 0.060005
vt 0.331108 0.061011
vt 0.331108 0.061011
vt 0.331108 0.061011
vt 0.331108 0.061011
vt 0.136888 0.063184
vt 0.175112 0.169808
vt 0.175112 0.169808
vt 0.136888 0.063184
vt 0.175112 0.169808
vt 0.136888 0.063184
vt 0.136888 0.063184
vt 0.175112 0.169808
vt 0.175112 0.169808
vt 0.136888 0.063184
vt 0.136888 0.063184
vt 0.175112 0.169808
vt 0.175112 0.169808
vt 0.136888 0.063184
vt 0.136888 0.063184
vt 0.175112 0.169808
vt 0.329096 0.065035
vt 0.329096 0.065035
vt 0.329096 0.065035
vt 0.329096 0.065035
vt 0.329096 0.065035
vt 0.329096 0.065035
vt 0.329096 0.065035
vt 0.329096 0.065035
vt 0.145697 0.169808
vt 0.139989 0.169808
vt 0.145697 0.169808
vt 0.139989 0.169808
vt 0.139989 0.169808
vt 0.139989 0.169808
vt 0.145697 0.169808
vt 0.145697 0.169808
vt 0.145697 0.169808
vt 0.139989 0.169808
vt 0.145697 0.169808
vt 0.139989 0.169808
vt 0.145697 0.169808
vt 0.145697 0.169808
vt 0.139989 0.169808
vt 0.139989 0.169808
vt 0.173184 0.061011
vt 0.106796 0.062017
vt 0.106796 0.062017
vt 0.106796 0.062017
vt 0.106796 0.062017
vt 0.106796 0.062017
vt 0.131943 0.062017
vt 0.106796 0.062017
vt 0.106796 0.062017
vt 0.106796 0.062017
vt 0.106796 0.062017
vt 0.106796 0.062017
vt 0.106796 0.062017
vt 0.106796 0.062017
vt 0.106796 0.062017
vt 0.106796 0.062017
vt 0.106796 0.062017
vt 0.106796 0.062017
vt 0.106796 0.062017
vt 0.106796 0.062017
vt 0.106796 0.062017
vt 0.106796 0.062017
vt 0.106796 0.062017
vt 0.106796 0.062017
vt 0.106796 0.062017
vt 0.106796 0.062017
vt 0.106796 0.062017
vt 0.131943 0.062017
vt 0.106796 0.062017
vt 0.131943 0.062017
vt 0.106796 0.062017
vt 0.106796 0.062017
vt 0.173184 0.061011
vt 0.106796 0.062017
vt 0.106796 0.062017
vt 0.173184 0.061011
vt 0.106796 0.062017
vt 0.106796 0.062017
vt 0.173184 0.061011
vt 0.106796 0.062017
vt 0.106796 0.062017
vt 0.106796 0.062017
vt 0.106796 0.062017
vt 0.106796 0.062017
vt 0.106796 0.062017
vt 0.173184 0.061011
vt 0.106796 0.062017
vt 0.173184 0.061011
vt 0.106796 0.062017
vt 0.106796 0.062017
vt 0.131943 0.062017
vt 0.106796 0.062017
vt 0.106796 0.062017
vt 0.131943 0.062017
vt 0.106796 0.062017
vt 0.106796 0.062017
vt 0.131943 0.062017
vt 0.106796 0.062017
vt 0.106796 0.062017
vt 0.106796 0.062017
vt 0.131943 0.062017
vt 0.173184 0.061011
vt 0.131943 0.062017
vt 0.173184 0.061011
vn -1.000000 0.000000 0.000000
vn -1.000000 0.000000 0.000000
vn -1.000000 0.000000 0.000000
vn -1.000000 0.000000 0.000000
vn -1.000000 0.000000 0.000000
vn -1.000000 0.000000 0.000000
vn -1.000000 0.000000 0.000000
vn -1.000000 0.000000 0.000000
vn 0.000000 1.000000 0.000000
vn 0.000000 1.000000 0.000000
vn 0.000000 1.000000 0.000000
vn 0.000000 1.000000 0.000000
vn 1.000000 0.000000 0.000000
vn 1.000000 0.000000 0.000000
vn 1.000000 0.000000 0.000000
vn 1.000000 0.000000 0.000000
vn 0.000000 -1.000000 0.000000
vn 0.000000 -1.000000 0.000000
vn 0.000000 -1.000000 0.000000
vn 0.000000 -1.000000 0.000000
vn 0.000000 0.000000 1.000000
vn 0.000000 0.000000 1.000000
vn 0.000000 0.000000 1.000000
vn 0.000000 0.000000 1.000000
vn 0.000000 0.000000 1.000000
vn -0.000000 0.000000 1.000000
vn -0.000000 0.000000 1.000000
vn 0.000000 0.000000 1.000000
vn 0.000000 0.000000 1.000000
vn 0.000000 0.000000 -1.000000
vn 0.000000 0.000000 -1.000000
vn 0.000000 0.000000 -1.000000
vn 0.000000 0.000000 -1.000000
vn 0.000000 0.000000 -1.000000
vn 0.000000 0.000000 -1.000000
vn 0.000000 0.000000 -1.000000
vn 0.000000 0.000000 -1.000000
vn 0.000000 0.000000 -1.000000
vn 0.000000 0.000000 -1.000000
vn 0.000000 0.000000 -1.000000
vn 0.000000 0.000000 -1.000000
vn 0.000000 1.000000 0.000000
vn 0.000000 1.000000 0.000000
vn 0.000000 1.000000 0.000000
vn 0.000000 1.000000 0.000000
vn -1.000000 0.000000 0.000000
vn -1.000000 0.000000 0.000000
vn -1.000000 0.000000 0.000000
vn -1.000000 0.000000 0.000000
vn 0.000000 -1.000000 0.000000
vn 0.000000 -1.000000 0.000000
vn 0.000000 -1.000000 0.000000
vn 0.000000 -1.000000 0.000000
vn 1.000000 0.000000 0.000000
vn 1.000000 0.000000 0.000000
vn 1.000000 0.000000 0.000000
vn 1.000000 0.000000 0.000000
vn 0.000000 1.000000 0.000000
vn 0.000000 1.000000 0.000000
vn 0.000000 1.000000 0.000000
vn 0.000000 1.000000 0.000000
vn -1.000000 0.000000 0.000000
vn -1.000000 0.000000 0.000000
vn -1.000000 0.000000 0.000000
vn -1.000000 0.000000 0.000000
vn -1.000000 0.000000 0.000000
vn -1.000000 0.000000 0.000000
vn -1.000000 0.000000 0.000000
vn -1.000000 0.000000 0.000000
vn 0.000000 -1.000000 0.000000
vn 0.000000 -1.000000 0.000000
vn 0.000000 -1.000000 0.000000
vn 0.000000 -1.000000 0.000000
vn 0.000000 -1.000000 0.000000
vn 0.000000 -1.000000 0.000000
vn 0.000000 -1.000000 0.000000
vn 0.000000 -1.000000 0.000000
vn 0.000000 -1.000000 0.000000
vn 0.000000 -1.000000 0.000000
vn 0.000000 -1.000000 0.000000
vn 0.000000 -1.000000 0.000000
vn 1.000000 0.000000 0.000000
vn 1.000000 0.000000 0.000000
vn 1.000000 0.000000 0.000000
vn 1.000000 0.000000 0.000000
vn 0.000000 1.000000 0.000000
vn 0.000000 1.000000 0.000000
vn 0.000000 1.000000 0.000000
vn 0.000000 1.000000 0.000000
vn 0.000000 1.000000 0.000000
vn 0.000000 1.000000 0.000000
vn 0.000000 1.000000 0.000000
vn 0.000000 1.000000 0.000000
vn 0.000000 1.000000 0.000000
vn 0.000000 1.000000 0.000000
vn 0.000000 1.000000 0.000000
vn 0.000000 1.000000 0.000000
vn 0.000000 1.000000 0.000000
vn 0.000000 1.000000 0.000000
vn 0.000000 1.000000 0.000000
vn 0.000000 1.000000 0.000000
vn -1.000000 0.000000 0.000000
vn -1.000000 0.000000 0.000000
vn -1.000000 0.000000 0.000000
vn -1.000000 0.000000 0.000000
vn 1.000000 0.000000 0.000000
vn 1.000000 0.000000 0.000000
vn 1.000000 0.000000 0.000000
vn 1.000000 0.000000 0.000000
vn 0.000000 0.000000 0.000000
vn 0.000000 0.000000 0.000000
vn 0.000000 0.000000 0.000000
vn 0.000000 0.000000 0.000000
vn 0.000000 0.000000 1.000000
vn 0.000000 0.000000 1.000000
vn 0.000000 0.000000 1.000000
vn 0.000000 0.000000 1.000000
vn 0.000000 0.000000 1.000000
vn -0.000000 0.000000 1.000000
vn -0.000000 0.000000 1.000000
vn 0.000000 0.000000 1.000000
vn -0.000000 0.000000 1.000000
vn -0.000000 0.000000 1.000000
vn -0.000000 0.000000 1.000000
vn -0.000000 0.000000 1.000000
vn 0.000000 0.000000 0.000000
vn 0.000000 0.000000 0.000000
vn 0.000000 0.000000 0.000000
vn 0.000000 0.000000 0.000000
vn 0.000000 0.000000 -1.000000
vn 0.000000 0.000000 -1.000000
vn 0.000000 0.000000 -1.000000
vn 0.000000 0.000000 -1.000000
vn 0.000000 0.000000 -1.000000
vn 0.000000 0.000000 -1.000000
vn 0.000000 0.000000 -1.000000
vn 0.000000 0.000000 -1.000000
vn 0.000000 0.000000 -1.000000
vn 0.000000 0.000000 -1.000000
vn 0.000000 0.000000 -1.000000
vn 0.000000 0.000000 -1.000000
vn -1.000000 0.000000 0.000000
vn -1.000000 0.000000 0.000000
vn -1.000000 0.000000 0.000000
vn -1.000000 0.000000 0.000000
vn 0.000000 1.000000 0.000000
vn 0.000000 1.000000 0.000000
vn 0.000000 1.000000 0.000000
vn 0.000000 1.000000 0.000000
vn 1.000000 0.000000 0.000000
vn 1.000000 0.000000 0.000000
vn 1.000000 0.000000 0.000000
vn 1.000000 0.000000 0.000000
vn 0.000000 -1.000000 0.000000
vn 0.000000 -1.000000 0.000000
vn 0.000000 -1.000000 0.000000
vn 0.000000 -1.000000 0.000000
vn -0.000000 0.000000 1.000000
vn -0.000000 0.000000 1.000000
vn -0.000000 0.000000 1.000000
vn -0.000000 0.000000 1.000000
vn -0.000000 0.000000 1.000000
vn -0.000000 0.000000 1.000000
vn -0.000000 0.000000 1.000000
vn -0.000000 0.000000 1.000000
vn -0.000000 0.000000 1.000000
vn -0.000000 0.000000 1.000000
vn 0.000000 0.000000 1.000000
vn 0.000000 0.000000 1.000000
vn 0.000000 0.000000 1.000000
vn 0.000000 0.000000 1.000000
vn -0.000000 0.000000 1.000000
vn 0.000000 0.000000 1.000000
vn -0.000000 0.000000 1.000000
vn -0.000000 0.000000 1.000000
vn 0.000000 0.000000 1.000000
vn -0.000000 0.000000 1.000000
vn -0.000000 0.000000 1.000000
vn -0.000000 0.000000 1.000000
vn -0.000000 0.000000 1.000000
vn -0.000000 0.000000 1.000000
vn -0.000000 0.000000 1.000000
vn -0.000000 0.000000 1.000000
vn -0.000000 0.000000 1.000000
vn 0.000000 0.000000 1.000000
vn 0.000000 0.000000 1.000000
vn 0.000000 0.000000 1.000000
vn 0.000000 0.000000 1.000000
vn 0.000000 0.000000 1.000000
vn -0.000000 0.000000 1.000000
vn 0.000000 0.000000 1.000000
vn 0.000000 0.000000 1.000000
vn 0.000000 0.000000 1.000000
vn -0.000000 0.000000 1.000000
vn -0.000000 0.000000 1.000000
vn 0.000000 0.000000 1.000000
vn -0.000000 0.000000 1.000000
vn 0.000000 0.000000 1.000000
vn -0.000000 0.000000 1.000000
vn -0.000000 0.000000 1.000000
vn 0.000000 0.000000 1.000000
vn -0.000000 0.000000 1.000000
vn -0.000000 0.000000 1.000000
vn -0.000000 0.000000 1.000000
vn -0.000000 0.000000 1.000000
vn -0.000000 0.000000 1.000000
vn -0.000000 0.000000 1.000000
vn -0.000000 0.000000 1.000000
vn -0.000000 0.000000 1.000000
vn -0.000000 0.000000 1.000000
vn 0.000000 0.000000 1.000000
vn 0.000000 0.000000 1.000000
vn -0.000000 0.000000 1.000000
vn -0.000000 0.000000 1.000000
vn -0.000000 0.000000 1.000000
vn -0.000000 0.000000 1.000000
vn -1.000000 0.000000 0.000000
vn -1.000000 0.000000 0.000000
vn -1.000000 0.000000 0.000000
vn -1.000000 0.000000 0.000000
vn -1.000000 0.000000 0.000000
vn -1.000000 0.000000 0.000000
vn -1.000000 0.000000 0.000000
vn -1.000000 0.000000 0.000000
vn -1.000000 0.000000 0.000000
vn -1.000000 0.000000 0.000000
vn -1.000000 0.000000 0.000000
vn -1.000000 0.000000 0.000000
vn -1.000000 0.000000 0.000000
vn -1.000000 0.000000 0.000000
vn -1.000000 0.000000 0.000000
vn -1.000000 0.000000 0.000000
vn 0.000000 -1.000000 -0.000004
vn 0.000000 -1.000000 -0.000004
vn 0.000000 -1.000000 -0.000004
vn 0.000000 -1.000000 -0.000004
vn 0.000000 0.000000 -1.000000
vn 0.000000 0.000000 -1.000000
vn 0.000000 0.000000 -1.000000
vn 0.000000 0.000000 -1.000000
vn 0.000000 0.000000 -1.000000
vn 0.000000 0.000000 -1.000000
vn 0.000000 0.000000 -1.000000
vn 0.000000 0.000000 -1.000000
vn 0.000000 -1.000000 -0.000004
vn 0.000000 -1.000000 -0.000004
vn 0.000000 -1.000000 -0.000004
vn 0.000000 -1.000000 -0.000004
vn 1.000000 0.000000 0.000000
vn 1.000000 0.000000 0.000000
vn 1.000000 0.000000 0.000000
vn 1.000000 0.000000 0.000000
vn 0.000000 0.000000 1.000000
vn 0.000000 0.000000 1.000000
vn 0.000000 0.000000 1.000000
vn 0.000000 0.000000 1.000000
vn -1.000000 0.000000 0.000000
vn -1.000000 0.000000 0.000000
vn -1.000000 0.000000 0.000000
vn -1.000000 0.000000 0.000000
vn -1.000000 0.000000 0.000000
vn -1.000000 0.000000 0.000000
vn -1.000000 0.000000 0.000000
vn -1.000000 0.000000 0.000000
vn 0.000000 1.000000 0.000000
vn 0.000000 1.000000 0.000000
vn 0.000000 1.000000 0.000000
vn 0.000000 1.000000 0.000000
vn 1.000000 0.000000 0.000000
vn 1.000000 0.000000 0.000000
vn 1.000000 0.000000 0.000000
vn 1.000000 0.000000 0.000000
vn -1.000000 0.000001 0.000000
vn -1.000000 0.000000 0.000000
vn -1.000000 0.000000 0.000000
vn -1.000000 0.000001 0.000000
vn 0.000000 1.000000 0.000000
vn 0.000000 1.000000 0.000000
vn 0.000000 1.000000 0.000000
vn 0.000000 1.000000 0.000000
vn 1.000000 0.000000 0.000000
vn 1.000000 0.000000 0.000000
vn 1.000000 0.000000 0.000000
vn 1.000000 0.000000 0.000000
vn 1.000000 0.000000 0.000000
vn 1.000000 0.000000 0.000000
vn 1.000000 0.000000 0.000000
vn 1.000000 0.000000 0.000000
vn 0.000000 0.000000 1.000000
vn 0.000000 0.000000 1.000000
vn 0.000000 0.000000 1.000000
vn 0.000000 0.000000 1.000000
vn -1.000000 0.000001 0.000000
vn -1.000000 0.000001 0.000000
vn -1.000000 0.000001 0.000000
vn -1.000000 0.000001 0.000000
s off
f 10/28/1 54/169/2 55/171/3 57/175/4 59/179/5 11/51/6 2/2/7 4/21/8
f 9/26/9 10/53/10 4/15/11 6/6/12
f 12/32/13 9/55/14 6/16/15 8/8/16
f 11/30/17 12/49/18 8/23/19 2/10/20
f 42/148/21 43/145/22 44/143/23 49/156/24 41/133/25 37/153/26 40/131/27 39/135/28 38/116/29
f 7/13/30 61/191/31 65/197/32 66/198/33 62/193/34 67/199/35 69/203/36 70/204/37 68/201/38 1/1/39 3/22/40 5/14/41
f 13/34/42 14/47/43 10/27/44 9/56/45
f 14/48/46 53/167/47 54/170/48 10/54/49
f 15/46/50 16/41/51 12/31/52 11/52/53
f 16/42/54 13/33/55 9/25/56 12/50/57
f 21/85/58 22/88/59 23/87/60 24/86/61
f 1/20/62 15/37/63 60/182/64 58/178/65 56/174/66 53/168/67 14/36/68 3/17/69
f 7/7/70 16/39/71 15/38/72 1/9/73 68/202/74 71/205/75 72/206/76 67/200/77 62/194/78 63/195/79 64/196/80 61/192/81
f 5/5/82 13/44/83 16/40/84 7/24/85
f 3/3/86 14/35/87 18/58/88 17/57/89
f 14/35/90 13/43/91 19/59/92 18/58/93
f 13/43/94 5/18/95 20/60/96 19/59/97
f 5/18/98 3/3/99 17/57/100 20/60/101
f 17/100/102 18/68/103 22/106/104 21/97/105
f 19/112/106 20/72/107 24/94/108 23/109/109
f 18/58/110 19/59/111 25/66/112 26/65/113
f 19/71/114 23/110/115 27/105/116 25/108/117
f 23/63/118 22/107/119 28/103/120 27/104/121
f 22/62/122 18/111/123 26/76/124 28/102/125
f 20/60/126 17/57/127 29/70/128 30/69/129
f 17/67/130 21/98/131 31/93/132 29/96/133
f 21/61/134 24/95/135 32/91/136 31/92/137
f 24/64/138 20/99/139 30/84/140 32/90/141
f 25/74/142 27/73/143 32/83/144 30/89/145
f 26/77/146 25/78/147 30/79/148 29/80/149
f 28/75/150 26/101/151 29/82/152 31/81/153
f 27/73/154 28/75/155 31/81/156 32/83/157
f 46/152/158 34/137/159 2/19/160 8/11/161 33/140/162 45/134/163 47/130/164 48/128/165 51/160/166
f 8/11/167 6/12/168 35/149/169 38/151/170 39/135/171 33/139/172
f 6/12/173 4/4/174 36/146/175 35/149/176
f 4/4/177 2/19/178 34/137/179 52/161/180 40/131/181 37/153/182 50/157/183 36/146/184
f 38/117/185 35/150/186 43/144/187 42/120/188
f 35/114/189 36/147/190 44/142/191 43/121/192
f 49/126/193 50/138/194 37/141/195 41/154/196
f 33/113/197 39/136/198 47/129/199 45/123/200
f 39/118/201 40/132/202 48/127/203 47/124/204
f 51/163/205 52/164/206 34/165/207 46/166/208
f 36/115/209 50/158/210 49/155/211 44/122/212
f 40/119/213 52/162/214 51/159/215 48/125/216
f 59/180/217 60/181/218 15/45/219 11/29/220
f 54/183/221 53/184/222 56/185/223 55/186/224
f 55/172/225 56/173/226 58/177/227 57/176/228
f 57/187/229 58/188/230 60/189/231 59/190/232
f 74/269/233 73/263/234 75/260/235 76/257/236
f 76/270/237 77/254/238 78/252/239 74/207/240
f 80/268/241 79/245/242 81/242/243 82/239/244
f 82/267/245 83/236/246 84/234/247 80/213/248
f 61/219/249 64/266/250 73/262/251 74/249/252
f 64/220/253 63/264/254 75/259/255 73/208/256
f 63/221/257 62/261/258 76/256/259 75/209/260
f 62/222/261 66/258/262 77/253/263 76/210/264
f 66/223/265 65/255/266 78/251/267 77/211/268
f 65/224/269 61/265/270 74/250/271 78/212/272
f 68/225/273 70/248/274 79/244/275 80/231/276
f 70/226/277 69/246/278 81/241/279 79/214/280
f 69/227/281 67/243/282 82/238/283 81/215/284
f 67/228/285 72/240/286 83/235/287 82/216/288
f 72/229/289 71/237/290 84/233/291 83/217/292
f 71/230/293 68/247/294 80/232/295 84/218/296
