# This file uses meters as units for non-parametric coordinates.

v -0.887283 0.035353 0.286905
v -0.979668 0.035162 0.389727
v -1.072060 0.034974 0.492540
v -1.164452 0.034798 0.595371
v -1.256828 0.034598 0.698198
v -1.349228 0.034419 0.801008
v -1.441620 0.034233 0.903828
v -1.534012 0.034046 1.006638
v -1.626404 0.033857 1.109457
v -1.718781 0.033670 1.212294
v -1.811172 0.033487 1.315111
v -1.903564 0.033292 1.417919
v -0.887299 0.118078 0.287018
v -0.979691 0.117894 0.389845
v -1.072067 0.117712 0.492674
v -1.164452 0.117515 0.595497
v -1.256844 0.117337 0.698315
v -1.349243 0.117148 0.801128
v -1.441643 0.116960 0.903938
v -1.534019 0.116772 1.006765
v -1.626411 0.116584 1.109583
v -1.718803 0.116396 1.212399
v -1.811195 0.116207 1.315218
v -1.903580 0.116030 1.418045
v 1.922821 0.112073 3.654320
v 1.830429 0.111880 3.757132
v 1.738037 0.111699 3.859953
v 1.645653 0.111511 3.962774
v 1.553268 0.111324 4.065601
v 1.460869 0.111136 4.168407
v 1.368477 0.110946 4.271229
v 1.276085 0.110768 4.374041
v 1.183701 0.110570 4.476871
v 1.091316 0.110393 4.579697
v 0.998924 0.110195 4.682518
v 0.906540 0.110015 4.785336
v 1.922836 0.029337 3.654194
v 1.830444 0.029162 3.757025
v 1.738052 0.028962 3.859837
v 1.645668 0.028783 3.962658
v 1.553276 0.028595 4.065483
v 1.460892 0.028406 4.168301
v 1.368492 0.028219 4.271107
v 1.276093 0.028033 4.373924
v 1.183708 0.027852 4.476746
v 1.091331 0.027655 4.579580
v 0.998940 0.027476 4.682392
v 0.906548 0.027289 4.785208
v 0.000000 0.008953 4.707119
v -0.294144 0.008953 4.703493
v -0.297302 0.008953 5.041502
v -0.003151 0.008953 5.045128
v 0.000000 3.264156 4.707119
v -0.294144 3.264156 4.703493
v -0.297302 3.264156 5.041502
v -0.003151 3.264156 5.045128
v -0.148651 0.008953 4.874306
v 0.000000 0.000000 0.000000
v -0.294144 0.000000 -0.003626
v -0.297302 0.000000 0.334383
v -0.003151 0.000000 0.338005
v 0.000000 3.255203 0.000000
v -0.294144 3.255203 -0.003626
v -0.297302 3.255203 0.334383
v -0.003151 3.255203 0.338005
v -0.148651 0.000000 0.167191
vt 0.211226 0.112322
vt 0.211226 0.112322
vt 0.211226 0.112322
vt 0.211226 0.112322
vt 0.211226 0.112322
vt 0.211226 0.112322
vt 0.211226 0.112322
vt 0.211226 0.112322
vt 0.211226 0.112322
vt 0.211226 0.112322
vt 0.211226 0.112322
vt 0.211226 0.112322
vt 0.211226 0.112322
vt 0.211226 0.112322
vt 0.211226 0.112322
vt 0.211226 0.112322
vt 0.211226 0.112322
vt 0.211226 0.112322
vt 0.211226 0.112322
vt 0.211226 0.112322
vt 0.211226 0.112322
vt 0.211226 0.112322
vt 0.211226 0.112322
vt 0.211226 0.112322
vt 0.211226 0.112322
vt 0.211226 0.112322
vt 0.211226 0.112322
vt 0.211226 0.112322
vt 0.211226 0.112322
vt 0.211226 0.112322
vt 0.211226 0.112322
vt 0.211226 0.112322
vt 0.211226 0.112322
vt 0.211226 0.112322
vt 0.211226 0.112322
vt 0.211226 0.112322
vt 0.211226 0.112322
vt 0.211226 0.112322
vt 0.211226 0.112322
vt 0.211226 0.112322
vt 0.211226 0.112322
vt 0.211226 0.112322
vt 0.211226 0.112322
vt 0.211226 0.112322
vt 0.272379 0.112322
vt 0.272379 0.112322
vt 0.272379 0.112322
vt 0.272379 0.112322
vt 0.211226 0.112322
vt 0.211226 0.112322
vt 0.211226 0.112322
vt 0.211226 0.112322
vt 0.272379 0.112322
vt 0.272379 0.112322
vt 0.272379 0.112322
vt 0.272379 0.112322
vt 0.211226 0.112322
vt 0.211226 0.112322
vt 0.211226 0.112322
vt 0.211226 0.112322
vt 0.272379 0.112322
vt 0.272379 0.112322
vt 0.272379 0.112322
vt 0.272379 0.112322
vt 0.211226 0.112322
vt 0.211226 0.112322
vt 0.211226 0.112322
vt 0.211226 0.112322
vt 0.272379 0.112322
vt 0.272379 0.112322
vt 0.272379 0.112322
vt 0.272379 0.112322
vt 0.211226 0.112322
vt 0.211226 0.112322
vt 0.211226 0.112322
vt 0.211226 0.112322
vt 0.272379 0.112322
vt 0.272379 0.112322
vt 0.272379 0.112322
vt 0.272379 0.112322
vt 0.211226 0.112322
vt 0.211226 0.112322
vt 0.211226 0.112322
vt 0.211226 0.112322
vt 0.272379 0.112322
vt 0.272379 0.112322
vt 0.272379 0.112322
vt 0.272379 0.112322
vt 0.211226 0.112322
vt 0.211226 0.112322
vt 0.211226 0.112322
vt 0.211226 0.112322
vt 0.211226 0.112322
vt 0.211226 0.112322
vt 0.211226 0.112322
vt 0.211226 0.112322
vt 0.211226 0.112322
vt 0.211226 0.112322
vt 0.211226 0.112322
vt 0.211226 0.112322
vt 0.211226 0.112322
vt 0.211226 0.112322
vt 0.211226 0.112322
vt 0.211226 0.112322
vt 0.211226 0.112322
vt 0.211226 0.112322
vt 0.211226 0.112322
vt 0.211226 0.112322
vt 0.211226 0.112322
vt 0.211226 0.112322
vt 0.211226 0.112322
vt 0.211226 0.112322
vt 0.211226 0.112322
vt 0.211226 0.112322
vt 0.211226 0.112322
vt 0.211226 0.112322
vt 0.211226 0.112322
vt 0.211226 0.112322
vt 0.211226 0.112322
vt 0.211226 0.112322
vt 0.211226 0.112322
vt 0.211226 0.112322
vt 0.211226 0.112322
vt 0.211226 0.112322
vt 0.211226 0.112322
vt 0.211226 0.112322
vt 0.211226 0.112322
vt 0.211226 0.112322
vt 0.211226 0.112322
vt 0.211226 0.112322
vt 0.211226 0.112322
vt 0.211226 0.112322
vt 0.272379 0.112322
vt 0.272379 0.112322
vt 0.272379 0.112322
vt 0.272379 0.112322
vt 0.203072 0.112322
vt 0.203072 0.112322
vt 0.203072 0.112322
vt 0.203072 0.112322
vt 0.272379 0.112322
vt 0.272379 0.112322
vt 0.272379 0.112322
vt 0.272379 0.112322
vt 0.203072 0.112322
vt 0.203072 0.112322
vt 0.203072 0.112322
vt 0.203072 0.112322
vt 0.272379 0.112322
vt 0.272379 0.112322
vt 0.272379 0.112322
vt 0.272379 0.112322
vt 0.203072 0.112322
vt 0.203072 0.112322
vt 0.203072 0.112322
vt 0.203072 0.112322
vt 0.272379 0.112322
vt 0.272379 0.112322
vt 0.272379 0.112322
vt 0.272379 0.112322
vt 0.203072 0.112322
vt 0.203072 0.112322
vt 0.203072 0.112322
vt 0.203072 0.112322
vt 0.272379 0.112322
vt 0.272379 0.112322
vt 0.272379 0.112322
vt 0.272379 0.112322
vt 0.203072 0.112322
vt 0.203072 0.112322
vt 0.203072 0.112322
vt 0.203072 0.112322
vt 0.272379 0.112322
vt 0.272379 0.112322
vt 0.272379 0.112322
vt 0.272379 0.112322
vt 0.235687 0.112322
vt 0.235687 0.112322
vt 0.235687 0.112322
vt 0.235687 0.112322
vt 0.144976 0.113341
vt 0.144976 0.113341
vt 0.144976 0.113341
vt 0.144976 0.113341
vt 0.138403 0.401783
vt 0.138403 0.401783
vt 0.138403 0.401783
vt 0.138403 0.401783
vt 0.173056 0.401783
vt 0.173056 0.401783
vt 0.173056 0.401783
vt 0.173056 0.401783
vt 0.234210 0.401783
vt 0.234210 0.401783
vt 0.234210 0.401783
vt 0.234210 0.401783
vt 0.199556 0.401783
vt 0.199556 0.401783
vt 0.199556 0.401783
vt 0.199556 0.401783
vt 0.199556 0.401783
vt 0.199556 0.401783
vt 0.199556 0.401783
vt 0.199556 0.401783
vt 0.199556 0.401783
vt 0.199556 0.401783
vt 0.199556 0.401783
vt 0.199556 0.401783
vt 0.199556 0.401783
vt 0.199556 0.401783
vt 0.199556 0.401783
vt 0.199556 0.401783
vt 0.298191 0.397993
vt 0.298191 0.397993
vt 0.298191 0.397993
vt 0.298191 0.397993
vt 0.138403 0.401783
vt 0.138403 0.401783
vt 0.138403 0.401783
vt 0.138403 0.401783
vt 0.173056 0.401783
vt 0.173056 0.401783
vt 0.173056 0.401783
vt 0.173056 0.401783
vt 0.234210 0.401783
vt 0.234210 0.401783
vt 0.234210 0.401783
vt 0.234210 0.401783
vt 0.199556 0.401783
vt 0.199556 0.401783
vt 0.199556 0.401783
vt 0.199556 0.401783
vt 0.199556 0.401783
vt 0.199556 0.401783
vt 0.199556 0.401783
vt 0.199556 0.401783
vt 0.199556 0.401783
vt 0.199556 0.401783
vt 0.199556 0.401783
vt 0.199556 0.401783
vt 0.199556 0.401783
vt 0.199556 0.401783
vt 0.199556 0.401783
vt 0.199556 0.401783
vt 0.298191 0.397993
vt 0.298191 0.397993
vt 0.298191 0.397993
vt 0.298191 0.397993
vn -0.743847 0.000761 -0.668350
vn -0.743849 0.000820 -0.668347
vn -0.743849 0.000820 -0.668347
vn -0.743847 0.000761 -0.668350
vn -0.743849 0.000820 -0.668347
vn -0.743854 0.000947 -0.668342
vn -0.743854 0.000947 -0.668342
vn -0.743849 0.000820 -0.668347
vn -0.743854 0.000947 -0.668342
vn -0.743856 0.000962 -0.668340
vn -0.743856 0.000962 -0.668340
vn -0.743854 0.000947 -0.668342
vn -0.743856 0.000962 -0.668340
vn -0.743810 0.000864 -0.668390
vn -0.743810 0.000864 -0.668390
vn -0.743856 0.000962 -0.668340
vn -0.743810 0.000864 -0.668390
vn -0.743777 0.000790 -0.668427
vn -0.743777 0.000790 -0.668427
vn -0.743810 0.000864 -0.668390
vn -0.743777 0.000790 -0.668427
vn -0.743816 0.000794 -0.668384
vn -0.743816 0.000794 -0.668384
vn -0.743777 0.000790 -0.668427
vn -0.743816 0.000794 -0.668384
vn -0.743829 0.000892 -0.668370
vn -0.743829 0.000892 -0.668370
vn -0.743816 0.000794 -0.668384
vn -0.743829 0.000892 -0.668370
vn -0.743841 0.000875 -0.668356
vn -0.743841 0.000875 -0.668356
vn -0.743829 0.000892 -0.668370
vn -0.743841 0.000875 -0.668356
vn -0.743841 0.000722 -0.668357
vn -0.743841 0.000722 -0.668357
vn -0.743841 0.000875 -0.668356
vn -0.743841 0.000722 -0.668357
vn -0.743820 0.000709 -0.668380
vn -0.743820 0.000709 -0.668380
vn -0.743841 0.000722 -0.668357
vn -0.743820 0.000709 -0.668380
vn -0.743825 0.000768 -0.668374
vn -0.743825 0.000768 -0.668374
vn -0.743820 0.000709 -0.668380
vn -0.000030 0.999998 0.001809
vn -0.000010 0.999998 0.001794
vn -0.000006 0.999998 0.001791
vn -0.000030 0.999998 0.001809
vn -0.000010 0.999998 0.001794
vn -0.000017 0.999998 0.001799
vn -0.000023 0.999998 0.001804
vn -0.000006 0.999998 0.001791
vn -0.000017 0.999998 0.001799
vn -0.000027 0.999998 0.001807
vn -0.000021 0.999998 0.001802
vn -0.000023 0.999998 0.001804
vn -0.000027 0.999998 0.001807
vn -0.000009 0.999998 0.001792
vn -0.000011 0.999998 0.001795
vn -0.000021 0.999998 0.001802
vn -0.000009 0.999998 0.001792
vn -0.000028 0.999998 0.001809
vn -0.000028 0.999998 0.001809
vn -0.000011 0.999998 0.001795
vn -0.000028 0.999998 0.001809
vn -0.000015 0.999998 0.001798
vn -0.000012 0.999998 0.001795
vn -0.000028 0.999998 0.001809
vn -0.000015 0.999998 0.001798
vn -0.000022 0.999998 0.001803
vn -0.000028 0.999998 0.001808
vn -0.000012 0.999998 0.001795
vn -0.000022 0.999998 0.001803
vn -0.000027 0.999998 0.001807
vn -0.000022 0.999998 0.001803
vn -0.000028 0.999998 0.001808
vn -0.000027 0.999998 0.001807
vn -0.000023 0.999998 0.001803
vn -0.000028 0.999998 0.001808
vn -0.000022 0.999998 0.001803
vn -0.000023 0.999998 0.001803
vn -0.000017 0.999998 0.001799
vn -0.000009 0.999998 0.001793
vn -0.000028 0.999998 0.001808
vn -0.000017 0.999998 0.001799
vn 0.000029 0.999998 0.001762
vn 0.000029 0.999999 0.001762
vn -0.000009 0.999998 0.001793
vn 0.743825 -0.000801 0.668375
vn 0.743817 -0.000783 0.668383
vn 0.743817 -0.000783 0.668383
vn 0.743825 -0.000801 0.668374
vn 0.743817 -0.000783 0.668383
vn 0.743830 -0.000784 0.668369
vn 0.743830 -0.000784 0.668369
vn 0.743817 -0.000783 0.668383
vn 0.743830 -0.000784 0.668369
vn 0.743852 -0.000824 0.668344
vn 0.743852 -0.000824 0.668344
vn 0.743830 -0.000784 0.668369
vn 0.743852 -0.000824 0.668344
vn 0.743823 -0.000808 0.668376
vn 0.743823 -0.000808 0.668376
vn 0.743852 -0.000824 0.668344
vn 0.743823 -0.000808 0.668376
vn 0.743790 -0.000762 0.668413
vn 0.743790 -0.000762 0.668413
vn 0.743823 -0.000808 0.668376
vn 0.743790 -0.000762 0.668413
vn 0.743787 -0.000806 0.668416
vn 0.743787 -0.000806 0.668416
vn 0.743790 -0.000762 0.668413
vn 0.743787 -0.000806 0.668416
vn 0.743828 -0.000884 0.668370
vn 0.743828 -0.000884 0.668370
vn 0.743787 -0.000806 0.668416
vn 0.743828 -0.000884 0.668370
vn 0.743881 -0.000892 0.668312
vn 0.743881 -0.000892 0.668312
vn 0.743828 -0.000884 0.668370
vn 0.743881 -0.000892 0.668312
vn 0.743851 -0.000859 0.668344
vn 0.743851 -0.000859 0.668344
vn 0.743881 -0.000892 0.668312
vn 0.743851 -0.000859 0.668344
vn 0.743816 -0.000882 0.668384
vn 0.743816 -0.000882 0.668384
vn 0.743851 -0.000859 0.668344
vn 0.743816 -0.000882 0.668384
vn 0.743821 -0.000922 0.668378
vn 0.743821 -0.000922 0.668378
vn 0.743816 -0.000882 0.668384
vn -0.000003 -0.999998 -0.001782
vn 0.000030 -0.999998 -0.001809
vn 0.000025 -0.999998 -0.001804
vn -0.000003 -0.999998 -0.001782
vn 0.000030 -0.999998 -0.001809
vn 0.000008 -0.999998 -0.001792
vn 0.000017 -0.999998 -0.001798
vn 0.000025 -0.999998 -0.001804
vn 0.000008 -0.999998 -0.001792
vn 0.000018 -0.999998 -0.001800
vn 0.000009 -0.999998 -0.001793
vn 0.000017 -0.999998 -0.001798
vn 0.000018 -0.999998 -0.001800
vn 0.000030 -0.999998 -0.001809
vn 0.000035 -0.999998 -0.001813
vn 0.000009 -0.999998 -0.001793
vn 0.000030 -0.999998 -0.001809
vn 0.000011 -0.999998 -0.001794
vn 0.000010 -0.999998 -0.001793
vn 0.000035 -0.999998 -0.001813
vn 0.000011 -0.999998 -0.001794
vn 0.000015 -0.999998 -0.001799
vn 0.000016 -0.999998 -0.001799
vn 0.000010 -0.999998 -0.001793
vn 0.000015 -0.999998 -0.001799
vn 0.000010 -0.999998 -0.001794
vn 0.000011 -0.999998 -0.001794
vn 0.000016 -0.999998 -0.001799
vn 0.000010 -0.999998 -0.001794
vn 0.000030 -0.999998 -0.001810
vn 0.000026 -0.999998 -0.001806
vn 0.000011 -0.999998 -0.001794
vn 0.000030 -0.999998 -0.001810
vn 0.000014 -0.999998 -0.001797
vn 0.000020 -0.999998 -0.001802
vn 0.000026 -0.999998 -0.001806
vn 0.000014 -0.999998 -0.001797
vn 0.000016 -0.999998 -0.001799
vn 0.000011 -0.999998 -0.001794
vn 0.000020 -0.999998 -0.001802
vn 0.000016 -0.999998 -0.001799
vn 0.000042 -0.999998 -0.001819
vn 0.000042 -0.999998 -0.001819
vn 0.000011 -0.999998 -0.001794
vn -0.767769 -0.001089 0.640727
vn -0.767768 -0.001089 0.640727
vn -0.767768 -0.001089 0.640727
vn -0.767768 -0.001089 0.640727
vn 0.767769 0.001065 -0.640727
vn 0.767769 0.001065 -0.640726
vn 0.767769 0.001065 -0.640726
vn 0.767769 0.001065 -0.640726
vn 0.012326 0.000000 -0.999924
vn 0.012326 0.000000 -0.999924
vn 0.012326 0.000000 -0.999924
vn 0.012326 0.000000 -0.999924
vn -0.999956 0.000000 -0.009344
vn -0.999956 0.000000 -0.009344
vn -0.999956 0.000000 -0.009344
vn -0.999956 0.000000 -0.009344
vn -0.012325 0.000000 0.999924
vn -0.012325 0.000000 0.999924
vn -0.012325 0.000000 0.999924
vn -0.012325 0.000000 0.999924
vn 0.999957 0.000000 0.009322
vn 0.999957 0.000000 0.009322
vn 0.999957 0.000000 0.009322
vn 0.999957 0.000000 0.009322
vn 0.000000 -1.000000 0.000000
vn 0.000000 -1.000000 0.000000
vn 0.000000 -1.000000 0.000000
vn 0.000000 -1.000000 0.000000
vn 0.000000 -1.000000 0.000000
vn 0.000000 -1.000000 0.000000
vn 0.000000 -1.000000 0.000000
vn 0.000000 -1.000000 0.000000
vn 0.000000 -1.000000 0.000000
vn 0.000000 -1.000000 0.000000
vn 0.000000 -1.000000 0.000000
vn 0.000000 -1.000000 0.000000
vn 0.000000 1.000000 -0.000000
vn 0.000000 1.000000 -0.000000
vn 0.000000 1.000000 -0.000000
vn 0.000000 1.000000 -0.000000
vn 0.012326 0.000000 -0.999924
vn 0.012326 0.000000 -0.999924
vn 0.012326 0.000000 -0.999924
vn 0.012326 0.000000 -0.999924
vn -0.999956 0.000000 -0.009344
vn -0.999956 0.000000 -0.009344
vn -0.999956 0.000000 -0.009344
vn -0.999956 0.000000 -0.009344
vn -0.012313 0.000000 0.999924
vn -0.012313 0.000000 0.999924
vn -0.012313 0.000000 0.999924
vn -0.012313 0.000000 0.999924
vn 0.999957 0.000000 0.009322
vn 0.999957 0.000000 0.009322
vn 0.999957 0.000000 0.009322
vn 0.999957 0.000000 0.009322
vn 0.000000 -1.000000 0.000000
vn 0.000000 -1.000000 0.000000
vn 0.000000 -1.000000 0.000000
vn 0.000000 -1.000000 0.000000
vn 0.000000 -1.000000 0.000000
vn 0.000000 -1.000000 0.000000
vn 0.000000 -1.000000 0.000000
vn 0.000000 -1.000000 0.000000
vn 0.000000 -1.000000 0.000000
vn 0.000000 -1.000000 0.000000
vn 0.000000 -1.000000 0.000000
vn 0.000000 -1.000000 0.000000
vn 0.000000 1.000000 -0.000000
vn 0.000000 1.000000 -0.000000
vn 0.000000 1.000000 -0.000000
vn 0.000000 1.000000 -0.000000
s off
f 1/1/1 2/2/2 14/3/3 13/4/4
f 2/5/5 3/6/6 15/7/7 14/8/8
f 3/9/9 4/10/10 16/11/11 15/12/12
f 4/13/13 5/14/14 17/15/15 16/16/16
f 5/17/17 6/18/18 18/19/19 17/20/20
f 6/21/21 7/22/22 19/23/23 18/24/24
f 7/25/25 8/26/26 20/27/27 19/28/28
f 8/29/29 9/30/30 21/31/31 20/32/32
f 9/33/33 10/34/34 22/35/35 21/36/36
f 10/37/37 11/38/38 23/39/39 22/40/40
f 11/41/41 12/42/42 24/43/43 23/44/44
f 13/45/45 14/46/46 26/47/47 25/48/48
f 14/49/49 15/50/50 27/51/51 26/52/52
f 15/53/53 16/54/54 28/55/55 27/56/56
f 16/57/57 17/58/58 29/59/59 28/60/60
f 17/61/61 18/62/62 30/63/63 29/64/64
f 18/65/65 19/66/66 31/67/67 30/68/68
f 19/69/69 20/70/70 32/71/71 31/72/72
f 20/73/73 21/74/74 33/75/75 32/76/76
f 21/77/77 22/78/78 34/79/79 33/80/80
f 22/81/81 23/82/82 35/83/83 34/84/84
f 23/85/85 24/86/86 36/87/87 35/88/88
f 25/89/89 26/90/90 38/91/91 37/92/92
f 26/93/93 27/94/94 39/95/95 38/96/96
f 27/97/97 28/98/98 40/99/99 39/100/100
f 28/101/101 29/102/102 41/103/103 40/104/104
f 29/105/105 30/106/106 42/107/107 41/108/108
f 30/109/109 31/110/110 43/111/111 42/112/112
f 31/113/113 32/114/114 44/115/115 43/116/116
f 32/117/117 33/118/118 45/119/119 44/120/120
f 33/121/121 34/122/122 46/123/123 45/124/124
f 34/125/125 35/126/126 47/127/127 46/128/128
f 35/129/129 36/130/130 48/131/131 47/132/132
f 37/133/133 38/134/134 2/135/135 1/136/136
f 38/137/137 39/138/138 3/139/139 2/140/140
f 39/141/141 40/142/142 4/143/143 3/144/144
f 40/145/145 41/146/146 5/147/147 4/148/148
f 41/149/149 42/150/150 6/151/151 5/152/152
f 42/153/153 43/154/154 7/155/155 6/156/156
f 43/157/157 44/158/158 8/159/159 7/160/160
f 44/161/161 45/162/162 9/163/163 8/164/164
f 45/165/165 46/166/166 10/167/167 9/168/168
f 46/169/169 47/170/170 11/171/171 10/172/172
f 47/173/173 48/174/174 12/175/175 11/176/176
f 12/177/177 48/178/178 36/179/179 24/180/180
f 13/181/181 25/182/182 37/183/183 1/184/184
f 49/185/185 50/186/186 54/187/187 53/188/188
f 50/189/189 51/190/190 55/191/191 54/192/192
f 51/193/193 52/194/194 56/195/195 55/196/196
f 52/197/197 49/198/198 53/199/199 56/200/200
f 50/201/201 49/202/202 57/203/203
f 51/204/204 50/205/205 57/206/206
f 52/207/207 51/208/208 57/209/209
f 49/210/210 52/211/211 57/212/212
f 53/213/213 54/214/214 55/215/215 56/216/216
f 58/217/217 59/218/218 63/219/219 62/220/220
f 59/221/221 60/222/222 64/223/223 63/224/224
f 60/225/225 61/226/226 65/227/227 64/228/228
f 61/229/229 58/230/230 62/231/231 65/232/232
f 59/233/233 58/234/234 66/235/235
f 60/236/236 59/237/237 66/238/238
f 61/239/239 60/240/240 66/241/241
f 58/242/242 61/243/243 66/244/244
f 62/245/245 63/246/246 64/247/247 65/248/248
