# This file uses meters as units for non-parametric coordinates.

v -0.843964 -0.883131 0.028137
v -0.845093 -0.884420 -0.008392
v -0.822586 -0.949940 0.029846
v -0.823700 -0.951228 -0.006683
v -0.755783 -0.928620 0.027039
v -0.756897 -0.929908 -0.009491
v -0.777191 -0.861810 0.025345
v -0.778305 -0.863101 -0.011169
v 0.722992 -0.923467 0.048828
v 0.722961 -0.924946 0.012314
v 0.730003 -0.993231 0.051666
v 0.729988 -0.994706 0.015152
v 0.799828 -0.986228 0.051361
v 0.799797 -0.987703 0.014832
v 0.792801 -0.916462 0.048523
v 0.792793 -0.917939 0.012009
v 0.740738 -0.243344 0.057449
v 0.740517 -0.244796 0.020920
v 0.741280 -0.313457 0.060226
v 0.741066 -0.314909 0.023697
v 0.811432 -0.312929 0.059799
v 0.811226 -0.314381 0.023270
v 0.810890 -0.242815 0.056992
v 0.810692 -0.244267 0.020477
v -0.831390 -0.271151 0.039978
v -0.832703 -0.272314 0.003494
v -0.816254 -0.339649 0.041626
v -0.817551 -0.340813 0.005112
v -0.747787 -0.324585 0.038727
v -0.749084 -0.325747 0.002197
v -0.762939 -0.256086 0.037094
v -0.764221 -0.257249 0.000549
v -1.346069 -0.425721 -0.048630
v 1.330910 -0.403506 -0.038193
v -1.346313 -0.425525 0.013962
v 1.330666 -0.403310 0.024429
v -1.349213 -0.166994 0.013123
v 1.327751 -0.144781 0.023590
v -1.348969 -0.167193 -0.049469
v 1.327995 -0.144977 -0.039001
v -1.305161 -1.028641 -0.056412
v 1.370811 -1.105027 -0.047791
v -1.305359 -1.028444 0.006195
v 1.370613 -1.104830 0.014816
v -1.298767 -0.769982 0.005417
v 1.377220 -0.846368 0.014038
v -1.298569 -0.770180 -0.057190
v 1.377419 -0.846566 -0.048569
v 1.311699 0.485453 -0.042633
v -1.352234 0.750349 -0.049713
v 1.311287 0.482932 0.019943
v -1.352661 0.747829 0.012863
v 1.286522 0.225790 0.009430
v -1.377411 0.490687 0.002319
v 1.286934 0.228308 -0.053146
v -1.376999 0.493205 -0.060226
v -0.783585 0.524363 0.043503
v -0.782852 0.527121 0.007065
v -0.776672 0.593979 0.048935
v -0.775909 0.596738 0.012482
v -0.846466 0.601000 0.048035
v -0.845749 0.603760 0.011597
v -0.853409 0.531381 0.042633
v -0.852661 0.534141 0.006165
v -0.749802 0.935441 0.050919
v -0.749268 0.938247 0.014481
v -0.749329 1.005403 0.056305
v -0.748779 1.008208 0.019867
v -0.819489 1.005951 0.055298
v -0.818939 1.008757 0.018860
v -0.819962 0.935990 0.049911
v -0.819427 0.938794 0.013474
v 1.312309 1.087176 -0.031433
v -1.364685 1.105027 -0.043152
v 1.312012 1.084650 0.031128
v -1.365005 1.102499 0.019409
v 1.311104 0.826316 0.020706
v -1.365891 0.844166 0.008957
v 1.311394 0.828841 -0.041870
v -1.365616 0.846692 -0.053589
v 0.782784 0.926773 0.046432
v 0.784416 0.929272 0.010010
v 0.768639 0.995385 0.050507
v 0.770271 0.997883 0.014084
v 0.699989 0.981474 0.046494
v 0.701607 0.983972 0.010056
v 0.714119 0.912863 0.042435
v 0.715752 0.915363 0.005981
v 0.821449 0.379707 0.036392
v 0.823227 0.382061 -0.000061
v 0.813721 0.449329 0.040497
v 0.815498 0.451683 0.004074
v 0.744064 0.441817 0.036606
v 0.745842 0.444172 0.000153
v 0.751793 0.372195 0.032471
v 0.753571 0.374551 -0.003952
vt 0.131721 0.478225
vt 0.131721 0.478225
vt 0.131721 0.478225
vt 0.131721 0.478225
vt 0.167394 0.479244
vt 0.167394 0.479244
vt 0.167394 0.479244
vt 0.167394 0.479244
vt 0.105221 0.479244
vt 0.105221 0.479244
vt 0.105221 0.479244
vt 0.105221 0.479244
vt 0.067510 0.479244
vt 0.067510 0.479244
vt 0.067510 0.479244
vt 0.067510 0.479244
vt 0.115414 0.479244
vt 0.115414 0.479244
vt 0.115414 0.479244
vt 0.115414 0.479244
vt 0.202048 0.479244
vt 0.202048 0.479244
vt 0.202048 0.479244
vt 0.202048 0.479244
vt 0.131721 0.478225
vt 0.131721 0.478225
vt 0.131721 0.478225
vt 0.131721 0.478225
vt 0.167394 0.479244
vt 0.167394 0.479244
vt 0.167394 0.479244
vt 0.167394 0.479244
vt 0.105221 0.479244
vt 0.105221 0.479244
vt 0.105221 0.479244
vt 0.105221 0.479244
vt 0.067510 0.479244
vt 0.067510 0.479244
vt 0.067510 0.479244
vt 0.067510 0.479244
vt 0.115414 0.479244
vt 0.115414 0.479244
vt 0.115414 0.479244
vt 0.115414 0.479244
vt 0.202048 0.479244
vt 0.202048 0.479244
vt 0.202048 0.479244
vt 0.202048 0.479244
vt 0.131721 0.478225
vt 0.131721 0.478225
vt 0.131721 0.478225
vt 0.131721 0.478225
vt 0.167394 0.479244
vt 0.167394 0.479244
vt 0.167394 0.479244
vt 0.167394 0.479244
vt 0.105221 0.479244
vt 0.105221 0.479244
vt 0.105221 0.479244
vt 0.105221 0.479244
vt 0.067510 0.479244
vt 0.067510 0.479244
vt 0.067510 0.479244
vt 0.067510 0.479244
vt 0.115414 0.479244
vt 0.115414 0.479244
vt 0.115414 0.479244
vt 0.115414 0.479244
vt 0.202048 0.479244
vt 0.202048 0.479244
vt 0.202048 0.479244
vt 0.202048 0.479244
vt 0.131721 0.478225
vt 0.131721 0.478225
vt 0.131721 0.478225
vt 0.131721 0.478225
vt 0.167394 0.479244
vt 0.167394 0.479244
vt 0.167394 0.479244
vt 0.167394 0.479244
vt 0.105221 0.479244
vt 0.105221 0.479244
vt 0.105221 0.479244
vt 0.105221 0.479244
vt 0.067510 0.479244
vt 0.067510 0.479244
vt 0.067510 0.479244
vt 0.067510 0.479244
vt 0.115414 0.479244
vt 0.115414 0.479244
vt 0.115414 0.479244
vt 0.115414 0.479244
vt 0.202048 0.479244
vt 0.202048 0.479244
vt 0.202048 0.479244
vt 0.202048 0.479244
vt 0.354933 0.399745
vt 0.354933 0.399745
vt 0.354933 0.399745
vt 0.354933 0.399745
vt 0.297856 0.399745
vt 0.297856 0.399745
vt 0.297856 0.399745
vt 0.297856 0.399745
vt 0.345977 0.399745
vt 0.345977 0.399745
vt 0.345977 0.399745
vt 0.345977 0.399745
vt 0.139875 0.399745
vt 0.139875 0.399745
vt 0.139875 0.399745
vt 0.139875 0.399745
vt 0.267279 0.399745
vt 0.267279 0.399745
vt 0.267279 0.399745
vt 0.267279 0.399745
vt 0.267279 0.399745
vt 0.267279 0.399745
vt 0.267279 0.399745
vt 0.267279 0.399745
vt 0.354933 0.399745
vt 0.354933 0.399745
vt 0.354933 0.399745
vt 0.354933 0.399745
vt 0.297856 0.399745
vt 0.297856 0.399745
vt 0.297856 0.399745
vt 0.297856 0.399745
vt 0.345977 0.399745
vt 0.345977 0.399745
vt 0.345977 0.399745
vt 0.345977 0.399745
vt 0.139875 0.399745
vt 0.139875 0.399745
vt 0.139875 0.399745
vt 0.139875 0.399745
vt 0.267279 0.399745
vt 0.267279 0.399745
vt 0.267279 0.399745
vt 0.267279 0.399745
vt 0.267279 0.399745
vt 0.267279 0.399745
vt 0.267279 0.399745
vt 0.267279 0.399745
vt 0.354933 0.399745
vt 0.354933 0.399745
vt 0.354933 0.399745
vt 0.354933 0.399745
vt 0.297856 0.399745
vt 0.297856 0.399745
vt 0.297856 0.399745
vt 0.297856 0.399745
vt 0.214279 0.399745
vt 0.214279 0.399745
vt 0.214279 0.399745
vt 0.214279 0.399745
vt 0.139875 0.399745
vt 0.139875 0.399745
vt 0.139875 0.399745
vt 0.139875 0.399745
vt 0.267279 0.399745
vt 0.267279 0.399745
vt 0.267279 0.399745
vt 0.267279 0.399745
vt 0.267279 0.399745
vt 0.267279 0.399745
vt 0.267279 0.399745
vt 0.267279 0.399745
vt 0.131721 0.478225
vt 0.131721 0.478225
vt 0.131721 0.478225
vt 0.131721 0.478225
vt 0.167394 0.479244
vt 0.167394 0.479244
vt 0.167394 0.479244
vt 0.167394 0.479244
vt 0.105221 0.479244
vt 0.105221 0.479244
vt 0.105221 0.479244
vt 0.105221 0.479244
vt 0.067510 0.479244
vt 0.067510 0.479244
vt 0.067510 0.479244
vt 0.067510 0.479244
vt 0.115414 0.479244
vt 0.115414 0.479244
vt 0.115414 0.479244
vt 0.115414 0.479244
vt 0.202048 0.479244
vt 0.202048 0.479244
vt 0.202048 0.479244
vt 0.202048 0.479244
vt 0.131721 0.478225
vt 0.131721 0.478225
vt 0.131721 0.478225
vt 0.131721 0.478225
vt 0.167394 0.479244
vt 0.167394 0.479244
vt 0.167394 0.479244
vt 0.167394 0.479244
vt 0.105221 0.479244
vt 0.105221 0.479244
vt 0.105221 0.479244
vt 0.105221 0.479244
vt 0.067510 0.479244
vt 0.067510 0.479244
vt 0.067510 0.479244
vt 0.067510 0.479244
vt 0.115414 0.479244
vt 0.115414 0.479244
vt 0.115414 0.479244
vt 0.115414 0.479244
vt 0.202048 0.479244
vt 0.202048 0.479244
vt 0.202048 0.479244
vt 0.202048 0.479244
vt 0.354933 0.399745
vt 0.354933 0.399745
vt 0.354933 0.399745
vt 0.354933 0.399745
vt 0.297856 0.399745
vt 0.297856 0.399745
vt 0.297856 0.399745
vt 0.297856 0.399745
vt 0.214279 0.399745
vt 0.214279 0.399745
vt 0.214279 0.399745
vt 0.214279 0.399745
vt 0.139875 0.399745
vt 0.139875 0.399745
vt 0.139875 0.399745
vt 0.139875 0.399745
vt 0.267279 0.399745
vt 0.267279 0.399745
vt 0.267279 0.399745
vt 0.267279 0.399745
vt 0.267279 0.399745
vt 0.267279 0.399745
vt 0.267279 0.399745
vt 0.267279 0.399745
vt 0.131721 0.478225
vt 0.131721 0.478225
vt 0.131721 0.478225
vt 0.131721 0.478225
vt 0.167394 0.479244
vt 0.167394 0.479244
vt 0.167394 0.479244
vt 0.167394 0.479244
vt 0.105221 0.479244
vt 0.105221 0.479244
vt 0.105221 0.479244
vt 0.105221 0.479244
vt 0.067510 0.479244
vt 0.067510 0.479244
vt 0.067510 0.479244
vt 0.067510 0.479244
vt 0.115414 0.479244
vt 0.115414 0.479244
vt 0.115414 0.479244
vt 0.115414 0.479244
vt 0.202048 0.479244
vt 0.202048 0.479244
vt 0.202048 0.479244
vt 0.202048 0.479244
vt 0.131721 0.478225
vt 0.131721 0.478225
vt 0.131721 0.478225
vt 0.131721 0.478225
vt 0.167394 0.479244
vt 0.167394 0.479244
vt 0.167394 0.479244
vt 0.167394 0.479244
vt 0.105221 0.479244
vt 0.105221 0.479244
vt 0.105221 0.479244
vt 0.105221 0.479244
vt 0.067510 0.479244
vt 0.067510 0.479244
vt 0.067510 0.479244
vt 0.067510 0.479244
vt 0.115414 0.479244
vt 0.115414 0.479244
vt 0.115414 0.479244
vt 0.115414 0.479244
vt 0.202048 0.479244
vt 0.202048 0.479244
vt 0.202048 0.479244
vt 0.202048 0.479244
vn -0.951934 -0.303688 0.039936
vn -0.951934 -0.303688 0.039936
vn -0.951934 -0.303688 0.039936
vn -0.951934 -0.303688 0.039936
vn 0.304879 -0.952082 0.024262
vn 0.304879 -0.952082 0.024262
vn 0.304879 -0.952082 0.024262
vn 0.304879 -0.952082 0.024262
vn 0.951840 0.304006 -0.039760
vn 0.951840 0.304006 -0.039760
vn 0.951840 0.304006 -0.039760
vn 0.951840 0.304006 -0.039760
vn -0.304957 0.952057 -0.024258
vn -0.304957 0.952057 -0.024258
vn -0.304957 0.952057 -0.024258
vn -0.304957 0.952057 -0.024258
vn -0.030552 -0.035112 -0.998916
vn -0.030552 -0.035112 -0.998916
vn -0.030552 -0.035112 -0.998916
vn -0.030552 -0.035112 -0.998916
vn 0.030627 0.035245 0.998909
vn 0.030627 0.035245 0.998909
vn 0.030627 0.035245 0.998909
vn 0.030627 0.035245 0.998909
vn -0.994985 -0.099919 0.004666
vn -0.994985 -0.099919 0.004666
vn -0.994985 -0.099919 0.004666
vn -0.994985 -0.099919 0.004666
vn 0.099903 -0.994189 0.040106
vn 0.099903 -0.994189 0.040106
vn 0.099903 -0.994188 0.040106
vn 0.099903 -0.994189 0.040106
vn 0.994990 0.099868 -0.004557
vn 0.994990 0.099868 -0.004557
vn 0.994990 0.099868 -0.004557
vn 0.994990 0.099868 -0.004557
vn -0.099929 0.994183 -0.040182
vn -0.099929 0.994183 -0.040182
vn -0.099929 0.994183 -0.040182
vn -0.099929 0.994183 -0.040182
vn -0.000405 -0.040581 -0.999176
vn -0.000405 -0.040581 -0.999176
vn -0.000405 -0.040581 -0.999176
vn -0.000405 -0.040581 -0.999176
vn 0.000287 0.040677 0.999172
vn 0.000287 0.040677 0.999172
vn 0.000287 0.040677 0.999172
vn 0.000287 0.040677 0.999172
vn -0.999952 -0.007532 0.006251
vn -0.999952 -0.007532 0.006251
vn -0.999952 -0.007532 0.006251
vn -0.999952 -0.007532 0.006251
vn 0.007756 -0.999183 0.039664
vn 0.007756 -0.999183 0.039664
vn 0.007756 -0.999183 0.039664
vn 0.007756 -0.999183 0.039664
vn 0.999955 0.007438 -0.005831
vn 0.999955 0.007438 -0.005831
vn 0.999955 0.007438 -0.005831
vn 0.999955 0.007438 -0.005831
vn -0.007790 0.999182 -0.039675
vn -0.007790 0.999182 -0.039675
vn -0.007790 0.999182 -0.039675
vn -0.007790 0.999182 -0.039675
vn -0.005893 -0.039731 -0.999193
vn -0.005893 -0.039731 -0.999193
vn -0.005893 -0.039731 -0.999193
vn -0.005893 -0.039731 -0.999193
vn 0.006003 0.039840 0.999188
vn 0.006003 0.039840 0.999188
vn 0.006003 0.039840 0.999188
vn 0.006003 0.039840 0.999188
vn -0.975780 -0.214739 0.041724
vn -0.975780 -0.214739 0.041724
vn -0.975780 -0.214739 0.041724
vn -0.975780 -0.214739 0.041724
vn 0.215789 -0.976159 0.023431
vn 0.215789 -0.976159 0.023431
vn 0.215789 -0.976159 0.023431
vn 0.215789 -0.976159 0.023431
vn 0.975797 0.214751 -0.041269
vn 0.975797 0.214751 -0.041269
vn 0.975797 0.214751 -0.041269
vn 0.975797 0.214751 -0.041269
vn -0.215783 0.976160 -0.023420
vn -0.215783 0.976160 -0.023420
vn -0.215783 0.976160 -0.023420
vn -0.215783 0.976160 -0.023420
vn -0.035759 -0.031714 -0.998857
vn -0.035759 -0.031714 -0.998857
vn -0.035759 -0.031714 -0.998857
vn -0.035759 -0.031714 -0.998857
vn 0.035213 0.031705 0.998877
vn 0.035213 0.031705 0.998877
vn 0.035213 0.031705 0.998877
vn 0.035213 0.031705 0.998877
vn 0.008286 -0.999961 0.003163
vn 0.008286 -0.999961 0.003163
vn 0.008286 -0.999961 0.003163
vn 0.008286 -0.999961 0.003163
vn -0.003937 0.003202 0.999987
vn -0.003937 0.003202 0.999987
vn -0.003937 0.003202 0.999987
vn -0.003937 0.003202 0.999987
vn -0.008286 0.999961 -0.003188
vn -0.008286 0.999961 -0.003188
vn -0.008286 0.999961 -0.003188
vn -0.008286 0.999961 -0.003188
vn 0.003931 -0.003143 -0.999987
vn 0.003931 -0.003143 -0.999987
vn 0.003931 -0.003143 -0.999987
vn 0.003931 -0.003143 -0.999987
vn 0.999929 0.011285 0.003864
vn 0.999929 0.011285 0.003864
vn 0.999929 0.011285 0.003864
vn 0.999929 0.011285 0.003864
vn -0.999930 -0.011226 -0.003865
vn -0.999930 -0.011226 -0.003865
vn -0.999930 -0.011226 -0.003865
vn -0.999930 -0.011226 -0.003865
vn -0.028543 -0.999588 0.003062
vn -0.028543 -0.999588 0.003062
vn -0.028543 -0.999588 0.003062
vn -0.028543 -0.999588 0.003062
vn -0.003133 0.003091 0.999990
vn -0.003133 0.003091 0.999990
vn -0.003133 0.003091 0.999990
vn -0.003133 0.003091 0.999990
vn 0.028543 0.999588 -0.003062
vn 0.028543 0.999588 -0.003062
vn 0.028543 0.999588 -0.003062
vn 0.028543 0.999588 -0.003062
vn 0.003133 -0.003091 -0.999990
vn 0.003133 -0.003091 -0.999990
vn 0.003133 -0.003091 -0.999990
vn 0.003133 -0.003091 -0.999990
vn 0.999668 -0.025544 0.003248
vn 0.999668 -0.025544 0.003248
vn 0.999668 -0.025544 0.003248
vn 0.999668 -0.025544 0.003248
vn -0.999670 0.025485 -0.003248
vn -0.999670 0.025485 -0.003248
vn -0.999670 0.025485 -0.003248
vn -0.999670 0.025485 -0.003248
vn 0.098761 0.994278 0.040711
vn 0.098761 0.994278 0.040711
vn 0.098761 0.994278 0.040711
vn 0.098761 0.994278 0.040711
vn -0.006665 -0.040269 0.999167
vn -0.006665 -0.040269 0.999167
vn -0.006665 -0.040269 0.999167
vn -0.006665 -0.040269 0.999167
vn -0.098761 -0.994280 -0.040670
vn -0.098761 -0.994280 -0.040670
vn -0.098761 -0.994280 -0.040670
vn -0.098761 -0.994280 -0.040670
vn 0.006654 0.040210 -0.999169
vn 0.006654 0.040210 -0.999169
vn 0.006654 0.040210 -0.999169
vn 0.006654 0.040210 -0.999169
vn -0.995382 0.095949 -0.002813
vn -0.995382 0.095949 -0.002813
vn -0.995382 0.095949 -0.002813
vn -0.995382 0.095949 -0.002813
vn 0.995380 -0.095973 0.002689
vn 0.995380 -0.095973 0.002689
vn 0.995380 -0.095973 0.002689
vn 0.995380 -0.095973 0.002689
vn 0.994904 -0.100002 0.012842
vn 0.994904 -0.100002 0.012842
vn 0.994904 -0.100002 0.012842
vn 0.994904 -0.100002 0.012842
vn 0.098789 0.992116 0.077114
vn 0.098789 0.992116 0.077114
vn 0.098789 0.992116 0.077114
vn 0.098789 0.992116 0.077114
vn -0.994913 0.099967 -0.012421
vn -0.994913 0.099967 -0.012421
vn -0.994913 0.099967 -0.012421
vn -0.994913 0.099967 -0.012421
vn -0.098774 -0.992119 -0.077097
vn -0.098774 -0.992119 -0.077097
vn -0.098774 -0.992119 -0.077097
vn -0.098774 -0.992119 -0.077097
vn 0.020352 0.075654 -0.996926
vn 0.020352 0.075654 -0.996926
vn 0.020352 0.075654 -0.996926
vn 0.020352 0.075654 -0.996926
vn -0.020236 -0.075557 0.996936
vn -0.020236 -0.075557 0.996936
vn -0.020236 -0.075557 0.996936
vn -0.020236 -0.075557 0.996936
vn 0.999867 -0.007967 0.014251
vn 0.999867 -0.007967 0.014251
vn 0.999867 -0.007967 0.014251
vn 0.999867 -0.007967 0.014251
vn 0.006689 0.997019 0.076871
vn 0.006689 0.997019 0.076871
vn 0.006689 0.997019 0.076871
vn 0.006689 0.997019 0.076871
vn -0.999867 0.007967 -0.014251
vn -0.999867 0.007967 -0.014251
vn -0.999867 0.007967 -0.014251
vn -0.999867 0.007967 -0.014251
vn -0.006678 -0.997021 -0.076845
vn -0.006678 -0.997021 -0.076845
vn -0.006678 -0.997021 -0.076845
vn -0.006678 -0.997021 -0.076845
vn 0.014908 0.076650 -0.996947
vn 0.014908 0.076650 -0.996947
vn 0.014908 0.076650 -0.996947
vn 0.014908 0.076650 -0.996947
vn -0.014909 -0.076655 0.996946
vn -0.014909 -0.076655 0.996946
vn -0.014909 -0.076655 0.996946
vn -0.014909 -0.076655 0.996946
vn 0.006486 0.999163 0.040389
vn 0.006486 0.999163 0.040389
vn 0.006486 0.999163 0.040389
vn 0.006486 0.999163 0.040389
vn -0.004649 -0.040352 0.999175
vn -0.004649 -0.040352 0.999175
vn -0.004649 -0.040352 0.999175
vn -0.004649 -0.040352 0.999175
vn -0.006486 -0.999164 -0.040360
vn -0.006486 -0.999164 -0.040360
vn -0.006486 -0.999164 -0.040360
vn -0.006486 -0.999164 -0.040360
vn 0.004643 0.040351 -0.999175
vn 0.004643 0.040351 -0.999175
vn 0.004643 0.040351 -0.999175
vn 0.004643 0.040351 -0.999175
vn -0.999983 0.003700 -0.004607
vn -0.999983 0.003700 -0.004607
vn -0.999983 0.003700 -0.004607
vn -0.999983 0.003700 -0.004607
vn 0.999983 -0.003712 0.004545
vn 0.999983 -0.003712 0.004545
vn 0.999983 -0.003712 0.004545
vn 0.999983 -0.003712 0.004545
vn 0.978454 0.198307 0.057463
vn 0.978454 0.198307 0.057463
vn 0.978454 0.198307 0.057463
vn 0.978454 0.198307 0.057463
vn -0.201514 0.977764 0.058047
vn -0.201514 0.977764 0.058047
vn -0.201514 0.977764 0.058047
vn -0.201514 0.977764 0.058047
vn -0.978484 -0.198228 -0.057218
vn -0.978484 -0.198228 -0.057218
vn -0.978484 -0.198228 -0.057218
vn -0.978484 -0.198228 -0.057218
vn 0.201466 -0.977775 -0.058035
vn 0.201466 -0.977775 -0.058035
vn 0.201466 -0.977775 -0.058035
vn 0.201466 -0.977775 -0.058035
vn 0.044618 0.068381 -0.996661
vn 0.044618 0.068381 -0.996661
vn 0.044618 0.068381 -0.996661
vn 0.044618 0.068381 -0.996661
vn -0.044327 -0.068206 0.996686
vn -0.044327 -0.068206 0.996686
vn -0.044327 -0.068206 0.996686
vn -0.044327 -0.068206 0.996686
vn 0.992726 0.106926 0.055338
vn 0.992726 0.106926 0.055338
vn 0.992726 0.106926 0.055338
vn 0.992726 0.106926 0.055338
vn -0.110277 0.992164 0.058734
vn -0.110277 0.992164 0.058734
vn -0.110277 0.992164 0.058734
vn -0.110277 0.992164 0.058734
vn -0.992726 -0.106925 -0.055343
vn -0.992726 -0.106925 -0.055343
vn -0.992726 -0.106925 -0.055343
vn -0.992726 -0.106925 -0.055343
vn 0.110279 -0.992164 -0.058736
vn 0.110279 -0.992164 -0.058736
vn 0.110279 -0.992164 -0.058736
vn 0.110279 -0.992164 -0.058736
vn 0.048950 0.064415 -0.996722
vn 0.048950 0.064415 -0.996722
vn 0.048950 0.064415 -0.996722
vn 0.048950 0.064415 -0.996722
vn -0.048949 -0.064415 0.996722
vn -0.048949 -0.064415 0.996722
vn -0.048949 -0.064415 0.996722
vn -0.048949 -0.064415 0.996722
s off
f 1/1/1 2/2/2 4/3/3 3/4/4
f 3/5/5 4/6/6 6/7/7 5/8/8
f 5/9/9 6/10/10 8/11/11 7/12/12
f 7/13/13 8/14/14 2/15/15 1/16/16
f 2/17/17 8/18/18 6/19/19 4/20/20
f 7/21/21 1/22/22 3/23/23 5/24/24
f 9/25/25 10/26/26 12/27/27 11/28/28
f 11/29/29 12/30/30 14/31/31 13/32/32
f 13/33/33 14/34/34 16/35/35 15/36/36
f 15/37/37 16/38/38 10/39/39 9/40/40
f 10/41/41 16/42/42 14/43/43 12/44/44
f 15/45/45 9/46/46 11/47/47 13/48/48
f 17/49/49 18/50/50 20/51/51 19/52/52
f 19/53/53 20/54/54 22/55/55 21/56/56
f 21/57/57 22/58/58 24/59/59 23/60/60
f 23/61/61 24/62/62 18/63/63 17/64/64
f 18/65/65 24/66/66 22/67/67 20/68/68
f 23/69/69 17/70/70 19/71/71 21/72/72
f 25/73/73 26/74/74 28/75/75 27/76/76
f 27/77/77 28/78/78 30/79/79 29/80/80
f 29/81/81 30/82/82 32/83/83 31/84/84
f 31/85/85 32/86/86 26/87/87 25/88/88
f 26/89/89 32/90/90 30/91/91 28/92/92
f 31/93/93 25/94/94 27/95/95 29/96/96
f 33/97/97 34/98/98 36/99/99 35/100/100
f 35/101/101 36/102/102 38/103/103 37/104/104
f 37/105/105 38/106/106 40/107/107 39/108/108
f 39/109/109 40/110/110 34/111/111 33/112/112
f 34/113/113 40/114/114 38/115/115 36/116/116
f 39/117/117 33/118/118 35/119/119 37/120/120
f 41/121/121 42/122/122 44/123/123 43/124/124
f 43/125/125 44/126/126 46/127/127 45/128/128
f 45/129/129 46/130/130 48/131/131 47/132/132
f 47/133/133 48/134/134 42/135/135 41/136/136
f 42/137/137 48/138/138 46/139/139 44/140/140
f 47/141/141 41/142/142 43/143/143 45/144/144
f 49/145/145 50/146/146 52/147/147 51/148/148
f 51/149/149 52/150/150 54/151/151 53/152/152
f 53/153/153 54/154/154 56/155/155 55/156/156
f 55/157/157 56/158/158 50/159/159 49/160/160
f 50/161/161 56/162/162 54/163/163 52/164/164
f 55/165/165 49/166/166 51/167/167 53/168/168
f 57/169/169 58/170/170 60/171/171 59/172/172
f 59/173/173 60/174/174 62/175/175 61/176/176
f 61/177/177 62/178/178 64/179/179 63/180/180
f 63/181/181 64/182/182 58/183/183 57/184/184
f 58/185/185 64/186/186 62/187/187 60/188/188
f 63/189/189 57/190/190 59/191/191 61/192/192
f 65/193/193 66/194/194 68/195/195 67/196/196
f 67/197/197 68/198/198 70/199/199 69/200/200
f 69/201/201 70/202/202 72/203/203 71/204/204
f 71/205/205 72/206/206 66/207/207 65/208/208
f 66/209/209 72/210/210 70/211/211 68/212/212
f 71/213/213 65/214/214 67/215/215 69/216/216
f 73/217/217 74/218/218 76/219/219 75/220/220
f 75/221/221 76/222/222 78/223/223 77/224/224
f 77/225/225 78/226/226 80/227/227 79/228/228
f 79/229/229 80/230/230 74/231/231 73/232/232
f 74/233/233 80/234/234 78/235/235 76/236/236
f 79/237/237 73/238/238 75/239/239 77/240/240
f 81/241/241 82/242/242 84/243/243 83/244/244
f 83/245/245 84/246/246 86/247/247 85/248/248
f 85/249/249 86/250/250 88/251/251 87/252/252
f 87/253/253 88/254/254 82/255/255 81/256/256
f 82/257/257 88/258/258 86/259/259 84/260/260
f 87/261/261 81/262/262 83/263/263 85/264/264
f 89/265/265 90/266/266 92/267/267 91/268/268
f 91/269/269 92/270/270 94/271/271 93/272/272
f 93/273/273 94/274/274 96/275/275 95/276/276
f 95/277/277 96/278/278 90/279/279 89/280/280
f 90/281/281 96/282/282 94/283/283 92/284/284
f 95/285/285 89/286/286 91/287/287 93/288/288
