# This file uses meters as units for non-parametric coordinates.

v -0.165957 0.000000 5.029794
v -0.053088 0.000000 5.029794
v -0.165957 3.075222 5.029794
v -0.053088 3.075222 5.029794
v -0.165957 3.075222 0.262806
v -0.053088 3.075222 0.262806
v -0.165957 0.000000 0.262806
v -0.053088 0.000000 0.262806
v -0.250122 0.000000 5.029794
v 0.031076 0.000000 5.029794
v 0.031076 3.151417 5.029794
v -0.250122 3.151417 5.029794
v -0.250122 0.000000 5.356427
v 0.031076 0.000000 5.356427
v 0.031076 3.151417 5.356427
v -0.250122 3.151417 5.356427
v -0.219046 3.129348 0.262806
v 0.000000 3.129348 0.262806
v 0.000000 0.000000 0.262806
v -0.219046 0.000000 0.262806
v -0.219046 3.129348 0.000000
v 0.000000 3.129348 0.000000
v 0.000000 0.000000 0.000000
v -0.219046 0.000000 0.000000
v -0.165957 0.000000 0.659734
v -0.165957 3.075222 0.659736
v -0.053088 3.075222 0.659736
v -0.053088 0.000000 0.659734
v -0.165957 0.000000 0.738214
v -0.165957 3.075222 0.738214
v -0.053088 3.075222 0.738214
v -0.053088 0.000000 0.738214
v -0.165957 0.000000 1.126301
v -0.165957 3.075222 1.126301
v -0.053088 3.075222 1.126301
v -0.053088 0.000000 1.126301
v -0.165957 0.000000 1.204434
v -0.165957 3.075222 1.204434
v -0.053088 3.075222 1.204434
v -0.053088 0.000000 1.204434
v -0.165957 0.000000 1.605677
v -0.165957 3.075222 1.605676
v -0.053088 3.075222 1.605676
v -0.053088 0.000000 1.605677
v -0.165957 0.000000 1.703637
v -0.165957 3.075222 1.703637
v -0.053088 3.075222 1.703637
v -0.053088 0.000000 1.703637
v -0.165957 -0.000000 2.120804
v -0.165957 3.075222 2.120803
v -0.053088 3.075222 2.120803
v -0.053088 -0.000000 2.120804
v -0.165957 0.000000 2.203919
v -0.165957 3.075222 2.203919
v -0.053088 3.075222 2.203919
v -0.053088 0.000000 2.203919
v -0.165957 0.000000 2.631430
v -0.165957 3.075222 2.631430
v -0.053088 3.075222 2.631430
v -0.053088 0.000000 2.631430
v -0.165957 0.000000 2.721337
v -0.165957 3.075222 2.721338
v -0.053088 3.075222 2.721338
v -0.053088 0.000000 2.721337
v -0.165957 3.075222 3.197552
v -0.053088 3.075222 3.197552
v -0.053088 0.000000 3.197552
v -0.165957 0.000000 3.197552
v -0.165957 3.075222 3.310162
v -0.053088 3.075222 3.310162
v -0.053088 0.000000 3.310163
v -0.165957 0.000000 3.310163
v -0.165957 3.075222 3.802603
v -0.053088 3.075222 3.802603
v -0.053088 0.000000 3.802603
v -0.165957 0.000000 3.802603
v -0.165957 3.075222 3.926473
v -0.053088 3.075222 3.926473
v -0.053088 0.000000 3.926473
v -0.165957 0.000000 3.926473
v -0.165957 3.075222 4.451862
v -0.053088 3.075222 4.451862
v -0.053088 0.000000 4.451862
v -0.165957 0.000000 4.451862
v -0.165957 3.075222 4.553210
v -0.053088 3.075222 4.553210
v -0.053088 -0.000000 4.553211
v -0.165957 -0.000000 4.553211
vt 0.265044 0.398526
vt 0.265044 0.398526
vt 0.265044 0.398526
vt 0.265044 0.398526
vt 0.421002 0.398526
vt 0.421002 0.398526
vt 0.421002 0.398526
vt 0.421002 0.398526
vt 0.270913 0.398526
vt 0.270913 0.398526
vt 0.270913 0.398526
vt 0.270913 0.398526
vt 0.389140 0.398526
vt 0.389140 0.398526
vt 0.389140 0.398526
vt 0.389140 0.398526
vt 0.389140 0.398526
vt 0.389140 0.398526
vt 0.389140 0.398526
vt 0.389140 0.398526
vt 0.238212 0.398526
vt 0.238212 0.398526
vt 0.238212 0.398526
vt 0.238212 0.398526
vt 0.238212 0.398526
vt 0.238212 0.398526
vt 0.238212 0.398526
vt 0.238212 0.398526
vt 0.238212 0.398526
vt 0.238212 0.398526
vt 0.238212 0.398526
vt 0.238212 0.398526
vt 0.323738 0.398526
vt 0.323738 0.398526
vt 0.323738 0.398526
vt 0.323738 0.398526
vt 0.355600 0.398526
vt 0.355600 0.398526
vt 0.355600 0.398526
vt 0.355600 0.398526
vt 0.323738 0.398526
vt 0.323738 0.398526
vt 0.323738 0.398526
vt 0.323738 0.398526
vt 0.238212 0.398526
vt 0.238212 0.398526
vt 0.238212 0.398526
vt 0.238212 0.398526
vt 0.238212 0.398526
vt 0.238212 0.398526
vt 0.238212 0.398526
vt 0.238212 0.398526
vt 0.238212 0.398526
vt 0.238212 0.398526
vt 0.238212 0.398526
vt 0.238212 0.398526
vt 0.355600 0.398526
vt 0.355600 0.398526
vt 0.355600 0.398526
vt 0.355600 0.398526
vt 0.323738 0.398526
vt 0.323738 0.398526
vt 0.323738 0.398526
vt 0.323738 0.398526
vt 0.323738 0.398526
vt 0.323738 0.398526
vt 0.323738 0.398526
vt 0.323738 0.398526
vt 0.303614 0.398526
vt 0.303614 0.398526
vt 0.303614 0.398526
vt 0.303614 0.398526
vt 0.325415 0.398526
vt 0.325415 0.398526
vt 0.325415 0.398526
vt 0.325415 0.398526
vt 0.303614 0.398526
vt 0.303614 0.398526
vt 0.303614 0.398526
vt 0.303614 0.398526
vt 0.389140 0.398526
vt 0.389140 0.398526
vt 0.389140 0.398526
vt 0.389140 0.398526
vt 0.421002 0.398526
vt 0.421002 0.398526
vt 0.421002 0.398526
vt 0.421002 0.398526
vt 0.389140 0.398526
vt 0.389140 0.398526
vt 0.389140 0.398526
vt 0.389140 0.398526
vt 0.303614 0.398526
vt 0.303614 0.398526
vt 0.303614 0.398526
vt 0.303614 0.398526
vt 0.325415 0.398526
vt 0.325415 0.398526
vt 0.325415 0.398526
vt 0.325415 0.398526
vt 0.303614 0.398526
vt 0.303614 0.398526
vt 0.303614 0.398526
vt 0.303614 0.398526
vt 0.389140 0.398526
vt 0.389140 0.398526
vt 0.389140 0.398526
vt 0.389140 0.398526
vt 0.421002 0.398526
vt 0.421002 0.398526
vt 0.421002 0.398526
vt 0.421002 0.398526
vt 0.389140 0.398526
vt 0.389140 0.398526
vt 0.389140 0.398526
vt 0.389140 0.398526
vt 0.303614 0.398526
vt 0.303614 0.398526
vt 0.303614 0.398526
vt 0.303614 0.398526
vt 0.325415 0.398526
vt 0.325415 0.398526
vt 0.325415 0.398526
vt 0.325415 0.398526
vt 0.303614 0.398526
vt 0.303614 0.398526
vt 0.303614 0.398526
vt 0.303614 0.398526
vt 0.389140 0.398526
vt 0.389140 0.398526
vt 0.389140 0.398526
vt 0.389140 0.398526
vt 0.421002 0.398526
vt 0.421002 0.398526
vt 0.421002 0.398526
vt 0.421002 0.398526
vt 0.389140 0.398526
vt 0.389140 0.398526
vt 0.389140 0.398526
vt 0.389140 0.398526
vt 0.303614 0.398526
vt 0.303614 0.398526
vt 0.303614 0.398526
vt 0.303614 0.398526
vt 0.325415 0.398526
vt 0.325415 0.398526
vt 0.325415 0.398526
vt 0.325415 0.398526
vt 0.303614 0.398526
vt 0.303614 0.398526
vt 0.303614 0.398526
vt 0.303614 0.398526
vt 0.389140 0.398526
vt 0.389140 0.398526
vt 0.389140 0.398526
vt 0.389140 0.398526
vt 0.421002 0.398526
vt 0.421002 0.398526
vt 0.421002 0.398526
vt 0.421002 0.398526
vt 0.389140 0.398526
vt 0.389140 0.398526
vt 0.389140 0.398526
vt 0.389140 0.398526
vt 0.303614 0.398526
vt 0.303614 0.398526
vt 0.303614 0.398526
vt 0.303614 0.398526
vt 0.325415 0.398526
vt 0.325415 0.398526
vt 0.325415 0.398526
vt 0.325415 0.398526
vt 0.303614 0.398526
vt 0.303614 0.398526
vt 0.303614 0.398526
vt 0.303614 0.398526
vt 0.389140 0.398526
vt 0.389140 0.398526
vt 0.389140 0.398526
vt 0.389140 0.398526
vt 0.421002 0.398526
vt 0.421002 0.398526
vt 0.421002 0.398526
vt 0.421002 0.398526
vt 0.389140 0.398526
vt 0.389140 0.398526
vt 0.389140 0.398526
vt 0.389140 0.398526
vt 0.325415 0.398526
vt 0.325415 0.398526
vt 0.325415 0.398526
vt 0.325415 0.398526
vt 0.303614 0.398526
vt 0.303614 0.398526
vt 0.303614 0.398526
vt 0.303614 0.398526
vt 0.303614 0.398526
vt 0.303614 0.398526
vt 0.303614 0.398526
vt 0.303614 0.398526
vt 0.421002 0.398526
vt 0.421002 0.398526
vt 0.421002 0.398526
vt 0.421002 0.398526
vt 0.389140 0.398526
vt 0.389140 0.398526
vt 0.389140 0.398526
vt 0.389140 0.398526
vt 0.389140 0.398526
vt 0.389140 0.398526
vt 0.389140 0.398526
vt 0.389140 0.398526
vt 0.325415 0.398526
vt 0.325415 0.398526
vt 0.325415 0.398526
vt 0.325415 0.398526
vt 0.303614 0.398526
vt 0.303614 0.398526
vt 0.303614 0.398526
vt 0.303614 0.398526
vt 0.303614 0.398526
vt 0.303614 0.398526
vt 0.303614 0.398526
vt 0.303614 0.398526
vt 0.421002 0.398526
vt 0.421002 0.398526
vt 0.421002 0.398526
vt 0.421002 0.398526
vt 0.389140 0.398526
vt 0.389140 0.398526
vt 0.389140 0.398526
vt 0.389140 0.398526
vt 0.389140 0.398526
vt 0.389140 0.398526
vt 0.389140 0.398526
vt 0.389140 0.398526
vt 0.325415 0.398526
vt 0.325415 0.398526
vt 0.325415 0.398526
vt 0.325415 0.398526
vt 0.303614 0.398526
vt 0.303614 0.398526
vt 0.303614 0.398526
vt 0.303614 0.398526
vt 0.303614 0.398526
vt 0.303614 0.398526
vt 0.303614 0.398526
vt 0.303614 0.398526
vt 0.421002 0.398526
vt 0.421002 0.398526
vt 0.421002 0.398526
vt 0.421002 0.398526
vt 0.389140 0.398526
vt 0.389140 0.398526
vt 0.389140 0.398526
vt 0.389140 0.398526
vt 0.389140 0.398526
vt 0.389140 0.398526
vt 0.389140 0.398526
vt 0.389140 0.398526
vn 0.000000 0.000000 1.000000
vn 0.000000 0.000000 1.000000
vn 0.000000 0.000000 1.000000
vn 0.000000 0.000000 1.000000
vn 0.000000 1.000000 0.000000
vn 0.000000 1.000000 0.000000
vn 0.000000 1.000000 0.000000
vn 0.000000 1.000000 0.000000
vn 0.000000 0.000000 -1.000000
vn 0.000000 0.000000 -1.000000
vn 0.000000 0.000000 -1.000000
vn 0.000000 0.000000 -1.000000
vn 1.000000 -0.000000 0.000000
vn 1.000000 -0.000000 0.000000
vn 1.000000 0.000000 0.000000
vn 1.000000 0.000000 0.000000
vn -1.000000 0.000000 0.000000
vn -1.000000 0.000000 0.000000
vn -1.000000 0.000000 0.000000
vn -1.000000 0.000000 0.000000
vn 0.000004 0.000000 -1.000000
vn 0.000003 0.000000 -1.000000
vn 0.000003 0.000000 -1.000000
vn 0.000004 0.000000 -1.000000
vn 0.000003 0.000000 -1.000000
vn -0.000002 0.000000 -1.000000
vn -0.000002 0.000000 -1.000000
vn 0.000003 0.000000 -1.000000
vn -0.000002 0.000000 -1.000000
vn -0.000002 0.000000 -1.000000
vn -0.000002 0.000000 -1.000000
vn -0.000002 0.000000 -1.000000
vn 1.000000 0.000000 0.000000
vn 1.000000 0.000000 0.000000
vn 1.000000 0.000000 0.000000
vn 1.000000 0.000000 0.000000
vn 0.000000 1.000000 0.000000
vn 0.000000 1.000000 0.000000
vn 0.000000 1.000000 0.000000
vn 0.000000 1.000000 0.000000
vn -1.000000 0.000000 0.000000
vn -1.000000 0.000000 0.000000
vn -1.000000 0.000000 0.000000
vn -1.000000 0.000000 0.000000
vn 0.000000 0.000000 1.000000
vn -0.000000 0.000000 1.000000
vn -0.000000 0.000000 1.000000
vn 0.000000 0.000000 1.000000
vn -0.000000 0.000000 1.000000
vn -0.000000 0.000000 1.000000
vn -0.000000 0.000000 1.000000
vn -0.000000 0.000000 1.000000
vn 0.000000 0.000000 1.000000
vn 0.000000 0.000000 1.000000
vn 0.000000 0.000000 1.000000
vn 0.000000 0.000000 1.000000
vn 0.000000 1.000000 0.000000
vn 0.000000 1.000000 0.000000
vn 0.000000 1.000000 0.000000
vn 0.000000 1.000000 0.000000
vn 1.000000 0.000000 0.000000
vn 1.000000 0.000000 0.000000
vn 1.000000 0.000000 0.000000
vn 1.000000 0.000000 0.000000
vn -1.000000 0.000000 0.000000
vn -1.000000 0.000000 0.000000
vn -1.000000 0.000000 0.000000
vn -1.000000 0.000000 0.000000
vn -1.000000 0.000000 0.000000
vn -1.000000 0.000000 0.000000
vn -1.000000 0.000000 0.000000
vn -1.000000 0.000000 0.000000
vn 0.000000 1.000000 0.000000
vn 0.000000 1.000000 0.000000
vn 0.000000 1.000000 0.000000
vn 0.000000 1.000000 0.000000
vn 1.000000 -0.000000 0.000000
vn 1.000000 -0.000000 0.000000
vn 1.000000 -0.000000 0.000000
vn 1.000000 -0.000000 0.000000
vn -1.000000 0.000000 0.000000
vn -1.000000 0.000000 0.000000
vn -1.000000 0.000000 0.000000
vn -1.000000 0.000000 0.000000
vn 0.000000 1.000000 0.000000
vn 0.000000 1.000000 0.000000
vn 0.000000 1.000000 0.000000
vn 0.000000 1.000000 0.000000
vn 1.000000 0.000000 0.000000
vn 1.000000 0.000000 0.000000
vn 1.000000 -0.000000 0.000000
vn 1.000000 -0.000000 0.000000
vn -1.000000 0.000000 0.000000
vn -1.000000 0.000000 0.000000
vn -1.000000 -0.000000 0.000000
vn -1.000000 -0.000000 0.000000
vn 0.000000 1.000000 0.000000
vn 0.000000 1.000000 0.000000
vn 0.000000 1.000000 0.000000
vn 0.000000 1.000000 0.000000
vn 1.000000 0.000000 0.000000
vn 1.000000 0.000000 0.000000
vn 1.000000 0.000000 0.000000
vn 1.000000 0.000000 0.000000
vn -1.000000 -0.000000 0.000000
vn -1.000000 -0.000000 0.000000
vn -1.000000 -0.000000 0.000000
vn -1.000000 -0.000000 0.000000
vn 0.000000 1.000000 0.000000
vn 0.000000 1.000000 0.000000
vn 0.000000 1.000000 0.000000
vn 0.000000 1.000000 0.000000
vn 1.000000 0.000000 0.000000
vn 1.000000 0.000000 0.000000
vn 1.000000 0.000000 0.000000
vn 1.000000 0.000000 0.000000
vn -1.000000 -0.000000 0.000000
vn -1.000000 -0.000000 0.000000
vn -1.000000 0.000000 0.000000
vn -1.000000 0.000000 0.000000
vn 0.000000 1.000000 0.000000
vn 0.000000 1.000000 0.000000
vn 0.000000 1.000000 0.000000
vn 0.000000 1.000000 0.000000
vn 1.000000 0.000000 0.000000
vn 1.000000 0.000000 0.000000
vn 1.000000 0.000000 0.000000
vn 1.000000 0.000000 0.000000
vn -1.000000 0.000000 0.000000
vn -1.000000 0.000000 0.000000
vn -1.000000 0.000000 0.000000
vn -1.000000 0.000000 0.000000
vn 0.000000 1.000000 0.000000
vn 0.000000 1.000000 0.000000
vn 0.000000 1.000000 0.000000
vn 0.000000 1.000000 0.000000
vn 1.000000 0.000000 0.000000
vn 1.000000 0.000000 0.000000
vn 1.000000 0.000000 0.000000
vn 1.000000 0.000000 0.000000
vn -1.000000 0.000000 0.000000
vn -1.000000 0.000000 0.000000
vn -1.000000 0.000000 0.000000
vn -1.000000 0.000000 0.000000
vn 0.000000 1.000000 0.000000
vn 0.000000 1.000000 0.000000
vn 0.000000 1.000000 0.000000
vn 0.000000 1.000000 0.000000
vn 1.000000 0.000000 0.000000
vn 1.000000 0.000000 0.000000
vn 1.000000 0.000000 0.000000
vn 1.000000 0.000000 0.000000
vn -1.000000 0.000000 0.000000
vn -1.000000 0.000000 0.000000
vn -1.000000 -0.000000 0.000000
vn -1.000000 -0.000000 0.000000
vn 0.000000 1.000000 0.000000
vn 0.000000 1.000000 0.000000
vn 0.000000 1.000000 0.000000
vn 0.000000 1.000000 0.000000
vn 1.000000 -0.000000 0.000000
vn 1.000000 -0.000000 0.000000
vn 1.000000 0.000000 0.000000
vn 1.000000 0.000000 0.000000
vn -1.000000 -0.000000 0.000000
vn -1.000000 -0.000000 0.000000
vn -1.000000 -0.000000 0.000000
vn -1.000000 -0.000000 0.000000
vn 0.000000 1.000000 0.000000
vn 0.000000 1.000000 0.000000
vn 0.000000 1.000000 0.000000
vn 0.000000 1.000000 0.000000
vn 1.000000 -0.000000 0.000000
vn 1.000000 -0.000000 0.000000
vn 1.000000 -0.000000 0.000000
vn 1.000000 -0.000000 0.000000
vn -1.000000 -0.000000 0.000000
vn -1.000000 -0.000000 0.000000
vn -1.000000 0.000000 0.000000
vn -1.000000 0.000000 0.000000
vn 0.000000 1.000000 0.000000
vn 0.000000 1.000000 0.000000
vn 0.000000 1.000000 0.000000
vn 0.000000 1.000000 0.000000
vn 1.000000 -0.000000 0.000000
vn 1.000000 -0.000000 0.000000
vn 1.000000 -0.000000 0.000000
vn 1.000000 -0.000000 0.000000
vn 0.000000 1.000000 0.000000
vn 0.000000 1.000000 0.000000
vn 0.000000 1.000000 0.000000
vn 0.000000 1.000000 0.000000
vn 1.000000 -0.000000 0.000000
vn 1.000000 -0.000000 0.000000
vn 1.000000 -0.000000 0.000000
vn 1.000000 -0.000000 0.000000
vn -1.000000 0.000000 0.000000
vn -1.000000 0.000000 0.000000
vn -1.000000 0.000000 0.000000
vn -1.000000 0.000000 0.000000
vn 0.000000 1.000000 0.000000
vn 0.000000 1.000000 0.000000
vn 0.000000 1.000000 0.000000
vn 0.000000 1.000000 0.000000
vn 1.000000 0.000000 0.000000
vn 1.000000 0.000000 0.000000
vn 1.000000 -0.000000 0.000000
vn 1.000000 -0.000000 0.000000
vn -1.000000 0.000000 0.000000
vn -1.000000 0.000000 0.000000
vn -1.000000 0.000000 0.000000
vn -1.000000 0.000000 0.000000
vn 0.000000 1.000000 0.000000
vn 0.000000 1.000000 0.000000
vn 0.000000 1.000000 0.000000
vn 0.000000 1.000000 0.000000
vn 1.000000 0.000000 0.000000
vn 1.000000 0.000000 0.000000
vn 1.000000 0.000000 0.000000
vn 1.000000 0.000000 0.000000
vn -1.000000 0.000000 0.000000
vn -1.000000 0.000000 0.000000
vn -1.000000 0.000000 0.000000
vn -1.000000 0.000000 0.000000
vn 0.000000 1.000000 0.000000
vn 0.000000 1.000000 0.000000
vn 0.000000 1.000000 0.000000
vn 0.000000 1.000000 0.000000
vn 1.000000 0.000000 0.000000
vn 1.000000 0.000000 0.000000
vn 1.000000 0.000000 0.000000
vn 1.000000 0.000000 0.000000
vn -1.000000 0.000000 0.000000
vn -1.000000 0.000000 0.000000
vn -1.000000 0.000000 0.000000
vn -1.000000 0.000000 0.000000
vn 0.000000 1.000000 0.000000
vn 0.000000 1.000000 0.000000
vn 0.000000 1.000000 0.000000
vn 0.000000 1.000000 0.000000
vn 1.000000 0.000000 0.000000
vn 1.000000 0.000000 0.000000
vn 1.000000 0.000000 0.000000
vn 1.000000 0.000000 0.000000
vn -1.000000 0.000000 0.000000
vn -1.000000 0.000000 0.000000
vn -1.000000 0.000000 0.000000
vn -1.000000 0.000000 0.000000
vn 0.000000 1.000000 0.000000
vn 0.000000 1.000000 0.000000
vn 0.000000 1.000000 0.000000
vn 0.000000 1.000000 0.000000
vn 1.000000 0.000000 0.000000
vn 1.000000 0.000000 0.000000
vn 1.000000 0.000000 0.000000
vn 1.000000 0.000000 0.000000
vn -1.000000 0.000000 0.000000
vn -1.000000 0.000000 0.000000
vn -1.000000 0.000000 0.000000
vn -1.000000 0.000000 0.000000
s off
f 13/1/1 14/2/2 15/3/3 16/4/4
f 26/5/5 27/6/6 6/7/7 5/8/8
f 21/9/9 22/10/10 23/11/11 24/12/12
f 27/13/13 28/14/14 8/15/15 6/16/16
f 7/17/17 25/18/18 26/19/19 5/20/20
f 2/21/21 4/22/22 11/23/23 10/24/24
f 4/25/25 3/26/26 12/27/27 11/28/28
f 3/29/29 1/30/30 9/31/31 12/32/32
f 10/33/33 11/34/34 15/35/35 14/36/36
f 11/37/37 12/38/38 16/39/39 15/40/40
f 12/41/41 9/42/42 13/43/43 16/44/44
f 5/45/45 6/46/46 18/47/47 17/48/48
f 6/49/49 8/50/50 19/51/51 18/52/52
f 7/53/53 5/54/54 17/55/55 20/56/56
f 17/57/57 18/58/58 22/59/59 21/60/60
f 18/61/61 19/62/62 23/63/63 22/64/64
f 20/65/65 17/66/66 21/67/67 24/68/68
f 26/69/69 25/70/70 29/71/71 30/72/72
f 30/73/73 31/74/74 27/75/75 26/76/76
f 31/77/77 32/78/78 28/79/79 27/80/80
f 30/81/81 29/82/82 33/83/83 34/84/84
f 34/85/85 35/86/86 31/87/87 30/88/88
f 35/89/89 36/90/90 32/91/91 31/92/92
f 34/93/93 33/94/94 37/95/95 38/96/96
f 38/97/97 39/98/98 35/99/99 34/100/100
f 39/101/101 40/102/102 36/103/103 35/104/104
f 38/105/105 37/106/106 41/107/107 42/108/108
f 42/109/109 43/110/110 39/111/111 38/112/112
f 43/113/113 44/114/114 40/115/115 39/116/116
f 42/117/117 41/118/118 45/119/119 46/120/120
f 46/121/121 47/122/122 43/123/123 42/124/124
f 47/125/125 48/126/126 44/127/127 43/128/128
f 46/129/129 45/130/130 49/131/131 50/132/132
f 50/133/133 51/134/134 47/135/135 46/136/136
f 51/137/137 52/138/138 48/139/139 47/140/140
f 50/141/141 49/142/142 53/143/143 54/144/144
f 54/145/145 55/146/146 51/147/147 50/148/148
f 55/149/149 56/150/150 52/151/151 51/152/152
f 54/153/153 53/154/154 57/155/155 58/156/156
f 58/157/157 59/158/158 55/159/159 54/160/160
f 59/161/161 60/162/162 56/163/163 55/164/164
f 58/165/165 57/166/166 61/167/167 62/168/168
f 62/169/169 63/170/170 59/171/171 58/172/172
f 63/173/173 64/174/174 60/175/175 59/176/176
f 62/177/177 61/178/178 68/179/179 65/180/180
f 65/181/181 66/182/182 63/183/183 62/184/184
f 66/185/185 67/186/186 64/187/187 63/188/188
f 69/189/189 70/190/190 66/191/191 65/192/192
f 70/193/193 71/194/194 67/195/195 66/196/196
f 65/197/197 68/198/198 72/199/199 69/200/200
f 73/201/201 74/202/202 70/203/203 69/204/204
f 74/205/205 75/206/206 71/207/207 70/208/208
f 69/209/209 72/210/210 76/211/211 73/212/212
f 77/213/213 78/214/214 74/215/215 73/216/216
f 78/217/217 79/218/218 75/219/219 74/220/220
f 73/221/221 76/222/222 80/223/223 77/224/224
f 81/225/225 82/226/226 78/227/227 77/228/228
f 82/229/229 83/230/230 79/231/231 78/232/232
f 77/233/233 80/234/234 84/235/235 81/236/236
f 85/237/237 86/238/238 82/239/239 81/240/240
f 86/241/241 87/242/242 83/243/243 82/244/244
f 81/245/245 84/246/246 88/247/247 85/248/248
f 3/249/249 4/250/250 86/251/251 85/252/252
f 2/253/253 87/254/254 86/255/255 4/256/256
f 85/257/257 88/258/258 1/259/259 3/260/260
