# This file uses meters as units for non-parametric coordinates.

v -0.000002 0.000000 5.055235
v -0.350267 0.000000 5.055235
v -0.000002 2.999723 5.055235
v -0.350267 2.999723 5.055235
v -0.000002 2.999723 5.497929
v -0.350267 2.999723 5.497929
v -0.000002 0.000000 5.497929
v -0.350267 0.000000 5.497929
v -0.350267 0.000000 0.442694
v 0.000000 0.000000 0.442694
v -0.350267 2.999723 0.442694
v 0.000000 2.999723 0.442694
v -0.350267 2.999723 0.000000
v 0.000000 2.999723 0.000000
v -0.350267 0.000000 0.000000
v 0.000000 0.000000 0.000000
v -0.041708 1.612686 1.601589
v -0.041708 1.612686 2.393627
v -0.041708 1.849758 1.601589
v -0.041708 1.849758 2.393627
v -0.041708 2.113278 2.772178
v -0.041708 2.113278 1.965361
v -0.041708 1.883191 2.772178
v -0.041708 1.883191 1.965361
v -0.041708 1.849758 0.777089
v -0.041708 1.612686 0.777089
v -0.041708 1.849758 1.562627
v -0.041708 1.612686 1.562627
v -0.041708 1.612686 4.439711
v -0.041708 1.849758 4.439711
v -0.041708 1.612686 3.654149
v -0.041708 1.849758 3.654149
v -0.041708 1.341850 1.158789
v -0.041708 1.341850 1.967815
v -0.041708 1.577895 1.158790
v -0.041708 1.577895 1.967813
v -0.041708 0.574010 1.608773
v -0.041708 0.574010 2.392427
v -0.041708 0.812012 1.608776
v -0.041708 0.812012 2.392427
v -0.041708 2.371788 2.388161
v -0.041708 2.371788 1.588976
v -0.041708 2.141896 2.388161
v -0.041708 2.141896 1.588977
v -0.041708 0.047078 0.421312
v -0.041708 2.842919 0.421312
v -0.041708 2.842919 5.064731
v -0.041708 0.047078 5.064731
v -0.305862 1.612686 3.884452
v -0.305862 1.612686 3.092413
v -0.305862 1.849758 3.884452
v -0.305862 1.849758 3.092413
v -0.305862 2.113278 2.713863
v -0.305862 2.113278 3.520680
v -0.305862 1.883191 2.713863
v -0.305862 1.883191 3.520680
v -0.305862 1.849758 4.708951
v -0.305862 1.612686 4.708951
v -0.305862 1.849758 3.923412
v -0.305862 1.612686 3.923412
v -0.305862 1.612686 1.046329
v -0.305862 1.849758 1.046329
v -0.305862 1.612686 1.831892
v -0.305862 1.849758 1.831892
v -0.305862 1.341850 4.327251
v -0.305862 1.341850 3.518225
v -0.305862 1.577895 4.327250
v -0.305862 1.577895 3.518226
v -0.305862 0.574010 3.877267
v -0.305862 0.574010 3.093613
v -0.305862 0.812012 3.877264
v -0.305862 0.812012 3.093613
v -0.305862 2.371788 3.097878
v -0.305862 2.371788 3.897063
v -0.305862 2.141896 3.097878
v -0.305862 2.141896 3.897062
v -0.305862 0.047078 5.064728
v -0.305862 2.842919 5.064728
v -0.305862 2.842919 0.421311
v -0.305862 0.047078 0.421311
vt 0.104946 0.183527
vt 0.104946 0.183527
vt 0.104946 0.183527
vt 0.104946 0.183527
vt 0.168368 0.183527
vt 0.168368 0.183527
vt 0.168368 0.183527
vt 0.168368 0.183527
vt 0.146266 0.183527
vt 0.146266 0.183527
vt 0.146266 0.183527
vt 0.146266 0.183527
vt 0.146266 0.183527
vt 0.146266 0.183527
vt 0.146266 0.183527
vt 0.146266 0.183527
vt 0.146266 0.183527
vt 0.146266 0.183527
vt 0.146266 0.183527
vt 0.146266 0.183527
vt 0.104946 0.183527
vt 0.104946 0.183527
vt 0.104946 0.183527
vt 0.104946 0.183527
vt 0.168368 0.183527
vt 0.168368 0.183527
vt 0.168368 0.183527
vt 0.168368 0.183527
vt 0.146266 0.183527
vt 0.146266 0.183527
vt 0.146266 0.183527
vt 0.146266 0.183527
vt 0.146266 0.183527
vt 0.146266 0.183527
vt 0.146266 0.183527
vt 0.146266 0.183527
vt 0.146266 0.183527
vt 0.146266 0.183527
vt 0.146266 0.183527
vt 0.146266 0.183527
vt 0.142423 0.181605
vt 0.142423 0.181605
vt 0.142423 0.181605
vt 0.142423 0.181605
vt 0.142423 0.181605
vt 0.142423 0.181605
vt 0.142423 0.181605
vt 0.142423 0.181605
vt 0.142423 0.181605
vt 0.142423 0.181605
vt 0.142423 0.181605
vt 0.142423 0.181605
vt 0.142423 0.181605
vt 0.142423 0.181605
vt 0.142423 0.181605
vt 0.142423 0.181605
vt 0.142423 0.181605
vt 0.142423 0.181605
vt 0.142423 0.181605
vt 0.142423 0.181605
vt 0.142423 0.181605
vt 0.142423 0.181605
vt 0.142423 0.181605
vt 0.142423 0.181605
vt 0.169329 0.181605
vt 0.169329 0.181605
vt 0.169329 0.181605
vt 0.169329 0.181605
vt 0.169329 0.181605
vt 0.169329 0.181605
vt 0.169329 0.181605
vt 0.169329 0.181605
vt 0.169329 0.181605
vt 0.169329 0.181605
vt 0.169329 0.181605
vt 0.169329 0.181605
vt 0.169329 0.181605
vt 0.169329 0.181605
vt 0.169329 0.181605
vt 0.169329 0.181605
vt 0.169329 0.181605
vt 0.169329 0.181605
vt 0.169329 0.181605
vt 0.169329 0.181605
vt 0.169329 0.181605
vt 0.169329 0.181605
vt 0.169329 0.181605
vt 0.169329 0.181605
vt 0.169329 0.181605
vt 0.142423 0.181605
vt 0.142423 0.181605
vt 0.142423 0.181605
vt 0.142423 0.181605
vt 0.169329 0.181605
vt 0.169329 0.181605
vt 0.169329 0.181605
vt 0.169329 0.181605
vt 0.169329 0.181605
vt 0.169329 0.181605
vt 0.169329 0.181605
vt 0.142423 0.181605
vt 0.142423 0.181605
vt 0.142423 0.181605
vt 0.142423 0.181605
vt 0.142423 0.181605
vt 0.142423 0.181605
vt 0.142423 0.181605
vt 0.142423 0.181605
vt 0.142423 0.181605
vt 0.142423 0.181605
vt 0.142423 0.181605
vt 0.142423 0.181605
vt 0.142423 0.181605
vt 0.142423 0.181605
vt 0.142423 0.181605
vt 0.142423 0.181605
vt 0.142423 0.181605
vt 0.142423 0.181605
vt 0.142423 0.181605
vt 0.142423 0.181605
vt 0.142423 0.181605
vt 0.142423 0.181605
vt 0.142423 0.181605
vt 0.142423 0.181605
vt 0.169329 0.181605
vt 0.169329 0.181605
vt 0.169329 0.181605
vt 0.169329 0.181605
vt 0.169329 0.181605
vt 0.169329 0.181605
vt 0.169329 0.181605
vt 0.169329 0.181605
vt 0.169329 0.181605
vt 0.169329 0.181605
vt 0.169329 0.181605
vt 0.169329 0.181605
vt 0.169329 0.181605
vt 0.169329 0.181605
vt 0.169329 0.181605
vt 0.169329 0.181605
vt 0.169329 0.181605
vt 0.169329 0.181605
vt 0.169329 0.181605
vt 0.169329 0.181605
vt 0.169329 0.181605
vt 0.169329 0.181605
vt 0.169329 0.181605
vt 0.169329 0.181605
vt 0.169329 0.181605
vt 0.142423 0.181605
vt 0.142423 0.181605
vt 0.142423 0.181605
vt 0.142423 0.181605
vt 0.169329 0.181605
vt 0.169329 0.181605
vt 0.169329 0.181605
vt 0.169329 0.181605
vt 0.169329 0.181605
vt 0.169329 0.181605
vt 0.169329 0.181605
vt 0.198157 0.181605
vt 0.198157 0.181605
vt 0.198157 0.181605
vt 0.198157 0.181605
vn 0.000000 0.000000 -1.000000
vn 0.000000 0.000000 -1.000000
vn 0.000000 0.000000 -1.000000
vn 0.000000 0.000000 -1.000000
vn 0.000000 1.000000 0.000000
vn 0.000000 1.000000 0.000000
vn 0.000000 1.000000 0.000000
vn 0.000000 1.000000 0.000000
vn 0.000000 0.000000 1.000000
vn 0.000000 0.000000 1.000000
vn 0.000000 0.000000 1.000000
vn 0.000000 0.000000 1.000000
vn -1.000000 0.000000 0.000000
vn -1.000000 0.000000 0.000000
vn -1.000000 0.000000 0.000000
vn -1.000000 0.000000 0.000000
vn 1.000000 0.000000 0.000000
vn 1.000000 0.000000 0.000000
vn 1.000000 0.000000 0.000000
vn 1.000000 0.000000 0.000000
vn 0.000000 0.000000 1.000000
vn 0.000000 0.000000 1.000000
vn 0.000000 0.000000 1.000000
vn 0.000000 0.000000 1.000000
vn 0.000000 1.000000 0.000000
vn 0.000000 1.000000 0.000000
vn 0.000000 1.000000 0.000000
vn 0.000000 1.000000 0.000000
vn 0.000000 0.000000 -1.000000
vn 0.000000 0.000000 -1.000000
vn 0.000000 0.000000 -1.000000
vn 0.000000 0.000000 -1.000000
vn 1.000000 0.000000 0.000000
vn 1.000000 0.000000 0.000000
vn 1.000000 0.000000 0.000000
vn 1.000000 0.000000 0.000000
vn -1.000000 0.000000 0.000000
vn -1.000000 0.000000 0.000000
vn -1.000000 0.000000 0.000000
vn -1.000000 0.000000 0.000000
vn 1.000000 0.000000 0.000000
vn 1.000000 0.000000 0.000000
vn 1.000000 0.000000 0.000000
vn 1.000000 0.000000 0.000000
vn 1.000000 0.000000 0.000000
vn 1.000000 0.000000 0.000000
vn 1.000000 0.000000 0.000000
vn 1.000000 0.000000 0.000000
vn 1.000000 0.000000 0.000000
vn 1.000000 0.000000 0.000000
vn 1.000000 0.000000 0.000000
vn 1.000000 0.000000 0.000000
vn 1.000000 0.000000 0.000000
vn 1.000000 0.000000 0.000000
vn 1.000000 0.000000 0.000000
vn 1.000000 0.000000 0.000000
vn 1.000000 0.000000 0.000000
vn 1.000000 0.000000 0.000000
vn 1.000000 0.000000 0.000000
vn 1.000000 0.000000 0.000000
vn 1.000000 -0.000000 0.000000
vn 1.000000 -0.000000 0.000000
vn 1.000000 -0.000000 0.000000
vn 1.000000 0.000000 0.000000
vn 1.000000 0.000000 0.000000
vn 1.000000 0.000000 0.000000
vn 1.000000 0.000000 0.000000
vn 1.000000 0.000000 0.000000
vn 1.000000 0.000000 0.000000
vn 1.000000 0.000000 0.000000
vn 1.000000 0.000000 0.000000
vn 1.000000 0.000000 0.000000
vn 1.000000 0.000000 0.000000
vn 1.000000 0.000000 0.000000
vn 1.000000 0.000000 0.000000
vn 1.000000 0.000000 0.000000
vn 1.000000 0.000000 0.000000
vn 1.000000 0.000000 0.000000
vn 1.000000 -0.000000 0.000000
vn 1.000000 0.000000 0.000000
vn 1.000000 0.000000 0.000000
vn 1.000000 0.000000 0.000000
vn 1.000000 0.000000 0.000000
vn 1.000000 0.000000 0.000000
vn 1.000000 0.000000 0.000000
vn 1.000000 0.000000 0.000000
vn 1.000000 0.000000 0.000000
vn 1.000000 0.000000 0.000000
vn 1.000000 0.000000 0.000000
vn 1.000000 0.000000 0.000000
vn 1.000000 0.000000 0.000000
vn 1.000000 0.000000 0.000000
vn 1.000000 0.000000 0.000000
vn 1.000000 0.000000 0.000000
vn 1.000000 0.000000 0.000000
vn 1.000000 0.000000 0.000000
vn 1.000000 0.000000 0.000000
vn 1.000000 0.000000 0.000000
vn 1.000000 0.000000 0.000000
vn 1.000000 0.000000 0.000000
vn 1.000000 0.000000 0.000000
vn 1.000000 0.000000 0.000000
vn 1.000000 0.000000 0.000000
vn 1.000000 0.000000 0.000000
vn 1.000000 0.000000 0.000000
vn 1.000000 0.000000 0.000000
vn 1.000000 0.000000 0.000000
vn 1.000000 0.000000 0.000000
vn 1.000000 0.000000 0.000000
vn 1.000000 0.000000 0.000000
vn 1.000000 0.000000 0.000000
vn 1.000000 0.000000 0.000000
vn 1.000000 0.000000 0.000000
vn 1.000000 0.000000 0.000000
vn 1.000000 0.000000 0.000000
vn 1.000000 0.000000 0.000000
vn 1.000000 0.000000 0.000000
vn 1.000000 0.000000 0.000000
vn 1.000000 0.000000 0.000000
vn 1.000000 0.000000 0.000000
vn 1.000000 0.000000 0.000000
vn 1.000000 0.000000 0.000000
vn 1.000000 0.000000 0.000000
vn 1.000000 0.000000 0.000000
vn 1.000000 0.000000 0.000000
vn 1.000000 0.000000 0.000000
vn 1.000000 -0.000000 0.000000
vn 1.000000 -0.000000 0.000000
vn 1.000000 0.000000 0.000000
vn 1.000000 -0.000000 0.000000
vn 1.000000 -0.000000 0.000000
vn 1.000000 0.000000 0.000000
vn 1.000000 0.000000 0.000000
vn 1.000000 0.000000 0.000000
vn 1.000000 0.000000 0.000000
vn 1.000000 0.000000 0.000000
vn 1.000000 0.000000 0.000000
vn 1.000000 0.000000 0.000000
vn 1.000000 0.000000 0.000000
vn 1.000000 -0.000000 0.000000
vn -1.000000 0.000000 0.000000
vn -1.000000 0.000000 0.000000
vn -1.000000 -0.000000 0.000000
vn -1.000000 -0.000000 0.000000
vn -1.000000 0.000000 0.000000
vn -1.000000 0.000000 0.000000
vn -1.000000 0.000000 0.000000
vn -1.000000 0.000000 0.000000
vn -1.000000 0.000000 0.000000
vn -1.000000 -0.000000 0.000000
vn -1.000000 -0.000000 0.000000
vn -1.000000 0.000000 0.000000
vn -1.000000 -0.000000 0.000000
vn -1.000000 -0.000000 0.000000
vn -1.000000 -0.000000 0.000000
vn -1.000000 -0.000000 0.000000
vn -1.000000 -0.000000 0.000000
vn -1.000000 0.000000 0.000000
vn -1.000000 0.000000 0.000000
vn -1.000000 -0.000000 0.000000
vn -1.000000 0.000000 0.000000
vn -1.000000 0.000000 0.000000
vn -1.000000 0.000000 0.000000
vn -1.000000 -0.000000 0.000000
vn -1.000000 -0.000000 0.000000
vn -1.000000 -0.000000 0.000000
vn -1.000000 -0.000000 0.000000
vn -1.000000 -0.000000 0.000000
vn -1.000000 -0.000000 0.000000
vn -1.000000 -0.000000 0.000000
vn -1.000000 -0.000000 0.000000
vn -1.000000 0.000000 0.000000
vn -1.000000 -0.000000 0.000000
vn -1.000000 -0.000000 0.000000
vn -1.000000 -0.000000 0.000000
vn -1.000000 -0.000000 0.000000
vn -1.000000 -0.000000 0.000000
vn -1.000000 -0.000000 0.000000
vn -1.000000 0.000000 0.000000
vn -1.000000 -0.000000 0.000000
vn -1.000000 -0.000000 0.000000
vn -1.000000 0.000000 0.000000
vn -1.000000 0.000000 0.000000
vn -1.000000 -0.000000 0.000000
vn -1.000000 -0.000000 0.000000
vn -1.000000 0.000000 0.000000
vn -1.000000 0.000000 0.000000
vn -1.000000 -0.000000 0.000000
vn -1.000000 0.000000 0.000000
vn -1.000000 0.000000 0.000000
vn -1.000000 0.000000 0.000000
vn -1.000000 0.000000 0.000000
vn -1.000000 -0.000000 0.000000
vn -1.000000 0.000000 0.000000
vn -1.000000 0.000000 0.000000
vn -1.000000 0.000000 0.000000
vn -1.000000 0.000000 0.000000
vn -1.000000 -0.000000 0.000000
vn -1.000000 -0.000000 0.000000
vn -1.000000 0.000000 0.000000
vn -1.000000 -0.000000 0.000000
vn -1.000000 -0.000000 0.000000
vn -1.000000 0.000000 0.000000
vn -1.000000 0.000000 0.000000
vn -1.000000 0.000000 0.000000
vn -1.000000 0.000000 0.000000
vn -1.000000 0.000000 0.000000
vn -1.000000 0.000000 0.000000
vn -1.000000 0.000000 0.000000
vn -1.000000 -0.000000 0.000000
vn -1.000000 -0.000000 0.000000
vn -1.000000 -0.000000 0.000000
vn -1.000000 0.000000 0.000000
vn -1.000000 0.000000 0.000000
vn -1.000000 0.000000 0.000000
vn -1.000000 0.000000 0.000000
vn -1.000000 -0.000000 0.000000
vn -1.000000 -0.000000 0.000000
vn -1.000000 0.000000 0.000000
vn -1.000000 0.000000 0.000000
vn -1.000000 0.000000 0.000000
vn -1.000000 0.000000 0.000000
vn -1.000000 0.000000 0.000000
vn -1.000000 0.000000 0.000000
vn -1.000000 -0.000000 0.000000
vn -1.000000 -0.000000 0.000000
vn -1.000000 0.000000 0.000000
vn -1.000000 0.000000 0.000000
vn -1.000000 -0.000000 0.000000
vn -1.000000 0.000000 0.000000
vn -1.000000 0.000000 0.000000
vn -1.000000 -0.000000 0.000000
vn -1.000000 -0.000000 0.000000
vn -1.000000 -0.000000 0.000000
vn -1.000000 -0.000000 0.000000
vn -1.000000 -0.000000 0.000000
vn -1.000000 -0.000000 0.000000
vn -1.000000 -0.000000 0.000000
vn -1.000000 -0.000000 0.000000
vn -1.000000 0.000000 0.000000
vn 0.000000 1.000000 0.000000
vn 0.000000 1.000000 0.000000
vn 0.000000 1.000000 0.000000
vn 0.000000 1.000000 0.000000
s off
f 1/1/1 2/2/2 4/3/3 3/4/4
f 3/5/5 4/6/6 6/7/7 5/8/8
f 5/9/9 6/10/10 8/11/11 7/12/12
f 2/13/13 8/14/14 6/15/15 4/16/16
f 7/17/17 1/18/18 3/19/19 5/20/20
f 9/21/21 10/22/22 12/23/23 11/24/24
f 11/25/25 12/26/26 14/27/27 13/28/28
f 13/29/29 14/30/30 16/31/31 15/32/32
f 10/33/33 16/34/34 14/35/35 12/36/36
f 15/37/37 9/38/38 11/39/39 13/40/40
f 18/41/41 17/42/42 19/43/43 20/44/44
f 34/45/45 33/46/46 35/47/47 36/48/48
f 26/49/49 25/50/50 27/51/51 28/52/52
f 22/53/53 21/54/54 23/55/55 24/56/56
f 30/57/57 29/58/58 31/59/59 32/60/60
f 42/61/61 41/62/62 43/63/63 44/64/64
f 20/65/65 19/66/66 24/67/67 23/68/68
f 45/69/69 46/70/70 25/71/71 26/72/72
f 22/73/73 24/67/74 19/66/75 27/74/76 25/71/77 46/70/78 42/75/79 44/76/80
f 19/66/81 17/77/82 28/78/83 27/74/84
f 47/79/85 48/80/86 29/81/87 30/82/88
f 18/83/89 31/84/90 29/81/91 48/80/92 38/85/93 40/86/94 34/87/95 36/88/96
f 18/83/97 20/65/98 32/89/99 31/84/100
f 38/90/101 37/91/102 39/92/103 40/93/104
f 17/77/105 18/83/106 36/88/107 35/94/108
f 48/80/109 45/69/110 37/95/111 38/85/112
f 17/77/113 35/94/114 33/96/115 39/97/116 37/95/117 45/69/118 26/72/119 28/78/120
f 33/96/121 34/87/122 40/86/123 39/97/124
f 46/70/125 47/79/126 41/98/127 42/75/128
f 21/99/129 43/100/130 41/98/131 47/79/132 30/82/133 32/89/134 20/65/135 23/68/136
f 21/99/137 22/73/138 44/76/139 43/100/140
f 50/101/141 49/102/142 51/103/143 52/104/144
f 66/105/145 65/106/146 67/107/147 68/108/148
f 58/109/149 57/110/150 59/111/151 60/112/152
f 54/113/153 53/114/154 55/115/155 56/116/156
f 62/117/157 61/118/158 63/119/159 64/120/160
f 74/121/161 73/122/162 75/123/163 76/124/164
f 52/125/165 51/126/166 56/127/167 55/128/168
f 77/129/169 78/130/170 57/131/171 58/132/172
f 54/133/173 56/127/174 51/126/175 59/134/176 57/131/177 78/130/178 74/135/179 76/136/180
f 51/126/181 49/137/182 60/138/183 59/134/184
f 79/139/185 80/140/186 61/141/187 62/142/188
f 50/143/189 63/144/190 61/141/191 80/140/192 70/145/193 72/146/194 66/147/195 68/148/196
f 50/143/197 52/125/198 64/149/199 63/144/200
f 70/150/201 69/151/202 71/152/203 72/153/204
f 49/137/205 50/143/206 68/148/207 67/154/208
f 80/140/209 77/129/210 69/155/211 70/145/212
f 49/137/213 67/154/214 65/156/215 71/157/216 69/155/217 77/129/218 58/132/219 60/138/220
f 65/156/221 66/147/222 72/146/223 71/157/224
f 78/130/225 79/139/226 73/158/227 74/135/228
f 53/159/229 75/160/230 73/158/231 79/139/232 62/142/233 64/149/234 52/125/235 55/128/236
f 53/159/237 54/133/238 76/136/239 75/160/240
f 78/161/241 47/162/242 46/163/243 79/164/244
