# This file uses meters as units for non-parametric coordinates.

v -0.555988 0.757415 -0.433853
v 0.242100 0.738890 -0.315681
v -0.469143 1.627333 -0.548321
v 0.058086 1.588418 -0.442352
v -0.486294 1.624201 -1.034180
v 0.086132 1.584013 -1.028740
v -0.555988 0.723004 -1.050816
v 0.326786 0.697259 -1.062096
v -1.239094 0.195301 -1.305729
v 0.348080 0.397506 -1.317009
v 0.441532 0.480204 -0.059982
v -0.900234 0.276050 -0.083652
v -1.202869 -0.054021 -1.262627
v 0.682285 -0.054021 -1.262627
v 0.771778 -0.054021 -0.068474
v -0.878368 -0.054021 -0.101944
v -0.466236 0.225234 -0.082542
v 0.178974 0.378213 -0.068638
v -0.455723 -0.054021 -0.093288
v 0.337772 -0.054021 -0.073624
v -0.260090 0.033493 1.310242
v 0.054264 0.108027 1.317013
v -0.254971 -0.054021 1.305000
v 0.131634 -0.054021 1.314587
v 0.423138 0.339583 -1.094322
v 0.483479 0.392981 -0.282669
v 0.696712 -0.054021 -0.288151
v 0.638935 -0.054021 -1.059208
v 1.087193 0.056818 -0.913837
v 1.120693 0.086467 -0.463154
v 1.239094 -0.054021 -0.466202
v 1.207012 -0.054021 -0.894341
v 0.030178 1.590283 -0.474339
v 0.055195 1.586355 -0.997341
v -0.455357 1.622199 -1.002193
v -0.440060 1.624992 -0.568855
v -0.022404 1.593798 -0.534615
v -0.003105 1.590767 -0.938171
v -0.397057 1.618424 -0.941917
v -0.385250 1.620579 -0.607548
v -0.077999 1.597514 -0.598335
v -0.064739 1.595431 -0.875622
v -0.335423 1.614434 -0.878197
v -0.327309 1.615915 -0.648449
v -0.123528 1.600557 -0.650517
v -0.115211 1.599251 -0.824398
v -0.284950 1.611167 -0.826015
v -0.279865 1.612096 -0.681942
vt 0.243494 0.396585
vt 0.243494 0.396585
vt 0.243494 0.396585
vt 0.426043 0.402041
vt 0.243494 0.396585
vt 0.426043 0.402041
vt 0.243494 0.396585
vt 0.243494 0.396585
vt 0.211099 0.396585
vt 0.211099 0.396585
vt 0.211099 0.396585
vt 0.211099 0.396585
vt 0.211099 0.396585
vt 0.211099 0.396585
vt 0.211099 0.396585
vt 0.426043 0.402041
vt 0.270490 0.396585
vt 0.270490 0.396585
vt 0.270490 0.396585
vt 0.270490 0.396585
vt 0.245294 0.396585
vt 0.245294 0.396585
vt 0.245294 0.396585
vt 0.245294 0.396585
vt 0.270490 0.396585
vt 0.270490 0.396585
vt 0.270490 0.396585
vt 0.270490 0.396585
vt 0.245294 0.396585
vt 0.245294 0.396585
vt 0.245294 0.396585
vt 0.245294 0.396585
vt 0.211099 0.396585
vt 0.211099 0.396585
vt 0.211099 0.396585
vt 0.211099 0.396585
vt 0.211099 0.396585
vt 0.211099 0.396585
vt 0.211099 0.396585
vt 0.211099 0.396585
vt 0.237227 0.396585
vt 0.237227 0.396585
vt 0.237227 0.396585
vt 0.237227 0.396585
vt 0.211099 0.396585
vt 0.211099 0.396585
vt 0.211099 0.396585
vt 0.211099 0.396585
vt 0.296610 0.396585
vt 0.211099 0.396585
vt 0.211099 0.396585
vt 0.211099 0.396585
vt 0.211099 0.396585
vt 0.211099 0.396585
vt 0.211099 0.396585
vt 0.211099 0.396585
vt 0.296610 0.396585
vt 0.296610 0.396585
vt 0.237227 0.396585
vt 0.296610 0.396585
vt 0.237227 0.396585
vt 0.211099 0.396585
vt 0.237227 0.396585
vt 0.237227 0.396585
vt 0.237227 0.396585
vt 0.237227 0.396585
vt 0.237227 0.396585
vt 0.237227 0.396585
vt 0.237227 0.396585
vt 0.237227 0.396585
vt 0.237227 0.396585
vt 0.237227 0.396585
vt 0.265731 0.396585
vt 0.211099 0.396585
vt 0.211099 0.396585
vt 0.211099 0.396585
vt 0.211099 0.396585
vt 0.211099 0.396585
vt 0.211099 0.396585
vt 0.211099 0.396585
vt 0.265731 0.396585
vt 0.265731 0.396585
vt 0.265731 0.396585
vt 0.211099 0.396585
vt 0.426043 0.402041
vt 0.243494 0.396585
vt 0.243494 0.396585
vt 0.211099 0.396585
vt 0.426043 0.402041
vt 0.426043 0.402041
vt 0.426043 0.402041
vt 0.426043 0.402041
vt 0.426043 0.402041
vt 0.426043 0.402041
vt 0.426043 0.402041
vt 0.426043 0.402041
vt 0.426043 0.402041
vt 0.426043 0.402041
vt 0.426043 0.402041
vt 0.426043 0.402041
vt 0.426043 0.402041
vt 0.426043 0.402041
vt 0.426043 0.402041
vt 0.426043 0.402041
vt 0.327394 0.397798
vt 0.327394 0.397798
vt 0.327394 0.397798
vt 0.327394 0.397798
vt 0.327394 0.397798
vt 0.327394 0.397798
vt 0.327394 0.397798
vt 0.327394 0.397798
vt 0.327394 0.397798
vt 0.327394 0.397798
vt 0.327394 0.397798
vt 0.327394 0.397798
vt 0.327394 0.397798
vt 0.327394 0.397798
vt 0.327394 0.397798
vt 0.327394 0.397798
vt 0.327394 0.397798
vt 0.327394 0.397798
vt 0.327394 0.397798
vt 0.327394 0.397798
vt 0.327394 0.397798
vt 0.327394 0.397798
vt 0.327394 0.397798
vt 0.327394 0.397798
vt 0.327394 0.397798
vt 0.327394 0.397798
vt 0.327394 0.397798
vt 0.327394 0.397798
vt 0.327394 0.397798
vt 0.327394 0.397798
vt 0.327394 0.397798
vt 0.327394 0.397798
vn -0.159972 0.128223 0.978758
vn -0.159972 0.128223 0.978758
vn -0.159972 0.128223 0.978758
vn -0.159972 0.128223 0.978758
vn -0.002757 0.027686 -0.999613
vn -0.002757 0.027686 -0.999613
vn -0.002757 0.027686 -0.999613
vn -0.002757 0.027686 -0.999613
vn 0.955206 0.294203 0.032024
vn 0.954038 0.298299 0.028796
vn 0.967818 0.240666 0.073548
vn 0.967817 0.240666 0.073548
vn -0.995979 0.088718 0.012469
vn -0.995979 0.088718 0.012469
vn -0.995979 0.088718 0.012469
vn -0.995979 0.088718 0.012469
vn -0.046972 0.550946 -0.833218
vn -0.046972 0.550946 -0.833218
vn -0.046972 0.550946 -0.833218
vn -0.046972 0.550946 -0.833218
vn 0.954038 0.298299 0.028796
vn 0.955206 0.294203 0.032024
vn 0.929667 0.367419 -0.026869
vn 0.929667 0.367419 -0.026869
vn -0.106034 0.642260 0.759118
vn -0.106034 0.642260 0.759118
vn -0.106034 0.642260 0.759118
vn -0.106034 0.642260 0.759118
vn -0.694364 0.714800 0.083183
vn -0.694364 0.714800 0.083183
vn -0.694364 0.714800 0.083183
vn -0.694364 0.714800 0.083183
vn 0.004663 -0.135349 -0.990787
vn 0.004663 -0.135349 -0.990787
vn 0.004663 -0.135349 -0.990787
vn 0.004663 -0.135349 -0.990787
vn 0.726131 0.683205 -0.077238
vn 0.726131 0.683205 -0.077238
vn 0.726131 0.683205 -0.077238
vn 0.726131 0.683205 -0.077238
vn -0.019371 -0.037100 0.999124
vn -0.019371 -0.037100 0.999124
vn -0.019371 -0.037100 0.999124
vn -0.019371 -0.037100 0.999124
vn -0.959164 -0.084609 0.269899
vn -0.959164 -0.084609 0.269899
vn -0.959164 -0.084609 0.269899
vn -0.959164 -0.084609 0.269899
vn -0.016056 -0.024477 0.999572
vn -0.013548 -0.049580 0.998678
vn -0.011107 -0.053826 0.998489
vn -0.012538 -0.040065 0.999118
vn -0.013548 -0.049580 0.998678
vn -0.014254 -0.048352 0.998729
vn -0.014254 -0.048352 0.998729
vn -0.011107 -0.053826 0.998489
vn 0.000000 -1.000000 0.000001
vn 0.000000 -1.000000 0.000001
vn 0.000000 -1.000000 0.000001
vn 0.000000 -1.000000 0.000001
vn -0.016545 -0.022312 0.999614
vn -0.016056 -0.024477 0.999572
vn -0.012538 -0.040065 0.999118
vn -0.016545 -0.022312 0.999614
vn -0.230886 0.958689 0.166154
vn -0.230886 0.958689 0.166154
vn -0.230886 0.958689 0.166154
vn -0.230886 0.958689 0.166154
vn -0.988854 -0.048287 0.140844
vn -0.988854 -0.048287 0.140844
vn -0.988854 -0.048287 0.140844
vn -0.988854 -0.048287 0.140844
vn 0.920082 0.363830 0.145180
vn 0.920082 0.363830 0.145180
vn 0.920082 0.363830 0.145180
vn 0.920082 0.363830 0.145180
vn 0.823575 0.566991 -0.015674
vn 0.774741 0.624530 -0.098684
vn 0.774741 0.624530 -0.098684
vn 0.804899 0.591338 -0.049577
vn 0.862654 0.480072 -0.159244
vn 0.862654 0.480072 -0.159244
vn 0.862654 0.480072 -0.159244
vn 0.862654 0.480072 -0.159244
vn 0.000000 1.000000 0.000000
vn 0.000000 1.000000 0.000000
vn 0.000000 1.000000 0.000000
vn 0.000000 1.000000 0.000000
vn 0.837503 0.546302 0.011941
vn 0.823575 0.566991 -0.015674
vn 0.804899 0.591338 -0.049577
vn 0.837503 0.546302 0.011941
vn 0.410840 0.907232 -0.090227
vn 0.410840 0.907232 -0.090227
vn 0.410840 0.907232 -0.090227
vn 0.410840 0.907232 -0.090227
vn 0.326949 0.171066 0.929430
vn 0.326949 0.171066 0.929430
vn 0.326949 0.171066 0.929430
vn 0.326949 0.171066 0.929430
vn 0.287522 0.088044 -0.953719
vn 0.287522 0.088044 -0.953719
vn 0.287522 0.088044 -0.953719
vn 0.287522 0.088044 -0.953719
vn 0.072866 0.997327 -0.005415
vn 0.070670 0.997489 -0.004748
vn 0.070695 0.997487 -0.004723
vn 0.072995 0.997317 -0.005526
vn 0.070670 0.997489 -0.004748
vn 0.071708 0.997402 -0.006907
vn 0.071769 0.997397 -0.006966
vn 0.070695 0.997487 -0.004723
vn 0.071708 0.997402 -0.006907
vn 0.074417 0.997193 -0.008297
vn 0.074468 0.997190 -0.008224
vn 0.071769 0.997397 -0.006966
vn 0.074417 0.997193 -0.008297
vn 0.072866 0.997327 -0.005415
vn 0.072995 0.997317 -0.005526
vn 0.074468 0.997190 -0.008224
vn 0.072995 0.997317 -0.005526
vn 0.070695 0.997487 -0.004723
vn 0.070701 0.997486 -0.004718
vn 0.073019 0.997315 -0.005547
vn 0.070695 0.997487 -0.004723
vn 0.071769 0.997397 -0.006966
vn 0.071781 0.997396 -0.006979
vn 0.070701 0.997486 -0.004718
vn 0.071769 0.997397 -0.006966
vn 0.074468 0.997190 -0.008224
vn 0.074480 0.997189 -0.008206
vn 0.071781 0.997396 -0.006979
vn 0.074468 0.997190 -0.008224
vn 0.072995 0.997317 -0.005526
vn 0.073019 0.997315 -0.005547
vn 0.074480 0.997189 -0.008206
vn 0.073019 0.997315 -0.005547
vn 0.070701 0.997486 -0.004718
vn 0.070700 0.997487 -0.004717
vn 0.073025 0.997315 -0.005558
vn 0.070701 0.997486 -0.004718
vn 0.071781 0.997396 -0.006979
vn 0.071785 0.997396 -0.006984
vn 0.070700 0.997487 -0.004717
vn 0.071781 0.997396 -0.006979
vn 0.074480 0.997189 -0.008206
vn 0.074485 0.997188 -0.008201
vn 0.071785 0.997396 -0.006984
vn 0.074480 0.997189 -0.008206
vn 0.073019 0.997315 -0.005547
vn 0.073025 0.997315 -0.005558
vn 0.074485 0.997188 -0.008201
vn 0.073025 0.997315 -0.005558
vn 0.070700 0.997487 -0.004717
vn 0.071424 0.997432 -0.005383
vn 0.072757 0.997332 -0.005886
vn 0.070700 0.997487 -0.004717
vn 0.071785 0.997396 -0.006984
vn 0.072060 0.997378 -0.006672
vn 0.071424 0.997432 -0.005383
vn 0.071785 0.997396 -0.006984
vn 0.074485 0.997188 -0.008201
vn 0.073356 0.997280 -0.007153
vn 0.072060 0.997378 -0.006672
vn 0.074485 0.997188 -0.008201
vn 0.073025 0.997315 -0.005558
vn 0.072757 0.997332 -0.005886
vn 0.073356 0.997280 -0.007153
vn 0.072757 0.997332 -0.005886
vn 0.071424 0.997432 -0.005383
vn 0.072060 0.997378 -0.006672
vn 0.073356 0.997280 -0.007153
s off
f 1/1/1 2/2/2 4/3/3 3/87/4
f 5/5/5 6/86/6 8/7/7 7/8/8
f 2/9/9 8/10/10 6/11/11 4/12/12
f 7/13/13 1/14/14 3/15/15 5/88/16
f 7/17/17 8/18/18 10/19/19 9/20/20
f 8/21/21 2/22/22 11/23/23 10/24/24
f 2/25/25 1/26/26 12/27/27 11/28/28
f 1/29/29 7/30/30 9/31/31 12/32/32
f 9/33/33 10/34/34 14/35/35 13/36/36
f 29/77/37 30/78/38 31/79/39 32/80/40
f 22/53/41 21/54/42 23/55/43 24/56/44
f 12/45/45 9/46/46 13/47/47 16/48/48
f 11/41/49 12/72/50 17/69/51 18/59/52
f 12/42/53 16/70/54 19/66/55 17/68/56
f 16/43/57 15/67/58 20/64/59 19/65/60
f 15/44/61 11/71/62 18/61/63 20/63/64
f 18/49/65 17/60/66 21/57/67 22/58/68
f 17/50/69 19/51/70 23/55/71 21/54/72
f 20/52/73 18/62/74 22/53/75 24/56/76
f 10/37/77 11/38/78 26/74/79 25/84/80
f 11/38/81 15/39/82 27/75/83 26/74/84
f 15/39/85 14/40/86 28/76/87 27/75/88
f 14/40/89 10/37/90 25/84/91 28/76/92
f 25/73/93 26/83/94 30/82/95 29/81/96
f 26/74/97 27/75/98 31/79/99 30/78/100
f 28/76/101 25/84/102 29/77/103 32/80/104
f 4/85/105 6/6/106 34/90/107 33/89/108
f 6/6/109 5/16/110 35/91/111 34/90/112
f 5/16/113 3/4/114 36/92/115 35/91/116
f 3/4/117 4/85/118 33/89/119 36/92/120
f 33/105/121 34/135/122 38/133/123 37/108/124
f 34/106/125 35/134/126 39/131/127 38/107/128
f 35/109/129 36/132/130 40/129/131 39/110/132
f 36/111/133 33/136/134 37/130/135 40/112/136
f 37/93/137 38/94/138 42/98/139 41/97/140
f 38/94/141 39/95/142 43/99/143 42/98/144
f 39/95/145 40/96/146 44/100/147 43/99/148
f 40/96/149 37/93/150 41/97/151 44/100/152
f 41/113/153 42/127/154 46/125/155 45/116/156
f 42/114/157 43/126/158 47/123/159 46/115/160
f 43/117/161 44/124/162 48/121/163 47/118/164
f 44/119/165 41/128/166 45/122/167 48/120/168
f 45/101/169 46/102/170 47/103/171 48/104/172
