# This file uses meters as units for non-parametric coordinates.

v -2.344460 -0.031008 2.317758
v 2.344460 -0.031008 2.317758
v -0.918252 2.680686 0.891554
v 0.918256 2.680686 0.891554
v -0.918253 2.680686 -0.944957
v 0.918256 2.680686 -0.944957
v -2.344460 -0.031008 -2.371162
v 2.344460 -0.031008 -2.371162
v -1.416835 2.078639 1.390135
v 1.416835 2.078639 1.390135
v 1.416835 2.078639 -1.443537
v -1.416835 2.078639 -1.443539
v -0.391465 2.943780 0.364764
v 0.391462 2.943780 0.364764
v 0.391462 2.943780 -0.418168
v -0.391465 2.943780 -0.418168
v -1.756458 -0.031008 2.371162
v 1.756451 -0.031008 2.371160
v 1.061480 2.078639 1.390135
v -1.061483 2.078639 1.390135
v -1.756458 -0.031008 2.137821
v 1.756451 -0.031008 2.137821
v 1.061480 2.078639 1.210199
v -1.061483 2.078639 1.210199
v -0.813572 -0.031009 2.137821
v 0.813569 -0.031009 2.137821
v 0.491660 1.843731 1.311502
v -0.491666 1.843731 1.311502
v -0.716996 0.601885 1.859534
v 0.716993 0.601885 1.859534
v -0.716996 0.601885 1.761011
v 0.716993 0.601885 1.761011
v 0.491660 1.843731 1.212980
v -0.491666 1.843731 1.212980
v -0.017459 1.843731 1.212980
v -0.825899 2.305100 -0.934675
v -0.029329 2.305100 -0.934675
v -1.204409 0.219051 -1.600455
v 1.204403 0.219051 -1.600453
v 0.825889 2.305100 -0.934675
v 2.344460 -0.031008 2.205857
v 1.416835 2.078639 1.325748
v 0.918256 2.680686 0.810232
v 0.391462 2.943780 0.322818
v -0.391465 2.943780 0.322818
v -0.918252 2.680686 0.810233
v -1.416835 2.078639 1.325750
v -2.344460 -0.031008 2.205857
v 2.344460 -0.031008 -2.273884
v 1.416835 2.078639 -1.337814
v 0.918256 2.680686 -0.836844
v 0.391462 2.943780 -0.364798
v -0.391465 2.943780 -0.364798
v -0.918253 2.680686 -0.836844
v -1.416835 2.078639 -1.337814
v -2.344460 -0.031008 -2.273886
v -0.342698 2.943780 -0.364798
v -0.342698 2.943780 0.322818
v 0.337342 2.943780 0.322818
v 0.337342 2.943780 -0.364798
vt 0.200391 0.168120
vt 0.200391 0.168120
vt 0.200391 0.168120
vt 0.200391 0.168120
vt 0.190464 0.062508
vt 0.190464 0.062508
vt 0.190464 0.062508
vt 0.190464 0.062508
vt 0.190464 0.062508
vt 0.190464 0.062508
vt 0.200391 0.168120
vt 0.200391 0.168120
vt 0.200391 0.168120
vt 0.200391 0.168120
vt 0.146607 0.062508
vt 0.146607 0.062508
vt 0.146607 0.062508
vt 0.146607 0.062508
vt 0.146607 0.062508
vt 0.146607 0.062508
vt 0.146607 0.062508
vt 0.146607 0.062508
vt 0.132109 0.062508
vt 0.132109 0.062508
vt 0.132109 0.062508
vt 0.132109 0.062508
vt 0.169693 0.168120
vt 0.169693 0.168120
vt 0.169693 0.168120
vt 0.169693 0.168120
vt 0.132109 0.062508
vt 0.132109 0.062508
vt 0.132109 0.062508
vt 0.132109 0.062508
vt 0.239939 0.168120
vt 0.239939 0.168120
vt 0.239939 0.168120
vt 0.239939 0.168120
vt 0.164836 0.062508
vt 0.164836 0.062508
vt 0.164836 0.062508
vt 0.164836 0.062508
vt 0.239939 0.168120
vt 0.239939 0.168120
vt 0.239939 0.168120
vt 0.239939 0.168120
vt 0.164836 0.062508
vt 0.164836 0.062508
vt 0.164836 0.062508
vt 0.164836 0.062508
vt 0.169693 0.168120
vt 0.169693 0.168120
vt 0.169693 0.168120
vt 0.169693 0.168120
vt 0.169693 0.168120
vt 0.169693 0.168120
vt 0.169693 0.168120
vt 0.169693 0.168120
vt 0.113778 0.168120
vt 0.113778 0.168120
vt 0.113778 0.168120
vt 0.113778 0.168120
vt 0.113778 0.168120
vt 0.113778 0.168120
vt 0.113778 0.168120
vt 0.113778 0.168120
vt 0.113778 0.168120
vt 0.113778 0.168120
vt 0.113778 0.168120
vt 0.113778 0.168120
vt 0.169693 0.168120
vt 0.169693 0.168120
vt 0.169693 0.168120
vt 0.169693 0.168120
vt 0.297761 0.063475
vt 0.297761 0.063475
vt 0.297761 0.063475
vt 0.297761 0.063475
vt 0.297761 0.063475
vt 0.293376 0.063475
vt 0.293376 0.063475
vt 0.293376 0.063475
vt 0.293376 0.063475
vt 0.297761 0.063475
vt 0.297761 0.063475
vt 0.297761 0.063475
vt 0.297761 0.063475
vt 0.297761 0.063475
vt 0.194428 0.060186
vt 0.194428 0.060186
vt 0.194428 0.060186
vt 0.194428 0.060186
vt 0.194428 0.060186
vt 0.194428 0.060186
vt 0.194428 0.060186
vt 0.194428 0.060186
vt 0.194428 0.060186
vt 0.194428 0.060186
vt 0.194428 0.060186
vt 0.194428 0.060186
vt 0.194428 0.060186
vt 0.194428 0.060186
vt 0.194428 0.060186
vt 0.194428 0.060186
vt 0.169693 0.168120
vt 0.169693 0.168120
vt 0.169693 0.168120
vt 0.111283 0.474168
vt 0.111283 0.474168
vt 0.111283 0.474168
vt 0.111283 0.474168
vt 0.111283 0.474168
vt 0.111283 0.474168
vt 0.111283 0.474168
vt 0.111283 0.474168
vt 0.111283 0.474168
vt 0.111283 0.474168
vt 0.141283 0.168120
vt 0.141283 0.168120
vt 0.141283 0.168120
vt 0.141283 0.168120
vt 0.171982 0.168120
vt 0.171982 0.168120
vt 0.171982 0.168120
vt 0.171982 0.168120
vt 0.210582 0.168120
vt 0.210582 0.168120
vt 0.210582 0.168120
vt 0.210582 0.168120
vt 0.264848 0.168120
vt 0.264848 0.168120
vt 0.264848 0.168120
vt 0.264848 0.168120
vt 0.210582 0.168120
vt 0.210582 0.168120
vt 0.210582 0.168120
vt 0.210582 0.168120
vt 0.171982 0.168120
vt 0.171982 0.168120
vt 0.171982 0.168120
vt 0.171982 0.168120
vt 0.141283 0.168120
vt 0.141283 0.168120
vt 0.141283 0.168120
vt 0.141283 0.168120
vt 0.132109 0.062508
vt 0.132109 0.062508
vt 0.132109 0.062508
vt 0.132109 0.062508
vt 0.146607 0.062508
vt 0.146607 0.062508
vt 0.146607 0.062508
vt 0.146607 0.062508
vt 0.164836 0.062508
vt 0.164836 0.062508
vt 0.164836 0.062508
vt 0.164836 0.062508
vt 0.190464 0.062508
vt 0.190464 0.062508
vt 0.190464 0.062508
vt 0.190464 0.062508
vt 0.190464 0.062508
vt 0.190464 0.062508
vt 0.164836 0.062508
vt 0.164836 0.062508
vt 0.164836 0.062508
vt 0.164836 0.062508
vt 0.146607 0.062508
vt 0.146607 0.062508
vt 0.146607 0.062508
vt 0.146607 0.062508
vt 0.132109 0.062508
vt 0.132109 0.062508
vt 0.132109 0.062508
vt 0.132109 0.062508
vt 0.189965 0.061761
vt 0.189965 0.061761
vt 0.189965 0.061761
vt 0.189965 0.061761
vt 0.189965 0.061761
vt 0.189965 0.061761
vt 0.189965 0.061761
vt 0.189965 0.061761
vt 0.297761 0.063475
vt 0.297761 0.063475
vt 0.297761 0.063475
vt 0.297761 0.063475
vn 0.000000 0.637822 0.770184
vn 0.000000 0.637822 0.770184
vn 0.000000 0.637822 0.770184
vn 0.000000 0.637822 0.770184
vn 0.000000 1.000000 0.000000
vn 0.000000 1.000000 0.000000
vn 0.000000 1.000000 0.000000
vn 0.000000 1.000000 0.000000
vn 0.000000 1.000000 0.000000
vn 0.000000 1.000000 0.000000
vn 0.000000 0.637823 -0.770183
vn 0.000000 0.637823 -0.770183
vn 0.000000 0.637823 -0.770183
vn 0.000000 0.637823 -0.770183
vn 0.770185 0.637821 0.000002
vn 0.770185 0.637821 0.000000
vn 0.770185 0.637821 -0.000000
vn 0.770185 0.637820 0.000002
vn -0.770183 0.637823 0.000000
vn -0.770183 0.637823 0.000000
vn -0.770183 0.637823 0.000000
vn -0.770183 0.637823 0.000000
vn 0.915414 0.402513 0.000000
vn 0.915414 0.402513 0.000000
vn 0.915414 0.402513 0.000000
vn 0.915414 0.402513 0.000000
vn 0.000000 0.402513 -0.915414
vn 0.000000 0.402513 -0.915414
vn 0.000000 0.402513 -0.915414
vn 0.000000 0.402513 -0.915414
vn -0.915414 0.402513 0.000000
vn -0.915414 0.402513 0.000000
vn -0.915414 0.402513 0.000000
vn -0.915414 0.402513 0.000000
vn 0.000000 0.894632 0.446805
vn 0.000000 0.894632 0.446805
vn 0.000000 0.894632 0.446805
vn 0.000000 0.894632 0.446805
vn 0.446802 0.894633 -0.000003
vn 0.446803 0.894633 -0.000000
vn 0.446803 0.894633 -0.000000
vn 0.446802 0.894633 -0.000003
vn 0.000000 0.894631 -0.446806
vn 0.000000 0.894631 -0.446806
vn 0.000000 0.894631 -0.446806
vn 0.000000 0.894631 -0.446806
vn -0.446807 0.894630 0.000000
vn -0.446807 0.894630 0.000000
vn -0.446807 0.894630 0.000000
vn -0.446807 0.894630 0.000000
vn 0.051083 0.427857 0.902402
vn 0.051083 0.427857 0.902402
vn 0.051083 0.427857 0.902402
vn 0.051083 0.427857 0.902402
vn 0.000000 0.000000 0.000000
vn 0.000000 0.000000 0.000000
vn 0.000000 0.000000 0.000000
vn 0.000000 0.000000 0.000000
vn -0.051086 0.427858 0.902401
vn -0.051086 0.427858 0.902401
vn -0.051086 0.427858 0.902401
vn -0.051086 0.427858 0.902401
vn -0.949791 -0.312886 0.000000
vn -0.949791 -0.312886 0.000000
vn -0.949791 -0.312886 0.000000
vn -0.949791 -0.312886 0.000000
vn 0.000000 -1.000000 0.000000
vn 0.000000 -1.000000 0.000000
vn 0.000000 -1.000000 0.000000
vn 0.000000 -1.000000 0.000000
vn 0.949791 -0.312886 0.000000
vn 0.949791 -0.312887 0.000000
vn 0.949791 -0.312887 0.000000
vn 0.949791 -0.312887 0.000000
vn 0.000000 0.000000 -0.000000
vn 0.000000 0.000000 -0.000000
vn 0.000000 0.000000 -1.000000
vn 0.000000 0.000000 -1.000000
vn -0.000864 0.402681 0.915340
vn -0.000809 0.402253 0.915528
vn -0.000641 0.400957 0.916096
vn -0.000644 0.402638 0.915359
vn -0.000568 0.402624 0.915366
vn -0.000809 0.402253 0.915528
vn 0.000809 0.402253 0.915528
vn 0.000641 0.400957 0.916096
vn -0.000641 0.400957 0.916096
vn 0.000809 0.402253 0.915528
vn 0.000864 0.402681 0.915340
vn 0.000568 0.402623 0.915366
vn 0.000644 0.402638 0.915359
vn 0.000641 0.400957 0.916096
vn 0.000568 0.402623 0.915366
vn -0.000568 0.402624 0.915366
vn -0.000644 0.402638 0.915359
vn 0.000644 0.402638 0.915359
vn 0.000000 1.000000 0.000000
vn 0.000000 1.000000 0.000000
vn 0.000000 0.993825 -0.110961
vn 0.000000 0.993825 -0.110961
vn -0.983934 -0.178536 -0.000000
vn -0.983933 -0.178536 -0.000000
vn -0.974332 -0.171639 -0.145661
vn -0.974825 -0.171856 -0.142061
vn 0.000000 -1.000000 -0.000000
vn 0.000000 -1.000000 -0.000000
vn 0.000000 -1.000000 -0.000000
vn 0.000000 -1.000000 -0.000000
vn 0.983934 -0.178533 0.000000
vn 0.983934 -0.178533 0.000000
vn 0.974826 -0.171854 -0.142062
vn 0.974332 -0.171637 -0.145662
vn 0.000000 0.000000 -0.000000
vn 0.000000 0.000000 -0.000000
vn 0.000000 0.000000 -1.000000
vn -0.000000 -0.304048 0.952657
vn -0.000000 -0.304048 0.952657
vn -0.000000 -0.304048 0.952657
vn -0.000000 -0.304048 0.952657
vn -0.000000 -0.304048 0.952657
vn 0.000000 -0.977694 -0.210033
vn 0.000000 -0.977694 -0.210033
vn 0.000000 -0.977694 -0.210033
vn 0.000000 -0.977694 -0.210033
vn 0.974332 -0.171637 -0.145662
vn 0.974826 -0.171854 -0.142062
vn 0.974045 -0.171512 -0.147717
vn 0.974045 -0.171512 -0.147717
vn 0.000000 0.993825 -0.110961
vn 0.000000 0.993825 -0.110961
vn 0.000000 0.993577 -0.113158
vn 0.000000 0.993577 -0.113158
vn -0.974825 -0.171856 -0.142061
vn -0.974332 -0.171639 -0.145661
vn -0.974045 -0.171514 -0.147716
vn -0.974045 -0.171514 -0.147716
vn 0.000000 -0.977694 -0.210033
vn 0.000000 -0.977694 -0.210033
vn 0.000000 -0.977694 -0.210033
vn 0.000000 -0.977694 -0.210033
vn 0.915414 0.402513 0.000000
vn 0.915414 0.402513 0.000000
vn 0.915414 0.402513 0.000000
vn 0.915414 0.402513 0.000000
vn 0.770185 0.637821 -0.000000
vn 0.770185 0.637821 0.000000
vn 0.770185 0.637821 -0.000000
vn 0.770185 0.637821 -0.000000
vn 0.446803 0.894633 -0.000000
vn 0.446803 0.894633 -0.000000
vn 0.446803 0.894633 0.000000
vn 0.446803 0.894633 0.000000
vn 0.000000 1.000000 -0.000001
vn 0.000000 1.000000 0.000000
vn 0.000000 1.000000 0.000000
vn 0.000000 1.000000 -0.000001
vn -0.446807 0.894631 -0.000000
vn -0.446807 0.894630 -0.000000
vn -0.446807 0.894630 0.000000
vn -0.446807 0.894630 0.000000
vn -0.770183 0.637823 0.000000
vn -0.770183 0.637823 0.000000
vn -0.770183 0.637823 0.000000
vn -0.770183 0.637823 0.000000
vn -0.915414 0.402513 0.000000
vn -0.915414 0.402513 0.000000
vn -0.915414 0.402513 0.000000
vn -0.915414 0.402513 0.000000
vn 0.915414 0.402513 0.000000
vn 0.915414 0.402513 0.000000
vn 0.915414 0.402514 0.000000
vn 0.915414 0.402514 0.000000
vn 0.770185 0.637821 -0.000000
vn 0.770185 0.637821 -0.000000
vn 0.770185 0.637821 0.000000
vn 0.770185 0.637821 0.000000
vn 0.446803 0.894633 0.000000
vn 0.446803 0.894633 0.000000
vn 0.446803 0.894633 0.000000
vn 0.446803 0.894633 0.000000
vn 0.000000 1.000000 -0.000005
vn 0.000000 1.000000 -0.000001
vn 0.000000 1.000000 -0.000001
vn 0.000000 1.000000 -0.000005
vn 0.000000 1.000000 -0.000009
vn 0.000000 1.000000 -0.000009
vn -0.446807 0.894630 -0.000003
vn -0.446807 0.894630 -0.000000
vn -0.446807 0.894631 -0.000000
vn -0.446807 0.894630 -0.000003
vn -0.770183 0.637823 0.000000
vn -0.770183 0.637823 0.000000
vn -0.770183 0.637823 0.000000
vn -0.770183 0.637823 0.000000
vn -0.915414 0.402513 0.000000
vn -0.915414 0.402513 0.000000
vn -0.915414 0.402513 0.000000
vn -0.915414 0.402513 0.000000
vn 0.000000 1.000000 0.000000
vn 0.000000 1.000000 0.000000
vn 0.000000 1.000000 -0.000001
vn 0.000000 1.000000 -0.000005
vn 0.000000 1.000000 -0.000001
vn 0.000000 1.000000 0.000000
vn 0.000000 1.000000 0.000000
vn 0.000000 1.000000 -0.000005
s off
f 9/1/1 10/2/2 4/3/3 3/4/4
f 13/5/5 14/6/6 44/7/7 59/8/8 58/9/9 45/10/10
f 5/11/11 6/12/12 11/13/13 12/14/14
f 10/15/15 42/16/16 43/17/17 4/18/18
f 46/19/19 47/20/20 9/21/21 3/22/22
f 2/23/23 41/24/24 42/25/25 10/26/26
f 12/27/27 11/28/28 8/29/29 7/30/30
f 47/31/31 48/32/32 1/33/33 9/34/34
f 3/35/35 4/36/36 14/37/37 13/38/38
f 4/39/39 43/40/40 44/41/41 14/42/42
f 6/43/43 5/44/44 16/45/45 15/46/46
f 45/47/47 46/48/48 3/49/49 13/50/50
f 2/51/51 10/52/52 19/53/53 18/54/54
f 10/52/55 9/55/56 20/56/57 19/53/58
f 9/55/59 1/57/60 17/58/61 20/56/62
f 18/59/63 19/60/64 23/61/65 22/62/66
f 19/63/67 20/64/68 24/65/69 23/66/70
f 20/67/71 17/68/72 21/69/73 24/70/74
f 21/71/75 22/72/76 26/73/77 25/74/78
f 22/75/79 23/76/80 27/77/81 30/78/82 26/79/83
f 23/80/84 24/81/85 28/82/86 27/83/87
f 24/84/88 21/85/89 25/186/90 29/185/91 28/88/92
f 25/86/93 26/187/94 30/184/95 29/87/96
f 29/89/97 30/90/98 32/91/99 31/92/100
f 30/93/101 27/94/102 33/95/103 32/96/104
f 27/97/105 28/98/106 34/99/107 33/100/108
f 28/101/109 29/102/110 31/103/111 34/104/112
f 33/105/113 34/106/114 35/107/115
f 37/108/116 36/109/117 38/110/118 39/111/119 40/112/120
f 35/113/121 34/114/122 36/109/123 37/108/124
f 34/114/125 31/115/126 38/110/127 36/109/128
f 31/115/129 32/116/130 39/111/131 38/110/132
f 32/116/133 33/117/134 40/112/135 39/111/136
f 33/117/137 35/113/138 37/108/139 40/112/140
f 42/118/141 41/119/142 49/120/143 50/121/144
f 43/122/145 42/123/146 50/124/147 51/125/148
f 44/126/149 43/127/150 51/128/151 52/129/152
f 57/130/153 58/131/154 59/132/155 60/133/156
f 53/134/157 54/135/158 46/136/159 45/137/160
f 54/138/161 55/139/162 47/140/163 46/141/164
f 55/142/165 56/143/166 48/144/167 47/145/168
f 50/146/169 49/147/170 8/148/171 11/149/172
f 51/150/173 50/151/174 11/152/175 6/153/176
f 52/154/177 51/155/178 6/156/179 15/157/180
f 53/158/181 57/159/182 60/160/183 52/161/184 15/162/185 16/163/186
f 5/164/187 54/165/188 53/166/189 16/167/190
f 12/168/191 55/169/192 54/170/193 5/171/194
f 7/172/195 56/173/196 55/174/197 12/175/198
f 45/176/199 58/177/200 57/178/201 53/179/202
f 60/180/203 59/181/204 44/182/205 52/183/206
