# This file uses meters as units for non-parametric coordinates.

v 0.727053 2.762554 0.044846
v 0.727051 2.762590 -0.002506
v 0.726896 3.139412 0.045120
v 0.726894 3.139447 -0.002234
v -0.723640 3.138807 0.045189
v -0.723644 3.138841 -0.002163
v -0.723484 2.761948 0.044916
v -0.723486 2.761983 -0.002438
v 1.604404 2.762921 0.044804
v 1.604403 2.762956 -0.002548
v 1.604244 3.139815 -0.002275
v 1.604246 3.139780 0.045076
v -1.600992 3.138440 0.045231
v -1.600994 3.138474 -0.002121
v -1.600838 2.761616 -0.002394
v -1.600834 2.761581 0.044958
v 2.889099 2.763460 0.044743
v 2.889101 2.763493 -0.002611
v 2.888943 3.140350 -0.002338
v 2.888943 3.140316 0.045015
v -2.885691 3.137903 0.045294
v -2.885693 3.137936 -0.002060
v -2.885532 2.761079 -0.002333
v -2.885534 2.761045 0.045021
v 3.735001 2.763812 0.044701
v 3.735001 2.763846 -0.002651
v 3.734842 3.140703 -0.002378
v 3.734844 3.140668 0.044975
v -3.731588 3.137550 0.045334
v -3.731590 3.137584 -0.002018
v -3.731434 2.760727 -0.002293
v -3.731432 2.760692 0.045061
v 4.804486 2.764258 0.044649
v 4.804485 2.764293 -0.002703
v 4.804329 3.141150 -0.002430
v 4.804329 3.141116 0.044924
v -4.801071 3.137103 0.045385
v -4.801073 3.137137 -0.001966
v -4.800919 2.760279 -0.002241
v -4.800919 2.760245 0.045113
v 5.692681 2.764629 0.044607
v 5.692680 2.764664 -0.002747
v 5.692522 3.141522 -0.002472
v 5.692524 3.141487 0.044880
v -5.689266 3.136732 0.045429
v -5.689268 3.136766 -0.001925
v -5.689114 2.759908 -0.002197
v -5.689112 2.759874 0.045155
v -5.863913 -0.036988 -0.129101
v -5.863913 -0.036988 0.129101
v -5.863913 3.766789 -0.129101
v -5.863913 3.766789 0.129101
v -5.605711 3.766789 -0.129101
v -5.605711 3.766789 0.129101
v -5.605711 -0.036988 -0.129101
v -5.605711 -0.036988 0.129101
v -5.863913 3.241659 -0.129101
v -5.863913 3.241659 0.129101
v -5.605711 3.241659 0.129101
v -5.605711 3.241659 -0.129101
v -5.863913 2.713219 -0.129101
v -5.863913 2.713219 0.129101
v -5.605711 2.713220 0.129101
v -5.605711 2.713220 -0.129101
v 5.605715 -0.036988 -0.129101
v 5.605715 -0.036988 0.129101
v 5.605715 3.766789 -0.129101
v 5.605715 3.766789 0.129101
v 5.863914 3.766789 -0.129101
v 5.863914 3.766789 0.129101
v 5.863914 -0.036988 -0.129101
v 5.863914 -0.036988 0.129101
v 5.605715 3.241659 -0.129101
v 5.605715 3.241659 0.129101
v 5.863914 3.241659 0.129101
v 5.863914 3.241659 -0.129101
v 5.605715 2.713219 -0.129101
v 5.605715 2.713219 0.129101
v 5.863914 2.713220 0.129101
v 5.863914 2.713220 -0.129101
vt 0.302932 0.222350
vt 0.892563 0.949739
vt 0.892563 0.949739
vt 0.892563 0.949739
vt 0.892563 0.949739
vt 0.892563 0.949739
vt 0.892563 0.949739
vt 0.892563 0.949739
vt 0.892563 0.949739
vt 0.892563 0.949739
vt 0.892563 0.949739
vt 0.892563 0.949739
vt 0.872467 0.946413
vt 0.999064 0.946413
vt 0.999033 0.991175
vt 0.872467 0.991175
vt 0.892563 0.949739
vt 0.892563 0.949739
vt 0.892563 0.949739
vt 0.892563 0.949739
vt 0.892563 0.949739
vt 0.892563 0.949739
vt 0.892563 0.949739
vt 0.892563 0.949739
vt 0.892563 0.949739
vt 0.892563 0.949739
vt 0.892563 0.949739
vt 0.892563 0.949739
vt 0.892563 0.949739
vt 0.892563 0.949739
vt 0.892563 0.949739
vt 0.892563 0.949739
vt 0.892563 0.949739
vt 0.892563 0.949739
vt 0.892563 0.949739
vt 0.892563 0.949739
vt 0.892563 0.949739
vt 0.892563 0.949739
vt 0.892563 0.949739
vt 0.892563 0.949739
vt 0.892563 0.949739
vt 0.892563 0.949739
vt 0.892563 0.949739
vt 0.892563 0.949739
vt 0.892563 0.949739
vt 0.892563 0.949739
vt 0.892563 0.949739
vt 0.892563 0.949739
vt 0.872467 0.991058
vt 0.872455 0.946413
vt 0.999064 0.946532
vt 0.999046 0.991176
vt 0.872467 0.991294
vt 0.872479 0.946413
vt 0.999064 0.946293
vt 0.999021 0.991175
vt 0.999064 0.946530
vt 0.999046 0.991175
vt 0.872467 0.991056
vt 0.872455 0.946412
vt 0.999063 0.946293
vt 0.999021 0.991175
vt 0.872467 0.991294
vt 0.872478 0.946413
vt 0.302932 0.222350
vt 0.302932 0.222350
vt 0.302932 0.222350
vt 0.302932 0.222350
vt 0.302932 0.222350
vt 0.302932 0.222350
vt 0.302932 0.222350
vt 0.302932 0.222350
vt 0.302932 0.222350
vt 0.302932 0.222350
vt 0.302932 0.222350
vt 0.302932 0.222350
vt 0.302932 0.222350
vt 0.302932 0.222350
vt 0.302932 0.222350
vt 0.302932 0.222350
vt 0.302932 0.222350
vt 0.302932 0.222350
vt 0.302932 0.222350
vt 0.302932 0.222350
vt 0.302932 0.222350
vt 0.302932 0.222350
vt 0.302932 0.222350
vt 0.302932 0.222350
vt 0.302932 0.222350
vt 0.302932 0.222350
vt 0.302932 0.222350
vt 0.302932 0.222350
vt 0.302932 0.222350
vt 0.302932 0.222350
vt 0.302932 0.222350
vt 0.292334 0.219591
vt 0.292334 0.219591
vt 0.292334 0.219591
vt 0.292334 0.219591
vt 0.292334 0.219591
vt 0.292334 0.219591
vt 0.292334 0.219591
vt 0.292334 0.219591
vt 0.292334 0.219591
vt 0.292334 0.219591
vt 0.292334 0.219591
vt 0.292334 0.219591
vt 0.292334 0.219591
vt 0.292334 0.219591
vt 0.292334 0.219591
vt 0.292334 0.219591
vt 0.194325 0.471379
vt 0.194325 0.471379
vt 0.194325 0.471379
vt 0.194325 0.471379
vt 0.266737 0.471379
vt 0.266737 0.471379
vt 0.266737 0.471379
vt 0.266737 0.471379
vt 0.194325 0.471379
vt 0.194325 0.471379
vt 0.194325 0.471379
vt 0.194325 0.471379
vt 0.234554 0.471379
vt 0.234554 0.471379
vt 0.234554 0.471379
vt 0.234554 0.471379
vt 0.234554 0.471379
vt 0.234554 0.471379
vt 0.234554 0.471379
vt 0.234554 0.471379
vt 0.234554 0.471379
vt 0.234554 0.471379
vt 0.234554 0.471379
vt 0.234554 0.471379
vt 0.259697 0.219949
vt 0.259697 0.219949
vt 0.259697 0.219949
vt 0.259697 0.219949
vt 0.299926 0.219949
vt 0.299926 0.219949
vt 0.299926 0.219949
vt 0.299926 0.219949
vt 0.259697 0.219949
vt 0.259697 0.219949
vt 0.259697 0.219949
vt 0.259697 0.219949
vt 0.299926 0.219949
vt 0.299926 0.219949
vt 0.299926 0.219949
vt 0.299926 0.219949
vt 0.194325 0.471379
vt 0.194325 0.471379
vt 0.194325 0.471379
vt 0.194325 0.471379
vt 0.234554 0.471379
vt 0.234554 0.471379
vt 0.234554 0.471379
vt 0.234554 0.471379
vt 0.194325 0.471379
vt 0.194325 0.471379
vt 0.194325 0.471379
vt 0.194325 0.471379
vt 0.234554 0.471379
vt 0.234554 0.471379
vt 0.234554 0.471379
vt 0.234554 0.471379
vt 0.194325 0.471379
vt 0.194325 0.471379
vt 0.194325 0.471379
vt 0.194325 0.471379
vt 0.266737 0.471379
vt 0.266737 0.471379
vt 0.266737 0.471379
vt 0.266737 0.471379
vt 0.194325 0.471379
vt 0.194325 0.471379
vt 0.194325 0.471379
vt 0.194325 0.471379
vt 0.234554 0.471379
vt 0.234554 0.471379
vt 0.234554 0.471379
vt 0.234554 0.471379
vt 0.234554 0.471379
vt 0.234554 0.471379
vt 0.234554 0.471379
vt 0.234554 0.471379
vt 0.234554 0.471379
vt 0.234554 0.471379
vt 0.234554 0.471379
vt 0.234554 0.471379
vt 0.259697 0.219949
vt 0.259697 0.219949
vt 0.259697 0.219949
vt 0.259697 0.219949
vt 0.299926 0.219949
vt 0.299926 0.219949
vt 0.299926 0.219949
vt 0.299926 0.219949
vt 0.259697 0.219949
vt 0.259697 0.219949
vt 0.259697 0.219949
vt 0.259697 0.219949
vt 0.299926 0.219949
vt 0.299926 0.219949
vt 0.299926 0.219949
vt 0.299926 0.219949
vt 0.194325 0.471379
vt 0.194325 0.471379
vt 0.194325 0.471379
vt 0.194325 0.471379
vt 0.234554 0.471379
vt 0.234554 0.471379
vt 0.234554 0.471379
vt 0.234554 0.471379
vt 0.194325 0.471379
vt 0.194325 0.471379
vt 0.194325 0.471379
vt 0.194325 0.471379
vt 0.234554 0.471379
vt 0.234554 0.471379
vt 0.234554 0.471379
vt 0.234554 0.471379
vn -0.000418 1.000000 0.000729
vn -0.000418 1.000000 0.000729
vn -0.000418 1.000000 0.000727
vn -0.000418 1.000000 0.000727
vn 0.000418 -1.000000 -0.000735
vn 0.000418 -1.000000 -0.000735
vn 0.000418 -1.000000 -0.000735
vn 0.000418 -1.000000 -0.000735
vn -0.000048 0.000725 -1.000000
vn -0.000049 0.000726 -1.000000
vn -0.000049 0.000726 -1.000000
vn -0.000048 0.000725 -1.000000
vn 0.000048 -0.000725 1.000000
vn 0.000049 -0.000726 1.000000
vn 0.000049 -0.000726 1.000000
vn 0.000048 -0.000725 1.000000
vn 0.000418 -1.000000 -0.000735
vn 0.000418 -1.000000 -0.000735
vn 0.000418 -1.000000 -0.000724
vn 0.000418 -1.000000 -0.000724
vn -0.000048 0.000725 -1.000000
vn -0.000048 0.000725 -1.000000
vn -0.000049 0.000724 -1.000000
vn -0.000049 0.000724 -1.000000
vn -0.000418 1.000000 0.000729
vn -0.000418 1.000000 0.000729
vn -0.000418 1.000000 0.000729
vn -0.000418 1.000000 0.000729
vn 0.000049 -0.000726 1.000000
vn 0.000049 -0.000726 1.000000
vn 0.000048 -0.000725 1.000000
vn 0.000048 -0.000725 1.000000
vn -0.000418 1.000000 0.000727
vn -0.000418 1.000000 0.000727
vn -0.000418 1.000000 0.000713
vn -0.000418 1.000000 0.000713
vn -0.000049 0.000726 -1.000000
vn -0.000049 0.000726 -1.000000
vn -0.000048 0.000725 -1.000000
vn -0.000048 0.000725 -1.000000
vn 0.000418 -1.000000 -0.000735
vn 0.000418 -1.000000 -0.000735
vn 0.000418 -1.000000 -0.000729
vn 0.000418 -1.000000 -0.000729
vn 0.000048 -0.000725 1.000000
vn 0.000048 -0.000725 1.000000
vn 0.000049 -0.000724 1.000000
vn 0.000049 -0.000724 1.000000
vn 0.000418 -1.000000 -0.000724
vn 0.000418 -1.000000 -0.000724
vn 0.000418 -1.000000 -0.000716
vn 0.000418 -1.000000 -0.000716
vn -0.000049 0.000724 -1.000000
vn -0.000049 0.000724 -1.000000
vn -0.000049 0.000724 -1.000000
vn -0.000049 0.000724 -1.000000
vn -0.000418 1.000000 0.000729
vn -0.000418 1.000000 0.000729
vn -0.000417 1.000000 0.000730
vn -0.000417 1.000000 0.000730
vn 0.000048 -0.000725 1.000000
vn 0.000048 -0.000725 1.000000
vn 0.000048 -0.000725 1.000000
vn 0.000048 -0.000725 1.000000
vn -0.000418 1.000000 0.000713
vn -0.000418 1.000000 0.000713
vn -0.000418 1.000000 0.000704
vn -0.000418 1.000000 0.000704
vn -0.000048 0.000725 -1.000000
vn -0.000048 0.000725 -1.000000
vn -0.000048 0.000725 -1.000000
vn -0.000048 0.000725 -1.000000
vn 0.000418 -1.000000 -0.000729
vn 0.000418 -1.000000 -0.000729
vn 0.000417 -1.000000 -0.000730
vn 0.000417 -1.000000 -0.000730
vn 0.000049 -0.000724 1.000000
vn 0.000049 -0.000724 1.000000
vn 0.000049 -0.000724 1.000000
vn 0.000049 -0.000724 1.000000
vn 0.000418 -1.000000 -0.000716
vn 0.000418 -1.000000 -0.000716
vn 0.000417 -1.000000 -0.000723
vn 0.000417 -1.000000 -0.000723
vn -0.000049 0.000724 -1.000000
vn -0.000049 0.000724 -1.000000
vn -0.000048 0.000724 -1.000000
vn -0.000048 0.000724 -1.000000
vn -0.000417 1.000000 0.000730
vn -0.000417 1.000000 0.000730
vn -0.000418 1.000000 0.000733
vn -0.000418 1.000000 0.000733
vn 0.000048 -0.000725 1.000000
vn 0.000048 -0.000725 1.000000
vn 0.000049 -0.000728 1.000000
vn 0.000049 -0.000728 1.000000
vn -0.000418 1.000000 0.000704
vn -0.000418 1.000000 0.000704
vn -0.000417 1.000000 0.000710
vn -0.000417 1.000000 0.000710
vn -0.000048 0.000725 -1.000000
vn -0.000048 0.000725 -1.000000
vn -0.000049 0.000728 -1.000000
vn -0.000049 0.000728 -1.000000
vn 0.000417 -1.000000 -0.000730
vn 0.000417 -1.000000 -0.000730
vn 0.000418 -1.000000 -0.000736
vn 0.000418 -1.000000 -0.000736
vn 0.000049 -0.000724 1.000000
vn 0.000049 -0.000724 1.000000
vn 0.000048 -0.000724 1.000000
vn 0.000048 -0.000724 1.000000
vn 0.000417 -1.000000 -0.000723
vn 0.000417 -1.000000 -0.000723
vn 0.000418 -1.000000 -0.000728
vn 0.000418 -1.000000 -0.000728
vn -0.000048 0.000724 -1.000000
vn -0.000048 0.000724 -1.000000
vn -0.000049 0.000725 -1.000000
vn -0.000049 0.000725 -1.000000
vn -0.000418 1.000000 0.000733
vn -0.000418 1.000000 0.000733
vn -0.000418 1.000000 0.000730
vn -0.000418 1.000000 0.000730
vn 0.000049 -0.000728 1.000000
vn 0.000049 -0.000728 1.000000
vn 0.000049 -0.000728 1.000000
vn 0.000049 -0.000728 1.000000
vn -0.000417 1.000000 0.000710
vn -0.000417 1.000000 0.000710
vn -0.000418 1.000000 0.000718
vn -0.000418 1.000000 0.000718
vn -0.000049 0.000728 -1.000000
vn -0.000049 0.000728 -1.000000
vn -0.000049 0.000728 -1.000000
vn -0.000049 0.000728 -1.000000
vn 0.000418 -1.000000 -0.000736
vn 0.000418 -1.000000 -0.000736
vn 0.000418 -1.000000 -0.000730
vn 0.000418 -1.000000 -0.000730
vn 0.000048 -0.000724 1.000000
vn 0.000048 -0.000724 1.000000
vn 0.000049 -0.000725 1.000000
vn 0.000049 -0.000725 1.000000
vn 0.000418 -1.000000 -0.000728
vn 0.000418 -1.000000 -0.000728
vn 0.000418 -1.000000 -0.000726
vn 0.000418 -1.000000 -0.000726
vn -0.000049 0.000725 -1.000000
vn -0.000049 0.000725 -1.000000
vn -0.000049 0.000726 -1.000000
vn -0.000049 0.000726 -1.000000
vn -0.000418 1.000000 0.000730
vn -0.000418 1.000000 0.000730
vn -0.000418 1.000000 0.000726
vn -0.000418 1.000000 0.000726
vn 0.000049 -0.000728 1.000000
vn 0.000049 -0.000728 1.000000
vn 0.000049 -0.000726 1.000000
vn 0.000049 -0.000726 1.000000
vn -0.000418 1.000000 0.000718
vn -0.000418 1.000000 0.000718
vn -0.000418 1.000000 0.000720
vn -0.000418 1.000000 0.000720
vn -0.000049 0.000728 -1.000000
vn -0.000049 0.000728 -1.000000
vn -0.000049 0.000726 -1.000000
vn -0.000049 0.000726 -1.000000
vn 0.000418 -1.000000 -0.000730
vn 0.000418 -1.000000 -0.000730
vn 0.000418 -1.000000 -0.000726
vn 0.000418 -1.000000 -0.000726
vn 0.000049 -0.000725 1.000000
vn 0.000049 -0.000725 1.000000
vn 0.000049 -0.000726 1.000000
vn 0.000049 -0.000726 1.000000
vn -1.000000 0.000000 0.000000
vn -1.000000 0.000000 0.000000
vn -1.000000 0.000000 0.000000
vn -1.000000 0.000000 0.000000
vn 0.000000 1.000000 0.000000
vn 0.000000 1.000000 0.000000
vn 0.000000 1.000000 0.000000
vn 0.000000 1.000000 0.000000
vn 1.000000 0.000000 0.000000
vn 1.000000 0.000000 0.000000
vn 1.000000 0.000000 0.000000
vn 1.000000 0.000000 0.000000
vn 0.000000 -1.000000 0.000000
vn 0.000000 -1.000000 0.000000
vn 0.000000 -1.000000 0.000000
vn 0.000000 -1.000000 0.000000
vn 0.000000 0.000000 1.000000
vn 0.000000 0.000000 1.000000
vn 0.000000 0.000000 1.000000
vn 0.000000 0.000000 1.000000
vn 0.000000 0.000000 -1.000000
vn 0.000000 0.000000 -1.000000
vn 0.000000 0.000000 -1.000000
vn 0.000000 0.000000 -1.000000
vn -1.000000 0.000000 0.000000
vn -1.000000 0.000000 0.000000
vn -1.000000 0.000000 0.000000
vn -1.000000 0.000000 0.000000
vn 0.000000 0.000000 1.000000
vn 0.000000 0.000000 1.000000
vn 0.000000 0.000000 1.000000
vn 0.000000 0.000000 1.000000
vn 1.000000 0.000000 0.000000
vn 1.000000 0.000000 0.000000
vn 1.000000 0.000000 0.000000
vn 1.000000 0.000000 0.000000
vn 0.000000 0.000000 -1.000000
vn 0.000000 0.000000 -1.000000
vn 0.000000 0.000000 -1.000000
vn 0.000000 0.000000 -1.000000
vn -1.000000 0.000000 0.000000
vn -1.000000 0.000000 0.000000
vn -1.000000 0.000000 0.000000
vn -1.000000 0.000000 0.000000
vn 0.000000 0.000000 1.000000
vn 0.000000 0.000000 1.000000
vn 0.000000 0.000000 1.000000
vn 0.000000 0.000000 1.000000
vn 1.000000 0.000000 0.000000
vn 1.000000 0.000000 0.000000
vn 1.000000 0.000000 0.000000
vn 1.000000 0.000000 0.000000
vn 0.000000 0.000000 -1.000000
vn 0.000000 0.000000 -1.000000
vn 0.000000 0.000000 -1.000000
vn 0.000000 0.000000 -1.000000
vn -1.000000 0.000000 0.000000
vn -1.000000 0.000000 0.000000
vn -1.000000 0.000000 0.000000
vn -1.000000 0.000000 0.000000
vn 0.000000 1.000000 0.000000
vn 0.000000 1.000000 0.000000
vn 0.000000 1.000000 0.000000
vn 0.000000 1.000000 0.000000
vn 1.000000 0.000000 0.000000
vn 1.000000 0.000000 0.000000
vn 1.000000 0.000000 0.000000
vn 1.000000 0.000000 0.000000
vn 0.000000 -1.000000 0.000000
vn 0.000000 -1.000000 0.000000
vn 0.000000 -1.000000 0.000000
vn 0.000000 -1.000000 0.000000
vn 0.000000 0.000000 1.000000
vn 0.000000 0.000000 1.000000
vn 0.000000 0.000000 1.000000
vn 0.000000 0.000000 1.000000
vn 0.000000 0.000000 -1.000000
vn 0.000000 0.000000 -1.000000
vn 0.000000 0.000000 -1.000000
vn 0.000000 0.000000 -1.000000
vn -1.000000 0.000000 0.000000
vn -1.000000 0.000000 0.000000
vn -1.000000 0.000000 0.000000
vn -1.000000 0.000000 0.000000
vn 0.000000 0.000000 1.000000
vn 0.000000 0.000000 1.000000
vn 0.000000 0.000000 1.000000
vn 0.000000 0.000000 1.000000
vn 1.000000 0.000000 0.000000
vn 1.000000 0.000000 0.000000
vn 1.000000 0.000000 0.000000
vn 1.000000 0.000000 0.000000
vn 0.000000 0.000000 -1.000000
vn 0.000000 0.000000 -1.000000
vn 0.000000 0.000000 -1.000000
vn 0.000000 0.000000 -1.000000
vn -1.000000 0.000000 0.000000
vn -1.000000 0.000000 0.000000
vn -1.000000 0.000000 0.000000
vn -1.000000 0.000000 0.000000
vn 0.000000 0.000000 1.000000
vn 0.000000 0.000000 1.000000
vn 0.000000 0.000000 1.000000
vn 0.000000 0.000000 1.000000
vn 1.000000 0.000000 0.000000
vn 1.000000 0.000000 0.000000
vn 1.000000 0.000000 0.000000
vn 1.000000 0.000000 0.000000
vn 0.000000 0.000000 -1.000000
vn 0.000000 0.000000 -1.000000
vn 0.000000 0.000000 -1.000000
vn 0.000000 0.000000 -1.000000
s off
f 3/3/1 4/4/2 6/6/3 5/5/4
f 7/7/5 8/8/6 2/10/7 1/9/8
f 2/2/9 8/11/10 6/12/11 4/4/12
f 7/13/13 1/14/14 3/15/15 5/16/16
f 1/1/17 2/65/18 10/66/19 9/67/20
f 2/65/21 4/68/22 11/69/23 10/66/24
f 4/68/25 3/70/26 12/71/27 11/69/28
f 3/70/29 1/1/30 9/67/31 12/71/32
f 5/72/33 6/73/34 14/74/35 13/75/36
f 6/73/37 8/76/38 15/77/39 14/74/40
f 8/76/41 7/78/42 16/79/43 15/77/44
f 7/78/45 5/72/46 13/75/47 16/79/48
f 9/17/49 10/18/50 18/26/51 17/25/52
f 10/18/53 11/19/54 19/27/55 18/26/56
f 11/19/57 12/20/58 20/28/59 19/27/60
f 12/49/61 9/50/62 17/51/63 20/52/64
f 13/21/65 14/22/66 22/30/67 21/29/68
f 14/22/69 15/23/70 23/31/71 22/30/72
f 15/23/73 16/24/74 24/32/75 23/31/76
f 16/57/77 13/58/78 21/59/79 24/60/80
f 17/80/81 18/81/82 26/82/83 25/83/84
f 18/81/85 19/84/86 27/85/87 26/82/88
f 19/84/89 20/86/90 28/87/91 27/85/92
f 20/86/93 17/80/94 25/83/95 28/87/96
f 21/88/97 22/89/98 30/90/99 29/91/100
f 22/89/101 23/92/102 31/93/103 30/90/104
f 23/92/105 24/94/106 32/95/107 31/93/108
f 24/94/109 21/88/110 29/91/111 32/95/112
f 25/33/113 26/34/114 34/42/115 33/41/116
f 26/34/117 27/35/118 35/43/119 34/42/120
f 27/35/121 28/36/122 36/44/123 35/43/124
f 28/53/125 25/54/126 33/55/127 36/56/128
f 29/37/129 30/38/130 38/46/131 37/45/132
f 30/38/133 31/39/134 39/47/135 38/46/136
f 31/39/137 32/40/138 40/48/139 39/47/140
f 32/61/141 29/62/142 37/63/143 40/64/144
f 33/104/145 34/105/146 42/97/147 41/96/148
f 34/105/149 35/106/150 43/98/151 42/97/152
f 35/106/153 36/107/154 44/99/155 43/98/156
f 36/107/157 33/104/158 41/96/159 44/99/160
f 37/108/161 38/109/162 46/101/163 45/100/164
f 38/109/165 39/110/166 47/102/167 46/101/168
f 39/110/169 40/111/170 48/103/171 47/102/172
f 40/111/173 37/108/174 45/100/175 48/103/176
f 57/112/177 58/113/178 52/114/179 51/115/180
f 51/116/181 52/117/182 54/118/183 53/119/184
f 53/120/185 54/121/186 59/122/187 60/123/188
f 55/124/189 56/125/190 50/126/191 49/127/192
f 58/128/193 59/129/194 54/130/195 52/131/196
f 60/132/197 57/133/198 51/134/199 53/135/200
f 61/136/201 62/137/202 58/138/203 57/139/204
f 62/140/205 63/141/206 59/142/207 58/143/208
f 60/144/209 59/145/210 63/146/211 64/147/212
f 64/148/213 61/149/214 57/150/215 60/151/216
f 49/152/217 50/153/218 62/154/219 61/155/220
f 50/156/221 56/157/222 63/158/223 62/159/224
f 64/160/225 63/161/226 56/162/227 55/163/228
f 55/164/229 49/165/230 61/166/231 64/167/232
f 73/168/233 74/169/234 68/170/235 67/171/236
f 67/172/237 68/173/238 70/174/239 69/175/240
f 69/176/241 70/177/242 75/178/243 76/179/244
f 71/180/245 72/181/246 66/182/247 65/183/248
f 74/184/249 75/185/250 70/186/251 68/187/252
f 76/188/253 73/189/254 67/190/255 69/191/256
f 77/192/257 78/193/258 74/194/259 73/195/260
f 78/196/261 79/197/262 75/198/263 74/199/264
f 76/200/265 75/201/266 79/202/267 80/203/268
f 80/204/269 77/205/270 73/206/271 76/207/272
f 65/208/273 66/209/274 78/210/275 77/211/276
f 66/212/277 72/213/278 79/214/279 78/215/280
f 80/216/281 79/217/282 72/218/283 71/219/284
f 71/220/285 65/221/286 77/222/287 80/223/288
