# This file uses meters as units for non-parametric coordinates.

v 0.023630 -0.021883 -0.047642
v 0.023630 -0.063900 -0.052544
v -0.018029 -0.064751 -0.045248
v -0.018029 -0.022735 -0.040346
v 0.093888 -0.110073 0.343226
v 0.052229 -0.110924 0.350523
v 0.052229 -0.068908 0.355424
v 0.093888 -0.068056 0.348128
v 0.049598 -0.061770 0.405784
v 0.113185 -0.060471 0.394647
v 0.049598 -0.129463 0.397886
v 0.113185 -0.128163 0.386749
v 0.104852 -0.122687 0.339808
v 0.041265 -0.123986 0.350945
v 0.041265 -0.056294 0.358842
v 0.104853 -0.054994 0.347706
v 0.014647 -0.022735 -0.040346
v 0.014647 -0.064751 -0.045248
v -0.027011 -0.063900 -0.052544
v -0.027012 -0.021883 -0.047642
v -0.055611 -0.110924 0.350523
v -0.097270 -0.110073 0.343226
v -0.097270 -0.068056 0.348128
v -0.055611 -0.068908 0.355424
v -0.116567 -0.060471 0.394647
v -0.052980 -0.061770 0.405784
v -0.116567 -0.128163 0.386749
v -0.052980 -0.129463 0.397886
v -0.044647 -0.123986 0.350945
v -0.108235 -0.122687 0.339808
v -0.108235 -0.054994 0.347706
v -0.044647 -0.056294 0.358842
v 0.050864 -0.042585 0.093486
v 0.050864 -0.042585 -0.135277
v 0.050864 0.001912 0.093486
v 0.050864 0.001912 -0.135277
v -0.054578 0.001912 0.093486
v -0.054578 0.001912 -0.135277
v -0.054578 -0.042585 0.093486
v -0.054578 -0.042585 -0.135277
vt 0.230627 0.061306
vt 0.264014 0.061306
vt 0.295982 0.061306
vt 0.226863 0.061306
vt 0.264014 0.061306
vt 0.295982 0.061306
vt 0.295982 0.061306
vt 0.264014 0.061306
vt 0.295982 0.061306
vt 0.295982 0.061306
vt 0.226863 0.061306
vt 0.226863 0.061306
vt 0.230627 0.061306
vt 0.230627 0.061306
vt 0.295982 0.061306
vt 0.264014 0.061306
vt 0.295982 0.061306
vt 0.264014 0.061306
vt 0.264014 0.061306
vt 0.295982 0.061306
vt 0.226863 0.061306
vt 0.264014 0.061306
vt 0.264014 0.061306
vt 0.230627 0.061306
vt 0.295982 0.061306
vt 0.264014 0.061306
vt 0.264014 0.061306
vt 0.295982 0.061306
vt 0.295982 0.061306
vt 0.264014 0.061306
vt 0.264014 0.061306
vt 0.295982 0.061306
vt 0.295982 0.061306
vt 0.295982 0.061306
vt 0.264014 0.061306
vt 0.264014 0.061306
vt 0.295982 0.061306
vt 0.295982 0.061306
vt 0.264014 0.061306
vt 0.264014 0.061306
vt 0.159482 0.059892
vt 0.159482 0.059892
vt 0.159482 0.059892
vt 0.159482 0.059892
vt 0.159482 0.059346
vt 0.159482 0.059346
vt 0.159482 0.059346
vt 0.159482 0.059346
vt 0.159482 0.059346
vt 0.159482 0.059892
vt 0.159482 0.059346
vt 0.159482 0.059346
vt 0.159482 0.059892
vt 0.159482 0.059346
vt 0.159482 0.059892
vt 0.159482 0.059892
vt 0.264014 0.061306
vt 0.264014 0.061306
vt 0.264014 0.061306
vt 0.264014 0.061306
vt 0.295982 0.061306
vt 0.295982 0.061306
vt 0.295982 0.061306
vt 0.295982 0.061306
vt 0.264014 0.061306
vt 0.264014 0.061306
vt 0.264014 0.061306
vt 0.264014 0.061306
vt 0.295982 0.061306
vt 0.295982 0.061306
vt 0.295982 0.061306
vt 0.295982 0.061306
vt 0.226863 0.061306
vt 0.226863 0.061306
vt 0.226863 0.061306
vt 0.226863 0.061306
vt 0.230627 0.061306
vt 0.230627 0.061306
vt 0.230627 0.061306
vt 0.230627 0.061306
vt 0.295982 0.061306
vt 0.295982 0.061306
vt 0.295982 0.061306
vt 0.295982 0.061306
vt 0.264014 0.061306
vt 0.264014 0.061306
vt 0.264014 0.061306
vt 0.264014 0.061306
vt 0.295982 0.061306
vt 0.295982 0.061306
vt 0.295982 0.061306
vt 0.295982 0.061306
vt 0.264014 0.061306
vt 0.264014 0.061306
vt 0.264014 0.061306
vt 0.264014 0.061306
vt 0.159482 0.059892
vt 0.159482 0.059892
vt 0.159482 0.059892
vt 0.159482 0.059892
vt 0.159482 0.059346
vt 0.159482 0.059892
vt 0.159482 0.059892
vt 0.159482 0.059346
vt 0.159482 0.059346
vt 0.159482 0.059346
vt 0.159482 0.059346
vt 0.159482 0.059346
vt 0.159482 0.059892
vt 0.159482 0.059346
vt 0.159482 0.059346
vt 0.159482 0.059892
vt 0.178804 0.474491
vt 0.178804 0.474491
vt 0.178804 0.474491
vt 0.178804 0.474491
vt 0.236724 0.474491
vt 0.236724 0.474491
vt 0.236724 0.474491
vt 0.236724 0.474491
vt 0.178804 0.474491
vt 0.178804 0.474491
vt 0.178804 0.474491
vt 0.178804 0.474491
vt 0.107882 0.474491
vt 0.107882 0.474491
vt 0.107882 0.474491
vt 0.107882 0.474491
vt 0.204809 0.474491
vt 0.204809 0.474491
vt 0.204809 0.474491
vt 0.204809 0.474491
vt 0.204809 0.474491
vt 0.204809 0.474491
vt 0.204809 0.474491
vt 0.204809 0.474491
vn 0.984808 0.020122 -0.172479
vn 0.984808 0.020122 -0.172479
vn 0.984808 0.020122 -0.172479
vn 0.984808 0.020122 -0.172479
vn 0.000001 -0.993263 -0.115881
vn 0.000001 -0.993263 -0.115881
vn 0.000001 -0.993263 -0.115881
vn 0.000001 -0.993263 -0.115881
vn -0.984808 -0.020122 0.172479
vn -0.984808 -0.020122 0.172479
vn -0.984808 -0.020122 0.172479
vn -0.984808 -0.020122 0.172479
vn -0.000000 0.993263 0.115880
vn -0.000000 0.993263 0.115880
vn -0.000000 0.993263 0.115880
vn -0.000000 0.993263 0.115880
vn 0.173651 -0.114123 0.978173
vn 0.173651 -0.114123 0.978173
vn 0.173651 -0.114123 0.978172
vn 0.173651 -0.114123 0.978172
vn -0.173648 0.114119 -0.978173
vn -0.173648 0.114119 -0.978173
vn -0.173648 0.114119 -0.978173
vn -0.173648 0.114119 -0.978173
vn 0.000000 -0.993263 -0.115881
vn 0.000000 -0.993263 -0.115881
vn 0.000000 -0.993263 -0.115881
vn 0.000000 -0.993263 -0.115881
vn -0.984808 -0.020122 0.172479
vn -0.984808 -0.020122 0.172479
vn -0.984808 -0.020122 0.172479
vn -0.984808 -0.020122 0.172479
vn -0.000000 0.993263 0.115881
vn -0.000000 0.993263 0.115881
vn -0.000000 0.993263 0.115881
vn -0.000000 0.993263 0.115881
vn 0.984809 0.020121 -0.172471
vn 0.984809 0.020121 -0.172471
vn 0.984809 0.020121 -0.172471
vn 0.984809 0.020121 -0.172471
vn -0.173644 0.114120 -0.978174
vn -0.173644 0.114120 -0.978174
vn -0.173644 0.114120 -0.978174
vn -0.173644 0.114120 -0.978174
vn -0.173643 0.114119 -0.978174
vn -0.173644 0.114120 -0.978174
vn -0.173644 0.114120 -0.978174
vn -0.173644 0.114119 -0.978174
vn -0.173644 0.114119 -0.978174
vn -0.173643 0.114119 -0.978174
vn -0.173644 0.114119 -0.978174
vn -0.173644 0.114119 -0.978174
vn -0.173644 0.114120 -0.978174
vn -0.173644 0.114119 -0.978174
vn -0.173644 0.114119 -0.978174
vn -0.173644 0.114120 -0.978174
vn 0.984808 -0.020122 0.172479
vn 0.984808 -0.020122 0.172479
vn 0.984808 -0.020122 0.172479
vn 0.984808 -0.020122 0.172479
vn -0.000001 -0.993263 -0.115881
vn -0.000001 -0.993263 -0.115881
vn -0.000001 -0.993263 -0.115881
vn -0.000001 -0.993263 -0.115881
vn -0.984808 0.020122 -0.172479
vn -0.984808 0.020122 -0.172479
vn -0.984808 0.020122 -0.172479
vn -0.984808 0.020122 -0.172479
vn 0.000000 0.993263 0.115880
vn 0.000000 0.993263 0.115880
vn 0.000000 0.993263 0.115880
vn 0.000000 0.993263 0.115880
vn -0.173651 -0.114123 0.978173
vn -0.173651 -0.114123 0.978173
vn -0.173651 -0.114123 0.978173
vn -0.173651 -0.114123 0.978173
vn 0.173648 0.114119 -0.978173
vn 0.173648 0.114119 -0.978173
vn 0.173648 0.114119 -0.978173
vn 0.173648 0.114119 -0.978173
vn -0.000000 -0.993263 -0.115880
vn -0.000000 -0.993263 -0.115880
vn -0.000000 -0.993263 -0.115880
vn -0.000000 -0.993263 -0.115880
vn -0.984809 0.020123 -0.172470
vn -0.984809 0.020123 -0.172471
vn -0.984809 0.020123 -0.172471
vn -0.984809 0.020123 -0.172471
vn 0.000000 0.993263 0.115881
vn 0.000000 0.993263 0.115881
vn 0.000000 0.993263 0.115881
vn 0.000000 0.993263 0.115881
vn 0.984808 -0.020122 0.172479
vn 0.984808 -0.020122 0.172480
vn 0.984808 -0.020122 0.172479
vn 0.984808 -0.020122 0.172480
vn 0.173644 0.114119 -0.978174
vn 0.173644 0.114119 -0.978174
vn 0.173644 0.114119 -0.978174
vn 0.173645 0.114119 -0.978174
vn 0.173644 0.114120 -0.978174
vn 0.173644 0.114119 -0.978174
vn 0.173645 0.114119 -0.978174
vn 0.173645 0.114120 -0.978174
vn 0.173644 0.114120 -0.978174
vn 0.173644 0.114120 -0.978174
vn 0.173645 0.114120 -0.978174
vn 0.173644 0.114120 -0.978174
vn 0.173644 0.114119 -0.978174
vn 0.173644 0.114120 -0.978174
vn 0.173644 0.114120 -0.978174
vn 0.173644 0.114119 -0.978174
vn 1.000000 0.000000 -0.000000
vn 1.000000 0.000000 -0.000000
vn 1.000000 0.000000 -0.000000
vn 1.000000 0.000000 -0.000000
vn 0.000000 1.000000 0.000000
vn 0.000000 1.000000 0.000000
vn 0.000000 1.000000 0.000000
vn 0.000000 1.000000 0.000000
vn -1.000000 0.000000 0.000000
vn -1.000000 0.000000 0.000000
vn -1.000000 0.000000 0.000000
vn -1.000000 0.000000 0.000000
vn 0.000000 -1.000000 0.000000
vn 0.000000 -1.000000 0.000000
vn 0.000000 -1.000000 0.000000
vn 0.000000 -1.000000 0.000000
vn 0.000000 0.000000 -1.000000
vn 0.000000 0.000000 -1.000000
vn 0.000000 0.000000 -1.000000
vn 0.000000 0.000000 -1.000000
vn 0.000000 0.000000 1.000000
vn 0.000000 0.000000 1.000000
vn 0.000000 0.000000 1.000000
vn 0.000000 0.000000 1.000000
s off
f 1/23/1 8/31/2 5/26/3 2/19/4
f 2/3/5 5/25/6 6/28/7 3/20/8
f 3/5/9 6/27/10 7/30/11 4/16/12
f 4/7/13 7/29/14 8/32/15 1/9/16
f 10/21/17 9/11/18 11/12/19 12/4/20
f 4/13/21 1/1/22 2/24/23 3/14/24
f 13/34/25 12/17/26 11/6/27 14/33/28
f 15/35/29 14/36/30 11/18/31 9/8/32
f 16/37/33 15/38/34 9/15/35 10/10/36
f 13/39/37 16/40/38 10/2/39 12/22/40
f 6/41/41 5/56/42 13/50/43 14/44/44
f 7/45/45 6/55/46 14/53/47 15/46/48
f 8/47/49 7/54/50 15/51/51 16/48/52
f 5/42/53 8/52/54 16/49/55 13/43/56
f 17/57/57 24/58/58 21/59/59 18/60/60
f 18/61/61 21/62/62 22/63/63 19/64/64
f 19/65/65 22/66/66 23/67/67 20/68/68
f 20/69/69 23/70/70 24/71/71 17/72/72
f 26/73/73 25/74/74 27/75/75 28/76/76
f 20/77/77 17/78/78 18/79/79 19/80/80
f 29/81/81 28/82/82 27/83/83 30/84/84
f 31/85/85 30/86/86 27/87/87 25/88/88
f 32/89/89 31/90/90 25/91/91 26/92/92
f 29/93/93 32/94/94 26/95/95 28/96/96
f 22/97/97 21/98/98 29/99/99 30/100/100
f 23/101/101 22/102/102 30/103/103 31/104/104
f 24/105/105 23/106/106 31/107/107 32/108/108
f 21/109/109 24/110/110 32/111/111 29/112/112
f 33/113/113 34/114/114 36/115/115 35/116/116
f 35/117/117 36/118/118 38/119/119 37/120/120
f 37/121/121 38/122/122 40/123/123 39/124/124
f 39/125/125 40/126/126 34/127/127 33/128/128
f 34/129/129 40/130/130 38/131/131 36/132/132
f 39/133/133 33/134/134 35/135/135 37/136/136
