# This file uses meters as units for non-parametric coordinates.

v 0.053325 0.053324 0.840477
v 0.053325 0.053323 -0.387821
v -0.053325 0.053324 0.840477
v -0.053325 0.053323 -0.387821
v -0.053325 -0.053326 0.840477
v -0.053325 -0.053326 -0.387821
v 0.053325 -0.053326 0.840477
v 0.053325 -0.053326 -0.387821
v 0.053325 -0.053326 -0.230107
v -0.053325 -0.053326 -0.230107
v -0.053325 0.053323 -0.230107
v 0.053325 0.053323 -0.230107
v 0.053325 -0.053326 0.182305
v -0.053325 -0.053326 0.182305
v -0.053325 0.053323 0.182305
v 0.053325 0.053323 0.182305
v 0.063658 -0.079383 0.884397
v 0.063658 0.079380 0.884396
v -0.063658 0.079380 0.884396
v -0.063658 -0.079383 0.884397
v 0.063658 -0.079382 1.072716
v 0.063658 0.079381 1.072715
v -0.063658 0.079381 1.072715
v -0.063658 -0.079382 1.072716
v 0.053811 0.079381 0.904612
v -0.053811 0.079381 0.904612
v -0.053811 0.079380 1.052501
v 0.053811 0.079380 1.052501
v -0.053811 -0.079382 0.904612
v 0.053811 -0.079382 0.904612
v 0.053811 -0.079383 1.052501
v -0.053811 -0.079383 1.052501
v 0.014811 0.719418 0.907410
v -0.014811 0.719418 0.907410
v -0.014811 0.719418 0.930809
v 0.014811 0.719418 0.930809
v -0.079901 -0.719420 0.907411
v 0.079901 -0.719420 0.907411
v 0.079901 -0.719420 0.930809
v -0.079901 -0.719420 0.930809
v -0.075011 -0.599476 0.953615
v -0.075011 -0.599476 0.906888
v 0.075011 -0.599476 0.906888
v 0.075011 -0.599476 0.953615
vt 0.168198 0.046747
vt 0.209012 0.047463
vt 0.259409 0.047463
vt 0.235537 0.047463
vt 0.209012 0.047463
vt 0.259409 0.047463
vt 0.258345 0.047463
vt 0.209012 0.047463
vt 0.258345 0.047463
vt 0.258345 0.047463
vt 0.235537 0.047463
vt 0.235537 0.047463
vt 0.227656 0.046747
vt 0.168198 0.046747
vt 0.259409 0.047463
vt 0.209012 0.047463
vt 0.209012 0.047463
vt 0.259409 0.047463
vt 0.235537 0.047463
vt 0.209012 0.047463
vt 0.209012 0.047463
vt 0.231238 0.046030
vt 0.258345 0.047463
vt 0.209012 0.047463
vt 0.258345 0.047463
vt 0.209012 0.047463
vt 0.209012 0.047463
vt 0.259409 0.047463
vt 0.259409 0.047463
vt 0.209012 0.047463
vt 0.209012 0.047463
vt 0.258345 0.047463
vt 0.258345 0.047463
vt 0.209012 0.047463
vt 0.209012 0.047463
vt 0.259409 0.047463
vt 0.259409 0.047463
vt 0.209012 0.047463
vt 0.209012 0.047463
vt 0.258345 0.047463
vt 0.518783 0.013350
vt 0.532190 0.013350
vt 0.532190 0.042544
vt 0.518783 0.042544
vt 0.521798 0.013350
vt 0.511101 0.013350
vt 0.511101 0.042544
vt 0.521798 0.042544
vt 0.529277 0.013350
vt 0.519552 0.013350
vt 0.519552 0.042544
vt 0.529277 0.042544
vt 0.513161 0.013350
vt 0.522495 0.013350
vt 0.522495 0.042544
vt 0.513161 0.042544
vt 0.204733 0.059641
vt 0.204733 0.059641
vt 0.204733 0.059641
vt 0.204733 0.059641
vt 0.204733 0.059641
vt 0.204733 0.059641
vt 0.204733 0.059641
vt 0.204733 0.059641
vt 0.230522 0.059641
vt 0.307173 0.059641
vt 0.327948 0.059641
vt 0.307173 0.059641
vt 0.230522 0.059641
vt 0.307173 0.059641
vt 0.327948 0.059641
vt 0.307173 0.059641
vt 0.361617 0.059641
vt 0.307173 0.059641
vt 0.327948 0.059641
vt 0.307173 0.059641
vt 0.361617 0.059641
vt 0.369497 0.059641
vt 0.390272 0.059641
vt 0.369497 0.059641
vt 0.231238 0.046030
vt 0.231238 0.046030
vt 0.231238 0.046030
vt 0.168198 0.046747
vt 0.168198 0.046747
vt 0.168198 0.046747
vt 0.168198 0.046747
vt 0.168198 0.046747
vt 0.227657 0.046747
vt 0.168198 0.046747
vt 0.227656 0.046747
vt 0.227657 0.046747
vt 0.204733 0.059641
vt 0.204733 0.059641
vt 0.204733 0.059641
vt 0.204733 0.059641
vt 0.204733 0.059641
vt 0.204733 0.059641
vt 0.329381 0.059641
vt 0.204733 0.059641
vt 0.204733 0.059641
vt 0.204733 0.059641
vt 0.350155 0.059641
vt 0.204733 0.059641
vt 0.329381 0.059641
vt 0.204733 0.059641
vt 0.329381 0.059641
vt 0.204733 0.059641
vt 0.204733 0.059641
vt 0.204733 0.059641
vt 0.204733 0.059641
vt 0.204733 0.059641
vt 0.204733 0.059641
vt 0.204733 0.059641
vt 0.329381 0.059641
vt 0.204733 0.059641
vt 0.204733 0.059641
vt 0.204733 0.059641
vt 0.350155 0.059641
vt 0.204733 0.059641
vt 0.329381 0.059641
vt 0.204733 0.059641
vt 0.329381 0.059641
vt 0.204733 0.059641
vt 0.369497 0.059641
vt 0.390272 0.059641
vt 0.327948 0.059641
vt 0.292846 0.059641
vt 0.369497 0.059641
vt 0.307173 0.059641
vt 0.230522 0.059641
vt 0.307173 0.059641
vt 0.307173 0.059641
vt 0.327948 0.059641
vt 0.327948 0.059641
vt 0.230522 0.059641
vt 0.307173 0.059641
vt 0.307173 0.059641
vt 0.230522 0.059641
vt 0.307173 0.059641
vt 0.329381 0.059641
vt 0.350155 0.059641
vt 0.329381 0.059641
vt 0.350155 0.059641
vt 0.292846 0.059641
vt 0.361617 0.059641
vt 0.230522 0.059641
vt 0.361617 0.059641
vt 0.361617 0.059641
vt 0.361617 0.059641
vt 0.361617 0.059641
vt 0.361617 0.059641
vt 0.390272 0.059641
vt 0.369497 0.059641
vt 0.307173 0.059641
vt 0.230522 0.059641
vt 0.230522 0.059641
vt 0.307173 0.059641
vt 0.307173 0.059641
vt 0.327948 0.059641
vt 0.369497 0.059641
vt 0.390272 0.059641
vt 0.307173 0.059641
vt 0.327948 0.059641
vt 0.292846 0.059641
vt 0.369497 0.059641
vt 0.369497 0.059641
vt 0.292846 0.059641
vn 0.000000 1.000000 0.000000
vn 0.000000 1.000000 0.000000
vn 0.000000 1.000000 0.000000
vn 0.000000 1.000000 0.000000
vn -1.000000 0.000000 0.000000
vn -1.000000 0.000000 0.000000
vn -1.000000 0.000000 0.000000
vn -1.000000 0.000000 0.000000
vn 0.000000 -1.000000 0.000000
vn 0.000000 -1.000000 0.000000
vn 0.000000 -1.000000 0.000000
vn 0.000000 -1.000000 0.000000
vn 1.000000 0.000000 0.000000
vn 1.000000 0.000000 0.000000
vn 1.000000 0.000000 0.000000
vn 1.000000 0.000000 0.000000
vn 0.000000 0.000000 -1.000000
vn 0.000000 0.000000 -1.000000
vn 0.000000 0.000000 -1.000000
vn 0.000000 0.000000 -1.000000
vn 0.000001 0.000003 1.000000
vn 0.000001 0.000003 1.000000
vn 0.000001 0.000003 1.000000
vn 0.000001 0.000003 1.000000
vn 0.000000 -1.000000 0.000000
vn 0.000000 -1.000000 0.000000
vn 0.000000 -1.000000 0.000000
vn 0.000000 -1.000000 0.000000
vn -1.000000 0.000000 -0.000000
vn -1.000000 0.000000 -0.000000
vn -1.000000 0.000000 0.000000
vn -1.000000 0.000000 0.000000
vn 0.000000 1.000000 -0.000000
vn 0.000000 1.000000 -0.000000
vn 0.000000 1.000000 0.000000
vn 0.000000 1.000000 0.000000
vn 1.000000 0.000000 -0.000000
vn 1.000000 0.000000 -0.000000
vn 1.000000 0.000000 0.000000
vn 1.000000 0.000000 0.000000
vn 0.000000 -1.000000 0.000000
vn 0.000000 -1.000000 0.000000
vn 0.000000 -1.000000 0.000000
vn 0.000000 -1.000000 0.000000
vn -1.000000 0.000000 -0.000000
vn -1.000000 0.000000 -0.000000
vn -1.000000 0.000000 -0.000000
vn -1.000000 0.000000 -0.000000
vn 0.000000 1.000000 -0.000000
vn 0.000000 1.000000 -0.000000
vn 0.000000 1.000000 -0.000000
vn 0.000000 1.000000 -0.000000
vn 1.000000 0.000000 -0.000000
vn 1.000000 0.000000 -0.000000
vn 1.000000 0.000000 -0.000000
vn 1.000000 0.000000 -0.000000
vn 0.973423 -0.000000 -0.229014
vn 0.973423 -0.000000 -0.229014
vn 0.973423 -0.000000 -0.229014
vn 0.973423 -0.000000 -0.229014
vn -0.000000 0.860031 -0.510242
vn -0.000000 0.860031 -0.510242
vn -0.000000 0.860031 -0.510242
vn -0.000000 0.860031 -0.510242
vn -0.973423 -0.000000 -0.229013
vn -0.973423 -0.000000 -0.229013
vn -0.973423 -0.000000 -0.229013
vn -0.973423 -0.000000 -0.229013
vn -0.000000 -0.860033 -0.510238
vn -0.000000 -0.860033 -0.510238
vn -0.000000 -0.860033 -0.510238
vn -0.000000 -0.860033 -0.510238
vn 1.000000 0.000000 0.000000
vn 1.000000 0.000000 0.000000
vn 1.000000 0.000000 0.000000
vn 1.000000 0.000000 0.000000
vn 0.000000 1.000000 0.000000
vn 0.000000 1.000000 0.000000
vn 0.000000 1.000000 0.000000
vn 0.000000 1.000000 0.000000
vn -1.000000 0.000000 0.000000
vn -1.000000 0.000000 0.000000
vn -1.000000 0.000000 0.000000
vn -1.000000 0.000000 0.000000
vn 0.000001 -1.000000 0.000000
vn 0.000001 -1.000000 0.000000
vn 0.000001 -1.000000 0.000000
vn 0.000001 -1.000000 0.000000
vn -0.000000 1.000000 -0.000009
vn -0.000000 1.000000 -0.000009
vn -0.000000 1.000000 -0.000006
vn -0.000000 1.000000 -0.000006
vn -0.000000 1.000000 -0.000009
vn -0.000000 1.000000 -0.000009
vn -0.000000 1.000000 -0.000006
vn -0.000000 1.000000 -0.000006
vn -0.000000 1.000000 -0.000009
vn -0.000000 1.000000 -0.000009
vn -0.000000 1.000000 -0.000006
vn -0.000000 1.000000 -0.000006
vn -0.000000 1.000000 -0.000009
vn -0.000000 1.000000 -0.000009
vn -0.000000 1.000000 -0.000006
vn -0.000000 1.000000 -0.000006
vn -0.000000 -1.000000 0.000009
vn -0.000000 -1.000000 0.000009
vn -0.000000 -1.000000 0.000006
vn -0.000001 -1.000000 0.000006
vn -0.000000 -1.000000 0.000009
vn 0.000000 -1.000000 0.000009
vn 0.000000 -1.000000 0.000006
vn -0.000000 -1.000000 0.000006
vn 0.000000 -1.000000 0.000009
vn -0.000000 -1.000000 0.000009
vn -0.000001 -1.000000 0.000006
vn 0.000000 -1.000000 0.000006
vn -0.000000 -1.000000 0.000009
vn -0.000000 -1.000000 0.000009
vn -0.000001 -1.000000 0.000006
vn -0.000001 -1.000000 0.000006
vn 0.000000 0.004373 -0.999990
vn 0.000000 0.004373 -0.999990
vn 0.000000 0.004373 -0.999990
vn 0.000000 0.004373 -0.999991
vn -0.998149 0.060820 0.000000
vn -0.998149 0.060820 0.000000
vn -0.998149 0.060820 0.000000
vn -0.998149 0.060820 0.000000
vn 0.000000 0.186786 0.982401
vn 0.000000 0.186786 0.982401
vn 0.000000 0.186786 0.982401
vn 0.000000 0.186786 0.982401
vn 0.998149 0.060820 0.000000
vn 0.998149 0.060820 0.000000
vn 0.998149 0.060820 0.000000
vn 0.998149 0.060820 0.000000
vn 0.000000 -0.004373 -0.999991
vn 0.000000 -0.004373 -0.999991
vn 0.000000 -0.004364 -0.999990
vn 0.000000 -0.004364 -0.999991
vn 0.999170 0.040730 0.000000
vn 0.999170 0.040730 0.000000
vn 0.999170 0.040730 0.000000
vn 0.999170 0.040730 0.000000
vn 0.000000 -0.186786 0.982401
vn 0.000000 -0.186786 0.982401
vn 0.000000 -0.186788 0.982400
vn 0.000000 -0.186788 0.982400
vn -0.999170 0.040730 0.000000
vn -0.999170 0.040730 0.000000
vn -0.999170 0.040730 0.000000
vn -0.999170 0.040730 0.000000
vn -0.999170 0.040730 0.000000
vn -0.999170 0.040730 0.000000
vn -0.999170 0.040730 0.000000
vn -0.999170 0.040730 0.000000
vn 0.000000 -0.004376 -0.999990
vn 0.000000 -0.004376 -0.999990
vn 0.000000 -0.004373 -0.999991
vn 0.000000 -0.004373 -0.999991
vn 0.999170 0.040730 0.000000
vn 0.999170 0.040730 0.000000
vn 0.999170 0.040730 0.000000
vn 0.999170 0.040730 0.000000
vn 0.000000 -0.186785 0.982401
vn 0.000000 -0.186785 0.982401
vn 0.000000 -0.186786 0.982401
vn 0.000000 -0.186786 0.982401
s off
f 11/30/1 12/31/2 2/2/3 4/21/4
f 10/28/5 11/29/6 4/15/7 6/6/8
f 9/26/9 10/27/10 6/16/11 8/8/12
f 12/32/13 9/25/14 8/23/15 2/10/16
f 2/19/17 8/11/18 6/12/19 4/4/20
f 21/103/21 22/144/22 23/119/23 24/142/24
f 13/45/25 14/46/26 10/47/27 9/48/28
f 14/53/29 15/54/30 11/55/31 10/56/32
f 15/41/33 16/42/34 12/43/35 11/44/36
f 16/49/37 13/50/38 9/51/39 12/52/40
f 5/5/41 14/35/42 13/34/43 7/24/44
f 3/3/45 15/37/46 14/36/47 5/18/48
f 1/20/49 16/39/50 15/38/51 3/17/52
f 7/7/53 13/33/54 16/40/55 1/9/56
f 7/13/57 1/89/58 18/92/59 17/91/60
f 1/1/61 3/84/62 19/88/63 18/87/64
f 3/22/65 5/83/66 20/82/67 19/81/68
f 5/14/69 7/90/70 17/86/71 20/85/72
f 17/105/73 18/123/74 22/115/75 21/143/76
f 33/73/77 34/148/78 35/152/79 36/151/80
f 19/121/81 20/107/82 24/99/83 23/141/84
f 37/77/85 38/146/86 39/150/87 40/149/88
f 18/58/89 19/122/90 26/118/91 25/109/92
f 19/59/93 23/120/94 27/114/95 26/117/96
f 23/63/97 22/116/98 28/112/99 27/113/100
f 22/62/101 18/124/102 25/110/103 28/111/104
f 20/60/105 17/106/106 30/102/107 29/93/108
f 17/57/109 21/104/110 31/98/111 30/101/112
f 21/61/113 24/100/114 32/96/115 31/97/116
f 24/64/117 20/108/118 29/94/119 32/95/120
f 25/65/121 26/139/122 34/136/123 33/147/124
f 26/66/125 27/138/126 35/137/127 34/74/128
f 27/67/129 28/135/130 36/134/131 35/75/132
f 28/68/133 25/140/134 33/133/135 36/76/136
f 42/168/137 43/165/138 38/128/139 37/145/140
f 43/166/141 44/161/142 39/129/143 38/78/144
f 44/162/145 41/153/146 40/126/147 39/79/148
f 41/154/149 42/167/150 37/125/151 40/80/152
f 32/72/153 29/132/154 42/155/155 41/163/156
f 29/69/157 30/131/158 43/157/159 42/156/160
f 30/70/161 31/130/162 44/159/163 43/158/164
f 31/71/165 32/127/166 41/164/167 44/160/168
