# This file uses meters as units for non-parametric coordinates.

v 0.022579 -0.027309 -0.041912
v 0.022579 -0.256072 -0.041912
v -0.022577 -0.027309 -0.041912
v -0.022577 -0.256072 -0.041912
v -0.022577 -0.027309 0.041911
v -0.022577 -0.256072 0.041911
v 0.022579 -0.027309 0.041911
v 0.022579 -0.256072 0.041911
v -0.022577 -0.043025 -0.031079
v -0.022577 -0.205745 -0.031079
v -0.022577 -0.205745 0.031079
v -0.022577 -0.043025 0.031079
v 0.022579 -0.043025 0.031079
v 0.022579 -0.205745 0.031079
v 0.022579 -0.205745 -0.031079
v 0.022579 -0.043025 -0.031079
v 0.026977 0.002093 0.050076
v 0.026977 0.002093 -0.050077
v -0.026976 0.002093 -0.050077
v -0.026976 0.002093 0.050076
v -0.026976 -0.018332 -0.050077
v -0.026976 -0.018332 0.050076
v 0.026977 -0.018332 0.050076
v 0.026977 -0.018332 -0.050077
vt 0.169817 0.061361
vt 0.208418 0.061361
vt 0.236724 0.061361
vt 0.174098 0.061361
vt 0.208418 0.061361
vt 0.236724 0.061361
vt 0.230302 0.059418
vt 0.208418 0.061361
vt 0.230302 0.059418
vt 0.230302 0.059418
vt 0.174098 0.061361
vt 0.174098 0.061361
vt 0.202639 0.061361
vt 0.169817 0.061361
vt 0.236724 0.061361
vt 0.208418 0.061361
vt 0.208418 0.061361
vt 0.236724 0.061361
vt 0.174098 0.061361
vt 0.208418 0.061361
vt 0.208418 0.061361
vt 0.202639 0.061361
vt 0.230302 0.059418
vt 0.208418 0.061361
vt 0.236724 0.061361
vt 0.236724 0.061361
vt 0.236724 0.061361
vt 0.236724 0.061361
vt 0.230302 0.059418
vt 0.230302 0.059418
vt 0.230302 0.059418
vt 0.230302 0.059418
vt 0.109994 0.477440
vt 0.109994 0.477440
vt 0.109994 0.477440
vt 0.109994 0.477440
vt 0.109994 0.477440
vt 0.109994 0.477440
vt 0.109994 0.477440
vt 0.109994 0.477440
vt 0.112735 0.061361
vt 0.141276 0.061361
vt 0.174098 0.061361
vt 0.141276 0.061361
vt 0.174098 0.061361
vt 0.112735 0.061361
vt 0.174098 0.061361
vt 0.141276 0.061361
vt 0.141276 0.061361
vt 0.112735 0.061361
vt 0.202639 0.061361
vt 0.174098 0.061361
vt 0.112735 0.061361
vt 0.169817 0.061361
vt 0.202639 0.061361
vt 0.169817 0.061361
vt 0.141276 0.061361
vt 0.174098 0.061361
vt 0.202639 0.061361
vt 0.169817 0.061361
vt 0.169817 0.061361
vt 0.202639 0.061361
vt 0.202639 0.061361
vt 0.169817 0.061361
vt 0.174098 0.061361
vt 0.141276 0.061361
vt 0.202639 0.061361
vt 0.169817 0.061361
vt 0.141276 0.061361
vt 0.174098 0.061361
vt 0.174098 0.061361
vt 0.141276 0.061361
vn 0.000000 0.000000 -1.000000
vn 0.000000 0.000000 -1.000000
vn 0.000000 0.000000 -1.000000
vn 0.000000 0.000000 -1.000000
vn -1.000000 -0.000000 0.000000
vn -1.000000 0.000000 0.000000
vn -1.000000 0.000000 0.000000
vn -1.000000 -0.000000 0.000000
vn 0.000000 0.000000 1.000000
vn 0.000000 0.000000 1.000000
vn 0.000000 0.000000 1.000000
vn 0.000000 0.000000 1.000000
vn 1.000000 -0.000000 -0.000000
vn 1.000000 -0.000000 -0.000000
vn 1.000000 -0.000000 0.000000
vn 1.000000 -0.000000 0.000000
vn 0.000000 -1.000000 0.000000
vn 0.000000 -1.000000 0.000000
vn 0.000000 -1.000000 0.000000
vn 0.000000 -1.000000 0.000000
vn 0.000000 1.000000 0.000000
vn 0.000000 1.000000 0.000000
vn 0.000000 1.000000 0.000000
vn 0.000000 1.000000 0.000000
vn -1.000000 -0.000000 0.000000
vn -1.000000 0.000000 0.000000
vn -1.000000 0.000000 0.000000
vn -1.000000 -0.000000 0.000000
vn -1.000000 0.000000 0.000000
vn -1.000000 0.000000 0.000000
vn -1.000000 0.000000 0.000000
vn -1.000000 0.000000 0.000000
vn -1.000000 0.000000 0.000000
vn -1.000000 -0.000000 0.000000
vn -1.000000 -0.000000 0.000000
vn -1.000000 0.000000 0.000000
vn -1.000000 -0.000000 0.000000
vn -1.000000 -0.000000 0.000000
vn -1.000000 -0.000000 0.000000
vn -1.000000 -0.000000 0.000000
vn 1.000000 -0.000001 -0.000001
vn 1.000000 -0.000000 -0.000000
vn 1.000000 -0.000000 -0.000000
vn 1.000000 -0.000000 -0.000000
vn 1.000000 -0.000000 -0.000000
vn 1.000000 -0.000000 0.000000
vn 1.000000 -0.000000 0.000000
vn 1.000000 -0.000000 -0.000000
vn 1.000000 -0.000000 0.000000
vn 1.000000 -0.000001 0.000001
vn 1.000000 -0.000000 0.000000
vn 1.000000 -0.000000 0.000000
vn 1.000000 -0.000001 0.000001
vn 1.000000 -0.000001 -0.000001
vn 1.000000 -0.000000 -0.000000
vn 1.000000 -0.000000 0.000000
vn 1.000000 0.000000 0.000000
vn 1.000000 0.000000 0.000000
vn 1.000000 0.000000 0.000000
vn 1.000000 0.000000 0.000000
vn 0.000000 0.000000 -1.000000
vn 0.000000 0.000000 -1.000000
vn 0.000000 0.000000 -1.000000
vn 0.000000 0.000000 -1.000000
vn -1.000000 0.000000 0.000000
vn -1.000000 0.000000 0.000000
vn -1.000000 0.000000 0.000000
vn -1.000000 0.000000 0.000000
vn 0.000000 0.000000 1.000000
vn 0.000000 0.000000 1.000000
vn 0.000000 0.000000 1.000000
vn 0.000000 0.000000 1.000000
vn -0.898000 -0.439995 0.000000
vn -0.898000 -0.439995 0.000000
vn -0.898000 -0.439995 0.000000
vn -0.898000 -0.439995 0.000000
vn 0.000000 -0.672856 0.739774
vn 0.000000 -0.672856 0.739774
vn 0.000000 -0.672856 0.739774
vn 0.000000 -0.672856 0.739774
vn 0.898000 -0.439995 0.000000
vn 0.898000 -0.439995 0.000000
vn 0.898000 -0.439995 0.000000
vn 0.898000 -0.439995 0.000000
vn 0.000000 -0.672856 -0.739773
vn 0.000000 -0.672857 -0.739773
vn 0.000000 -0.672856 -0.739773
vn 0.000000 -0.672856 -0.739773
s off
f 1/20/1 2/2/2 4/21/3 3/17/4
f 9/33/5 10/34/6 11/35/7 12/36/8
f 5/5/9 6/16/10 8/8/11 7/24/12
f 13/37/13 14/38/14 15/39/15 16/40/16
f 2/19/17 8/11/18 6/12/19 4/4/20
f 17/41/21 18/53/22 19/50/23 20/46/24
f 3/3/25 4/15/26 10/26/27 9/25/28
f 4/15/29 6/6/30 11/27/31 10/26/32
f 6/6/33 5/18/34 12/28/35 11/27/36
f 5/18/37 3/3/38 9/25/39 12/28/40
f 7/7/41 8/23/42 14/30/43 13/29/44
f 8/23/45 2/10/46 15/31/47 14/30/48
f 2/10/49 1/9/50 16/32/51 15/31/52
f 1/9/53 7/7/54 13/29/55 16/32/56
f 23/70/57 24/65/58 18/52/59 17/47/60
f 24/66/61 21/57/62 19/49/63 18/42/64
f 21/58/65 22/71/66 20/45/67 19/43/68
f 22/72/69 23/69/70 17/48/71 20/44/72
f 3/22/73 5/51/74 22/59/75 21/67/76
f 5/14/77 7/56/78 23/61/79 22/60/80
f 7/13/81 1/55/82 24/63/83 23/62/84
f 1/1/85 3/54/86 21/68/87 24/64/88
