# This file uses meters as units for non-parametric coordinates.

v -0.053094 0.052103 1.225624
v -0.053094 0.052103 -0.396892
v -0.053094 -0.052103 1.225624
v -0.053094 -0.052103 -0.396892
v 0.053093 -0.052103 1.225624
v 0.053094 -0.052103 -0.396892
v 0.053093 0.052103 1.225624
v 0.053094 0.052103 -0.396892
v 0.053094 0.052103 -0.229114
v 0.053094 -0.052103 -0.229114
v -0.053094 -0.052103 -0.229114
v -0.053094 0.052103 -0.229114
v 0.053093 0.052103 0.181516
v 0.053093 -0.052103 0.181516
v -0.053094 -0.052103 0.181516
v -0.053094 0.052103 0.181516
v 0.039222 0.038489 -0.396892
v -0.039223 0.038489 -0.396892
v 0.039222 -0.038489 -0.396892
v -0.039223 -0.038489 -0.396892
v -0.053094 0.052103 1.141932
v 0.053093 0.052103 1.141932
v 0.053093 -0.052103 1.141932
v -0.053094 -0.052103 1.141932
v 0.053094 -0.052103 0.962994
v 0.053094 0.052103 0.962994
v -0.053094 0.052103 0.962994
v -0.053094 -0.052103 0.962994
v 0.053093 -0.052103 0.316420
v 0.053093 0.052103 0.316420
v -0.053094 0.052103 0.316420
v -0.053094 -0.052103 0.316420
v -0.129712 0.052103 0.660769
v -0.023524 0.052103 0.660769
v -0.023524 -0.052103 0.660769
v -0.129712 -0.052103 0.660769
v 0.067240 0.067272 1.141932
v 0.067240 -0.067272 1.141932
v 0.067241 -0.067272 0.962994
v 0.067241 0.067272 0.962994
v -0.067241 -0.067272 1.141932
v -0.067241 -0.067272 0.962994
v -0.067241 0.067272 1.141932
v -0.067241 0.067272 0.962994
v 0.039993 0.039248 1.225624
v -0.039998 0.039248 1.225624
v -0.039998 -0.039249 1.225624
v 0.039993 -0.039249 1.225624
v 0.067240 0.034216 1.087758
v 0.067240 -0.034216 1.087758
v 0.067240 -0.034216 1.017166
v 0.067240 0.034216 1.017166
v 0.116617 0.034216 1.087758
v 0.116617 -0.034216 1.087758
v 0.116617 -0.034216 1.017166
v 0.116617 0.034216 1.017166
v 0.116617 0.023275 1.076471
v 0.116617 -0.023275 1.076471
v 0.116617 -0.023275 1.028453
v 0.116617 0.023275 1.028453
vt 0.298772 0.059641
vt 0.272248 0.059641
vt 0.322644 0.059641
vt 0.298772 0.059641
vt 0.272248 0.059641
vt 0.322644 0.059641
vt 0.330039 0.059641
vt 0.272248 0.059641
vt 0.330039 0.059641
vt 0.330039 0.059641
vt 0.298772 0.059641
vt 0.298772 0.059641
vt 0.298772 0.059641
vt 0.298772 0.059641
vt 0.322644 0.059641
vt 0.272248 0.059641
vt 0.272248 0.059641
vt 0.322644 0.059641
vt 0.298772 0.059641
vt 0.272248 0.059641
vt 0.272248 0.059641
vt 0.298772 0.059641
vt 0.330039 0.059641
vt 0.272248 0.059641
vt 0.330039 0.059641
vt 0.272248 0.059641
vt 0.272248 0.059641
vt 0.322644 0.059641
vt 0.322644 0.059641
vt 0.272248 0.059641
vt 0.272248 0.059641
vt 0.330039 0.059641
vt 0.330039 0.059641
vt 0.272248 0.059641
vt 0.272248 0.059641
vt 0.322644 0.059641
vt 0.322644 0.059641
vt 0.272248 0.059641
vt 0.272248 0.059641
vt 0.330039 0.059641
vt 0.518783 0.013350
vt 0.532190 0.013350
vt 0.532190 0.042544
vt 0.518783 0.042544
vt 0.521798 0.013350
vt 0.511101 0.013350
vt 0.511101 0.042544
vt 0.521798 0.042544
vt 0.529277 0.013350
vt 0.519552 0.013350
vt 0.519552 0.042544
vt 0.529277 0.042544
vt 0.513161 0.013350
vt 0.522495 0.013350
vt 0.522495 0.042544
vt 0.513161 0.042544
vt 0.298772 0.059641
vt 0.298772 0.059641
vt 0.298772 0.059641
vt 0.298772 0.059641
vt 0.111790 0.479775
vt 0.111790 0.479775
vt 0.111790 0.479775
vt 0.111790 0.479775
vt 0.272248 0.059641
vt 0.330039 0.059641
vt 0.330039 0.059641
vt 0.272248 0.059641
vt 0.272248 0.059641
vt 0.322644 0.059641
vt 0.322644 0.059641
vt 0.272248 0.059641
vt 0.272248 0.059641
vt 0.322644 0.059641
vt 0.330039 0.059641
vt 0.272248 0.059641
vt 0.272248 0.059641
vt 0.330039 0.059641
vt 0.322644 0.059641
vt 0.272248 0.059641
vt 0.272248 0.059641
vt 0.322644 0.059641
vt 0.330039 0.059641
vt 0.272248 0.059641
vt 0.272248 0.059641
vt 0.330039 0.059641
vt 0.322644 0.059641
vt 0.272248 0.059641
vt 0.272248 0.059641
vt 0.330039 0.059641
vt 0.330039 0.059641
vt 0.272248 0.059641
vt 0.272248 0.059641
vt 0.322644 0.059641
vt 0.322644 0.059641
vt 0.272248 0.059641
vt 0.235845 0.059641
vt 0.235845 0.059641
vt 0.235845 0.059641
vt 0.235845 0.059641
vt 0.286241 0.059641
vt 0.286241 0.059641
vt 0.286241 0.059641
vt 0.286241 0.059641
vt 0.235845 0.059641
vt 0.235845 0.059641
vt 0.235845 0.059641
vt 0.235845 0.059641
vt 0.293636 0.059641
vt 0.293636 0.059641
vt 0.293636 0.059641
vt 0.293636 0.059641
vt 0.164311 0.061104
vt 0.164311 0.061104
vt 0.164311 0.061104
vt 0.164311 0.061104
vt 0.164311 0.061104
vt 0.164311 0.061104
vt 0.164311 0.061104
vt 0.164311 0.061104
vt 0.164311 0.061104
vt 0.164311 0.061104
vt 0.164311 0.061104
vt 0.164311 0.061104
vt 0.164311 0.061104
vt 0.164311 0.061104
vt 0.164311 0.061104
vt 0.164311 0.061104
vt 0.298772 0.059641
vt 0.298772 0.059641
vt 0.298772 0.059641
vt 0.298772 0.059641
vt 0.111790 0.474542
vt 0.111790 0.474542
vt 0.111790 0.474542
vt 0.111790 0.474542
vt 0.145944 0.059641
vt 0.168432 0.059641
vt 0.145944 0.059641
vt 0.168432 0.059641
vt 0.204561 0.059641
vt 0.204561 0.059641
vt 0.204561 0.059641
vt 0.204561 0.059641
vt 0.204561 0.059641
vt 0.204561 0.059641
vt 0.204561 0.059641
vt 0.204561 0.059641
vt 0.111790 0.476286
vt 0.111790 0.476286
vt 0.111790 0.476286
vt 0.111790 0.476286
vt 0.145944 0.059641
vt 0.168432 0.059641
vt 0.168432 0.059641
vt 0.145944 0.059641
vt 0.145944 0.059641
vt 0.168432 0.059641
vt 0.235845 0.059641
vt 0.145944 0.059641
vt 0.168432 0.059641
vt 0.145944 0.059641
vt 0.235845 0.059641
vt 0.168432 0.059641
vt 0.235845 0.059641
vt 0.145944 0.059641
vt 0.235845 0.059641
vt 0.168432 0.059641
vt 0.204561 0.059641
vt 0.204561 0.059641
vt 0.204561 0.059641
vt 0.204561 0.059641
vt 0.204561 0.059641
vt 0.204561 0.059641
vt 0.204561 0.059641
vt 0.204561 0.059641
vt 0.235845 0.059641
vt 0.235845 0.059641
vt 0.235845 0.059641
vt 0.235845 0.059641
vt 0.164311 0.061104
vt 0.235845 0.059641
vt 0.164311 0.061104
vt 0.235845 0.059641
vt 0.164311 0.061104
vt 0.235845 0.059641
vt 0.164311 0.061104
vt 0.235845 0.059641
vt 0.164311 0.061104
vt 0.164311 0.061104
vt 0.164311 0.061104
vt 0.164311 0.061104
vt 0.164311 0.061104
vt 0.164311 0.061104
vt 0.164311 0.061104
vt 0.164311 0.061104
vt 0.164311 0.061104
vt 0.164311 0.061104
vt 0.164311 0.061104
vt 0.164311 0.061104
vn -1.000000 0.000000 -0.000001
vn -1.000000 0.000000 -0.000001
vn -1.000000 0.000000 0.000000
vn -1.000000 0.000000 0.000000
vn 0.000000 -1.000000 -0.000000
vn 0.000000 -1.000000 -0.000000
vn 0.000000 -1.000000 0.000000
vn 0.000000 -1.000000 0.000000
vn 1.000000 0.000000 0.000001
vn 1.000000 0.000000 0.000001
vn 1.000000 0.000000 0.000000
vn 1.000000 0.000000 0.000000
vn 0.000000 1.000000 0.000000
vn 0.000000 1.000000 0.000000
vn 0.000000 1.000000 0.000000
vn 0.000000 1.000000 0.000000
vn 0.000000 0.000000 -1.000000
vn 0.000000 0.000000 -1.000000
vn 0.000000 0.000000 -1.000000
vn 0.000000 0.000000 -1.000000
vn -0.000001 0.000000 1.000000
vn 0.000001 0.000000 1.000000
vn 0.000001 0.000000 1.000000
vn -0.000001 0.000000 1.000000
vn 1.000000 0.000000 0.000001
vn 1.000000 0.000000 0.000001
vn 1.000000 0.000000 0.000001
vn 1.000000 0.000000 0.000001
vn 0.000000 -1.000000 -0.000000
vn 0.000000 -1.000000 -0.000000
vn 0.000000 -1.000000 -0.000000
vn 0.000000 -1.000000 -0.000000
vn -1.000000 0.000000 -0.000001
vn -1.000000 0.000000 -0.000001
vn -1.000000 0.000000 -0.000001
vn -1.000000 0.000000 -0.000001
vn 0.000000 1.000000 0.000000
vn 0.000000 1.000000 0.000000
vn 0.000000 1.000000 0.000000
vn 0.000000 1.000000 0.000000
vn 1.000000 -0.000000 -0.000004
vn 1.000000 -0.000000 -0.000004
vn 1.000000 -0.000000 -0.000004
vn 1.000000 -0.000000 -0.000004
vn 0.000000 -1.000000 -0.000000
vn 0.000000 -1.000000 -0.000000
vn 0.000000 -1.000000 -0.000000
vn 0.000000 -1.000000 -0.000000
vn -1.000000 0.000000 -0.000003
vn -1.000000 0.000000 -0.000003
vn -1.000000 0.000000 -0.000003
vn -1.000000 0.000000 -0.000003
vn 0.000000 1.000000 0.000000
vn 0.000000 1.000000 0.000000
vn 0.000000 1.000000 0.000000
vn 0.000000 1.000000 0.000000
vn 0.000001 0.000000 -1.000000
vn 0.000000 0.000000 -1.000000
vn 0.000000 0.000000 -1.000000
vn 0.000000 0.000000 -1.000000
vn 0.000000 0.000000 -1.000000
vn 0.000000 0.000000 -1.000000
vn 0.000000 0.000000 -1.000000
vn 0.000000 0.000000 -1.000000
vn 0.000000 0.000000 -1.000000
vn 0.000001 0.000000 -1.000000
vn 0.000000 0.000000 -1.000000
vn 0.000000 0.000000 -1.000000
vn 0.000001 0.000000 -1.000000
vn 0.000001 0.000000 -1.000000
vn 0.000000 0.000000 -1.000000
vn 0.000000 0.000000 -1.000000
vn 0.000000 1.000000 0.000000
vn 0.000000 1.000000 0.000000
vn 0.000000 1.000000 0.000000
vn 0.000000 1.000000 0.000000
vn 1.000000 0.000000 0.000000
vn 1.000000 0.000000 0.000000
vn 1.000000 0.000000 0.000000
vn 1.000000 0.000000 0.000000
vn 0.000000 -1.000000 0.000000
vn 0.000000 -1.000000 0.000000
vn 0.000000 -1.000000 0.000000
vn 0.000000 -1.000000 0.000000
vn -1.000000 0.000000 0.000000
vn -1.000000 0.000000 0.000000
vn -1.000000 0.000000 0.000000
vn -1.000000 0.000000 0.000000
vn 0.976130 0.000000 0.217189
vn 0.976130 0.000000 0.217189
vn 0.976130 0.000000 0.217189
vn 0.976130 0.000000 0.217189
vn 0.000000 1.000000 0.000000
vn 0.000000 1.000000 0.000000
vn 0.000000 1.000000 0.000000
vn 0.000000 1.000000 0.000000
vn -0.976130 0.000000 -0.217189
vn -0.976130 0.000000 -0.217189
vn -0.976130 0.000000 -0.217189
vn -0.976130 0.000000 -0.217189
vn 0.000000 -1.000000 0.000000
vn 0.000000 -1.000000 0.000000
vn 0.000000 -1.000000 0.000000
vn 0.000000 -1.000000 0.000000
vn 1.000000 0.000000 0.000000
vn 1.000000 0.000000 0.000000
vn 1.000000 0.000000 0.000001
vn 1.000000 0.000000 0.000001
vn 0.000000 1.000000 0.000000
vn 0.000000 1.000000 0.000000
vn 0.000000 1.000000 0.000000
vn 0.000000 1.000000 0.000000
vn -1.000000 0.000000 0.000000
vn -1.000000 0.000000 0.000000
vn -1.000000 0.000000 -0.000001
vn -1.000000 0.000000 -0.000001
vn 0.000000 -1.000000 0.000000
vn 0.000000 -1.000000 0.000000
vn 0.000000 -1.000000 -0.000000
vn 0.000000 -1.000000 -0.000000
vn 0.000000 1.000000 0.000000
vn 0.000000 1.000000 0.000000
vn 0.000000 1.000000 0.000000
vn 0.000000 1.000000 0.000000
vn 0.969336 0.000000 -0.245740
vn 0.969336 0.000000 -0.245740
vn 0.969336 0.000000 -0.245740
vn 0.969336 0.000000 -0.245740
vn 0.000000 -1.000000 0.000000
vn 0.000000 -1.000000 0.000000
vn 0.000000 -1.000000 0.000000
vn 0.000000 -1.000000 0.000000
vn -0.969336 0.000000 0.245740
vn -0.969336 0.000000 0.245740
vn -0.969336 0.000000 0.245740
vn -0.969336 0.000000 0.245740
vn -0.000003 0.000000 1.000000
vn -0.000003 0.000000 1.000000
vn -0.000003 0.000000 1.000000
vn -0.000003 0.000000 1.000000
vn -0.000001 0.000000 -1.000000
vn -0.000001 0.000000 -1.000000
vn -0.000001 0.000000 -1.000000
vn -0.000001 0.000000 -1.000000
vn -0.000003 0.000000 1.000000
vn 0.000003 0.000000 1.000000
vn 0.000003 0.000000 1.000000
vn -0.000003 0.000000 1.000000
vn 0.000001 0.000000 -1.000000
vn -0.000001 0.000000 -1.000000
vn -0.000001 0.000000 -1.000000
vn 0.000001 0.000000 -1.000000
vn 0.000003 0.000000 1.000000
vn 0.000003 0.000000 1.000000
vn 0.000003 0.000000 1.000000
vn 0.000003 0.000000 1.000000
vn 0.000001 0.000000 -1.000000
vn 0.000001 0.000000 -1.000000
vn 0.000001 0.000000 -1.000000
vn 0.000001 0.000000 -1.000000
vn 0.000003 0.000000 1.000000
vn -0.000003 0.000000 1.000000
vn -0.000003 0.000000 1.000000
vn 0.000003 0.000000 1.000000
vn -0.000001 0.000000 -1.000000
vn 0.000001 0.000000 -1.000000
vn 0.000001 0.000000 -1.000000
vn -0.000001 0.000000 -1.000000
vn -0.000004 0.000000 1.000000
vn 0.000002 0.000000 1.000000
vn 0.000001 0.000000 1.000000
vn -0.000001 0.000000 1.000000
vn 0.000002 0.000000 1.000000
vn 0.000002 0.000000 1.000000
vn 0.000001 0.000000 1.000000
vn 0.000001 0.000000 1.000000
vn 0.000002 0.000000 1.000000
vn -0.000004 0.000000 1.000000
vn -0.000001 0.000000 1.000000
vn 0.000001 0.000000 1.000000
vn -0.000004 0.000000 1.000000
vn -0.000004 0.000000 1.000000
vn -0.000001 0.000000 1.000000
vn -0.000001 0.000000 1.000000
vn 1.000000 -0.000002 0.000001
vn 1.000000 0.000002 0.000001
vn 1.000000 0.000003 0.000001
vn 1.000000 -0.000003 0.000001
vn 1.000000 0.000002 0.000001
vn 1.000000 0.000002 0.000007
vn 1.000000 0.000003 0.000006
vn 1.000000 0.000003 0.000001
vn 1.000000 0.000002 0.000007
vn 1.000000 -0.000002 0.000007
vn 1.000000 -0.000003 0.000006
vn 1.000000 0.000003 0.000006
vn 1.000000 -0.000002 0.000007
vn 1.000000 -0.000002 0.000001
vn 1.000000 -0.000003 0.000001
vn 1.000000 -0.000003 0.000006
vn 0.000000 0.000000 1.000000
vn 0.000000 0.000000 1.000000
vn 0.000000 0.000000 1.000000
vn 0.000000 0.000000 1.000000
vn 0.000000 -1.000000 -0.000000
vn 0.000000 -1.000000 -0.000000
vn 0.000000 -1.000000 -0.000000
vn 0.000000 -1.000000 -0.000000
vn 0.000000 0.000000 -1.000000
vn 0.000000 0.000000 -1.000000
vn 0.000000 0.000000 -1.000000
vn 0.000000 0.000000 -1.000000
vn 0.000000 1.000000 0.000000
vn 0.000000 1.000000 0.000000
vn 0.000000 1.000000 0.000000
vn 0.000000 1.000000 0.000000
vn 1.000000 -0.000000 -0.000002
vn 1.000000 -0.000000 -0.000002
vn 1.000000 -0.000000 -0.000004
vn 1.000000 -0.000000 -0.000004
vn 1.000000 -0.000000 -0.000002
vn 1.000000 -0.000000 -0.000002
vn 1.000000 -0.000000 -0.000004
vn 1.000000 -0.000000 -0.000004
vn 1.000000 -0.000000 -0.000002
vn 1.000000 -0.000000 -0.000002
vn 1.000000 -0.000000 -0.000004
vn 1.000000 -0.000000 -0.000004
vn 1.000000 -0.000000 -0.000002
vn 1.000000 -0.000000 -0.000002
vn 1.000000 -0.000000 -0.000004
vn 1.000000 -0.000000 -0.000004
s off
f 11/30/1 12/31/2 2/2/3 4/21/4
f 10/28/5 11/29/6 4/15/7 6/6/8
f 9/26/9 10/27/10 6/16/11 8/8/12
f 12/32/13 9/25/14 8/23/15 2/10/16
f 18/61/17 17/62/18 19/63/19 20/64/20
f 45/133/21 46/134/22 47/135/23 48/136/24
f 13/45/25 14/46/26 10/47/27 9/48/28
f 14/53/29 15/54/30 11/55/31 10/56/32
f 15/41/33 16/42/34 12/43/35 11/44/36
f 16/49/37 13/50/38 9/51/39 12/52/40
f 57/149/41 58/150/42 59/151/43 60/152/44
f 38/101/45 41/102/46 42/103/47 39/104/48
f 41/105/49 43/106/50 44/107/51 42/108/52
f 43/109/53 37/110/54 40/111/55 44/112/56
f 2/19/57 8/11/58 17/58/59 18/57/60
f 8/11/61 6/12/62 19/59/63 17/58/64
f 6/12/65 4/4/66 20/60/67 19/59/68
f 4/4/69 2/19/70 18/57/71 20/60/72
f 7/7/73 22/67/74 21/66/75 1/9/76
f 5/5/77 23/69/78 22/68/79 7/24/80
f 3/3/81 24/71/82 23/70/83 5/18/84
f 1/20/85 21/65/86 24/72/87 3/17/88
f 34/92/89 35/93/90 29/81/91 30/84/92
f 33/90/93 34/91/94 30/83/95 31/86/96
f 36/96/97 33/89/98 31/85/99 32/88/100
f 35/94/101 36/95/102 32/87/103 29/82/104
f 30/84/105 29/81/106 14/35/107 13/34/108
f 31/86/109 30/83/110 13/33/111 16/40/112
f 32/88/113 31/85/114 16/39/115 15/38/116
f 29/82/117 32/87/118 15/37/119 14/36/120
f 27/78/121 26/75/122 34/91/123 33/90/124
f 26/76/125 25/73/126 35/93/127 34/92/128
f 25/74/129 28/79/130 36/95/131 35/94/132
f 28/80/133 27/77/134 33/89/135 36/96/136
f 22/113/137 23/199/138 38/185/139 37/116/140
f 25/117/141 26/197/142 40/181/143 39/120/144
f 23/114/145 24/196/146 41/193/147 38/115/148
f 28/123/149 25/198/150 39/183/151 42/124/152
f 24/121/153 21/194/154 43/190/155 41/122/156
f 27/127/157 28/195/158 42/191/159 44/128/160
f 21/125/161 22/200/162 37/187/163 43/126/164
f 26/118/165 27/192/166 44/189/167 40/119/168
f 7/13/169 1/1/170 46/130/171 45/129/172
f 1/1/173 3/22/174 47/131/175 46/130/176
f 3/22/177 5/14/178 48/132/179 47/131/180
f 5/14/181 7/13/182 45/129/183 48/132/184
f 37/97/185 38/186/186 50/179/187 49/167/188
f 38/98/189 39/184/190 51/178/191 50/165/192
f 39/99/193 40/182/194 52/177/195 51/163/196
f 40/100/197 37/188/198 49/180/199 52/159/200
f 49/137/201 50/166/202 54/162/203 53/153/204
f 50/138/205 51/164/206 55/158/207 54/161/208
f 51/139/209 52/160/210 56/156/211 55/157/212
f 52/140/213 49/168/214 53/154/215 56/155/216
f 53/141/217 54/175/218 58/173/219 57/145/220
f 54/142/221 55/174/222 59/171/223 58/146/224
f 55/143/225 56/172/226 60/170/227 59/147/228
f 56/144/229 53/176/230 57/169/231 60/148/232
