# This file uses meters as units for non-parametric coordinates.

v 0.057564 -0.062734 -0.581333
v 0.057564 0.062734 -0.581333
v -0.057549 0.062734 -0.581333
v -0.057549 -0.062734 -0.581333
v -0.057549 0.062734 -0.355174
v 0.057564 0.062734 -0.355174
v 0.057564 -0.062734 -0.355174
v -0.057549 -0.062734 -0.355174
v -0.057549 0.062734 0.378814
v 0.057558 0.062734 0.378814
v 0.057558 -0.062734 0.378814
v -0.057549 -0.062734 0.378814
v 0.057558 0.062734 2.567689
v -0.057549 0.062734 2.567689
v -0.057549 -0.062734 2.567689
v 0.057558 -0.062734 2.567689
v 0.280212 0.032024 2.717836
v -0.280204 0.032024 2.717836
v -0.280204 -0.032024 2.717836
v 0.280212 -0.032024 2.717836
v 0.280212 0.032024 3.658953
v -0.280204 0.032024 3.658953
v -0.280204 -0.032024 3.658953
v 0.280212 -0.032024 3.658953
v -0.155834 0.032024 3.837425
v -0.155834 -0.032024 3.837425
v 0.155847 -0.032024 3.837425
v 0.155847 0.032024 3.837425
vt 0.325073 0.398183
vt 0.290794 0.398183
vt 0.417372 0.398183
vt 0.325073 0.398183
vt 0.417372 0.398183
vt 0.290794 0.398183
vt 0.290794 0.398183
vt 0.417372 0.398183
vt 0.290794 0.398183
vt 0.325073 0.398183
vt 0.325073 0.398183
vt 0.417372 0.398183
vt 0.519262 0.043981
vt 0.417372 0.398183
vt 0.531835 0.043981
vt 0.325073 0.398183
vt 0.520975 0.043981
vt 0.417372 0.398183
vt 0.518696 0.043981
vt 0.325073 0.398183
vt 0.263092 0.397867
vt 0.519183 0.043981
vt 0.425068 0.395668
vt 0.519688 0.043981
vt 0.263092 0.400066
vt 0.523185 0.043981
vt 0.425068 0.395668
vt 0.526680 0.043981
vt 0.523185 0.012342
vt 0.263092 0.397867
vt 0.526680 0.012342
vt 0.425068 0.395668
vt 0.519688 0.012342
vt 0.425068 0.395668
vt 0.519183 0.012342
vt 0.263092 0.400066
vt 0.417372 0.398183
vt 0.519262 0.012342
vt 0.325073 0.398183
vt 0.518696 0.012342
vt 0.417372 0.398183
vt 0.520975 0.012342
vt 0.325073 0.398183
vt 0.531835 0.012342
vt 0.421010 0.398017
vt 0.354901 0.398017
vt 0.326744 0.398017
vt 0.354901 0.398017
vt 0.421010 0.398017
vt 0.354901 0.398017
vt 0.326744 0.398017
vt 0.354901 0.398017
vt 0.354901 0.398017
vt 0.354901 0.398017
vt 0.421010 0.398017
vt 0.421010 0.398017
vt 0.354901 0.398017
vt 0.421010 0.398017
vt 0.421010 0.398017
vt 0.421010 0.398017
vt 0.354901 0.398017
vt 0.425068 0.395668
vt 0.421010 0.398017
vt 0.425068 0.395668
vt 0.263092 0.400066
vt 0.326744 0.398017
vt 0.326744 0.398017
vt 0.354901 0.398017
vt 0.326744 0.398017
vt 0.326744 0.398017
vt 0.326744 0.398017
vt 0.354901 0.398017
vt 0.425068 0.395668
vt 0.326744 0.398017
vt 0.425068 0.395668
vt 0.263092 0.397867
vt 0.263092 0.400066
vt 0.354901 0.398017
vt 0.354901 0.398017
vt 0.263092 0.397867
vt 0.390104 0.398017
vt 0.332799 0.398017
vt 0.390104 0.398017
vt 0.421841 0.398017
vt 0.390104 0.398017
vt 0.332799 0.398017
vt 0.390104 0.398017
vt 0.421841 0.398017
vt 0.390104 0.398017
vt 0.421841 0.398017
vt 0.390104 0.398017
vt 0.421841 0.398017
vt 0.390104 0.398017
vt 0.332799 0.398017
vt 0.332799 0.398017
vt 0.390104 0.398017
vn 1.000000 0.000000 0.000006
vn 1.000000 0.000000 0.000006
vn 1.000000 0.000000 0.000000
vn 1.000000 0.000000 0.000000
vn 0.000000 1.000000 0.000000
vn 0.000000 1.000000 0.000000
vn 0.000000 1.000000 0.000000
vn 0.000000 1.000000 0.000000
vn -1.000000 0.000000 0.000000
vn -1.000000 0.000000 0.000000
vn -1.000000 0.000000 0.000000
vn -1.000000 0.000000 0.000000
vn 0.000000 -1.000000 0.000000
vn 0.000000 -1.000000 0.000000
vn 0.000000 -1.000000 0.000000
vn 0.000000 -1.000000 0.000000
vn 0.000000 0.000000 -1.000000
vn 0.000000 0.000000 -1.000000
vn 0.000000 0.000000 -1.000000
vn 0.000000 0.000000 -1.000000
vn 0.000000 1.000000 0.000000
vn 0.000000 1.000000 0.000000
vn 0.000000 1.000000 0.000000
vn 0.000000 1.000000 0.000000
vn 1.000000 0.000000 0.000002
vn 1.000000 0.000000 0.000002
vn 1.000000 0.000000 0.000006
vn 1.000000 0.000000 0.000006
vn 0.000000 -1.000000 0.000000
vn 0.000000 -1.000000 0.000000
vn 0.000000 -1.000000 0.000000
vn 0.000000 -1.000000 0.000000
vn -1.000000 0.000000 0.000000
vn -1.000000 0.000000 0.000000
vn -1.000000 0.000000 0.000000
vn -1.000000 0.000000 0.000000
vn 0.000000 1.000000 0.000000
vn 0.000000 1.000000 0.000000
vn 0.000000 1.000000 0.000000
vn 0.000000 1.000000 0.000000
vn 1.000000 0.000000 0.000000
vn 1.000000 0.000000 0.000002
vn 1.000000 0.000000 0.000002
vn 1.000000 0.000000 0.000000
vn 0.000000 -1.000000 0.000000
vn 0.000000 -1.000000 0.000000
vn 0.000000 -1.000000 0.000000
vn 0.000000 -1.000000 0.000000
vn -1.000000 0.000000 0.000000
vn -1.000000 0.000000 0.000000
vn -1.000000 0.000000 0.000000
vn -1.000000 0.000000 0.000000
vn 0.000000 0.979717 0.200386
vn 0.000000 0.979717 0.200386
vn 0.000000 0.979717 0.200386
vn 0.000000 0.979717 0.200386
vn -0.559104 0.000000 -0.829098
vn -0.559104 0.000000 -0.829098
vn -0.559104 0.000000 -0.829098
vn -0.559104 0.000000 -0.829098
vn 0.000000 -0.979717 0.200386
vn 0.000000 -0.979717 0.200386
vn 0.000000 -0.979717 0.200386
vn 0.000000 -0.979717 0.200386
vn 0.559104 0.000000 -0.829098
vn 0.559104 0.000000 -0.829098
vn 0.559104 0.000000 -0.829098
vn 0.559104 0.000000 -0.829098
vn 0.000000 1.000000 0.000000
vn 0.000000 1.000000 0.000000
vn 0.000000 1.000000 0.000000
vn 0.000000 1.000000 0.000000
vn -1.000000 0.000000 -0.000000
vn -1.000000 0.000000 -0.000000
vn -1.000000 0.000000 -0.000000
vn -1.000000 0.000000 -0.000000
vn 0.000000 -1.000000 0.000000
vn 0.000000 -1.000000 0.000000
vn 0.000000 -1.000000 0.000000
vn 0.000000 -1.000000 0.000000
vn 1.000000 0.000000 0.000000
vn 1.000000 0.000000 0.000000
vn 1.000000 0.000000 0.000000
vn 1.000000 0.000000 0.000000
vn 0.000000 0.000000 1.000000
vn 0.000000 0.000000 1.000000
vn 0.000000 0.000000 1.000000
vn 0.000000 0.000000 1.000000
vn -0.820441 0.000000 0.571732
vn -0.820441 0.000000 0.571732
vn -0.820441 0.000000 0.571732
vn -0.820441 0.000000 0.571732
vn 0.000000 -1.000000 0.000000
vn 0.000000 -1.000000 0.000000
vn 0.000000 -1.000000 0.000000
vn 0.000000 -1.000000 0.000000
vn 0.820449 0.000000 0.571720
vn 0.820449 0.000000 0.571720
vn 0.820449 0.000000 0.571720
vn 0.820449 0.000000 0.571720
vn 0.000000 1.000000 0.000000
vn 0.000000 1.000000 0.000000
vn 0.000000 1.000000 0.000000
vn 0.000000 1.000000 0.000000
s off
f 6/16/1 7/39/2 1/1/3 2/11/4
f 5/14/5 6/41/6 2/12/7 3/3/8
f 8/20/9 5/43/10 3/10/11 4/4/12
f 7/18/13 8/37/14 4/8/15 1/5/16
f 1/9/17 4/6/18 3/7/19 2/2/20
f 9/15/21 10/22/22 6/35/23 5/44/24
f 10/17/25 11/24/26 7/33/27 6/42/28
f 11/19/29 12/26/30 8/29/31 7/40/32
f 12/13/33 9/28/34 5/31/35 8/38/36
f 13/23/37 10/27/38 9/32/39 14/34/40
f 16/25/41 11/36/42 10/65/43 13/77/44
f 15/62/45 12/64/46 11/73/47 16/75/48
f 14/21/49 9/30/50 12/76/51 15/80/52
f 13/45/53 14/63/54 18/58/55 17/60/56
f 14/46/57 15/79/58 19/72/59 18/50/60
f 15/47/61 16/74/62 20/69/63 19/71/64
f 16/48/65 13/78/66 17/61/67 20/52/68
f 17/49/69 18/59/70 22/55/71 21/56/72
f 18/50/73 19/72/74 23/68/75 22/53/76
f 19/51/77 20/70/78 24/66/79 23/67/80
f 20/52/81 17/61/82 21/57/83 24/54/84
f 25/85/85 26/93/86 27/87/87 28/89/88
f 22/81/89 23/96/90 26/93/91 25/85/92
f 23/82/93 24/95/94 27/94/95 26/86/96
f 24/83/97 21/91/98 28/89/99 27/87/100
f 21/84/101 22/92/102 25/90/103 28/88/104
