# This file uses meters as units for non-parametric coordinates.

v 0.366918 -0.615877 -0.045473
v 0.489223 -0.615877 -0.257312
v 0.366917 -0.615877 -0.469152
v 0.122305 -0.615877 -0.469152
v 0.000000 -0.615877 -0.257313
v 0.122306 -0.615877 -0.045473
v 0.366918 0.419644 -0.045473
v 0.489223 0.419644 -0.257312
v 0.366917 0.419644 -0.469152
v 0.122305 0.419644 -0.469152
v 0.000000 0.419644 -0.257313
v 0.122306 0.419644 -0.045473
v 0.198206 0.544644 -0.176935
v 0.291018 0.544644 -0.176935
v 0.337423 0.544644 -0.257312
v 0.291018 0.544644 -0.337689
v 0.198206 0.544644 -0.337690
v 0.151800 0.544644 -0.257312
v 0.198206 0.615877 -0.176935
v 0.291018 0.615877 -0.176935
v 0.337423 0.615877 -0.257312
v 0.291018 0.615877 -0.337689
v 0.198206 0.615877 -0.337690
v 0.151800 0.615877 -0.257312
v -0.118227 -0.615877 -0.045473
v 0.004078 -0.615877 -0.257312
v -0.118228 -0.615877 -0.469152
v -0.362840 -0.615877 -0.469152
v -0.485146 -0.615877 -0.257313
v -0.362839 -0.615877 -0.045473
v -0.118227 0.419644 -0.045473
v 0.004078 0.419644 -0.257312
v -0.118228 0.419644 -0.469152
v -0.362840 0.419644 -0.469152
v -0.485146 0.419644 -0.257313
v -0.362839 0.419644 -0.045473
v -0.286939 0.544644 -0.176935
v -0.194128 0.544644 -0.176935
v -0.147722 0.544644 -0.257312
v -0.194128 0.544644 -0.337689
v -0.286940 0.544644 -0.337690
v -0.333345 0.544644 -0.257312
v -0.286939 0.615877 -0.176935
v -0.194128 0.615877 -0.176935
v -0.147722 0.615877 -0.257312
v -0.194128 0.615877 -0.337689
v -0.286940 0.615877 -0.337690
v -0.333345 0.615877 -0.257312
v -0.531081 0.551865 -0.085974
v -0.531081 -0.609041 -0.085974
v -0.531081 0.551865 -0.004205
v -0.531081 -0.609041 -0.004205
v 0.531081 0.551865 -0.004205
v 0.531081 -0.609041 -0.004205
v 0.531081 0.551865 -0.085974
v 0.531081 -0.609041 -0.085974
v -0.437838 0.476484 -0.004205
v -0.437838 -0.533660 -0.004205
v 0.437837 -0.533660 -0.004205
v 0.437837 0.476484 -0.004205
v 0.437837 0.476484 -0.085974
v 0.437837 -0.533660 -0.085974
v -0.437838 -0.533660 -0.085974
v -0.437838 0.476484 -0.085974
v -0.131954 -0.419632 -0.418583
v -0.131954 -0.419632 -0.365507
v 0.131954 -0.419632 -0.365507
v 0.131954 -0.419632 -0.418583
v -0.108787 -0.370702 -0.365507
v 0.108787 -0.370702 -0.365507
v 0.108787 -0.370702 -0.418583
v -0.108787 -0.370702 -0.418583
v -0.131954 0.333904 -0.418583
v -0.131954 0.333904 -0.365507
v 0.131954 0.333904 -0.365507
v 0.131954 0.333904 -0.418583
v -0.108787 0.284974 -0.365507
v 0.108787 0.284974 -0.365507
v 0.108787 0.284974 -0.418583
v -0.108787 0.284974 -0.418583
vt 0.164580 0.285855
vt 0.164580 0.285855
vt 0.164580 0.285855
vt 0.164580 0.285855
vt 0.234605 0.285855
vt 0.234605 0.285855
vt 0.234605 0.285855
vt 0.234605 0.285855
vt 0.267822 0.285855
vt 0.267822 0.285855
vt 0.267822 0.285855
vt 0.267822 0.285855
vt 0.208570 0.285855
vt 0.208570 0.285855
vt 0.208570 0.285855
vt 0.208570 0.285855
vt 0.164580 0.285855
vt 0.164580 0.285855
vt 0.164580 0.285855
vt 0.164580 0.285855
vt 0.152909 0.285855
vt 0.152909 0.285855
vt 0.152909 0.285855
vt 0.152909 0.285855
vt 0.136749 0.285855
vt 0.136749 0.285854
vt 0.136749 0.285855
vt 0.136749 0.285855
vt 0.136749 0.285854
vt 0.136749 0.285855
vt 0.173557 0.062312
vt 0.173557 0.062312
vt 0.173557 0.062312
vt 0.173557 0.062312
vt 0.173557 0.062312
vt 0.173557 0.062312
vt 0.234605 0.288548
vt 0.234605 0.288548
vt 0.234605 0.288548
vt 0.234605 0.288548
vt 0.234605 0.288548
vt 0.234605 0.288548
vt 0.269618 0.288548
vt 0.269618 0.288548
vt 0.269618 0.288548
vt 0.269618 0.288548
vt 0.291164 0.288548
vt 0.291164 0.288548
vt 0.291164 0.288548
vt 0.291164 0.288548
vt 0.269618 0.288548
vt 0.269618 0.288548
vt 0.269618 0.288548
vt 0.269618 0.288548
vt 0.234605 0.288548
vt 0.234605 0.288548
vt 0.143033 0.062312
vt 0.143033 0.062312
vt 0.143033 0.062312
vt 0.143033 0.062312
vt 0.143033 0.062312
vt 0.143033 0.062312
vt 0.143033 0.062312
vt 0.143033 0.062312
vt 0.143033 0.062312
vt 0.143033 0.062312
vt 0.143033 0.062312
vt 0.143033 0.062312
vt 0.143033 0.062312
vt 0.143033 0.062312
vt 0.143033 0.062312
vt 0.143033 0.062312
vt 0.143033 0.062312
vt 0.143033 0.062312
vt 0.143033 0.062312
vt 0.143033 0.062312
vt 0.143033 0.062312
vt 0.143033 0.062312
vt 0.143033 0.062312
vt 0.143033 0.062312
vt 0.164580 0.285855
vt 0.164580 0.285855
vt 0.164580 0.285855
vt 0.164580 0.285855
vt 0.173557 0.285855
vt 0.173557 0.285855
vt 0.173557 0.285855
vt 0.173557 0.285855
vt 0.267822 0.285855
vt 0.267822 0.285855
vt 0.267822 0.285855
vt 0.267822 0.285855
vt 0.234605 0.285855
vt 0.234605 0.285855
vt 0.234605 0.285855
vt 0.234605 0.285855
vt 0.164580 0.285855
vt 0.164580 0.285855
vt 0.164580 0.285855
vt 0.164580 0.285855
vt 0.152909 0.285855
vt 0.152909 0.285855
vt 0.152909 0.285855
vt 0.152909 0.285855
vt 0.136749 0.285855
vt 0.136749 0.285854
vt 0.136749 0.285855
vt 0.136749 0.285855
vt 0.136749 0.285854
vt 0.136749 0.285855
vt 0.173557 0.062312
vt 0.173557 0.062312
vt 0.173557 0.062312
vt 0.173557 0.062312
vt 0.173557 0.062312
vt 0.173557 0.062312
vt 0.234605 0.288548
vt 0.234605 0.288548
vt 0.234605 0.288548
vt 0.234605 0.288548
vt 0.234605 0.288548
vt 0.234605 0.288548
vt 0.234605 0.288548
vt 0.234605 0.288548
vt 0.291164 0.288548
vt 0.291164 0.288548
vt 0.291164 0.288548
vt 0.291164 0.288548
vt 0.269618 0.288548
vt 0.269618 0.288548
vt 0.269618 0.288548
vt 0.269618 0.288548
vt 0.234605 0.288548
vt 0.234605 0.288548
vt 0.143033 0.062312
vt 0.143033 0.062312
vt 0.143033 0.062312
vt 0.143033 0.062312
vt 0.143033 0.062312
vt 0.143033 0.062312
vt 0.143033 0.062312
vt 0.143033 0.062312
vt 0.143033 0.062312
vt 0.143033 0.062312
vt 0.143033 0.062312
vt 0.143033 0.062312
vt 0.143033 0.062312
vt 0.143033 0.062312
vt 0.143033 0.062312
vt 0.143033 0.062312
vt 0.143033 0.062312
vt 0.143033 0.062312
vt 0.143033 0.062312
vt 0.143033 0.062312
vt 0.143033 0.062312
vt 0.143033 0.062312
vt 0.143033 0.062312
vt 0.143033 0.062312
vt 0.233002 0.060201
vt 0.233002 0.060201
vt 0.233002 0.060201
vt 0.233002 0.060201
vt 0.233002 0.060201
vt 0.233002 0.060201
vt 0.233002 0.060201
vt 0.233002 0.060201
vt 0.259007 0.060201
vt 0.259007 0.060201
vt 0.259007 0.060201
vt 0.259007 0.060201
vt 0.259007 0.060201
vt 0.259007 0.060201
vt 0.259007 0.060201
vt 0.259007 0.060201
vt 0.290922 0.060201
vt 0.290922 0.060201
vt 0.290922 0.060201
vt 0.290922 0.060201
vt 0.290922 0.060201
vt 0.290922 0.060201
vt 0.290922 0.060201
vt 0.290922 0.060201
vt 0.290922 0.060201
vt 0.290922 0.060201
vt 0.290922 0.060201
vt 0.290922 0.060201
vt 0.290922 0.060201
vt 0.290922 0.060201
vt 0.290922 0.060201
vt 0.290922 0.060201
vt 0.162080 0.060201
vt 0.162080 0.060201
vt 0.162080 0.060201
vt 0.162080 0.060201
vt 0.162080 0.060201
vt 0.162080 0.060201
vt 0.162080 0.060201
vt 0.162080 0.060201
vt 0.162080 0.060201
vt 0.162080 0.060201
vt 0.162080 0.060201
vt 0.162080 0.060201
vt 0.162080 0.060201
vt 0.162080 0.060201
vt 0.162080 0.060201
vt 0.162080 0.060201
vt 0.201941 0.061316
vt 0.201941 0.061316
vt 0.201941 0.061316
vt 0.201941 0.061316
vt 0.201941 0.061316
vt 0.201941 0.061316
vt 0.201941 0.061316
vt 0.201941 0.061316
vt 0.201941 0.061316
vt 0.201941 0.061316
vt 0.201941 0.061316
vt 0.201941 0.061316
vt 0.201941 0.061316
vt 0.201941 0.061316
vt 0.201941 0.061316
vt 0.201941 0.061316
vt 0.259007 0.060201
vt 0.259007 0.060201
vt 0.259007 0.060201
vt 0.259007 0.060201
vt 0.290922 0.060201
vt 0.290922 0.060201
vt 0.290922 0.060201
vt 0.290922 0.060201
vt 0.162080 0.060201
vt 0.162080 0.060201
vt 0.162080 0.060201
vt 0.162080 0.060201
vt 0.201941 0.061316
vt 0.201941 0.061316
vt 0.201941 0.061316
vt 0.201941 0.061316
vt 0.259007 0.060201
vt 0.259007 0.060201
vt 0.259007 0.060201
vt 0.259007 0.060201
vt 0.290922 0.060201
vt 0.290922 0.060201
vt 0.290922 0.060201
vt 0.290922 0.060201
vt 0.162080 0.060201
vt 0.162080 0.060201
vt 0.162080 0.060201
vt 0.162080 0.060201
vt 0.201941 0.061316
vt 0.201941 0.061316
vt 0.201941 0.061316
vt 0.201941 0.061316
vn 0.866025 0.000000 0.500000
vn 0.866025 0.000000 0.500000
vn 0.866025 0.000000 0.500000
vn 0.866025 0.000000 0.500000
vn 0.866025 0.000000 -0.500001
vn 0.866025 0.000000 -0.500001
vn 0.866025 0.000000 -0.500001
vn 0.866025 0.000000 -0.500001
vn 0.000002 0.000000 -1.000000
vn 0.000002 0.000000 -1.000000
vn 0.000002 0.000000 -1.000000
vn 0.000002 0.000000 -1.000000
vn -0.866026 0.000000 -0.499999
vn -0.866026 0.000000 -0.499999
vn -0.866026 0.000000 -0.499999
vn -0.866026 0.000000 -0.499999
vn -0.866024 0.000000 0.500002
vn -0.866024 0.000000 0.500002
vn -0.866024 0.000000 0.500002
vn -0.866024 0.000000 0.500002
vn -0.000002 0.000000 1.000000
vn -0.000002 0.000000 1.000000
vn -0.000002 0.000000 1.000000
vn -0.000002 0.000000 1.000000
vn 0.000000 -1.000000 0.000000
vn 0.000000 -1.000000 0.000000
vn 0.000000 -1.000000 0.000000
vn 0.000000 -1.000000 0.000000
vn 0.000000 -1.000000 0.000000
vn 0.000000 -1.000000 0.000000
vn 0.000000 1.000000 -0.000000
vn 0.000000 1.000000 -0.000000
vn 0.000000 1.000000 -0.000000
vn 0.000000 1.000000 -0.000000
vn 0.000000 1.000000 -0.000000
vn 0.000000 1.000000 -0.000000
vn -0.000001 0.724695 0.689070
vn -0.000001 0.724695 0.689070
vn -0.000001 0.724695 0.689070
vn -0.000001 0.724695 0.689070
vn 0.596751 0.724695 0.344535
vn 0.596752 0.724695 0.344535
vn 0.596751 0.724695 0.344535
vn 0.596751 0.724695 0.344535
vn 0.596752 0.724694 -0.344536
vn 0.596752 0.724694 -0.344536
vn 0.596752 0.724694 -0.344536
vn 0.596752 0.724694 -0.344536
vn 0.000002 0.724695 -0.689070
vn 0.000002 0.724695 -0.689070
vn 0.000002 0.724695 -0.689070
vn 0.000002 0.724695 -0.689070
vn -0.596751 0.724697 -0.344533
vn -0.596751 0.724697 -0.344533
vn -0.596751 0.724697 -0.344533
vn -0.596751 0.724697 -0.344533
vn -0.596752 0.724694 0.344536
vn -0.596752 0.724694 0.344536
vn -0.596752 0.724694 0.344536
vn -0.596752 0.724694 0.344536
vn -0.000003 0.000000 1.000000
vn -0.000003 0.000000 1.000000
vn -0.000003 0.000000 1.000000
vn -0.000003 0.000000 1.000000
vn 0.866025 0.000000 0.500000
vn 0.866025 0.000000 0.500000
vn 0.866025 0.000000 0.500000
vn 0.866025 0.000000 0.500000
vn 0.866025 0.000000 -0.500000
vn 0.866025 0.000000 -0.500000
vn 0.866025 0.000000 -0.500000
vn 0.866025 0.000000 -0.500000
vn 0.000003 0.000000 -1.000000
vn 0.000003 0.000000 -1.000000
vn 0.000003 0.000000 -1.000000
vn 0.000003 0.000000 -1.000000
vn -0.866026 0.000000 -0.499999
vn -0.866026 0.000000 -0.499999
vn -0.866026 0.000000 -0.499999
vn -0.866026 0.000000 -0.499999
vn -0.866024 0.000000 0.500001
vn -0.866024 0.000000 0.500001
vn -0.866024 0.000000 0.500001
vn -0.866024 0.000000 0.500001
vn 0.866026 0.000000 0.500000
vn 0.866026 0.000000 0.500000
vn 0.866026 0.000000 0.500000
vn 0.866026 0.000000 0.500000
vn 0.866025 0.000000 -0.500001
vn 0.866025 0.000000 -0.500001
vn 0.866025 0.000000 -0.500001
vn 0.866025 0.000000 -0.500001
vn 0.000002 0.000000 -1.000000
vn 0.000002 0.000000 -1.000000
vn 0.000002 0.000000 -1.000000
vn 0.000002 0.000000 -1.000000
vn -0.866026 0.000000 -0.500000
vn -0.866026 0.000000 -0.500000
vn -0.866026 0.000000 -0.500000
vn -0.866026 0.000000 -0.500000
vn -0.866024 0.000000 0.500002
vn -0.866024 0.000000 0.500002
vn -0.866024 0.000000 0.500002
vn -0.866024 0.000000 0.500002
vn -0.000002 0.000000 1.000000
vn -0.000002 0.000000 1.000000
vn -0.000002 0.000000 1.000000
vn -0.000002 0.000000 1.000000
vn 0.000000 -1.000000 0.000000
vn 0.000000 -1.000000 0.000000
vn 0.000000 -1.000000 0.000000
vn 0.000000 -1.000000 0.000000
vn 0.000000 -1.000000 0.000000
vn 0.000000 -1.000000 0.000000
vn 0.000000 1.000000 0.000000
vn 0.000000 1.000000 0.000000
vn 0.000000 1.000000 0.000000
vn 0.000000 1.000000 0.000000
vn 0.000000 1.000000 0.000000
vn 0.000000 1.000000 0.000000
vn -0.000001 0.724695 0.689070
vn -0.000001 0.724695 0.689070
vn -0.000001 0.724695 0.689070
vn -0.000001 0.724695 0.689070
vn 0.596751 0.724696 0.344534
vn 0.596751 0.724696 0.344534
vn 0.596751 0.724696 0.344534
vn 0.596751 0.724696 0.344534
vn 0.596752 0.724695 -0.344535
vn 0.596752 0.724695 -0.344535
vn 0.596752 0.724695 -0.344535
vn 0.596752 0.724695 -0.344535
vn 0.000002 0.724695 -0.689070
vn 0.000002 0.724695 -0.689070
vn 0.000002 0.724695 -0.689070
vn 0.000002 0.724695 -0.689070
vn -0.596751 0.724697 -0.344534
vn -0.596751 0.724697 -0.344534
vn -0.596751 0.724697 -0.344534
vn -0.596751 0.724697 -0.344534
vn -0.596751 0.724695 0.344537
vn -0.596751 0.724695 0.344537
vn -0.596751 0.724695 0.344537
vn -0.596751 0.724695 0.344537
vn -0.000003 0.000000 1.000000
vn -0.000003 0.000000 1.000000
vn -0.000003 0.000000 1.000000
vn -0.000003 0.000000 1.000000
vn 0.866025 0.000000 0.500000
vn 0.866025 0.000000 0.500000
vn 0.866025 0.000000 0.500000
vn 0.866025 0.000000 0.500000
vn 0.866025 0.000000 -0.500000
vn 0.866025 0.000000 -0.500000
vn 0.866025 0.000000 -0.500000
vn 0.866025 0.000000 -0.500000
vn 0.000003 0.000000 -1.000000
vn 0.000003 0.000000 -1.000000
vn 0.000003 0.000000 -1.000000
vn 0.000003 0.000000 -1.000000
vn -0.866026 0.000000 -0.499999
vn -0.866026 0.000000 -0.499999
vn -0.866026 0.000000 -0.499999
vn -0.866026 0.000000 -0.499999
vn -0.866022 0.000000 0.500006
vn -0.866022 0.000000 0.500006
vn -0.866022 0.000000 0.500006
vn -0.866022 0.000000 0.500006
vn -1.000000 0.000000 0.000000
vn -1.000000 0.000000 0.000000
vn -1.000000 0.000000 0.000000
vn -1.000000 0.000000 0.000000
vn 1.000000 0.000000 0.000000
vn 1.000000 0.000000 0.000000
vn 1.000000 0.000000 0.000000
vn 1.000000 0.000000 0.000000
vn 0.000000 -1.000000 0.000000
vn 0.000000 -1.000000 0.000000
vn 0.000000 -1.000000 0.000000
vn 0.000000 -1.000000 0.000000
vn 0.000000 1.000000 0.000000
vn 0.000000 1.000000 0.000000
vn 0.000000 1.000000 0.000000
vn 0.000000 1.000000 0.000000
vn -0.000000 0.000000 1.000000
vn -0.000000 0.000000 1.000000
vn -0.000000 0.000000 1.000000
vn -0.000000 0.000000 1.000000
vn -0.000000 0.000000 1.000000
vn 0.000000 0.000000 1.000000
vn 0.000000 0.000000 1.000000
vn -0.000000 0.000000 1.000000
vn 0.000000 0.000000 1.000000
vn 0.000000 0.000000 1.000000
vn 0.000000 0.000000 1.000000
vn 0.000000 0.000000 1.000000
vn 0.000000 0.000000 1.000000
vn -0.000000 0.000000 1.000000
vn -0.000000 0.000000 1.000000
vn 0.000000 0.000000 1.000000
vn -0.000000 0.000000 -1.000000
vn -0.000000 0.000000 -1.000000
vn -0.000000 0.000000 -1.000000
vn -0.000000 0.000000 -1.000000
vn -0.000000 0.000000 -1.000000
vn 0.000000 0.000000 -1.000000
vn 0.000000 0.000000 -1.000000
vn -0.000000 0.000000 -1.000000
vn 0.000000 0.000000 -1.000000
vn 0.000000 0.000000 -1.000000
vn 0.000000 0.000000 -1.000000
vn 0.000000 0.000000 -1.000000
vn 0.000000 0.000000 -1.000000
vn -0.000000 0.000000 -1.000000
vn -0.000000 0.000000 -1.000000
vn 0.000000 0.000000 -1.000000
vn -1.000000 0.000000 0.000000
vn -1.000000 0.000000 0.000000
vn -1.000000 0.000000 0.000000
vn -1.000000 0.000000 0.000000
vn 0.000000 -1.000000 0.000000
vn 0.000000 -1.000000 0.000000
vn 0.000000 -1.000000 0.000000
vn 0.000000 -1.000000 0.000000
vn 0.000000 1.000000 0.000000
vn 0.000000 1.000000 0.000000
vn 0.000000 1.000000 0.000000
vn 0.000000 1.000000 0.000000
vn 1.000000 0.000000 0.000000
vn 1.000000 0.000000 0.000000
vn 1.000000 0.000000 0.000000
vn 1.000000 0.000000 0.000000
vn 0.000000 -1.000000 0.000000
vn 0.000000 -1.000000 0.000000
vn 0.000000 -1.000000 0.000000
vn 0.000000 -1.000000 0.000000
vn 0.000000 0.000000 1.000000
vn 0.000000 0.000000 1.000000
vn 0.000000 0.000000 1.000000
vn 0.000000 0.000000 1.000000
vn 0.000000 0.000000 -1.000000
vn 0.000000 0.000000 -1.000000
vn 0.000000 0.000000 -1.000000
vn 0.000000 0.000000 -1.000000
vn 0.000000 1.000000 0.000000
vn 0.000000 1.000000 0.000000
vn 0.000000 1.000000 0.000000
vn 0.000000 1.000000 0.000000
vn 0.000000 1.000000 0.000000
vn 0.000000 1.000000 0.000000
vn 0.000000 1.000000 0.000000
vn 0.000000 1.000000 0.000000
vn 0.000000 0.000000 1.000000
vn 0.000000 0.000000 1.000000
vn 0.000000 0.000000 1.000000
vn 0.000000 0.000000 1.000000
vn 0.000000 0.000000 -1.000000
vn 0.000000 0.000000 -1.000000
vn 0.000000 0.000000 -1.000000
vn 0.000000 0.000000 -1.000000
vn 0.000000 -1.000000 0.000000
vn 0.000000 -1.000000 0.000000
vn 0.000000 -1.000000 0.000000
vn 0.000000 -1.000000 0.000000
s off
f 1/1/1 2/2/2 8/3/3 7/4/4
f 2/5/5 3/6/6 9/7/7 8/8/8
f 3/9/9 4/10/10 10/11/11 9/12/12
f 4/13/13 5/14/14 11/15/15 10/16/16
f 5/17/17 6/18/18 12/19/19 11/20/20
f 6/21/21 1/22/22 7/23/23 12/24/24
f 5/25/25 4/26/26 3/27/27 2/28/28 1/29/29 6/30/30
f 19/31/31 20/32/32 21/33/33 22/34/34 23/35/35 24/36/36
f 12/37/37 7/38/38 14/39/39 13/40/40
f 7/38/41 8/41/42 15/42/43 14/39/44
f 8/43/45 9/44/46 16/45/47 15/46/48
f 9/47/49 10/48/50 17/49/51 16/50/52
f 10/51/53 11/52/54 18/53/55 17/54/56
f 11/55/57 12/37/58 13/40/59 18/56/60
f 13/57/61 14/58/62 20/59/63 19/60/64
f 14/61/65 15/62/66 21/63/67 20/64/68
f 15/65/69 16/66/70 22/67/71 21/68/72
f 16/69/73 17/70/74 23/71/75 22/72/76
f 17/73/77 18/74/78 24/75/79 23/76/80
f 18/77/81 13/78/82 19/79/83 24/80/84
f 25/81/85 26/82/86 32/83/87 31/84/88
f 26/85/89 27/86/90 33/87/91 32/88/92
f 27/89/93 28/90/94 34/91/95 33/92/96
f 28/93/97 29/94/98 35/95/99 34/96/100
f 29/97/101 30/98/102 36/99/103 35/100/104
f 30/101/105 25/102/106 31/103/107 36/104/108
f 29/105/109 28/106/110 27/107/111 26/108/112 25/109/113 30/110/114
f 43/111/115 44/112/116 45/113/117 46/114/118 47/115/119 48/116/120
f 36/117/121 31/118/122 38/119/123 37/120/124
f 31/118/125 32/121/126 39/122/127 38/119/128
f 32/121/129 33/123/130 40/124/131 39/122/132
f 33/125/133 34/126/134 41/127/135 40/128/136
f 34/129/137 35/130/138 42/131/139 41/132/140
f 35/133/141 36/117/142 37/120/143 42/134/144
f 37/135/145 38/136/146 44/137/147 43/138/148
f 38/139/149 39/140/150 45/141/151 44/142/152
f 39/143/153 40/144/154 46/145/155 45/146/156
f 40/147/157 41/148/158 47/149/159 46/150/160
f 41/151/161 42/152/162 48/153/163 47/154/164
f 42/155/165 37/156/166 43/157/167 48/158/168
f 49/159/169 50/160/170 52/161/171 51/162/172
f 53/163/173 54/164/174 56/165/175 55/166/176
f 50/167/177 56/168/178 54/169/179 52/170/180
f 55/171/181 49/172/182 51/173/183 53/174/184
f 51/175/185 52/176/186 58/177/187 57/178/188
f 52/179/189 54/180/190 59/181/191 58/182/192
f 54/183/193 53/184/194 60/185/195 59/186/196
f 53/187/197 51/188/198 57/189/199 60/190/200
f 55/191/201 56/192/202 62/193/203 61/194/204
f 56/195/205 50/196/206 63/197/207 62/198/208
f 50/199/209 49/200/210 64/201/211 63/202/212
f 49/203/213 55/204/214 61/205/215 64/206/216
f 59/207/217 60/208/218 61/209/219 62/210/220
f 60/211/221 57/212/222 64/213/223 61/214/224
f 59/215/225 62/216/226 63/217/227 58/218/228
f 58/219/229 63/220/230 64/221/231 57/222/232
f 65/223/233 68/224/234 67/225/235 66/226/236
f 66/227/237 67/228/238 70/229/239 69/230/240
f 68/231/241 65/232/242 72/233/243 71/234/244
f 70/235/245 71/236/246 72/237/247 69/238/248
f 76/239/249 73/240/250 74/241/251 75/242/252
f 75/243/253 74/244/254 77/245/255 78/246/256
f 73/247/257 76/248/258 79/249/259 80/250/260
f 78/251/261 77/252/262 80/253/263 79/254/264
