# This file uses meters as units for non-parametric coordinates.

v -0.117930 0.117772 0.305189
v 0.117772 0.117933 0.305189
v 0.117930 -0.117771 0.305189
v -0.117771 -0.117934 0.305189
v -0.042006 0.041949 0.136579
v 0.041950 0.042006 0.136579
v 0.042006 -0.041950 0.136579
v -0.041950 -0.042007 0.136579
v -0.042006 0.041949 -0.164881
v 0.041950 0.042006 -0.164881
v 0.042006 -0.041950 -0.164881
v -0.041950 -0.042007 -0.164881
v -0.042006 0.041949 -0.228203
v 0.041950 0.042006 -0.228203
v 0.042006 -0.041950 -0.228203
v -0.041950 -0.042007 -0.228203
v 0.117772 0.117933 0.379878
v -0.117930 0.117772 0.379877
v 0.117930 -0.117771 0.379878
v -0.117771 -0.117934 0.379878
v 0.052710 0.117888 0.379878
v -0.052871 0.117817 0.379878
v -0.052710 -0.117887 0.379878
v 0.052871 -0.117814 0.379878
v -0.117911 0.087250 0.565251
v -0.117793 -0.087411 0.565251
v -0.117911 0.087250 0.475422
v -0.117793 -0.087411 0.475422
v 0.117772 0.117933 0.536118
v 0.117930 -0.117771 0.638313
v 0.052871 -0.117814 0.553344
v -0.052710 -0.117887 0.546227
v -0.117771 -0.117934 0.602206
v 0.117833 0.026108 0.650205
v 0.117898 -0.070032 0.570698
v 0.015006 -0.117842 0.619918
v -0.024508 -0.117868 0.492531
v -0.090570 -0.117914 0.625045
v -0.117785 -0.096011 0.615736
v -0.117917 0.093928 0.604447
v -0.117843 -0.014108 0.691417
v -0.117930 0.117772 0.573414
v -0.052871 0.117817 0.616216
v 0.052710 0.117888 0.580781
v 0.117772 0.117933 0.630572
v -0.079194 0.117801 0.654803
v 0.004638 0.117857 0.546765
v 0.034926 0.117877 0.643498
v 0.097281 0.097409 0.540455
v 0.097329 0.021563 0.645686
v 0.097383 -0.057845 0.572351
v 0.097408 -0.097277 0.634722
v 0.043671 -0.097313 0.556341
v 0.012395 -0.097333 0.617752
v -0.020243 -0.097358 0.500245
v -0.043536 -0.097373 0.549779
v -0.074809 -0.097394 0.622484
v -0.097277 -0.097411 0.601412
v -0.097288 -0.079305 0.613895
v -0.097334 -0.011654 0.683698
v -0.097396 0.077581 0.603477
v 0.097281 0.097409 0.627580
v -0.097409 0.097276 0.574854
v -0.065413 0.097299 0.649933
v -0.043669 0.097313 0.614338
v 0.003830 0.097346 0.550272
v 0.028849 0.097362 0.639503
v 0.043539 0.097373 0.581646
v 0.097281 0.097409 0.332924
v 0.097329 0.021563 0.332924
v 0.097383 -0.057845 0.332924
v 0.097408 -0.097277 0.332924
v 0.043671 -0.097313 0.332924
v 0.012395 -0.097333 0.332924
v -0.020243 -0.097358 0.332924
v -0.043536 -0.097373 0.332924
v -0.074809 -0.097394 0.332924
v -0.097277 -0.097411 0.332924
v -0.097288 -0.079305 0.332924
v -0.097334 -0.011654 0.332924
v -0.097396 0.077581 0.332924
v 0.097281 0.097409 0.332924
v -0.097409 0.097276 0.332924
v -0.065413 0.097299 0.332924
v -0.043669 0.097313 0.332924
v 0.003830 0.097346 0.332924
v 0.028849 0.097362 0.332924
v 0.043539 0.097373 0.332924
vt 0.196326 0.059789
vt 0.196326 0.059789
vt 0.196326 0.059789
vt 0.196326 0.059789
vt 0.293608 0.059604
vt 0.293608 0.059604
vt 0.391079 0.065151
vt 0.391079 0.065151
vt 0.391079 0.065151
vt 0.391079 0.065151
vt 0.210463 0.285857
vt 0.210463 0.285857
vt 0.210463 0.285857
vt 0.210463 0.285857
vt 0.174080 0.285857
vt 0.174080 0.285857
vt 0.174080 0.285857
vt 0.174080 0.285857
vt 0.210463 0.285857
vt 0.210463 0.285857
vt 0.210463 0.285857
vt 0.210463 0.285857
vt 0.174080 0.285857
vt 0.174080 0.285857
vt 0.174080 0.285857
vt 0.174080 0.285857
vt 0.174080 0.285857
vt 0.174080 0.285857
vt 0.174080 0.285857
vt 0.174080 0.285857
vt 0.137697 0.285857
vt 0.137697 0.285857
vt 0.137697 0.285857
vt 0.137697 0.285857
vt 0.174080 0.285857
vt 0.174080 0.285857
vt 0.174080 0.285857
vt 0.174080 0.285857
vt 0.137697 0.285857
vt 0.137697 0.285857
vt 0.137697 0.285857
vt 0.137697 0.285857
vt 0.137471 0.059789
vt 0.137471 0.059789
vt 0.137471 0.059789
vt 0.137471 0.059789
vt 0.168503 0.059789
vt 0.168503 0.059789
vt 0.168503 0.059789
vt 0.168503 0.059789
vt 0.137471 0.059789
vt 0.137471 0.059789
vt 0.137471 0.059789
vt 0.137471 0.059789
vt 0.168503 0.059789
vt 0.168503 0.059789
vt 0.168503 0.059789
vt 0.168503 0.059789
vt 0.164449 0.286551
vt 0.164449 0.286551
vt 0.164449 0.286551
vt 0.164449 0.286551
vt 0.164449 0.286551
vt 0.164449 0.286551
vt 0.137697 0.285857
vt 0.137697 0.285857
vt 0.137697 0.285857
vt 0.137697 0.285857
vt 0.164449 0.286551
vt 0.164449 0.286551
vt 0.164449 0.286551
vt 0.164449 0.286551
vt 0.164449 0.286551
vt 0.164449 0.286551
vt 0.137697 0.285857
vt 0.137697 0.285857
vt 0.137697 0.285857
vt 0.137697 0.285857
vt 0.329991 0.059604
vt 0.329991 0.059604
vt 0.329991 0.059604
vt 0.329991 0.059604
vt 0.329991 0.059604
vt 0.329991 0.059604
vt 0.329991 0.059604
vt 0.329991 0.059604
vt 0.293608 0.059604
vt 0.293608 0.059604
vt 0.293608 0.059604
vt 0.293608 0.059604
vt 0.293608 0.059604
vt 0.293608 0.059604
vt 0.329991 0.059604
vt 0.293608 0.059604
vt 0.293608 0.059604
vt 0.329991 0.059604
vt 0.329991 0.059604
vt 0.164449 0.286551
vt 0.164449 0.286551
vt 0.329991 0.059604
vt 0.329991 0.059604
vt 0.293608 0.059604
vt 0.293608 0.059604
vt 0.293608 0.059604
vt 0.164449 0.286551
vt 0.164449 0.286551
vt 0.329991 0.059604
vt 0.293608 0.059604
vt 0.293608 0.059604
vt 0.293608 0.059604
vt 0.293608 0.059604
vt 0.329991 0.059604
vt 0.329991 0.059604
vt 0.164449 0.286551
vt 0.164449 0.286551
vt 0.329991 0.059604
vt 0.329991 0.059604
vt 0.329991 0.059604
vt 0.164449 0.286551
vt 0.164449 0.286551
vt 0.115357 0.285037
vt 0.115357 0.285037
vt 0.115357 0.285037
vt 0.115357 0.285037
vt 0.115357 0.285037
vt 0.115357 0.285037
vt 0.115357 0.285037
vt 0.115357 0.285037
vt 0.115357 0.285037
vt 0.115357 0.285037
vt 0.115357 0.285037
vt 0.115357 0.285037
vt 0.115357 0.285037
vt 0.115357 0.285037
vt 0.115357 0.285037
vt 0.115357 0.285037
vt 0.115357 0.285037
vt 0.115357 0.285037
vt 0.115357 0.285037
vt 0.115357 0.285037
vt 0.115357 0.285037
vt 0.115357 0.285037
vt 0.115357 0.285037
vt 0.115357 0.285037
vt 0.115357 0.285037
vt 0.115357 0.285037
vt 0.115357 0.285037
vt 0.115357 0.285037
vt 0.115357 0.285037
vt 0.115357 0.285037
vt 0.115357 0.285037
vt 0.115357 0.285037
vt 0.115357 0.285037
vt 0.115357 0.285037
vt 0.115357 0.285037
vt 0.115357 0.285037
vt 0.115357 0.285037
vt 0.115357 0.285037
vt 0.115357 0.285037
vt 0.115357 0.285037
vt 0.115357 0.285037
vt 0.115357 0.285037
vt 0.115357 0.285037
vt 0.115357 0.285037
vt 0.115357 0.285037
vt 0.115357 0.285037
vt 0.115357 0.285037
vt 0.115357 0.285037
vt 0.115357 0.285037
vt 0.115357 0.285037
vt 0.115357 0.285037
vt 0.115357 0.285037
vt 0.115357 0.285037
vt 0.115357 0.285037
vt 0.115357 0.285037
vt 0.115357 0.285037
vt 0.115357 0.285037
vt 0.115357 0.285037
vt 0.115357 0.285037
vt 0.115357 0.285037
vn 0.000000 0.000000 -1.000000
vn 0.000000 0.000000 -1.000000
vn 0.000000 0.000000 -1.000000
vn 0.000000 0.000000 -1.000000
vn 1.000000 0.000672 0.000002
vn 1.000000 0.000672 0.000002
vn 1.000000 0.000672 0.000002
vn 1.000000 0.000672 0.000002
vn 1.000000 0.000672 0.000001
vn 1.000000 0.000672 0.000001
vn -1.000000 -0.000691 0.000001
vn -1.000000 -0.000670 -0.000001
vn -1.000000 -0.000667 -0.000008
vn -1.000000 -0.000684 -0.000006
vn -0.000622 0.911920 -0.410367
vn -0.000622 0.911920 -0.410367
vn -0.000622 0.911920 -0.410367
vn -0.000622 0.911920 -0.410367
vn 0.911925 0.000612 -0.410356
vn 0.911925 0.000612 -0.410356
vn 0.911925 0.000612 -0.410356
vn 0.911925 0.000612 -0.410356
vn 0.000630 -0.911923 -0.410361
vn 0.000630 -0.911923 -0.410361
vn 0.000630 -0.911923 -0.410361
vn 0.000630 -0.911923 -0.410361
vn -0.911925 -0.000612 -0.410356
vn -0.911925 -0.000612 -0.410357
vn -0.911925 -0.000612 -0.410356
vn -0.911925 -0.000612 -0.410356
vn -0.000676 1.000000 0.000000
vn -0.000676 1.000000 0.000000
vn -0.000676 1.000000 0.000000
vn -0.000676 1.000000 0.000000
vn 1.000000 0.000670 0.000000
vn 1.000000 0.000670 0.000000
vn 1.000000 0.000670 0.000000
vn 1.000000 0.000670 0.000000
vn 0.000679 -1.000000 0.000000
vn 0.000679 -1.000000 0.000000
vn 0.000679 -1.000000 0.000000
vn 0.000679 -1.000000 0.000000
vn -1.000000 -0.000659 0.000000
vn -1.000000 -0.000659 0.000000
vn -1.000000 -0.000659 0.000000
vn -1.000000 -0.000659 0.000000
vn -0.000676 1.000000 0.000000
vn -0.000676 1.000000 0.000000
vn -0.000676 1.000000 0.000000
vn -0.000676 1.000000 0.000000
vn 1.000000 0.000670 0.000000
vn 1.000000 0.000670 0.000000
vn 1.000000 0.000670 0.000000
vn 1.000000 0.000670 0.000000
vn 0.000679 -1.000000 0.000000
vn 0.000679 -1.000000 0.000000
vn 0.000679 -1.000000 0.000000
vn 0.000679 -1.000000 0.000000
vn -1.000000 -0.000659 0.000000
vn -1.000000 -0.000659 0.000000
vn -1.000000 -0.000659 0.000000
vn -1.000000 -0.000659 0.000000
vn -0.000682 1.000000 -0.000001
vn -0.000677 1.000000 -0.000001
vn -0.000677 1.000000 -0.000001
vn -0.000680 1.000000 -0.000002
vn -0.000680 1.000000 -0.000002
vn -0.000683 1.000000 -0.000003
vn -0.000677 1.000000 -0.000001
vn -0.000677 1.000000 -0.000001
vn -0.000681 1.000000 -0.000001
vn -0.000682 1.000000 -0.000001
vn 1.000000 0.000672 0.000000
vn 1.000000 0.000672 0.000000
vn 1.000000 0.000672 0.000001
vn 1.000000 0.000672 0.000001
vn 0.000686 -1.000000 0.000005
vn 0.000686 -1.000000 0.000005
vn 0.000686 -1.000000 0.000005
vn 0.000692 -1.000000 0.000007
vn 0.000692 -1.000000 0.000007
vn 0.000723 -1.000000 0.000003
vn 0.000705 -1.000000 0.000006
vn 0.000705 -1.000000 0.000006
vn 0.000692 -1.000000 0.000007
vn 0.000692 -1.000000 0.000007
vn -1.000000 -0.000676 0.000000
vn -1.000000 -0.000676 0.000000
vn -1.000000 -0.000677 -0.000007
vn -1.000000 -0.000674 -0.000007
vn -0.000681 1.000000 -0.000001
vn -0.000696 1.000000 0.000000
vn -0.000696 1.000000 0.000000
vn -0.000682 1.000000 -0.000001
vn -0.000682 1.000000 -0.000001
vn -0.000680 1.000000 -0.000002
vn -0.000686 1.000000 -0.000004
vn -0.000686 1.000000 -0.000004
vn -0.000683 1.000000 -0.000003
vn -0.000680 1.000000 -0.000002
vn 0.000723 -1.000000 0.000003
vn 0.000738 -1.000000 0.000002
vn 0.000738 -1.000000 0.000002
vn 0.000705 -1.000000 0.000006
vn 0.000705 -1.000000 0.000006
vn 0.000686 -1.000000 0.000005
vn 0.000671 -1.000000 0.000000
vn 0.000686 -1.000000 0.000005
vn 0.000686 -1.000000 0.000005
vn -1.000000 -0.000693 0.000001
vn -1.000000 -0.000689 0.000001
vn -1.000000 -0.000682 0.000000
vn -1.000000 -0.000670 -0.000001
vn -1.000000 -0.000691 0.000001
vn -1.000000 -0.000682 0.000000
vn -1.000000 -0.000624 -0.000005
vn -1.000000 -0.000674 -0.000007
vn -1.000000 -0.000667 -0.000008
vn -1.000000 -0.000670 -0.000001
vn -1.000000 -0.000674 -0.000007
vn -1.000000 -0.000677 -0.000007
vn -1.000000 -0.000684 -0.000006
vn -1.000000 -0.000667 -0.000008
vn -1.000000 -0.000677 -0.000007
vn -1.000000 -0.000714 0.000004
vn -1.000000 -0.000693 0.000001
vn -1.000000 -0.000691 0.000001
vn -1.000000 -0.000684 -0.000006
vn -0.438871 0.713733 0.545873
vn -0.438871 0.713733 0.545873
vn -0.438871 0.713733 0.545873
vn -0.438871 0.713733 0.545873
vn -0.172409 -0.646878 0.742849
vn -0.172409 -0.646878 0.742849
vn -0.172409 -0.646878 0.742849
vn -0.172409 -0.646878 0.742849
vn 0.536192 0.701160 0.469971
vn 0.536192 0.701160 0.469971
vn 0.536192 0.701160 0.469971
vn 0.536192 0.701160 0.469971
vn -0.700161 -0.500246 0.509439
vn -0.700161 -0.500246 0.509439
vn -0.700161 -0.500246 0.509439
vn -0.700161 -0.500246 0.509439
vn 0.854761 0.236810 0.461850
vn 0.854761 0.236810 0.461850
vn 0.854761 0.236810 0.461850
vn 0.854761 0.236810 0.461850
vn -0.959234 0.000444 0.282611
vn -0.959234 0.000444 0.282611
vn -0.959234 0.000444 0.282611
vn -0.959234 0.000444 0.282611
vn 0.807102 -0.450529 0.381588
vn 0.826336 -0.383859 0.412092
vn 0.826336 -0.383859 0.412092
vn 0.807792 -0.448427 0.382603
vn 0.792861 -0.490534 0.361591
vn 0.807102 -0.450529 0.381588
vn 0.807792 -0.448427 0.382603
vn 0.792861 -0.490534 0.361591
vn -0.556449 0.542954 0.628940
vn -0.556449 0.542954 0.628940
vn -0.556449 0.542954 0.628940
vn -0.556449 0.542954 0.628940
vn 0.442097 -0.625284 0.643095
vn 0.442097 -0.625284 0.643095
vn 0.442097 -0.625284 0.643095
vn 0.442097 -0.625284 0.643095
vn 0.355645 0.604421 0.712876
vn 0.355645 0.604421 0.712876
vn 0.355645 0.604421 0.712876
vn 0.355645 0.604421 0.712876
vn 0.707674 -0.706539 0.000000
vn 0.707674 -0.706539 0.000000
vn 0.707674 -0.706539 0.000000
vn 0.707674 -0.706539 0.000000
vn 0.583512 0.656104 0.478583
vn 0.583512 0.656104 0.478583
vn 0.583512 0.656104 0.478583
vn 0.583512 0.656104 0.478583
vn -0.712583 -0.623160 0.322331
vn -0.712583 -0.623160 0.322331
vn -0.712583 -0.623160 0.322331
vn -0.712583 -0.623160 0.322331
vn 0.784212 0.355879 0.508293
vn 0.784212 0.355879 0.508293
vn 0.784212 0.355879 0.508293
vn 0.784212 0.355879 0.508293
vn 0.772807 0.182307 0.607893
vn 0.772807 0.182307 0.607893
vn 0.772807 0.182307 0.607893
vn 0.772807 0.182307 0.607893
vn -0.946847 0.155556 0.281572
vn -0.946847 0.155556 0.281572
vn -0.946847 0.155556 0.281572
vn -0.946847 0.155556 0.281572
vn 0.903027 -0.354152 0.243143
vn 0.903027 -0.354152 0.243143
vn 0.903027 -0.354152 0.243143
vn 0.903027 -0.354152 0.243143
vn -0.580017 0.381911 0.719531
vn -0.580017 0.381911 0.719531
vn -0.580017 0.381911 0.719531
vn -0.580017 0.381911 0.719531
vn 0.480969 -0.477521 0.735284
vn 0.480969 -0.477521 0.735284
vn 0.480968 -0.477521 0.735284
vn 0.480968 -0.477521 0.735284
vn -1.000000 -0.000660 0.000000
vn -1.000000 -0.000641 0.000000
vn -1.000000 -0.000641 0.000000
vn -1.000000 -0.000658 0.000000
vn -1.000000 -0.000666 0.000000
vn -1.000000 -0.000660 0.000000
vn -1.000000 -0.000658 0.000000
vn -1.000000 -0.000666 0.000000
vn -1.000000 -0.000653 0.000000
vn -1.000000 -0.000666 0.000000
vn -1.000000 -0.000666 0.000000
vn -1.000000 -0.000653 0.000000
vn -0.000656 1.000000 0.000000
vn -0.000661 1.000000 0.000000
vn -0.000661 1.000000 0.000000
vn -0.000656 1.000000 0.000000
vn -0.000692 1.000000 0.000000
vn -0.000656 1.000000 0.000000
vn -0.000656 1.000000 0.000000
vn -0.000709 1.000000 0.000000
vn -0.000716 1.000000 0.000000
vn -0.000692 1.000000 0.000000
vn -0.000709 1.000000 0.000000
vn -0.000714 1.000000 0.000000
vn -0.000680 1.000000 0.000000
vn -0.000716 1.000000 0.000000
vn -0.000714 1.000000 0.000000
vn -0.000660 1.000000 0.000000
vn -0.000727 1.000000 0.000000
vn -0.000680 1.000000 0.000000
vn -0.000660 1.000000 0.000000
vn -0.000716 1.000000 0.000000
vn -0.000753 1.000000 0.000000
vn -0.000727 1.000000 0.000000
vn -0.000716 1.000000 0.000000
vn -0.000753 1.000000 0.000000
vn 1.000000 0.000687 0.000000
vn 1.000000 0.000673 0.000000
vn 1.000000 0.000668 0.000000
vn 1.000000 0.000687 0.000000
vn 1.000000 0.000694 0.000000
vn 1.000000 0.000687 0.000000
vn 1.000000 0.000687 0.000000
vn 1.000000 0.000692 0.000000
vn 0.000000 0.000000 0.000000
vn 0.000000 0.000000 0.000000
vn 0.000000 0.000000 0.000000
vn 0.000000 0.000000 0.000000
vn 1.000000 0.000678 0.000000
vn 1.000000 0.000694 0.000000
vn 1.000000 0.000692 0.000000
vn 1.000000 0.000678 0.000000
vn 0.000687 -1.000000 0.000000
vn 0.000715 -1.000000 0.000000
vn 0.000715 -1.000000 0.000000
vn 0.000691 -1.000000 0.000000
vn 0.000672 -1.000000 0.000000
vn 0.000687 -1.000000 0.000000
vn 0.000691 -1.000000 0.000000
vn 0.000687 -1.000000 0.000000
vn 0.000670 -1.000000 0.000000
vn 0.000672 -1.000000 0.000000
vn 0.000687 -1.000000 0.000000
vn 0.000673 -1.000000 0.000000
vn 0.000660 -1.000000 0.000000
vn 0.000670 -1.000000 0.000000
vn 0.000673 -1.000000 0.000000
vn 0.000662 -1.000000 0.000000
vn 0.000689 -1.000000 0.000000
vn 0.000660 -1.000000 0.000000
vn 0.000662 -1.000000 0.000000
vn 0.000687 -1.000000 0.000000
vn 0.000674 -1.000000 0.000000
vn 0.000689 -1.000000 0.000000
vn 0.000687 -1.000000 0.000000
vn 0.000674 -1.000000 0.000000
vn 1.000000 0.000673 0.000000
vn 1.000000 0.000632 0.000000
vn 1.000000 0.000632 0.000000
vn 1.000000 0.000668 0.000000
vn 0.000000 0.000000 1.000000
vn 0.000000 0.000000 1.000000
vn 0.000000 0.000000 1.000000
vn 0.000000 0.000000 1.000000
vn 0.000000 0.000000 1.000000
vn 0.000000 0.000000 1.000000
vn 0.000000 0.000000 1.000000
vn 0.000000 0.000000 1.000000
vn 0.000000 0.000000 1.000000
vn 0.000000 0.000000 1.000000
vn 0.000000 0.000000 1.000000
vn 0.000000 0.000000 1.000000
vn 0.000000 0.000000 1.000000
vn 0.000000 0.000000 1.000000
vn 0.000000 0.000000 1.000000
vn 0.000000 0.000000 1.000000
vn 0.000000 0.000000 1.000000
vn 0.000000 0.000000 1.000000
vn 0.000000 0.000000 0.000000
vn 0.000000 0.000000 0.000000
s off
f 13/1/1 14/2/2 15/3/3 16/4/4
f 29/94/5 34/103/6 35/104/7 30/95/8 19/5/9 17/6/10
f 26/7/11 25/8/12 27/9/13 28/10/14
f 1/11/15 2/12/16 6/13/17 5/14/18
f 2/15/19 3/16/20 7/17/21 6/18/22
f 3/19/23 4/20/24 8/21/25 7/22/26
f 4/23/27 1/24/28 5/25/29 8/26/30
f 5/27/31 6/28/32 10/29/33 9/30/34
f 6/31/35 7/32/36 11/33/37 10/34/38
f 7/35/39 8/36/40 12/37/41 11/38/42
f 8/39/43 5/40/44 9/41/45 12/42/46
f 9/43/47 10/44/48 14/45/49 13/46/50
f 10/47/51 11/48/52 15/49/53 14/50/54
f 11/51/55 12/52/56 16/53/57 15/54/58
f 12/55/59 9/56/60 13/57/61 16/58/62
f 17/59/63 2/60/64 1/61/65 18/62/66 22/63/67 43/114/68 47/119/69 48/120/70 44/115/71 21/64/72
f 3/65/73 2/66/74 17/67/75 19/68/76
f 19/69/77 24/70/78 31/98/79 36/105/80 37/106/81 32/99/82 23/71/83 20/72/84 4/73/85 3/74/86
f 1/75/87 4/76/88 20/77/89 18/78/90
f 44/116/91 45/117/92 29/93/93 17/79/94 21/80/95
f 18/81/96 42/112/97 46/118/98 43/113/99 22/82/100
f 32/100/101 38/107/102 33/101/103 20/83/104 23/84/105
f 19/85/106 30/96/107 31/97/108 24/86/109
f 39/108/110 41/110/111 40/109/112 25/87/113 26/88/114
f 40/109/115 42/111/116 18/89/117 27/90/118 25/87/119
f 18/89/120 20/91/121 28/92/122 27/90/123
f 20/91/124 33/102/125 39/108/126 26/88/127 28/92/128
f 34/121/129 29/122/130 49/123/131 50/124/132
f 35/125/133 34/121/134 50/124/135 51/126/136
f 30/127/137 35/125/138 51/126/139 52/128/140
f 31/129/141 30/127/142 52/128/143 53/130/144
f 36/131/145 31/129/146 53/130/147 54/132/148
f 37/133/149 36/131/150 54/132/151 55/134/152
f 32/135/153 37/133/154 55/134/155 56/136/156
f 38/137/157 32/135/158 56/136/159 57/138/160
f 33/139/161 38/137/162 57/138/163 58/140/164
f 41/141/165 39/142/166 59/143/167 60/144/168
f 40/145/169 41/141/170 60/144/171 61/146/172
f 29/122/173 45/147/174 62/148/175 49/123/176
f 42/149/177 40/145/178 61/146/179 63/150/180
f 46/151/181 42/149/182 63/150/183 64/152/184
f 43/153/185 46/151/186 64/152/187 65/154/188
f 47/155/189 43/153/190 65/154/191 66/156/192
f 48/157/193 47/155/194 66/156/195 67/158/196
f 44/159/197 48/157/198 67/158/199 68/160/200
f 45/147/201 44/159/202 68/160/203 62/148/204
f 39/142/205 33/139/206 58/140/207 59/143/208
f 50/124/209 49/123/210 69/161/211 70/162/212
f 51/126/213 50/124/214 70/162/215 71/163/216
f 52/128/217 51/126/218 71/163/219 72/164/220
f 53/130/221 52/128/222 72/164/223 73/165/224
f 54/132/225 53/130/226 73/165/227 74/166/228
f 55/134/229 54/132/230 74/166/231 75/167/232
f 56/136/233 55/134/234 75/167/235 76/168/236
f 57/138/237 56/136/238 76/168/239 77/169/240
f 58/140/241 57/138/242 77/169/243 78/170/244
f 60/144/245 59/143/246 79/171/247 80/172/248
f 61/146/249 60/144/250 80/172/251 81/173/252
f 49/123/253 62/148/254 82/174/255 69/161/256
f 63/150/257 61/146/258 81/173/259 83/175/260
f 64/152/261 63/150/262 83/175/263 84/176/264
f 65/154/265 64/152/266 84/176/267 85/177/268
f 66/156/269 65/154/270 85/177/271 86/178/272
f 67/158/273 66/156/274 86/178/275 87/179/276
f 68/160/277 67/158/278 87/179/279 88/180/280
f 62/148/281 68/160/282 88/180/283 82/174/284
f 59/143/285 58/140/286 78/170/287 79/171/288
f 88/180/289 87/179/290 86/178/291 85/177/292 84/176/293 83/175/294 81/173/295 80/172/296 79/171/297 78/170/298 77/169/299 76/168/300 75/167/301 74/166/302 73/165/303 72/164/304 71/163/305 70/162/306 69/161/307 82/174/308
