# This file uses meters as units for non-parametric coordinates.

v -0.077616 -0.154651 0.075996
v 0.075996 -0.154651 0.077616
v -0.077616 0.087613 0.075996
v 0.075996 0.087613 0.077616
v -0.075996 0.087613 -0.077616
v 0.077616 0.087613 -0.075996
v -0.075996 -0.154651 -0.077616
v 0.077616 -0.154651 -0.075996
v 0.077076 0.087613 -0.024792
v 0.076536 0.087613 0.026412
v 0.076536 -0.103997 0.026412
v 0.077076 -0.103997 -0.024792
v -0.030715 0.087613 0.025281
v -0.030175 0.087613 -0.025923
v 0.100266 -0.103997 0.026662
v 0.100124 0.154453 0.026660
v 0.100805 -0.103997 -0.024542
v 0.100664 0.154453 -0.024544
v -0.030715 0.154650 0.025281
v -0.030175 0.154650 -0.025923
v -0.077616 0.046916 0.075996
v -0.075996 0.046916 -0.077616
v 0.077616 0.046916 -0.075996
v 0.077076 0.046916 -0.024792
v 0.076536 0.046916 0.026412
v 0.075996 0.046916 0.077616
v 0.077076 0.002913 -0.024792
v 0.077616 0.002913 -0.075996
v -0.075996 0.002913 -0.077616
v -0.077616 0.002913 0.075996
v 0.075996 0.002913 0.077616
v 0.076536 0.002913 0.026412
v -0.076357 -0.017072 -0.043397
v -0.077255 -0.017072 0.041778
v -0.076357 -0.029895 -0.043397
v -0.077255 -0.029895 0.041778
v -0.077355 -0.055133 0.028081
v -0.076257 -0.055133 -0.029700
v -0.077111 -0.044296 0.028081
v -0.076502 -0.044296 -0.029700
vt 0.169324 0.060602
vt 0.230607 0.060602
vt 0.201472 0.060602
vt 0.169323 0.060602
vt 0.230607 0.060602
vt 0.142198 0.061262
vt 0.230607 0.060602
vt 0.230607 0.060602
vt 0.230607 0.060602
vt 0.169324 0.060602
vt 0.230607 0.060602
vt 0.230607 0.060602
vt 0.169323 0.060602
vt 0.201472 0.060602
vt 0.171333 0.061262
vt 0.169324 0.060602
vt 0.169324 0.060602
vt 0.142198 0.061262
vt 0.171333 0.061262
vt 0.169323 0.060602
vt 0.201472 0.060602
vt 0.142198 0.061262
vt 0.171333 0.061262
vt 0.201472 0.060602
vt 0.201472 0.060602
vt 0.201472 0.060602
vt 0.201472 0.060602
vt 0.201472 0.060602
vt 0.142198 0.061262
vt 0.142198 0.061262
vt 0.142198 0.061262
vt 0.142198 0.061262
vt 0.142198 0.061262
vt 0.142198 0.061262
vt 0.142198 0.061262
vt 0.142198 0.061262
vt 0.142198 0.061262
vt 0.142198 0.061262
vt 0.201472 0.060602
vt 0.201472 0.060602
vt 0.201472 0.060602
vt 0.326049 0.443029
vt 0.169324 0.060602
vt 0.169324 0.060602
vt 0.390750 0.060666
vt 0.422899 0.060666
vt 0.390750 0.060666
vt 0.201472 0.060602
vt 0.422899 0.060666
vt 0.201472 0.060602
vt 0.201472 0.060602
vt 0.201472 0.060602
vt 0.390750 0.060666
vt 0.201472 0.060602
vt 0.201472 0.060602
vt 0.201472 0.060602
vt 0.169324 0.060602
vt 0.201472 0.060602
vt 0.390750 0.060666
vt 0.201472 0.060602
vt 0.169324 0.060602
vt 0.201472 0.060602
vt 0.326048 0.443029
vt 0.422899 0.060666
vt 0.171333 0.061262
vt 0.198458 0.061262
vt 0.142198 0.061262
vt 0.198458 0.061262
vt 0.171333 0.061262
vt 0.142198 0.061262
vt 0.171333 0.061262
vt 0.198458 0.061262
vt 0.142198 0.061262
vt 0.198458 0.061262
vt 0.171333 0.061262
vt 0.171333 0.061262
vt 0.230607 0.060602
vt 0.230607 0.060602
vt 0.230607 0.060602
vt 0.230607 0.060602
vt 0.230607 0.060602
vt 0.201472 0.060602
vt 0.201472 0.060602
vt 0.201472 0.060602
vt 0.201472 0.060602
vt 0.326049 0.443029
vt 0.201472 0.060602
vt 0.326049 0.443029
vt 0.326049 0.443029
vt 0.201472 0.060602
vt 0.201472 0.060602
vt 0.326049 0.443029
vt 0.326049 0.443029
vt 0.201472 0.060602
vt 0.169323 0.060602
vt 0.169323 0.060602
vt 0.201472 0.060602
vt 0.169324 0.060602
vt 0.201472 0.060602
vt 0.201472 0.060602
vt 0.201472 0.060602
vt 0.201472 0.060602
vt 0.326049 0.443029
vt 0.422899 0.060666
vt 0.201472 0.060602
vt 0.169324 0.060602
vt 0.422899 0.060666
vt 0.201472 0.060602
vt 0.422899 0.060666
vt 0.201472 0.060602
vt 0.422899 0.060666
vt 0.201472 0.060602
vt 0.422899 0.060666
vt 0.201472 0.060602
vt 0.422899 0.060666
vt 0.201472 0.060602
vt 0.422899 0.060666
vt 0.201472 0.060602
vt 0.201472 0.060602
vt 0.201472 0.060602
vt 0.422899 0.060666
vt 0.169323 0.060602
vt 0.422899 0.060666
vt 0.201472 0.060602
vt 0.201472 0.060602
vt 0.201472 0.060602
vt 0.201472 0.060602
vt 0.201472 0.060602
vt 0.390750 0.060666
vt 0.169324 0.060602
vt 0.390750 0.060666
vt 0.390750 0.060666
vt 0.169324 0.060602
vt 0.169323 0.060602
vt 0.169323 0.060602
vt 0.390750 0.060666
vn -0.010541 0.000000 0.999944
vn -0.010541 0.000000 0.999944
vn -0.010541 0.000000 0.999944
vn -0.010541 0.000000 0.999944
vn 0.000000 1.000000 0.000000
vn 0.000000 1.000000 0.000000
vn 0.000000 1.000000 0.000000
vn 0.000000 1.000000 0.000000
vn 0.010541 0.000000 -0.999944
vn 0.010541 0.000000 -0.999944
vn 0.010541 0.000000 -0.999944
vn 0.010541 0.000000 -0.999944
vn 0.000000 -1.000000 0.000000
vn 0.000000 -1.000000 0.000000
vn 0.000000 -1.000000 0.000000
vn 0.000000 -1.000000 0.000000
vn 0.999945 0.000000 0.010541
vn 0.999945 0.000000 0.010541
vn 0.999944 0.000000 0.010541
vn 0.999944 0.000000 0.010541
vn -0.999944 0.000000 -0.010541
vn -0.999944 0.000000 -0.010541
vn -0.999953 -0.000374 -0.009680
vn -0.999953 0.000373 -0.009679
vn 0.999944 0.000546 0.010541
vn 0.999944 0.000546 0.010541
vn 0.999944 0.000546 0.010541
vn 0.999944 0.000546 0.010541
vn 0.001501 0.999999 0.000016
vn 0.001501 0.999999 0.000016
vn 0.001501 0.999999 0.000016
vn 0.001501 0.999999 0.000016
vn -0.010545 -0.000000 0.999944
vn -0.010545 -0.000000 0.999944
vn -0.010545 -0.000000 0.999944
vn -0.010545 -0.000000 0.999944
vn -0.010541 -0.000001 0.999944
vn -0.010543 -0.000001 0.999944
vn 0.000000 -1.000000 -0.000000
vn 0.000000 -1.000000 -0.000000
vn 0.000000 -1.000000 -0.000000
vn 0.000000 -1.000000 -0.000000
vn 0.010542 -0.000000 -0.999944
vn 0.010540 0.000000 -0.999944
vn 0.010540 0.000000 -0.999944
vn 0.010540 0.000000 -0.999944
vn 0.010540 0.000000 -0.999944
vn 0.010542 -0.000000 -0.999944
vn -0.999944 0.000000 -0.010541
vn -0.999944 0.000000 -0.010541
vn -0.999944 0.000000 -0.010541
vn -0.999944 0.000000 -0.010541
vn -0.010540 -0.000001 0.999944
vn -0.010540 -0.000001 0.999945
vn -0.010543 -0.000001 0.999944
vn -0.010541 -0.000001 0.999944
vn 0.010542 -0.000000 -0.999944
vn 0.010543 -0.000000 -0.999945
vn 0.010543 -0.000000 -0.999944
vn 0.010542 -0.000000 -0.999944
vn 0.999945 0.000000 0.010541
vn 0.999945 0.000000 0.010541
vn 0.999945 0.000000 0.010541
vn 0.999945 0.000000 0.010541
vn 0.999945 0.000000 0.010541
vn 0.999944 0.000000 0.010541
vn 0.999944 0.000000 0.010541
vn 0.999945 0.000000 0.010541
vn 0.000000 1.000000 -0.000000
vn 0.000000 1.000000 -0.000000
vn 0.000000 1.000000 -0.000000
vn 0.000000 1.000000 -0.000000
vn 0.000000 1.000000 0.000000
vn 0.000000 1.000000 -0.000000
vn 0.000000 1.000000 -0.000000
vn 0.000000 1.000000 0.000000
vn -0.999944 0.000000 -0.010541
vn -0.999944 0.000000 -0.010541
vn -0.999944 0.000000 -0.010541
vn -0.999944 0.000000 -0.010541
vn 0.010541 0.000000 -0.999944
vn 0.010541 0.000000 -0.999944
vn 0.010541 0.000000 -0.999944
vn 0.010541 0.000000 -0.999944
vn 0.999944 0.000000 0.010541
vn 0.999944 0.000000 0.010541
vn 0.999945 0.000000 0.010541
vn 0.999945 0.000000 0.010541
vn 0.999944 0.000000 0.010541
vn 0.999945 0.000000 0.010541
vn 0.999945 0.000000 0.010541
vn 0.999944 0.000000 0.010541
vn -0.010541 0.000000 0.999944
vn -0.010541 0.000000 0.999944
vn -0.010541 0.000000 0.999944
vn -0.010541 0.000000 0.999944
vn 0.999944 0.000000 0.010541
vn 0.999945 0.000000 0.010541
vn 0.999945 0.000000 0.010541
vn 0.999945 0.000000 0.010541
vn 0.010541 0.000000 -0.999944
vn 0.010541 0.000000 -0.999944
vn 0.010541 0.000000 -0.999944
vn 0.010541 0.000000 -0.999944
vn -0.999960 0.000726 -0.008866
vn -0.999960 -0.000727 -0.008867
vn -0.999967 -0.001094 -0.008016
vn -0.999967 0.001097 -0.008014
vn -0.010541 0.000000 0.999944
vn -0.010541 0.000000 0.999944
vn -0.010541 0.000000 0.999944
vn -0.010541 0.000000 0.999944
vn 0.999945 0.000000 0.010541
vn 0.999945 0.000000 0.010541
vn 0.999945 0.000000 0.010541
vn 0.999944 0.000000 0.010541
vn -0.999953 0.000373 -0.009679
vn -0.999953 -0.000374 -0.009680
vn -0.999960 -0.000727 -0.008867
vn -0.999960 0.000726 -0.008866
vn -0.999967 -0.001094 -0.008016
vn -0.999960 -0.000727 -0.008867
vn -0.999953 -0.000374 -0.009680
vn -0.999927 -0.000192 -0.012091
vn -0.999939 -0.000469 -0.011045
vn -0.999964 -0.001026 -0.008479
vn -0.999939 -0.000469 -0.011045
vn -0.999939 0.000466 -0.011044
vn -0.999964 0.001030 -0.008476
vn -0.999964 -0.001026 -0.008479
vn -0.999927 -0.000192 -0.012091
vn -0.999927 0.000191 -0.012091
vn -0.999939 0.000466 -0.011044
vn -0.999939 -0.000469 -0.011045
vn -0.999967 0.001097 -0.008014
vn -0.999964 0.001030 -0.008476
vn -0.999939 0.000466 -0.011044
vn -0.999927 0.000191 -0.012091
vn -0.999953 0.000373 -0.009679
vn -0.999960 0.000726 -0.008866
vn -0.999967 0.001097 -0.008014
vn -0.999967 -0.001094 -0.008016
vn -0.999964 -0.001026 -0.008479
vn -0.999964 0.001030 -0.008476
s off
f 30/59/1 31/129/2 26/53/3 21/45/4
f 13/5/5 3/81/6 4/7/7 10/8/8
f 22/47/9 23/136/10 28/132/11 29/131/12
f 8/20/13 2/17/14 1/98/15 7/95/16
f 27/111/17 28/113/18 23/123/19 24/49/20
f 21/46/21 22/117/22 29/107/23 30/104/24
f 17/65/25 18/15/26 16/69/27 15/19/28
f 18/66/29 20/74/30 19/72/31 16/68/32
f 25/29/33 32/30/34 11/31/35 15/70/36 16/18/37 10/32/38
f 15/70/39 11/31/40 12/33/41 17/6/42
f 18/67/43 17/6/44 12/33/45 27/34/46 24/35/47 9/36/48
f 20/75/49 14/76/50 13/71/51 19/23/52
f 19/73/53 13/38/54 10/32/55 16/18/56
f 9/36/57 14/37/58 20/22/59 18/67/60
f 25/121/61 26/115/62 31/109/63 32/64/64
f 8/118/65 12/120/66 11/25/67 2/26/68
f 6/11/69 5/77/70 14/9/71 9/12/72
f 13/80/73 14/79/74 5/78/75 3/2/76
f 5/126/77 22/116/78 21/125/79 3/82/80
f 6/16/81 23/122/82 22/134/83 5/10/84
f 24/124/85 23/48/86 6/128/87 9/24/88
f 4/28/89 26/54/90 25/52/91 10/27/92
f 21/135/93 26/133/94 4/1/95 3/44/96
f 12/21/97 8/119/98 28/112/99 27/55/100
f 29/106/101 28/57/102 8/13/103 7/96/104
f 34/63/105 33/103/106 35/89/107 36/93/108
f 2/4/109 31/61/110 30/130/111 1/43/112
f 32/110/113 31/62/114 2/127/115 11/114/116
f 30/60/117 29/108/118 33/102/119 34/100/120
f 35/51/121 33/56/122 29/58/123 7/97/124 38/84/125 40/39/126
f 38/42/127 37/92/128 39/88/129 40/86/130
f 7/14/131 1/99/132 37/91/133 38/83/134
f 36/94/135 39/87/136 37/41/137 1/3/138 30/105/139 34/101/140
f 36/50/141 35/90/142 40/85/143 39/40/144
