# This file uses meters as units for non-parametric coordinates.

v -0.057493 0.057097 0.914242
v -0.057493 0.057097 -0.404705
v -0.057493 -0.057097 0.914242
v -0.057493 -0.057097 -0.404705
v 0.057496 -0.057097 0.914242
v 0.057496 -0.057097 -0.404705
v 0.057496 0.057097 0.914242
v 0.057496 0.057097 -0.404705
v 0.057496 0.057097 -0.260581
v 0.057496 -0.057097 -0.260581
v -0.057493 -0.057097 -0.260581
v -0.057493 0.057097 -0.260581
v 0.057495 0.057097 0.292568
v 0.057495 -0.057097 0.292568
v -0.057494 -0.057097 0.292568
v -0.057494 0.057097 0.292568
v 0.075874 0.075346 0.914242
v -0.075871 0.075346 0.914242
v -0.075871 -0.075347 0.914242
v 0.075874 -0.075347 0.914242
v 0.075874 0.075346 0.956699
v -0.075871 0.075346 0.956699
v -0.075871 -0.075347 0.956699
v 0.075874 -0.075347 0.956699
v 0.141261 0.140279 1.181026
v -0.141256 0.140279 1.181026
v -0.141256 -0.140279 1.181026
v 0.141261 -0.140279 1.181026
v 0.074819 0.074298 1.428627
v -0.074814 0.074298 1.428627
v -0.074814 -0.074298 1.428627
v 0.074819 -0.074298 1.428627
v 0.074819 0.074298 1.469927
v -0.074814 0.074298 1.469927
v -0.074814 -0.074298 1.469927
v 0.074819 -0.074298 1.469927
v 0.036259 0.036005 1.469927
v -0.036254 0.036005 1.469927
v -0.036254 -0.036005 1.469927
v 0.036259 -0.036005 1.469927
v 0.010741 0.010665 1.593581
v -0.010737 0.010665 1.593581
v -0.010737 -0.010665 1.593581
v 0.010741 -0.010665 1.593581
v 0.040649 0.056947 1.014322
v -0.040644 0.056947 1.014322
v -0.075674 0.106022 1.183868
v 0.075677 0.106022 1.183868
v -0.040079 0.056154 1.371003
v 0.040083 0.056154 1.371003
v -0.040644 -0.056947 1.014322
v 0.040649 -0.056947 1.014322
v 0.075677 -0.106023 1.183868
v -0.075674 -0.106023 1.183868
v 0.040083 -0.056155 1.371003
v -0.040079 -0.056155 1.371003
v -0.057185 0.036660 1.014812
v -0.057185 -0.036660 1.014812
v -0.106466 -0.068254 1.183892
v -0.106466 0.068253 1.183892
v -0.056390 -0.036150 1.370512
v -0.056390 0.036150 1.370512
v 0.057187 -0.036660 1.014812
v 0.057187 0.036660 1.014812
v 0.106471 0.068253 1.183892
v 0.106471 -0.068254 1.183892
v 0.056393 0.036150 1.370512
v 0.056393 -0.036150 1.370512
vt 0.175619 0.085397
vt 0.175995 0.059641
vt 0.226392 0.059641
vt 0.175995 0.059641
vt 0.226392 0.059641
vt 0.233787 0.059641
vt 0.175995 0.059641
vt 0.233787 0.059641
vt 0.233787 0.059641
vt 0.175619 0.085397
vt 0.175619 0.085397
vt 0.226392 0.059641
vt 0.175995 0.059641
vt 0.175995 0.059641
vt 0.226392 0.059641
vt 0.175995 0.059641
vt 0.175995 0.059641
vt 0.175619 0.085397
vt 0.233787 0.059641
vt 0.175995 0.059641
vt 0.233787 0.059641
vt 0.175995 0.059641
vt 0.175995 0.059641
vt 0.226392 0.059641
vt 0.226392 0.059641
vt 0.175995 0.059641
vt 0.175995 0.059641
vt 0.233787 0.059641
vt 0.233787 0.059641
vt 0.175995 0.059641
vt 0.175995 0.059641
vt 0.226392 0.059641
vt 0.226392 0.059641
vt 0.175995 0.059641
vt 0.175995 0.059641
vt 0.233787 0.059641
vt 0.518783 0.013350
vt 0.532190 0.013350
vt 0.532190 0.042544
vt 0.518783 0.042544
vt 0.521798 0.013350
vt 0.511101 0.013350
vt 0.511101 0.042544
vt 0.521798 0.042544
vt 0.529277 0.013350
vt 0.519552 0.013350
vt 0.519552 0.042544
vt 0.529277 0.042544
vt 0.513161 0.013350
vt 0.522495 0.013350
vt 0.522495 0.042544
vt 0.513161 0.042544
vt 0.211289 0.059860
vt 0.211289 0.059860
vt 0.211289 0.059860
vt 0.211289 0.059860
vt 0.231710 0.085397
vt 0.205382 0.085397
vt 0.231710 0.085397
vt 0.205382 0.085397
vt 0.300078 0.083012
vt 0.300078 0.083012
vt 0.300078 0.083012
vt 0.300078 0.083012
vt 0.300078 0.083012
vt 0.330753 0.083012
vt 0.330753 0.083012
vt 0.300078 0.083012
vt 0.263762 0.085397
vt 0.237434 0.085397
vt 0.263762 0.085397
vt 0.237434 0.085397
vt 0.318708 0.085397
vt 0.318708 0.085397
vt 0.318708 0.085397
vt 0.318708 0.085397
vt 0.297531 0.085397
vt 0.271203 0.085397
vt 0.297531 0.085397
vt 0.271203 0.085397
vt 0.318708 0.085397
vt 0.271203 0.085397
vt 0.297531 0.085397
vt 0.271203 0.085397
vt 0.297531 0.085397
vt 0.318708 0.085397
vt 0.297531 0.085397
vt 0.271203 0.085397
vt 0.271203 0.085397
vt 0.318708 0.085397
vt 0.318708 0.085397
vt 0.318708 0.085397
vt 0.297531 0.085397
vt 0.297531 0.085397
vt 0.318708 0.085397
vt 0.318708 0.085397
vt 0.318708 0.085397
vt 0.271203 0.085397
vt 0.318708 0.085397
vt 0.318708 0.085397
vt 0.297531 0.085397
vt 0.318708 0.085397
vt 0.318708 0.085397
vt 0.271203 0.085397
vt 0.237434 0.085397
vt 0.263762 0.085397
vt 0.318708 0.085397
vt 0.263762 0.085397
vt 0.237434 0.085397
vt 0.318708 0.085397
vt 0.237434 0.085397
vt 0.263762 0.085397
vt 0.318708 0.085397
vt 0.263762 0.085397
vt 0.237434 0.085397
vt 0.318708 0.085397
vt 0.330753 0.083012
vt 0.330753 0.083012
vt 0.263762 0.085397
vt 0.330753 0.083012
vt 0.330753 0.083012
vt 0.237434 0.085397
vt 0.300078 0.083012
vt 0.300078 0.083012
vt 0.263762 0.085397
vt 0.300078 0.083012
vt 0.300078 0.083012
vt 0.237434 0.085397
vt 0.300078 0.083012
vt 0.330753 0.083012
vt 0.330753 0.083012
vt 0.300078 0.083012
vt 0.330753 0.083012
vt 0.330753 0.083012
vt 0.330753 0.083012
vt 0.330753 0.083012
vt 0.300078 0.083012
vt 0.300078 0.083012
vt 0.330753 0.083012
vt 0.300078 0.083012
vt 0.205382 0.085397
vt 0.231710 0.085397
vt 0.330753 0.083012
vt 0.231710 0.085397
vt 0.205382 0.085397
vt 0.330753 0.083012
vt 0.205382 0.085397
vt 0.231710 0.085397
vt 0.300078 0.083012
vt 0.231710 0.085397
vt 0.205382 0.085397
vt 0.300078 0.083012
vt 0.175619 0.085397
vt 0.175619 0.085397
vt 0.231710 0.085397
vt 0.175619 0.085397
vt 0.175619 0.085397
vt 0.205382 0.085397
vt 0.175619 0.085397
vt 0.175619 0.085397
vt 0.231710 0.085397
vt 0.175619 0.085397
vt 0.175619 0.085397
vt 0.205382 0.085397
vt 0.175619 0.085397
vt 0.175619 0.085397
vt 0.175619 0.085397
vt 0.175619 0.085397
vt 0.266624 0.085397
vt 0.266624 0.085397
vt 0.266624 0.085397
vt 0.266624 0.085397
vt 0.266624 0.085397
vt 0.266624 0.085397
vt 0.266624 0.085397
vt 0.266624 0.085397
vt 0.297531 0.085397
vt 0.297531 0.085397
vt 0.297531 0.085397
vt 0.297531 0.085397
vt 0.297531 0.085397
vt 0.297531 0.085397
vt 0.297531 0.085397
vt 0.297531 0.085397
vt 0.240295 0.085397
vt 0.240295 0.085397
vt 0.240295 0.085397
vt 0.240295 0.085397
vt 0.240295 0.085397
vt 0.240295 0.085397
vt 0.240295 0.085397
vt 0.240295 0.085397
vt 0.271203 0.085397
vt 0.271203 0.085397
vt 0.271203 0.085397
vt 0.271203 0.085397
vt 0.271203 0.085397
vt 0.271203 0.085397
vt 0.271203 0.085397
vt 0.271203 0.085397
vt 0.330753 0.083012
vt 0.300078 0.083012
vt 0.330753 0.083012
vt 0.330753 0.083012
vt 0.300078 0.083012
vt 0.330753 0.083012
vt 0.300078 0.083012
vt 0.330753 0.083012
vt 0.300078 0.083012
vt 0.300078 0.083012
vt 0.300078 0.083012
vt 0.300078 0.083012
vt 0.300078 0.083012
vt 0.300078 0.083012
vt 0.300078 0.083012
vt 0.300078 0.083012
vt 0.300078 0.083012
vt 0.300078 0.083012
vt 0.300078 0.083012
vt 0.330753 0.083012
vt 0.300078 0.083012
vt 0.330753 0.083012
vt 0.300078 0.083012
vt 0.300078 0.083012
vt 0.300078 0.083012
vt 0.300078 0.083012
vt 0.300078 0.083012
vt 0.300078 0.083012
vt 0.300078 0.083012
vt 0.300078 0.083012
vt 0.300078 0.083012
vt 0.300078 0.083012
vt 0.300078 0.083012
vt 0.330753 0.083012
vt 0.300078 0.083012
vt 0.300078 0.083012
vt 0.300078 0.083012
vt 0.330753 0.083012
vt 0.300078 0.083012
vt 0.300078 0.083012
vn -1.000000 0.000000 -0.000001
vn -1.000000 0.000000 -0.000001
vn -1.000000 0.000000 0.000000
vn -1.000000 0.000000 0.000000
vn 0.000000 -1.000000 0.000000
vn 0.000000 -1.000000 0.000000
vn 0.000000 -1.000000 0.000000
vn 0.000000 -1.000000 0.000000
vn 1.000000 0.000000 0.000001
vn 1.000000 0.000000 0.000001
vn 1.000000 0.000000 0.000000
vn 1.000000 0.000000 0.000000
vn 0.000000 1.000000 -0.000000
vn 0.000000 1.000000 -0.000000
vn 0.000000 1.000000 0.000000
vn 0.000000 1.000000 0.000000
vn 0.000000 0.000000 1.000000
vn 0.000000 0.000000 1.000000
vn 0.000000 0.000000 1.000000
vn 0.000000 0.000000 1.000000
vn 1.000000 0.000000 0.000000
vn 1.000000 0.000000 0.000000
vn 1.000000 0.000000 0.000001
vn 1.000000 0.000000 0.000001
vn 0.000000 -1.000000 0.000000
vn 0.000000 -1.000000 0.000000
vn 0.000000 -1.000000 0.000000
vn 0.000000 -1.000000 0.000000
vn -1.000000 0.000000 -0.000000
vn -1.000000 0.000000 0.000000
vn -1.000000 0.000000 -0.000001
vn -1.000000 0.000000 -0.000001
vn 0.000000 1.000000 -0.000000
vn 0.000000 1.000000 -0.000000
vn 0.000000 1.000000 -0.000000
vn 0.000000 1.000000 -0.000000
vn 1.000000 0.000000 -0.000001
vn 1.000000 0.000000 0.000000
vn 1.000000 0.000000 0.000000
vn 1.000000 0.000000 -0.000001
vn 0.000000 -1.000000 0.000000
vn 0.000000 -1.000000 0.000000
vn 0.000000 -1.000000 0.000000
vn 0.000000 -1.000000 0.000000
vn -1.000000 0.000000 0.000001
vn -1.000000 0.000000 0.000000
vn -1.000000 0.000000 -0.000000
vn -1.000000 0.000000 0.000001
vn 0.000000 1.000000 0.000000
vn 0.000000 1.000000 -0.000000
vn 0.000000 1.000000 -0.000000
vn 0.000000 1.000000 0.000000
vn 0.000000 0.000000 -1.000000
vn 0.000000 0.000000 -1.000000
vn 0.000000 0.000000 -1.000000
vn 0.000000 0.000000 -1.000000
vn 0.000002 0.000000 -1.000000
vn -0.000002 0.000000 -1.000000
vn -0.000002 0.000000 -1.000000
vn 0.000002 0.000000 -1.000000
vn -0.000002 0.000000 -1.000000
vn -0.000002 0.000000 -1.000000
vn -0.000002 0.000000 -1.000000
vn -0.000002 0.000000 -1.000000
vn -0.000002 0.000000 -1.000000
vn 0.000002 0.000000 -1.000000
vn 0.000002 0.000000 -1.000000
vn -0.000002 0.000000 -1.000000
vn 0.000002 0.000000 -1.000000
vn 0.000002 0.000000 -1.000000
vn 0.000002 0.000000 -1.000000
vn 0.000002 0.000000 -1.000000
vn 0.000000 1.000000 -0.000000
vn 0.000000 1.000000 -0.000000
vn 0.000000 1.000000 -0.000000
vn 0.000000 1.000000 -0.000000
vn -1.000000 0.000000 -0.000006
vn -1.000000 0.000000 -0.000006
vn -1.000000 0.000000 -0.000006
vn -1.000000 0.000000 -0.000006
vn 0.000000 -1.000000 0.000000
vn 0.000000 -1.000000 0.000000
vn 0.000000 -1.000000 0.000000
vn 0.000000 -1.000000 0.000000
vn 1.000000 0.000000 0.000006
vn 1.000000 0.000000 0.000006
vn 1.000000 0.000000 0.000006
vn 1.000000 0.000000 0.000006
vn 0.000000 0.960569 -0.278041
vn 0.000000 0.960569 -0.278041
vn 0.000000 0.960569 -0.278041
vn 0.000000 0.960569 -0.278041
vn -0.960052 0.000000 -0.279822
vn -0.960052 0.000000 -0.279822
vn -0.960052 0.000000 -0.279822
vn -0.960052 0.000000 -0.279822
vn 0.000000 -0.960569 -0.278041
vn 0.000000 -0.960569 -0.278041
vn 0.000000 -0.960569 -0.278041
vn 0.000000 -0.960569 -0.278041
vn 0.960049 0.000000 -0.279833
vn 0.960049 0.000000 -0.279833
vn 0.960049 0.000000 -0.279833
vn 0.960049 0.000000 -0.279833
vn 0.000000 0.966279 0.257496
vn 0.000000 0.966279 0.257496
vn 0.000000 0.966279 0.257496
vn 0.000000 0.966279 0.257496
vn -0.965833 0.000000 0.259165
vn -0.965833 0.000000 0.259165
vn -0.965833 0.000000 0.259165
vn -0.965833 0.000000 0.259165
vn 0.000000 -0.966279 0.257496
vn 0.000000 -0.966279 0.257496
vn 0.000000 -0.966279 0.257496
vn 0.000000 -0.966279 0.257496
vn 0.965831 0.000000 0.259172
vn 0.965831 0.000000 0.259172
vn 0.965831 0.000000 0.259172
vn 0.965831 0.000000 0.259172
vn 0.000000 1.000000 0.000000
vn 0.000000 1.000000 0.000000
vn 0.000000 1.000000 0.000000
vn 0.000000 1.000000 0.000000
vn -1.000000 0.000000 0.000000
vn -1.000000 0.000000 0.000000
vn -1.000000 0.000000 0.000000
vn -1.000000 0.000000 0.000000
vn 0.000000 -1.000000 0.000000
vn 0.000000 -1.000000 0.000000
vn 0.000000 -1.000000 0.000000
vn 0.000000 -1.000000 0.000000
vn 1.000000 0.000000 0.000000
vn 1.000000 0.000000 0.000000
vn 1.000000 0.000000 0.000000
vn 1.000000 0.000000 0.000000
vn 0.000000 0.000000 1.000000
vn -0.000001 0.000000 1.000000
vn -0.000001 0.000000 1.000000
vn 0.000000 0.000000 1.000000
vn -0.000001 0.000000 1.000000
vn -0.000001 0.000000 1.000000
vn -0.000001 0.000000 1.000000
vn -0.000001 0.000000 1.000000
vn -0.000001 0.000000 1.000000
vn 0.000000 0.000000 1.000000
vn 0.000000 0.000000 1.000000
vn -0.000001 0.000000 1.000000
vn 0.000000 0.000000 1.000000
vn 0.000000 0.000000 1.000000
vn 0.000000 0.000000 1.000000
vn 0.000000 0.000000 1.000000
vn 0.000000 0.979641 0.200755
vn 0.000000 0.979641 0.200755
vn 0.000000 0.979641 0.200755
vn 0.000000 0.979641 0.200755
vn -0.979365 0.000000 0.202099
vn -0.979365 0.000000 0.202099
vn -0.979365 0.000000 0.202099
vn -0.979365 0.000000 0.202099
vn 0.000000 -0.979641 0.200755
vn 0.000000 -0.979641 0.200755
vn 0.000000 -0.979641 0.200755
vn 0.000000 -0.979641 0.200755
vn 0.979364 0.000000 0.202106
vn 0.979364 0.000000 0.202106
vn 0.979364 0.000000 0.202106
vn 0.979364 0.000000 0.202106
vn 0.000000 0.952613 0.304184
vn 0.000000 0.952613 0.304184
vn 0.000000 0.952613 0.304184
vn 0.000000 0.952613 0.304184
vn 0.513345 0.850404 -0.115281
vn 0.513345 0.850404 -0.115281
vn 0.513345 0.850404 -0.115281
vn 0.513345 0.850404 -0.115281
vn -0.513348 0.850403 -0.115279
vn -0.513348 0.850403 -0.115279
vn -0.513348 0.850403 -0.115279
vn -0.513348 0.850403 -0.115279
vn 0.506381 0.855381 0.109091
vn 0.506381 0.855381 0.109091
vn 0.506381 0.855381 0.109091
vn 0.506381 0.855381 0.109091
vn 0.000000 0.953835 -0.300332
vn 0.000000 0.953835 -0.300332
vn 0.000000 0.953835 -0.300332
vn 0.000000 0.953835 -0.300332
vn -0.506373 0.855385 0.109095
vn -0.506373 0.855385 0.109095
vn -0.506373 0.855385 0.109095
vn -0.506373 0.855385 0.109095
vn 0.000000 -0.952613 0.304185
vn 0.000000 -0.952613 0.304185
vn 0.000000 -0.952613 0.304185
vn 0.000000 -0.952613 0.304185
vn -0.513348 -0.850403 -0.115279
vn -0.513348 -0.850403 -0.115279
vn -0.513348 -0.850402 -0.115279
vn -0.513348 -0.850402 -0.115279
vn 0.513345 -0.850404 -0.115280
vn 0.513345 -0.850404 -0.115280
vn 0.513345 -0.850404 -0.115280
vn 0.513345 -0.850404 -0.115280
vn -0.506373 -0.855386 0.109095
vn -0.506373 -0.855386 0.109095
vn -0.506373 -0.855386 0.109095
vn -0.506373 -0.855386 0.109095
vn 0.000000 -0.953835 -0.300332
vn 0.000000 -0.953835 -0.300332
vn 0.000000 -0.953835 -0.300332
vn 0.000000 -0.953835 -0.300332
vn 0.506381 -0.855382 0.109091
vn 0.506381 -0.855382 0.109091
vn 0.506381 -0.855382 0.109091
vn 0.506381 -0.855382 0.109091
vn -0.951995 0.000000 0.306113
vn -0.951995 0.000000 0.306113
vn -0.951995 0.000000 0.306113
vn -0.951995 0.000000 0.306113
vn -0.862377 0.488918 -0.131396
vn -0.862377 0.488918 -0.131396
vn -0.862377 0.488918 -0.131396
vn -0.862377 0.488918 -0.131396
vn -0.862377 -0.488917 -0.131396
vn -0.862377 -0.488917 -0.131396
vn -0.862378 -0.488917 -0.131396
vn -0.862377 -0.488917 -0.131396
vn -0.867702 0.481342 0.124109
vn -0.867702 0.481342 0.124109
vn -0.867702 0.481342 0.124109
vn -0.867702 0.481342 0.124109
vn -0.953241 0.000000 -0.302212
vn -0.953241 0.000000 -0.302212
vn -0.953241 0.000000 -0.302212
vn -0.953241 0.000000 -0.302212
vn -0.867702 -0.481342 0.124109
vn -0.867702 -0.481342 0.124109
vn -0.867702 -0.481342 0.124109
vn -0.867702 -0.481342 0.124109
vn 0.951994 0.000000 0.306116
vn 0.951994 0.000000 0.306116
vn 0.951994 0.000000 0.306116
vn 0.951994 0.000000 0.306116
vn 0.862374 -0.488922 -0.131403
vn 0.862374 -0.488922 -0.131403
vn 0.862374 -0.488922 -0.131403
vn 0.862374 -0.488922 -0.131403
vn 0.862374 0.488922 -0.131403
vn 0.862374 0.488922 -0.131403
vn 0.862374 0.488922 -0.131403
vn 0.862374 0.488922 -0.131403
vn 0.867696 -0.481353 0.124107
vn 0.867696 -0.481353 0.124107
vn 0.867696 -0.481353 0.124107
vn 0.867696 -0.481353 0.124107
vn 0.953232 0.000000 -0.302240
vn 0.953232 0.000000 -0.302240
vn 0.953232 0.000000 -0.302240
vn 0.953232 0.000000 -0.302240
vn 0.867696 0.481354 0.124107
vn 0.867696 0.481354 0.124107
vn 0.867696 0.481354 0.124107
vn 0.867696 0.481354 0.124107
s off
f 11/26/1 12/27/2 2/2/3 4/17/4
f 10/24/5 11/25/6 4/12/7 6/5/8
f 9/22/9 10/23/10 6/13/11 8/7/12
f 12/28/13 9/21/14 8/19/15 2/9/16
f 41/81/17 42/95/18 43/90/19 44/86/20
f 13/41/21 14/42/22 10/43/23 9/44/24
f 14/49/25 15/50/26 11/51/27 10/52/28
f 15/37/29 16/38/30 12/39/31 11/40/32
f 16/45/33 13/46/34 9/47/35 12/48/36
f 5/4/37 14/31/38 13/30/39 7/20/40
f 3/3/41 15/33/42 14/32/43 5/15/44
f 1/16/45 16/35/46 15/34/47 3/14/48
f 7/6/49 13/29/50 16/36/51 1/8/52
f 2/53/53 8/54/54 6/55/55 4/56/56
f 7/10/57 1/167/58 18/160/59 17/162/60
f 1/1/61 3/166/62 19/157/63 18/159/64
f 3/18/65 5/165/66 20/154/67 19/156/68
f 5/11/69 7/168/70 17/163/71 20/153/72
f 17/57/73 18/161/74 22/148/75 21/150/76
f 18/58/77 19/158/78 23/145/79 22/147/80
f 19/59/81 20/155/82 24/142/83 23/144/84
f 20/60/85 17/164/86 21/151/87 24/141/88
f 45/169/89 46/170/90 47/171/91 48/172/92
f 57/185/93 58/186/94 59/187/95 60/188/96
f 51/173/97 52/174/98 53/175/99 54/176/100
f 63/189/101 64/190/102 65/191/103 66/192/104
f 48/180/105 47/177/106 49/178/107 50/179/108
f 60/196/109 59/193/110 61/194/111 62/195/112
f 54/184/113 53/181/114 55/182/115 56/183/116
f 66/200/117 65/197/118 67/198/119 68/199/120
f 29/69/121 30/125/122 34/112/123 33/114/124
f 30/70/125 31/122/126 35/109/127 34/111/128
f 31/71/129 32/119/130 36/106/131 35/108/132
f 32/72/133 29/128/134 33/115/135 36/105/136
f 33/73/137 34/113/138 38/100/139 37/102/140
f 34/74/141 35/110/142 39/97/143 38/99/144
f 35/75/145 36/107/146 40/92/147 39/96/148
f 36/76/149 33/116/150 37/103/151 40/91/152
f 37/77/153 38/101/154 42/94/155 41/87/156
f 38/78/157 39/98/158 43/89/159 42/82/160
f 39/79/161 40/93/162 44/85/163 43/83/164
f 40/80/165 37/104/166 41/88/167 44/84/168
f 21/214/169 22/230/170 46/239/171 45/64/172
f 22/231/173 26/221/174 47/240/175 46/63/176
f 25/211/177 21/213/178 45/237/179 48/68/180
f 26/222/181 30/117/182 49/118/183 47/66/184
f 30/117/185 29/120/186 50/121/187 49/118/188
f 29/120/189 25/67/190 48/238/191 50/121/192
f 23/228/193 24/216/194 52/235/195 51/127/196
f 24/217/197 28/207/198 53/236/199 52/126/200
f 27/225/201 23/227/202 51/233/203 54/132/204
f 28/208/205 32/133/206 55/134/207 53/130/208
f 32/133/209 31/135/210 56/136/211 55/134/212
f 31/135/213 27/131/214 54/234/215 56/136/216
f 22/62/217 23/229/218 58/223/219 57/138/220
f 23/123/221 27/226/222 59/224/223 58/137/224
f 26/65/225 22/232/226 57/219/227 60/140/228
f 27/131/229 31/135/230 61/143/231 59/139/232
f 31/135/233 30/117/234 62/146/235 61/143/236
f 30/117/237 26/222/238 60/220/239 62/146/240
f 24/124/241 21/215/242 64/209/243 63/152/244
f 21/61/245 25/212/246 65/210/247 64/149/248
f 28/129/249 24/218/250 63/205/251 66/202/252
f 25/67/253 29/120/254 67/203/255 65/201/256
f 29/120/257 32/133/258 68/204/259 67/203/260
f 32/133/261 28/208/262 66/206/263 68/204/264
