# This file uses meters as units for non-parametric coordinates.

v 0.336650 0.305680 0.025242
v 0.293389 0.305680 -0.097624
v 0.336650 0.649136 0.025242
v 0.293389 0.649136 -0.097624
v -0.336650 0.649136 0.025242
v -0.293389 0.649136 -0.097624
v -0.336650 0.305680 0.025242
v -0.293389 0.305680 -0.097624
v 0.000000 0.305680 0.097624
v 0.000000 0.649136 0.097624
v 0.000000 0.649136 -0.033537
v 0.000000 0.305680 -0.033537
v 0.000000 0.649136 0.061950
v 0.000000 0.649136 0.007257
v -0.122338 0.649136 -0.019466
v -0.140377 0.649136 0.031767
v 0.140377 0.649136 0.031767
v 0.122338 0.649136 -0.019466
v 0.000000 0.701141 0.061950
v 0.000000 0.701141 0.007257
v -0.122338 0.701141 -0.019466
v -0.140377 0.701141 0.031767
v 0.140377 0.701141 0.031767
v 0.122338 0.701141 -0.019466
v -0.283293 0.305680 -0.007668
v -0.272774 0.305680 -0.037543
v -0.201438 0.305680 -0.021960
v -0.201438 0.305680 0.009931
v 0.204541 0.305680 -0.030747
v 0.204541 0.305680 0.002022
v 0.277840 0.305680 -0.046759
v 0.288648 0.305680 -0.016062
v -0.283293 0.000000 -0.007668
v -0.272774 0.000000 -0.037543
v -0.201438 0.000000 -0.021960
v -0.201438 0.000000 0.009931
v 0.204541 0.000000 -0.030747
v 0.204541 0.000000 0.002022
v 0.277840 0.000000 -0.046759
v 0.288648 0.000000 -0.016062
vt 0.203913 0.284119
vt 0.169634 0.284119
vt 0.259469 0.284119
vt 0.259469 0.284119
vt 0.259469 0.284119
vt 0.259469 0.284119
vt 0.108168 0.284119
vt 0.108168 0.284119
vt 0.108168 0.284119
vt 0.108168 0.284119
vt 0.202731 0.284119
vt 0.202731 0.284119
vt 0.202731 0.284119
vt 0.202731 0.284119
vt 0.202731 0.284119
vt 0.108168 0.284119
vt 0.203913 0.284119
vt 0.259469 0.284119
vt 0.259469 0.284119
vt 0.202731 0.284119
vt 0.108168 0.284119
vt 0.203913 0.284119
vt 0.202731 0.284119
vt 0.169634 0.284119
vt 0.202731 0.284119
vt 0.203913 0.284119
vt 0.169634 0.284119
vt 0.203913 0.284119
vt 0.259469 0.284119
vt 0.169634 0.284119
vt 0.202731 0.284119
vt 0.203913 0.284119
vt 0.259469 0.284119
vt 0.203913 0.284119
vt 0.108168 0.284119
vt 0.169634 0.284119
vt 0.108168 0.284119
vt 0.169634 0.284119
vt 0.108168 0.284119
vt 0.169634 0.284119
vt 0.108168 0.284119
vt 0.169634 0.284119
vt 0.108168 0.284119
vt 0.169634 0.284119
vt 0.108168 0.284119
vt 0.169634 0.284119
vt 0.108168 0.284119
vt 0.169634 0.284119
vt 0.108168 0.284119
vt 0.169634 0.284119
vt 0.169634 0.284119
vt 0.259469 0.284119
vt 0.259469 0.284119
vt 0.259469 0.284119
vt 0.259469 0.284119
vt 0.202731 0.284119
vt 0.259469 0.284119
vt 0.259469 0.284119
vt 0.259469 0.284119
vt 0.259469 0.284119
vt 0.259469 0.284119
vt 0.259469 0.284119
vt 0.259469 0.284119
vt 0.259469 0.284119
vt 0.259469 0.284119
vt 0.259469 0.284119
vt 0.203913 0.284119
vt 0.259469 0.284119
vt 0.169634 0.284119
vt 0.259469 0.284119
vt 0.259469 0.284119
vt 0.259469 0.284119
vt 0.259469 0.284119
vt 0.259469 0.284119
vt 0.169634 0.284119
vt 0.259469 0.284119
vt 0.169634 0.284119
vt 0.259469 0.284119
vt 0.259469 0.284119
vt 0.259469 0.284119
vt 0.203913 0.284119
vt 0.202731 0.284119
vt 0.169634 0.284119
vt 0.203913 0.284119
vt 0.169634 0.284119
vt 0.203913 0.284119
vt 0.169634 0.284119
vt 0.169634 0.284119
vt 0.202731 0.284119
vt 0.202731 0.284119
vt 0.203913 0.284119
vt 0.202731 0.284119
vt 0.203913 0.284119
vt 0.202731 0.284119
vt 0.203913 0.284119
vt 0.202731 0.284119
vt 0.203913 0.284119
vt 0.169634 0.284119
vt 0.169634 0.284119
vt 0.203913 0.284119
vt 0.108168 0.284119
vt 0.169634 0.284119
vt 0.108168 0.284119
vt 0.108168 0.284119
vt 0.169634 0.284119
vt 0.108168 0.284119
vt 0.108168 0.284119
vt 0.108168 0.284119
vt 0.108168 0.284119
vt 0.108168 0.284119
vt 0.108168 0.284119
vt 0.108168 0.284119
vt 0.108168 0.284119
vt 0.169634 0.284119
vt 0.108168 0.284119
vt 0.108168 0.284119
vt 0.169634 0.284119
vt 0.108168 0.284119
vt 0.108168 0.284119
vt 0.108168 0.284119
vt 0.108168 0.284119
vt 0.169634 0.284119
vt 0.108168 0.284119
vt 0.108168 0.284119
vt 0.169634 0.284119
vt 0.108168 0.284119
vt 0.108168 0.284119
vt 0.108168 0.284119
vt 0.108168 0.284119
vt 0.108168 0.284119
vt 0.108168 0.284119
vt 0.108168 0.284119
vt 0.108168 0.284119
vt 0.169634 0.284119
vt 0.108168 0.284119
vt 0.108168 0.284119
vt 0.108168 0.284119
vt 0.108168 0.284119
vt 0.108168 0.284119
vt 0.169634 0.284119
vt 0.108168 0.284119
vt 0.108168 0.284119
vt 0.108168 0.284119
vt 0.108168 0.284119
vt 0.108168 0.284119
vt 0.108168 0.284119
vt 0.108168 0.284119
vt 0.108168 0.284119
vt 0.169634 0.284119
vt 0.108168 0.284119
vt 0.169634 0.284119
vt 0.108168 0.284119
vn 0.943239 0.000000 -0.332114
vn 0.943239 0.000000 -0.332114
vn 0.943239 0.000000 -0.332114
vn 0.943239 0.000000 -0.332114
vn 0.000000 1.000000 -0.000001
vn 0.000000 1.000000 -0.000001
vn 0.000000 1.000000 -0.000001
vn 0.000000 1.000000 -0.000001
vn -0.943239 0.000000 -0.332114
vn -0.943239 0.000000 -0.332114
vn -0.943239 0.000000 -0.332114
vn -0.943239 0.000000 -0.332114
vn 0.000000 -1.000000 0.000000
vn 0.000000 -1.000000 0.000000
vn 0.000000 -1.000000 0.000000
vn 0.000000 -1.000000 0.000000
vn 0.213406 0.000000 -0.976964
vn 0.213406 0.000000 -0.976964
vn 0.213406 0.000000 -0.976964
vn 0.213406 0.000000 -0.976964
vn -0.210204 0.000000 0.977657
vn -0.210204 0.000000 0.977657
vn -0.210204 0.000000 0.977657
vn -0.210204 0.000000 0.977657
vn 0.210204 0.000000 0.977657
vn 0.210204 0.000000 0.977657
vn 0.210204 0.000000 0.977657
vn 0.210204 0.000000 0.977657
vn 0.000000 1.000000 0.000000
vn 0.000000 1.000000 0.000000
vn 0.000000 1.000000 -0.000001
vn 0.000000 1.000000 -0.000001
vn -0.213406 0.000000 -0.976964
vn -0.213406 0.000000 -0.976964
vn -0.213406 0.000000 -0.976964
vn -0.213406 0.000000 -0.976964
vn 0.000000 -1.000000 0.000000
vn 0.000000 -1.000000 0.000000
vn 0.000000 -1.000000 0.000000
vn 0.000000 -1.000000 0.000000
vn 0.000000 1.000000 -0.000001
vn 0.000000 1.000000 0.000000
vn 0.000000 1.000000 -0.000001
vn 0.000000 1.000000 -0.000001
vn 0.000000 1.000000 0.000000
vn 0.000000 1.000000 0.000000
vn 0.000000 1.000000 0.000000
vn 0.000000 1.000000 -0.000001
vn 0.000000 1.000000 0.000000
vn 0.000000 1.000000 -0.000000
vn 0.000000 1.000000 -0.000000
vn 0.000000 1.000000 0.000000
vn 0.000000 1.000000 0.000001
vn 0.000000 1.000000 0.000001
vn 0.000000 1.000000 0.000001
vn 0.000000 1.000000 0.000000
vn 0.000000 1.000000 0.000001
vn 0.000000 1.000000 -0.000001
vn 0.000000 1.000000 -0.000001
vn 0.000000 1.000000 0.000001
vn 0.000000 1.000000 -0.000000
vn 0.000000 1.000000 0.000001
vn 0.000000 1.000000 0.000000
vn 0.000000 1.000000 -0.000000
vn 0.213406 0.000000 -0.976964
vn 0.213406 0.000000 -0.976964
vn 0.213406 0.000000 -0.976964
vn 0.213406 0.000000 -0.976964
vn -0.943240 0.000000 -0.332112
vn -0.943240 0.000000 -0.332112
vn -0.943240 0.000000 -0.332112
vn -0.943240 0.000000 -0.332112
vn -0.210205 0.000000 0.977657
vn -0.210205 0.000000 0.977657
vn -0.210205 0.000000 0.977657
vn -0.210205 0.000000 0.977657
vn 0.943240 0.000000 -0.332111
vn 0.943240 0.000000 -0.332111
vn 0.943240 0.000000 -0.332111
vn 0.943240 0.000000 -0.332111
vn -0.213405 0.000000 -0.976964
vn -0.213405 0.000000 -0.976964
vn -0.213405 0.000000 -0.976964
vn -0.213405 0.000000 -0.976964
vn 0.210205 0.000000 0.977657
vn 0.210205 0.000000 0.977657
vn 0.210205 0.000000 0.977657
vn 0.210205 0.000000 0.977657
vn 0.000000 -1.000000 -0.000000
vn 0.000000 -1.000000 0.000000
vn 0.000000 -1.000000 0.000000
vn 0.000000 -1.000000 -0.000000
vn 0.000000 -1.000000 0.000000
vn 0.000000 -1.000000 -0.000000
vn 0.000000 -1.000000 0.000000
vn 0.000000 -1.000000 0.000000
vn 0.000000 -1.000000 -0.000000
vn 0.000000 -1.000000 -0.000000
vn 0.000000 -1.000000 -0.000000
vn 0.000000 -1.000000 0.000000
vn 0.000000 -1.000000 -0.000000
vn 0.000000 -1.000000 -0.000000
vn 0.000000 -1.000000 -0.000000
vn 0.000000 -1.000000 -0.000000
vn 0.000000 -1.000000 -0.000000
vn 0.000000 -1.000000 -0.000000
vn 0.000000 -1.000000 -0.000000
vn 0.000000 -1.000000 0.000000
vn 0.000000 -1.000000 -0.000000
vn 0.000000 -1.000000 -0.000001
vn 0.000000 -1.000000 -0.000001
vn 0.000000 -1.000000 -0.000000
vn 0.000000 -1.000000 -0.000001
vn 0.000000 -1.000000 0.000000
vn 0.000000 -1.000000 0.000000
vn 0.000000 -1.000000 -0.000001
vn 0.000000 -1.000000 0.000000
vn 0.000000 -1.000000 -0.000000
vn 0.000000 -1.000000 0.000000
vn 0.000000 -1.000000 0.000000
vn -0.943238 0.000000 -0.332116
vn -0.943238 0.000000 -0.332116
vn -0.943238 0.000000 -0.332116
vn -0.943238 0.000000 -0.332116
vn 0.213403 0.000000 -0.976964
vn 0.213403 0.000000 -0.976964
vn 0.213403 0.000000 -0.976964
vn 0.213403 0.000000 -0.976964
vn 1.000000 0.000000 0.000000
vn 1.000000 0.000000 0.000000
vn 1.000000 0.000000 0.000000
vn 1.000000 0.000000 0.000000
vn -0.210203 0.000000 0.977658
vn -0.210203 0.000000 0.977658
vn -0.210203 0.000000 0.977658
vn -0.210203 0.000000 0.977658
vn -1.000000 0.000000 0.000000
vn -1.000000 0.000000 0.000000
vn -1.000000 0.000000 0.000000
vn -1.000000 0.000000 0.000000
vn -0.213407 0.000000 -0.976963
vn -0.213407 0.000000 -0.976963
vn -0.213407 0.000000 -0.976963
vn -0.213407 0.000000 -0.976963
vn 0.943238 0.000000 -0.332116
vn 0.943238 0.000000 -0.332116
vn 0.943238 0.000000 -0.332116
vn 0.943238 0.000000 -0.332116
vn 0.210205 0.000000 0.977657
vn 0.210205 0.000000 0.977657
vn 0.210205 0.000000 0.977657
vn 0.210205 0.000000 0.977657
s off
f 1/98/1 2/2/2 4/99/3 3/69/4
f 19/52/5 20/55/6 21/58/7 22/57/8
f 5/75/9 6/77/10 8/149/11 7/151/12
f 33/43/13 34/131/14 35/126/15 36/124/16
f 11/20/17 12/94/18 8/11/19 6/12/20
f 7/13/21 9/15/22 10/96/23 5/14/24
f 10/17/25 9/95/26 1/1/27 3/100/28
f 23/33/29 24/54/30 20/29/31 19/53/32
f 2/97/33 12/22/34 11/93/35 4/67/36
f 38/47/37 37/111/38 39/106/39 40/104/40
f 11/19/41 6/78/42 15/74/43 14/65/44
f 6/6/45 5/76/46 16/72/47 15/73/48
f 5/5/49 10/80/50 13/62/51 16/71/52
f 3/3/53 4/68/54 18/64/55 17/59/56
f 4/4/57 11/79/58 14/66/59 18/63/60
f 10/18/61 3/70/62 17/60/63 13/61/64
f 14/23/65 15/90/66 21/89/67 20/56/68
f 15/24/69 16/88/70 22/87/71 21/30/72
f 16/25/73 13/92/74 19/82/75 22/31/76
f 17/27/77 18/85/78 24/83/79 23/51/80
f 18/28/81 14/91/82 20/84/83 24/34/84
f 13/26/85 17/86/86 23/81/87 19/32/88
f 7/7/89 8/150/90 26/136/91 25/138/92
f 8/8/93 12/146/94 27/133/95 26/135/96
f 12/147/97 9/143/98 28/128/99 27/132/100
f 9/144/101 7/152/102 25/139/103 28/127/104
f 9/16/105 12/148/106 29/119/107 30/115/108
f 12/21/109 2/142/110 31/113/111 29/118/112
f 2/10/113 1/141/114 32/108/115 31/112/116
f 1/9/117 9/145/118 30/116/119 32/107/120
f 25/35/121 26/137/122 34/130/123 33/121/124
f 26/36/125 27/134/126 35/125/127 34/44/128
f 27/37/129 28/129/130 36/123/131 35/45/132
f 28/38/133 25/140/134 33/122/135 36/46/136
f 30/39/137 29/120/138 37/110/139 38/101/140
f 29/40/141 31/114/142 39/105/143 37/48/144
f 31/41/145 32/109/146 40/103/147 39/49/148
f 32/42/149 30/117/150 38/102/151 40/50/152
