# This file uses meters as units for non-parametric coordinates.

v -0.065567 -0.162534 0.072211
v 0.067739 -0.162534 0.072211
v 0.067739 -0.162534 -0.067241
v -0.065567 -0.162534 -0.067241
v -0.108406 0.287873 -0.138412
v 0.110577 0.287873 -0.138412
v 0.067739 0.190874 0.323225
v -0.065567 0.190874 0.323225
v 0.110577 0.287873 0.376720
v -0.108406 0.287873 0.376720
v 0.067739 0.068135 0.072211
v -0.065567 0.068135 0.072211
v 0.067739 0.068135 0.187660
v -0.065567 0.068135 0.187660
v 0.067739 0.190874 0.187660
v -0.065567 0.190874 0.187660
v 0.067739 0.190874 -0.067241
v -0.065567 0.190874 -0.067241
v 0.067739 0.190874 0.073159
v -0.065567 0.190874 0.071754
v -0.065567 0.167547 0.050460
v -0.065567 0.167547 -0.046218
v -0.065567 -0.138874 -0.046218
v -0.065567 -0.139781 0.050121
v 0.067739 0.167547 -0.045245
v 0.067739 -0.138874 -0.045245
v 0.067739 0.167547 0.051432
v 0.067739 -0.139781 0.051093
v 0.067739 0.085293 0.093029
v 0.067739 0.173717 0.093029
v 0.067739 0.173717 0.168185
v 0.067739 0.085293 0.167946
v -0.065567 0.085293 0.167031
v -0.065567 0.085293 0.092114
v -0.065567 0.173717 0.167270
v -0.065567 0.173717 0.092114
v -0.065567 0.190874 0.211344
v 0.067739 0.190874 0.212751
v -0.120191 -0.228301 0.202082
v -0.120191 -0.228301 -0.118091
v 0.122362 -0.228301 -0.118091
v 0.122362 -0.228301 0.202082
v -0.120191 -0.289219 0.202082
v -0.120191 -0.289219 -0.118091
v 0.122362 -0.289219 -0.118091
v 0.122362 -0.289219 0.202082
v -0.107463 -0.337394 0.185280
v -0.107463 -0.337394 -0.101288
v 0.109634 -0.337394 -0.101288
v 0.109634 -0.337394 0.185280
v -0.108406 0.365120 -0.138412
v -0.108406 0.365120 0.376720
v 0.110577 0.365120 0.376720
v 0.110577 0.365120 -0.138412
v -0.065527 0.462719 -0.082253
v -0.065527 0.462719 0.320561
v 0.067699 0.462719 0.320561
v 0.067699 0.462719 -0.082253
v -0.046976 0.287873 0.376720
v 0.049147 0.287873 0.376720
v 0.049147 0.365120 0.376720
v -0.046976 0.365120 0.376720
v -0.046976 0.287873 0.490455
v 0.049147 0.287873 0.490455
v 0.049147 0.365120 0.490455
v -0.046976 0.365120 0.490455
v -0.046976 -0.337394 0.283463
v 0.049147 -0.337394 0.283463
v 0.049147 -0.337394 0.397198
v -0.046976 -0.337394 0.397198
v -0.046976 -0.294437 0.290682
v 0.049147 -0.294437 0.290682
v -0.046976 -0.236206 0.299286
v 0.049147 -0.236206 0.299286
v -0.046976 -0.236206 0.125363
v 0.049147 -0.236206 0.125363
v 0.049147 -0.294437 0.125363
v -0.046976 -0.294437 0.125363
v -0.024241 0.306144 0.490455
v 0.026411 0.306144 0.490455
v 0.026411 0.346848 0.490455
v -0.024241 0.346848 0.490455
v -0.024241 0.306144 0.565995
v 0.026411 0.306144 0.565995
v 0.026411 0.346848 0.565995
v -0.024241 0.346848 0.565995
v 0.110577 0.287873 -0.202720
v 0.067739 0.190874 -0.131550
v -0.065567 0.190874 -0.131550
v -0.108406 0.287873 -0.202720
v -0.108406 0.365120 -0.202720
v 0.110577 0.365120 -0.202720
v -0.065527 0.462719 -0.146561
v 0.067699 0.462719 -0.146561
vt 0.200991 0.064560
vt 0.200991 0.064560
vt 0.200991 0.064560
vt 0.200991 0.064560
vt 0.128842 0.061785
vt 0.128842 0.061785
vt 0.128842 0.061785
vt 0.128842 0.061785
vt 0.115421 0.064560
vt 0.115421 0.064560
vt 0.115421 0.064560
vt 0.115421 0.064560
vt 0.200991 0.086993
vt 0.200991 0.086993
vt 0.200991 0.086993
vt 0.200991 0.086993
vt 0.139925 0.086993
vt 0.139925 0.086993
vt 0.139925 0.086993
vt 0.139925 0.086993
vt 0.142417 0.219032
vt 0.142417 0.219032
vt 0.142417 0.219032
vt 0.142417 0.219032
vt 0.142417 0.219032
vt 0.142417 0.219032
vt 0.178791 0.219032
vt 0.178791 0.219032
vt 0.178791 0.219032
vt 0.178791 0.219032
vt 0.108769 0.473329
vt 0.108769 0.473329
vt 0.108769 0.473329
vt 0.108769 0.473329
vt 0.108769 0.473329
vt 0.108769 0.473329
vt 0.108769 0.473329
vt 0.108769 0.473329
vt 0.172327 0.064560
vt 0.172327 0.064560
vt 0.172327 0.064560
vt 0.172327 0.064560
vt 0.172327 0.064560
vt 0.172327 0.064560
vt 0.172327 0.064560
vt 0.172327 0.064560
vt 0.172327 0.064560
vt 0.172327 0.064560
vt 0.172327 0.064560
vt 0.172327 0.064560
vt 0.172327 0.064560
vt 0.172327 0.064560
vt 0.172327 0.064560
vt 0.172327 0.064560
vt 0.172327 0.064560
vt 0.172327 0.064560
vt 0.172327 0.086993
vt 0.172327 0.086993
vt 0.172327 0.086993
vt 0.172327 0.086993
vt 0.172327 0.086993
vt 0.172327 0.086993
vt 0.172327 0.086993
vt 0.172327 0.086993
vt 0.172327 0.086993
vt 0.172327 0.086993
vt 0.172327 0.086993
vt 0.172327 0.086993
vt 0.172327 0.086993
vt 0.172327 0.086993
vt 0.172327 0.086993
vt 0.172327 0.086993
vt 0.172327 0.086993
vt 0.172327 0.086993
vt 0.172327 0.086993
vt 0.172327 0.086993
vt 0.172327 0.086993
vt 0.172327 0.086993
vt 0.172327 0.086993
vt 0.172327 0.086993
vt 0.172327 0.086993
vt 0.172327 0.086993
vt 0.172327 0.086993
vt 0.172327 0.086993
vt 0.172327 0.086993
vt 0.172327 0.086993
vt 0.172327 0.086993
vt 0.172327 0.086993
vt 0.206552 0.219032
vt 0.206552 0.219032
vt 0.206552 0.219032
vt 0.206552 0.219032
vt 0.206552 0.219032
vt 0.206552 0.219032
vt 0.206552 0.219032
vt 0.206552 0.219032
vt 0.206552 0.219032
vt 0.206552 0.219032
vt 0.206552 0.219032
vt 0.206552 0.219032
vt 0.206552 0.219032
vt 0.206552 0.219032
vt 0.292633 0.214439
vt 0.292633 0.214439
vt 0.292633 0.214439
vt 0.292633 0.214439
vt 0.108014 0.478320
vt 0.108014 0.478320
vt 0.108014 0.478319
vt 0.108014 0.478319
vt 0.108014 0.478319
vt 0.108014 0.478319
vt 0.108014 0.478320
vt 0.108014 0.478320
vt 0.200991 0.064560
vt 0.200991 0.064560
vt 0.200991 0.064560
vt 0.200991 0.064560
vt 0.203466 0.219032
vt 0.203466 0.219032
vt 0.203466 0.219032
vt 0.203466 0.219032
vt 0.182192 0.219032
vt 0.182192 0.219032
vt 0.182192 0.219032
vt 0.182192 0.219032
vt 0.203466 0.219032
vt 0.203466 0.219032
vt 0.203466 0.219032
vt 0.203466 0.219032
vt 0.182192 0.219032
vt 0.182192 0.219032
vt 0.182192 0.219032
vt 0.182192 0.219032
vt 0.174792 0.219032
vt 0.174792 0.219032
vt 0.174792 0.219032
vt 0.174792 0.219032
vt 0.142417 0.219032
vt 0.142417 0.219032
vt 0.142417 0.219032
vt 0.142417 0.219032
vt 0.174792 0.219032
vt 0.174792 0.219032
vt 0.174792 0.219032
vt 0.174792 0.219032
vt 0.142417 0.219032
vt 0.142417 0.219032
vt 0.142417 0.219032
vt 0.142417 0.219032
vt 0.142417 0.064560
vt 0.142417 0.064560
vt 0.142417 0.064560
vt 0.142417 0.064560
vt 0.115421 0.064560
vt 0.115421 0.064560
vt 0.115421 0.064560
vt 0.115421 0.064560
vt 0.142417 0.064560
vt 0.142417 0.064560
vt 0.142417 0.064560
vt 0.142417 0.064560
vt 0.115421 0.064560
vt 0.115421 0.064560
vt 0.115421 0.064560
vt 0.115421 0.064560
vt 0.242684 0.214439
vt 0.242684 0.214439
vt 0.242684 0.214439
vt 0.242684 0.214439
vt 0.266067 0.060635
vt 0.266067 0.060635
vt 0.266067 0.060635
vt 0.266067 0.060635
vt 0.242684 0.214439
vt 0.242684 0.214439
vt 0.242684 0.214439
vt 0.242684 0.214439
vt 0.170535 0.057192
vt 0.170535 0.057192
vt 0.170535 0.057192
vt 0.170535 0.057192
vt 0.268584 0.214439
vt 0.268583 0.214439
vt 0.268583 0.214439
vt 0.268584 0.214439
vt 0.226959 0.214439
vt 0.226959 0.214439
vt 0.226959 0.214439
vt 0.226959 0.214439
vt 0.268583 0.214439
vt 0.268584 0.214439
vt 0.268584 0.214439
vt 0.268583 0.214439
vt 0.203835 0.057192
vt 0.203835 0.057192
vt 0.203835 0.057192
vt 0.203835 0.057192
vt 0.242684 0.059967
vt 0.242684 0.059967
vt 0.242684 0.059967
vt 0.242684 0.059967
vt 0.204760 0.214439
vt 0.204760 0.214439
vt 0.204760 0.214439
vt 0.204760 0.214439
vt 0.242684 0.059967
vt 0.242684 0.059967
vt 0.242684 0.059967
vt 0.242684 0.059967
vt 0.203835 0.214439
vt 0.203835 0.214439
vt 0.203835 0.214439
vt 0.203835 0.214439
vt 0.082394 0.059967
vt 0.082394 0.059967
vt 0.082394 0.059967
vt 0.082394 0.059967
vt 0.178976 0.059967
vt 0.178976 0.059967
vt 0.178976 0.059967
vt 0.178976 0.059967
vt 0.230408 0.059967
vt 0.230408 0.059967
vt 0.230408 0.059967
vt 0.230408 0.059967
vt 0.178976 0.059967
vt 0.178976 0.059967
vt 0.178976 0.059967
vt 0.178976 0.059967
vt 0.119398 0.059967
vt 0.119398 0.059967
vt 0.119398 0.059967
vt 0.119398 0.059967
vt 0.178976 0.059967
vt 0.178976 0.059967
vt 0.178976 0.059967
vt 0.178976 0.059967
vt 0.178976 0.059967
vt 0.178976 0.059967
vt 0.143834 0.059967
vt 0.143834 0.059967
vt 0.143834 0.059967
vt 0.143834 0.059967
vt 0.178976 0.059967
vt 0.178976 0.059967
vt 0.178976 0.059967
vt 0.178976 0.059967
vt 0.178976 0.059967
vt 0.178976 0.059967
vt 0.119398 0.059967
vt 0.119398 0.059967
vt 0.119398 0.059967
vt 0.119398 0.059967
vt 0.201783 0.059967
vt 0.201783 0.059967
vt 0.201783 0.059967
vt 0.201783 0.059967
vt 0.178976 0.059967
vt 0.178976 0.059967
vt 0.178976 0.059967
vt 0.178976 0.059967
vt 0.082394 0.059967
vt 0.082394 0.059967
vt 0.082394 0.059967
vt 0.082394 0.059967
vt 0.178976 0.059967
vt 0.178976 0.059967
vt 0.178976 0.059967
vt 0.178976 0.059967
vt 0.147963 0.059967
vt 0.147963 0.059967
vt 0.147963 0.059967
vt 0.147963 0.059967
vt 0.147963 0.059967
vt 0.147963 0.059967
vt 0.147963 0.059967
vt 0.147963 0.059967
vt 0.147963 0.059967
vt 0.147963 0.059967
vt 0.147963 0.059967
vt 0.147963 0.059967
vt 0.147963 0.059967
vt 0.147963 0.059967
vt 0.147963 0.059967
vt 0.147963 0.059967
vt 0.259378 0.060635
vt 0.259378 0.060635
vt 0.259378 0.060635
vt 0.259378 0.060635
vt 0.294520 0.060635
vt 0.294520 0.060635
vt 0.294520 0.060635
vt 0.294520 0.060635
vt 0.345952 0.060635
vt 0.345952 0.060635
vt 0.345952 0.060635
vt 0.345952 0.060635
vt 0.294520 0.060635
vt 0.294520 0.060635
vt 0.294520 0.060635
vt 0.294520 0.060635
vt 0.096726 0.061785
vt 0.096726 0.061785
vt 0.096726 0.061785
vt 0.096726 0.061785
vt 0.128842 0.061785
vt 0.128842 0.061785
vt 0.128842 0.061785
vt 0.128842 0.061785
vt 0.096726 0.061785
vt 0.096726 0.061785
vt 0.096726 0.061785
vt 0.096726 0.061785
vt 0.154144 0.057192
vt 0.154144 0.057192
vt 0.154144 0.057192
vt 0.154144 0.057192
vt 0.138419 0.057192
vt 0.138419 0.057192
vt 0.138419 0.057192
vt 0.138419 0.057192
vt 0.171718 0.057192
vt 0.171718 0.057192
vt 0.171718 0.057192
vt 0.171718 0.057192
vt 0.228809 0.057192
vt 0.228809 0.057192
vt 0.228809 0.057192
vt 0.228809 0.057192
vt 0.171718 0.057192
vt 0.171718 0.057192
vt 0.171718 0.057192
vt 0.171718 0.057192
vn 0.000000 0.000000 1.000000
vn 0.000000 0.000000 1.000000
vn 0.000000 0.000000 1.000000
vn 0.000000 0.000000 1.000000
vn 0.000000 -0.591568 -0.806255
vn 0.000000 -0.591568 -0.806255
vn 0.000000 -0.591568 -0.806255
vn 0.000000 -0.591568 -0.806255
vn 0.000000 -1.000000 0.000000
vn 0.000000 -1.000000 0.000000
vn 0.000000 -1.000000 0.000000
vn 0.000000 -1.000000 0.000000
vn 0.000000 0.000000 1.000000
vn 0.000000 0.000000 1.000000
vn 0.000000 0.000000 1.000000
vn 0.000000 0.000000 1.000000
vn 0.000000 -1.000000 0.000000
vn 0.000000 -1.000000 0.000000
vn 0.000000 -1.000000 0.000000
vn 0.000000 -1.000000 0.000000
vn 0.000000 -1.000000 0.000000
vn 0.000000 -1.000000 0.000000
vn 0.000000 -1.000000 0.000000
vn 0.000000 -1.000000 0.000000
vn 0.000000 -1.000000 0.000000
vn 0.000000 -1.000000 0.000000
vn 0.000000 -0.482928 0.875660
vn 0.000000 -0.482928 0.875660
vn 0.000000 -0.482928 0.875660
vn 0.000000 -0.482929 0.875660
vn -1.000000 0.000000 0.000000
vn -1.000000 0.000000 0.000000
vn -1.000000 0.000000 0.000000
vn -1.000000 0.000000 0.000000
vn 1.000000 0.000000 0.000000
vn 1.000000 -0.000000 0.000000
vn 1.000000 -0.000000 0.000000
vn 1.000000 -0.000000 0.000000
vn -1.000000 -0.000000 0.000000
vn -1.000000 0.000000 0.000000
vn -1.000000 0.000000 0.000000
vn -1.000000 0.000000 0.000000
vn -1.000000 0.000000 0.000000
vn -1.000000 0.000000 0.000000
vn -1.000000 0.000000 0.000000
vn -1.000000 0.000000 0.000000
vn -1.000000 0.000000 0.000000
vn -1.000000 0.000000 0.000000
vn -1.000000 0.000000 0.000000
vn -1.000000 0.000000 0.000000
vn -1.000000 0.000000 0.000000
vn -1.000000 0.000000 0.000000
vn -1.000000 0.000000 0.000000
vn -1.000000 -0.000000 0.000000
vn -1.000000 -0.000000 0.000000
vn 1.000000 0.000000 0.000000
vn 1.000000 -0.000000 0.000000
vn 1.000000 -0.000000 0.000000
vn 1.000000 0.000000 0.000000
vn 1.000000 -0.000000 0.000000
vn 1.000000 -0.000000 0.000000
vn 1.000000 -0.000000 0.000000
vn 1.000000 -0.000000 0.000000
vn 1.000000 -0.000000 0.000000
vn 1.000000 -0.000000 0.000000
vn 1.000000 -0.000000 0.000000
vn 1.000000 -0.000000 0.000000
vn 1.000000 -0.000000 0.000000
vn 1.000000 -0.000000 0.000000
vn 1.000000 0.000000 0.000000
vn 1.000000 0.000000 0.000000
vn 1.000000 -0.000000 0.000000
vn 1.000000 -0.000000 0.000000
vn 1.000000 -0.000000 0.000000
vn 1.000000 0.000000 0.000000
vn 1.000000 -0.000000 0.000000
vn 1.000000 -0.000000 0.000000
vn 1.000000 0.000000 0.000000
vn 1.000000 0.000000 0.000000
vn 1.000000 0.000000 0.000000
vn 1.000000 0.000000 0.000000
vn 1.000000 -0.000000 0.000000
vn 1.000000 -0.000000 0.000000
vn 1.000000 0.000000 0.000000
vn 1.000000 -0.000000 0.000000
vn 1.000000 -0.000000 0.000000
vn 1.000000 -0.000000 0.000000
vn 1.000000 -0.000000 0.000000
vn -1.000000 -0.000000 0.000000
vn -1.000000 -0.000000 0.000000
vn -1.000000 -0.000000 0.000000
vn -1.000000 -0.000000 0.000000
vn -1.000000 -0.000000 0.000000
vn -1.000000 -0.000000 0.000000
vn -1.000000 -0.000000 0.000000
vn -1.000000 -0.000000 0.000000
vn -1.000000 -0.000000 0.000000
vn -1.000000 -0.000000 0.000000
vn -1.000000 -0.000000 0.000000
vn -1.000000 -0.000000 0.000000
vn -1.000000 -0.000000 0.000000
vn -1.000000 -0.000000 0.000000
vn -1.000000 -0.000000 0.000000
vn -1.000000 -0.000000 0.000000
vn -0.914760 -0.403998 0.000000
vn -0.914760 -0.403998 0.000000
vn -0.914760 -0.403997 0.000000
vn -0.914760 -0.403998 0.000000
vn -0.914760 -0.403998 0.000000
vn -0.914760 -0.403998 0.000000
vn -0.914760 -0.403998 0.000000
vn 0.914761 -0.403996 0.000000
vn 0.914761 -0.403995 0.000000
vn 0.914761 -0.403996 0.000000
vn 0.914761 -0.403996 0.000000
vn 0.914761 -0.403996 0.000000
vn 0.914761 -0.403996 0.000000
vn 0.914761 -0.403996 0.000000
vn 0.000000 1.000000 0.000000
vn 0.000000 1.000000 0.000000
vn 0.000000 1.000000 0.000000
vn 0.000000 1.000000 0.000000
vn 1.000000 0.000000 0.000000
vn 1.000000 0.000000 0.000000
vn 1.000000 -0.000000 0.000000
vn 1.000000 -0.000000 0.000000
vn -1.000000 -0.000000 0.000000
vn -1.000000 -0.000000 0.000000
vn -1.000000 -0.000000 0.000000
vn -1.000000 -0.000000 0.000000
vn 0.000000 0.000000 -1.000000
vn 0.000000 0.000000 -1.000000
vn 0.000000 0.000000 -1.000000
vn 0.000000 0.000000 -1.000000
vn -0.769270 0.638924 0.000000
vn -0.769270 0.638924 0.000000
vn -0.769270 0.638924 0.000000
vn -0.769270 0.638924 0.000000
vn 0.000000 0.611668 -0.791115
vn 0.000000 0.611668 -0.791115
vn 0.000000 0.611668 -0.791115
vn 0.000000 0.611668 -0.791115
vn 0.769270 0.638924 0.000000
vn 0.769270 0.638924 0.000000
vn 0.769270 0.638924 0.000000
vn 0.769270 0.638924 0.000000
vn 0.000000 0.892130 0.451778
vn 0.000000 0.892130 0.451778
vn 0.000000 0.892130 0.451778
vn 0.000000 0.892130 0.451778
vn -1.000000 0.000000 0.000000
vn -1.000000 0.000000 0.000000
vn -1.000000 0.000000 0.000000
vn -1.000000 0.000000 0.000000
vn 0.000000 0.000000 -1.000000
vn 0.000000 0.000000 -1.000000
vn 0.000000 0.000000 -1.000000
vn 0.000000 0.000000 -1.000000
vn 1.000000 0.000000 0.000000
vn 1.000000 0.000000 0.000000
vn 1.000000 0.000000 0.000000
vn 1.000000 0.000000 0.000000
vn 0.000000 0.000000 1.000000
vn 0.000000 0.000000 1.000000
vn 0.000000 0.000000 1.000000
vn 0.000000 0.000000 1.000000
vn -0.966824 -0.255443 0.000000
vn -0.966824 -0.255443 0.000000
vn -0.966824 -0.255443 0.000000
vn -0.966824 -0.255443 0.000000
vn 0.000000 -0.329333 -0.944214
vn 0.000000 -0.329333 -0.944214
vn 0.000000 -0.329333 -0.944214
vn 0.000000 -0.329333 -0.944214
vn 0.966824 -0.255443 0.000000
vn 0.966824 -0.255443 0.000000
vn 0.966824 -0.255443 0.000000
vn 0.966824 -0.255443 0.000000
vn 0.000000 -0.329325 0.944217
vn 0.000000 -0.329325 0.944217
vn 0.000000 -0.329325 0.944217
vn 0.000000 -0.329325 0.944217
vn -1.000000 0.000000 0.000000
vn -1.000000 0.000000 0.000000
vn -1.000000 0.000000 0.000000
vn -1.000000 0.000000 0.000000
vn 0.000000 0.000000 1.000000
vn 0.000000 0.000000 1.000000
vn 0.000000 0.000000 1.000000
vn 0.000000 0.000000 1.000000
vn 1.000000 0.000000 0.000000
vn 1.000000 0.000000 0.000000
vn 1.000000 0.000000 0.000000
vn 1.000000 0.000000 0.000000
vn 0.000000 0.000000 -1.000000
vn 0.000000 0.000000 -1.000000
vn 0.000000 0.000000 -1.000000
vn 0.000000 0.000000 -1.000000
vn -0.915538 0.402231 0.000000
vn -0.915538 0.402231 0.000000
vn -0.915538 0.402231 0.000000
vn -0.915538 0.402231 0.000000
vn 0.000000 0.498736 0.866754
vn 0.000000 0.498736 0.866754
vn 0.000000 0.498736 0.866754
vn 0.000000 0.498736 0.866754
vn 0.915539 0.402229 0.000000
vn 0.915539 0.402229 0.000000
vn 0.915539 0.402229 0.000000
vn 0.915539 0.402229 0.000000
vn 0.000000 0.498736 -0.866754
vn 0.000000 0.498736 -0.866754
vn 0.000000 0.498736 -0.866754
vn 0.000000 0.498736 -0.866754
vn 0.000000 0.000000 -0.000000
vn 0.000000 0.000000 -0.000000
vn 0.000000 0.146167 -0.989260
vn 0.000000 0.146167 -0.989260
vn 0.000000 0.000000 1.000000
vn 0.000000 0.000000 1.000000
vn 0.000000 0.000000 1.000000
vn 0.000000 0.000000 1.000000
vn 0.000000 0.000000 -0.000000
vn 0.000000 0.000000 -0.000000
vn 0.000000 0.000000 -0.000000
vn 0.000000 0.000000 -0.000000
vn 0.000000 0.000000 1.000000
vn 0.000000 0.000000 1.000000
vn 0.000000 0.000000 1.000000
vn 0.000000 0.000000 1.000000
vn 0.000000 -1.000000 0.000000
vn 0.000000 -1.000000 0.000000
vn 0.000000 -1.000000 0.000000
vn 0.000000 -1.000000 0.000000
vn 1.000000 -0.000000 0.000000
vn 1.000000 0.000000 0.000000
vn 1.000000 0.000000 0.000000
vn 1.000000 -0.000000 0.000000
vn 0.000000 1.000000 0.000000
vn 0.000000 1.000000 0.000000
vn 0.000000 1.000000 0.000000
vn 0.000000 1.000000 0.000000
vn -1.000000 0.000000 0.000000
vn -1.000000 -0.000000 0.000000
vn -1.000000 -0.000000 0.000000
vn -1.000000 0.000000 0.000000
vn 0.000000 0.165711 -0.986174
vn 0.000000 0.165711 -0.986174
vn 0.000000 0.165711 -0.986174
vn 0.000000 0.165711 -0.986174
vn 1.000000 -0.000000 0.000000
vn 1.000000 -0.000000 0.000000
vn 1.000000 -0.000000 0.000000
vn 1.000000 -0.000000 0.000000
vn 1.000000 -0.000000 0.000000
vn 1.000000 -0.000000 0.000000
vn 0.000000 -0.144364 0.989525
vn -0.000000 -0.144364 0.989525
vn 0.000000 -0.147516 0.989060
vn 0.000000 -0.147516 0.989060
vn -1.000000 -0.000000 0.000000
vn -1.000000 -0.000000 0.000000
vn -1.000000 -0.000000 0.000000
vn -1.000000 -0.000000 0.000000
vn -1.000000 -0.000000 0.000000
vn -1.000000 -0.000000 0.000000
vn 0.000000 0.146167 -0.989260
vn 0.000000 0.146167 -0.989260
vn 0.000000 0.146167 -0.989260
vn 0.000000 0.146167 -0.989260
vn 0.000000 1.000000 0.000000
vn 0.000000 1.000000 0.000000
vn 0.000000 1.000000 0.000000
vn 0.000000 1.000000 0.000000
vn 1.000000 -0.000000 0.000000
vn 1.000000 -0.000000 0.000000
vn 1.000000 0.000000 0.000000
vn 1.000000 0.000000 0.000000
vn 0.000000 -1.000000 0.000000
vn 0.000000 -1.000000 0.000000
vn 0.000000 -1.000000 0.000000
vn 0.000000 -1.000000 0.000000
vn -1.000000 -0.000000 0.000000
vn -1.000000 -0.000000 0.000000
vn -1.000000 0.000000 0.000000
vn -1.000000 0.000000 0.000000
vn -0.000000 -0.144364 0.989525
vn 0.000000 -0.144364 0.989525
vn 0.000000 0.000000 1.000000
vn -0.000000 0.000000 1.000000
vn 0.000000 -0.144364 0.989525
vn 0.000000 0.000000 1.000000
vn 0.000000 0.000000 1.000000
vn 0.000000 0.000000 1.000000
vn 0.000000 0.000000 1.000000
vn -0.000000 0.000000 1.000000
vn -0.000000 0.000000 1.000000
vn 0.000000 0.000000 1.000000
vn -0.000000 0.000000 1.000000
vn -0.000000 -0.144364 0.989525
vn -0.000000 0.000000 1.000000
vn -0.000000 0.000000 1.000000
vn 0.000000 -1.000000 0.000000
vn 0.000000 -1.000000 0.000000
vn 0.000000 -1.000000 0.000000
vn 0.000000 -1.000000 0.000000
vn 1.000000 0.000000 0.000000
vn 1.000000 0.000000 0.000000
vn 1.000000 0.000000 0.000000
vn 1.000000 0.000000 0.000000
vn 0.000000 1.000000 0.000000
vn 0.000000 1.000000 0.000000
vn 0.000000 1.000000 0.000000
vn 0.000000 1.000000 0.000000
vn -1.000000 0.000000 0.000000
vn -1.000000 0.000000 0.000000
vn -1.000000 0.000000 0.000000
vn -1.000000 0.000000 0.000000
vn 0.914761 -0.403995 0.000000
vn 0.914761 -0.403996 0.000000
vn 0.914761 -0.403995 0.000000
vn 0.914761 -0.403995 0.000000
vn 0.000000 -1.000000 0.000000
vn 0.000000 -1.000000 0.000000
vn 0.000000 -1.000000 0.000000
vn 0.000000 -1.000000 0.000000
vn -0.914760 -0.403998 0.000000
vn -0.914760 -0.403997 0.000000
vn -0.914760 -0.403997 0.000000
vn -0.914760 -0.403997 0.000000
vn -1.000000 0.000000 0.000000
vn -1.000000 0.000000 0.000000
vn -1.000000 0.000000 0.000000
vn -1.000000 0.000000 0.000000
vn 1.000000 0.000000 0.000000
vn 1.000000 0.000000 0.000000
vn 1.000000 0.000000 0.000000
vn 1.000000 0.000000 0.000000
vn -0.915538 0.402231 0.000000
vn -0.915538 0.402231 0.000000
vn -0.915538 0.402231 0.000000
vn -0.915538 0.402231 0.000000
vn 0.000000 1.000000 0.000000
vn 0.000000 1.000000 0.000000
vn 0.000000 1.000000 0.000000
vn 0.000000 1.000000 0.000000
vn 0.915539 0.402229 0.000000
vn 0.915539 0.402229 0.000000
vn 0.915539 0.402229 0.000000
vn 0.915539 0.402229 0.000000
s off
f 12/1/1 1/2/2 2/3/3 11/4/4
f 87/5/5 88/6/6 89/7/7 90/8/8
f 47/9/9 48/10/10 49/11/11 50/12/12
f 16/13/13 14/14/14 13/15/15 15/16/16
f 14/17/17 12/18/18 11/19/19 13/20/20
f 16/21/21 15/22/22 38/23/23 7/24/24 8/25/25 37/26/26
f 10/27/27 8/28/28 7/29/29 9/30/30
f 21/31/31 22/32/32 23/33/33 24/34/34
f 26/35/35 25/36/36 27/37/37 28/38/38
f 20/39/39 18/40/40 22/41/41 21/42/42
f 18/40/43 4/43/44 23/44/45 22/41/46
f 4/43/47 1/45/48 24/46/49 23/44/50
f 21/42/51 24/46/52 1/45/53 12/47/54 20/39/55
f 3/48/56 17/49/57 25/50/58 26/51/59
f 17/49/60 19/52/61 27/53/62 25/50/63
f 27/53/64 19/52/65 11/54/66 2/55/67 28/56/68
f 2/55/69 3/48/70 26/51/71 28/56/72
f 11/57/73 19/58/74 30/59/75 29/60/76
f 19/61/77 15/62/78 31/63/79 30/64/80
f 15/65/81 13/66/82 32/67/83 31/68/84
f 13/69/85 11/70/86 29/71/87 32/72/88
f 12/73/89 14/74/90 33/75/91 34/76/92
f 14/77/93 16/78/94 35/79/95 33/80/96
f 16/81/97 20/82/98 36/83/99 35/84/100
f 20/85/101 12/86/102 34/87/103 36/88/104
f 8/89/105 10/90/106 5/91/107 18/92/108 20/93/109 16/94/110 37/95/111
f 17/96/112 6/97/113 9/98/114 7/99/115 38/100/116 15/101/117 19/102/118
f 55/103/119 56/104/120 57/105/121 58/106/122
f 30/107/123 31/108/124 32/109/125 29/110/126
f 34/111/127 33/112/128 35/113/129 36/114/130
f 18/115/131 17/116/132 3/117/133 4/118/134
f 1/119/135 4/120/136 40/121/137 39/122/138
f 4/123/139 3/124/140 41/125/141 40/126/142
f 3/127/143 2/128/144 42/129/145 41/130/146
f 2/131/147 1/132/148 39/133/149 42/134/150
f 39/135/151 40/136/152 44/137/153 43/138/154
f 40/139/155 41/140/156 45/141/157 44/142/158
f 41/143/159 42/144/160 46/145/161 45/146/162
f 42/147/163 39/148/164 43/149/165 46/150/166
f 43/151/167 44/152/168 48/153/169 47/154/170
f 44/155/171 45/156/172 49/157/173 48/158/174
f 45/159/175 46/160/176 50/161/177 49/162/178
f 46/163/179 43/164/180 47/165/181 50/166/182
f 5/167/183 10/168/184 52/169/185 51/170/186
f 83/171/187 84/172/188 85/173/189 86/174/190
f 9/175/191 6/176/192 54/177/193 53/178/194
f 87/179/195 90/180/196 91/181/197 92/182/198
f 51/183/199 52/184/200 56/185/201 55/186/202
f 52/187/203 53/188/204 57/189/205 56/190/206
f 53/191/207 54/192/208 58/193/209 57/194/210
f 92/195/211 91/196/212 93/197/213 94/198/214
f 10/199/215 9/200/216 60/201/217 59/202/218
f 9/203/219 53/204/220 61/205/221 60/206/222
f 53/207/223 52/208/224 62/209/225 61/210/226
f 52/211/227 10/212/228 59/213/229 62/214/230
f 67/215/231 68/216/232 69/217/233 70/218/234
f 60/219/235 61/220/236 65/221/237 64/222/238
f 61/223/239 62/224/240 66/225/241 65/226/242
f 62/227/243 59/228/244 63/229/245 66/230/246
f 71/231/247 72/232/248 68/233/249 67/234/250
f 60/235/251 64/236/252 69/237/253 68/238/254 72/239/255 74/240/256
f 64/241/257 63/242/258 70/243/259 69/244/260
f 63/245/261 59/246/262 73/247/263 71/248/264 67/249/265 70/250/266
f 59/251/267 60/252/268 74/253/269 73/254/270
f 73/255/271 74/256/272 76/257/273 75/258/274
f 74/259/275 72/260/276 77/261/277 76/262/278
f 72/263/279 71/264/280 78/265/281 77/266/282
f 71/267/283 73/268/284 75/269/285 78/270/286
f 63/271/287 64/272/288 80/273/289 79/274/290
f 64/275/291 65/276/292 81/277/293 80/278/294
f 65/279/295 66/280/296 82/281/297 81/282/298
f 66/283/299 63/284/300 79/285/301 82/286/302
f 79/287/303 80/288/304 84/289/305 83/290/306
f 80/291/307 81/292/308 85/293/309 84/294/310
f 81/295/311 82/296/312 86/297/313 85/298/314
f 82/299/315 79/300/316 83/301/317 86/302/318
f 6/303/319 17/304/320 88/305/321 87/306/322
f 17/307/323 18/308/324 89/309/325 88/310/326
f 18/311/327 5/312/328 90/313/329 89/314/330
f 5/315/331 51/316/332 91/317/333 90/318/334
f 54/319/335 6/320/336 87/321/337 92/322/338
f 51/323/339 55/324/340 93/325/341 91/326/342
f 55/327/343 58/328/344 94/329/345 93/330/346
f 58/331/347 54/332/348 92/333/349 94/334/350
