# This file uses meters as units for non-parametric coordinates.

v -0.035569 -0.053325 0.243963
v -0.035569 -0.053325 -0.317233
v 0.035569 -0.053325 0.243963
v 0.035569 -0.053325 -0.317233
v 0.035569 0.053324 0.243963
v 0.035569 0.053324 -0.317233
v -0.035569 0.053324 0.243963
v -0.035569 0.053324 -0.317233
v -0.035569 0.053324 -0.230108
v 0.035569 0.053324 -0.230108
v 0.035569 -0.053325 -0.230108
v -0.035569 -0.053325 -0.230108
v -0.035569 0.053324 0.182304
v 0.035569 0.053324 0.182304
v 0.035569 -0.053325 0.182304
v -0.035569 -0.053325 0.182304
v -0.019114 0.033395 0.647539
v -0.019114 -0.033397 0.647539
v 0.019114 -0.033397 0.647539
v 0.019114 0.033395 0.647539
v -0.037903 0.070649 0.699785
v -0.037903 -0.070649 0.699785
v 0.037903 -0.070649 0.699785
v 0.037903 0.070649 0.699785
v -0.037903 0.070649 0.807398
v -0.037903 -0.070649 0.807398
v 0.037903 -0.070649 0.807398
v 0.037903 0.070649 0.807398
v -0.037903 -0.223359 0.699785
v 0.037903 -0.223359 0.699785
v 0.037903 -0.223359 0.807398
v -0.037903 -0.223359 0.807398
v 0.037903 -0.154081 0.699785
v 0.037903 -0.154082 0.807398
v -0.037903 -0.154082 0.807398
v -0.037903 -0.154081 0.699785
v 0.019663 -0.111358 0.725678
v 0.019663 -0.111358 0.781506
v -0.019663 -0.111358 0.781506
v -0.019663 -0.111358 0.725678
v 0.037903 0.170606 0.758769
v -0.037903 0.170606 0.758769
v -0.037903 0.170606 0.789935
v 0.037903 0.170606 0.789935
v 0.037903 0.240750 0.745800
v -0.037903 0.240750 0.745800
v -0.037903 0.240750 0.760974
v 0.037903 0.240750 0.760974
v 0.000000 0.170606 0.758769
v 0.015161 0.240750 0.745800
v -0.007581 0.240750 0.745800
v 0.015161 0.240750 0.760974
v -0.007581 0.240750 0.760974
v 0.000000 0.170606 0.789935
vt 0.212158 0.047441
vt 0.208510 0.047441
vt 0.237469 0.047441
vt 0.180975 0.047441
vt 0.208510 0.047441
vt 0.237469 0.047441
vt 0.234612 0.047441
vt 0.208510 0.047441
vt 0.234612 0.047441
vt 0.234612 0.047441
vt 0.180975 0.047441
vt 0.180975 0.047441
vt 0.235034 0.047441
vt 0.212158 0.047441
vt 0.237469 0.047441
vt 0.208510 0.047441
vt 0.208510 0.047441
vt 0.237469 0.047441
vt 0.180975 0.047441
vt 0.208510 0.047441
vt 0.208510 0.047441
vt 0.234440 0.047441
vt 0.234612 0.047441
vt 0.208510 0.047441
vt 0.234612 0.047441
vt 0.208510 0.047441
vt 0.208510 0.047441
vt 0.237469 0.047441
vt 0.237469 0.047441
vt 0.208510 0.047441
vt 0.208510 0.047441
vt 0.234612 0.047441
vt 0.234612 0.047441
vt 0.208510 0.047441
vt 0.208510 0.047441
vt 0.237469 0.047441
vt 0.237469 0.047441
vt 0.208510 0.047441
vt 0.208510 0.047441
vt 0.234612 0.047441
vt 0.518783 0.013350
vt 0.532190 0.013350
vt 0.532190 0.042544
vt 0.518783 0.042544
vt 0.521798 0.013350
vt 0.511101 0.013350
vt 0.511101 0.042544
vt 0.521798 0.042544
vt 0.529277 0.013350
vt 0.519552 0.013350
vt 0.519552 0.042544
vt 0.529277 0.042544
vt 0.513161 0.013350
vt 0.522495 0.013350
vt 0.522495 0.042544
vt 0.513161 0.042544
vt 0.265587 0.062951
vt 0.289821 0.062951
vt 0.262791 0.062951
vt 0.301937 0.062951
vt 0.289821 0.062951
vt 0.242286 0.062951
vt 0.262791 0.062951
vt 0.290753 0.062951
vt 0.301005 0.062951
vt 0.301005 0.062951
vt 0.237626 0.062951
vt 0.262791 0.062951
vt 0.320578 0.062951
vt 0.262791 0.062951
vt 0.331763 0.062951
vt 0.262791 0.062951
vt 0.323375 0.062951
vt 0.215257 0.062951
vt 0.215257 0.062951
vt 0.331763 0.062951
vt 0.289821 0.062951
vt 0.242286 0.062951
vt 0.301005 0.062951
vt 0.242286 0.062951
vt 0.242286 0.062951
vt 0.262791 0.062951
vt 0.289821 0.062951
vt 0.262791 0.062951
vt 0.237626 0.062951
vt 0.215257 0.062951
vt 0.237626 0.062951
vt 0.265587 0.062951
vt 0.331763 0.062951
vt 0.215257 0.062951
vt 0.262791 0.062951
vt 0.323375 0.062951
vt 0.215257 0.062951
vt 0.215257 0.062951
vt 0.212158 0.047441
vt 0.235034 0.047441
vt 0.212158 0.047441
vt 0.235034 0.047441
vt 0.212158 0.047441
vt 0.234440 0.047441
vt 0.212158 0.047441
vt 0.234440 0.047441
vt 0.235034 0.047441
vt 0.212158 0.047441
vt 0.234440 0.047441
vt 0.212158 0.047441
vt 0.331763 0.062951
vt 0.262791 0.062951
vt 0.301937 0.062951
vt 0.265587 0.062951
vt 0.301937 0.062951
vt 0.331763 0.062951
vt 0.331763 0.062951
vt 0.262791 0.062951
vt 0.301005 0.062951
vt 0.331763 0.062951
vt 0.301937 0.062951
vt 0.301005 0.062951
vt 0.301005 0.062951
vt 0.301005 0.062951
vt 0.301005 0.062951
vt 0.331763 0.062951
vt 0.262791 0.062951
vt 0.331763 0.062951
vt 0.301005 0.062951
vt 0.298209 0.062951
vt 0.331763 0.062951
vt 0.331763 0.062951
vt 0.301005 0.062951
vt 0.331763 0.062951
vt 0.301005 0.062951
vt 0.242286 0.062951
vt 0.301005 0.062951
vt 0.242286 0.062951
vt 0.320578 0.062951
vt 0.320578 0.062951
vt 0.290753 0.062951
vt 0.320578 0.062951
vt 0.320578 0.062951
vt 0.290753 0.062951
vt 0.320578 0.062951
vt 0.290753 0.062951
vt 0.320578 0.062951
vt 0.289821 0.062951
vt 0.237626 0.062951
vt 0.262791 0.062951
vt 0.289821 0.062951
vt 0.289821 0.062951
vt 0.289821 0.062951
vt 0.320578 0.062951
vt 0.262791 0.062951
vt 0.320578 0.062951
vt 0.289821 0.062951
vt 0.298209 0.062951
vt 0.320578 0.062951
vt 0.320578 0.062951
vt 0.262791 0.062951
vt 0.289821 0.062951
vt 0.320578 0.062951
vt 0.289821 0.062951
vt 0.289821 0.062951
vt 0.237626 0.062951
vt 0.262791 0.062951
vt 0.215257 0.062951
vt 0.237626 0.062951
vt 0.215257 0.062951
vt 0.323375 0.062951
vt 0.262791 0.062951
vt 0.323375 0.062951
vt 0.237626 0.062951
vt 0.237626 0.062951
vt 0.262791 0.062951
vt 0.237626 0.062951
vt 0.323375 0.062951
vt 0.237626 0.062951
vt 0.262791 0.062951
vt 0.237626 0.062951
vt 0.262791 0.062951
vt 0.237626 0.062951
vt 0.262791 0.062951
vt 0.242286 0.062951
vt 0.262791 0.062951
vt 0.242286 0.062951
vt 0.242286 0.062951
vt 0.242286 0.062951
vt 0.262791 0.062951
vt 0.242286 0.062951
vt 0.262791 0.062951
vt 0.242286 0.062951
vt 0.262791 0.062951
vt 0.323375 0.062951
vt 0.262791 0.062951
vt 0.323375 0.062951
vt 0.323375 0.062951
vt 0.262791 0.062951
vt 0.298209 0.062951
vt 0.262791 0.062951
vt 0.298209 0.062951
vt 0.265587 0.062951
vt 0.262791 0.062951
vt 0.262791 0.062951
vt 0.262791 0.062951
vt 0.265587 0.062951
vt 0.262791 0.062951
vn 0.000000 -1.000000 0.000000
vn 0.000000 -1.000000 0.000000
vn 0.000000 -1.000000 0.000000
vn 0.000000 -1.000000 0.000000
vn 1.000000 0.000000 0.000000
vn 1.000000 0.000000 0.000000
vn 1.000000 0.000000 0.000000
vn 1.000000 0.000000 0.000000
vn 0.000000 1.000000 0.000000
vn 0.000000 1.000000 0.000000
vn 0.000000 1.000000 0.000000
vn 0.000000 1.000000 0.000000
vn -1.000000 0.000000 0.000000
vn -1.000000 0.000000 0.000000
vn -1.000000 0.000000 0.000000
vn -1.000000 0.000000 0.000000
vn 0.000000 0.000000 -1.000000
vn 0.000000 0.000000 -1.000000
vn 0.000000 0.000000 -1.000000
vn 0.000000 0.000000 -1.000000
vn 0.000000 0.072196 0.997391
vn 0.000001 0.000000 1.000000
vn 0.000001 0.000000 1.000000
vn 0.000000 0.072196 0.997391
vn 0.000000 1.000000 0.000000
vn 0.000000 1.000000 0.000000
vn 0.000000 1.000000 0.000000
vn 0.000000 1.000000 0.000000
vn 1.000000 -0.000000 0.000000
vn 1.000000 -0.000000 0.000000
vn 1.000000 0.000000 0.000000
vn 1.000000 0.000000 0.000000
vn 0.000000 -1.000000 0.000000
vn 0.000000 -1.000000 0.000000
vn 0.000000 -1.000000 0.000000
vn 0.000000 -1.000000 0.000000
vn -1.000000 -0.000000 0.000000
vn -1.000000 -0.000000 0.000000
vn -1.000000 0.000000 0.000000
vn -1.000000 0.000000 0.000000
vn 0.000000 0.999160 0.040979
vn 0.000000 1.000000 0.000000
vn 0.000000 1.000000 0.000000
vn 0.000000 0.999160 0.040979
vn 0.999417 -0.000000 0.034128
vn 1.000000 -0.000000 0.000000
vn 1.000000 -0.000000 0.000000
vn 0.999417 -0.000000 0.034128
vn 0.000000 -0.999160 0.040976
vn 0.000000 -1.000000 0.000000
vn 0.000000 -1.000000 0.000000
vn 0.000000 -0.999160 0.040976
vn -0.999418 -0.000000 0.034128
vn -1.000000 -0.000000 0.000000
vn -1.000000 -0.000000 0.000000
vn -0.999418 -0.000000 0.034128
vn -0.999418 -0.000000 0.034128
vn -0.999418 -0.000000 0.034128
vn -0.999170 0.000000 0.040738
vn -0.999170 0.000000 0.040738
vn 0.000000 -0.999160 0.040976
vn 0.000000 -0.999160 0.040976
vn 0.000000 -0.998783 0.049318
vn 0.000000 -0.998783 0.049318
vn 0.999417 -0.000000 0.034128
vn 0.999417 -0.000000 0.034128
vn 0.999170 -0.000000 0.040738
vn 0.999170 -0.000000 0.040738
vn 0.000000 0.999160 0.040979
vn 0.000000 0.999160 0.040979
vn 0.000000 0.998783 0.049322
vn 0.000000 0.998783 0.049322
vn -0.940999 0.000000 -0.338410
vn -0.940999 0.000000 -0.338410
vn -0.940999 0.000000 -0.338410
vn -0.940999 0.000000 -0.338410
vn 0.000000 -0.814224 -0.580550
vn 0.000000 -0.814224 -0.580550
vn 0.000000 -0.814224 -0.580550
vn 0.000000 -0.814224 -0.580550
vn 0.940999 0.000000 -0.338410
vn 0.940999 0.000000 -0.338410
vn 0.940999 0.000000 -0.338410
vn 0.940999 0.000000 -0.338410
vn 0.000000 0.814207 -0.580575
vn 0.000000 0.814207 -0.580575
vn 0.000000 0.814207 -0.580575
vn 0.000000 0.814207 -0.580575
vn -1.000000 0.000000 0.000000
vn -1.000000 0.000000 0.000000
vn -1.000000 0.000000 0.000000
vn -1.000000 0.000000 0.000000
vn 0.000000 -1.000000 -0.000002
vn 0.000000 -1.000000 -0.000002
vn 0.000000 -1.000000 -0.000002
vn 0.000000 -1.000000 -0.000002
vn 1.000000 0.000000 0.000000
vn 1.000000 0.000000 0.000000
vn 1.000000 0.000000 0.000000
vn 1.000000 0.000000 0.000000
vn -0.000001 1.000000 0.000020
vn -0.000001 1.000000 0.000020
vn -0.000001 1.000000 0.000020
vn -0.000001 1.000000 0.000020
vn 0.000000 0.000000 -1.000000
vn 0.000000 0.000000 -1.000000
vn 0.000000 0.000000 -1.000000
vn 0.000000 0.000000 -1.000000
vn 1.000000 0.000000 0.000000
vn 1.000000 0.000000 0.000000
vn 1.000000 0.000000 0.000000
vn 1.000000 0.000000 0.000000
vn 0.000000 0.000000 1.000000
vn 0.000000 0.000000 1.000000
vn 0.000000 0.000000 1.000000
vn 0.000000 0.000000 1.000000
vn -1.000000 0.000000 0.000000
vn -1.000000 0.000000 0.000000
vn -1.000000 0.000000 0.000000
vn -1.000000 0.000000 0.000000
vn 0.919689 0.392647 0.000000
vn 0.919689 0.392647 0.000000
vn 0.919689 0.392647 0.000000
vn 0.919689 0.392647 0.000000
vn 0.000000 0.518287 0.855207
vn 0.000000 0.518287 0.855207
vn 0.000000 0.518287 0.855207
vn 0.000000 0.518287 0.855207
vn -0.919690 0.392646 0.000000
vn -0.919690 0.392646 0.000000
vn -0.919690 0.392646 0.000000
vn -0.919690 0.392646 0.000000
vn 0.000000 0.518305 -0.855196
vn 0.000000 0.518305 -0.855196
vn 0.000000 0.518305 -0.855196
vn 0.000000 0.518305 -0.855196
vn 0.912580 -0.408897 0.000000
vn 0.912580 -0.408897 0.000000
vn 0.912580 -0.408897 0.000000
vn 0.912580 -0.408897 0.000000
vn 0.000000 -0.536682 0.843784
vn 0.000000 -0.536682 0.843784
vn 0.000000 -0.536682 0.843784
vn 0.000000 -0.536682 0.843784
vn -0.912581 -0.408897 0.000000
vn -0.912580 -0.408897 0.000000
vn -0.912581 -0.408897 0.000000
vn -0.912580 -0.408897 0.000000
vn 0.000000 -0.536694 -0.843777
vn 0.000000 -0.536694 -0.843777
vn 0.000000 -0.536694 -0.843777
vn 0.000000 -0.536694 -0.843777
vn 0.000000 0.508209 -0.861234
vn 0.000000 0.508209 -0.861234
vn 0.000000 0.508209 -0.861234
vn 0.000000 0.508209 -0.861234
vn 0.000000 0.508209 -0.861234
vn -1.000000 0.000000 0.000000
vn -1.000000 0.000000 0.000000
vn -1.000000 0.000000 0.000000
vn -1.000000 0.000000 0.000000
vn 0.000000 0.072196 0.997391
vn 0.000000 0.072196 0.997391
vn 0.000000 0.172100 0.985080
vn 0.000000 0.172100 0.985080
vn 0.000000 0.172100 0.985080
vn 1.000000 0.000000 0.000000
vn 1.000000 0.000000 0.000000
vn 1.000000 0.000000 -0.000000
vn 1.000000 0.000000 -0.000000
vn 0.000000 -0.181809 -0.983334
vn 0.000000 -0.181809 -0.983334
vn 0.000000 -0.181809 -0.983334
vn 0.000000 -0.181809 -0.983334
vn -1.000000 0.000000 0.000000
vn -1.000000 0.000000 0.000000
vn -1.000000 0.000000 0.000000
vn -1.000000 0.000000 0.000000
vn 0.000000 0.381627 0.924316
vn 0.000000 0.381627 0.924316
vn 0.000000 0.381627 0.924316
vn 0.000000 0.381627 0.924316
vn 1.000000 0.000000 -0.000000
vn 1.000000 0.000000 -0.000000
vn 1.000000 0.000000 -0.000001
vn 1.000000 0.000000 -0.000001
vn -0.000000 -0.181809 -0.983334
vn -0.000000 -0.181809 -0.983334
vn -0.000000 -0.181809 -0.983334
vn -0.000000 -0.181809 -0.983334
vn 0.000000 1.000000 0.000019
vn 0.000000 1.000000 0.000019
vn 0.000000 1.000000 0.000019
vn 0.000000 1.000000 0.000019
vn 0.000000 0.381627 0.924316
vn 0.000000 0.381627 0.924316
vn 0.000000 0.381627 0.924316
vn 0.000000 0.381627 0.924316
vn 0.994211 0.107447 0.000000
vn 0.994211 0.107447 0.000000
vn 0.994211 0.107447 0.000000
vn 0.994211 0.107447 0.000000
vn -0.977429 0.211265 0.000000
vn -0.977429 0.211265 0.000000
vn -0.977429 0.211265 0.000000
vn -0.977429 0.211265 0.000000
s off
f 11/30/1 12/31/2 2/2/3 4/21/4
f 10/28/5 11/29/6 4/15/7 6/6/8
f 9/26/9 10/27/10 6/16/11 8/8/12
f 12/32/13 9/25/14 8/23/15 2/10/16
f 2/19/17 8/11/18 6/12/19 4/4/20
f 25/204/21 26/157/22 27/59/23 28/114/24
f 13/45/25 14/46/26 10/47/27 9/48/28
f 14/53/29 15/54/30 11/55/31 10/56/32
f 15/41/33 16/42/34 12/43/35 11/44/36
f 16/49/37 13/50/38 9/51/39 12/52/40
f 5/5/41 14/35/42 13/34/43 7/24/44
f 3/3/45 15/37/46 14/36/47 5/18/48
f 1/20/49 16/39/50 15/38/51 3/17/52
f 7/7/53 13/33/54 16/40/55 1/9/56
f 7/13/57 1/96/58 18/98/59 17/103/60
f 1/1/61 3/97/62 19/106/63 18/99/64
f 3/22/65 5/100/66 20/102/67 19/105/68
f 5/14/69 7/95/70 17/104/71 20/101/72
f 17/61/73 18/161/74 22/158/75 21/144/76
f 18/62/77 19/134/78 23/132/79 22/189/80
f 19/65/81 20/133/82 24/115/83 23/131/84
f 20/67/85 17/162/86 21/145/87 24/179/88
f 21/143/89 22/159/90 26/156/91 25/141/92
f 29/154/93 30/198/94 31/126/95 32/196/96
f 23/130/97 24/116/98 28/113/99 27/128/100
f 45/73/101 50/174/102 52/169/103 48/194/104
f 36/151/105 33/188/106 30/70/107 29/195/108
f 33/124/109 34/122/110 31/71/111 30/127/112
f 34/123/113 35/186/114 32/72/115 31/197/116
f 35/152/117 36/150/118 29/69/119 32/155/120
f 37/118/121 38/121/122 34/79/123 33/125/124
f 38/183/125 39/184/126 35/80/127 34/187/128
f 39/147/129 40/149/130 36/77/131 35/153/132
f 40/181/133 37/81/134 33/78/135 36/185/136
f 23/66/137 27/129/138 38/120/139 37/119/140
f 27/59/141 26/157/142 39/146/143 38/82/144
f 26/58/145 22/160/146 40/148/147 39/83/148
f 22/63/149 23/190/150 37/182/151 40/84/152
f 24/68/153 21/180/154 42/176/155 49/172/156 41/178/157
f 21/64/158 25/142/159 43/137/160 42/140/161
f 25/57/162 28/203/163 44/110/164 54/199/165 43/88/166
f 28/60/167 24/117/168 41/111/169 44/109/170
f 41/87/171 49/173/172 50/170/173 45/177/174
f 42/139/175 43/138/176 47/136/177 46/135/178
f 52/192/179 54/163/180 44/202/181 48/108/182
f 44/89/183 41/112/184 45/107/185 48/76/186
f 51/171/187 49/165/188 42/85/189 46/175/190
f 53/191/191 51/167/192 46/92/193 47/193/194
f 43/201/195 54/200/196 53/168/197 47/91/198
f 49/86/199 51/93/200 53/94/201 54/164/202
f 50/74/203 49/166/204 54/90/205 52/75/206
