# This file uses meters as units for non-parametric coordinates.

v -0.106161 -0.025654 -0.721472
v -0.106161 -0.025654 0.228797
v -0.106161 0.186668 -0.721472
v -0.106161 0.186668 0.228797
v 0.106161 0.186668 -0.721472
v 0.106161 0.186668 0.228797
v 0.106161 -0.025654 -0.721472
v 0.106161 -0.025654 0.228797
v 0.106161 -0.025654 -1.137849
v -0.106161 -0.025654 -1.137849
v -0.106161 0.186668 -1.137849
v 0.106161 0.186668 -1.137849
v 0.106161 -0.025654 -1.489657
v -0.106161 -0.025654 -1.489657
v -0.106161 0.186668 -1.489657
v 0.106161 0.186668 -1.489657
v 0.210582 -0.130076 -1.617038
v -0.210582 -0.130076 -1.617038
v -0.210582 0.291090 -1.617038
v 0.210582 0.291090 -1.617038
v 0.210582 -0.130076 -1.746942
v -0.210582 -0.130076 -1.746942
v -0.210582 0.291090 -1.746942
v 0.210582 0.291090 -1.746942
v 0.165641 -0.085135 -1.746942
v -0.165641 -0.085135 -1.746942
v -0.165641 0.246149 -1.746942
v 0.165641 0.246149 -1.746942
v 0.126988 -0.046702 -0.721472
v -0.126987 -0.046702 -0.721472
v -0.126987 -0.046702 -1.137849
v 0.126988 -0.046702 -1.137849
v -0.126987 0.207716 -0.721472
v -0.126987 0.207716 -1.137849
v 0.126988 0.207716 -0.721472
v 0.126988 0.207716 -1.137849
v 0.106161 -0.025654 0.557021
v -0.106161 -0.025654 0.557021
v 0.106161 0.186668 0.557021
v -0.106161 0.186668 0.557021
v 0.106161 -0.025654 0.632936
v -0.106161 -0.025654 0.632936
v 0.106161 0.186668 0.632936
v -0.106161 0.186668 0.632936
v 0.106161 -0.025654 1.105196
v -0.106161 -0.025654 1.105196
v 0.106161 0.186668 1.105196
v -0.106161 0.186668 1.105196
v 0.202877 -0.122369 1.164479
v -0.202876 -0.122369 1.164479
v 0.202877 0.283383 1.164479
v -0.202876 0.283383 1.164479
v 0.202877 -0.122369 1.284427
v -0.202876 -0.122369 1.284427
v 0.202877 0.283383 1.284427
v -0.202876 0.283383 1.284427
v 0.154588 -0.074081 1.284427
v -0.154588 -0.074081 1.284427
v 0.154588 0.235095 1.284427
v -0.154588 0.235095 1.284427
v 0.128796 -0.046601 0.228797
v -0.128795 -0.046601 0.228797
v 0.128796 -0.046601 0.557021
v -0.128795 -0.046601 0.557021
v 0.128796 0.207615 0.228797
v 0.128796 0.207615 0.557021
v -0.128795 0.207615 0.228797
v -0.128795 0.207615 0.557021
v -0.045968 0.186668 0.700466
v 0.045969 0.186668 0.700466
v -0.045968 0.186668 1.037666
v 0.045969 0.186668 1.037666
v -0.045968 0.223079 0.700466
v 0.045969 0.223079 0.700466
v -0.045968 0.223079 1.037666
v 0.045969 0.223079 1.037666
v -0.020977 0.223079 0.965142
v 0.020977 0.223079 0.965142
v -0.020977 0.223079 1.004695
v 0.020977 0.223079 1.004695
v -0.020977 0.283383 0.965142
v 0.020977 0.283383 0.965142
v -0.020977 0.283383 1.004695
v 0.020977 0.283383 1.004695
vt 0.081804 0.287790
vt 0.118993 0.283117
vt 0.081804 0.287790
vt 0.143852 0.287790
vt 0.143852 0.287790
vt 0.234044 0.287790
vt 0.115067 0.287790
vt 0.143852 0.287790
vt 0.115067 0.287790
vt 0.115067 0.287790
vt 0.118993 0.283117
vt 0.118993 0.283117
vt 0.081804 0.287790
vt 0.081804 0.287790
vt 0.081804 0.287790
vt 0.081804 0.287790
vt 0.081804 0.287790
vt 0.081804 0.287790
vt 0.141933 0.287790
vt 0.170718 0.287790
vt 0.203980 0.287790
vt 0.170718 0.287790
vt 0.115067 0.287790
vt 0.143852 0.287790
vt 0.234044 0.287790
vt 0.143852 0.287790
vt 0.171997 0.287790
vt 0.171997 0.287790
vt 0.171997 0.287790
vt 0.171997 0.287790
vt 0.171997 0.287790
vt 0.171997 0.287790
vt 0.171997 0.287790
vt 0.171997 0.287790
vt 0.110845 0.474539
vt 0.110845 0.474539
vt 0.110845 0.474539
vt 0.110845 0.474539
vt 0.169033 0.287790
vt 0.081804 0.287790
vt 0.169033 0.287790
vt 0.081804 0.287790
vt 0.081804 0.287790
vt 0.259226 0.287790
vt 0.081804 0.287790
vt 0.169033 0.287790
vt 0.173263 0.215696
vt 0.202048 0.215696
vt 0.292241 0.215696
vt 0.202048 0.215696
vt 0.115067 0.287790
vt 0.143852 0.287790
vt 0.234044 0.287790
vt 0.143852 0.287790
vt 0.141933 0.060541
vt 0.170717 0.060541
vt 0.203980 0.060541
vt 0.170718 0.060541
vt 0.115067 0.060541
vt 0.143852 0.060541
vt 0.234044 0.060541
vt 0.143852 0.060541
vt 0.171997 0.060541
vt 0.171997 0.060541
vt 0.171997 0.060541
vt 0.171997 0.060541
vt 0.171997 0.060541
vt 0.171997 0.060541
vt 0.171997 0.060541
vt 0.171997 0.060541
vt 0.111713 0.478882
vt 0.111713 0.478882
vt 0.111713 0.478882
vt 0.111713 0.478882
vt 0.173263 0.215696
vt 0.202048 0.215696
vt 0.202048 0.215696
vt 0.292241 0.215696
vt 0.292241 0.215696
vt 0.202048 0.215696
vt 0.118993 0.283117
vt 0.292241 0.215696
vt 0.202048 0.215696
vt 0.173263 0.215696
vt 0.118993 0.283117
vt 0.202048 0.215696
vt 0.118993 0.283117
vt 0.202048 0.215696
vt 0.118993 0.283117
vt 0.173263 0.215696
vt 0.234044 0.060541
vt 0.234044 0.060541
vt 0.234044 0.060541
vt 0.203980 0.060541
vt 0.234044 0.287790
vt 0.234044 0.287790
vt 0.234044 0.287790
vt 0.143852 0.287790
vt 0.118993 0.283117
vt 0.118993 0.283117
vt 0.234044 0.287790
vt 0.118993 0.283117
vt 0.143852 0.287790
vt 0.118993 0.283117
vt 0.169033 0.287790
vt 0.259226 0.287790
vt 0.259226 0.287790
vt 0.259226 0.287790
vt 0.234044 0.287790
vt 0.234044 0.287790
vt 0.234044 0.287790
vt 0.203980 0.287790
vt 0.234044 0.287790
vt 0.234044 0.287790
vt 0.234044 0.287790
vt 0.234044 0.287790
vt 0.234044 0.287790
vt 0.234044 0.287790
vt 0.203980 0.060541
vt 0.170717 0.060541
vt 0.203980 0.060541
vt 0.143852 0.287790
vt 0.203980 0.287790
vt 0.170718 0.287790
vt 0.203980 0.287790
vt 0.143852 0.287790
vt 0.171997 0.060541
vt 0.171997 0.060541
vt 0.171997 0.060541
vt 0.143852 0.060541
vt 0.171997 0.060541
vt 0.171997 0.060541
vt 0.143852 0.060541
vt 0.171997 0.060541
vt 0.115067 0.060541
vt 0.171997 0.060541
vt 0.143852 0.060541
vt 0.171997 0.060541
vt 0.171997 0.287790
vt 0.171997 0.287790
vt 0.171997 0.287790
vt 0.143852 0.287790
vt 0.171997 0.287790
vt 0.171997 0.287790
vt 0.143852 0.287790
vt 0.171997 0.287790
vt 0.143852 0.287790
vt 0.171997 0.287790
vt 0.115067 0.287790
vt 0.171997 0.287790
vt 0.141933 0.060541
vt 0.170718 0.060541
vt 0.170718 0.060541
vt 0.143852 0.060541
vt 0.143852 0.287790
vt 0.170717 0.060541
vt 0.141933 0.060541
vt 0.170717 0.060541
vt 0.115067 0.287790
vt 0.170718 0.060541
vt 0.143852 0.287790
vt 0.141933 0.060541
vt 0.170718 0.287790
vt 0.141933 0.287790
vt 0.170718 0.287790
vt 0.143852 0.287790
vt 0.143852 0.287790
vt 0.170718 0.287790
vt 0.141933 0.287790
vt 0.170718 0.287790
vt 0.143852 0.287790
vt 0.141933 0.287790
vt 0.115067 0.287790
vt 0.170718 0.287790
vt 0.115067 0.060541
vt 0.143852 0.060541
vt 0.143852 0.060541
vt 0.115067 0.060541
vt 0.143852 0.287790
vt 0.115067 0.287790
vt 0.143852 0.287790
vt 0.115067 0.287790
vt 0.118993 0.283117
vt 0.118993 0.283117
vt 0.143852 0.287790
vt 0.115067 0.287790
vt 0.118993 0.283117
vt 0.140248 0.287790
vt 0.140248 0.287790
vt 0.140248 0.287790
vt 0.140248 0.287790
vt 0.143852 0.287790
vt 0.115067 0.287790
vt 0.115067 0.287790
vt 0.143852 0.287790
vt 0.115067 0.287790
vt 0.143852 0.287790
vt 0.115067 0.287790
vt 0.115067 0.287790
vt 0.143852 0.287790
vt 0.081804 0.287790
vt 0.081804 0.287790
vt 0.081804 0.287790
vt 0.169033 0.287790
vt 0.081804 0.287790
vt 0.169033 0.287790
vt 0.081804 0.287790
vt 0.081804 0.287790
vt 0.081804 0.287790
vt 0.081804 0.287790
vt 0.143852 0.287790
vt 0.081804 0.287790
vt 0.081804 0.287790
vt 0.169033 0.287790
vt 0.081804 0.287790
vt 0.081804 0.287790
vt 0.081804 0.287790
vt 0.143852 0.287790
vt 0.081804 0.287790
vt 0.081804 0.287790
vt 0.169033 0.287790
vt 0.143852 0.287790
vt 0.081804 0.287790
vt 0.143852 0.287790
vt 0.081804 0.287790
vt 0.143852 0.287790
vt 0.081804 0.287790
vt 0.143852 0.287790
vt 0.081804 0.287790
vt 0.081804 0.287790
vt 0.140248 0.287790
vt 0.140248 0.287790
vt 0.140248 0.287790
vt 0.140248 0.287790
vt 0.169033 0.287790
vt 0.169033 0.287790
vt 0.169033 0.287790
vt 0.169033 0.287790
vt 0.259226 0.287790
vt 0.259226 0.287790
vt 0.259226 0.287790
vt 0.259226 0.287790
vt 0.169033 0.287790
vt 0.169033 0.287790
vt 0.169033 0.287790
vt 0.169033 0.287790
vt 0.118993 0.283117
vt 0.118993 0.283117
vt 0.176439 0.065599
vt 0.197470 0.065599
vt 0.176439 0.065599
vt 0.197470 0.065599
vt 0.233130 0.065599
vt 0.233130 0.065599
vt 0.233130 0.065599
vt 0.233130 0.065599
vt 0.176439 0.065599
vt 0.197470 0.065599
vt 0.176439 0.065599
vt 0.197470 0.065599
vt 0.233130 0.065599
vt 0.197470 0.065599
vt 0.176439 0.065599
vt 0.197470 0.065599
vt 0.176439 0.065599
vt 0.197470 0.065599
vt 0.176439 0.065599
vt 0.233130 0.065599
vt 0.197470 0.065599
vt 0.233130 0.065599
vt 0.233130 0.065599
vt 0.233130 0.065599
vt 0.176439 0.065599
vt 0.176439 0.065599
vt 0.233130 0.065599
vt 0.233130 0.065599
vt 0.233130 0.065599
vt 0.197470 0.065599
vt 0.233130 0.065599
vt 0.233130 0.065599
vt 0.197470 0.065599
vt 0.233130 0.065599
vt 0.233130 0.065599
vt 0.176439 0.065599
vt 0.197470 0.065599
vt 0.176439 0.065599
vt 0.233130 0.065599
vt 0.176439 0.065599
vt 0.197470 0.065599
vt 0.233130 0.065599
vt 0.176439 0.065599
vt 0.197470 0.065599
vt 0.233130 0.065599
vt 0.197470 0.065599
vt 0.176439 0.065599
vt 0.233130 0.065599
vt 0.234044 0.287790
vt 0.176439 0.065599
vt 0.234044 0.287790
vt 0.197470 0.065599
vt 0.234044 0.287790
vt 0.197470 0.065599
vt 0.234044 0.287790
vt 0.176439 0.065599
vn -1.000000 0.000000 0.000000
vn -1.000000 0.000000 0.000000
vn -1.000000 0.000000 0.000000
vn -1.000000 0.000000 0.000000
vn 0.000000 1.000000 0.000000
vn 0.000000 1.000000 0.000000
vn 0.000000 1.000000 0.000000
vn 0.000000 1.000000 0.000000
vn 1.000000 0.000000 0.000000
vn 1.000000 0.000000 0.000000
vn 1.000000 0.000000 0.000000
vn 1.000000 0.000000 0.000000
vn 0.000000 -1.000000 0.000000
vn 0.000000 -1.000000 0.000000
vn 0.000000 -1.000000 0.000000
vn 0.000000 -1.000000 0.000000
vn -0.000000 0.000000 1.000000
vn -0.000000 0.000000 1.000000
vn -0.000000 0.000000 1.000000
vn -0.000000 0.000000 1.000000
vn 0.000000 0.000000 -1.000000
vn -0.000000 0.000000 -1.000000
vn -0.000000 0.000000 -1.000000
vn 0.000000 0.000000 -1.000000
vn 0.000000 -1.000000 -0.000000
vn 0.000000 -1.000000 -0.000000
vn 0.000000 -1.000000 -0.000000
vn 0.000000 -1.000000 -0.000000
vn -1.000000 0.000000 0.000000
vn -1.000000 0.000000 0.000000
vn -1.000000 0.000000 0.000000
vn -1.000000 0.000000 0.000000
vn 0.000000 1.000000 0.000000
vn 0.000000 1.000000 0.000000
vn 0.000000 1.000000 0.000000
vn 0.000000 1.000000 0.000000
vn 1.000000 0.000000 -0.000000
vn 1.000000 0.000000 -0.000000
vn 1.000000 0.000000 -0.000000
vn 1.000000 0.000000 -0.000000
vn 0.000000 -1.000000 0.000000
vn 0.000000 -1.000000 0.000000
vn 0.000000 -1.000000 0.000000
vn 0.000000 -1.000000 0.000000
vn -1.000000 0.000000 0.000000
vn -1.000000 0.000000 0.000000
vn -1.000000 0.000000 0.000000
vn -1.000000 0.000000 0.000000
vn 0.000000 1.000000 0.000000
vn 0.000000 1.000000 0.000000
vn 0.000000 1.000000 0.000000
vn 0.000000 1.000000 0.000000
vn 1.000000 0.000000 0.000000
vn 1.000000 0.000000 0.000000
vn 1.000000 0.000000 0.000000
vn 1.000000 0.000000 0.000000
vn 0.000000 -0.773359 0.633968
vn 0.000000 -0.773359 0.633968
vn 0.000000 -0.773359 0.633968
vn 0.000000 -0.773359 0.633968
vn -0.773360 0.000000 0.633967
vn -0.773360 0.000000 0.633967
vn -0.773360 0.000000 0.633967
vn -0.773360 0.000000 0.633967
vn 0.000000 0.773359 0.633968
vn 0.000000 0.773359 0.633968
vn 0.000000 0.773359 0.633968
vn 0.000000 0.773359 0.633968
vn 0.773360 0.000000 0.633968
vn 0.773360 0.000000 0.633968
vn 0.773360 0.000000 0.633968
vn 0.773360 0.000000 0.633968
vn 0.000000 -1.000000 0.000000
vn 0.000000 -1.000000 0.000000
vn 0.000000 -1.000000 0.000000
vn 0.000000 -1.000000 0.000000
vn -1.000000 0.000000 0.000000
vn -1.000000 0.000000 0.000000
vn -1.000000 0.000000 0.000000
vn -1.000000 0.000000 0.000000
vn 0.000000 1.000000 0.000000
vn 0.000000 1.000000 0.000000
vn 0.000000 1.000000 0.000000
vn 0.000000 1.000000 0.000000
vn 1.000000 0.000000 0.000000
vn 1.000000 0.000000 0.000000
vn 1.000000 0.000000 0.000000
vn 1.000000 0.000000 0.000000
vn 0.000000 0.000000 -1.000000
vn -0.000000 0.000000 -1.000000
vn -0.000000 0.000000 -1.000000
vn 0.000000 0.000000 -1.000000
vn -0.000000 0.000000 -1.000000
vn -0.000000 0.000000 -1.000000
vn -0.000000 0.000000 -1.000000
vn -0.000000 0.000000 -1.000000
vn -0.000000 0.000000 -1.000000
vn 0.000000 0.000000 -1.000000
vn 0.000000 0.000000 -1.000000
vn -0.000000 0.000000 -1.000000
vn 0.000000 0.000000 -1.000000
vn 0.000000 0.000000 -1.000000
vn 0.000000 0.000000 -1.000000
vn 0.000000 0.000000 -1.000000
vn -0.000000 0.000000 1.000000
vn 0.000001 0.000000 1.000000
vn 0.000001 0.000000 1.000000
vn -0.000000 0.000000 1.000000
vn -0.000001 0.000000 -1.000000
vn -0.000001 0.000000 -1.000000
vn -0.000001 0.000000 -1.000000
vn -0.000001 0.000000 -1.000000
vn 0.000001 0.000000 1.000000
vn 0.000001 0.000000 1.000000
vn 0.000001 0.000000 1.000000
vn 0.000001 0.000000 1.000000
vn -0.000001 0.000000 -1.000000
vn -0.000001 0.000000 -1.000000
vn -0.000001 0.000000 -1.000000
vn -0.000001 0.000000 -1.000000
vn 0.000001 0.000000 1.000000
vn -0.000000 0.000000 1.000000
vn -0.000000 0.000000 1.000000
vn 0.000001 0.000000 1.000000
vn -0.000001 0.000000 -1.000000
vn -0.000001 0.000000 -1.000000
vn -0.000001 0.000000 -1.000000
vn -0.000001 0.000000 -1.000000
vn -0.000000 0.000000 1.000000
vn -0.000000 0.000000 1.000000
vn -0.000000 0.000000 1.000000
vn -0.000000 0.000000 1.000000
vn -0.000001 0.000000 -1.000000
vn -0.000001 0.000000 -1.000000
vn -0.000001 0.000000 -1.000000
vn -0.000001 0.000000 -1.000000
vn 0.000000 -1.000000 0.000000
vn 0.000000 -1.000000 0.000000
vn 0.000000 -1.000000 0.000000
vn 0.000000 -1.000000 0.000000
vn 1.000000 0.000000 0.000000
vn 1.000000 0.000000 0.000000
vn 1.000000 0.000000 0.000000
vn 1.000000 0.000000 0.000000
vn 0.000000 1.000000 0.000000
vn 0.000000 1.000000 0.000000
vn 0.000000 1.000000 0.000000
vn 0.000000 1.000000 0.000000
vn -1.000000 0.000000 -0.000000
vn -1.000000 0.000000 -0.000000
vn -1.000000 0.000000 -0.000000
vn -1.000000 0.000000 -0.000000
vn 0.000000 -1.000000 0.000000
vn 0.000000 -1.000000 0.000000
vn 0.000000 -1.000000 0.000000
vn 0.000000 -1.000000 0.000000
vn 1.000000 0.000000 0.000000
vn 1.000000 0.000000 0.000000
vn 1.000000 0.000000 0.000000
vn 1.000000 0.000000 0.000000
vn 0.000000 1.000000 0.000000
vn 0.000000 1.000000 0.000000
vn 0.000000 1.000000 0.000000
vn 0.000000 1.000000 0.000000
vn -1.000000 0.000000 0.000000
vn -1.000000 0.000000 0.000000
vn -1.000000 0.000000 0.000000
vn -1.000000 0.000000 0.000000
vn 0.000000 -1.000000 0.000000
vn 0.000000 -1.000000 0.000000
vn 0.000000 -1.000000 0.000000
vn 0.000000 -1.000000 0.000000
vn 1.000000 0.000000 0.000000
vn 1.000000 0.000000 0.000000
vn 1.000000 0.000000 0.000000
vn 1.000000 0.000000 0.000000
vn 0.000000 1.000000 0.000000
vn 0.000000 1.000000 0.000000
vn 0.000000 1.000000 0.000000
vn 0.000000 1.000000 0.000000
vn -1.000000 0.000000 0.000000
vn -1.000000 0.000000 0.000000
vn -1.000000 0.000000 0.000000
vn -1.000000 0.000000 0.000000
vn 0.000000 -0.522599 -0.852579
vn 0.000000 -0.522599 -0.852579
vn 0.000000 -0.522599 -0.852579
vn 0.000000 -0.522599 -0.852579
vn 0.522595 0.000000 -0.852581
vn 0.522595 0.000000 -0.852581
vn 0.522595 0.000000 -0.852581
vn 0.522595 0.000000 -0.852581
vn 0.000000 0.522598 -0.852579
vn 0.000000 0.522598 -0.852579
vn 0.000000 0.522598 -0.852579
vn 0.000000 0.522598 -0.852579
vn -0.522599 0.000000 -0.852579
vn -0.522599 0.000000 -0.852579
vn -0.522599 0.000000 -0.852579
vn -0.522599 0.000000 -0.852579
vn 0.000000 -1.000000 0.000000
vn 0.000000 -1.000000 0.000000
vn 0.000000 -1.000000 0.000000
vn 0.000000 -1.000000 0.000000
vn 1.000000 0.000000 0.000000
vn 1.000000 0.000000 0.000000
vn 1.000000 0.000000 0.000000
vn 1.000000 0.000000 0.000000
vn 0.000000 1.000000 0.000000
vn 0.000000 1.000000 0.000000
vn 0.000000 1.000000 0.000000
vn 0.000000 1.000000 0.000000
vn -1.000000 0.000000 0.000000
vn -1.000000 0.000000 0.000000
vn -1.000000 0.000000 0.000000
vn -1.000000 0.000000 0.000000
vn -0.000000 0.000000 1.000000
vn -0.000000 0.000000 1.000000
vn -0.000000 0.000000 1.000000
vn -0.000000 0.000000 1.000000
vn -0.000000 0.000000 1.000000
vn -0.000000 0.000000 1.000000
vn -0.000000 0.000000 1.000000
vn -0.000000 0.000000 1.000000
vn -0.000000 0.000000 1.000000
vn -0.000000 0.000000 1.000000
vn -0.000000 0.000000 1.000000
vn -0.000000 0.000000 1.000000
vn -0.000000 0.000000 1.000000
vn -0.000000 0.000000 1.000000
vn -0.000000 0.000000 1.000000
vn -0.000000 0.000000 1.000000
vn -0.000006 -0.000006 -1.000000
vn 0.000006 -0.000006 -1.000000
vn 0.000006 -0.000006 -1.000000
vn -0.000006 -0.000006 -1.000000
vn -0.000006 0.000006 1.000000
vn 0.000005 0.000006 1.000000
vn 0.000005 0.000006 1.000000
vn -0.000006 0.000006 1.000000
vn 0.000006 -0.000006 -1.000000
vn 0.000006 0.000006 -1.000000
vn 0.000006 0.000006 -1.000000
vn 0.000006 -0.000006 -1.000000
vn -0.000006 -0.000006 1.000000
vn -0.000006 0.000006 1.000000
vn -0.000006 0.000006 1.000000
vn -0.000006 -0.000006 1.000000
vn 0.000006 0.000006 -1.000000
vn -0.000006 0.000006 -1.000000
vn -0.000006 0.000006 -1.000000
vn 0.000006 0.000006 -1.000000
vn 0.000005 -0.000006 1.000000
vn -0.000006 -0.000006 1.000000
vn -0.000006 -0.000006 1.000000
vn 0.000005 -0.000006 1.000000
vn -0.000006 0.000006 -1.000000
vn -0.000006 -0.000006 -1.000000
vn -0.000006 -0.000006 -1.000000
vn -0.000006 0.000006 -1.000000
vn 0.000005 0.000006 1.000000
vn 0.000005 -0.000006 1.000000
vn 0.000005 -0.000006 1.000000
vn 0.000005 0.000006 1.000000
vn 0.000000 1.000000 0.000000
vn 0.000000 1.000000 0.000000
vn 0.000000 1.000000 0.000000
vn 0.000000 1.000000 0.000000
vn 0.000000 1.000000 0.000000
vn 0.000000 1.000000 -0.000000
vn 0.000000 1.000000 -0.000000
vn 0.000000 1.000000 0.000000
vn 0.000000 1.000000 -0.000000
vn 0.000000 1.000000 -0.000000
vn 0.000000 1.000000 -0.000000
vn 0.000000 1.000000 -0.000000
vn 0.000000 1.000000 -0.000000
vn 0.000000 1.000000 0.000000
vn 0.000000 1.000000 0.000000
vn 0.000000 1.000000 -0.000000
vn 0.000000 0.000000 -1.000000
vn 0.000000 0.000000 -1.000000
vn 0.000000 0.000000 -1.000000
vn 0.000000 0.000000 -1.000000
vn -1.000000 0.000000 0.000000
vn -1.000000 0.000000 0.000000
vn -1.000000 0.000000 0.000000
vn -1.000000 0.000000 0.000000
vn 0.000000 0.000000 1.000000
vn 0.000000 0.000000 1.000000
vn 0.000000 0.000000 1.000000
vn 0.000000 0.000000 1.000000
vn 1.000000 0.000000 0.000000
vn 1.000000 0.000000 0.000000
vn 1.000000 0.000000 0.000000
vn 1.000000 0.000000 0.000000
vn 0.000000 1.000000 0.000000
vn 0.000000 1.000000 0.000000
vn 0.000000 1.000000 0.000000
vn 0.000000 1.000000 0.000000
vn 0.000000 1.000000 0.000000
vn 0.000000 1.000000 0.000000
vn 0.000000 1.000000 0.000000
vn 0.000000 1.000000 0.000000
vn 0.000000 1.000000 0.000000
vn 0.000000 1.000000 0.000000
vn 0.000000 1.000000 0.000000
vn 0.000000 1.000000 0.000000
vn 0.000000 1.000000 0.000000
vn 0.000000 1.000000 0.000000
vn 0.000000 1.000000 0.000000
vn 0.000000 1.000000 0.000000
vn 0.000000 0.000000 -1.000000
vn 0.000000 0.000000 -1.000000
vn 0.000000 0.000000 -1.000000
vn 0.000000 0.000000 -1.000000
vn -1.000000 0.000000 0.000000
vn -1.000000 0.000000 0.000000
vn -1.000000 0.000000 0.000000
vn -1.000000 0.000000 0.000000
vn 0.000000 0.000000 1.000000
vn 0.000000 0.000000 1.000000
vn 0.000000 0.000000 1.000000
vn 0.000000 0.000000 1.000000
vn 1.000000 0.000000 0.000000
vn 1.000000 0.000000 0.000000
vn 1.000000 0.000000 0.000000
vn 1.000000 0.000000 0.000000
s off
f 1/228/1 2/185/2 4/4/3 3/222/4
f 3/117/5 4/101/6 6/6/7 5/118/8
f 5/5/9 6/103/10 8/8/11 7/200/12
f 7/7/13 8/186/14 2/10/15 1/9/16
f 58/71/17 57/72/18 59/73/19 60/74/20
f 25/35/21 26/36/22 27/37/23 28/38/24
f 29/188/25 30/191/26 31/190/27 32/189/28
f 30/221/29 33/214/30 34/105/31 31/41/32
f 33/108/33 35/107/34 36/106/35 34/44/36
f 35/206/37 29/39/38 32/204/39 36/46/40
f 9/199/41 10/198/42 14/196/43 13/173/44
f 10/226/45 11/218/46 15/126/47 14/171/48
f 11/116/49 12/115/50 16/114/51 15/113/52
f 12/211/53 9/224/54 13/197/55 16/167/56
f 13/19/57 14/172/58 18/169/59 17/164/60
f 14/20/61 15/170/62 19/124/63 18/168/64
f 15/21/65 16/125/66 20/123/67 19/112/68
f 16/22/69 13/174/70 17/165/71 20/163/72
f 17/23/73 18/194/74 22/193/75 21/149/76
f 18/24/77 19/166/78 23/145/79 22/147/80
f 19/25/81 20/111/82 24/110/83 23/109/84
f 20/26/85 17/195/86 21/192/87 24/142/88
f 21/27/89 22/148/90 26/144/91 25/31/92
f 22/28/93 23/146/94 27/141/95 26/32/96
f 23/29/97 24/143/98 28/139/99 27/33/100
f 24/30/101 21/150/102 25/140/103 28/34/104
f 7/13/105 1/229/106 30/220/107 29/207/108
f 10/16/109 9/225/110 32/203/111 31/216/112
f 1/1/113 3/223/114 33/213/115 30/40/116
f 11/17/117 10/227/118 31/217/119 34/209/120
f 3/3/121 5/215/122 35/205/123 33/43/124
f 12/18/125 11/219/126 34/210/127 36/201/128
f 5/14/129 7/230/130 29/208/131 35/45/132
f 9/15/133 12/212/134 36/202/135 32/42/136
f 62/231/137 61/232/138 63/233/139 64/234/140
f 61/235/141 65/236/142 66/237/143 63/238/144
f 65/239/145 67/240/146 68/241/147 66/242/148
f 67/243/149 62/244/150 64/245/151 68/246/152
f 38/47/153 37/90/154 41/84/155 42/75/156
f 37/48/157 39/86/158 43/80/159 41/83/160
f 39/49/161 40/82/162 44/78/163 43/79/164
f 40/50/165 38/88/166 42/76/167 44/77/168
f 42/51/169 41/182/170 45/180/171 46/159/172
f 41/52/173 43/98/174 47/122/175 45/161/176
f 82/261/177 81/275/178 83/270/179 84/268/180
f 44/54/181 42/181/182 46/179/183 48/155/184
f 46/55/185 45/162/186 49/157/187 50/151/188
f 45/56/189 47/158/190 51/120/191 49/156/192
f 47/57/193 48/121/194 52/119/195 51/94/196
f 48/58/197 46/160/198 50/152/199 52/153/200
f 50/59/201 49/178/202 53/175/203 54/135/204
f 49/60/205 51/154/206 55/133/207 53/137/208
f 51/61/209 52/93/210 56/91/211 55/92/212
f 52/62/213 50/177/214 54/176/215 56/130/216
f 54/63/217 53/138/218 57/132/219 58/67/220
f 53/64/221 55/134/222 59/129/223 57/68/224
f 55/65/225 56/131/226 60/128/227 59/69/228
f 56/66/229 54/136/230 58/127/231 60/70/232
f 2/2/233 8/11/234 61/12/235 62/81/236
f 37/85/237 38/87/238 64/89/239 63/99/240
f 8/11/241 6/100/242 65/102/243 61/12/244
f 39/104/245 37/85/246 63/99/247 66/183/248
f 6/100/249 4/184/250 67/187/251 65/102/252
f 40/247/253 39/104/254 66/183/255 68/248/256
f 4/184/257 2/2/258 62/81/259 67/187/260
f 38/87/261 40/247/262 68/248/263 64/89/264
f 43/53/265 44/97/266 69/303/267 70/301/268
f 44/97/269 48/95/270 71/299/271 69/303/272
f 48/95/273 47/96/274 72/297/275 71/299/276
f 47/96/277 43/53/278 70/301/279 72/297/280
f 70/249/281 69/304/282 73/295/283 74/291/284
f 69/250/285 71/300/286 75/289/287 73/294/288
f 71/251/289 72/298/290 76/286/291 75/288/292
f 72/252/293 70/302/294 74/292/295 76/285/296
f 74/253/297 73/296/298 77/283/299 78/279/300
f 73/254/301 75/290/302 79/277/303 77/282/304
f 75/255/305 76/287/306 80/272/307 79/276/308
f 76/256/309 74/293/310 78/280/311 80/271/312
f 78/257/313 77/284/314 81/274/315 82/265/316
f 77/258/317 79/278/318 83/269/319 81/262/320
f 79/259/321 80/273/322 84/267/323 83/263/324
f 80/260/325 78/281/326 82/266/327 84/264/328
