# This file uses centimeters as units for non-parametric coordinates.

v -41.921139 -1.974827 -6.588947
v -33.489326 -1.974827 -6.588947
v -25.569820 74.111778 -6.588947
v -38.642410 36.800648 -6.588947
v -30.210594 36.800648 -6.588947
v -34.841824 36.800648 -2.107822
v -38.494396 -1.974827 -2.107822
v -26.565651 -1.974827 2.417553
v -18.133835 -1.974827 2.417553
v -11.693480 63.890316 2.417553
v -24.766066 26.579189 2.417553
v -16.334251 26.579189 2.417553
v -20.965485 26.579189 6.898678
v -23.138908 -1.974827 6.898678
v -15.121750 -1.974827 -2.199375
v -6.689934 -1.974827 -2.199375
v 1.229568 74.111778 -2.199375
v -11.843207 36.800648 -2.199375
v -3.411391 36.800648 -2.199375
v -8.042435 36.800648 2.281750
v -11.695007 -1.974827 2.281750
v 2.030274 -1.974827 -6.898703
v 10.462091 -1.974827 -6.898703
v 19.429298 81.083382 -6.898703
v 6.356523 43.772251 -6.898703
v 14.788340 43.772251 -6.898703
v 10.157295 43.772251 -2.417578
v 5.457017 -1.974827 -2.417578
v 12.163826 -1.974827 2.417553
v 20.595642 -1.974827 2.417553
v 27.424904 64.494965 2.417553
v 14.352318 27.183832 2.417553
v 22.784134 27.183832 2.417553
v 18.152903 27.183832 6.898678
v 15.590569 -1.974827 6.898678
v 27.082916 -1.974827 -5.129063
v 35.514732 -1.974827 -5.129063
v 41.921135 64.283600 -5.129063
v 30.361649 36.800648 -5.129063
v 38.793465 36.800648 -5.129063
v 34.162231 36.800648 -0.647938
v 30.509659 -1.974827 -0.647938
vt 0.873238 0.558051
vt 0.873238 0.558051
vt 0.873238 0.558051
vt 0.873238 0.558051
vt 0.873238 0.558051
vt 0.873238 0.558051
vt 0.873238 0.558051
vt 0.873238 0.558051
vt 0.873238 0.558051
vt 0.873238 0.558051
vt 0.873238 0.558051
vt 0.873238 0.558051
vt 0.873238 0.558051
vt 0.873238 0.558051
vt 0.873238 0.558051
vt 0.873238 0.558051
vt 0.873238 0.558051
vt 0.873238 0.558051
vt 0.873238 0.558051
vt 0.873238 0.558051
vt 0.873238 0.558051
vt 0.873238 0.558051
vt 0.873238 0.558051
vt 0.873238 0.558051
vt 0.873238 0.558051
vt 0.873238 0.558051
vt 0.873238 0.558051
vt 0.873238 0.558051
vt 0.873238 0.558051
vt 0.873238 0.558051
vt 0.873238 0.558051
vt 0.873238 0.558051
vt 0.873238 0.558051
vt 0.873238 0.558051
vt 0.873238 0.558051
vt 0.873238 0.558051
vt 0.873238 0.558051
vt 0.873238 0.558051
vt 0.873238 0.558051
vt 0.873238 0.558051
vt 0.873238 0.558051
vt 0.873238 0.558051
vn 0.692778 -0.086168 0.715984
vn 0.692778 -0.086168 0.715984
vn 0.692778 -0.086168 0.715984
vn 0.665722 -0.062710 0.743560
vn 0.665722 -0.062710 0.743560
vn 0.665722 -0.062710 0.743560
vn 0.694166 -0.058696 0.717418
vn 0.694166 -0.058696 0.717418
vn 0.694166 -0.058696 0.717418
vn -0.736792 0.258148 0.624897
vn -0.736792 0.258148 0.624897
vn -0.736792 0.258148 0.624897
vn -0.792572 0.067017 0.606084
vn -0.792572 0.067017 0.606084
vn -0.792572 0.067017 0.606084
vn -0.760681 0.071655 0.645158
vn -0.760681 0.071655 0.645159
vn -0.760681 0.071655 0.645158
vn 0.692778 -0.086168 0.715985
vn 0.692778 -0.086168 0.715985
vn 0.692778 -0.086168 0.715985
vn 0.666177 -0.050707 0.744068
vn 0.666177 -0.050707 0.744068
vn 0.666177 -0.050707 0.744068
vn 0.694697 -0.043783 0.717968
vn 0.694697 -0.043783 0.717968
vn 0.694697 -0.043783 0.717968
vn -0.736793 0.258148 0.624897
vn -0.736793 0.258148 0.624897
vn -0.736793 0.258148 0.624897
vn -0.793364 0.050001 0.606690
vn -0.793364 0.050001 0.606690
vn -0.793364 0.050001 0.606690
vn -0.761361 0.057952 0.645733
vn -0.761361 0.057952 0.645733
vn -0.761361 0.057952 0.645734
vn 0.692792 -0.086173 0.715970
vn 0.692792 -0.086173 0.715970
vn 0.692792 -0.086173 0.715970
vn 0.665722 -0.062710 0.743560
vn 0.665722 -0.062710 0.743560
vn 0.665722 -0.062710 0.743560
vn 0.694180 -0.058694 0.717404
vn 0.694180 -0.058694 0.717404
vn 0.694180 -0.058694 0.717404
vn -0.736777 0.258146 0.624916
vn -0.736778 0.258146 0.624916
vn -0.736778 0.258146 0.624916
vn -0.792572 0.067014 0.606085
vn -0.792572 0.067014 0.606085
vn -0.792572 0.067014 0.606085
vn -0.760666 0.071653 0.645177
vn -0.760666 0.071653 0.645177
vn -0.760666 0.071653 0.645177
vn 0.692792 -0.086173 0.715970
vn 0.692792 -0.086173 0.715970
vn 0.692792 -0.086173 0.715970
vn 0.665474 -0.068374 0.743283
vn 0.665474 -0.068374 0.743283
vn 0.665474 -0.068374 0.743283
vn 0.693880 -0.065619 0.717094
vn 0.693880 -0.065619 0.717094
vn 0.693880 -0.065619 0.717094
vn -0.736778 0.258146 0.624915
vn -0.736778 0.258146 0.624915
vn -0.736778 0.258146 0.624915
vn -0.792126 0.074910 0.605743
vn -0.792126 0.074910 0.605743
vn -0.792126 0.074910 0.605743
vn -0.760296 0.078116 0.644863
vn -0.760296 0.078116 0.644863
vn -0.760296 0.078116 0.644863
vn 0.692778 -0.086168 0.715984
vn 0.692778 -0.086168 0.715984
vn 0.692778 -0.086168 0.715984
vn 0.665892 -0.058516 0.743750
vn 0.665892 -0.058516 0.743750
vn 0.665892 -0.058516 0.743750
vn 0.694419 -0.052119 0.717681
vn 0.694419 -0.052119 0.717681
vn 0.694419 -0.052119 0.717681
vn -0.736793 0.258148 0.624897
vn -0.736793 0.258148 0.624897
vn -0.736793 0.258148 0.624897
vn -0.792950 0.059515 0.606373
vn -0.792950 0.059515 0.606373
vn -0.792950 0.059515 0.606373
vn -0.760935 0.066868 0.645373
vn -0.760935 0.066868 0.645373
vn -0.760935 0.066868 0.645373
vn 0.693197 -0.078889 0.716418
vn 0.693197 -0.078889 0.716418
vn 0.693197 -0.078889 0.716418
vn 0.665722 -0.062710 0.743560
vn 0.665722 -0.062710 0.743560
vn 0.665722 -0.062710 0.743560
vn 0.694165 -0.058696 0.717419
vn 0.694165 -0.058696 0.717418
vn 0.694165 -0.058696 0.717418
vn -0.726196 0.305442 0.615909
vn -0.726196 0.305442 0.615909
vn -0.726196 0.305442 0.615909
vn -0.792572 0.067017 0.606085
vn -0.792572 0.067017 0.606084
vn -0.792572 0.067017 0.606084
vn -0.760682 0.071655 0.645158
vn -0.760682 0.071655 0.645158
vn -0.760682 0.071655 0.645158
s off
f 3/3/1 6/6/2 5/5/3
f 7/7/4 2/2/5 6/6/6
f 6/6/7 2/2/8 5/5/9
f 4/4/10 6/6/11 3/3/12
f 1/1/13 7/7/14 4/4/15
f 4/4/16 7/7/17 6/6/18
f 10/8/19 13/9/20 12/10/21
f 14/11/22 9/12/23 13/9/24
f 13/9/25 9/12/26 12/10/27
f 11/13/28 13/9/29 10/8/30
f 8/14/31 14/11/32 11/13/33
f 11/13/34 14/11/35 13/9/36
f 17/15/37 20/16/38 19/17/39
f 21/18/40 16/19/41 20/16/42
f 20/16/43 16/19/44 19/17/45
f 18/20/46 20/16/47 17/15/48
f 15/21/49 21/18/50 18/20/51
f 18/20/52 21/18/53 20/16/54
f 24/22/55 27/23/56 26/24/57
f 28/25/58 23/26/59 27/23/60
f 27/23/61 23/26/62 26/24/63
f 25/27/64 27/23/65 24/22/66
f 22/28/67 28/25/68 25/27/69
f 25/27/70 28/25/71 27/23/72
f 31/29/73 34/30/74 33/31/75
f 35/32/76 30/33/77 34/30/78
f 34/30/79 30/33/80 33/31/81
f 32/34/82 34/30/83 31/29/84
f 29/35/85 35/32/86 32/34/87
f 32/34/88 35/32/89 34/30/90
f 38/36/91 41/37/92 40/38/93
f 42/39/94 37/40/95 41/37/96
f 41/37/97 37/40/98 40/38/99
f 39/41/100 41/37/101 38/36/102
f 36/42/103 42/39/104 39/41/105
f 39/41/106 42/39/107 41/37/108
