# This file uses centimeters as units for non-parametric coordinates.

v 17.595108 0.000000 -23.308508
v -9.456436 0.000000 -14.518688
v -9.456436 0.000000 13.924840
v 17.595108 0.000000 22.714664
v 34.314926 0.000000 -0.296735
v 13.239488 49.316582 -11.605021
v -0.840560 49.316582 -7.030439
v -0.840560 49.316582 7.774021
v 13.239488 49.316582 12.348225
v 21.940809 49.316582 0.371603
v 10.118300 -13.550871 -0.296735
v 4.992113 153.199280 -17.532299
v -6.255907 153.199280 -13.877818
v -6.255907 153.199280 -2.046919
v 4.992113 153.199280 1.609472
v 11.946687 153.199280 -7.961225
v -37.434952 98.649513 14.950992
v -27.519030 83.803497 46.015598
v -4.989808 83.102547 52.649738
v 29.195599 82.502235 42.029240
v 41.107758 95.744781 16.877796
v 54.011353 77.082260 -8.346509
v 48.473557 76.793488 -31.178995
v 25.978285 94.955811 -45.502041
v 3.449065 95.656784 -52.136177
v -19.368546 96.632843 -46.614407
v -48.284336 83.741867 -31.962532
v -54.897110 84.480034 -9.427977
v 3.857240 136.224380 -7.628964
v -36.549564 122.251213 14.437535
v -26.634016 107.405220 45.502140
v -4.104416 106.704292 52.136662
v 30.080990 106.103928 41.516163
v 41.993149 119.346489 16.364340
v 54.896744 100.683937 -8.859965
v 49.358948 100.395142 -31.692451
v 26.863676 118.557556 -46.015114
v 4.334457 119.258507 -52.649635
v -18.483158 120.234550 -47.127865
v -47.398941 107.343590 -32.475990
v -54.011723 108.081711 -9.941433
v -15.715977 168.691299 3.010226
v -7.268325 168.567230 11.879017
v 7.228287 152.911102 22.308781
v 25.229458 167.177109 4.014637
v 28.676800 166.792221 -7.732725
v 25.789839 166.641724 -19.635723
v 17.342194 166.765808 -28.504515
v -2.066222 150.816284 -38.721413
v -15.155593 168.155975 -20.640135
v -18.602940 168.540726 -8.892773
v -5.933563 241.072235 -5.869627
vt 0.032183 0.327878
vt 0.032183 0.327878
vt 0.032183 0.327878
vt 0.032183 0.327878
vt 0.032183 0.327878
vt 0.032183 0.327878
vt 0.032183 0.327878
vt 0.032183 0.327878
vt 0.032183 0.327878
vt 0.032183 0.327878
vt 0.032183 0.327878
vt 0.032183 0.327878
vt 0.032183 0.327878
vt 0.032183 0.327878
vt 0.032183 0.327878
vt 0.032183 0.327878
vt 0.032183 0.327878
vt 0.032183 0.327878
vt 0.032183 0.327878
vt 0.032183 0.327878
vt 0.032183 0.327878
vt 0.032183 0.327878
vt 0.032183 0.327878
vt 0.032183 0.327878
vt 0.032183 0.327878
vt 0.032183 0.327878
vt 0.032183 0.327878
vt 0.032183 0.327878
vt 0.887578 0.510861
vt 0.887578 0.510861
vt 0.887578 0.510861
vt 0.887578 0.510861
vt 0.887578 0.510861
vt 0.887578 0.510861
vt 0.887578 0.510861
vt 0.887578 0.510861
vt 0.887578 0.510861
vt 0.887578 0.510861
vt 0.887578 0.510861
vt 0.887578 0.510861
vt 0.887578 0.510861
vt 0.887578 0.510861
vt 0.887578 0.510861
vt 0.887578 0.510861
vt 0.887578 0.510861
vt 0.887578 0.510861
vt 0.887578 0.510861
vt 0.887578 0.510861
vt 0.887578 0.510861
vt 0.887578 0.510861
vt 0.887578 0.510861
vt 0.887578 0.510861
vt 0.887578 0.510861
vt 0.887578 0.510861
vt 0.887578 0.510861
vt 0.887578 0.510861
vt 0.887578 0.510861
vt 0.887578 0.510861
vt 0.887578 0.510861
vt 0.887578 0.510861
vt 0.887578 0.510861
vt 0.887578 0.510861
vt 0.887578 0.510861
vt 0.887578 0.510861
vt 0.887578 0.510861
vt 0.887578 0.510861
vt 0.887578 0.510861
vt 0.887578 0.510861
vt 0.887578 0.510861
vt 0.887578 0.510861
vt 0.887578 0.510861
vt 0.887578 0.510861
vt 0.887578 0.510861
vt 0.887578 0.510861
vt 0.887578 0.510861
vt 0.887578 0.510861
vt 0.887578 0.510861
vt 0.887578 0.510861
vt 0.887578 0.510861
vt 0.887578 0.510861
vt 0.887578 0.510861
vt 0.887578 0.510861
vt 0.887578 0.510861
vt 0.887578 0.510861
vt 0.887578 0.510861
vt 0.887578 0.510861
vt 0.887578 0.510861
vt 0.887578 0.510861
vt 0.887578 0.510861
vt 0.887578 0.510861
vt 0.887578 0.510861
vt 0.887578 0.510861
vt 0.887578 0.510861
vt 0.887578 0.510861
vt 0.887578 0.510861
vt 0.887578 0.510861
vt 0.887578 0.510861
vt 0.887578 0.510861
vt 0.887578 0.510861
vt 0.887578 0.510861
vt 0.887578 0.510861
vt 0.887578 0.510861
vt 0.887578 0.510861
vt 0.887578 0.510861
vt 0.887578 0.510861
vt 0.887578 0.510861
vt 0.887578 0.510861
vt 0.887578 0.510861
vt 0.887578 0.510861
vt 0.887578 0.510861
vt 0.887578 0.510861
vt 0.887578 0.510861
vt 0.887578 0.510861
vt 0.887578 0.510861
vt 0.887578 0.510861
vt 0.887578 0.510861
vt 0.887578 0.510861
vt 0.887578 0.510861
vt 0.887578 0.510861
vt 0.887578 0.510861
vt 0.887578 0.510861
vt 0.887578 0.510861
vt 0.887578 0.510861
vt 0.887578 0.510861
vt 0.887578 0.510861
vt 0.887578 0.510861
vt 0.887578 0.510861
vt 0.887578 0.510861
vt 0.887578 0.510861
vt 0.887578 0.510861
vt 0.887578 0.510861
vt 0.887578 0.510861
vt 0.887578 0.510861
vt 0.887578 0.510861
vt 0.887578 0.510861
vt 0.887578 0.510861
vt 0.887578 0.510861
vt 0.887578 0.510861
vt 0.887578 0.510861
vt 0.887578 0.510861
vt 0.887578 0.510861
vt 0.887578 0.510861
vt 0.887578 0.510861
vt 0.887578 0.510861
vt 0.887578 0.510861
vt 0.887578 0.510861
vt 0.887578 0.510861
vt 0.887578 0.510861
vt 0.887578 0.510861
vt 0.887578 0.510861
vt 0.887578 0.510861
vn -0.303116 0.194612 -0.932870
vn -0.303116 0.194612 -0.932870
vn -0.303116 0.194612 -0.932870
vn -0.303091 0.194601 -0.932881
vn -0.303091 0.194601 -0.932881
vn -0.303091 0.194601 -0.932881
vn -0.985080 0.172099 0.000000
vn -0.985080 0.172099 0.000000
vn -0.985080 0.172099 0.000000
vn -0.985080 0.172099 0.000000
vn -0.985080 0.172099 0.000000
vn -0.985080 0.172099 0.000000
vn -0.304521 0.170105 0.937193
vn -0.304521 0.170105 0.937193
vn -0.304521 0.170105 0.937193
vn -0.304473 0.170083 0.937213
vn -0.304473 0.170083 0.937213
vn -0.304473 0.170083 0.937213
vn 0.794040 0.191415 0.576940
vn 0.794040 0.191415 0.576940
vn 0.794040 0.191415 0.576940
vn 0.794067 0.191399 0.576910
vn 0.794067 0.191399 0.576910
vn 0.794066 0.191399 0.576910
vn 0.791584 0.206402 -0.575146
vn 0.791584 0.206402 -0.575146
vn 0.791584 0.206402 -0.575146
vn 0.791601 0.206416 -0.575118
vn 0.791601 0.206416 -0.575118
vn 0.791601 0.206416 -0.575118
vn -0.175891 -0.822212 -0.541323
vn -0.175891 -0.822212 -0.541323
vn -0.175891 -0.822212 -0.541323
vn -0.569185 -0.822209 0.000000
vn -0.569185 -0.822209 0.000000
vn -0.569185 -0.822209 0.000000
vn -0.175893 -0.822207 0.541329
vn -0.175893 -0.822207 0.541329
vn -0.175893 -0.822207 0.541329
vn 0.460466 -0.822214 0.334569
vn 0.460465 -0.822214 0.334569
vn 0.460465 -0.822214 0.334569
vn 0.460466 -0.822215 -0.334564
vn 0.460466 -0.822215 -0.334564
vn 0.460466 -0.822215 -0.334564
vn -0.308044 -0.078553 -0.948124
vn -0.308044 -0.078553 -0.948124
vn -0.308044 -0.078553 -0.948124
vn -0.308045 -0.078553 -0.948123
vn -0.308045 -0.078553 -0.948123
vn -0.308045 -0.078553 -0.948123
vn -0.998644 -0.052059 0.000000
vn -0.998644 -0.052059 0.000000
vn -0.998644 -0.052059 0.000000
vn -0.998644 -0.052059 0.000000
vn -0.998644 -0.052059 0.000000
vn -0.998644 -0.052059 0.000000
vn -0.308138 0.073586 0.948492
vn -0.308138 0.073586 0.948492
vn -0.308138 0.073586 0.948492
vn -0.308308 0.073592 0.948436
vn -0.308308 0.073592 0.948436
vn -0.308308 0.073592 0.948436
vn 0.802777 0.124025 0.583238
vn 0.802777 0.124025 0.583238
vn 0.802777 0.124025 0.583238
vn 0.802729 0.124016 0.583306
vn 0.802729 0.124016 0.583306
vn 0.802729 0.124016 0.583306
vn 0.808643 0.030671 -0.587500
vn 0.808643 0.030671 -0.587500
vn 0.808643 0.030671 -0.587500
vn 0.808605 0.030672 -0.587552
vn 0.808605 0.030672 -0.587552
vn 0.808605 0.030672 -0.587552
vn 0.419508 -0.759642 -0.496947
vn 0.419508 -0.759642 -0.496947
vn 0.419508 -0.759642 -0.496947
vn 0.164607 -0.751866 -0.638438
vn 0.164607 -0.751866 -0.638438
vn 0.164607 -0.751866 -0.638438
vn -0.404325 -0.716344 -0.568659
vn -0.404325 -0.716344 -0.568659
vn -0.404325 -0.716344 -0.568659
vn -0.759140 -0.644848 0.088758
vn -0.759140 -0.644848 0.088758
vn -0.759140 -0.644848 0.088758
vn -0.747741 -0.636403 0.189406
vn -0.747741 -0.636403 0.189406
vn -0.747741 -0.636403 0.189406
vn -0.706280 -0.645452 0.290794
vn -0.706280 -0.645452 0.290794
vn -0.706280 -0.645452 0.290794
vn -0.216403 -0.720558 0.658761
vn -0.216404 -0.720558 0.658761
vn -0.216404 -0.720558 0.658761
vn 0.538592 -0.730093 0.420575
vn 0.538592 -0.730093 0.420575
vn 0.538592 -0.730093 0.420575
vn 0.642142 -0.736526 0.212563
vn 0.642142 -0.736526 0.212563
vn 0.642142 -0.736526 0.212563
vn 0.661097 -0.749337 -0.038002
vn 0.661097 -0.749337 -0.038002
vn 0.661097 -0.749337 -0.038002
vn -0.945726 0.042472 0.322176
vn -0.945727 0.042472 0.322176
vn -0.945727 0.042472 0.322176
vn -0.945727 0.042487 0.322172
vn -0.945727 0.042487 0.322172
vn -0.945727 0.042487 0.322172
vn -0.281437 0.031418 0.959065
vn -0.281437 0.031418 0.959065
vn -0.281437 0.031418 0.959065
vn -0.281448 0.031407 0.959063
vn -0.281448 0.031407 0.959062
vn -0.281448 0.031407 0.959062
vn 0.908509 -0.025014 0.417116
vn 0.908509 -0.025014 0.417116
vn 0.908509 -0.025014 0.417116
vn 0.908510 -0.025007 0.417113
vn 0.908511 -0.025007 0.417113
vn 0.908510 -0.025007 0.417113
vn 0.883061 -0.022931 0.468698
vn 0.883061 -0.022931 0.468699
vn 0.883061 -0.022931 0.468699
vn 0.883060 -0.022930 0.468699
vn 0.883060 -0.022930 0.468699
vn 0.883060 -0.022930 0.468699
vn 0.971106 -0.041543 -0.235007
vn 0.971106 -0.041543 -0.235007
vn 0.971106 -0.041543 -0.235007
vn 0.971106 -0.041542 -0.235007
vn 0.971106 -0.041542 -0.235007
vn 0.971106 -0.041542 -0.235007
vn 0.514722 -0.037943 -0.856517
vn 0.514722 -0.037943 -0.856517
vn 0.514722 -0.037943 -0.856517
vn 0.514719 -0.037929 -0.856519
vn 0.514719 -0.037929 -0.856519
vn 0.514719 -0.037929 -0.856519
vn 0.281437 -0.031407 -0.959066
vn 0.281437 -0.031407 -0.959066
vn 0.281437 -0.031407 -0.959066
vn 0.281452 -0.031423 -0.959061
vn 0.281452 -0.031423 -0.959061
vn 0.281452 -0.031423 -0.959061
vn -0.451108 -0.002493 -0.892466
vn -0.451108 -0.002493 -0.892466
vn -0.451108 -0.002493 -0.892466
vn -0.451109 -0.002493 -0.892465
vn -0.451109 -0.002493 -0.892465
vn -0.451109 -0.002493 -0.892465
vn -0.958847 0.029828 -0.282351
vn -0.958847 0.029828 -0.282351
vn -0.958847 0.029828 -0.282351
vn -0.958847 0.029827 -0.282351
vn -0.958847 0.029827 -0.282351
vn -0.958847 0.029827 -0.282351
vn -0.823924 0.043201 0.565051
vn -0.823924 0.043201 0.565051
vn -0.823924 0.043201 0.565051
vn -0.823924 0.043201 0.565051
vn -0.823924 0.043201 0.565051
vn -0.823924 0.043201 0.565051
vn -0.734665 0.490359 0.468845
vn -0.734665 0.490359 0.468845
vn -0.734665 0.490359 0.468845
vn -0.646124 0.442823 0.621637
vn -0.646124 0.442823 0.621637
vn -0.646124 0.442823 0.621637
vn -0.216539 0.566412 0.795166
vn -0.216539 0.566412 0.795166
vn -0.216539 0.566412 0.795166
vn -0.080816 0.499696 0.862423
vn -0.080816 0.499696 0.862423
vn -0.080816 0.499696 0.862423
vn 0.617003 0.537219 0.575068
vn 0.617003 0.537219 0.575068
vn 0.617003 0.537219 0.575068
vn 0.496826 0.376072 0.782134
vn 0.496826 0.376072 0.782134
vn 0.496825 0.376072 0.782134
vn 0.911683 0.358159 0.201386
vn 0.911683 0.358159 0.201386
vn 0.911683 0.358159 0.201386
vn 0.891992 0.377022 0.249409
vn 0.891992 0.377022 0.249409
vn 0.891992 0.377022 0.249409
vn 0.904622 0.362611 -0.223994
vn 0.904621 0.362611 -0.223994
vn 0.904621 0.362611 -0.223994
vn 0.904622 0.362611 -0.223993
vn 0.904622 0.362611 -0.223993
vn 0.904622 0.362611 -0.223993
vn 0.690226 0.359823 -0.627786
vn 0.690226 0.359823 -0.627786
vn 0.690226 0.359823 -0.627786
vn 0.676460 0.365788 -0.639219
vn 0.676460 0.365788 -0.639219
vn 0.676460 0.365788 -0.639219
vn 0.266907 0.433925 -0.860506
vn 0.266907 0.433925 -0.860506
vn 0.266907 0.433925 -0.860506
vn 0.179006 0.366932 -0.912862
vn 0.179006 0.366932 -0.912862
vn 0.179006 0.366932 -0.912862
vn -0.553425 0.432025 -0.712092
vn -0.553425 0.432025 -0.712092
vn -0.553425 0.432025 -0.712092
vn -0.455106 0.454751 -0.765559
vn -0.455106 0.454751 -0.765559
vn -0.455106 0.454751 -0.765559
vn -0.831246 0.491343 -0.260024
vn -0.831246 0.491343 -0.260024
vn -0.831246 0.491343 -0.260024
vn -0.831245 0.491343 -0.260027
vn -0.831245 0.491343 -0.260027
vn -0.831245 0.491343 -0.260027
vn -0.822131 0.476079 0.312170
vn -0.822131 0.476079 0.312170
vn -0.822131 0.476079 0.312170
vn -0.872865 0.442295 0.206111
vn -0.872865 0.442295 0.206111
vn -0.872865 0.442295 0.206111
vn -0.711073 0.179504 0.679819
vn -0.711073 0.179504 0.679819
vn -0.711073 0.179504 0.679819
vn -0.397031 0.225117 0.889769
vn -0.397031 0.225117 0.889769
vn -0.397031 0.225117 0.889769
vn 0.532244 0.328808 0.780129
vn 0.532244 0.328808 0.780129
vn 0.532244 0.328808 0.780129
vn 0.881079 0.404381 0.245309
vn 0.881079 0.404381 0.245309
vn 0.881079 0.404381 0.245309
vn 0.882262 0.416585 -0.219250
vn 0.882262 0.416585 -0.219250
vn 0.882262 0.416585 -0.219250
vn 0.666321 0.400346 -0.629079
vn 0.666321 0.400346 -0.629079
vn 0.666321 0.400346 -0.629079
vn 0.201478 0.342630 -0.917612
vn 0.201478 0.342630 -0.917612
vn 0.201478 0.342630 -0.917612
vn -0.671874 0.227741 -0.704783
vn -0.671874 0.227741 -0.704783
vn -0.671874 0.227741 -0.704783
vn -0.942901 0.176474 -0.282480
vn -0.942901 0.176474 -0.282480
vn -0.942901 0.176474 -0.282480
vn -0.960062 0.158076 0.230855
vn -0.960062 0.158076 0.230855
vn -0.960062 0.158076 0.230855
vn -0.999017 0.036944 -0.024512
vn -0.999017 0.036944 -0.024512
vn -0.999017 0.036944 -0.024512
vn -0.970039 -0.230556 0.076602
vn -0.970039 -0.230556 0.076602
vn -0.970039 -0.230556 0.076602
vn 0.877017 -0.043310 -0.478504
vn 0.877017 -0.043310 -0.478504
vn 0.877017 -0.043310 -0.478504
vn 0.864610 -0.371002 -0.338832
vn 0.864610 -0.371002 -0.338832
vn 0.864610 -0.371002 -0.338832
vn -0.870160 0.043314 0.490862
vn -0.870160 0.043314 0.490862
vn -0.870160 0.043314 0.490862
vn -0.902603 -0.324705 0.282619
vn -0.902603 -0.324705 0.282619
vn -0.902603 -0.324705 0.282619
vn 0.992748 -0.034740 0.115089
vn 0.992747 -0.034740 0.115089
vn 0.992747 -0.034740 0.115089
vn 0.973592 -0.227644 0.017256
vn 0.973592 -0.227644 0.017256
vn 0.973592 -0.227644 0.017256
s off
f 1/6/1 2/7/2 6/12/3
f 6/12/4 2/7/5 7/13/6
f 2/7/7 3/8/8 7/13/9
f 7/13/10 3/8/11 8/14/12
f 4/9/13 9/15/14 3/8/15
f 3/8/16 9/15/17 8/14/18
f 5/10/19 10/16/20 4/9/21
f 4/9/22 10/16/23 9/15/24
f 1/11/25 6/17/26 5/10/27
f 5/10/28 6/17/29 10/16/30
f 2/2/31 1/1/32 11/23/33
f 3/3/34 2/2/35 11/23/36
f 4/4/37 3/3/38 11/23/39
f 5/5/40 4/4/41 11/23/42
f 1/1/43 5/5/44 11/23/45
f 6/21/46 7/20/47 12/24/48
f 12/24/49 7/20/50 13/25/51
f 8/19/52 14/26/53 7/20/54
f 7/20/55 14/26/56 13/25/57
f 9/18/58 15/27/59 8/19/60
f 8/19/61 15/27/62 14/26/63
f 9/18/64 10/22/65 15/27/66
f 15/27/67 10/22/68 16/28/69
f 10/22/70 6/21/71 16/28/72
f 16/28/73 6/21/74 12/24/75
f 17/29/76 29/30/77 18/31/78
f 18/31/79 29/30/80 19/32/81
f 20/33/82 29/30/83 21/34/84
f 21/34/85 29/30/86 22/35/87
f 22/35/88 29/30/89 23/36/90
f 23/36/91 29/30/92 24/37/93
f 24/37/94 29/30/95 25/38/96
f 26/39/97 29/30/98 27/40/99
f 27/40/100 29/30/101 28/41/102
f 28/41/103 29/30/104 17/29/105
f 18/43/106 31/44/107 17/42/108
f 17/42/109 31/44/110 30/45/111
f 18/43/112 19/46/113 31/44/114
f 31/44/115 19/46/116 32/47/117
f 20/48/118 21/49/119 33/51/120
f 33/51/121 21/49/122 34/50/123
f 22/52/124 35/53/125 21/49/126
f 21/49/127 35/53/128 34/50/129
f 22/52/130 23/54/131 35/53/132
f 35/53/133 23/54/134 36/55/135
f 23/54/136 24/56/137 36/55/138
f 36/55/139 24/56/140 37/57/141
f 24/56/142 25/58/143 37/57/144
f 37/57/145 25/58/146 38/59/147
f 27/61/148 40/62/149 26/60/150
f 26/60/151 40/62/152 39/63/153
f 27/61/154 28/64/155 40/62/156
f 40/62/157 28/64/158 41/65/159
f 28/64/160 17/42/161 41/65/162
f 41/65/163 17/42/164 30/45/165
f 31/67/166 43/68/167 30/66/168
f 30/66/169 43/68/170 42/69/171
f 32/71/172 44/72/173 31/70/174
f 31/70/175 44/72/176 43/73/177
f 33/74/178 34/75/179 44/77/180
f 44/77/181 34/75/182 45/76/183
f 35/79/184 46/80/185 34/78/186
f 34/78/187 46/80/188 45/81/189
f 36/83/190 47/84/191 35/82/192
f 35/82/193 47/84/194 46/85/195
f 36/86/196 37/87/197 47/89/198
f 47/89/199 37/87/200 48/88/201
f 38/91/202 49/92/203 37/90/204
f 37/90/205 49/92/206 48/93/207
f 40/95/208 50/96/209 39/94/210
f 39/94/211 50/96/212 49/97/213
f 41/99/214 51/100/215 40/98/216
f 40/98/217 51/100/218 50/101/219
f 41/102/220 30/103/221 51/105/222
f 51/105/223 30/103/224 42/104/225
f 42/106/226 43/107/227 52/108/228
f 43/109/229 44/110/230 52/111/231
f 44/112/232 45/113/233 52/114/234
f 45/115/235 46/116/236 52/117/237
f 46/118/238 47/119/239 52/120/240
f 47/121/241 48/122/242 52/123/243
f 48/124/244 49/125/245 52/126/246
f 49/127/247 50/128/248 52/129/249
f 50/130/250 51/131/251 52/132/252
f 51/133/253 42/134/254 52/135/255
f 25/136/256 29/137/257 38/139/258
f 38/139/259 29/137/260 49/138/261
f 26/141/262 39/142/263 29/140/264
f 29/140/265 39/142/266 49/143/267
f 20/145/268 33/146/269 29/144/270
f 29/144/271 33/146/272 44/147/273
f 19/148/274 29/149/275 32/151/276
f 32/151/277 29/149/278 44/150/279
