# This file uses centimeters as units for non-parametric coordinates.

v 56.966446 14.575895 -55.272293
v 57.760384 5.046799 -57.348633
v -1.569748 -2.977076 71.162415
v -38.477230 3.035856 -68.577194
v 43.782043 -4.950100 4.566574
v 36.686134 -2.358009 61.229706
v -60.854435 12.487202 23.108292
v 18.592072 1.192874 78.350449
v 11.619663 4.049468 -78.350449
v 33.726025 11.903353 -73.929977
v 11.797142 -0.086803 -76.549911
v 22.517109 -6.877668 -18.714523
v -6.666470 -5.400813 56.930542
v 65.329651 3.571298 -33.205414
v -68.152046 13.795969 -12.237549
v -19.634056 -2.024147 65.205383
v -51.016903 4.272315 42.177963
v -8.072186 1.014766 73.774719
v -1.456547 6.561872 71.793365
v -44.986820 19.225481 33.058929
v -41.405487 17.495581 -59.421158
v 34.249592 4.043572 -75.802231
v 48.991631 -0.153063 -56.190109
v -9.399509 -4.835616 -62.446213
v -42.790699 -4.390148 -38.513947
v -48.771191 -3.323256 17.367935
v 37.551453 3.180391 74.146652
v 52.818634 5.919752 61.335754
v 61.965034 4.739963 40.329742
v 63.949730 13.494982 32.155228
v 68.337822 13.351372 -14.198685
v -68.337540 6.403878 -27.193451
v -63.948536 1.862791 -33.934784
v -68.039795 4.722239 2.753830
v -59.994125 26.025442 -19.308472
v -56.291866 20.331837 -44.684219
v 19.005632 5.969452 80.238342
v 44.272232 25.676981 55.400085
v -1.667213 11.741616 73.276520
v -0.839329 43.031372 14.867401
v -45.936966 24.395313 34.146881
v -53.508759 36.070995 -4.802322
v -4.462528 49.115295 -10.281372
v 14.690590 45.224926 12.584305
v 56.196785 28.599730 39.325714
v 43.443726 41.358250 12.448502
v 63.969994 30.716700 6.370544
v 28.405142 45.208801 -28.456497
v 58.530617 34.968700 -21.372986
v 46.555614 29.845411 -57.374573
v 58.794258 18.876869 -56.519699
v -18.116951 44.213581 -36.502838
v 13.097191 41.216702 -47.117996
v 19.087362 28.186911 -67.848587
v -40.280533 40.648987 -31.644440
v -37.276268 34.925224 -48.032379
v -42.149639 22.203489 -61.267090
v 11.388016 8.507852 -80.586624
v 34.370422 16.278440 -76.016617
v 70.761490 17.409170 -14.376450
v 66.170975 17.618969 32.921219
v 54.169273 10.372062 63.019180
v -62.612343 17.333229 23.807526
v -70.203781 18.437334 -11.711884
v -61.718845 30.919182 -19.378662
v -57.539940 25.373337 -45.783997
vt 0.568205 0.423249
vt 0.568205 0.423249
vt 0.568205 0.423249
vt 0.568205 0.423249
vt 0.568205 0.423249
vt 0.568205 0.423249
vt 0.568205 0.423249
vt 0.568205 0.423249
vt 0.568205 0.423249
vt 0.566487 0.787435
vt 0.566487 0.787435
vt 0.568205 0.423249
vt 0.566487 0.787435
vt 0.566487 0.787435
vt 0.566487 0.787435
vt 0.566487 0.787435
vt 0.566487 0.787435
vt 0.566487 0.787435
vt 0.566487 0.787435
vt 0.566487 0.787435
vt 0.566487 0.787435
vt 0.568205 0.423249
vt 0.566487 0.787435
vt 0.566487 0.787435
vt 0.566487 0.787435
vt 0.566487 0.787435
vt 0.566487 0.787435
vt 0.568205 0.423249
vt 0.568205 0.423249
vt 0.568205 0.423249
vt 0.568205 0.423249
vt 0.568205 0.423249
vt 0.568205 0.423249
vt 0.568205 0.423249
vt 0.568205 0.423249
vt 0.568205 0.423249
vt 0.568205 0.423249
vt 0.568205 0.423249
vt 0.568205 0.423249
vt 0.568205 0.423249
vt 0.568205 0.423249
vt 0.568205 0.423249
vt 0.568205 0.423249
vt 0.568205 0.423249
vt 0.568205 0.423249
vt 0.568205 0.423249
vt 0.568205 0.423249
vt 0.568205 0.423249
vt 0.568205 0.423249
vt 0.568205 0.423249
vt 0.568205 0.423249
vt 0.568205 0.423249
vt 0.566487 0.787435
vt 0.566487 0.787435
vt 0.566487 0.787435
vt 0.566487 0.787435
vt 0.566487 0.787435
vt 0.566487 0.787435
vt 0.566487 0.787435
vt 0.566487 0.787435
vt 0.566487 0.787435
vt 0.566487 0.787435
vt 0.566487 0.787435
vt 0.566487 0.787435
vt 0.566487 0.787435
vt 0.566487 0.787435
vt 0.566487 0.787435
vt 0.566487 0.787435
vt 0.566487 0.787435
vt 0.566487 0.787435
vt 0.566487 0.787435
vt 0.566487 0.787435
vt 0.566487 0.787435
vt 0.566487 0.787435
vt 0.566487 0.787435
vt 0.566487 0.787435
vt 0.566487 0.787435
vt 0.566487 0.787435
vt 0.566487 0.787435
vt 0.566487 0.787435
vn -0.119879 -0.970702 0.208245
vn -0.119879 -0.970702 0.208245
vn -0.119879 -0.970702 0.208245
vn -0.593215 -0.012877 0.804941
vn -0.593215 -0.012877 0.804941
vn -0.593215 -0.012877 0.804941
vn 0.091814 -0.951283 0.294332
vn 0.091814 -0.951283 0.294332
vn 0.091814 -0.951283 0.294332
vn 0.178956 -0.908528 0.377561
vn 0.178956 -0.908528 0.377561
vn 0.178956 -0.908528 0.377561
vn -0.235733 -0.771077 0.591499
vn -0.235733 -0.771077 0.591499
vn -0.235733 -0.771077 0.591499
vn -0.120625 -0.673648 0.729142
vn -0.120625 -0.673648 0.729142
vn -0.120625 -0.673648 0.729142
vn -0.150865 0.487170 0.860177
vn -0.150865 0.487170 0.860177
vn -0.150865 0.487170 0.860177
vn 0.006980 0.779883 0.625887
vn 0.006980 0.779883 0.625887
vn 0.006980 0.779883 0.625887
vn -0.083854 0.878875 0.469625
vn -0.083854 0.878875 0.469625
vn -0.083854 0.878875 0.469625
vn -0.448886 0.590192 0.670951
vn -0.448886 0.590192 0.670951
vn -0.448886 0.590192 0.670951
vn -0.372817 0.672860 0.638958
vn -0.372817 0.672860 0.638958
vn -0.372817 0.672860 0.638958
vn -0.161414 0.870877 0.464241
vn -0.161414 0.870877 0.464241
vn -0.161414 0.870877 0.464241
vn -0.221077 0.940156 0.259290
vn -0.221077 0.940156 0.259291
vn -0.221077 0.940156 0.259290
vn -0.241039 0.915762 0.321374
vn -0.241039 0.915762 0.321374
vn -0.241039 0.915762 0.321374
vn -0.060006 0.891724 0.448583
vn -0.060006 0.891724 0.448583
vn -0.060006 0.891724 0.448583
vn 0.179452 0.935850 0.303286
vn 0.179452 0.935850 0.303286
vn 0.179452 0.935850 0.303286
vn 0.125226 0.917979 0.376343
vn 0.125226 0.917979 0.376343
vn 0.125226 0.917979 0.376343
vn 0.492926 0.853088 0.171068
vn 0.492926 0.853089 0.171068
vn 0.492926 0.853088 0.171068
vn 0.133327 0.989451 0.056665
vn 0.133327 0.989451 0.056665
vn 0.133327 0.989451 0.056665
vn -0.099737 0.963737 0.247514
vn -0.099737 0.963737 0.247514
vn -0.099737 0.963737 0.247514
vn 0.140501 0.989212 0.041463
vn 0.140501 0.989212 0.041463
vn 0.140501 0.989212 0.041463
vn 0.469842 0.881702 0.043014
vn 0.469842 0.881702 0.043014
vn 0.469842 0.881702 0.043014
vn 0.328375 0.944010 -0.031862
vn 0.328375 0.944010 -0.031862
vn 0.328375 0.944010 -0.031862
vn 0.363631 0.897729 -0.248706
vn 0.363631 0.897729 -0.248706
vn 0.363631 0.897729 -0.248706
vn 0.645751 0.696065 -0.313847
vn 0.645751 0.696065 -0.313847
vn 0.645751 0.696065 -0.313847
vn 0.017726 0.974648 -0.223039
vn 0.017726 0.974648 -0.223039
vn 0.017726 0.974648 -0.223039
vn 0.199824 0.911716 -0.358950
vn 0.199824 0.911716 -0.358950
vn 0.199824 0.911716 -0.358950
vn 0.138244 0.856032 -0.498095
vn 0.138244 0.856032 -0.498095
vn 0.138244 0.856032 -0.498095
vn -0.252598 0.966728 0.040394
vn -0.252598 0.966728 0.040394
vn -0.252598 0.966728 0.040394
vn -0.177497 0.979928 -0.090754
vn -0.177497 0.979928 -0.090754
vn -0.177497 0.979928 -0.090754
vn 0.011803 0.981776 -0.189675
vn 0.011803 0.981776 -0.189675
vn 0.011803 0.981776 -0.189675
vn -0.096330 0.847212 -0.522448
vn -0.096330 0.847212 -0.522448
vn -0.096330 0.847212 -0.522448
vn -0.224210 0.906514 -0.357717
vn -0.224210 0.906514 -0.357718
vn -0.224210 0.906514 -0.357717
vn -0.093759 0.830493 -0.549081
vn -0.093759 0.830493 -0.549081
vn -0.093759 0.830493 -0.549081
vn -0.142958 0.739311 -0.658014
vn -0.142958 0.739311 -0.658014
vn -0.142958 0.739311 -0.658014
vn -0.142798 0.576587 -0.804460
vn -0.142798 0.576587 -0.804460
vn -0.142798 0.576587 -0.804460
vn -0.175461 0.501070 -0.847433
vn -0.175461 0.501070 -0.847433
vn -0.175461 0.501070 -0.847433
vn -0.019273 0.548590 -0.835870
vn -0.019273 0.548590 -0.835870
vn -0.019273 0.548590 -0.835870
vn 0.503842 0.507719 -0.698831
vn 0.503842 0.507719 -0.698831
vn 0.503842 0.507719 -0.698831
vn 0.208493 0.720906 -0.660928
vn 0.208493 0.720906 -0.660928
vn 0.208493 0.720906 -0.660928
vn 0.595591 0.218081 -0.773119
vn 0.595591 0.218081 -0.773119
vn 0.595591 0.218081 -0.773119
vn 0.108763 0.237199 -0.965353
vn 0.108763 0.237199 -0.965353
vn 0.108763 0.237199 -0.965353
vn 0.102777 -0.393304 -0.913646
vn 0.102777 -0.393304 -0.913646
vn 0.102777 -0.393304 -0.913646
vn 0.595898 0.223436 -0.771351
vn 0.595898 0.223436 -0.771351
vn 0.595898 0.223436 -0.771351
vn 0.403105 -0.784693 -0.470916
vn 0.403105 -0.784693 -0.470916
vn 0.403105 -0.784693 -0.470916
vn 0.181276 -0.924914 -0.334176
vn 0.181276 -0.924914 -0.334176
vn 0.181276 -0.924914 -0.334176
vn 0.097977 -0.978373 -0.182174
vn 0.097977 -0.978373 -0.182174
vn 0.097977 -0.978373 -0.182174
vn -0.167739 -0.399515 -0.901250
vn -0.167739 -0.399515 -0.901250
vn -0.167739 -0.399515 -0.901250
vn -0.130920 -0.863287 -0.487437
vn -0.130920 -0.863287 -0.487437
vn -0.130920 -0.863287 -0.487437
vn -0.200333 -0.944063 -0.261939
vn -0.200333 -0.944063 -0.261939
vn -0.200333 -0.944063 -0.261939
vn 0.091442 -0.989386 -0.112936
vn 0.091442 -0.989386 -0.112936
vn 0.091442 -0.989386 -0.112936
vn 0.159480 -0.985118 -0.064105
vn 0.159480 -0.985118 -0.064105
vn 0.159480 -0.985118 -0.064105
vn 0.048608 -0.998086 0.038239
vn 0.048608 -0.998086 0.038239
vn 0.048608 -0.998086 0.038239
vn 0.064616 -0.996466 0.053676
vn 0.064616 -0.996466 0.053676
vn 0.064616 -0.996466 0.053676
vn 0.054564 -0.987389 0.148615
vn 0.054564 -0.987389 0.148615
vn 0.054564 -0.987389 0.148615
vn -0.016462 -0.999855 -0.004357
vn -0.016462 -0.999855 -0.004357
vn -0.016462 -0.999855 -0.004357
vn -0.061016 -0.998058 0.012525
vn -0.061016 -0.998058 0.012525
vn -0.061016 -0.998058 0.012525
vn -0.059251 -0.998237 -0.003370
vn -0.059251 -0.998237 -0.003370
vn -0.059251 -0.998237 -0.003370
vn -0.170935 -0.976584 0.130635
vn -0.170935 -0.976584 0.130635
vn -0.170935 -0.976584 0.130635
vn 0.489332 -0.812921 0.315775
vn 0.489332 -0.812921 0.315775
vn 0.489332 -0.812921 0.315775
vn 0.329722 -0.923626 0.195442
vn 0.329722 -0.923626 0.195442
vn 0.329722 -0.923626 0.195442
vn 0.333680 -0.938870 0.084736
vn 0.333680 -0.938870 0.084736
vn 0.333680 -0.938870 0.084736
vn 0.417852 -0.907896 0.033548
vn 0.417852 -0.907896 0.033548
vn 0.417852 -0.907896 0.033548
vn 0.289203 -0.955925 -0.050677
vn 0.289203 -0.955925 -0.050677
vn 0.289203 -0.955925 -0.050677
vn 0.479557 -0.853819 -0.202529
vn 0.479557 -0.853819 -0.202529
vn 0.479557 -0.853819 -0.202529
vn 0.924451 -0.378229 0.048309
vn 0.924451 -0.378229 0.048309
vn 0.924451 -0.378229 0.048309
vn 0.986259 -0.136009 0.093786
vn 0.986259 -0.136009 0.093786
vn 0.986259 -0.136009 0.093786
vn 0.936660 0.338637 0.089406
vn 0.936660 0.338637 0.089406
vn 0.936660 0.338637 0.089406
vn 0.944680 0.205788 -0.255403
vn 0.944680 0.205788 -0.255403
vn 0.944680 0.205788 -0.255403
vn 0.947014 0.141709 -0.288243
vn 0.947014 0.141709 -0.288243
vn 0.947014 0.141709 -0.288243
vn 0.839373 0.496575 -0.221059
vn 0.839373 0.496575 -0.221059
vn 0.839373 0.496575 -0.221059
vn 0.832509 0.548323 -0.079185
vn 0.832509 0.548323 -0.079185
vn 0.832509 0.548323 -0.079185
vn -0.077245 0.989813 0.119597
vn -0.077245 0.989813 0.119597
vn -0.077245 0.989813 0.119597
vn 0.908893 0.155325 0.387025
vn 0.908893 0.155325 0.387025
vn 0.908893 0.155325 0.387025
vn 0.782693 0.581483 0.221969
vn 0.782693 0.581483 0.221969
vn 0.782693 0.581483 0.221969
vn 0.301098 0.573848 0.761602
vn 0.301098 0.573848 0.761602
vn 0.301098 0.573848 0.761602
vn 0.779858 0.462103 0.422236
vn 0.779858 0.462103 0.422236
vn 0.779858 0.462103 0.422236
vn 0.564262 0.630322 0.533200
vn 0.564262 0.630322 0.533200
vn 0.564262 0.630322 0.533200
vn -0.326235 -0.905748 -0.270539
vn -0.326235 -0.905748 -0.270539
vn -0.326235 -0.905748 -0.270539
vn -0.740825 -0.671014 -0.030314
vn -0.740825 -0.671014 -0.030314
vn -0.740825 -0.671014 -0.030314
vn -0.831234 0.021278 -0.555516
vn -0.831234 0.021278 -0.555516
vn -0.831234 0.021278 -0.555516
vn -0.805436 -0.010989 -0.592580
vn -0.805436 -0.010989 -0.592580
vn -0.805436 -0.010989 -0.592580
vn -0.285845 -0.958197 -0.012297
vn -0.285845 -0.958197 -0.012297
vn -0.285845 -0.958197 -0.012297
vn -0.402203 -0.915168 0.026476
vn -0.402203 -0.915168 0.026476
vn -0.402203 -0.915168 0.026476
vn -0.585131 -0.718550 0.375909
vn -0.585131 -0.718550 0.375909
vn -0.585131 -0.718550 0.375909
vn -0.903629 -0.181178 0.388109
vn -0.903629 -0.181178 0.388109
vn -0.903629 -0.181178 0.388109
vn -0.269391 -0.957246 0.105395
vn -0.269391 -0.957246 0.105395
vn -0.269391 -0.957246 0.105395
vn -0.924199 0.323619 0.202796
vn -0.924199 0.323619 0.202796
vn -0.924199 0.323619 0.202796
vn -0.595197 0.579514 0.556691
vn -0.595197 0.579514 0.556691
vn -0.595197 0.579514 0.556691
vn -0.536357 0.774089 0.336315
vn -0.536357 0.774089 0.336315
vn -0.536357 0.774089 0.336315
vn -0.749382 0.631568 0.198868
vn -0.749382 0.631568 0.198868
vn -0.749382 0.631568 0.198868
vn -0.748543 0.638237 0.179823
vn -0.748543 0.638237 0.179823
vn -0.748543 0.638237 0.179823
vn -0.636169 0.316674 -0.703567
vn -0.636169 0.316674 -0.703567
vn -0.636169 0.316674 -0.703567
vn -0.999938 0.004470 0.010193
vn -0.999938 0.004470 0.010193
vn -0.999938 0.004470 0.010193
vn -0.859662 0.457164 -0.227997
vn -0.859662 0.457164 -0.227997
vn -0.859662 0.457164 -0.227997
vn -0.865199 0.453698 -0.213514
vn -0.865199 0.453698 -0.213514
vn -0.865199 0.453698 -0.213514
vn -0.443496 0.893835 -0.066116
vn -0.443496 0.893835 -0.066116
vn -0.443496 0.893835 -0.066116
vn -0.516307 0.818019 -0.253517
vn -0.516307 0.818020 -0.253517
vn -0.516307 0.818019 -0.253517
vn -0.429642 0.825085 -0.366937
vn -0.429642 0.825085 -0.366937
vn -0.429642 0.825085 -0.366937
vn -0.404912 0.729116 -0.551757
vn -0.404912 0.729116 -0.551757
vn -0.404912 0.729116 -0.551757
vn -0.369997 -0.313604 0.874503
vn -0.369997 -0.313604 0.874503
vn -0.369997 -0.313604 0.874503
vn -0.374054 -0.269321 0.887440
vn -0.374054 -0.269321 0.887440
vn -0.374054 -0.269321 0.887440
vn -0.683426 -0.226511 0.693990
vn -0.683426 -0.226511 0.693990
vn -0.683426 -0.226511 0.693990
vn -0.679897 -0.268554 0.682363
vn -0.679897 -0.268554 0.682363
vn -0.679897 -0.268554 0.682363
vn -0.398154 -0.427710 -0.811503
vn -0.398154 -0.427710 -0.811503
vn -0.398154 -0.427710 -0.811503
vn -0.399105 -0.388693 -0.830441
vn -0.399105 -0.388693 -0.830441
vn -0.399105 -0.388693 -0.830441
vn 0.317175 -0.411966 -0.854216
vn 0.317175 -0.411966 -0.854216
vn 0.317175 -0.411966 -0.854216
vn 0.317200 -0.445910 -0.836988
vn 0.317200 -0.445910 -0.836988
vn 0.317200 -0.445910 -0.836988
vn 0.598106 -0.415062 -0.685560
vn 0.598106 -0.415062 -0.685560
vn 0.598106 -0.415062 -0.685560
vn 0.587008 -0.445515 -0.675971
vn 0.587008 -0.445516 -0.675971
vn 0.587008 -0.445515 -0.675971
vn 0.857168 -0.508351 0.082719
vn 0.857168 -0.508351 0.082719
vn 0.857168 -0.508351 0.082719
vn 0.870299 -0.484847 0.086618
vn 0.870299 -0.484847 0.086618
vn 0.870299 -0.484847 0.086618
vn 0.827773 -0.505117 -0.244231
vn 0.827773 -0.505117 -0.244231
vn 0.827773 -0.505117 -0.244231
vn 0.859466 -0.440489 -0.259399
vn 0.859466 -0.440489 -0.259399
vn 0.859466 -0.440489 -0.259400
vn 0.454621 -0.361156 0.814178
vn 0.454621 -0.361156 0.814178
vn 0.454621 -0.361156 0.814178
vn 0.439766 -0.431271 0.787789
vn 0.439766 -0.431271 0.787789
vn 0.439766 -0.431270 0.787789
vn 0.897265 -0.365708 0.247330
vn 0.897265 -0.365708 0.247330
vn 0.897265 -0.365708 0.247330
vn 0.842075 -0.493837 0.216876
vn 0.842075 -0.493837 0.216876
vn 0.842075 -0.493837 0.216876
vn -0.422898 -0.277862 0.862526
vn -0.422898 -0.277862 0.862526
vn -0.422898 -0.277862 0.862526
vn -0.426602 -0.260659 0.866064
vn -0.426602 -0.260659 0.866064
vn -0.426602 -0.260659 0.866064
vn -0.524082 -0.136461 -0.840665
vn -0.524082 -0.136461 -0.840664
vn -0.524082 -0.136461 -0.840665
vn -0.493689 -0.186176 -0.849476
vn -0.493689 -0.186176 -0.849476
vn -0.493689 -0.186176 -0.849476
vn -0.894192 -0.414449 0.169271
vn -0.894192 -0.414449 0.169271
vn -0.894192 -0.414449 0.169271
vn -0.915102 -0.358570 0.184436
vn -0.915102 -0.358570 0.184436
vn -0.915102 -0.358570 0.184436
vn -0.962981 -0.256490 -0.082947
vn -0.962981 -0.256490 -0.082947
vn -0.962981 -0.256490 -0.082947
vn -0.939843 -0.332363 -0.078934
vn -0.939843 -0.332363 -0.078934
vn -0.939843 -0.332363 -0.078934
vn -0.690830 -0.355950 -0.629328
vn -0.690829 -0.355950 -0.629328
vn -0.690830 -0.355950 -0.629328
vn -0.704816 -0.313320 -0.636447
vn -0.704816 -0.313320 -0.636447
vn -0.704816 -0.313320 -0.636447
s off
f 13/1/1 3/2/2 16/3/3
f 17/4/4 16/3/5 18/5/6
f 3/2/7 6/6/8 8/7/9
f 6/6/10 27/8/11 8/7/12
f 16/3/13 3/2/14 18/5/15
f 3/2/16 8/7/17 18/5/18
f 18/5/19 8/7/20 19/9/21
f 37/10/22 38/11/23 39/13/24
f 39/13/25 38/11/26 40/14/27
f 17/4/28 18/5/29 20/12/30
f 18/5/31 19/9/32 20/12/33
f 41/15/34 39/13/35 40/14/36
f 42/16/37 40/14/38 43/17/39
f 41/15/40 40/14/41 42/16/42
f 40/14/43 38/11/44 44/18/45
f 38/11/46 45/19/47 44/18/48
f 44/18/49 45/19/50 46/20/51
f 46/20/52 45/19/53 47/21/54
f 44/18/55 46/20/56 43/17/57
f 40/14/58 44/18/59 43/17/60
f 43/17/61 46/20/62 48/23/63
f 46/20/64 47/21/65 49/24/66
f 46/20/67 49/24/68 48/23/69
f 48/23/70 49/24/71 50/25/72
f 49/24/73 51/26/74 50/25/75
f 52/27/76 48/23/77 53/53/78
f 48/23/79 50/25/80 53/53/81
f 53/53/82 50/25/83 54/54/84
f 42/16/85 43/17/86 55/55/87
f 55/55/88 43/17/89 52/27/90
f 43/17/91 48/23/92 52/27/93
f 52/27/94 53/53/95 56/56/96
f 55/55/97 52/27/98 56/56/99
f 56/56/100 53/53/101 54/54/102
f 56/56/103 54/54/104 57/57/105
f 54/54/106 58/58/107 57/57/108
f 21/28/109 9/29/110 4/30/111
f 58/58/112 54/54/113 59/59/114
f 50/25/115 51/26/116 59/59/117
f 54/54/118 50/25/119 59/59/120
f 10/31/121 1/22/122 2/32/123
f 10/31/124 22/33/125 9/29/126
f 9/29/127 22/33/128 11/34/129
f 22/33/130 10/31/131 2/32/132
f 22/33/133 2/32/134 23/35/135
f 11/34/136 22/33/137 23/35/138
f 11/34/139 23/35/140 24/36/141
f 9/29/142 11/34/143 4/30/144
f 4/30/145 11/34/146 24/36/147
f 4/30/148 24/36/149 25/37/150
f 24/36/151 23/35/152 12/38/153
f 12/38/154 23/35/155 5/39/156
f 12/38/157 5/39/158 13/1/159
f 13/1/160 5/39/161 6/6/162
f 13/1/163 6/6/164 3/2/165
f 25/37/166 24/36/167 13/1/168
f 25/37/169 13/1/170 26/40/171
f 24/36/172 12/38/173 13/1/174
f 26/40/175 13/1/176 16/3/177
f 27/8/178 6/6/179 29/41/180
f 27/8/181 29/41/182 28/42/183
f 6/6/184 5/39/185 29/41/186
f 5/39/187 14/43/188 29/41/189
f 5/39/190 23/35/191 14/43/192
f 14/43/193 23/35/194 2/32/195
f 29/41/196 14/43/197 31/44/198
f 29/41/199 31/44/200 30/45/201
f 61/60/202 60/61/203 47/21/204
f 14/43/205 1/22/206 31/44/207
f 14/43/208 2/32/209 1/22/210
f 60/61/211 51/26/212 49/24/213
f 47/21/214 60/61/215 49/24/216
f 27/8/217 28/42/218 8/7/219
f 28/42/220 29/41/221 30/45/222
f 61/60/223 47/21/224 45/19/225
f 37/10/226 62/62/227 38/11/228
f 61/60/229 45/19/230 62/62/231
f 62/62/232 45/19/233 38/11/234
f 25/37/235 33/46/236 4/30/237
f 33/46/238 34/47/239 32/48/240
f 33/46/241 32/48/242 36/49/243
f 4/30/244 33/46/245 36/49/246
f 25/37/247 26/40/248 33/46/249
f 33/46/250 26/40/251 34/47/252
f 26/40/253 16/3/254 34/47/255
f 34/47/256 17/4/257 7/50/258
f 34/47/259 16/3/260 17/4/261
f 34/47/262 7/50/263 15/51/264
f 7/50/265 17/4/266 20/12/267
f 63/63/268 41/15/269 42/16/270
f 64/64/271 42/16/272 65/65/273
f 64/64/274 63/63/275 42/16/276
f 4/30/277 36/49/278 21/28/279
f 32/48/280 34/47/281 15/51/282
f 32/48/283 35/52/284 36/49/285
f 32/48/286 15/51/287 35/52/288
f 65/65/289 42/16/290 55/55/291
f 66/66/292 65/65/293 55/55/294
f 66/66/295 55/55/296 56/56/297
f 57/57/298 66/66/299 56/56/300
f 8/68/301 37/10/302 19/67/303
f 19/67/304 37/10/305 39/13/306
f 19/67/307 39/13/308 20/69/309
f 20/69/310 39/13/311 41/15/312
f 9/70/313 21/71/314 58/58/315
f 58/58/316 21/71/317 57/57/318
f 9/70/319 58/58/320 10/72/321
f 10/72/322 58/58/323 59/59/324
f 10/72/325 59/59/326 1/73/327
f 1/73/328 59/59/329 51/26/330
f 31/75/331 60/61/332 30/74/333
f 30/74/334 60/61/335 61/60/336
f 31/75/337 1/73/338 60/61/339
f 60/61/340 1/73/341 51/26/342
f 8/68/343 28/76/344 37/10/345
f 37/10/346 28/76/347 62/62/348
f 28/76/349 30/74/350 62/62/351
f 62/62/352 30/74/353 61/60/354
f 7/77/355 20/69/356 63/63/357
f 63/63/358 20/69/359 41/15/360
f 15/79/361 64/64/362 35/78/363
f 35/78/364 64/64/365 65/65/366
f 15/79/367 7/77/368 64/64/369
f 64/64/370 7/77/371 63/63/372
f 36/80/373 35/78/374 66/66/375
f 66/66/376 35/78/377 65/65/378
f 21/71/379 36/80/380 57/57/381
f 57/57/382 36/80/383 66/66/384
