# This file uses centimeters as units for non-parametric coordinates.

v 2.054417 -3.228956 0.993375
v 1.775420 -3.228956 2.349360
v 4.006612 13.678052 26.591824
v -5.860364 9.742353 31.208876
v 7.750499 9.999092 15.747272
v 4.342985 9.128187 4.752980
v 4.195297 7.438720 6.264797
v -1.936793 -3.228956 0.993375
v -1.657784 -3.228956 2.349360
v -7.133389 12.673698 17.197729
v -4.077661 7.438720 6.264797
v 0.209832 -3.228956 -2.172312
v 1.572800 -3.228956 -2.414888
v 23.268747 13.678052 -13.458503
v 31.209265 9.742353 -6.000472
v 11.808586 7.677731 -12.923649
v 2.855682 9.128187 -5.689648
v 4.314828 7.438720 -6.111876
v 1.686752 -3.228956 1.535583
v 2.843237 -3.228956 0.774607
v 18.663788 12.673698 0.366944
v 7.376194 7.438720 1.573816
v -2.146661 -3.228956 -0.151087
v -2.366984 -3.228956 -1.517832
v -13.055194 13.678052 -23.391037
v -5.468619 9.742353 -31.208857
v -12.707364 9.574033 -11.923703
v -5.620384 9.128187 -2.853963
v -6.018746 7.438720 -4.319809
v 1.584828 -3.228956 -1.567331
v 0.842822 -3.228956 -2.736074
v 0.693297 12.673698 -18.561176
v 1.715863 7.438720 -7.255389
v -0.137603 -3.228956 2.240601
v -1.505291 -3.228956 2.455080
v -7.875121 13.155057 7.829720
v -23.423876 13.678052 13.049910
v -31.209265 9.742353 5.430059
v -11.955154 12.673698 12.750989
v -2.855265 9.128187 5.702749
v -4.322803 7.438720 6.094861
v -1.537931 -3.228956 -1.496902
v -2.709830 -3.228956 -0.759883
v -11.046922 12.093646 -0.635916
v -7.225382 7.438720 -1.652201
v 0.710905 -3.228956 -1.935609
v 1.864672 -3.228956 -0.808987
v 7.394993 15.236187 -0.418070
v 20.044577 19.944012 8.915329
v 18.993711 17.323502 20.148876
v 13.716256 16.193052 0.054604
v 3.770626 9.947469 -2.616261
v 5.251241 8.702044 -1.425283
v -1.541412 -3.228956 1.359375
v -0.072742 -3.228956 2.025330
v 2.293408 15.236187 7.045242
v 0.582683 8.702044 5.404532
v 2.003562 -3.228956 0.516799
v -3.646195 17.721384 10.953334
v -17.931665 16.962112 17.193037
v -0.316942 15.069934 11.540710
v 1.391256 7.839198 4.341529
v -0.803280 -3.228956 -1.772417
v -1.541436 -3.228956 -0.466737
v -9.940540 17.721384 5.819788
v -3.401339 8.859158 -1.872920
v -7.431924 11.371766 0.041121
v -1.859331 -3.228956 0.652631
v 1.207435 -3.228956 1.691312
v 1.429522 -3.228956 0.329989
v 5.956852 10.233335 -1.210895
v 1.077425 -3.228956 2.296169
v -9.810173 13.149923 -1.131536
v -1.390088 7.149263 3.120477
v 2.425444 -3.228956 -0.702530
v 1.037085 -3.228956 -1.074655
v -12.058819 10.131291 -7.591123
v 3.086793 7.681033 -2.472156
v -3.344214 10.735694 -7.665369
v -5.297863 11.597300 -4.404975
vt 0.967591 0.452151
vt 0.967591 0.452151
vt 0.967591 0.452151
vt 0.967591 0.452151
vt 0.967591 0.452151
vt 0.967591 0.452151
vt 0.967591 0.452151
vt 0.967591 0.452151
vt 0.967591 0.452151
vt 0.967591 0.452151
vt 0.967591 0.452151
vt 0.967591 0.452151
vt 0.967591 0.452151
vt 0.967591 0.452151
vt 0.967591 0.452151
vt 0.967591 0.452151
vt 0.967591 0.452151
vt 0.967591 0.452151
vt 0.967591 0.452151
vt 0.967591 0.452151
vt 0.967591 0.452151
vt 0.967591 0.452151
vt 0.967591 0.452151
vt 0.967591 0.452151
vt 0.967591 0.452151
vt 0.967591 0.452151
vt 0.967591 0.452151
vt 0.967591 0.452151
vt 0.967591 0.452151
vt 0.967591 0.452151
vt 0.967591 0.452151
vt 0.967591 0.452151
vt 0.967591 0.452151
vt 0.967591 0.452151
vt 0.967591 0.452151
vt 0.967591 0.452151
vt 0.967591 0.452151
vt 0.967591 0.452151
vt 0.967591 0.452151
vt 0.967591 0.452151
vt 0.967591 0.452151
vt 0.967591 0.452151
vt 0.967591 0.452151
vt 0.967591 0.452151
vt 0.967591 0.452151
vt 0.967591 0.452151
vt 0.967591 0.452151
vt 0.967591 0.452151
vt 0.967591 0.452151
vt 0.967591 0.452151
vt 0.967591 0.452151
vt 0.967591 0.452151
vt 0.967591 0.452151
vt 0.967591 0.452151
vt 0.967591 0.452151
vt 0.967591 0.452151
vt 0.967591 0.452151
vt 0.967591 0.452151
vt 0.967591 0.452151
vt 0.967591 0.452151
vt 0.967591 0.452151
vt 0.967591 0.452151
vt 0.967591 0.452151
vt 0.967591 0.452151
vt 0.967591 0.452151
vt 0.967591 0.452151
vt 0.967591 0.452151
vt 0.967591 0.452151
vt 0.967591 0.452151
vt 0.967591 0.452151
vt 0.967591 0.452151
vt 0.967591 0.452151
vt 0.967591 0.452151
vt 0.967591 0.452151
vt 0.967591 0.452151
vt 0.967591 0.452151
vt 0.967591 0.452151
vt 0.967591 0.452151
vt 0.967591 0.452151
vt 0.967591 0.452151
vt 0.967591 0.452151
vt 0.967591 0.452151
vt 0.967591 0.452151
vt 0.967591 0.452151
vt 0.967591 0.452151
vt 0.967591 0.452151
vt 0.967591 0.452151
vt 0.967591 0.452151
vt 0.967591 0.452151
vt 0.967591 0.452151
vt 0.967591 0.452151
vt 0.967591 0.452151
vt 0.967591 0.452151
vt 0.967591 0.452151
vt 0.967591 0.452151
vt 0.967591 0.452151
vt 0.967591 0.452151
vt 0.967591 0.452151
vt 0.967591 0.452151
vt 0.967591 0.452151
vt 0.967591 0.452151
vt 0.967591 0.452151
vt 0.967591 0.452151
vt 0.967591 0.452151
vt 0.967591 0.452151
vt 0.967591 0.452151
vt 0.967591 0.452151
vt 0.967591 0.452151
vt 0.967591 0.452151
vt 0.967591 0.452151
vt 0.967591 0.452151
vt 0.967591 0.452151
vt 0.967591 0.452151
vt 0.967591 0.452151
vt 0.967591 0.452151
vt 0.967591 0.452151
vt 0.967591 0.452151
vt 0.967591 0.452151
vt 0.967591 0.452151
vt 0.967591 0.452151
vt 0.967591 0.452151
vt 0.967591 0.452151
vt 0.967591 0.452151
vt 0.967591 0.452151
vt 0.967591 0.452151
vt 0.967591 0.452151
vt 0.967591 0.452151
vt 0.967591 0.452151
vt 0.967591 0.452151
vt 0.967591 0.452151
vt 0.967591 0.452151
vt 0.967591 0.452151
vt 0.967591 0.452151
vt 0.967591 0.452151
vt 0.967591 0.452151
vt 0.967591 0.452151
vt 0.967591 0.452151
vt 0.967591 0.452151
vt 0.967591 0.452151
vt 0.967591 0.452151
vt 0.967591 0.452151
vt 0.967591 0.452151
vt 0.967591 0.452151
vt 0.967591 0.452151
vt 0.967591 0.452151
vt 0.967591 0.452151
vt 0.967591 0.452151
vt 0.967591 0.452151
vt 0.967591 0.452151
vt 0.967591 0.452151
vt 0.967591 0.452151
vt 0.967591 0.452151
vt 0.967591 0.452151
vt 0.967591 0.452151
vt 0.967591 0.452151
vt 0.967591 0.452151
vt 0.967591 0.452151
vt 0.967591 0.452151
vt 0.967591 0.452151
vt 0.967591 0.452151
vt 0.967591 0.452151
vt 0.967591 0.452151
vt 0.967591 0.452151
vt 0.967591 0.452151
vt 0.967591 0.452151
vt 0.967591 0.452151
vt 0.967591 0.452151
vt 0.967591 0.452151
vt 0.967591 0.452151
vt 0.967591 0.452151
vt 0.967591 0.452151
vt 0.967591 0.452151
vt 0.967591 0.452151
vt 0.967591 0.452151
vt 0.967591 0.452151
vt 0.967591 0.452151
vt 0.967591 0.452151
vn 0.914365 -0.311448 -0.258722
vn 0.914365 -0.311448 -0.258722
vn 0.914365 -0.311448 -0.258722
vn 0.939161 -0.283966 0.193235
vn 0.939161 -0.283966 0.193235
vn 0.939161 -0.283966 0.193235
vn 0.362551 0.913473 -0.184727
vn 0.362551 0.913473 -0.184727
vn 0.362551 0.913473 -0.184727
vn 0.984195 -0.157856 -0.080260
vn 0.984195 -0.157856 -0.080260
vn 0.984195 -0.157856 -0.080260
vn 0.000000 0.291072 -0.956701
vn 0.000000 0.291072 -0.956701
vn 0.000000 0.291072 -0.956701
vn -0.939159 -0.283968 0.193243
vn -0.939159 -0.283968 0.193243
vn -0.939159 -0.283968 0.193243
vn -0.238120 0.391442 -0.888860
vn -0.238120 0.391442 -0.888860
vn -0.238120 0.391442 -0.888860
vn 0.082398 0.975903 -0.202049
vn 0.082398 0.975903 -0.202049
vn 0.082398 0.975903 -0.202049
vn -0.270540 0.937086 0.220633
vn -0.270540 0.937085 0.220633
vn -0.270540 0.937085 0.220633
vn -0.254275 0.842690 -0.474572
vn -0.254275 0.842690 -0.474572
vn -0.254275 0.842690 -0.474572
vn -0.620611 -0.362197 -0.695454
vn -0.620611 -0.362197 -0.695454
vn -0.620611 -0.362197 -0.695454
vn -0.168010 -0.283967 -0.944000
vn -0.168010 -0.283967 -0.944000
vn -0.168010 -0.283967 -0.944000
vn -0.387473 0.685055 -0.616899
vn -0.387473 0.685055 -0.616899
vn -0.387473 0.685055 -0.616899
vn -0.438757 -0.157857 -0.884632
vn -0.438757 -0.157857 -0.884632
vn -0.438757 -0.157857 -0.884632
vn -0.888790 0.291072 0.354020
vn -0.888790 0.291072 0.354020
vn -0.888790 0.291072 0.354020
vn 0.527054 -0.283967 0.800985
vn 0.527054 -0.283967 0.800985
vn 0.527054 -0.283967 0.800985
vn -0.737649 0.391442 0.550134
vn -0.737649 0.391442 0.550134
vn -0.737649 0.391442 0.550134
vn -0.218197 0.975903 -0.001782
vn -0.218197 0.975903 -0.001782
vn -0.218197 0.975903 -0.001782
vn 0.305083 0.937085 0.169692
vn 0.305083 0.937085 0.169691
vn 0.305083 0.937085 0.169692
vn -0.346790 0.842690 0.411838
vn -0.346790 0.842690 0.411838
vn -0.346790 0.842690 0.411838
vn -0.754150 -0.319821 0.573562
vn -0.754150 -0.319821 0.573562
vn -0.754150 -0.319821 0.573562
vn -0.946614 -0.283964 0.152596
vn -0.946614 -0.283964 0.152596
vn -0.946614 -0.283964 0.152596
vn -0.359678 0.874995 0.324060
vn -0.359678 0.874995 0.324060
vn -0.359678 0.874995 0.324060
vn -0.891673 -0.157859 0.424264
vn -0.891673 -0.157859 0.424264
vn -0.891673 -0.157859 0.424264
vn 0.809476 -0.283966 -0.513918
vn 0.809476 -0.283966 -0.513918
vn 0.809476 -0.283966 -0.513918
vn 0.538028 0.391442 0.746525
vn 0.538028 0.391442 0.746525
vn 0.538028 0.391442 0.746525
vn 0.339476 0.291072 0.894445
vn 0.339476 0.291072 0.894446
vn 0.339476 0.291072 0.894445
vn -0.005341 0.975903 0.218139
vn -0.005341 0.975903 0.218139
vn -0.005341 0.975903 0.218139
vn 0.174645 0.937086 -0.302274
vn 0.174645 0.937086 -0.302274
vn 0.174645 0.937086 -0.302274
vn 0.406126 0.842690 0.353463
vn 0.406126 0.842690 0.353463
vn 0.406125 0.842690 0.353463
vn 0.523138 -0.266541 0.809496
vn 0.523138 -0.266541 0.809496
vn 0.523138 -0.266541 0.809495
vn 0.148546 -0.283968 0.947257
vn 0.148546 -0.283968 0.947257
vn 0.148546 -0.283968 0.947257
vn 0.090375 0.981136 0.170894
vn 0.090375 0.981136 0.170894
vn 0.090375 0.981136 0.170894
vn 0.644289 0.495431 0.582614
vn 0.644289 0.495431 0.582614
vn 0.644289 0.495431 0.582614
vn 0.420458 -0.157858 0.893474
vn 0.420458 -0.157858 0.893474
vn 0.420458 -0.157858 0.893474
vn -0.510461 -0.283967 -0.811660
vn -0.510461 -0.283967 -0.811660
vn -0.510461 -0.283967 -0.811660
vn 0.748812 0.391442 -0.534840
vn 0.748812 0.391442 -0.534840
vn 0.748812 0.391442 -0.534840
vn 0.895885 0.291072 -0.335660
vn 0.895885 0.291072 -0.335660
vn 0.895885 0.291072 -0.335660
vn -0.007457 0.992545 -0.121650
vn -0.007457 0.992545 -0.121650
vn -0.007457 0.992545 -0.121650
vn -0.195235 0.938373 -0.285199
vn -0.195235 0.938373 -0.285199
vn -0.195235 0.938373 -0.285199
vn 0.610747 0.611287 -0.503305
vn 0.610747 0.611287 -0.503305
vn 0.610747 0.611287 -0.503305
vn 0.518732 0.802443 -0.294962
vn 0.518732 0.802443 -0.294962
vn 0.518732 0.802443 -0.294962
vn 0.423479 -0.310409 -0.851065
vn 0.423479 -0.310409 -0.851065
vn 0.423479 -0.310409 -0.851065
vn 0.680073 -0.229012 -0.696459
vn 0.680073 -0.229012 -0.696459
vn 0.680073 -0.229012 -0.696459
vn -0.119140 0.942021 -0.313691
vn -0.119140 0.942021 -0.313691
vn -0.119140 0.942021 -0.313691
vn 0.012256 0.376603 -0.926294
vn 0.012256 0.376603 -0.926293
vn 0.012256 0.376603 -0.926294
vn 0.529564 -0.165943 -0.831880
vn 0.529564 -0.165943 -0.831880
vn 0.529564 -0.165943 -0.831880
vn -0.401994 -0.229011 0.886541
vn -0.401994 -0.229011 0.886541
vn -0.401994 -0.229011 0.886541
vn -0.908445 0.269940 -0.319155
vn -0.908445 0.269940 -0.319155
vn -0.908445 0.269940 -0.319155
vn -0.814862 0.160447 -0.557007
vn -0.814862 0.160447 -0.557007
vn -0.814862 0.160447 -0.557007
vn -0.236984 0.957913 -0.161992
vn -0.236984 0.957913 -0.161992
vn -0.236984 0.957913 -0.161992
vn -0.270553 0.942826 0.194629
vn -0.270553 0.942826 0.194629
vn -0.270553 0.942826 0.194629
vn -0.898363 0.312670 -0.308513
vn -0.898363 0.312670 -0.308513
vn -0.898363 0.312670 -0.308513
vn -0.644557 0.624842 -0.440590
vn -0.644557 0.624842 -0.440590
vn -0.644557 0.624842 -0.440590
vn 0.808712 -0.200995 0.552799
vn 0.808711 -0.200995 0.552799
vn 0.808711 -0.200995 0.552799
vn 0.307414 0.556927 0.771576
vn 0.307414 0.556927 0.771576
vn 0.307414 0.556927 0.771576
vn 0.592708 0.634257 -0.496402
vn 0.592708 0.634258 -0.496402
vn 0.592708 0.634258 -0.496402
vn 0.604915 0.289767 -0.741696
vn 0.604915 0.289767 -0.741696
vn 0.604915 0.289767 -0.741696
vn 0.088207 0.689287 -0.719099
vn 0.088207 0.689287 -0.719099
vn 0.088207 0.689287 -0.719099
vn -0.825659 -0.316866 -0.466780
vn -0.825659 -0.316866 -0.466780
vn -0.825659 -0.316866 -0.466780
vn -0.481841 -0.110787 -0.869227
vn -0.481841 -0.110787 -0.869227
vn -0.481841 -0.110787 -0.869227
vn 0.793884 0.165763 -0.585039
vn 0.793884 0.165763 -0.585039
vn 0.793884 0.165763 -0.585039
vn 0.416984 0.751482 -0.511272
vn 0.416984 0.751482 -0.511272
vn 0.416984 0.751482 -0.511272
vn -0.034561 0.998504 0.042376
vn -0.034561 0.998504 0.042376
vn -0.034561 0.998504 0.042376
vn 0.668450 0.617809 -0.414111
vn 0.668450 0.617809 -0.414111
vn 0.668450 0.617809 -0.414111
vn -0.252510 -0.328476 0.910133
vn -0.252510 -0.328476 0.910133
vn -0.252510 -0.328476 0.910133
vn -0.305761 0.302492 0.902778
vn -0.305761 0.302492 0.902778
vn -0.305761 0.302492 0.902778
vn -0.097314 -0.080814 -0.991967
vn -0.097313 -0.080814 -0.991967
vn -0.097314 -0.080814 -0.991967
vn 0.941763 -0.299127 0.153640
vn 0.941763 -0.299127 0.153640
vn 0.941763 -0.299127 0.153640
vn -0.972606 -0.232170 0.011640
vn -0.972606 -0.232170 0.011640
vn -0.972606 -0.232170 0.011640
vn 0.242438 -0.350828 -0.904513
vn 0.242438 -0.350828 -0.904513
vn 0.242438 -0.350828 -0.904513
vn 0.571002 -0.165054 -0.804185
vn 0.571002 -0.165054 -0.804185
vn 0.571002 -0.165054 -0.804185
vn 0.776974 0.054627 0.627158
vn 0.776974 0.054627 0.627159
vn 0.776974 0.054627 0.627159
vn 0.896976 0.181237 0.403222
vn 0.896976 0.181237 0.403221
vn 0.896976 0.181237 0.403221
vn -0.068635 0.953606 -0.293131
vn -0.068635 0.953606 -0.293131
vn -0.068635 0.953606 -0.293131
vn 0.003671 0.905463 -0.424410
vn 0.003671 0.905463 -0.424410
vn 0.003671 0.905463 -0.424410
vn 0.329862 0.877739 0.347512
vn 0.329862 0.877739 0.347512
vn 0.329862 0.877739 0.347512
vn 0.473637 0.843682 0.252724
vn 0.473637 0.843682 0.252724
vn 0.473637 0.843682 0.252724
vn 0.420801 0.907068 0.012442
vn 0.420801 0.907068 0.012442
vn 0.420801 0.907068 0.012442
s off
f 6/5/1 5/4/2 7/6/3
f 1/1/4 7/6/5 2/2/6
f 5/4/7 6/5/8 3/3/9
f 7/6/10 1/1/11 6/5/12
f 8/9/13 6/8/14 1/7/15
f 8/12/16 9/11/17 11/10/18
f 11/14/19 6/15/20 8/13/21
f 6/18/22 10/16/23 3/17/24
f 10/19/25 4/20/26 3/21/27
f 11/22/28 10/23/29 6/24/30
f 17/25/31 16/30/32 18/26/33
f 12/27/34 18/26/35 13/28/36
f 16/30/37 17/25/38 14/29/39
f 18/26/40 12/27/41 17/25/42
f 19/32/43 17/33/44 12/31/45
f 19/36/46 20/35/47 22/34/48
f 22/38/49 17/39/50 19/37/51
f 17/42/52 21/40/53 14/41/54
f 21/43/55 15/44/56 14/45/57
f 22/46/58 21/47/59 17/48/60
f 28/49/61 27/54/62 29/50/63
f 23/51/64 29/50/65 24/52/66
f 27/54/67 28/49/68 25/53/69
f 29/50/70 23/51/71 28/49/72
f 30/57/73 31/56/74 33/55/75
f 33/59/76 28/60/77 30/58/78
f 30/58/79 28/60/80 23/61/81
f 28/64/82 32/62/83 25/63/84
f 32/65/85 26/66/86 25/67/87
f 33/68/88 32/69/89 28/70/90
f 40/71/91 39/77/92 41/72/93
f 34/73/94 41/72/95 35/74/96
f 39/77/97 36/76/98 37/75/99
f 36/76/100 39/77/101 40/71/102
f 41/72/103 34/73/104 40/71/105
f 42/80/106 43/79/107 45/78/108
f 45/82/109 40/83/110 42/81/111
f 42/81/112 40/83/113 34/84/114
f 36/87/115 44/85/116 37/86/117
f 44/88/118 38/89/119 37/90/120
f 45/91/121 44/92/122 40/94/123
f 40/94/124 44/92/125 36/93/126
f 52/95/127 51/101/128 53/96/129
f 46/97/130 53/96/131 47/98/132
f 51/101/133 48/100/134 49/99/135
f 48/100/136 51/101/137 52/95/138
f 53/96/139 46/97/140 52/95/141
f 54/104/142 55/103/143 57/102/144
f 57/106/145 52/107/146 54/105/147
f 54/105/148 52/107/149 46/108/150
f 48/111/151 56/109/152 49/110/153
f 56/112/154 50/113/155 49/114/156
f 57/115/157 56/116/158 52/118/159
f 52/118/160 56/116/161 48/117/162
f 53/121/163 55/119/164 47/120/165
f 60/123/166 61/125/167 59/124/168
f 59/124/169 61/125/170 62/122/171
f 63/127/172 62/128/173 58/126/174
f 66/129/175 67/133/176 65/132/177
f 63/131/178 64/130/179 67/133/180
f 67/133/181 66/129/182 63/131/183
f 66/135/184 62/136/185 63/134/186
f 66/137/187 65/138/188 59/139/189
f 59/142/190 65/140/191 60/141/192
f 62/145/193 66/143/194 59/144/195
f 62/148/196 64/146/197 58/147/198
f 69/150/199 71/151/200 68/149/201
f 68/154/202 71/152/203 70/153/204
f 69/157/205 70/156/206 71/155/207
f 72/160/208 74/158/209 76/159/210
f 75/163/211 76/162/212 79/164/213
f 79/164/214 78/161/215 75/163/216
f 78/166/217 74/167/218 75/165/219
f 75/165/220 74/167/221 72/168/222
f 80/177/223 79/170/224 77/171/225
f 73/175/226 80/176/227 77/173/228
f 78/172/229 80/176/230 74/174/231
f 74/174/232 80/176/233 73/175/234
f 78/169/235 79/170/236 80/177/237
