# This file uses centimeters as units for non-parametric coordinates.

v -24.813063 -5.826073 -139.155930
v 24.031277 -8.109942 -142.426254
v -24.813063 -8.109938 140.182343
v 24.031277 -8.109938 142.426147
v -24.813063 8.110012 140.182724
v 24.031277 8.110012 142.426529
v -24.813063 8.110006 -139.155914
v 24.031277 8.110006 -142.426254
v -24.813063 -5.826073 20.427168
v -24.813063 1.902331 20.427168
v 24.031277 8.110006 20.427168
v 24.031277 -8.109944 20.426788
v -24.031616 -1.765774 95.209724
v -24.031616 8.110012 95.210114
v 24.813101 8.110012 95.210114
v 24.813101 -8.109938 95.209732
v -20.161419 -8.109938 142.426147
v -20.161419 8.110012 142.426529
v -19.379789 8.110012 95.210114
v -14.920788 8.110005 17.046583
v -20.161419 8.110006 -142.426254
v -20.161419 -8.109942 -142.426254
v -20.161419 -8.109944 20.426788
v -15.210512 -8.109938 94.558945
v 24.534435 -8.109938 112.042847
v 24.260540 -8.109938 128.578796
v 8.802815 -8.110009 117.848053
v 24.433920 8.110012 118.115845
v 19.551678 -4.058408 120.971916
vt 0.984623 0.451295
vt 0.984623 0.451295
vt 0.984623 0.451295
vt 0.984623 0.451295
vt 0.984623 0.451295
vt 0.984623 0.451295
vt 0.984623 0.451295
vt 0.984623 0.451295
vt 0.984623 0.451295
vt 0.984623 0.451295
vt 0.984623 0.451295
vt 0.984623 0.451295
vt 0.984623 0.451295
vt 0.984623 0.451295
vt 0.984623 0.451295
vt 0.984623 0.451295
vt 0.984623 0.451295
vt 0.984623 0.451295
vt 0.984623 0.451295
vt 0.984623 0.451295
vt 0.984623 0.451295
vt 0.984623 0.451295
vt 0.984623 0.451295
vt 0.984623 0.451295
vt 0.984623 0.451295
vt 0.984623 0.451295
vt 0.984623 0.451295
vt 0.984623 0.451295
vt 0.984623 0.451295
vt 0.984623 0.451295
vt 0.984623 0.451295
vt 0.984623 0.451295
vt 0.984623 0.451295
vt 0.984623 0.451295
vt 0.984623 0.451295
vt 0.984623 0.451295
vt 0.984623 0.451295
vt 0.984623 0.451295
vt 0.984623 0.451295
vt 0.984623 0.451295
vt 0.984623 0.451295
vn -0.440725 -0.897642 -0.000000
vn -0.440725 -0.897642 -0.000000
vn -0.440725 -0.897642 -0.000000
vn -0.440726 -0.897642 0.000000
vn -0.440726 -0.897642 0.000000
vn -0.440726 -0.897642 0.000000
vn -0.434470 -0.000021 0.900686
vn -0.434470 -0.000021 0.900686
vn -0.434470 -0.000021 0.900686
vn -0.434460 -0.000021 0.900691
vn -0.434460 -0.000021 0.900691
vn -0.434460 -0.000021 0.900691
vn -0.523099 0.851628 0.033128
vn -0.523099 0.851628 0.033128
vn -0.523099 0.851628 0.033128
vn 0.000000 1.000000 0.000000
vn 0.000000 1.000000 0.000000
vn 0.000000 1.000000 0.000000
vn -0.575138 0.000001 -0.818057
vn -0.575138 0.000001 -0.818057
vn -0.575138 0.000001 -0.818057
vn -0.575134 0.000000 -0.818060
vn -0.575134 0.000000 -0.818059
vn -0.575134 0.000000 -0.818059
vn 1.000000 0.000000 0.000000
vn 1.000000 0.000000 0.000000
vn 1.000000 0.000000 0.000000
vn 1.000000 0.000000 0.000000
vn 1.000000 0.000000 0.000000
vn 1.000000 0.000000 0.000000
vn -1.000000 -0.000000 0.000000
vn -1.000000 -0.000000 0.000000
vn -1.000000 -0.000000 0.000000
vn -1.000000 0.000000 0.000000
vn -1.000000 0.000000 0.000000
vn -1.000000 0.000000 0.000000
vn -0.999945 0.000000 0.010449
vn -0.999945 0.000000 0.010449
vn -0.999945 0.000000 0.010449
vn -0.999945 -0.000000 0.010449
vn -0.999945 -0.000000 0.010449
vn -0.999945 -0.000000 0.010449
vn 0.000000 0.996572 -0.082725
vn 0.000000 0.996572 -0.082725
vn 0.000000 0.996572 -0.082725
vn -0.538802 0.841872 -0.030737
vn -0.538802 0.841872 -0.030737
vn -0.538802 0.841872 -0.030737
vn 0.999945 0.000000 -0.010454
vn 0.999945 0.000000 -0.010454
vn 0.999945 0.000000 -0.010454
vn 0.999945 0.000000 -0.010454
vn 0.999945 0.000000 -0.010454
vn 0.999945 0.000000 -0.010454
vn -0.440533 -0.897254 0.029421
vn -0.440533 -0.897254 0.029421
vn -0.440533 -0.897254 0.029421
vn -0.580700 -0.812569 0.050186
vn -0.580700 -0.812569 0.050186
vn -0.580700 -0.812569 0.050186
vn -0.999849 0.000001 -0.017373
vn -0.999849 0.000001 -0.017373
vn -0.999849 0.000001 -0.017373
vn -0.999849 0.000000 -0.017373
vn -0.999849 0.000000 -0.017373
vn -0.999849 0.000000 -0.017373
vn 0.000000 1.000000 0.000000
vn 0.000000 1.000000 0.000000
vn 0.000000 1.000000 0.000000
vn 0.000000 1.000000 0.000000
vn 0.000000 1.000000 0.000000
vn 0.000000 1.000000 0.000000
vn 0.659977 -0.412219 -0.628097
vn 0.659977 -0.412219 -0.628097
vn 0.659977 -0.412219 -0.628097
vn -0.585404 -0.801324 -0.123213
vn -0.585404 -0.801324 -0.123213
vn -0.585404 -0.801324 -0.123213
vn 0.000000 -1.000000 -0.000000
vn 0.000000 -1.000000 -0.000000
vn 0.000000 -1.000000 -0.000000
vn 0.000000 -0.000024 1.000000
vn 0.000000 -0.000024 1.000000
vn 0.000000 -0.000024 1.000000
vn 0.000000 -0.000024 1.000000
vn 0.000000 -0.000024 1.000000
vn 0.000000 -0.000024 1.000000
vn 0.000000 1.000000 -0.000000
vn 0.000000 1.000000 -0.000000
vn 0.000000 1.000000 -0.000000
vn 0.000000 1.000000 0.000000
vn 0.000000 1.000000 0.000000
vn 0.000000 1.000000 0.000000
vn 0.000000 1.000000 0.000000
vn 0.000000 1.000000 0.000000
vn 0.000000 1.000000 0.000000
vn -0.000000 1.000000 -0.000000
vn -0.000000 1.000000 -0.000000
vn -0.000000 1.000000 -0.000000
vn 0.000000 1.000000 -0.000000
vn 0.000000 1.000000 -0.000000
vn 0.000000 1.000000 -0.000000
vn 0.000000 1.000000 0.000000
vn 0.000000 1.000000 0.000000
vn 0.000000 1.000000 0.000000
vn -0.000000 1.000000 0.000000
vn -0.000000 1.000000 0.000000
vn -0.000000 1.000000 0.000000
vn 0.000000 0.000000 -1.000000
vn 0.000000 0.000000 -1.000000
vn 0.000000 0.000000 -1.000000
vn 0.000000 0.000000 -1.000000
vn 0.000000 0.000000 -1.000000
vn 0.000000 0.000000 -1.000000
vn 0.000000 -1.000000 -0.000000
vn 0.000000 -1.000000 -0.000000
vn 0.000000 -1.000000 -0.000000
vn 0.000000 -1.000000 -0.000000
vn 0.000000 -1.000000 -0.000000
vn 0.000000 -1.000000 -0.000000
vn 0.000000 -1.000000 0.000000
vn 0.000000 -1.000000 0.000000
vn 0.000000 -1.000000 0.000000
vn -0.000000 -1.000000 0.000000
vn -0.000000 -1.000000 0.000000
vn -0.000000 -1.000000 0.000000
vn 0.000000 -1.000000 0.000000
vn 0.000000 -1.000000 0.000000
vn 0.000000 -1.000000 0.000000
vn 0.000000 -1.000000 0.000000
vn 0.000000 -1.000000 0.000000
vn 0.000000 -1.000000 0.000000
vn 0.000002 -1.000000 -0.000006
vn 0.000002 -1.000000 -0.000006
vn 0.000002 -1.000000 -0.000006
vn -0.000015 -1.000000 0.000012
vn -0.000015 -1.000000 0.000012
vn -0.000015 -1.000000 0.000012
vn 0.000005 -1.000000 0.000000
vn 0.000005 -1.000000 0.000000
vn 0.000005 -1.000000 0.000000
vn 0.428202 -0.660433 -0.616824
vn 0.428202 -0.660433 -0.616824
vn 0.428202 -0.660433 -0.616824
vn 0.999863 -0.000000 0.016552
vn 0.999863 -0.000000 0.016552
vn 0.999863 -0.000000 0.016552
vn 0.999863 -0.000001 0.016552
vn 0.999863 -0.000001 0.016552
vn 0.999863 -0.000001 0.016552
vn 0.999863 -0.000005 0.016560
vn 0.999863 -0.000005 0.016560
vn 0.999863 -0.000005 0.016560
vn 0.999863 -0.000001 0.016554
vn 0.999863 -0.000001 0.016554
vn 0.999863 -0.000001 0.016554
vn 0.180091 -0.854052 0.488020
vn 0.180091 -0.854051 0.488020
vn 0.180091 -0.854052 0.488020
vn 0.814593 -0.198950 0.544846
vn 0.814593 -0.198950 0.544846
vn 0.814593 -0.198950 0.544846
s off
f 22/2/1 23/3/2 1/1/3
f 1/1/4 23/3/5 9/4/6
f 3/5/7 17/6/8 5/8/9
f 5/8/10 17/6/11 18/7/12
f 10/9/13 20/10/14 7/12/15
f 7/12/16 20/10/17 21/11/18
f 7/12/19 21/11/20 1/14/21
f 1/14/22 21/11/23 22/13/24
f 2/15/25 8/16/26 12/18/27
f 12/18/28 8/16/29 11/17/30
f 7/19/31 1/1/32 10/20/33
f 10/20/34 1/1/35 9/4/36
f 9/4/37 13/21/38 10/20/39
f 10/20/40 13/21/41 14/22/42
f 14/23/43 19/24/44 10/9/45
f 10/9/46 19/24/47 20/10/48
f 12/18/49 11/17/50 16/26/51
f 16/26/52 11/17/53 15/25/54
f 23/3/55 24/27/56 9/4/57
f 9/4/58 24/27/59 13/21/60
f 14/22/61 13/21/62 5/28/63
f 5/28/64 13/21/65 3/5/66
f 18/7/67 19/24/68 5/8/69
f 5/8/70 19/24/71 14/23/72
f 29/29/73 28/30/74 26/31/75
f 13/21/76 24/27/77 3/5/78
f 3/5/79 24/27/80 17/6/81
f 17/6/82 4/32/83 18/7/84
f 18/7/85 4/32/86 6/33/87
f 18/7/88 6/33/89 19/24/90
f 6/33/91 28/34/92 19/24/93
f 19/24/94 28/34/95 15/35/96
f 20/10/97 19/24/98 11/36/99
f 11/36/100 19/24/101 15/35/102
f 21/11/103 20/10/104 8/37/105
f 8/37/106 20/10/107 11/36/108
f 22/13/109 21/11/110 2/38/111
f 2/38/112 21/11/113 8/37/114
f 23/3/115 22/2/116 12/18/117
f 12/18/118 22/2/119 2/15/120
f 23/3/121 12/18/122 24/27/123
f 24/27/124 12/18/125 16/26/126
f 17/6/127 24/27/128 4/32/129
f 16/26/130 25/39/131 24/27/132
f 25/39/133 27/40/134 24/27/135
f 24/27/136 27/40/137 4/32/138
f 27/40/139 26/31/140 4/32/141
f 26/31/142 27/40/143 29/29/144
f 16/26/145 15/25/146 25/39/147
f 25/39/148 15/25/149 28/30/150
f 28/30/151 6/41/152 26/31/153
f 26/31/154 6/41/155 4/32/156
f 29/29/157 27/40/158 25/39/159
f 25/39/160 28/30/161 29/29/162
