# This file uses centimeters as units for non-parametric coordinates.

v 51.742313 52.858612 -15.987396
v 46.188595 37.250984 31.850433
v 40.186550 52.215992 8.789444
v 54.992390 -0.784887 -33.271790
v -61.307240 2.474192 38.289261
v 22.839832 28.631254 53.286362
v -9.973145 35.104847 31.719589
v 14.699268 48.865940 6.930923
v 54.450607 48.669735 5.403900
v 27.951717 56.813988 -37.363052
v 43.244267 26.943022 -53.398514
v 5.331802 39.863544 -62.810135
v -15.599442 41.417572 -53.174973
v -33.858109 27.332449 -52.534485
v -50.339794 20.715284 -35.659409
v -24.019814 2.818424 70.294571
v -10.147619 3.024314 73.635483
v 5.356693 -0.741845 69.212723
v 47.342777 -2.963505 27.830887
v 54.407120 4.407515 41.763687
v 29.285765 4.194597 62.495041
v -0.297689 18.786301 66.556931
v 9.347916 30.383099 53.483200
v -33.222961 24.728535 35.508728
v -20.728302 15.766326 63.805771
v 13.675547 56.010666 -27.610779
v 44.493675 49.886265 -34.924698
v 6.217480 51.081776 -50.522995
v -25.373459 41.123180 -31.010056
v -12.236118 27.501810 -66.994858
v 20.736027 29.319250 -65.207291
v 60.248470 5.120464 -40.565491
v 26.176548 4.947763 -68.536758
v 3.812885 4.828813 -73.634720
v -14.657497 5.023405 -71.481705
v -9.898710 -3.593111 -55.059433
v -45.109940 -3.506053 -26.488876
v -63.591194 -1.538232 25.714493
v 30.763197 -3.917201 -45.942307
v 58.361340 -2.726778 -11.949158
v -25.279140 -6.869022 -6.541824
v 31.269360 -6.547315 11.321640
v -8.931160 -5.409664 48.962021
v -26.112080 -2.389659 58.158493
v 70.688911 3.417211 10.692215
v 69.999123 9.558476 16.906738
v 70.866394 3.123487 -13.512039
v 67.329079 18.558880 -24.576950
v 63.196373 40.193710 -12.110138
v 72.145752 18.346497 -1.904297
v 63.733387 36.535854 9.304428
v -39.768173 3.577376 -56.173706
v -64.127777 1.603951 -20.444870
v -72.145699 1.833744 4.925156
v -69.697952 2.663913 27.233505
v -69.495773 10.816373 4.236221
v -56.177185 24.190439 1.692581
v -45.291233 27.849133 13.995361
v -43.944836 15.011551 -50.316238
v -36.783218 32.244926 -40.583038
vt 0.944154 0.401531
vt 0.944154 0.401531
vt 0.944154 0.401531
vt 0.944154 0.401531
vt 0.944154 0.401531
vt 0.944154 0.401531
vt 0.944154 0.401531
vt 0.944154 0.401531
vt 0.944154 0.401531
vt 0.944154 0.401531
vt 0.944154 0.401531
vt 0.944154 0.401531
vt 0.944154 0.401531
vt 0.944154 0.401531
vt 0.944154 0.401531
vt 0.944154 0.401531
vt 0.944154 0.401531
vt 0.944154 0.401531
vt 0.944154 0.401531
vt 0.944154 0.401531
vt 0.944154 0.401531
vt 0.944154 0.401531
vt 0.944154 0.401531
vt 0.944154 0.401531
vt 0.944154 0.401531
vt 0.944154 0.401531
vt 0.944154 0.401531
vt 0.944154 0.401531
vt 0.944154 0.401531
vt 0.944154 0.401531
vt 0.944154 0.401531
vt 0.944154 0.401531
vt 0.944154 0.401531
vt 0.944154 0.401531
vt 0.944154 0.401531
vt 0.944154 0.401531
vt 0.944154 0.401531
vt 0.944154 0.401531
vt 0.944154 0.401531
vt 0.944154 0.401531
vt 0.944154 0.401531
vt 0.944154 0.401531
vt 0.944154 0.401531
vt 0.944154 0.401531
vt 0.944154 0.401531
vt 0.944154 0.401531
vt 0.944154 0.401531
vt 0.944154 0.401531
vt 0.944154 0.401531
vt 0.944154 0.401531
vt 0.944154 0.401531
vt 0.944154 0.401531
vt 0.944154 0.401531
vt 0.944154 0.401531
vt 0.944154 0.401531
vt 0.944154 0.401531
vt 0.944154 0.401531
vt 0.944154 0.401531
vt 0.944154 0.401531
vt 0.944154 0.401531
vn -0.036807 -0.967792 0.249047
vn -0.036807 -0.967792 0.249047
vn -0.036807 -0.967792 0.249047
vn -0.095168 -0.908734 0.406382
vn -0.095168 -0.908734 0.406382
vn -0.095168 -0.908734 0.406382
vn -0.092237 -0.894185 0.438093
vn -0.092237 -0.894185 0.438092
vn -0.092237 -0.894185 0.438092
vn -0.352532 -0.836400 0.419710
vn -0.352532 -0.836400 0.419710
vn -0.352532 -0.836400 0.419710
vn 0.101012 -0.982698 0.155245
vn 0.101012 -0.982698 0.155245
vn 0.101012 -0.982698 0.155245
vn 0.282311 -0.899728 0.332852
vn 0.282311 -0.899728 0.332852
vn 0.282311 -0.899728 0.332852
vn 0.278977 -0.901289 0.331438
vn 0.278977 -0.901289 0.331438
vn 0.278977 -0.901289 0.331438
vn 0.420742 -0.872544 0.248283
vn 0.420742 -0.872544 0.248283
vn 0.420742 -0.872544 0.248283
vn 0.227453 0.195594 0.953943
vn 0.227453 0.195594 0.953943
vn 0.227453 0.195594 0.953943
vn 0.590738 0.365015 0.719579
vn 0.590738 0.365015 0.719579
vn 0.590738 0.365015 0.719579
vn 0.525867 0.417888 0.740833
vn 0.525867 0.417888 0.740833
vn 0.525867 0.417888 0.740833
vn 0.318160 0.406647 0.856395
vn 0.318160 0.406647 0.856395
vn 0.318160 0.406647 0.856395
vn 0.119843 0.869047 0.479994
vn 0.119843 0.869047 0.479994
vn 0.119843 0.869047 0.479994
vn -0.574357 0.478770 0.663998
vn -0.574357 0.478770 0.663998
vn -0.574357 0.478770 0.663998
vn -0.523570 0.718027 0.458597
vn -0.523570 0.718027 0.458597
vn -0.523570 0.718027 0.458597
vn -0.212085 0.480401 0.851020
vn -0.212085 0.480401 0.851020
vn -0.212085 0.480401 0.851020
vn 0.316189 0.217148 0.923510
vn 0.316189 0.217148 0.923510
vn 0.316189 0.217148 0.923510
vn -0.187590 0.497563 0.846901
vn -0.187590 0.497563 0.846901
vn -0.187590 0.497563 0.846901
vn 0.101861 0.705711 0.701139
vn 0.101861 0.705711 0.701139
vn 0.101861 0.705711 0.701139
vn -0.194650 0.800668 0.566606
vn -0.194650 0.800668 0.566606
vn -0.194650 0.800668 0.566606
vn -0.315104 0.855833 0.410194
vn -0.315104 0.855833 0.410194
vn -0.315104 0.855833 0.410194
vn -0.271827 0.861788 0.428289
vn -0.271827 0.861788 0.428289
vn -0.271827 0.861788 0.428289
vn -0.165753 0.922955 0.347391
vn -0.165753 0.922955 0.347391
vn -0.165753 0.922955 0.347391
vn -0.342123 0.883463 0.320070
vn -0.342123 0.883463 0.320070
vn -0.342123 0.883463 0.320070
vn -0.299854 0.928923 0.217232
vn -0.299854 0.928923 0.217232
vn -0.299854 0.928923 0.217232
vn 0.142966 0.846814 0.512315
vn 0.142966 0.846814 0.512315
vn 0.142966 0.846814 0.512315
vn -0.147128 0.924994 0.350341
vn -0.147128 0.924994 0.350341
vn -0.147128 0.924994 0.350341
vn 0.315292 0.831442 0.457488
vn 0.315292 0.831442 0.457488
vn 0.315292 0.831442 0.457488
vn 0.272222 0.950216 0.151607
vn 0.272222 0.950216 0.151607
vn 0.272222 0.950216 0.151607
vn -0.142211 0.968473 0.204537
vn -0.142211 0.968473 0.204537
vn -0.142211 0.968473 0.204537
vn 0.009932 0.995281 0.096523
vn 0.009932 0.995281 0.096523
vn 0.009932 0.995281 0.096523
vn 0.099969 0.992356 0.072363
vn 0.099969 0.992356 0.072363
vn 0.099969 0.992356 0.072363
vn 0.405751 0.866325 -0.291285
vn 0.405751 0.866325 -0.291285
vn 0.405751 0.866325 -0.291285
vn -0.161973 0.974249 -0.156857
vn -0.161973 0.974249 -0.156857
vn -0.161973 0.974249 -0.156857
vn 0.335197 0.525038 -0.782290
vn 0.335197 0.525038 -0.782290
vn 0.335197 0.525038 -0.782290
vn 0.289370 0.696427 -0.656700
vn 0.289370 0.696427 -0.656700
vn 0.289370 0.696427 -0.656700
vn -0.362511 0.925172 0.112439
vn -0.362511 0.925172 0.112439
vn -0.362511 0.925172 0.112439
vn -0.302605 0.931540 0.201651
vn -0.302605 0.931540 0.201651
vn -0.302605 0.931540 0.201651
vn -0.397205 0.915238 -0.067594
vn -0.397204 0.915237 -0.067594
vn -0.397205 0.915238 -0.067594
vn -0.488679 0.848225 -0.204226
vn -0.488679 0.848225 -0.204226
vn -0.488679 0.848225 -0.204226
vn -0.342247 0.929335 -0.138577
vn -0.342247 0.929335 -0.138577
vn -0.342247 0.929335 -0.138577
vn -0.561277 0.708107 -0.428430
vn -0.561277 0.708107 -0.428430
vn -0.561277 0.708107 -0.428430
vn -0.461103 0.566681 -0.682830
vn -0.461103 0.566681 -0.682830
vn -0.461103 0.566681 -0.682830
vn -0.242834 0.725047 -0.644468
vn -0.242834 0.725047 -0.644468
vn -0.242834 0.725047 -0.644468
vn -0.281089 0.641191 -0.714047
vn -0.281089 0.641191 -0.714047
vn -0.281089 0.641191 -0.714047
vn 0.037087 0.272740 -0.961373
vn 0.037087 0.272740 -0.961373
vn 0.037087 0.272740 -0.961373
vn 0.034890 0.303545 -0.952178
vn 0.034890 0.303545 -0.952178
vn 0.034890 0.303545 -0.952178
vn -0.111156 0.206034 -0.972211
vn -0.111156 0.206034 -0.972211
vn -0.111156 0.206034 -0.972211
vn -0.533021 0.293494 -0.793568
vn -0.533021 0.293494 -0.793568
vn -0.533021 0.293494 -0.793568
vn -0.520727 0.220709 -0.824701
vn -0.520727 0.220709 -0.824701
vn -0.520727 0.220709 -0.824701
vn 0.375498 0.568775 -0.731776
vn 0.375498 0.568775 -0.731776
vn 0.375498 0.568775 -0.731776
vn 0.387565 0.702024 -0.597458
vn 0.387566 0.702024 -0.597458
vn 0.387566 0.702024 -0.597458
vn 0.633897 0.039716 -0.772397
vn 0.633897 0.039716 -0.772397
vn 0.633897 0.039716 -0.772397
vn 0.471272 0.221822 -0.853638
vn 0.471272 0.221822 -0.853638
vn 0.471272 0.221822 -0.853638
vn 0.217731 0.179662 -0.959330
vn 0.217731 0.179662 -0.959330
vn 0.217731 0.179662 -0.959330
vn 0.351460 -0.835214 -0.422958
vn 0.351460 -0.835214 -0.422958
vn 0.351460 -0.835214 -0.422958
vn 0.320935 -0.857707 -0.401672
vn 0.320935 -0.857707 -0.401672
vn 0.320935 -0.857707 -0.401672
vn 0.091463 -0.920557 -0.379749
vn 0.091463 -0.920557 -0.379749
vn 0.091463 -0.920557 -0.379749
vn -0.515881 0.233754 -0.824152
vn -0.515881 0.233754 -0.824152
vn -0.515881 0.233754 -0.824152
vn -0.061799 -0.891076 -0.449626
vn -0.061799 -0.891076 -0.449626
vn -0.061799 -0.891076 -0.449626
vn 0.074579 -0.927780 -0.365598
vn 0.074579 -0.927780 -0.365598
vn 0.074579 -0.927780 -0.365598
vn -0.198465 -0.890387 -0.409662
vn -0.198465 -0.890387 -0.409662
vn -0.198465 -0.890387 -0.409662
vn -0.215902 -0.940267 -0.263219
vn -0.215902 -0.940267 -0.263219
vn -0.215902 -0.940267 -0.263219
vn 0.024508 -0.997921 -0.059610
vn 0.024508 -0.997921 -0.059610
vn 0.024508 -0.997921 -0.059610
vn -0.076538 -0.992878 -0.091302
vn -0.076538 -0.992878 -0.091302
vn -0.076538 -0.992878 -0.091302
vn -0.151232 -0.988364 -0.016283
vn -0.151232 -0.988364 -0.016283
vn -0.151232 -0.988364 -0.016283
vn 0.100187 -0.993880 -0.046534
vn 0.100187 -0.993880 -0.046534
vn 0.100187 -0.993880 -0.046534
vn 0.002330 -0.998943 -0.045902
vn 0.002330 -0.998943 -0.045902
vn 0.002330 -0.998943 -0.045902
vn 0.188014 -0.974991 -0.118500
vn 0.188014 -0.974991 -0.118500
vn 0.188014 -0.974991 -0.118500
vn -0.002884 -0.999628 0.027133
vn -0.002884 -0.999628 0.027133
vn -0.002884 -0.999628 0.027133
vn 0.175409 -0.983568 0.042733
vn 0.175409 -0.983568 0.042733
vn 0.175409 -0.983568 0.042733
vn 0.090411 -0.987849 0.126417
vn 0.090411 -0.987848 0.126417
vn 0.090411 -0.987848 0.126417
vn -0.093211 -0.994203 0.053595
vn -0.093211 -0.994203 0.053595
vn -0.093211 -0.994203 0.053595
vn 0.318756 -0.944225 0.082672
vn 0.318756 -0.944224 0.082672
vn 0.318756 -0.944224 0.082672
vn 0.425155 -0.905011 0.014100
vn 0.425155 -0.905011 0.014100
vn 0.425155 -0.905011 0.014100
vn 0.994390 0.105610 0.006010
vn 0.994390 0.105610 0.006010
vn 0.994390 0.105610 0.006010
vn 0.823188 -0.355510 0.442690
vn 0.823188 -0.355510 0.442690
vn 0.823188 -0.355510 0.442690
vn 0.404167 -0.902943 -0.146091
vn 0.404167 -0.902943 -0.146091
vn 0.404167 -0.902943 -0.146091
vn 0.531308 -0.803720 -0.267855
vn 0.531308 -0.803720 -0.267855
vn 0.531308 -0.803720 -0.267855
vn 0.928363 -0.051149 -0.368139
vn 0.928363 -0.051149 -0.368139
vn 0.928363 -0.051149 -0.368139
vn 0.776091 0.269441 -0.570162
vn 0.776091 0.269441 -0.570162
vn 0.776091 0.269441 -0.570162
vn 0.760944 0.381269 -0.524974
vn 0.760944 0.381269 -0.524974
vn 0.760944 0.381269 -0.524974
vn 0.781800 0.416650 -0.463887
vn 0.781800 0.416650 -0.463887
vn 0.781800 0.416650 -0.463887
vn 0.742301 0.557557 -0.371644
vn 0.742301 0.557557 -0.371644
vn 0.742301 0.557557 -0.371644
vn 0.766245 0.332851 0.549617
vn 0.766245 0.332851 0.549617
vn 0.766245 0.332851 0.549617
vn 0.742686 0.356870 0.566622
vn 0.742686 0.356870 0.566622
vn 0.742686 0.356870 0.566622
vn 0.990656 -0.124948 0.054677
vn 0.990656 -0.124948 0.054677
vn 0.990656 -0.124948 0.054677
vn 0.975521 0.075503 -0.206537
vn 0.975521 0.075503 -0.206537
vn 0.975521 0.075503 -0.206537
vn 0.929098 0.282915 0.238195
vn 0.929098 0.282915 0.238195
vn 0.929098 0.282915 0.238195
vn 0.916941 0.396508 0.044734
vn 0.916941 0.396508 0.044734
vn 0.916941 0.396508 0.044734
vn 0.936137 0.291847 -0.196143
vn 0.936137 0.291847 -0.196143
vn 0.936138 0.291847 -0.196143
vn 0.777557 0.622782 0.086880
vn 0.777557 0.622782 0.086880
vn 0.777557 0.622782 0.086880
vn 0.735050 0.676862 0.039481
vn 0.735050 0.676862 0.039481
vn 0.735050 0.676862 0.039481
vn 0.624164 0.627244 0.465815
vn 0.624164 0.627244 0.465815
vn 0.624164 0.627244 0.465815
vn -0.330009 -0.903071 -0.274877
vn -0.330009 -0.903071 -0.274877
vn -0.330009 -0.903071 -0.274877
vn -0.277334 -0.958768 -0.062042
vn -0.277334 -0.958768 -0.062042
vn -0.277334 -0.958768 -0.062042
vn -0.115817 -0.987395 0.107879
vn -0.115817 -0.987395 0.107879
vn -0.115817 -0.987395 0.107879
vn -0.314392 -0.886346 0.339923
vn -0.314392 -0.886346 0.339923
vn -0.314392 -0.886346 0.339923
vn -0.228670 -0.971433 -0.063470
vn -0.228670 -0.971433 -0.063470
vn -0.228670 -0.971433 -0.063470
vn -0.549024 -0.830821 0.091158
vn -0.549024 -0.830821 0.091158
vn -0.549024 -0.830821 0.091158
vn -0.472454 -0.811176 0.344646
vn -0.472454 -0.811176 0.344646
vn -0.472454 -0.811176 0.344646
vn -0.952927 0.288316 0.093829
vn -0.952927 0.288316 0.093829
vn -0.952927 0.288316 0.093829
vn -0.537544 0.730903 0.420509
vn -0.537544 0.730903 0.420509
vn -0.537544 0.730903 0.420509
vn -0.663325 0.707142 0.244848
vn -0.663325 0.707142 0.244848
vn -0.663325 0.707142 0.244848
vn -0.597124 0.740617 0.308107
vn -0.597124 0.740617 0.308107
vn -0.597124 0.740617 0.308107
vn -0.538466 0.736769 0.408932
vn -0.538466 0.736769 0.408932
vn -0.538466 0.736769 0.408932
vn -0.405898 0.909609 0.088647
vn -0.405898 0.909609 0.088647
vn -0.405898 0.909609 0.088647
vn -0.825839 -0.012860 -0.563760
vn -0.825839 -0.012860 -0.563760
vn -0.825839 -0.012860 -0.563760
vn -0.850858 0.243023 -0.465813
vn -0.850858 0.243023 -0.465813
vn -0.850858 0.243023 -0.465813
vn -0.922669 0.249653 -0.293861
vn -0.922669 0.249653 -0.293861
vn -0.922669 0.249654 -0.293861
vn -0.870551 0.367984 -0.326693
vn -0.870551 0.367984 -0.326693
vn -0.870551 0.367984 -0.326693
vn -0.714093 0.677910 -0.174670
vn -0.714093 0.677910 -0.174670
vn -0.714093 0.677910 -0.174670
vn -0.673724 0.718651 -0.172152
vn -0.673724 0.718651 -0.172152
vn -0.673724 0.718651 -0.172152
vn -0.558019 0.823899 -0.099020
vn -0.558019 0.823899 -0.099020
vn -0.558019 0.823899 -0.099020
vn -0.711374 0.492026 -0.501854
vn -0.711374 0.492026 -0.501854
vn -0.711374 0.492026 -0.501854
vn -0.672053 0.612455 -0.416226
vn -0.672053 0.612455 -0.416226
vn -0.672053 0.612455 -0.416226
s off
f 44/1/1 43/2/2 18/3/3
f 44/1/4 18/3/5 16/4/6
f 16/4/7 18/3/8 17/5/9
f 44/1/10 16/4/11 5/6/12
f 43/2/13 19/7/14 18/3/15
f 19/7/16 20/8/17 21/9/18
f 18/3/19 19/7/20 21/9/21
f 19/7/22 45/10/23 20/8/24
f 18/3/25 21/9/26 22/11/27
f 21/9/28 20/8/29 2/12/30
f 21/9/31 2/12/32 6/13/33
f 22/11/34 21/9/35 6/13/36
f 6/13/37 2/12/38 23/14/39
f 5/6/40 16/4/41 25/15/42
f 5/6/43 25/15/44 24/16/45
f 16/4/46 17/5/47 25/15/48
f 17/5/49 18/3/50 22/11/51
f 25/15/52 17/5/53 22/11/54
f 22/11/55 6/13/56 23/14/57
f 25/15/58 22/11/59 23/14/60
f 24/16/61 25/15/62 7/17/63
f 25/15/64 23/14/65 7/17/66
f 7/17/67 23/14/68 8/18/69
f 24/16/70 7/17/71 58/19/72
f 7/17/73 8/18/74 58/19/75
f 23/14/76 2/12/77 3/20/78
f 8/18/79 23/14/80 3/20/81
f 2/12/82 9/21/83 3/20/84
f 3/20/85 9/21/86 1/22/87
f 8/18/88 3/20/89 26/23/90
f 3/20/91 10/24/92 26/23/93
f 3/20/94 1/22/95 10/24/96
f 1/22/97 27/25/98 10/24/99
f 26/23/100 10/24/101 28/26/102
f 10/24/103 27/25/104 28/26/105
f 28/26/106 27/25/107 12/27/108
f 58/19/109 26/23/110 29/28/111
f 58/19/112 8/18/113 26/23/114
f 26/23/115 28/26/116 13/29/117
f 29/28/118 13/29/119 60/30/120
f 29/28/121 26/23/122 13/29/123
f 60/30/124 13/29/125 14/31/126
f 13/29/127 30/32/128 14/31/129
f 13/29/130 28/26/131 12/27/132
f 13/29/133 12/27/134 30/32/135
f 12/27/136 31/33/137 30/32/138
f 30/32/139 31/33/140 34/34/141
f 30/32/142 34/34/143 35/35/144
f 14/31/145 30/32/146 59/36/147
f 59/36/148 30/32/149 35/35/150
f 12/27/151 27/25/152 11/37/153
f 12/27/154 11/37/155 31/33/156
f 11/37/157 32/38/158 33/39/159
f 31/33/160 11/37/161 33/39/162
f 31/33/163 33/39/164 34/34/165
f 33/39/166 32/38/167 4/40/168
f 33/39/169 4/40/170 39/41/171
f 34/34/172 33/39/173 39/41/174
f 59/36/175 35/35/176 52/42/177
f 35/35/178 34/34/179 36/43/180
f 34/34/181 39/41/182 36/43/183
f 52/42/184 35/35/185 36/43/186
f 52/42/187 36/43/188 37/44/189
f 36/43/190 42/45/191 41/46/192
f 37/44/193 36/43/194 41/46/195
f 37/44/196 41/46/197 38/47/198
f 39/41/199 40/48/200 42/45/201
f 36/43/202 39/41/203 42/45/204
f 39/41/205 4/40/206 40/48/207
f 41/46/208 42/45/209 43/2/210
f 42/45/211 40/48/212 19/7/213
f 42/45/214 19/7/215 43/2/216
f 38/47/217 41/46/218 43/2/219
f 19/7/220 40/48/221 45/10/222
f 45/10/223 40/48/224 47/49/225
f 45/10/226 47/49/227 46/50/228
f 45/10/229 46/50/230 20/8/231
f 40/48/232 4/40/233 47/49/234
f 47/49/235 4/40/236 32/38/237
f 47/49/238 32/38/239 48/51/240
f 32/38/241 11/37/242 48/51/243
f 48/51/244 11/37/245 27/25/246
f 49/52/247 48/51/248 27/25/249
f 49/52/250 27/25/251 1/22/252
f 20/8/253 46/50/254 51/53/255
f 20/8/256 51/53/257 2/12/258
f 46/50/259 47/49/260 50/54/261
f 47/49/262 48/51/263 50/54/264
f 46/50/265 50/54/266 51/53/267
f 50/54/268 49/52/269 51/53/270
f 50/54/271 48/51/272 49/52/273
f 51/53/274 49/52/275 9/21/276
f 49/52/277 1/22/278 9/21/279
f 51/53/280 9/21/281 2/12/282
f 37/44/283 53/55/284 52/42/285
f 37/44/286 38/47/287 53/55/288
f 38/47/289 43/2/290 44/1/291
f 38/47/292 44/1/293 5/6/294
f 53/55/295 38/47/296 54/56/297
f 38/47/298 55/57/299 54/56/300
f 38/47/301 5/6/302 55/57/303
f 54/56/304 55/57/305 56/58/306
f 55/57/307 5/6/308 24/16/309
f 56/58/310 55/57/311 57/59/312
f 57/59/313 55/57/314 58/19/315
f 55/57/316 24/16/317 58/19/318
f 57/59/319 58/19/320 29/28/321
f 52/42/322 53/55/323 59/36/324
f 59/36/325 53/55/326 15/60/327
f 54/56/328 56/58/329 53/55/330
f 53/55/331 56/58/332 15/60/333
f 56/58/334 57/59/335 15/60/336
f 15/60/337 57/59/338 60/30/339
f 60/30/340 57/59/341 29/28/342
f 59/36/343 15/60/344 14/31/345
f 14/31/346 15/60/347 60/30/348
