# This file uses centimeters as units for non-parametric coordinates.

v -21.935463 -8.109975 -133.654404
v 24.321556 -8.109975 -133.654404
v -21.935463 -5.973572 134.772491
v 24.321556 -5.150889 134.772491
v -21.935463 8.109975 134.772491
v 24.321556 8.109975 134.772491
v -21.935463 8.109975 -133.654404
v 24.321556 8.109975 -133.654404
v 24.321556 -5.150889 59.443665
v -24.321556 -4.650363 59.443665
v -24.321556 3.416572 59.443665
v 24.321556 1.092013 59.443665
v 24.321556 -8.109975 -7.783508
v -21.935463 -4.650363 -7.783508
v -19.061852 3.531792 -7.783508
v 24.321556 1.092013 -7.783508
v -15.827751 -8.109973 137.216568
v -15.827751 8.109975 137.216568
v -14.092445 8.109975 57.624817
v -13.570976 6.034452 -7.783508
v -15.827751 8.109975 -137.216370
v -15.827751 -8.109973 -137.216370
v -15.827751 -8.109975 -7.783508
v -11.596107 -8.109975 56.096268
v 19.493675 -8.109975 137.216568
v 19.493675 8.109975 137.216568
v 14.700127 8.109975 56.067657
v 19.493675 8.109975 -7.783508
v 19.493675 8.109975 -137.216370
v 19.493675 -8.109975 -137.216370
v 19.493675 -8.109975 -7.783508
v 19.493675 -8.109975 59.443665
v -22.192192 7.604927 -0.549316
v -15.649605 8.109975 -1.060867
v -7.214165 8.109975 -7.783508
v -15.827751 8.109975 -23.430252
v -21.935463 8.109975 -24.196243
v -13.838768 16.797930 131.234360
v -12.298870 16.797930 55.112457
v 17.504692 16.797930 131.234360
v 13.250923 16.797930 53.623199
v -10.870171 16.797930 1.555252
v -3.384781 16.797930 -6.418991
v 17.504692 16.797930 -7.444000
v -11.028290 16.797930 -24.978638
v -13.838768 16.797930 -131.234161
v 17.504692 16.797930 -131.234161
vt 0.990033 0.404773
vt 0.990033 0.404773
vt 0.990033 0.404773
vt 0.990033 0.404773
vt 0.990033 0.404773
vt 0.990033 0.404773
vt 0.990033 0.404773
vt 0.990033 0.404773
vt 0.990033 0.404773
vt 0.990033 0.404773
vt 0.990033 0.404773
vt 0.990033 0.404773
vt 0.990033 0.404773
vt 0.990033 0.404773
vt 0.990033 0.404773
vt 0.990033 0.404773
vt 0.990033 0.404773
vt 0.990033 0.404773
vt 0.990033 0.404773
vt 0.990033 0.404773
vt 0.990033 0.404773
vt 0.990033 0.404773
vt 0.990033 0.404773
vt 0.990033 0.404773
vt 0.990033 0.404773
vt 0.990033 0.404773
vt 0.990033 0.404773
vt 0.990033 0.404773
vt 0.990033 0.404773
vt 0.990033 0.404773
vt 0.990033 0.404773
vt 0.990033 0.404773
vt 0.990033 0.404773
vt 0.990033 0.404773
vt 0.990033 0.404773
vt 0.990033 0.404773
vt 0.990033 0.404773
vt 0.990033 0.404773
vt 0.990033 0.404773
vt 0.990033 0.404773
vt 0.990033 0.404773
vt 0.990033 0.404773
vt 0.990033 0.404773
vt 0.990033 0.404773
vt 0.990033 0.404773
vt 0.990033 0.404773
vt 0.990033 0.404773
vt 0.990033 0.404773
vt 0.990033 0.404773
vt 0.990033 0.404773
vt 0.990033 0.404773
vt 0.990033 0.404773
vt 0.990033 0.404773
vt 0.990033 0.404773
vt 0.990033 0.404773
vt 0.990033 0.404773
vt 0.990033 0.404773
vt 0.990033 0.404773
vt 0.564238 0.785976
vt 0.564238 0.785976
vt 0.564238 0.785976
vt 0.564238 0.785976
vt 0.990033 0.404773
vt 0.990033 0.404773
vt 0.990033 0.404773
vt 0.990033 0.404773
vt 0.990033 0.404773
vt 0.990033 0.404773
vt 0.990033 0.404773
vt 0.990033 0.404773
vt 0.990033 0.404773
vt 0.990033 0.404773
vt 0.990033 0.404773
vt 0.990033 0.404773
vt 0.990033 0.404773
vt 0.990033 0.404773
vt 0.990033 0.404773
vt 0.990033 0.404773
vt 0.990033 0.404773
vt 0.990033 0.404773
vt 0.990033 0.404773
vt 0.990033 0.404773
vt 0.990033 0.404773
vt 0.990033 0.404773
vt 0.990033 0.404773
vt 0.990033 0.404773
vt 0.990033 0.404773
vt 0.990033 0.404773
vt 0.990033 0.404773
vt 0.990033 0.404773
vt 0.990033 0.404773
vt 0.990033 0.404773
vt 0.990033 0.404773
vt 0.990033 0.404773
vt 0.990033 0.404773
vt 0.990033 0.404773
vt 0.990033 0.404773
vt 0.990033 0.404773
vt 0.990033 0.404773
vt 0.990033 0.404773
vt 0.990033 0.404773
vt 0.990033 0.404773
vt 0.990033 0.404773
vt 0.990033 0.404773
vt 0.990033 0.404773
vt 0.990033 0.404773
vt 0.990033 0.404773
vt 0.990033 0.404773
vt 0.990033 0.404773
vt 0.990033 0.404773
vt 0.990033 0.404773
vt 0.990033 0.404773
vt 0.990033 0.404773
vt 0.990033 0.404773
vt 0.990033 0.404773
vt 0.990033 0.404773
vt 0.990033 0.404773
vt 0.990033 0.404773
vt 0.990033 0.404773
vt 0.990033 0.404773
vt 0.564238 0.785976
vt 0.564238 0.785976
vt 0.564238 0.785976
vt 0.564238 0.785976
vt 0.564238 0.785976
vt 0.564238 0.785976
vt 0.990033 0.404773
vt 0.990033 0.404773
vt 0.990033 0.404773
vt 0.990033 0.404773
vt 0.564238 0.785976
vt 0.564238 0.785976
vt 0.564238 0.785976
vt 0.564238 0.785976
vt 0.564238 0.785976
vt 0.564238 0.785976
vt 0.564238 0.785976
vt 0.564238 0.785976
vt 0.564238 0.785976
vt 0.564238 0.785976
vn 0.000000 -1.000000 -0.000000
vn 0.000000 -1.000000 -0.000000
vn 0.000000 -1.000000 -0.000000
vn -0.492718 -0.869861 0.023908
vn -0.492718 -0.869861 0.023908
vn -0.492718 -0.869861 0.023908
vn -0.371518 0.000000 0.928426
vn -0.371518 0.000000 0.928426
vn -0.371518 0.000000 0.928426
vn -0.371522 0.000000 0.928424
vn -0.371522 0.000000 0.928424
vn -0.371522 0.000000 0.928424
vn -0.408141 0.895467 0.177650
vn -0.408141 0.895467 0.177650
vn -0.408141 0.895467 0.177650
vn -0.034377 0.961085 0.274105
vn -0.034377 0.961085 0.274105
vn -0.034377 0.961085 0.274105
vn -0.503783 0.000000 -0.863830
vn -0.503783 0.000000 -0.863830
vn -0.503783 0.000000 -0.863830
vn -0.503777 0.000000 -0.863834
vn -0.503777 0.000000 -0.863834
vn -0.503777 0.000000 -0.863834
vn 1.000000 0.000000 0.000000
vn 1.000000 0.000000 0.000000
vn 1.000000 0.000000 0.000000
vn 1.000000 0.000000 0.000000
vn 1.000000 0.000000 0.000000
vn 1.000000 0.000000 0.000000
vn -0.913670 0.320885 0.249477
vn -0.913670 0.320885 0.249477
vn -0.913670 0.320885 0.249477
vn -0.265712 -0.963953 -0.013861
vn -0.265712 -0.963953 -0.013861
vn -0.265712 -0.963953 -0.013861
vn -0.327952 -0.944674 -0.006206
vn -0.327952 -0.944674 -0.006206
vn -0.327952 -0.944674 -0.006206
vn -0.999499 0.000000 0.031660
vn -0.999499 0.000000 0.031660
vn -0.999499 0.000000 0.031660
vn -0.999499 0.000000 0.031660
vn -0.999499 0.000000 0.031660
vn -0.999499 0.000000 0.031660
vn 0.000000 1.000000 -0.000000
vn 0.000000 1.000000 -0.000000
vn 0.000000 1.000000 -0.000000
vn -0.422946 0.905134 -0.042998
vn -0.422946 0.905134 -0.042998
vn -0.422946 0.905134 -0.042998
vn 1.000000 0.000000 0.000000
vn 1.000000 0.000000 0.000000
vn 1.000000 0.000000 0.000000
vn 1.000000 0.000000 0.000000
vn 1.000000 0.000000 0.000000
vn 1.000000 0.000000 0.000000
vn -0.492596 -0.869646 0.032631
vn -0.492596 -0.869646 0.032631
vn -0.492596 -0.869646 0.032631
vn -0.264632 -0.964304 -0.009393
vn -0.264632 -0.964304 -0.009393
vn -0.264632 -0.964304 -0.009393
vn -0.810888 0.284788 -0.511230
vn -0.810888 0.284788 -0.511230
vn -0.810888 0.284788 -0.511230
vn -0.106154 0.846111 -0.522328
vn -0.106154 0.846111 -0.522329
vn -0.106154 0.846111 -0.522329
vn -0.383849 0.842171 -0.378694
vn -0.383849 0.842171 -0.378694
vn -0.383849 0.842171 -0.378694
vn 1.000000 0.000000 0.000000
vn 1.000000 0.000000 0.000000
vn 1.000000 0.000000 0.000000
vn 1.000000 0.000000 0.000000
vn 1.000000 0.000000 0.000000
vn 1.000000 0.000000 0.000000
vn 0.000000 0.000000 1.000000
vn 0.000000 0.000000 1.000000
vn 0.000000 0.000000 1.000000
vn 0.000000 0.000000 1.000000
vn 0.000000 0.000000 1.000000
vn 0.000000 0.000000 1.000000
vn 0.000000 1.000000 0.000000
vn 0.000000 1.000000 0.000000
vn 0.000000 1.000000 0.000000
vn 0.000000 1.000000 -0.000000
vn 0.000000 1.000000 -0.000000
vn 0.000000 1.000000 -0.000000
vn -0.289219 0.885806 -0.362906
vn -0.289219 0.885806 -0.362906
vn -0.289219 0.885806 -0.362906
vn -0.305945 0.937033 0.168424
vn -0.305945 0.937033 0.168424
vn -0.305945 0.937033 0.168424
vn 0.000000 0.000000 -1.000000
vn 0.000000 0.000000 -1.000000
vn 0.000000 0.000000 -1.000000
vn 0.000000 0.000000 -1.000000
vn 0.000000 0.000000 -1.000000
vn 0.000000 0.000000 -1.000000
vn 0.000000 -1.000000 -0.000000
vn 0.000000 -1.000000 -0.000000
vn 0.000000 -1.000000 -0.000000
vn -0.000000 -1.000000 0.000000
vn -0.000000 -1.000000 0.000000
vn -0.000000 -1.000000 0.000000
vn 0.000000 -1.000000 -0.000000
vn 0.000000 -1.000000 -0.000000
vn 0.000000 -1.000000 -0.000000
vn 0.000000 -1.000000 0.000000
vn 0.000000 -1.000000 0.000000
vn 0.000000 -1.000000 0.000000
vn -0.000000 -1.000000 0.000000
vn -0.000000 -1.000000 0.000000
vn -0.000000 -1.000000 0.000000
vn -0.000000 -1.000000 0.000000
vn -0.000000 -1.000000 0.000000
vn -0.000000 -1.000000 0.000000
vn 0.451657 0.000000 0.892192
vn 0.451657 0.000000 0.892192
vn 0.451657 0.000000 0.892192
vn 0.451667 0.000000 0.892187
vn 0.451667 0.000000 0.892187
vn 0.451667 0.000000 0.892187
vn 0.596981 0.801480 -0.035264
vn 0.596981 0.801480 -0.035264
vn 0.596981 0.801480 -0.035264
vn -0.046909 0.994592 -0.092661
vn -0.046909 0.994592 -0.092661
vn -0.046909 0.994592 -0.092661
vn 0.822304 0.565689 0.061734
vn 0.822304 0.565689 0.061734
vn 0.822305 0.565689 0.061734
vn 0.589300 0.807914 0.000000
vn 0.589300 0.807914 0.000000
vn 0.589300 0.807914 0.000000
vn 0.000000 1.000000 0.000000
vn 0.000000 1.000000 0.000000
vn 0.000000 1.000000 0.000000
vn 0.823465 0.566488 0.031585
vn 0.823465 0.566487 0.031585
vn 0.823465 0.566488 0.031585
vn 0.593690 0.000000 -0.804694
vn 0.593690 0.000000 -0.804694
vn 0.593690 0.000000 -0.804694
vn 0.593697 0.000000 -0.804689
vn 0.593697 0.000000 -0.804689
vn 0.593697 0.000000 -0.804689
vn 0.000000 -1.000000 0.000000
vn 0.000000 -1.000000 0.000000
vn 0.000000 -1.000000 0.000000
vn 0.000000 -1.000000 0.000000
vn 0.000000 -1.000000 0.000000
vn 0.000000 -1.000000 0.000000
vn 0.000000 -1.000000 0.000000
vn 0.000000 -1.000000 0.000000
vn 0.000000 -1.000000 0.000000
vn 0.522203 -0.851997 0.037502
vn 0.522203 -0.851996 0.037502
vn 0.522203 -0.851997 0.037502
vn 0.522570 -0.852596 0.000000
vn 0.522570 -0.852596 0.000000
vn 0.522570 -0.852596 0.000000
vn 0.522570 -0.852596 0.000000
vn 0.522570 -0.852596 0.000000
vn 0.522570 -0.852596 0.000000
vn -0.999371 0.000003 -0.035471
vn -0.999371 0.000003 -0.035471
vn -0.999371 0.000003 -0.035471
vn -0.999371 0.000000 -0.035471
vn -0.999371 0.000000 -0.035471
vn -0.999371 0.000000 -0.035471
vn -0.409302 0.911078 0.049079
vn -0.409302 0.911078 0.049079
vn -0.409302 0.911078 0.049079
vn -0.076806 0.997044 0.002038
vn -0.076806 0.997044 0.002038
vn -0.076806 0.997044 0.002038
vn 0.000000 1.000000 0.000000
vn 0.000000 1.000000 0.000000
vn 0.000000 1.000000 0.000000
vn 0.000000 1.000000 -0.000000
vn 0.000000 1.000000 -0.000000
vn 0.000000 1.000000 -0.000000
vn 0.000000 1.000000 0.000000
vn 0.000000 1.000000 0.000000
vn 0.000000 1.000000 0.000000
vn 0.000000 1.000000 0.000000
vn 0.000000 1.000000 0.000000
vn 0.000000 1.000000 0.000000
vn 0.000000 1.000000 0.000000
vn 0.000000 1.000000 0.000000
vn 0.000000 1.000000 0.000000
vn 0.000000 1.000000 -0.000000
vn 0.000000 1.000000 -0.000000
vn 0.000000 1.000000 -0.000000
vn 0.000000 1.000000 0.000000
vn 0.000000 1.000000 0.000000
vn 0.000000 1.000000 0.000000
vn 0.000000 1.000000 0.000000
vn 0.000000 1.000000 0.000000
vn 0.000000 1.000000 0.000000
vn -1.000000 0.000000 0.000000
vn -1.000000 0.000000 0.000000
vn -1.000000 0.000000 0.000000
vn -1.000000 0.000000 0.000000
vn -1.000000 0.000000 0.000000
vn -1.000000 0.000000 0.000000
vn -0.977653 0.209143 -0.021315
vn -0.977653 0.209143 -0.021315
vn -0.977653 0.209143 -0.021315
vn -0.980276 0.196638 -0.019830
vn -0.980276 0.196638 -0.019830
vn -0.980276 0.196638 -0.019830
vn 0.000000 0.567123 0.823633
vn 0.000000 0.567123 0.823633
vn 0.000000 0.567123 0.823633
vn 0.000000 0.567123 0.823633
vn 0.000000 0.567124 0.823633
vn 0.000000 0.567123 0.823633
vn 0.981085 0.184701 -0.057954
vn 0.981085 0.184701 -0.057954
vn 0.981085 0.184701 -0.057954
vn 0.987286 0.149460 -0.054112
vn 0.987286 0.149460 -0.054112
vn 0.987286 0.149460 -0.054112
vn -0.539510 0.500645 -0.676967
vn -0.539510 0.500645 -0.676967
vn -0.539510 0.500645 -0.676967
vn -0.670081 0.394141 -0.629002
vn -0.670081 0.394141 -0.629002
vn -0.670081 0.394141 -0.629002
vn -0.878882 0.476470 0.023320
vn -0.878882 0.476470 0.023320
vn -0.878881 0.476470 0.023320
vn -0.980484 0.194852 -0.026156
vn -0.980484 0.194852 -0.026156
vn -0.980484 0.194852 -0.026156
vn 0.980132 0.184195 0.073582
vn 0.980132 0.184195 0.073582
vn 0.980132 0.184195 0.073582
vn 0.973112 0.220131 0.067784
vn 0.973112 0.220131 0.067784
vn 0.973112 0.220131 0.067784
vn -0.974781 0.223162 0.000000
vn -0.974781 0.223162 0.000000
vn -0.974781 0.223162 0.000000
vn -0.873336 0.486571 0.023100
vn -0.873336 0.486571 0.023100
vn -0.873336 0.486571 0.023100
vn -0.761110 0.495132 0.418994
vn -0.761110 0.495132 0.418994
vn -0.761110 0.495132 0.418994
vn -0.873354 0.328457 0.359678
vn -0.873354 0.328457 0.359678
vn -0.873354 0.328457 0.359678
vn 0.974781 0.223162 0.000000
vn 0.974781 0.223162 0.000000
vn 0.974781 0.223162 0.000000
vn 0.974781 0.223162 0.000000
vn 0.974781 0.223162 0.000000
vn 0.974781 0.223162 0.000000
vn 0.000000 0.567123 -0.823633
vn 0.000000 0.567123 -0.823633
vn 0.000000 0.567123 -0.823633
vn 0.000000 0.567123 -0.823633
vn 0.000000 0.567124 -0.823633
vn 0.000000 0.567123 -0.823633
s off
f 22/2/1 23/3/2 1/1/3
f 1/1/4 23/3/5 14/4/6
f 17/6/7 18/7/8 3/5/9
f 3/5/10 18/7/11 5/8/12
f 20/10/13 36/11/14 15/9/15
f 15/9/16 36/11/17 37/12/18
f 7/13/19 21/14/20 1/16/21
f 1/16/22 21/14/23 22/15/24
f 8/18/25 16/19/26 2/17/27
f 2/17/28 16/19/29 13/20/30
f 37/21/31 14/22/32 15/23/33
f 24/25/34 17/26/35 10/24/36
f 10/24/37 17/26/38 3/27/39
f 10/29/40 3/30/41 11/28/42
f 11/28/43 3/30/44 5/31/45
f 18/33/46 19/34/47 5/32/48
f 5/32/49 19/34/50 11/35/51
f 9/36/52 12/37/53 4/39/54
f 4/39/55 12/37/56 6/38/57
f 23/41/58 24/42/59 14/40/60
f 14/40/61 24/42/62 10/43/63
f 15/44/64 14/45/65 33/46/66
f 33/47/67 34/48/68 15/50/69
f 15/50/70 34/48/71 20/49/72
f 13/51/73 16/52/74 9/54/75
f 9/54/76 16/52/77 12/53/78
f 17/55/79 25/56/80 18/58/81
f 18/58/82 25/56/83 26/57/84
f 38/60/85 40/61/86 39/59/87
f 39/59/88 40/61/89 41/62/90
f 20/63/91 34/64/92 35/65/93
f 35/66/94 36/67/95 20/68/96
f 22/69/97 21/70/98 30/72/99
f 30/72/100 21/70/101 29/71/102
f 23/73/103 22/74/104 31/76/105
f 31/76/106 22/74/107 30/75/108
f 23/78/109 31/79/110 24/77/111
f 24/77/112 31/79/113 32/80/114
f 24/82/115 32/83/116 17/81/117
f 17/81/118 32/83/119 25/84/120
f 25/85/121 4/86/122 26/88/123
f 26/88/124 4/86/125 6/87/126
f 27/89/127 26/90/128 12/92/129
f 12/92/130 26/90/131 6/91/132
f 28/93/133 27/94/134 16/96/135
f 16/96/136 27/94/137 12/95/138
f 29/97/139 28/98/140 8/100/141
f 8/100/142 28/98/143 16/99/144
f 30/101/145 29/102/146 2/104/147
f 2/104/148 29/102/149 8/103/150
f 30/106/151 2/107/152 31/105/153
f 31/105/154 2/107/155 13/108/156
f 31/110/157 13/111/158 32/109/159
f 32/109/160 13/111/161 9/112/162
f 25/113/163 32/114/164 4/116/165
f 4/116/166 32/114/167 9/115/168
f 14/45/169 10/117/170 33/46/171
f 33/46/172 10/117/173 11/118/174
f 11/119/175 19/120/176 33/47/177
f 33/47/178 19/120/179 34/48/180
f 44/123/181 43/121/182 41/62/183
f 43/121/184 42/122/185 41/62/186
f 42/122/187 39/59/188 41/62/189
f 46/124/190 45/125/191 47/126/192
f 44/123/193 47/126/194 43/121/195
f 45/125/196 43/121/197 47/126/198
f 37/12/199 36/11/200 7/128/201
f 7/128/202 36/11/203 21/127/204
f 7/129/205 1/130/206 37/21/207
f 37/21/208 1/130/209 14/22/210
f 18/132/211 38/60/212 19/131/213
f 19/131/214 38/60/215 39/59/216
f 18/132/217 26/133/218 38/60/219
f 38/60/220 26/133/221 40/61/222
f 26/133/223 27/134/224 40/61/225
f 40/61/226 27/134/227 41/62/228
f 34/136/229 42/122/230 35/135/231
f 35/135/232 42/122/233 43/121/234
f 34/136/235 19/131/236 42/122/237
f 42/122/238 19/131/239 39/59/240
f 27/134/241 28/137/242 41/62/243
f 41/62/244 28/137/245 44/123/246
f 21/138/247 36/139/248 46/124/249
f 46/124/250 36/139/251 45/125/252
f 36/139/253 35/135/254 45/125/255
f 45/125/256 35/135/257 43/121/258
f 29/140/259 47/126/260 28/137/261
f 28/137/262 47/126/263 44/123/264
f 29/140/265 21/138/266 47/126/267
f 47/126/268 21/138/269 46/124/270
