# This file uses centimeters as units for non-parametric coordinates.

v 73.197556 35.834244 -42.037582
v 85.889435 35.834244 -101.892944
v 28.040314 35.834244 -129.403397
v -17.214203 35.834244 -180.793762
v -94.613266 35.834244 -163.731201
v -103.702164 35.834244 -86.951164
v -84.096146 35.834244 -42.844105
v -119.138336 35.834244 -23.113537
v -100.162506 35.834244 25.026798
v -114.953613 35.834244 65.858269
v -96.029282 35.834244 155.575653
v -22.520828 35.834244 171.481506
v 10.544968 35.834244 104.557610
v 63.293839 35.834244 116.628075
v 101.808548 35.834244 78.113274
v 103.641891 35.834244 22.754955
v 119.138336 35.834244 0.436783
v -22.520828 35.834244 -2.612114
v 94.475174 -11.601008 -50.717831
v 103.478622 -11.601008 -117.812920
v -21.103668 -11.601002 -3.721905
v 38.215637 -11.601008 -154.263962
v -25.983429 -11.601008 -196.342087
v -105.397797 -11.601008 -170.261765
v -121.905518 -11.601008 -89.514442
v -105.145264 -11.601008 -39.419651
v -141.687393 -11.601008 -15.249634
v -119.755554 -11.601008 39.181900
v -126.441193 -11.601008 81.195549
v -100.276184 -11.601008 174.601837
v -21.103668 -11.601008 196.342087
v 19.987106 -11.601008 128.146835
v 77.512741 -11.601008 133.305923
v 121.772766 -11.601008 89.045525
v 123.879242 -11.601008 25.429344
v 141.687393 -11.601008 -0.218201
v 111.791229 24.810539 83.579346
v 113.759995 24.810539 24.092102
v 130.412674 24.810539 0.109386
v 83.836365 24.810539 -46.377659
v 94.683456 18.147432 -109.852982
v 33.128357 29.678038 -141.833588
v -21.598816 18.147432 -188.567932
v -100.006104 24.810539 -166.996475
v -112.804031 29.678038 -88.232903
v -94.620895 24.810539 -41.131878
v -130.412674 18.147432 -19.181538
v -109.959412 24.810539 32.104397
v -120.697403 29.678038 73.526955
v -98.152924 24.810539 165.088760
v -21.811676 18.147432 183.911896
v 15.266037 24.810539 116.352173
v 70.403671 18.147432 124.967003
vt 0.565560 0.663855
vt 0.565560 0.663855
vt 0.565560 0.663855
vt 0.565560 0.663855
vt 0.565560 0.663855
vt 0.565560 0.663855
vt 0.565560 0.663855
vt 0.565560 0.663855
vt 0.565560 0.663855
vt 0.565560 0.663855
vt 0.565560 0.663855
vt 0.565560 0.663855
vt 0.565560 0.663855
vt 0.565560 0.663855
vt 0.565560 0.663855
vt 0.565560 0.663855
vt 0.565560 0.663855
vt 0.565560 0.663855
vt 0.562345 0.707256
vt 0.562345 0.707256
vt 0.562345 0.707256
vt 0.562345 0.707256
vt 0.562345 0.707256
vt 0.562345 0.707256
vt 0.562345 0.707256
vt 0.562345 0.707256
vt 0.562345 0.707256
vt 0.562345 0.707256
vt 0.562345 0.707256
vt 0.562345 0.707256
vt 0.562345 0.707256
vt 0.562345 0.707256
vt 0.562345 0.707256
vt 0.562345 0.707256
vt 0.562345 0.707256
vt 0.562345 0.707256
vt 0.562345 0.707256
vt 0.562345 0.707256
vt 0.562345 0.707256
vt 0.562345 0.707256
vt 0.562345 0.707256
vt 0.562345 0.707256
vt 0.562345 0.707256
vt 0.562345 0.707256
vt 0.562345 0.707256
vt 0.562345 0.707256
vt 0.562345 0.707256
vt 0.562345 0.707256
vt 0.562345 0.707256
vt 0.562345 0.707256
vt 0.562345 0.707256
vt 0.562345 0.707256
vt 0.562345 0.707256
vt 0.562345 0.707256
vt 0.562345 0.707256
vt 0.562345 0.707256
vt 0.562345 0.707256
vt 0.562345 0.707256
vt 0.562345 0.707256
vt 0.562345 0.707256
vt 0.562345 0.707256
vt 0.562345 0.707256
vt 0.562345 0.707256
vt 0.562345 0.707256
vt 0.562345 0.707256
vt 0.562345 0.707256
vt 0.562345 0.707256
vt 0.562345 0.707256
vt 0.562345 0.707256
vt 0.562345 0.707256
vt 0.562345 0.707256
vt 0.562345 0.707256
vt 0.562345 0.707256
vt 0.562345 0.707256
vt 0.562345 0.707256
vt 0.562345 0.707256
vt 0.562345 0.707256
vt 0.562345 0.707256
vt 0.562345 0.707256
vt 0.562345 0.707256
vt 0.562345 0.707256
vt 0.562345 0.707256
vt 0.562345 0.707256
vt 0.562345 0.707256
vt 0.562345 0.707256
vt 0.562345 0.707256
vt 0.562345 0.707256
vt 0.562345 0.707256
vt 0.562345 0.707256
vt 0.562345 0.707256
vt 0.562345 0.707256
vt 0.562345 0.707256
vt 0.562345 0.707256
vt 0.562345 0.707256
vt 0.562345 0.707256
vt 0.562345 0.707256
vt 0.562345 0.707256
vt 0.562345 0.707256
vt 0.562345 0.707256
vt 0.562345 0.707256
vt 0.562345 0.707256
vt 0.562345 0.707256
vt 0.562345 0.707256
vt 0.562345 0.707256
vt 0.562345 0.707256
vt 0.562345 0.707256
vt 0.562345 0.707256
vt 0.562345 0.707256
vt 0.562345 0.707256
vt 0.562345 0.707256
vt 0.562345 0.707256
vt 0.562345 0.707256
vt 0.562345 0.707256
vt 0.562345 0.707256
vt 0.562345 0.707256
vt 0.562345 0.707256
vt 0.562345 0.707256
vt 0.562345 0.707256
vt 0.562345 0.707256
vt 0.562345 0.707256
vt 0.562345 0.707256
vt 0.562345 0.707256
vt 0.562345 0.707256
vt 0.562345 0.707256
vt 0.562345 0.707256
vt 0.562345 0.707256
vt 0.562345 0.707256
vt 0.562345 0.707256
vt 0.562345 0.707256
vt 0.562345 0.707256
vt 0.562345 0.707256
vt 0.562345 0.707256
vt 0.562345 0.707256
vt 0.562345 0.707256
vt 0.562345 0.707256
vt 0.562345 0.707256
vt 0.562345 0.707256
vt 0.565560 0.663855
vt 0.565560 0.663855
vt 0.565560 0.663855
vt 0.565560 0.663855
vt 0.565560 0.663855
vt 0.565560 0.663855
vt 0.565560 0.663855
vt 0.565560 0.663855
vt 0.565560 0.663855
vt 0.565560 0.663855
vt 0.565560 0.663855
vt 0.565560 0.663855
vt 0.565560 0.663855
vt 0.565560 0.663855
vt 0.565560 0.663855
vt 0.565560 0.663855
vt 0.565560 0.663855
vn -0.000000 -1.000000 -0.000000
vn -0.000000 -1.000000 -0.000000
vn -0.000000 -1.000000 -0.000000
vn -0.000000 -1.000000 0.000000
vn -0.000000 -1.000000 0.000000
vn -0.000000 -1.000000 0.000000
vn -0.000000 -1.000000 0.000000
vn -0.000000 -1.000000 0.000000
vn -0.000000 -1.000000 0.000000
vn 0.000000 -1.000000 0.000000
vn 0.000000 -1.000000 0.000000
vn 0.000000 -1.000000 0.000000
vn 0.000000 -1.000000 0.000000
vn 0.000000 -1.000000 0.000000
vn 0.000000 -1.000000 0.000000
vn 0.000000 -1.000000 -0.000000
vn 0.000000 -1.000000 -0.000000
vn 0.000000 -1.000000 -0.000000
vn 0.000000 -1.000000 0.000000
vn 0.000000 -1.000000 0.000000
vn 0.000000 -1.000000 0.000000
vn 0.000000 -1.000000 -0.000000
vn 0.000000 -1.000000 -0.000000
vn 0.000000 -1.000000 -0.000000
vn 0.000000 -1.000000 -0.000000
vn 0.000000 -1.000000 -0.000000
vn 0.000000 -1.000000 -0.000000
vn 0.000000 -1.000000 -0.000000
vn 0.000000 -1.000000 -0.000000
vn 0.000000 -1.000000 -0.000000
vn 0.000000 -1.000000 -0.000000
vn 0.000000 -1.000000 -0.000000
vn 0.000000 -1.000000 -0.000000
vn -0.000000 -1.000000 -0.000000
vn -0.000000 -1.000000 -0.000000
vn -0.000000 -1.000000 -0.000000
vn 0.000000 -1.000000 -0.000000
vn 0.000000 -1.000000 -0.000000
vn 0.000000 -1.000000 -0.000000
vn -0.000000 -1.000000 -0.000000
vn -0.000000 -1.000000 -0.000000
vn -0.000000 -1.000000 -0.000000
vn -0.000000 -1.000000 0.000000
vn -0.000000 -1.000000 0.000000
vn -0.000000 -1.000000 0.000000
vn -0.000000 -1.000000 0.000000
vn -0.000000 -1.000000 0.000000
vn -0.000000 -1.000000 0.000000
vn -0.000000 -1.000000 0.000000
vn -0.000000 -1.000000 0.000000
vn -0.000000 -1.000000 0.000000
vn 0.000000 1.000000 0.000000
vn 0.000000 1.000000 0.000000
vn 0.000000 1.000000 0.000000
vn 0.000000 1.000000 0.000000
vn 0.000000 1.000000 0.000000
vn 0.000000 1.000000 0.000000
vn 0.000000 1.000000 0.000000
vn 0.000000 1.000000 0.000000
vn 0.000000 1.000000 0.000000
vn 0.000000 1.000000 0.000000
vn 0.000000 1.000000 0.000000
vn 0.000000 1.000000 0.000000
vn 0.000000 1.000000 0.000000
vn 0.000000 1.000000 0.000000
vn 0.000000 1.000000 0.000000
vn 0.000000 1.000000 0.000000
vn 0.000000 1.000000 0.000000
vn 0.000000 1.000000 0.000000
vn 0.000000 1.000000 0.000000
vn 0.000000 1.000000 0.000000
vn 0.000000 1.000000 0.000000
vn 0.000000 1.000000 0.000000
vn 0.000000 1.000000 0.000000
vn 0.000000 1.000000 0.000000
vn 0.000000 1.000000 -0.000000
vn 0.000000 1.000000 -0.000000
vn 0.000000 1.000000 -0.000000
vn 0.000000 1.000000 0.000000
vn 0.000000 1.000000 0.000000
vn 0.000000 1.000000 0.000000
vn 0.000000 1.000000 0.000000
vn 0.000000 1.000000 0.000000
vn 0.000000 1.000000 0.000000
vn 0.000000 1.000000 0.000000
vn 0.000000 1.000000 0.000000
vn 0.000000 1.000000 0.000000
vn 0.000000 1.000000 0.000000
vn 0.000000 1.000000 0.000000
vn 0.000000 1.000000 0.000000
vn 0.000000 1.000000 -0.000000
vn 0.000000 1.000000 -0.000000
vn 0.000000 1.000000 -0.000000
vn 0.000000 1.000000 0.000000
vn 0.000000 1.000000 0.000000
vn 0.000000 1.000000 0.000000
vn 0.000000 1.000000 0.000000
vn 0.000000 1.000000 0.000000
vn 0.000000 1.000000 0.000000
vn 0.000000 1.000000 0.000000
vn 0.000000 1.000000 0.000000
vn 0.000000 1.000000 0.000000
vn 0.740805 0.653095 0.157082
vn 0.740805 0.653095 0.157082
vn 0.740805 0.653095 0.157082
vn 0.909044 0.401016 0.113248
vn 0.909044 0.401016 0.113248
vn 0.909044 0.401016 0.113248
vn 0.464660 0.545094 -0.697828
vn 0.464660 0.545094 -0.697828
vn 0.464660 0.545094 -0.697828
vn 0.179172 0.908817 -0.376762
vn 0.179172 0.908817 -0.376762
vn 0.179172 0.908817 -0.376762
vn 0.341811 0.890261 -0.300999
vn 0.341811 0.890261 -0.300999
vn 0.341811 0.890261 -0.300999
vn 0.615544 0.184216 -0.766270
vn 0.615544 0.184216 -0.766270
vn 0.615544 0.184216 -0.766270
vn -0.193882 0.434639 -0.879488
vn -0.193882 0.434639 -0.879488
vn -0.193882 0.434639 -0.879488
vn -0.216495 0.373135 -0.902164
vn -0.216495 0.373135 -0.902164
vn -0.216495 0.373135 -0.902164
vn -0.864471 0.473171 -0.169705
vn -0.864471 0.473171 -0.169705
vn -0.864471 0.473171 -0.169705
vn -0.552712 0.830800 -0.065428
vn -0.552712 0.830800 -0.065428
vn -0.552712 0.830800 -0.065428
vn -0.563304 0.770973 0.297135
vn -0.563304 0.770973 0.297135
vn -0.563304 0.770973 0.297135
vn -0.667302 0.683171 0.296622
vn -0.667302 0.683171 0.296622
vn -0.667302 0.683171 0.296622
vn -0.465485 0.316009 -0.826718
vn -0.465485 0.316009 -0.826718
vn -0.465485 0.316009 -0.826718
vn -0.537459 0.158466 -0.828267
vn -0.537459 0.158466 -0.828267
vn -0.537459 0.158466 -0.828267
vn -0.771263 0.559222 0.304014
vn -0.771263 0.559222 0.304014
vn -0.771263 0.559222 0.304014
vn -0.676533 0.714841 0.176934
vn -0.676533 0.714841 0.176934
vn -0.676533 0.714841 0.176934
vn -0.800195 0.525037 -0.289869
vn -0.800195 0.525037 -0.289869
vn -0.800195 0.525037 -0.289869
vn -0.849180 0.451923 -0.273238
vn -0.849180 0.451923 -0.273238
vn -0.849180 0.451924 -0.273238
vn -0.635727 0.760178 0.134096
vn -0.635727 0.760178 0.134096
vn -0.635727 0.760178 0.134096
vn -0.893520 0.379393 0.240173
vn -0.893520 0.379393 0.240173
vn -0.893520 0.379393 0.240173
vn -0.158436 0.662395 0.732209
vn -0.158436 0.662395 0.732209
vn -0.158436 0.662395 0.732209
vn -0.150861 0.564365 0.811624
vn -0.150861 0.564365 0.811624
vn -0.150860 0.564365 0.811624
vn 0.800107 0.366063 0.475213
vn 0.800107 0.366063 0.475213
vn 0.800107 0.366063 0.475213
vn 0.680451 0.651120 0.336198
vn 0.680451 0.651120 0.336198
vn 0.680451 0.651120 0.336198
vn -0.161928 0.687772 0.707637
vn -0.161928 0.687772 0.707637
vn -0.161928 0.687772 0.707637
vn -0.095427 0.392867 0.914631
vn -0.095427 0.392867 0.914631
vn -0.095427 0.392867 0.914631
vn 0.601610 0.525483 0.601609
vn 0.601610 0.525483 0.601609
vn 0.601610 0.525483 0.601609
vn 0.453144 0.690133 0.564249
vn 0.453144 0.690133 0.564249
vn 0.453144 0.690133 0.564249
vn 0.734990 0.677642 0.024325
vn 0.734990 0.677642 0.024325
vn 0.734990 0.677642 0.024325
vn 0.735029 0.677599 0.024342
vn 0.735029 0.677599 0.024342
vn 0.735029 0.677599 0.024342
vn 0.634201 0.635515 0.440352
vn 0.634201 0.635515 0.440352
vn 0.634201 0.635515 0.440352
vn 0.634186 0.635528 0.440355
vn 0.634186 0.635528 0.440355
vn 0.634186 0.635528 0.440355
vn 0.566904 0.596662 -0.567992
vn 0.566904 0.596662 -0.567992
vn 0.566904 0.596662 -0.567992
vn 0.493591 0.686546 -0.533874
vn 0.493591 0.686546 -0.533874
vn 0.493591 0.686546 -0.533874
vn 0.962699 0.268691 0.031877
vn 0.962699 0.268691 0.031877
vn 0.962699 0.268691 0.031877
vn 0.962693 0.268715 0.031861
vn 0.962693 0.268715 0.031861
vn 0.962693 0.268715 0.031861
vn 0.797022 0.241828 0.553421
vn 0.797022 0.241828 0.553421
vn 0.797022 0.241828 0.553421
vn 0.797031 0.241820 0.553412
vn 0.797031 0.241820 0.553412
vn 0.797031 0.241820 0.553412
vn 0.678334 0.279208 -0.679636
vn 0.678334 0.279208 -0.679636
vn 0.678334 0.279208 -0.679636
vn 0.711532 0.226308 -0.665212
vn 0.711532 0.226308 -0.665212
vn 0.711532 0.226308 -0.665212
vn 0.955232 0.262934 0.135636
vn 0.955232 0.262934 0.135636
vn 0.955232 0.262934 0.135636
vn 0.959821 0.249310 0.128798
vn 0.959821 0.249310 0.128798
vn 0.959821 0.249310 0.128798
vn 0.483427 0.306497 -0.819974
vn 0.483427 0.306497 -0.819974
vn 0.483427 0.306497 -0.819974
vn 0.456158 0.353397 -0.816719
vn 0.456158 0.353397 -0.816719
vn 0.456158 0.353397 -0.816719
vn 0.582351 0.299367 -0.755809
vn 0.582351 0.299367 -0.755809
vn 0.582351 0.299367 -0.755809
vn 0.543048 0.136481 -0.828536
vn 0.543048 0.136481 -0.828536
vn 0.543049 0.136481 -0.828536
vn -0.232795 0.277867 -0.931985
vn -0.232795 0.277867 -0.931985
vn -0.232795 0.277867 -0.931985
vn -0.309354 0.130282 -0.941980
vn -0.309354 0.130282 -0.941980
vn -0.309354 0.130282 -0.941980
vn -0.961274 0.217214 -0.169617
vn -0.961274 0.217214 -0.169617
vn -0.961274 0.217214 -0.169617
vn -0.966968 0.160913 -0.197684
vn -0.966968 0.160913 -0.197684
vn -0.966968 0.160913 -0.197684
vn -0.887367 0.273924 0.370872
vn -0.887367 0.273924 0.370872
vn -0.887367 0.273924 0.370872
vn -0.930050 0.195403 0.311167
vn -0.930050 0.195403 0.311167
vn -0.930050 0.195403 0.311167
vn -0.534812 0.115218 -0.837079
vn -0.534812 0.115218 -0.837079
vn -0.534812 0.115218 -0.837079
vn -0.548997 0.098366 -0.830016
vn -0.548997 0.098366 -0.830016
vn -0.548997 0.098366 -0.830016
vn -0.897951 0.303527 0.318676
vn -0.897952 0.303527 0.318676
vn -0.897952 0.303527 0.318676
vn -0.860920 0.372139 0.346886
vn -0.860920 0.372139 0.346886
vn -0.860920 0.372139 0.346886
vn -0.942159 0.201404 -0.267903
vn -0.942159 0.201404 -0.267903
vn -0.942159 0.201404 -0.267903
vn -0.981841 0.107593 -0.156241
vn -0.981841 0.107593 -0.156241
vn -0.981842 0.107593 -0.156241
vn -0.953254 0.178002 0.244174
vn -0.953254 0.178002 0.244174
vn -0.953255 0.178002 0.244174
vn -0.955306 0.125621 0.267601
vn -0.955306 0.125621 0.267601
vn -0.955306 0.125621 0.267601
vn -0.209918 0.258589 0.942903
vn -0.209918 0.258589 0.942903
vn -0.209918 0.258589 0.942903
vn -0.246138 0.368686 0.896374
vn -0.246138 0.368686 0.896374
vn -0.246138 0.368686 0.896374
vn 0.834083 0.264888 0.483881
vn 0.834082 0.264888 0.483881
vn 0.834082 0.264888 0.483881
vn 0.833623 0.229721 0.502296
vn 0.833623 0.229721 0.502296
vn 0.833623 0.229721 0.502296
vn -0.112947 0.292906 0.949447
vn -0.112947 0.292906 0.949447
vn -0.112947 0.292906 0.949447
vn -0.086496 0.249681 0.964457
vn -0.086496 0.249681 0.964457
vn -0.086496 0.249681 0.964457
vn 0.654575 0.284583 0.700389
vn 0.654575 0.284583 0.700389
vn 0.654575 0.284583 0.700389
vn 0.663776 0.344689 0.663770
vn 0.663776 0.344689 0.663770
vn 0.663776 0.344689 0.663770
s off
f 19/1/1 21/2/2 20/3/3
f 20/3/4 21/2/5 22/4/6
f 22/4/7 21/2/8 23/5/9
f 23/5/10 21/2/11 24/6/12
f 24/6/13 21/2/14 25/7/15
f 25/7/16 21/2/17 26/8/18
f 26/8/19 21/2/20 27/9/21
f 27/9/22 21/2/23 28/10/24
f 28/10/25 21/2/26 29/11/27
f 29/11/28 21/2/29 30/12/30
f 30/12/31 21/2/32 31/13/33
f 31/13/34 21/2/35 32/14/36
f 32/14/37 21/2/38 33/15/39
f 33/15/40 21/2/41 34/16/42
f 34/16/43 21/2/44 35/17/45
f 35/17/46 21/2/47 36/18/48
f 36/18/49 21/2/50 19/1/51
f 1/19/52 2/20/53 18/21/54
f 2/22/55 3/23/56 18/24/57
f 3/25/58 4/26/59 18/27/60
f 4/28/61 5/29/62 18/30/63
f 5/31/64 6/32/65 18/33/66
f 6/34/67 7/35/68 18/36/69
f 7/37/70 8/38/71 18/39/72
f 8/40/73 9/41/74 18/42/75
f 9/43/76 10/44/77 18/45/78
f 10/46/79 11/47/80 18/48/81
f 11/49/82 12/50/83 18/51/84
f 12/52/85 13/53/86 18/54/87
f 13/55/88 14/56/89 18/57/90
f 14/58/91 15/59/92 18/60/93
f 15/61/94 16/62/95 18/63/96
f 16/64/97 17/65/98 18/66/99
f 17/67/100 1/68/101 18/69/102
f 1/70/103 40/71/104 2/73/105
f 2/73/106 40/71/107 41/72/108
f 41/75/109 42/76/110 2/74/111
f 2/74/112 42/76/113 3/77/114
f 3/78/115 42/79/116 4/81/117
f 4/81/118 42/79/119 43/80/120
f 4/82/121 43/83/122 5/85/123
f 5/85/124 43/83/125 44/84/126
f 44/87/127 45/88/128 5/86/129
f 5/86/130 45/88/131 6/89/132
f 45/91/133 46/92/134 6/90/135
f 6/90/136 46/92/137 7/93/138
f 7/94/139 46/95/140 8/97/141
f 8/97/142 46/95/143 47/96/144
f 8/98/145 47/99/146 9/101/147
f 9/101/148 47/99/149 48/100/150
f 9/102/151 48/103/152 10/105/153
f 10/105/154 48/103/155 49/104/156
f 10/106/157 49/107/158 11/109/159
f 11/109/160 49/107/161 50/108/162
f 11/110/163 50/111/164 12/113/165
f 12/113/166 50/111/167 51/112/168
f 51/115/169 52/116/170 12/114/171
f 12/114/172 52/116/173 13/117/174
f 13/118/175 52/119/176 14/121/177
f 14/121/178 52/119/179 53/120/180
f 14/122/181 53/123/182 15/125/183
f 15/125/184 53/123/185 37/124/186
f 37/127/187 38/128/188 15/126/189
f 15/126/190 38/128/191 16/129/192
f 16/130/193 38/131/194 17/133/195
f 17/133/196 38/131/197 39/132/198
f 39/135/199 40/136/200 17/134/201
f 17/134/202 40/136/203 1/137/204
f 34/16/205 35/17/206 37/138/207
f 37/138/208 35/17/209 38/139/210
f 38/139/211 35/17/212 39/140/213
f 39/140/214 35/17/215 36/18/216
f 40/141/217 39/140/218 19/1/219
f 19/1/220 39/140/221 36/18/222
f 40/141/223 19/1/224 41/142/225
f 41/142/226 19/1/227 20/3/228
f 42/143/229 41/142/230 22/4/231
f 22/4/232 41/142/233 20/3/234
f 42/143/235 22/4/236 43/144/237
f 43/144/238 22/4/239 23/5/240
f 43/144/241 23/5/242 44/145/243
f 44/145/244 23/5/245 24/6/246
f 45/146/247 44/145/248 25/7/249
f 25/7/250 44/145/251 24/6/252
f 46/147/253 45/146/254 26/8/255
f 26/8/256 45/146/257 25/7/258
f 46/147/259 26/8/260 47/148/261
f 47/148/262 26/8/263 27/9/264
f 48/149/265 47/148/266 28/10/267
f 28/10/268 47/148/269 27/9/270
f 48/149/271 28/10/272 49/150/273
f 49/150/274 28/10/275 29/11/276
f 49/150/277 29/11/278 50/151/279
f 50/151/280 29/11/281 30/12/282
f 50/151/283 30/12/284 51/152/285
f 51/152/286 30/12/287 31/13/288
f 52/153/289 51/152/290 32/14/291
f 32/14/292 51/152/293 31/13/294
f 52/153/295 32/14/296 53/154/297
f 53/154/298 32/14/299 33/15/300
f 37/138/301 53/154/302 34/16/303
f 34/16/304 53/154/305 33/15/306
