# This file uses centimeters as units for non-parametric coordinates.

v -21.512794 -8.109942 -138.736542
v 24.738503 -8.109942 -137.996094
v -25.922585 -8.109942 136.675644
v 20.328712 -8.109942 137.416077
v -25.922585 8.110007 136.675644
v 20.328712 8.110007 137.416077
v -21.512794 8.110007 -138.736542
v 24.738503 8.110007 -137.996094
v -24.386406 -4.039299 40.747452
v -24.386406 0.511517 40.747452
v 21.922493 8.110007 37.870026
v 21.864891 -8.109942 41.487885
v -22.757912 -8.109942 -60.973167
v -22.757912 8.110007 -60.973167
v 25.922585 2.001040 -60.193825
v 25.922585 -8.109942 -60.193825
v -19.966316 -8.109944 141.352081
v -19.966316 8.110007 141.352081
v -18.356895 8.110007 40.843964
v -16.728401 8.110007 -60.876656
v -15.431023 8.110007 -141.909973
v -15.431023 -8.109944 -141.909973
v -16.728401 -8.109942 -60.876656
v -15.383720 -8.109942 39.843369
v 14.887428 -8.109942 141.910172
v 14.887428 8.110007 141.910172
v 16.554451 8.110007 37.784195
v 14.842796 8.110007 -63.932991
v 19.422722 8.110007 -141.351898
v 19.422722 -8.109942 -141.351898
v 20.554924 -8.109942 -60.279655
v 16.496849 -8.109942 41.402054
v -23.840904 0.027002 6.673813
v -15.989494 -8.109942 -5.525970
v -15.818977 -8.109942 7.235336
v -2.387810 -8.110007 0.911713
v -15.056419 -3.680815 1.437378
v 21.677208 8.110007 53.192139
v 16.293907 8.110007 54.067993
v 2.731514 8.110007 44.834900
v 19.512367 5.728827 44.178009
v 14.137077 5.728827 44.566727
v -17.568493 16.797934 135.507965
v -16.154957 16.797934 39.155197
v 13.041782 16.797934 136.042786
v 14.276981 16.797934 58.452606
v -4.425144 16.797934 42.981339
v -14.724731 16.797934 -58.359718
v 14.505863 16.797934 29.601669
v 13.002586 16.797934 -61.289597
v -13.585377 16.797934 -136.042603
v 17.024899 16.797934 -135.507584
vt 0.984623 0.451295
vt 0.984623 0.451295
vt 0.984623 0.451295
vt 0.984623 0.451295
vt 0.984623 0.451295
vt 0.984623 0.451295
vt 0.984623 0.451295
vt 0.984623 0.451295
vt 0.984623 0.451295
vt 0.984623 0.451295
vt 0.984623 0.451295
vt 0.984623 0.451295
vt 0.984623 0.451295
vt 0.984623 0.451295
vt 0.984623 0.451295
vt 0.984623 0.451295
vt 0.984623 0.451295
vt 0.984623 0.451295
vt 0.984623 0.451295
vt 0.984623 0.451295
vt 0.984623 0.451295
vt 0.984623 0.451295
vt 0.984623 0.451295
vt 0.984623 0.451295
vt 0.984623 0.451295
vt 0.984623 0.451295
vt 0.984623 0.451295
vt 0.984623 0.451295
vt 0.984623 0.451295
vt 0.984623 0.451295
vt 0.984623 0.451295
vt 0.984623 0.451295
vt 0.984623 0.451295
vt 0.984623 0.451295
vt 0.984623 0.451295
vt 0.984623 0.451295
vt 0.984623 0.451295
vt 0.984623 0.451295
vt 0.984623 0.451295
vt 0.984623 0.451295
vt 0.984623 0.451295
vt 0.984623 0.451295
vt 0.984623 0.451295
vt 0.984623 0.451295
vt 0.984623 0.451295
vt 0.984623 0.451295
vt 0.984623 0.451295
vt 0.984623 0.451295
vt 0.984623 0.451295
vt 0.984623 0.451295
vt 0.984623 0.451295
vt 0.984623 0.451295
vt 0.984623 0.451295
vt 0.984623 0.451295
vt 0.984623 0.451295
vt 0.984623 0.451295
vt 0.562323 0.789805
vt 0.562323 0.789805
vt 0.562323 0.789805
vt 0.562323 0.789805
vt 0.562323 0.789805
vt 0.562323 0.789805
vt 0.562323 0.789805
vt 0.562323 0.789805
vt 0.562323 0.789805
vt 0.562323 0.789805
vt 0.562323 0.789805
vt 0.562323 0.789805
vt 0.562323 0.789805
vt 0.562323 0.789805
vt 0.562323 0.789805
vt 0.562323 0.789805
vt 0.562323 0.789805
vt 0.562323 0.789805
vt 0.562323 0.789805
vt 0.562323 0.789805
vn -0.000000 -1.000000 0.000000
vn -0.000000 -1.000000 0.000000
vn -0.000000 -1.000000 0.000000
vn 0.000000 -1.000000 0.000000
vn 0.000000 -1.000000 0.000000
vn 0.000000 -1.000000 0.000000
vn -0.617537 0.000000 0.786542
vn -0.617537 0.000000 0.786542
vn -0.617537 0.000000 0.786542
vn -0.617537 0.000000 0.786542
vn -0.617537 0.000000 0.786542
vn -0.617537 0.000000 0.786542
vn 0.000000 1.000000 -0.000000
vn 0.000000 1.000000 -0.000000
vn 0.000000 1.000000 -0.000000
vn 0.000000 1.000000 0.000000
vn 0.000000 1.000000 0.000000
vn 0.000000 1.000000 0.000000
vn -0.462602 0.000000 -0.886566
vn -0.462602 0.000000 -0.886566
vn -0.462602 0.000000 -0.886566
vn -0.462606 0.000000 -0.886564
vn -0.462606 0.000000 -0.886564
vn -0.462606 0.000000 -0.886564
vn 0.999884 0.000000 -0.015217
vn 0.999884 0.000000 -0.015217
vn 0.999884 0.000000 -0.015217
vn 0.999884 0.000000 -0.015217
vn 0.999884 0.000000 -0.015217
vn 0.999884 0.000000 -0.015217
vn -0.999872 0.000000 -0.016010
vn -0.999872 0.000000 -0.016010
vn -0.999872 0.000000 -0.016010
vn -0.999872 0.000000 -0.016010
vn -0.999872 0.000000 -0.016010
vn -0.999872 0.000000 -0.016010
vn -0.999872 0.000000 -0.016012
vn -0.999872 0.000000 -0.016012
vn -0.999872 0.000000 -0.016012
vn -0.999872 0.000000 -0.016012
vn -0.999872 0.000000 -0.016012
vn -0.999872 0.000000 -0.016012
vn 0.000000 1.000000 0.000000
vn 0.000000 1.000000 0.000000
vn 0.000000 1.000000 0.000000
vn -0.781467 0.620889 -0.061695
vn -0.781467 0.620889 -0.061695
vn -0.781467 0.620889 -0.061695
vn 0.999872 0.000016 0.016012
vn 0.999872 0.000016 0.016012
vn 0.999872 0.000016 0.016012
vn 0.999872 0.000000 0.016009
vn 0.999872 0.000000 0.016009
vn 0.999872 0.000000 0.016009
vn -0.415344 -0.908540 -0.045205
vn -0.415344 -0.908540 -0.045205
vn -0.415344 -0.908540 -0.045205
vn -0.000000 -1.000000 -0.000000
vn -0.000000 -1.000000 -0.000000
vn -0.000000 -1.000000 -0.000000
vn -0.999872 0.000000 -0.016007
vn -0.999872 0.000000 -0.016007
vn -0.999872 0.000000 -0.016007
vn -0.999872 0.000000 -0.016007
vn -0.999872 0.000000 -0.016007
vn -0.999872 0.000000 -0.016007
vn -0.999872 0.000000 -0.016007
vn -0.999872 0.000000 -0.016007
vn -0.999872 0.000000 -0.016007
vn -0.783102 0.620972 0.033849
vn -0.783102 0.620972 0.033849
vn -0.783101 0.620972 0.033849
vn 0.000000 1.000000 0.000000
vn 0.000000 1.000000 0.000000
vn 0.000000 1.000000 0.000000
vn 0.999169 0.000000 0.040757
vn 0.999169 0.000000 0.040757
vn 0.999169 0.000000 0.040757
vn 0.999191 0.005345 0.039874
vn 0.999190 0.005345 0.039874
vn 0.999190 0.005345 0.039874
vn -0.705606 -0.702195 -0.095095
vn -0.705606 -0.702195 -0.095095
vn -0.705606 -0.702195 -0.095095
vn -0.411536 -0.911377 0.005493
vn -0.411536 -0.911377 0.005493
vn -0.411536 -0.911377 0.005493
vn -0.016010 0.000000 0.999872
vn -0.016010 0.000000 0.999872
vn -0.016010 0.000000 0.999872
vn -0.016010 0.000000 0.999872
vn -0.016010 0.000000 0.999872
vn -0.016010 0.000000 0.999872
vn 0.000000 1.000000 0.000000
vn 0.000000 1.000000 0.000000
vn 0.000000 1.000000 0.000000
vn 0.000000 1.000000 0.000000
vn 0.000000 1.000000 0.000000
vn 0.000000 1.000000 0.000000
vn 0.000000 1.000000 0.000000
vn 0.000000 1.000000 0.000000
vn 0.000000 1.000000 0.000000
vn 0.000000 1.000000 0.000000
vn 0.000000 1.000000 0.000000
vn 0.000000 1.000000 0.000000
vn 0.000000 1.000000 0.000000
vn 0.000000 1.000000 0.000000
vn 0.000000 1.000000 0.000000
vn 0.000000 1.000000 0.000000
vn 0.000000 1.000000 0.000000
vn 0.000000 1.000000 0.000000
vn 0.000000 1.000000 -0.000000
vn 0.000000 1.000000 -0.000000
vn 0.000000 1.000000 -0.000000
vn 0.000000 1.000000 0.000000
vn 0.000000 1.000000 0.000000
vn 0.000000 1.000000 0.000000
vn 0.016010 0.000000 -0.999872
vn 0.016010 0.000000 -0.999872
vn 0.016010 0.000000 -0.999872
vn 0.016010 0.000000 -0.999872
vn 0.016010 0.000000 -0.999872
vn 0.016010 0.000000 -0.999872
vn 0.000000 -1.000000 0.000000
vn 0.000000 -1.000000 0.000000
vn 0.000000 -1.000000 0.000000
vn 0.000000 -1.000000 0.000000
vn 0.000000 -1.000000 0.000000
vn 0.000000 -1.000000 0.000000
vn 0.000000 -1.000000 0.000000
vn 0.000000 -1.000000 0.000000
vn 0.000000 -1.000000 0.000000
vn -0.000004 -1.000000 -0.000002
vn -0.000004 -1.000000 -0.000002
vn -0.000004 -1.000000 -0.000002
vn 0.000003 -1.000000 0.000000
vn 0.000003 -1.000000 0.000000
vn 0.000003 -1.000000 0.000000
vn -0.000000 -1.000000 0.000002
vn -0.000000 -1.000000 0.000002
vn -0.000000 -1.000000 0.000002
vn -0.000005 -1.000000 0.000000
vn -0.000005 -1.000000 0.000000
vn -0.000005 -1.000000 0.000000
vn 0.000000 -1.000000 -0.000000
vn 0.000000 -1.000000 -0.000000
vn 0.000000 -1.000000 -0.000000
vn 0.000000 -1.000000 0.000000
vn 0.000000 -1.000000 0.000000
vn 0.000000 -1.000000 0.000000
vn 0.636810 0.000000 0.771021
vn 0.636810 0.000000 0.771021
vn 0.636810 0.000000 0.771021
vn 0.636805 0.000000 0.771025
vn 0.636805 0.000000 0.771025
vn 0.636805 0.000000 0.771025
vn 0.000000 1.000000 -0.000000
vn 0.000000 1.000000 -0.000000
vn 0.000000 1.000000 -0.000000
vn 0.000000 1.000000 0.000000
vn 0.000000 1.000000 0.000000
vn 0.000000 1.000000 0.000000
vn 0.484928 0.874516 -0.008160
vn 0.484928 0.874516 -0.008160
vn 0.484928 0.874516 -0.008160
vn 0.000993 0.998067 -0.062135
vn 0.000993 0.998067 -0.062135
vn 0.000993 0.998067 -0.062135
vn 0.000000 1.000000 0.000000
vn 0.000000 1.000000 0.000000
vn 0.000000 1.000000 0.000000
vn 0.465712 0.882746 0.062225
vn 0.465712 0.882746 0.062225
vn 0.465713 0.882746 0.062225
vn 0.533820 0.000000 -0.845598
vn 0.533820 0.000000 -0.845598
vn 0.533820 0.000000 -0.845598
vn 0.533817 0.000000 -0.845600
vn 0.533817 0.000000 -0.845600
vn 0.533817 0.000000 -0.845600
vn 0.000000 -1.000000 0.000000
vn 0.000000 -1.000000 0.000000
vn 0.000000 -1.000000 0.000000
vn 0.000000 -1.000000 0.000000
vn 0.000000 -1.000000 0.000000
vn 0.000000 -1.000000 0.000000
vn 0.000000 -1.000000 0.000000
vn 0.000000 -1.000000 0.000000
vn 0.000000 -1.000000 0.000000
vn 0.000000 -1.000000 0.000000
vn 0.000000 -1.000000 0.000000
vn 0.000000 -1.000000 0.000000
vn 0.000000 -1.000000 0.000000
vn 0.000000 -1.000000 0.000000
vn 0.000000 -1.000000 0.000000
vn 0.000000 -1.000000 0.000000
vn 0.000000 -1.000000 0.000000
vn 0.000000 -1.000000 0.000000
vn 0.000000 -1.000000 0.000000
vn 0.000000 -1.000000 0.000000
vn 0.000000 -1.000000 0.000000
vn -0.654751 -0.751607 0.079925
vn -0.654751 -0.751607 0.079925
vn -0.654751 -0.751607 0.079925
vn -0.284974 -0.743264 -0.605268
vn -0.284974 -0.743264 -0.605268
vn -0.284974 -0.743264 -0.605268
vn -0.579746 -0.608913 -0.541405
vn -0.579746 -0.608913 -0.541405
vn -0.579746 -0.608913 -0.541405
vn -0.033444 -0.841269 0.539581
vn -0.033444 -0.841269 0.539581
vn -0.033444 -0.841269 0.539581
vn -0.256983 -0.799476 0.542952
vn -0.256983 -0.799476 0.542952
vn -0.256983 -0.799476 0.542952
vn 0.935573 0.213694 -0.281137
vn 0.935573 0.213694 -0.281137
vn 0.935573 0.213694 -0.281137
vn -0.017310 0.970776 -0.239364
vn -0.017310 0.970776 -0.239364
vn -0.017310 0.970776 -0.239364
vn -0.040055 0.968393 -0.246192
vn -0.040055 0.968393 -0.246192
vn -0.040055 0.968393 -0.246192
vn 0.189959 0.941307 -0.279029
vn 0.189959 0.941307 -0.279029
vn 0.189959 0.941307 -0.279029
vn 0.920266 0.082069 0.382591
vn 0.920266 0.082069 0.382591
vn 0.920266 0.082069 0.382591
vn 0.024509 0.940496 0.338920
vn 0.024509 0.940496 0.338920
vn 0.024509 0.940496 0.338920
vn -0.005617 0.936255 0.351278
vn -0.005617 0.936255 0.351278
vn -0.005617 0.936255 0.351278
vn 0.197180 0.900933 0.386573
vn 0.197180 0.900933 0.386573
vn 0.197180 0.900934 0.386573
vn -0.966466 0.256330 -0.015476
vn -0.966466 0.256330 -0.015476
vn -0.966466 0.256330 -0.015476
vn -0.969908 0.243056 -0.014229
vn -0.969908 0.243056 -0.014229
vn -0.969908 0.243056 -0.014229
vn -0.013258 0.560612 0.827972
vn -0.013258 0.560612 0.827972
vn -0.013258 0.560612 0.827972
vn -0.014502 0.557495 0.830054
vn -0.014502 0.557495 0.830054
vn -0.014502 0.557495 0.830054
vn 0.975855 0.217861 0.015625
vn 0.975855 0.217861 0.015625
vn 0.975855 0.217861 0.015625
vn 0.975676 0.218667 0.015532
vn 0.975676 0.218667 0.015532
vn 0.975676 0.218667 0.015532
vn 0.493547 0.480453 -0.724966
vn 0.493547 0.480453 -0.724966
vn 0.493547 0.480453 -0.724966
vn 0.599604 0.339283 -0.724819
vn 0.599604 0.339283 -0.724819
vn 0.599604 0.339283 -0.724819
vn -0.973305 0.228985 -0.015582
vn -0.973305 0.228985 -0.015582
vn -0.973305 0.228985 -0.015582
vn -0.969908 0.243056 -0.014225
vn -0.969908 0.243056 -0.014225
vn -0.969908 0.243056 -0.014225
vn 0.330061 0.687270 0.647086
vn 0.330061 0.687270 0.647085
vn 0.330061 0.687270 0.647085
vn 0.483992 0.544789 0.684804
vn 0.483992 0.544789 0.684804
vn 0.483992 0.544789 0.684804
vn 0.976523 0.214785 -0.016433
vn 0.976523 0.214785 -0.016433
vn 0.976523 0.214785 -0.016433
vn 0.977160 0.211892 -0.016162
vn 0.977160 0.211892 -0.016162
vn 0.977160 0.211892 -0.016162
vn -0.975855 0.217860 -0.015624
vn -0.975855 0.217860 -0.015624
vn -0.975855 0.217860 -0.015624
vn -0.973409 0.228630 -0.014277
vn -0.973409 0.228630 -0.014277
vn -0.973409 0.228630 -0.014277
vn 0.971611 0.229494 0.057478
vn 0.971611 0.229494 0.057478
vn 0.971611 0.229494 0.057478
vn 0.980068 0.191429 0.053116
vn 0.980068 0.191429 0.053116
vn 0.980068 0.191429 0.053116
vn 0.013256 0.560625 -0.827964
vn 0.013256 0.560625 -0.827964
vn 0.013256 0.560625 -0.827964
vn 0.014509 0.557493 -0.830055
vn 0.014509 0.557493 -0.830055
vn 0.014509 0.557493 -0.830055
s off
f 22/2/1 23/3/2 1/1/3
f 1/1/4 23/3/5 13/4/6
f 3/5/7 17/6/8 5/8/9
f 5/8/10 17/6/11 18/7/12
f 14/9/13 20/10/14 7/12/15
f 7/12/16 20/10/17 21/11/18
f 7/12/19 21/11/20 1/14/21
f 1/14/22 21/11/23 22/13/24
f 8/16/25 15/17/26 2/15/27
f 2/15/28 15/17/29 16/18/30
f 7/19/31 1/1/32 14/20/33
f 14/20/34 1/1/35 13/4/36
f 9/22/37 3/5/38 10/21/39
f 10/21/40 3/5/41 5/23/42
f 18/7/43 19/24/44 5/8/45
f 5/8/46 19/24/47 10/25/48
f 12/26/49 38/27/50 4/29/51
f 4/29/52 38/27/53 6/28/54
f 9/22/55 24/30/56 3/5/57
f 3/5/58 24/30/59 17/6/60
f 13/4/61 33/31/62 14/20/63
f 14/20/64 33/31/65 10/21/66
f 33/31/67 9/22/68 10/21/69
f 10/25/70 19/24/71 14/9/72
f 14/9/73 19/24/74 20/10/75
f 15/17/76 11/32/77 16/18/78
f 16/18/79 11/32/80 12/26/81
f 33/31/82 35/33/83 9/22/84
f 9/22/85 35/33/86 24/30/87
f 17/6/88 25/34/89 18/7/90
f 18/7/91 25/34/92 26/35/93
f 44/57/94 43/58/95 47/61/96
f 47/61/97 43/58/98 46/60/99
f 43/58/100 45/59/101 46/60/102
f 50/64/103 48/62/104 49/63/105
f 44/57/106 47/61/107 48/62/108
f 48/62/109 47/61/110 49/63/111
f 48/62/112 50/64/113 51/65/114
f 51/65/115 50/64/116 52/66/117
f 22/13/118 21/11/119 30/41/120
f 30/41/121 21/11/122 29/40/123
f 22/2/124 30/42/125 23/3/126
f 23/3/127 30/42/128 31/43/129
f 23/3/130 31/43/131 34/45/132
f 34/45/133 31/43/134 36/44/135
f 31/43/136 32/46/137 36/44/138
f 32/46/139 24/30/140 36/44/141
f 24/30/142 35/33/143 36/44/144
f 24/30/145 32/46/146 17/6/147
f 17/6/148 32/46/149 25/34/150
f 25/34/151 4/29/152 26/35/153
f 26/35/154 4/29/155 6/47/156
f 38/48/157 39/36/158 6/47/159
f 6/47/160 39/36/161 26/35/162
f 28/39/163 27/38/164 15/50/165
f 15/50/166 27/38/167 11/49/168
f 29/40/169 28/39/170 8/51/171
f 8/51/172 28/39/173 15/50/174
f 30/41/175 29/40/176 2/52/177
f 2/52/178 29/40/179 8/51/180
f 30/42/181 2/15/182 31/43/183
f 31/43/184 2/15/185 16/18/186
f 32/46/187 31/43/188 12/26/189
f 12/26/190 31/43/191 16/18/192
f 25/34/193 32/46/194 4/29/195
f 4/29/196 32/46/197 12/26/198
f 23/3/199 34/45/200 13/4/201
f 13/4/202 34/45/203 33/31/204
f 37/53/205 36/44/206 35/33/207
f 33/31/208 37/53/209 35/33/210
f 33/31/211 34/45/212 37/53/213
f 34/45/214 36/44/215 37/53/216
f 12/26/217 41/54/218 38/27/219
f 42/56/220 39/36/221 41/55/222
f 41/55/223 39/36/224 38/48/225
f 40/37/226 39/36/227 42/56/228
f 12/26/229 11/32/230 41/54/231
f 42/56/232 41/55/233 27/38/234
f 27/38/235 41/55/236 11/49/237
f 40/37/238 42/56/239 27/38/240
f 18/68/241 43/58/242 19/67/243
f 19/67/244 43/58/245 44/57/246
f 18/68/247 26/69/248 43/58/249
f 43/58/250 26/69/251 45/59/252
f 26/69/253 39/70/254 45/59/255
f 45/59/256 39/70/257 46/60/258
f 39/70/259 40/71/260 46/60/261
f 46/60/262 40/71/263 47/61/264
f 20/72/265 19/67/266 48/62/267
f 48/62/268 19/67/269 44/57/270
f 27/73/271 49/63/272 40/71/273
f 40/71/274 49/63/275 47/61/276
f 27/73/277 28/74/278 49/63/279
f 49/63/280 28/74/281 50/64/282
f 21/75/283 20/72/284 51/65/285
f 51/65/286 20/72/287 48/62/288
f 29/76/289 52/66/290 28/74/291
f 28/74/292 52/66/293 50/64/294
f 29/76/295 21/75/296 52/66/297
f 52/66/298 21/75/299 51/65/300
