# This file uses centimeters as units for non-parametric coordinates.

v 17.594862 0.000000 -23.308659
v -9.456682 0.000000 -14.518833
v -9.456682 0.000000 13.924694
v 17.594862 0.000000 22.714520
v 34.314682 0.000000 -0.296879
v 13.239241 49.316582 -11.605167
v -0.840807 49.316582 -7.030582
v -0.840807 49.316582 7.773876
v 13.239241 49.316582 12.348080
v 21.940565 49.316582 0.371456
v 10.118055 -13.550872 -0.296879
v 4.991865 153.199280 -17.532444
v -6.256151 153.199280 -13.877964
v -6.256151 153.199280 -2.047062
v 4.991865 153.199280 1.609325
v 11.946440 153.199280 -7.961369
v -37.435196 98.649513 14.950848
v -27.519274 83.803497 46.015453
v -4.990053 83.102547 52.649593
v 29.195356 82.502235 42.029095
v 41.107513 95.744789 16.877651
v 54.011108 77.082268 -8.346653
v 48.473312 76.793495 -31.179142
v 25.978041 94.955811 -45.502186
v 3.448820 95.656792 -52.136326
v -19.368792 96.632851 -46.614552
v -48.284576 83.741867 -31.962681
v -54.897354 84.480034 -9.428120
v 3.856993 136.224380 -7.629108
v -36.549805 122.251213 14.437389
v -26.634264 107.405220 45.501995
v -4.104662 106.704292 52.136517
v 30.080748 106.103935 41.516018
v 41.992905 119.346489 16.364193
v 54.896500 100.683937 -8.860111
v 49.358704 100.395142 -31.692600
v 26.863432 118.557564 -46.015263
v 4.334211 119.258514 -52.649784
v -18.483400 120.234550 -47.128010
v -47.399185 107.343590 -32.476139
v -54.011963 108.081711 -9.941578
v 7.228041 152.911102 22.308636
v -2.066469 150.816284 -38.721561
v -38.891266 127.087631 15.634441
v -27.935839 112.341675 47.525692
v -8.895540 173.010986 14.199734
v -18.222094 173.121918 4.344463
v -4.550219 111.722481 54.648876
v 7.857466 157.823410 24.594784
v 31.785154 110.910355 43.575954
v 44.213440 124.000786 17.716885
v 27.540159 171.798752 5.528164
v 57.630112 105.185272 -8.875370
v 31.448698 171.391693 -7.724857
v 51.760056 104.893890 -32.982731
v 28.230619 171.238419 -20.951939
v 28.224516 123.105148 -48.315144
v 18.754530 171.334839 -30.905247
v 4.984236 123.856674 -55.345249
v -2.529955 155.482330 -41.171360
v -20.060396 124.968468 -49.332142
v -49.441956 112.155045 -33.970737
v -17.507219 172.574799 -22.238636
v -56.528900 112.935257 -9.904575
v -21.431780 172.999588 -8.920002
v -6.323290 247.470001 -5.783176
vt 0.032183 0.327878
vt 0.032183 0.327878
vt 0.032183 0.327878
vt 0.032183 0.327878
vt 0.032183 0.327878
vt 0.032183 0.327878
vt 0.032183 0.327878
vt 0.032183 0.327878
vt 0.032183 0.327878
vt 0.032183 0.327878
vt 0.032183 0.327878
vt 0.032183 0.327878
vt 0.032183 0.327878
vt 0.032183 0.327878
vt 0.032183 0.327878
vt 0.032183 0.327878
vt 0.032183 0.327878
vt 0.032183 0.327878
vt 0.032183 0.327878
vt 0.032183 0.327878
vt 0.032183 0.327878
vt 0.032183 0.327878
vt 0.032183 0.327878
vt 0.032183 0.327878
vt 0.032183 0.327878
vt 0.032183 0.327878
vt 0.032183 0.327878
vt 0.032183 0.327878
vt 0.887578 0.510861
vt 0.887578 0.510861
vt 0.887578 0.510861
vt 0.887578 0.510861
vt 0.887578 0.510861
vt 0.887578 0.510861
vt 0.887578 0.510861
vt 0.887578 0.510861
vt 0.887578 0.510861
vt 0.887578 0.510861
vt 0.887578 0.510861
vt 0.887578 0.510861
vt 0.887578 0.510861
vt 0.887578 0.510861
vt 0.887578 0.510861
vt 0.887578 0.510861
vt 0.887578 0.510861
vt 0.887578 0.510861
vt 0.887578 0.510861
vt 0.887578 0.510861
vt 0.887578 0.510861
vt 0.887578 0.510861
vt 0.887578 0.510861
vt 0.887578 0.510861
vt 0.887578 0.510861
vt 0.887578 0.510861
vt 0.887578 0.510861
vt 0.887578 0.510861
vt 0.887578 0.510861
vt 0.887578 0.510861
vt 0.887578 0.510861
vt 0.887578 0.510861
vt 0.887578 0.510861
vt 0.887578 0.510861
vt 0.887578 0.510861
vt 0.887578 0.510861
vt 0.887578 0.510861
vt 0.565895 0.793122
vt 0.565895 0.793122
vt 0.565895 0.793122
vt 0.565895 0.793122
vt 0.565895 0.793122
vt 0.565895 0.793122
vt 0.565895 0.793122
vt 0.565895 0.793122
vt 0.565895 0.793122
vt 0.565895 0.793122
vt 0.565895 0.793122
vt 0.565895 0.793122
vt 0.565895 0.793122
vt 0.565895 0.793122
vt 0.565895 0.793122
vt 0.565895 0.793122
vt 0.565895 0.793122
vt 0.565895 0.793122
vt 0.565895 0.793122
vt 0.565895 0.793122
vt 0.565895 0.793122
vt 0.565895 0.793122
vt 0.565895 0.793123
vt 0.565895 0.793122
vt 0.565895 0.793122
vt 0.565895 0.793122
vt 0.565895 0.793122
vt 0.565895 0.793122
vt 0.565895 0.793122
vt 0.565895 0.793122
vt 0.565895 0.793122
vt 0.565895 0.793122
vt 0.565895 0.793122
vt 0.565895 0.793122
vt 0.565895 0.793122
vt 0.565895 0.793122
vt 0.565895 0.793122
vt 0.887578 0.510861
vt 0.887578 0.510861
vt 0.887578 0.510861
vt 0.887578 0.510861
vt 0.887578 0.510861
vt 0.887578 0.510861
vt 0.887578 0.510861
vt 0.887578 0.510861
vt 0.887578 0.510861
vt 0.887578 0.510861
vt 0.887578 0.510861
vt 0.887578 0.510861
vt 0.887578 0.510861
vt 0.887578 0.510861
vt 0.887578 0.510861
vt 0.887578 0.510861
vn -0.303116 0.194612 -0.932870
vn -0.303116 0.194612 -0.932870
vn -0.303116 0.194612 -0.932870
vn -0.303091 0.194601 -0.932881
vn -0.303091 0.194601 -0.932881
vn -0.303091 0.194601 -0.932881
vn -0.985080 0.172099 0.000000
vn -0.985080 0.172099 0.000000
vn -0.985080 0.172099 0.000000
vn -0.985080 0.172099 0.000000
vn -0.985080 0.172099 0.000000
vn -0.985080 0.172099 0.000000
vn -0.304521 0.170105 0.937193
vn -0.304521 0.170105 0.937193
vn -0.304521 0.170105 0.937193
vn -0.304473 0.170083 0.937213
vn -0.304473 0.170083 0.937213
vn -0.304473 0.170083 0.937213
vn 0.794040 0.191415 0.576940
vn 0.794040 0.191415 0.576941
vn 0.794040 0.191415 0.576940
vn 0.794067 0.191399 0.576910
vn 0.794066 0.191399 0.576910
vn 0.794067 0.191399 0.576910
vn 0.791584 0.206402 -0.575146
vn 0.791584 0.206402 -0.575146
vn 0.791584 0.206402 -0.575146
vn 0.791601 0.206416 -0.575118
vn 0.791601 0.206416 -0.575118
vn 0.791601 0.206416 -0.575118
vn -0.175891 -0.822212 -0.541322
vn -0.175891 -0.822212 -0.541322
vn -0.175891 -0.822212 -0.541322
vn -0.569185 -0.822209 0.000000
vn -0.569185 -0.822209 0.000000
vn -0.569185 -0.822209 0.000000
vn -0.175893 -0.822207 0.541329
vn -0.175893 -0.822207 0.541329
vn -0.175893 -0.822207 0.541329
vn 0.460465 -0.822214 0.334569
vn 0.460465 -0.822214 0.334569
vn 0.460465 -0.822214 0.334569
vn 0.460466 -0.822215 -0.334564
vn 0.460466 -0.822215 -0.334564
vn 0.460466 -0.822215 -0.334564
vn -0.308044 -0.078553 -0.948124
vn -0.308044 -0.078553 -0.948124
vn -0.308044 -0.078553 -0.948124
vn -0.308045 -0.078553 -0.948123
vn -0.308045 -0.078553 -0.948123
vn -0.308045 -0.078553 -0.948123
vn -0.998644 -0.052059 0.000000
vn -0.998644 -0.052059 0.000000
vn -0.998644 -0.052059 0.000000
vn -0.998644 -0.052059 0.000000
vn -0.998644 -0.052059 0.000000
vn -0.998644 -0.052059 0.000000
vn -0.308138 0.073586 0.948492
vn -0.308138 0.073586 0.948492
vn -0.308138 0.073586 0.948492
vn -0.308308 0.073592 0.948436
vn -0.308308 0.073592 0.948436
vn -0.308308 0.073592 0.948436
vn 0.802777 0.124025 0.583238
vn 0.802777 0.124025 0.583238
vn 0.802777 0.124025 0.583238
vn 0.802729 0.124016 0.583306
vn 0.802729 0.124016 0.583306
vn 0.802729 0.124016 0.583306
vn 0.808643 0.030671 -0.587500
vn 0.808643 0.030671 -0.587500
vn 0.808643 0.030671 -0.587500
vn 0.808605 0.030672 -0.587552
vn 0.808605 0.030672 -0.587552
vn 0.808605 0.030672 -0.587552
vn 0.419508 -0.759642 -0.496948
vn 0.419508 -0.759642 -0.496948
vn 0.419508 -0.759642 -0.496948
vn 0.164607 -0.751866 -0.638438
vn 0.164607 -0.751866 -0.638438
vn 0.164607 -0.751866 -0.638438
vn -0.404325 -0.716344 -0.568659
vn -0.404325 -0.716344 -0.568659
vn -0.404325 -0.716344 -0.568659
vn -0.759140 -0.644848 0.088759
vn -0.759140 -0.644848 0.088759
vn -0.759140 -0.644848 0.088759
vn -0.747741 -0.636403 0.189406
vn -0.747741 -0.636403 0.189406
vn -0.747741 -0.636403 0.189406
vn -0.706280 -0.645452 0.290793
vn -0.706280 -0.645452 0.290793
vn -0.706280 -0.645452 0.290793
vn -0.216404 -0.720558 0.658761
vn -0.216404 -0.720558 0.658761
vn -0.216404 -0.720558 0.658761
vn 0.538592 -0.730093 0.420574
vn 0.538592 -0.730093 0.420574
vn 0.538592 -0.730093 0.420574
vn 0.642142 -0.736526 0.212563
vn 0.642142 -0.736526 0.212563
vn 0.642142 -0.736526 0.212563
vn 0.661097 -0.749337 -0.038002
vn 0.661097 -0.749337 -0.038002
vn 0.661097 -0.749337 -0.038002
vn -0.945726 0.042471 0.322176
vn -0.945726 0.042471 0.322176
vn -0.945726 0.042471 0.322176
vn -0.945727 0.042487 0.322172
vn -0.945727 0.042487 0.322172
vn -0.945727 0.042487 0.322172
vn -0.281436 0.031418 0.959065
vn -0.281437 0.031418 0.959065
vn -0.281436 0.031418 0.959065
vn -0.281447 0.031407 0.959063
vn -0.281447 0.031407 0.959063
vn -0.281447 0.031407 0.959063
vn 0.908509 -0.025014 0.417115
vn 0.908509 -0.025014 0.417115
vn 0.908509 -0.025014 0.417115
vn 0.908511 -0.025007 0.417113
vn 0.908510 -0.025007 0.417113
vn 0.908510 -0.025007 0.417113
vn 0.883061 -0.022931 0.468699
vn 0.883060 -0.022931 0.468699
vn 0.883060 -0.022931 0.468699
vn 0.883060 -0.022930 0.468699
vn 0.883060 -0.022930 0.468699
vn 0.883060 -0.022930 0.468699
vn 0.971106 -0.041543 -0.235007
vn 0.971106 -0.041543 -0.235007
vn 0.971106 -0.041543 -0.235007
vn 0.971106 -0.041543 -0.235007
vn 0.971106 -0.041543 -0.235007
vn 0.971106 -0.041543 -0.235007
vn 0.514722 -0.037943 -0.856517
vn 0.514722 -0.037943 -0.856517
vn 0.514722 -0.037943 -0.856517
vn 0.514719 -0.037929 -0.856519
vn 0.514719 -0.037929 -0.856519
vn 0.514719 -0.037929 -0.856519
vn 0.281437 -0.031407 -0.959065
vn 0.281437 -0.031407 -0.959065
vn 0.281437 -0.031407 -0.959065
vn 0.281452 -0.031423 -0.959061
vn 0.281452 -0.031423 -0.959061
vn 0.281452 -0.031423 -0.959061
vn -0.451108 -0.002493 -0.892466
vn -0.451108 -0.002493 -0.892466
vn -0.451108 -0.002493 -0.892466
vn -0.451109 -0.002493 -0.892466
vn -0.451109 -0.002493 -0.892466
vn -0.451109 -0.002493 -0.892466
vn -0.958847 0.029827 -0.282351
vn -0.958847 0.029827 -0.282351
vn -0.958847 0.029827 -0.282351
vn -0.958847 0.029828 -0.282351
vn -0.958847 0.029828 -0.282351
vn -0.958847 0.029828 -0.282351
vn -0.823924 0.043201 0.565051
vn -0.823924 0.043201 0.565051
vn -0.823924 0.043201 0.565051
vn -0.823924 0.043201 0.565051
vn -0.823924 0.043201 0.565051
vn -0.823924 0.043201 0.565051
vn -0.728781 0.490931 0.477352
vn -0.728781 0.490931 0.477352
vn -0.728781 0.490931 0.477352
vn -0.648661 0.443019 0.618848
vn -0.648661 0.443019 0.618848
vn -0.648661 0.443019 0.618848
vn -0.224682 0.573871 0.787521
vn -0.224682 0.573871 0.787521
vn -0.224682 0.573871 0.787521
vn -0.082251 0.499526 0.862385
vn -0.082251 0.499526 0.862385
vn -0.082251 0.499526 0.862385
vn 0.614506 0.544431 0.570944
vn 0.614506 0.544431 0.570944
vn 0.614506 0.544431 0.570944
vn 0.495318 0.372863 0.784623
vn 0.495318 0.372863 0.784623
vn 0.495318 0.372863 0.784623
vn 0.910960 0.356639 0.207268
vn 0.910960 0.356639 0.207268
vn 0.910960 0.356639 0.207268
vn 0.892096 0.375339 0.251566
vn 0.892096 0.375339 0.251566
vn 0.892096 0.375339 0.251566
vn 0.904833 0.361649 -0.224695
vn 0.904833 0.361649 -0.224695
vn 0.904833 0.361649 -0.224695
vn 0.904885 0.361736 -0.224345
vn 0.904885 0.361736 -0.224345
vn 0.904885 0.361736 -0.224345
vn 0.688258 0.358467 -0.630715
vn 0.688258 0.358467 -0.630715
vn 0.688258 0.358467 -0.630715
vn 0.676340 0.363966 -0.640385
vn 0.676340 0.363966 -0.640385
vn 0.676339 0.363966 -0.640385
vn 0.272254 0.446658 -0.852276
vn 0.272255 0.446658 -0.852276
vn 0.272254 0.446658 -0.852276
vn 0.170529 0.364013 -0.915650
vn 0.170529 0.364013 -0.915650
vn 0.170529 0.364013 -0.915650
vn -0.558645 0.432672 -0.707609
vn -0.558645 0.432672 -0.707609
vn -0.558645 0.432672 -0.707609
vn -0.444766 0.460906 -0.767951
vn -0.444766 0.460906 -0.767951
vn -0.444766 0.460906 -0.767951
vn -0.831658 0.490234 -0.260798
vn -0.831658 0.490234 -0.260798
vn -0.831658 0.490234 -0.260798
vn -0.831697 0.490215 -0.260709
vn -0.831697 0.490215 -0.260709
vn -0.831697 0.490215 -0.260709
vn -0.824390 0.476710 0.305169
vn -0.824390 0.476710 0.305169
vn -0.824390 0.476710 0.305169
vn -0.872521 0.442536 0.207049
vn -0.872521 0.442536 0.207049
vn -0.872521 0.442536 0.207049
vn -0.709683 0.205380 0.673921
vn -0.709683 0.205380 0.673921
vn -0.709683 0.205380 0.673921
vn -0.332114 0.255175 0.908067
vn -0.332114 0.255175 0.908067
vn -0.332114 0.255175 0.908067
vn 0.513619 0.347139 0.784659
vn 0.513619 0.347139 0.784659
vn 0.513619 0.347139 0.784659
vn 0.871116 0.426276 0.243815
vn 0.871116 0.426276 0.243815
vn 0.871116 0.426276 0.243815
vn 0.872069 0.438517 -0.217251
vn 0.872069 0.438517 -0.217251
vn 0.872069 0.438517 -0.217251
vn 0.658506 0.422419 -0.622842
vn 0.658506 0.422419 -0.622842
vn 0.658506 0.422419 -0.622842
vn 0.174131 0.359814 -0.916631
vn 0.174131 0.359814 -0.916631
vn 0.174131 0.359814 -0.916631
vn -0.632900 0.255118 -0.730994
vn -0.632900 0.255118 -0.730994
vn -0.632900 0.255118 -0.730994
vn -0.937654 0.202140 -0.282743
vn -0.937654 0.202140 -0.282743
vn -0.937654 0.202140 -0.282743
vn -0.955701 0.184222 0.229558
vn -0.955701 0.184222 0.229558
vn -0.955701 0.184222 0.229558
vn -0.999017 0.036944 -0.024512
vn -0.999017 0.036944 -0.024512
vn -0.999017 0.036944 -0.024512
vn -0.970039 -0.230556 0.076602
vn -0.970039 -0.230556 0.076602
vn -0.970039 -0.230556 0.076602
vn 0.877017 -0.043310 -0.478504
vn 0.877017 -0.043310 -0.478504
vn 0.877017 -0.043310 -0.478504
vn 0.864610 -0.371002 -0.338832
vn 0.864610 -0.371002 -0.338832
vn 0.864610 -0.371002 -0.338832
vn -0.870160 0.043314 0.490862
vn -0.870160 0.043314 0.490862
vn -0.870160 0.043314 0.490862
vn -0.902603 -0.324706 0.282620
vn -0.902603 -0.324706 0.282620
vn -0.902603 -0.324706 0.282620
vn 0.992748 -0.034740 0.115089
vn 0.992747 -0.034740 0.115089
vn 0.992747 -0.034740 0.115089
vn 0.973592 -0.227644 0.017256
vn 0.973591 -0.227644 0.017256
vn 0.973592 -0.227644 0.017256
vn -0.938680 -0.309659 0.151630
vn -0.938680 -0.309659 0.151630
vn -0.938680 -0.309659 0.151630
vn -0.886535 -0.452762 0.095197
vn -0.886535 -0.452762 0.095197
vn -0.886535 -0.452762 0.095197
vn -0.265080 -0.450381 0.852578
vn -0.265080 -0.450381 0.852578
vn -0.265080 -0.450381 0.852578
vn -0.273949 -0.425760 0.862369
vn -0.273949 -0.425760 0.862369
vn -0.273949 -0.425760 0.862369
vn 0.958617 -0.054760 0.279384
vn 0.958617 -0.054760 0.279384
vn 0.958617 -0.054760 0.279384
vn 0.975507 -0.182290 0.123114
vn 0.975507 -0.182290 0.123114
vn 0.975507 -0.182290 0.123114
vn 0.890249 -0.405005 0.208394
vn 0.890249 -0.405005 0.208394
vn 0.890249 -0.405005 0.208394
vn 0.866284 -0.465777 0.180564
vn 0.866284 -0.465777 0.180564
vn 0.866284 -0.465777 0.180564
vn -0.704450 -0.053515 0.707734
vn -0.704450 -0.053515 0.707734
vn -0.704450 -0.053515 0.707734
vn -0.794664 -0.169463 0.582916
vn -0.794664 -0.169463 0.582916
vn -0.794664 -0.169463 0.582916
vn 0.661756 -0.399728 0.634268
vn 0.661757 -0.399728 0.634268
vn 0.661757 -0.399728 0.634268
vn 0.604084 -0.474324 0.640391
vn 0.604084 -0.474324 0.640391
vn 0.604084 -0.474324 0.640391
vn 0.840192 -0.505087 -0.197391
vn 0.840192 -0.505087 -0.197391
vn 0.840192 -0.505087 -0.197391
vn 0.837550 -0.509305 -0.197785
vn 0.837550 -0.509305 -0.197785
vn 0.837550 -0.509305 -0.197785
vn 0.251051 -0.388285 -0.886684
vn 0.251051 -0.388285 -0.886684
vn 0.251051 -0.388285 -0.886684
vn 0.180563 -0.486387 -0.854883
vn 0.180563 -0.486387 -0.854883
vn 0.180563 -0.486387 -0.854883
vn 0.227126 -0.516198 -0.825805
vn 0.227126 -0.516198 -0.825805
vn 0.227126 -0.516198 -0.825805
vn 0.237067 -0.494009 -0.836513
vn 0.237067 -0.494009 -0.836513
vn 0.237067 -0.494009 -0.836513
vn -0.946934 -0.052070 -0.317184
vn -0.946934 -0.052070 -0.317184
vn -0.946934 -0.052070 -0.317184
vn -0.975699 -0.169697 -0.138619
vn -0.975699 -0.169697 -0.138619
vn -0.975699 -0.169697 -0.138619
vn -0.272469 -0.389040 -0.880005
vn -0.272469 -0.389040 -0.880005
vn -0.272469 -0.389040 -0.880005
vn -0.236822 -0.473811 -0.848186
vn -0.236822 -0.473811 -0.848186
vn -0.236822 -0.473811 -0.848186
vn 0.642033 -0.137317 -0.754279
vn 0.642033 -0.137318 -0.754279
vn 0.642033 -0.137317 -0.754279
vn 0.736512 -0.255642 -0.626256
vn 0.736512 -0.255642 -0.626257
vn 0.736512 -0.255642 -0.626257
vn -0.864768 -0.441486 -0.239306
vn -0.864768 -0.441486 -0.239306
vn -0.864768 -0.441486 -0.239306
vn -0.862625 -0.445511 -0.239581
vn -0.862625 -0.445511 -0.239581
vn -0.862625 -0.445511 -0.239581
vn -0.656251 -0.345430 0.670830
vn -0.656251 -0.345430 0.670830
vn -0.656251 -0.345430 0.670830
vn -0.596401 -0.452783 0.662793
vn -0.596401 -0.452783 0.662793
vn -0.596401 -0.452783 0.662793
s off
f 1/6/1 2/7/2 6/12/3
f 6/12/4 2/7/5 7/13/6
f 2/7/7 3/8/8 7/13/9
f 7/13/10 3/8/11 8/14/12
f 4/9/13 9/15/14 3/8/15
f 3/8/16 9/15/17 8/14/18
f 5/10/19 10/16/20 4/9/21
f 4/9/22 10/16/23 9/15/24
f 1/11/25 6/17/26 5/10/27
f 5/10/28 6/17/29 10/16/30
f 2/2/31 1/1/32 11/23/33
f 3/3/34 2/2/35 11/23/36
f 4/4/37 3/3/38 11/23/39
f 5/5/40 4/4/41 11/23/42
f 1/1/43 5/5/44 11/23/45
f 6/21/46 7/20/47 12/24/48
f 12/24/49 7/20/50 13/25/51
f 8/19/52 14/26/53 7/20/54
f 7/20/55 14/26/56 13/25/57
f 9/18/58 15/27/59 8/19/60
f 8/19/61 15/27/62 14/26/63
f 9/18/64 10/22/65 15/27/66
f 15/27/67 10/22/68 16/28/69
f 10/22/70 6/21/71 16/28/72
f 16/28/73 6/21/74 12/24/75
f 17/29/76 29/30/77 18/31/78
f 18/31/79 29/30/80 19/32/81
f 20/33/82 29/30/83 21/34/84
f 21/34/85 29/30/86 22/35/87
f 22/35/88 29/30/89 23/36/90
f 23/36/91 29/30/92 24/37/93
f 24/37/94 29/30/95 25/38/96
f 26/39/97 29/30/98 27/40/99
f 27/40/100 29/30/101 28/41/102
f 28/41/103 29/30/104 17/29/105
f 18/43/106 31/44/107 17/42/108
f 17/42/109 31/44/110 30/45/111
f 18/43/112 19/46/113 31/44/114
f 31/44/115 19/46/116 32/47/117
f 20/48/118 21/49/119 33/51/120
f 33/51/121 21/49/122 34/50/123
f 22/52/124 35/53/125 21/49/126
f 21/49/127 35/53/128 34/50/129
f 22/52/130 23/54/131 35/53/132
f 35/53/133 23/54/134 36/55/135
f 23/54/136 24/56/137 36/55/138
f 36/55/139 24/56/140 37/57/141
f 24/56/142 25/58/143 37/57/144
f 37/57/145 25/58/146 38/59/147
f 27/61/148 40/62/149 26/60/150
f 26/60/151 40/62/152 39/63/153
f 27/61/154 28/64/155 40/62/156
f 40/62/157 28/64/158 41/65/159
f 28/64/160 17/42/161 41/65/162
f 41/65/163 17/42/164 30/45/165
f 45/67/166 46/68/167 44/66/168
f 44/66/169 46/68/170 47/69/171
f 48/70/172 49/71/173 45/67/174
f 45/67/175 49/71/176 46/68/177
f 50/72/178 51/73/179 49/71/180
f 49/71/181 51/73/182 52/74/183
f 53/75/184 54/76/185 51/73/186
f 51/73/187 54/76/188 52/74/189
f 55/77/190 56/78/191 53/75/192
f 53/75/193 56/78/194 54/76/195
f 55/77/196 57/79/197 56/78/198
f 56/78/199 57/79/200 58/80/201
f 59/81/202 60/82/203 57/79/204
f 57/79/205 60/82/206 58/80/207
f 62/84/208 63/85/209 61/83/210
f 61/83/211 63/85/212 60/82/213
f 64/86/214 65/87/215 62/84/216
f 62/84/217 65/87/218 63/85/219
f 64/86/220 44/66/221 65/87/222
f 65/87/223 44/66/224 47/69/225
f 47/69/226 46/68/227 66/88/228
f 46/68/229 49/71/230 66/88/231
f 49/71/232 52/74/233 66/88/234
f 52/74/235 54/76/236 66/88/237
f 54/76/238 56/78/239 66/88/240
f 56/78/241 58/80/242 66/88/243
f 58/80/244 60/82/245 66/88/246
f 60/82/247 63/85/248 66/88/249
f 63/85/250 65/87/251 66/88/252
f 65/87/253 47/69/254 66/88/255
f 25/118/256 29/117/257 38/115/258
f 38/115/259 29/117/260 43/116/261
f 26/113/262 39/112/263 29/114/264
f 29/114/265 39/112/266 43/111/267
f 20/109/268 33/108/269 29/110/270
f 29/110/271 33/108/272 42/107/273
f 19/106/274 29/105/275 32/103/276
f 32/103/277 29/105/278 42/104/279
f 31/90/280 45/67/281 30/89/282
f 30/89/283 45/67/284 44/66/285
f 32/91/286 48/70/287 31/90/288
f 31/90/289 48/70/290 45/67/291
f 32/91/292 42/92/293 48/70/294
f 48/70/295 42/92/296 49/71/297
f 33/93/298 34/94/299 50/72/300
f 50/72/301 34/94/302 51/73/303
f 33/93/304 50/72/305 42/92/306
f 42/92/307 50/72/308 49/71/309
f 35/95/310 53/75/311 34/94/312
f 34/94/313 53/75/314 51/73/315
f 36/96/316 55/77/317 35/95/318
f 35/95/319 55/77/320 53/75/321
f 36/96/322 37/97/323 55/77/324
f 55/77/325 37/97/326 57/79/327
f 38/98/328 59/81/329 37/97/330
f 37/97/331 59/81/332 57/79/333
f 38/98/334 43/99/335 59/81/336
f 59/81/337 43/99/338 60/82/339
f 40/101/340 62/84/341 39/100/342
f 39/100/343 62/84/344 61/83/345
f 39/100/346 61/83/347 43/99/348
f 43/99/349 61/83/350 60/82/351
f 40/101/352 41/102/353 62/84/354
f 62/84/355 41/102/356 64/86/357
f 41/102/358 30/89/359 64/86/360
f 64/86/361 30/89/362 44/66/363
