# This file uses centimeters as units for non-parametric coordinates.

v 58.478642 0.157790 13.043594
v 1.528025 6.375111 86.964798
v -25.466108 22.800753 47.869492
v -52.405121 30.004795 -32.612991
v -9.697008 32.152550 -67.989731
v 21.432734 0.445342 -64.453506
v 45.091202 -1.215758 -39.056015
v -9.929037 0.195655 -80.378342
v -18.015051 6.418689 -86.964798
v -48.796036 1.177949 -68.654633
v -30.531359 -3.315894 -68.758011
v -28.257895 -6.750086 24.886703
v 21.005774 -6.534951 33.875656
v -50.701283 -0.784887 40.189743
v 63.425064 6.395699 13.132095
v 59.917023 23.057266 6.370926
v 52.965687 31.684208 -0.574875
v -61.593292 3.220089 26.564789
v -58.540916 25.181650 -21.080399
v -18.611574 -2.121665 70.520020
v -39.259579 3.776227 59.132004
v 2.922773 -1.328185 79.323578
v 18.972921 6.387498 85.414505
v 7.483482 18.582117 81.085968
v -10.466194 32.926384 42.604446
v -41.923618 32.321598 2.986526
v -12.297106 43.560307 3.400803
v 18.347406 39.966492 43.344498
v 29.844284 34.104191 41.153717
v 31.557178 39.190186 28.062057
v 18.027639 44.437782 1.112747
v 31.186008 40.210743 -12.829208
v 35.388325 31.271118 -38.553238
v -0.928450 40.068073 -43.276596
v -15.520620 41.216270 -37.644577
v -37.391758 33.462002 -54.615402
v -52.444412 19.616007 -61.331558
v -44.838573 12.611620 -76.152802
v -30.981350 30.004795 -69.323730
v 13.483143 25.771725 -65.776443
v 55.785084 5.133413 -39.951706
v 44.034718 5.049136 -51.671219
v 6.052446 13.738039 -77.624130
v -32.827377 6.476232 -85.473251
v -47.069691 -3.444016 -49.971390
v -54.765842 -3.798515 -12.414551
v 13.732958 -5.642555 -44.411087
v -6.529045 -6.864458 43.693161
v 45.098114 6.471627 40.669632
v 46.869900 -4.820469 -1.369858
v 69.491859 6.476232 -14.719772
v 57.032536 26.306339 -19.255829
v 19.021988 17.338318 80.736160
v -66.159248 4.967822 -37.267303
v -69.491814 4.726050 -8.125687
v -62.591793 13.802362 9.108353
v -37.496521 25.178452 28.834152
v 24.646521 2.226985 77.375031
vt 0.944154 0.401531
vt 0.944154 0.401531
vt 0.944154 0.401531
vt 0.944154 0.401531
vt 0.944154 0.401531
vt 0.944154 0.401531
vt 0.944154 0.401531
vt 0.944154 0.401531
vt 0.944154 0.401531
vt 0.944154 0.401531
vt 0.944154 0.401531
vt 0.944154 0.401531
vt 0.944154 0.401531
vt 0.944154 0.401531
vt 0.944154 0.401531
vt 0.944154 0.401531
vt 0.944154 0.401531
vt 0.944154 0.401531
vt 0.944154 0.401531
vt 0.944154 0.401531
vt 0.944154 0.401531
vt 0.944154 0.401531
vt 0.944154 0.401531
vt 0.944154 0.401531
vt 0.944154 0.401531
vt 0.944154 0.401531
vt 0.944154 0.401531
vt 0.944154 0.401531
vt 0.944154 0.401531
vt 0.944154 0.401531
vt 0.944154 0.401531
vt 0.944154 0.401531
vt 0.944154 0.401531
vt 0.944154 0.401531
vt 0.944154 0.401531
vt 0.944154 0.401531
vt 0.944154 0.401531
vt 0.944154 0.401531
vt 0.944154 0.401531
vt 0.944154 0.401531
vt 0.944154 0.401531
vt 0.944154 0.401531
vt 0.944154 0.401531
vt 0.944154 0.401531
vt 0.944154 0.401531
vt 0.944154 0.401531
vt 0.944154 0.401531
vt 0.944154 0.401531
vt 0.944154 0.401531
vt 0.944154 0.401531
vt 0.944154 0.401531
vt 0.944154 0.401531
vt 0.944154 0.401531
vt 0.944154 0.401531
vt 0.944154 0.401531
vt 0.944154 0.401531
vt 0.944154 0.401531
vt 0.944154 0.401531
vn -0.524897 -0.298551 0.797089
vn -0.524897 -0.298551 0.797089
vn -0.524897 -0.298551 0.797089
vn -0.470597 -0.749974 0.464841
vn -0.470597 -0.749974 0.464841
vn -0.470597 -0.749974 0.464841
vn -0.029515 -0.986495 0.161112
vn -0.029515 -0.986495 0.161112
vn -0.029515 -0.986495 0.161112
vn -0.246094 -0.704678 0.665483
vn -0.246093 -0.704678 0.665483
vn -0.246093 -0.704678 0.665483
vn -0.548984 0.564633 0.616284
vn -0.548984 0.564633 0.616284
vn -0.548984 0.564633 0.616284
vn -0.445791 0.672771 0.590466
vn -0.445791 0.672771 0.590466
vn -0.445791 0.672771 0.590466
vn 0.174592 -0.967981 0.180364
vn 0.174592 -0.967981 0.180364
vn 0.174592 -0.967981 0.180364
vn 0.174935 -0.677235 0.714668
vn 0.174935 -0.677235 0.714668
vn 0.174935 -0.677235 0.714668
vn 0.263681 -0.949652 0.169216
vn 0.263681 -0.949652 0.169216
vn 0.263681 -0.949652 0.169216
vn 0.846226 0.198522 0.494459
vn 0.846226 0.198522 0.494459
vn 0.846226 0.198522 0.494459
vn 0.844689 0.207079 0.493578
vn 0.844689 0.207079 0.493578
vn 0.844689 0.207079 0.493578
vn 0.043567 -0.874395 0.483255
vn 0.043567 -0.874395 0.483255
vn 0.043567 -0.874395 0.483255
vn 0.081188 0.391260 0.916692
vn 0.081188 0.391260 0.916692
vn 0.081188 0.391260 0.916692
vn 0.107345 0.851450 0.513332
vn 0.107345 0.851450 0.513332
vn 0.107345 0.851450 0.513332
vn 0.071232 0.404373 0.911816
vn 0.071232 0.404373 0.911816
vn 0.071232 0.404373 0.911816
vn -0.373476 0.798637 0.471905
vn -0.373476 0.798637 0.471905
vn -0.373476 0.798637 0.471905
vn -0.224639 0.874130 0.430621
vn -0.224639 0.874130 0.430621
vn -0.224639 0.874130 0.430621
vn -0.235297 0.935196 0.264659
vn -0.235297 0.935196 0.264659
vn -0.235297 0.935196 0.264659
vn -0.020814 0.994210 0.105420
vn -0.020814 0.994210 0.105420
vn -0.020814 0.994210 0.105420
vn -0.442045 0.830748 0.338311
vn -0.442045 0.830748 0.338311
vn -0.442045 0.830748 0.338311
vn -0.345607 0.901451 0.260658
vn -0.345607 0.901451 0.260658
vn -0.345607 0.901451 0.260658
vn 0.472223 0.757886 0.450128
vn 0.472223 0.757886 0.450128
vn 0.472223 0.757886 0.450127
vn 0.650171 0.675640 0.347547
vn 0.650171 0.675640 0.347547
vn 0.650171 0.675640 0.347547
vn 0.476946 0.796419 0.371805
vn 0.476946 0.796419 0.371805
vn 0.476946 0.796419 0.371805
vn 0.175921 0.979072 0.102327
vn 0.175921 0.979072 0.102327
vn 0.175921 0.979072 0.102327
vn 0.325539 0.945303 0.020638
vn 0.325539 0.945303 0.020638
vn 0.325539 0.945303 0.020638
vn 0.145856 0.976540 -0.158418
vn 0.145856 0.976540 -0.158418
vn 0.145856 0.976540 -0.158418
vn 0.354644 0.934785 0.020111
vn 0.354644 0.934785 0.020111
vn 0.354644 0.934785 0.020111
vn 0.626557 0.728295 0.277512
vn 0.626557 0.728295 0.277512
vn 0.626557 0.728295 0.277512
vn 0.436548 0.885368 -0.159842
vn 0.436548 0.885368 -0.159842
vn 0.436548 0.885368 -0.159842
vn 0.413637 0.878827 -0.237838
vn 0.413637 0.878827 -0.237838
vn 0.413637 0.878827 -0.237838
vn 0.260182 0.924445 -0.278760
vn 0.260182 0.924445 -0.278760
vn 0.260182 0.924445 -0.278760
vn -0.354879 0.933890 0.043709
vn -0.354879 0.933890 0.043709
vn -0.354879 0.933890 0.043709
vn -0.284488 0.957686 -0.043641
vn -0.284488 0.957686 -0.043641
vn -0.284488 0.957686 -0.043641
vn -0.502656 0.859571 0.092056
vn -0.502656 0.859571 0.092056
vn -0.502656 0.859571 0.092056
vn -0.032982 0.997974 -0.054403
vn -0.032982 0.997974 -0.054403
vn -0.032982 0.997974 -0.054403
vn 0.034691 0.993038 -0.112569
vn 0.034691 0.993038 -0.112569
vn 0.034691 0.993038 -0.112569
vn -0.313551 0.949111 -0.029577
vn -0.313551 0.949111 -0.029577
vn -0.313550 0.949111 -0.029577
vn -0.077243 0.951147 -0.298920
vn -0.077243 0.951147 -0.298920
vn -0.077243 0.951147 -0.298920
vn -0.122590 0.952899 -0.277409
vn -0.122590 0.952899 -0.277409
vn -0.122590 0.952899 -0.277409
vn -0.037764 0.955478 -0.292637
vn -0.037764 0.955478 -0.292637
vn -0.037764 0.955478 -0.292637
vn -0.581018 0.765607 -0.276159
vn -0.581018 0.765607 -0.276159
vn -0.581018 0.765607 -0.276159
vn -0.515910 0.756149 -0.402585
vn -0.515910 0.756149 -0.402585
vn -0.515910 0.756149 -0.402585
vn -0.315212 0.553740 -0.770723
vn -0.315212 0.553740 -0.770723
vn -0.315212 0.553740 -0.770723
vn -0.520198 0.637558 -0.568255
vn -0.520198 0.637558 -0.568255
vn -0.520198 0.637558 -0.568255
vn 0.148696 0.555286 -0.818258
vn 0.148696 0.555286 -0.818259
vn 0.148696 0.555286 -0.818259
vn -0.009740 0.595478 -0.803313
vn -0.009740 0.595478 -0.803313
vn -0.009740 0.595478 -0.803313
vn -0.080249 0.568348 -0.818865
vn -0.080249 0.568348 -0.818865
vn -0.080249 0.568348 -0.818865
vn 0.279015 0.881345 -0.381290
vn 0.279015 0.881345 -0.381290
vn 0.279015 0.881345 -0.381290
vn 0.264398 0.881662 -0.390853
vn 0.264398 0.881662 -0.390853
vn 0.264398 0.881662 -0.390853
vn 0.581093 0.359854 -0.729956
vn 0.581093 0.359854 -0.729956
vn 0.581093 0.359854 -0.729956
vn 0.238576 0.602520 -0.761611
vn 0.238576 0.602520 -0.761611
vn 0.238576 0.602520 -0.761611
vn 0.615545 0.512383 -0.598806
vn 0.615545 0.512383 -0.598806
vn 0.615545 0.512383 -0.598806
vn 0.615737 0.485198 -0.620847
vn 0.615737 0.485198 -0.620847
vn 0.615737 0.485198 -0.620847
vn 0.513982 -0.225365 -0.827667
vn 0.513982 -0.225365 -0.827667
vn 0.513982 -0.225365 -0.827667
vn 0.386952 -0.839281 -0.381935
vn 0.386952 -0.839281 -0.381935
vn 0.386952 -0.839281 -0.381936
vn 0.427808 -0.784008 -0.449792
vn 0.427808 -0.784008 -0.449792
vn 0.427808 -0.784008 -0.449792
vn 0.428672 -0.335256 -0.838954
vn 0.428672 -0.335256 -0.838954
vn 0.428672 -0.335256 -0.838954
vn -0.888420 0.006502 -0.458985
vn -0.888420 0.006502 -0.458985
vn -0.888420 0.006502 -0.458985
vn -0.873831 0.020046 -0.485816
vn -0.873831 0.020046 -0.485817
vn -0.873831 0.020046 -0.485817
vn -0.667630 -0.232694 -0.707194
vn -0.667630 -0.232694 -0.707194
vn -0.667630 -0.232694 -0.707194
vn 0.427545 -0.333682 -0.840156
vn 0.427545 -0.333682 -0.840156
vn 0.427545 -0.333682 -0.840156
vn -0.037107 -0.942499 -0.332142
vn -0.037107 -0.942499 -0.332142
vn -0.037107 -0.942499 -0.332142
vn -0.185121 -0.817599 -0.545218
vn -0.185121 -0.817599 -0.545218
vn -0.185121 -0.817599 -0.545218
vn -0.196686 -0.785920 -0.586212
vn -0.196686 -0.785920 -0.586212
vn -0.196686 -0.785920 -0.586212
vn -0.234571 -0.948484 -0.212967
vn -0.234571 -0.948484 -0.212967
vn -0.234571 -0.948484 -0.212967
vn -0.032962 -0.998814 -0.035829
vn -0.032962 -0.998814 -0.035829
vn -0.032962 -0.998814 -0.035829
vn 0.130495 -0.961482 -0.241918
vn 0.130495 -0.961482 -0.241918
vn 0.130495 -0.961482 -0.241918
vn 0.056331 -0.978991 -0.195969
vn 0.056331 -0.978991 -0.195969
vn 0.056331 -0.978991 -0.195969
vn -0.032791 -0.998820 -0.035833
vn -0.032791 -0.998820 -0.035833
vn -0.032791 -0.998820 -0.035833
vn -0.075873 -0.996805 -0.024957
vn -0.075873 -0.996805 -0.024957
vn -0.075873 -0.996805 -0.024957
vn 0.173703 -0.958862 -0.224523
vn 0.173703 -0.958862 -0.224523
vn 0.173703 -0.958862 -0.224523
vn 0.156011 -0.982543 -0.101344
vn 0.156011 -0.982543 -0.101344
vn 0.156011 -0.982543 -0.101344
vn 0.005621 -0.999905 -0.012575
vn 0.005621 -0.999905 -0.012575
vn 0.005621 -0.999905 -0.012575
vn 0.007648 -0.999897 -0.012108
vn 0.007648 -0.999897 -0.012108
vn 0.007648 -0.999898 -0.012108
vn 0.045000 -0.998866 -0.015567
vn 0.045000 -0.998866 -0.015567
vn 0.045000 -0.998866 -0.015567
vn 0.245771 -0.960070 0.133652
vn 0.245771 -0.960070 0.133652
vn 0.245771 -0.960070 0.133652
vn 0.060847 -0.988635 0.137474
vn 0.060847 -0.988635 0.137474
vn 0.060847 -0.988635 0.137474
vn -0.210003 -0.975040 0.072085
vn -0.210003 -0.975040 0.072085
vn -0.210003 -0.975040 0.072085
vn -0.147268 -0.975368 0.164221
vn -0.147268 -0.975368 0.164221
vn -0.147268 -0.975369 0.164221
vn -0.144016 -0.983552 0.109021
vn -0.144016 -0.983552 0.109021
vn -0.144016 -0.983552 0.109021
vn 0.691751 -0.555086 0.461909
vn 0.691751 -0.555086 0.461909
vn 0.691751 -0.555086 0.461909
vn 0.867579 -0.183598 0.462168
vn 0.867579 -0.183598 0.462168
vn 0.867579 -0.183598 0.462168
vn 0.430009 -0.902156 -0.034738
vn 0.430009 -0.902156 -0.034738
vn 0.430009 -0.902156 -0.034738
vn 0.501087 -0.858905 -0.105805
vn 0.501087 -0.858904 -0.105805
vn 0.501087 -0.858904 -0.105805
vn 0.368630 -0.917157 -0.151441
vn 0.368630 -0.917157 -0.151441
vn 0.368630 -0.917157 -0.151441
vn 0.771494 -0.614125 0.166274
vn 0.771494 -0.614125 0.166274
vn 0.771494 -0.614125 0.166274
vn 0.937656 0.280632 0.205055
vn 0.937656 0.280632 0.205055
vn 0.937656 0.280632 0.205055
vn 0.797432 0.397105 -0.454324
vn 0.797432 0.397105 -0.454324
vn 0.797432 0.397105 -0.454324
vn 0.843363 0.536553 0.029138
vn 0.843363 0.536553 0.029138
vn 0.843363 0.536553 0.029138
vn 0.630911 0.522999 -0.573082
vn 0.630911 0.522999 -0.573082
vn 0.630911 0.522999 -0.573082
vn 0.809363 0.580532 -0.088964
vn 0.809363 0.580532 -0.088964
vn 0.809363 0.580532 -0.088964
vn 0.759635 0.410500 0.504425
vn 0.759635 0.410500 0.504425
vn 0.759635 0.410500 0.504425
vn 0.756652 0.376283 0.534685
vn 0.756652 0.376283 0.534685
vn 0.756652 0.376283 0.534685
vn 0.803588 0.436512 0.404603
vn 0.803588 0.436512 0.404603
vn 0.803588 0.436512 0.404603
vn -0.434161 -0.899023 -0.057108
vn -0.434161 -0.899023 -0.057108
vn -0.434161 -0.899023 -0.057108
vn -0.488412 -0.856530 -0.166763
vn -0.488412 -0.856530 -0.166763
vn -0.488412 -0.856530 -0.166763
vn -0.522552 -0.844809 -0.115056
vn -0.522552 -0.844809 -0.115056
vn -0.522552 -0.844809 -0.115056
vn -0.479968 -0.872952 0.087096
vn -0.479968 -0.872952 0.087096
vn -0.479968 -0.872952 0.087096
vn -0.400824 -0.914704 0.051553
vn -0.400824 -0.914704 0.051553
vn -0.400824 -0.914704 0.051553
vn -0.787526 -0.287754 0.544978
vn -0.787526 -0.287754 0.544978
vn -0.787526 -0.287754 0.544978
vn -0.932600 0.282508 0.224604
vn -0.932600 0.282508 0.224604
vn -0.932600 0.282508 0.224604
vn -0.630294 0.647389 0.428506
vn -0.630294 0.647389 0.428506
vn -0.630294 0.647389 0.428506
vn -0.631955 0.649856 0.422280
vn -0.631955 0.649856 0.422280
vn -0.631955 0.649856 0.422280
vn -0.575657 0.683278 0.449166
vn -0.575657 0.683278 0.449166
vn -0.575657 0.683278 0.449166
vn -0.582792 0.752124 0.307673
vn -0.582792 0.752124 0.307673
vn -0.582792 0.752124 0.307673
vn -0.297758 0.905836 0.301333
vn -0.297758 0.905836 0.301333
vn -0.297758 0.905836 0.301333
vn -0.902117 0.419819 -0.099681
vn -0.902117 0.419819 -0.099681
vn -0.902117 0.419819 -0.099681
vn -0.858166 0.507685 0.076213
vn -0.858166 0.507684 0.076213
vn -0.858166 0.507685 0.076213
vn -0.619480 0.758381 0.202738
vn -0.619480 0.758381 0.202738
vn -0.619480 0.758381 0.202738
vn -0.855534 0.479274 -0.195851
vn -0.855534 0.479274 -0.195851
vn -0.855534 0.479274 -0.195851
vn -0.808920 0.553210 -0.199015
vn -0.808920 0.553210 -0.199014
vn -0.808920 0.553210 -0.199014
s off
f 20/1/1 2/2/2 21/3/3
f 14/4/4 20/1/5 21/3/6
f 20/1/7 48/5/8 22/6/9
f 20/1/10 22/6/11 2/2/12
f 2/2/13 24/7/14 3/8/15
f 21/3/16 2/2/17 3/8/18
f 22/6/19 13/9/20 58/10/21
f 22/6/22 58/10/23 2/2/24
f 13/9/25 1/11/26 58/10/27
f 58/10/28 49/12/29 23/13/30
f 23/13/31 49/12/32 53/14/33
f 2/2/34 58/10/35 23/13/36
f 2/2/37 23/13/38 53/14/39
f 24/7/40 53/14/41 28/15/42
f 2/2/43 53/14/44 24/7/45
f 3/8/46 24/7/47 25/16/48
f 25/16/49 24/7/50 28/15/51
f 25/16/52 28/15/53 27/17/54
f 28/15/55 31/18/56 27/17/57
f 3/8/58 25/16/59 26/19/60
f 25/16/61 27/17/62 26/19/63
f 28/15/64 53/14/65 29/20/66
f 30/21/67 29/20/68 16/22/69
f 28/15/70 29/20/71 30/21/72
f 28/15/73 30/21/74 31/18/75
f 31/18/76 30/21/77 32/23/78
f 31/18/79 32/23/80 34/24/81
f 30/21/82 17/25/83 32/23/84
f 30/21/85 16/22/86 17/25/87
f 32/23/88 17/25/89 52/26/90
f 32/23/91 52/26/92 33/27/93
f 32/23/94 33/27/95 34/24/96
f 26/19/97 27/17/98 4/29/99
f 4/29/100 27/17/101 36/28/102
f 19/30/103 26/19/104 4/29/105
f 27/17/106 31/18/107 35/31/108
f 35/31/109 31/18/110 34/24/111
f 27/17/112 35/31/113 36/28/114
f 35/31/115 5/32/116 39/33/117
f 36/28/118 35/31/119 39/33/120
f 35/31/121 34/24/122 5/32/123
f 4/29/124 36/28/125 37/34/126
f 37/34/127 36/28/128 39/33/129
f 38/35/130 39/33/131 44/36/132
f 37/34/133 39/33/134 38/35/135
f 5/32/136 43/37/137 9/38/138
f 5/32/139 9/38/140 39/33/141
f 39/33/142 9/38/143 44/36/144
f 5/32/145 34/24/146 40/39/147
f 34/24/148 33/27/149 40/39/150
f 40/39/151 42/40/152 43/37/153
f 5/32/154 40/39/155 43/37/156
f 40/39/157 33/27/158 41/41/159
f 40/39/160 41/41/161 42/40/162
f 43/37/163 42/40/164 6/42/165
f 42/40/166 41/41/167 6/42/168
f 6/42/169 41/41/170 7/43/171
f 8/44/172 43/37/173 6/42/174
f 38/35/175 10/45/176 37/34/177
f 37/34/178 10/45/179 54/46/180
f 38/35/181 44/36/182 10/45/183
f 9/38/184 43/37/185 8/44/186
f 44/36/187 9/38/188 10/45/189
f 10/45/190 9/38/191 8/44/192
f 10/45/193 8/44/194 11/47/195
f 10/45/196 11/47/197 45/48/198
f 45/48/199 11/47/200 12/49/201
f 6/42/202 47/50/203 8/44/204
f 8/44/205 47/50/206 11/47/207
f 11/47/208 47/50/209 12/49/210
f 46/51/211 45/48/212 12/49/213
f 6/42/214 7/43/215 47/50/216
f 47/50/217 7/43/218 50/52/219
f 12/49/220 47/50/221 48/5/222
f 48/5/223 47/50/224 13/9/225
f 47/50/226 50/52/227 13/9/228
f 50/52/229 1/11/230 13/9/231
f 48/5/232 13/9/233 22/6/234
f 46/51/235 12/49/236 14/4/237
f 14/4/238 12/49/239 48/5/240
f 14/4/241 48/5/242 20/1/243
f 1/11/244 15/53/245 49/12/246
f 58/10/247 1/11/248 49/12/249
f 1/11/250 50/52/251 51/54/252
f 50/52/253 7/43/254 41/41/255
f 50/52/256 41/41/257 51/54/258
f 1/11/259 51/54/260 15/53/261
f 15/53/262 51/54/263 16/22/264
f 51/54/265 41/41/266 52/26/267
f 17/25/268 51/54/269 52/26/270
f 41/41/271 33/27/272 52/26/273
f 16/22/274 51/54/275 17/25/276
f 49/12/277 15/53/278 29/20/279
f 15/53/280 16/22/281 29/20/282
f 49/12/283 29/20/284 53/14/285
f 54/46/286 45/48/287 55/55/288
f 10/45/289 45/48/290 54/46/291
f 45/48/292 46/51/293 55/55/294
f 46/51/295 14/4/296 55/55/297
f 55/55/298 14/4/299 18/56/300
f 18/56/301 14/4/302 21/3/303
f 55/55/304 18/56/305 56/57/306
f 18/56/307 57/58/308 56/57/309
f 18/56/310 21/3/311 57/58/312
f 21/3/313 3/8/314 57/58/315
f 56/57/316 57/58/317 26/19/318
f 57/58/319 3/8/320 26/19/321
f 54/46/322 55/55/323 19/30/324
f 55/55/325 56/57/326 19/30/327
f 19/30/328 56/57/329 26/19/330
f 54/46/331 19/30/332 37/34/333
f 37/34/334 19/30/335 4/29/336
