# This file uses centimeters as units for non-parametric coordinates.

v 46.188641 37.250977 31.850052
v 54.992390 -0.784887 -33.271790
v -61.307190 2.474192 38.288879
v 22.839832 28.631254 53.285980
v 43.244362 26.943012 -53.398514
v 5.331850 39.863541 -62.810135
v -15.599394 41.417561 -53.174591
v -33.858063 27.332439 -52.534866
v -50.339699 20.715281 -35.659027
v -24.019814 2.818424 70.294952
v -10.147619 3.024314 73.634720
v 5.356646 -0.741845 69.212341
v 47.342827 -2.963505 27.831268
v 54.407120 4.407514 41.764069
v 29.285765 4.194597 62.495422
v -0.297642 18.786297 66.556549
v -20.728254 15.766327 63.805771
v 44.493675 49.886265 -34.924698
v -12.236118 27.501810 -66.995239
v 20.736027 29.319250 -65.207291
v 60.248566 5.120462 -40.565872
v 26.176548 4.947762 -68.536758
v 3.812885 4.828812 -73.634720
v -14.657450 5.023405 -71.482086
v -9.898710 -3.593110 -55.059433
v -45.109894 -3.506052 -26.488876
v -63.591148 -1.538232 25.714111
v 30.763197 -3.917201 -45.942307
v 58.361435 -2.726778 -11.949158
v -25.279093 -6.869020 -6.542206
v 31.269360 -6.547316 11.321640
v -8.931160 -5.409663 48.962402
v -26.112032 -2.389659 58.158112
v 70.688919 3.417211 10.692596
v 69.999123 9.558474 16.906738
v 70.866394 3.123487 -13.511658
v 67.329071 18.558874 -24.577332
v 63.196419 40.193703 -12.110138
v 72.145752 18.346497 -1.904678
v 63.733387 36.535847 9.304810
v -39.768173 3.577375 -56.173706
v -64.127777 1.603951 -20.444870
v -72.145699 1.833744 4.924393
v -69.697952 2.663912 27.232742
v -69.495773 10.816373 4.235458
v -43.944836 15.011546 -50.315857
v -36.783173 32.244915 -40.583038
v 47.582436 43.867641 33.621979
v 23.255205 35.394890 55.498505
v 9.167290 37.358780 55.484772
v -22.073698 22.424948 65.726089
v -63.295029 9.002099 39.935303
v -34.829758 31.576147 37.009048
v -0.471449 25.421841 68.931580
v -10.991240 42.301922 32.965851
v 13.905430 56.205933 7.916641
v -47.000168 34.849312 14.976501
v 40.571831 59.573883 9.941101
v 56.482841 55.477993 6.373215
v 53.651810 59.869923 -16.395569
v 12.918711 63.491261 -27.476883
v 28.628159 63.996994 -38.856125
v 46.426392 56.048935 -36.851501
v 5.832195 58.219624 -52.207565
v 5.419016 46.340008 -65.247726
v -27.005005 48.303570 -31.210327
v -16.969824 48.178417 -54.764557
v -39.000465 38.954857 -41.290665
v 66.043663 46.218430 -12.643433
v 66.359283 42.691154 10.340118
v -71.947624 9.171428 28.479004
v -72.040222 17.262001 4.369354
v -58.444260 30.979353 1.905823
v -52.943375 27.143520 -36.309052
vt 0.562643 0.784061
vt 0.562643 0.784061
vt 0.562643 0.784061
vt 0.562643 0.784061
vt 0.562643 0.784061
vt 0.562643 0.784061
vt 0.562643 0.784061
vt 0.562643 0.784061
vt 0.562643 0.784061
vt 0.562643 0.784061
vt 0.562643 0.784061
vt 0.562643 0.784061
vt 0.562643 0.784061
vt 0.562643 0.784061
vt 0.562643 0.784061
vt 0.562643 0.784061
vt 0.562643 0.784061
vt 0.562643 0.784061
vt 0.562643 0.784061
vt 0.562643 0.784061
vt 0.562643 0.784061
vt 0.562643 0.784061
vt 0.562643 0.784061
vt 0.562643 0.784061
vt 0.562643 0.784061
vt 0.562643 0.784061
vt 0.562643 0.784061
vt 0.562643 0.784061
vt 0.562643 0.784061
vt 0.562643 0.784061
vt 0.562643 0.784061
vt 0.562643 0.784061
vt 0.562643 0.784061
vt 0.562643 0.784061
vt 0.562643 0.784061
vt 0.562643 0.784061
vt 0.562643 0.784061
vt 0.562643 0.784061
vt 0.562643 0.784061
vt 0.562643 0.784061
vt 0.562643 0.784061
vt 0.571680 0.422592
vt 0.571680 0.422592
vt 0.571680 0.422592
vt 0.571680 0.422592
vt 0.571680 0.422592
vt 0.571680 0.422592
vt 0.571680 0.422592
vt 0.571680 0.422592
vt 0.571680 0.422592
vt 0.571680 0.422592
vt 0.571680 0.422592
vt 0.571680 0.422592
vt 0.571680 0.422592
vt 0.571680 0.422592
vt 0.571680 0.422592
vt 0.571680 0.422592
vt 0.571680 0.422592
vt 0.571680 0.422592
vt 0.571680 0.422592
vt 0.571680 0.422592
vt 0.571680 0.422592
vt 0.571680 0.422592
vt 0.571680 0.422592
vt 0.571680 0.422592
vt 0.571680 0.422592
vt 0.571680 0.422592
vt 0.571680 0.422592
vt 0.571680 0.422592
vt 0.571680 0.422592
vt 0.571680 0.422592
vt 0.571680 0.422592
vt 0.571680 0.422592
vt 0.571680 0.422592
vt 0.571680 0.422592
vt 0.571680 0.422592
vt 0.571680 0.422592
vt 0.571680 0.422592
vt 0.571680 0.422592
vt 0.571680 0.422592
vt 0.571680 0.422592
vt 0.571680 0.422592
vt 0.571680 0.422592
vt 0.571680 0.422592
vt 0.571680 0.422592
vt 0.571680 0.422592
vt 0.571680 0.422592
vt 0.571680 0.422592
vn -0.036812 -0.967789 0.249058
vn -0.036812 -0.967789 0.249058
vn -0.036812 -0.967789 0.249058
vn -0.095159 -0.908745 0.406359
vn -0.095159 -0.908745 0.406359
vn -0.095159 -0.908745 0.406359
vn -0.092219 -0.894151 0.438166
vn -0.092219 -0.894151 0.438166
vn -0.092219 -0.894151 0.438166
vn -0.352522 -0.836416 0.419687
vn -0.352522 -0.836416 0.419687
vn -0.352522 -0.836416 0.419687
vn 0.101013 -0.982697 0.155249
vn 0.101013 -0.982697 0.155249
vn 0.101013 -0.982697 0.155249
vn 0.282312 -0.899727 0.332853
vn 0.282312 -0.899727 0.332853
vn 0.282312 -0.899727 0.332853
vn 0.278965 -0.901294 0.331433
vn 0.278965 -0.901294 0.331433
vn 0.278965 -0.901294 0.331433
vn 0.420743 -0.872543 0.248283
vn 0.420743 -0.872543 0.248283
vn 0.420743 -0.872543 0.248283
vn 0.227426 0.195586 0.953951
vn 0.227426 0.195586 0.953951
vn 0.227426 0.195586 0.953952
vn 0.590734 0.365029 0.719574
vn 0.590734 0.365029 0.719574
vn 0.590734 0.365029 0.719575
vn 0.525856 0.417908 0.740830
vn 0.525856 0.417908 0.740830
vn 0.525856 0.417908 0.740830
vn 0.318148 0.406669 0.856389
vn 0.318148 0.406669 0.856389
vn 0.318148 0.406669 0.856389
vn 0.121208 0.872785 0.472815
vn 0.121208 0.872785 0.472815
vn 0.121208 0.872785 0.472815
vn -0.574360 0.478785 0.663985
vn -0.574360 0.478785 0.663985
vn -0.574360 0.478785 0.663985
vn -0.521966 0.717896 0.460627
vn -0.521966 0.717896 0.460627
vn -0.521966 0.717896 0.460627
vn -0.212018 0.480414 0.851029
vn -0.212018 0.480414 0.851029
vn -0.212018 0.480414 0.851029
vn 0.316168 0.217142 0.923519
vn 0.316168 0.217142 0.923519
vn 0.316168 0.217142 0.923519
vn -0.187573 0.497540 0.846918
vn -0.187573 0.497540 0.846918
vn -0.187573 0.497540 0.846918
vn 0.098058 0.708306 0.699062
vn 0.098058 0.708306 0.699062
vn 0.098058 0.708306 0.699062
vn -0.195258 0.798749 0.569100
vn -0.195258 0.798749 0.569100
vn -0.195258 0.798749 0.569100
vn -0.314756 0.854966 0.412264
vn -0.314756 0.854966 0.412264
vn -0.314756 0.854966 0.412264
vn -0.270283 0.860951 0.430940
vn -0.270283 0.860951 0.430940
vn -0.270283 0.860951 0.430940
vn -0.163880 0.922598 0.349223
vn -0.163880 0.922598 0.349223
vn -0.163880 0.922598 0.349223
vn -0.342905 0.882972 0.320589
vn -0.342905 0.882972 0.320589
vn -0.342905 0.882971 0.320589
vn -0.300549 0.928793 0.216824
vn -0.300549 0.928793 0.216824
vn -0.300549 0.928794 0.216824
vn 0.150228 0.843813 0.515181
vn 0.150228 0.843813 0.515181
vn 0.150228 0.843813 0.515181
vn -0.143545 0.924871 0.352149
vn -0.143545 0.924871 0.352149
vn -0.143545 0.924871 0.352149
vn 0.316500 0.830999 0.457458
vn 0.316500 0.830999 0.457458
vn 0.316500 0.830999 0.457458
vn 0.277642 0.949129 0.148558
vn 0.277642 0.949129 0.148558
vn 0.277642 0.949129 0.148558
vn -0.137867 0.969346 0.203372
vn -0.137867 0.969346 0.203372
vn -0.137867 0.969347 0.203372
vn 0.028315 0.996117 0.083361
vn 0.028315 0.996117 0.083361
vn 0.028315 0.996117 0.083361
vn 0.106270 0.992280 0.063932
vn 0.106270 0.992280 0.063932
vn 0.106270 0.992280 0.063932
vn 0.416678 0.855644 -0.307005
vn 0.416678 0.855644 -0.307005
vn 0.416678 0.855644 -0.307005
vn -0.150629 0.974787 -0.164625
vn -0.150629 0.974787 -0.164625
vn -0.150629 0.974787 -0.164625
vn 0.324753 0.529580 -0.783633
vn 0.324753 0.529580 -0.783633
vn 0.324753 0.529580 -0.783633
vn 0.283795 0.704349 -0.650655
vn 0.283795 0.704349 -0.650655
vn 0.283795 0.704349 -0.650655
vn -0.362478 0.925168 0.112578
vn -0.362478 0.925168 0.112578
vn -0.362478 0.925168 0.112578
vn -0.303450 0.931575 0.200213
vn -0.303450 0.931575 0.200213
vn -0.303450 0.931575 0.200213
vn -0.393911 0.915460 -0.082267
vn -0.393911 0.915460 -0.082267
vn -0.393911 0.915460 -0.082267
vn -0.484448 0.849016 -0.210908
vn -0.484448 0.849016 -0.210908
vn -0.484448 0.849016 -0.210908
vn -0.339319 0.928715 -0.149500
vn -0.339319 0.928715 -0.149500
vn -0.339319 0.928715 -0.149500
vn -0.561269 0.708120 -0.428420
vn -0.561269 0.708120 -0.428420
vn -0.561269 0.708120 -0.428420
vn -0.461094 0.566707 -0.682814
vn -0.461094 0.566707 -0.682814
vn -0.461094 0.566707 -0.682814
vn -0.244590 0.720629 -0.648744
vn -0.244590 0.720629 -0.648744
vn -0.244590 0.720629 -0.648744
vn -0.281091 0.641212 -0.714028
vn -0.281091 0.641212 -0.714028
vn -0.281091 0.641212 -0.714028
vn 0.037097 0.272754 -0.961368
vn 0.037097 0.272754 -0.961368
vn 0.037097 0.272754 -0.961368
vn 0.034902 0.303538 -0.952180
vn 0.034902 0.303538 -0.952180
vn 0.034902 0.303538 -0.952180
vn -0.111136 0.206032 -0.972214
vn -0.111136 0.206032 -0.972214
vn -0.111136 0.206032 -0.972214
vn -0.533029 0.293452 -0.793578
vn -0.533029 0.293452 -0.793578
vn -0.533029 0.293452 -0.793578
vn -0.520742 0.220707 -0.824692
vn -0.520742 0.220707 -0.824692
vn -0.520742 0.220707 -0.824692
vn 0.375498 0.568776 -0.731775
vn 0.375498 0.568776 -0.731775
vn 0.375498 0.568776 -0.731775
vn 0.387565 0.702022 -0.597460
vn 0.387565 0.702022 -0.597460
vn 0.387565 0.702022 -0.597460
vn 0.633890 0.039722 -0.772402
vn 0.633890 0.039722 -0.772402
vn 0.633890 0.039722 -0.772402
vn 0.471271 0.221822 -0.853639
vn 0.471271 0.221822 -0.853639
vn 0.471271 0.221822 -0.853639
vn 0.217731 0.179662 -0.959330
vn 0.217731 0.179662 -0.959330
vn 0.217731 0.179662 -0.959330
vn 0.351447 -0.835224 -0.422949
vn 0.351447 -0.835224 -0.422949
vn 0.351447 -0.835224 -0.422949
vn 0.320935 -0.857707 -0.401672
vn 0.320935 -0.857707 -0.401672
vn 0.320935 -0.857707 -0.401672
vn 0.091463 -0.920557 -0.379749
vn 0.091463 -0.920557 -0.379749
vn 0.091463 -0.920557 -0.379749
vn -0.515888 0.233774 -0.824142
vn -0.515888 0.233774 -0.824142
vn -0.515888 0.233774 -0.824142
vn -0.061789 -0.891080 -0.449621
vn -0.061789 -0.891080 -0.449621
vn -0.061789 -0.891080 -0.449621
vn 0.074579 -0.927780 -0.365598
vn 0.074579 -0.927780 -0.365598
vn 0.074579 -0.927780 -0.365598
vn -0.198466 -0.890390 -0.409655
vn -0.198466 -0.890390 -0.409654
vn -0.198466 -0.890390 -0.409655
vn -0.215902 -0.940267 -0.263219
vn -0.215902 -0.940267 -0.263219
vn -0.215902 -0.940267 -0.263219
vn 0.024508 -0.997921 -0.059611
vn 0.024508 -0.997921 -0.059611
vn 0.024508 -0.997921 -0.059611
vn -0.076539 -0.992877 -0.091303
vn -0.076539 -0.992877 -0.091303
vn -0.076539 -0.992877 -0.091303
vn -0.151232 -0.988364 -0.016283
vn -0.151232 -0.988364 -0.016283
vn -0.151232 -0.988364 -0.016283
vn 0.100187 -0.993880 -0.046534
vn 0.100187 -0.993880 -0.046534
vn 0.100187 -0.993880 -0.046534
vn 0.002330 -0.998943 -0.045902
vn 0.002330 -0.998943 -0.045902
vn 0.002330 -0.998943 -0.045902
vn 0.188015 -0.974991 -0.118501
vn 0.188015 -0.974991 -0.118501
vn 0.188015 -0.974991 -0.118501
vn -0.002884 -0.999628 0.027132
vn -0.002884 -0.999628 0.027132
vn -0.002884 -0.999628 0.027132
vn 0.175408 -0.983568 0.042733
vn 0.175408 -0.983568 0.042733
vn 0.175409 -0.983568 0.042733
vn 0.090410 -0.987849 0.126415
vn 0.090410 -0.987849 0.126415
vn 0.090410 -0.987849 0.126415
vn -0.093212 -0.994203 0.053594
vn -0.093212 -0.994203 0.053594
vn -0.093212 -0.994203 0.053594
vn 0.318756 -0.944224 0.082672
vn 0.318756 -0.944224 0.082672
vn 0.318756 -0.944224 0.082672
vn 0.425157 -0.905010 0.014100
vn 0.425157 -0.905010 0.014100
vn 0.425157 -0.905010 0.014100
vn 0.994389 0.105612 0.006010
vn 0.994389 0.105612 0.006010
vn 0.994389 0.105612 0.006010
vn 0.823196 -0.355486 0.442694
vn 0.823196 -0.355486 0.442694
vn 0.823196 -0.355486 0.442694
vn 0.404173 -0.902940 -0.146093
vn 0.404173 -0.902940 -0.146093
vn 0.404173 -0.902940 -0.146093
vn 0.531302 -0.803728 -0.267844
vn 0.531302 -0.803728 -0.267844
vn 0.531302 -0.803728 -0.267844
vn 0.928367 -0.051158 -0.368128
vn 0.928367 -0.051158 -0.368128
vn 0.928367 -0.051158 -0.368128
vn 0.776088 0.269449 -0.570162
vn 0.776088 0.269449 -0.570162
vn 0.776088 0.269449 -0.570162
vn 0.760942 0.381273 -0.524975
vn 0.760941 0.381273 -0.524975
vn 0.760941 0.381273 -0.524975
vn 0.781799 0.416654 -0.463885
vn 0.781799 0.416654 -0.463885
vn 0.781799 0.416654 -0.463885
vn 0.736852 0.568157 -0.366396
vn 0.736852 0.568157 -0.366396
vn 0.736852 0.568157 -0.366396
vn 0.766252 0.332844 0.549611
vn 0.766252 0.332844 0.549611
vn 0.766252 0.332844 0.549611
vn 0.742675 0.356882 0.566630
vn 0.742675 0.356882 0.566630
vn 0.742675 0.356882 0.566630
vn 0.990656 -0.124945 0.054677
vn 0.990656 -0.124945 0.054677
vn 0.990656 -0.124945 0.054677
vn 0.975522 0.075493 -0.206537
vn 0.975522 0.075493 -0.206537
vn 0.975522 0.075493 -0.206537
vn 0.929101 0.282910 0.238188
vn 0.929101 0.282910 0.238188
vn 0.929101 0.282910 0.238188
vn 0.916942 0.396506 0.044735
vn 0.916942 0.396506 0.044735
vn 0.916942 0.396506 0.044735
vn 0.936137 0.291849 -0.196143
vn 0.936137 0.291849 -0.196143
vn 0.936137 0.291849 -0.196143
vn 0.775542 0.625500 0.085345
vn 0.775542 0.625500 0.085345
vn 0.775542 0.625500 0.085345
vn 0.734460 0.677510 0.039365
vn 0.734460 0.677510 0.039365
vn 0.734460 0.677510 0.039365
vn 0.622014 0.626251 0.470009
vn 0.622014 0.626251 0.470009
vn 0.622014 0.626251 0.470009
vn -0.330008 -0.903071 -0.274876
vn -0.330008 -0.903071 -0.274876
vn -0.330008 -0.903071 -0.274876
vn -0.277333 -0.958768 -0.062042
vn -0.277333 -0.958769 -0.062042
vn -0.277333 -0.958769 -0.062042
vn -0.115820 -0.987394 0.107882
vn -0.115820 -0.987394 0.107882
vn -0.115820 -0.987394 0.107882
vn -0.314392 -0.886346 0.339923
vn -0.314392 -0.886346 0.339923
vn -0.314392 -0.886346 0.339923
vn -0.228665 -0.971434 -0.063470
vn -0.228665 -0.971434 -0.063470
vn -0.228665 -0.971434 -0.063470
vn -0.549025 -0.830820 0.091158
vn -0.549025 -0.830820 0.091158
vn -0.549025 -0.830820 0.091158
vn -0.472467 -0.811169 0.344646
vn -0.472467 -0.811168 0.344646
vn -0.472467 -0.811168 0.344646
vn -0.952927 0.288316 0.093829
vn -0.952927 0.288316 0.093829
vn -0.952927 0.288316 0.093829
vn -0.538002 0.732482 0.417163
vn -0.538002 0.732482 0.417163
vn -0.538002 0.732482 0.417163
vn -0.667832 0.704863 0.239099
vn -0.667832 0.704863 0.239099
vn -0.667832 0.704863 0.239099
vn -0.598254 0.741266 0.304331
vn -0.598254 0.741266 0.304331
vn -0.598254 0.741266 0.304331
vn -0.538755 0.737535 0.407168
vn -0.538755 0.737535 0.407168
vn -0.538755 0.737535 0.407168
vn -0.407941 0.908747 0.088113
vn -0.407941 0.908747 0.088113
vn -0.407941 0.908747 0.088113
vn -0.825839 -0.012842 -0.563759
vn -0.825839 -0.012842 -0.563759
vn -0.825839 -0.012842 -0.563759
vn -0.850855 0.243036 -0.465811
vn -0.850855 0.243036 -0.465811
vn -0.850855 0.243036 -0.465811
vn -0.922667 0.249652 -0.293869
vn -0.922667 0.249652 -0.293869
vn -0.922667 0.249652 -0.293869
vn -0.870547 0.367985 -0.326703
vn -0.870547 0.367985 -0.326703
vn -0.870547 0.367985 -0.326703
vn -0.714966 0.677934 -0.170965
vn -0.714966 0.677934 -0.170965
vn -0.714966 0.677934 -0.170965
vn -0.671540 0.721420 -0.169078
vn -0.671540 0.721420 -0.169078
vn -0.671540 0.721420 -0.169078
vn -0.558424 0.823591 -0.099298
vn -0.558424 0.823591 -0.099298
vn -0.558424 0.823591 -0.099298
vn -0.711388 0.492010 -0.501850
vn -0.711388 0.492010 -0.501850
vn -0.711388 0.492010 -0.501850
vn -0.672061 0.612454 -0.416214
vn -0.672061 0.612454 -0.416214
vn -0.672061 0.612454 -0.416214
vn 0.703360 -0.259655 0.661713
vn 0.703360 -0.259655 0.661713
vn 0.703360 -0.259655 0.661713
vn 0.692736 -0.319121 0.646744
vn 0.692736 -0.319121 0.646744
vn 0.692736 -0.319121 0.646744
vn -0.418349 -0.339836 0.842316
vn -0.418348 -0.339836 0.842316
vn -0.418349 -0.339836 0.842316
vn -0.421609 -0.328893 0.845030
vn -0.421609 -0.328893 0.845030
vn -0.421609 -0.328893 0.845030
vn 0.562209 -0.265596 0.783186
vn 0.562209 -0.265596 0.783186
vn 0.562209 -0.265596 0.783186
vn 0.560664 -0.288348 0.776216
vn 0.560664 -0.288348 0.776216
vn 0.560664 -0.288348 0.776216
vn -0.085111 -0.291936 0.952643
vn -0.085111 -0.291936 0.952643
vn -0.085111 -0.291936 0.952643
vn -0.092150 -0.337695 0.936734
vn -0.092150 -0.337695 0.936734
vn -0.092150 -0.337695 0.936734
vn 0.603276 -0.288032 -0.743704
vn 0.603276 -0.288032 -0.743704
vn 0.603276 -0.288032 -0.743704
vn 0.583557 -0.403375 -0.704805
vn 0.583557 -0.403375 -0.704805
vn 0.583557 -0.403375 -0.704805
vn -0.420996 -0.231605 -0.876996
vn -0.420996 -0.231605 -0.876996
vn -0.420996 -0.231605 -0.876996
vn -0.409630 -0.286699 -0.866029
vn -0.409630 -0.286699 -0.866029
vn -0.409630 -0.286699 -0.866029
vn -0.416040 -0.315410 -0.852893
vn -0.416040 -0.315410 -0.852893
vn -0.416040 -0.315410 -0.852893
vn -0.425377 -0.287995 -0.857970
vn -0.425377 -0.287995 -0.857970
vn -0.425377 -0.287995 -0.857970
vn 0.639480 -0.362240 -0.678121
vn 0.639479 -0.362240 -0.678121
vn 0.639480 -0.362240 -0.678121
vn 0.623125 -0.404681 -0.669290
vn 0.623125 -0.404681 -0.669290
vn 0.623125 -0.404681 -0.669290
vn 0.921493 -0.378357 -0.087733
vn 0.921493 -0.378357 -0.087733
vn 0.921493 -0.378357 -0.087733
vn 0.898617 -0.431638 -0.078583
vn 0.898617 -0.431638 -0.078583
vn 0.898617 -0.431638 -0.078583
vn 0.716532 -0.401608 0.570345
vn 0.716532 -0.401608 0.570345
vn 0.716532 -0.401608 0.570345
vn 0.730645 -0.315989 0.605234
vn 0.730645 -0.315989 0.605234
vn 0.730645 -0.315989 0.605234
vn -0.743911 -0.367334 0.558268
vn -0.743911 -0.367334 0.558268
vn -0.743911 -0.367334 0.558268
vn -0.745636 -0.364587 0.557767
vn -0.745636 -0.364587 0.557767
vn -0.745636 -0.364587 0.557767
vn -0.945372 -0.304551 -0.116273
vn -0.945372 -0.304551 -0.116273
vn -0.945373 -0.304551 -0.116274
vn -0.924475 -0.362491 -0.118091
vn -0.924475 -0.362491 -0.118091
vn -0.924475 -0.362491 -0.118091
vn -0.822734 -0.314948 -0.473198
vn -0.822734 -0.314948 -0.473198
vn -0.822734 -0.314948 -0.473198
vn -0.802158 -0.372124 -0.466976
vn -0.802158 -0.372124 -0.466976
vn -0.802158 -0.372124 -0.466976
vn -0.198720 -0.177945 -0.963767
vn -0.198720 -0.177945 -0.963767
vn -0.198720 -0.177945 -0.963767
vn -0.201976 -0.168489 -0.964789
vn -0.201976 -0.168489 -0.964789
vn -0.201976 -0.168489 -0.964789
s off
f 33/42/1 32/43/2 12/44/3
f 33/42/4 12/44/5 10/45/6
f 10/45/7 12/44/8 11/46/9
f 33/42/10 10/45/11 3/47/12
f 32/43/13 13/48/14 12/44/15
f 13/48/16 14/49/17 15/50/18
f 12/44/19 13/48/20 15/50/21
f 13/48/22 34/51/23 14/49/24
f 12/44/25 15/50/26 16/52/27
f 15/50/28 14/49/29 1/53/30
f 15/50/31 1/53/32 4/54/33
f 16/52/34 15/50/35 4/54/36
f 49/1/37 48/2/38 50/3/39
f 3/47/40 10/45/41 17/55/42
f 52/4/43 51/5/44 53/6/45
f 10/45/46 11/46/47 17/55/48
f 11/46/49 12/44/50 16/52/51
f 17/55/52 11/46/53 16/52/54
f 54/7/55 49/1/56 50/3/57
f 51/5/58 54/7/59 50/3/60
f 53/6/61 51/5/62 55/8/63
f 51/5/64 50/3/65 55/8/66
f 55/8/67 50/3/68 56/9/69
f 53/6/70 55/8/71 57/10/72
f 55/8/73 56/9/74 57/10/75
f 50/3/76 48/2/77 58/11/78
f 56/9/79 50/3/80 58/11/81
f 48/2/82 59/12/83 58/11/84
f 58/11/85 59/12/86 60/13/87
f 56/9/88 58/11/89 61/14/90
f 58/11/91 62/15/92 61/14/93
f 58/11/94 60/13/95 62/15/96
f 60/13/97 63/16/98 62/15/99
f 61/14/100 62/15/101 64/17/102
f 62/15/103 63/16/104 64/17/105
f 64/17/106 63/16/107 65/18/108
f 57/10/109 61/14/110 66/19/111
f 57/10/112 56/9/113 61/14/114
f 61/14/115 64/17/116 67/20/117
f 66/19/118 67/20/119 68/21/120
f 66/19/121 61/14/122 67/20/123
f 47/56/124 7/57/125 8/58/126
f 7/57/127 19/59/128 8/58/129
f 67/20/130 64/17/131 65/18/132
f 7/57/133 6/60/134 19/59/135
f 6/60/136 20/61/137 19/59/138
f 19/59/139 20/61/140 23/62/141
f 19/59/142 23/62/143 24/63/144
f 8/58/145 19/59/146 46/64/147
f 46/64/148 19/59/149 24/63/150
f 6/60/151 18/65/152 5/66/153
f 6/60/154 5/66/155 20/61/156
f 5/66/157 21/67/158 22/68/159
f 20/61/160 5/66/161 22/68/162
f 20/61/163 22/68/164 23/62/165
f 22/68/166 21/67/167 2/69/168
f 22/68/169 2/69/170 28/70/171
f 23/62/172 22/68/173 28/70/174
f 46/64/175 24/63/176 41/71/177
f 24/63/178 23/62/179 25/72/180
f 23/62/181 28/70/182 25/72/183
f 41/71/184 24/63/185 25/72/186
f 41/71/187 25/72/188 26/73/189
f 25/72/190 31/74/191 30/75/192
f 26/73/193 25/72/194 30/75/195
f 26/73/196 30/75/197 27/76/198
f 28/70/199 29/77/200 31/74/201
f 25/72/202 28/70/203 31/74/204
f 28/70/205 2/69/206 29/77/207
f 30/75/208 31/74/209 32/43/210
f 31/74/211 29/77/212 13/48/213
f 31/74/214 13/48/215 32/43/216
f 27/76/217 30/75/218 32/43/219
f 13/48/220 29/77/221 34/51/222
f 34/51/223 29/77/224 36/78/225
f 34/51/226 36/78/227 35/79/228
f 34/51/229 35/79/230 14/49/231
f 29/77/232 2/69/233 36/78/234
f 36/78/235 2/69/236 21/67/237
f 36/78/238 21/67/239 37/80/240
f 21/67/241 5/66/242 37/80/243
f 37/80/244 5/66/245 18/65/246
f 38/81/247 37/80/248 18/65/249
f 69/22/250 63/16/251 60/13/252
f 14/49/253 35/79/254 40/82/255
f 14/49/256 40/82/257 1/53/258
f 35/79/259 36/78/260 39/83/261
f 36/78/262 37/80/263 39/83/264
f 35/79/265 39/83/266 40/82/267
f 39/83/268 38/81/269 40/82/270
f 39/83/271 37/80/272 38/81/273
f 70/23/274 69/22/275 59/12/276
f 69/22/277 60/13/278 59/12/279
f 70/23/280 59/12/281 48/2/282
f 26/73/283 42/84/284 41/71/285
f 26/73/286 27/76/287 42/84/288
f 27/76/289 32/43/290 33/42/291
f 27/76/292 33/42/293 3/47/294
f 42/84/295 27/76/296 43/85/297
f 27/76/298 44/86/299 43/85/300
f 27/76/301 3/47/302 44/86/303
f 43/85/304 44/86/305 45/87/306
f 71/24/307 52/4/308 53/6/309
f 72/25/310 71/24/311 73/26/312
f 73/26/313 71/24/314 57/10/315
f 71/24/316 53/6/317 57/10/318
f 73/26/319 57/10/320 66/19/321
f 41/71/322 42/84/323 46/64/324
f 46/64/325 42/84/326 9/88/327
f 43/85/328 45/87/329 42/84/330
f 42/84/331 45/87/332 9/88/333
f 72/25/334 73/26/335 74/27/336
f 74/27/337 73/26/338 68/21/339
f 68/21/340 73/26/341 66/19/342
f 46/64/343 9/88/344 8/58/345
f 8/58/346 9/88/347 47/56/348
f 4/28/349 1/29/350 49/1/351
f 49/1/352 1/29/353 48/2/354
f 3/30/355 17/31/356 52/4/357
f 52/4/358 17/31/359 51/5/360
f 16/32/361 4/28/362 54/7/363
f 54/7/364 4/28/365 49/1/366
f 17/31/367 16/32/368 51/5/369
f 51/5/370 16/32/371 54/7/372
f 6/34/373 65/18/374 18/33/375
f 18/33/376 65/18/377 63/16/378
f 47/36/379 68/21/380 7/35/381
f 7/35/382 68/21/383 67/20/384
f 6/34/385 7/35/386 65/18/387
f 65/18/388 7/35/389 67/20/390
f 38/37/391 18/33/392 69/22/393
f 69/22/394 18/33/395 63/16/396
f 40/38/397 38/37/398 70/23/399
f 70/23/400 38/37/401 69/22/402
f 40/38/403 70/23/404 1/29/405
f 1/29/406 70/23/407 48/2/408
f 3/30/409 52/4/410 44/39/411
f 44/39/412 52/4/413 71/24/414
f 44/39/415 71/24/416 45/40/417
f 45/40/418 71/24/419 72/25/420
f 45/40/421 72/25/422 9/41/423
f 9/41/424 72/25/425 74/27/426
f 9/41/427 74/27/428 47/36/429
f 47/36/430 74/27/431 68/21/432
