# This file uses centimeters as units for non-parametric coordinates.

v 238.371796 35.834244 -95.263718
v 188.028168 35.834244 -152.642273
v 113.576790 35.834244 -242.426056
v 33.572639 35.834244 -270.840576
v -82.376381 35.834244 -245.279984
v -95.992302 35.834244 -130.258575
v -194.434921 35.834244 -104.068138
v -237.837173 35.834244 9.479719
v -208.153732 35.834244 72.657516
v -180.163712 35.834244 181.658722
v -84.497070 35.834244 233.062347
v 25.622837 35.834244 256.890381
v 106.215630 35.834244 244.125763
v 154.179123 35.834244 174.716492
v 211.876572 35.834244 117.018539
v 214.622452 35.834244 34.088509
v 237.837173 35.834244 0.654347
v 25.622837 35.834244 -3.913178
v 270.247589 -11.601007 -108.267342
v 214.377884 -11.601007 -176.491425
v 27.745863 -11.601001 -5.575776
v 128.820282 -11.601007 -279.668671
v 20.435535 -11.601007 -294.132996
v -98.532295 -11.601007 -255.063293
v -123.262611 -11.601007 -134.098419
v -225.968048 -11.601007 -98.937965
v -271.617065 -11.601007 21.260532
v -237.505630 -11.601007 93.862831
v -197.372452 -11.601007 204.635025
v -90.860352 -11.601007 261.564697
v 27.745863 -11.601007 294.132996
v 120.361023 -11.601007 279.464203
v 175.479416 -11.601007 199.700851
v 241.783844 -11.601007 133.395828
v 244.939362 -11.601007 38.094784
v 271.617065 -11.601007 -0.326894
v -188.768082 22.912891 193.146881
v -87.678719 17.120749 247.313492
v 26.684351 22.912891 275.511719
v 113.288330 29.858744 261.794983
v 164.829285 22.912891 187.208664
v 226.830215 22.912891 125.207191
v 229.780914 29.858744 36.091648
v 254.727127 22.912891 0.163727
v 254.309692 22.912891 -101.765533
v 201.203003 29.858744 -164.566864
v 121.198532 22.912891 -261.047363
v 17.953556 15.876764 -282.486755
v -90.454338 22.912891 -250.171631
v -109.627464 22.912891 -132.178497
v -215.694427 14.762622 -102.026535
v -254.727127 22.912891 15.370126
v -222.829681 17.120749 83.260178
vt 0.563952 0.713686
vt 0.563952 0.713686
vt 0.563952 0.713686
vt 0.563952 0.713686
vt 0.563952 0.713686
vt 0.563952 0.713686
vt 0.563952 0.713686
vt 0.563952 0.713686
vt 0.563952 0.713686
vt 0.563952 0.713686
vt 0.563952 0.713686
vt 0.563952 0.713686
vt 0.563952 0.713686
vt 0.563952 0.713686
vt 0.563952 0.713686
vt 0.563952 0.713686
vt 0.563952 0.713686
vt 0.565560 0.663855
vt 0.563952 0.713686
vt 0.563952 0.713686
vt 0.563952 0.713686
vt 0.563952 0.713686
vt 0.563952 0.713686
vt 0.563952 0.713686
vt 0.563952 0.713686
vt 0.563952 0.713686
vt 0.563952 0.713686
vt 0.563952 0.713686
vt 0.563952 0.713686
vt 0.563952 0.713686
vt 0.563952 0.713686
vt 0.563952 0.713686
vt 0.563952 0.713686
vt 0.563952 0.713686
vt 0.563952 0.713686
vt 0.563952 0.713686
vt 0.565560 0.663855
vt 0.565560 0.663855
vt 0.565560 0.663855
vt 0.565560 0.663855
vt 0.565560 0.663855
vt 0.565560 0.663855
vt 0.565560 0.663855
vt 0.565560 0.663855
vt 0.565560 0.663855
vt 0.565560 0.663855
vt 0.565560 0.663855
vt 0.565560 0.663855
vt 0.565560 0.663855
vt 0.565560 0.663855
vt 0.565560 0.663855
vt 0.565560 0.663855
vt 0.565560 0.663855
vt 0.563952 0.713686
vt 0.565560 0.663855
vt 0.565560 0.663855
vt 0.565560 0.663855
vt 0.565560 0.663855
vt 0.565560 0.663855
vt 0.565560 0.663855
vt 0.565560 0.663855
vt 0.565560 0.663855
vt 0.565560 0.663855
vt 0.565560 0.663855
vt 0.565560 0.663855
vt 0.565560 0.663855
vt 0.565560 0.663855
vt 0.565560 0.663855
vt 0.565560 0.663855
vt 0.565560 0.663855
vt 0.563952 0.713686
vt 0.563952 0.713686
vt 0.563952 0.713686
vt 0.565560 0.663855
vt 0.563952 0.713686
vt 0.563952 0.713686
vt 0.563952 0.713686
vt 0.563952 0.713686
vt 0.563952 0.713686
vt 0.563952 0.713686
vt 0.563952 0.713686
vt 0.563952 0.713686
vt 0.563952 0.713686
vt 0.563952 0.713686
vt 0.563952 0.713686
vt 0.563952 0.713686
vt 0.563952 0.713686
vt 0.563952 0.713686
vt 0.563952 0.713686
vt 0.563952 0.713686
vt 0.563952 0.713686
vt 0.563952 0.713686
vt 0.563952 0.713686
vt 0.563952 0.713686
vt 0.563952 0.713686
vt 0.563952 0.713686
vt 0.563952 0.713686
vt 0.563952 0.713686
vt 0.563952 0.713686
vt 0.563952 0.713686
vt 0.563952 0.713686
vt 0.563952 0.713686
vt 0.563952 0.713686
vt 0.563952 0.713686
vt 0.563952 0.713686
vt 0.563952 0.713686
vt 0.563952 0.713686
vt 0.563952 0.713686
vt 0.563952 0.713686
vt 0.563952 0.713686
vt 0.563952 0.713686
vt 0.563952 0.713686
vt 0.563952 0.713686
vt 0.563952 0.713686
vt 0.563952 0.713686
vt 0.563952 0.713686
vt 0.563952 0.713686
vt 0.563952 0.713686
vt 0.563952 0.713686
vt 0.563952 0.713686
vt 0.563952 0.713686
vt 0.563952 0.713686
vt 0.563952 0.713686
vt 0.563952 0.713686
vt 0.563952 0.713686
vt 0.563952 0.713686
vt 0.563952 0.713686
vt 0.563952 0.713686
vt 0.563952 0.713686
vt 0.563952 0.713686
vt 0.563952 0.713686
vt 0.563952 0.713686
vt 0.563952 0.713686
vt 0.563952 0.713686
vt 0.563952 0.713686
vt 0.563952 0.713686
vt 0.563952 0.713686
vt 0.563952 0.713686
vt 0.563952 0.713686
vt 0.563952 0.713686
vt 0.563952 0.713686
vt 0.563952 0.713686
vt 0.563952 0.713686
vt 0.563952 0.713686
vt 0.563952 0.713686
vt 0.563952 0.713686
vt 0.563952 0.713686
vt 0.563952 0.713686
vt 0.563952 0.713686
vt 0.563952 0.713686
vt 0.563952 0.713686
vt 0.563952 0.713686
vt 0.563952 0.713686
vt 0.563952 0.713686
vn -0.000000 -1.000000 0.000000
vn -0.000000 -1.000000 0.000000
vn -0.000000 -1.000000 0.000000
vn -0.000000 -1.000000 0.000000
vn -0.000000 -1.000000 0.000000
vn -0.000000 -1.000000 0.000000
vn -0.000000 -1.000000 0.000000
vn -0.000000 -1.000000 0.000000
vn -0.000000 -1.000000 0.000000
vn 0.000000 -1.000000 0.000000
vn 0.000000 -1.000000 0.000000
vn 0.000000 -1.000000 0.000000
vn 0.000000 -1.000000 0.000000
vn 0.000000 -1.000000 0.000000
vn 0.000000 -1.000000 0.000000
vn 0.000000 -1.000000 0.000000
vn 0.000000 -1.000000 0.000000
vn 0.000000 -1.000000 0.000000
vn 0.000000 -1.000000 0.000000
vn 0.000000 -1.000000 0.000000
vn 0.000000 -1.000000 0.000000
vn 0.000000 -1.000000 -0.000000
vn 0.000000 -1.000000 -0.000000
vn 0.000000 -1.000000 -0.000000
vn 0.000000 -1.000000 -0.000000
vn 0.000000 -1.000000 -0.000000
vn 0.000000 -1.000000 -0.000000
vn 0.000000 -1.000000 -0.000000
vn 0.000000 -1.000000 -0.000000
vn 0.000000 -1.000000 -0.000000
vn 0.000000 -1.000000 -0.000000
vn 0.000000 -1.000000 -0.000000
vn 0.000000 -1.000000 -0.000000
vn -0.000000 -1.000000 -0.000000
vn -0.000000 -1.000000 -0.000000
vn -0.000000 -1.000000 -0.000000
vn -0.000000 -1.000000 -0.000000
vn -0.000000 -1.000000 -0.000000
vn -0.000000 -1.000000 -0.000000
vn -0.000000 -1.000000 -0.000000
vn -0.000000 -1.000000 -0.000000
vn -0.000000 -1.000000 -0.000000
vn -0.000000 -1.000000 -0.000000
vn -0.000000 -1.000000 -0.000000
vn -0.000000 -1.000000 -0.000000
vn -0.000000 -1.000000 -0.000000
vn -0.000000 -1.000000 -0.000000
vn -0.000000 -1.000000 -0.000000
vn -0.000000 -1.000000 0.000000
vn -0.000000 -1.000000 0.000000
vn -0.000000 -1.000000 0.000000
vn 0.000000 1.000000 0.000000
vn 0.000000 1.000000 0.000000
vn 0.000000 1.000000 0.000000
vn 0.000000 1.000000 -0.000000
vn 0.000000 1.000000 -0.000000
vn 0.000000 1.000000 -0.000000
vn 0.000000 1.000000 0.000000
vn 0.000000 1.000000 0.000000
vn 0.000000 1.000000 0.000000
vn 0.000000 1.000000 -0.000000
vn 0.000000 1.000000 -0.000000
vn 0.000000 1.000000 -0.000000
vn 0.000000 1.000000 0.000000
vn 0.000000 1.000000 0.000000
vn 0.000000 1.000000 0.000000
vn 0.000000 1.000000 0.000000
vn 0.000000 1.000000 0.000000
vn 0.000000 1.000000 0.000000
vn 0.000000 1.000000 -0.000000
vn 0.000000 1.000000 -0.000000
vn 0.000000 1.000000 -0.000000
vn 0.000000 1.000000 0.000000
vn 0.000000 1.000000 0.000000
vn 0.000000 1.000000 0.000000
vn 0.000000 1.000000 0.000000
vn 0.000000 1.000000 0.000000
vn 0.000000 1.000000 0.000000
vn 0.000000 1.000000 0.000000
vn 0.000000 1.000000 0.000000
vn 0.000000 1.000000 0.000000
vn 0.000000 1.000000 0.000000
vn 0.000000 1.000000 0.000000
vn 0.000000 1.000000 0.000000
vn 0.000000 1.000000 0.000000
vn 0.000000 1.000000 0.000000
vn 0.000000 1.000000 0.000000
vn 0.000000 1.000000 0.000000
vn 0.000000 1.000000 0.000000
vn 0.000000 1.000000 0.000000
vn 0.000000 1.000000 0.000000
vn 0.000000 1.000000 0.000000
vn 0.000000 1.000000 0.000000
vn 0.000000 1.000000 0.000000
vn 0.000000 1.000000 0.000000
vn 0.000000 1.000000 0.000000
vn 0.000000 1.000000 0.000000
vn 0.000000 1.000000 0.000000
vn 0.000000 1.000000 0.000000
vn 0.000000 1.000000 0.000000
vn 0.000000 1.000000 0.000000
vn 0.000000 1.000000 0.000000
vn 0.505014 0.793631 -0.339279
vn 0.505014 0.793631 -0.339279
vn 0.505014 0.793631 -0.339279
vn 0.239611 0.947833 -0.210234
vn 0.239611 0.947833 -0.210234
vn 0.239611 0.947833 -0.210234
vn 0.245557 0.947755 -0.203624
vn 0.245557 0.947755 -0.203624
vn 0.245557 0.947755 -0.203624
vn 0.411274 0.819053 -0.400006
vn 0.411274 0.819053 -0.400006
vn 0.411274 0.819053 -0.400006
vn 0.180991 0.841159 -0.509601
vn 0.180991 0.841159 -0.509601
vn 0.180991 0.841159 -0.509601
vn 0.159955 0.401144 -0.901941
vn 0.159955 0.401144 -0.901941
vn 0.159955 0.401144 -0.901941
vn -0.173186 0.593984 -0.785614
vn -0.173186 0.593984 -0.785614
vn -0.173186 0.593984 -0.785614
vn -0.225077 0.464876 -0.856289
vn -0.225077 0.464876 -0.856289
vn -0.225077 0.464876 -0.856289
vn -0.817060 0.561058 -0.132767
vn -0.817060 0.561058 -0.132767
vn -0.817060 0.561058 -0.132767
vn -0.679631 0.729129 -0.080453
vn -0.679631 0.729129 -0.080453
vn -0.679631 0.729129 -0.080453
vn -0.237476 0.383223 -0.892606
vn -0.237476 0.383223 -0.892606
vn -0.237476 0.383223 -0.892606
vn -0.281999 0.193467 -0.939706
vn -0.281999 0.193467 -0.939706
vn -0.281999 0.193467 -0.939706
vn -0.691605 0.672159 -0.264357
vn -0.691605 0.672159 -0.264357
vn -0.691605 0.672159 -0.264357
vn -0.642431 0.719597 -0.263557
vn -0.642431 0.719597 -0.263557
vn -0.642431 0.719597 -0.263557
vn -0.531857 0.809125 0.249888
vn -0.531858 0.809125 0.249888
vn -0.531857 0.809125 0.249888
vn -0.627890 0.693066 0.354138
vn -0.627890 0.693066 0.354138
vn -0.627890 0.693066 0.354138
vn -0.719752 0.669177 0.184822
vn -0.719751 0.669177 0.184822
vn -0.719752 0.669177 0.184822
vn -0.729760 0.656305 0.191610
vn -0.729760 0.656305 0.191610
vn -0.729760 0.656305 0.191610
vn -0.318648 0.739443 0.593032
vn -0.318648 0.739443 0.593032
vn -0.318648 0.739443 0.593032
vn -0.349010 0.604601 0.715996
vn -0.349010 0.604601 0.715996
vn -0.349010 0.604601 0.715996
vn -0.166736 0.615167 0.770564
vn -0.166736 0.615167 0.770564
vn -0.166736 0.615167 0.770564
vn -0.180643 0.803210 0.567646
vn -0.180643 0.803210 0.567646
vn -0.180643 0.803210 0.567646
vn 0.089387 0.820670 0.564368
vn 0.089387 0.820670 0.564368
vn 0.089387 0.820670 0.564368
vn -0.023651 0.944119 0.328756
vn -0.023651 0.944119 0.328756
vn -0.023651 0.944119 0.328756
vn 0.362516 0.917239 0.165089
vn 0.362516 0.917239 0.165089
vn 0.362516 0.917239 0.165089
vn 0.519560 0.775342 0.359029
vn 0.519560 0.775342 0.359029
vn 0.519560 0.775342 0.359029
vn 0.438205 0.784829 0.438201
vn 0.438205 0.784829 0.438201
vn 0.438205 0.784829 0.438201
vn 0.438205 0.784828 0.438202
vn 0.438206 0.784828 0.438202
vn 0.438205 0.784828 0.438202
vn 0.625837 0.775717 0.081183
vn 0.625837 0.775717 0.081183
vn 0.625837 0.775717 0.081183
vn 0.365325 0.930801 0.012096
vn 0.365325 0.930801 0.012096
vn 0.365325 0.930801 0.012096
vn 0.330547 0.915458 0.229512
vn 0.330547 0.915458 0.229512
vn 0.330547 0.915458 0.229512
vn 0.591037 0.762581 0.262953
vn 0.591037 0.762581 0.262953
vn 0.591037 0.762582 0.262953
vn 0.607672 0.794181 0.003387
vn 0.607672 0.794181 0.003387
vn 0.607672 0.794181 0.003387
vn 0.629129 0.777297 -0.002576
vn 0.629129 0.777297 -0.002576
vn 0.629129 0.777297 -0.002576
vn -0.420062 0.379159 0.824492
vn -0.420062 0.379159 0.824492
vn -0.420062 0.379159 0.824492
vn -0.423328 0.439880 0.792022
vn -0.423328 0.439880 0.792022
vn -0.423328 0.439880 0.792022
vn -0.235002 0.452793 0.860089
vn -0.235002 0.452792 0.860089
vn -0.235002 0.452792 0.860089
vn -0.235681 0.455828 0.858298
vn -0.235681 0.455828 0.858298
vn -0.235681 0.455828 0.858298
vn 0.111164 0.405617 0.907258
vn 0.111164 0.405617 0.907258
vn 0.111164 0.405617 0.907258
vn 0.137779 0.473579 0.869908
vn 0.137779 0.473579 0.869908
vn 0.137779 0.473579 0.869908
vn 0.766380 0.414207 0.491014
vn 0.766380 0.414207 0.491014
vn 0.766380 0.414207 0.491014
vn 0.768362 0.357358 0.530957
vn 0.768362 0.357358 0.530957
vn 0.768362 0.357358 0.530957
vn 0.638932 0.428416 0.638926
vn 0.638932 0.428416 0.638926
vn 0.638932 0.428416 0.638926
vn 0.638932 0.428415 0.638926
vn 0.638932 0.428415 0.638926
vn 0.638932 0.428415 0.638926
vn 0.936711 0.345279 0.057927
vn 0.936711 0.345279 0.057927
vn 0.936711 0.345279 0.057927
vn 0.914518 0.403410 0.030281
vn 0.914518 0.403410 0.030281
vn 0.914518 0.403410 0.030281
vn 0.806300 0.318869 0.498201
vn 0.806300 0.318869 0.498200
vn 0.806300 0.318869 0.498200
vn 0.764267 0.366462 0.530661
vn 0.764267 0.366462 0.530661
vn 0.764267 0.366462 0.530661
vn 0.898189 0.439595 -0.003678
vn 0.898189 0.439595 -0.003678
vn 0.898189 0.439595 -0.003678
vn 0.906988 0.420998 -0.011507
vn 0.906988 0.420998 -0.011507
vn 0.906989 0.420998 -0.011507
vn 0.723080 0.393137 -0.567977
vn 0.723080 0.393137 -0.567977
vn 0.723080 0.393137 -0.567977
vn 0.698406 0.430255 -0.571935
vn 0.698406 0.430255 -0.571935
vn 0.698406 0.430255 -0.571935
vn 0.693412 0.393884 -0.603354
vn 0.693412 0.393884 -0.603354
vn 0.693412 0.393884 -0.603354
vn 0.684523 0.457416 -0.567626
vn 0.684523 0.457416 -0.567626
vn 0.684523 0.457416 -0.567626
vn 0.160528 0.397433 -0.903481
vn 0.160528 0.397433 -0.903481
vn 0.160528 0.397433 -0.903481
vn 0.115218 0.491254 -0.863362
vn 0.115218 0.491254 -0.863362
vn 0.115218 0.491254 -0.863362
vn -0.268366 0.196472 -0.943069
vn -0.268366 0.196472 -0.943069
vn -0.268366 0.196472 -0.943069
vn -0.292193 0.350713 -0.889732
vn -0.292193 0.350713 -0.889732
vn -0.292193 0.350713 -0.889732
vn -0.916813 0.370486 -0.148976
vn -0.916813 0.370486 -0.148976
vn -0.916813 0.370486 -0.148976
vn -0.948740 0.249542 -0.193962
vn -0.948740 0.249542 -0.193962
vn -0.948740 0.249542 -0.193962
vn -0.281370 0.163756 -0.945524
vn -0.281370 0.163756 -0.945524
vn -0.281370 0.163756 -0.945524
vn -0.323850 0.015377 -0.945983
vn -0.323850 0.015377 -0.945983
vn -0.323850 0.015377 -0.945983
vn -0.895061 0.311398 -0.319214
vn -0.895061 0.311398 -0.319214
vn -0.895061 0.311398 -0.319214
vn -0.868916 0.368899 -0.329997
vn -0.868916 0.368899 -0.329997
vn -0.868916 0.368899 -0.329997
vn -0.789690 0.456416 0.409968
vn -0.789690 0.456416 0.409968
vn -0.789690 0.456416 0.409968
vn -0.769421 0.526599 0.361504
vn -0.769421 0.526599 0.361504
vn -0.769421 0.526599 0.361504
vn -0.829479 0.508852 0.230292
vn -0.829479 0.508852 0.230292
vn -0.829479 0.508852 0.230292
vn -0.888025 0.328477 0.321735
vn -0.888025 0.328477 0.321735
vn -0.888025 0.328477 0.321735
s off
f 19/37/1 21/18/2 20/38/3
f 20/38/4 21/18/5 22/39/6
f 22/39/7 21/18/8 23/40/9
f 23/40/10 21/18/11 24/41/12
f 24/41/13 21/18/14 25/42/15
f 25/42/16 21/18/17 26/43/18
f 26/43/19 21/18/20 27/44/21
f 27/44/22 21/18/23 28/45/24
f 28/45/25 21/18/26 29/46/27
f 29/46/28 21/18/29 30/47/30
f 30/47/31 21/18/32 31/48/33
f 31/48/34 21/18/35 32/49/36
f 32/49/37 21/18/38 33/50/39
f 33/50/40 21/18/41 34/51/42
f 34/51/43 21/18/44 35/52/45
f 35/52/46 21/18/47 36/53/48
f 36/53/49 21/18/50 19/37/51
f 1/137/52 2/20/53 18/153/54
f 2/135/55 3/22/56 18/152/57
f 3/133/58 4/23/59 18/151/60
f 4/131/61 5/24/62 18/150/63
f 5/129/64 6/25/65 18/149/66
f 6/127/67 7/26/68 18/148/69
f 7/125/70 8/27/71 18/147/72
f 8/123/73 9/28/74 18/146/75
f 9/121/76 10/29/77 18/145/78
f 10/119/79 11/30/80 18/144/81
f 11/117/82 12/31/83 18/143/84
f 12/115/85 13/32/86 18/142/87
f 13/113/88 14/33/89 18/141/90
f 14/111/91 15/34/92 18/140/93
f 15/109/94 16/35/95 18/139/96
f 16/107/97 17/36/98 18/21/99
f 17/105/100 1/19/101 18/154/102
f 45/90/103 46/87/104 1/138/105
f 1/138/106 46/87/107 2/15/108
f 2/136/109 46/88/110 3/14/111
f 3/14/112 46/88/113 47/85/114
f 3/134/115 47/86/116 4/13/117
f 4/13/118 47/86/119 48/83/120
f 4/132/121 48/84/122 5/12/123
f 5/12/124 48/84/125 49/81/126
f 49/82/127 50/79/128 5/130/129
f 5/130/130 50/79/131 6/11/132
f 6/128/133 50/80/134 7/10/135
f 7/10/136 50/80/137 51/77/138
f 7/126/139 51/78/140 8/9/141
f 8/9/142 51/78/143 52/75/144
f 8/124/145 52/76/146 9/8/147
f 9/8/148 52/76/149 53/71/150
f 9/122/151 53/72/152 10/7/153
f 10/7/154 53/72/155 37/54/156
f 10/120/157 37/73/158 11/6/159
f 11/6/160 37/73/161 38/103/162
f 11/118/163 38/104/164 12/5/165
f 12/5/166 38/104/167 39/101/168
f 12/116/169 39/102/170 13/4/171
f 13/4/172 39/102/173 40/99/174
f 40/100/175 41/97/176 13/114/177
f 13/114/178 41/97/179 14/3/180
f 14/112/181 41/98/182 15/2/183
f 15/2/184 41/98/185 42/95/186
f 42/96/187 43/93/188 15/110/189
f 15/110/190 43/93/191 16/1/192
f 16/108/193 43/94/194 17/17/195
f 17/17/196 43/94/197 44/91/198
f 17/106/199 44/92/200 1/16/201
f 1/16/202 44/92/203 45/89/204
f 37/74/205 29/46/206 38/55/207
f 38/55/208 29/46/209 30/47/210
f 38/55/211 30/47/212 39/56/213
f 39/56/214 30/47/215 31/48/216
f 40/57/217 39/56/218 32/49/219
f 32/49/220 39/56/221 31/48/222
f 41/58/223 40/57/224 33/50/225
f 33/50/226 40/57/227 32/49/228
f 41/58/229 33/50/230 42/59/231
f 42/59/232 33/50/233 34/51/234
f 43/60/235 42/59/236 35/52/237
f 35/52/238 42/59/239 34/51/240
f 43/60/241 35/52/242 44/61/243
f 44/61/244 35/52/245 36/53/246
f 44/61/247 36/53/248 45/62/249
f 45/62/250 36/53/251 19/37/252
f 46/63/253 45/62/254 20/38/255
f 20/38/256 45/62/257 19/37/258
f 46/63/259 20/38/260 47/64/261
f 47/64/262 20/38/263 22/39/264
f 48/65/265 47/64/266 23/40/267
f 23/40/268 47/64/269 22/39/270
f 49/66/271 48/65/272 24/41/273
f 24/41/274 48/65/275 23/40/276
f 50/67/277 49/66/278 25/42/279
f 25/42/280 49/66/281 24/41/282
f 50/67/283 25/42/284 51/68/285
f 51/68/286 25/42/287 26/43/288
f 51/68/289 26/43/290 52/69/291
f 52/69/292 26/43/293 27/44/294
f 52/69/295 27/44/296 53/70/297
f 53/70/298 27/44/299 28/45/300
f 53/70/301 28/45/302 37/74/303
f 37/74/304 28/45/305 29/46/306
