# This file uses centimeters as units for non-parametric coordinates.

v 0.629727 -160.630310 12.983045
v 9.934538 -160.501205 9.780985
v 15.578955 -160.176422 1.722821
v 15.407293 -155.552750 -8.019536
v 9.485166 -155.236115 -15.875903
v 0.073926 -159.347458 -18.844501
v -9.230885 -159.476517 -15.641682
v -14.875493 -159.801300 -7.583897
v -14.703831 -160.197739 2.251158
v -8.781702 -156.922836 10.185728
v 0.629727 107.185822 18.844322
v 9.934538 110.778496 15.717418
v 15.578955 107.639687 7.584101
v 15.407293 99.308762 -2.442447
v 9.485166 101.921677 -10.464756
v 0.073926 108.468681 -12.983599
v -9.230885 103.267693 -9.891409
v -14.875493 108.014809 -1.722994
v -14.703831 110.734848 8.180340
v -8.781702 101.551842 15.842538
v 0.650328 130.961060 15.601450
v 8.447188 128.188339 13.714705
v 0.352017 169.033615 3.311641
v 12.534063 130.068268 6.919201
v 13.109701 127.317032 -1.713840
v 7.658499 130.638763 -7.234471
v 0.097578 129.113297 -10.171405
v -7.314951 130.628204 -6.973165
v -11.924442 128.590912 -0.714391
v -12.228092 128.140106 6.933698
v -6.955225 129.797913 13.626584
v 0.629727 -38.419270 16.703516
v -8.781702 -38.303341 13.827997
v -14.703831 -37.986710 5.971632
v -14.875493 -37.590279 -3.863423
v -9.230885 -37.265495 -11.921208
v 0.073926 -37.136417 -15.124027
v 9.485166 -37.245468 -12.418262
v 15.407293 -37.568977 -4.391759
v 15.578955 -37.965405 5.443295
v 9.934538 -38.290180 13.501081
v 9.231108 -100.846313 11.085997
v -0.073702 -100.975388 14.288815
v -9.485132 -100.859482 11.412912
v -15.407261 -100.542824 3.556547
v -15.578923 -100.146416 -6.278508
v -9.934315 -99.821640 -14.336293
v -0.629504 -99.692551 -17.538731
v 8.781735 -99.806480 -14.712042
v 14.703863 -100.125122 -6.806843
v 14.875712 -100.521538 3.028210
v 0.599020 -166.358978 11.102017
v 8.878057 -166.244110 8.252438
v 0.352017 -169.033615 -3.128330
v 13.900488 -165.955139 1.083095
v 13.747706 -165.602432 -7.667820
v 8.478086 -165.320694 -14.657872
v 0.104445 -165.217560 -17.216770
v -8.174402 -165.332413 -14.367190
v -13.197025 -165.621368 -7.197848
v -13.044057 -165.974091 1.553068
v -7.774622 -166.255844 8.543117
vt 0.989294 0.558676
vt 0.989294 0.558676
vt 0.989294 0.558676
vt 0.989294 0.558676
vt 0.989294 0.558676
vt 0.989294 0.558676
vt 0.989294 0.558676
vt 0.989294 0.558676
vt 0.989294 0.558676
vt 0.989294 0.558676
vt 0.991415 0.393909
vt 0.991415 0.393909
vt 0.991415 0.393909
vt 0.991415 0.393909
vt 0.991415 0.393909
vt 0.991415 0.393909
vt 0.991415 0.393909
vt 0.991415 0.393909
vt 0.991415 0.393909
vt 0.991415 0.393909
vt 0.991415 0.393909
vt 0.991415 0.393909
vt 0.991415 0.393909
vt 0.991415 0.393909
vt 0.991415 0.393909
vt 0.991415 0.393909
vt 0.991415 0.393909
vt 0.991415 0.393909
vt 0.991415 0.393909
vt 0.991415 0.393909
vt 0.991415 0.393909
vt 0.991415 0.393909
vt 0.986465 0.549483
vt 0.986465 0.549483
vt 0.986465 0.549483
vt 0.986465 0.549483
vt 0.986465 0.549483
vt 0.986465 0.549483
vt 0.986465 0.549483
vt 0.986465 0.549483
vt 0.986465 0.549483
vt 0.986465 0.549483
vt 0.989294 0.558676
vt 0.986465 0.549483
vt 0.986465 0.549483
vt 0.986465 0.549483
vt 0.986465 0.549483
vt 0.986465 0.549483
vt 0.986465 0.549483
vt 0.986465 0.549483
vt 0.986465 0.549483
vt 0.986465 0.549483
vt 0.986465 0.549483
vt 0.986465 0.549483
vt 0.991415 0.393909
vt 0.991415 0.393909
vt 0.991415 0.393909
vt 0.991415 0.393909
vt 0.991415 0.393909
vt 0.991415 0.393909
vt 0.991415 0.393909
vt 0.991415 0.393909
vt 0.991415 0.393909
vt 0.991415 0.393909
vt 0.991415 0.393909
vt 0.991415 0.393909
vt 0.991415 0.393909
vt 0.991415 0.393909
vt 0.991415 0.393909
vt 0.991415 0.393909
vt 0.991415 0.393909
vt 0.991415 0.393909
vt 0.991415 0.393909
vt 0.991415 0.393909
vt 0.991415 0.393909
vt 0.991415 0.393909
vt 0.989294 0.558676
vt 0.989294 0.558676
vt 0.989294 0.558676
vt 0.989294 0.558676
vt 0.989294 0.558676
vt 0.989294 0.558676
vt 0.989294 0.558676
vt 0.989294 0.558676
vt 0.989294 0.558676
vt 0.989294 0.558676
vn 0.325563 -0.016842 0.945370
vn 0.325563 -0.016842 0.945370
vn 0.325563 -0.016842 0.945370
vn 0.325633 -0.016853 0.945346
vn 0.325633 -0.016853 0.945346
vn 0.325633 -0.016853 0.945346
vn 0.819106 -0.002890 0.573634
vn 0.819106 -0.002890 0.573634
vn 0.819107 -0.002890 0.573634
vn 0.819085 -0.002897 0.573665
vn 0.819085 -0.002897 0.573665
vn 0.819085 -0.002897 0.573665
vn 0.999857 0.012047 -0.011900
vn 0.999857 0.012047 -0.011900
vn 0.999857 0.012047 -0.011900
vn 0.999771 0.013059 -0.016943
vn 0.999771 0.013059 -0.016943
vn 0.999771 0.013059 -0.016943
vn 0.798775 0.023290 -0.601178
vn 0.798775 0.023290 -0.601178
vn 0.798775 0.023290 -0.601178
vn 0.800562 0.022733 -0.598819
vn 0.800562 0.022733 -0.598819
vn 0.800561 0.022733 -0.598819
vn 0.291034 0.024366 -0.956402
vn 0.291034 0.024366 -0.956402
vn 0.291034 0.024366 -0.956402
vn 0.287840 0.023755 -0.957384
vn 0.287840 0.023755 -0.957384
vn 0.287840 0.023755 -0.957384
vn -0.325632 0.016853 -0.945346
vn -0.325632 0.016853 -0.945346
vn -0.325632 0.016853 -0.945346
vn -0.325598 0.016847 -0.945358
vn -0.325598 0.016847 -0.945358
vn -0.325598 0.016847 -0.945358
vn -0.819084 0.002895 -0.573666
vn -0.819084 0.002895 -0.573666
vn -0.819085 0.002895 -0.573666
vn -0.819085 0.002895 -0.573665
vn -0.819085 0.002895 -0.573665
vn -0.819085 0.002895 -0.573665
vn -0.999782 -0.012160 0.016960
vn -0.999782 -0.012160 0.016960
vn -0.999782 -0.012160 0.016960
vn -0.999782 -0.012160 0.016960
vn -0.999782 -0.012160 0.016960
vn -0.999782 -0.012160 0.016960
vn -0.796694 -0.022610 0.603961
vn -0.796694 -0.022610 0.603960
vn -0.796694 -0.022610 0.603960
vn -0.798775 -0.023182 0.601182
vn -0.798775 -0.023182 0.601183
vn -0.798775 -0.023182 0.601183
vn -0.293634 -0.024379 0.955607
vn -0.293634 -0.024379 0.955607
vn -0.293634 -0.024379 0.955607
vn -0.292425 -0.024595 0.955972
vn -0.292425 -0.024595 0.955972
vn -0.292425 -0.024595 0.955972
vn 0.076550 -0.980148 0.182893
vn 0.076550 -0.980148 0.182893
vn 0.076550 -0.980148 0.182893
vn 0.192289 -0.976696 0.095340
vn 0.192289 -0.976696 0.095340
vn 0.192289 -0.976696 0.095340
vn 0.234125 -0.971245 -0.043234
vn 0.234125 -0.971245 -0.043234
vn 0.234125 -0.971245 -0.043234
vn 0.186553 -0.965895 -0.179570
vn 0.186553 -0.965895 -0.179570
vn 0.186553 -0.965895 -0.179570
vn 0.068193 -0.962669 -0.261951
vn 0.068193 -0.962669 -0.261951
vn 0.068193 -0.962669 -0.261951
vn -0.075944 -0.962768 -0.259444
vn -0.075944 -0.962768 -0.259444
vn -0.075944 -0.962768 -0.259444
vn -0.191359 -0.966154 -0.172998
vn -0.191359 -0.966154 -0.172998
vn -0.191359 -0.966154 -0.172998
vn -0.234151 -0.971568 -0.035070
vn -0.234151 -0.971568 -0.035070
vn -0.234151 -0.971568 -0.035070
vn -0.187495 -0.976959 0.101962
vn -0.187495 -0.976959 0.101962
vn -0.187495 -0.976959 0.101962
vn -0.068740 -0.980249 0.185436
vn -0.068740 -0.980249 0.185436
vn -0.068740 -0.980249 0.185436
vn 0.322072 0.293108 0.900199
vn 0.322072 0.293108 0.900199
vn 0.322072 0.293108 0.900199
vn 0.780562 0.295052 0.551060
vn 0.780562 0.295052 0.551060
vn 0.780562 0.295052 0.551060
vn 0.954799 0.295677 -0.030563
vn 0.954799 0.295677 -0.030563
vn 0.954799 0.295677 -0.030563
vn 0.762928 0.302167 -0.571521
vn 0.762928 0.302167 -0.571521
vn 0.762928 0.302167 -0.571521
vn 0.290884 0.304489 -0.907013
vn 0.290884 0.304489 -0.907013
vn 0.290884 0.304489 -0.907013
vn -0.324187 0.304563 -0.895625
vn -0.324187 0.304563 -0.895625
vn -0.324187 0.304563 -0.895625
vn -0.812509 0.296598 -0.501855
vn -0.812509 0.296598 -0.501855
vn -0.812509 0.296598 -0.501855
vn -0.956105 0.292291 -0.020731
vn -0.956105 0.292291 -0.020731
vn -0.956105 0.292291 -0.020731
vn -0.785360 0.290041 0.546888
vn -0.785360 0.290041 0.546888
vn -0.785360 0.290041 0.546888
vn -0.282011 0.292721 0.913665
vn -0.282011 0.292721 0.913665
vn -0.282011 0.292721 0.913665
vn 0.270426 0.129880 0.953940
vn 0.270426 0.129880 0.953940
vn 0.270426 0.129880 0.953940
vn 0.277588 0.133160 0.951427
vn 0.277588 0.133160 0.951427
vn 0.277588 0.133160 0.951427
vn 0.837334 0.129422 0.531152
vn 0.837334 0.129422 0.531152
vn 0.837334 0.129422 0.531152
vn 0.832673 0.132974 0.537563
vn 0.832673 0.132974 0.537563
vn 0.832673 0.132974 0.537563
vn 0.992728 0.083687 -0.086531
vn 0.992728 0.083687 -0.086531
vn 0.992728 0.083687 -0.086531
vn 0.990558 0.135159 0.022976
vn 0.990558 0.135159 0.022976
vn 0.990558 0.135159 0.022976
vn 0.814376 0.081752 -0.574551
vn 0.814376 0.081752 -0.574551
vn 0.814376 0.081752 -0.574551
vn 0.741849 0.121372 -0.659491
vn 0.741849 0.121372 -0.659491
vn 0.741849 0.121372 -0.659491
vn 0.337578 0.126397 -0.932773
vn 0.337578 0.126397 -0.932773
vn 0.337578 0.126397 -0.932773
vn 0.336845 0.126706 -0.932996
vn 0.336845 0.126706 -0.932996
vn 0.336845 0.126706 -0.932996
vn -0.374766 0.124237 -0.918758
vn -0.374766 0.124237 -0.918758
vn -0.374766 0.124237 -0.918758
vn -0.371241 0.125745 -0.919983
vn -0.371241 0.125745 -0.919983
vn -0.371241 0.125745 -0.919983
vn -0.782781 0.119944 -0.610629
vn -0.782781 0.119944 -0.610629
vn -0.782781 0.119944 -0.610629
vn -0.818622 0.144653 -0.555817
vn -0.818622 0.144653 -0.555817
vn -0.818622 0.144653 -0.555817
vn -0.989476 0.142996 -0.022124
vn -0.989476 0.142996 -0.022124
vn -0.989476 0.142996 -0.022124
vn -0.989863 0.138569 -0.031132
vn -0.989863 0.138569 -0.031132
vn -0.989863 0.138569 -0.031132
vn -0.725438 0.100330 0.680936
vn -0.725438 0.100330 0.680936
vn -0.725438 0.100330 0.680936
vn -0.794318 0.155055 0.587381
vn -0.794318 0.155055 0.587381
vn -0.794318 0.155055 0.587381
vn -0.354109 0.095880 0.930276
vn -0.354109 0.095880 0.930276
vn -0.354109 0.095880 0.930276
vn -0.267820 0.130437 0.954599
vn -0.267820 0.130437 0.954599
vn -0.267820 0.130437 0.954599
vn -0.292328 -0.013774 0.956219
vn -0.292328 -0.013774 0.956219
vn -0.292328 -0.013774 0.956219
vn -0.296199 -0.014042 0.955023
vn -0.296199 -0.014042 0.955023
vn -0.296199 -0.014042 0.955023
vn -0.798679 -0.008667 0.601695
vn -0.798679 -0.008667 0.601695
vn -0.798679 -0.008667 0.601695
vn -0.796366 -0.008981 0.604749
vn -0.796366 -0.008981 0.604749
vn -0.796366 -0.008981 0.604749
vn -0.999848 -0.000256 0.017441
vn -0.999848 -0.000256 0.017441
vn -0.999848 -0.000256 0.017441
vn -0.999849 -0.000258 0.017402
vn -0.999849 -0.000258 0.017402
vn -0.999849 -0.000258 0.017402
vn -0.819162 0.008283 -0.573502
vn -0.819162 0.008283 -0.573502
vn -0.819162 0.008283 -0.573502
vn -0.820364 0.008405 -0.571780
vn -0.820364 0.008405 -0.571780
vn -0.820364 0.008405 -0.571780
vn -0.325609 0.013655 -0.945406
vn -0.325609 0.013655 -0.945406
vn -0.325609 0.013655 -0.945406
vn -0.322328 0.013914 -0.946526
vn -0.322328 0.013914 -0.946526
vn -0.322328 0.013914 -0.946526
vn 0.276430 0.013489 -0.960940
vn 0.276430 0.013489 -0.960940
vn 0.276430 0.013489 -0.960939
vn 0.267698 0.014162 -0.963399
vn 0.267698 0.014162 -0.963399
vn 0.267698 0.014162 -0.963399
vn 0.804813 0.008452 -0.593468
vn 0.804813 0.008452 -0.593468
vn 0.804813 0.008452 -0.593468
vn 0.805795 0.008312 -0.592137
vn 0.805795 0.008312 -0.592137
vn 0.805795 0.008312 -0.592137
vn 0.999848 0.000248 -0.017441
vn 0.999848 0.000248 -0.017441
vn 0.999848 0.000248 -0.017441
vn 0.999850 0.000255 -0.017330
vn 0.999850 0.000255 -0.017330
vn 0.999850 0.000255 -0.017330
vn 0.819173 -0.008432 0.573484
vn 0.819173 -0.008432 0.573484
vn 0.819173 -0.008432 0.573484
vn 0.819975 -0.008509 0.572336
vn 0.819975 -0.008509 0.572336
vn 0.819975 -0.008509 0.572336
vn 0.325576 -0.013900 0.945414
vn 0.325576 -0.013900 0.945414
vn 0.325576 -0.013900 0.945414
vn 0.323391 -0.014067 0.946161
vn 0.323391 -0.014067 0.946161
vn 0.323391 -0.014067 0.946161
vn 0.325705 -0.040125 0.944620
vn 0.325705 -0.040125 0.944620
vn 0.325705 -0.040125 0.944620
vn 0.325670 -0.040131 0.944631
vn 0.325670 -0.040131 0.944631
vn 0.325670 -0.040131 0.944631
vn -0.292450 -0.033607 0.955690
vn -0.292450 -0.033608 0.955690
vn -0.292450 -0.033608 0.955690
vn -0.292414 -0.033602 0.955701
vn -0.292414 -0.033602 0.955701
vn -0.292414 -0.033602 0.955701
vn -0.798736 -0.014241 0.601513
vn -0.798736 -0.014241 0.601513
vn -0.798736 -0.014241 0.601513
vn -0.798736 -0.014241 0.601513
vn -0.798736 -0.014241 0.601513
vn -0.798736 -0.014241 0.601513
vn -0.999785 0.010552 0.017876
vn -0.999785 0.010552 0.017876
vn -0.999785 0.010552 0.017876
vn -0.999785 0.010552 0.017876
vn -0.999785 0.010552 0.017876
vn -0.999785 0.010552 0.017876
vn -0.819224 0.031319 -0.572617
vn -0.819224 0.031319 -0.572617
vn -0.819224 0.031319 -0.572617
vn -0.819224 0.031319 -0.572617
vn -0.819224 0.031319 -0.572617
vn -0.819224 0.031319 -0.572617
vn -0.325670 0.040131 -0.944631
vn -0.325670 0.040131 -0.944631
vn -0.325670 0.040131 -0.944631
vn -0.325705 0.040125 -0.944619
vn -0.325705 0.040125 -0.944620
vn -0.325705 0.040125 -0.944620
vn 0.287868 0.033707 -0.957077
vn 0.287868 0.033707 -0.957077
vn 0.287868 0.033707 -0.957077
vn 0.276512 0.032106 -0.960474
vn 0.276512 0.032106 -0.960474
vn 0.276512 0.032106 -0.960474
vn 0.800512 0.012968 -0.599176
vn 0.800512 0.012968 -0.599176
vn 0.800512 0.012968 -0.599176
vn 0.804869 0.013854 -0.593291
vn 0.804869 0.013854 -0.593291
vn 0.804869 0.013854 -0.593291
vn 0.999784 -0.010549 -0.017895
vn 0.999784 -0.010549 -0.017895
vn 0.999784 -0.010549 -0.017895
vn 0.999785 -0.010552 -0.017876
vn 0.999785 -0.010552 -0.017876
vn 0.999785 -0.010552 -0.017876
vn 0.819224 -0.031319 0.572617
vn 0.819224 -0.031319 0.572617
vn 0.819225 -0.031319 0.572617
vn 0.819234 -0.031316 0.572604
vn 0.819233 -0.031316 0.572604
vn 0.819233 -0.031316 0.572604
vn 0.314334 -0.297748 0.901410
vn 0.314334 -0.297748 0.901410
vn 0.314334 -0.297748 0.901410
vn 0.314391 -0.297668 0.901417
vn 0.314391 -0.297668 0.901417
vn 0.314391 -0.297668 0.901417
vn 0.789484 -0.289240 0.541346
vn 0.789484 -0.289240 0.541346
vn 0.789484 -0.289240 0.541346
vn 0.789437 -0.289320 0.541371
vn 0.789437 -0.289320 0.541371
vn 0.789437 -0.289320 0.541371
vn 0.981554 -0.165445 -0.095815
vn 0.981554 -0.165445 -0.095815
vn 0.981554 -0.165445 -0.095815
vn 0.960761 -0.275971 -0.027897
vn 0.960761 -0.275971 -0.027897
vn 0.960761 -0.275971 -0.027897
vn 0.786468 -0.150878 -0.598919
vn 0.786468 -0.150878 -0.598919
vn 0.786468 -0.150878 -0.598919
vn 0.786445 -0.150834 -0.598960
vn 0.786445 -0.150834 -0.598960
vn 0.786445 -0.150834 -0.598960
vn 0.355382 -0.146982 -0.923093
vn 0.355382 -0.146982 -0.923093
vn 0.355382 -0.146982 -0.923093
vn 0.279695 -0.255193 -0.925552
vn 0.279695 -0.255193 -0.925552
vn 0.279695 -0.255193 -0.925552
vn -0.311504 -0.255417 -0.915274
vn -0.311504 -0.255417 -0.915275
vn -0.311504 -0.255417 -0.915275
vn -0.311496 -0.255402 -0.915281
vn -0.311496 -0.255402 -0.915281
vn -0.311496 -0.255402 -0.915281
vn -0.785033 -0.263631 -0.560556
vn -0.785033 -0.263630 -0.560556
vn -0.785033 -0.263631 -0.560556
vn -0.785027 -0.263581 -0.560588
vn -0.785027 -0.263581 -0.560587
vn -0.785027 -0.263581 -0.560587
vn -0.960925 -0.276751 0.005616
vn -0.960925 -0.276751 0.005616
vn -0.960925 -0.276751 0.005616
vn -0.960914 -0.276790 0.005640
vn -0.960914 -0.276790 0.005640
vn -0.960914 -0.276790 0.005640
vn -0.746614 -0.192633 0.636757
vn -0.746614 -0.192633 0.636757
vn -0.746614 -0.192633 0.636757
vn -0.769808 -0.289917 0.568633
vn -0.769808 -0.289917 0.568633
vn -0.769808 -0.289917 0.568633
vn -0.350384 -0.198891 0.915245
vn -0.350384 -0.198891 0.915245
vn -0.350384 -0.198891 0.915245
vn -0.282335 -0.297910 0.911886
vn -0.282335 -0.297910 0.911886
vn -0.282335 -0.297910 0.911886
s off
f 2/12/1 42/66/2 1/11/3
f 1/11/4 42/66/5 43/68/6
f 2/12/7 3/13/8 42/66/9
f 42/66/10 3/13/11 51/76/12
f 3/13/13 4/14/14 51/76/15
f 51/76/16 4/14/17 50/75/18
f 4/14/19 5/15/20 50/75/21
f 50/75/22 5/15/23 49/74/24
f 6/16/25 48/73/26 5/15/27
f 5/15/28 48/73/29 49/74/30
f 6/16/31 7/17/32 48/73/33
f 48/73/34 7/17/35 47/72/36
f 8/18/37 46/71/38 7/17/39
f 7/17/40 46/71/41 47/72/42
f 9/19/43 45/70/44 8/18/45
f 8/18/46 45/70/47 46/71/48
f 9/19/49 10/20/50 45/70/51
f 45/70/52 10/20/53 44/69/54
f 1/21/55 43/67/56 10/20/57
f 10/20/58 43/67/59 44/69/60
f 53/1/61 52/2/62 54/3/63
f 55/4/64 53/1/65 54/3/66
f 56/5/67 55/4/68 54/3/69
f 57/6/70 56/5/71 54/3/72
f 58/7/73 57/6/74 54/3/75
f 59/8/76 58/7/77 54/3/78
f 60/9/79 59/8/80 54/3/81
f 61/10/82 60/9/83 54/3/84
f 62/43/85 61/10/86 54/3/87
f 52/2/88 62/43/89 54/3/90
f 21/33/91 22/34/92 23/35/93
f 22/34/94 24/36/95 23/35/96
f 24/36/97 25/37/98 23/35/99
f 25/37/100 26/38/101 23/35/102
f 26/38/103 27/39/104 23/35/105
f 27/39/106 28/40/107 23/35/108
f 28/40/109 29/41/110 23/35/111
f 29/41/112 30/42/113 23/35/114
f 30/42/115 31/44/116 23/35/117
f 31/44/118 21/33/119 23/35/120
f 11/45/121 12/46/122 21/33/123
f 21/33/124 12/46/125 22/34/126
f 13/47/127 24/36/128 12/46/129
f 12/46/130 24/36/131 22/34/132
f 14/48/133 25/37/134 13/47/135
f 13/47/136 25/37/137 24/36/138
f 14/48/139 15/49/140 25/37/141
f 25/37/142 15/49/143 26/38/144
f 15/49/145 16/50/146 26/38/147
f 26/38/148 16/50/149 27/39/150
f 17/51/151 28/40/152 16/50/153
f 16/50/154 28/40/155 27/39/156
f 17/51/157 18/52/158 28/40/159
f 28/40/160 18/52/161 29/41/162
f 18/52/163 19/53/164 29/41/165
f 29/41/166 19/53/167 30/42/168
f 20/54/169 31/44/170 19/53/171
f 19/53/172 31/44/173 30/42/174
f 20/54/175 11/45/176 31/44/177
f 31/44/178 11/45/179 21/33/180
f 33/57/181 32/55/182 20/31/183
f 20/31/184 32/55/185 11/32/186
f 33/57/187 20/31/188 34/58/189
f 34/58/190 20/31/191 19/30/192
f 35/59/193 34/58/194 18/29/195
f 18/29/196 34/58/197 19/30/198
f 36/60/199 35/59/200 17/28/201
f 17/28/202 35/59/203 18/29/204
f 36/60/205 17/28/206 37/61/207
f 37/61/208 17/28/209 16/27/210
f 38/62/211 37/61/212 15/26/213
f 15/26/214 37/61/215 16/27/216
f 39/63/217 38/62/218 14/25/219
f 14/25/220 38/62/221 15/26/222
f 39/63/223 14/25/224 40/64/225
f 40/64/226 14/25/227 13/24/228
f 40/64/229 13/24/230 41/65/231
f 41/65/232 13/24/233 12/23/234
f 32/56/235 41/65/236 11/22/237
f 11/22/238 41/65/239 12/23/240
f 43/68/241 42/66/242 32/56/243
f 32/56/244 42/66/245 41/65/246
f 44/69/247 43/67/248 33/57/249
f 33/57/250 43/67/251 32/55/252
f 45/70/253 44/69/254 34/58/255
f 34/58/256 44/69/257 33/57/258
f 46/71/259 45/70/260 35/59/261
f 35/59/262 45/70/263 34/58/264
f 46/71/265 35/59/266 47/72/267
f 47/72/268 35/59/269 36/60/270
f 47/72/271 36/60/272 48/73/273
f 48/73/274 36/60/275 37/61/276
f 48/73/277 37/61/278 49/74/279
f 49/74/280 37/61/281 38/62/282
f 49/74/283 38/62/284 50/75/285
f 50/75/286 38/62/287 39/63/288
f 51/76/289 50/75/290 40/64/291
f 40/64/292 50/75/293 39/63/294
f 42/66/295 51/76/296 41/65/297
f 41/65/298 51/76/299 40/64/300
f 2/77/301 1/78/302 53/1/303
f 53/1/304 1/78/305 52/2/306
f 3/79/307 2/77/308 55/4/309
f 55/4/310 2/77/311 53/1/312
f 4/80/313 3/79/314 56/5/315
f 56/5/316 3/79/317 55/4/318
f 5/81/319 4/80/320 57/6/321
f 57/6/322 4/80/323 56/5/324
f 5/81/325 57/6/326 6/82/327
f 6/82/328 57/6/329 58/7/330
f 6/82/331 58/7/332 7/83/333
f 7/83/334 58/7/335 59/8/336
f 7/83/337 59/8/338 8/84/339
f 8/84/340 59/8/341 60/9/342
f 8/84/343 60/9/344 9/85/345
f 9/85/346 60/9/347 61/10/348
f 10/86/349 9/85/350 62/43/351
f 62/43/352 9/85/353 61/10/354
f 10/86/355 62/43/356 1/78/357
f 1/78/358 62/43/359 52/2/360
