# This file uses centimeters as units for non-parametric coordinates.

v 11.655661 -2.001508 -1.389678
v 5.401846 -6.541558 10.604491
v 8.865210 6.031684 10.232178
v 11.474272 2.946357 -10.872253
v 10.847517 -4.678460 -9.354765
v 11.117502 10.745124 -4.885469
v 10.846945 9.553413 5.278410
v 0.000044 -7.348867 12.222686
v 0.000044 7.768135 11.395278
v 0.000044 11.883430 5.701463
v 0.000044 13.256721 -5.767425
v 0.000044 4.609565 -12.556822
v 0.000044 -5.850335 -10.818467
v 6.844374 -6.930657 8.189025
v 0.000044 -10.499688 -7.479462
v 0.000044 -9.357592 4.293839
v 5.474516 -10.508843 -5.626280
v 4.569479 -8.966191 4.985442
v 10.141798 -2.797051 7.212081
v 8.238646 -3.273125 11.051192
v -11.655574 -2.002068 -1.389678
v -5.401759 -6.541558 10.604491
v -8.865123 6.031684 10.232178
v -11.474185 2.946357 -10.872253
v -10.847430 -4.678460 -9.354765
v -11.117414 10.745124 -4.885469
v -10.846858 9.553413 5.278410
v -6.844286 -6.930657 8.189025
v -5.474428 -10.508843 -5.626280
v -4.569391 -8.966191 4.985442
v -10.141711 -2.797051 7.212081
v -8.238559 -3.273125 11.051192
v -9.752516 -5.791719 0.396743
v 9.752604 -5.791719 0.396743
v 6.291052 -0.863763 11.168685
v 6.625219 4.098825 10.731902
v 1.897093 4.581098 11.447923
v 1.897093 -0.958153 11.910263
v -6.290964 -0.863763 11.168685
v -1.897005 -0.958153 11.910263
v -1.897005 4.581098 11.447923
v -6.625132 4.098825 10.731902
v 4.547926 0.432638 8.178726
v 4.692694 2.583079 7.989516
v 2.643915 2.540569 8.354202
v 2.643915 0.391726 8.499925
v -4.547838 0.432615 8.178726
v -2.643827 0.391726 8.499925
v -2.643827 2.540569 8.354202
v -4.692606 2.583079 7.989516
v 6.283899 -11.617430 7.671754
v 4.959532 -11.260197 9.889617
v 0.000044 -11.896440 11.375062
v 0.000044 -13.256725 7.971586
v 0.000044 -12.494633 5.403535
v 4.195257 -11.586293 5.879610
v -6.283812 -11.617430 7.671754
v -4.959444 -11.260197 9.889617
v -4.195169 -11.586293 5.879610
v 0.024648 -1.396926 12.361543
v 1.204820 -3.339870 12.397782
v 0.013109 -5.559035 12.556473
v -1.308206 -3.336366 12.373747
v 1.171633 -5.777653 12.149446
v -1.314596 -5.327793 12.114347
v 0.001379 -2.060338 11.354461
v -0.013689 -3.438409 11.565413
v 0.822206 -3.411694 11.379638
v 0.799128 -5.107220 11.206833
v -0.006632 -4.955145 11.489883
v -0.930075 -4.794319 11.182039
v -0.925593 -3.409262 11.362474
vt 0.036522 0.520452
vt 0.031437 0.526554
vt 0.031437 0.526554
vt 0.031437 0.526554
vt 0.031437 0.526554
vt 0.036522 0.520452
vt 0.036522 0.520452
vt 0.031437 0.526554
vt 0.031437 0.526554
vt 0.031437 0.526554
vt 0.031437 0.526554
vt 0.031437 0.526554
vt 0.031437 0.526554
vt 0.031437 0.526554
vt 0.031437 0.526554
vt 0.031437 0.526554
vt 0.032454 0.218428
vt 0.036522 0.520452
vt 0.036522 0.520452
vt 0.036522 0.520452
vt 0.036522 0.520452
vt 0.036522 0.520452
vt 0.036522 0.520452
vt 0.036522 0.520452
vt 0.036522 0.520452
vt 0.031437 0.526554
vt 0.036522 0.520452
vt 0.032454 0.218428
vt 0.031437 0.526554
vt 0.031437 0.526554
vt 0.031437 0.526554
vt 0.031437 0.526554
vt 0.031437 0.526554
vt 0.031437 0.526554
vt 0.031437 0.526554
vt 0.031437 0.526554
vt 0.031437 0.526554
vt 0.031437 0.526554
vt 0.031437 0.526554
vt 0.036522 0.520452
vt 0.036522 0.520452
vt 0.036522 0.520452
vt 0.031437 0.526554
vt 0.031437 0.526554
vt 0.036522 0.520452
vt 0.031437 0.526554
vt 0.031437 0.526554
vt 0.031437 0.526554
vt 0.036522 0.520452
vt 0.036522 0.520452
vt 0.036522 0.520452
vt 0.031437 0.526554
vt 0.031437 0.526554
vt 0.031437 0.526554
vt 0.031437 0.526554
vt 0.031437 0.526554
vt 0.031437 0.526554
vt 0.031437 0.526554
vt 0.031437 0.526554
vt 0.024319 0.224529
vt 0.024319 0.224529
vt 0.024319 0.224529
vt 0.024319 0.224529
vt 0.024319 0.224529
vt 0.024319 0.224529
vt 0.024319 0.224529
vt 0.024319 0.224529
vt 0.024319 0.224529
vt 0.024319 0.224529
vt 0.024319 0.224529
vt 0.024319 0.224529
vt 0.024319 0.224529
vt 0.024319 0.224529
vt 0.024319 0.224529
vt 0.024319 0.224529
vt 0.036522 0.520452
vt 0.036522 0.520452
vt 0.036522 0.520452
vt 0.036522 0.520452
vt 0.036522 0.520452
vt 0.036522 0.520452
vt 0.036522 0.520452
vt 0.031437 0.526554
vt 0.031437 0.526554
vt 0.031437 0.526554
vt 0.036522 0.520452
vt 0.036522 0.520452
vt 0.036522 0.520452
vt 0.031437 0.526554
vt 0.031437 0.526554
vt 0.031437 0.526554
vt 0.036522 0.520452
vt 0.036522 0.520452
vt 0.036522 0.520452
vt 0.036522 0.520452
vt 0.036522 0.520452
vt 0.036522 0.520452
vt 0.036522 0.520452
vt 0.031437 0.526554
vt 0.036522 0.520452
vt 0.036522 0.520452
vt 0.036522 0.520452
vt 0.031437 0.526554
vt 0.031437 0.526554
vt 0.031437 0.526554
vt 0.031437 0.526554
vt 0.031437 0.526554
vt 0.036522 0.520452
vt 0.036522 0.520452
vt 0.036522 0.520452
vt 0.036522 0.520452
vt 0.031437 0.526554
vt 0.036522 0.520452
vt 0.036522 0.520452
vt 0.036522 0.520452
vt 0.036522 0.520452
vt 0.036522 0.520452
vt 0.031437 0.526554
vt 0.031437 0.526554
vt 0.031437 0.526554
vt 0.031437 0.526554
vt 0.031437 0.526554
vt 0.036522 0.520452
vt 0.031437 0.526554
vt 0.031437 0.526554
vt 0.031437 0.526554
vt 0.031437 0.526554
vt 0.031437 0.526554
vt 0.031437 0.526554
vt 0.031437 0.526554
vt 0.031437 0.526554
vt 0.032454 0.218428
vt 0.032454 0.218428
vt 0.032454 0.218428
vt 0.032454 0.218428
vt 0.032454 0.218428
vt 0.032454 0.218428
vt 0.032454 0.218428
vt 0.032454 0.218428
vt 0.032454 0.218428
vt 0.032454 0.218428
vt 0.032454 0.218428
vn 0.200735 0.602294 -0.772624
vn 0.200735 0.602294 -0.772624
vn 0.200735 0.602294 -0.772624
vn 0.197916 0.605336 -0.770972
vn 0.197916 0.605336 -0.770972
vn 0.197916 0.605336 -0.770972
vn 0.152597 -0.204956 -0.966803
vn 0.152597 -0.204956 -0.966803
vn 0.152597 -0.204956 -0.966802
vn 0.120185 -0.162755 -0.979319
vn 0.120185 -0.162755 -0.979319
vn 0.120185 -0.162755 -0.979319
vn 0.254180 -0.919491 0.299883
vn 0.254180 -0.919491 0.299883
vn 0.254180 -0.919491 0.299883
vn 0.224412 -0.904896 0.361665
vn 0.224412 -0.904896 0.361665
vn 0.224412 -0.904896 0.361665
vn 0.212965 0.969741 0.119371
vn 0.212965 0.969740 0.119371
vn 0.212965 0.969740 0.119371
vn 0.210085 0.970749 0.116238
vn 0.210085 0.970749 0.116238
vn 0.210085 0.970749 0.116238
vn 0.188084 0.763389 0.617950
vn 0.188084 0.763389 0.617950
vn 0.188084 0.763389 0.617950
vn 0.229325 0.788871 0.570169
vn 0.229325 0.788871 0.570169
vn 0.229324 0.788871 0.570169
vn 0.173253 0.074743 0.982037
vn 0.173253 0.074743 0.982037
vn 0.173253 0.074743 0.982037
vn 0.164580 0.066736 0.984103
vn 0.164580 0.066736 0.984104
vn 0.164580 0.066736 0.984104
vn 0.582179 -0.806970 0.099332
vn 0.582179 -0.806970 0.099332
vn 0.582179 -0.806970 0.099332
vn 0.896804 -0.021492 0.441905
vn 0.896804 -0.021492 0.441905
vn 0.896804 -0.021492 0.441905
vn 0.927023 0.005778 0.374960
vn 0.927023 0.005778 0.374960
vn 0.927023 0.005778 0.374960
vn 0.170261 -0.637448 -0.751446
vn 0.170261 -0.637448 -0.751446
vn 0.170261 -0.637448 -0.751446
vn 0.264240 -0.562590 -0.783371
vn 0.264240 -0.562590 -0.783371
vn 0.264240 -0.562590 -0.783371
vn 0.229381 -0.931133 -0.283508
vn 0.229381 -0.931133 -0.283508
vn 0.229381 -0.931133 -0.283508
vn 0.233240 -0.932236 -0.276649
vn 0.233241 -0.932236 -0.276649
vn 0.233240 -0.932236 -0.276649
vn 0.984897 -0.029521 0.170606
vn 0.984897 -0.029521 0.170606
vn 0.984897 -0.029521 0.170606
vn 0.998164 0.051071 0.032559
vn 0.998164 0.051071 0.032559
vn 0.998164 0.051071 0.032559
vn 0.999065 0.043108 0.003382
vn 0.999065 0.043108 0.003382
vn 0.999065 0.043108 0.003382
vn 0.993073 -0.095308 -0.068726
vn 0.993073 -0.095308 -0.068726
vn 0.993073 -0.095308 -0.068726
vn 0.902984 -0.316337 0.290775
vn 0.902984 -0.316337 0.290775
vn 0.902984 -0.316337 0.290775
vn 0.631114 -0.612770 0.475613
vn 0.631114 -0.612770 0.475613
vn 0.631114 -0.612770 0.475613
vn 0.776468 -0.544380 0.317410
vn 0.776468 -0.544380 0.317410
vn 0.776468 -0.544380 0.317410
vn 0.182741 -0.287120 0.940302
vn 0.182741 -0.287120 0.940302
vn 0.182741 -0.287120 0.940302
vn 0.325312 -0.100215 0.940282
vn 0.325312 -0.100215 0.940281
vn 0.325312 -0.100215 0.940282
vn 0.296297 -0.177187 0.938516
vn 0.296297 -0.177187 0.938516
vn 0.296297 -0.177187 0.938516
vn 0.307336 -0.185663 0.933313
vn 0.307336 -0.185663 0.933313
vn 0.307336 -0.185663 0.933313
vn 0.788485 -0.609510 0.082398
vn 0.788485 -0.609509 0.082398
vn 0.788485 -0.609509 0.082398
vn -0.197916 0.605336 -0.770972
vn -0.197916 0.605336 -0.770972
vn -0.197916 0.605336 -0.770972
vn -0.200735 0.602294 -0.772624
vn -0.200735 0.602294 -0.772624
vn -0.200735 0.602294 -0.772624
vn -0.120185 -0.162755 -0.979319
vn -0.120185 -0.162755 -0.979319
vn -0.120185 -0.162755 -0.979319
vn -0.152597 -0.204956 -0.966803
vn -0.152597 -0.204956 -0.966803
vn -0.152597 -0.204956 -0.966802
vn -0.254180 -0.919490 0.299883
vn -0.254180 -0.919491 0.299883
vn -0.254180 -0.919491 0.299883
vn -0.224412 -0.904896 0.361665
vn -0.224412 -0.904897 0.361665
vn -0.224412 -0.904896 0.361665
vn -0.212965 0.969741 0.119371
vn -0.212965 0.969740 0.119371
vn -0.212965 0.969740 0.119371
vn -0.210085 0.970749 0.116238
vn -0.210085 0.970749 0.116238
vn -0.210085 0.970749 0.116238
vn -0.229324 0.788871 0.570169
vn -0.229324 0.788871 0.570169
vn -0.229324 0.788871 0.570169
vn -0.188084 0.763388 0.617950
vn -0.188084 0.763388 0.617950
vn -0.188084 0.763388 0.617950
vn -0.164580 0.066736 0.984103
vn -0.164580 0.066736 0.984103
vn -0.164580 0.066736 0.984103
vn -0.173253 0.074742 0.982037
vn -0.173253 0.074742 0.982037
vn -0.173253 0.074742 0.982037
vn -0.737141 -0.675716 0.005626
vn -0.737141 -0.675716 0.005626
vn -0.737141 -0.675716 0.005626
vn -0.927023 0.005778 0.374960
vn -0.927023 0.005778 0.374960
vn -0.927023 0.005778 0.374960
vn -0.896804 -0.021492 0.441905
vn -0.896804 -0.021492 0.441905
vn -0.896804 -0.021492 0.441905
vn -0.170261 -0.637448 -0.751446
vn -0.170261 -0.637448 -0.751446
vn -0.170261 -0.637448 -0.751446
vn -0.264240 -0.562590 -0.783371
vn -0.264240 -0.562590 -0.783371
vn -0.264240 -0.562590 -0.783371
vn -0.229381 -0.931133 -0.283507
vn -0.229381 -0.931133 -0.283507
vn -0.229381 -0.931133 -0.283507
vn -0.233241 -0.932236 -0.276649
vn -0.233240 -0.932236 -0.276649
vn -0.233240 -0.932236 -0.276649
vn -0.984897 -0.029521 0.170608
vn -0.984897 -0.029521 0.170608
vn -0.984897 -0.029521 0.170608
vn -0.998164 0.051069 0.032558
vn -0.998164 0.051069 0.032558
vn -0.998164 0.051069 0.032558
vn -0.999065 0.043106 0.003384
vn -0.999065 0.043106 0.003384
vn -0.999065 0.043106 0.003384
vn -0.993072 -0.095309 -0.068733
vn -0.993072 -0.095309 -0.068733
vn -0.993072 -0.095309 -0.068733
vn -0.902109 -0.428317 0.052392
vn -0.902109 -0.428317 0.052392
vn -0.902109 -0.428317 0.052392
vn -0.776467 -0.544380 0.317410
vn -0.776468 -0.544380 0.317410
vn -0.776467 -0.544380 0.317410
vn -0.631114 -0.612771 0.475613
vn -0.631114 -0.612771 0.475613
vn -0.631114 -0.612771 0.475613
vn -0.182111 -0.286611 0.940579
vn -0.182111 -0.286611 0.940579
vn -0.182111 -0.286611 0.940579
vn -0.311937 -0.121738 0.942272
vn -0.311937 -0.121738 0.942272
vn -0.311937 -0.121738 0.942272
vn -0.306221 -0.172362 0.936226
vn -0.306221 -0.172362 0.936226
vn -0.306221 -0.172362 0.936226
vn -0.326500 -0.072838 0.942386
vn -0.326500 -0.072838 0.942387
vn -0.326500 -0.072838 0.942386
vn -0.788487 -0.609501 0.082439
vn -0.788487 -0.609501 0.082439
vn -0.788487 -0.609501 0.082439
vn -0.582179 -0.806970 0.099332
vn -0.582179 -0.806970 0.099332
vn -0.582179 -0.806970 0.099332
vn -0.902972 -0.316384 0.290763
vn -0.902972 -0.316384 0.290763
vn -0.902972 -0.316384 0.290763
vn 0.737141 -0.675716 0.005626
vn 0.737141 -0.675716 0.005626
vn 0.737141 -0.675716 0.005626
vn 0.902134 -0.428261 0.052401
vn 0.902134 -0.428261 0.052401
vn 0.902134 -0.428261 0.052401
vn 0.153882 0.076350 0.985135
vn 0.153882 0.076350 0.985135
vn 0.153882 0.076350 0.985135
vn 0.153900 0.076343 0.985133
vn 0.153900 0.076343 0.985133
vn 0.153900 0.076343 0.985133
vn 0.149609 0.105293 0.983123
vn 0.149609 0.105293 0.983123
vn 0.149609 0.105293 0.983123
vn 0.156619 0.073143 0.984947
vn 0.156619 0.073143 0.984947
vn 0.156619 0.073143 0.984947
vn 0.147580 0.104092 0.983557
vn 0.147580 0.104092 0.983557
vn 0.147580 0.104092 0.983557
vn 0.215500 0.081223 0.973120
vn 0.215500 0.081223 0.973120
vn 0.215500 0.081223 0.973120
vn 0.186094 0.102777 0.977142
vn 0.186094 0.102777 0.977142
vn 0.186094 0.102777 0.977142
vn 0.161276 0.152703 0.975024
vn 0.161276 0.152703 0.975024
vn 0.161276 0.152703 0.975024
vn 0.200848 0.140082 0.969555
vn 0.200848 0.140082 0.969555
vn 0.200848 0.140082 0.969555
vn -0.185567 0.102345 0.977287
vn -0.185567 0.102345 0.977287
vn -0.185567 0.102345 0.977287
vn -0.161396 0.150135 0.975403
vn -0.161396 0.150135 0.975403
vn -0.161396 0.150135 0.975403
vn -0.195795 0.140664 0.970504
vn -0.195795 0.140664 0.970504
vn -0.195795 0.140664 0.970504
vn -0.146295 0.103332 0.983829
vn -0.146295 0.103332 0.983830
vn -0.146295 0.103332 0.983830
vn -0.210228 0.081318 0.974265
vn -0.210228 0.081318 0.974265
vn -0.210228 0.081318 0.974265
vn -0.149609 0.105293 0.983123
vn -0.149609 0.105293 0.983123
vn -0.149609 0.105293 0.983123
vn -0.156619 0.073143 0.984947
vn -0.156619 0.073143 0.984947
vn -0.156619 0.073143 0.984947
vn -0.153882 0.076350 0.985135
vn -0.153882 0.076350 0.985135
vn -0.153882 0.076350 0.985135
vn -0.153900 0.076343 0.985133
vn -0.153900 0.076343 0.985133
vn -0.153900 0.076343 0.985133
vn -0.839086 0.103507 0.534061
vn -0.839086 0.103507 0.534061
vn -0.839086 0.103507 0.534061
vn -0.839072 0.103479 0.534089
vn -0.839072 0.103479 0.534089
vn -0.839072 0.103479 0.534089
vn -0.014398 -0.870791 0.491442
vn -0.014398 -0.870791 0.491442
vn -0.014398 -0.870791 0.491442
vn 0.117747 -0.815666 0.566414
vn 0.117747 -0.815666 0.566414
vn 0.117747 -0.815666 0.566414
vn 0.974641 0.018613 0.223001
vn 0.974641 0.018613 0.223001
vn 0.974641 0.018613 0.223001
vn 0.975496 0.014886 0.219514
vn 0.975496 0.014886 0.219514
vn 0.975496 0.014886 0.219514
vn 0.043561 0.925627 0.375921
vn 0.043561 0.925628 0.375921
vn 0.043561 0.925628 0.375921
vn 0.043532 0.925615 0.375954
vn 0.043532 0.925615 0.375954
vn 0.043532 0.925615 0.375954
vn -0.043561 0.925627 0.375921
vn -0.043561 0.925627 0.375921
vn -0.043561 0.925627 0.375921
vn -0.043542 0.925620 0.375942
vn -0.043542 0.925619 0.375942
vn -0.043542 0.925619 0.375942
vn -0.974641 0.018613 0.223001
vn -0.974641 0.018613 0.223001
vn -0.974641 0.018613 0.223001
vn -0.975496 0.014886 0.219514
vn -0.975496 0.014886 0.219514
vn -0.975496 0.014886 0.219514
vn 0.014398 -0.870791 0.491442
vn 0.014398 -0.870791 0.491442
vn 0.014398 -0.870791 0.491442
vn -0.117747 -0.815666 0.566414
vn -0.117747 -0.815666 0.566414
vn -0.117747 -0.815666 0.566414
vn 0.839086 0.103507 0.534060
vn 0.839086 0.103507 0.534060
vn 0.839086 0.103507 0.534060
vn 0.839071 0.103478 0.534090
vn 0.839071 0.103478 0.534090
vn 0.839071 0.103478 0.534090
vn -0.062021 -0.986926 0.148761
vn -0.062021 -0.986926 0.148761
vn -0.062021 -0.986926 0.148761
vn 0.034329 -0.994741 0.096497
vn 0.034329 -0.994741 0.096497
vn 0.034329 -0.994741 0.096497
vn -0.034329 -0.994741 0.096497
vn -0.034329 -0.994741 0.096497
vn -0.034329 -0.994741 0.096497
vn 0.062021 -0.986926 0.148761
vn 0.062021 -0.986926 0.148761
vn 0.062021 -0.986926 0.148761
vn 0.836370 -0.157926 0.524924
vn 0.836370 -0.157926 0.524924
vn 0.836370 -0.157926 0.524924
vn 0.836391 -0.157951 0.524882
vn 0.836391 -0.157951 0.524882
vn 0.836391 -0.157951 0.524882
vn 0.306068 -0.170585 0.936602
vn 0.306068 -0.170585 0.936602
vn 0.306068 -0.170585 0.936602
vn 0.303005 -0.174621 0.936854
vn 0.303005 -0.174621 0.936854
vn 0.303005 -0.174621 0.936854
vn 0.169136 -0.339880 -0.925135
vn 0.169136 -0.339880 -0.925135
vn 0.169136 -0.339880 -0.925135
vn 0.176381 -0.328261 -0.927973
vn 0.176381 -0.328261 -0.927973
vn 0.176381 -0.328261 -0.927973
vn 0.825624 -0.036592 -0.563033
vn 0.825624 -0.036592 -0.563033
vn 0.825624 -0.036592 -0.563033
vn 0.611295 -0.332413 -0.718206
vn 0.611295 -0.332413 -0.718206
vn 0.611295 -0.332413 -0.718206
vn -0.306068 -0.170585 0.936602
vn -0.306068 -0.170585 0.936602
vn -0.306068 -0.170585 0.936602
vn -0.303004 -0.174621 0.936854
vn -0.303004 -0.174621 0.936854
vn -0.303004 -0.174621 0.936854
vn -0.836370 -0.157926 0.524924
vn -0.836370 -0.157926 0.524924
vn -0.836370 -0.157926 0.524924
vn -0.836392 -0.157951 0.524881
vn -0.836392 -0.157951 0.524881
vn -0.836392 -0.157951 0.524881
vn -0.825624 -0.036592 -0.563033
vn -0.825624 -0.036592 -0.563033
vn -0.825624 -0.036592 -0.563033
vn -0.611296 -0.332413 -0.718206
vn -0.611296 -0.332413 -0.718206
vn -0.611296 -0.332413 -0.718206
vn -0.169136 -0.339880 -0.925135
vn -0.169136 -0.339880 -0.925135
vn -0.169136 -0.339880 -0.925135
vn -0.176381 -0.328261 -0.927973
vn -0.176381 -0.328261 -0.927973
vn -0.176381 -0.328261 -0.927973
vn 0.616981 -0.769594 0.164498
vn 0.616981 -0.769594 0.164498
vn 0.616981 -0.769594 0.164498
vn -0.616981 -0.769594 0.164498
vn -0.616981 -0.769594 0.164498
vn -0.616981 -0.769594 0.164498
vn 0.210198 0.145688 0.966743
vn 0.210198 0.145688 0.966743
vn 0.210198 0.145688 0.966743
vn 0.312810 -0.100518 0.944482
vn 0.312810 -0.100518 0.944482
vn 0.312810 -0.100518 0.944482
vn 0.218156 -0.047525 0.974756
vn 0.218156 -0.047525 0.974756
vn 0.218156 -0.047525 0.974756
vn -0.219332 -0.125338 0.967566
vn -0.219332 -0.125338 0.967566
vn -0.219332 -0.125338 0.967566
vn -0.323486 -0.048563 0.944986
vn -0.323486 -0.048563 0.944986
vn -0.323486 -0.048563 0.944986
vn -0.210189 0.150180 0.966057
vn -0.210189 0.150180 0.966057
vn -0.210189 0.150180 0.966057
vn -0.807306 -0.484073 0.337535
vn -0.807306 -0.484073 0.337535
vn -0.807306 -0.484073 0.337535
vn -0.807306 -0.484077 0.337530
vn -0.807306 -0.484077 0.337530
vn -0.807306 -0.484077 0.337530
vn 0.318633 0.827361 0.462544
vn 0.318633 0.827361 0.462544
vn 0.318633 0.827361 0.462544
vn 0.318636 0.827362 0.462540
vn 0.318636 0.827362 0.462540
vn 0.318636 0.827362 0.462540
vn -0.935301 -0.023236 0.353088
vn -0.935301 -0.023236 0.353088
vn -0.935301 -0.023236 0.353088
vn -0.935290 -0.023258 0.353118
vn -0.935290 -0.023258 0.353118
vn -0.935290 -0.023258 0.353118
vn 0.932981 -0.049432 0.356514
vn 0.932981 -0.049432 0.356514
vn 0.932981 -0.049432 0.356514
vn 0.932965 -0.049468 0.356552
vn 0.932965 -0.049468 0.356552
vn 0.932965 -0.049468 0.356552
vn -0.012583 0.870032 0.492835
vn -0.012583 0.870032 0.492835
vn -0.012583 0.870032 0.492835
vn -0.012695 0.870130 0.492659
vn -0.012695 0.870130 0.492659
vn -0.012695 0.870130 0.492659
vn 0.778112 -0.532652 0.332903
vn 0.778111 -0.532652 0.332903
vn 0.778112 -0.532652 0.332903
vn 0.778104 -0.532730 0.332796
vn 0.778104 -0.532730 0.332796
vn 0.778104 -0.532730 0.332796
s off
f 4/3/1 12/4/2 6/2/3
f 6/2/4 12/4/5 11/5/6
f 5/6/7 13/7/8 4/1/9
f 4/1/10 13/7/11 12/18/12
f 51/83/13 52/119/14 54/11/15
f 54/11/16 52/119/17 53/105/18
f 7/12/19 6/2/20 10/13/21
f 10/13/22 6/2/23 11/5/24
f 7/12/25 10/13/26 3/14/27
f 3/14/28 10/13/29 9/15/30
f 44/61/31 45/62/32 43/60/33
f 43/60/34 45/62/35 46/63/36
f 18/114/37 34/20/38 14/21/39
f 20/23/40 19/24/41 3/22/42
f 3/22/43 19/24/44 7/25/45
f 5/6/46 17/27/47 13/7/48
f 13/7/49 17/27/50 15/40/51
f 51/88/52 54/41/53 56/111/54
f 56/111/55 54/41/56 55/94/57
f 1/45/58 7/25/59 19/24/60
f 7/25/61 1/45/62 6/49/63
f 6/49/64 1/45/65 4/1/66
f 4/1/67 1/45/68 5/6/69
f 34/20/70 1/45/71 14/21/72
f 2/50/73 14/21/74 20/23/75
f 20/23/76 14/21/77 19/24/78
f 20/26/79 61/125/80 2/121/81
f 61/125/82 64/130/83 2/121/84
f 62/127/85 8/10/86 64/130/87
f 8/10/88 2/121/89 64/130/90
f 14/21/91 1/45/92 19/24/93
f 11/5/94 12/4/95 26/30/96
f 26/30/97 12/4/98 24/31/99
f 12/18/100 13/7/101 24/51/102
f 24/51/103 13/7/104 25/76/105
f 57/99/106 54/34/107 58/104/108
f 58/104/109 54/34/110 53/106/111
f 27/37/112 10/13/113 26/30/114
f 26/30/115 10/13/116 11/5/117
f 9/15/118 10/13/119 23/38/120
f 23/38/121 10/13/122 27/37/123
f 48/65/124 49/66/125 47/64/126
f 47/64/127 49/66/128 50/67/129
f 25/76/130 29/77/131 33/79/132
f 27/37/133 31/43/134 23/38/135
f 23/38/136 31/43/137 32/39/138
f 25/76/139 13/7/140 29/77/141
f 29/77/142 13/7/143 15/40/144
f 57/100/145 59/98/146 54/108/147
f 54/108/148 59/98/149 55/86/150
f 21/29/151 31/43/152 27/37/153
f 27/37/154 26/30/155 21/29/156
f 26/30/157 24/31/158 21/29/159
f 24/31/160 25/32/161 21/29/162
f 25/76/163 33/79/164 21/81/165
f 31/47/166 28/44/167 32/46/168
f 32/46/169 28/44/170 22/48/171
f 32/46/172 22/48/173 63/129/174
f 63/129/175 22/48/176 65/131/177
f 8/10/178 62/127/179 22/48/180
f 62/127/181 65/131/182 22/48/183
f 28/109/184 31/82/185 21/81/186
f 33/79/187 30/101/188 28/109/189
f 21/81/190 33/79/191 28/109/192
f 5/6/193 34/20/194 17/27/195
f 5/6/196 1/45/197 34/20/198
f 20/16/199 3/14/200 35/52/201
f 35/52/202 3/14/203 36/53/204
f 9/15/205 37/54/206 3/14/207
f 3/14/208 37/54/209 36/53/210
f 9/15/211 60/124/212 37/54/213
f 37/54/214 60/124/215 38/55/216
f 20/16/217 35/52/218 61/126/219
f 35/52/220 38/55/221 61/126/222
f 60/124/223 61/126/224 38/55/225
f 32/39/226 63/128/227 39/56/228
f 39/56/229 63/128/230 40/57/231
f 63/128/232 60/124/233 40/57/234
f 9/15/235 41/58/236 60/124/237
f 60/124/238 41/58/239 40/57/240
f 9/15/241 23/38/242 41/58/243
f 41/58/244 23/38/245 42/59/246
f 32/39/247 39/56/248 23/38/249
f 23/38/250 39/56/251 42/59/252
f 35/68/253 36/69/254 43/60/255
f 43/60/256 36/69/257 44/61/258
f 36/69/259 37/70/260 44/61/261
f 44/61/262 37/70/263 45/62/264
f 37/70/265 38/71/266 45/62/267
f 45/62/268 38/71/269 46/63/270
f 38/71/271 35/68/272 46/63/273
f 46/63/274 35/68/275 43/60/276
f 40/73/277 48/65/278 39/72/279
f 39/72/280 48/65/281 47/64/282
f 41/74/283 49/66/284 40/73/285
f 40/73/286 49/66/287 48/65/288
f 42/75/289 50/67/290 41/74/291
f 41/74/292 50/67/293 49/66/294
f 39/72/295 47/64/296 42/75/297
f 42/75/298 47/64/299 50/67/300
f 30/101/301 29/77/302 16/116/303
f 16/116/304 29/77/305 15/40/306
f 15/40/307 17/27/308 16/116/309
f 16/116/310 17/27/311 18/114/312
f 2/122/313 52/118/314 14/8/315
f 14/8/316 52/118/317 51/112/318
f 2/9/319 8/120/320 52/84/321
f 52/84/322 8/120/323 53/85/324
f 18/115/325 56/110/326 16/42/327
f 16/42/328 56/110/329 55/95/330
f 14/123/331 51/113/332 18/19/333
f 18/19/334 51/113/335 56/87/336
f 22/107/337 58/103/338 8/35/339
f 8/35/340 58/103/341 53/89/342
f 22/36/343 28/33/344 58/90/345
f 58/90/346 28/33/347 57/91/348
f 28/80/349 30/102/350 57/92/351
f 57/92/352 30/102/353 59/97/354
f 30/78/355 16/117/356 59/93/357
f 59/93/358 16/117/359 55/96/360
f 17/27/361 34/20/362 18/114/363
f 33/79/364 29/77/365 30/101/366
f 67/17/367 68/132/368 66/28/369
f 69/134/370 68/132/371 70/133/372
f 70/133/373 68/132/374 67/17/375
f 72/135/376 71/136/377 67/17/378
f 67/17/379 71/136/380 70/133/381
f 66/28/382 72/135/383 67/17/384
f 60/137/385 66/28/386 61/138/387
f 61/138/388 66/28/389 68/132/390
f 62/139/391 64/140/392 70/133/393
f 70/133/394 64/140/395 69/134/396
f 64/140/397 61/138/398 69/134/399
f 69/134/400 61/138/401 68/132/402
f 65/142/403 71/136/404 63/141/405
f 63/141/406 71/136/407 72/135/408
f 62/139/409 70/133/410 65/142/411
f 65/142/412 70/133/413 71/136/414
f 60/137/415 63/141/416 66/28/417
f 66/28/418 63/141/419 72/135/420
