# This file uses centimeters as units for non-parametric coordinates.

v -0.692034 -191.163696 -15.283330
v -11.109924 -187.423340 -11.768742
v -17.430162 -187.163132 -2.745327
v -17.237902 -190.482452 8.339787
v -10.606718 -186.636658 17.066385
v -0.069714 -190.135880 20.357517
v 10.348177 -186.647202 16.700844
v 16.668415 -190.499512 7.748261
v 16.475964 -190.817123 -3.265601
v 9.845209 -191.070816 -12.062609
v -0.692034 185.979950 -20.357893
v -11.109924 188.709244 -16.822647
v -17.430162 186.343582 -7.747796
v -17.237902 180.044662 3.395503
v -10.606718 182.039581 12.400788
v -0.069714 187.007751 15.283373
v 10.348177 183.059174 11.772581
v 16.668415 186.644165 2.673697
v 16.475964 188.689224 -8.386121
v 9.845209 181.713593 -17.051584
v 0.692558 8.199286 15.570915
v -9.844875 8.111501 12.526430
v -16.475821 7.852721 3.553187
v -16.668081 7.535124 -7.460675
v -10.348272 7.274890 -16.483669
v 0.069809 7.171464 -20.070353
v 10.607052 7.264340 -16.849630
v 17.238235 7.518041 -8.052201
v 17.430687 7.835650 2.961239
v 11.110687 8.095860 11.984653
v -0.657654 -194.921082 -13.204765
v -9.927511 -196.815323 -10.014400
v -0.380898 -199.695969 2.714594
v -15.550375 -196.583817 -1.985576
v -15.379620 -196.301208 7.813612
v -9.479141 -196.075485 15.640904
v -0.104094 -194.006561 18.506624
v 9.165573 -194.098587 15.315838
v 14.788866 -196.316391 7.287435
v 14.617443 -196.598984 -2.512174
v 8.717585 -196.824707 -10.339466
v -0.723028 199.868118 -17.807964
v -10.260820 197.635406 -15.574665
v -0.379610 203.803253 -2.807304
v -15.215397 199.190704 -7.168917
v -16.045809 196.828522 3.257634
v -9.358549 199.633041 9.916208
v -0.072670 198.358612 13.591009
v 8.983183 199.626266 9.634991
v 14.610720 198.004883 2.027782
v 14.950752 197.641724 -7.329553
v 8.598900 198.873825 -15.453662
v -0.617409 188.886566 -21.947805
v -12.025881 191.710297 -18.048283
v -18.977690 189.239578 -8.110806
v -18.780613 182.799637 3.986608
v -11.604261 184.832275 13.707796
v -0.044203 189.870911 16.846724
v 11.349535 185.936874 13.059351
v 18.140459 189.625610 3.221797
v 17.892790 191.672882 -8.922837
v 10.753584 184.569733 -18.424788
vt 0.991415 0.393909
vt 0.991415 0.393909
vt 0.991415 0.393909
vt 0.991415 0.393909
vt 0.991415 0.393909
vt 0.991415 0.393909
vt 0.991415 0.393909
vt 0.991415 0.393909
vt 0.991415 0.393909
vt 0.991415 0.393909
vt 0.991415 0.393909
vt 0.991415 0.393909
vt 0.991415 0.393909
vt 0.991415 0.393909
vt 0.991415 0.393909
vt 0.991415 0.393909
vt 0.991415 0.393909
vt 0.991415 0.393909
vt 0.991415 0.393909
vt 0.991415 0.393909
vt 0.991415 0.393909
vt 0.991415 0.393909
vt 0.989294 0.558676
vt 0.989294 0.558676
vt 0.989294 0.558676
vt 0.989294 0.558676
vt 0.989294 0.558676
vt 0.989294 0.558676
vt 0.989294 0.558676
vt 0.989294 0.558676
vt 0.989294 0.558676
vt 0.989294 0.558676
vt 0.989294 0.558676
vt 0.559185 0.788649
vt 0.559185 0.788649
vt 0.559185 0.788649
vt 0.559185 0.788649
vt 0.559185 0.788649
vt 0.559185 0.788649
vt 0.559185 0.788649
vt 0.559185 0.788649
vt 0.559185 0.788649
vt 0.559185 0.788649
vt 0.559185 0.788649
vt 0.559185 0.788649
vt 0.559185 0.788649
vt 0.559185 0.788649
vt 0.559185 0.788649
vt 0.559185 0.788649
vt 0.559185 0.788649
vt 0.559185 0.788649
vt 0.559185 0.788649
vt 0.559185 0.788649
vt 0.559185 0.788649
vt 0.991415 0.393909
vt 0.991415 0.393909
vt 0.991415 0.393909
vt 0.991415 0.393909
vt 0.991415 0.393909
vt 0.991415 0.393909
vt 0.991415 0.393909
vt 0.991415 0.393909
vt 0.991415 0.393909
vt 0.991415 0.393909
vt 0.991415 0.393909
vt 0.989294 0.558676
vt 0.989294 0.558676
vt 0.989294 0.558676
vt 0.989294 0.558676
vt 0.989294 0.558676
vt 0.989294 0.558676
vt 0.989294 0.558676
vt 0.989294 0.558676
vt 0.989294 0.558676
vt 0.989294 0.558676
vt 0.559185 0.788649
vt 0.559185 0.788649
vt 0.559185 0.788649
vt 0.559185 0.788649
vt 0.559185 0.788649
vt 0.559185 0.788649
vt 0.559185 0.788649
vt 0.559185 0.788649
vt 0.559185 0.788649
vt 0.559185 0.788649
vn -0.326525 -0.021553 -0.944943
vn -0.326525 -0.021553 -0.944943
vn -0.326525 -0.021553 -0.944943
vn -0.325639 -0.021617 -0.945247
vn -0.325639 -0.021617 -0.945247
vn -0.325639 -0.021617 -0.945247
vn -0.819166 -0.010683 -0.573457
vn -0.819166 -0.010683 -0.573457
vn -0.819166 -0.010683 -0.573457
vn -0.819172 -0.010682 -0.573449
vn -0.819172 -0.010682 -0.573449
vn -0.819172 -0.010682 -0.573449
vn -0.999817 0.004291 0.018626
vn -0.999817 0.004291 0.018626
vn -0.999817 0.004291 0.018626
vn -0.999840 0.004333 0.017329
vn -0.999840 0.004333 0.017329
vn -0.999840 0.004333 0.017329
vn -0.799796 0.017554 0.600015
vn -0.799796 0.017554 0.600015
vn -0.799796 0.017554 0.600015
vn -0.804356 0.016992 0.593904
vn -0.804356 0.016992 0.593904
vn -0.804356 0.016992 0.593904
vn -0.290718 0.024201 0.956503
vn -0.290718 0.024201 0.956503
vn -0.290718 0.024201 0.956503
vn -0.277672 0.023475 0.960389
vn -0.277672 0.023475 0.960389
vn -0.277672 0.023475 0.960389
vn 0.324674 0.021573 0.945580
vn 0.324674 0.021573 0.945580
vn 0.324674 0.021573 0.945580
vn 0.325604 0.021617 0.945259
vn 0.325604 0.021617 0.945259
vn 0.325604 0.021617 0.945259
vn 0.819051 0.010697 0.573621
vn 0.819051 0.010697 0.573621
vn 0.819051 0.010697 0.573621
vn 0.819176 0.010680 0.573443
vn 0.819176 0.010680 0.573443
vn 0.819176 0.010680 0.573443
vn 0.999840 -0.004261 -0.017348
vn 0.999840 -0.004261 -0.017348
vn 0.999840 -0.004261 -0.017348
vn 0.999840 -0.004261 -0.017349
vn 0.999840 -0.004261 -0.017349
vn 0.999840 -0.004261 -0.017349
vn 0.798680 -0.017586 -0.601499
vn 0.798680 -0.017586 -0.601499
vn 0.798680 -0.017586 -0.601499
vn 0.798675 -0.017586 -0.601505
vn 0.798675 -0.017586 -0.601505
vn 0.798675 -0.017586 -0.601505
vn 0.292412 -0.024197 -0.955986
vn 0.292412 -0.024197 -0.955986
vn 0.292412 -0.024197 -0.955986
vn 0.292412 -0.024197 -0.955986
vn 0.292412 -0.024197 -0.955986
vn 0.292412 -0.024197 -0.955986
vn 0.095787 -0.952978 -0.287504
vn 0.095787 -0.952978 -0.287504
vn 0.095787 -0.952978 -0.287504
vn -0.172515 -0.980650 -0.092542
vn -0.172515 -0.980650 -0.092542
vn -0.172515 -0.980650 -0.092542
vn -0.210330 -0.977112 0.031844
vn -0.210330 -0.977112 0.031844
vn -0.210330 -0.977112 0.031844
vn -0.167815 -0.973624 0.154582
vn -0.167815 -0.973624 0.154582
vn -0.167815 -0.973624 0.154582
vn 0.104071 -0.936277 0.335491
vn 0.104071 -0.936277 0.335491
vn 0.104071 -0.936277 0.335491
vn 0.106152 -0.936083 0.335381
vn 0.106152 -0.936083 0.335381
vn 0.106152 -0.936083 0.335381
vn 0.107854 -0.936312 0.334198
vn 0.107854 -0.936312 0.334198
vn 0.107854 -0.936311 0.334198
vn 0.210345 -0.977320 0.024500
vn 0.210345 -0.977320 0.024500
vn 0.210345 -0.977320 0.024500
vn 0.168202 -0.980819 -0.098496
vn 0.168202 -0.980819 -0.098496
vn 0.168202 -0.980819 -0.098496
vn -0.106698 -0.952883 -0.283955
vn -0.106698 -0.952883 -0.283955
vn -0.106698 -0.952883 -0.283955
vn -0.273895 0.931803 -0.238170
vn -0.273895 0.931803 -0.238170
vn -0.273895 0.931803 -0.238170
vn -0.204196 0.933999 -0.293172
vn -0.204196 0.933999 -0.293172
vn -0.204196 0.933999 -0.293172
vn -0.340307 0.922552 0.181904
vn -0.340307 0.922552 0.181904
vn -0.340307 0.922552 0.181904
vn -0.401128 0.915862 0.017107
vn -0.401128 0.915862 0.017107
vn -0.401128 0.915862 0.017107
vn 0.005592 0.949072 0.315011
vn 0.005592 0.949072 0.315011
vn 0.005592 0.949072 0.315011
vn 0.004765 0.949071 0.315025
vn 0.004765 0.949071 0.315025
vn 0.004765 0.949071 0.315025
vn 0.344661 0.937101 0.055236
vn 0.344661 0.937101 0.055236
vn 0.344661 0.937101 0.055236
vn 0.367041 0.929926 -0.022752
vn 0.367041 0.929926 -0.022752
vn 0.367041 0.929926 -0.022752
vn 0.338569 0.932836 -0.123237
vn 0.338569 0.932836 -0.123237
vn 0.338569 0.932836 -0.123237
vn 0.165738 0.952956 -0.253783
vn 0.165738 0.952956 -0.253783
vn 0.165738 0.952956 -0.253783
vn -0.227168 0.341612 -0.911973
vn -0.227168 0.341613 -0.911973
vn -0.227168 0.341612 -0.911973
vn -0.301344 0.442402 -0.844673
vn -0.301344 0.442402 -0.844673
vn -0.301344 0.442402 -0.844673
vn -0.806229 0.349964 -0.476991
vn -0.806229 0.349964 -0.476991
vn -0.806229 0.349964 -0.476991
vn -0.738128 0.435131 -0.515585
vn -0.738128 0.435131 -0.515585
vn -0.738128 0.435131 -0.515584
vn -0.973219 0.195965 0.120174
vn -0.973219 0.195965 0.120174
vn -0.973219 0.195965 0.120174
vn -0.935538 0.353184 0.005505
vn -0.935538 0.353184 0.005505
vn -0.935538 0.353184 0.005505
vn -0.808634 0.186627 0.557927
vn -0.808634 0.186627 0.557927
vn -0.808634 0.186627 0.557927
vn -0.733872 0.270927 0.622921
vn -0.733872 0.270927 0.622921
vn -0.733872 0.270927 0.622921
vn -0.364139 0.282590 0.887438
vn -0.364139 0.282590 0.887438
vn -0.364139 0.282590 0.887438
vn -0.305303 0.340147 0.889432
vn -0.305303 0.340147 0.889432
vn -0.305303 0.340147 0.889432
vn 0.389804 0.286324 0.875255
vn 0.389804 0.286324 0.875255
vn 0.389804 0.286324 0.875255
vn 0.336565 0.338228 0.878820
vn 0.336565 0.338228 0.878820
vn 0.336565 0.338228 0.878820
vn 0.737260 0.281119 0.614345
vn 0.737260 0.281119 0.614345
vn 0.737260 0.281119 0.614345
vn 0.776339 0.396815 0.489731
vn 0.776338 0.396815 0.489731
vn 0.776338 0.396815 0.489731
vn 0.918081 0.393524 0.047615
vn 0.918081 0.393524 0.047615
vn 0.918081 0.393524 0.047615
vn 0.898499 0.438698 0.015625
vn 0.898499 0.438698 0.015625
vn 0.898499 0.438698 0.015625
vn 0.677620 0.246025 -0.693039
vn 0.677620 0.246025 -0.693039
vn 0.677620 0.246025 -0.693039
vn 0.722341 0.487077 -0.490897
vn 0.722341 0.487077 -0.490897
vn 0.722341 0.487077 -0.490897
vn 0.369806 0.242029 -0.897031
vn 0.369806 0.242029 -0.897031
vn 0.369806 0.242029 -0.897031
vn 0.264233 0.342435 -0.901620
vn 0.264233 0.342435 -0.901620
vn 0.264233 0.342435 -0.901620
vn -0.277564 -0.000522 0.960707
vn -0.277564 -0.000522 0.960707
vn -0.277564 -0.000522 0.960707
vn -0.264059 0.000425 0.964507
vn -0.264059 0.000425 0.964507
vn -0.264059 0.000425 0.964507
vn -0.804193 -0.003015 0.594360
vn -0.804193 -0.003015 0.594360
vn -0.804193 -0.003015 0.594360
vn -0.804907 -0.003097 0.593392
vn -0.804908 -0.003097 0.593392
vn -0.804907 -0.003097 0.593392
vn -0.999836 -0.004409 0.017581
vn -0.999836 -0.004409 0.017581
vn -0.999836 -0.004409 0.017581
vn -0.999881 -0.004238 0.014856
vn -0.999881 -0.004238 0.014856
vn -0.999881 -0.004238 0.014856
vn -0.819125 -0.004412 -0.573598
vn -0.819125 -0.004412 -0.573598
vn -0.819125 -0.004412 -0.573598
vn -0.820035 -0.004512 -0.572295
vn -0.820035 -0.004512 -0.572295
vn -0.820035 -0.004512 -0.572295
vn -0.325548 -0.002908 -0.945521
vn -0.325548 -0.002908 -0.945521
vn -0.325548 -0.002908 -0.945521
vn -0.322077 -0.003121 -0.946708
vn -0.322077 -0.003121 -0.946708
vn -0.322077 -0.003121 -0.946708
vn 0.292301 0.000169 -0.956326
vn 0.292301 0.000169 -0.956326
vn 0.292301 0.000169 -0.956326
vn 0.299286 -0.000259 -0.954163
vn 0.299286 -0.000259 -0.954163
vn 0.299286 -0.000259 -0.954163
vn 0.798513 0.002790 -0.601971
vn 0.798513 0.002790 -0.601971
vn 0.798513 0.002790 -0.601971
vn 0.793307 0.002216 -0.608817
vn 0.793307 0.002216 -0.608817
vn 0.793308 0.002216 -0.608817
vn 0.999836 0.004234 -0.017593
vn 0.999836 0.004234 -0.017593
vn 0.999836 0.004234 -0.017593
vn 0.999853 0.004176 -0.016626
vn 0.999853 0.004176 -0.016626
vn 0.999853 0.004176 -0.016626
vn 0.819128 0.004265 0.573594
vn 0.819128 0.004265 0.573594
vn 0.819128 0.004265 0.573594
vn 0.820479 0.004417 0.571659
vn 0.820480 0.004417 0.571659
vn 0.820480 0.004417 0.571659
vn 0.325510 0.002565 0.945535
vn 0.325510 0.002565 0.945535
vn 0.325510 0.002565 0.945535
vn 0.320332 0.002889 0.947301
vn 0.320332 0.002889 0.947301
vn 0.320332 0.002889 0.947301
vn -0.380829 -0.215887 -0.899090
vn -0.380829 -0.215887 -0.899090
vn -0.380829 -0.215887 -0.899090
vn -0.197702 -0.475894 -0.856994
vn -0.197702 -0.475894 -0.856994
vn -0.197702 -0.475894 -0.856994
vn -0.804368 -0.205461 -0.557474
vn -0.804368 -0.205461 -0.557474
vn -0.804368 -0.205461 -0.557474
vn -0.804412 -0.205396 -0.557435
vn -0.804412 -0.205396 -0.557435
vn -0.804412 -0.205396 -0.557435
vn -0.979116 -0.198802 -0.042548
vn -0.979116 -0.198802 -0.042548
vn -0.979116 -0.198802 -0.042548
vn -0.951625 -0.306210 0.025413
vn -0.951625 -0.306210 0.025413
vn -0.951625 -0.306210 0.025413
vn -0.741115 -0.185962 0.645110
vn -0.741115 -0.185962 0.645110
vn -0.741115 -0.185962 0.645110
vn -0.758915 -0.294870 0.580603
vn -0.758915 -0.294870 0.580603
vn -0.758915 -0.294870 0.580603
vn -0.347348 -0.180467 0.920207
vn -0.347348 -0.180467 0.920207
vn -0.347348 -0.180467 0.920207
vn -0.178150 -0.423210 0.888344
vn -0.178150 -0.423210 0.888344
vn -0.178150 -0.423210 0.888344
vn 0.389496 -0.227696 0.892439
vn 0.389496 -0.227696 0.892439
vn 0.389496 -0.227696 0.892439
vn 0.292493 -0.414643 0.861695
vn 0.292493 -0.414643 0.861695
vn 0.292493 -0.414643 0.861695
vn 0.743800 -0.234397 0.625955
vn 0.743800 -0.234397 0.625955
vn 0.743800 -0.234397 0.625955
vn 0.745013 -0.288380 0.601491
vn 0.745013 -0.288380 0.601491
vn 0.745014 -0.288380 0.601491
vn 0.951710 -0.306900 -0.007780
vn 0.951710 -0.306900 -0.007780
vn 0.951710 -0.306900 -0.007780
vn 0.951700 -0.306931 -0.007798
vn 0.951700 -0.306931 -0.007798
vn 0.951700 -0.306931 -0.007798
vn 0.761406 -0.318336 -0.564732
vn 0.761407 -0.318336 -0.564732
vn 0.761407 -0.318336 -0.564732
vn 0.761404 -0.318339 -0.564734
vn 0.761404 -0.318339 -0.564734
vn 0.761404 -0.318339 -0.564734
vn 0.262488 -0.465250 -0.845365
vn 0.262488 -0.465250 -0.845365
vn 0.262488 -0.465250 -0.845365
vn 0.217218 -0.318857 -0.922576
vn 0.217218 -0.318857 -0.922576
vn 0.217218 -0.318857 -0.922576
vn -0.389408 -0.434299 -0.812248
vn -0.389408 -0.434299 -0.812248
vn -0.389408 -0.434299 -0.812247
vn -0.386419 -0.447347 -0.806574
vn -0.386419 -0.447347 -0.806574
vn -0.386419 -0.447347 -0.806574
vn -0.680489 -0.437329 -0.587943
vn -0.680489 -0.437329 -0.587943
vn -0.680489 -0.437329 -0.587943
vn -0.677682 -0.445706 -0.584888
vn -0.677682 -0.445706 -0.584888
vn -0.677682 -0.445706 -0.584888
vn -0.869088 -0.436896 -0.231967
vn -0.869088 -0.436896 -0.231967
vn -0.869088 -0.436896 -0.231967
vn -0.842777 -0.480708 -0.242171
vn -0.842777 -0.480708 -0.242172
vn -0.842777 -0.480708 -0.242172
vn -0.647625 -0.488177 0.585035
vn -0.647625 -0.488177 0.585035
vn -0.647625 -0.488177 0.585035
vn -0.643007 -0.500847 0.579392
vn -0.643007 -0.500847 0.579392
vn -0.643007 -0.500847 0.579392
vn -0.040718 -0.435428 0.899302
vn -0.040718 -0.435428 0.899302
vn -0.040718 -0.435428 0.899302
vn -0.029542 -0.478819 0.877416
vn -0.029542 -0.478819 0.877416
vn -0.029542 -0.478819 0.877416
vn 0.131297 -0.442381 0.887164
vn 0.131297 -0.442381 0.887164
vn 0.131298 -0.442381 0.887164
vn 0.124840 -0.476345 0.870351
vn 0.124840 -0.476345 0.870351
vn 0.124840 -0.476345 0.870351
vn 0.806294 -0.451463 0.382192
vn 0.806294 -0.451463 0.382192
vn 0.806294 -0.451463 0.382192
vn 0.800522 -0.464795 0.378326
vn 0.800522 -0.464795 0.378326
vn 0.800522 -0.464795 0.378326
vn 0.899436 -0.426702 -0.094551
vn 0.899436 -0.426702 -0.094551
vn 0.899436 -0.426702 -0.094551
vn 0.892904 -0.440644 -0.092492
vn 0.892904 -0.440644 -0.092492
vn 0.892904 -0.440644 -0.092492
vn 0.851467 -0.421083 -0.312561
vn 0.851467 -0.421083 -0.312561
vn 0.851467 -0.421083 -0.312561
vn 0.841795 -0.452641 -0.294104
vn 0.841795 -0.452641 -0.294104
vn 0.841795 -0.452641 -0.294104
vn 0.093426 -0.455393 -0.885375
vn 0.093426 -0.455393 -0.885375
vn 0.093426 -0.455393 -0.885375
vn 0.088322 -0.479761 -0.872942
vn 0.088322 -0.479761 -0.872942
vn 0.088322 -0.479761 -0.872942
s off
f 1/1/1 2/2/2 26/4/3
f 26/4/4 2/2/5 25/3/6
f 2/2/7 3/5/8 25/3/9
f 25/3/10 3/5/11 24/6/12
f 4/7/13 23/8/14 3/5/15
f 3/5/16 23/8/17 24/6/18
f 4/7/19 5/9/20 23/8/21
f 23/8/22 5/9/23 22/10/24
f 6/11/25 21/12/26 5/9/27
f 5/9/28 21/12/29 22/10/30
f 6/11/31 7/13/32 21/12/33
f 21/12/34 7/13/35 30/14/36
f 8/15/37 29/16/38 7/13/39
f 7/13/40 29/16/41 30/14/42
f 9/17/43 28/18/44 8/15/45
f 8/15/46 28/18/47 29/16/48
f 10/19/49 27/20/50 9/17/51
f 9/17/52 27/20/53 28/18/54
f 1/21/55 26/22/56 10/19/57
f 10/19/58 26/22/59 27/20/60
f 32/23/61 31/24/62 33/25/63
f 34/26/64 32/23/65 33/25/66
f 35/27/67 34/26/68 33/25/69
f 36/28/70 35/27/71 33/25/72
f 37/29/73 36/28/74 33/25/75
f 38/30/76 37/29/77 33/25/78
f 39/31/79 38/30/80 33/25/81
f 40/32/82 39/31/83 33/25/84
f 41/33/85 40/32/86 33/25/87
f 31/24/88 41/33/89 33/25/90
f 42/34/91 43/35/92 44/36/93
f 43/35/94 45/37/95 44/36/96
f 45/37/97 46/38/98 44/36/99
f 46/38/100 47/39/101 44/36/102
f 47/39/103 48/40/104 44/36/105
f 48/40/106 49/41/107 44/36/108
f 49/41/109 50/42/110 44/36/111
f 50/42/112 51/43/113 44/36/114
f 51/43/115 52/44/116 44/36/117
f 52/44/118 42/34/119 44/36/120
f 53/45/121 54/46/122 42/34/123
f 42/34/124 54/46/125 43/35/126
f 55/47/127 45/37/128 54/46/129
f 54/46/130 45/37/131 43/35/132
f 56/48/133 46/38/134 55/47/135
f 55/47/136 46/38/137 45/37/138
f 56/48/139 57/49/140 46/38/141
f 46/38/142 57/49/143 47/39/144
f 57/49/145 58/50/146 47/39/147
f 47/39/148 58/50/149 48/40/150
f 59/51/151 49/41/152 58/50/153
f 58/50/154 49/41/155 48/40/156
f 59/51/157 60/52/158 49/41/159
f 49/41/160 60/52/161 50/42/162
f 60/52/163 61/53/164 50/42/165
f 50/42/166 61/53/167 51/43/168
f 62/54/169 52/44/170 61/53/171
f 61/53/172 52/44/173 51/43/174
f 62/54/175 53/45/176 52/44/177
f 52/44/178 53/45/179 42/34/180
f 22/10/181 21/12/182 15/56/183
f 15/56/184 21/12/185 16/55/186
f 23/8/187 22/10/188 14/57/189
f 14/57/190 22/10/191 15/56/192
f 23/8/193 14/57/194 24/6/195
f 24/6/196 14/57/197 13/58/198
f 24/6/199 13/58/200 25/3/201
f 25/3/202 13/58/203 12/59/204
f 26/4/205 25/3/206 11/60/207
f 11/60/208 25/3/209 12/59/210
f 27/20/211 26/22/212 20/62/213
f 20/62/214 26/22/215 11/61/216
f 27/20/217 20/62/218 28/18/219
f 28/18/220 20/62/221 19/63/222
f 29/16/223 28/18/224 18/64/225
f 18/64/226 28/18/227 19/63/228
f 30/14/229 29/16/230 17/65/231
f 17/65/232 29/16/233 18/64/234
f 30/14/235 17/65/236 21/12/237
f 21/12/238 17/65/239 16/55/240
f 2/66/241 1/67/242 32/23/243
f 32/23/244 1/67/245 31/24/246
f 3/68/247 2/66/248 34/26/249
f 34/26/250 2/66/251 32/23/252
f 3/68/253 34/26/254 4/69/255
f 4/69/256 34/26/257 35/27/258
f 5/70/259 4/69/260 36/28/261
f 36/28/262 4/69/263 35/27/264
f 5/70/265 36/28/266 6/71/267
f 6/71/268 36/28/269 37/29/270
f 7/72/271 6/71/272 38/30/273
f 38/30/274 6/71/275 37/29/276
f 7/72/277 38/30/278 8/73/279
f 8/73/280 38/30/281 39/31/282
f 8/73/283 39/31/284 9/74/285
f 9/74/286 39/31/287 40/32/288
f 9/74/289 40/32/290 10/75/291
f 10/75/292 40/32/293 41/33/294
f 1/67/295 10/75/296 31/24/297
f 31/24/298 10/75/299 41/33/300
f 11/76/301 12/77/302 53/45/303
f 53/45/304 12/77/305 54/46/306
f 13/78/307 55/47/308 12/77/309
f 12/77/310 55/47/311 54/46/312
f 14/79/313 56/48/314 13/78/315
f 13/78/316 56/48/317 55/47/318
f 14/79/319 15/80/320 56/48/321
f 56/48/322 15/80/323 57/49/324
f 15/80/325 16/81/326 57/49/327
f 57/49/328 16/81/329 58/50/330
f 17/82/331 59/51/332 16/81/333
f 16/81/334 59/51/335 58/50/336
f 17/82/337 18/83/338 59/51/339
f 59/51/340 18/83/341 60/52/342
f 18/83/343 19/84/344 60/52/345
f 60/52/346 19/84/347 61/53/348
f 20/85/349 62/54/350 19/84/351
f 19/84/352 62/54/353 61/53/354
f 20/85/355 11/76/356 62/54/357
f 62/54/358 11/76/359 53/45/360
