# This file uses centimeters as units for non-parametric coordinates.

v 1.428154 -117.824684 -5.913465
v -6.018620 -117.824684 -3.494152
v -6.018620 -117.824684 4.335786
v 1.428154 -117.824684 6.755911
v 6.030681 -117.824684 0.421224
v 1.777573 91.814438 -8.019742
v -4.933773 87.497261 -5.714667
v -6.018620 94.361694 2.550674
v 1.357415 84.888367 4.728096
v 6.030681 94.361694 -1.364702
v -0.630152 -117.824684 0.421224
v 0.444432 16.276814 4.969986
v -7.002547 16.276814 2.550674
v -7.002547 16.276814 -5.279670
v 0.444432 16.276814 -7.699389
v 5.046958 16.276814 -1.364702
v 5.347289 -23.926159 -1.090694
v 0.744762 -23.926159 5.243993
v -6.702013 -23.926159 2.824275
v -6.702013 -23.926159 -5.006070
v 0.744762 -23.926159 -7.425789
v 7.002817 -47.841473 1.685153
v 2.400391 -47.841473 8.019840
v -5.046587 -47.841473 5.600528
v -5.046587 -47.841473 -2.229816
v 2.400391 -47.841473 -4.649535
v 1.345423 100.688484 -7.146090
v -5.435747 100.652138 -4.944683
v -0.517745 120.639206 0.181366
v -5.447130 100.630463 2.207149
v 1.367986 100.620308 4.424818
v 5.562450 100.664642 -1.357790
v 1.911223 94.119247 -8.480350
v -5.345190 89.761642 -6.031361
v -6.392637 96.618202 2.814517
v 1.520234 87.149071 5.221634
v 6.505518 96.654884 -1.345188
vt 0.988391 0.407758
vt 0.988391 0.407758
vt 0.988391 0.407758
vt 0.988391 0.407758
vt 0.988391 0.407758
vt 0.988391 0.407758
vt 0.988391 0.407758
vt 0.988391 0.407758
vt 0.988391 0.407758
vt 0.988391 0.407758
vt 0.988391 0.407758
vt 0.988391 0.407758
vt 0.988391 0.407758
vt 0.988391 0.407758
vt 0.988391 0.407758
vt 0.988391 0.407758
vt 0.988391 0.407758
vt 0.567755 0.786617
vt 0.567755 0.786617
vt 0.567755 0.786617
vt 0.567755 0.786617
vt 0.567755 0.786617
vt 0.988391 0.407758
vt 0.567755 0.786617
vt 0.567755 0.786617
vt 0.567755 0.786617
vt 0.567755 0.786617
vt 0.567755 0.786617
vt 0.567755 0.786617
vt 0.988391 0.407758
vt 0.988391 0.407758
vt 0.988391 0.407758
vt 0.988391 0.407758
vt 0.988391 0.407758
vt 0.988391 0.407758
vt 0.988391 0.407758
vt 0.988391 0.407758
vt 0.988391 0.407758
vt 0.988391 0.407758
vt 0.988391 0.407758
vt 0.988391 0.407758
vt 0.988391 0.407758
vt 0.988391 0.407758
vt 0.988391 0.407758
vt 0.988391 0.407758
vt 0.988391 0.407758
vt 0.988391 0.407758
vt 0.567755 0.786617
vt 0.567755 0.786617
vt 0.567755 0.786617
vt 0.567755 0.786617
vt 0.567755 0.786617
vn -0.308912 0.021469 -0.950848
vn -0.308912 0.021469 -0.950848
vn -0.308912 0.021469 -0.950848
vn -0.308951 0.021465 -0.950836
vn -0.308951 0.021465 -0.950836
vn -0.308951 0.021465 -0.950836
vn -0.999904 0.013888 0.000000
vn -0.999904 0.013888 0.000000
vn -0.999904 0.013888 0.000000
vn -0.999904 0.013888 0.000000
vn -0.999904 0.013888 0.000000
vn -0.999904 0.013888 0.000000
vn -0.309052 -0.012893 0.950958
vn -0.309052 -0.012893 0.950958
vn -0.309052 -0.012893 0.950958
vn -0.308950 -0.012883 0.950991
vn -0.308950 -0.012883 0.950991
vn -0.308950 -0.012883 0.950991
vn 0.808817 -0.021849 0.587654
vn 0.808817 -0.021849 0.587654
vn 0.808817 -0.021849 0.587654
vn 0.808823 -0.021850 0.587646
vn 0.808823 -0.021850 0.587645
vn 0.808823 -0.021850 0.587645
vn 0.809010 -0.000623 -0.587794
vn 0.809010 -0.000623 -0.587794
vn 0.809010 -0.000623 -0.587794
vn 0.809017 -0.000622 -0.587786
vn 0.809017 -0.000622 -0.587786
vn 0.809017 -0.000622 -0.587786
vn 0.000000 -1.000000 0.000000
vn 0.000000 -1.000000 0.000000
vn 0.000000 -1.000000 0.000000
vn 0.000000 -1.000000 0.000000
vn 0.000000 -1.000000 0.000000
vn 0.000000 -1.000000 0.000000
vn 0.000000 -1.000000 0.000000
vn 0.000000 -1.000000 0.000000
vn 0.000000 -1.000000 0.000000
vn 0.000000 -1.000000 0.000000
vn 0.000000 -1.000000 0.000000
vn 0.000000 -1.000000 0.000000
vn 0.000000 -1.000000 0.000000
vn 0.000000 -1.000000 0.000000
vn 0.000000 -1.000000 0.000000
vn -0.295546 0.304918 -0.905361
vn -0.295546 0.304918 -0.905360
vn -0.295546 0.304918 -0.905360
vn -0.970987 0.239131 -0.000820
vn -0.970987 0.239131 -0.000820
vn -0.970987 0.239131 -0.000820
vn -0.304703 0.169950 0.937162
vn -0.304703 0.169950 0.937162
vn -0.304703 0.169950 0.937162
vn 0.792904 0.196923 0.576650
vn 0.792904 0.196923 0.576650
vn 0.792904 0.196923 0.576650
vn 0.776497 0.279866 -0.564560
vn 0.776497 0.279866 -0.564560
vn 0.776497 0.279866 -0.564559
vn -0.366260 0.089374 -0.926211
vn -0.366260 0.089374 -0.926211
vn -0.366260 0.089374 -0.926211
vn -0.305378 0.164206 -0.937966
vn -0.305378 0.164206 -0.937966
vn -0.305378 0.164206 -0.937966
vn -0.992710 0.003766 -0.120466
vn -0.992710 0.003766 -0.120466
vn -0.992710 0.003766 -0.120466
vn -0.973367 0.229249 -0.000854
vn -0.973368 0.229249 -0.000854
vn -0.973367 0.229249 -0.000854
vn -0.229915 0.054875 0.971662
vn -0.229915 0.054875 0.971662
vn -0.229915 0.054875 0.971662
vn -0.302123 0.211891 0.929421
vn -0.302123 0.211891 0.929421
vn -0.302123 0.211891 0.929421
vn 0.761802 0.046827 0.646116
vn 0.761801 0.046827 0.646116
vn 0.761802 0.046827 0.646116
vn 0.794255 0.188619 0.577566
vn 0.794255 0.188619 0.577566
vn 0.794255 0.188619 0.577566
vn 0.794766 0.185803 -0.577775
vn 0.794766 0.185803 -0.577775
vn 0.794766 0.185803 -0.577775
vn 0.794647 0.185079 -0.578171
vn 0.794647 0.185079 -0.578171
vn 0.794647 0.185079 -0.578171
vn -0.308967 0.007464 0.951043
vn -0.308967 0.007464 0.951043
vn -0.308967 0.007464 0.951043
vn -0.278966 0.003515 0.960294
vn -0.278966 0.003515 0.960294
vn -0.278966 0.003515 0.960294
vn -0.999578 0.029035 0.000000
vn -0.999578 0.029035 0.000000
vn -0.999578 0.029035 0.000000
vn -0.990030 0.012475 -0.140305
vn -0.990030 0.012475 -0.140305
vn -0.990030 0.012475 -0.140305
vn -0.309021 0.003168 -0.951050
vn -0.309021 0.003168 -0.951050
vn -0.309021 0.003168 -0.951050
vn -0.325835 0.001741 -0.945425
vn -0.325835 0.001741 -0.945425
vn -0.325835 0.001741 -0.945425
vn 0.808897 -0.016768 -0.587712
vn 0.808897 -0.016768 -0.587712
vn 0.808897 -0.016768 -0.587712
vn 0.844418 -0.010638 -0.535579
vn 0.844418 -0.010638 -0.535579
vn 0.844418 -0.010638 -0.535579
vn 0.808980 -0.008693 0.587772
vn 0.808980 -0.008693 0.587772
vn 0.808980 -0.008693 0.587772
vn 0.800947 -0.010090 0.598650
vn 0.800948 -0.010090 0.598650
vn 0.800947 -0.010090 0.598650
vn 0.808970 0.010049 0.587765
vn 0.808970 0.010049 0.587765
vn 0.808970 0.010049 0.587765
vn 0.808970 0.010049 0.587765
vn 0.808970 0.010049 0.587765
vn 0.808970 0.010049 0.587765
vn -0.309028 0.004173 0.951044
vn -0.309028 0.004173 0.951044
vn -0.309028 0.004173 0.951044
vn -0.308973 0.004163 0.951062
vn -0.308973 0.004163 0.951062
vn -0.308973 0.004163 0.951062
vn -0.999972 -0.007475 0.000000
vn -0.999972 -0.007475 0.000000
vn -0.999972 -0.007475 0.000000
vn -0.999972 -0.007475 0.000000
vn -0.999972 -0.007475 0.000000
vn -0.999972 -0.007475 0.000000
vn -0.309018 -0.008781 -0.951016
vn -0.309018 -0.008781 -0.951016
vn -0.309018 -0.008781 -0.951016
vn -0.309011 -0.008782 -0.951018
vn -0.309011 -0.008782 -0.951018
vn -0.309011 -0.008782 -0.951018
vn 0.809027 0.002038 -0.587768
vn 0.809027 0.002038 -0.587768
vn 0.809027 0.002038 -0.587768
vn 0.809009 0.002043 -0.587793
vn 0.809009 0.002043 -0.587793
vn 0.809009 0.002043 -0.587793
vn 0.802845 0.123284 0.583302
vn 0.802845 0.123284 0.583302
vn 0.802845 0.123284 0.583302
vn 0.802839 0.123281 0.583311
vn 0.802839 0.123281 0.583310
vn 0.802839 0.123281 0.583310
vn -0.307759 0.088650 0.947326
vn -0.307759 0.088650 0.947326
vn -0.307759 0.088650 0.947325
vn -0.307813 0.088663 0.947307
vn -0.307813 0.088663 0.947307
vn -0.307813 0.088663 0.947307
vn -0.997613 -0.069055 0.000000
vn -0.997613 -0.069055 0.000000
vn -0.997613 -0.069055 0.000000
vn -0.997613 -0.069055 0.000000
vn -0.997613 -0.069055 0.000000
vn -0.997613 -0.069055 0.000000
vn -0.306373 -0.130668 -0.942901
vn -0.306373 -0.130668 -0.942901
vn -0.306373 -0.130668 -0.942901
vn -0.306381 -0.130666 -0.942898
vn -0.306381 -0.130666 -0.942898
vn -0.306381 -0.130666 -0.942898
vn 0.808956 -0.012219 -0.587742
vn 0.808956 -0.012219 -0.587742
vn 0.808956 -0.012219 -0.587742
vn 0.808968 -0.012223 -0.587726
vn 0.808968 -0.012223 -0.587726
vn 0.808968 -0.012223 -0.587726
vn -0.217963 -0.173913 -0.960337
vn -0.217963 -0.173913 -0.960337
vn -0.217963 -0.173913 -0.960337
vn -0.216258 -0.179261 -0.959738
vn -0.216258 -0.179261 -0.959738
vn -0.216258 -0.179261 -0.959738
vn -0.984168 -0.176391 0.017320
vn -0.984168 -0.176391 0.017320
vn -0.984168 -0.176391 0.017320
vn -0.986275 -0.164752 0.010915
vn -0.986275 -0.164752 0.010915
vn -0.986275 -0.164752 0.010915
vn -0.460297 -0.157581 0.873667
vn -0.460297 -0.157581 0.873667
vn -0.460297 -0.157581 0.873667
vn -0.476726 -0.179631 0.860503
vn -0.476726 -0.179631 0.860503
vn -0.476726 -0.179631 0.860503
vn 0.886967 -0.158575 0.433755
vn 0.886967 -0.158575 0.433755
vn 0.886967 -0.158575 0.433755
vn 0.894264 -0.188624 0.405848
vn 0.894264 -0.188624 0.405848
vn 0.894264 -0.188624 0.405848
vn 0.858078 -0.148027 -0.491722
vn 0.858078 -0.148027 -0.491722
vn 0.858078 -0.148027 -0.491722
vn 0.854945 -0.172867 -0.489067
vn 0.854945 -0.172867 -0.489067
vn 0.854945 -0.172867 -0.489067
s off
f 2/7/1 25/45/2 1/6/3
f 1/6/4 25/45/5 26/47/6
f 2/7/7 3/8/8 25/45/9
f 25/45/10 3/8/11 24/44/12
f 3/8/13 4/9/14 24/44/15
f 24/44/16 4/9/17 23/43/18
f 5/10/19 22/42/20 4/9/21
f 4/9/22 22/42/23 23/43/24
f 1/11/25 26/46/26 5/10/27
f 5/10/28 26/46/29 22/42/30
f 2/2/31 1/1/32 11/23/33
f 3/3/34 2/2/35 11/23/36
f 4/4/37 3/3/38 11/23/39
f 5/5/40 4/4/41 11/23/42
f 1/1/43 5/5/44 11/23/45
f 27/18/46 28/19/47 29/20/48
f 28/19/49 30/21/50 29/20/51
f 30/21/52 31/22/53 29/20/54
f 31/22/55 32/24/56 29/20/57
f 32/24/58 27/18/59 29/20/60
f 34/26/61 28/19/62 33/25/63
f 33/25/64 28/19/65 27/18/66
f 34/26/67 35/27/68 28/19/69
f 28/19/70 35/27/71 30/21/72
f 36/28/73 31/22/74 35/27/75
f 35/27/76 31/22/77 30/21/78
f 36/28/79 37/29/80 31/22/81
f 31/22/82 37/29/83 32/24/84
f 33/25/85 27/18/86 37/29/87
f 37/29/88 27/18/89 32/24/90
f 12/30/91 9/15/92 13/31/93
f 13/31/94 9/15/95 8/14/96
f 14/32/97 13/31/98 7/13/99
f 7/13/100 13/31/101 8/14/102
f 14/32/103 7/13/104 15/34/105
f 15/34/106 7/13/107 6/12/108
f 15/33/109 6/17/110 16/35/111
f 16/35/112 6/17/113 10/16/114
f 12/30/115 16/35/116 9/15/117
f 9/15/118 16/35/119 10/16/120
f 18/37/121 17/36/122 12/30/123
f 12/30/124 17/36/125 16/35/126
f 18/37/127 12/30/128 19/38/129
f 19/38/130 12/30/131 13/31/132
f 19/38/133 13/31/134 20/39/135
f 20/39/136 13/31/137 14/32/138
f 21/41/139 20/39/140 15/34/141
f 15/34/142 20/39/143 14/32/144
f 17/36/145 21/40/146 16/35/147
f 16/35/148 21/40/149 15/33/150
f 23/43/151 22/42/152 18/37/153
f 18/37/154 22/42/155 17/36/156
f 23/43/157 18/37/158 24/44/159
f 24/44/160 18/37/161 19/38/162
f 24/44/163 19/38/164 25/45/165
f 25/45/166 19/38/167 20/39/168
f 26/47/169 25/45/170 21/41/171
f 21/41/172 25/45/173 20/39/174
f 22/42/175 26/46/176 17/36/177
f 17/36/178 26/46/179 21/40/180
f 7/49/181 34/26/182 6/48/183
f 6/48/184 34/26/185 33/25/186
f 7/49/187 8/50/188 34/26/189
f 34/26/190 8/50/191 35/27/192
f 9/51/193 36/28/194 8/50/195
f 8/50/196 36/28/197 35/27/198
f 9/51/199 10/52/200 36/28/201
f 36/28/202 10/52/203 37/29/204
f 6/48/205 33/25/206 10/52/207
f 10/52/208 33/25/209 37/29/210
