# This file uses centimeters as units for non-parametric coordinates.

v -58.906479 -2.696563 32.125019
v 58.906345 -2.696563 32.125019
v 58.906345 -2.696563 -32.124779
v -58.906479 -2.696563 -32.124779
v -59.340065 8.816170 33.100056
v 59.340080 8.816170 33.100056
v 59.340080 8.816170 -33.099815
v -59.340065 8.816170 -33.099815
v -52.594772 -4.350151 28.054356
v -52.594772 -4.350151 -28.054119
v 52.594788 -4.350151 -28.054119
v 52.594788 -4.350151 28.054356
v -52.594772 -10.827722 28.054356
v -52.594772 -10.827722 -28.054119
v 52.594788 -10.827722 -28.054119
v 52.594788 -10.827722 28.054356
v 25.993805 8.816170 -33.099815
v 26.934416 -1.222259 -32.124779
v 23.039181 -4.350151 -28.054119
v 23.039181 -10.827722 -28.054119
v -27.910727 -10.827722 28.054356
v -27.910727 -4.350151 28.054356
v -25.145834 -2.696563 32.125019
v -24.956100 8.816170 33.100056
v -56.504551 10.827720 29.135441
v -27.043362 10.827720 25.873875
v 27.021439 10.827720 -24.323721
v -53.099411 10.827720 -27.862238
v 52.251846 10.827720 26.904224
v 56.504570 10.827720 -29.135580
vt 0.990067 0.399224
vt 0.990067 0.399224
vt 0.990067 0.399224
vt 0.990067 0.399224
vt 0.990067 0.399224
vt 0.990067 0.399224
vt 0.990067 0.399224
vt 0.990067 0.399224
vt 0.990067 0.399224
vt 0.990067 0.399224
vt 0.990067 0.399224
vt 0.990067 0.399224
vt 0.990067 0.399224
vt 0.990067 0.399224
vt 0.990067 0.399224
vt 0.990067 0.399224
vt 0.990067 0.399224
vt 0.990067 0.399224
vt 0.990067 0.399224
vt 0.990067 0.399224
vt 0.990067 0.399224
vt 0.990067 0.399224
vt 0.990067 0.399224
vt 0.990067 0.399224
vt 0.990067 0.399224
vt 0.990067 0.399224
vt 0.990067 0.399224
vt 0.990067 0.399224
vt 0.990067 0.399224
vt 0.990067 0.399224
vt 0.990067 0.399224
vt 0.990067 0.399224
vt 0.990067 0.399224
vt 0.990067 0.399224
vt 0.990067 0.399224
vt 0.990067 0.399224
vn 0.000000 1.000000 -0.000000
vn 0.000000 1.000000 -0.000000
vn 0.000000 1.000000 -0.000000
vn 0.000000 1.000000 0.000000
vn 0.000000 1.000000 0.000000
vn 0.000000 1.000000 0.000000
vn 0.000000 -1.000000 0.000000
vn 0.000000 -1.000000 0.000000
vn 0.000000 -1.000000 0.000000
vn 0.000000 -1.000000 0.000000
vn 0.000000 -1.000000 0.000000
vn 0.000000 -1.000000 0.000000
vn 0.000000 -0.084390 0.996433
vn 0.000000 -0.084390 0.996433
vn 0.000000 -0.084390 0.996433
vn 0.000000 -0.084390 0.996433
vn 0.000000 -0.084390 0.996433
vn 0.000000 -0.084390 0.996433
vn 0.999291 -0.037648 0.000000
vn 0.999291 -0.037648 0.000000
vn 0.999291 -0.037648 0.000000
vn 0.999291 -0.037648 0.000000
vn 0.999291 -0.037648 0.000000
vn 0.999291 -0.037648 0.000000
vn 0.001658 -0.096521 -0.995329
vn 0.001658 -0.096521 -0.995330
vn 0.001658 -0.096521 -0.995330
vn 0.000000 -0.084390 -0.996433
vn 0.000000 -0.084390 -0.996433
vn 0.000000 -0.084390 -0.996433
vn -0.999292 -0.037635 0.000000
vn -0.999292 -0.037635 0.000000
vn -0.999292 -0.037635 0.000000
vn -0.999292 -0.037634 0.000000
vn -0.999292 -0.037634 0.000000
vn -0.999292 -0.037634 0.000000
vn -0.253434 -0.967353 0.000000
vn -0.253434 -0.967353 0.000000
vn -0.253434 -0.967353 0.000000
vn -0.253434 -0.967353 0.000000
vn -0.253434 -0.967353 0.000000
vn -0.253434 -0.967353 0.000000
vn 0.015760 -0.917603 -0.397186
vn 0.015760 -0.917603 -0.397186
vn 0.015760 -0.917603 -0.397186
vn 0.000000 -0.792943 -0.609297
vn 0.000000 -0.792942 -0.609297
vn 0.000000 -0.792943 -0.609296
vn 0.253440 -0.967351 0.000000
vn 0.253440 -0.967351 0.000000
vn 0.253440 -0.967351 0.000000
vn 0.253440 -0.967351 0.000000
vn 0.253440 -0.967351 0.000000
vn 0.253440 -0.967351 0.000000
vn 0.000000 -0.926476 0.376354
vn 0.000000 -0.926476 0.376354
vn 0.000000 -0.926476 0.376354
vn 0.000000 -0.926476 0.376354
vn 0.000000 -0.926476 0.376354
vn 0.000000 -0.926476 0.376354
vn -1.000000 0.000000 0.000000
vn -1.000000 0.000000 0.000000
vn -1.000000 0.000000 0.000000
vn -1.000000 0.000000 0.000000
vn -1.000000 0.000000 0.000000
vn -1.000000 0.000000 0.000000
vn 0.000000 0.000000 -1.000000
vn 0.000000 0.000000 -1.000000
vn 0.000000 0.000000 -1.000000
vn 0.000000 0.000000 -1.000000
vn 0.000000 0.000000 -1.000000
vn 0.000000 0.000000 -1.000000
vn 1.000000 0.000000 0.000000
vn 1.000000 0.000000 0.000000
vn 1.000000 0.000000 0.000000
vn 1.000000 0.000000 0.000000
vn 1.000000 0.000000 0.000000
vn 1.000000 0.000000 0.000000
vn 0.000000 0.000000 1.000000
vn 0.000000 0.000000 1.000000
vn 0.000000 0.000000 1.000000
vn 0.000000 0.000000 1.000000
vn 0.000000 0.000000 1.000000
vn 0.000000 0.000000 1.000000
vn -0.003885 -0.084244 -0.996438
vn -0.003885 -0.084244 -0.996438
vn -0.003885 -0.084244 -0.996438
vn 0.000000 -0.096675 -0.995316
vn 0.000000 -0.096675 -0.995316
vn 0.000000 -0.096675 -0.995316
vn 0.000000 -0.792943 -0.609296
vn 0.000000 -0.792943 -0.609296
vn 0.000000 -0.792943 -0.609296
vn -0.041572 -0.901545 -0.430684
vn -0.041572 -0.901545 -0.430684
vn -0.041572 -0.901545 -0.430685
vn 0.000000 0.000000 -1.000000
vn 0.000000 0.000000 -1.000000
vn 0.000000 0.000000 -1.000000
vn 0.000000 0.000000 -1.000000
vn 0.000000 0.000000 -1.000000
vn 0.000000 0.000000 -1.000000
vn 0.000000 -1.000000 -0.000000
vn 0.000000 -1.000000 -0.000000
vn 0.000000 -1.000000 -0.000000
vn 0.000000 -1.000000 0.000000
vn 0.000000 -1.000000 0.000000
vn 0.000000 -1.000000 0.000000
vn 0.000000 0.000000 1.000000
vn 0.000000 0.000000 1.000000
vn 0.000000 0.000000 1.000000
vn 0.000000 0.000000 1.000000
vn 0.000000 0.000000 1.000000
vn 0.000000 0.000000 1.000000
vn 0.000000 -0.926476 0.376354
vn 0.000000 -0.926476 0.376354
vn 0.000000 -0.926476 0.376354
vn 0.000000 -0.926476 0.376354
vn 0.000000 -0.926476 0.376354
vn 0.000000 -0.926476 0.376354
vn 0.000000 -0.084390 0.996433
vn 0.000000 -0.084390 0.996433
vn 0.000000 -0.084390 0.996433
vn 0.000000 -0.084390 0.996433
vn 0.000000 -0.084390 0.996433
vn 0.000000 -0.084390 0.996433
vn 0.000000 1.000000 -0.000000
vn 0.000000 1.000000 -0.000000
vn 0.000000 1.000000 -0.000000
vn 0.000000 1.000000 0.000000
vn 0.000000 1.000000 0.000000
vn 0.000000 1.000000 0.000000
vn 0.000000 0.891781 0.452468
vn 0.000000 0.891781 0.452468
vn 0.000000 0.891780 0.452468
vn 0.028820 0.965090 0.260327
vn 0.028820 0.965090 0.260327
vn 0.028820 0.965090 0.260327
vn 0.000000 0.933519 -0.358528
vn 0.000000 0.933519 -0.358528
vn 0.000000 0.933519 -0.358528
vn 0.009915 0.974422 -0.224506
vn 0.009915 0.974422 -0.224506
vn 0.009915 0.974422 -0.224506
vn -0.306786 0.951778 0.000000
vn -0.306786 0.951778 0.000000
vn -0.306786 0.951778 0.000000
vn -0.611704 0.790242 -0.036544
vn -0.611704 0.790242 -0.036544
vn -0.611704 0.790242 -0.036544
vn 0.000000 0.951129 0.308795
vn 0.000000 0.951129 0.308795
vn 0.000000 0.951129 0.308795
vn -0.003497 0.963103 0.269109
vn -0.003497 0.963103 0.269109
vn -0.003497 0.963103 0.269109
vn 0.273006 0.962012 0.000000
vn 0.273006 0.962012 0.000000
vn 0.273006 0.962012 0.000000
vn 0.620948 0.782434 0.047122
vn 0.620948 0.782434 0.047122
vn 0.620948 0.782434 0.047122
vn 0.000000 0.891763 -0.452503
vn 0.000000 0.891763 -0.452503
vn 0.000000 0.891763 -0.452503
vn -0.035789 0.975004 -0.219288
vn -0.035789 0.975004 -0.219288
vn -0.035789 0.975004 -0.219288
s off
f 25/31/1 26/32/2 28/34/3
f 28/34/4 26/32/5 27/33/6
f 13/17/7 14/18/8 21/26/9
f 21/26/10 14/18/11 20/25/12
f 5/9/13 1/1/14 24/30/15
f 24/30/16 1/1/17 23/28/18
f 2/2/19 3/3/20 6/10/21
f 6/10/22 3/3/23 7/11/24
f 18/23/25 4/4/26 17/21/27
f 17/21/28 4/4/29 8/12/30
f 4/4/31 1/1/32 8/12/33
f 8/12/34 1/1/35 5/9/36
f 1/5/37 4/8/38 9/13/39
f 9/13/40 4/8/41 10/14/42
f 4/8/43 18/22/44 10/14/45
f 10/14/46 18/22/47 19/24/48
f 3/7/49 2/6/50 11/15/51
f 11/15/52 2/6/53 12/16/54
f 1/5/55 9/13/56 23/29/57
f 23/29/58 9/13/59 22/27/60
f 9/13/61 10/14/62 13/17/63
f 13/17/64 10/14/65 14/18/66
f 10/14/67 19/24/68 14/18/69
f 14/18/70 19/24/71 20/25/72
f 11/15/73 12/16/74 15/19/75
f 15/19/76 12/16/77 16/20/78
f 22/27/79 9/13/80 21/26/81
f 21/26/82 9/13/83 13/17/84
f 3/3/85 18/23/86 7/11/87
f 7/11/88 18/23/89 17/21/90
f 19/24/91 18/22/92 11/15/93
f 11/15/94 18/22/95 3/7/96
f 20/25/97 19/24/98 15/19/99
f 15/19/100 19/24/101 11/15/102
f 21/26/103 20/25/104 16/20/105
f 16/20/106 20/25/107 15/19/108
f 12/16/109 22/27/110 16/20/111
f 16/20/112 22/27/113 21/26/114
f 2/6/115 23/29/116 12/16/117
f 12/16/118 23/29/119 22/27/120
f 23/28/121 2/2/122 24/30/123
f 24/30/124 2/2/125 6/10/126
f 26/32/127 29/35/128 27/33/129
f 27/33/130 29/35/131 30/36/132
f 5/9/133 24/30/134 25/31/135
f 25/31/136 24/30/137 26/32/138
f 8/12/139 28/34/140 17/21/141
f 17/21/142 28/34/143 27/33/144
f 8/12/145 5/9/146 28/34/147
f 28/34/148 5/9/149 25/31/150
f 6/10/151 29/35/152 24/30/153
f 24/30/154 29/35/155 26/32/156
f 6/10/157 7/11/158 29/35/159
f 29/35/160 7/11/161 30/36/162
f 7/11/163 17/21/164 30/36/165
f 30/36/166 17/21/167 27/33/168
