# This file uses centimeters as units for non-parametric coordinates.

v 9.980338 0.000000 12.925541
v 9.980338 0.000000 -13.646364
v -9.774683 0.000000 12.925541
v -9.774683 0.000000 -13.646364
v -12.412600 291.923553 16.473721
v 12.618256 291.923645 16.473721
v 12.286195 291.918823 -16.937609
v -12.159792 291.922272 -16.999743
v -10.631918 167.814148 15.166873
v 15.606287 145.597672 14.892685
v 10.561693 167.810501 -13.602554
v -15.211028 167.813141 -13.251978
v -12.412600 7.475388 16.473722
v 12.618256 7.475352 16.473722
v 12.608223 7.475209 -17.186655
v -12.405074 7.475352 -17.188597
v 15.273726 113.323044 -12.473834
v 9.609155 113.324905 15.308905
v -10.797226 100.540688 14.136195
v -9.305689 113.324387 -12.920053
v 9.665834 126.743423 -12.294429
v 11.333656 126.745171 14.754009
v -9.580064 126.745148 14.843202
v -11.035707 126.744690 -12.180501
v 13.576812 255.940247 -14.497705
v 8.094823 255.933319 17.188602
v -15.606287 255.874542 14.641881
v -5.165479 254.479019 -15.944565
v 14.944175 204.952393 14.924581
v 7.404991 171.311768 14.569730
v -9.906104 229.220093 -12.741491
v -9.867479 279.327850 -17.038277
v -15.072584 65.054047 14.983582
v 9.428623 298.148651 12.208263
v 9.181191 298.145111 -12.688004
v -9.034593 298.147675 -12.734324
v -9.222968 298.148651 12.208282
vt 0.990190 0.455651
vt 0.990190 0.455651
vt 0.990190 0.455651
vt 0.990190 0.455651
vt 0.990190 0.455651
vt 0.990190 0.455651
vt 0.990190 0.455651
vt 0.990190 0.455651
vt 0.990190 0.455651
vt 0.990190 0.455651
vt 0.990190 0.455651
vt 0.990190 0.455651
vt 0.990190 0.455651
vt 0.990190 0.455651
vt 0.990190 0.455651
vt 0.990190 0.455651
vt 0.990190 0.455651
vt 0.990190 0.455651
vt 0.990190 0.455651
vt 0.990190 0.455651
vt 0.990190 0.455651
vt 0.990190 0.455651
vt 0.990190 0.455651
vt 0.990190 0.455651
vt 0.990190 0.455651
vt 0.990190 0.455651
vt 0.990190 0.455651
vt 0.990190 0.455651
vt 0.990190 0.455651
vt 0.990190 0.455651
vt 0.990190 0.455651
vt 0.990190 0.455651
vt 0.990190 0.455651
vt 0.990190 0.455651
vt 0.990190 0.455651
vt 0.990190 0.455651
vt 0.990190 0.455651
vt 0.990190 0.455651
vt 0.990190 0.455651
vt 0.990190 0.455651
vt 0.990190 0.455651
vt 0.990190 0.455651
vt 0.990190 0.455651
vt 0.990190 0.455651
vt 0.990190 0.455651
vt 0.990190 0.455651
vt 0.990190 0.455651
vt 0.990190 0.455651
vt 0.990190 0.455651
vt 0.990190 0.455651
vt 0.990190 0.455651
vt 0.990190 0.455651
vt 0.990190 0.455651
vt 0.990190 0.455651
vt 0.990190 0.455651
vt 0.990190 0.455651
vt 0.990190 0.455651
vt 0.990190 0.455651
vt 0.990190 0.455651
vt 0.990190 0.455651
vt 0.990190 0.455651
vt 0.990190 0.455651
vt 0.990190 0.455651
vt 0.990190 0.455651
vt 0.990190 0.455651
vt 0.990190 0.455651
vt 0.990190 0.455651
vt 0.990190 0.455651
vt 0.990190 0.455651
vt 0.990190 0.455651
vt 0.990190 0.455651
vt 0.990190 0.455651
vt 0.990190 0.455651
vt 0.990190 0.455651
vt 0.990190 0.455651
vt 0.990190 0.455651
vt 0.990190 0.455651
vt 0.990190 0.455651
vt 0.990190 0.455651
vt 0.990190 0.455651
vt 0.990190 0.455651
vt 0.990190 0.455651
vt 0.990190 0.455651
vt 0.990190 0.455651
vt 0.990190 0.455651
vt 0.990190 0.455651
vt 0.990190 0.455651
vt 0.990190 0.455651
vt 0.990190 0.455651
vt 0.990190 0.455651
vt 0.990190 0.455651
vt 0.990190 0.455651
vt 0.990190 0.455651
vt 0.990190 0.455651
vt 0.990190 0.455651
vt 0.990190 0.455651
vt 0.990190 0.455651
vt 0.990190 0.455651
vt 0.990190 0.455651
vt 0.990190 0.455651
vt 0.990190 0.455651
vt 0.990190 0.455651
vt 0.990190 0.455651
vt 0.990190 0.455651
vt 0.990190 0.455651
vt 0.990190 0.455651
vt 0.990190 0.455651
vt 0.990190 0.455651
vt 0.990190 0.455651
vt 0.990190 0.455651
vt 0.990190 0.455651
vt 0.990190 0.455651
vt 0.990190 0.455651
vt 0.990190 0.455651
vt 0.990190 0.455651
vt 0.990190 0.455651
vt 0.990190 0.455651
vt 0.990190 0.455651
vt 0.990190 0.455651
vt 0.990190 0.455651
vt 0.990190 0.455651
vt 0.990190 0.455651
vt 0.990190 0.455651
vt 0.990190 0.455651
vt 0.990190 0.455651
vt 0.990190 0.455651
vt 0.990190 0.455651
vt 0.990190 0.455651
vt 0.990190 0.455651
vt 0.990190 0.455651
vt 0.990190 0.455651
vt 0.990190 0.455651
vt 0.990190 0.455651
vt 0.990190 0.455651
vt 0.990190 0.455651
vt 0.990190 0.455651
vt 0.990190 0.455651
vt 0.990190 0.455651
vt 0.990190 0.455651
vt 0.990190 0.455651
vt 0.990190 0.455651
vt 0.990190 0.455651
vt 0.990190 0.455651
vt 0.990190 0.455651
vt 0.990190 0.455651
vt 0.990190 0.455651
vt 0.990190 0.455651
vt 0.990190 0.455651
vt 0.990190 0.455651
vt 0.990190 0.455651
vt 0.990190 0.455651
vt 0.990190 0.455651
vt 0.990190 0.455651
vt 0.990190 0.455651
vn 0.000000 -1.000000 0.000000
vn 0.000000 -1.000000 0.000000
vn 0.000000 -1.000000 0.000000
vn 0.000000 -1.000000 0.000000
vn 0.000000 -1.000000 0.000000
vn 0.000000 -1.000000 0.000000
vn 0.000755 0.006004 0.999982
vn 0.000755 0.006004 0.999982
vn 0.000755 0.006004 0.999982
vn -0.106511 -0.058390 0.992596
vn -0.106511 -0.058390 0.992596
vn -0.106511 -0.058390 0.992596
vn 0.993643 -0.035081 -0.106973
vn 0.993643 -0.035081 -0.106973
vn 0.993643 -0.035081 -0.106973
vn 0.977771 0.123851 0.169189
vn 0.977771 0.123851 0.169189
vn 0.977771 0.123851 0.169189
vn 0.087150 -0.141404 -0.986108
vn 0.087150 -0.141405 -0.986108
vn 0.087150 -0.141404 -0.986108
vn -0.935910 0.134363 -0.325607
vn -0.935910 0.134363 -0.325607
vn -0.935910 0.134363 -0.325607
vn -0.078058 0.033197 0.996396
vn -0.078058 0.033197 0.996396
vn -0.078058 0.033197 0.996396
vn 0.999683 -0.025161 -0.000298
vn 0.999683 -0.025161 -0.000298
vn 0.999683 -0.025161 -0.000298
vn 0.979399 0.030040 0.199686
vn 0.979399 0.030040 0.199686
vn 0.979399 0.030040 0.199686
vn 0.000078 0.040292 -0.999188
vn 0.000078 0.040292 -0.999188
vn 0.000078 0.040292 -0.999188
vn 0.018136 0.044017 -0.998866
vn 0.018136 0.044017 -0.998866
vn 0.018136 0.044017 -0.998866
vn -0.992814 0.119655 0.001804
vn -0.992814 0.119655 0.001804
vn -0.992814 0.119655 0.001804
vn 0.000000 -0.428798 0.903401
vn 0.000000 -0.428798 0.903401
vn 0.000000 -0.428798 0.903400
vn -0.000001 -0.428799 0.903400
vn -0.000001 -0.428799 0.903400
vn -0.000001 -0.428799 0.903400
vn 0.943008 -0.332771 0.000000
vn 0.943008 -0.332771 0.000000
vn 0.943008 -0.332771 0.000000
vn 0.943361 -0.331768 -0.000280
vn 0.943361 -0.331768 -0.000280
vn 0.943361 -0.331768 -0.000280
vn 0.000000 -0.428027 -0.903766
vn 0.000000 -0.428027 -0.903766
vn 0.000000 -0.428027 -0.903766
vn 0.000068 -0.428193 -0.903687
vn 0.000068 -0.428193 -0.903687
vn 0.000068 -0.428193 -0.903687
vn -0.943040 -0.332680 -0.000210
vn -0.943040 -0.332680 -0.000210
vn -0.943040 -0.332680 -0.000210
vn -0.943306 -0.331926 0.000000
vn -0.943306 -0.331926 0.000000
vn -0.943306 -0.331926 0.000000
vn 0.973128 -0.116843 0.198417
vn 0.973128 -0.116843 0.198417
vn 0.973128 -0.116843 0.198417
vn 0.920924 0.385580 -0.056809
vn 0.920924 0.385580 -0.056809
vn 0.920924 0.385580 -0.056809
vn -0.041731 -0.025010 0.998816
vn -0.041731 -0.025010 0.998816
vn -0.041731 -0.025010 0.998816
vn -0.998347 0.047254 -0.032709
vn -0.998347 0.047254 -0.032709
vn -0.998347 0.047254 -0.032709
vn 0.018148 0.020947 -0.999616
vn 0.018148 0.020947 -0.999616
vn 0.018148 0.020947 -0.999616
vn -0.005492 0.054317 -0.998509
vn -0.005492 0.054317 -0.998509
vn -0.005492 0.054317 -0.998509
vn 0.973604 -0.220211 -0.060019
vn 0.973604 -0.220211 -0.060019
vn 0.973604 -0.220211 -0.060019
vn 0.980399 -0.027601 -0.195078
vn 0.980399 -0.027601 -0.195079
vn 0.980399 -0.027601 -0.195079
vn 0.004265 -0.008322 0.999956
vn 0.004265 -0.008322 0.999956
vn 0.004265 -0.008322 0.999956
vn 0.003860 -0.007782 0.999962
vn 0.003860 -0.007782 0.999962
vn 0.003860 -0.007782 0.999962
vn -0.982727 -0.095780 0.158349
vn -0.982727 -0.095780 0.158349
vn -0.982727 -0.095780 0.158349
vn -0.998215 -0.025990 0.053770
vn -0.998215 -0.025990 0.053770
vn -0.998215 -0.025990 0.053770
vn -0.005503 -0.031717 -0.999482
vn -0.005503 -0.031717 -0.999482
vn -0.005503 -0.031717 -0.999482
vn -0.013599 -0.027460 -0.999530
vn -0.013599 -0.027460 -0.999530
vn -0.013599 -0.027460 -0.999530
vn 0.978294 -0.119595 0.169227
vn 0.978294 -0.119595 0.169227
vn 0.978294 -0.119595 0.169227
vn 0.999332 0.035174 -0.009937
vn 0.999332 0.035174 -0.009937
vn 0.999332 0.035174 -0.009937
vn -0.106646 -0.041034 0.993450
vn -0.106646 -0.041034 0.993450
vn -0.106646 -0.041034 0.993450
vn -0.000000 0.019859 0.999803
vn -0.000000 0.019859 0.999803
vn -0.000000 0.019859 0.999803
vn -0.931772 -0.189932 -0.309399
vn -0.931772 -0.189932 -0.309399
vn -0.931772 -0.189932 -0.309399
vn 0.079175 -0.028876 -0.996442
vn 0.079175 -0.028876 -0.996442
vn 0.079175 -0.028876 -0.996442
vn 0.028866 0.021758 0.999346
vn 0.028866 0.021758 0.999347
vn 0.028866 0.021758 0.999346
vn 0.950215 0.303926 0.068700
vn 0.950215 0.303926 0.068700
vn 0.950215 0.303926 0.068700
vn 0.966505 -0.218031 0.135394
vn 0.966505 -0.218031 0.135394
vn 0.966505 -0.218031 0.135394
vn 0.036718 -0.018768 0.999149
vn 0.036718 -0.018768 0.999149
vn 0.036718 -0.018768 0.999149
vn -0.013600 0.009487 -0.999863
vn -0.013600 0.009487 -0.999863
vn -0.013600 0.009487 -0.999862
vn -0.065647 -0.007889 -0.997812
vn -0.065647 -0.007889 -0.997812
vn -0.065647 -0.007889 -0.997812
vn -0.987014 -0.056651 -0.150316
vn -0.987014 -0.056651 -0.150316
vn -0.987014 -0.056651 -0.150316
vn -0.983805 0.083673 0.158517
vn -0.983805 0.083673 0.158517
vn -0.983805 0.083673 0.158517
vn -0.983814 -0.179041 -0.007423
vn -0.983814 -0.179041 -0.007423
vn -0.983814 -0.179041 -0.007423
vn -0.989523 0.093265 -0.110205
vn -0.989523 0.093265 -0.110205
vn -0.989523 0.093265 -0.110205
vn 0.042096 -0.066097 -0.996925
vn 0.042096 -0.066097 -0.996925
vn 0.042096 -0.066097 -0.996925
vn 0.002542 0.003522 -0.999991
vn 0.002542 0.003522 -0.999991
vn 0.002542 0.003522 -0.999991
vn -0.988933 0.034773 -0.144230
vn -0.988933 0.034773 -0.144230
vn -0.988933 0.034773 -0.144230
vn -0.998934 -0.046154 -0.000223
vn -0.998934 -0.046154 -0.000223
vn -0.998934 -0.046154 -0.000223
vn 0.000000 0.025871 0.999665
vn 0.000000 0.025871 0.999665
vn 0.000000 0.025871 0.999665
vn -0.032855 0.010064 0.999409
vn -0.032855 0.010064 0.999409
vn -0.032855 0.010064 0.999409
vn 0.004261 0.040765 0.999160
vn 0.004261 0.040765 0.999160
vn 0.004261 0.040765 0.999160
vn -0.990005 -0.130561 0.053329
vn -0.990005 -0.130561 0.053329
vn -0.990005 -0.130561 0.053329
vn -0.000000 1.000000 -0.000145
vn -0.000000 1.000000 -0.000145
vn -0.000000 1.000000 -0.000145
vn 0.000141 1.000000 -0.000038
vn 0.000141 1.000000 -0.000038
vn 0.000141 1.000000 -0.000038
vn 0.892409 0.451140 -0.008934
vn 0.892409 0.451140 -0.008934
vn 0.892409 0.451140 -0.008934
vn 0.892411 0.451136 -0.008933
vn 0.892411 0.451136 -0.008933
vn 0.892411 0.451136 -0.008933
vn 0.002178 0.564473 -0.825449
vn 0.002178 0.564473 -0.825449
vn 0.002178 0.564473 -0.825449
vn 0.002178 0.564477 -0.825446
vn 0.002178 0.564477 -0.825446
vn 0.002178 0.564477 -0.825446
vn -0.891826 0.452329 -0.006753
vn -0.891825 0.452329 -0.006753
vn -0.891825 0.452329 -0.006753
vn -0.891825 0.452330 -0.006753
vn -0.891825 0.452330 -0.006753
vn -0.891825 0.452330 -0.006753
vn -0.000002 0.565239 0.824927
vn -0.000002 0.565239 0.824927
vn -0.000002 0.565239 0.824927
vn 0.000001 0.565247 0.824922
vn 0.000001 0.565247 0.824922
vn 0.000001 0.565247 0.824922
s off
f 3/1/1 4/151/2 1/4/3
f 1/4/4 4/151/5 2/3/6
f 9/116/7 29/123/8 27/101/9
f 27/101/10 29/123/11 26/7/12
f 11/118/13 25/98/14 29/124/15
f 29/124/16 25/98/17 26/128/18
f 25/96/19 31/105/20 28/12/21
f 27/103/22 28/107/23 31/106/24
f 33/89/25 18/86/26 19/90/27
f 15/146/28 17/140/29 14/150/30
f 14/150/31 17/140/32 18/84/33
f 16/144/34 20/23/35 15/147/36
f 15/147/37 20/23/38 17/21/39
f 19/24/40 20/79/41 33/88/42
f 3/27/43 1/28/44 13/92/45
f 13/92/46 1/28/47 14/148/48
f 1/154/49 2/30/50 14/19/51
f 14/19/52 2/30/53 15/145/54
f 2/153/55 4/31/56 15/20/57
f 15/20/58 4/31/59 16/22/60
f 13/32/61 16/143/62 3/152/63
f 3/152/64 16/143/65 4/2/66
f 18/83/67 17/141/68 22/135/69
f 22/135/70 17/141/71 21/131/72
f 19/18/73 18/87/74 23/77/75
f 23/78/76 20/25/77 19/91/78
f 17/142/79 20/81/80 21/34/81
f 21/34/82 20/81/83 24/130/84
f 22/134/85 21/132/86 10/139/87
f 10/139/88 21/132/89 11/121/90
f 22/35/91 10/39/92 23/36/93
f 23/36/94 10/39/95 9/114/96
f 12/109/97 24/42/98 9/40/99
f 9/40/100 24/42/101 23/75/102
f 21/133/103 24/38/104 11/120/105
f 11/120/106 24/38/107 12/43/108
f 26/127/109 25/99/110 6/72/111
f 6/72/112 25/99/113 7/70/114
f 27/8/115 26/126/116 5/63/117
f 5/63/118 26/126/119 6/73/120
f 27/104/121 32/94/122 28/14/123
f 25/10/124 28/108/125 32/95/126
f 9/5/127 10/137/128 30/113/129
f 10/138/130 11/122/131 30/112/132
f 30/111/133 11/9/134 29/125/135
f 9/117/136 30/49/137 29/6/138
f 12/110/139 31/11/140 11/119/141
f 11/119/142 31/11/143 25/97/144
f 27/102/145 31/15/146 9/115/147
f 9/115/148 31/15/149 12/41/150
f 8/67/151 32/47/152 5/50/153
f 5/50/154 32/47/155 27/13/156
f 25/100/157 32/48/158 7/69/159
f 7/69/160 32/48/161 8/52/162
f 20/80/163 16/33/164 33/26/165
f 33/26/166 16/33/167 13/93/168
f 13/29/169 14/149/170 33/16/171
f 33/16/172 14/149/173 18/85/174
f 23/76/175 18/17/176 22/136/177
f 23/37/178 24/129/179 20/82/180
f 34/53/181 35/66/182 37/58/183
f 37/58/184 35/66/185 36/62/186
f 6/45/187 7/71/188 34/59/189
f 34/59/190 7/71/191 35/65/192
f 8/68/193 36/61/194 7/44/195
f 7/44/196 36/61/197 35/54/198
f 5/64/199 37/57/200 8/51/201
f 8/51/202 37/57/203 36/55/204
f 5/46/205 6/74/206 37/56/207
f 37/56/208 6/74/209 34/60/210
