# This file uses centimeters as units for non-parametric coordinates.

v 0.705973 -56.306389 -5.127502
v -6.740888 -56.275322 -2.707841
v -6.740888 -56.174805 5.121446
v 0.705973 -56.143738 7.541106
v 5.308501 -56.225060 1.206802
v 1.055304 45.001335 -7.541063
v -5.047831 36.334911 -5.457473
v -5.865891 43.778675 3.047011
v 1.248327 35.448872 5.678773
v 5.341022 41.549545 -0.638365
v -1.352247 -58.967522 1.053452
v 0.454679 51.527672 -6.185316
v -5.676302 51.553257 -4.193282
v -0.755438 58.967522 -0.884035
v -5.676302 51.636009 2.252792
v 0.454679 51.661594 4.244825
v 4.243819 51.594631 -0.970245
v 2.138296 15.807854 6.319262
v -5.308565 15.776813 3.899979
v -5.308565 15.676295 -3.929308
v 2.138296 15.645217 -6.348969
v 6.740825 15.726554 -0.014665
v 6.475989 -30.051447 -0.466323
v 1.873461 -29.970112 5.867981
v -5.573400 -30.001188 3.448320
v -5.573400 -30.101694 -4.380966
v 1.873461 -30.132759 -6.800249
vt 0.988391 0.407758
vt 0.988391 0.407758
vt 0.988391 0.407758
vt 0.988391 0.407758
vt 0.988391 0.407758
vt 0.988391 0.407758
vt 0.988391 0.407758
vt 0.988391 0.407758
vt 0.988391 0.407758
vt 0.988391 0.407758
vt 0.988391 0.407758
vt 0.988391 0.407758
vt 0.988391 0.407758
vt 0.988391 0.407758
vt 0.988391 0.407758
vt 0.988391 0.407758
vt 0.988391 0.407758
vt 0.988391 0.555400
vt 0.988391 0.555400
vt 0.988391 0.555400
vt 0.988391 0.555400
vt 0.988391 0.555400
vt 0.988391 0.407758
vt 0.988391 0.555400
vt 0.988391 0.555400
vt 0.988391 0.555400
vt 0.988391 0.555400
vt 0.988391 0.555400
vt 0.988391 0.555400
vt 0.988391 0.407758
vt 0.988391 0.407758
vt 0.988391 0.407758
vt 0.988391 0.407758
vt 0.988391 0.407758
vt 0.988391 0.407758
vt 0.988391 0.407758
vt 0.988391 0.407758
vt 0.988391 0.407758
vt 0.988391 0.407758
vt 0.988391 0.407758
vt 0.988391 0.407758
vn -0.308857 -0.046948 -0.949949
vn -0.308857 -0.046948 -0.949949
vn -0.308857 -0.046948 -0.949949
vn -0.308813 -0.046937 -0.949964
vn -0.308813 -0.046937 -0.949964
vn -0.308813 -0.046937 -0.949964
vn -0.999008 0.044525 -0.000572
vn -0.999008 0.044525 -0.000572
vn -0.999008 0.044525 -0.000572
vn -0.999008 0.044525 -0.000572
vn -0.999008 0.044525 -0.000572
vn -0.999008 0.044525 -0.000572
vn -0.308445 0.074380 0.948330
vn -0.308445 0.074380 0.948330
vn -0.308445 0.074380 0.948330
vn -0.308445 0.074379 0.948330
vn -0.308445 0.074379 0.948330
vn -0.308445 0.074379 0.948330
vn 0.809002 0.001489 0.587804
vn 0.809002 0.001489 0.587805
vn 0.809002 0.001489 0.587804
vn 0.809002 0.001489 0.587805
vn 0.809002 0.001489 0.587804
vn 0.809002 0.001489 0.587804
vn 0.807257 -0.073443 -0.585613
vn 0.807257 -0.073443 -0.585613
vn 0.807257 -0.073443 -0.585613
vn 0.807241 -0.073435 -0.585636
vn 0.807241 -0.073435 -0.585636
vn 0.807241 -0.073435 -0.585636
vn -0.143875 -0.890633 -0.431361
vn -0.143875 -0.890633 -0.431361
vn -0.143875 -0.890633 -0.431361
vn -0.453283 -0.891293 0.011444
vn -0.453283 -0.891293 0.011444
vn -0.453283 -0.891293 0.011444
vn -0.136464 -0.891762 0.431437
vn -0.136464 -0.891762 0.431437
vn -0.136464 -0.891762 0.431437
vn 0.360805 -0.891604 0.273609
vn 0.360805 -0.891604 0.273609
vn 0.360805 -0.891604 0.273609
vn 0.372792 -0.890910 -0.259433
vn 0.372792 -0.890910 -0.259433
vn 0.372792 -0.890910 -0.259433
vn -0.259637 0.532038 -0.805931
vn -0.259637 0.532038 -0.805931
vn -0.259637 0.532038 -0.805931
vn -0.831699 0.555181 -0.007127
vn -0.831699 0.555181 -0.007127
vn -0.831699 0.555181 -0.007127
vn -0.265130 0.524204 0.809269
vn -0.265130 0.524204 0.809269
vn -0.265130 0.524204 0.809269
vn 0.713569 0.477851 0.512326
vn 0.713569 0.477851 0.512326
vn 0.713569 0.477851 0.512326
vn 0.704942 0.484054 -0.518409
vn 0.704942 0.484054 -0.518409
vn 0.704942 0.484054 -0.518409
vn -0.397344 0.059661 -0.915728
vn -0.397344 0.059661 -0.915728
vn -0.397344 0.059661 -0.915728
vn -0.304049 0.166859 -0.937930
vn -0.304049 0.166859 -0.937930
vn -0.304049 0.166859 -0.937930
vn -0.997270 -0.035820 -0.064577
vn -0.997270 -0.035820 -0.064577
vn -0.997270 -0.035820 -0.064577
vn -0.999710 0.024091 -0.000309
vn -0.999710 0.024091 -0.000309
vn -0.999710 0.024091 -0.000309
vn -0.271222 0.071618 0.959849
vn -0.271222 0.071618 0.959849
vn -0.271222 0.071618 0.959849
vn -0.307755 0.103034 0.945870
vn -0.307755 0.103034 0.945870
vn -0.307755 0.103034 0.945870
vn 0.792753 0.092100 0.602546
vn 0.792753 0.092100 0.602546
vn 0.792753 0.092100 0.602545
vn 0.804996 0.107207 0.583514
vn 0.804996 0.107207 0.583514
vn 0.804996 0.107207 0.583514
vn 0.863983 0.077936 -0.497453
vn 0.863983 0.077936 -0.497453
vn 0.863983 0.077936 -0.497453
vn 0.792600 0.193090 -0.578362
vn 0.792600 0.193090 -0.578362
vn 0.792599 0.193089 -0.578362
vn -0.308996 0.017008 0.950911
vn -0.308996 0.017008 0.950911
vn -0.308996 0.017008 0.950911
vn -0.323720 0.022370 0.945888
vn -0.323720 0.022370 0.945888
vn -0.323720 0.022370 0.945888
vn -0.999921 0.012608 -0.000162
vn -0.999921 0.012608 -0.000162
vn -0.999921 0.012608 -0.000162
vn -0.996825 -0.022170 -0.076482
vn -0.996825 -0.022170 -0.076482
vn -0.996825 -0.022170 -0.076482
vn -0.308591 -0.066296 -0.948882
vn -0.308591 -0.066296 -0.948882
vn -0.308591 -0.066296 -0.948882
vn -0.260005 -0.048753 -0.964376
vn -0.260005 -0.048753 -0.964376
vn -0.260005 -0.048753 -0.964376
vn 0.808457 0.029627 -0.587809
vn 0.808457 0.029627 -0.587809
vn 0.808457 0.029627 -0.587809
vn 0.851793 0.010154 -0.523780
vn 0.851793 0.010154 -0.523780
vn 0.851793 0.010154 -0.523780
vn 0.808059 0.055739 0.586458
vn 0.808059 0.055739 0.586458
vn 0.808059 0.055739 0.586458
vn 0.811341 0.058030 0.581686
vn 0.811341 0.058030 0.581686
vn 0.811341 0.058030 0.581686
vn 0.808885 -0.010480 0.587873
vn 0.808885 -0.010480 0.587873
vn 0.808885 -0.010480 0.587873
vn 0.808868 -0.010475 0.587896
vn 0.808868 -0.010475 0.587896
vn 0.808868 -0.010475 0.587896
vn -0.308983 -0.007596 0.951037
vn -0.308983 -0.007596 0.951037
vn -0.308983 -0.007596 0.951037
vn -0.308939 -0.007588 0.951052
vn -0.308939 -0.007588 0.951052
vn -0.308939 -0.007588 0.951052
vn -0.999983 0.005786 -0.000074
vn -0.999983 0.005786 -0.000074
vn -0.999983 0.005786 -0.000074
vn -0.999983 0.005786 -0.000074
vn -0.999983 0.005786 -0.000074
vn -0.999983 0.005786 -0.000074
vn -0.308915 0.011162 -0.951024
vn -0.308915 0.011162 -0.951024
vn -0.308915 0.011162 -0.951024
vn -0.308959 0.011170 -0.951010
vn -0.308959 0.011170 -0.951010
vn -0.308959 0.011170 -0.951010
vn 0.808970 0.001115 -0.587849
vn 0.808970 0.001115 -0.587849
vn 0.808970 0.001115 -0.587849
vn 0.808986 0.001120 -0.587827
vn 0.808986 0.001120 -0.587827
vn 0.808986 0.001120 -0.587827
s off
f 2/7/1 26/39/2 1/6/3
f 1/6/4 26/39/5 27/41/6
f 3/8/7 25/38/8 2/7/9
f 2/7/10 25/38/11 26/39/12
f 3/8/13 4/9/14 25/38/15
f 25/38/16 4/9/17 24/37/18
f 4/9/19 5/10/20 24/37/21
f 24/37/22 5/10/23 23/36/24
f 5/10/25 1/11/26 23/36/27
f 23/36/28 1/11/29 27/40/30
f 2/2/31 1/1/32 11/23/33
f 3/3/34 2/2/35 11/23/36
f 4/4/37 3/3/38 11/23/39
f 5/5/40 4/4/41 11/23/42
f 1/1/43 5/5/44 11/23/45
f 12/18/46 13/19/47 14/20/48
f 13/19/49 15/21/50 14/20/51
f 15/21/52 16/22/53 14/20/54
f 16/22/55 17/24/56 14/20/57
f 17/24/58 12/18/59 14/20/60
f 7/26/61 13/19/62 6/25/63
f 6/25/64 13/19/65 12/18/66
f 7/26/67 8/27/68 13/19/69
f 13/19/70 8/27/71 15/21/72
f 9/28/73 16/22/74 8/27/75
f 8/27/76 16/22/77 15/21/78
f 9/28/79 10/29/80 16/22/81
f 16/22/82 10/29/83 17/24/84
f 10/29/85 6/25/86 17/24/87
f 17/24/88 6/25/89 12/18/90
f 18/30/91 9/15/92 19/31/93
f 19/31/94 9/15/95 8/14/96
f 20/32/97 19/31/98 7/13/99
f 7/13/100 19/31/101 8/14/102
f 20/32/103 7/13/104 21/34/105
f 21/34/106 7/13/107 6/12/108
f 22/35/109 21/33/110 10/16/111
f 10/16/112 21/33/113 6/17/114
f 18/30/115 22/35/116 9/15/117
f 9/15/118 22/35/119 10/16/120
f 23/36/121 22/35/122 24/37/123
f 24/37/124 22/35/125 18/30/126
f 25/38/127 24/37/128 19/31/129
f 19/31/130 24/37/131 18/30/132
f 26/39/133 25/38/134 20/32/135
f 20/32/136 25/38/137 19/31/138
f 27/41/139 26/39/140 21/34/141
f 21/34/142 26/39/143 20/32/144
f 27/40/145 21/33/146 23/36/147
f 23/36/148 21/33/149 22/35/150
