# This file uses centimeters as units for non-parametric coordinates.

v -18.002129 436.960815 634.647095
v -18.022015 368.077850 670.476196
v -14.191726 426.851196 648.770142
v -14.021688 386.838226 669.919495
v 14.010164 426.930359 648.693115
v 14.180202 386.917358 669.842346
v 18.002129 436.960815 634.647095
v 18.022015 368.077820 670.476196
v -18.023153 432.518860 651.734863
v -17.801291 386.078033 676.281677
v 18.023268 386.170746 676.187927
v 17.801405 432.611511 651.641113
v -18.005583 436.999176 662.765381
v -17.792854 392.710876 686.174500
v 18.031696 392.803894 686.080505
v 17.818975 437.092194 662.671448
v -12.473020 432.182434 671.712402
v -12.370295 402.840485 687.221436
v 12.511643 402.915314 687.150513
v 12.408924 432.257263 671.641479
vt 0.987585 0.347381
vt 0.987585 0.347381
vt 0.987585 0.347381
vt 0.987585 0.347381
vt 0.987585 0.347381
vt 0.987585 0.347381
vt 0.987585 0.347381
vt 0.987585 0.347381
vt 0.987585 0.347381
vt 0.987585 0.347381
vt 0.987585 0.347381
vt 0.987585 0.347381
vt 0.987585 0.347381
vt 0.987585 0.347381
vt 0.987585 0.347381
vt 0.987585 0.347381
vt 0.987585 0.347381
vt 0.987585 0.347381
vt 0.987585 0.347381
vt 0.987585 0.347381
vt 0.987585 0.347381
vt 0.987585 0.347381
vt 0.987585 0.347381
vt 0.987585 0.347381
vt 0.987585 0.347381
vt 0.987585 0.347381
vt 0.987585 0.347381
vt 0.987585 0.347381
vt 0.987585 0.347381
vt 0.987585 0.347381
vt 0.987585 0.347381
vt 0.987585 0.347381
vt 0.987585 0.347381
vt 0.987585 0.347381
vt 0.987585 0.347381
vt 0.987585 0.347381
vt 0.987585 0.347381
vt 0.987585 0.347381
vt 0.987585 0.347381
vt 0.987585 0.347381
vt 0.987585 0.347381
vt 0.987585 0.347381
vt 0.987585 0.347381
vt 0.987585 0.347381
vt 0.987585 0.347381
vt 0.987585 0.347381
vt 0.987585 0.347381
vt 0.987585 0.347381
vt 0.987585 0.347381
vt 0.987585 0.347381
vt 0.987585 0.347381
vt 0.987585 0.347381
vt 0.987585 0.347381
vt 0.987585 0.347381
vt 0.987585 0.347381
vt 0.987585 0.347381
vt 0.987585 0.347381
vt 0.987585 0.347381
vt 0.987585 0.347381
vt 0.987585 0.347381
vt 0.987585 0.347381
vt 0.987585 0.347381
vt 0.987585 0.347381
vt 0.987585 0.347381
vt 0.987585 0.347381
vt 0.987585 0.347381
vt 0.987585 0.347381
vt 0.987585 0.347381
vn -0.898162 0.203089 0.389949
vn -0.898162 0.203089 0.389949
vn -0.898162 0.203089 0.389949
vn -0.900324 0.200383 0.386345
vn -0.900325 0.200383 0.386345
vn -0.900324 0.200383 0.386345
vn 0.001116 0.467303 0.884097
vn 0.001116 0.467303 0.884097
vn 0.001116 0.467303 0.884097
vn 0.001115 0.467304 0.884096
vn 0.001115 0.467304 0.884096
vn 0.001115 0.467304 0.884096
vn 0.885803 0.219792 0.408710
vn 0.885803 0.219792 0.408710
vn 0.885803 0.219792 0.408710
vn 0.904348 0.197152 0.378532
vn 0.904348 0.197152 0.378532
vn 0.904348 0.197152 0.378532
vn 0.000000 0.029661 0.999560
vn 0.000000 0.029661 0.999560
vn 0.000000 0.029661 0.999560
vn 0.002637 0.034163 0.999413
vn 0.002637 0.034163 0.999413
vn 0.002637 0.034163 0.999413
vn 0.000000 0.813798 0.581147
vn 0.000000 0.813798 0.581147
vn 0.000000 0.813798 0.581147
vn -0.000692 0.813053 0.582190
vn -0.000692 0.813053 0.582190
vn -0.000692 0.813053 0.582190
vn -0.809793 -0.276859 -0.517286
vn -0.809793 -0.276859 -0.517286
vn -0.809793 -0.276859 -0.517286
vn -0.811471 -0.276113 -0.515050
vn -0.811471 -0.276112 -0.515051
vn -0.811471 -0.276112 -0.515051
vn 0.002466 -0.993105 -0.117199
vn 0.002466 -0.993105 -0.117199
vn 0.002466 -0.993105 -0.117199
vn 0.002261 -0.992987 -0.118203
vn 0.002261 -0.992987 -0.118203
vn 0.002261 -0.992987 -0.118203
vn 0.808510 -0.272308 -0.521689
vn 0.808510 -0.272308 -0.521689
vn 0.808510 -0.272308 -0.521689
vn 0.810165 -0.270902 -0.519850
vn 0.810165 -0.270902 -0.519850
vn 0.810165 -0.270902 -0.519850
vn -0.003719 0.462539 -0.886591
vn -0.003719 0.462539 -0.886591
vn -0.003719 0.462539 -0.886591
vn -0.003515 0.461636 -0.887062
vn -0.003515 0.461636 -0.887062
vn -0.003515 0.461636 -0.887062
vn -0.999990 -0.003195 0.002995
vn -0.999990 -0.003195 0.002995
vn -0.999990 -0.003195 0.002995
vn -0.999991 -0.003261 0.002917
vn -0.999990 -0.003261 0.002917
vn -0.999991 -0.003261 0.002917
vn 0.003607 -0.830584 0.556881
vn 0.003607 -0.830584 0.556881
vn 0.003607 -0.830584 0.556881
vn 0.003619 -0.830569 0.556904
vn 0.003619 -0.830569 0.556904
vn 0.003619 -0.830569 0.556904
vn 0.999990 0.003195 -0.002994
vn 0.999990 0.003195 -0.002994
vn 0.999990 0.003195 -0.002994
vn 0.999991 0.003261 -0.002918
vn 0.999991 0.003261 -0.002918
vn 0.999991 0.003261 -0.002918
vn -0.003379 0.926474 -0.376344
vn -0.003379 0.926474 -0.376344
vn -0.003379 0.926474 -0.376344
vn -0.003393 0.926489 -0.376307
vn -0.003393 0.926489 -0.376307
vn -0.003393 0.926489 -0.376307
vn -0.717322 0.322892 0.617406
vn -0.717322 0.322892 0.617406
vn -0.717322 0.322892 0.617406
vn -0.720364 0.322145 0.614246
vn -0.720364 0.322145 0.614246
vn -0.720364 0.322145 0.614246
vn 0.002878 -0.103679 0.994607
vn 0.002878 -0.103679 0.994607
vn 0.002878 -0.103679 0.994607
vn 0.003153 -0.104474 0.994523
vn 0.003153 -0.104474 0.994523
vn 0.003153 -0.104474 0.994523
vn 0.718851 0.327546 0.613161
vn 0.718851 0.327546 0.613161
vn 0.718851 0.327546 0.613161
vn 0.721878 0.325355 0.610767
vn 0.721878 0.325355 0.610767
vn 0.721878 0.325355 0.610767
vn -0.001041 0.880240 0.474527
vn -0.001041 0.880240 0.474527
vn -0.001041 0.880240 0.474527
vn -0.001301 0.880593 0.473872
vn -0.001301 0.880593 0.473872
vn -0.001301 0.880593 0.473872
s off
f 2/2/1 4/62/2 1/68/3
f 1/68/4 4/62/5 3/64/6
f 18/35/7 19/30/8 17/21/9
f 17/21/10 19/30/11 20/28/12
f 5/57/13 6/59/14 7/7/15
f 7/7/16 6/59/17 8/8/18
f 2/67/19 8/9/20 4/61/21
f 4/61/22 8/9/23 6/10/24
f 7/11/25 1/1/26 5/12/27
f 5/12/28 1/1/29 3/65/30
f 3/3/31 4/63/32 9/54/33
f 9/54/34 4/63/35 10/52/36
f 4/4/37 6/60/38 10/51/39
f 10/51/40 6/60/41 11/49/42
f 6/6/43 5/58/44 11/48/45
f 11/48/46 5/58/47 12/46/48
f 5/5/49 3/66/50 12/45/51
f 12/45/52 3/66/53 9/55/54
f 10/53/55 14/40/56 9/13/57
f 9/13/58 14/40/59 13/42/60
f 10/14/61 11/50/62 14/39/63
f 14/39/64 11/50/65 15/37/66
f 11/15/67 12/47/68 15/36/69
f 15/36/70 12/47/71 16/32/72
f 12/16/73 9/56/74 16/31/75
f 16/31/76 9/56/77 13/43/78
f 13/17/79 14/41/80 17/25/81
f 17/25/82 14/41/83 18/34/84
f 15/38/85 19/29/86 14/18/87
f 14/18/88 19/29/89 18/22/90
f 15/19/91 16/33/92 19/23/93
f 19/23/94 16/33/95 20/27/96
f 13/44/97 17/26/98 16/20/99
f 16/20/100 17/26/101 20/24/102
