# This file uses centimeters as units for non-parametric coordinates.

v -3.032732 -15.366477 3.008993
v -3.032589 -15.366477 0.340794
v 0.918746 -15.366477 3.008993
v 0.918746 -15.366477 0.340794
v 4.117060 75.683182 -2.893715
v -7.666039 74.327744 -1.039264
v -6.362796 73.811195 6.864081
v 5.420303 75.166634 5.009631
v -0.288081 76.622559 9.194731
v -1.056957 -15.366477 4.108714
v -2.665854 77.564995 -5.224790
v -1.056933 -15.366477 -0.759323
v -4.334164 -11.990849 -0.175982
v -4.334164 -11.990849 4.298245
v -1.021409 -12.046513 6.142262
v 2.291560 -12.102175 4.298245
v 2.291560 -12.102175 -0.175982
v -1.021409 -12.046513 -2.020636
v -8.972073 54.632240 3.686503
v -7.338691 54.632240 -4.719382
v -0.440598 57.610378 -6.975377
v 5.111027 60.588215 -2.300218
v 3.477645 60.588444 6.105669
v -3.420711 57.610378 8.361002
v -3.311419 20.674786 -1.247207
v -4.227328 20.674786 3.181856
v -1.325107 21.860067 5.685815
v 2.332330 23.045340 4.538465
v 3.248286 23.045340 0.109394
v 0.346017 21.860067 -2.394937
v -0.908852 -4.235728 -2.317317
v -2.769661 -4.235728 0.907312
v -1.148915 -4.218250 3.614166
v 2.005744 -4.200776 3.662930
v 3.866458 -4.200774 0.438302
v 2.245927 -4.218250 -2.269003
v 6.132746 67.546700 -5.323015
v 7.931948 66.833611 5.587986
v 0.549364 65.865715 11.381269
v -8.316231 65.485626 8.179220
v -10.115433 66.198753 -2.731780
v -2.733374 67.166801 -8.525664
v -0.201011 13.769908 -1.753130
v 2.205110 13.470718 -0.413579
v 2.205086 13.470691 2.835564
v -0.201011 13.769908 4.174844
v -2.607083 14.069101 2.835564
v -2.607083 14.069101 -0.413569
v -3.866100 37.165390 -7.163057
v 3.693724 29.523369 -4.204199
v 5.716872 29.399284 2.759413
v 0.945830 36.878487 9.398637
v -7.668138 43.263172 7.953237
v -10.305548 43.420422 -1.124239
vt 0.989553 0.348437
vt 0.989553 0.348437
vt 0.989553 0.348437
vt 0.989553 0.348437
vt 0.989553 0.348437
vt 0.989553 0.348437
vt 0.989553 0.348437
vt 0.989553 0.348437
vt 0.989553 0.348437
vt 0.989553 0.348437
vt 0.989553 0.348437
vt 0.989553 0.348437
vt 0.989553 0.348437
vt 0.989553 0.348437
vt 0.989553 0.348437
vt 0.989553 0.348437
vt 0.989553 0.348437
vt 0.989553 0.348437
vt 0.989553 0.348437
vt 0.989553 0.348437
vt 0.989553 0.348437
vt 0.989553 0.348437
vt 0.989553 0.348437
vt 0.989553 0.348437
vt 0.989553 0.348437
vt 0.989553 0.348437
vt 0.989553 0.348437
vt 0.989553 0.348437
vt 0.989553 0.348437
vt 0.989553 0.348437
vt 0.989553 0.348437
vt 0.989553 0.348437
vt 0.989553 0.348437
vt 0.989553 0.348437
vt 0.989553 0.348437
vt 0.989553 0.348437
vt 0.989553 0.348437
vt 0.989553 0.348437
vt 0.989553 0.348437
vt 0.989553 0.348437
vt 0.989553 0.348437
vt 0.989553 0.348437
vt 0.989553 0.348437
vt 0.989553 0.348437
vt 0.989553 0.348437
vt 0.989553 0.348437
vt 0.989553 0.348437
vt 0.989553 0.348437
vt 0.989553 0.348437
vt 0.989553 0.348437
vt 0.989553 0.348437
vt 0.989553 0.348437
vt 0.989553 0.348437
vt 0.989553 0.348437
vt 0.989553 0.348437
vt 0.989553 0.348437
vt 0.989553 0.348437
vt 0.989553 0.348437
vt 0.989553 0.348437
vt 0.989553 0.348437
vn -0.180538 -0.337496 -0.923852
vn -0.180538 -0.337496 -0.923852
vn -0.180538 -0.337496 -0.923852
vn -0.776701 -0.235672 -0.584119
vn -0.776701 -0.235672 -0.584119
vn -0.776701 -0.235672 -0.584119
vn -0.937973 -0.287372 -0.193968
vn -0.937973 -0.287372 -0.193968
vn -0.937973 -0.287372 -0.193968
vn -0.941713 -0.200509 0.270136
vn -0.941713 -0.200509 0.270136
vn -0.941713 -0.200509 0.270136
vn 0.257973 0.130617 0.957282
vn 0.257973 0.130617 0.957282
vn 0.257973 0.130617 0.957282
vn 0.605695 -0.276078 0.746267
vn 0.605695 -0.276078 0.746267
vn 0.605695 -0.276078 0.746267
vn 0.887997 -0.421589 0.183643
vn 0.887997 -0.421589 0.183643
vn 0.887997 -0.421589 0.183643
vn 0.929439 -0.246645 -0.274426
vn 0.929439 -0.246645 -0.274426
vn 0.929439 -0.246645 -0.274426
vn -0.627414 -0.096160 0.772725
vn -0.627414 -0.096160 0.772725
vn -0.627414 -0.096160 0.772725
vn -0.333101 -0.243171 0.910995
vn -0.333101 -0.243171 0.910995
vn -0.333101 -0.243171 0.910995
vn 0.683285 -0.436654 -0.585196
vn 0.683285 -0.436654 -0.585196
vn 0.683285 -0.436654 -0.585196
vn 0.101433 -0.270349 -0.957404
vn 0.101433 -0.270349 -0.957404
vn 0.101433 -0.270349 -0.957404
vn -0.431275 -0.462205 0.774834
vn -0.431275 -0.462205 0.774834
vn -0.431275 -0.462205 0.774834
vn -0.436143 -0.466628 0.769440
vn -0.436143 -0.466628 0.769440
vn -0.436143 -0.466628 0.769440
vn 0.426218 -0.481673 0.765722
vn 0.426218 -0.481673 0.765722
vn 0.426218 -0.481673 0.765722
vn 0.421323 -0.476979 0.771348
vn 0.421323 -0.476979 0.771348
vn 0.421323 -0.476979 0.771348
vn 0.921800 -0.387666 0.000000
vn 0.921800 -0.387666 0.000000
vn 0.921800 -0.387666 0.000000
vn 0.921800 -0.387666 0.000000
vn 0.921800 -0.387666 0.000000
vn 0.921800 -0.387666 0.000000
vn 0.461000 -0.319467 -0.827901
vn 0.461000 -0.319467 -0.827901
vn 0.461000 -0.319467 -0.827901
vn 0.456226 -0.323127 -0.829124
vn 0.456226 -0.323127 -0.829124
vn 0.456226 -0.323127 -0.829124
vn -0.462442 -0.310566 -0.830480
vn -0.462442 -0.310566 -0.830480
vn -0.462442 -0.310566 -0.830480
vn -0.466935 -0.306998 -0.829291
vn -0.466935 -0.306998 -0.829291
vn -0.466935 -0.306998 -0.829291
vn -0.933041 -0.359770 -0.000050
vn -0.933041 -0.359770 -0.000050
vn -0.933041 -0.359770 -0.000050
vn -0.933057 -0.359729 0.000000
vn -0.933057 -0.359729 0.000000
vn -0.933057 -0.359729 0.000000
vn -0.962040 -0.198831 -0.186938
vn -0.962040 -0.198831 -0.186938
vn -0.962040 -0.198831 -0.186938
vn -0.986726 -0.007524 0.162218
vn -0.986726 -0.007524 0.162218
vn -0.986726 -0.007524 0.162218
vn -0.340601 0.079224 -0.936864
vn -0.340602 0.079224 -0.936864
vn -0.340602 0.079224 -0.936864
vn -0.573971 -0.263484 -0.775328
vn -0.573971 -0.263484 -0.775328
vn -0.573971 -0.263484 -0.775328
vn 0.635320 0.027226 -0.771769
vn 0.635320 0.027226 -0.771769
vn 0.635320 0.027226 -0.771769
vn 0.324596 -0.416552 -0.849189
vn 0.324596 -0.416552 -0.849189
vn 0.324596 -0.416552 -0.849189
vn 0.810107 -0.564750 0.157431
vn 0.810107 -0.564750 0.157431
vn 0.810107 -0.564750 0.157431
vn 0.961001 -0.216078 -0.172589
vn 0.961001 -0.216078 -0.172589
vn 0.961001 -0.216078 -0.172589
vn 0.454810 -0.490644 0.743247
vn 0.454810 -0.490644 0.743247
vn 0.454810 -0.490644 0.743247
vn 0.602826 -0.371425 0.706147
vn 0.602826 -0.371425 0.706147
vn 0.602826 -0.371425 0.706147
vn -0.514436 -0.301258 0.802870
vn -0.514436 -0.301258 0.802870
vn -0.514436 -0.301258 0.802870
vn -0.327120 -0.181944 0.927302
vn -0.327120 -0.181944 0.927302
vn -0.327120 -0.181944 0.927302
vn -0.865785 -0.028362 -0.499611
vn -0.865785 -0.028362 -0.499611
vn -0.865785 -0.028362 -0.499611
vn -0.999961 0.008881 0.000000
vn -0.999961 0.008881 0.000000
vn -0.999961 0.008881 0.000000
vn -0.856904 -0.046469 0.513377
vn -0.856904 -0.046469 0.513377
vn -0.856904 -0.046469 0.513377
vn -0.486508 -0.001595 0.873675
vn -0.486508 -0.001595 0.873675
vn -0.486508 -0.001595 0.873675
vn -0.015699 0.046939 0.998774
vn -0.015699 0.046939 0.998774
vn -0.015699 0.046939 0.998774
vn 0.480676 -0.052613 0.875318
vn 0.480676 -0.052613 0.875318
vn 0.480676 -0.052613 0.875318
vn 0.866064 0.013628 0.499747
vn 0.866064 0.013628 0.499747
vn 0.866064 0.013628 0.499747
vn 0.995610 0.093601 0.000008
vn 0.995610 0.093601 0.000008
vn 0.995610 0.093601 0.000008
vn 0.856536 0.055792 -0.513063
vn 0.856536 0.055792 -0.513063
vn 0.856536 0.055792 -0.513063
vn 0.493065 0.091882 -0.865127
vn 0.493065 0.091882 -0.865127
vn 0.493064 0.091882 -0.865127
vn 0.015136 0.030721 -0.999413
vn 0.015136 0.030721 -0.999413
vn 0.015136 0.030721 -0.999413
vn -0.481506 0.046353 -0.875216
vn -0.481506 0.046353 -0.875216
vn -0.481506 0.046353 -0.875216
vn -0.980252 0.197754 0.000000
vn -0.980252 0.197754 0.000000
vn -0.980252 0.197754 0.000000
vn -0.841341 0.237550 -0.485505
vn -0.841341 0.237550 -0.485505
vn -0.841341 0.237550 -0.485505
vn -0.465561 0.265104 0.844377
vn -0.465561 0.265104 0.844377
vn -0.465561 0.265104 0.844377
vn -0.798441 0.369071 0.475688
vn -0.798441 0.369071 0.475688
vn -0.798441 0.369071 0.475688
vn 0.470725 0.278073 0.837313
vn 0.470725 0.278073 0.837313
vn 0.470725 0.278073 0.837313
vn -0.015848 0.079567 0.996704
vn -0.015848 0.079567 0.996704
vn -0.015848 0.079567 0.996704
vn 0.999346 0.036149 0.000000
vn 0.999346 0.036149 0.000000
vn 0.999346 0.036149 0.000000
vn 0.847400 -0.206918 0.488977
vn 0.847400 -0.206918 0.488977
vn 0.847400 -0.206918 0.488977
vn 0.471264 -0.223762 -0.853136
vn 0.471264 -0.223762 -0.853136
vn 0.471264 -0.223762 -0.853136
vn 0.851108 -0.130100 -0.508614
vn 0.851108 -0.130100 -0.508614
vn 0.851108 -0.130100 -0.508614
vn -0.486665 -0.026154 -0.873197
vn -0.486665 -0.026154 -0.873197
vn -0.486665 -0.026154 -0.873197
vn 0.015513 -0.038175 -0.999151
vn 0.015513 -0.038175 -0.999151
vn 0.015513 -0.038175 -0.999151
vn 0.950821 0.276959 -0.138687
vn 0.950821 0.276959 -0.138687
vn 0.950821 0.276959 -0.138687
vn 0.950820 0.276960 -0.138687
vn 0.950820 0.276960 -0.138687
vn 0.950820 0.276960 -0.138687
vn 0.582045 0.229575 0.780076
vn 0.582045 0.229575 0.780076
vn 0.582045 0.229575 0.780076
vn 0.612105 0.203008 0.764274
vn 0.612105 0.203008 0.764274
vn 0.612105 0.203008 0.764274
vn -0.339549 0.223974 0.913533
vn -0.339549 0.223974 0.913533
vn -0.339549 0.223974 0.913533
vn -0.413992 0.150264 0.897792
vn -0.413992 0.150264 0.897792
vn -0.413992 0.150264 0.897792
vn -0.952362 0.250851 0.173438
vn -0.952362 0.250851 0.173438
vn -0.952362 0.250851 0.173438
vn -0.952362 0.250850 0.173438
vn -0.952362 0.250850 0.173438
vn -0.952362 0.250850 0.173438
vn -0.608760 0.333325 -0.719935
vn -0.608760 0.333325 -0.719935
vn -0.608760 0.333325 -0.719935
vn -0.705671 0.218540 -0.673994
vn -0.705671 0.218540 -0.673994
vn -0.705671 0.218540 -0.673994
vn 0.306380 0.341224 -0.888649
vn 0.306380 0.341224 -0.888649
vn 0.306380 0.341224 -0.888649
vn 0.380219 0.277600 -0.882254
vn 0.380219 0.277600 -0.882254
vn 0.380219 0.277600 -0.882254
vn 0.000000 -1.000000 0.000000
vn 0.000000 -1.000000 0.000000
vn 0.000000 -1.000000 0.000000
vn 0.000000 -1.000000 0.000000
vn 0.000000 -1.000000 0.000000
vn 0.000000 -1.000000 0.000000
vn 0.000000 -1.000000 0.000000
vn 0.000000 -1.000000 0.000000
vn 0.000000 -1.000000 0.000000
vn 0.000000 -1.000000 0.000000
vn 0.000000 -1.000000 0.000000
vn 0.000000 -1.000000 0.000000
vn -0.457828 0.879044 0.132948
vn -0.457828 0.879044 0.132948
vn -0.457828 0.879044 0.132948
vn -0.457827 0.879045 0.132948
vn -0.457827 0.879045 0.132948
vn -0.457827 0.879045 0.132948
vn 0.260875 0.965164 0.020064
vn 0.260875 0.965164 0.020064
vn 0.260875 0.965164 0.020064
vn 0.260875 0.965164 0.020062
vn 0.260875 0.965164 0.020062
vn 0.260875 0.965164 0.020062
vn 0.474256 -0.101445 -0.874523
vn 0.474256 -0.101445 -0.874523
vn 0.474256 -0.101445 -0.874523
vn 0.660195 -0.030939 -0.750457
vn 0.660195 -0.030939 -0.750457
vn 0.660195 -0.030939 -0.750457
vn 0.994117 -0.108312 0.000006
vn 0.994117 -0.108312 0.000006
vn 0.994117 -0.108312 0.000006
vn 0.978103 -0.048975 0.202277
vn 0.978103 -0.048975 0.202277
vn 0.978103 -0.048975 0.202277
vn 0.474766 -0.097399 0.874706
vn 0.474766 -0.097399 0.874706
vn 0.474766 -0.097399 0.874706
vn 0.344421 -0.168828 0.923510
vn 0.344421 -0.168828 0.923510
vn 0.344421 -0.168828 0.923510
vn -0.495290 -0.166186 0.852684
vn -0.495290 -0.166186 0.852684
vn -0.495290 -0.166186 0.852684
vn -0.581503 -0.226721 0.781314
vn -0.581503 -0.226721 0.781314
vn -0.581503 -0.226721 0.781314
vn -0.971211 -0.238219 0.000000
vn -0.971211 -0.238219 0.000000
vn -0.971211 -0.238219 0.000000
vn -0.971112 -0.128889 -0.200821
vn -0.971112 -0.128889 -0.200821
vn -0.971112 -0.128889 -0.200821
vn -0.495290 -0.160556 -0.853762
vn -0.495290 -0.160556 -0.853762
vn -0.495290 -0.160556 -0.853762
vn -0.282092 -0.056902 -0.957698
vn -0.282092 -0.056902 -0.957698
vn -0.282092 -0.056902 -0.957698
vn 0.397342 0.038068 -0.916881
vn 0.397342 0.038068 -0.916881
vn 0.397342 0.038068 -0.916881
vn 0.673185 -0.106072 -0.731827
vn 0.673185 -0.106072 -0.731827
vn 0.673185 -0.106072 -0.731827
vn 0.959823 -0.026670 -0.279334
vn 0.959824 -0.026670 -0.279334
vn 0.959824 -0.026670 -0.279334
vn 0.980414 0.049950 0.190507
vn 0.980414 0.049950 0.190507
vn 0.980414 0.049950 0.190507
vn 0.809443 -0.004884 0.587179
vn 0.809442 -0.004884 0.587179
vn 0.809442 -0.004884 0.587179
vn 0.268052 0.104392 0.957732
vn 0.268052 0.104392 0.957732
vn 0.268052 0.104392 0.957732
vn -0.153031 0.017222 0.988071
vn -0.153031 0.017222 0.988071
vn -0.153031 0.017222 0.988071
vn -0.689008 0.184055 0.700993
vn -0.689008 0.184055 0.700993
vn -0.689008 0.184055 0.700993
vn -0.960300 -0.005463 0.278915
vn -0.960300 -0.005463 0.278915
vn -0.960300 -0.005463 0.278915
vn -0.962836 0.194792 -0.187092
vn -0.962836 0.194792 -0.187092
vn -0.962836 0.194792 -0.187092
vn -0.704319 -0.040875 -0.708706
vn -0.704319 -0.040875 -0.708706
vn -0.704319 -0.040875 -0.708706
vn -0.335360 0.064816 -0.939858
vn -0.335360 0.064816 -0.939858
vn -0.335360 0.064816 -0.939858
s off
f 30/1/1 25/2/2 49/55/3
f 49/55/4 25/2/5 54/60/6
f 25/2/7 26/5/8 54/60/9
f 54/60/10 26/5/11 53/59/12
f 28/8/13 51/57/14 27/7/15
f 27/7/16 51/57/17 52/58/18
f 28/8/19 29/11/20 51/57/21
f 51/57/22 29/11/23 50/56/24
f 27/7/25 52/58/26 26/5/27
f 26/5/28 52/58/29 53/59/30
f 29/11/31 30/1/32 50/56/33
f 50/56/34 30/1/35 49/55/36
f 1/13/37 10/14/38 14/16/39
f 14/16/40 10/14/41 15/15/42
f 3/17/43 16/18/44 10/14/45
f 10/14/46 16/18/47 15/15/48
f 4/19/49 17/20/50 3/17/51
f 3/17/52 17/20/53 16/18/54
f 12/21/55 18/22/56 4/19/57
f 4/19/58 18/22/59 17/20/60
f 12/21/61 2/23/62 18/22/63
f 18/22/64 2/23/65 13/24/66
f 2/23/67 1/13/68 13/24/69
f 13/24/70 1/13/71 14/16/72
f 20/3/73 19/6/74 41/47/75
f 41/47/76 19/6/77 40/46/78
f 20/3/79 41/47/80 21/4/81
f 21/4/82 41/47/83 42/48/84
f 21/4/85 42/48/86 22/12/87
f 22/12/88 42/48/89 37/43/90
f 23/9/91 22/12/92 38/44/93
f 38/44/94 22/12/95 37/43/96
f 24/10/97 23/9/98 39/45/99
f 39/45/100 23/9/101 38/44/102
f 19/6/103 24/10/104 40/46/105
f 40/46/106 24/10/107 39/45/108
f 31/31/109 32/32/110 48/54/111
f 48/54/112 32/32/113 47/53/114
f 32/32/115 33/33/116 47/53/117
f 47/53/118 33/33/119 46/52/120
f 34/34/121 45/51/122 33/33/123
f 33/33/124 45/51/125 46/52/126
f 34/34/127 35/35/128 45/51/129
f 45/51/130 35/35/131 44/50/132
f 35/35/133 36/36/134 44/50/135
f 44/50/136 36/36/137 43/49/138
f 36/36/139 31/31/140 43/49/141
f 43/49/142 31/31/143 48/54/144
f 14/38/145 32/32/146 13/37/147
f 13/37/148 32/32/149 31/31/150
f 15/39/151 33/33/152 14/38/153
f 14/38/154 33/33/155 32/32/156
f 15/39/157 16/40/158 33/33/159
f 33/33/160 16/40/161 34/34/162
f 16/40/163 17/41/164 34/34/165
f 34/34/166 17/41/167 35/35/168
f 18/42/169 36/36/170 17/41/171
f 17/41/172 36/36/173 35/35/174
f 13/37/175 31/31/176 18/42/177
f 18/42/178 31/31/179 36/36/180
f 37/43/181 5/28/182 38/44/183
f 38/44/184 5/28/185 8/29/186
f 38/44/187 8/29/188 39/45/189
f 39/45/190 8/29/191 9/30/192
f 40/46/193 39/45/194 7/25/195
f 7/25/196 39/45/197 9/30/198
f 41/47/199 40/46/200 6/26/201
f 6/26/202 40/46/203 7/25/204
f 41/47/205 6/26/206 42/48/207
f 42/48/208 6/26/209 11/27/210
f 37/43/211 42/48/212 5/28/213
f 5/28/214 42/48/215 11/27/216
f 2/23/217 12/21/218 1/13/219
f 12/21/220 4/19/221 1/13/222
f 4/19/223 3/17/224 1/13/225
f 3/17/226 10/14/227 1/13/228
f 11/27/229 6/26/230 9/30/231
f 9/30/232 6/26/233 7/25/234
f 8/29/235 5/28/236 9/30/237
f 9/30/238 5/28/239 11/27/240
f 43/49/241 30/1/242 44/50/243
f 44/50/244 30/1/245 29/11/246
f 44/50/247 29/11/248 45/51/249
f 45/51/250 29/11/251 28/8/252
f 46/52/253 45/51/254 27/7/255
f 27/7/256 45/51/257 28/8/258
f 47/53/259 46/52/260 26/5/261
f 26/5/262 46/52/263 27/7/264
f 47/53/265 26/5/266 48/54/267
f 48/54/268 26/5/269 25/2/270
f 48/54/271 25/2/272 43/49/273
f 43/49/274 25/2/275 30/1/276
f 50/56/277 49/55/278 22/12/279
f 22/12/280 49/55/281 21/4/282
f 50/56/283 22/12/284 51/57/285
f 51/57/286 22/12/287 23/9/288
f 51/57/289 23/9/290 52/58/291
f 52/58/292 23/9/293 24/10/294
f 52/58/295 24/10/296 53/59/297
f 53/59/298 24/10/299 19/6/300
f 53/59/301 19/6/302 54/60/303
f 54/60/304 19/6/305 20/3/306
f 54/60/307 20/3/308 49/55/309
f 49/55/310 20/3/311 21/4/312
