# This file uses centimeters as units for non-parametric coordinates.

v -7.461834 -23.037651 160.367599
v 7.461834 -23.037651 160.367599
v -7.461834 20.344803 160.367599
v 7.461834 20.344803 160.367599
v -7.461834 25.284836 -160.163116
v 7.461834 25.284836 -160.163116
v -7.461834 -21.605423 -160.367584
v 7.461834 -21.605423 -160.367584
v -7.461834 26.909706 -155.547318
v 7.461834 26.909706 -155.547318
v -7.461834 26.549217 153.588104
v 7.461834 26.549217 153.588104
v -7.461834 -26.909950 153.588104
v 7.461834 -26.909950 153.588104
v 7.461834 -25.248459 -152.884674
v -7.461834 -25.229195 -152.884674
v -7.461834 -25.790718 -50.501244
v -7.461834 -23.816803 -38.377373
v -7.461834 -25.925758 -25.857918
v 7.461834 -25.811699 -48.977272
v 7.461834 -25.950172 -23.445885
v 7.461834 -25.873306 -37.625496
v -7.461834 26.767990 -34.106056
v -2.602386 -25.873306 -38.018791
v -7.461834 26.886818 -135.977936
v -7.461834 26.875565 -126.281731
v -7.461834 24.869606 -129.856110
v 7.461834 26.878044 -128.538513
v -3.105450 26.879189 -129.471588
vt 0.991541 0.991351
vt 0.991542 0.991351
vt 0.991542 0.991355
vt 0.991541 0.991355
vt 0.991539 0.991363
vt 0.991539 0.991365
vt 0.991539 0.991367
vt 0.991539 0.991366
vt 0.991539 0.991340
vt 0.991539 0.991340
vt 0.991539 0.991339
vt 0.991539 0.991339
vt 0.991543 0.991354
vt 0.991542 0.991354
vt 0.991541 0.991349
vt 0.991542 0.991349
vt 0.991541 0.991340
vt 0.991540 0.991340
vt 0.991539 0.991335
vt 0.991540 0.991335
vt 0.991536 0.991365
vt 0.991535 0.991365
vt 0.991542 0.991365
vt 0.991542 0.991365
vt 0.991542 0.991340
vt 0.991546 0.991340
vt 0.991546 0.991340
vt 0.991546 0.991365
vt 0.991546 0.991365
vt 0.550558 0.436154
vt 0.555893 0.438788
vt 0.954587 0.385306
vt 0.946121 0.379085
vt 0.954587 0.427468
vt 0.946121 0.438180
vt 0.550588 0.387155
vt 0.991540 0.991363
vt 0.991542 0.991340
vt 0.559912 0.378767
vt 0.991540 0.991363
vt 0.688933 0.378873
vt 0.991540 0.991355
vt 0.704195 0.381702
vt 0.991540 0.991355
vt 0.719988 0.378899
vt 0.991540 0.991354
vt 0.991540 0.991355
vt 0.991542 0.991349
vt 0.991540 0.991354
vt 0.991542 0.991351
vt 0.991540 0.991355
vt 0.991542 0.991350
vt 0.991539 0.991354
vt 0.709190 0.438549
vt 0.991540 0.991355
vt 0.991539 0.991361
vt 0.580596 0.438750
vt 0.991539 0.991361
vt 0.592834 0.438731
vt 0.991495 0.991326
vt 0.588355 0.435893
vt 0.991539 0.991362
vt 0.991546 0.991342
vt 0.991539 0.991361
vn 0.000000 0.000000 1.000000
vn 0.000000 0.000000 1.000000
vn 0.000000 0.000000 1.000000
vn 0.000000 0.000000 1.000000
vn 0.000000 0.943260 -0.332056
vn 0.000000 0.943260 -0.332056
vn 0.000000 0.943260 -0.332056
vn 0.000000 0.943260 -0.332056
vn 0.000000 0.004362 -0.999990
vn 0.000000 0.004362 -0.999990
vn 0.000000 0.004362 -0.999990
vn 0.000000 0.004362 -0.999990
vn 0.000000 -0.868338 0.495973
vn 0.000000 -0.868338 0.495973
vn 0.000000 -0.868338 0.495973
vn 0.000000 -0.868338 0.495973
vn 1.000000 0.000000 0.000000
vn 1.000000 0.000000 0.000000
vn 1.000000 0.000000 0.000000
vn 1.000000 0.000000 0.000000
vn 1.000000 0.000000 0.000000
vn 1.000000 0.000000 0.000000
vn 1.000000 0.000000 0.000000
vn 1.000000 0.000000 0.000000
vn 1.000000 0.000000 0.000000
vn 1.000000 0.000000 0.000000
vn 1.000000 0.000000 0.000000
vn 1.000000 0.000000 0.000000
vn 0.000000 0.999999 0.001167
vn 0.000000 0.999999 0.001167
vn 0.000000 0.999999 0.001167
vn 0.000000 0.737692 0.675137
vn 0.000000 0.737692 0.675137
vn 0.000000 0.737692 0.675137
vn 0.000000 0.737692 0.675137
vn -0.000581 -0.899554 -0.436809
vn -0.000581 -0.899554 -0.436809
vn -0.000581 -0.899554 -0.436809
vn -0.000581 -0.899554 -0.436809
vn -1.000000 -0.000000 0.000000
vn -1.000000 -0.000000 0.000000
vn -1.000000 -0.000000 0.000000
vn -1.000000 -0.000000 0.000000
vn -0.000377 -0.999985 -0.005453
vn -0.000377 -0.999985 -0.005453
vn -0.000377 -0.999985 -0.005453
vn -0.000377 -0.999985 -0.005453
vn -1.000000 0.000000 0.000000
vn -1.000000 0.000000 0.000000
vn -1.000000 0.000000 0.000000
vn -1.000000 0.000000 0.000000
vn -1.000000 0.000000 0.000000
vn -1.000000 0.000000 0.000000
vn -1.000000 0.000000 0.000000
vn -1.000000 0.000000 0.000000
vn -1.000000 0.000000 0.000000
vn -1.000000 0.000000 0.000000
vn -1.000000 0.000000 0.000000
vn -0.001075 -0.999985 -0.005452
vn -0.001075 -0.999985 -0.005452
vn -0.001075 -0.999985 -0.005452
vn -0.001075 -0.999985 -0.005452
vn -0.394670 -0.906884 0.147639
vn -0.394670 -0.906884 0.147639
vn -0.394670 -0.906884 0.147639
vn -0.375412 -0.913982 -0.153959
vn -0.375412 -0.913982 -0.153959
vn -0.375412 -0.913982 -0.153959
vn -1.000000 0.000000 0.000000
vn -1.000000 0.000000 0.000000
vn -1.000000 0.000000 0.000000
vn -1.000000 0.000000 0.000000
vn -1.000000 -0.000000 0.000000
vn -1.000000 -0.000000 0.000000
vn -1.000000 -0.000000 0.000000
vn -1.000000 -0.000000 0.000000
vn -1.000000 -0.000000 0.000000
vn -1.000000 -0.000000 0.000000
vn -0.000387 -0.999982 -0.005970
vn -0.000387 -0.999982 -0.005970
vn -0.000387 -0.999982 -0.005970
vn -0.000387 -0.999982 -0.005970
vn -0.000417 -0.999987 -0.004989
vn -0.000417 -0.999987 -0.004989
vn -0.000417 -0.999987 -0.004989
vn -0.000417 -0.999988 -0.004989
vn 0.000007 0.999999 0.001168
vn 0.000007 0.999999 0.001168
vn 0.000007 0.999999 0.001168
vn 0.000007 0.999999 0.001168
vn -0.000005 0.999999 0.001166
vn -0.000005 0.999999 0.001166
vn -0.000005 0.999999 0.001166
vn -0.000005 0.999999 0.001166
vn 0.000005 0.999999 0.001166
vn 0.000005 0.999999 0.001166
vn 0.000005 0.999999 0.001166
vn 0.000005 0.999999 0.001166
vn -0.422218 0.860950 0.283720
vn -0.422218 0.860950 0.283720
vn -0.422218 0.860950 0.283720
vn -0.337947 0.820755 -0.460601
vn -0.337947 0.820755 -0.460601
vn -0.337947 0.820755 -0.460601
s off
f 2/2/1 4/3/2 3/4/3 1/1/4
f 9/5/5 10/6/6 6/7/7 5/8/8
f 7/16/9 5/13/10 6/14/11 8/15/12
f 13/17/13 14/18/14 2/19/15 1/20/16
f 12/28/17 4/29/18 2/23/19 14/24/20 21/50/21 22/52/22 20/48/23 15/38/24 8/25/25 6/26/26 10/27/27 28/63/28
f 10/6/29 9/5/30 25/56/31
f 4/12/32 12/10/33 11/9/34 3/11/35
f 8/22/36 15/37/37 16/40/38 7/21/39
f 9/31/40 5/30/41 7/36/42 16/39/43
f 19/46/44 21/49/45 14/18/46 13/17/47
f 11/35/48 13/33/49 1/32/50 3/34/51
f 9/31/52 16/39/53 17/41/54 23/54/55 26/59/56 27/61/57 25/57/58
f 16/40/59 15/37/60 20/47/61 17/42/62
f 17/42/63 24/55/64 18/44/65
f 18/44/66 24/55/67 19/46/68
f 23/54/69 19/45/70 13/33/71 11/35/72
f 23/54/73 17/41/74 18/43/75
f 23/54/76 18/43/77 19/45/78
f 20/47/79 22/51/80 24/55/81 17/42/82
f 19/46/83 24/55/84 22/51/85 21/49/86
f 10/6/87 25/56/88 29/64/89 28/62/90
f 12/10/91 26/58/92 23/53/93 11/9/94
f 28/62/95 29/64/96 26/58/97 12/10/98
f 29/64/99 25/56/100 27/60/101
f 26/58/102 29/64/103 27/60/104
