# This file uses centimeters as units for non-parametric coordinates.

v -3.055263 -16.548538 64.723969
v -3.055263 16.548538 64.723969
v -3.055263 16.548538 -64.723969
v -8.084869 16.548538 64.723969
v -8.084869 16.548538 -64.723969
v -8.084869 -16.548538 64.723969
v -8.084869 -16.548538 -64.723969
v -3.055263 -16.548538 -64.723969
v -8.084869 20.213699 68.389130
v -3.055263 20.213699 68.389130
v -3.055263 20.213699 -68.389130
v -8.084869 20.213699 -68.389130
v -8.084869 -20.213699 68.389130
v -3.055263 -20.213699 68.389130
v -8.084869 -20.213699 -68.389130
v -3.055263 -20.213699 -68.389130
v -8.084869 17.033005 -7.277060
v -8.084869 16.548538 1.803792
v -8.084869 -16.548538 36.960983
v -8.084869 -17.667007 43.022156
v -8.084869 -16.548538 51.064301
vt 0.009140 0.993028
vt 0.009138 0.992648
vt 0.009138 0.992127
vt 0.009140 0.992481
vt 0.481005 0.924579
vt 0.481005 0.994774
vt 0.206461 0.994774
vt 0.206461 0.924579
vt 0.287123 0.934895
vt 0.287086 0.934912
vt 0.283123 0.934826
vt 0.283160 0.934809
vt 0.287086 0.933506
vt 0.287123 0.933489
vt 0.283160 0.933403
vt 0.283123 0.933420
vt 0.286961 0.934782
vt 0.283248 0.934701
vt 0.283285 0.934684
vt 0.286998 0.934764
vt 0.286998 0.933613
vt 0.283285 0.933533
vt 0.283248 0.933550
vt 0.286961 0.933631
vt 0.328299 0.995802
vt 0.284932 0.934737
vt 0.347558 0.994774
vt 0.285193 0.934725
vt 0.422123 0.924579
vt 0.286202 0.933596
vt 0.434978 0.922206
vt 0.286379 0.933561
vt 0.452035 0.924579
vt 0.286606 0.933605
vn 1.000000 0.000000 -0.000000
vn 1.000000 0.000000 -0.000000
vn 1.000000 0.000000 -0.000000
vn 1.000000 0.000000 -0.000000
vn -1.000000 -0.000000 0.000000
vn -1.000000 -0.000000 0.000000
vn -1.000000 -0.000000 0.000000
vn -1.000000 -0.000000 0.000000
vn -1.000000 -0.000000 0.000000
vn -1.000000 -0.000000 0.000000
vn -1.000000 -0.000000 0.000000
vn -1.000000 -0.000000 0.000000
vn -1.000000 -0.000000 0.000000
vn 0.000000 1.000000 0.000000
vn 0.000000 1.000000 0.000000
vn 0.000000 1.000000 0.000000
vn 0.000000 1.000000 0.000000
vn 0.000000 -1.000000 -0.000000
vn 0.000000 -1.000000 -0.000000
vn 0.000000 -1.000000 -0.000000
vn 0.000000 -1.000000 -0.000000
vn 0.000000 0.000000 -1.000000
vn 0.000000 0.000000 -1.000000
vn 0.000000 0.000000 -1.000000
vn 0.000000 0.000000 -1.000000
vn 0.000000 0.000000 1.000000
vn 0.000000 0.000000 1.000000
vn 0.000000 0.000000 1.000000
vn 0.000000 0.000000 1.000000
vn 1.000000 -0.000000 0.000000
vn 1.000000 -0.000000 0.000000
vn 1.000000 -0.000000 0.000000
vn 1.000000 -0.000000 0.000000
vn -1.000000 0.000000 0.000000
vn -1.000000 0.000000 0.000000
vn -1.000000 0.000000 0.000000
vn -1.000000 0.000000 0.000000
vn -1.000000 0.000000 0.000000
vn -1.000000 0.000000 0.000000
vn -1.000000 -0.000000 0.000000
vn -1.000000 -0.000000 0.000000
vn -1.000000 -0.000000 0.000000
vn -1.000000 -0.000000 0.000000
vn -1.000000 -0.000000 0.000000
vn -1.000000 -0.000000 0.000000
vn -1.000000 -0.000000 0.000000
vn 1.000000 -0.000000 -0.000000
vn 1.000000 -0.000000 -0.000000
vn 1.000000 -0.000000 -0.000000
vn 1.000000 -0.000000 -0.000000
vn 1.000000 -0.000000 0.000000
vn 1.000000 -0.000000 -0.000000
vn 1.000000 -0.000000 -0.000000
vn 1.000000 -0.000000 0.000000
vn -1.000000 -0.000000 0.000000
vn -1.000000 0.000000 0.000000
vn -1.000000 0.000000 0.000000
vn -1.000000 -0.000000 0.000000
vn -1.000000 0.000000 0.000000
vn -1.000000 -0.000000 0.000000
vn -1.000000 -0.000000 0.000000
vn -1.000000 0.000000 0.000000
vn 1.000000 -0.000000 -0.000000
vn 1.000000 -0.000000 0.000000
vn 1.000000 -0.000000 0.000000
vn 1.000000 -0.000000 -0.000000
s off
f 1/1/1 8/2/2 3/3/3 2/4/4
f 6/5/5 4/6/6 18/27/7 17/25/8 5/7/9 7/8/10 19/29/11 20/31/12 21/33/13
f 9/9/14 10/10/15 11/11/16 12/12/17
f 14/13/18 13/14/19 15/15/20 16/16/21
f 11/11/22 16/16/23 15/15/24 12/12/25
f 10/10/26 9/9/27 13/14/28 14/13/29
f 2/17/30 3/18/31 11/11/32 10/10/33
f 5/19/34 17/26/35 18/28/36 4/20/37 9/9/38 12/12/39
f 15/15/40 13/14/41 6/21/42 21/34/43 20/32/44 19/30/45 7/22/46
f 8/23/47 1/24/48 14/13/49 16/16/50
f 3/18/51 8/23/52 16/16/53 11/11/54
f 7/22/55 5/19/56 12/12/57 15/15/58
f 4/20/59 6/21/60 13/14/61 9/9/62
f 1/24/63 2/17/64 10/10/65 14/13/66
