# This file uses centimeters as units for non-parametric coordinates.

v -3.055263 -16.548538 43.123627
v -3.055263 16.548538 43.123627
v -3.055263 16.548538 -43.123627
v -8.084869 16.548538 43.123627
v -8.084869 16.548538 -43.123627
v -8.084869 -16.548538 43.123627
v -8.084869 -16.548538 -43.123627
v -3.055263 -16.548538 -43.123627
v -8.084869 20.213699 46.788788
v -3.055263 20.213699 46.788788
v -3.055263 20.213699 -45.244980
v -8.084869 20.213699 -45.244980
v -8.084869 -20.213699 46.788788
v -3.055263 -20.213699 46.788788
v -8.084869 -20.213699 -46.788788
v -3.055263 -20.213699 -46.788788
v -8.084869 16.548538 21.035957
v -8.084869 17.760086 17.798615
v -8.084869 16.548538 13.744736
v -8.084869 -16.548347 -23.951721
v -8.084869 -17.617989 -20.395851
v -8.084869 -16.548347 -11.157227
v -8.084869 -7.347059 43.605804
v -8.084869 -4.025745 43.123627
v -3.055263 19.036293 -46.788788
v -8.084869 18.879318 -46.788788
vt 0.009139 0.992896
vt 0.009138 0.992648
vt 0.009138 0.992127
vt 0.009139 0.992369
vt 0.497415 0.675749
vt 0.497415 0.745944
vt 0.314494 0.745944
vt 0.314494 0.675749
vt 0.399233 0.687837
vt 0.399203 0.687851
vt 0.397032 0.687804
vt 0.397062 0.687790
vt 0.399203 0.686704
vt 0.399233 0.686690
vt 0.397023 0.686642
vt 0.396992 0.686656
vt 0.399116 0.687745
vt 0.397095 0.687702
vt 0.397125 0.687688
vt 0.399146 0.687731
vt 0.399146 0.686792
vt 0.397125 0.686748
vt 0.397095 0.686762
vt 0.399116 0.686806
vt 0.450569 0.745944
vt 0.398629 0.687720
vt 0.443704 0.748513
vt 0.398551 0.687753
vt 0.435106 0.745944
vt 0.398458 0.687716
vt 0.355156 0.675749
vt 0.397574 0.686758
vt 0.362697 0.673480
vt 0.397654 0.686729
vt 0.382291 0.675749
vt 0.397874 0.686765
vt 0.399158 0.687053
vt 0.498438 0.695264
vt 0.399146 0.687147
vt 0.497415 0.702308
vt 0.396992 0.687770
vt 0.397023 0.687751
vn 1.000000 0.000000 -0.000000
vn 1.000000 0.000000 -0.000000
vn 1.000000 0.000000 -0.000000
vn 1.000000 0.000000 -0.000000
vn -1.000000 0.000000 0.000000
vn -1.000000 0.000000 0.000000
vn -1.000000 0.000000 0.000000
vn -1.000000 0.000000 0.000000
vn -1.000000 0.000000 0.000000
vn -1.000000 0.000000 0.000000
vn -1.000000 0.000000 0.000000
vn -1.000000 0.000000 0.000000
vn -1.000000 0.000000 0.000000
vn -1.000000 0.000000 0.000000
vn -1.000000 0.000000 0.000000
vn -1.000000 0.000000 0.000000
vn 0.000000 1.000000 0.000000
vn 0.000000 1.000000 0.000000
vn 0.000000 1.000000 0.000000
vn 0.000000 1.000000 0.000000
vn 0.000000 -1.000000 -0.000000
vn 0.000000 -1.000000 -0.000000
vn 0.000000 -1.000000 -0.000000
vn 0.000000 -1.000000 -0.000000
vn -0.012111 0.775734 -0.630944
vn -0.012111 0.775734 -0.630944
vn -0.012111 0.775734 -0.630944
vn -0.012111 0.775734 -0.630944
vn 0.000000 0.000000 1.000000
vn 0.000000 0.000000 1.000000
vn 0.000000 0.000000 1.000000
vn 0.000000 0.000000 1.000000
vn 1.000000 -0.000000 0.000000
vn 1.000000 -0.000000 0.000000
vn 1.000000 -0.000000 0.000000
vn 1.000000 -0.000000 0.000000
vn -1.000000 -0.000000 0.000000
vn -1.000000 -0.000000 0.000000
vn -1.000000 -0.000000 0.000000
vn -1.000000 0.000000 0.000000
vn -1.000000 0.000000 0.000000
vn -1.000000 0.000000 0.000000
vn 1.000000 0.000000 -0.000000
vn 1.000000 0.000000 -0.000000
vn 1.000000 0.000000 -0.000000
vn 1.000000 0.000000 -0.000000
vn 1.000000 -0.000000 0.000000
vn 1.000000 0.000000 -0.000000
vn 1.000000 0.000000 -0.000000
vn 1.000000 0.000000 0.000000
vn 1.000000 -0.000000 0.000000
vn -1.000000 0.000000 0.000000
vn -1.000000 -0.000000 0.000000
vn -1.000000 -0.000000 0.000000
vn -1.000000 0.000000 0.000000
vn -1.000000 0.000000 0.000000
vn -1.000000 0.000000 0.000000
vn -1.000000 0.000000 0.000000
vn -1.000000 0.000000 0.000000
vn -1.000000 0.000000 0.000000
vn 1.000000 0.000000 -0.000000
vn 1.000000 -0.000000 0.000000
vn 1.000000 -0.000000 0.000000
vn 1.000000 0.000000 -0.000000
vn -1.000000 0.000001 0.000000
vn -1.000000 0.000001 0.000000
vn -1.000000 0.000001 0.000000
vn -1.000000 0.000000 0.000000
vn -1.000000 0.000000 0.000000
vn -1.000000 0.000000 0.000000
vn -1.000000 0.000000 0.000000
vn -1.000000 0.000000 0.000000
vn -1.000000 0.000000 0.000000
vn -1.000000 -0.000001 0.000000
vn -1.000000 -0.000001 0.000000
vn -1.000000 -0.000001 0.000000
vn -1.000000 -0.000000 0.000000
vn -1.000000 -0.000000 0.000000
vn -1.000000 -0.000000 0.000000
vn -1.000000 0.000000 0.000000
vn -1.000000 0.000000 0.000000
vn -1.000000 0.000000 0.000000
vn -1.000000 -0.000000 0.000000
vn -1.000000 -0.000000 0.000000
vn -1.000000 -0.000000 0.000000
vn -1.000000 -0.000000 0.000000
vn 0.000000 0.000000 -1.000000
vn 0.000000 0.000000 -1.000000
vn 0.000000 0.000000 -1.000000
vn 0.000000 0.000000 -1.000000
vn -1.000000 -0.000000 0.000000
vn -1.000000 0.000000 0.000000
vn -1.000000 0.000000 0.000000
vn -1.000000 -0.000000 0.000000
s off
f 1/1/1 8/2/2 3/3/3 2/4/4
f 6/5/5 23/38/6 24/40/7 4/6/8 17/25/9 18/27/10 19/29/11 5/7/12 7/8/13 20/31/14 21/33/15 22/35/16
f 9/9/17 10/10/18 11/11/19 12/12/20
f 14/13/21 13/14/22 15/15/23 16/16/24
f 11/11/25 25/41/26 26/42/27 12/12/28
f 10/10/29 9/9/30 13/14/31 14/13/32
f 2/17/33 3/18/34 11/11/35 10/10/36
f 5/19/37 19/30/38 12/12/39
f 22/36/40 13/14/41 6/21/42
f 8/23/43 1/24/44 14/13/45 16/16/46
f 3/18/47 8/23/48 16/16/49 25/41/50 11/11/51
f 26/42/52 5/19/53 12/12/54
f 4/20/55 24/39/56 23/37/57 6/21/58 13/14/59 9/9/60
f 1/24/61 2/17/62 10/10/63 14/13/64
f 9/9/65 18/28/66 17/26/67
f 9/9/68 17/26/69 4/20/70
f 12/12/71 18/28/72 9/9/73
f 12/12/74 19/30/75 18/28/76
f 15/15/77 20/32/78 7/22/79
f 15/15/80 21/34/81 20/32/82
f 15/15/83 13/14/84 22/36/85 21/34/86
f 26/42/87 25/41/88 16/16/89 15/15/90
f 7/22/91 5/19/92 26/42/93 15/15/94
