# This file uses centimeters as units for non-parametric coordinates.

v -13.031864 -39.257813 160.366821
v 1.891756 -39.257813 160.366821
v -13.031864 34.669495 160.366821
v 1.891756 34.669495 160.366821
v -13.031864 43.087769 -160.162354
v 1.891756 43.087769 -160.162354
v -13.031864 -36.817551 -160.366821
v 1.891756 -36.817551 -160.366821
v -13.031864 45.856476 -155.546570
v 1.891756 45.856476 -155.546570
v -13.031864 45.242310 153.587341
v 1.891756 45.242310 153.587341
v -13.031864 -45.856476 153.587341
v 1.891756 -45.856476 153.587341
v 1.891756 -43.025208 -152.883911
v -13.031864 -42.992401 -152.883911
vt 0.991541 0.991351
vt 0.991542 0.991351
vt 0.991542 0.991355
vt 0.991541 0.991355
vt 0.991539 0.991363
vt 0.991539 0.991365
vt 0.991539 0.991367
vt 0.991539 0.991366
vt 0.991539 0.991340
vt 0.991539 0.991340
vt 0.991539 0.991339
vt 0.991539 0.991339
vt 0.991543 0.991354
vt 0.991542 0.991354
vt 0.991541 0.991349
vt 0.991542 0.991349
vt 0.991541 0.991340
vt 0.991540 0.991340
vt 0.991539 0.991335
vt 0.991540 0.991335
vt 0.991536 0.991365
vt 0.991535 0.991365
vt 0.991542 0.991365
vt 0.991542 0.991365
vt 0.991542 0.991340
vt 0.991546 0.991340
vt 0.991546 0.991340
vt 0.991546 0.991365
vt 0.991546 0.991365
vt 0.504678 0.147485
vt 0.511221 0.150717
vt 0.996196 0.009047
vt 0.985812 0.001418
vt 0.996196 0.136832
vt 0.985812 0.149970
vt 0.504714 0.014735
vt 0.991540 0.991363
vt 0.991542 0.991340
vt 0.516150 0.004448
vt 0.991540 0.991363
vn 0.000000 0.000000 1.000000
vn 0.000000 0.000000 1.000000
vn 0.000000 0.000000 1.000000
vn 0.000000 0.000000 1.000000
vn 0.000000 0.857535 -0.514426
vn 0.000000 0.857535 -0.514426
vn 0.000000 0.857535 -0.514426
vn 0.000000 0.857535 -0.514426
vn 0.000000 0.002560 -0.999997
vn 0.000000 0.002560 -0.999997
vn 0.000000 0.002560 -0.999997
vn 0.000000 0.002560 -0.999997
vn 0.000000 -0.716592 0.697492
vn 0.000000 -0.716592 0.697492
vn 0.000000 -0.716592 0.697492
vn 0.000000 -0.716592 0.697492
vn 1.000000 0.000000 0.000000
vn 1.000000 0.000000 0.000000
vn 1.000000 0.000000 0.000000
vn 1.000000 0.000000 0.000000
vn 1.000000 0.000000 0.000000
vn 1.000000 0.000000 0.000000
vn 1.000000 0.000000 0.000000
vn 1.000000 0.000000 0.000000
vn 0.000000 0.999998 0.001987
vn 0.000000 0.999998 0.001987
vn 0.000000 0.999998 0.001987
vn 0.000000 0.999998 0.001987
vn 0.000000 0.539770 0.841812
vn 0.000000 0.539770 0.841812
vn 0.000000 0.539770 0.841812
vn 0.000000 0.539770 0.841812
vn -0.000848 -0.770439 -0.637513
vn -0.000848 -0.770439 -0.637513
vn -0.000848 -0.770439 -0.637513
vn -0.000848 -0.770439 -0.637513
vn -1.000000 -0.000000 0.000000
vn -1.000000 -0.000000 0.000000
vn -1.000000 -0.000000 0.000000
vn -1.000000 -0.000000 0.000000
vn -0.001100 -0.999956 -0.009291
vn -0.001100 -0.999956 -0.009291
vn -0.001100 -0.999956 -0.009291
vn -0.001100 -0.999956 -0.009291
vn -1.000000 0.000000 0.000000
vn -1.000000 0.000000 0.000000
vn -1.000000 0.000000 0.000000
vn -1.000000 0.000000 0.000000
vn -1.000000 0.000000 0.000000
vn -1.000000 0.000000 0.000000
vn -1.000000 0.000000 0.000000
vn -1.000000 0.000000 0.000000
s off
f 2/2/1 4/3/2 3/4/3 1/1/4
f 9/5/5 10/6/6 6/7/7 5/8/8
f 7/16/9 5/13/10 6/14/11 8/15/12
f 13/17/13 14/18/14 2/19/15 1/20/16
f 12/28/17 4/29/18 2/23/19 14/24/20 15/38/21 8/25/22 6/26/23 10/27/24
f 10/6/25 9/5/26 11/9/27 12/10/28
f 4/12/29 12/10/30 11/9/31 3/11/32
f 8/22/33 15/37/34 16/40/35 7/21/36
f 9/31/37 5/30/38 7/36/39 16/39/40
f 16/40/41 15/37/42 14/18/43 13/17/44
f 11/35/45 13/33/46 1/32/47 3/34/48
f 9/31/49 16/39/50 13/33/51 11/35/52
