# This file uses centimeters as units for non-parametric coordinates.

v -12.249947 -73.051453 161.674500
v 1.146173 -73.051453 161.674500
v -12.286091 20.530319 164.624023
v -12.286091 16.716766 -164.624023
v 1.109493 20.530319 -164.624023
v -12.286091 -73.051453 -164.624023
v 1.109493 -73.051453 -164.624023
v -12.285900 73.052216 -0.000004
v 1.109898 73.052216 -0.000002
v -12.286091 61.546326 -70.979309
v 1.109219 61.546326 -70.979309
v -12.285805 61.546326 70.979309
v 1.109219 61.546326 70.978546
v -12.286091 34.440613 119.733429
v 1.109493 34.440613 119.732666
v -12.286282 34.440613 -119.733429
v 1.109231 34.440613 -119.733429
v -12.286186 70.911407 -36.184692
v 1.109087 70.911407 -36.184692
v -12.285900 70.911407 36.185074
v 1.109219 70.911407 36.185074
v 1.109767 48.344421 -98.890686
v -12.285805 48.344421 -98.889923
v -12.285805 48.344421 98.890686
v 1.109767 48.344421 98.889923
v -12.286282 25.240517 -142.257690
v 1.108956 25.240517 -142.257690
v -12.286091 25.240517 142.259216
v 1.110041 20.530319 164.624023
v 1.108968 25.240517 142.257690
v -12.285805 56.798553 74.282074
v -8.550549 59.166336 76.667786
v -12.285900 -73.051453 -63.341522
v -12.285900 -73.051453 -28.821754
v -12.285805 -67.898560 -41.712570
v -8.233070 -73.051453 -41.436005
v -12.286091 -69.515228 164.624023
v 1.110041 -69.841766 164.624023
v -7.833719 20.530319 -164.624023
v -12.286186 21.107674 -161.883545
vt 0.992879 0.992836
vt 0.992831 0.992834
vt 0.992879 0.993030
vt 0.993036 0.993207
vt 0.992988 0.993207
vt 0.992988 0.993243
vt 0.991813 0.992289
vt 0.993036 0.993151
vt 0.992988 0.993151
vt 0.993036 0.993109
vt 0.992988 0.993109
vt 0.993036 0.993051
vt 0.992988 0.993051
vt 0.993036 0.992978
vt 0.992988 0.992978
vt 0.993036 0.992902
vt 0.992988 0.992902
vt 0.993036 0.992827
vt 0.992988 0.992827
vt 0.993036 0.992754
vt 0.992988 0.992754
vt 0.993055 0.992695
vt 0.993007 0.992695
vt 0.993070 0.992648
vt 0.993022 0.992648
vt 0.993055 0.992628
vt 0.993043 0.992629
vt 0.992889 0.993055
vt 0.992937 0.993062
vt 0.992937 0.992867
vt 0.992889 0.992867
vt 0.992981 0.992563
vt 0.992934 0.992563
vt 0.992933 0.993245
vt 0.992981 0.993245
vt 0.992953 0.993171
vt 0.992860 0.992558
vt 0.992525 0.992559
vt 0.992508 0.992605
vt 0.992475 0.992652
vt 0.992425 0.992696
vt 0.992378 0.992754
vt 0.992344 0.992827
vt 0.992336 0.992902
vt 0.992344 0.992977
vt 0.992377 0.993050
vt 0.992424 0.993108
vt 0.992474 0.993151
vt 0.502774 0.745799
vt 0.991019 0.745801
vt 0.995433 0.885827
vt 0.961965 0.892875
vt 0.928261 0.906641
vt 0.897074 0.927445
vt 0.855310 0.947199
vt 0.803247 0.961213
vt 0.749103 0.964415
vt 0.694959 0.961213
vt 0.642897 0.947199
vt 0.601133 0.927445
vt 0.569945 0.906641
vt 0.536241 0.892875
vt 0.502759 0.880292
vt 0.992855 0.992933
vt 0.992952 0.992937
vt 0.992713 0.993044
vt 0.860252 0.940095
vt 0.993040 0.992742
vt 0.992592 0.992564
vt 0.992502 0.992503
vt 0.992652 0.992452
vt 0.992144 0.992833
vt 0.992933 0.993033
vt 0.654325 0.745799
vt 0.992933 0.992961
vt 0.705978 0.745799
vt 0.992345 0.992786
vt 0.686689 0.753511
vt 0.992941 0.993030
vt 0.991962 0.992727
vt 0.992342 0.992593
vt 0.992980 0.992662
vt 0.992879 0.992842
vt 0.995433 0.751091
vt 0.992832 0.992838
vt 0.992863 0.993235
vt 0.993020 0.993243
vt 0.992905 0.993062
vt 0.993036 0.993238
vt 0.506876 0.886691
vt 0.992494 0.992210
vt 0.992199 0.992991
vn -0.000017 0.000000 1.000000
vn -0.000017 0.000000 1.000000
vn -0.000000 0.000000 1.000000
vn -0.000000 0.000000 1.000000
vn -0.413128 0.482365 -0.772430
vn -0.413128 0.482365 -0.772430
vn 0.000000 0.978537 -0.206071
vn 0.000000 -1.000000 0.000000
vn 0.000000 -1.000000 0.000000
vn 0.000000 -1.000000 0.000000
vn -0.000000 0.998255 0.059045
vn -0.000000 0.998255 0.059045
vn -0.000000 0.998255 0.059045
vn -0.000000 0.998255 0.059045
vn 0.000000 0.965631 -0.259917
vn 0.000000 0.965631 -0.259917
vn 0.000000 0.965631 -0.259917
vn 0.000000 0.965631 -0.259917
vn -0.000000 0.922504 0.385987
vn 0.000000 0.903982 0.427571
vn 0.000000 0.903982 0.427571
vn -0.000000 0.925757 0.378119
vn -0.000000 0.925757 0.378119
vn -0.000000 0.925757 0.378119
vn -0.000000 0.925757 0.378119
vn 0.000000 0.903982 -0.427571
vn 0.000000 0.903982 -0.427571
vn 0.000000 0.903982 -0.427571
vn 0.000000 0.903982 -0.427571
vn 0.000000 0.998255 -0.059045
vn 0.000000 0.998255 -0.059045
vn 0.000000 0.998255 -0.059045
vn 0.000000 0.998255 -0.059045
vn 0.000001 0.965631 0.259917
vn 0.000001 0.965631 0.259917
vn 0.000001 0.965631 0.259917
vn 0.000001 0.965631 0.259917
vn 0.000000 0.831894 -0.554935
vn 0.000000 0.831894 -0.554935
vn 0.000000 0.831894 -0.554935
vn 0.000000 0.831894 -0.554935
vn -0.000000 0.831894 0.554935
vn -0.000000 0.831894 0.554935
vn -0.000000 0.831894 0.554935
vn -0.000000 0.831894 0.554935
vn 0.000000 0.925757 -0.378119
vn 0.000000 0.925757 -0.378119
vn 0.000000 0.925757 -0.378119
vn 0.000000 0.925757 -0.378119
vn -1.000000 0.000000 -0.000000
vn -0.999953 -0.002260 -0.009471
vn -1.000000 0.000000 -0.000000
vn -1.000000 0.000000 -0.000000
vn -1.000000 0.000000 -0.000000
vn -1.000000 0.000000 -0.000000
vn -1.000000 0.000000 0.000001
vn -1.000000 0.000000 -0.000000
vn -1.000000 0.000000 -0.000000
vn 1.000000 0.000000 0.000000
vn 1.000000 0.000000 0.000000
vn 1.000000 0.000000 0.000000
vn 1.000000 0.000000 0.000000
vn 1.000000 0.000000 0.000000
vn 1.000000 0.000000 0.000000
vn 1.000000 0.000000 0.000000
vn 1.000000 0.000146 -0.000003
vn 1.000000 0.000000 0.000000
vn 1.000000 0.000000 0.000000
vn 1.000000 0.000000 0.000000
vn 1.000000 0.000000 0.000000
vn 1.000000 0.000000 0.000000
vn 1.000000 0.000000 0.000000
vn 1.000000 0.000000 0.000000
vn 1.000000 0.000000 0.000000
vn -0.000000 0.978537 0.206071
vn -0.000000 0.978537 0.206071
vn -0.000000 0.978537 0.206071
vn -0.000000 0.978537 0.206071
vn -1.000000 0.000000 -0.000000
vn -1.000000 0.000000 -0.000000
vn -1.000000 0.000000 -0.000000
vn -1.000000 0.000000 -0.000000
vn -1.000000 0.000000 -0.000000
vn -1.000000 0.000000 -0.000000
vn -0.663221 0.427500 0.614314
vn -0.663221 0.427500 0.614314
vn -1.000000 0.000000 -0.000000
vn -1.000000 0.000000 -0.000000
vn -1.000000 -0.000347 -0.000126
vn -1.000000 0.000000 -0.000000
vn -1.000000 0.000000 -0.000000
vn -1.000000 0.000000 -0.000000
vn -1.000000 0.000000 -0.000000
vn -1.000000 0.000000 -0.000000
vn -1.000000 0.000000 -0.000000
vn -1.000000 0.000000 -0.000000
vn -1.000000 0.000000 -0.000000
vn -1.000000 0.000000 -0.000000
vn -1.000000 0.000000 -0.000000
vn -1.000000 0.000000 -0.000000
vn -1.000000 0.000000 -0.000000
vn -1.000000 0.000000 -0.000000
vn -1.000000 0.000000 -0.000000
vn -1.000000 0.000000 -0.000000
vn -1.000000 0.000000 -0.000000
vn -1.000000 0.000000 -0.000000
vn -1.000000 0.000000 -0.000000
vn -1.000000 0.000000 -0.000000
vn -1.000000 -0.000342 -0.000126
vn -0.628010 0.735982 0.252853
vn -1.000000 0.000000 -0.000000
vn -0.628010 0.735982 0.252853
vn 0.029057 0.903600 0.427391
vn 0.000000 0.903982 0.427571
vn 0.000000 0.903982 0.427571
vn 0.000000 0.903982 0.427571
vn 0.000000 0.903982 0.427571
vn 0.000015 0.899067 0.437811
vn 0.000000 -1.000000 0.000000
vn 0.000002 -1.000000 0.000002
vn 0.000000 -1.000000 0.000000
vn -0.756112 -0.607693 -0.242907
vn -0.756112 -0.607693 -0.242907
vn -0.756112 -0.607693 -0.242907
vn -0.781492 -0.606931 0.144584
vn -0.781492 -0.606931 0.144584
vn -0.781492 -0.606931 0.144584
vn 0.000000 -1.000000 0.000000
vn -0.000010 -1.000000 -0.000010
vn -0.000010 -1.000000 -0.000010
vn 0.000000 -1.000000 0.000000
vn 0.000000 -1.000000 0.000000
vn 0.000000 -1.000000 0.000000
vn 0.000000 -1.000000 0.000000
vn 0.000000 -1.000000 0.000000
vn 0.000002 -1.000000 0.000002
vn -1.000000 -0.000005 -0.000010
vn -1.000000 0.000000 -0.000000
vn -1.000000 -0.000005 -0.000010
vn -1.000000 -0.000003 0.000013
vn -1.000000 0.000000 -0.000000
vn -1.000000 -0.000003 0.000013
vn -1.000000 0.000000 -0.000000
vn -1.000000 0.000000 -0.000000
vn -1.000000 -0.000041 0.000188
vn -0.000000 0.000000 1.000000
vn -0.000000 0.000000 1.000000
vn -0.008019 -0.658227 0.752777
vn -0.008019 -0.658227 0.752777
vn -1.000000 0.000000 -0.000000
vn -1.000000 0.000000 -0.000003
vn -1.000000 0.000000 -0.000000
vn -0.000041 0.000000 -1.000000
vn -0.000041 0.000000 -1.000000
vn 0.000000 0.000000 -1.000000
vn -1.000000 0.000000 -0.000000
vn -1.000000 0.000000 -0.000000
vn -1.000000 0.000007 -0.000004
vn 0.000000 0.978537 -0.206071
vn 0.000000 0.978537 -0.206071
vn 0.000000 0.978537 -0.206071
vn -0.000003 0.978534 -0.206084
vn -1.000000 0.000000 -0.000000
vn -1.000000 0.000000 -0.000114
vn -1.000000 0.000000 -0.000114
vn 0.000000 0.000000 -1.000000
vn 0.000068 -0.000002 -1.000000
vn 0.000000 0.000000 -1.000000
vn 0.000000 0.000000 -1.000000
vn 0.000000 0.978537 -0.206071
vn 0.000000 0.978544 -0.206040
vn 0.000000 0.978544 -0.206040
s off
f 37/83/1 38/85/2 29/64/3 3/3/4
f 40/7/5 39/91/6 4/92/7
f 34/75/8 2/32/9 1/33/10
f 20/18/11 21/19/12 9/17/13 8/16/14
f 18/14/15 19/15/16 11/13/17 10/12/18
f 32/68/19 13/21/20 12/20/21
f 15/25/22 14/24/23 28/26/24 30/66/25
f 10/12/26 11/13/27 22/11/28 23/10/29
f 8/16/30 9/17/31 19/15/32 18/14/33
f 12/20/34 13/21/35 21/19/36 20/18/37
f 23/10/38 22/11/39 17/9/40 16/8/41
f 14/24/42 15/25/43 25/23/44 24/22/45
f 16/8/46 17/9/47 27/5/48 26/4/49
f 1/50/50 37/84/51 28/52/52
f 6/49/53 8/57/54 18/58/55
f 33/74/56 8/57/57 6/49/58
f 9/44/59 21/45/60 13/46/61 25/47/62 15/48/63 30/66/64 29/65/65 38/86/66 2/36/67 7/37/68 5/38/69 27/39/70 17/40/71 22/41/72 11/42/73 19/43/74
f 29/65/75 30/66/76 28/26/77 3/27/78
f 1/50/79 28/52/80 14/53/81
f 1/50/82 14/53/83 24/54/84
f 31/69/85 32/70/86 12/71/87
f 1/50/88 31/67/89 12/55/90 20/56/91
f 1/50/92 20/56/93 8/57/94
f 6/49/95 18/58/96 10/59/97
f 6/49/98 10/59/99 23/60/100
f 6/49/101 23/60/102 16/61/103
f 6/49/104 16/61/105 26/62/106
f 1/50/107 24/54/108 31/67/109
f 31/69/110 24/72/111 32/70/112
f 32/68/113 25/23/114 13/21/115
f 24/22/116 25/23/117 32/68/118
f 7/35/119 33/73/120 6/34/121
f 36/77/122 34/80/123 35/81/124
f 33/82/125 36/77/126 35/81/127
f 7/35/128 36/79/129 33/73/130
f 36/79/131 2/32/132 34/75/133
f 7/35/134 2/32/135 36/79/136
f 34/76/137 8/57/138 35/78/139
f 35/78/140 8/57/141 33/74/142
f 1/50/143 8/57/144 34/76/145
f 1/1/146 2/2/147 38/85/148 37/83/149
f 28/52/150 37/84/151 3/51/152
f 4/28/153 39/88/154 6/31/155
f 6/49/156 26/62/157 40/90/158
f 26/4/159 27/5/160 5/6/161 39/87/162
f 6/49/163 40/90/164 4/63/165
f 6/31/166 39/88/167 5/29/168 7/30/169
f 26/4/170 39/87/171 40/89/172
