# This file uses centimeters as units for non-parametric coordinates.

v -500.000763 680.566528 3.062895
v -500.000763 675.000000 -0.056479
v -500.000763 641.384277 7.127741
v -161.220551 673.188660 -2.288839
v 499.999237 680.566528 3.064230
v 500.013733 675.000000 -0.056288
v 499.771118 646.176270 4.899576
v -500.000763 637.500000 -0.056479
v -500.000763 608.317505 7.127741
v -500.000763 600.000000 -0.056526
v -161.220551 635.688660 -2.288839
v 500.013733 637.500000 -0.056288
v 499.900055 605.004028 7.127932
v 499.999237 600.000000 -0.056526
v -500.000763 680.566528 -5.647966
v 500.000000 680.566528 -5.647394
v -0.001526 756.976013 5.335787
v 0.000763 745.763489 -5.648729
v 506.439209 682.936523 11.755922
v 506.436920 682.936523 -9.547731
v 511.395264 701.069885 -9.546206
v 511.394501 701.069885 11.755541
v -0.001526 761.315613 -13.446161
v -0.001526 786.807556 -13.446161
v 0.000000 761.315613 15.653399
v 0.000000 786.807556 15.653399
v -506.439209 682.936768 11.756113
v -506.437683 682.936523 -9.548113
v -511.396027 701.069885 11.756495
v -511.395264 701.069885 -9.547350
v -0.000763 794.037537 20.296267
v 521.429443 702.401611 15.701464
v 521.427917 702.401611 -13.492510
v -0.001526 794.037354 -18.087885
v -521.429443 702.401611 -13.492128
v -521.428711 702.401611 15.702417
v -0.000763 805.575073 20.296267
v 523.376465 713.939758 15.702227
v 523.377197 713.939758 -13.491961
v -0.001526 805.575073 -18.087885
v -523.377991 713.939758 -13.492128
v -523.377991 713.939758 15.702799
v 499.999237 600.000000 -5.647394
v -500.000763 600.000000 -5.647966
v -241.649628 719.896790 5.335882
v 243.120575 720.177002 5.336550
v 268.758392 716.269775 3.063562
v -272.052765 715.263672 3.062799
vt 0.617028 0.771682
vt 0.617028 0.771682
vt 0.617028 0.771682
vt 0.617028 0.771682
vt 0.617028 0.771682
vt 0.570561 0.899659
vt 0.923651 0.906600
vt 0.926501 0.927506
vt 0.616059 0.927509
vt 0.570561 0.927522
vt 0.617028 0.771682
vt 0.617028 0.771682
vt 0.617028 0.771682
vt 0.617028 0.771682
vt 0.617028 0.771682
vt 0.617028 0.771682
vt 0.617028 0.771682
vt 0.617028 0.771682
vt 0.617028 0.771682
vt 0.593245 0.844101
vt 0.925100 0.851042
vt 0.925623 0.871948
vt 0.656785 0.871952
vt 0.593245 0.871965
vt 0.584290 0.819474
vt 0.934015 0.819474
vt 0.759152 0.843655
vt 0.211151 0.278053
vt 0.211151 0.278053
vt 0.211151 0.278053
vt 0.211151 0.278053
vt 0.211151 0.278053
vt 0.211151 0.278053
vt 0.211151 0.278053
vt 0.211151 0.278053
vt 0.211151 0.278053
vt 0.211151 0.278053
vt 0.211151 0.278053
vt 0.211151 0.278053
vt 0.211151 0.278053
vt 0.211151 0.278053
vt 0.211151 0.278053
vt 0.211151 0.278053
vt 0.211151 0.278053
vt 0.211151 0.278053
vt 0.211151 0.278053
vt 0.211151 0.278053
vt 0.211151 0.278053
vt 0.211151 0.278053
vt 0.211151 0.278053
vt 0.211151 0.278053
vt 0.211151 0.278053
vt 0.211151 0.278053
vt 0.211151 0.278053
vt 0.211151 0.278053
vt 0.211151 0.278053
vt 0.211151 0.278053
vt 0.532922 0.482295
vt 0.533084 0.482295
vt 0.533097 0.481263
vt 0.532922 0.482295
vt 0.533084 0.482295
vt 0.532909 0.481159
vt 0.211151 0.278053
vt 0.674297 0.831921
vt 0.843366 0.832010
vt 0.211151 0.278053
vt 0.852308 0.830773
vt 0.211151 0.278053
vt 0.211151 0.278053
vt 0.663694 0.830455
vt 0.563765 0.796700
vt 0.538412 0.796568
vt 0.539612 0.796237
vt 0.562337 0.796296
vn 0.003135 -0.488853 0.872361
vn 0.003135 -0.488853 0.872361
vn 0.003135 -0.488853 0.872361
vn 0.000650 0.230670 0.973032
vn 0.000650 0.230670 0.973032
vn 0.000650 0.230670 0.973032
vn 0.000650 0.230670 0.973032
vn 0.000650 0.230670 0.973032
vn -0.001215 -0.733328 0.679874
vn -0.001215 -0.733328 0.679874
vn -0.001215 -0.733328 0.679874
vn -0.001215 -0.733328 0.679874
vn 0.002120 -0.707101 0.707109
vn 0.002120 -0.707101 0.707109
vn 0.002120 -0.707101 0.707109
vn 0.002120 -0.707101 0.707109
vn 0.002120 -0.707101 0.707109
vn -0.003888 0.215879 0.976412
vn -0.003888 0.215879 0.976413
vn -0.003888 0.215879 0.976412
vn -0.000001 0.000012 1.000000
vn -0.000001 0.000012 1.000000
vn -0.000001 0.000012 1.000000
vn 0.964611 -0.263678 -0.000035
vn 0.964611 -0.263678 -0.000035
vn 0.964611 -0.263678 -0.000035
vn 0.964611 -0.263678 -0.000035
vn 0.007529 -0.000821 -0.999971
vn 0.007529 -0.000821 -0.999971
vn 0.007529 -0.000821 -0.999971
vn 0.007529 -0.000821 -0.999971
vn 0.007522 -0.000846 0.999971
vn 0.007522 -0.000846 0.999971
vn 0.007522 -0.000846 0.999971
vn 0.007522 -0.000846 0.999971
vn -0.964605 -0.263700 -0.000051
vn -0.964605 -0.263700 -0.000051
vn -0.964605 -0.263700 -0.000051
vn -0.964605 -0.263700 -0.000051
vn -0.007518 -0.000863 0.999971
vn -0.007518 -0.000863 0.999971
vn -0.007518 -0.000863 0.999971
vn -0.007518 -0.000863 0.999971
vn -0.007525 -0.000838 -0.999971
vn -0.007525 -0.000838 -0.999971
vn -0.007525 -0.000838 -0.999971
vn -0.007525 -0.000838 -0.999971
vn 0.345457 -0.938434 -0.000017
vn 0.345457 -0.938434 -0.000017
vn 0.345457 -0.938434 -0.000017
vn 0.345457 -0.938434 -0.000017
vn -0.071889 -0.526931 -0.846862
vn -0.071889 -0.526931 -0.846862
vn -0.071889 -0.526931 -0.846862
vn -0.071889 -0.526931 -0.846862
vn -0.139952 -0.923854 0.356241
vn -0.139952 -0.923854 0.356241
vn -0.139952 -0.923854 0.356241
vn -0.139952 -0.923854 0.356241
vn -0.139952 -0.923854 0.356241
vn -0.139952 -0.923854 0.356241
vn 0.172461 0.985016 -0.000001
vn 0.172461 0.985016 -0.000001
vn 0.172461 0.985016 -0.000001
vn 0.172461 0.985016 -0.000001
vn -0.345503 -0.938418 -0.000014
vn -0.345503 -0.938418 -0.000014
vn -0.345503 -0.938418 -0.000014
vn -0.345503 -0.938418 -0.000014
vn 0.138422 -0.915209 0.378459
vn 0.138422 -0.915209 0.378459
vn 0.138422 -0.915209 0.378459
vn 0.138422 -0.915209 0.378459
vn 0.138422 -0.915209 0.378459
vn 0.138422 -0.915209 0.378459
vn 0.071888 -0.526917 -0.846871
vn 0.071888 -0.526917 -0.846871
vn 0.071888 -0.526917 -0.846871
vn 0.071888 -0.526917 -0.846871
vn -0.172461 0.985016 0.000002
vn -0.172461 0.985016 0.000002
vn -0.172461 0.985016 0.000002
vn -0.172461 0.985016 0.000002
vn -0.103847 -0.641097 0.760402
vn -0.103847 -0.641097 0.760402
vn -0.103847 -0.641097 0.760402
vn -0.103847 -0.641097 0.760402
vn 0.131568 -0.991307 -0.000002
vn 0.131568 -0.991307 -0.000002
vn 0.131568 -0.991307 -0.000002
vn 0.131568 -0.991307 -0.000002
vn -0.103843 -0.641085 -0.760412
vn -0.103843 -0.641085 -0.760412
vn -0.103843 -0.641085 -0.760412
vn -0.103843 -0.641085 -0.760412
vn 0.103830 -0.641010 -0.760477
vn 0.103830 -0.641010 -0.760477
vn 0.103830 -0.641010 -0.760477
vn 0.103830 -0.641010 -0.760477
vn -0.131574 -0.991306 0.000000
vn -0.131574 -0.991306 0.000000
vn -0.131574 -0.991306 0.000000
vn -0.131574 -0.991306 0.000000
vn 0.103849 -0.641099 0.760399
vn 0.103849 -0.641099 0.760400
vn 0.103849 -0.641099 0.760399
vn 0.103849 -0.641099 0.760399
vn 0.008660 -0.000764 0.999962
vn 0.008660 -0.000764 0.999962
vn 0.008660 -0.000764 0.999962
vn 0.008660 -0.000764 0.999962
vn 0.986044 -0.166488 -0.000013
vn 0.986044 -0.166488 -0.000013
vn 0.986044 -0.166488 -0.000013
vn 0.986044 -0.166488 -0.000013
vn 0.008672 -0.000709 -0.999962
vn 0.008672 -0.000709 -0.999962
vn 0.008672 -0.000709 -0.999962
vn 0.008672 -0.000709 -0.999962
vn -0.008669 -0.000732 -0.999962
vn -0.008669 -0.000732 -0.999962
vn -0.008669 -0.000732 -0.999962
vn -0.008669 -0.000732 -0.999962
vn -0.986032 -0.166553 0.000013
vn -0.986032 -0.166553 0.000013
vn -0.986032 -0.166553 0.000013
vn -0.986032 -0.166553 0.000013
vn -0.008662 -0.000748 0.999962
vn -0.008662 -0.000748 0.999962
vn -0.008662 -0.000748 0.999962
vn -0.008662 -0.000748 0.999962
vn -0.000002 0.000000 -1.000000
vn -0.000002 0.000000 -1.000000
vn -0.000002 0.000000 -1.000000
vn 0.000003 -0.000000 -1.000000
vn 0.000003 -0.000000 -1.000000
vn 0.000003 -0.000000 -1.000000
vn 0.000001 -0.000007 -1.000000
vn 0.000001 -0.000007 -1.000000
vn 0.000001 -0.000007 -1.000000
vn -0.000001 -0.587205 0.809438
vn -0.000001 -0.587205 0.809439
vn -0.000001 -0.587205 0.809438
vn -0.001606 -0.488995 0.872285
vn -0.001606 -0.488995 0.872285
vn -0.001606 -0.488995 0.872285
vn 0.001040 0.313788 0.949493
vn 0.001040 0.313788 0.949493
vn 0.001040 0.313788 0.949493
vn 0.007676 0.239038 0.970980
vn 0.007676 0.239038 0.970980
vn 0.007676 0.239038 0.970980
vn -0.000001 0.000011 1.000000
vn -0.000001 0.000011 1.000000
vn -0.000001 0.000011 1.000000
vn -0.000001 0.000011 1.000000
vn 0.000588 -0.470132 0.882596
vn 0.000588 -0.470132 0.882596
vn 0.000588 -0.470132 0.882596
vn 0.000588 -0.470132 0.882596
s off
f 4/1/1 1/4/2 2/5/3
f 3/6/4 7/7/5 6/8/6 4/9/7 2/10/8
f 9/11/9 10/12/10 14/13/11 13/14/12
f 11/15/13 12/16/14 7/17/15 3/18/16 8/19/17
f 11/23/18 13/21/19 12/22/20
f 45/65/21 46/66/22 17/27/23
f 19/28/24 20/29/25 21/30/26 22/31/27
f 20/29/28 23/32/29 24/33/30 21/30/31
f 25/34/32 19/28/33 22/31/34 26/35/35
f 28/36/36 27/37/37 29/38/38 30/39/39
f 27/37/40 25/34/41 26/35/42 29/38/43
f 23/32/44 28/36/45 30/39/46 24/33/47
f 5/40/48 16/41/49 20/29/50 19/28/51
f 16/41/52 18/42/53 23/32/54 20/29/55
f 17/43/56 46/67/57 47/69/58 5/40/59 19/28/60 25/34/61
f 39/46/62 40/47/63 37/44/64 38/45/65
f 15/48/66 1/49/67 27/37/68 28/36/69
f 1/49/70 48/70/71 45/64/72 17/43/73 25/34/74 27/37/75
f 18/42/76 15/48/77 28/36/78 23/32/79
f 40/47/80 41/50/81 42/51/82 37/44/83
f 26/35/84 22/31/85 32/52/86 31/53/87
f 22/31/88 21/30/89 33/54/90 32/52/91
f 21/30/92 24/33/93 34/55/94 33/54/95
f 24/33/96 30/39/97 35/56/98 34/55/99
f 30/39/100 29/38/101 36/57/102 35/56/103
f 29/38/104 26/35/105 31/53/106 36/57/107
f 31/53/108 32/52/109 38/45/110 37/44/111
f 32/52/112 33/54/113 39/46/114 38/45/115
f 33/54/116 34/55/117 40/47/118 39/46/119
f 34/55/120 35/56/121 41/50/122 40/47/123
f 35/56/124 36/57/125 42/51/126 41/50/127
f 36/57/128 31/53/129 37/44/130 42/51/131
f 15/61/132 18/62/133 44/63/134
f 18/58/135 16/59/136 43/60/137
f 44/63/138 18/58/139 43/60/140
f 4/1/141 5/3/142 1/4/143
f 4/1/144 6/2/145 5/3/146
f 9/20/147 13/21/148 11/23/149
f 9/20/150 11/23/151 8/24/152
f 1/25/153 5/26/154 47/68/155 48/71/156
f 48/72/157 47/73/158 46/74/159 45/75/160
