# This file uses centimeters as units for non-parametric coordinates.

v -11.140156 -48.327255 125.537872
v 0.000000 -48.327255 125.537872
v -11.140156 45.360947 125.537872
v 0.000000 45.360947 125.537872
v -11.140156 48.408127 -125.537872
v 0.000000 48.408127 -125.537872
v -11.140156 -48.327255 -125.537872
v 0.000000 -48.327255 -125.537872
v -11.140156 53.253174 -117.242432
v 0.000000 53.253174 -117.242432
v -11.140156 53.253174 117.298126
v 0.000000 53.253174 117.298126
v 0.000000 -53.253174 -117.242432
v -11.140156 -53.253174 -117.242432
v -11.140156 -53.253174 117.298126
v 0.000000 -53.253174 117.298126
v -11.140156 48.950195 123.677826
v -0.000000 48.976135 123.588562
v -11.140156 53.253174 -9.959888
v -11.140156 49.863815 -29.152489
v -11.140156 53.253174 -38.049316
v 0.000000 53.253174 -25.550079
v -6.996298 53.253174 -25.144386
v -11.140156 1.263368 125.537872
v -5.365324 -10.778522 125.537872
v -11.140156 -28.964615 125.537872
v -11.140156 -9.737587 123.123932
v 0.000000 -53.253174 26.745415
v -11.140156 -53.253174 28.731728
v 0.000000 -49.337769 50.466156
v -7.787371 -48.526764 51.597214
v 0.000000 -53.253174 77.619934
v -11.140156 -53.253174 85.330200
v -11.140156 -44.934082 51.201248
v 0.000000 -2.383041 -123.672485
v -11.140156 -0.154838 -123.672485
vt 0.023002 0.383796
vt 0.023564 0.383796
vt 0.023564 0.388526
vt 0.023002 0.388526
vt 0.021162 0.391631
vt 0.021725 0.391631
vt 0.021725 0.392011
vt 0.021162 0.392011
vt 0.021162 0.379788
vt 0.021725 0.379788
vt 0.021163 0.379436
vt 0.021725 0.379436
vt 0.022890 0.389322
vt 0.022328 0.389322
vt 0.022328 0.384438
vt 0.022890 0.384438
vt 0.022367 0.379756
vt 0.021805 0.379756
vt 0.021805 0.379333
vt 0.022367 0.379333
vt 0.022367 0.391598
vt 0.021805 0.391598
vt 0.022367 0.391991
vt 0.021805 0.391991
vt 0.022716 0.391931
vt 0.022467 0.391515
vt 0.022467 0.379672
vt 0.022716 0.379254
vt 0.027600 0.379254
vt 0.027845 0.379672
vt 0.027845 0.391515
vt 0.027446 0.391931
vt 0.028322 0.314236
vt 0.043027 0.305504
vt 0.458776 0.305504
vt 0.473383 0.314236
vt 0.473383 0.480309
vt 0.458776 0.494299
vt 0.043027 0.494299
vt 0.028322 0.485711
vt 0.470085 0.486672
vt 0.021163 0.379509
vt 0.021725 0.379514
vt 0.027629 0.391833
vt 0.021162 0.386214
vt 0.233197 0.494299
vt 0.991239 0.992020
vt 0.199176 0.488291
vt 0.021162 0.387632
vt 0.183406 0.494299
vt 0.021725 0.387001
vt 0.027845 0.384302
vt 0.021372 0.386980
vt 0.990450 0.991745
vt 0.991057 0.991628
vt 0.992366 0.992044
vt 0.473383 0.402141
vt 0.023002 0.386300
vt 0.992020 0.993530
vt 0.023294 0.385692
vt 0.473383 0.348559
vt 0.023002 0.384773
vt 0.469104 0.382641
vt 0.991722 0.993083
vt 0.992565 0.993023
vt 0.992020 0.992327
vt 0.021805 0.384328
vt 0.022467 0.386943
vt 0.301783 0.305504
vt 0.022367 0.384228
vt 0.993221 0.992487
vt 0.022665 0.388140
vt 0.993225 0.994117
vt 0.992885 0.993878
vt 0.021805 0.381759
vt 0.022467 0.389512
vt 0.402110 0.305504
vt 0.022367 0.381370
vt 0.341612 0.320251
vt 0.992876 0.991632
vt 0.993617 0.992788
vt 0.993712 0.995172
vt 0.993213 0.995059
vt 0.022328 0.386758
vt 0.025035 0.379348
vt 0.031629 0.399627
vt 0.022890 0.386870
vn 0.000000 0.000000 1.000000
vn 0.000000 0.000000 1.000000
vn 0.000000 0.000000 1.000000
vn 0.000000 0.863500 -0.504349
vn 0.000000 0.863500 -0.504349
vn 0.000000 0.863500 -0.504349
vn 0.000000 0.863500 -0.504349
vn -0.003753 -0.037525 -0.999289
vn -0.003753 -0.037525 -0.999289
vn -0.003753 -0.037525 -0.999289
vn -0.003753 -0.037525 -0.999289
vn 0.000000 -0.858327 0.513104
vn 0.000000 -0.858327 0.513104
vn 0.000000 -0.858327 0.513104
vn 0.000000 -0.858327 0.513104
vn 1.000000 0.000000 0.000000
vn 1.000000 0.000000 0.000000
vn 1.000000 0.000000 0.000000
vn 1.000000 0.000000 0.000000
vn 1.000000 0.000000 0.000000
vn 1.000000 0.000000 0.000000
vn 1.000000 0.000000 0.000000
vn 1.000000 0.000000 0.000000
vn 1.000000 0.000000 0.000000
vn 1.000000 0.000000 0.000000
vn 1.000000 0.000000 0.000000
vn 1.000000 0.000000 0.000000
vn 1.000000 0.000000 0.000000
vn 1.000000 0.000000 0.000000
vn 0.000000 1.000000 0.000000
vn 0.000000 1.000000 0.000000
vn 0.000000 1.000000 0.000000
vn 0.000000 1.000000 0.000000
vn 0.001279 0.828015 0.560705
vn 0.001279 0.828014 0.560705
vn 0.001279 0.828015 0.560705
vn 0.001279 0.828014 0.560705
vn 0.000000 -0.859832 -0.510576
vn 0.000000 -0.859832 -0.510576
vn 0.000000 -0.859832 -0.510576
vn 0.000000 -0.859832 -0.510576
vn 0.000000 -1.000000 0.000000
vn 0.000000 -1.000000 0.000000
vn 0.000000 -1.000000 0.000000
vn 0.000000 -1.000000 0.000000
vn -1.000000 0.000000 0.000000
vn -1.000000 0.000000 0.000000
vn -1.000000 0.000000 0.000000
vn -1.000000 0.000000 0.000000
vn 0.002994 0.467446 0.884017
vn 0.002994 0.467446 0.884017
vn 0.002994 0.467446 0.884017
vn 0.002994 0.467446 0.884017
vn 0.000000 1.000000 0.000000
vn 0.000000 1.000000 0.000000
vn 0.000000 1.000000 0.000000
vn -0.742566 0.625891 0.238445
vn -0.742566 0.625891 0.238445
vn -0.742566 0.625891 0.238445
vn 0.000000 1.000000 0.000000
vn 0.000000 1.000000 0.000000
vn 0.000000 1.000000 0.000000
vn 0.000000 1.000000 0.000000
vn 0.000000 1.000000 0.000000
vn 0.000000 1.000000 0.000000
vn 0.000000 1.000000 0.000000
vn -1.000000 0.000000 0.000000
vn -1.000000 0.000000 0.000000
vn -1.000000 0.000000 0.000000
vn -1.000000 0.000000 0.000000
vn -1.000000 0.000000 0.000000
vn -1.000000 0.000000 0.000000
vn -1.000000 0.000000 0.000000
vn -1.000000 0.000000 0.000000
vn -1.000000 0.000000 0.000000
vn -1.000000 0.000000 0.000000
vn -1.000000 0.000000 0.000000
vn -1.000000 0.000000 0.000000
vn -1.000000 0.000000 0.000000
vn -1.000000 0.000000 0.000000
vn -1.000000 0.000000 0.000000
vn -1.000000 -0.000000 0.000000
vn -1.000000 -0.000000 0.000000
vn -1.000000 -0.000000 0.000000
vn -1.000000 0.000000 0.000000
vn -1.000000 0.000000 0.000000
vn -1.000000 0.000000 0.000000
vn -0.537405 0.830474 -0.146658
vn -0.537405 0.830474 -0.146658
vn -0.537405 0.830474 -0.146658
vn 0.000000 0.000000 1.000000
vn 0.000000 0.000000 1.000000
vn 0.000000 0.000000 1.000000
vn 0.000001 0.000000 1.000000
vn 0.000001 0.000000 1.000000
vn 0.000001 0.000000 1.000000
vn 0.000002 0.000000 1.000000
vn 0.000002 0.000000 1.000000
vn 0.000002 0.000000 1.000000
vn -0.000002 0.000000 1.000000
vn -0.000002 0.000000 1.000000
vn -0.000002 0.000000 1.000000
vn -0.408053 -0.195687 0.891739
vn -0.408053 -0.195687 0.891739
vn -0.408053 -0.195687 0.891739
vn -0.365223 0.115974 0.923668
vn -0.365223 0.115974 0.923668
vn -0.365223 0.115974 0.923668
vn -1.000000 0.000000 0.000000
vn -1.000000 0.000000 0.000000
vn -1.000000 0.000000 0.000000
vn -1.000000 0.000000 0.000000
vn -1.000000 0.000000 0.000000
vn -1.000000 0.000000 0.000000
vn -1.000000 0.000000 0.000000
vn -1.000000 0.000000 0.000000
vn -1.000000 0.000000 0.000000
vn -1.000000 0.000000 0.000000
vn -0.011934 -0.983001 0.183214
vn -0.011934 -0.983001 0.183214
vn -0.011934 -0.983001 0.183214
vn -0.011934 -0.983001 0.183214
vn -0.110143 -0.983191 -0.145617
vn -0.110143 -0.983191 -0.145617
vn -0.110143 -0.983191 -0.145617
vn -0.110143 -0.983191 -0.145617
vn 0.000000 -1.000000 0.000000
vn 0.000000 -1.000000 0.000000
vn 0.000000 -1.000000 0.000000
vn 0.000000 -1.000000 0.000000
vn -1.000000 -0.000000 0.000000
vn -1.000000 -0.000000 0.000000
vn -1.000000 -0.000000 0.000000
vn -1.000000 -0.000000 0.000000
vn -0.722801 -0.648063 0.239943
vn -0.722801 -0.648063 0.239943
vn -0.722801 -0.648063 0.239943
vn -0.711690 -0.682510 -0.166366
vn -0.711690 -0.682510 -0.166366
vn -0.711690 -0.682510 -0.166366
vn 0.003962 0.039610 -0.999207
vn 0.003962 0.039610 -0.999207
vn 0.003962 0.039610 -0.999207
vn 0.003962 0.039610 -0.999207
s off
f 24/58/1 4/3/2 3/4/3
f 9/5/4 10/6/5 6/7/6 5/8/7
f 5/13/8 6/14/9 35/84/10 36/87/11
f 15/17/12 16/18/13 2/19/14 1/20/15
f 12/31/16 18/44/17 4/32/18 2/25/19 16/26/20 32/76/21 30/72/22 28/68/23 13/27/24 8/28/25 35/85/26 6/29/27 10/30/28 22/52/29
f 10/6/30 9/5/31 21/49/32 23/53/33
f 17/42/34 18/43/35 12/10/36 11/9/37
f 7/23/38 8/24/39 13/22/40 14/21/41
f 28/67/42 29/70/43 14/21/44 13/22/45
f 20/48/46 17/41/47 11/38/48 19/46/49
f 3/11/50 4/12/51 18/43/52 17/42/53
f 22/51/54 23/53/55 12/10/56
f 23/47/57 21/54/58 20/55/59
f 10/6/60 23/53/61 22/51/62
f 12/10/63 23/53/64 19/45/65 11/9/66
f 5/40/67 20/48/68 21/50/69 9/39/70
f 20/48/71 1/36/72 26/61/73
f 29/69/74 34/79/75 20/48/76 14/34/77
f 7/33/78 20/48/79 5/40/80 36/86/81
f 14/34/82 20/48/83 7/33/84
f 15/35/85 1/36/86 20/48/87
f 23/47/88 20/55/89 19/56/90
f 1/1/91 2/2/92 26/62/93
f 25/60/94 4/3/95 24/58/96
f 26/62/97 2/2/98 25/60/99
f 25/60/100 2/2/101 4/3/102
f 24/59/103 27/64/104 25/65/105
f 25/65/106 27/64/107 26/66/108
f 20/48/109 27/63/110 24/57/111
f 20/48/112 24/57/113 3/37/114 17/41/115
f 20/48/116 26/61/117 27/63/118
f 30/71/119 31/73/120 29/74/121 28/80/122
f 32/81/123 33/82/124 31/73/125 30/71/126
f 16/18/127 15/17/128 33/78/129 32/75/130
f 15/35/131 20/48/132 34/79/133 33/77/134
f 31/73/135 34/83/136 29/74/137
f 33/82/138 34/83/139 31/73/140
f 36/87/141 35/84/142 8/15/143 7/16/144
