# This file uses centimeters as units for non-parametric coordinates.

v -3.055263 -16.548538 53.837204
v -3.055263 16.548538 53.837204
v -3.055263 16.548538 -53.837204
v -8.084869 16.548538 53.837204
v -8.084869 16.548538 -53.837204
v -8.084869 -16.548538 53.837204
v -8.084869 -16.548538 -53.837204
v -3.055263 -16.548538 -53.837204
v -8.084869 20.213699 57.502365
v -3.055263 20.213699 57.502365
v -3.055263 20.213699 -57.502365
v -8.084869 20.213699 -57.502365
v -8.084869 -20.213509 57.502365
v -3.055263 -20.213509 57.502365
v -8.084869 -20.213509 -57.502365
v -3.055263 -20.213509 -57.502365
vt 0.009140 0.993103
vt 0.009138 0.992589
vt 0.009138 0.992172
vt 0.009140 0.992270
vt 0.238504 0.767052
vt 0.238504 0.837247
vt 0.010138 0.837247
vt 0.010138 0.767052
vt 0.105785 0.801899
vt 0.105780 0.801916
vt 0.105315 0.801831
vt 0.105319 0.801813
vt 0.105780 0.800511
vt 0.105785 0.800493
vt 0.105319 0.800408
vt 0.105315 0.800425
vt 0.105765 0.801786
vt 0.105330 0.801706
vt 0.105334 0.801689
vt 0.105770 0.801769
vt 0.105770 0.800618
vt 0.105334 0.800538
vt 0.105330 0.800555
vt 0.105765 0.800635
vn 1.000000 0.000000 -0.000000
vn 1.000000 0.000000 -0.000000
vn 1.000000 0.000000 -0.000000
vn 1.000000 0.000000 -0.000000
vn -1.000000 0.000000 0.000000
vn -1.000000 0.000000 0.000000
vn -1.000000 0.000000 0.000000
vn -1.000000 0.000000 0.000000
vn 0.000000 1.000000 0.000000
vn 0.000000 1.000000 0.000000
vn 0.000000 1.000000 0.000000
vn 0.000000 1.000000 0.000000
vn 0.000000 -1.000000 -0.000000
vn 0.000000 -1.000000 -0.000000
vn 0.000000 -1.000000 -0.000000
vn 0.000000 -1.000000 -0.000000
vn 0.000000 0.000000 -1.000000
vn 0.000000 0.000000 -1.000000
vn 0.000000 0.000000 -1.000000
vn 0.000000 0.000000 -1.000000
vn 0.000000 0.000000 1.000000
vn 0.000000 0.000000 1.000000
vn 0.000000 0.000000 1.000000
vn 0.000000 0.000000 1.000000
vn 1.000000 0.000000 0.000000
vn 1.000000 0.000000 0.000000
vn 1.000000 0.000000 0.000000
vn 1.000000 0.000000 0.000000
vn -1.000000 0.000000 0.000000
vn -1.000000 0.000000 0.000000
vn -1.000000 0.000000 0.000000
vn -1.000000 0.000000 0.000000
vn -1.000000 -0.000000 0.000000
vn -1.000000 -0.000000 0.000000
vn -1.000000 -0.000000 0.000000
vn -1.000000 -0.000000 0.000000
vn 1.000000 -0.000000 -0.000000
vn 1.000000 -0.000000 -0.000000
vn 1.000000 -0.000000 -0.000000
vn 1.000000 -0.000000 -0.000000
vn 1.000000 0.000000 0.000000
vn 1.000000 -0.000000 -0.000000
vn 1.000000 -0.000000 -0.000000
vn 1.000000 0.000000 0.000000
vn -1.000000 -0.000000 0.000000
vn -1.000000 0.000000 0.000000
vn -1.000000 0.000000 0.000000
vn -1.000000 -0.000000 0.000000
vn -1.000000 0.000000 0.000000
vn -1.000000 -0.000000 0.000000
vn -1.000000 -0.000000 0.000000
vn -1.000000 0.000000 0.000000
vn 1.000000 -0.000000 -0.000000
vn 1.000000 0.000000 0.000000
vn 1.000000 0.000000 0.000000
vn 1.000000 -0.000000 -0.000000
s off
f 1/1/1 8/2/2 3/3/3 2/4/4
f 6/5/5 4/6/6 5/7/7 7/8/8
f 9/9/9 10/10/10 11/11/11 12/12/12
f 14/13/13 13/14/14 15/15/15 16/16/16
f 11/11/17 16/16/18 15/15/19 12/12/20
f 10/10/21 9/9/22 13/14/23 14/13/24
f 2/17/25 3/18/26 11/11/27 10/10/28
f 5/19/29 4/20/30 9/9/31 12/12/32
f 15/15/33 13/14/34 6/21/35 7/22/36
f 8/23/37 1/24/38 14/13/39 16/16/40
f 3/18/41 8/23/42 16/16/43 11/11/44
f 7/22/45 5/19/46 12/12/47 15/15/48
f 4/20/49 6/21/50 13/14/51 9/9/52
f 1/24/53 2/17/54 10/10/55 14/13/56
