# This file uses centimeters as units for non-parametric coordinates.

v -3.055263 -16.548538 54.340744
v -3.055263 16.548538 54.340744
v -3.055263 16.548538 -54.340744
v -8.084869 16.548538 54.340744
v -8.084869 16.548538 -54.340744
v -8.084869 -16.548538 54.340744
v -8.084869 -16.548538 -54.340744
v -3.055263 -16.548538 -54.340744
v -8.084869 20.213509 58.005524
v -3.055263 20.213509 58.005524
v -3.055263 20.213509 -58.005524
v -8.084869 20.213509 -58.005524
v -8.084869 -20.213509 58.005524
v -3.055263 -20.213509 58.005524
v -8.084869 -20.213509 -58.005524
v -3.055263 -20.213509 -58.005524
v -8.084869 -16.548538 40.789413
v -8.084869 -18.328094 42.385101
v -8.084869 -16.548538 43.790817
v -8.084869 16.548538 -32.230759
v -8.084869 16.548538 -14.624882
v -8.084869 18.497276 -20.528793
vt 0.005900 0.995134
vt 0.005466 0.995134
vt 0.005466 0.993618
vt 0.005900 0.993618
vt 0.474051 0.527179
vt 0.473938 0.527231
vt 0.461845 0.526970
vt 0.461958 0.526918
vt 0.473938 0.522941
vt 0.474051 0.522889
vt 0.461958 0.522628
vt 0.461845 0.522680
vt 0.496810 0.515880
vt 0.496810 0.586075
vt 0.266309 0.586075
vt 0.266309 0.515880
vt 0.473556 0.526834
vt 0.462227 0.526589
vt 0.462340 0.526537
vt 0.473669 0.526782
vt 0.473669 0.523270
vt 0.462340 0.523025
vt 0.462227 0.523077
vt 0.473556 0.523322
vt 0.468069 0.515880
vt 0.472256 0.523239
vt 0.471453 0.512105
vt 0.472423 0.523054
vt 0.474435 0.515880
vt 0.472569 0.523246
vt 0.313201 0.586075
vt 0.464645 0.526587
vt 0.350541 0.586075
vt 0.466480 0.526626
vt 0.338020 0.590208
vt 0.465865 0.526820
vn 1.000000 0.000000 -0.000000
vn 1.000000 0.000000 -0.000000
vn 1.000000 0.000000 -0.000000
vn 1.000000 0.000000 -0.000000
vn 0.000000 1.000000 0.000000
vn 0.000000 1.000000 0.000000
vn 0.000000 1.000000 0.000000
vn 0.000000 1.000000 0.000000
vn 0.000000 -1.000000 -0.000000
vn 0.000000 -1.000000 -0.000000
vn 0.000000 -1.000000 -0.000000
vn 0.000000 -1.000000 -0.000000
vn -1.000000 -0.000000 0.000000
vn -1.000000 -0.000000 0.000000
vn -1.000000 -0.000000 0.000000
vn 0.000000 0.000000 -1.000000
vn 0.000000 0.000000 -1.000000
vn 0.000000 0.000000 -1.000000
vn 0.000000 0.000000 -1.000000
vn 0.000000 0.000000 1.000000
vn 0.000000 0.000000 1.000000
vn 0.000000 0.000000 1.000000
vn 0.000000 0.000000 1.000000
vn 1.000000 0.000000 -0.000000
vn 1.000000 0.000000 -0.000000
vn 1.000000 -0.000000 0.000000
vn 1.000000 -0.000000 0.000000
vn -1.000000 -0.000000 0.000000
vn -1.000000 -0.000000 0.000000
vn -1.000000 -0.000000 0.000000
vn -1.000000 0.000000 0.000000
vn -1.000000 0.000000 0.000000
vn -1.000000 0.000000 0.000000
vn 1.000000 0.000000 -0.000000
vn 1.000000 0.000000 -0.000000
vn 1.000000 -0.000000 -0.000000
vn 1.000000 -0.000000 -0.000000
vn 1.000000 0.000000 -0.000000
vn 1.000000 0.000000 -0.000000
vn 1.000000 -0.000000 -0.000000
vn 1.000000 -0.000000 0.000000
vn -1.000000 -0.000000 0.000000
vn -1.000000 -0.000000 0.000000
vn -1.000000 -0.000000 0.000000
vn -1.000000 -0.000000 0.000000
vn -1.000000 0.000000 0.000000
vn -1.000000 0.000000 0.000000
vn -1.000000 0.000000 0.000000
vn -1.000000 0.000000 0.000000
vn 1.000000 0.000000 -0.000000
vn 1.000000 0.000000 -0.000000
vn 1.000000 -0.000000 0.000000
vn 1.000000 -0.000000 -0.000000
vn -1.000000 0.000000 0.000000
vn -1.000000 0.000000 0.000000
vn -1.000000 0.000000 0.000000
vn -1.000000 0.000000 0.000000
vn -1.000000 0.000000 0.000000
vn -1.000000 -0.000001 0.000000
vn -1.000000 -0.000001 0.000000
vn -1.000000 -0.000001 0.000000
vn -1.000000 -0.000001 0.000000
vn -1.000000 -0.000000 0.000000
vn -1.000000 -0.000000 0.000000
vn -1.000000 -0.000000 0.000000
vn -1.000000 0.000000 0.000000
vn -1.000000 0.000000 0.000000
vn -1.000000 0.000000 0.000000
vn -1.000000 0.000001 0.000000
vn -1.000000 0.000000 0.000000
vn -1.000000 0.000001 0.000000
vn -1.000000 0.000000 0.000000
vn -1.000000 -0.000001 0.000000
vn -1.000000 -0.000001 0.000000
vn -1.000000 0.000001 0.000000
vn -1.000000 0.000001 0.000000
vn -1.000000 0.000001 0.000000
vn -1.000000 0.000000 0.000000
vn -1.000000 -0.000000 0.000000
vn -1.000000 0.000000 0.000000
vn -1.000000 -0.000000 0.000000
vn -1.000000 0.000000 0.000000
vn -1.000000 -0.000000 0.000000
vn -1.000000 -0.000000 0.000000
vn -1.000000 -0.000000 0.000000
vn -1.000000 -0.000000 0.000000
vn -1.000000 0.000000 0.000000
vn -1.000000 0.000000 0.000000
vn -1.000000 0.000000 0.000000
vn -1.000000 0.000000 0.000000
vn -1.000000 0.000001 0.000000
vn -1.000000 0.000000 0.000000
s off
f 1/1/1 8/2/2 3/3/3 2/4/4
f 9/5/5 10/6/6 11/7/7 12/8/8
f 14/9/9 13/10/10 15/11/11 16/12/12
f 17/25/13 5/15/14 7/16/15
f 11/7/16 16/12/17 15/11/18 12/8/19
f 10/6/20 9/5/21 13/10/22 14/9/23
f 2/17/24 3/18/25 11/7/26 10/6/27
f 5/19/28 20/32/29 12/8/30
f 6/21/31 19/30/32 13/10/33
f 8/23/34 1/24/35 14/9/36 16/12/37
f 3/18/38 8/23/39 16/12/40 11/7/41
f 7/22/42 5/19/43 12/8/44 15/11/45
f 4/20/46 6/21/47 13/10/48 9/5/49
f 1/24/50 2/17/51 10/6/52 14/9/53
f 13/10/54 18/28/55 15/11/56
f 13/10/57 19/30/58 18/28/59
f 15/11/60 18/28/61 17/26/62
f 15/11/63 17/26/64 7/22/65
f 6/13/66 4/14/67 19/29/68
f 20/31/69 21/33/70 22/35/71
f 19/29/72 17/25/73 18/27/74
f 12/8/75 20/32/76 22/36/77
f 9/5/78 21/34/79 4/20/80
f 19/29/81 4/14/82 21/33/83 20/31/84 5/15/85 17/25/86
f 12/8/87 22/36/88 9/5/89
f 9/5/90 22/36/91 21/34/92
