# This file uses centimeters as units for non-parametric coordinates.

v -11.140156 -29.305077 183.389282
v 0.000000 -29.305077 183.389282
v -11.140156 25.879860 183.389282
v 0.000000 25.879860 183.389282
v -11.140156 32.164001 -183.155823
v 0.000000 32.164001 -183.155823
v -11.140156 -32.065773 -183.389282
v 0.000000 -32.065773 -183.389282
v -11.140156 34.230804 -177.877808
v 0.000000 34.230804 -177.877808
v -11.140156 33.772278 175.636292
v 0.000000 33.772278 175.636292
v 0.000000 -33.203888 -15.100098
v -11.140156 -33.203888 -15.100098
v -11.140156 -34.230804 175.636292
v 0.000000 -34.230804 175.636292
v -10.104179 33.539200 -14.450741
v 0.000000 33.539200 -14.450741
v -11.140156 -13.198757 182.519531
v 0.000000 -3.336668 -182.942200
v -11.140156 -1.108515 -182.942200
v 0.000000 -11.889172 182.519531
v -11.140156 -32.570648 -63.079834
v 0.000000 -32.497025 -68.653870
v -3.458476 -32.114792 -36.757660
v 0.000000 -32.497025 -38.084412
v -11.140156 -29.058266 -36.204147
vt 0.991541 0.991351
vt 0.991542 0.991351
vt 0.991542 0.991355
vt 0.991541 0.991355
vt 0.991539 0.991363
vt 0.991539 0.991365
vt 0.991539 0.991367
vt 0.991539 0.991366
vt 0.991539 0.991340
vt 0.991539 0.991340
vt 0.991539 0.991339
vt 0.991539 0.991339
vt 0.991543 0.991354
vt 0.991542 0.991354
vt 0.991541 0.991349
vt 0.991542 0.991349
vt 0.991541 0.991340
vt 0.991540 0.991340
vt 0.991539 0.991335
vt 0.991540 0.991335
vt 0.991540 0.991352
vt 0.991539 0.991352
vt 0.991540 0.991364
vt 0.991540 0.991364
vt 0.991542 0.991365
vt 0.991542 0.991365
vt 0.991542 0.991351
vt 0.991542 0.991340
vt 0.991546 0.991340
vt 0.991546 0.991340
vt 0.991546 0.991365
vt 0.991546 0.991365
vt 0.991539 0.991349
vt 0.991539 0.991352
vt 0.991546 0.991351
vt 0.991541 0.991352
vt 0.991543 0.991349
vt 0.991544 0.991340
vt 0.991544 0.991350
vt 0.731363 0.262522
vt 0.991539 0.991360
vt 0.504678 0.260826
vt 0.511221 0.264058
vt 0.991542 0.991352
vt 0.991543 0.991365
vt 0.991541 0.991355
vt 0.991540 0.991355
vt 0.991542 0.991348
vt 0.991542 0.991355
vt 0.991540 0.991354
vt 0.991542 0.991350
vt 0.991550 0.991362
vt 0.505544 0.208373
vt 0.996196 0.159522
vt 0.995030 0.189647
vt 0.985812 0.151892
vt 0.996196 0.250173
vt 0.985812 0.263311
vt 0.730343 0.153483
vt 0.702085 0.159904
vt 0.504946 0.155246
vt 0.666075 0.154464
vn 0.001332 -0.022647 0.999743
vn 0.001332 -0.022647 0.999743
vn 0.001332 -0.022647 0.999743
vn 0.001332 -0.022647 0.999743
vn 0.000000 0.931157 -0.364620
vn 0.000000 0.931157 -0.364620
vn 0.000000 0.931157 -0.364620
vn 0.000000 0.931157 -0.364620
vn -0.000619 -0.006188 -0.999981
vn -0.000619 -0.006188 -0.999981
vn -0.000619 -0.006188 -0.999981
vn -0.000619 -0.006188 -0.999981
vn 0.000000 -0.844040 0.536280
vn 0.000000 -0.844040 0.536280
vn 0.000000 -0.844040 0.536280
vn 0.000000 -0.844040 0.536280
vn 1.000000 0.000000 0.000000
vn 1.000000 0.000000 0.000000
vn 1.000000 0.000000 0.000000
vn 1.000000 0.000000 0.000000
vn 1.000000 0.000000 0.000000
vn 1.000000 0.000000 0.000000
vn 1.000000 0.000000 0.000000
vn 1.000000 0.000000 0.000000
vn 1.000000 0.000000 0.000000
vn 1.000000 0.000000 0.000000
vn 1.000000 0.000000 0.000000
vn 1.000000 0.000000 0.000000
vn 1.000000 0.000000 0.000000
vn 0.000000 0.999991 0.004232
vn 0.000000 0.999991 0.004232
vn 0.000000 0.999991 0.004232
vn 0.000000 0.700763 0.713394
vn 0.000000 0.700763 0.713394
vn 0.000000 0.700763 0.713394
vn 0.000000 0.700763 0.713394
vn -0.030273 -0.998511 -0.045378
vn -0.030273 -0.998511 -0.045378
vn -0.030273 -0.998511 -0.045378
vn -0.030273 -0.998511 -0.045378
vn 0.000000 0.999999 -0.001226
vn 0.000000 0.999999 -0.001226
vn 0.000000 0.999999 -0.001226
vn 0.000000 0.999991 0.004232
vn 0.000000 0.999991 0.004232
vn 0.000000 0.999991 0.004232
vn 0.000000 0.999999 -0.001226
vn 0.000000 0.999999 -0.001226
vn 0.000000 0.999999 -0.001226
vn -0.999986 -0.000288 -0.005328
vn -0.999986 -0.000288 -0.005328
vn -0.999986 -0.000288 -0.005328
vn -0.999880 0.015519 0.000084
vn -0.999880 0.015519 0.000084
vn -0.999880 0.015519 0.000084
vn -0.999981 -0.000512 0.006157
vn -0.999981 -0.000512 0.006157
vn -0.999981 -0.000512 0.006157
vn -0.999981 -0.000512 0.006157
vn -0.999981 -0.000512 0.006157
vn -0.999979 0.005494 -0.003491
vn -0.999979 0.005494 -0.003491
vn -0.999979 0.005494 -0.003491
vn 0.000000 0.053964 0.998543
vn 0.000000 0.053964 0.998543
vn 0.000000 0.053964 0.998543
vn -0.999986 -0.000772 -0.005266
vn -0.999986 -0.000772 -0.005266
vn -0.999986 -0.000772 -0.005266
vn -0.999986 -0.000772 -0.005266
vn 0.001496 0.014967 -0.999887
vn 0.001496 0.014967 -0.999887
vn 0.001496 0.014967 -0.999887
vn 0.001496 0.014967 -0.999887
vn 0.000000 -0.999986 -0.005384
vn 0.000000 -0.999986 -0.005384
vn 0.000000 -0.999986 -0.005384
vn 0.000000 -0.999986 -0.005384
vn -0.005867 0.049915 0.998736
vn -0.005867 0.049915 0.998736
vn -0.005867 0.049915 0.998736
vn 0.002307 -0.999989 -0.003983
vn 0.002307 -0.999989 -0.003983
vn 0.002307 -0.999989 -0.003983
vn 0.002307 -0.999989 -0.003983
vn -0.016314 -0.999815 0.010215
vn -0.016314 -0.999815 0.010215
vn -0.016314 -0.999815 0.010215
vn -0.016314 -0.999815 0.010215
vn -0.999873 0.015907 -0.000325
vn -0.999873 0.015907 -0.000325
vn -0.999873 0.015907 -0.000325
vn -0.999873 0.015907 -0.000325
vn -0.374847 -0.909701 -0.178699
vn -0.374847 -0.909701 -0.178699
vn -0.374847 -0.909701 -0.178699
vn -0.359457 -0.925293 0.120929
vn -0.359457 -0.925293 0.120929
vn -0.359457 -0.925293 0.120929
vn -0.999875 0.015490 0.003043
vn -0.999875 0.015490 0.003043
vn -0.999875 0.015490 0.003043
s off
f 4/3/1 3/4/2 19/36/3 22/44/4
f 9/5/5 10/6/6 6/7/7 5/8/8
f 5/13/9 6/14/10 20/37/11 21/39/12
f 15/17/13 16/18/14 2/19/15 1/20/16
f 12/31/17 4/32/18 22/45/19 2/25/20 16/26/21 13/27/22 26/51/23 24/48/24 8/28/25 20/38/26 6/29/27 10/30/28 18/35/29
f 10/6/30 9/5/31 17/33/32
f 4/12/33 12/10/34 11/9/35 3/11/36
f 25/49/37 26/50/38 13/22/39 14/21/40
f 18/34/41 17/33/42 12/10/43
f 10/6/44 17/33/45 18/34/46
f 12/10/47 17/33/48 11/9/49
f 17/40/50 1/54/51 19/55/52
f 17/40/53 14/59/54 15/56/55
f 5/42/56 21/53/57 7/61/58 17/40/59 9/43/60
f 15/56/61 1/54/62 17/40/63
f 1/1/64 2/2/65 19/36/66
f 17/40/67 19/55/68 3/57/69 11/58/70
f 21/39/71 20/37/72 8/15/73 7/16/74
f 15/17/75 14/21/76 13/22/77 16/18/78
f 22/44/79 19/36/80 2/2/81
f 7/23/82 8/24/83 24/47/84 23/46/85
f 23/46/86 24/47/87 26/50/88 25/49/89
f 27/60/90 17/40/91 7/61/92 23/62/93
f 14/41/94 27/52/95 25/49/96
f 25/49/97 27/52/98 23/46/99
f 14/59/100 17/40/101 27/60/102
