# This file uses centimeters as units for non-parametric coordinates.

v -3.055263 -16.548538 73.338318
v -3.055263 16.548538 73.338318
v -3.055263 16.548538 -73.338318
v -8.084869 16.548538 73.338318
v -8.084869 16.548538 -73.338318
v -8.084869 -16.548538 73.338318
v -8.084869 -16.548538 -73.338318
v -3.055263 -16.548538 -73.338318
v -8.084869 20.213699 77.003479
v -3.055263 20.213699 77.003479
v -3.055263 20.213699 -77.003479
v -8.084869 20.213699 -77.003479
v -8.084869 -20.213699 77.003479
v -3.055263 -20.213699 77.003479
v -8.084869 -20.213699 -77.003479
v -3.055263 -20.213699 -77.003479
v -8.084869 17.019463 30.643845
v -8.084869 -17.008400 -37.102127
v -8.084869 -7.169962 -72.772980
vt 0.009140 0.993103
vt 0.009137 0.992270
vt 0.009137 0.992270
vt 0.009140 0.992270
vt 0.310923 0.674101
vt 0.310923 0.744296
vt -0.000163 0.744296
vt -0.000163 0.674101
vt 0.021718 0.737159
vt 0.021681 0.737176
vt 0.017718 0.737091
vt 0.017755 0.737073
vt 0.021681 0.735770
vt 0.021718 0.735753
vt 0.017755 0.735668
vt 0.017718 0.735685
vt 0.021556 0.737046
vt 0.017843 0.736966
vt 0.017880 0.736949
vt 0.021593 0.737029
vt 0.021593 0.735878
vt 0.017880 0.735798
vt 0.017843 0.735815
vt 0.021556 0.735895
vt 0.220372 0.745295
vt 0.020517 0.737022
vt 0.076690 0.673126
vt 0.018792 0.735801
vt 0.001037 0.693992
vt 0.017900 0.736124
vn 1.000000 0.000000 -0.000000
vn 1.000000 0.000000 -0.000000
vn 1.000000 0.000000 -0.000000
vn 1.000000 0.000000 -0.000000
vn -1.000000 -0.000000 0.000000
vn -1.000000 -0.000000 0.000000
vn -1.000000 -0.000000 0.000000
vn -1.000000 -0.000000 0.000000
vn -1.000000 -0.000000 0.000000
vn -1.000000 -0.000000 0.000000
vn -1.000000 -0.000000 0.000000
vn 0.000000 1.000000 0.000000
vn 0.000000 1.000000 0.000000
vn 0.000000 1.000000 0.000000
vn 0.000000 1.000000 0.000000
vn 0.000000 -1.000000 -0.000000
vn 0.000000 -1.000000 -0.000000
vn 0.000000 -1.000000 -0.000000
vn 0.000000 -1.000000 -0.000000
vn 0.000000 0.000000 -1.000000
vn 0.000000 0.000000 -1.000000
vn 0.000000 0.000000 -1.000000
vn 0.000000 0.000000 -1.000000
vn 0.000000 0.000000 1.000000
vn 0.000000 0.000000 1.000000
vn 0.000000 0.000000 1.000000
vn 0.000000 0.000000 1.000000
vn 1.000000 -0.000000 0.000000
vn 1.000000 -0.000000 0.000000
vn 1.000000 -0.000000 0.000000
vn 1.000000 -0.000000 0.000000
vn -1.000000 0.000000 0.000000
vn -1.000000 0.000000 0.000000
vn -1.000000 0.000000 0.000000
vn -1.000000 0.000000 0.000000
vn -1.000000 0.000000 0.000000
vn -1.000000 0.000000 0.000000
vn -1.000000 0.000000 0.000000
vn -1.000000 0.000000 0.000000
vn -1.000000 0.000000 0.000000
vn -1.000000 0.000000 0.000000
vn 1.000000 -0.000000 -0.000000
vn 1.000000 -0.000000 -0.000000
vn 1.000000 -0.000000 -0.000000
vn 1.000000 -0.000000 -0.000000
vn 1.000000 -0.000000 0.000000
vn 1.000000 -0.000000 -0.000000
vn 1.000000 -0.000000 -0.000000
vn 1.000000 -0.000000 0.000000
vn -1.000000 0.000000 0.000000
vn -1.000000 0.000000 0.000000
vn -1.000000 0.000000 0.000000
vn -1.000000 0.000000 0.000000
vn -1.000000 0.000000 0.000000
vn -1.000000 0.000000 0.000000
vn -1.000000 0.000000 0.000000
vn -1.000000 0.000000 0.000000
vn -1.000000 0.000000 0.000000
vn 1.000000 -0.000000 -0.000000
vn 1.000000 -0.000000 0.000000
vn 1.000000 -0.000000 0.000000
vn 1.000000 -0.000000 -0.000000
s off
f 1/1/1 8/2/2 3/3/3 2/4/4
f 6/5/5 4/6/6 17/25/7 5/7/8 19/29/9 7/8/10 18/27/11
f 9/9/12 10/10/13 11/11/14 12/12/15
f 14/13/16 13/14/17 15/15/18 16/16/19
f 11/11/20 16/16/21 15/15/22 12/12/23
f 10/10/24 9/9/25 13/14/26 14/13/27
f 2/17/28 3/18/29 11/11/30 10/10/31
f 5/19/32 17/26/33 4/20/34 9/9/35 12/12/36
f 15/15/37 13/14/38 6/21/39 18/28/40 7/22/41
f 8/23/42 1/24/43 14/13/44 16/16/45
f 3/18/46 8/23/47 16/16/48 11/11/49
f 7/22/50 19/30/51 5/19/52 12/12/53 15/15/54
f 4/20/55 6/21/56 13/14/57 9/9/58
f 1/24/59 2/17/60 10/10/61 14/13/62
