# This file uses centimeters as units for non-parametric coordinates.

v -500.000000 717.562500 3.063467
v -500.000000 698.777588 -0.055906
v -500.000000 641.384277 7.128313
v -261.219391 710.184875 -2.288267
v 500.000000 717.562500 3.064802
v 500.014496 711.996155 -0.055716
v 499.771881 646.176147 4.900148
v -500.000000 637.500000 -0.055906
v -500.000000 608.317383 7.128313
v -500.000000 600.000000 -0.055954
v -161.219406 635.688660 -2.288267
v 500.014496 637.500000 -0.055716
v 499.900818 605.003967 7.128504
v 500.000000 600.000000 -0.055954
v 0.001907 780.407043 3.063467
v 231.025696 745.984680 -2.553603
v 231.025696 717.562500 3.064373
v -230.247879 744.951294 2.441767
v 208.586884 750.799011 4.954508
v -213.420486 751.726196 9.302118
v -230.648041 717.562500 3.063753
v 233.010864 725.793579 10.813692
v 233.011246 725.793579 -9.545395
v 0.000000 780.407043 10.809448
v 0.000000 780.407043 -9.549114
v 0.000000 784.746643 -13.445684
v 0.000000 793.138611 -13.445684
v 0.000000 784.746643 15.653875
v 0.000000 793.138611 15.653875
v 0.000000 800.368652 20.296743
v 0.000000 800.368408 -18.087408
v 0.000000 811.906189 20.296743
v 0.000000 811.906189 -18.087408
v 239.450836 728.163574 11.756495
v 239.448929 728.163574 -9.547183
v 244.407272 729.197021 -9.545657
v 244.406509 729.197021 11.756113
v 254.441071 730.528748 15.702036
v 254.439926 730.528748 -13.491961
v 256.388458 742.066833 15.702799
v 256.388855 742.066833 -13.491413
v 233.010864 687.043823 10.813787
v 233.011246 687.043823 -9.545323
v 228.684998 727.806458 10.813787
v 228.684998 687.043823 10.813787
v 228.684998 727.806458 -9.545323
v 228.684998 687.043823 -9.545323
v 501.316071 687.043762 10.814550
v 501.316071 687.043762 -9.546492
v 226.642227 687.043762 10.813025
v 226.644516 687.043762 -9.547827
v 507.756042 691.383545 11.756495
v 507.753754 691.383545 -9.547159
v 512.712830 699.785217 -9.545633
v 512.711365 699.785217 11.756113
v 226.642227 691.383545 -13.445589
v 226.642227 699.785217 -13.445589
v 226.642990 691.383545 15.653971
v 226.642990 699.785217 15.653971
v 226.642609 707.015198 20.296839
v 522.746277 707.015198 15.702036
v 522.745544 707.015198 -13.491938
v 226.642227 707.015015 -18.087313
v 226.642609 718.552979 20.296839
v 524.694092 718.552979 15.702799
v 524.694092 718.552795 -13.491388
v 226.642227 718.552795 -18.087313
v -233.010864 725.793579 10.813787
v -233.011246 725.793579 -9.545323
v -239.450836 728.163574 11.756495
v -239.448929 728.163574 -9.547183
v -244.407272 729.197021 -9.545657
v -244.406509 729.197021 11.756113
v -254.441071 730.528748 15.702036
v -254.439926 730.528748 -13.491961
v -256.388458 742.066833 15.702799
v -256.388855 742.066833 -13.491413
v -233.010864 687.043823 10.813787
v -233.011246 687.043823 -9.545323
v -228.684998 727.806458 10.813787
v -228.684998 687.043823 10.813787
v -228.685379 727.806458 -9.545323
v -228.685379 687.043823 -9.545323
v -501.316071 687.043762 10.814550
v -501.316437 687.043762 -9.546492
v -226.642227 687.043762 10.813025
v -226.644516 687.043762 -9.547827
v -507.756042 691.383545 11.756495
v -507.754150 691.383545 -9.547159
v -512.712463 699.785217 -9.545633
v -512.711731 699.785217 11.756113
v -226.642227 691.383545 -13.445589
v -226.642227 699.785217 -13.445589
v -226.642990 691.383545 15.653971
v -226.642990 699.785217 15.653971
v -226.642609 707.015198 20.296839
v -522.746277 707.015198 15.702036
v -522.745178 707.015198 -13.491938
v -226.642227 707.015015 -18.087313
v -226.642609 718.552979 20.296839
v -524.693665 718.552979 15.702799
v -524.694092 718.552795 -13.491388
v -226.642227 718.552795 -18.087313
v -500.000000 704.343994 -5.647394
v 500.000763 704.343994 -5.646822
v 0.001907 783.137878 -5.648157
v 500.000000 600.000000 -5.646822
v -500.000000 600.000000 -5.647394
v 228.099442 704.343994 -5.647490
v -228.097534 704.343994 -5.647776
v 228.099442 736.942505 -5.647823
v -228.097534 736.942505 -5.647966
v -500.000000 678.778259 7.685307
v 499.893188 681.174194 6.571320
v 499.832916 678.410828 -0.891468
v -500.000000 674.817017 0.779608
v -125.897598 644.345520 6.574991
v -9.075546 676.475342 -0.222466
v -10.273361 682.467651 6.979254
vt 0.617028 0.771682
vt 0.617028 0.771682
vt 0.617028 0.771682
vt 0.617028 0.771682
vt 0.617028 0.771682
vt 0.568691 0.929954
vt 0.921782 0.944169
vt 0.925829 0.925556
vt 0.615387 0.925562
vt 0.569889 0.925590
vt 0.617028 0.771682
vt 0.617028 0.771682
vt 0.617028 0.771682
vt 0.617028 0.771682
vt 0.617028 0.771682
vt 0.617028 0.771682
vt 0.617028 0.771682
vt 0.617028 0.771682
vt 0.617028 0.771682
vt 0.593245 0.844101
vt 0.925100 0.851042
vt 0.925623 0.871948
vt 0.656785 0.871952
vt 0.593245 0.871965
vt 0.760486 0.820981
vt 0.859496 0.807289
vt 0.820209 0.796800
vt 0.617028 0.771682
vt 0.660217 0.807115
vt 0.850188 0.808576
vt 0.673220 0.808913
vt 0.659105 0.796800
vt 0.617028 0.771682
vt 0.211151 0.278053
vt 0.211151 0.278053
vt 0.211151 0.278053
vt 0.211151 0.278053
vt 0.211151 0.278053
vt 0.211151 0.278053
vt 0.211151 0.278053
vt 0.211151 0.278053
vt 0.211151 0.278053
vt 0.211151 0.278053
vt 0.211151 0.278053
vt 0.211151 0.278053
vt 0.211151 0.278053
vt 0.211151 0.278053
vt 0.211151 0.278053
vt 0.211151 0.278053
vt 0.211151 0.278053
vt 0.211151 0.278053
vt 0.211151 0.278053
vt 0.211151 0.278053
vt 0.221709 0.276533
vt 0.222648 0.276533
vt 0.222648 0.277471
vt 0.221709 0.277471
vt 0.221709 0.276533
vt 0.222648 0.276533
vt 0.222648 0.277471
vt 0.221709 0.277471
vt 0.221709 0.276533
vt 0.222648 0.276533
vt 0.222648 0.277471
vt 0.221709 0.277471
vt 0.221709 0.276533
vt 0.222648 0.276533
vt 0.222648 0.277471
vt 0.221709 0.277471
vt 0.219889 0.276900
vt 0.220658 0.276900
vt 0.220658 0.277669
vt 0.219889 0.277669
vt 0.211151 0.278053
vt 0.211151 0.278053
vt 0.211151 0.278053
vt 0.211151 0.278053
vt 0.211151 0.278053
vt 0.211151 0.278053
vt 0.211151 0.278053
vt 0.211151 0.278053
vt 0.211151 0.278053
vt 0.211151 0.278053
vt 0.211151 0.278053
vt 0.211151 0.278053
vt 0.211151 0.278053
vt 0.211151 0.278053
vt 0.211151 0.278053
vt 0.211151 0.278053
vt 0.211151 0.278053
vt 0.211151 0.278053
vt 0.211151 0.278053
vt 0.211151 0.278053
vt 0.209602 0.278849
vt 0.209080 0.278956
vt 0.208997 0.278815
vt 0.209686 0.278674
vt 0.208997 0.278562
vt 0.209686 0.278421
vt 0.209306 0.279189
vt 0.209080 0.279140
vt 0.209602 0.279033
vt 0.209462 0.279157
vt 0.211151 0.278053
vt 0.211151 0.278053
vt 0.211151 0.278053
vt 0.211151 0.278053
vt 0.211151 0.278053
vt 0.211151 0.278053
vt 0.211151 0.278053
vt 0.211151 0.278053
vt 0.211151 0.278053
vt 0.211151 0.278053
vt 0.211151 0.278053
vt 0.211151 0.278053
vt 0.211151 0.278053
vt 0.211151 0.278053
vt 0.211151 0.278053
vt 0.211151 0.278053
vt 0.211151 0.278053
vt 0.211151 0.278053
vt 0.211151 0.278053
vt 0.211151 0.278053
vt 0.221709 0.276533
vt 0.221709 0.277471
vt 0.222648 0.277471
vt 0.222648 0.276533
vt 0.221709 0.276533
vt 0.221709 0.277471
vt 0.222648 0.277471
vt 0.222648 0.276533
vt 0.221709 0.276533
vt 0.221709 0.277471
vt 0.222648 0.277471
vt 0.222648 0.276533
vt 0.221709 0.276533
vt 0.221709 0.277471
vt 0.222648 0.277471
vt 0.222648 0.276533
vt 0.219889 0.276900
vt 0.219889 0.277669
vt 0.220658 0.277669
vt 0.220658 0.276900
vt 0.211151 0.278053
vt 0.211151 0.278053
vt 0.211151 0.278053
vt 0.211151 0.278053
vt 0.211151 0.278053
vt 0.211151 0.278053
vt 0.211151 0.278053
vt 0.211151 0.278053
vt 0.211151 0.278053
vt 0.211151 0.278053
vt 0.211151 0.278053
vt 0.211151 0.278053
vt 0.211151 0.278053
vt 0.211151 0.278053
vt 0.211151 0.278053
vt 0.211151 0.278053
vt 0.211151 0.278053
vt 0.211151 0.278053
vt 0.211151 0.278053
vt 0.211151 0.278053
vt 0.209602 0.278849
vt 0.209686 0.278674
vt 0.208997 0.278815
vt 0.209080 0.278956
vt 0.209686 0.278421
vt 0.208997 0.278562
vt 0.209306 0.279189
vt 0.209462 0.279157
vt 0.209602 0.279033
vt 0.209080 0.279140
vt 0.532963 0.482295
vt 0.532963 0.482295
vt 0.532922 0.482295
vt 0.532909 0.481159
vt 0.532922 0.482295
vt 0.533003 0.482295
vt 0.533003 0.482295
vt 0.533084 0.482295
vt 0.533097 0.481263
vt 0.569889 0.897059
vt 0.512601 0.766280
vt 0.922494 0.954872
vt 0.521589 0.766822
vt 0.656370 0.933484
vt 0.617028 0.771682
vt 0.516210 0.766660
vt 0.794584 0.901553
vt 0.515893 0.766346
vt 0.924404 0.904149
vt 0.521589 0.766460
vt 0.780856 0.950608
vt 0.568691 0.944220
vt 0.512619 0.766552
vn 0.017046 -0.163790 0.986348
vn 0.017046 -0.163790 0.986348
vn 0.017046 -0.163790 0.986348
vn -0.003195 0.304636 0.952464
vn -0.003195 0.304636 0.952464
vn -0.003195 0.304636 0.952464
vn -0.003195 0.304636 0.952464
vn -0.003195 0.304636 0.952464
vn -0.001215 -0.733332 0.679870
vn -0.001215 -0.733332 0.679870
vn -0.001215 -0.733332 0.679870
vn -0.001215 -0.733332 0.679870
vn 0.003664 -0.791821 0.610742
vn 0.003664 -0.791821 0.610742
vn 0.003664 -0.791821 0.610742
vn 0.003664 -0.791821 0.610742
vn -0.003888 0.215878 0.976413
vn -0.003888 0.215878 0.976413
vn -0.003888 0.215878 0.976413
vn -0.000001 -0.587190 0.809449
vn -0.000001 -0.587190 0.809449
vn -0.000001 -0.587190 0.809450
vn -0.000001 -0.587190 0.809450
vn -0.000001 -0.587190 0.809449
vn -0.001395 -0.489003 0.872281
vn -0.001395 -0.489003 0.872281
vn -0.001395 -0.489003 0.872281
vn 0.001040 0.313787 0.949493
vn 0.001040 0.313787 0.949493
vn 0.001040 0.313787 0.949493
vn 0.007676 0.239037 0.970980
vn 0.007676 0.239037 0.970980
vn 0.007676 0.239037 0.970980
vn 0.005254 0.111075 0.993798
vn 0.005254 0.111075 0.993798
vn 0.005254 0.111075 0.993798
vn 0.005254 0.111075 0.993798
vn 0.006751 -0.777056 0.629395
vn 0.006751 -0.777056 0.629395
vn 0.006751 -0.777056 0.629395
vn 0.006751 -0.777056 0.629395
vn 0.010506 0.137273 0.990478
vn 0.010506 0.137272 0.990478
vn 0.010506 0.137273 0.990478
vn 0.204085 -0.978953 -0.000006
vn 0.204085 -0.978953 -0.000006
vn 0.204085 -0.978953 -0.000006
vn 0.204085 -0.978953 -0.000006
vn 0.014284 -0.007352 -0.999871
vn 0.014284 -0.007352 -0.999871
vn 0.014284 -0.007352 -0.999871
vn 0.014284 -0.007352 -0.999871
vn 0.014252 -0.007453 0.999871
vn 0.014252 -0.007453 0.999871
vn 0.014252 -0.007453 0.999871
vn 0.014252 -0.007453 0.999871
vn 0.345433 -0.938443 -0.000013
vn 0.345433 -0.938443 -0.000013
vn 0.345433 -0.938443 -0.000013
vn 0.345433 -0.938443 -0.000013
vn -0.094058 -0.431134 -0.897372
vn -0.094058 -0.431134 -0.897372
vn -0.094058 -0.431134 -0.897372
vn -0.094058 -0.431134 -0.897372
vn -0.128465 -0.574142 0.808615
vn -0.128465 -0.574142 0.808615
vn -0.128465 -0.574142 0.808615
vn -0.128465 -0.574142 0.808615
vn 0.262820 0.964845 0.000002
vn 0.262820 0.964845 0.000002
vn 0.262820 0.964845 0.000002
vn 0.262820 0.964845 0.000002
vn -0.149599 -0.607355 0.780218
vn -0.149599 -0.607355 0.780218
vn -0.149599 -0.607355 0.780218
vn -0.149599 -0.607355 0.780218
vn 0.131571 -0.991307 0.000000
vn 0.131571 -0.991307 0.000000
vn 0.131571 -0.991307 0.000000
vn 0.131571 -0.991307 0.000000
vn -0.149591 -0.607344 -0.780228
vn -0.149591 -0.607344 -0.780228
vn -0.149591 -0.607344 -0.780228
vn -0.149591 -0.607344 -0.780228
vn 0.017570 -0.001516 0.999844
vn 0.017570 -0.001516 0.999845
vn 0.017570 -0.001516 0.999844
vn 0.017570 -0.001516 0.999844
vn 0.986043 -0.166489 -0.000013
vn 0.986043 -0.166489 -0.000013
vn 0.986043 -0.166489 -0.000013
vn 0.986043 -0.166489 -0.000013
vn 0.017591 -0.001462 -0.999844
vn 0.017591 -0.001462 -0.999844
vn 0.017591 -0.001462 -0.999844
vn 0.017591 -0.001462 -0.999844
vn 1.000000 -0.000000 0.000019
vn 1.000000 -0.000000 0.000019
vn 1.000000 -0.000000 0.000019
vn 1.000000 -0.000000 0.000019
vn 0.000011 0.000001 1.000000
vn 0.000011 0.000001 1.000000
vn 0.000011 0.000001 1.000000
vn 0.000011 0.000001 1.000000
vn -0.000008 -0.000001 -1.000000
vn -0.000008 -0.000001 -1.000000
vn -0.000008 -0.000001 -1.000000
vn -0.000008 -0.000001 -1.000000
vn -1.000000 0.000000 0.000000
vn -1.000000 0.000000 0.000000
vn -1.000000 0.000000 0.000000
vn -1.000000 0.000000 0.000000
vn 0.000000 -1.000000 0.000000
vn 0.000000 -1.000000 0.000000
vn 0.000000 -1.000000 0.000000
vn 0.000000 -1.000000 0.000000
vn -0.228197 -0.973615 0.000000
vn -0.228197 -0.973615 0.000000
vn -0.228197 -0.973615 0.000000
vn -0.228197 -0.973615 0.000000
vn 0.861260 -0.508165 -0.000014
vn 0.861260 -0.508165 -0.000014
vn 0.861260 -0.508165 -0.000014
vn 0.861260 -0.508165 -0.000014
vn 0.013748 -0.003967 -0.999898
vn 0.013748 -0.003967 -0.999898
vn 0.013748 -0.003967 -0.999898
vn 0.013748 -0.003967 -0.999898
vn 0.013743 -0.004030 0.999898
vn 0.013743 -0.004030 0.999898
vn 0.013743 -0.004030 0.999897
vn 0.013743 -0.004030 0.999898
vn 0.558910 -0.829228 -0.000031
vn 0.558910 -0.829228 -0.000031
vn 0.558910 -0.829228 -0.000031
vn 0.558910 -0.829228 -0.000031
vn 0.006388 -0.413649 -0.910414
vn 0.006388 -0.413649 -0.910414
vn 0.006388 -0.413649 -0.910414
vn 0.006388 -0.413649 -0.910414
vn 0.005820 -0.557449 0.830191
vn 0.005820 -0.557449 0.830191
vn 0.005820 -0.557449 0.830191
vn 0.005820 -0.557449 0.830191
vn 0.000000 1.000000 -0.000006
vn 0.000000 1.000000 -0.000006
vn 0.000000 1.000000 -0.000006
vn 0.000000 1.000000 -0.000006
vn 0.012485 -0.517029 0.855877
vn 0.012485 -0.517029 0.855877
vn 0.012485 -0.517029 0.855877
vn 0.012485 -0.517029 0.855877
vn 0.584606 -0.811317 0.000010
vn 0.584606 -0.811317 0.000010
vn 0.584606 -0.811317 0.000010
vn 0.584606 -0.811317 0.000010
vn 0.012490 -0.517003 -0.855892
vn 0.012490 -0.517003 -0.855892
vn 0.012490 -0.517003 -0.855892
vn 0.012490 -0.517003 -0.855892
vn 0.015464 -0.001338 0.999880
vn 0.015464 -0.001338 0.999880
vn 0.015464 -0.001338 0.999880
vn 0.015464 -0.001338 0.999880
vn 0.986042 -0.166495 -0.000012
vn 0.986042 -0.166495 -0.000012
vn 0.986042 -0.166495 -0.000012
vn 0.986042 -0.166495 -0.000012
vn 0.015468 -0.001282 -0.999880
vn 0.015468 -0.001282 -0.999880
vn 0.015468 -0.001282 -0.999880
vn 0.015468 -0.001282 -0.999880
vn -1.000000 -0.000027 0.000017
vn -1.000000 -0.000027 0.000017
vn -1.000000 -0.000027 0.000017
vn -1.000000 -0.000027 0.000017
vn -1.000000 0.000000 0.000010
vn -1.000000 0.000000 0.000010
vn -1.000000 0.000000 0.000010
vn -1.000000 0.000000 0.000010
vn -1.000000 -0.000172 -0.000031
vn -1.000000 -0.000172 -0.000031
vn -1.000000 -0.000172 -0.000031
vn -1.000000 -0.000172 -0.000031
vn -1.000000 0.000000 0.000026
vn -1.000000 0.000000 0.000026
vn -1.000000 0.000000 0.000026
vn -1.000000 0.000000 0.000026
vn 0.000000 -1.000000 0.000002
vn 0.000000 -1.000000 0.000002
vn 0.000000 -1.000000 0.000002
vn 0.000000 -1.000000 0.000002
vn -0.204085 -0.978953 -0.000005
vn -0.204085 -0.978953 -0.000005
vn -0.204085 -0.978953 -0.000005
vn -0.204085 -0.978953 -0.000005
vn -0.014284 -0.007352 -0.999871
vn -0.014284 -0.007352 -0.999871
vn -0.014284 -0.007352 -0.999871
vn -0.014284 -0.007352 -0.999871
vn -0.014252 -0.007453 0.999871
vn -0.014252 -0.007453 0.999871
vn -0.014252 -0.007453 0.999871
vn -0.014252 -0.007453 0.999871
vn -0.345434 -0.938443 -0.000013
vn -0.345433 -0.938443 -0.000013
vn -0.345433 -0.938443 -0.000013
vn -0.345433 -0.938443 -0.000013
vn 0.094060 -0.431141 -0.897368
vn 0.094060 -0.431141 -0.897368
vn 0.094060 -0.431141 -0.897368
vn 0.094060 -0.431141 -0.897368
vn 0.128463 -0.574136 0.808619
vn 0.128463 -0.574136 0.808619
vn 0.128463 -0.574136 0.808619
vn 0.128463 -0.574136 0.808619
vn -0.262820 0.964845 0.000002
vn -0.262820 0.964845 0.000002
vn -0.262820 0.964845 0.000002
vn -0.262820 0.964845 0.000002
vn 0.149599 -0.607355 0.780218
vn 0.149599 -0.607355 0.780218
vn 0.149599 -0.607355 0.780218
vn 0.149599 -0.607355 0.780218
vn -0.131571 -0.991307 -0.000001
vn -0.131571 -0.991307 -0.000001
vn -0.131571 -0.991307 -0.000001
vn -0.131571 -0.991307 -0.000001
vn 0.149591 -0.607345 -0.780228
vn 0.149591 -0.607345 -0.780228
vn 0.149591 -0.607345 -0.780228
vn 0.149591 -0.607345 -0.780228
vn -0.017570 -0.001516 0.999844
vn -0.017570 -0.001516 0.999844
vn -0.017570 -0.001516 0.999844
vn -0.017570 -0.001516 0.999845
vn -0.986043 -0.166489 -0.000012
vn -0.986043 -0.166489 -0.000012
vn -0.986043 -0.166489 -0.000012
vn -0.986043 -0.166489 -0.000012
vn -0.017591 -0.001462 -0.999844
vn -0.017591 -0.001462 -0.999844
vn -0.017591 -0.001462 -0.999844
vn -0.017591 -0.001462 -0.999844
vn -1.000000 0.000000 0.000019
vn -1.000000 0.000000 0.000019
vn -1.000000 0.000000 0.000019
vn -1.000000 0.000000 0.000019
vn 0.000000 0.000000 1.000000
vn 0.000000 0.000000 1.000000
vn 0.000000 0.000000 1.000000
vn 0.000000 0.000000 1.000000
vn 0.000000 0.000000 -1.000000
vn 0.000000 0.000000 -1.000000
vn 0.000000 0.000000 -1.000000
vn 0.000000 0.000000 -1.000000
vn 1.000000 0.000000 -0.000019
vn 1.000000 0.000000 -0.000019
vn 1.000000 0.000000 -0.000019
vn 1.000000 0.000000 -0.000019
vn 0.000000 -1.000000 0.000001
vn 0.000000 -1.000000 0.000001
vn 0.000000 -1.000000 0.000001
vn 0.000000 -1.000000 0.000001
vn 0.228197 -0.973615 0.000000
vn 0.228197 -0.973615 0.000000
vn 0.228197 -0.973615 0.000000
vn 0.228197 -0.973615 0.000000
vn -0.861270 -0.508147 -0.000025
vn -0.861270 -0.508147 -0.000025
vn -0.861270 -0.508147 -0.000025
vn -0.861270 -0.508147 -0.000025
vn -0.013748 -0.003966 -0.999898
vn -0.013748 -0.003966 -0.999898
vn -0.013748 -0.003966 -0.999898
vn -0.013748 -0.003966 -0.999898
vn -0.013743 -0.004030 0.999898
vn -0.013743 -0.004030 0.999898
vn -0.013743 -0.004030 0.999898
vn -0.013743 -0.004030 0.999898
vn -0.558906 -0.829231 -0.000021
vn -0.558906 -0.829231 -0.000021
vn -0.558906 -0.829231 -0.000021
vn -0.558906 -0.829231 -0.000021
vn -0.006388 -0.413647 -0.910415
vn -0.006388 -0.413647 -0.910415
vn -0.006388 -0.413647 -0.910415
vn -0.006388 -0.413647 -0.910415
vn -0.005819 -0.557446 0.830193
vn -0.005819 -0.557446 0.830193
vn -0.005819 -0.557446 0.830193
vn -0.005819 -0.557446 0.830193
vn -0.000000 1.000000 -0.000004
vn -0.000000 1.000000 -0.000004
vn -0.000000 1.000000 -0.000004
vn -0.000000 1.000000 -0.000004
vn -0.012485 -0.517029 0.855877
vn -0.012485 -0.517029 0.855877
vn -0.012485 -0.517029 0.855877
vn -0.012485 -0.517029 0.855877
vn -0.584612 -0.811313 -0.000003
vn -0.584612 -0.811313 -0.000003
vn -0.584612 -0.811313 -0.000003
vn -0.584612 -0.811313 -0.000003
vn -0.012490 -0.517004 -0.855892
vn -0.012490 -0.517004 -0.855892
vn -0.012490 -0.517004 -0.855892
vn -0.012490 -0.517004 -0.855892
vn -0.015464 -0.001338 0.999880
vn -0.015464 -0.001338 0.999880
vn -0.015464 -0.001338 0.999880
vn -0.015464 -0.001338 0.999880
vn -0.986042 -0.166496 -0.000013
vn -0.986042 -0.166496 -0.000013
vn -0.986042 -0.166496 -0.000013
vn -0.986042 -0.166496 -0.000013
vn -0.015468 -0.001283 -0.999880
vn -0.015468 -0.001283 -0.999880
vn -0.015468 -0.001283 -0.999880
vn -0.015468 -0.001283 -0.999880
vn 1.000000 -0.000029 0.000017
vn 1.000000 -0.000029 0.000017
vn 1.000000 -0.000029 0.000017
vn 1.000000 -0.000029 0.000017
vn 1.000000 0.000000 0.000010
vn 1.000000 0.000000 0.000010
vn 1.000000 0.000000 0.000010
vn 1.000000 0.000000 0.000010
vn 1.000000 -0.000171 -0.000031
vn 1.000000 -0.000171 -0.000031
vn 1.000000 -0.000171 -0.000031
vn 1.000000 -0.000171 -0.000031
vn 1.000000 0.000000 0.000026
vn 1.000000 0.000000 0.000026
vn 1.000000 0.000000 0.000026
vn 1.000000 0.000000 0.000026
vn 0.000000 -1.000000 0.000003
vn 0.000000 -1.000000 0.000003
vn 0.000000 -1.000000 0.000003
vn 0.000000 -1.000000 0.000003
vn 0.000000 -0.000006 -1.000000
vn 0.000000 -0.000006 -1.000000
vn 0.000000 -0.000006 -1.000000
vn 0.000001 -0.000004 -1.000000
vn 0.000001 -0.000004 -1.000000
vn 0.000001 -0.000004 -1.000000
vn 0.000001 -0.000004 -1.000000
vn 0.000001 -0.000004 -1.000000
vn 0.000001 -0.000004 -1.000000
vn 0.000000 -0.000008 -1.000000
vn 0.000000 -0.000008 -1.000000
vn 0.000000 -0.000008 -1.000000
vn 0.000000 -0.000008 -1.000000
vn 0.000720 0.195366 0.980730
vn 0.000720 0.195367 0.980730
vn 0.000720 0.195367 0.980730
vn 0.000720 0.195367 0.980730
vn 0.005459 -0.816861 0.576809
vn 0.005459 -0.816861 0.576809
vn 0.005459 -0.816861 0.576809
vn 0.005459 -0.816861 0.576809
vn 0.001431 -0.625165 0.780491
vn 0.001431 -0.625165 0.780491
vn 0.001431 -0.625165 0.780491
vn 0.001431 -0.625165 0.780491
vn 0.001399 0.189505 0.981879
vn 0.001399 0.189505 0.981879
vn 0.001399 0.189505 0.981879
vn 0.001399 0.189505 0.981879
vn 0.001083 -0.858563 0.512707
vn 0.001083 -0.858563 0.512707
vn 0.001083 -0.858563 0.512707
vn 0.001083 -0.858563 0.512707
vn 0.001315 0.210200 0.977657
vn 0.001315 0.210200 0.977658
vn 0.001315 0.210200 0.977657
s off
f 4/1/1 1/4/2 2/5/3
f 113/183/4 119/190/5 6/8/6 4/9/7 2/10/8
f 9/11/9 10/12/10 14/13/11 13/14/12
f 11/15/13 117/188/14 3/18/15 8/19/16
f 11/23/17 13/21/18 12/22/19
f 4/1/20 5/3/21 17/28/22 21/33/23 1/4/24
f 4/1/25 6/2/26 5/3/27
f 9/20/28 13/21/29 11/23/30
f 9/20/31 11/23/32 8/24/33
f 18/29/34 21/32/35 17/27/36 16/26/37
f 18/29/38 16/26/39 19/30/40 20/31/41
f 20/31/42 19/30/43 15/25/44
f 34/34/45 35/35/46 36/36/47 37/37/48
f 35/35/49 26/38/50 27/39/51 36/36/52
f 28/40/53 34/34/54 37/37/55 29/41/56
f 22/42/57 23/43/58 35/35/59 34/34/60
f 23/43/61 25/44/62 26/38/63 35/35/64
f 24/45/65 22/42/66 34/34/67 28/40/68
f 41/46/69 33/47/70 32/48/71 40/49/72
f 29/41/73 37/37/74 38/50/75 30/51/76
f 37/37/77 36/36/78 39/52/79 38/50/80
f 36/36/81 27/39/82 31/53/83 39/52/84
f 30/51/85 38/50/86 40/49/87 32/48/88
f 38/50/89 39/52/90 41/46/91 40/49/92
f 39/52/93 31/53/94 33/47/95 41/46/96
f 23/54/97 22/55/98 42/56/99 43/57/100
f 42/58/101 22/59/102 44/60/103 45/61/104
f 23/62/105 43/63/106 47/64/107 46/65/108
f 45/66/109 44/67/110 46/68/111 47/69/112
f 43/57/113 42/58/114 45/66/115 47/64/116
f 25/70/117 23/71/118 22/72/119 24/73/120
f 52/74/121 53/75/122 54/76/123 55/77/124
f 53/75/125 56/78/126 57/79/127 54/76/128
f 58/80/129 52/74/130 55/77/131 59/81/132
f 48/82/133 49/83/134 53/75/135 52/74/136
f 49/83/137 51/84/138 56/78/139 53/75/140
f 50/85/141 48/82/142 52/74/143 58/80/144
f 66/86/145 67/87/146 64/88/147 65/89/148
f 59/81/149 55/77/150 61/90/151 60/91/152
f 55/77/153 54/76/154 62/92/155 61/90/156
f 54/76/157 57/79/158 63/93/159 62/92/160
f 60/91/161 61/90/162 65/89/163 64/88/164
f 61/90/165 62/92/166 66/86/167 65/89/168
f 62/92/169 63/93/170 67/87/171 66/86/172
f 57/94/173 59/95/174 60/96/175 63/97/176
f 63/97/177 60/96/178 64/98/179 67/99/180
f 50/100/181 58/101/182 56/102/183 51/103/184
f 56/102/185 58/101/186 59/95/187 57/94/188
f 51/84/189 49/83/190 48/82/191 50/100/192
f 70/104/193 73/105/194 72/106/195 71/107/196
f 71/107/197 72/106/198 27/108/199 26/109/200
f 28/110/201 29/111/202 73/105/203 70/104/204
f 68/112/205 70/104/206 71/107/207 69/113/208
f 69/113/209 71/107/210 26/109/211 25/114/212
f 24/115/213 28/110/214 70/104/215 68/112/216
f 77/116/217 76/117/218 32/118/219 33/119/220
f 29/111/221 30/120/222 74/121/223 73/105/224
f 73/105/225 74/121/226 75/122/227 72/106/228
f 72/106/229 75/122/230 31/123/231 27/108/232
f 30/120/233 32/118/234 76/117/235 74/121/236
f 74/121/237 76/117/238 77/116/239 75/122/240
f 75/122/241 77/116/242 33/119/243 31/123/244
f 69/124/245 79/125/246 78/126/247 68/127/248
f 78/128/249 81/129/250 80/130/251 68/131/252
f 69/132/253 82/133/254 83/134/255 79/135/256
f 81/136/257 83/137/258 82/138/259 80/139/260
f 79/125/261 83/134/262 81/136/263 78/128/264
f 25/140/265 24/141/266 68/142/267 69/143/268
f 88/144/269 91/145/270 90/146/271 89/147/272
f 89/147/273 90/146/274 93/148/275 92/149/276
f 94/150/277 95/151/278 91/145/279 88/144/280
f 84/152/281 88/144/282 89/147/283 85/153/284
f 85/153/285 89/147/286 92/149/287 87/154/288
f 86/155/289 94/150/290 88/144/291 84/152/292
f 102/156/293 101/157/294 100/158/295 103/159/296
f 95/151/297 96/160/298 97/161/299 91/145/300
f 91/145/301 97/161/302 98/162/303 90/146/304
f 90/146/305 98/162/306 99/163/307 93/148/308
f 96/160/309 100/158/310 101/157/311 97/161/312
f 97/161/313 101/157/314 102/156/315 98/162/316
f 98/162/317 102/156/318 103/159/319 99/163/320
f 93/164/321 99/165/322 96/166/323 95/167/324
f 99/165/325 103/168/326 100/169/327 96/166/328
f 86/170/329 87/171/330 92/172/331 94/173/332
f 92/172/333 93/164/334 95/167/335 94/173/336
f 87/154/337 86/170/338 84/152/339 85/153/340
f 111/174/341 112/175/342 106/176/343
f 108/177/344 104/178/345 110/179/346 109/180/347 105/181/348 107/182/349
f 109/180/350 110/179/351 112/175/352 111/174/353
f 3/6/354 117/187/355 118/194/356 116/195/357
f 116/186/358 118/189/359 119/191/360 113/193/361
f 11/15/362 12/16/363 7/17/364 117/188/365
f 118/194/366 117/187/367 7/7/368 115/185/369
f 119/191/370 118/189/371 115/196/372 114/184/373
f 6/8/374 119/190/375 114/192/376
