# This file uses centimeters as units for non-parametric coordinates.

v -246.836151 -27.392214 330.704102
v -319.933044 -27.392214 270.442169
v 330.703979 -27.392214 246.835953
v -337.545959 -27.392214 218.886154
v 248.297104 72.325165 132.295395
v -332.359344 -27.392214 132.943756
v -231.111877 77.178131 131.906296
v -332.359344 -27.392214 -0.000156
v -332.359344 -27.392214 -132.943756
v -246.836151 -27.392214 -330.704407
v 300.686157 -27.392214 300.686249
v -269.796906 56.778446 67.359795
v 130.869125 76.315147 -65.434654
v -65.434547 76.315147 -130.869476
v -132.295441 58.138809 -248.297150
v 66.173035 56.778446 -247.236450
v -300.686127 -27.392214 -300.686249
v 132.943756 -27.392214 -332.359344
v -300.686127 -27.392214 300.686249
v -264.235992 61.651417 264.235870
v -132.814072 45.733856 282.310638
v 67.360077 56.778450 269.796631
v -67.360077 70.964813 269.796631
v 0.000000 -27.392214 332.359344
v 67.716637 -27.392214 338.583405
v 132.943756 -27.392214 332.359344
v 132.295441 72.325165 248.297134
v 218.886230 -27.392214 337.545654
v 270.442200 -27.392214 319.932953
v 234.071579 76.133202 268.129181
v -253.332687 62.353424 137.652618
v 268.129242 64.008942 234.071686
v -131.517456 78.441422 213.959106
v 65.434547 76.315147 130.869156
v 130.869125 73.125748 130.869156
v 332.359344 -27.392214 132.943756
v -338.583221 -27.392214 67.716438
v -130.869156 76.315147 65.434654
v 130.869125 76.315147 65.434654
v 338.583221 -27.392214 67.716438
v 269.796936 55.601948 67.359795
v -269.796906 70.964813 -67.360115
v -213.959015 78.441422 -0.000156
v 332.359344 -27.392214 -0.000156
v -338.583221 -27.392214 -67.716743
v 65.434547 76.315147 -130.869476
v 338.583221 -27.392214 -67.716743
v 244.059738 70.964813 -74.847923
v -282.311005 45.733856 -132.814285
v -213.959015 78.441422 -131.517532
v 213.959045 78.441422 -131.517532
v 332.359344 -27.392214 -132.943756
v -337.545959 -27.392214 -218.886169
v -67.360077 70.964813 -269.796936
v 337.545959 -27.392214 -218.886169
v -319.933044 -27.392214 -270.442169
v -264.235992 61.651409 -264.236176
v 234.071579 76.133202 -268.129517
v 268.129272 64.008942 -234.072021
v -67.716667 -27.392214 -338.583405
v -132.943802 -27.392214 -332.359344
v 67.716637 -27.392214 -338.583405
v 0.000000 -27.392214 -332.359344
v 246.836121 -27.392214 -330.704407
v 319.932983 -27.392214 -270.442169
v 300.686157 -27.392214 -300.686249
v -132.943802 -27.392214 332.359344
v -67.716667 -27.392214 338.583405
v 131.906418 77.178131 -231.111908
vt 0.270326 0.301428
vt 0.270326 0.301428
vt 0.270326 0.301428
vt 0.270326 0.301428
vt 0.270326 0.301428
vt 0.270326 0.301428
vt 0.270326 0.301428
vt 0.270326 0.301428
vt 0.270326 0.301428
vt 0.270325 0.301428
vt 0.270325 0.301428
vt 0.270325 0.301428
vt 0.270325 0.301428
vt 0.270325 0.301428
vt 0.270325 0.301428
vt 0.270325 0.301428
vt 0.270325 0.301428
vt 0.270326 0.301428
vt 0.270326 0.301428
vt 0.270326 0.301428
vt 0.270326 0.301428
vt 0.270325 0.301428
vt 0.270325 0.301428
vt 0.270325 0.301428
vt 0.270325 0.301428
vt 0.270325 0.301428
vt 0.270325 0.301428
vt 0.270326 0.301428
vt 0.270326 0.301428
vt 0.270326 0.301428
vt 0.270326 0.301428
vt 0.270325 0.301428
vt 0.270325 0.301428
vt 0.270325 0.301428
vt 0.270326 0.301428
vt 0.270326 0.301428
vt 0.270326 0.301428
vt 0.270326 0.301428
vt 0.270325 0.301428
vt 0.270325 0.301428
vt 0.270326 0.301428
vt 0.270325 0.301428
vt 0.270325 0.301428
vt 0.270325 0.301428
vt 0.270326 0.301428
vt 0.270326 0.301428
vt 0.270326 0.301428
vt 0.270326 0.301428
vt 0.270325 0.301428
vt 0.270325 0.301428
vt 0.270326 0.301428
vt 0.270326 0.301428
vt 0.270325 0.301428
vt 0.270325 0.301428
vt 0.270326 0.301428
vt 0.270326 0.301428
vt 0.270325 0.301428
vt 0.270325 0.301428
vt 0.270325 0.301428
vt 0.270325 0.301428
vt 0.270326 0.301428
vt 0.270326 0.301428
vt 0.270326 0.301428
vt 0.270326 0.301428
vt 0.270326 0.301428
vt 0.270325 0.301428
vt 0.270325 0.301428
vt 0.270325 0.301428
vt 0.270325 0.301428
vn -0.734481 0.491998 0.467414
vn -0.734481 0.491998 0.467414
vn -0.734481 0.491998 0.467414
vn -0.027683 0.581326 0.813200
vn -0.027683 0.581326 0.813200
vn -0.027683 0.581326 0.813200
vn -0.027683 0.581326 0.813200
vn -0.425387 0.486518 0.763116
vn -0.425387 0.486518 0.763116
vn -0.425387 0.486518 0.763116
vn -0.078495 0.563152 0.822617
vn -0.078495 0.563152 0.822617
vn -0.078495 0.563152 0.822617
vn -0.064194 0.572083 0.817680
vn -0.064194 0.572083 0.817680
vn -0.064194 0.572083 0.817680
vn 0.075119 0.571307 0.817291
vn 0.075119 0.571307 0.817291
vn 0.075119 0.571307 0.817291
vn -0.079492 0.495678 0.864861
vn -0.079492 0.495678 0.864861
vn -0.079492 0.495678 0.864861
vn 0.066505 0.631564 0.772466
vn 0.066505 0.631564 0.772466
vn 0.066505 0.631564 0.772466
vn 0.072741 0.643107 0.762314
vn 0.072741 0.643107 0.762314
vn 0.072741 0.643107 0.762314
vn 0.104161 0.629619 0.769890
vn 0.104161 0.629619 0.769890
vn 0.104161 0.629619 0.769890
vn -0.046099 0.643678 0.763907
vn -0.046099 0.643678 0.763907
vn -0.046099 0.643678 0.763907
vn 0.278783 0.506294 0.816056
vn 0.278783 0.506294 0.816056
vn 0.278783 0.506294 0.816056
vn -0.178039 0.565902 0.805020
vn -0.178039 0.565902 0.805020
vn -0.178039 0.565902 0.805020
vn 0.458183 0.521245 0.719981
vn 0.458183 0.521245 0.719981
vn 0.458183 0.521245 0.719981
vn -0.806264 0.523518 0.275441
vn -0.806264 0.523518 0.275441
vn -0.806264 0.523518 0.275441
vn -0.754986 0.652859 -0.061410
vn -0.754986 0.652859 -0.061410
vn -0.754986 0.652859 -0.061410
vn 0.049677 0.900562 0.431879
vn 0.049677 0.900562 0.431879
vn 0.049677 0.900562 0.431879
vn -0.089888 0.991521 0.093839
vn -0.089888 0.991521 0.093839
vn -0.089888 0.991521 0.093839
vn -0.562270 0.825790 -0.043852
vn -0.562270 0.825790 -0.043852
vn -0.562270 0.825790 -0.043852
vn -0.257724 0.873466 0.413082
vn -0.257724 0.873466 0.413082
vn -0.257724 0.873466 0.413081
vn 0.104715 0.994420 0.012835
vn 0.104715 0.994420 0.012835
vn 0.104715 0.994420 0.012835
vn 0.048683 0.998795 0.006218
vn 0.048683 0.998795 0.006218
vn 0.048683 0.998795 0.006218
vn -0.186696 0.972486 0.139344
vn -0.186695 0.972486 0.139344
vn -0.186696 0.972486 0.139344
vn 0.006736 0.999955 0.006735
vn 0.006736 0.999955 0.006735
vn 0.006736 0.999955 0.006735
vn 0.343953 0.938937 0.009699
vn 0.343953 0.938937 0.009699
vn 0.343953 0.938937 0.009699
vn -0.031283 0.999021 -0.031283
vn -0.031283 0.999021 -0.031283
vn -0.031283 0.999021 -0.031283
vn 0.701557 0.565717 0.433338
vn 0.701557 0.565717 0.433338
vn 0.701557 0.565717 0.433338
vn 0.701557 0.565717 0.433338
vn 0.794101 0.606223 -0.043552
vn 0.794101 0.606223 -0.043552
vn 0.794101 0.606223 -0.043552
vn 0.794101 0.606223 -0.043552
vn -0.748561 0.661525 -0.045176
vn -0.748561 0.661525 -0.045176
vn -0.748561 0.661525 -0.045176
vn 0.068881 0.988036 0.137988
vn 0.068881 0.988036 0.137988
vn 0.068881 0.988036 0.137988
vn -0.750438 0.657051 0.071605
vn -0.750438 0.657051 0.071605
vn -0.750438 0.657051 0.071605
vn -0.767482 0.627756 0.129974
vn -0.767482 0.627756 0.129974
vn -0.767482 0.627756 0.129974
vn -0.543034 0.837509 0.060768
vn -0.543034 0.837509 0.060768
vn -0.543034 0.837509 0.060768
vn -0.138799 0.965153 -0.221846
vn -0.138799 0.965153 -0.221846
vn -0.138799 0.965153 -0.221846
vn -0.000887 0.999897 -0.014318
vn -0.000887 0.999897 -0.014318
vn -0.000887 0.999897 -0.014318
vn 0.004765 0.999887 -0.014293
vn 0.004765 0.999887 -0.014293
vn 0.004765 0.999887 -0.014293
vn 0.048626 0.997633 0.048627
vn 0.048626 0.997633 0.048627
vn 0.048626 0.997633 0.048627
vn 0.084452 0.992436 -0.089098
vn 0.084452 0.992436 -0.089098
vn 0.084452 0.992436 -0.089098
vn 0.084452 0.992436 -0.089098
vn 0.766611 0.635761 0.090090
vn 0.766611 0.635761 0.090090
vn 0.766611 0.635761 0.090090
vn 0.762314 0.643107 0.072739
vn 0.762314 0.643107 0.072739
vn 0.762314 0.643107 0.072739
vn -0.772468 0.631561 0.066505
vn -0.772468 0.631561 0.066505
vn -0.772468 0.631561 0.066505
vn -0.864861 0.495678 -0.079490
vn -0.864861 0.495678 -0.079490
vn -0.864861 0.495678 -0.079490
vn -0.133670 0.970373 0.201267
vn -0.133670 0.970373 0.201267
vn -0.133670 0.970373 0.201267
vn -0.251176 0.962619 0.101366
vn -0.251176 0.962619 0.101366
vn -0.251176 0.962619 0.101366
vn 0.000000 1.000000 -0.000000
vn 0.000000 1.000000 -0.000000
vn 0.000000 1.000000 -0.000000
vn 0.000000 1.000000 0.000000
vn 0.000000 1.000000 0.000000
vn 0.000000 1.000000 0.000000
vn 0.147463 0.989068 0.000000
vn 0.147463 0.989068 0.000000
vn 0.147463 0.989068 0.000000
vn 0.768160 0.636354 -0.070602
vn 0.768160 0.636354 -0.070602
vn 0.768160 0.636354 -0.070602
vn -0.817294 0.571304 0.075118
vn -0.817293 0.571304 0.075118
vn -0.817294 0.571304 0.075118
vn 0.020265 0.999772 0.006755
vn 0.020265 0.999772 0.006755
vn 0.020265 0.999772 0.006755
vn 0.000000 1.000000 -0.000000
vn 0.000000 1.000000 -0.000000
vn 0.000000 1.000000 -0.000000
vn 0.000000 1.000000 0.000000
vn 0.000000 1.000000 0.000000
vn 0.000000 1.000000 0.000000
vn 0.055071 0.993722 0.097386
vn 0.055071 0.993722 0.097386
vn 0.055071 0.993722 0.097386
vn 0.721912 0.689704 -0.056144
vn 0.721912 0.689704 -0.056144
vn 0.721912 0.689704 -0.056144
vn 0.824846 0.560252 0.075812
vn 0.824846 0.560252 0.075812
vn 0.824846 0.560252 0.075812
vn -0.817681 0.572081 -0.064192
vn -0.817681 0.572081 -0.064192
vn -0.817681 0.572081 -0.064192
vn -0.822619 0.563149 -0.078493
vn -0.822619 0.563149 -0.078493
vn -0.822619 0.563149 -0.078493
vn -0.132714 0.991154 0.000000
vn -0.132714 0.991154 0.000000
vn -0.132714 0.991154 0.000000
vn -0.413079 0.873467 -0.257724
vn -0.413079 0.873467 -0.257724
vn -0.413079 0.873467 -0.257724
vn 0.241269 0.970458 0.000000
vn 0.241269 0.970458 0.000000
vn 0.241269 0.970458 0.000000
vn -0.080552 0.990934 -0.107519
vn -0.080552 0.990934 -0.107519
vn -0.080552 0.990934 -0.107519
vn 0.055402 0.993280 0.101619
vn 0.055402 0.993280 0.101619
vn 0.055402 0.993280 0.101619
vn 0.721796 0.688670 -0.068873
vn 0.721796 0.688670 -0.068873
vn 0.721796 0.688670 -0.068873
vn -0.824249 0.564038 0.049743
vn -0.824249 0.564038 0.049743
vn -0.824249 0.564038 0.049743
vn 0.000000 0.999259 -0.038483
vn 0.000000 0.999259 -0.038483
vn 0.000000 0.999259 -0.038483
vn -0.005176 0.999973 0.005176
vn -0.005176 0.999973 0.005176
vn -0.005176 0.999973 0.005176
vn -0.021549 0.999755 0.005073
vn -0.021549 0.999755 0.005073
vn -0.021549 0.999755 0.005073
vn 0.756608 0.652272 0.045661
vn 0.756608 0.652272 0.045661
vn 0.756608 0.652272 0.045661
vn -0.779427 0.625706 -0.031414
vn -0.779427 0.625706 -0.031414
vn -0.779427 0.625706 -0.031414
vn -0.806264 0.523517 -0.275441
vn -0.806264 0.523517 -0.275441
vn -0.806264 0.523517 -0.275441
vn -0.431877 0.900563 0.049677
vn -0.431877 0.900564 0.049677
vn -0.431877 0.900563 0.049677
vn 0.043431 0.988976 -0.141566
vn 0.043431 0.988976 -0.141566
vn 0.043431 0.988976 -0.141566
vn -0.204746 0.978195 -0.034834
vn -0.204746 0.978195 -0.034834
vn -0.204746 0.978195 -0.034834
vn 0.131471 0.977774 -0.163323
vn 0.131471 0.977774 -0.163323
vn 0.131471 0.977774 -0.163323
vn -0.256117 0.953037 -0.161630
vn -0.256117 0.953037 -0.161630
vn -0.256117 0.953037 -0.161630
vn -0.158012 0.873350 -0.460752
vn -0.158012 0.873350 -0.460752
vn -0.158012 0.873350 -0.460752
vn 0.093899 0.991511 -0.089937
vn 0.093899 0.991511 -0.089937
vn 0.093899 0.991511 -0.089937
vn 0.249256 0.968427 -0.004627
vn 0.249256 0.968427 -0.004627
vn 0.249256 0.968427 -0.004627
vn 0.098566 0.964549 0.244807
vn 0.098566 0.964549 0.244807
vn 0.098566 0.964549 0.244807
vn 0.785562 0.611902 0.092020
vn 0.785562 0.611902 0.092020
vn 0.785562 0.611902 0.092020
vn 0.787984 0.553727 -0.269198
vn 0.787984 0.553727 -0.269198
vn 0.787984 0.553727 -0.269198
vn -0.734482 0.491997 -0.467414
vn -0.734482 0.491997 -0.467414
vn -0.734482 0.491997 -0.467414
vn -0.425391 0.486516 -0.763115
vn -0.425391 0.486516 -0.763115
vn -0.425391 0.486516 -0.763115
vn 0.053155 0.655024 -0.753736
vn 0.053155 0.655024 -0.753736
vn 0.053155 0.655024 -0.753736
vn 0.053155 0.655024 -0.753736
vn -0.358881 0.535803 -0.764278
vn -0.358881 0.535802 -0.764278
vn -0.358881 0.535802 -0.764278
vn -0.067873 0.699601 -0.711302
vn -0.067873 0.699601 -0.711302
vn -0.067873 0.699601 -0.711302
vn 0.075121 0.571305 -0.817293
vn 0.075121 0.571305 -0.817293
vn 0.075121 0.571305 -0.817293
vn 0.189019 0.723736 -0.663685
vn 0.189019 0.723736 -0.663685
vn 0.189019 0.723736 -0.663685
vn -0.079493 0.495676 -0.864862
vn -0.079493 0.495676 -0.864862
vn -0.079493 0.495676 -0.864862
vn -0.166758 0.723700 -0.669664
vn -0.166758 0.723700 -0.669664
vn -0.166758 0.723700 -0.669664
vn 0.084109 0.464716 -0.881456
vn 0.084109 0.464716 -0.881456
vn 0.084109 0.464716 -0.881456
vn 0.012425 0.518369 -0.855067
vn 0.012425 0.518369 -0.855067
vn 0.012425 0.518369 -0.855067
vn 0.540611 0.548470 -0.637903
vn 0.540611 0.548470 -0.637903
vn 0.540611 0.548470 -0.637903
vn 0.540611 0.548470 -0.637903
vn 0.693812 0.568926 -0.441530
vn 0.693812 0.568926 -0.441530
vn 0.693812 0.568926 -0.441530
s off
f 19/1/1 20/2/2 2/3/3
f 1/4/4 67/5/5 21/6/6 20/2/7
f 19/1/8 1/4/9 20/2/10
f 67/5/11 68/7/12 21/6/13
f 21/6/14 68/7/15 23/8/16
f 68/7/17 24/9/18 23/8/19
f 24/9/20 25/10/21 23/8/22
f 23/8/23 25/10/24 22/11/25
f 25/10/26 26/12/27 27/13/28
f 25/10/29 27/13/30 22/11/31
f 26/12/32 28/14/33 27/13/34
f 28/14/35 29/15/36 30/16/37
f 28/14/38 30/16/39 27/13/40
f 29/15/41 11/17/42 30/16/43
f 2/3/44 20/2/45 4/18/46
f 4/18/47 20/2/48 31/19/49
f 20/2/50 21/6/51 33/20/52
f 20/2/53 33/20/54 7/21/55
f 20/2/56 7/21/57 31/19/58
f 21/6/59 23/8/60 33/20/61
f 23/8/62 22/11/63 33/20/64
f 27/13/65 35/22/66 34/23/67
f 22/11/68 27/13/69 34/23/70
f 27/13/71 5/24/72 35/22/73
f 30/16/74 32/25/75 5/24/76
f 27/13/77 30/16/78 5/24/79
f 30/16/80 11/17/81 3/26/82 32/25/83
f 32/25/84 3/26/85 36/27/86 5/24/87
f 4/18/88 31/19/89 6/28/90
f 22/11/91 34/23/92 33/20/93
f 6/28/94 31/19/95 37/29/96
f 31/19/97 12/30/98 37/29/99
f 31/19/100 7/21/101 12/30/102
f 7/21/103 38/31/104 12/30/105
f 7/21/106 33/20/107 38/31/108
f 33/20/109 34/23/110 38/31/111
f 34/23/112 35/22/113 39/32/114
f 35/22/115 5/24/116 41/33/117 39/32/118
f 5/24/119 40/34/120 41/33/121
f 5/24/122 36/27/123 40/34/124
f 37/29/125 12/30/126 42/35/127
f 37/29/128 42/35/129 8/36/130
f 12/30/131 38/31/132 43/37/133
f 12/30/134 43/37/135 42/35/136
f 38/31/137 34/23/138 14/38/139
f 34/23/140 39/32/141 14/38/142
f 39/32/143 41/33/144 13/39/145
f 40/34/146 44/40/147 41/33/148
f 8/36/149 42/35/150 45/41/151
f 38/31/152 14/38/153 43/37/154
f 14/38/155 39/32/156 46/42/157
f 39/32/158 13/39/159 46/42/160
f 13/39/161 41/33/162 48/43/163
f 41/33/164 47/44/165 48/43/166
f 41/33/167 44/40/168 47/44/169
f 45/41/170 42/35/171 49/45/172
f 45/41/173 49/45/174 9/46/175
f 42/35/176 43/37/177 50/47/178
f 42/35/179 50/47/180 49/45/181
f 43/37/182 15/48/183 50/47/184
f 43/37/185 14/38/186 15/48/187
f 13/39/188 48/43/189 51/49/190
f 47/44/191 52/50/192 48/43/193
f 9/46/194 49/45/195 53/51/196
f 14/38/197 46/42/198 54/52/199
f 46/42/200 13/39/201 69/53/202
f 13/39/203 51/49/204 69/53/205
f 48/43/206 52/50/207 55/54/208
f 53/51/209 49/45/210 57/55/211
f 53/51/212 57/55/213 56/56/214
f 49/45/215 50/47/216 57/55/217
f 50/47/218 15/48/219 57/55/220
f 14/38/221 54/52/222 15/48/223
f 54/52/224 46/42/225 16/57/226
f 46/42/227 69/53/228 16/57/229
f 69/53/230 58/58/231 16/57/232
f 51/49/233 59/59/234 69/53/235
f 51/49/236 48/43/237 59/59/238
f 69/53/239 59/59/240 58/58/241
f 48/43/242 55/54/243 59/59/244
f 59/59/245 55/54/246 65/60/247
f 56/56/248 57/55/249 17/61/250
f 57/55/251 10/62/252 17/61/253
f 57/55/254 15/48/255 61/63/256 10/62/257
f 15/48/258 54/52/259 60/64/260
f 15/48/261 60/64/262 61/63/263
f 60/64/264 54/52/265 63/65/266
f 54/52/267 16/57/268 62/66/269
f 54/52/270 62/66/271 63/65/272
f 16/57/273 58/58/274 62/66/275
f 62/66/276 58/58/277 18/67/278
f 58/58/279 64/68/280 18/67/281
f 58/58/282 59/59/283 66/69/284 64/68/285
f 59/59/286 65/60/287 66/69/288
