# This file uses centimeters as units for non-parametric coordinates.

v -305.251343 80.563286 -88.346008
v -202.972412 19.587406 12.248325
v 403.817017 31.618767 -15.374660
v -469.461060 -27.392216 105.111412
v -365.748596 -27.392216 144.831558
v -339.454254 -27.392216 146.564957
v 0.000000 46.197079 -92.210297
v 0.000000 30.264595 -13.593769
v 332.827179 66.851410 -60.497574
v 565.756653 -27.392216 -79.737762
v -555.357361 -27.392216 -124.422173
v -565.756653 -27.392216 -79.737762
v -431.439941 51.853401 -143.592545
v -564.023621 -27.392216 -53.443436
v -409.767151 55.506790 -61.473373
v -534.593201 -27.392216 32.704258
v -502.432251 -27.392216 83.240601
v -403.817383 31.969519 -15.374660
v -379.458618 85.087753 -144.385056
v -300.991089 88.504868 -146.069443
v -357.718628 43.520809 -9.424877
v -200.000000 66.541008 -146.564957
v -202.179718 44.790699 -39.733215
v -222.142792 -27.392216 136.165146
v -100.000000 87.651123 -146.564957
v -113.151550 -27.392216 146.564957
v -102.942657 36.018505 -6.876087
v 0.000000 -27.392216 136.165146
v 101.089859 61.428822 -75.819878
v 113.151169 -27.392216 146.564774
v 102.942657 35.886814 -6.876087
v 99.999619 68.590027 -146.564957
v 200.990662 45.910217 -92.210297
v 222.142395 -27.392216 136.164948
v 339.453857 -27.392216 146.564774
v 202.972046 19.587406 12.248325
v 405.597839 78.681450 -143.889908
v 409.766968 57.954109 -61.473373
v 357.718506 40.587059 -9.424877
v 365.748413 -27.392216 144.831558
v 555.356628 -27.392216 -124.422173
v 564.023010 -27.392216 -53.443436
v 451.896057 -27.392216 115.401176
v 502.432098 -27.392216 83.240417
v 524.303040 -27.392216 50.269028
v 353.195190 88.205544 -144.979752
v 219.805145 67.187317 -145.920456
v -8.031082 68.501816 -146.564957
v -28.443527 -27.392216 -141.995331
vt 0.270269 0.303446
vt 0.270269 0.303446
vt 0.270269 0.303446
vt 0.270269 0.303446
vt 0.270269 0.303446
vt 0.270269 0.303446
vt 0.270269 0.303446
vt 0.270269 0.303446
vt 0.270269 0.303446
vt 0.270269 0.303446
vt 0.270269 0.303446
vt 0.270269 0.303446
vt 0.270269 0.303446
vt 0.270269 0.303446
vt 0.270269 0.303446
vt 0.270269 0.303446
vt 0.270269 0.303446
vt 0.270269 0.303446
vt 0.270269 0.303446
vt 0.270269 0.303446
vt 0.270269 0.303446
vt 0.270269 0.303446
vt 0.270269 0.303446
vt 0.270269 0.303446
vt 0.270269 0.303446
vt 0.270269 0.303446
vt 0.270269 0.303446
vt 0.270269 0.303446
vt 0.270269 0.303446
vt 0.270269 0.303446
vt 0.270269 0.303446
vt 0.270269 0.303446
vt 0.270269 0.303446
vt 0.270269 0.303446
vt 0.270269 0.303446
vt 0.270269 0.303446
vt 0.270269 0.303446
vt 0.270269 0.303446
vt 0.270269 0.303446
vt 0.270269 0.303446
vt 0.270269 0.303446
vt 0.270269 0.303446
vt 0.270269 0.303446
vt 0.270269 0.303446
vt 0.270269 0.303446
vt 0.270269 0.303446
vt 0.270269 0.303446
vt 0.270269 0.303446
vt 0.270269 0.303446
vt 0.270269 0.303446
vt 0.270269 0.303446
vt 0.270269 0.303446
vt 0.270269 0.303446
vt 0.270269 0.303446
vt 0.270269 0.303446
vt 0.270269 0.303446
vt 0.270269 0.303446
vt 0.270269 0.303446
vt 0.270269 0.303446
vt 0.270269 0.303446
vt 0.270269 0.303446
vt 0.270269 0.303446
vt 0.270269 0.303446
vt 0.270269 0.303446
vt 0.270269 0.303446
vt 0.270269 0.303446
vt 0.270269 0.303446
vt 0.270269 0.303446
vt 0.270269 0.303446
vt 0.270269 0.303446
vt 0.270269 0.303446
vt 0.270269 0.303446
vt 0.270269 0.303446
vt 0.270269 0.303446
vt 0.270269 0.303446
vt 0.270269 0.303446
vt 0.270269 0.303446
vt 0.270269 0.303446
vt 0.270269 0.303446
vt 0.270269 0.303446
vt 0.270269 0.303446
vn -0.548288 0.826497 -0.127602
vn -0.548288 0.826497 -0.127602
vn -0.548288 0.826497 -0.127602
vn -0.402495 0.793217 0.456952
vn -0.402495 0.793216 0.456952
vn -0.402496 0.793216 0.456952
vn -0.370988 0.919948 0.126740
vn -0.370988 0.919949 0.126740
vn -0.370988 0.919948 0.126740
vn -0.474681 0.877132 0.072923
vn -0.474681 0.877132 0.072923
vn -0.474681 0.877132 0.072923
vn -0.474681 0.877132 0.072923
vn -0.291520 0.919919 0.262230
vn -0.291520 0.919920 0.262230
vn -0.291520 0.919919 0.262230
vn -0.291520 0.919919 0.262230
vn -0.040263 0.990262 0.133269
vn -0.040263 0.990262 0.133269
vn -0.040263 0.990262 0.133269
vn -0.534634 0.838686 0.103788
vn -0.534634 0.838686 0.103788
vn -0.534634 0.838687 0.103788
vn -0.271188 0.842624 0.465232
vn -0.271188 0.842624 0.465232
vn -0.271188 0.842624 0.465232
vn -0.133311 0.928310 0.347086
vn -0.133311 0.928310 0.347086
vn -0.133311 0.928310 0.347086
vn 0.077622 0.896633 0.435917
vn 0.077622 0.896633 0.435917
vn 0.077622 0.896633 0.435917
vn 0.084147 0.879354 0.468675
vn 0.084147 0.879354 0.468675
vn 0.084147 0.879354 0.468675
vn -0.154711 0.947057 0.281333
vn -0.154711 0.947057 0.281333
vn -0.154711 0.947057 0.281333
vn -0.185686 0.906199 0.379900
vn -0.185686 0.906199 0.379900
vn -0.185686 0.906199 0.379900
vn -0.185686 0.906199 0.379900
vn 0.067934 0.911217 0.406285
vn 0.067934 0.911217 0.406286
vn 0.067934 0.911217 0.406286
vn 0.067934 0.911217 0.406285
vn 0.210855 0.966174 0.148488
vn 0.210855 0.966174 0.148488
vn 0.210855 0.966174 0.148488
vn 0.236501 0.951144 0.198473
vn 0.236501 0.951144 0.198473
vn 0.236501 0.951144 0.198473
vn 0.031792 0.932943 0.358618
vn 0.031792 0.932943 0.358618
vn 0.031792 0.932943 0.358618
vn -0.064477 0.898327 0.434571
vn -0.064477 0.898327 0.434571
vn -0.064477 0.898327 0.434571
vn -0.105513 0.953685 0.281695
vn -0.105513 0.953685 0.281695
vn -0.105513 0.953685 0.281695
vn -0.105513 0.953685 0.281695
vn -0.079712 0.923112 0.376180
vn -0.079712 0.923112 0.376180
vn -0.079712 0.923112 0.376180
vn -0.033376 0.936236 0.349784
vn -0.033376 0.936235 0.349784
vn -0.033376 0.936236 0.349784
vn 0.194064 0.918808 0.343703
vn 0.194064 0.918808 0.343703
vn 0.194064 0.918808 0.343703
vn 0.067587 0.977835 0.198169
vn 0.067587 0.977835 0.198169
vn 0.067587 0.977835 0.198169
vn 0.033005 0.932718 0.359094
vn 0.033005 0.932718 0.359094
vn 0.033005 0.932718 0.359094
vn 0.076538 0.919673 0.385154
vn 0.076538 0.919673 0.385154
vn 0.076538 0.919673 0.385154
vn 0.191076 0.917685 0.348345
vn 0.073618 0.926399 0.369276
vn 0.098660 0.925658 0.365272
vn -0.164345 0.981131 0.101848
vn -0.164346 0.981131 0.101848
vn -0.164345 0.981131 0.101848
vn -0.066342 0.977917 0.198185
vn -0.066342 0.977917 0.198185
vn -0.066342 0.977917 0.198185
vn -0.194336 0.918126 0.345366
vn -0.194336 0.918126 0.345366
vn -0.194336 0.918126 0.345366
vn -0.075337 0.920067 0.384448
vn -0.075337 0.920067 0.384448
vn -0.075337 0.920067 0.384448
vn -0.033004 0.932718 0.359094
vn -0.033004 0.932718 0.359094
vn -0.033004 0.932718 0.359094
vn 0.168253 0.980989 0.096708
vn 0.168253 0.980988 0.096708
vn 0.168253 0.980988 0.096708
vn 0.198143 0.920847 0.335827
vn 0.198143 0.920847 0.335827
vn 0.198143 0.920847 0.335827
vn 0.111061 0.964184 0.240861
vn 0.111061 0.964185 0.240861
vn 0.111061 0.964184 0.240861
vn 0.033376 0.936235 0.349785
vn 0.033376 0.936235 0.349785
vn 0.033376 0.936235 0.349785
vn 0.078662 0.923440 0.375593
vn 0.078662 0.923440 0.375593
vn 0.078662 0.923440 0.375593
vn 0.008877 0.928602 0.370972
vn -0.056655 0.934851 0.350492
vn -0.091036 0.936355 0.339045
vn -0.031792 0.932943 0.358618
vn -0.031792 0.932943 0.358618
vn -0.031792 0.932943 0.358618
vn -0.199380 0.960388 0.194683
vn -0.199380 0.960388 0.194683
vn -0.199381 0.960388 0.194683
vn -0.256945 0.802787 0.538064
vn -0.256945 0.802787 0.538064
vn -0.256945 0.802787 0.538064
vn -0.096611 0.964714 0.244934
vn -0.096611 0.964714 0.244934
vn -0.096611 0.964714 0.244934
vn 0.109838 0.904675 0.411701
vn 0.109838 0.904675 0.411701
vn 0.109838 0.904676 0.411701
vn 0.227175 0.832678 0.505014
vn 0.227175 0.832678 0.505014
vn 0.227175 0.832678 0.505014
vn 0.114002 0.956311 0.269207
vn 0.114002 0.956311 0.269207
vn 0.114002 0.956311 0.269207
vn 0.169247 0.957801 0.232321
vn 0.169247 0.957801 0.232321
vn 0.169247 0.957801 0.232321
vn -0.055582 0.917681 0.393411
vn -0.055582 0.917681 0.393411
vn -0.055582 0.917681 0.393411
vn -0.055582 0.917681 0.393411
vn 0.223802 0.896117 0.383259
vn 0.223802 0.896117 0.383259
vn 0.223802 0.896117 0.383259
vn 0.126105 0.920783 0.369130
vn 0.126105 0.920783 0.369130
vn 0.126105 0.920783 0.369130
vn 0.584339 0.800032 -0.136001
vn 0.584339 0.800032 -0.136001
vn 0.584339 0.800032 -0.136001
vn 0.488058 0.859313 0.152907
vn 0.488058 0.859313 0.152907
vn 0.488058 0.859313 0.152907
vn 0.488058 0.859313 0.152907
vn 0.388993 0.879786 0.273242
vn 0.388993 0.879786 0.273242
vn 0.388993 0.879786 0.273242
vn 0.388993 0.879786 0.273242
vn 0.260917 0.920754 0.290060
vn 0.260917 0.920754 0.290060
vn 0.260917 0.920754 0.290060
vn 0.260917 0.920754 0.290060
vn -0.091036 0.936355 0.339045
vn -0.056655 0.934851 0.350492
vn -0.149741 0.936067 0.318366
vn 0.098660 0.925658 0.365272
vn 0.073618 0.926399 0.369276
vn -0.000755 0.925097 0.379730
vn -0.000555 -0.022972 -0.999736
vn -0.000555 -0.022972 -0.999736
vn -0.000555 -0.022972 -0.999736
vn -0.009491 -0.045581 -0.998916
vn -0.009491 -0.045581 -0.998916
vn -0.009491 -0.045581 -0.998916
vn 0.007407 -0.035088 -0.999357
vn 0.007407 -0.035088 -0.999357
vn 0.007407 -0.035088 -0.999357
vn 0.004741 -0.053883 -0.998536
vn 0.004741 -0.053884 -0.998536
vn 0.004741 -0.053884 -0.998536
vn -0.032749 -0.186332 -0.981941
vn -0.032749 -0.186332 -0.981941
vn -0.032749 -0.186332 -0.981941
vn -0.018026 -0.077432 -0.996835
vn -0.018026 -0.077432 -0.996835
vn -0.018026 -0.077432 -0.996835
vn -0.025567 -0.095105 -0.995139
vn -0.025567 -0.095105 -0.995139
vn -0.025567 -0.095105 -0.995139
vn 0.010047 -0.058943 -0.998211
vn 0.010047 -0.058943 -0.998211
vn 0.010047 -0.058943 -0.998211
vn 0.029793 -0.139588 -0.989761
vn 0.029793 -0.139588 -0.989761
vn 0.029793 -0.139588 -0.989761
vn 0.023050 -0.101777 -0.994540
vn 0.023050 -0.101777 -0.994540
vn 0.023050 -0.101777 -0.994540
vn 0.000039 -0.047607 -0.998866
vn 0.000039 -0.047607 -0.998866
vn 0.000039 -0.047607 -0.998866
s off
f 11/1/1 12/3/2 13/2/3
f 14/5/4 18/6/5 15/7/6
f 14/5/7 16/4/8 18/6/9
f 12/3/10 14/5/11 15/7/12 13/2/13
f 16/4/14 17/8/15 4/9/16 18/6/17
f 19/10/18 1/12/19 20/11/20
f 13/2/21 15/7/22 19/10/23
f 15/7/24 18/6/25 21/13/26
f 15/7/27 21/13/28 1/12/29
f 21/13/30 2/14/31 23/15/32
f 1/12/33 21/13/34 23/15/35
f 19/10/36 15/7/37 1/12/38
f 18/6/39 4/9/40 5/16/41 21/13/42
f 21/13/43 5/16/44 6/17/45 2/14/46
f 20/11/47 1/12/48 22/18/49
f 1/12/50 23/15/51 22/18/52
f 6/17/53 24/19/54 2/14/55
f 23/15/56 2/14/57 27/21/58
f 22/18/59 23/15/60 27/21/61 25/20/62
f 2/14/63 26/22/64 27/21/65
f 2/14/66 24/19/67 26/22/68
f 25/20/69 27/21/70 7/23/71
f 7/23/72 27/21/73 8/24/74
f 26/22/75 28/25/76 8/24/77
f 27/21/78 26/22/79 8/24/80
f 25/20/81 7/23/82 48/48/83
f 32/26/84 7/23/85 29/27/86
f 7/23/87 8/24/88 31/28/89
f 7/23/90 31/28/91 29/27/92
f 8/24/93 30/29/94 31/28/95
f 8/24/96 28/25/97 30/29/98
f 29/27/99 33/30/100 32/26/101
f 29/27/102 31/28/103 33/30/104
f 31/28/105 36/31/106 33/30/107
f 30/29/108 34/32/109 36/31/110
f 31/28/111 30/29/112 36/31/113
f 32/26/114 33/30/115 47/47/116
f 36/31/117 34/32/118 35/34/119
f 33/30/120 9/36/121 46/33/122
f 9/36/123 33/30/124 39/37/125
f 33/30/126 36/31/127 39/37/128
f 9/36/129 39/37/130 38/38/131
f 39/37/132 3/39/133 38/38/134
f 46/33/135 9/36/136 38/38/137
f 46/33/138 38/38/139 37/35/140
f 36/31/141 35/34/142 40/40/143 39/37/144
f 39/37/145 40/40/146 3/39/147
f 3/39/148 40/40/149 43/41/150
f 37/35/151 10/43/152 41/42/153
f 37/35/154 38/38/155 42/44/156 10/43/157
f 38/38/158 3/39/159 45/45/160 42/44/161
f 3/39/162 43/41/163 44/46/164 45/45/165
f 47/47/166 33/30/167 46/33/168
f 48/48/169 7/23/170 32/26/171
f 13/49/172 19/50/173 49/51/174
f 25/52/175 48/53/176 49/54/177
f 22/55/178 25/56/179 49/57/180
f 32/58/181 47/59/182 49/60/183
f 11/61/184 13/62/185 49/63/186
f 19/64/187 20/65/188 49/66/189
f 20/67/190 22/68/191 49/69/192
f 46/70/193 37/71/194 49/72/195
f 37/73/196 41/74/197 49/75/198
f 47/76/199 46/77/200 49/78/201
f 48/79/202 32/80/203 49/81/204
