# This file uses centimeters as units for non-parametric coordinates.

v 641.146973 0.000002 288.835815
v -649.008301 0.000002 257.241943
v 55.616699 24.595367 242.138672
v 708.950684 0.000002 240.446045
v 324.187500 45.345306 158.236328
v 455.163574 46.890762 180.290405
v 205.958496 51.361137 108.311279
v 513.105957 52.544464 134.961914
v 725.445801 0.000002 -75.287109
v -725.445557 0.000002 -209.695557
v -336.184570 51.944588 -12.605225
v 112.715332 47.746117 -96.920166
v 512.973633 53.530731 -112.535522
v 206.899902 44.465309 -186.340820
v 582.063965 0.000002 -288.535522
v 115.235352 0.000002 -310.598877
v -589.468262 0.000002 -283.125488
v 669.534180 0.000000 -268.746582
v 569.329590 41.849159 -197.089600
v 136.350098 24.808620 -246.538574
v -576.005859 35.508469 -229.931763
v 511.862305 45.544319 -157.202393
v 341.783691 45.792183 -168.875488
v 89.191895 38.344177 -185.052612
v 568.694336 41.003750 -134.677734
v -343.917480 56.030693 -145.403564
v 587.218262 50.601196 -69.173584
v 602.604492 46.339394 -24.058838
v -98.324219 53.506432 -30.491455
v 659.548828 25.239506 -1.577148
v -246.418945 55.784050 56.201538
v -598.964844 46.240677 44.871582
v -680.188965 27.830168 95.909058
v 112.735352 52.820282 195.332520
v -1.416016 45.036736 179.607910
v -343.956543 45.801552 193.679321
v -725.445557 0.000002 148.002197
v -572.299316 22.264553 224.975586
v -503.708984 0.000002 288.535278
v -405.152832 0.000002 -288.836182
v -658.366211 0.000002 -264.791504
v -343.911133 45.050583 -193.475464
v 710.971680 0.000002 -192.357178
v 112.687988 43.786766 -145.351929
v -115.629883 55.010910 -135.104858
v -229.799805 49.596100 -135.118896
v -572.208984 42.230953 -179.869751
v 226.796875 51.835472 -145.354126
v -458.127441 49.743126 -134.831055
v -515.824219 53.315689 -89.842651
v -599.585449 49.204460 -89.936035
v 324.186523 48.296524 -26.342773
v 149.822754 54.847893 -26.462646
v -98.364746 49.027245 -75.607178
v -213.288086 45.730434 -69.000000
v -1.449219 47.776695 -90.069092
v -1.523926 42.328190 0.380371
v 112.658203 51.155060 97.000977
v -433.808594 46.155579 15.204590
v 603.664063 51.348274 20.912598
v -1.506348 46.733963 45.105713
v -343.993652 46.928558 100.574341
v -573.788574 51.660316 109.230835
v -493.699219 55.312431 123.848145
v 587.272949 51.881821 134.971924
v 112.700195 50.571999 145.355225
v -1.484863 52.219200 135.122925
v 569.424316 43.201843 179.997070
v 226.785156 41.923889 192.602905
v 226.860840 24.831982 242.203979
v -572.203125 41.469116 179.832031
v 569.360352 23.916464 224.995239
v 231.942871 0.000002 310.598755
v -360.622070 0.000002 288.535278
vt 0.270917 0.275195
vt 0.270917 0.275195
vt 0.270917 0.275195
vt 0.270917 0.275195
vt 0.270917 0.275195
vt 0.270917 0.275195
vt 0.270917 0.275195
vt 0.270917 0.275195
vt 0.270917 0.275195
vt 0.270917 0.275195
vt 0.270917 0.275195
vt 0.270917 0.275195
vt 0.270917 0.275195
vt 0.270917 0.275195
vt 0.270917 0.275195
vt 0.270917 0.275195
vt 0.270917 0.275195
vt 0.270917 0.275195
vt 0.270917 0.275195
vt 0.270917 0.275195
vt 0.270917 0.275195
vt 0.270917 0.275195
vt 0.270917 0.275195
vt 0.270917 0.275195
vt 0.270917 0.275195
vt 0.270917 0.275195
vt 0.270917 0.275195
vt 0.270917 0.275195
vt 0.270917 0.275195
vt 0.270917 0.275195
vt 0.270917 0.275195
vt 0.270917 0.275195
vt 0.270917 0.275195
vt 0.270917 0.275195
vt 0.270917 0.275195
vt 0.270917 0.275195
vt 0.270917 0.275195
vt 0.270917 0.275195
vt 0.270917 0.275195
vt 0.270917 0.275195
vt 0.270917 0.275195
vt 0.270917 0.275195
vt 0.270917 0.275195
vt 0.270917 0.275195
vt 0.270917 0.275195
vt 0.270917 0.275195
vt 0.270917 0.275195
vt 0.270917 0.275195
vt 0.270917 0.275195
vt 0.270917 0.275195
vt 0.270917 0.275195
vt 0.270917 0.275195
vt 0.270917 0.275195
vt 0.270917 0.275195
vt 0.270917 0.275195
vt 0.270917 0.275195
vt 0.270917 0.275195
vt 0.270917 0.275195
vt 0.270917 0.275195
vt 0.270917 0.275195
vt 0.270917 0.275195
vt 0.270917 0.275195
vt 0.270917 0.275195
vt 0.270917 0.275195
vt 0.270917 0.275195
vt 0.270917 0.275195
vt 0.270917 0.275195
vt 0.270917 0.275195
vt 0.270917 0.275195
vt 0.270917 0.275195
vt 0.270917 0.275195
vt 0.270917 0.275195
vt 0.270917 0.275195
vt 0.270917 0.275195
vn -0.089061 0.906129 0.413521
vn -0.089061 0.906129 0.413521
vn -0.089061 0.906129 0.413521
vn -0.013749 0.929228 0.369251
vn -0.013749 0.929228 0.369251
vn -0.013749 0.929228 0.369251
vn -0.001429 0.939930 0.341365
vn -0.001429 0.939930 0.341365
vn -0.001429 0.939930 0.341365
vn 0.018084 0.940241 0.340028
vn 0.018084 0.940241 0.340028
vn 0.018084 0.940241 0.340028
vn -0.041177 0.919446 0.391055
vn -0.041177 0.919446 0.391055
vn -0.041177 0.919446 0.391055
vn 0.008751 0.987179 0.159375
vn 0.008751 0.987179 0.159375
vn 0.008751 0.987179 0.159375
vn -0.088935 0.983282 0.158896
vn -0.088935 0.983282 0.158896
vn -0.088935 0.983282 0.158896
vn -0.071303 0.986995 0.144073
vn -0.071303 0.986995 0.144073
vn -0.071303 0.986995 0.144073
vn -0.028843 0.990527 0.134255
vn -0.028843 0.990527 0.134255
vn -0.028843 0.990527 0.134255
vn 0.031200 0.987421 -0.155007
vn 0.031200 0.987421 -0.155007
vn 0.031200 0.987421 -0.155007
vn -0.000935 0.999967 -0.008071
vn -0.000935 0.999967 -0.008071
vn -0.000935 0.999967 -0.008071
vn 0.037531 0.999168 0.015975
vn 0.037531 0.999168 0.015975
vn 0.037531 0.999168 0.015975
vn 0.006024 0.995165 -0.098033
vn 0.006024 0.995165 -0.098033
vn 0.006024 0.995165 -0.098033
vn -0.017567 0.988943 -0.147253
vn -0.017567 0.988943 -0.147253
vn -0.017567 0.988943 -0.147253
vn -0.034205 0.994528 -0.098708
vn -0.034205 0.994528 -0.098708
vn -0.034205 0.994528 -0.098708
vn 0.383585 0.916792 -0.111149
vn 0.383585 0.916792 -0.111149
vn 0.383585 0.916792 -0.111149
vn -0.333658 0.941992 -0.036372
vn -0.333658 0.941992 -0.036372
vn -0.333658 0.941992 -0.036372
vn -0.048714 0.994572 -0.091948
vn -0.048714 0.994572 -0.091948
vn -0.048714 0.994572 -0.091948
vn -0.047082 0.992425 0.113470
vn -0.047082 0.992425 0.113470
vn -0.047082 0.992425 0.113470
vn 0.045292 0.995650 -0.081421
vn 0.045292 0.995650 -0.081421
vn 0.045292 0.995650 -0.081421
vn -0.056997 0.998130 -0.022111
vn -0.056997 0.998129 -0.022111
vn -0.056997 0.998129 -0.022111
vn -0.047371 0.998767 0.014834
vn -0.047371 0.998767 0.014834
vn -0.047371 0.998767 0.014834
vn 0.019738 0.969901 -0.242698
vn 0.019738 0.969901 -0.242698
vn 0.019738 0.969901 -0.242698
vn -0.020082 0.991104 -0.131566
vn -0.020082 0.991104 -0.131566
vn -0.020082 0.991104 -0.131566
vn 0.035833 0.936844 -0.347907
vn 0.035833 0.936844 -0.347907
vn 0.035833 0.936844 -0.347907
vn -0.259626 0.912512 -0.316095
vn -0.259626 0.912512 -0.316095
vn -0.259626 0.912512 -0.316095
vn 0.091364 0.910254 -0.403844
vn 0.091364 0.910254 -0.403844
vn 0.091364 0.910254 -0.403844
vn 0.011561 0.909852 -0.414773
vn 0.011561 0.909851 -0.414773
vn 0.011561 0.909852 -0.414773
vn 0.017300 0.930441 -0.366034
vn 0.017300 0.930441 -0.366034
vn 0.017300 0.930441 -0.366034
vn -0.000577 0.932578 -0.360969
vn -0.000577 0.932578 -0.360969
vn -0.000577 0.932578 -0.360969
vn 0.011319 0.947344 -0.320017
vn 0.011319 0.947344 -0.320017
vn 0.011319 0.947344 -0.320017
vn -0.023651 0.824377 -0.565547
vn -0.023651 0.824377 -0.565547
vn -0.023651 0.824377 -0.565547
vn -0.017107 0.833590 -0.552118
vn -0.017107 0.833590 -0.552118
vn -0.017107 0.833590 -0.552118
vn -0.139717 0.839525 -0.525049
vn -0.139717 0.839525 -0.525049
vn -0.139717 0.839525 -0.525049
vn 0.284691 0.946098 -0.154431
vn 0.284691 0.946098 -0.154431
vn 0.284691 0.946098 -0.154431
vn -0.011847 0.972765 -0.231491
vn -0.011847 0.972765 -0.231491
vn -0.011847 0.972765 -0.231492
vn -0.053003 0.965936 -0.253294
vn -0.053003 0.965936 -0.253294
vn -0.053003 0.965936 -0.253294
vn 0.019074 0.979410 -0.200978
vn 0.019074 0.979410 -0.200978
vn 0.019074 0.979410 -0.200978
vn -0.243936 0.963433 -0.110872
vn -0.243936 0.963433 -0.110872
vn -0.243936 0.963433 -0.110872
vn 0.264513 0.963827 -0.032703
vn 0.264513 0.963827 -0.032703
vn 0.264513 0.963827 -0.032703
vn 0.282825 0.959040 0.015870
vn 0.282825 0.959040 0.015870
vn 0.282825 0.959040 0.015870
vn 0.074015 0.997155 0.014261
vn 0.074015 0.997155 0.014261
vn 0.074015 0.997155 0.014261
vn 0.007088 0.996598 -0.082113
vn 0.007088 0.996598 -0.082113
vn 0.007088 0.996598 -0.082113
vn 0.013536 0.984240 -0.176318
vn 0.013536 0.984240 -0.176318
vn 0.013536 0.984240 -0.176318
vn 0.148132 0.972883 -0.177637
vn 0.148132 0.972883 -0.177637
vn 0.148132 0.972883 -0.177637
vn 0.014836 0.983524 -0.180169
vn 0.014836 0.983524 -0.180169
vn 0.014836 0.983524 -0.180169
vn 0.014103 0.982902 -0.183590
vn 0.014103 0.982902 -0.183590
vn 0.014103 0.982902 -0.183590
vn -0.052987 0.986996 -0.151758
vn -0.052987 0.986997 -0.151758
vn -0.052987 0.986996 -0.151758
vn -0.070046 0.993040 -0.094681
vn -0.070046 0.993040 -0.094681
vn -0.070046 0.993040 -0.094681
vn 0.041321 0.986306 -0.159668
vn 0.041321 0.986306 -0.159668
vn 0.041321 0.986306 -0.159668
vn 0.074827 0.972162 -0.222042
vn 0.074827 0.972162 -0.222042
vn 0.074827 0.972162 -0.222042
vn -0.025303 0.974580 -0.222607
vn -0.025303 0.974580 -0.222607
vn -0.025303 0.974580 -0.222607
vn -0.236241 0.960603 -0.146399
vn -0.236241 0.960603 -0.146399
vn -0.236241 0.960603 -0.146399
vn 0.325960 0.917812 -0.226653
vn 0.325960 0.917812 -0.226653
vn 0.325960 0.917812 -0.226653
vn 0.145595 0.972157 -0.183610
vn 0.145595 0.972157 -0.183610
vn 0.145595 0.972157 -0.183610
vn -0.070130 0.994224 -0.081239
vn -0.070129 0.994224 -0.081239
vn -0.070130 0.994224 -0.081239
vn 0.008517 0.990464 0.137507
vn 0.008517 0.990464 0.137507
vn 0.008517 0.990464 0.137507
vn 0.026628 0.995368 0.092377
vn 0.026628 0.995368 0.092377
vn 0.026628 0.995368 0.092377
vn -0.024907 0.997604 0.064546
vn -0.024907 0.997604 0.064546
vn -0.024907 0.997604 0.064546
vn 0.052168 0.997611 0.045298
vn 0.052168 0.997610 0.045298
vn 0.052168 0.997610 0.045298
vn -0.036035 0.980383 0.193779
vn -0.036035 0.980383 0.193779
vn -0.036035 0.980383 0.193779
vn -0.022762 0.993878 -0.108117
vn -0.022762 0.993878 -0.108117
vn -0.022762 0.993878 -0.108117
vn 0.343147 0.939165 -0.014811
vn 0.343147 0.939165 -0.014811
vn 0.343147 0.939165 -0.014811
vn 0.359154 0.932645 -0.034385
vn 0.359154 0.932645 -0.034385
vn 0.359154 0.932645 -0.034385
vn -0.019519 0.994733 0.100625
vn -0.019519 0.994733 0.100625
vn -0.019519 0.994733 0.100625
vn -0.017163 0.995013 0.098261
vn -0.017163 0.995013 0.098261
vn -0.017163 0.995013 0.098261
vn 0.006829 0.999685 0.024138
vn 0.006829 0.999685 0.024138
vn 0.006829 0.999685 0.024138
vn -0.017215 0.998892 0.043790
vn -0.017215 0.998892 0.043790
vn -0.017215 0.998892 0.043790
vn 0.037359 0.992110 -0.119675
vn 0.037359 0.992110 -0.119675
vn 0.037359 0.992110 -0.119675
vn -0.005577 0.995232 -0.097377
vn -0.005577 0.995232 -0.097377
vn -0.005577 0.995232 -0.097377
vn 0.028971 0.998480 -0.046888
vn 0.028971 0.998480 -0.046888
vn 0.028971 0.998480 -0.046888
vn 0.026891 0.998633 -0.044815
vn 0.026891 0.998633 -0.044815
vn 0.026891 0.998633 -0.044815
vn -0.032467 0.995120 0.093177
vn -0.032467 0.995120 0.093177
vn -0.032467 0.995120 0.093177
vn -0.048866 0.993181 0.105848
vn -0.048866 0.993181 0.105848
vn -0.048866 0.993181 0.105848
vn 0.007895 0.993803 -0.110875
vn 0.007895 0.993803 -0.110875
vn 0.007895 0.993803 -0.110875
vn -0.071733 0.995623 0.059915
vn -0.071733 0.995623 0.059915
vn -0.071733 0.995623 0.059915
vn 0.021850 0.997951 0.060133
vn 0.021850 0.997951 0.060133
vn 0.021850 0.997951 0.060133
vn 0.144915 0.984591 -0.097882
vn 0.144915 0.984591 -0.097882
vn 0.144915 0.984591 -0.097882
vn -0.009791 0.999028 -0.042973
vn -0.009791 0.999028 -0.042973
vn -0.009791 0.999028 -0.042973
vn -0.054732 0.998378 0.015694
vn -0.054732 0.998378 0.015694
vn -0.054732 0.998378 0.015694
vn 0.004460 0.999749 0.021959
vn 0.004460 0.999749 0.021959
vn 0.004460 0.999749 0.021959
vn -0.207558 0.977965 0.022456
vn -0.207558 0.977965 0.022456
vn -0.207558 0.977965 0.022456
vn -0.523824 0.851827 0.000000
vn -0.523824 0.851827 0.000000
vn -0.523824 0.851827 0.000000
vn -0.008062 0.999825 -0.016888
vn -0.008062 0.999825 -0.016888
vn -0.008062 0.999825 -0.016888
vn -0.081510 0.996659 0.005275
vn -0.081510 0.996659 0.005275
vn -0.081510 0.996659 0.005275
vn 0.144666 0.984709 -0.097058
vn 0.144666 0.984709 -0.097058
vn 0.144666 0.984709 -0.097058
vn 0.038702 0.998455 0.039882
vn 0.038702 0.998455 0.039882
vn 0.038702 0.998455 0.039882
vn -0.063931 0.996254 0.058240
vn -0.063931 0.996254 0.058240
vn -0.063931 0.996254 0.058240
vn 0.376731 0.926114 0.019682
vn 0.376730 0.926114 0.019682
vn 0.376730 0.926114 0.019682
vn 0.377870 0.925655 0.019402
vn 0.377870 0.925656 0.019402
vn 0.377870 0.925655 0.019402
vn 0.442029 0.895036 0.059336
vn 0.442029 0.895036 0.059336
vn 0.442029 0.895036 0.059336
vn 0.008935 0.999954 -0.003394
vn 0.008935 0.999954 -0.003394
vn 0.008935 0.999954 -0.003394
vn -0.036109 0.999220 0.015977
vn -0.036109 0.999220 0.015977
vn -0.036109 0.999220 0.015977
vn 0.048428 0.998811 0.005669
vn 0.048428 0.998811 0.005669
vn 0.048428 0.998811 0.005669
vn -0.005627 0.999586 0.028204
vn -0.005627 0.999586 0.028204
vn -0.005627 0.999586 0.028204
vn -0.032456 0.996930 -0.071255
vn -0.032456 0.996930 -0.071255
vn -0.032456 0.996930 -0.071255
vn -0.218967 0.975726 0.003491
vn -0.218967 0.975726 0.003491
vn -0.218967 0.975726 0.003491
vn -0.003671 0.999921 0.012060
vn -0.003671 0.999921 0.012060
vn -0.003671 0.999921 0.012060
vn 0.013344 0.999838 0.012045
vn 0.013344 0.999838 0.012045
vn 0.013344 0.999839 0.012045
vn -0.011007 0.998088 -0.060816
vn -0.011007 0.998088 -0.060816
vn -0.011007 0.998088 -0.060816
vn 0.034108 0.997567 -0.060795
vn 0.034108 0.997567 -0.060795
vn 0.034108 0.997567 -0.060795
vn 0.057780 0.998257 0.012061
vn 0.057780 0.998257 0.012061
vn 0.057780 0.998257 0.012061
vn -0.233413 0.961648 0.144054
vn -0.233413 0.961648 0.144054
vn -0.233413 0.961648 0.144054
vn -0.299008 0.925012 0.234410
vn -0.299008 0.925012 0.234410
vn -0.299008 0.925012 0.234410
vn 0.032123 0.978970 0.201461
vn 0.032123 0.978970 0.201461
vn 0.032123 0.978970 0.201461
vn 0.008834 0.990823 0.134875
vn 0.008834 0.990823 0.134875
vn 0.008834 0.990823 0.134875
vn -0.026873 0.995595 0.089827
vn -0.026873 0.995595 0.089827
vn -0.026873 0.995595 0.089827
vn 0.020246 0.997184 0.072212
vn 0.020246 0.997184 0.072212
vn 0.020246 0.997184 0.072212
vn 0.015739 0.989579 0.143127
vn 0.015739 0.989579 0.143127
vn 0.015739 0.989579 0.143127
vn 0.093949 0.994568 -0.044808
vn 0.093949 0.994568 -0.044808
vn 0.093949 0.994568 -0.044808
vn 0.018436 0.998819 -0.044946
vn 0.018436 0.998819 -0.044946
vn 0.018436 0.998819 -0.044946
vn -0.016665 0.999788 0.012109
vn -0.016665 0.999788 0.012109
vn -0.016665 0.999788 0.012109
vn -0.030676 0.979482 0.199184
vn -0.030676 0.979482 0.199184
vn -0.030676 0.979482 0.199184
vn 0.183180 0.949266 0.255615
vn 0.183180 0.949266 0.255615
vn 0.183180 0.949266 0.255615
vn 0.113121 0.913184 0.391534
vn 0.113121 0.913184 0.391534
vn 0.113121 0.913184 0.391534
vn 0.030671 0.918694 0.393779
vn 0.030671 0.918694 0.393778
vn 0.030671 0.918694 0.393779
vn 0.023028 0.911883 0.409803
vn 0.023028 0.911883 0.409803
vn 0.023028 0.911883 0.409803
vn -0.043448 0.980960 0.189289
vn -0.043448 0.980960 0.189289
vn -0.043448 0.980960 0.189289
vn 0.081426 0.942342 0.324595
vn 0.081426 0.942342 0.324595
vn 0.081426 0.942342 0.324595
vn 0.097658 0.940970 0.324097
vn 0.097658 0.940970 0.324097
vn 0.097658 0.940970 0.324097
vn -0.001381 0.857094 0.515158
vn -0.001381 0.857094 0.515158
vn -0.001381 0.857094 0.515158
vn -0.117482 0.907296 0.403749
vn -0.117482 0.907295 0.403749
vn -0.117482 0.907296 0.403749
vn 0.014405 0.954209 0.298794
vn 0.014405 0.954209 0.298794
vn 0.014405 0.954209 0.298794
vn -0.017313 0.855682 0.517212
vn -0.017313 0.855682 0.517212
vn -0.017313 0.855682 0.517212
vn -0.313608 0.874014 0.371147
vn -0.313608 0.874014 0.371147
vn -0.313608 0.874014 0.371147
vn -0.216291 0.964527 0.151343
vn -0.216291 0.964528 0.151343
vn -0.216291 0.964527 0.151343
vn 0.143717 0.968913 0.201377
vn 0.143717 0.968913 0.201377
vn 0.143717 0.968913 0.201377
vn 0.019190 0.943169 0.331759
vn 0.019190 0.943169 0.331759
vn 0.019190 0.943169 0.331759
vn -0.013575 0.928719 0.370535
vn -0.013575 0.928719 0.370535
vn -0.013575 0.928719 0.370535
vn 0.000000 0.943772 0.330597
vn 0.000000 0.943772 0.330597
vn 0.000000 0.943772 0.330597
s off
f 2/2/1 39/39/2 38/38/3
f 74/74/4 73/73/5 3/3/6
f 3/3/7 73/73/8 70/70/9
f 73/73/10 1/1/11 70/70/12
f 71/71/13 38/38/14 36/36/15
f 36/36/16 35/35/17 67/67/18
f 35/35/19 34/34/20 67/67/21
f 71/71/22 64/64/23 63/63/24
f 62/62/25 67/67/26 31/31/27
f 64/64/28 62/62/29 32/32/30
f 32/32/31 62/62/32 59/59/33
f 53/53/34 5/5/35 52/52/36
f 61/61/37 58/58/38 57/57/39
f 11/11/40 29/29/41 55/55/42
f 55/55/43 29/29/44 54/54/45
f 60/60/46 30/30/47 28/28/48
f 10/10/49 33/33/50 51/51/51
f 51/51/52 50/50/53 47/47/54
f 46/46/55 54/54/56 45/45/57
f 45/45/58 12/12/59 44/44/60
f 49/49/61 26/26/62 47/47/63
f 46/46/64 45/45/65 42/42/66
f 42/42/67 45/45/68 24/24/69
f 47/47/70 42/42/71 21/21/72
f 14/14/73 23/23/74 20/20/75
f 10/10/76 21/21/77 41/41/78
f 19/19/79 18/18/80 15/15/81
f 15/15/82 20/20/83 19/19/84
f 16/16/85 20/20/86 15/15/87
f 16/16/88 42/42/89 20/20/90
f 21/21/91 42/42/92 16/16/93
f 40/40/94 21/21/95 16/16/96
f 40/40/97 17/17/98 21/21/99
f 41/41/100 21/21/101 17/17/102
f 18/18/103 19/19/104 43/43/105
f 23/23/106 19/19/107 20/20/108
f 24/24/109 14/14/110 20/20/111
f 42/42/112 24/24/113 20/20/114
f 21/21/115 10/10/116 47/47/117
f 43/43/118 25/25/119 9/9/120
f 19/19/121 25/25/122 43/43/123
f 19/19/124 22/22/125 25/25/126
f 23/23/127 22/22/128 19/19/129
f 13/13/130 22/22/131 23/23/132
f 22/22/133 13/13/134 25/25/135
f 23/23/136 48/48/137 13/13/138
f 48/48/139 23/23/140 14/14/141
f 24/24/142 48/48/143 14/14/144
f 24/24/145 44/44/146 48/48/147
f 45/45/148 44/44/149 24/24/150
f 26/26/151 46/46/152 42/42/153
f 42/42/154 47/47/155 26/26/156
f 10/10/157 51/51/158 47/47/159
f 25/25/160 27/27/161 9/9/162
f 13/13/163 27/27/164 25/25/165
f 44/44/166 12/12/167 48/48/168
f 45/45/169 56/56/170 12/12/171
f 54/54/172 56/56/173 45/45/174
f 46/46/175 55/55/176 54/54/177
f 46/46/178 26/26/179 55/55/180
f 49/49/181 55/55/182 26/26/183
f 47/47/184 50/50/185 49/49/186
f 27/27/187 30/30/188 9/9/189
f 28/28/190 30/30/191 27/27/192
f 13/13/193 28/28/194 27/27/195
f 48/48/196 28/28/197 13/13/198
f 52/52/199 28/28/200 48/48/201
f 12/12/202 52/52/203 48/48/204
f 53/53/205 52/52/206 12/12/207
f 56/56/208 53/53/209 12/12/210
f 11/11/211 55/55/212 49/49/213
f 50/50/214 11/11/215 49/49/216
f 50/50/217 59/59/218 11/11/219
f 50/50/220 51/51/221 59/59/222
f 28/28/223 52/52/224 60/60/225
f 56/56/226 57/57/227 53/53/228
f 54/54/229 57/57/230 56/56/231
f 29/29/232 57/57/233 54/54/234
f 31/31/235 29/29/236 11/11/237
f 59/59/238 31/31/239 11/11/240
f 51/51/241 32/32/242 59/59/243
f 51/51/244 33/33/245 32/32/246
f 37/37/247 33/33/248 10/10/249
f 52/52/250 8/8/251 60/60/252
f 57/57/253 58/58/254 53/53/255
f 29/29/256 61/61/257 57/57/258
f 29/29/259 31/31/260 61/61/261
f 31/31/262 59/59/263 62/62/264
f 30/30/265 4/4/266 9/9/267
f 30/30/268 65/65/269 4/4/270
f 60/60/271 65/65/272 30/30/273
f 60/60/274 8/8/275 65/65/276
f 5/5/277 8/8/278 52/52/279
f 53/53/280 7/7/281 5/5/282
f 58/58/283 7/7/284 53/53/285
f 63/63/286 64/64/287 32/32/288
f 33/33/289 63/63/290 32/32/291
f 58/58/292 66/66/293 7/7/294
f 58/58/295 67/67/296 66/66/297
f 61/61/298 67/67/299 58/58/300
f 31/31/301 67/67/302 61/61/303
f 62/62/304 64/64/305 36/36/306
f 63/63/307 33/33/308 71/71/309
f 33/33/310 37/37/311 71/71/312
f 65/65/313 6/6/314 68/68/315
f 8/8/316 6/6/317 65/65/318
f 5/5/319 6/6/320 8/8/321
f 66/66/322 5/5/323 7/7/324
f 66/66/325 69/69/326 5/5/327
f 66/66/328 34/34/329 69/69/330
f 66/66/331 67/67/332 34/34/333
f 62/62/334 36/36/335 67/67/336
f 71/71/337 36/36/338 64/64/339
f 65/65/340 68/68/341 4/4/342
f 68/68/343 72/72/344 4/4/345
f 6/6/346 72/72/347 68/68/348
f 70/70/349 72/72/350 6/6/351
f 5/5/352 70/70/353 6/6/354
f 69/69/355 70/70/356 5/5/357
f 69/69/358 34/34/359 70/70/360
f 3/3/361 70/70/362 34/34/363
f 34/34/364 35/35/365 3/3/366
f 36/36/367 3/3/368 35/35/369
f 36/36/370 38/38/371 3/3/372
f 71/71/373 37/37/374 38/38/375
f 2/2/376 38/38/377 37/37/378
f 72/72/379 1/1/380 4/4/381
f 72/72/382 70/70/383 1/1/384
f 38/38/385 74/74/386 3/3/387
f 39/39/388 74/74/389 38/38/390
