# This file uses centimeters as units for non-parametric coordinates.

v -10.278831 15.132331 16.415165
v 0.882215 12.329856 23.890133
v 10.491938 15.132331 16.415165
v -13.020432 17.436041 6.029716
v -0.125073 22.353039 5.365926
v 14.885263 12.329856 0.249210
v -8.323318 20.238514 -1.938717
v 1.120399 12.329856 -9.020165
v 10.491938 15.132331 -4.355734
v -29.409189 0.000000 34.650230
v -10.734021 0.000000 45.063908
v -37.139805 0.000000 5.365926
v 29.159044 0.000000 34.650230
v 37.139812 0.000000 13.335245
v -29.409189 0.000000 -23.918379
v 34.098286 0.000000 -30.867155
v -3.107693 0.000000 -45.063915
vt 0.269008 0.302745
vt 0.269008 0.302745
vt 0.269008 0.302745
vt 0.269008 0.302745
vt 0.269008 0.302745
vt 0.269008 0.302745
vt 0.269008 0.302745
vt 0.269008 0.302745
vt 0.269008 0.302745
vt 0.269008 0.302745
vt 0.269008 0.302745
vt 0.269008 0.302745
vt 0.269008 0.302745
vt 0.269008 0.302745
vt 0.269008 0.302745
vt 0.269008 0.302745
vt 0.269008 0.302745
vt 0.269008 0.302745
vt 0.269008 0.302745
vt 0.269008 0.302745
vt 0.269008 0.302745
vt 0.269008 0.302745
vt 0.269008 0.302745
vt 0.269008 0.302745
vt 0.269008 0.302745
vt 0.269008 0.302745
vt 0.269008 0.302745
vt 0.269008 0.302745
vt 0.269008 0.302745
vt 0.269008 0.302745
vt 0.269008 0.302745
vt 0.269008 0.302745
vt 0.269008 0.302745
vt 0.269008 0.302745
vt 0.269008 0.302745
vt 0.269008 0.302745
vt 0.269008 0.302745
vt 0.269008 0.302745
vt 0.269008 0.302745
vt 0.269008 0.302745
vt 0.269008 0.302745
vn -0.328454 0.900064 0.286360
vn -0.328454 0.900064 0.286360
vn -0.328454 0.900064 0.286360
vn 0.557059 0.830440 0.007426
vn 0.557059 0.830440 0.007426
vn 0.557059 0.830440 0.007426
vn 0.269791 0.800866 -0.534628
vn 0.269791 0.800866 -0.534628
vn 0.269791 0.800866 -0.534628
vn 0.551000 0.834312 -0.017934
vn 0.551000 0.834312 -0.017934
vn 0.551000 0.834312 -0.017934
vn -0.089520 0.881266 0.464064
vn -0.089520 0.881266 0.464064
vn -0.089520 0.881266 0.464065
vn -0.250405 0.857697 0.449059
vn -0.250405 0.857697 0.449059
vn -0.250405 0.857697 0.449059
vn -0.561232 0.764261 0.317686
vn -0.561232 0.764261 0.317686
vn -0.561232 0.764261 0.317686
vn -0.529003 0.837051 0.139649
vn -0.529003 0.837051 0.139649
vn -0.529003 0.837051 0.139649
vn 0.164545 0.835244 0.524682
vn 0.164545 0.835245 0.524682
vn 0.164545 0.835244 0.524682
vn 0.145179 0.818299 0.556157
vn 0.145179 0.818299 0.556157
vn 0.145179 0.818299 0.556157
vn 0.492232 0.870296 -0.017101
vn 0.492232 0.870296 -0.017101
vn 0.492232 0.870296 -0.017101
vn 0.501338 0.844645 0.187711
vn 0.501338 0.844645 0.187711
vn 0.501338 0.844645 0.187711
vn -0.583751 0.809764 -0.059309
vn -0.583751 0.809764 -0.059309
vn -0.583751 0.809764 -0.059309
vn -0.593938 0.789085 -0.156791
vn -0.593938 0.789085 -0.156791
vn -0.593938 0.789085 -0.156791
vn 0.538699 0.842498 -0.001216
vn 0.538699 0.842498 -0.001216
vn 0.538699 0.842498 -0.001216
vn 0.499736 0.865495 -0.034386
vn 0.499736 0.865495 -0.034386
vn 0.499736 0.865495 -0.034386
vn 0.060259 0.704834 -0.706808
vn 0.060259 0.704834 -0.706808
vn 0.060259 0.704834 -0.706808
vn -0.233256 0.928125 -0.290131
vn -0.233256 0.928125 -0.290131
vn -0.233256 0.928125 -0.290131
vn -0.008959 0.864993 -0.501703
vn -0.008959 0.864994 -0.501703
vn -0.008959 0.864994 -0.501703
vn 0.127593 0.933758 -0.334388
vn 0.127593 0.933758 -0.334388
vn 0.127593 0.933759 -0.334388
vn -0.100797 0.872722 0.477699
vn -0.100797 0.872722 0.477699
vn -0.100797 0.872722 0.477699
vn 0.108728 0.876754 0.468487
vn 0.108728 0.876754 0.468487
vn 0.108728 0.876754 0.468487
vn 0.037592 0.821435 -0.569062
vn 0.037592 0.821435 -0.569062
vn 0.037592 0.821435 -0.569062
vn -0.348157 0.929506 0.121678
vn -0.348157 0.929506 0.121678
vn -0.348157 0.929506 0.121678
s off
f 1/1/1 5/5/2 4/4/3
f 5/5/4 3/3/5 6/6/6
f 7/7/7 5/5/8 8/8/9
f 5/5/10 6/6/11 9/9/12
f 2/10/13 1/11/14 11/13/15
f 11/13/16 1/11/17 10/12/18
f 4/15/19 12/16/20 1/14/21
f 1/14/22 12/16/23 10/17/24
f 3/18/25 2/19/26 13/21/27
f 13/21/28 2/19/29 11/20/30
f 6/22/31 3/23/32 14/25/33
f 14/25/34 3/23/35 13/24/36
f 4/26/37 7/27/38 12/29/39
f 12/29/40 7/27/41 15/28/42
f 9/30/43 6/31/44 16/33/45
f 6/31/46 14/32/47 16/33/48
f 7/34/49 8/35/50 15/37/51
f 15/37/52 8/35/53 17/36/54
f 9/39/55 16/40/56 8/38/57
f 8/38/58 16/40/59 17/41/60
f 1/1/61 2/2/62 5/5/63
f 2/2/64 3/3/65 5/5/66
f 5/5/67 9/9/68 8/8/69
f 4/4/70 5/5/71 7/7/72
