# This file uses centimeters as units for non-parametric coordinates.

v 56.342651 2.493589 -47.377396
v 49.335339 -4.820469 13.746262
v 44.374512 -0.086549 52.384567
v 7.098675 34.959366 50.942230
v 48.558762 21.988934 -49.119186
v -22.500467 6.444093 -71.522903
v 14.672375 3.220089 -71.882629
v -49.721573 -4.820469 -14.480209
v 70.963478 6.444094 -22.674179
v -15.058661 3.220089 71.149063
v 7.213259 13.738039 71.882248
v 39.154957 22.849264 55.259705
v 20.900869 25.181650 61.907959
v -45.420216 19.805317 53.717422
v -0.193167 44.653790 15.692520
v 50.498486 34.453026 14.100266
v 58.756351 28.118351 -21.428299
v 54.803371 -3.798515 -14.406967
v 6.920290 -2.682897 -60.946274
v -35.453320 2.226985 -63.979340
v 63.419247 2.226985 34.893417
v -70.963402 1.696974 -7.764816
v -66.005180 4.967822 35.666275
v -64.591698 26.167576 6.806183
v -38.497498 -2.582121 48.679352
v -47.203445 2.493589 56.168747
v 47.313450 12.450589 57.013702
v 35.839798 4.967822 65.445328
v -7.365894 26.167580 64.031601
v -22.101927 13.352004 69.391251
v -14.660215 34.453026 50.324631
v -39.785908 29.813852 45.258713
v -23.968601 43.348564 7.454681
v 30.761719 41.216270 14.901352
v 23.582315 43.348572 -8.188248
v 22.020149 38.343384 -37.776566
v -0.193119 42.031380 -31.818771
v 20.867968 28.118353 -59.316635
v -31.148052 41.216270 -15.634537
v -39.785908 29.813848 -45.992661
v -7.367325 29.210651 -61.277390
v -35.673332 12.837026 -65.164566
v 21.715641 13.352005 -70.124817
v 35.067032 2.226985 -63.979340
v -33.488510 -3.917201 -46.393585
v -56.728935 2.493589 -47.377396
v -0.193167 -5.810853 -44.581985
v -15.027380 -6.750086 29.709244
v -0.193167 -3.970887 55.556870
v 69.564964 13.352004 21.541977
v 70.577194 1.696974 7.030869
v 69.564964 13.352005 -22.275925
v 64.205315 26.167580 6.806183
v 53.891232 19.805317 44.860077
v 55.193283 26.306339 33.196640
v -69.951149 13.352004 -22.275925
v -64.991142 12.837026 35.112762
v -56.086590 31.684208 -14.670944
v -48.944996 21.988932 -49.119186
vt 0.255619 0.303256
vt 0.255619 0.303256
vt 0.255619 0.303256
vt 0.255619 0.303256
vt 0.255619 0.303256
vt 0.255619 0.303256
vt 0.255619 0.303256
vt 0.255619 0.303256
vt 0.255619 0.303256
vt 0.255619 0.303256
vt 0.255619 0.303256
vt 0.255619 0.303256
vt 0.255619 0.303256
vt 0.255619 0.303256
vt 0.255619 0.303256
vt 0.255619 0.303256
vt 0.255619 0.303256
vt 0.255619 0.303256
vt 0.255619 0.303256
vt 0.255619 0.303256
vt 0.255619 0.303256
vt 0.255619 0.303256
vt 0.255619 0.303256
vt 0.255619 0.303256
vt 0.255619 0.303256
vt 0.255619 0.303256
vt 0.255619 0.303256
vt 0.255619 0.303256
vt 0.255619 0.303256
vt 0.255619 0.303256
vt 0.255619 0.303256
vt 0.255619 0.303256
vt 0.255619 0.303256
vt 0.255619 0.303256
vt 0.255619 0.303256
vt 0.255619 0.303256
vt 0.255619 0.303256
vt 0.255619 0.303256
vt 0.255619 0.303256
vt 0.255619 0.303256
vt 0.255619 0.303256
vt 0.255619 0.303256
vt 0.255619 0.303256
vt 0.255619 0.303256
vt 0.255619 0.303256
vt 0.255619 0.303256
vt 0.255619 0.303256
vt 0.255619 0.303256
vt 0.255619 0.303256
vt 0.255619 0.303256
vt 0.255619 0.303256
vt 0.255619 0.303256
vt 0.255619 0.303256
vt 0.255619 0.303256
vt 0.255619 0.303256
vt 0.255619 0.303256
vt 0.255619 0.303256
vt 0.255619 0.303256
vt 0.255619 0.303256
vn -0.170482 -0.896336 0.409290
vn -0.170482 -0.896336 0.409290
vn -0.170482 -0.896336 0.409290
vn -0.095087 -0.935345 0.340717
vn -0.095087 -0.935345 0.340717
vn -0.095087 -0.935345 0.340717
vn -0.416166 -0.133249 0.899472
vn -0.416166 -0.133249 0.899472
vn -0.416166 -0.133249 0.899472
vn 0.110476 -0.858276 0.501156
vn 0.110476 -0.858276 0.501156
vn 0.110476 -0.858276 0.501156
vn 0.647468 -0.392891 0.653010
vn 0.647468 -0.392891 0.653010
vn 0.647468 -0.392891 0.653010
vn 0.696416 -0.386513 0.604658
vn 0.696416 -0.386513 0.604658
vn 0.696416 -0.386513 0.604658
vn 0.116378 -0.312159 0.942875
vn 0.116378 -0.312159 0.942875
vn 0.116378 -0.312159 0.942875
vn 0.076469 -0.912036 0.402917
vn 0.076469 -0.912036 0.402917
vn 0.076469 -0.912036 0.402917
vn 0.347631 0.414595 0.840990
vn 0.347631 0.414595 0.840990
vn 0.347631 0.414595 0.840990
vn 0.357875 0.411196 0.838357
vn 0.357875 0.411196 0.838357
vn 0.357875 0.411196 0.838357
vn 0.556266 0.542596 0.629411
vn 0.556265 0.542596 0.629411
vn 0.556266 0.542596 0.629411
vn 0.267308 0.861495 0.431710
vn 0.267308 0.861495 0.431710
vn 0.267308 0.861495 0.431710
vn 0.080761 0.598262 0.797220
vn 0.080761 0.598262 0.797220
vn 0.080761 0.598262 0.797220
vn 0.312835 0.383279 0.869041
vn 0.312835 0.383279 0.869041
vn 0.312835 0.383279 0.869041
vn 0.073381 0.788467 0.610684
vn 0.073381 0.788467 0.610684
vn 0.073381 0.788467 0.610684
vn -0.516321 0.171979 0.838950
vn -0.516321 0.171979 0.838950
vn -0.516321 0.171979 0.838950
vn -0.085600 0.112250 0.989986
vn -0.085600 0.112250 0.989986
vn -0.085600 0.112250 0.989986
vn -0.081113 0.462508 0.882897
vn -0.081113 0.462508 0.882897
vn -0.081113 0.462508 0.882897
vn -0.034767 0.846985 0.530478
vn -0.034767 0.846985 0.530478
vn -0.034767 0.846985 0.530478
vn -0.260479 0.758630 0.597186
vn -0.260479 0.758630 0.597186
vn -0.260479 0.758630 0.597186
vn -0.298876 0.639784 0.708060
vn -0.298876 0.639784 0.708060
vn -0.298876 0.639784 0.708060
vn -0.292585 0.707965 0.642791
vn -0.292585 0.707965 0.642790
vn -0.292585 0.707965 0.642790
vn -0.223484 0.943590 0.244321
vn -0.223484 0.943590 0.244321
vn -0.223484 0.943590 0.244321
vn -0.030077 0.962156 0.270835
vn -0.030077 0.962156 0.270835
vn -0.030077 0.962156 0.270835
vn -0.132234 0.964442 0.228834
vn -0.132234 0.964442 0.228834
vn -0.132234 0.964442 0.228834
vn -0.386513 0.907718 0.163266
vn -0.386513 0.907718 0.163266
vn -0.386513 0.907718 0.163266
vn -0.389765 0.920202 0.036214
vn -0.389765 0.920202 0.036214
vn -0.389765 0.920202 0.036214
vn -0.351888 0.930716 0.099714
vn -0.351888 0.930716 0.099714
vn -0.351888 0.930716 0.099714
vn 0.113199 0.963743 0.241633
vn 0.113199 0.963742 0.241633
vn 0.113199 0.963743 0.241633
vn 0.290521 0.892259 0.345646
vn 0.290521 0.892259 0.345646
vn 0.290521 0.892259 0.345646
vn 0.285149 0.893362 0.347266
vn 0.285149 0.893363 0.347266
vn 0.285149 0.893362 0.347266
vn 0.319833 0.897321 0.304175
vn 0.319833 0.897321 0.304175
vn 0.319833 0.897321 0.304175
vn 0.111629 0.992119 0.056912
vn 0.111629 0.992119 0.056912
vn 0.111629 0.992119 0.056912
vn -0.026640 0.996360 -0.080979
vn -0.026640 0.996360 -0.080979
vn -0.026640 0.996360 -0.080979
vn -0.013764 0.999030 -0.041839
vn -0.013764 0.999030 -0.041839
vn -0.013764 0.999030 -0.041839
vn 0.116385 0.978263 -0.171629
vn 0.116385 0.978263 -0.171629
vn 0.116385 0.978263 -0.171629
vn 0.323657 0.946081 -0.013267
vn 0.323657 0.946081 -0.013267
vn 0.323657 0.946081 -0.013267
vn 0.434905 0.883806 -0.172467
vn 0.434905 0.883806 -0.172467
vn 0.434905 0.883806 -0.172467
vn 0.306890 0.946741 -0.097472
vn 0.306890 0.946741 -0.097472
vn 0.306890 0.946741 -0.097472
vn 0.387453 0.859657 -0.332971
vn 0.387453 0.859657 -0.332971
vn 0.387453 0.859657 -0.332971
vn 0.340378 0.842258 -0.418025
vn 0.340378 0.842258 -0.418025
vn 0.340378 0.842258 -0.418025
vn 0.042218 0.912306 -0.407328
vn 0.042218 0.912306 -0.407328
vn 0.042218 0.912306 -0.407328
vn 0.064736 0.900142 -0.430758
vn 0.064736 0.900142 -0.430758
vn 0.064736 0.900142 -0.430758
vn -0.354749 0.904003 -0.238603
vn -0.354749 0.904003 -0.238603
vn -0.354749 0.904003 -0.238603
vn -0.063883 0.995353 -0.072057
vn -0.063883 0.995353 -0.072057
vn -0.063883 0.995353 -0.072057
vn -0.181551 0.936478 -0.300081
vn -0.181552 0.936478 -0.300081
vn -0.181551 0.936478 -0.300081
vn -0.153841 0.919172 -0.362569
vn -0.153841 0.919172 -0.362568
vn -0.153841 0.919172 -0.362568
vn -0.315409 0.646679 -0.694495
vn -0.315409 0.646679 -0.694495
vn -0.315409 0.646679 -0.694495
vn -0.310746 0.691916 -0.651681
vn -0.310746 0.691916 -0.651681
vn -0.310746 0.691916 -0.651681
vn -0.170121 0.496218 -0.851367
vn -0.170121 0.496218 -0.851367
vn -0.170121 0.496218 -0.851367
vn -0.689524 0.213473 -0.692088
vn -0.689524 0.213473 -0.692088
vn -0.689524 0.213473 -0.692088
vn 0.078605 0.591743 -0.802285
vn 0.078605 0.591743 -0.802285
vn 0.078605 0.591743 -0.802285
vn -0.038910 0.431466 -0.901290
vn -0.038910 0.431466 -0.901289
vn -0.038910 0.431466 -0.901289
vn 0.392737 0.557753 -0.731211
vn 0.392737 0.557753 -0.731211
vn 0.392737 0.557753 -0.731211
vn 0.576350 0.158493 -0.801686
vn 0.576350 0.158493 -0.801686
vn 0.576350 0.158493 -0.801686
vn 0.004993 0.167567 -0.985848
vn 0.004993 0.167567 -0.985848
vn 0.004993 0.167567 -0.985848
vn 0.356331 -0.086294 -0.930366
vn 0.356332 -0.086294 -0.930366
vn 0.356331 -0.086294 -0.930366
vn 0.587174 0.286474 -0.757073
vn 0.587174 0.286474 -0.757073
vn 0.587174 0.286474 -0.757073
vn 0.151447 -0.972221 -0.178469
vn 0.151447 -0.972221 -0.178469
vn 0.151447 -0.972221 -0.178469
vn 0.150441 -0.972445 -0.178095
vn 0.150441 -0.972445 -0.178095
vn 0.150441 -0.972445 -0.178095
vn 0.114031 -0.905796 -0.408081
vn 0.114031 -0.905796 -0.408081
vn 0.114031 -0.905796 -0.408081
vn -0.612873 -0.100265 -0.783794
vn -0.612873 -0.100265 -0.783794
vn -0.612873 -0.100265 -0.783794
vn -0.473990 -0.107456 -0.873949
vn -0.473990 -0.107456 -0.873949
vn -0.473990 -0.107456 -0.873949
vn -0.075822 -0.809230 -0.582579
vn -0.075822 -0.809230 -0.582579
vn -0.075822 -0.809230 -0.582579
vn -0.063131 -0.858851 -0.508321
vn -0.063131 -0.858851 -0.508321
vn -0.063131 -0.858851 -0.508321
vn -0.086418 -0.943475 -0.319980
vn -0.086418 -0.943475 -0.319980
vn -0.086418 -0.943475 -0.319980
vn -0.242364 -0.924007 -0.295755
vn -0.242364 -0.924007 -0.295755
vn -0.242364 -0.924007 -0.295755
vn -0.044380 -0.977516 -0.206139
vn -0.044380 -0.977516 -0.206139
vn -0.044380 -0.977516 -0.206139
vn -0.256402 -0.953666 -0.157414
vn -0.256402 -0.953666 -0.157414
vn -0.256402 -0.953666 -0.157414
vn -0.055481 -0.998179 -0.023698
vn -0.055481 -0.998179 -0.023698
vn -0.055481 -0.998179 -0.023698
vn -0.011867 -0.999340 -0.034321
vn -0.011867 -0.999340 -0.034321
vn -0.011867 -0.999340 -0.034321
vn 0.112381 -0.983865 -0.139210
vn 0.112381 -0.983865 -0.139210
vn 0.112381 -0.983865 -0.139210
vn 0.050981 -0.998352 -0.026338
vn 0.050981 -0.998352 -0.026338
vn 0.050981 -0.998352 -0.026338
vn 0.028232 -0.999577 -0.007000
vn 0.028232 -0.999577 -0.007000
vn 0.028232 -0.999577 -0.007000
vn 0.095454 -0.986493 0.133119
vn 0.095454 -0.986493 0.133119
vn 0.095454 -0.986493 0.133119
vn 0.049375 -0.995673 0.078721
vn 0.049375 -0.995673 0.078721
vn 0.049375 -0.995673 0.078721
vn -0.128927 -0.989957 0.057995
vn -0.128927 -0.989957 0.057995
vn -0.128927 -0.989957 0.057995
vn -0.061205 -0.988064 0.141365
vn -0.061205 -0.988064 0.141365
vn -0.061205 -0.988064 0.141365
vn 0.253529 -0.955684 0.149640
vn 0.253529 -0.955684 0.149640
vn 0.253529 -0.955684 0.149640
vn 0.320691 -0.941858 0.100303
vn 0.320691 -0.941858 0.100303
vn 0.320691 -0.941858 0.100303
vn 0.942679 -0.224979 0.246456
vn 0.942679 -0.224979 0.246456
vn 0.942679 -0.224979 0.246456
vn 0.998018 0.058816 0.022378
vn 0.998018 0.058816 0.022378
vn 0.998018 0.058816 0.022378
vn 0.839175 0.160175 0.519740
vn 0.839175 0.160174 0.519740
vn 0.839175 0.160175 0.519740
vn 0.830600 0.145431 0.537544
vn 0.830600 0.145431 0.537544
vn 0.830600 0.145431 0.537544
vn 0.300073 -0.953623 0.023665
vn 0.300073 -0.953623 0.023665
vn 0.300073 -0.953623 0.023665
vn 0.491221 -0.859531 -0.141100
vn 0.491221 -0.859531 -0.141100
vn 0.491221 -0.859531 -0.141100
vn 0.829321 0.198021 -0.522509
vn 0.829321 0.198021 -0.522508
vn 0.829321 0.198021 -0.522508
vn 0.463109 -0.876115 -0.133988
vn 0.463109 -0.876115 -0.133988
vn 0.463109 -0.876115 -0.133988
vn 0.798465 0.270760 -0.537721
vn 0.798465 0.270760 -0.537720
vn 0.798465 0.270760 -0.537720
vn 0.731201 0.557766 -0.392738
vn 0.731201 0.557766 -0.392738
vn 0.731201 0.557766 -0.392738
vn 0.798622 0.591075 -0.113287
vn 0.798622 0.591075 -0.113287
vn 0.798622 0.591075 -0.113287
vn 0.502352 0.863860 -0.037263
vn 0.502352 0.863860 -0.037263
vn 0.502352 0.863860 -0.037263
vn 0.769695 0.517231 0.374222
vn 0.769695 0.517231 0.374222
vn 0.769695 0.517231 0.374222
vn 0.980116 0.198425 0.000000
vn 0.980116 0.198425 0.000000
vn 0.980116 0.198425 0.000000
vn 0.753058 0.606962 0.253969
vn 0.753058 0.606962 0.253969
vn 0.753058 0.606962 0.253969
vn 0.922569 0.385831 0.000000
vn 0.922569 0.385831 0.000000
vn 0.922570 0.385831 0.000000
vn 0.581105 0.790298 0.194285
vn 0.581105 0.790298 0.194285
vn 0.581105 0.790298 0.194285
vn 0.482573 0.741026 0.466909
vn 0.482573 0.741026 0.466909
vn 0.482573 0.741026 0.466909
vn -0.329977 -0.933942 -0.137356
vn -0.329977 -0.933942 -0.137356
vn -0.329977 -0.933942 -0.137356
vn -0.886908 -0.327985 -0.325299
vn -0.886908 -0.327985 -0.325299
vn -0.886908 -0.327985 -0.325299
vn -0.262121 -0.959609 0.102194
vn -0.262121 -0.959609 0.102194
vn -0.262121 -0.959609 0.102194
vn -0.301858 -0.949349 0.087288
vn -0.301858 -0.949349 0.087288
vn -0.301858 -0.949349 0.087288
vn -0.350348 -0.912505 0.211165
vn -0.350348 -0.912505 0.211165
vn -0.350348 -0.912505 0.211165
vn -0.721176 0.140645 0.678325
vn -0.721176 0.140645 0.678325
vn -0.721176 0.140645 0.678325
vn -0.975725 0.196547 0.096589
vn -0.975725 0.196547 0.096589
vn -0.975725 0.196547 0.096589
vn -0.990240 0.130959 0.047699
vn -0.990240 0.130959 0.047699
vn -0.990240 0.130959 0.047699
vn -0.710076 0.169900 0.683320
vn -0.710076 0.169900 0.683320
vn -0.710076 0.169900 0.683320
vn -0.617274 0.680779 0.394350
vn -0.617274 0.680779 0.394350
vn -0.617274 0.680779 0.394350
vn -0.615055 0.716650 0.328816
vn -0.615055 0.716650 0.328816
vn -0.615055 0.716650 0.328816
vn -0.798465 0.270762 -0.537719
vn -0.798465 0.270762 -0.537719
vn -0.798465 0.270762 -0.537719
vn -0.975620 0.199261 0.091986
vn -0.975620 0.199261 0.091986
vn -0.975620 0.199261 0.091986
vn -0.761311 0.633356 -0.138801
vn -0.761311 0.633356 -0.138801
vn -0.761311 0.633356 -0.138801
vn -0.684269 0.652547 -0.325514
vn -0.684269 0.652547 -0.325514
vn -0.684269 0.652547 -0.325514
vn -0.545556 0.770401 -0.329926
vn -0.545556 0.770401 -0.329926
vn -0.545556 0.770401 -0.329926
s off
f 25/1/1 10/2/2 26/3/3
f 25/1/4 49/4/5 10/2/6
f 26/3/7 10/2/8 30/5/9
f 49/4/10 3/6/11 10/2/12
f 3/6/13 21/7/14 27/8/15
f 3/6/16 27/8/17 28/9/18
f 10/2/19 28/9/20 11/10/21
f 10/2/22 3/6/23 28/9/24
f 28/9/25 27/8/26 12/11/27
f 28/9/28 12/11/29 13/12/30
f 27/8/31 54/13/32 12/11/33
f 13/12/34 12/11/35 4/14/36
f 11/10/37 13/12/38 29/15/39
f 11/10/40 28/9/41 13/12/42
f 29/15/43 13/12/44 4/14/45
f 26/3/46 30/5/47 14/16/48
f 10/2/49 11/10/50 30/5/51
f 30/5/52 11/10/53 29/15/54
f 29/15/55 4/14/56 31/17/57
f 29/15/58 31/17/59 32/18/60
f 14/16/61 30/5/62 29/15/63
f 14/16/64 29/15/65 32/18/66
f 32/18/67 31/17/68 33/19/69
f 31/17/70 4/14/71 15/20/72
f 31/17/73 15/20/74 33/19/75
f 32/18/76 33/19/77 24/21/78
f 24/21/79 33/19/80 39/22/81
f 24/21/82 39/22/83 58/23/84
f 4/14/85 34/24/86 15/20/87
f 4/14/88 12/11/89 34/24/90
f 12/11/91 55/25/92 34/24/93
f 34/24/94 55/25/95 16/26/96
f 15/20/97 34/24/98 35/27/99
f 15/20/100 35/27/101 33/19/102
f 33/19/103 35/27/104 37/28/105
f 35/27/106 36/29/107 37/28/108
f 34/24/109 16/26/110 35/27/111
f 35/27/112 16/26/113 36/29/114
f 16/26/115 17/30/116 36/29/117
f 36/29/118 17/30/119 5/31/120
f 36/29/121 5/31/122 38/32/123
f 37/28/124 36/29/125 41/33/126
f 41/33/127 36/29/128 38/32/129
f 58/23/130 39/22/131 40/34/132
f 33/19/133 37/28/134 39/22/135
f 39/22/136 37/28/137 40/34/138
f 40/34/139 37/28/140 41/33/141
f 40/34/142 41/33/143 59/35/144
f 59/35/145 41/33/146 42/36/147
f 41/33/148 6/37/149 42/36/150
f 59/35/151 42/36/152 46/38/153
f 41/33/154 38/32/155 43/39/156
f 41/33/157 43/39/158 6/37/159
f 38/32/160 5/31/161 43/39/162
f 43/39/163 5/31/164 1/40/165
f 6/37/166 43/39/167 7/41/168
f 7/41/169 43/39/170 44/42/171
f 43/39/172 1/40/173 44/42/174
f 44/42/175 1/40/176 18/43/177
f 19/44/178 44/42/179 18/43/180
f 7/41/181 44/42/182 19/44/183
f 46/38/184 42/36/185 20/45/186
f 42/36/187 6/37/188 20/45/189
f 6/37/190 7/41/191 20/45/192
f 20/45/193 7/41/194 19/44/195
f 20/45/196 19/44/197 45/46/198
f 46/38/199 20/45/200 45/46/201
f 19/44/202 47/47/203 45/46/204
f 46/38/205 45/46/206 8/48/207
f 45/46/208 47/47/209 48/49/210
f 8/48/211 45/46/212 48/49/213
f 19/44/214 18/43/215 47/47/216
f 18/43/217 2/50/218 47/47/219
f 47/47/220 2/50/221 48/49/222
f 49/4/223 2/50/224 3/6/225
f 48/49/226 2/50/227 49/4/228
f 8/48/229 48/49/230 25/1/231
f 25/1/232 48/49/233 49/4/234
f 2/50/235 21/7/236 3/6/237
f 2/50/238 51/51/239 21/7/240
f 21/7/241 51/51/242 50/52/243
f 51/51/244 9/53/245 50/52/246
f 21/7/247 50/52/248 54/13/249
f 27/8/250 21/7/251 54/13/252
f 2/50/253 18/43/254 51/51/255
f 18/43/256 1/40/257 51/51/258
f 9/53/259 1/40/260 52/54/261
f 51/51/262 1/40/263 9/53/264
f 52/54/265 1/40/266 5/31/267
f 52/54/268 5/31/269 17/30/270
f 52/54/271 17/30/272 53/55/273
f 53/55/274 17/30/275 16/26/276
f 54/13/277 50/52/278 55/25/279
f 50/52/280 9/53/281 52/54/282
f 50/52/283 53/55/284 55/25/285
f 50/52/286 52/54/287 53/55/288
f 55/25/289 53/55/290 16/26/291
f 54/13/292 55/25/293 12/11/294
f 8/48/295 22/56/296 46/38/297
f 46/38/298 22/56/299 56/57/300
f 8/48/301 23/58/302 22/56/303
f 8/48/304 25/1/305 23/58/306
f 25/1/307 26/3/308 23/58/309
f 23/58/310 26/3/311 57/59/312
f 22/56/313 23/58/314 24/21/315
f 24/21/316 23/58/317 57/59/318
f 57/59/319 26/3/320 14/16/321
f 57/59/322 14/16/323 32/18/324
f 57/59/325 32/18/326 24/21/327
f 46/38/328 56/57/329 59/35/330
f 56/57/331 22/56/332 24/21/333
f 56/57/334 24/21/335 58/23/336
f 59/35/337 56/57/338 58/23/339
f 59/35/340 58/23/341 40/34/342
