# This file uses centimeters as units for non-parametric coordinates.

v -28.945160 27.205276 -54.353333
v -36.401367 23.582649 -46.004486
v -37.163925 11.860085 -46.648788
v -30.179024 8.237553 -55.395508
v -25.099564 17.721367 -60.157013
v 48.078537 18.619728 10.710049
v 40.622330 14.997292 19.058800
v 39.859772 3.274679 18.414688
v 46.844482 -0.347811 9.667873
v 51.924133 9.136009 4.906178
v -33.789063 17.995644 -54.862595
v 48.156357 8.861637 14.358521
v 36.771011 10.582542 -3.481936
v 34.357452 16.535378 0.161082
v 29.677200 14.261627 5.401421
v 29.198647 6.903505 4.997110
v 33.582687 4.629707 -0.493088
v -18.559647 10.441780 -44.538879
v -15.371323 16.394615 -47.527695
v -17.785072 22.347450 -43.884659
v -22.465324 20.073700 -38.644409
v -22.943878 12.715530 -39.048767
v -20.541000 17.218399 -56.399918
v -24.416924 26.776886 -50.550079
v -31.931686 23.125839 -42.135620
v -32.700348 11.310959 -42.784882
v -25.660324 7.659912 -51.600647
v 41.131210 0.507921 4.906893
v 34.309006 4.046059 13.449955
v 35.054016 15.495682 14.079094
v 42.336273 19.033813 5.924845
v 46.092606 9.770870 0.256118
v 7.273006 9.080315 -22.265816
v 4.016829 10.769081 -18.188286
v 4.372311 16.233826 -17.887878
v 7.848167 17.922592 -21.780014
v 9.640884 13.501453 -24.485588
v -27.954102 3.428960 11.201000
v 28.345108 0.100181 -33.734131
v -27.954102 10.199070 11.201000
v 28.345108 13.527775 -33.734131
v -30.119705 10.199070 11.693287
v 33.090591 13.527775 -41.471100
v -30.119705 3.428960 11.693287
v 33.090591 0.100181 -41.471100
v -19.406319 12.348175 -29.465866
v -17.362404 12.348175 -23.998070
v -17.362404 1.279867 -23.998070
v -19.406319 1.279867 -29.465866
v -31.714249 11.409473 -8.715439
v -27.600098 11.409473 -7.393789
v -27.600098 2.218485 -7.393789
v -31.714249 2.218485 -8.715439
v 3.880787 1.279867 -35.336304
v 3.880787 12.348175 -35.336304
v 6.435871 12.348175 -42.693329
v 6.435871 1.279867 -42.693329
v 0.044900 15.492535 -4.673958
v -10.146141 11.856937 -9.293556
v -10.146141 0.091863 -9.293556
v 0.044900 -3.543735 -4.673958
v 6.343317 5.974388 -1.818895
v -41.732788 15.492535 87.490082
v -51.924133 11.856937 82.870483
v -51.924133 0.091863 82.870483
v -41.732788 -3.543735 87.490082
v -35.434341 5.974388 90.345001
v -1.112914 5.974388 -8.748627
v -45.560455 5.974388 89.305115
v -31.464767 5.974388 73.424530
v -35.418320 11.948776 71.632385
v -41.815186 9.666729 68.732452
v -41.815186 2.282023 68.732452
v -35.418320 0.000000 71.632385
v -7.136011 0.000000 9.240437
v -3.182578 5.974388 11.032486
v -7.136011 11.948776 9.240437
v -13.532829 9.666729 6.340742
v -13.532829 2.282023 6.340742
v 3.960681 5.974388 3.610086
v -2.387381 15.567493 0.732517
v -12.658787 11.903286 -3.923464
v -12.658787 0.045526 -3.923464
v -2.387381 -3.618717 0.732517
v -38.689041 -3.322053 80.654144
v -48.642731 0.228870 76.142120
v -48.642731 11.719894 76.142120
v -38.689041 15.270805 80.654144
v -32.537079 5.974388 83.442688
v -21.528816 1.537216 40.155792
v -26.279640 3.232050 38.002014
v -26.279640 8.716679 38.002014
v -21.528816 10.411549 40.155792
v -18.592644 5.974388 41.486740
vt 0.058849 0.354396
vt 0.058849 0.354396
vt 0.058849 0.354396
vt 0.058849 0.354396
vt 0.058849 0.354396
vt 0.058849 0.354396
vt 0.058849 0.354396
vt 0.058849 0.354396
vt 0.058849 0.354396
vt 0.058849 0.354396
vt 0.058849 0.354396
vt 0.058849 0.354396
vt 0.058849 0.354396
vt 0.058849 0.354396
vt 0.058849 0.354396
vt 0.058849 0.354396
vt 0.058849 0.354396
vt 0.058849 0.354396
vt 0.058849 0.354396
vt 0.058849 0.354396
vt 0.058849 0.354396
vt 0.058849 0.354396
vt 0.058849 0.354396
vt 0.058849 0.354396
vt 0.058849 0.354396
vt 0.058849 0.354396
vt 0.058849 0.354396
vt 0.058849 0.354396
vt 0.058849 0.354396
vt 0.058849 0.354396
vt 0.058849 0.354396
vt 0.058849 0.354396
vt 0.058849 0.354396
vt 0.058849 0.354396
vt 0.058849 0.354396
vt 0.058849 0.354396
vt 0.058849 0.354396
vt 0.058849 0.354396
vt 0.058849 0.354396
vt 0.058849 0.354396
vt 0.058849 0.354396
vt 0.058849 0.354396
vt 0.058849 0.354396
vt 0.058849 0.354396
vt 0.058849 0.354396
vt 0.058849 0.354396
vt 0.058849 0.354396
vt 0.058849 0.354396
vt 0.058849 0.354396
vt 0.058849 0.354396
vt 0.058849 0.354396
vt 0.058849 0.354396
vt 0.058849 0.354396
vt 0.058849 0.354396
vt 0.058849 0.354396
vt 0.058849 0.354396
vt 0.058849 0.354396
vt 0.058849 0.354396
vt 0.058849 0.354396
vt 0.058849 0.354396
vt 0.058849 0.354396
vt 0.058849 0.354396
vt 0.058849 0.354396
vt 0.058849 0.354396
vt 0.058849 0.354396
vt 0.058849 0.354396
vt 0.058849 0.354396
vt 0.058849 0.354396
vt 0.058849 0.354396
vt 0.058849 0.354396
vt 0.058849 0.354396
vt 0.058849 0.354396
vt 0.058849 0.354396
vt 0.058849 0.354396
vt 0.058849 0.354396
vt 0.058849 0.354396
vt 0.058849 0.354396
vt 0.058849 0.354396
vt 0.058849 0.354396
vt 0.058849 0.354396
vt 0.058849 0.354396
vt 0.058849 0.354396
vt 0.058849 0.354396
vt 0.058849 0.354396
vt 0.058849 0.354396
vt 0.058849 0.354396
vt 0.058849 0.354396
vt 0.058849 0.354396
vt 0.058849 0.354396
vt 0.058849 0.354396
vt 0.058849 0.354396
vt 0.058849 0.354396
vt 0.058849 0.354396
vt 0.058849 0.354396
vt 0.058849 0.354396
vt 0.058849 0.354396
vt 0.058849 0.354396
vt 0.058849 0.354396
vt 0.058849 0.354396
vt 0.058849 0.354396
vt 0.058849 0.354396
vt 0.058849 0.354396
vt 0.058849 0.354396
vt 0.058849 0.354396
vt 0.058849 0.354396
vt 0.058849 0.354396
vt 0.058849 0.354396
vt 0.058849 0.354396
vt 0.058849 0.354396
vt 0.058849 0.354396
vt 0.058849 0.354396
vt 0.058849 0.354396
vt 0.058849 0.354396
vt 0.058849 0.354396
vt 0.058849 0.354396
vt 0.058849 0.354396
vt 0.058849 0.354396
vt 0.058849 0.354396
vt 0.058849 0.354396
vt 0.058849 0.354396
vt 0.058849 0.354396
vt 0.058849 0.354396
vt 0.058849 0.354396
vt 0.058849 0.354396
vt 0.058849 0.354396
vt 0.058849 0.354396
vt 0.058849 0.354396
vt 0.058849 0.354396
vt 0.058849 0.354396
vt 0.058849 0.354396
vt 0.058849 0.354396
vt 0.058849 0.354396
vt 0.058849 0.354396
vt 0.058849 0.354396
vt 0.058849 0.354396
vt 0.058849 0.354396
vt 0.058849 0.354396
vn -0.354550 0.930953 0.087296
vn -0.354550 0.930953 0.087296
vn -0.354550 0.930953 0.087296
vn -0.354550 0.930953 0.087296
vn -0.851442 0.026605 0.523775
vn -0.851441 0.026605 0.523775
vn -0.851442 0.026605 0.523775
vn -0.851441 0.026605 0.523775
vn -0.472435 -0.881280 -0.012283
vn -0.472435 -0.881280 -0.012283
vn -0.472435 -0.881280 -0.012283
vn -0.472435 -0.881280 -0.012283
vn 0.271100 -0.543923 -0.794137
vn 0.271100 -0.543923 -0.794137
vn 0.271100 -0.543923 -0.794137
vn 0.271100 -0.543923 -0.794137
vn 0.344713 0.587719 -0.731956
vn 0.344713 0.587719 -0.731956
vn 0.344713 0.587719 -0.731956
vn 0.344713 0.587719 -0.731956
vn -0.758690 0.426295 -0.492608
vn -0.758690 0.426295 -0.492608
vn -0.758690 0.426295 -0.492608
vn -0.941483 0.079244 -0.327614
vn -0.941483 0.079244 -0.327614
vn -0.941483 0.079244 -0.327614
vn -0.803880 -0.268418 -0.530781
vn -0.803880 -0.268418 -0.530781
vn -0.803880 -0.268418 -0.530781
vn -0.518130 -0.145658 -0.842808
vn -0.518131 -0.145658 -0.842808
vn -0.518130 -0.145658 -0.842808
vn -0.488983 0.302438 -0.818185
vn -0.488983 0.302438 -0.818185
vn -0.488983 0.302438 -0.818185
vn 0.657693 0.268418 0.703841
vn 0.657693 0.268418 0.703841
vn 0.657693 0.268418 0.703841
vn 0.480390 -0.079242 0.873468
vn 0.480390 -0.079242 0.873468
vn 0.480390 -0.079242 0.873468
vn 0.612504 -0.426293 0.665667
vn 0.612504 -0.426293 0.665667
vn 0.612504 -0.426293 0.665667
vn 0.888414 -0.302436 0.345331
vn 0.888414 -0.302436 0.345331
vn 0.888414 -0.302436 0.345331
vn 0.917562 0.145657 0.369952
vn 0.917562 0.145657 0.369952
vn 0.917562 0.145657 0.369952
vn 0.586209 0.582372 -0.563208
vn 0.586209 0.582372 -0.563208
vn 0.586209 0.582372 -0.563208
vn 0.586209 0.582372 -0.563208
vn -0.107429 0.943510 0.313444
vn -0.107429 0.943510 0.313444
vn -0.107429 0.943510 0.313444
vn -0.107429 0.943510 0.313444
vn -0.612108 -0.003635 0.790766
vn -0.612108 -0.003635 0.790766
vn -0.612108 -0.003635 0.790766
vn -0.612108 -0.003635 0.790766
vn -0.230617 -0.950249 0.209387
vn -0.230617 -0.950249 0.209387
vn -0.230617 -0.950249 0.209387
vn -0.230617 -0.950249 0.209387
vn 0.510060 -0.588255 -0.627531
vn 0.510060 -0.588255 -0.627531
vn 0.510060 -0.588255 -0.627531
vn 0.510060 -0.588255 -0.627531
vn 0.675036 -0.586362 -0.447779
vn 0.675036 -0.586362 -0.447779
vn 0.675036 -0.586362 -0.447779
vn 0.675036 -0.586362 -0.447779
vn 0.748277 0.539586 -0.385911
vn 0.748277 0.539586 -0.385911
vn 0.748277 0.539586 -0.385911
vn 0.748277 0.539586 -0.385911
vn 0.106740 0.873781 0.474461
vn 0.106740 0.873781 0.474461
vn 0.106740 0.873781 0.474461
vn 0.106740 0.873781 0.474461
vn -0.353923 -0.028346 0.934845
vn -0.353923 -0.028346 0.934845
vn -0.353923 -0.028346 0.934845
vn -0.353923 -0.028346 0.934845
vn -0.010384 -0.926754 0.375525
vn -0.010384 -0.926754 0.375525
vn -0.010384 -0.926754 0.375525
vn -0.010384 -0.926754 0.375525
vn 0.552726 0.586463 -0.592077
vn 0.552726 0.586463 -0.592077
vn 0.552726 0.586463 -0.592077
vn 0.552726 0.586463 -0.592077
vn -0.146245 0.948514 0.280950
vn -0.146245 0.948514 0.280950
vn -0.146245 0.948514 0.280950
vn -0.146245 0.948514 0.280950
vn -0.654410 0.001019 0.756140
vn -0.654410 0.001019 0.756140
vn -0.654410 0.001019 0.756140
vn -0.654410 0.001019 0.756140
vn -0.269522 -0.946623 0.176815
vn -0.269522 -0.946623 0.176815
vn -0.269522 -0.946623 0.176815
vn -0.269522 -0.946623 0.176815
vn 0.476536 -0.584812 -0.656436
vn 0.476536 -0.584812 -0.656436
vn 0.476536 -0.584812 -0.656436
vn 0.476536 -0.584812 -0.656436
vn -0.280838 -0.945089 0.167143
vn -0.280838 -0.945089 0.167143
vn -0.280838 -0.945089 0.167143
vn -0.280838 -0.945089 0.167143
vn -0.666487 0.002390 0.745513
vn -0.666487 0.002390 0.745513
vn -0.666487 0.002390 0.745513
vn -0.666487 0.002390 0.745513
vn -0.157597 0.949520 0.271248
vn -0.157597 0.949520 0.271248
vn -0.157597 0.949520 0.271248
vn -0.157597 0.949520 0.271248
vn 0.542668 0.587446 -0.600349
vn 0.542668 0.587447 -0.600349
vn 0.542668 0.587446 -0.600349
vn 0.542668 0.587446 -0.600349
vn 0.466493 -0.583580 -0.664694
vn 0.466493 -0.583580 -0.664694
vn 0.466493 -0.583580 -0.664694
vn 0.466493 -0.583580 -0.664694
vn -0.290814 -0.943553 0.158543
vn -0.290814 -0.943553 0.158543
vn -0.290814 -0.943553 0.158543
vn -0.290814 -0.943553 0.158543
vn -0.677039 0.003600 0.735938
vn -0.677039 0.003600 0.735938
vn -0.677039 0.003600 0.735938
vn -0.677039 0.003600 0.735938
vn -0.167624 0.950233 0.262602
vn -0.167624 0.950233 0.262602
vn -0.167624 0.950233 0.262602
vn -0.167624 0.950233 0.262602
vn 0.533675 0.588235 -0.607595
vn 0.533675 0.588235 -0.607595
vn 0.533675 0.588235 -0.607595
vn 0.533675 0.588235 -0.607595
vn 0.457526 -0.582405 -0.671919
vn 0.457526 -0.582405 -0.671918
vn 0.457526 -0.582405 -0.671919
vn 0.457526 -0.582405 -0.671918
vn 0.470866 0.000000 0.882205
vn 0.470866 0.000000 0.882205
vn 0.470866 0.000000 0.882205
vn 0.470866 0.000000 0.882205
vn 0.000000 1.000000 0.000000
vn 0.000000 1.000000 0.000000
vn 0.000000 1.000000 0.000000
vn 0.000000 1.000000 0.000000
vn -0.455638 0.000000 -0.890165
vn -0.455638 0.000000 -0.890165
vn -0.455638 0.000000 -0.890165
vn -0.455638 0.000000 -0.890165
vn 0.000000 -1.000000 -0.000000
vn 0.000000 -1.000000 -0.000000
vn 0.000000 -1.000000 -0.000000
vn 0.000000 -1.000000 -0.000000
vn 0.852428 0.000000 0.522844
vn 0.852428 0.000000 0.522844
vn 0.852428 0.000000 0.522844
vn 0.852428 0.000000 0.522844
vn 0.221648 0.000000 0.975127
vn 0.221648 0.000000 0.975127
vn 0.221648 0.000000 0.975127
vn 0.221648 0.000000 0.975127
vn -0.033236 0.998993 0.030145
vn -0.033236 0.998993 0.030145
vn -0.033236 0.998993 0.030145
vn -0.033236 0.998993 0.030145
vn 0.851208 0.000000 0.524829
vn 0.851208 0.000000 0.524829
vn 0.851208 0.000000 0.524829
vn 0.851208 0.000000 0.524829
vn -0.033236 -0.998993 0.030145
vn -0.033236 -0.998993 0.030145
vn -0.033236 -0.998993 0.030145
vn -0.033236 -0.998993 0.030145
vn -0.860087 0.000000 -0.510147
vn -0.860087 0.000000 -0.510147
vn -0.860087 0.000000 -0.510147
vn -0.860087 0.000000 -0.510147
vn -0.008216 0.998029 0.062208
vn -0.008216 0.998029 0.062208
vn -0.008216 0.998029 0.062208
vn -0.008216 0.998029 0.062208
vn 0.999819 0.000000 0.019034
vn 0.999819 0.000000 0.019034
vn 0.999819 0.000000 0.019034
vn 0.999819 0.000000 0.019034
vn -0.008216 -0.998029 0.062208
vn -0.008216 -0.998029 0.062208
vn -0.008216 -0.998029 0.062208
vn -0.008216 -0.998029 0.062208
vn -0.996962 0.000000 0.077886
vn -0.996962 0.000000 0.077886
vn -0.996962 0.000000 0.077886
vn -0.996962 0.000000 0.077886
vn -0.065354 0.000000 0.997862
vn -0.065354 0.000000 0.997862
vn -0.065354 0.000000 0.997862
vn -0.065354 0.000000 0.997862
vn -0.044897 0.998756 -0.021715
vn -0.044897 0.998756 -0.021715
vn -0.044897 0.998756 -0.021715
vn -0.044897 0.998756 -0.021715
vn 0.045817 0.000000 -0.998950
vn 0.045817 0.000000 -0.998950
vn 0.045817 0.000000 -0.998950
vn 0.045817 0.000000 -0.998950
vn -0.044897 -0.998756 -0.021715
vn -0.044897 -0.998756 -0.021715
vn -0.044897 -0.998756 -0.021715
vn -0.044897 -0.998756 -0.021715
vn -0.148266 0.909396 -0.388608
vn -0.148266 0.909396 -0.388608
vn -0.148266 0.909396 -0.388608
vn -0.148266 0.909396 -0.388608
vn -0.735395 0.000000 -0.677639
vn -0.735395 0.000000 -0.677639
vn -0.735395 0.000000 -0.677639
vn -0.735395 0.000000 -0.677639
vn -0.148265 -0.909396 -0.388608
vn -0.148265 -0.909396 -0.388608
vn -0.148265 -0.909396 -0.388608
vn -0.148265 -0.909396 -0.388608
vn 0.818443 -0.567869 0.087610
vn 0.818443 -0.567869 0.087610
vn 0.818443 -0.567869 0.087610
vn 0.818443 -0.567869 0.087610
vn 0.818443 0.567869 0.087609
vn 0.818443 0.567869 0.087609
vn 0.818443 0.567869 0.087609
vn 0.818443 0.567869 0.087609
vn 0.280957 0.348616 -0.894165
vn 0.280957 0.348616 -0.894165
vn 0.280957 0.348616 -0.894165
vn 0.060210 0.000000 -0.998186
vn 0.060210 0.000000 -0.998186
vn 0.060210 0.000000 -0.998186
vn 0.280956 -0.348616 -0.894165
vn 0.280957 -0.348616 -0.894165
vn 0.280956 -0.348616 -0.894165
vn 0.663341 -0.224860 -0.713735
vn 0.663341 -0.224860 -0.713735
vn 0.663341 -0.224860 -0.713735
vn 0.663341 0.224860 -0.713735
vn 0.663341 0.224860 -0.713735
vn 0.663341 0.224860 -0.713735
vn -0.487292 0.348614 0.800634
vn -0.487292 0.348614 0.800634
vn -0.487292 0.348614 0.800634
vn -0.711013 0.000000 0.703179
vn -0.711013 0.000000 0.703179
vn -0.711013 0.000000 0.703179
vn -0.487291 -0.348614 0.800634
vn -0.487291 -0.348614 0.800634
vn -0.487291 -0.348614 0.800634
vn -0.099573 -0.224859 0.969290
vn -0.099573 -0.224859 0.969290
vn -0.099573 -0.224859 0.969290
vn -0.099573 0.224858 0.969290
vn -0.099573 0.224858 0.969290
vn -0.099573 0.224858 0.969290
vn 0.722093 0.587432 0.365383
vn 0.722093 0.587432 0.365383
vn 0.722093 0.587432 0.365383
vn 0.722093 0.587433 0.365383
vn -0.297625 0.950306 -0.091309
vn -0.297625 0.950306 -0.091309
vn -0.297625 0.950306 -0.091309
vn -0.297625 0.950306 -0.091309
vn -0.927643 0.000000 -0.373469
vn -0.927643 0.000000 -0.373469
vn -0.927643 0.000000 -0.373469
vn -0.927643 0.000000 -0.373469
vn -0.297626 -0.950306 -0.091309
vn -0.297626 -0.950306 -0.091309
vn -0.297626 -0.950306 -0.091309
vn -0.297626 -0.950306 -0.091309
vn 0.722093 -0.587432 0.365383
vn 0.722093 -0.587432 0.365383
vn 0.722093 -0.587432 0.365383
vn 0.722093 -0.587432 0.365383
vn 0.594493 -0.565014 0.572135
vn 0.594493 -0.565014 0.572135
vn 0.594493 -0.565014 0.572135
vn 0.594493 -0.565014 0.572135
vn 0.594493 0.565013 0.572135
vn 0.594493 0.565014 0.572135
vn 0.594493 0.565013 0.572135
vn 0.594493 0.565013 0.572135
vn -0.396271 0.903526 0.163126
vn -0.396271 0.903526 0.163126
vn -0.396271 0.903526 0.163126
vn -0.396271 0.903526 0.163126
vn -0.996394 0.000000 -0.084849
vn -0.996394 0.000000 -0.084849
vn -0.996394 0.000000 -0.084849
vn -0.996394 0.000000 -0.084849
vn -0.396271 -0.903526 0.163126
vn -0.396271 -0.903526 0.163126
vn -0.396271 -0.903526 0.163126
vn -0.396271 -0.903526 0.163126
vn 0.740830 0.587757 0.325134
vn 0.740830 0.587757 0.325134
vn 0.740830 0.587757 0.325134
vn 0.740830 0.587757 0.325134
vn -0.276830 0.950997 -0.137728
vn -0.276830 0.950997 -0.137728
vn -0.276830 0.950997 -0.137728
vn -0.276830 0.950997 -0.137728
vn -0.905762 0.000000 -0.423787
vn -0.905762 0.000000 -0.423787
vn -0.905762 0.000000 -0.423787
vn -0.905762 0.000000 -0.423787
vn -0.276829 -0.950998 -0.137729
vn -0.276829 -0.950998 -0.137729
vn -0.276830 -0.950998 -0.137729
vn -0.276829 -0.950998 -0.137729
vn 0.740830 -0.587757 0.325134
vn 0.740830 -0.587757 0.325134
vn 0.740830 -0.587757 0.325134
vn 0.740830 -0.587757 0.325134
vn -0.270574 -0.950732 -0.151321
vn -0.270574 -0.950732 -0.151321
vn -0.270574 -0.950732 -0.151321
vn -0.270574 -0.950732 -0.151321
vn -0.898804 0.000000 -0.438351
vn -0.898804 0.000000 -0.438351
vn -0.898804 0.000000 -0.438351
vn -0.898804 0.000000 -0.438351
vn -0.270573 0.950732 -0.151321
vn -0.270573 0.950732 -0.151321
vn -0.270573 0.950732 -0.151321
vn -0.270573 0.950732 -0.151321
vn 0.746065 0.587633 0.313169
vn 0.746065 0.587633 0.313169
vn 0.746065 0.587633 0.313169
vn 0.746065 0.587633 0.313169
vn 0.746065 -0.587633 0.313169
vn 0.746065 -0.587633 0.313169
vn 0.746065 -0.587633 0.313169
vn 0.746065 -0.587633 0.313169
vn -0.264981 -0.950319 -0.163336
vn -0.264981 -0.950319 -0.163336
vn -0.264981 -0.950319 -0.163336
vn -0.264981 -0.950319 -0.163336
vn -0.892443 0.000000 -0.451159
vn -0.892443 0.000000 -0.451159
vn -0.892443 0.000000 -0.451159
vn -0.892443 0.000000 -0.451159
vn -0.264980 0.950319 -0.163336
vn -0.264980 0.950319 -0.163336
vn -0.264980 0.950319 -0.163336
vn -0.264980 0.950319 -0.163336
vn 0.750598 0.587438 0.302521
vn 0.750598 0.587438 0.302521
vn 0.750598 0.587439 0.302521
vn 0.750598 0.587439 0.302521
vn 0.750598 -0.587438 0.302521
vn 0.750598 -0.587438 0.302521
vn 0.750598 -0.587439 0.302521
vn 0.750598 -0.587439 0.302521
s off
f 14/27/1 15/28/2 30/45/3 31/47/4
f 15/28/5 16/29/6 29/44/7 30/45/8
f 16/29/9 17/30/10 28/43/11 29/44/12
f 17/30/13 13/25/14 32/48/15 28/43/16
f 13/25/17 14/26/18 31/46/19 32/48/20
f 2/2/21 1/1/22 11/23/23
f 3/3/24 2/2/25 11/23/26
f 4/4/27 3/3/28 11/23/29
f 5/5/30 4/4/31 11/23/32
f 1/1/33 5/5/34 11/23/35
f 6/21/36 7/20/37 12/24/38
f 7/20/39 8/19/40 12/24/41
f 8/19/42 9/18/43 12/24/44
f 9/18/45 10/22/46 12/24/47
f 10/22/48 6/21/49 12/24/50
f 19/32/51 20/33/52 36/52/53 37/54/54
f 20/34/55 21/35/56 35/51/57 36/53/58
f 21/35/59 22/36/60 34/50/61 35/51/62
f 22/36/63 18/31/64 33/49/65 34/50/66
f 18/31/67 19/32/68 37/54/69 33/49/70
f 27/42/71 23/37/72 19/32/73 18/31/74
f 23/37/75 24/38/76 20/33/77 19/32/78
f 24/39/79 25/40/80 21/35/81 20/34/82
f 25/40/83 26/41/84 22/36/85 21/35/86
f 26/41/87 27/42/88 18/31/89 22/36/90
f 5/10/91 1/11/92 24/38/93 23/37/94
f 1/6/95 2/7/96 25/40/97 24/39/98
f 2/7/99 3/8/100 26/41/101 25/40/102
f 3/8/103 4/9/104 27/42/105 26/41/106
f 4/9/107 5/10/108 23/37/109 27/42/110
f 29/44/111 28/43/112 9/15/113 8/14/114
f 30/45/115 29/44/116 8/14/117 7/13/118
f 31/47/119 30/45/120 7/13/121 6/12/122
f 32/48/123 31/46/124 6/17/125 10/16/126
f 28/43/127 32/48/128 10/16/129 9/15/130
f 34/50/131 33/49/132 17/30/133 16/29/134
f 35/51/135 34/50/136 16/29/137 15/28/138
f 36/53/139 35/51/140 15/28/141 14/27/142
f 37/54/143 36/52/144 14/26/145 13/25/146
f 33/49/147 37/54/148 13/25/149 17/30/150
f 47/55/151 48/56/152 54/57/153 55/58/154
f 46/59/155 47/55/156 55/58/157 56/60/158
f 49/61/159 46/59/160 56/60/161 57/62/162
f 48/63/163 49/61/164 57/62/165 54/64/166
f 39/65/167 45/66/168 43/67/169 41/68/170
f 44/69/171 38/70/172 40/71/173 42/72/174
f 50/73/175 51/74/176 47/55/177 46/59/178
f 51/74/179 52/75/180 48/56/181 47/55/182
f 52/76/183 53/77/184 49/61/185 48/63/186
f 53/77/187 50/73/188 46/59/189 49/61/190
f 40/71/191 51/74/192 50/73/193 42/78/194
f 38/70/195 52/75/196 51/74/197 40/71/198
f 44/79/199 53/77/200 52/76/201 38/80/202
f 42/78/203 50/73/204 53/77/205 44/79/206
f 55/58/207 54/57/208 39/65/209 41/68/210
f 56/60/211 55/58/212 41/68/213 43/81/214
f 57/62/215 56/60/216 43/81/217 45/82/218
f 54/64/219 57/62/220 45/82/221 39/83/222
f 71/84/223 72/85/224 87/86/225 88/87/226
f 72/85/227 73/88/228 86/89/229 87/86/230
f 73/88/231 74/90/232 85/91/233 86/89/234
f 74/90/235 70/92/236 89/93/237 85/91/238
f 70/92/239 71/94/240 88/95/241 89/93/242
f 59/96/243 58/97/244 68/98/245
f 60/99/246 59/96/247 68/98/248
f 61/100/249 60/99/250 68/98/251
f 62/101/252 61/100/253 68/98/254
f 58/97/255 62/101/256 68/98/257
f 63/102/258 64/103/259 69/104/260
f 64/103/261 65/105/262 69/104/263
f 65/105/264 66/106/265 69/104/266
f 66/106/267 67/107/268 69/104/269
f 67/107/270 63/102/271 69/104/272
f 76/108/273 77/109/274 93/110/275 94/111/276
f 77/112/277 78/113/278 92/114/279 93/115/280
f 78/113/281 79/116/282 91/117/283 92/114/284
f 79/116/285 75/118/286 90/119/287 91/117/288
f 75/118/289 76/108/290 94/111/291 90/119/292
f 84/120/293 80/121/294 76/108/295 75/118/296
f 80/121/297 81/122/298 77/109/299 76/108/300
f 81/123/301 82/124/302 78/113/303 77/112/304
f 82/124/305 83/125/306 79/116/307 78/113/308
f 83/125/309 84/120/310 75/118/311 79/116/312
f 62/126/313 58/127/314 81/122/315 80/121/316
f 58/128/317 59/129/318 82/124/319 81/123/320
f 59/129/321 60/130/322 83/125/323 82/124/324
f 60/130/325 61/131/326 84/120/327 83/125/328
f 61/131/329 62/126/330 80/121/331 84/120/332
f 86/89/333 85/91/334 66/132/335 65/133/336
f 87/86/337 86/89/338 65/133/339 64/134/340
f 88/87/341 87/86/342 64/134/343 63/135/344
f 89/93/345 88/95/346 63/136/347 67/137/348
f 85/91/349 89/93/350 67/137/351 66/132/352
f 91/117/353 90/119/354 74/90/355 73/88/356
f 92/114/357 91/117/358 73/88/359 72/85/360
f 93/115/361 92/114/362 72/85/363 71/84/364
f 94/111/365 93/110/366 71/94/367 70/92/368
f 90/119/369 94/111/370 70/92/371 74/90/372
