# This file uses centimeters as units for non-parametric coordinates.

v -50.063522 10.943958 87.807655
v 39.443424 32.002026 79.978363
v 66.150436 31.203104 -40.789604
v -46.031204 34.908466 -39.781570
v -128.916977 -19.851194 9.573555
v 89.150711 -19.851194 111.693382
v 72.757019 -19.851194 -118.226440
v -66.824394 -3.351560 -68.638229
v 34.424534 1.515409 -91.133118
v 42.818108 -19.851194 -142.098053
v -18.772579 46.029823 64.264870
v -43.996868 49.395454 21.273041
v 29.842068 41.492588 70.963669
v -55.083073 -5.851478 106.461716
v -72.805229 -19.851194 134.981720
v -122.022552 -19.851194 62.694931
v 40.940201 -1.440194 103.023346
v 119.903404 -19.851194 76.585197
v -3.575516 -1.457691 112.104034
v 97.646400 -0.507480 -0.661087
v -85.128952 14.591871 4.474831
v 48.876953 46.143265 19.679070
v 71.317825 32.915073 23.674011
v -26.027498 43.251343 -39.205933
v -19.628334 47.363419 -31.620789
v 2.910256 41.182114 -64.496231
v 40.316364 47.733841 -23.525238
v 56.474503 41.205109 -30.653572
v 48.344501 32.113781 -51.937485
v -24.731720 31.954350 87.217896
v -52.469452 -19.851194 142.098236
v -79.249611 -6.383383 84.801102
v -89.419624 -19.851194 123.271942
v -102.907028 -19.851194 107.082550
v -68.839699 35.634827 30.315018
v -90.011177 1.557189 41.702461
v 1.743388 -19.851194 142.098236
v 90.231247 -0.308123 47.648048
v 127.223885 -19.851194 53.513527
v 73.839859 -1.203933 79.203415
v 107.615189 -19.851194 95.747375
v -121.581367 -19.851194 -44.168663
v -98.495003 -19.851194 -94.144623
v 69.485931 3.638300 -64.403725
v 90.765839 -2.894014 -47.356033
v 128.917007 -19.851194 -42.338371
v 112.183624 -19.851194 -78.668594
v -84.272705 -1.750550 -42.027473
v -48.987885 4.953665 -66.292191
v -80.595627 -19.851194 -116.542633
v -56.373646 -19.851194 -130.514526
v -23.075399 -19.851194 -136.441620
v -12.204206 -8.324322 -103.656006
v -0.300610 54.209457 8.614540
v -66.164154 37.942760 -4.797554
v -42.204227 50.031898 2.301979
v -56.758545 43.825302 30.190277
v 31.191135 50.807266 -10.394669
v 63.301468 -19.851194 125.116348
v -76.319511 8.791480 -32.223511
vt 0.269672 0.301654
vt 0.269672 0.301654
vt 0.269672 0.301654
vt 0.269672 0.301654
vt 0.269672 0.301654
vt 0.269672 0.301654
vt 0.269672 0.301654
vt 0.269672 0.301654
vt 0.269672 0.301654
vt 0.269672 0.301654
vt 0.269672 0.301654
vt 0.269672 0.301654
vt 0.269672 0.301654
vt 0.269672 0.301654
vt 0.269672 0.301654
vt 0.269672 0.301654
vt 0.269672 0.301654
vt 0.269672 0.301654
vt 0.269672 0.301654
vt 0.269672 0.301654
vt 0.269672 0.301654
vt 0.269672 0.301654
vt 0.269672 0.301654
vt 0.269672 0.301654
vt 0.269672 0.301654
vt 0.269672 0.301654
vt 0.269672 0.301654
vt 0.269672 0.301654
vt 0.269672 0.301654
vt 0.269672 0.301654
vt 0.269672 0.301654
vt 0.269672 0.301654
vt 0.269672 0.301654
vt 0.269672 0.301654
vt 0.269672 0.301654
vt 0.269672 0.301654
vt 0.269672 0.301654
vt 0.269672 0.301654
vt 0.269672 0.301654
vt 0.269672 0.301654
vt 0.269672 0.301654
vt 0.269672 0.301654
vt 0.269672 0.301654
vt 0.269672 0.301654
vt 0.269672 0.301654
vt 0.269672 0.301654
vt 0.269672 0.301654
vt 0.269672 0.301654
vt 0.269672 0.301654
vt 0.269672 0.301654
vt 0.269672 0.301654
vt 0.269672 0.301654
vt 0.269672 0.301654
vt 0.269672 0.301654
vt 0.269672 0.301654
vt 0.269672 0.301654
vt 0.269672 0.301654
vt 0.269672 0.301654
vt 0.269672 0.301654
vt 0.269672 0.301654
vn -0.490692 0.731003 0.474190
vn -0.490692 0.731003 0.474190
vn -0.490692 0.731003 0.474190
vn -0.081779 0.992112 0.095004
vn -0.081779 0.992112 0.095004
vn -0.081779 0.992112 0.095004
vn -0.081779 0.992112 0.095004
vn -0.561032 0.827712 0.011655
vn -0.561032 0.827712 0.011655
vn -0.561032 0.827712 0.011655
vn -0.404437 0.914535 -0.007536
vn -0.404437 0.914535 -0.007536
vn -0.404437 0.914535 -0.007536
vn 0.135556 0.984083 0.114915
vn 0.135556 0.984083 0.114915
vn 0.135556 0.984083 0.114915
vn 0.135556 0.984083 0.114915
vn 0.481190 0.833739 0.270806
vn 0.481190 0.833739 0.270806
vn 0.481190 0.833739 0.270806
vn 0.481190 0.833739 0.270806
vn 0.581336 0.812920 -0.034786
vn 0.581336 0.812920 -0.034786
vn 0.581336 0.812920 -0.034786
vn 0.581336 0.812920 -0.034786
vn -0.361932 0.887485 -0.285264
vn -0.361932 0.887485 -0.285264
vn -0.361932 0.887485 -0.285264
vn -0.318601 0.919621 -0.229761
vn -0.318601 0.919621 -0.229761
vn -0.318601 0.919621 -0.229761
vn -0.078909 0.988335 -0.130260
vn -0.078909 0.988335 -0.130260
vn -0.078909 0.988335 -0.130260
vn -0.213721 0.922976 -0.320061
vn -0.213721 0.922976 -0.320061
vn -0.213721 0.922976 -0.320061
vn 0.290175 0.956714 -0.022274
vn 0.290175 0.956714 -0.022274
vn 0.290175 0.956714 -0.022274
vn 0.360269 0.932112 -0.037068
vn 0.360269 0.932112 -0.037068
vn 0.360269 0.932112 -0.037068
vn 0.339615 0.811114 -0.476189
vn 0.339615 0.811114 -0.476189
vn 0.339615 0.811114 -0.476189
vn 0.086612 0.629789 0.771922
vn 0.086612 0.629789 0.771922
vn 0.086612 0.629789 0.771922
vn -0.245343 0.588932 0.770043
vn -0.245343 0.588932 0.770043
vn -0.245343 0.588932 0.770043
vn -0.245343 0.588932 0.770043
vn -0.119171 0.921116 0.370598
vn -0.119171 0.921116 0.370598
vn -0.119171 0.921116 0.370598
vn -0.129756 0.919611 0.370783
vn -0.129756 0.919611 0.370783
vn -0.129756 0.919611 0.370783
vn -0.476426 0.713298 0.514028
vn -0.476426 0.713298 0.514028
vn -0.476426 0.713298 0.514028
vn -0.270990 0.935733 0.225762
vn -0.270990 0.935733 0.225762
vn -0.270990 0.935733 0.225762
vn -0.222012 0.922759 0.315001
vn -0.222012 0.922759 0.315001
vn -0.222012 0.922759 0.315001
vn -0.266822 0.923676 0.275008
vn -0.266822 0.923676 0.275008
vn -0.266822 0.923676 0.275008
vn -0.834134 0.545492 0.081603
vn -0.834134 0.545493 0.081603
vn -0.834134 0.545492 0.081603
vn -0.592042 0.781696 0.196055
vn -0.592042 0.781696 0.196055
vn -0.592042 0.781696 0.196055
vn -0.673092 0.574004 0.466334
vn -0.673092 0.574004 0.466334
vn -0.673092 0.574004 0.466334
vn -0.511421 0.813278 0.277540
vn -0.511421 0.813278 0.277540
vn -0.511421 0.813278 0.277540
vn -0.523462 0.849336 0.067938
vn -0.523462 0.849336 0.067938
vn -0.523462 0.849336 0.067938
vn -0.410947 0.872775 0.263414
vn -0.410947 0.872775 0.263414
vn -0.410947 0.872775 0.263414
vn -0.370580 0.914987 0.159590
vn -0.370580 0.914987 0.159590
vn -0.370580 0.914987 0.159590
vn 0.503662 0.505368 0.700662
vn 0.503662 0.505368 0.700662
vn 0.503662 0.505368 0.700662
vn 0.269332 0.884576 0.380770
vn 0.269332 0.884576 0.380770
vn 0.269332 0.884576 0.380770
vn 0.241563 0.851614 0.465189
vn 0.241563 0.851614 0.465189
vn 0.241563 0.851614 0.465189
vn 0.114882 0.817226 0.564751
vn 0.114882 0.817226 0.564751
vn 0.114882 0.817226 0.564751
vn 0.137903 0.855041 0.499887
vn 0.137903 0.855041 0.499887
vn 0.137903 0.855041 0.499887
vn 0.164746 0.564658 0.808715
vn 0.164746 0.564658 0.808715
vn 0.164746 0.564658 0.808715
vn 0.000000 0.852475 0.522768
vn 0.000000 0.852475 0.522768
vn 0.000000 0.852475 0.522768
vn 0.754842 0.651276 -0.077804
vn 0.754842 0.651276 -0.077804
vn 0.754842 0.651276 -0.077804
vn 0.656851 0.649867 0.382387
vn 0.656851 0.649867 0.382387
vn 0.656851 0.649867 0.382387
vn 0.821321 0.556878 0.123770
vn 0.821321 0.556878 0.123770
vn 0.821321 0.556878 0.123770
vn 0.457802 0.886555 0.066611
vn 0.457802 0.886555 0.066611
vn 0.457802 0.886555 0.066611
vn 0.404009 0.894797 0.190041
vn 0.404009 0.894797 0.190041
vn 0.404009 0.894797 0.190041
vn 0.404009 0.894797 0.190041
vn 0.652679 0.667723 0.357989
vn 0.652679 0.667723 0.357989
vn 0.652679 0.667723 0.357989
vn 0.310109 0.880278 0.359087
vn 0.310109 0.880278 0.359087
vn 0.310109 0.880278 0.359087
vn 0.375912 0.894751 0.241062
vn 0.375912 0.894751 0.241062
vn 0.375912 0.894751 0.241062
vn -0.779648 0.625951 -0.018265
vn -0.779648 0.625951 -0.018265
vn -0.779648 0.625951 -0.018265
vn -0.649070 0.628855 -0.428076
vn -0.649070 0.628855 -0.428076
vn -0.649070 0.628855 -0.428076
vn -0.796784 0.537439 -0.276214
vn -0.796784 0.537439 -0.276214
vn -0.796784 0.537439 -0.276214
vn -0.615015 0.742647 -0.265014
vn -0.615015 0.742647 -0.265014
vn -0.615015 0.742647 -0.265014
vn -0.519953 0.851241 -0.070972
vn -0.519953 0.851241 -0.070972
vn -0.519953 0.851241 -0.070972
vn -0.339783 0.765061 -0.547018
vn -0.339783 0.765061 -0.547018
vn -0.339783 0.765061 -0.547018
vn -0.667919 0.710353 -0.221999
vn -0.667919 0.710353 -0.221999
vn -0.667919 0.710353 -0.221998
vn -0.286526 0.926581 -0.243618
vn -0.286526 0.926581 -0.243618
vn -0.286526 0.926581 -0.243618
vn -0.419218 0.886991 -0.193657
vn -0.419218 0.886991 -0.193657
vn -0.419218 0.886991 -0.193657
vn 0.441152 0.614049 -0.654468
vn 0.441152 0.614049 -0.654468
vn 0.441152 0.614049 -0.654468
vn 0.617577 0.553459 -0.558821
vn 0.617577 0.553459 -0.558821
vn 0.617577 0.553459 -0.558821
vn 0.502790 0.803034 -0.319905
vn 0.502790 0.803034 -0.319905
vn 0.502790 0.803034 -0.319905
vn 0.788400 0.597414 -0.146705
vn 0.788400 0.597414 -0.146705
vn 0.788400 0.597414 -0.146705
vn 0.535132 0.844716 0.009453
vn 0.535132 0.844716 0.009453
vn 0.535132 0.844716 0.009453
vn 0.415572 0.903198 -0.107397
vn 0.415572 0.903198 -0.107397
vn 0.415572 0.903198 -0.107397
vn 0.293294 0.910235 -0.292321
vn 0.293294 0.910235 -0.292321
vn 0.293294 0.910235 -0.292321
vn 0.419617 0.886887 -0.193272
vn 0.419617 0.886886 -0.193272
vn 0.419617 0.886886 -0.193272
vn -0.445732 0.617536 -0.648053
vn -0.445732 0.617536 -0.648053
vn -0.445732 0.617536 -0.648053
vn -0.445732 0.617536 -0.648053
vn -0.454538 0.679677 -0.575704
vn -0.454538 0.679677 -0.575704
vn -0.454538 0.679677 -0.575704
vn -0.370892 0.880192 -0.296145
vn -0.370892 0.880192 -0.296145
vn -0.370892 0.880192 -0.296145
vn -0.293714 0.926627 -0.234722
vn -0.293714 0.926627 -0.234722
vn -0.293714 0.926627 -0.234722
vn -0.161293 0.946465 -0.279622
vn -0.161293 0.946465 -0.279622
vn -0.161293 0.946465 -0.279622
vn -0.423139 0.638047 -0.643311
vn -0.423139 0.638047 -0.643311
vn -0.423139 0.638047 -0.643311
vn -0.288140 0.776940 -0.559768
vn -0.288140 0.776940 -0.559768
vn -0.288140 0.776940 -0.559768
vn -0.077589 0.956061 -0.282716
vn -0.077589 0.956061 -0.282716
vn -0.077589 0.956061 -0.282716
vn -0.077589 0.956061 -0.282716
vn 0.452799 0.617676 -0.643001
vn 0.452799 0.617676 -0.643001
vn 0.452799 0.617676 -0.643001
vn 0.233158 0.896374 -0.377029
vn 0.233158 0.896374 -0.377029
vn 0.233158 0.896374 -0.377029
vn 0.317558 0.689455 -0.651006
vn 0.317558 0.689455 -0.651006
vn 0.317558 0.689455 -0.651006
vn 0.086267 0.601737 -0.794022
vn 0.086267 0.601737 -0.794022
vn 0.086267 0.601737 -0.794022
vn 0.109908 0.984337 -0.137842
vn 0.109908 0.984337 -0.137842
vn 0.109908 0.984337 -0.137842
vn 0.000442 0.785509 -0.618851
vn 0.000442 0.785509 -0.618851
vn 0.000442 0.785509 -0.618851
vn -0.027757 0.945873 -0.323349
vn -0.027757 0.945873 -0.323349
vn -0.027757 0.945873 -0.323349
vn -0.504497 0.743957 0.438190
vn -0.504497 0.743957 0.438190
vn -0.504497 0.743957 0.438190
vn -0.504497 0.743957 0.438190
vn -0.254766 0.940906 0.223136
vn -0.254766 0.940906 0.223136
vn -0.254766 0.940906 0.223136
vn 0.034926 0.806330 0.590433
vn 0.034926 0.806330 0.590433
vn 0.034926 0.806330 0.590433
vn 0.034926 0.806330 0.590433
vn 0.068728 0.983496 0.167370
vn 0.068728 0.983496 0.167370
vn 0.068728 0.983496 0.167370
vn 0.010541 0.982741 -0.184684
vn 0.010541 0.982741 -0.184684
vn 0.010541 0.982741 -0.184684
vn 0.010541 0.982742 -0.184684
vn 0.295671 0.832497 -0.468538
vn 0.295671 0.832497 -0.468538
vn 0.295671 0.832497 -0.468538
vn 0.217156 0.913392 -0.344323
vn 0.217156 0.913392 -0.344323
vn 0.217156 0.913392 -0.344323
vn 0.017316 0.984721 -0.173278
vn 0.017316 0.984721 -0.173278
vn 0.017316 0.984721 -0.173278
vn -0.442752 0.896086 -0.031637
vn -0.442752 0.896086 -0.031637
vn -0.442752 0.896086 -0.031637
vn -0.355104 0.883390 -0.305815
vn -0.355104 0.883390 -0.305815
vn -0.355104 0.883390 -0.305815
s off
f 1/1/1 57/2/2 35/3/3
f 54/4/4 56/5/5 12/6/6 11/7/7
f 55/8/8 35/3/9 57/2/10
f 57/2/11 12/6/12 56/5/13
f 54/4/14 13/9/15 22/10/16 58/11/17
f 2/12/18 23/13/19 22/10/20 13/9/21
f 3/14/22 28/15/23 22/10/24 23/13/25
f 4/16/26 55/8/27 24/17/28
f 55/8/29 25/18/30 24/17/31
f 54/4/32 25/18/33 56/5/34
f 26/19/35 24/17/36 25/18/37
f 58/11/38 22/10/39 27/20/40
f 28/15/41 27/20/42 22/10/43
f 29/21/44 28/15/45 3/14/46
f 2/12/47 30/22/48 19/23/49
f 1/1/50 14/24/51 19/23/52 30/22/53
f 31/25/54 19/23/55 14/24/56
f 31/25/57 14/24/58 15/26/59
f 1/1/60 32/27/61 14/24/62
f 34/28/63 33/29/64 14/24/65
f 33/29/66 15/26/67 14/24/68
f 34/28/69 14/24/70 32/27/71
f 35/3/72 21/30/73 36/31/74
f 5/32/75 36/31/76 21/30/77
f 1/1/78 35/3/79 36/31/80
f 1/1/81 36/31/82 32/27/83
f 5/32/84 16/33/85 36/31/86
f 16/33/87 32/27/88 36/31/89
f 34/28/90 32/27/91 16/33/92
f 17/34/93 40/35/94 2/12/95
f 6/36/96 40/35/97 17/34/98
f 6/36/99 17/34/100 59/37/101
f 59/37/102 17/34/103 19/23/104
f 59/37/105 19/23/106 37/38/107
f 2/12/108 19/23/109 17/34/110
f 31/25/111 37/38/112 19/23/113
f 3/14/114 23/13/115 20/39/116
f 2/12/117 38/40/118 23/13/119
f 38/40/120 20/39/121 23/13/122
f 39/41/123 20/39/124 38/40/125
f 39/41/126 38/40/127 40/35/128 18/42/129
f 2/12/130 40/35/131 38/40/132
f 6/36/133 41/43/134 40/35/135
f 41/43/136 18/42/137 40/35/138
f 35/3/139 55/8/140 21/30/141
f 4/16/142 60/44/143 55/8/144
f 60/44/145 21/30/146 55/8/147
f 5/32/148 21/30/149 60/44/150
f 5/32/151 60/44/152 42/45/153
f 42/45/154 60/44/155 48/46/156
f 4/16/157 48/46/158 60/44/159
f 43/47/160 48/46/161 8/48/162
f 43/47/163 42/45/164 48/46/165
f 29/21/166 3/14/167 44/49/168
f 3/14/169 45/50/170 44/49/171
f 7/51/172 44/49/173 45/50/174
f 3/14/175 20/39/176 45/50/177
f 39/41/178 46/52/179 20/39/180
f 46/52/181 45/50/182 20/39/183
f 7/51/184 45/50/185 47/53/186
f 47/53/187 45/50/188 46/52/189
f 4/16/190 24/17/191 49/54/192 48/46/193
f 26/19/194 49/54/195 24/17/196
f 8/48/197 48/46/198 49/54/199
f 43/47/200 8/48/201 50/55/202
f 50/55/203 8/48/204 51/56/205
f 26/19/206 53/57/207 49/54/208
f 49/54/209 53/57/210 8/48/211
f 52/58/212 51/56/213 8/48/214 53/57/215
f 29/21/216 44/49/217 9/59/218
f 7/51/219 9/59/220 44/49/221
f 26/19/222 29/21/223 9/59/224
f 26/19/225 9/59/226 53/57/227
f 7/51/228 10/60/229 53/57/230
f 7/51/231 53/57/232 9/59/233
f 52/58/234 53/57/235 10/60/236
f 1/1/237 30/22/238 11/7/239 57/2/240
f 57/2/241 11/7/242 12/6/243
f 2/12/244 13/9/245 11/7/246 30/22/247
f 54/4/248 11/7/249 13/9/250
f 54/4/251 58/11/252 27/20/253 25/18/254
f 29/21/255 26/19/256 28/15/257
f 28/15/258 26/19/259 27/20/260
f 26/19/261 25/18/262 27/20/263
f 57/2/264 56/5/265 55/8/266
f 55/8/267 56/5/268 25/18/269
