# This file uses centimeters as units for non-parametric coordinates.

v 4.120396 0.000000 -40.082638
v 23.474916 7.435754 -64.433517
v 24.703962 8.213036 -51.227512
v 4.126949 9.105280 -58.706699
v 12.030525 0.000000 -74.375565
v 28.379782 0.000000 -72.608887
v 32.292084 0.000000 -47.388973
v 19.066555 0.000000 -40.418804
v -1.046734 0.000000 -60.002514
v 8.541565 10.772869 -45.991840
v 13.548954 8.712561 -66.982208
v 16.539917 10.772869 -46.196880
v -35.705643 0.000000 -14.935436
v -17.706833 15.631096 -15.731754
v 15.732868 15.641376 -19.436176
v 7.300896 15.631096 -2.510845
v -11.985374 15.641376 -30.317013
v 10.174736 8.434244 -37.874874
v 6.531700 18.051117 -31.528179
v 25.793833 0.000000 -15.626255
v 12.328548 0.000000 10.453163
v -12.724472 13.827831 2.086456
v -15.515167 0.000000 -48.049389
v -19.549805 0.000000 11.247692
v -7.310585 19.824059 -4.332958
v 17.232819 0.000000 -41.219891
v 6.735844 0.000000 74.375565
v 11.716709 10.079704 63.879528
v 19.702236 10.086372 43.707039
v 26.800556 10.079742 53.621975
v 5.133373 10.086372 56.215595
v 7.517559 5.438826 41.306763
v 10.034367 11.640265 45.298935
v 24.911089 0.000000 39.124634
v 35.705639 0.000000 54.671539
v 23.373886 8.916892 66.420303
v -6.036236 0.000000 52.872746
v 26.533230 0.000000 73.075592
v 21.350307 12.783558 61.397381
v 7.743160 0.000000 36.275383
vt 0.256007 0.302821
vt 0.256007 0.302821
vt 0.256007 0.302821
vt 0.256007 0.302821
vt 0.256007 0.302821
vt 0.256007 0.302821
vt 0.256007 0.302821
vt 0.256007 0.302821
vt 0.256007 0.302821
vt 0.256007 0.302821
vt 0.256007 0.302821
vt 0.256007 0.302821
vt 0.256007 0.302821
vt 0.256007 0.302821
vt 0.256007 0.302821
vt 0.256007 0.302821
vt 0.256007 0.302821
vt 0.256007 0.302821
vt 0.256007 0.302821
vt 0.256007 0.302821
vt 0.256007 0.302821
vt 0.256007 0.302821
vt 0.256007 0.302821
vt 0.256007 0.302821
vt 0.256007 0.302821
vt 0.256007 0.302821
vt 0.256007 0.302821
vt 0.256007 0.302821
vt 0.256007 0.302821
vt 0.256007 0.302821
vt 0.256007 0.302821
vt 0.256007 0.302821
vt 0.256007 0.302821
vt 0.256007 0.302821
vt 0.256007 0.302821
vt 0.256007 0.302821
vt 0.256007 0.302821
vt 0.256007 0.302821
vt 0.256007 0.302821
vt 0.256007 0.302821
vt 0.256007 0.302821
vt 0.256007 0.302821
vt 0.256007 0.302821
vt 0.256007 0.302821
vt 0.256007 0.302821
vt 0.256007 0.302821
vt 0.256007 0.302821
vt 0.256007 0.302821
vt 0.256007 0.302821
vn -0.848473 0.475584 0.232194
vn -0.848473 0.475584 0.232194
vn -0.848473 0.475584 0.232194
vn -0.860805 0.457345 0.223273
vn -0.860805 0.457345 0.223273
vn -0.860805 0.457345 0.223273
vn -0.657299 0.458569 -0.598057
vn -0.657299 0.458569 -0.598057
vn -0.657299 0.458569 -0.598057
vn 0.145317 0.986790 -0.071609
vn 0.145317 0.986790 -0.071609
vn 0.145317 0.986790 -0.071609
vn 0.270827 0.594972 -0.756744
vn 0.270827 0.594972 -0.756744
vn 0.270827 0.594972 -0.756744
vn 0.754898 0.646834 -0.108330
vn 0.754898 0.646834 -0.108330
vn 0.754898 0.646834 -0.108330
vn 0.763987 0.634252 -0.118521
vn 0.763987 0.634252 -0.118521
vn 0.763987 0.634252 -0.118521
vn 0.019826 0.474581 0.879988
vn 0.019826 0.474581 0.879988
vn 0.019826 0.474581 0.879988
vn 0.022551 0.476634 0.878813
vn 0.022551 0.476634 0.878813
vn 0.022551 0.476634 0.878813
vn -0.003308 0.991652 -0.128902
vn -0.003308 0.991652 -0.128902
vn -0.003308 0.991652 -0.128902
vn 0.070009 0.758509 -0.647891
vn 0.070009 0.758509 -0.647891
vn 0.070009 0.758509 -0.647891
vn -0.510278 0.606416 -0.609816
vn -0.510278 0.606416 -0.609816
vn -0.510278 0.606416 -0.609816
vn 0.042832 0.999081 0.001349
vn 0.042832 0.999081 0.001349
vn 0.042832 0.999081 0.001349
vn 0.449639 0.582519 0.677124
vn 0.449639 0.582519 0.677124
vn 0.449639 0.582519 0.677124
vn 0.449639 0.582519 0.677124
vn 0.137127 0.954907 -0.263343
vn 0.137127 0.954907 -0.263343
vn 0.137127 0.954907 -0.263343
vn -0.641027 0.725334 -0.250947
vn -0.641027 0.725334 -0.250947
vn -0.641027 0.725334 -0.250947
vn -0.672299 0.616427 -0.409917
vn -0.672299 0.616427 -0.409917
vn -0.672299 0.616427 -0.409918
vn -0.140202 0.756213 -0.639129
vn -0.140202 0.756213 -0.639128
vn -0.140202 0.756213 -0.639128
vn 0.128364 0.579703 -0.804654
vn 0.128364 0.579703 -0.804654
vn 0.128364 0.579703 -0.804654
vn 0.155385 0.984769 0.078010
vn 0.155385 0.984769 0.078010
vn 0.155385 0.984769 0.078010
vn 0.711887 0.554295 -0.431246
vn 0.711887 0.554295 -0.431246
vn 0.711887 0.554295 -0.431246
vn 0.747603 0.549655 0.372786
vn 0.747603 0.549655 0.372786
vn 0.747603 0.549655 0.372786
vn 0.733640 0.564172 0.378792
vn 0.733640 0.564172 0.378792
vn 0.733640 0.564172 0.378792
vn 0.020884 0.545003 0.838174
vn 0.020884 0.545003 0.838174
vn 0.020884 0.545003 0.838174
vn -0.777484 0.565751 0.274671
vn -0.777484 0.565751 0.274671
vn -0.777484 0.565751 0.274671
vn -0.599763 0.709459 0.370071
vn -0.599763 0.709459 0.370071
vn -0.599763 0.709459 0.370071
vn -0.578220 0.779601 0.240591
vn -0.578220 0.779601 0.240591
vn -0.578220 0.779601 0.240591
vn 0.125472 0.670036 0.731648
vn 0.125472 0.670036 0.731648
vn 0.125472 0.670036 0.731648
vn 0.093769 0.653278 0.751289
vn 0.093769 0.653278 0.751289
vn 0.093769 0.653278 0.751289
vn 0.266662 0.961016 0.073080
vn 0.266662 0.961015 0.073080
vn 0.266662 0.961015 0.073080
vn -0.270404 0.956960 -0.105396
vn -0.270404 0.956960 -0.105396
vn -0.270404 0.956960 -0.105396
vn -0.136467 0.981613 -0.133461
vn -0.136467 0.981613 -0.133461
vn -0.136467 0.981613 -0.133461
vn 0.178221 0.487953 -0.854482
vn 0.178221 0.487953 -0.854482
vn 0.178221 0.487953 -0.854482
vn 0.836987 0.470173 -0.279982
vn 0.836987 0.470173 -0.279982
vn 0.836987 0.470173 -0.279982
vn 0.594008 0.672269 -0.441824
vn 0.594008 0.672269 -0.441824
vn 0.594008 0.672269 -0.441824
vn -0.521881 0.725335 0.448921
vn -0.521881 0.725335 0.448921
vn -0.521881 0.725335 0.448921
vn -0.676991 0.616427 0.402121
vn -0.676991 0.616427 0.402121
vn -0.676991 0.616427 0.402121
vn -0.630387 0.756213 -0.175369
vn -0.630387 0.756213 -0.175369
vn -0.630387 0.756213 -0.175369
vn -0.650899 0.579703 -0.490178
vn -0.650899 0.579703 -0.490178
vn -0.650899 0.579703 -0.490178
vn 0.141685 0.984769 -0.100775
vn 0.141685 0.984769 -0.100775
vn 0.141685 0.984769 -0.100775
vn -0.047735 0.554295 -0.830950
vn -0.047735 0.554295 -0.830950
vn -0.047735 0.554295 -0.830950
vn 0.679441 0.549653 -0.486047
vn 0.679440 0.549653 -0.486047
vn 0.679440 0.549653 -0.486047
vn 0.678209 0.564172 -0.470895
vn 0.678209 0.564172 -0.470895
vn 0.678209 0.564172 -0.470895
vn 0.750399 0.545004 0.373995
vn 0.750399 0.545004 0.373995
vn 0.750399 0.545004 0.373995
vn -0.121330 0.565750 0.815602
vn -0.121330 0.565750 0.815602
vn -0.121330 0.565750 0.815602
vn 0.046179 0.709460 0.703232
vn 0.046179 0.709460 0.703232
vn 0.046179 0.709460 0.703232
vn -0.058144 0.779603 0.623570
vn -0.058144 0.779602 0.623570
vn -0.058144 0.779603 0.623570
vn 0.705242 0.670035 0.231703
vn 0.705242 0.670035 0.231703
vn 0.705242 0.670035 0.231703
vn 0.707752 0.653277 0.268915
vn 0.707752 0.653278 0.268915
vn 0.707752 0.653277 0.268915
vn 0.189430 0.961015 -0.201409
vn 0.189430 0.961015 -0.201409
vn 0.189430 0.961015 -0.201409
vn -0.219738 0.956960 0.189584
vn -0.219738 0.956960 0.189584
vn -0.219738 0.956960 0.189584
vn -0.181824 0.981613 0.058095
vn -0.181824 0.981613 0.058095
vn -0.181824 0.981613 0.058095
vn -0.671584 0.487954 -0.557563
vn -0.671584 0.487954 -0.557563
vn -0.671584 0.487954 -0.557562
vn 0.144497 0.470174 -0.870665
vn 0.144497 0.470174 -0.870665
vn 0.144497 0.470173 -0.870665
vn -0.112276 0.672270 -0.731743
vn -0.112276 0.672270 -0.731743
vn -0.112276 0.672270 -0.731743
s off
f 10/1/1 4/2/2 1/3/3
f 9/4/4 1/3/5 4/2/6
f 9/5/7 4/6/8 5/7/9
f 11/8/10 3/9/11 2/10/12
f 5/11/13 11/8/14 2/10/15
f 3/9/16 7/12/17 2/10/18
f 6/13/19 2/10/20 7/12/21
f 8/14/22 10/1/23 1/3/24
f 10/1/25 8/14/26 12/15/27
f 10/1/28 12/15/29 4/2/30
f 6/13/31 5/11/32 2/10/33
f 5/11/34 4/2/35 11/8/36
f 4/2/37 3/9/38 11/8/39
f 12/15/40 8/14/41 7/12/42 3/9/43
f 4/2/44 12/15/45 3/9/46
f 14/16/47 17/17/48 13/18/49
f 23/19/50 13/18/51 17/17/52
f 17/17/53 19/20/54 23/19/55
f 23/21/56 19/22/57 18/23/58
f 19/20/59 16/24/60 15/25/61
f 18/26/62 19/20/63 15/25/64
f 16/24/65 21/27/66 15/25/67
f 20/28/68 15/25/69 21/27/70
f 24/29/71 21/27/72 22/30/73
f 22/30/74 14/16/75 24/29/76
f 24/29/77 14/16/78 13/18/79
f 22/30/80 25/31/81 14/16/82
f 22/30/83 21/27/84 25/31/85
f 25/31/86 21/27/87 16/24/88
f 25/31/89 16/24/90 19/20/91
f 14/16/92 25/31/93 17/17/94
f 17/17/95 25/31/96 19/20/97
f 26/32/98 23/19/99 18/26/100
f 20/28/101 26/32/102 15/25/103
f 15/25/104 26/32/105 18/26/106
f 28/33/107 31/34/108 27/35/109
f 37/36/110 27/35/111 31/34/112
f 31/34/113 33/37/114 37/36/115
f 37/38/116 33/39/117 32/40/118
f 33/37/119 30/41/120 29/42/121
f 32/43/122 33/37/123 29/42/124
f 30/41/125 35/44/126 29/42/127
f 34/45/128 29/42/129 35/44/130
f 38/46/131 35/44/132 36/47/133
f 36/47/134 28/33/135 38/46/136
f 38/46/137 28/33/138 27/35/139
f 36/47/140 39/48/141 28/33/142
f 36/47/143 35/44/144 39/48/145
f 39/48/146 35/44/147 30/41/148
f 39/48/149 30/41/150 33/37/151
f 28/33/152 39/48/153 31/34/154
f 31/34/155 39/48/156 33/37/157
f 40/49/158 37/36/159 32/43/160
f 34/45/161 40/49/162 29/42/163
f 29/42/164 40/49/165 32/43/166
