# This file uses centimeters as units for non-parametric coordinates.

v -173.248291 106.064537 19.014740
v 173.248291 106.064537 19.014740
v -173.248291 113.989403 19.014740
v 173.248291 113.989403 19.014740
v -173.248291 113.989403 -27.554989
v 173.248291 113.989403 -27.554989
v -173.248291 106.064537 -27.554989
v 173.248291 106.064537 -27.554989
v -173.248291 161.898026 19.014740
v 173.248291 161.898026 19.014740
v -173.248291 169.822891 19.014740
v 173.248291 169.822891 19.014740
v -173.248291 169.822891 -27.554989
v 173.248291 169.822891 -27.554989
v -173.248291 161.898026 -27.554989
v 173.248291 161.898026 -27.554989
v -72.879028 113.989403 -27.554989
v -72.879028 111.919861 12.269115
v -72.879028 106.064537 13.840580
v -72.879028 106.064537 -27.554989
v 60.321808 169.822891 -27.554989
v 60.321808 167.753357 12.269211
v 60.321808 161.898026 13.840675
v 60.321808 161.898026 -27.554989
v -105.193710 169.219894 15.578270
v -12.236023 168.396240 13.519192
v -47.130962 168.705444 -2.575397
v -54.657745 165.031830 15.646172
v 42.209625 112.887573 14.331150
v 77.291870 113.182571 15.068722
v 60.173035 113.038589 7.470512
v 57.481766 109.784485 15.839481
v -169.285583 0.000000 29.055786
v -169.285767 194.109131 29.055786
v -177.210617 0.000000 29.055786
v -177.210815 194.109131 29.055786
v -177.210815 0.000000 -29.055784
v -177.210815 226.765961 -29.055784
v -169.285767 0.000000 -29.055784
v -169.285767 226.765961 -29.055784
v 177.210617 0.000000 29.055786
v 177.210617 194.109131 29.055786
v 169.285965 0.000000 29.055786
v 169.285965 194.109131 29.055786
v 169.285965 0.000000 -29.055784
v 169.285965 226.765961 -29.055784
v 177.210617 0.000000 -29.055784
v 177.210617 226.765961 -29.055784
v -177.210617 216.093582 11.622238
v -169.285583 216.093582 11.622238
v 169.285965 216.093582 11.622238
v 177.210617 216.093582 11.622238
vt 0.221591 0.276607
vt 0.221591 0.276607
vt 0.221591 0.276607
vt 0.221591 0.276607
vt 0.221591 0.276607
vt 0.221591 0.276607
vt 0.221591 0.276607
vt 0.221591 0.276607
vt 0.221591 0.276607
vt 0.221591 0.276607
vt 0.221591 0.276607
vt 0.221591 0.276607
vt 0.221591 0.276607
vt 0.221591 0.276607
vt 0.221591 0.276607
vt 0.221591 0.276607
vt 0.221591 0.276607
vt 0.221591 0.276607
vt 0.221591 0.276607
vt 0.221591 0.276607
vt 0.221591 0.276607
vt 0.221591 0.276607
vt 0.221591 0.276607
vt 0.221591 0.276607
vt 0.221591 0.276607
vt 0.221591 0.276607
vt 0.221591 0.276607
vt 0.221591 0.276607
vt 0.221591 0.276607
vt 0.221591 0.276607
vt 0.221591 0.276607
vt 0.221591 0.276607
vt 0.221591 0.276607
vt 0.221591 0.276607
vt 0.221591 0.276607
vt 0.221591 0.276607
vt 0.221591 0.276607
vt 0.221591 0.276607
vt 0.210170 0.251457
vt 0.210170 0.251457
vt 0.210170 0.251457
vt 0.210170 0.251457
vt 0.210170 0.251456
vt 0.210170 0.251457
vt 0.210170 0.251457
vt 0.210170 0.251457
vt 0.210170 0.251457
vt 0.210170 0.251456
vt 0.210170 0.251456
vt 0.210170 0.251457
vt 0.210170 0.251457
vt 0.210170 0.251457
vt 0.210170 0.251457
vt 0.210170 0.251457
vt 0.210170 0.251457
vt 0.210170 0.251457
vt 0.210170 0.251457
vt 0.210170 0.251457
vt 0.210170 0.251457
vt 0.210170 0.251456
vt 0.210170 0.251457
vt 0.210170 0.251457
vt 0.210170 0.251457
vt 0.210170 0.251457
vt 0.210170 0.251456
vt 0.210170 0.251456
vt 0.210170 0.251457
vt 0.210170 0.251457
vt 0.210170 0.251457
vt 0.210170 0.251457
vt 0.210170 0.251457
vt 0.210170 0.251457
vt 0.210170 0.251456
vt 0.210170 0.251456
vn -0.021400 0.292218 0.956112
vn -0.021400 0.292218 0.956112
vn -0.021400 0.292218 0.956112
vn -0.021400 0.292218 0.956112
vn 0.000000 0.999632 0.027137
vn 0.000000 0.999632 0.027137
vn 0.000000 0.999632 0.027137
vn 0.000000 0.000000 -1.000000
vn 0.000000 0.000000 -1.000000
vn 0.000000 0.000000 -1.000000
vn 0.000000 0.000000 -1.000000
vn 0.000000 -1.000000 0.000000
vn 0.000000 -1.000000 0.000000
vn 0.000000 -1.000000 0.000000
vn 0.000000 -1.000000 0.000000
vn -0.053398 0.113142 0.992143
vn -0.053398 0.113142 0.992143
vn -0.053398 0.113142 0.992143
vn -0.053398 0.113142 0.992143
vn -0.009875 0.999665 0.023947
vn -0.009875 0.999664 0.023947
vn -0.009875 0.999664 0.023947
vn -0.009875 0.999665 0.023947
vn 0.000000 0.000000 -1.000000
vn 0.000000 0.000000 -1.000000
vn 0.000000 0.000000 -1.000000
vn 0.000000 0.000000 -1.000000
vn 0.000000 -1.000000 0.000000
vn 0.000000 -1.000000 0.000000
vn 0.000000 -1.000000 0.000000
vn 0.000000 -1.000000 0.000000
vn 0.011111 0.999651 0.023946
vn 0.011111 0.999652 0.023946
vn 0.011111 0.999651 0.023946
vn 0.011111 0.999651 0.023946
vn 0.060057 0.113099 0.991767
vn 0.060057 0.113099 0.991767
vn 0.060057 0.113099 0.991767
vn 0.060057 0.113099 0.991767
vn 0.000000 -1.000000 0.000000
vn 0.000000 -1.000000 0.000000
vn 0.000000 -1.000000 0.000000
vn 0.000000 -1.000000 0.000000
vn 0.000000 0.000000 -1.000000
vn 0.000000 0.000000 -1.000000
vn 0.000000 0.000000 -1.000000
vn 0.000000 0.000000 -1.000000
vn 0.000000 0.999001 0.044691
vn 0.000000 0.999001 0.044691
vn 0.000000 0.999001 0.044691
vn 0.021552 0.230214 0.972902
vn 0.021552 0.230214 0.972902
vn 0.021552 0.230214 0.972902
vn 0.000000 -1.000000 0.000000
vn 0.000000 -1.000000 0.000000
vn 0.000000 -1.000000 0.000000
vn 0.000000 -1.000000 0.000000
vn 0.000000 0.000000 -1.000000
vn 0.000000 0.000000 -1.000000
vn 0.000000 0.000000 -1.000000
vn 0.000000 0.000000 -1.000000
vn 0.080096 0.970199 0.228687
vn 0.080096 0.970200 0.228687
vn 0.080096 0.970200 0.228687
vn -0.069468 0.983079 0.169501
vn -0.069468 0.983079 0.169501
vn -0.069468 0.983079 0.169501
vn 0.008860 0.999961 -0.000001
vn 0.008860 0.999961 -0.000001
vn 0.008860 0.999961 -0.000001
vn 0.008860 0.999961 -0.000001
vn 0.003263 0.999176 0.040469
vn 0.003263 0.999176 0.040469
vn 0.003263 0.999175 0.040469
vn 0.003263 0.999176 0.040469
vn 0.021367 0.285980 0.957997
vn 0.021367 0.285980 0.957997
vn 0.021367 0.285980 0.957997
vn 0.021367 0.285980 0.957997
vn 0.034039 0.147553 0.988468
vn 0.034039 0.147553 0.988468
vn 0.034039 0.147553 0.988468
vn 0.034039 0.147553 0.988468
vn 0.144639 0.905627 0.398647
vn 0.144639 0.905627 0.398647
vn 0.144639 0.905627 0.398647
vn -0.031671 0.122931 0.991910
vn -0.031671 0.122931 0.991910
vn -0.031671 0.122931 0.991910
vn -0.031671 0.122931 0.991910
vn -0.020612 0.195464 0.980494
vn -0.020612 0.195464 0.980494
vn -0.020612 0.195464 0.980494
vn -0.148390 0.936890 0.316572
vn -0.148390 0.936890 0.316572
vn -0.148390 0.936890 0.316572
vn -0.006780 0.998968 0.044907
vn -0.006780 0.998968 0.044907
vn -0.006780 0.998968 0.044907
vn -0.006780 0.998968 0.044907
vn -0.008408 0.999965 -0.000001
vn -0.008408 0.999965 -0.000001
vn -0.008408 0.999965 -0.000001
vn -0.008408 0.999965 -0.000001
vn 0.000000 0.000000 1.000000
vn 0.000000 0.000000 1.000000
vn 0.000000 0.000000 1.000000
vn 0.000000 0.000000 1.000000
vn -1.000000 0.000000 0.000004
vn -1.000000 0.000000 0.000003
vn -1.000000 0.000000 0.000004
vn -1.000000 0.000000 0.000004
vn 0.000000 0.000000 -1.000000
vn 0.000000 0.000000 -1.000000
vn 0.000000 0.000000 -1.000000
vn 0.000000 0.000000 -1.000000
vn 1.000000 -0.000000 -0.000004
vn 1.000000 -0.000000 -0.000004
vn 1.000000 -0.000000 -0.000003
vn 1.000000 -0.000000 -0.000004
vn 0.000000 0.871774 0.489909
vn 0.000000 0.871774 0.489908
vn 0.000000 0.967264 0.253773
vn 0.000000 0.967264 0.253773
vn 0.000000 -1.000000 0.000000
vn 0.000000 -1.000000 0.000000
vn 0.000000 -1.000000 0.000000
vn 0.000000 -1.000000 0.000000
vn 0.000000 0.000000 1.000000
vn 0.000000 0.000000 1.000000
vn 0.000000 0.000000 1.000000
vn 0.000000 0.000000 1.000000
vn -1.000000 0.000000 0.000000
vn -1.000000 0.000000 0.000000
vn -1.000000 0.000000 0.000000
vn -1.000000 0.000000 0.000000
vn 0.000000 0.000000 -1.000000
vn 0.000000 0.000000 -1.000000
vn 0.000000 0.000000 -1.000000
vn 0.000000 0.000000 -1.000000
vn 1.000000 0.000000 0.000000
vn 1.000000 0.000000 0.000000
vn 1.000000 0.000000 0.000000
vn 1.000000 0.000000 0.000000
vn 0.000000 0.871774 0.489909
vn 0.000000 0.871774 0.489909
vn 0.000000 0.967264 0.253774
vn 0.000000 0.967264 0.253774
vn 0.000000 -1.000000 0.000000
vn 0.000000 -1.000000 0.000000
vn 0.000000 -1.000000 0.000000
vn 0.000000 -1.000000 0.000000
vn -1.000000 0.000000 0.000004
vn -1.000000 -0.000001 -0.000013
vn -1.000000 0.000000 0.000003
vn 0.000000 0.621342 0.783539
vn 0.000000 0.871774 0.489908
vn 0.000000 0.871774 0.489909
vn 0.000000 0.621342 0.783539
vn 1.000000 -0.000000 -0.000004
vn 1.000000 -0.000000 -0.000003
vn 1.000000 0.000001 0.000012
vn -1.000000 0.000000 0.000000
vn -1.000000 0.000000 0.000000
vn -1.000000 0.000000 0.000000
vn 0.000000 0.621343 0.783539
vn 0.000000 0.871774 0.489909
vn 0.000000 0.871774 0.489909
vn 0.000000 0.621343 0.783539
vn 1.000000 0.000000 0.000000
vn 1.000000 0.000000 0.000000
vn 1.000000 0.000000 0.000000
s off
f 18/22/1 19/23/2 32/38/3 29/35/4
f 17/21/5 31/37/6 6/6/7
f 20/25/8 17/21/9 6/6/10 8/8/11
f 19/24/12 20/25/13 8/8/14 2/10/15
f 22/27/16 23/28/17 10/12/18 12/13/19
f 21/26/20 22/27/21 12/13/22 14/15/23
f 24/30/24 21/26/25 14/15/26 16/17/27
f 23/29/28 24/30/29 16/17/30 10/19/31
f 3/3/32 18/22/33 17/21/34 5/5/35
f 1/1/36 19/23/37 18/22/38 3/3/39
f 7/7/40 20/25/41 19/24/42 1/9/43
f 5/5/44 17/21/45 20/25/46 7/7/47
f 13/16/48 27/33/49 21/26/50
f 9/11/51 23/28/52 28/34/53
f 15/18/54 24/30/55 23/29/56 9/20/57
f 13/16/58 21/26/59 24/30/60 15/18/61
f 28/34/62 27/33/63 25/31/64
f 26/32/65 27/33/66 28/34/67
f 11/14/68 25/31/69 27/33/70 13/16/71
f 21/26/72 27/33/73 26/32/74 22/27/75
f 28/34/76 23/28/77 22/27/78 26/32/79
f 9/11/80 28/34/81 25/31/82 11/14/83
f 29/35/84 32/38/85 31/37/86
f 32/38/87 2/2/88 4/4/89 30/36/90
f 32/38/91 19/23/92 2/2/93
f 31/37/94 32/38/95 30/36/96
f 17/21/97 18/22/98 29/35/99 31/37/100
f 6/6/101 31/37/102 30/36/103 4/4/104
f 33/39/105 34/40/106 36/41/107 35/42/108
f 35/42/109 49/43/110 38/44/111 37/45/112
f 37/45/113 38/44/114 40/46/115 39/47/116
f 39/47/117 40/46/118 50/48/119 33/49/120
f 49/50/121 50/51/122 40/52/123 38/53/124
f 39/54/125 33/39/126 35/42/127 37/55/128
f 41/56/129 42/57/130 44/58/131 43/59/132
f 43/59/133 51/60/134 46/61/135 45/62/136
f 45/62/137 46/61/138 48/63/139 47/64/140
f 47/64/141 48/63/142 52/65/143 41/66/144
f 51/67/145 52/68/146 48/69/147 46/70/148
f 47/71/149 41/56/150 43/59/151 45/72/152
f 35/42/153 36/41/154 49/43/155
f 34/40/156 50/51/157 49/50/158 36/41/159
f 33/49/160 50/48/161 34/73/162
f 43/59/163 44/58/164 51/60/165
f 42/57/166 52/68/167 51/67/168 44/58/169
f 41/66/170 52/65/171 42/74/172
