# This file uses centimeters as units for non-parametric coordinates.

v 4.653549 1.566941 8.514214
v -5.743599 1.582414 8.638668
v 4.652786 0.590390 8.509445
v -5.744743 0.605863 8.633518
v 4.484177 0.667375 -5.568409
v -5.913353 0.682849 -5.443954
v 4.485321 1.643926 -5.563450
v -5.912209 1.659399 -5.439186
v 3.738976 1.563150 9.471512
v -4.806137 1.575857 9.573936
v -4.808044 0.599307 9.569168
v 3.737831 0.586587 9.466934
v 3.546715 0.673926 -6.503487
v -4.998779 0.686640 -6.401157
v -4.997635 1.663202 -6.396198
v 3.548241 1.650482 -6.498528
v 5.791473 3.577799 5.602074
v -4.605293 3.593272 5.440140
v 5.790329 2.601248 5.597115
v -4.606628 2.616721 5.434990
v 6.009674 2.678233 -8.479881
v -4.386902 2.693707 -8.641815
v 6.010818 3.654784 -8.474731
v -4.385757 3.670257 -8.637047
v 4.851151 3.574008 6.533909
v -3.693962 3.586715 6.400871
v -3.695107 2.610165 6.395721
v 4.850006 2.597445 6.529140
v 5.098534 2.684784 -9.440422
v -3.446198 2.697498 -9.573936
v -3.445053 3.674060 -9.568787
v 5.099678 3.661340 -9.435463
v 6.249046 4.690075 6.886005
v -4.564857 4.690075 8.129787
v 6.249046 0.000000 6.886005
v -4.564857 0.000000 8.129787
v 4.565048 0.000000 -7.756233
v -6.249046 0.000000 -6.512260
v 4.565048 4.690075 -7.756233
v -6.249046 4.690075 -6.512260
v 5.399513 4.690075 7.981014
v -3.488541 4.690075 9.003448
v -3.488541 0.000000 9.003448
v 5.399513 0.000000 7.981014
v 3.488922 0.000000 -8.629322
v -5.399323 0.000000 -7.606983
v -5.399323 4.690075 -7.606983
v 3.488922 4.690075 -8.629322
v 4.477882 2.814054 -7.603931
v 6.129456 2.814054 6.757545
v 5.296326 2.814054 7.831860
v -3.421974 2.814054 8.834743
v -4.477501 2.814054 7.977676
v -6.129646 2.814054 -6.383896
v -5.296135 2.814054 -7.457829
v 3.422165 2.814054 -8.460617
v 5.101395 2.814054 -0.399971
v 5.200958 4.690075 -0.411415
v -5.200768 4.690075 0.784969
v -5.101204 2.814054 0.773525
v -5.200768 0.000000 0.784969
v 5.200958 0.000000 -0.411415
vt 0.053140 0.046874
vt 0.053140 0.046874
vt 0.053140 0.046874
vt 0.053140 0.046874
vt 0.035070 0.025453
vt 0.068560 0.025453
vt 0.068560 0.067669
vt 0.035070 0.067669
vt 0.053140 0.046874
vt 0.053140 0.046874
vt 0.053140 0.046874
vt 0.053140 0.046874
vt 0.146681 0.447385
vt 0.146681 0.447385
vt 0.146681 0.447385
vt 0.146681 0.447385
vt 0.053140 0.046874
vt 0.053140 0.046874
vt 0.053140 0.046874
vt 0.053140 0.046874
vt 0.053140 0.046874
vt 0.053140 0.046874
vt 0.053140 0.046874
vt 0.053140 0.046874
vt 0.146681 0.447385
vt 0.146681 0.447385
vt 0.146681 0.447385
vt 0.146681 0.447385
vt 0.038051 0.022581
vt 0.065579 0.022581
vt 0.065579 0.070540
vt 0.038051 0.070540
vt 0.146681 0.447385
vt 0.146681 0.447385
vt 0.053140 0.046874
vt 0.053140 0.046874
vt 0.053140 0.046874
vt 0.053140 0.046874
vt 0.035070 0.025453
vt 0.068560 0.025453
vt 0.068560 0.067669
vt 0.035070 0.067669
vt 0.053140 0.046874
vt 0.053140 0.046874
vt 0.053140 0.046874
vt 0.053140 0.046874
vt 0.146681 0.447385
vt 0.146681 0.447385
vt 0.146681 0.447385
vt 0.146681 0.447385
vt 0.053140 0.046874
vt 0.053140 0.046874
vt 0.053140 0.046874
vt 0.053140 0.046874
vt 0.053140 0.046874
vt 0.053140 0.046874
vt 0.053140 0.046874
vt 0.053140 0.046874
vt 0.146681 0.447385
vt 0.146681 0.447385
vt 0.146681 0.447385
vt 0.146681 0.447385
vt 0.038051 0.022581
vt 0.065579 0.022581
vt 0.065579 0.070540
vt 0.038051 0.070540
vt 0.146681 0.447385
vt 0.146681 0.447385
vt 0.018333 0.046874
vt 0.018333 0.046874
vt 0.018333 0.046874
vt 0.018333 0.046874
vt 0.000264 0.025453
vt 0.033753 0.025453
vt 0.033753 0.046561
vt 0.000264 0.046561
vt 0.018333 0.046874
vt 0.018333 0.046874
vt 0.018333 0.046874
vt 0.018333 0.046874
vt 0.146681 0.447385
vt 0.146681 0.447385
vt 0.146681 0.447385
vt 0.146681 0.447385
vt 0.018333 0.046874
vt 0.018333 0.046874
vt 0.018333 0.046874
vt 0.018333 0.046874
vt 0.018333 0.046874
vt 0.018333 0.046874
vt 0.018333 0.046874
vt 0.018333 0.046874
vt 0.146681 0.447385
vt 0.146681 0.447385
vt 0.146681 0.447385
vt 0.146681 0.447385
vt 0.003245 0.022581
vt 0.030772 0.022581
vt 0.000264 0.067669
vt 0.033753 0.067669
vt 0.030772 0.070540
vt 0.003245 0.070540
vt 0.018333 0.046874
vt 0.018333 0.046874
vt 0.146681 0.447385
vt 0.146681 0.447385
vt 0.146681 0.447385
vt 0.146681 0.447385
vt 0.018333 0.046874
vt 0.018333 0.046874
vt 0.018333 0.046874
vt 0.018333 0.046874
vt 0.018333 0.046874
vt 0.018333 0.046874
vt 0.018333 0.046874
vt 0.018333 0.046874
vt 0.018333 0.046874
vt 0.018333 0.046874
vt 0.018333 0.046874
vt 0.018333 0.046874
vn 0.011967 -0.004803 0.999917
vn 0.011967 -0.004803 0.999917
vn 0.011967 -0.004803 0.999917
vn 0.011967 -0.004803 0.999917
vn -0.001553 -0.999984 -0.005450
vn -0.001553 -0.999984 -0.005450
vn -0.001553 -0.999984 -0.005450
vn -0.001553 -0.999984 -0.005450
vn -0.011966 0.005094 -0.999915
vn -0.011966 0.005094 -0.999915
vn -0.011966 0.005094 -0.999915
vn -0.011966 0.005094 -0.999915
vn 0.001553 0.999984 0.005450
vn 0.001553 0.999984 0.005450
vn 0.001553 0.999984 0.005450
vn 0.001553 0.999984 0.005450
vn -0.999928 0.001111 0.011982
vn -0.999928 0.001111 0.011982
vn -0.999928 0.001111 0.011982
vn -0.999928 0.001111 0.011982
vn 0.999928 -0.000917 -0.011968
vn 0.999928 -0.000917 -0.011968
vn 0.999928 -0.000917 -0.011968
vn 0.999928 -0.000917 -0.011968
vn 0.001553 0.999984 0.005448
vn 0.001553 0.999984 0.005448
vn 0.001553 0.999984 0.005448
vn 0.001553 0.999984 0.005448
vn -0.706501 -0.002490 0.707708
vn -0.706501 -0.002490 0.707708
vn -0.706501 -0.002490 0.707708
vn -0.706501 -0.002490 0.707708
vn -0.001553 -0.999984 -0.005454
vn -0.001553 -0.999984 -0.005454
vn -0.001553 -0.999984 -0.005454
vn -0.001553 -0.999984 -0.005454
vn 0.723022 -0.004012 0.690813
vn 0.723022 -0.004012 0.690813
vn 0.723022 -0.004012 0.690813
vn 0.723022 -0.004012 0.690813
vn -0.001553 -0.999984 -0.005446
vn -0.001553 -0.999984 -0.005446
vn -0.001553 -0.999984 -0.005446
vn -0.001553 -0.999984 -0.005446
vn -0.722991 0.004288 -0.690844
vn -0.722991 0.004288 -0.690844
vn -0.722991 0.004288 -0.690844
vn -0.722991 0.004288 -0.690844
vn 0.001554 0.999984 0.005457
vn 0.001554 0.999984 0.005457
vn 0.001554 0.999984 0.005457
vn 0.001554 0.999984 0.005457
vn 0.706285 0.002629 -0.707923
vn 0.706285 0.002629 -0.707923
vn 0.706285 0.002629 -0.707923
vn 0.706285 0.002629 -0.707923
vn -0.015597 -0.005059 0.999866
vn -0.015597 -0.005059 0.999866
vn -0.015597 -0.005059 0.999866
vn -0.015597 -0.005059 0.999866
vn -0.001403 -0.999984 -0.005491
vn -0.001403 -0.999984 -0.005491
vn -0.001403 -0.999984 -0.005491
vn -0.001403 -0.999984 -0.005491
vn 0.015620 0.005157 -0.999865
vn 0.015620 0.005157 -0.999865
vn 0.015620 0.005157 -0.999865
vn 0.015620 0.005157 -0.999865
vn 0.001403 0.999984 0.005491
vn 0.001403 0.999984 0.005491
vn 0.001403 0.999984 0.005491
vn 0.001403 0.999984 0.005491
vn -0.999878 0.001349 -0.015593
vn -0.999878 0.001349 -0.015593
vn -0.999878 0.001349 -0.015593
vn -0.999878 0.001349 -0.015593
vn 0.999878 -0.001252 0.015573
vn 0.999878 -0.001252 0.015573
vn 0.999878 -0.001252 0.015573
vn 0.999878 -0.001252 0.015573
vn 0.001402 0.999984 0.005489
vn 0.001402 0.999984 0.005489
vn 0.001402 0.999984 0.005489
vn 0.001402 0.999984 0.005489
vn -0.725484 -0.002708 0.688234
vn -0.725484 -0.002708 0.688234
vn -0.725484 -0.002708 0.688234
vn -0.725484 -0.002708 0.688234
vn -0.001403 -0.999984 -0.005494
vn -0.001403 -0.999984 -0.005494
vn -0.001403 -0.999984 -0.005494
vn -0.001403 -0.999984 -0.005494
vn 0.703932 -0.004362 0.710254
vn 0.703932 -0.004362 0.710254
vn 0.703932 -0.004362 0.710254
vn 0.703932 -0.004362 0.710254
vn -0.001403 -0.999984 -0.005486
vn -0.001403 -0.999984 -0.005486
vn -0.001403 -0.999984 -0.005486
vn -0.001403 -0.999984 -0.005486
vn -0.703788 0.004432 -0.710396
vn -0.703788 0.004432 -0.710396
vn -0.703788 0.004432 -0.710396
vn -0.703788 0.004432 -0.710396
vn 0.001403 0.999984 0.005496
vn 0.001403 0.999984 0.005496
vn 0.001403 0.999984 0.005496
vn 0.001403 0.999984 0.005496
vn 0.725558 0.002712 -0.688156
vn 0.725558 0.002712 -0.688156
vn 0.725558 0.002712 -0.688156
vn 0.725558 0.002712 -0.688156
vn 0.114096 0.056759 0.991847
vn 0.114096 0.056759 0.991847
vn 0.114096 0.056759 0.991847
vn 0.114096 0.056759 0.991847
vn 0.000000 -1.000000 0.000000
vn 0.000000 -1.000000 0.000000
vn 0.000000 -1.000000 0.000000
vn 0.000000 -1.000000 0.000000
vn -0.114084 0.056755 -0.991849
vn -0.114084 0.056755 -0.991849
vn -0.114084 0.056755 -0.991849
vn -0.114084 0.056755 -0.991849
vn 0.000000 1.000000 0.000000
vn 0.000000 1.000000 0.000000
vn 0.000000 1.000000 0.000000
vn 0.000000 1.000000 0.000000
vn -0.995643 0.035572 0.086200
vn -0.995643 0.035572 0.086200
vn -0.995643 0.035572 0.086200
vn -0.995643 0.035572 0.086200
vn 0.989216 0.035565 -0.142080
vn 0.989216 0.035565 -0.142080
vn 0.989216 0.035565 -0.142080
vn 0.989216 0.035565 -0.142080
vn 0.000000 1.000000 -0.000000
vn 0.000000 1.000000 -0.000000
vn 0.000000 1.000000 -0.000000
vn 0.000000 1.000000 -0.000000
vn -0.629098 0.061376 0.774899
vn -0.629098 0.061376 0.774899
vn -0.629098 0.061376 0.774899
vn -0.629098 0.061376 0.774899
vn 0.000000 -1.000000 0.000000
vn 0.000000 -1.000000 0.000000
vn 0.000000 -1.000000 0.000000
vn 0.000000 -1.000000 0.000000
vn 0.788671 0.061393 0.611743
vn 0.788671 0.061393 0.611743
vn 0.788671 0.061393 0.611743
vn 0.788671 0.061393 0.611743
vn 0.000000 -1.000000 0.000000
vn 0.000000 -1.000000 0.000000
vn 0.000000 -1.000000 0.000000
vn 0.000000 -1.000000 0.000000
vn -0.788481 0.061361 -0.611991
vn -0.788481 0.061361 -0.611991
vn -0.788481 0.061361 -0.611991
vn -0.788481 0.061361 -0.611991
vn 0.000000 1.000000 0.000000
vn 0.000000 1.000000 0.000000
vn 0.000000 1.000000 0.000000
vn 0.000000 1.000000 0.000000
vn 0.628888 0.061406 -0.775067
vn 0.628888 0.061406 -0.775067
vn 0.628888 0.061406 -0.775067
vn 0.628888 0.061406 -0.775067
vn 0.988435 -0.053306 -0.141968
vn 0.988435 -0.053306 -0.141968
vn 0.988435 -0.053306 -0.141968
vn 0.988435 -0.053306 -0.141968
vn 0.786819 -0.091874 0.610307
vn 0.786820 -0.091874 0.610307
vn 0.786819 -0.091874 0.610307
vn 0.786820 -0.091874 0.610307
vn 0.113867 -0.084968 0.989856
vn 0.113867 -0.084968 0.989856
vn 0.113867 -0.084968 0.989856
vn 0.113867 -0.084968 0.989856
vn -0.627622 -0.091849 0.773081
vn -0.627622 -0.091849 0.773081
vn -0.627622 -0.091849 0.773081
vn -0.627622 -0.091849 0.773081
vn -0.994856 -0.053316 0.086132
vn -0.994856 -0.053316 0.086132
vn -0.994856 -0.053316 0.086132
vn -0.994856 -0.053316 0.086132
vn -0.786631 -0.091826 -0.610556
vn -0.786631 -0.091826 -0.610556
vn -0.786631 -0.091826 -0.610556
vn -0.786631 -0.091826 -0.610556
vn -0.113855 -0.084963 -0.989858
vn -0.113855 -0.084963 -0.989858
vn -0.113855 -0.084963 -0.989858
vn -0.113855 -0.084963 -0.989858
vn 0.627411 -0.091894 -0.773247
vn 0.627411 -0.091894 -0.773247
vn 0.627411 -0.091894 -0.773247
vn 0.627411 -0.091894 -0.773247
vn 0.994860 -0.053270 -0.086121
vn 0.994860 -0.053270 -0.086121
vn 0.994860 -0.053270 -0.086121
vn 0.994860 -0.053270 -0.086121
vn 0.000000 1.000000 -0.000000
vn 0.000000 1.000000 -0.000000
vn 0.000000 1.000000 -0.000000
vn 0.000000 1.000000 -0.000000
vn -0.988432 -0.053258 0.142009
vn -0.988432 -0.053258 0.142009
vn -0.988432 -0.053258 0.142009
vn -0.988432 -0.053258 0.142009
vn -0.989211 0.035533 0.142121
vn -0.989211 0.035533 0.142121
vn -0.989211 0.035533 0.142121
vn -0.989211 0.035533 0.142121
vn 0.000000 -1.000000 0.000000
vn 0.000000 -1.000000 0.000000
vn 0.000000 -1.000000 0.000000
vn 0.000000 -1.000000 0.000000
vn 0.995645 0.035541 -0.086188
vn 0.995645 0.035541 -0.086188
vn 0.995645 0.035541 -0.086188
vn 0.995645 0.035541 -0.086188
s off
f 9/1/1 10/2/2 11/3/3 12/4/4
f 3/5/5 4/6/6 6/7/7 5/8/8
f 13/9/9 14/10/10 15/11/11 16/12/12
f 7/13/13 8/14/14 2/15/15 1/16/16
f 2/17/17 8/18/18 6/19/19 4/20/20
f 7/21/21 1/22/22 3/23/23 5/24/24
f 1/25/25 2/26/26 10/27/27 9/28/28
f 2/17/29 4/20/30 11/3/31 10/2/32
f 4/6/33 3/5/34 12/29/35 11/30/36
f 3/23/37 1/22/38 9/1/39 12/4/40
f 5/8/41 6/7/42 14/31/43 13/32/44
f 6/19/45 8/18/46 15/11/47 14/10/48
f 8/14/49 7/13/50 16/33/51 15/34/52
f 7/21/53 5/24/54 13/9/55 16/12/56
f 25/35/57 26/36/58 27/37/59 28/38/60
f 19/39/61 20/40/62 22/41/63 21/42/64
f 29/43/65 30/44/66 31/45/67 32/46/68
f 23/47/69 24/48/70 18/49/71 17/50/72
f 18/51/73 24/52/74 22/53/75 20/54/76
f 23/55/77 17/56/78 19/57/79 21/58/80
f 17/59/81 18/60/82 26/61/83 25/62/84
f 18/51/85 20/54/86 27/37/87 26/36/88
f 20/40/89 19/39/90 28/63/91 27/64/92
f 19/57/93 17/56/94 25/35/95 28/38/96
f 21/42/97 22/41/98 30/65/99 29/66/100
f 22/53/101 24/52/102 31/45/103 30/44/104
f 24/48/105 23/47/106 32/67/107 31/68/108
f 23/55/109 21/58/110 29/43/111 32/46/112
f 51/69/113 52/70/114 43/71/115 44/72/116
f 35/73/117 36/74/118 61/75/119 62/76/120
f 45/77/121 46/78/122 55/79/123 56/80/124
f 58/81/125 59/82/126 34/83/127 33/84/128
f 53/85/129 60/86/130 61/87/131 36/88/132
f 62/89/133 57/90/134 50/91/135 35/92/136
f 33/93/137 34/94/138 42/95/139 41/96/140
f 52/70/141 53/85/142 36/88/143 43/71/144
f 36/74/145 35/73/146 44/97/147 43/98/148
f 35/92/149 50/91/150 51/69/151 44/72/152
f 37/99/153 38/100/154 46/101/155 45/102/156
f 38/103/157 54/104/158 55/79/159 46/78/160
f 40/105/161 39/106/162 48/107/163 47/108/164
f 56/80/165 49/109/166 37/110/167 45/77/168
f 57/90/169 58/111/170 33/112/171 50/91/172
f 51/69/173 50/91/174 33/112/175 41/113/176
f 41/113/177 42/114/178 52/70/179 51/69/180
f 34/115/181 53/85/182 52/70/183 42/114/184
f 34/115/185 59/116/186 60/86/187 53/85/188
f 55/79/189 54/104/190 40/117/191 47/118/192
f 56/80/193 55/79/194 47/118/195 48/119/196
f 39/120/197 49/109/198 56/80/199 48/119/200
f 39/120/201 58/111/202 57/90/203 49/109/204
f 39/106/205 40/105/206 59/82/207 58/81/208
f 60/86/209 59/116/210 40/117/211 54/104/212
f 61/87/213 60/86/214 54/104/215 38/103/216
f 62/76/217 61/75/218 38/100/219 37/99/220
f 49/109/221 57/90/222 62/89/223 37/110/224
