# This file uses centimeters as units for non-parametric coordinates.

v -12.266678 79.515442 2.105621
v -13.706970 76.835411 3.013458
v -11.501633 76.410477 5.257782
v -10.061356 79.090508 4.349945
v -31.129929 98.513733 17.559631
v -31.809616 97.249023 17.988052
v -30.768906 97.048500 19.047150
v -30.089233 98.313210 18.618744
v -2.679474 0.000000 2.567780
v 2.751419 0.000000 2.567780
v -2.679474 35.121979 2.567780
v 2.751419 35.121979 2.567780
v -2.679474 35.121979 -2.863129
v 2.751419 35.121979 -2.863129
v -2.679474 0.000000 -2.863129
v 2.751419 0.000000 -2.863129
v -13.873566 77.927170 5.479599
v -10.114410 77.927170 5.479599
v -10.114410 77.927170 1.720444
v -13.873566 77.927170 1.720444
v -2.888718 118.223877 1.731903
v 0.870453 118.223877 1.731903
v 0.870453 118.223877 -2.027252
v -2.888718 118.223877 -2.027252
v -6.165833 151.342880 5.914444
v -4.391876 151.342880 5.914444
v -4.391876 151.342880 4.140503
v -6.165833 151.342880 4.140503
v 0.107269 37.439415 0.749237
v 2.079330 34.239517 0.694199
v 0.245255 33.162502 -2.405380
v -1.726822 36.362400 -2.350342
v 26.041306 57.949074 -14.944305
v 26.971909 56.439034 -14.970276
v 26.106400 55.930786 -16.432968
v 25.175797 57.440826 -16.406998
v -2.081924 120.129997 0.229279
v 0.188126 118.843857 1.180267
v -0.374252 116.656517 -0.435547
v -2.644287 117.942657 -1.386536
v 10.901474 135.423279 -17.896088
v 11.972702 134.816345 -17.447327
v 11.707321 133.784134 -18.209824
v 10.636093 134.391068 -18.658600
vt 0.199650 0.326130
vt 0.199650 0.326130
vt 0.199650 0.326130
vt 0.199650 0.326130
vt 0.199650 0.326130
vt 0.199650 0.326130
vt 0.199650 0.326130
vt 0.199650 0.326130
vt 0.199650 0.326130
vt 0.199650 0.326130
vt 0.199650 0.326130
vt 0.199650 0.326130
vt 0.199650 0.326130
vt 0.199650 0.326130
vt 0.199650 0.326130
vt 0.199650 0.326130
vt 0.199650 0.326130
vt 0.199650 0.326130
vt 0.199650 0.326130
vt 0.199650 0.326130
vt 0.199650 0.326129
vt 0.199650 0.326129
vt 0.199650 0.326130
vt 0.199650 0.326130
vt 0.199650 0.326130
vt 0.199650 0.326130
vt 0.199650 0.326130
vt 0.199650 0.326130
vt 0.199650 0.326130
vt 0.199650 0.326130
vt 0.199650 0.326130
vt 0.199650 0.326130
vt 0.199650 0.326130
vt 0.199650 0.326130
vt 0.199650 0.326130
vt 0.199650 0.326130
vt 0.199650 0.326130
vt 0.199650 0.326130
vt 0.199650 0.326130
vt 0.199650 0.326130
vt 0.199650 0.326130
vt 0.199650 0.326130
vt 0.199650 0.326130
vt 0.199650 0.326130
vt 0.199650 0.326130
vt 0.199650 0.326130
vt 0.199650 0.326130
vt 0.199650 0.326130
vt 0.199650 0.326130
vt 0.199650 0.326130
vn -0.558381 0.519249 0.646986
vn -0.558382 0.519249 0.646986
vn -0.558381 0.519249 0.646986
vn -0.558381 0.519249 0.646986
vn -0.600656 0.052561 -0.797778
vn -0.600656 0.052561 -0.797778
vn -0.600656 0.052561 -0.797778
vn -0.600656 0.052561 -0.797778
vn -0.534197 -0.754052 0.382150
vn -0.534197 -0.754052 0.382150
vn -0.534197 -0.754052 0.382150
vn -0.534197 -0.754052 0.382150
vn 0.564684 -0.024021 0.824958
vn 0.564684 -0.024021 0.824958
vn 0.564684 -0.024021 0.824958
vn 0.564684 -0.024021 0.824958
vn 0.507282 0.787815 -0.349303
vn 0.507282 0.787815 -0.349303
vn 0.507282 0.787815 -0.349303
vn 0.507282 0.787815 -0.349303
vn 0.000000 0.000000 1.000000
vn 0.000000 0.000000 1.000000
vn 0.000000 0.000000 1.000000
vn 0.000000 0.000000 1.000000
vn 0.000000 1.000000 0.000000
vn 0.000000 1.000000 0.000000
vn 0.000000 1.000000 0.000000
vn 0.000000 1.000000 0.000000
vn 0.000000 0.000000 -1.000000
vn 0.000000 0.000000 -1.000000
vn 0.000000 0.000000 -1.000000
vn 0.000000 0.000000 -1.000000
vn 0.000000 -1.000000 0.000000
vn 0.000000 -1.000000 0.000000
vn 0.000000 -1.000000 0.000000
vn 0.000000 -1.000000 0.000000
vn 1.000000 0.000000 0.000000
vn 1.000000 0.000000 0.000000
vn 1.000000 0.000000 0.000000
vn 1.000000 0.000000 0.000000
vn -1.000000 0.000000 0.000000
vn -1.000000 0.000000 0.000000
vn -1.000000 0.000000 0.000000
vn -1.000000 0.000000 0.000000
vn 0.000000 -0.067868 0.997694
vn 0.000000 -0.067868 0.997694
vn 0.000000 -0.067868 0.997694
vn 0.000000 -0.067868 0.997694
vn 0.957677 0.287846 0.000000
vn 0.957677 0.287846 0.000000
vn 0.957677 0.287846 0.000000
vn 0.957677 0.287846 0.000000
vn 0.000000 0.106471 -0.994316
vn 0.000000 0.106471 -0.994316
vn 0.000000 0.106471 -0.994316
vn 0.000000 0.106471 -0.994316
vn -0.967465 -0.253004 0.000000
vn -0.967465 -0.253004 0.000000
vn -0.967465 -0.253004 0.000000
vn -0.967465 -0.253004 0.000000
vn 0.000000 0.092603 0.995703
vn 0.000000 0.092603 0.995703
vn 0.000000 0.092603 0.995703
vn 0.000000 0.092603 0.995703
vn 0.964795 -0.263003 0.000000
vn 0.964795 -0.263003 0.000000
vn 0.964795 -0.263003 0.000000
vn 0.964795 -0.263003 0.000000
vn 0.000000 -0.092603 -0.995703
vn 0.000000 -0.092603 -0.995703
vn 0.000000 -0.092603 -0.995703
vn 0.000000 -0.092603 -0.995703
vn -0.964795 0.263002 0.000000
vn -0.964795 0.263002 0.000000
vn -0.964795 0.263002 0.000000
vn -0.964795 0.263002 0.000000
vn 0.000000 -0.125293 0.992120
vn 0.000000 -0.125293 0.992120
vn 0.000000 -0.125293 0.992120
vn 0.000000 -0.125293 0.992120
vn 0.987611 0.156923 0.000000
vn 0.987611 0.156923 0.000000
vn 0.987611 0.156923 0.000000
vn 0.987611 0.156923 0.000000
vn 0.000000 0.183082 -0.983098
vn 0.000000 0.183082 -0.983098
vn 0.000000 0.183082 -0.983098
vn 0.000000 0.183082 -0.983098
vn -0.995140 -0.098469 0.000000
vn -0.995140 -0.098469 0.000000
vn -0.995140 -0.098469 0.000000
vn -0.995140 -0.098469 0.000000
vn 0.697678 0.439690 -0.565613
vn 0.697678 0.439690 -0.565613
vn 0.697678 0.439690 -0.565613
vn 0.697678 0.439690 -0.565613
vn 0.375047 0.215629 0.901579
vn 0.375047 0.215629 0.901579
vn 0.375047 0.215629 0.901579
vn 0.375047 0.215629 0.901579
vn 0.625779 -0.773360 -0.101565
vn 0.625779 -0.773360 -0.101565
vn 0.625779 -0.773360 -0.101565
vn 0.625779 -0.773360 -0.101565
vn -0.333745 -0.189802 -0.923358
vn -0.333745 -0.189802 -0.923358
vn -0.333745 -0.189802 -0.923358
vn -0.333745 -0.189802 -0.923358
vn -0.591854 0.802892 0.071230
vn -0.591854 0.802892 0.071230
vn -0.591854 0.802892 0.071230
vn -0.591854 0.802892 0.071230
vn 0.539230 0.406293 -0.737670
vn 0.539230 0.406293 -0.737670
vn 0.539230 0.406293 -0.737670
vn 0.539230 0.406293 -0.737670
vn 0.117361 0.715985 0.688180
vn 0.117361 0.715985 0.688180
vn 0.117361 0.715985 0.688180
vn 0.117361 0.715985 0.688180
vn 0.890736 -0.395053 0.224773
vn 0.890736 -0.395053 0.224773
vn 0.890736 -0.395053 0.224773
vn 0.890736 -0.395053 0.224773
vn -0.087112 -0.687103 -0.721319
vn -0.087112 -0.687103 -0.721319
vn -0.087112 -0.687103 -0.721319
vn -0.087112 -0.687103 -0.721319
vn -0.867357 0.420108 -0.266834
vn -0.867357 0.420108 -0.266834
vn -0.867357 0.420108 -0.266834
vn -0.867357 0.420108 -0.266834
s off
f 5/5/1 6/6/2 7/7/3 8/8/4
f 1/1/5 2/2/6 6/6/7 5/5/8
f 2/2/9 3/3/10 7/7/11 6/6/12
f 3/3/13 4/4/14 8/8/15 7/7/16
f 4/4/17 1/1/18 5/5/19 8/8/20
f 9/9/21 10/10/22 12/11/23 11/12/24
f 25/13/25 26/14/26 27/15/27 28/16/28
f 13/17/29 14/18/30 16/19/31 15/20/32
f 15/20/33 16/19/34 10/21/35 9/22/36
f 10/10/37 16/23/38 14/24/39 12/11/40
f 15/25/41 9/9/42 11/12/43 13/26/44
f 11/12/45 12/11/46 18/27/47 17/28/48
f 12/11/49 14/18/50 19/29/51 18/27/52
f 14/18/53 13/17/54 20/30/55 19/29/56
f 13/17/57 11/12/58 17/28/59 20/30/60
f 17/28/61 18/27/62 22/31/63 21/32/64
f 18/27/65 19/29/66 23/33/67 22/31/68
f 19/29/69 20/30/70 24/34/71 23/33/72
f 20/30/73 17/28/74 21/32/75 24/34/76
f 21/32/77 22/31/78 26/14/79 25/13/80
f 22/31/81 23/33/82 27/15/83 26/14/84
f 23/33/85 24/34/86 28/16/87 27/15/88
f 24/34/89 21/32/90 25/13/91 28/16/92
f 33/35/93 34/36/94 35/37/95 36/38/96
f 29/39/97 30/40/98 34/36/99 33/35/100
f 30/40/101 31/41/102 35/37/103 34/36/104
f 31/41/105 32/42/106 36/38/107 35/37/108
f 32/42/109 29/39/110 33/35/111 36/38/112
f 41/43/113 42/44/114 43/45/115 44/46/116
f 37/47/117 38/48/118 42/44/119 41/43/120
f 38/48/121 39/49/122 43/45/123 42/44/124
f 39/49/125 40/50/126 44/46/127 43/45/128
f 40/50/129 37/47/130 41/43/131 44/46/132
