# This file uses centimeters as units for non-parametric coordinates.

v -3.723145 0.000000 7.344723
v 7.344818 0.000000 4.105091
v -7.344818 0.000000 -3.509140
v 3.722763 0.000000 -7.344722
v -6.793213 19.574497 -3.362083
v -3.143692 19.574497 6.723499
v 6.793213 19.574497 3.347015
v 3.143692 19.574497 -6.723499
v 1.811981 22.001387 1.812363
v -1.812744 22.001387 1.812363
v -1.812744 22.001387 -1.812172
v 1.811981 22.001387 -1.812172
v 0.000000 22.001387 2.664375
v 0.000000 22.001387 -2.664280
v -2.664948 22.001387 0.000000
v 0.000000 0.000000 0.000000
v 2.664185 22.001387 0.000000
v 3.143692 19.574497 6.723499
v 3.722763 0.000000 7.344723
v -6.793213 19.574497 3.347015
v -7.344818 0.000000 3.477192
v -3.143692 19.574497 -6.723499
v -3.723145 0.000000 -7.344722
v 6.793213 19.574497 -3.362083
v 7.344818 0.000000 -4.128456
v 0.000000 25.786400 -2.126980
v 1.446533 25.786400 -1.446629
v 2.126694 25.786400 0.000000
v 1.446533 25.786400 1.446819
v 0.000000 25.786400 2.127075
v -1.447296 25.786400 1.446819
v -2.127075 25.786400 0.000000
v -1.447296 25.786400 -1.446629
v 2.636337 28.624987 0.000000
v 0.000000 28.624987 0.000000
v 0.000000 28.624987 2.636719
v 1.793671 28.624987 1.793480
v -1.794434 28.624987 1.793480
v -2.637100 28.624987 0.000000
v 0.000000 28.624987 -2.636623
v 1.793671 28.624987 -1.793385
v -1.794434 28.624987 -1.793385
v 0.000000 25.935602 -2.636623
v 1.793671 25.935602 -1.793194
v 2.636337 25.935602 0.000000
v 1.793671 25.935602 1.793480
v 0.000000 25.935602 2.636719
v -1.794434 25.935602 1.793480
v -2.636337 25.935602 0.000000
v -1.794434 25.935602 -1.793194
v -7.344818 14.365482 -3.976631
v -7.344818 14.365482 3.939724
v -3.722763 14.365482 7.344723
v 3.722763 14.365482 7.344723
v 7.344818 14.365482 4.100513
v 7.344818 14.365482 -3.769779
v 3.722763 14.365482 -7.344722
v -3.722763 14.365482 -7.344722
v -7.344818 4.987609 -3.980446
v -7.344818 4.987609 3.944206
v -3.723145 4.987609 7.344723
v 3.722763 4.987609 7.344723
v 7.344437 4.987609 4.105091
v 7.344818 4.987609 -4.207325
v 3.722763 4.987609 -7.344722
v -3.723145 4.987609 -7.344722
v 7.322311 17.491699 -4.154682
v 7.322311 17.526985 4.133606
v 3.723526 17.526983 7.344723
v -3.722763 17.526983 7.344723
v -7.321930 17.526985 4.133606
v -7.321930 17.491699 -4.154682
v -3.722763 17.562244 -7.344722
v 3.723526 17.562244 -7.344722
v -7.344818 4.987609 1.913166
v -7.344818 14.365482 2.064037
v 7.344437 4.987609 2.143288
v 7.344818 14.365482 2.141094
v -7.344818 14.365482 -2.236557
v -7.344818 4.987609 -2.076912
v 7.344818 14.365482 -2.280521
v 7.344437 4.987609 -2.499294
vt 0.177548 0.280300
vt 0.177548 0.280300
vt 0.037839 0.230283
vt 0.037839 0.230283
vt 0.037839 0.230283
vt 0.037839 0.230283
vt 0.177548 0.280300
vt 0.177548 0.280300
vt 0.177548 0.280300
vt 0.177548 0.280300
vt 0.177548 0.280300
vt 0.037839 0.230283
vt 0.177548 0.280300
vt 0.037839 0.230283
vt 0.177548 0.280300
vt 0.177548 0.280300
vt 0.177548 0.280300
vt 0.177548 0.280300
vt 0.177548 0.280300
vt 0.177548 0.280300
vt 0.177548 0.280300
vt 0.177548 0.280300
vt 0.177548 0.280300
vt 0.177548 0.280300
vt 0.177548 0.280300
vt 0.177548 0.280300
vt 0.037839 0.230283
vt 0.037839 0.230283
vt 0.177548 0.280300
vt 0.177548 0.280300
vt 0.037839 0.230283
vt 0.037839 0.230283
vt 0.037839 0.230283
vt 0.037839 0.230283
vt 0.037839 0.230283
vt 0.177548 0.280300
vt 0.177548 0.280300
vt 0.177548 0.280300
vt 0.177548 0.280300
vt 0.177548 0.280300
vt 0.177548 0.280300
vt 0.177548 0.280300
vt 0.177548 0.280300
vt 0.177548 0.280300
vt 0.177548 0.280300
vt 0.177548 0.280300
vt 0.177548 0.280300
vt 0.177548 0.280300
vt 0.177548 0.280300
vt 0.177548 0.280300
vt 0.177548 0.280300
vt 0.177548 0.280300
vt 0.177548 0.280300
vt 0.177548 0.280300
vt 0.177548 0.280300
vt 0.177548 0.280300
vt 0.177548 0.280300
vt 0.177548 0.280300
vt 0.177548 0.280300
vt 0.037839 0.230283
vt 0.037839 0.230283
vt 0.037839 0.230283
vt 0.037839 0.230283
vt 0.037839 0.230283
vt 0.037839 0.230283
vt 0.037839 0.230283
vt 0.037839 0.230283
vt 0.037839 0.230283
vt 0.037839 0.230283
vt 0.177548 0.280300
vt 0.177548 0.280300
vt 0.177548 0.280300
vt 0.177548 0.280300
vt 0.177548 0.280300
vt 0.177548 0.280300
vt 0.177548 0.280300
vt 0.177548 0.280300
vt 0.177548 0.280300
vt 0.177548 0.280300
vt 0.177548 0.280300
vt 0.177548 0.280300
vt 0.177548 0.280300
vt 0.177548 0.280300
vt 0.177548 0.280300
vt 0.177548 0.280300
vt 0.177548 0.280300
vt 0.177548 0.280300
vt 0.177548 0.280300
vt 0.177548 0.280300
vt 0.177548 0.280300
vt 0.177548 0.280300
vt 0.177548 0.280300
vt 0.177548 0.280300
vt 0.177548 0.280300
vt 0.177548 0.280300
vt 0.177548 0.280300
vt 0.177548 0.280300
vt 0.177548 0.280300
vt 0.177548 0.280300
vt 0.177548 0.280300
vt 0.177548 0.280300
vt 0.177548 0.280300
vt 0.177548 0.280300
vt 0.177548 0.280300
vt 0.177548 0.280300
vt 0.177548 0.280300
vt 0.177548 0.280300
vt 0.035540 0.253257
vt 0.035540 0.253257
vt 0.035540 0.253257
vt 0.035540 0.253257
vt 0.035540 0.253257
vt 0.035540 0.253257
vt 0.035540 0.253257
vt 0.035540 0.253257
vt 0.035540 0.253257
vt 0.035540 0.253257
vt 0.035540 0.253257
vt 0.035540 0.253257
vt 0.036337 0.252461
vt 0.036337 0.252461
vt 0.036337 0.252461
vt 0.036337 0.252461
vt 0.036337 0.252461
vt 0.036337 0.252461
vt 0.036337 0.252461
vt 0.036337 0.252461
vt 0.036337 0.252461
vt 0.036337 0.252461
vt 0.036337 0.252461
vt 0.036337 0.252461
vt 0.037839 0.230283
vt 0.037839 0.230283
vn 0.185475 0.900003 0.394453
vn 0.185475 0.900003 0.394453
vn 0.185475 0.900003 0.394453
vn 0.000000 1.000000 -0.000000
vn 0.000000 1.000000 -0.000000
vn 0.000000 1.000000 -0.000000
vn 0.000000 1.000000 -0.000000
vn 0.000000 0.858298 -0.513151
vn 0.000000 0.858298 -0.513151
vn 0.000000 0.858298 -0.513151
vn 0.000000 -1.000000 0.000000
vn 0.000000 -1.000000 0.000000
vn 0.000000 -1.000000 0.000000
vn 0.506718 0.862112 0.000000
vn 0.506718 0.862112 0.000000
vn 0.506718 0.862112 0.000000
vn -0.385144 0.904913 0.181101
vn -0.385144 0.904913 0.181101
vn -0.385144 0.904913 0.181101
vn -0.675402 -0.020159 0.737174
vn -0.675402 -0.020159 0.737174
vn -0.675402 -0.020159 0.737174
vn -0.675402 -0.020159 0.737174
vn 0.666483 -0.001610 0.745519
vn 0.666483 -0.001610 0.745519
vn 0.666483 -0.001610 0.745519
vn 0.666483 -0.001610 0.745519
vn 0.999974 0.007161 -0.000019
vn 0.999974 0.007156 -0.000018
vn 0.999974 0.007156 -0.000019
vn 0.999974 0.007161 -0.000019
vn 0.000000 0.000000 -1.000000
vn 0.000000 0.000000 -1.000000
vn 0.000000 0.000000 -1.000000
vn 0.000000 0.000000 -1.000000
vn 0.422067 0.127424 0.897565
vn 0.422067 0.127424 0.897565
vn 0.422067 0.127424 0.897565
vn 0.422067 0.127424 0.897565
vn -0.897621 0.127486 0.421928
vn -0.897621 0.127486 0.421928
vn -0.897621 0.127486 0.421928
vn -0.897621 0.127486 0.421928
vn 0.422110 0.127424 -0.897545
vn 0.422110 0.127424 -0.897545
vn 0.422110 0.127424 -0.897545
vn 0.422110 0.127424 -0.897545
vn 0.897586 0.127441 0.422016
vn 0.897586 0.127441 0.422016
vn 0.897586 0.127441 0.422016
vn 0.897586 0.127441 0.422016
vn 0.000000 1.000000 0.000000
vn 0.000000 1.000000 0.000000
vn 0.000000 1.000000 0.000000
vn 0.000000 1.000000 0.000000
vn -0.421905 0.127425 0.897641
vn -0.421905 0.127425 0.897641
vn -0.421905 0.127425 0.897641
vn -0.421905 0.127425 0.897641
vn 0.000000 -1.000000 0.000000
vn 0.000000 -1.000000 0.000000
vn 0.000000 -1.000000 0.000000
vn -0.672089 -0.018412 -0.740242
vn -0.672089 -0.018412 -0.740242
vn -0.672089 -0.018412 -0.740242
vn -0.672089 -0.018412 -0.740242
vn -0.185430 0.900002 -0.394478
vn -0.185430 0.900002 -0.394478
vn -0.185430 0.900002 -0.394478
vn -0.421948 0.127425 -0.897621
vn -0.421948 0.127425 -0.897621
vn -0.421948 0.127425 -0.897621
vn -0.421948 0.127425 -0.897621
vn 0.000000 1.000000 0.000001
vn 0.000000 1.000000 0.000001
vn 0.000000 1.000000 0.000001
vn 0.000000 1.000000 0.000001
vn 0.000000 1.000000 -0.000000
vn 0.000000 1.000000 -0.000000
vn 0.000000 1.000000 -0.000000
vn 0.000000 1.000000 -0.000000
vn -0.897602 0.127486 -0.421968
vn -0.897602 0.127486 -0.421968
vn -0.897602 0.127486 -0.421968
vn -0.897602 0.127486 -0.421968
vn 0.682873 -0.042048 -0.729326
vn 0.682873 -0.042048 -0.729326
vn 0.682873 -0.042048 -0.729326
vn 0.682873 -0.042048 -0.729326
vn 0.384699 0.905139 -0.180911
vn 0.384699 0.905139 -0.180911
vn 0.384699 0.905139 -0.180911
vn 0.897567 0.127441 -0.422057
vn 0.897567 0.127441 -0.422057
vn 0.897567 0.127441 -0.422057
vn 0.897567 0.127441 -0.422057
vn -0.185417 0.899997 0.394494
vn -0.185417 0.899997 0.394494
vn -0.185417 0.899997 0.394494
vn 0.000000 0.858293 0.513160
vn 0.000000 0.858293 0.513160
vn 0.000000 0.858293 0.513160
vn 0.000000 0.000000 1.000000
vn 0.000000 0.000000 1.000000
vn 0.000000 0.000000 1.000000
vn 0.000000 0.000000 1.000000
vn -0.506787 0.862071 0.000000
vn -0.506787 0.862071 0.000000
vn -0.506787 0.862071 0.000000
vn -0.999974 0.007278 -0.000019
vn -0.999974 0.007278 -0.000019
vn -0.999974 0.007239 0.000000
vn -0.384742 0.905118 -0.180931
vn -0.384742 0.905118 -0.180931
vn -0.384742 0.905118 -0.180931
vn 0.185489 0.900008 -0.394436
vn 0.185489 0.900008 -0.394436
vn 0.185489 0.900008 -0.394436
vn 0.385101 0.904935 0.181081
vn 0.385101 0.904934 0.181081
vn 0.385101 0.904934 0.181081
vn -0.321874 0.880547 0.347901
vn -0.321874 0.880547 0.347901
vn -0.321873 0.880547 0.347901
vn -0.320800 0.880782 -0.348295
vn -0.320800 0.880782 -0.348295
vn -0.320800 0.880782 -0.348295
vn 0.320772 0.880805 -0.348265
vn 0.320771 0.880805 -0.348265
vn 0.320772 0.880805 -0.348265
vn 0.321845 0.880569 0.347870
vn 0.321845 0.880569 0.347870
vn 0.321845 0.880569 0.347870
vn 0.000000 -1.000000 0.000000
vn 0.000000 -1.000000 0.000000
vn 0.000000 -1.000000 0.000000
vn 0.000000 -1.000000 0.000000
vn 0.000000 -1.000000 0.000000
vn 0.000000 -1.000000 0.000000
vn 0.000000 -1.000000 0.000000
vn 0.000000 -1.000000 0.000000
vn 0.000000 -1.000000 0.000000
vn 0.000000 -1.000000 0.000000
vn 0.000000 -1.000000 0.000000
vn 0.000000 -1.000000 0.000000
vn 0.000000 -1.000000 0.000000
vn 0.000000 -1.000000 0.000000
vn 0.000000 -1.000000 0.000000
vn 0.000000 -1.000000 0.000000
vn 0.000000 -1.000000 0.000000
vn 0.000000 -1.000000 0.000000
vn 0.425489 -0.000032 -0.904964
vn 0.425489 -0.000032 -0.904964
vn 0.425489 -0.000032 -0.904964
vn 0.425489 -0.000032 -0.904964
vn 0.905059 -0.000015 -0.425287
vn 0.905059 -0.000015 -0.425287
vn 0.905059 -0.000015 -0.425287
vn 0.905059 -0.000015 -0.425287
vn 0.905076 0.000000 0.425250
vn 0.905076 0.000000 0.425250
vn 0.905076 0.000000 0.425250
vn 0.905076 0.000000 0.425250
vn 0.425449 0.000000 0.904982
vn 0.425449 0.000000 0.904982
vn 0.425449 0.000000 0.904982
vn 0.425449 0.000000 0.904982
vn -0.425301 0.000000 0.905052
vn -0.425301 0.000000 0.905052
vn -0.425301 0.000000 0.905052
vn -0.425301 0.000000 0.905052
vn -0.905150 -0.000128 0.425092
vn -0.905150 -0.000128 0.425092
vn -0.905150 -0.000128 0.425092
vn -0.905150 -0.000128 0.425092
vn -0.905133 -0.000143 -0.425129
vn -0.905133 -0.000143 -0.425129
vn -0.905133 -0.000143 -0.425129
vn -0.905133 -0.000143 -0.425129
vn -0.425341 -0.000032 -0.905033
vn -0.425341 -0.000032 -0.905033
vn -0.425341 -0.000032 -0.905033
vn -0.425340 -0.000032 -0.905033
vn 0.130972 -0.951464 -0.278501
vn 0.130972 -0.951464 -0.278501
vn 0.130972 -0.951464 -0.278501
vn 0.130972 -0.951464 -0.278501
vn 0.278450 -0.951491 -0.130882
vn 0.278450 -0.951491 -0.130882
vn 0.278450 -0.951491 -0.130882
vn 0.278450 -0.951491 -0.130882
vn 0.278446 -0.951496 0.130861
vn 0.278445 -0.951495 0.130861
vn 0.278446 -0.951496 0.130861
vn 0.278446 -0.951495 0.130861
vn 0.130940 -0.951473 0.278486
vn 0.130940 -0.951473 0.278486
vn 0.130940 -0.951473 0.278486
vn 0.130940 -0.951473 0.278486
vn -0.130889 -0.951473 0.278508
vn -0.130889 -0.951473 0.278508
vn -0.130889 -0.951473 0.278508
vn -0.130889 -0.951473 0.278508
vn -0.278574 -0.951463 0.130822
vn -0.278574 -0.951463 0.130822
vn -0.278574 -0.951463 0.130822
vn -0.278574 -0.951463 0.130822
vn -0.278578 -0.951459 -0.130843
vn -0.278578 -0.951459 -0.130843
vn -0.278578 -0.951459 -0.130843
vn -0.278578 -0.951459 -0.130843
vn -0.130920 -0.951465 -0.278523
vn -0.130920 -0.951465 -0.278523
vn -0.130920 -0.951465 -0.278523
vn -0.130920 -0.951465 -0.278523
vn -1.000000 -0.000000 0.000000
vn -1.000000 -0.000000 0.000000
vn -1.000000 -0.000000 0.000000
vn -1.000000 -0.000000 0.000000
vn -0.684718 0.000188 0.728808
vn -0.684718 0.000188 0.728808
vn -0.684718 0.000188 0.728808
vn -0.684718 0.000188 0.728808
vn 0.000000 0.000000 1.000000
vn 0.000000 0.000000 1.000000
vn 0.000000 0.000000 1.000000
vn 0.000000 0.000000 1.000000
vn 0.666944 0.000168 0.745108
vn 0.666944 0.000168 0.745108
vn 0.666944 0.000168 0.745108
vn 0.666944 0.000168 0.745108
vn 1.000000 -0.000041 0.000000
vn 1.000000 -0.000041 0.000000
vn 1.000000 -0.000041 0.000000
vn 1.000000 -0.000041 0.000000
vn 0.679572 0.017109 -0.733409
vn 0.679572 0.017109 -0.733409
vn 0.679572 0.017109 -0.733410
vn 0.679572 0.017109 -0.733409
vn 0.000000 0.000000 -1.000000
vn 0.000000 0.000000 -1.000000
vn 0.000000 0.000000 -1.000000
vn 0.000000 0.000000 -1.000000
vn -0.680779 0.000163 -0.732489
vn -0.680779 0.000163 -0.732489
vn -0.680779 0.000163 -0.732489
vn -0.680779 0.000163 -0.732489
vn -1.000000 0.000000 0.000000
vn -1.000000 0.000000 0.000000
vn -1.000000 0.000000 0.000000
vn -0.707923 -0.033031 0.705517
vn -0.707923 -0.033031 0.705517
vn -0.707923 -0.033031 0.705517
vn -0.707923 -0.033031 0.705517
vn 0.000000 0.000000 1.000000
vn 0.000000 0.000000 1.000000
vn 0.000000 0.000000 1.000000
vn 0.000000 0.000000 1.000000
vn 0.666682 0.000025 0.745342
vn 0.666682 0.000025 0.745342
vn 0.666682 0.000025 0.745342
vn 0.666682 0.000025 0.745342
vn 1.000000 0.000077 0.000000
vn 1.000000 0.000076 0.000000
vn 1.000000 0.000076 0.000000
vn 0.659378 -0.005944 -0.751788
vn 0.659378 -0.005944 -0.751788
vn 0.659378 -0.005944 -0.751788
vn 0.659378 -0.005944 -0.751788
vn 0.000000 0.000000 -1.000000
vn 0.000000 0.000000 -1.000000
vn 0.000000 0.000000 -1.000000
vn 0.000000 0.000000 -1.000000
vn -0.704579 -0.033491 -0.708835
vn -0.704579 -0.033491 -0.708835
vn -0.704579 -0.033491 -0.708835
vn -0.704579 -0.033491 -0.708835
vn 0.968712 0.248187 -0.000584
vn 0.968712 0.248187 -0.000584
vn 0.968712 0.248187 -0.000584
vn 0.968712 0.248187 -0.000584
vn 0.616399 0.400084 0.678222
vn 0.616399 0.400084 0.678222
vn 0.616399 0.400084 0.678222
vn 0.616399 0.400084 0.678221
vn 0.000000 0.290335 0.956925
vn 0.000000 0.290335 0.956925
vn 0.000000 0.290335 0.956925
vn 0.000000 0.290335 0.956925
vn -0.616424 0.399940 0.678284
vn -0.616424 0.399940 0.678284
vn -0.616424 0.399940 0.678284
vn -0.616424 0.399940 0.678284
vn -0.968755 0.248020 -0.000584
vn -0.968755 0.248020 -0.000584
vn -0.968755 0.248020 -0.000584
vn -0.968755 0.248020 -0.000584
vn -0.616467 0.400763 -0.677759
vn -0.616467 0.400763 -0.677759
vn -0.616467 0.400763 -0.677759
vn -0.616467 0.400763 -0.677759
vn 0.000000 0.294983 -0.955503
vn 0.000000 0.294983 -0.955503
vn 0.000000 0.294983 -0.955503
vn 0.000000 0.294983 -0.955503
vn 0.616444 0.400907 -0.677695
vn 0.616444 0.400907 -0.677695
vn 0.616444 0.400907 -0.677695
vn 0.616444 0.400907 -0.677695
vn -1.000000 0.000000 0.000000
vn -1.000000 -0.000000 0.000000
vn -1.000000 -0.000000 0.000000
vn -1.000000 0.000000 0.000000
vn 1.000000 -0.000024 0.000119
vn 1.000000 -0.000037 0.000030
vn 1.000000 -0.000036 0.000032
vn 1.000000 -0.000024 0.000119
vn -1.000000 -0.000000 0.000000
vn -1.000000 -0.000000 0.000000
vn -1.000000 0.000000 0.000000
vn -1.000000 0.000000 0.000000
vn 1.000000 -0.000036 0.000032
vn 1.000000 -0.000037 0.000030
vn 1.000000 -0.000041 0.000000
vn 1.000000 -0.000041 0.000000
vn 0.999974 0.007156 -0.000019
vn 0.999974 0.007156 -0.000018
vn 0.999975 0.007119 0.000000
vn 1.000000 0.000074 0.000008
vn 1.000000 0.000071 0.000018
vn 1.000000 0.000076 0.000000
vn 1.000000 0.000077 0.000000
vn 1.000000 0.000003 0.000223
vn 1.000000 0.000071 0.000018
vn 1.000000 0.000074 0.000008
vn 0.999974 0.007161 -0.000019
vn 0.999974 0.007161 -0.000019
vn 0.999974 0.007199 0.000000
vn -0.999973 0.007283 -0.000019
vn -0.999973 0.007283 -0.000019
vn -0.999973 0.007321 0.000000
vn -1.000000 0.000000 0.000000
vn -1.000000 0.000000 0.000000
vn -1.000000 0.000000 0.000000
vn -1.000000 0.000000 0.000000
vn -1.000000 0.000000 0.000000
vn -1.000000 0.000000 0.000000
vn -1.000000 0.000000 0.000000
vn -0.999974 0.007278 -0.000019
vn -0.999973 0.007283 -0.000019
vn -0.999973 0.007283 -0.000019
vn -0.999974 0.007278 -0.000019
s off
f 13/29/1 18/39/2 9/21/3
f 34/3/4 35/4/5 36/5/6 37/6/7
f 14/30/8 8/19/9 22/45/10
f 16/37/11 19/41/12 1/9/13
f 17/38/14 7/18/15 24/47/16
f 15/36/17 20/42/18 10/22/19
f 70/93/20 71/94/21 52/72/22 53/73/23
f 68/91/24 69/92/25 54/74/26 55/75/27
f 67/90/28 68/91/29 78/103/30 81/106/31
f 57/77/32 58/79/33 73/97/34 74/98/35
f 29/54/36 30/55/37 13/29/38 9/21/39
f 31/56/40 32/57/41 15/36/42 10/22/43
f 14/30/44 26/50/45 27/51/46 12/25/47
f 9/21/48 17/38/49 28/53/50 29/54/51
f 38/12/52 36/5/53 35/4/54 39/14/55
f 10/22/56 13/29/57 30/55/58 31/56/59
f 16/37/60 21/44/61 3/7/62
f 72/96/63 73/97/64 58/79/65 51/71/66
f 11/24/67 14/30/68 22/45/69
f 33/59/70 26/50/71 14/30/72 11/24/73
f 40/27/74 35/4/75 34/3/76 41/28/77
f 39/14/78 35/4/79 40/27/80 42/31/81
f 11/23/82 15/36/83 32/57/84 33/58/85
f 74/99/86 67/90/87 56/76/88 57/78/89
f 17/38/90 24/47/91 12/26/92
f 27/52/93 28/53/94 17/38/95 12/26/96
f 6/17/97 13/29/98 10/22/99
f 18/39/100 13/29/101 6/17/102
f 69/92/103 70/93/104 53/73/105 54/74/106
f 20/42/107 15/36/108 5/15/109
f 71/94/110 76/101/111 52/72/112
f 5/15/113 15/36/114 11/23/115
f 8/19/116 14/30/117 12/25/118
f 7/18/119 17/38/120 9/21/121
f 10/22/122 20/42/123 6/17/124
f 11/24/125 22/45/126 5/16/127
f 12/26/128 24/47/129 8/20/130
f 9/21/131 18/39/132 7/18/133
f 21/44/134 16/37/135 1/9/136
f 2/10/137 16/37/138 25/48/139
f 19/41/140 16/37/141 2/10/142
f 4/8/143 16/37/144 23/46/145
f 25/48/146 16/37/147 4/8/148
f 3/7/149 23/46/150 16/37/151
f 44/32/152 43/33/153 40/27/154 41/28/155
f 34/3/156 45/34/157 44/32/158 41/28/159
f 46/35/160 45/34/161 34/3/162 37/6/163
f 36/5/164 47/60/165 46/35/166 37/6/167
f 48/61/168 47/60/169 36/5/170 38/12/171
f 39/14/172 49/62/173 48/61/174 38/12/175
f 50/63/176 49/62/177 39/14/178 42/31/179
f 42/31/180 40/27/181 43/33/182 50/63/183
f 27/64/184 26/65/185 43/33/186 44/32/187
f 28/66/188 27/64/189 44/32/190 45/34/191
f 29/67/192 28/66/193 45/34/194 46/35/195
f 30/68/196 29/67/197 46/35/198 47/60/199
f 31/69/200 30/68/201 47/60/202 48/61/203
f 32/132/204 31/69/205 48/61/206 49/62/207
f 33/133/208 32/132/209 49/62/210 50/63/211
f 26/65/212 33/133/213 50/63/214 43/33/215
f 75/100/216 76/101/217 79/104/218 80/105/219
f 53/108/220 52/109/221 60/110/222 61/111/223
f 54/112/224 53/108/225 61/111/226 62/113/227
f 55/114/228 54/112/229 62/113/230 63/115/231
f 77/116/232 78/117/233 55/114/234 63/115/235
f 57/120/236 56/121/237 64/122/238 65/123/239
f 65/123/240 66/124/241 58/125/242 57/120/243
f 51/126/244 58/125/245 66/124/246 59/127/247
f 60/82/248 75/100/249 21/43/250
f 61/83/251 60/82/252 21/43/253 1/1/254
f 62/84/255 61/83/256 1/1/257 19/40/258
f 63/85/259 62/84/260 19/40/261 2/2/262
f 2/2/263 77/102/264 63/85/265
f 65/88/266 64/86/267 25/49/268 4/11/269
f 23/46/270 66/89/271 65/87/272 4/8/273
f 59/81/274 66/89/275 23/46/276 3/7/277
f 24/47/278 7/18/279 68/91/280 67/90/281
f 7/18/282 18/39/283 69/92/284 68/91/285
f 18/39/286 6/17/287 70/93/288 69/92/289
f 6/17/290 20/42/291 71/94/292 70/93/293
f 20/42/294 5/15/295 72/95/296 71/94/297
f 5/16/298 22/45/299 73/97/300 72/96/301
f 74/98/302 73/97/303 22/45/304 8/19/305
f 8/20/306 24/47/307 67/90/308 74/99/309
f 52/109/310 76/118/311 75/119/312 60/110/313
f 56/121/314 81/128/315 82/129/316 64/122/317
f 80/130/318 79/131/319 51/126/320 59/127/321
f 82/107/322 81/106/323 78/103/324 77/102/325
f 78/103/326 68/91/327 55/75/328
f 25/49/329 82/107/330 77/102/331 2/2/332
f 64/86/333 82/107/334 25/49/335
f 67/90/336 81/106/337 56/76/338
f 79/104/339 72/95/340 51/70/341
f 21/43/342 75/100/343 80/105/344 3/13/345
f 3/13/346 80/105/347 59/80/348
f 71/94/349 72/95/350 79/104/351 76/101/352
