# This file uses centimeters as units for non-parametric coordinates.

v -1.837730 -0.000012 1.837730
v 5.853403 -0.000012 1.837730
v -1.690602 60.069298 1.690674
v 5.706263 60.069298 1.690674
v -1.690602 60.069298 -1.690578
v -1.837730 -0.000012 -1.837730
v 5.853403 -0.000012 -1.837730
v -1.837730 45.597336 -1.837730
v -1.837730 45.597336 1.837730
v 5.853403 45.597336 1.837730
v 5.853403 45.597336 -1.837730
v -1.837730 38.889801 -1.837730
v -1.837730 38.889801 1.837730
v 5.853403 38.889801 1.837730
v 5.853403 38.889801 -1.837730
v -17.710352 39.164341 -1.584244
v -17.710352 39.164341 1.584244
v -17.710352 42.616962 1.584244
v -17.710352 45.322811 -1.584244
v 16.496206 39.136887 1.609612
v 21.573771 39.136887 -1.609612
v 21.573771 45.350254 -1.609612
v 21.573771 45.350254 1.609612
v -17.710352 45.322811 -0.374794
v -10.043728 45.322811 1.584244
v 21.573771 41.201530 1.609612
v 21.573771 39.136887 0.671005
v 8.669006 45.597336 1.837730
v 13.266063 45.597324 0.009632
v 12.586344 44.665268 1.837730
v -1.837730 13.964355 1.837730
v 0.301242 22.321047 1.837730
v -1.837742 22.687292 -0.256538
v 5.853403 4.242337 1.837826
v 5.853403 26.621737 1.837826
v 4.284811 9.467722 1.837730
v 5.853391 9.383417 -0.540543
v -1.690602 49.795532 1.690674
v -0.873923 56.151447 1.690674
v -1.690602 56.018753 -0.180531
v 3.416181 60.069298 -1.690578
v 5.716014 57.442650 -1.700306
vt 0.209627 0.277632
vt 0.209627 0.277632
vt 0.209627 0.277632
vt 0.209627 0.277632
vt 0.209627 0.277632
vt 0.209627 0.277632
vt 0.209627 0.277632
vt 0.209627 0.277632
vt 0.209627 0.277632
vt 0.209627 0.277632
vt 0.209627 0.277632
vt 0.209627 0.277632
vt 0.209627 0.277632
vt 0.209627 0.277632
vt 0.209627 0.277632
vt 0.209627 0.277632
vt 0.209627 0.277632
vt 0.209627 0.277632
vt 0.209627 0.277632
vt 0.209627 0.277632
vt 0.209627 0.277632
vt 0.209627 0.277632
vt 0.209627 0.277632
vt 0.209627 0.277632
vt 0.209627 0.277632
vt 0.209627 0.277632
vt 0.209627 0.277632
vt 0.209627 0.277632
vt 0.209627 0.277632
vt 0.209627 0.277632
vt 0.209627 0.277632
vt 0.209627 0.277632
vt 0.209627 0.277632
vt 0.209627 0.277632
vt 0.209627 0.277632
vt 0.209627 0.277632
vt 0.209627 0.277632
vt 0.209627 0.277632
vt 0.209627 0.277632
vt 0.209627 0.277632
vt 0.209627 0.277632
vt 0.209627 0.277632
vt 0.209627 0.277632
vt 0.209627 0.277632
vt 0.209627 0.277632
vt 0.209627 0.277632
vt 0.209627 0.277632
vt 0.209627 0.277632
vt 0.209627 0.277632
vt 0.209627 0.277632
vt 0.209627 0.277632
vt 0.209627 0.277632
vn -0.011170 0.014951 0.999826
vn -0.011170 0.014951 0.999826
vn -0.011170 0.014951 0.999826
vn -0.011170 0.014951 0.999826
vn 0.669687 0.588043 -0.453570
vn 0.669687 0.588042 -0.453570
vn 0.669687 0.588042 -0.453570
vn 0.000000 -1.000000 0.000000
vn 0.000000 -1.000000 0.000000
vn 0.000000 -1.000000 0.000000
vn 0.000000 -1.000000 0.000000
vn -0.999599 0.009893 0.026536
vn -0.999599 0.009893 0.026536
vn -0.999599 0.009893 0.026536
vn 0.000000 0.000000 1.000000
vn 0.000000 0.000000 1.000000
vn 0.000000 0.000000 1.000000
vn 0.000000 0.000000 1.000000
vn 0.165948 -0.408113 0.897722
vn 0.165948 -0.408113 0.897722
vn 0.165948 -0.408113 0.897722
vn 0.000000 0.000000 -1.000000
vn 0.000000 0.000000 -1.000000
vn 0.000000 0.000000 -1.000000
vn 0.000000 0.000000 -1.000000
vn -1.000000 0.000000 -0.000008
vn -1.000000 0.000000 -0.000008
vn -1.000000 0.000000 -0.000008
vn -0.000018 0.000001 1.000000
vn -0.000018 0.000001 1.000000
vn -0.000018 0.000001 1.000000
vn -0.000018 0.000001 1.000000
vn 1.000000 0.000001 -0.000001
vn 1.000000 0.000001 -0.000001
vn 1.000000 0.000001 -0.000001
vn 1.000000 0.000001 -0.000001
vn 0.000000 0.000000 -1.000000
vn 0.000000 0.000000 -1.000000
vn 0.000000 0.000000 -1.000000
vn 0.000000 0.000000 -1.000000
vn -0.017294 -0.999851 0.000000
vn -0.017294 -0.999851 0.000000
vn -0.017294 -0.999851 0.000000
vn -0.017294 -0.999851 0.000000
vn -0.202680 0.574265 0.793184
vn -0.202680 0.574265 0.793184
vn -0.202680 0.574265 0.793184
vn -0.015968 0.000000 -0.999873
vn -0.015968 0.000000 -0.999873
vn -0.015968 0.000000 -0.999873
vn -0.015968 0.000000 -0.999873
vn 0.014510 0.000000 -0.999895
vn 0.014510 0.000000 -0.999895
vn 0.014510 0.000000 -0.999895
vn 0.014510 0.000000 -0.999895
vn 0.016649 0.997627 -0.066803
vn 0.016649 0.997627 -0.066803
vn 0.016649 0.997627 -0.066803
vn -1.000000 0.000000 0.000000
vn -1.000000 0.000000 0.000000
vn -1.000000 0.000000 0.000000
vn -1.000000 0.000000 0.000000
vn -1.000000 0.000000 0.000000
vn -0.017978 0.010713 0.999781
vn -0.017978 0.010713 0.999781
vn -0.017978 0.010713 0.999781
vn -0.017978 0.010713 0.999781
vn -0.017978 0.010713 0.999781
vn -0.020486 0.999527 0.022949
vn -0.020486 0.999527 0.022949
vn -0.020486 0.999527 0.022949
vn -0.020486 0.999527 0.022949
vn -0.020486 0.999527 0.022949
vn 0.018630 -0.028064 0.999433
vn 0.018630 -0.028064 0.999433
vn 0.018630 -0.028064 0.999433
vn 0.018630 -0.028064 0.999433
vn 0.016623 -0.999787 0.012242
vn 0.016623 -0.999787 0.012242
vn 0.016623 -0.999787 0.012242
vn 0.016623 -0.999787 0.012242
vn 0.016623 -0.999787 0.012242
vn 1.000000 0.000000 0.000000
vn 1.000000 0.000000 0.000000
vn 1.000000 0.000000 0.000000
vn 1.000000 0.000000 0.000000
vn 1.000000 0.000000 0.000000
vn 0.200051 0.840782 0.503056
vn 0.200051 0.840782 0.503056
vn 0.200051 0.840782 0.503056
vn -0.704607 -0.090962 0.703744
vn -0.704607 -0.090962 0.703744
vn -0.704607 -0.090962 0.703743
vn 0.831129 -0.076003 0.550862
vn 0.831129 -0.076003 0.550862
vn 0.831129 -0.076003 0.550862
vn -0.913204 0.117339 0.390243
vn -0.913204 0.117339 0.390243
vn -0.913204 0.117339 0.390243
vn -0.895481 -0.186664 0.404067
vn -0.895481 -0.186664 0.404067
vn -0.895481 -0.186664 0.404067
vn -0.057355 0.897890 0.436467
vn -0.057355 0.897890 0.436467
vn -0.057355 0.897890 0.436467
vn -0.673876 0.172485 0.718429
vn -0.673876 0.172485 0.718429
vn -0.673876 0.172485 0.718429
vn 0.813466 0.244201 0.527862
vn 0.813466 0.244201 0.527862
vn 0.813466 0.244201 0.527862
vn 0.025374 0.000000 0.999678
vn 0.025374 0.000000 0.999678
vn 0.025374 0.000000 0.999678
vn 0.000000 0.000000 1.000000
vn 0.000000 0.000000 1.000000
vn 0.000000 0.000000 1.000000
vn 0.000000 0.000000 1.000000
vn 0.000000 0.000000 1.000000
vn 0.000000 0.000000 1.000000
vn 0.000000 0.000000 1.000000
vn -0.006013 0.010100 0.999931
vn -0.006013 0.010100 0.999931
vn -0.006013 0.010100 0.999931
vn 0.000000 0.000000 1.000000
vn 0.000000 0.000000 1.000000
vn 0.000000 0.000000 1.000000
vn -0.000011 -0.000002 1.000000
vn -0.000011 -0.000002 1.000000
vn -0.000011 -0.000002 1.000000
vn -0.000011 -0.000002 1.000000
vn 0.000000 0.000000 1.000000
vn 0.000000 0.000000 1.000000
vn 0.000000 0.000000 1.000000
vn 0.000000 0.000000 1.000000
vn -1.000000 -0.000000 0.000001
vn -1.000000 -0.000000 0.000001
vn -1.000000 -0.000000 0.000001
vn -1.000000 -0.000000 0.000001
vn -1.000000 0.000001 0.000000
vn -1.000000 0.000001 0.000000
vn -1.000000 0.000001 0.000000
vn 1.000000 -0.000000 -0.000001
vn 1.000000 -0.000000 -0.000001
vn 1.000000 -0.000000 -0.000001
vn 1.000000 -0.000000 -0.000001
vn 1.000000 0.000000 0.000009
vn 1.000000 0.000000 0.000009
vn 1.000000 0.000000 0.000009
vn 0.000001 1.000000 -0.000002
vn 0.000001 1.000000 -0.000002
vn 0.000001 1.000000 -0.000002
vn 0.000001 1.000000 -0.000002
vn 0.029727 0.999558 0.000000
vn 0.029727 0.999558 0.000000
vn 0.029727 0.999558 0.000000
vn -0.999633 0.018030 0.020230
vn -0.999633 0.018030 0.020230
vn -0.999633 0.018030 0.020230
vn -0.999633 0.018030 0.020230
vn -1.000000 0.000000 0.000000
vn -1.000000 0.000000 0.000000
vn -1.000000 0.000000 0.000000
vn 0.000000 1.000000 0.000000
vn 0.000000 1.000000 0.000000
vn 0.000000 1.000000 0.000000
vn 0.000000 1.000000 0.000000
vn 0.999938 0.010810 -0.002638
vn 0.999938 0.010810 -0.002638
vn 0.999938 0.010810 -0.002638
vn 0.999938 0.010810 -0.002638
vn 0.001159 0.010363 -0.999946
vn 0.001159 0.010363 -0.999946
vn 0.001159 0.010363 -0.999946
vn 0.001159 0.010363 -0.999946
vn 0.001159 0.010363 -0.999946
s off
f 9/15/1 10/16/2 39/48/3 38/47/4
f 42/51/5 41/50/6 4/4/7
f 6/6/8 7/7/9 2/9/10 1/8/11
f 8/13/12 40/49/13 5/12/14
f 13/21/15 14/22/16 10/16/17 9/15/18
f 20/29/19 27/36/20 26/35/21
f 8/14/22 11/17/23 15/23/24 12/20/25
f 6/11/26 33/42/27 12/19/28
f 32/41/29 36/45/30 35/44/31 14/22/32
f 2/2/33 7/10/34 37/46/35 34/43/36
f 12/20/37 15/23/38 7/7/39 6/6/40
f 12/19/41 13/21/42 17/26/43 16/25/44
f 25/34/45 24/33/46 18/27/47
f 8/13/48 12/19/49 16/25/50 19/28/51
f 15/24/52 11/18/53 22/31/54 21/30/55
f 11/18/56 29/38/57 22/31/58
f 16/25/59 17/26/60 18/27/61 24/33/62 19/28/63
f 13/21/64 9/15/65 25/34/66 18/27/67 17/26/68
f 9/15/69 8/13/70 19/28/71 24/33/72 25/34/73
f 30/39/74 14/22/75 20/29/76 26/35/77
f 14/22/78 15/24/79 21/30/80 27/36/81 20/29/82
f 26/35/83 27/36/84 21/30/85 22/31/86 23/32/87
f 28/37/88 30/39/89 29/38/90
f 33/42/91 32/41/92 13/21/93
f 35/44/94 36/45/95 37/46/96
f 39/48/97 40/49/98 38/47/99
f 3/3/100 40/49/101 39/48/102
f 29/38/103 30/39/104 23/32/105
f 31/40/106 32/41/107 33/42/108
f 37/46/109 36/45/110 34/43/111
f 30/39/112 26/35/113 23/32/114
f 10/16/115 14/22/116 30/39/117 28/37/118
f 39/48/119 4/4/120 3/3/121
f 39/48/122 10/16/123 4/4/124
f 32/41/125 14/22/126 13/21/127
f 1/1/128 2/2/129 34/43/130 36/45/131
f 1/1/132 36/45/133 32/41/134 31/40/135
f 6/11/136 1/1/137 31/40/138 33/42/139
f 12/19/140 33/42/141 13/21/142
f 37/46/143 15/24/144 14/22/145 35/44/146
f 37/46/147 7/10/148 15/24/149
f 11/18/150 10/16/151 28/37/152 29/38/153
f 22/31/154 29/38/155 23/32/156
f 8/13/157 9/15/158 38/47/159 40/49/160
f 5/12/161 40/49/162 3/3/163
f 3/3/164 4/4/165 41/50/166 5/5/167
f 10/16/168 11/18/169 42/52/170 4/4/171
f 5/5/172 41/50/173 42/51/174 11/17/175 8/14/176
