# This file uses centimeters as units for non-parametric coordinates.

v 25.572395 0.798273 15.008926
v 33.108521 -0.458756 -15.008926
v -22.341537 6.730366 15.008926
v -22.381020 6.411219 -15.008926
v -53.840256 0.926799 11.171913
v -53.869247 0.692314 -10.885429
v 30.776405 4.994631 -11.565018
v 26.162720 5.565834 11.458683
v -21.751404 11.497974 -11.565018
v -21.751404 11.497974 11.458683
v -53.463745 3.967142 -8.354950
v -53.349304 4.892969 8.563137
v -53.219604 0.731963 0.238189
v -52.592850 5.130196 0.827390
v -47.006226 3.533268 -1.774967
v -50.338364 4.192638 5.112314
v -51.324463 0.536376 6.304932
v -47.445297 -0.013329 -2.575827
v 22.992325 5.958366 4.698467
v 22.388458 1.079369 4.528761
v 28.489876 5.277729 -0.327855
v 27.879143 0.344536 -0.569534
v 28.031921 5.334425 -4.566860
v 27.415085 0.352097 -5.193329
v 32.380676 4.796028 8.363342
v 32.609558 -0.142364 8.578777
vt 0.220962 0.303238
vt 0.220962 0.303238
vt 0.220962 0.303238
vt 0.220962 0.303238
vt 0.220962 0.303238
vt 0.220962 0.303238
vt 0.220962 0.303238
vt 0.220962 0.303238
vt 0.220962 0.303238
vt 0.220962 0.303238
vt 0.220962 0.303238
vt 0.220962 0.303238
vt 0.220962 0.303238
vt 0.220962 0.303238
vt 0.220865 0.304503
vt 0.220865 0.304503
vt 0.220865 0.304503
vt 0.220865 0.304503
vt 0.220865 0.304503
vt 0.220865 0.304503
vt 0.220962 0.303238
vt 0.220962 0.303238
vt 0.220962 0.303238
vt 0.220962 0.303238
vt 0.220962 0.303238
vt 0.220962 0.303238
vt 0.220962 0.303238
vt 0.220962 0.303238
vt 0.220962 0.303238
vt 0.220962 0.303238
vt 0.220962 0.303238
vt 0.220962 0.303238
vt 0.220962 0.303238
vt 0.220962 0.303238
vt 0.220962 0.303238
vt 0.220962 0.303238
vt 0.220962 0.303238
vt 0.220962 0.303238
vt 0.220962 0.303238
vt 0.220962 0.303238
vt 0.220962 0.303238
vt 0.220962 0.303238
vt 0.220962 0.303238
vt 0.220962 0.303238
vt 0.220962 0.303238
vt 0.220962 0.303238
vt 0.220962 0.303238
vt 0.220962 0.303238
vt 0.220962 0.303238
vt 0.220962 0.303238
vt 0.220962 0.303238
vt 0.220962 0.303238
vt 0.220962 0.303238
vt 0.220962 0.303238
vt 0.220962 0.303238
vt 0.220962 0.303238
vn -0.231045 0.972943 0.000000
vn -0.231045 0.972943 0.000000
vn -0.231045 0.972943 0.000000
vn -0.199746 0.978457 -0.052192
vn -0.199746 0.978457 -0.052192
vn -0.199746 0.978457 -0.052192
vn -0.199745 0.978457 -0.052192
vn -0.199745 0.978457 -0.052192
vn -0.199745 0.978457 -0.052192
vn -0.199745 0.978457 -0.052193
vn -0.199745 0.978457 -0.052193
vn -0.199746 0.978457 -0.052193
vn -0.199745 0.978457 -0.052193
vn -0.199745 0.978457 -0.052193
vn -0.199745 0.978457 -0.052193
vn 0.068524 0.553479 -0.830040
vn 0.068524 0.553478 -0.830040
vn 0.068524 0.553478 -0.830040
vn 0.068524 0.553479 -0.830039
vn 0.068524 0.553479 -0.830039
vn 0.068524 0.553479 -0.830039
vn 0.073025 0.589830 0.804219
vn 0.073025 0.589829 0.804219
vn 0.073025 0.589829 0.804219
vn 0.073025 0.589829 0.804220
vn 0.073025 0.589829 0.804219
vn 0.073025 0.589829 0.804219
vn -0.211104 0.613898 -0.760634
vn -0.211104 0.613898 -0.760634
vn -0.211104 0.613898 -0.760634
vn -0.214913 0.565633 -0.796160
vn -0.214913 0.565633 -0.796160
vn -0.214913 0.565633 -0.796160
vn -0.992423 0.122869 -0.000002
vn -0.992423 0.122869 -0.000002
vn -0.992423 0.122869 -0.000002
vn -0.992423 0.122869 0.000001
vn -0.992423 0.122869 0.000001
vn -0.992423 0.122869 0.000001
vn -0.200654 0.555572 0.806894
vn -0.200654 0.555572 0.806894
vn -0.200654 0.555572 0.806894
vn -0.196636 0.601140 0.774574
vn -0.196636 0.601140 0.774574
vn -0.196636 0.601140 0.774574
vn 0.122868 0.992423 0.000000
vn 0.122869 0.992423 0.000000
vn 0.122869 0.992423 0.000000
vn 0.122869 0.992423 0.000000
vn 0.122869 0.992423 0.000000
vn 0.122869 0.992423 -0.000001
vn 0.122869 0.992423 -0.000001
vn 0.122869 0.992423 0.000000
vn 0.122869 0.992423 0.000000
vn 0.122869 0.992423 0.000000
vn -0.622077 -0.013814 -0.782834
vn -0.622077 -0.013814 -0.782834
vn -0.622077 -0.013814 -0.782834
vn -0.710724 -0.133369 -0.690712
vn -0.710725 -0.133369 -0.690712
vn -0.710725 -0.133369 -0.690712
vn -0.617881 -0.099624 0.779935
vn -0.617881 -0.099624 0.779935
vn -0.617881 -0.099624 0.779935
vn -0.700341 -0.216426 0.680207
vn -0.700341 -0.216426 0.680207
vn -0.700341 -0.216426 0.680207
vn -0.992423 0.122869 -0.000001
vn -0.992423 0.122869 -0.000001
vn -0.992423 0.122869 -0.000001
vn -0.992423 0.122869 0.000002
vn -0.992423 0.122869 0.000002
vn -0.992423 0.122869 0.000002
vn 0.199929 -0.979758 0.010163
vn 0.199929 -0.979758 0.010163
vn 0.199929 -0.979758 0.010163
vn 0.199929 -0.979758 0.010163
vn 0.199929 -0.979758 0.010163
vn 0.199929 -0.979758 0.010163
vn 0.199929 -0.979758 0.010163
vn -0.122862 -0.992366 0.010711
vn -0.122862 -0.992366 0.010711
vn -0.122862 -0.992366 0.010711
vn -0.122862 -0.992366 0.010711
vn -0.122862 -0.992366 0.010711
vn -0.122862 -0.992366 0.010711
vn -0.122862 -0.992366 0.010711
vn -0.122862 -0.992366 0.010711
vn -0.122862 -0.992366 0.010711
vn -0.122862 -0.992366 0.010711
vn 0.892602 -0.028769 0.449927
vn 0.892602 -0.028769 0.449927
vn 0.892602 -0.028769 0.449927
vn 0.892602 -0.028769 0.449927
vn 0.364128 -0.018254 -0.931170
vn 0.364128 -0.018254 -0.931170
vn 0.364128 -0.018254 -0.931170
vn 0.364128 -0.018254 -0.931170
vn 0.665316 -0.113308 0.737913
vn 0.665316 -0.113308 0.737913
vn 0.665316 -0.113308 0.737913
vn 0.665316 -0.113308 0.737913
vn 0.988144 -0.113264 -0.103644
vn 0.988144 -0.113264 -0.103644
vn 0.988144 -0.113264 -0.103644
vn 0.988144 -0.113264 -0.103644
vn 0.584259 0.274532 0.763723
vn 0.584259 0.274532 0.763723
vn 0.584259 0.274532 0.763723
vn 0.584259 0.274532 0.763723
s off
f 9/4/1 11/5/2 10/3/3
f 11/5/4 15/10/5 10/3/6
f 15/10/7 14/8/8 10/3/9
f 12/6/10 10/3/11 16/12/12
f 10/3/13 14/8/14 16/12/15
f 2/22/16 4/23/17 7/25/18
f 7/25/19 4/23/20 9/24/21
f 3/26/22 1/27/23 10/29/24
f 10/29/25 1/27/26 8/28/27
f 6/30/28 11/31/29 4/7/30
f 4/7/31 11/31/32 9/32/33
f 6/33/34 18/14/35 11/34/36
f 11/34/37 18/14/38 15/9/39
f 5/35/40 3/36/41 12/38/42
f 12/38/43 3/36/44 10/37/45
f 8/2/46 25/54/47 19/42/48 21/46/49 23/50/50 7/1/51 9/4/52
f 8/2/53 9/4/54 10/3/55
f 14/15/56 13/16/57 16/18/58
f 16/18/59 13/16/60 17/17/61
f 18/20/62 13/16/63 15/19/64
f 15/19/65 13/16/66 14/15/67
f 16/11/68 17/13/69 12/40/70
f 12/40/71 17/13/72 5/39/73
f 18/14/74 6/30/75 4/23/76 3/36/77 5/39/78 17/17/79 13/16/80
f 1/27/81 4/23/82 2/21/83 24/51/84 22/47/85 20/43/86 26/55/87
f 1/27/88 3/36/89 4/23/90
f 23/49/91 24/52/92 2/22/93 7/1/94
f 25/53/95 26/56/96 20/44/97 19/41/98
f 19/41/99 20/44/100 22/48/101 21/45/102
f 21/45/103 22/48/104 24/52/105 23/49/106
f 1/27/107 26/56/108 25/53/109 8/28/110
