# This file uses centimeters as units for non-parametric coordinates.

v -2.624130 0.000000 5.176830
v 5.176926 0.000000 3.645515
v -5.176926 0.000000 -3.103924
v 2.624130 0.000000 -5.176829
v -4.787827 24.247646 -3.413868
v -2.402115 24.247646 4.738903
v 4.788208 24.247646 3.413868
v 2.402115 24.247646 -4.738998
v 1.697540 28.144133 1.697731
v -1.697922 28.144133 1.697731
v -1.697922 28.144133 -1.697636
v 1.697540 28.144133 -1.697636
v 0.000000 28.144133 2.495766
v 0.000000 28.144133 -2.495766
v -2.495956 28.144133 0.000000
v 0.000000 0.000000 0.000000
v 2.495575 28.144133 0.000000
v 2.402115 24.247646 4.738903
v 2.624130 0.000000 5.176830
v -4.787827 24.247646 3.413868
v -5.176926 0.000000 3.088951
v -2.402115 24.247646 -4.738998
v -2.624130 0.000000 -5.176829
v 4.788208 24.247646 -3.413868
v 5.176926 0.000000 -3.652954
v 0.000000 36.864437 -1.992416
v 1.355362 36.864437 -1.355171
v 1.992416 36.864437 0.000000
v 1.355362 36.864437 1.355362
v 0.000000 36.864437 1.992512
v -1.355743 36.864437 1.355362
v -1.992416 36.864437 0.000000
v -1.355743 36.864437 -1.355171
v 2.470016 40.380707 0.000000
v 0.000000 40.380707 0.000000
v 0.000000 40.380707 2.469921
v 1.680374 40.380707 1.679993
v -1.680756 40.380707 1.679993
v -2.470398 40.380707 0.000000
v 0.000000 40.380707 -2.469826
v 1.680374 40.380707 -1.679993
v -1.680756 40.380707 -1.679993
v 0.000000 37.049259 -2.469826
v 1.680374 37.049259 -1.679802
v 2.470016 37.049259 0.000000
v 1.680374 37.049259 1.679993
v 0.000000 37.049259 2.469921
v -1.680756 37.049259 1.679993
v -2.469635 37.049259 0.000000
v -1.680756 37.049259 -1.679802
v -5.176926 17.795052 -3.518295
v -5.176926 17.795052 3.498936
v -2.623749 17.795052 5.176830
v 2.624130 17.795052 5.176830
v 5.176926 17.795052 3.641510
v 5.176926 17.795052 -3.334999
v 2.624130 17.795052 -5.176829
v -2.623749 17.795052 -5.176829
v -5.176926 6.178331 -3.521729
v -5.176926 6.178331 3.502941
v -2.624130 6.178331 5.176830
v 2.624130 6.178331 5.176830
v 5.176544 6.178331 3.645515
v 5.176926 6.178331 -3.722858
v 2.624130 6.178331 -5.176829
v -2.624130 6.178331 -5.176829
v 5.161285 21.667601 -3.676128
v 5.161285 21.711300 3.670788
v 2.624512 21.711300 5.176830
v -2.623749 21.711300 5.176830
v -5.160904 21.711300 3.670788
v -5.160904 21.667612 -3.676128
v -2.623749 21.755003 -5.176829
v 2.624512 21.755003 -5.176829
v -5.176926 6.178331 1.702595
v -5.176926 17.795052 1.836300
v 5.176544 6.178331 1.906586
v 5.176926 17.795052 1.904583
v -5.176926 17.795052 -1.975918
v -5.176926 6.178331 -1.834297
v 5.176926 17.795052 -2.014828
v 5.176544 6.178331 -2.208805
vt 0.177548 0.252075
vt 0.177548 0.252075
vt 0.094303 0.226704
vt 0.094303 0.226704
vt 0.094303 0.226704
vt 0.094303 0.226704
vt 0.177548 0.252075
vt 0.177548 0.252075
vt 0.177548 0.252075
vt 0.177548 0.252075
vt 0.177548 0.252075
vt 0.094303 0.226704
vt 0.177548 0.252075
vt 0.094303 0.226704
vt 0.177548 0.252075
vt 0.177548 0.252075
vt 0.177548 0.252075
vt 0.177548 0.252075
vt 0.177548 0.252075
vt 0.177548 0.252075
vt 0.177548 0.252075
vt 0.177548 0.252075
vt 0.177548 0.252075
vt 0.177548 0.252075
vt 0.177548 0.252075
vt 0.177548 0.252075
vt 0.094303 0.226704
vt 0.094303 0.226704
vt 0.177548 0.252075
vt 0.177548 0.252075
vt 0.094303 0.226704
vt 0.094303 0.226704
vt 0.094303 0.226704
vt 0.094303 0.226704
vt 0.094303 0.226704
vt 0.177548 0.252075
vt 0.177548 0.252075
vt 0.177548 0.252075
vt 0.177548 0.252075
vt 0.177548 0.252075
vt 0.177548 0.252075
vt 0.177548 0.252075
vt 0.177548 0.252075
vt 0.177548 0.252075
vt 0.177548 0.252075
vt 0.177548 0.252075
vt 0.177548 0.252075
vt 0.177548 0.252075
vt 0.177548 0.252075
vt 0.177548 0.252075
vt 0.177548 0.252075
vt 0.177548 0.252075
vt 0.177548 0.252075
vt 0.177548 0.252075
vt 0.177548 0.252075
vt 0.177548 0.252075
vt 0.177548 0.252075
vt 0.177548 0.252075
vt 0.177548 0.252075
vt 0.094303 0.226704
vt 0.094303 0.226704
vt 0.094303 0.226704
vt 0.094303 0.226704
vt 0.094303 0.226704
vt 0.094303 0.226704
vt 0.094303 0.226704
vt 0.094303 0.226704
vt 0.094303 0.226704
vt 0.094303 0.226704
vt 0.177548 0.252075
vt 0.177548 0.252075
vt 0.177548 0.252075
vt 0.177548 0.252075
vt 0.177548 0.252075
vt 0.177548 0.252075
vt 0.177548 0.252075
vt 0.177548 0.252075
vt 0.177548 0.252075
vt 0.177548 0.252075
vt 0.177548 0.252075
vt 0.177548 0.252075
vt 0.177548 0.252075
vt 0.177548 0.252075
vt 0.177548 0.252075
vt 0.177548 0.252075
vt 0.177548 0.252075
vt 0.177548 0.252075
vt 0.177548 0.252075
vt 0.177548 0.252075
vt 0.177548 0.252075
vt 0.177548 0.252075
vt 0.177548 0.252075
vt 0.177548 0.252075
vt 0.177548 0.252075
vt 0.177548 0.252075
vt 0.177548 0.252075
vt 0.177548 0.252075
vt 0.177548 0.252075
vt 0.177548 0.252075
vt 0.177548 0.252075
vt 0.177548 0.252075
vt 0.177548 0.252075
vt 0.177548 0.252075
vt 0.177548 0.252075
vt 0.177548 0.252075
vt 0.177548 0.252075
vt 0.177548 0.252075
vt 0.038062 0.228673
vt 0.038062 0.228673
vt 0.038062 0.228673
vt 0.038062 0.228673
vt 0.038062 0.228673
vt 0.038062 0.228673
vt 0.038062 0.228673
vt 0.038062 0.228673
vt 0.038062 0.228673
vt 0.038062 0.228673
vt 0.038062 0.228673
vt 0.038062 0.228673
vt 0.038859 0.227877
vt 0.038859 0.227877
vt 0.038859 0.227877
vt 0.038859 0.227877
vt 0.038859 0.227877
vt 0.038859 0.227877
vt 0.038859 0.227877
vt 0.038859 0.227877
vt 0.038859 0.227877
vt 0.038859 0.227877
vt 0.038859 0.227877
vt 0.038859 0.227877
vt 0.094303 0.226704
vt 0.094303 0.226704
vn 0.334933 0.616627 0.712454
vn 0.334933 0.616627 0.712454
vn 0.334933 0.616627 0.712454
vn 0.000000 1.000000 -0.000000
vn 0.000000 1.000000 -0.000000
vn 0.000000 1.000000 -0.000000
vn 0.000000 1.000000 -0.000000
vn 0.000000 0.498931 -0.866641
vn 0.000000 0.498931 -0.866642
vn 0.000000 0.498931 -0.866642
vn 0.000000 -1.000000 0.000000
vn 0.000000 -1.000000 0.000000
vn 0.000000 -1.000000 0.000000
vn 0.861878 0.507116 0.000000
vn 0.861878 0.507116 0.000000
vn 0.861878 0.507116 0.000000
vn -0.671003 0.671022 0.315412
vn -0.671003 0.671022 0.315412
vn -0.671003 0.671022 0.315412
vn -0.530214 -0.017514 0.847683
vn -0.530215 -0.017514 0.847683
vn -0.530214 -0.017514 0.847683
vn -0.530214 -0.017514 0.847683
vn 0.512959 -0.002209 0.858410
vn 0.512959 -0.002209 0.858410
vn 0.512959 -0.002209 0.858410
vn 0.512959 -0.002209 0.858410
vn 0.999992 0.004017 -0.000015
vn 0.999992 0.004015 -0.000015
vn 0.999992 0.004014 -0.000014
vn 0.999992 0.004018 -0.000015
vn 0.000000 0.000000 -1.000000
vn 0.000000 0.000000 -1.000000
vn 0.000000 0.000000 -1.000000
vn 0.000000 0.000000 -1.000000
vn 0.424860 0.052155 0.903755
vn 0.424860 0.052155 0.903756
vn 0.424860 0.052155 0.903755
vn 0.424860 0.052155 0.903755
vn -0.903820 0.052165 0.424722
vn -0.903820 0.052165 0.424722
vn -0.903820 0.052165 0.424722
vn -0.903820 0.052165 0.424722
vn 0.424906 0.052165 -0.903733
vn 0.424906 0.052165 -0.903733
vn 0.424906 0.052165 -0.903733
vn 0.424906 0.052165 -0.903733
vn 0.903777 0.052145 0.424815
vn 0.903777 0.052145 0.424815
vn 0.903777 0.052145 0.424815
vn 0.903777 0.052145 0.424815
vn 0.000000 1.000000 -0.000000
vn 0.000000 1.000000 -0.000000
vn 0.000000 1.000000 -0.000000
vn 0.000000 1.000000 -0.000000
vn -0.424773 0.052155 0.903796
vn -0.424773 0.052155 0.903796
vn -0.424773 0.052155 0.903796
vn -0.424773 0.052155 0.903796
vn 0.000000 -1.000000 0.000000
vn 0.000000 -1.000000 0.000000
vn 0.000000 -1.000000 0.000000
vn -0.527062 -0.016044 -0.849675
vn -0.527062 -0.016044 -0.849675
vn -0.527062 -0.016044 -0.849675
vn -0.527062 -0.016044 -0.849675
vn -0.334903 0.616632 -0.712464
vn -0.334903 0.616632 -0.712464
vn -0.334903 0.616632 -0.712464
vn -0.424819 0.052165 -0.903774
vn -0.424819 0.052165 -0.903774
vn -0.424819 0.052165 -0.903774
vn -0.424819 0.052165 -0.903774
vn 0.000000 1.000000 0.000000
vn 0.000000 1.000000 0.000000
vn 0.000000 1.000000 0.000000
vn 0.000000 1.000000 0.000000
vn 0.000000 1.000000 0.000000
vn 0.000000 1.000000 0.000000
vn 0.000000 1.000000 0.000000
vn 0.000000 1.000000 0.000000
vn -0.903804 0.052167 -0.424755
vn -0.903804 0.052167 -0.424755
vn -0.903804 0.052167 -0.424755
vn -0.903804 0.052167 -0.424755
vn 0.548177 -0.035326 -0.835616
vn 0.548177 -0.035326 -0.835616
vn 0.548177 -0.035326 -0.835616
vn 0.548177 -0.035326 -0.835616
vn 0.670933 0.671098 -0.315397
vn 0.670933 0.671098 -0.315397
vn 0.670933 0.671098 -0.315397
vn 0.903762 0.052147 -0.424848
vn 0.903762 0.052147 -0.424848
vn 0.903762 0.052147 -0.424848
vn 0.903762 0.052147 -0.424848
vn -0.334876 0.616614 0.712492
vn -0.334876 0.616614 0.712492
vn -0.334876 0.616614 0.712492
vn 0.000000 0.498916 0.866651
vn 0.000000 0.498916 0.866651
vn 0.000000 0.498916 0.866651
vn 0.000000 0.000000 1.000000
vn 0.000000 0.000000 1.000000
vn 0.000000 0.000000 1.000000
vn 0.000000 0.000000 1.000000
vn -0.861952 0.506990 0.000000
vn -0.861952 0.506990 0.000000
vn -0.861952 0.506990 0.000000
vn -0.999992 0.004113 -0.000015
vn -0.999992 0.004112 -0.000015
vn -0.999992 0.004091 0.000000
vn -0.670993 0.671026 -0.315424
vn -0.670993 0.671026 -0.315424
vn -0.670993 0.671026 -0.315424
vn 0.334960 0.616645 -0.712426
vn 0.334960 0.616645 -0.712426
vn 0.334960 0.616645 -0.712426
vn 0.670944 0.671094 0.315385
vn 0.670944 0.671094 0.315385
vn 0.670944 0.671094 0.315385
vn -0.384697 0.610126 0.692643
vn -0.384697 0.610126 0.692643
vn -0.384697 0.610126 0.692643
vn -0.384712 0.610144 -0.692619
vn -0.384712 0.610144 -0.692619
vn -0.384712 0.610144 -0.692619
vn 0.384653 0.610176 -0.692624
vn 0.384653 0.610176 -0.692624
vn 0.384653 0.610176 -0.692624
vn 0.384639 0.610158 0.692648
vn 0.384639 0.610158 0.692648
vn 0.384639 0.610158 0.692648
vn 0.000000 -1.000000 0.000000
vn 0.000000 -1.000000 0.000000
vn 0.000000 -1.000000 0.000000
vn 0.000000 -1.000000 0.000000
vn 0.000000 -1.000000 0.000000
vn 0.000000 -1.000000 0.000000
vn 0.000000 -1.000000 0.000000
vn 0.000000 -1.000000 0.000000
vn 0.000000 -1.000000 0.000000
vn 0.000000 -1.000000 0.000000
vn 0.000000 -1.000000 0.000000
vn 0.000000 -1.000000 0.000000
vn 0.000000 -1.000000 0.000000
vn 0.000000 -1.000000 0.000000
vn 0.000000 -1.000000 0.000000
vn 0.000000 -1.000000 0.000000
vn 0.000000 -1.000000 0.000000
vn 0.000000 -1.000000 0.000000
vn 0.425428 -0.000026 -0.904992
vn 0.425428 -0.000026 -0.904992
vn 0.425428 -0.000026 -0.904992
vn 0.425428 -0.000026 -0.904992
vn 0.905005 -0.000012 -0.425401
vn 0.905005 -0.000012 -0.425401
vn 0.905005 -0.000012 -0.425401
vn 0.905005 -0.000012 -0.425401
vn 0.905014 0.000000 0.425382
vn 0.905014 0.000000 0.425382
vn 0.905014 0.000000 0.425382
vn 0.905014 0.000000 0.425382
vn 0.425428 0.000000 0.904992
vn 0.425428 0.000000 0.904992
vn 0.425428 0.000000 0.904992
vn 0.425428 0.000000 0.904992
vn -0.425349 0.000000 0.905029
vn -0.425349 0.000000 0.905029
vn -0.425349 0.000000 0.905029
vn -0.425349 0.000000 0.905029
vn -0.905093 -0.000104 0.425213
vn -0.905093 -0.000104 0.425213
vn -0.905093 -0.000104 0.425213
vn -0.905093 -0.000104 0.425213
vn -0.905084 -0.000116 -0.425233
vn -0.905084 -0.000116 -0.425233
vn -0.905084 -0.000116 -0.425233
vn -0.905084 -0.000116 -0.425233
vn -0.425349 -0.000026 -0.905029
vn -0.425349 -0.000026 -0.905029
vn -0.425349 -0.000026 -0.905029
vn -0.425349 -0.000026 -0.905029
vn 0.167341 -0.919410 -0.355925
vn 0.167341 -0.919410 -0.355925
vn 0.167341 -0.919410 -0.355925
vn 0.167341 -0.919410 -0.355925
vn 0.355811 -0.919469 -0.167260
vn 0.355811 -0.919469 -0.167260
vn 0.355811 -0.919469 -0.167260
vn 0.355811 -0.919469 -0.167260
vn 0.355818 -0.919469 0.167245
vn 0.355818 -0.919469 0.167245
vn 0.355818 -0.919469 0.167245
vn 0.355818 -0.919469 0.167245
vn 0.167322 -0.919410 0.355935
vn 0.167322 -0.919410 0.355935
vn 0.167322 -0.919410 0.355935
vn 0.167322 -0.919410 0.355935
vn -0.167287 -0.919410 0.355949
vn -0.167287 -0.919410 0.355949
vn -0.167287 -0.919410 0.355949
vn -0.167287 -0.919410 0.355949
vn -0.355985 -0.919414 0.167190
vn -0.355985 -0.919414 0.167190
vn -0.355985 -0.919414 0.167190
vn -0.355985 -0.919414 0.167190
vn -0.355977 -0.919414 -0.167208
vn -0.355977 -0.919414 -0.167208
vn -0.355977 -0.919414 -0.167208
vn -0.355977 -0.919414 -0.167208
vn -0.167305 -0.919409 -0.355944
vn -0.167305 -0.919409 -0.355944
vn -0.167305 -0.919409 -0.355944
vn -0.167305 -0.919409 -0.355944
vn -1.000000 0.000000 0.000000
vn -1.000000 0.000000 0.000000
vn -1.000000 0.000000 0.000000
vn -1.000000 0.000000 0.000000
vn -0.548770 0.000153 0.835974
vn -0.548770 0.000153 0.835974
vn -0.548770 0.000153 0.835974
vn -0.548770 0.000153 0.835974
vn 0.000000 0.000000 1.000000
vn 0.000000 0.000000 1.000000
vn 0.000000 0.000000 1.000000
vn 0.000000 0.000000 1.000000
vn 0.514929 0.000139 0.857233
vn 0.514929 0.000139 0.857233
vn 0.514929 0.000139 0.857233
vn 0.514929 0.000139 0.857233
vn 1.000000 -0.000033 0.000000
vn 1.000000 -0.000033 0.000000
vn 1.000000 -0.000033 0.000000
vn 1.000000 -0.000033 0.000000
vn 0.542291 0.014024 -0.840074
vn 0.542291 0.014024 -0.840074
vn 0.542291 0.014024 -0.840074
vn 0.542291 0.014024 -0.840074
vn 0.000000 0.000000 -1.000000
vn 0.000000 0.000000 -1.000000
vn 0.000000 0.000000 -1.000000
vn 0.000000 0.000000 -1.000000
vn -0.544382 0.000133 -0.838837
vn -0.544382 0.000133 -0.838837
vn -0.544382 0.000133 -0.838837
vn -0.544382 0.000133 -0.838837
vn -1.000000 0.000000 0.000000
vn -1.000000 0.000000 0.000000
vn -1.000000 0.000000 0.000000
vn -0.592958 -0.026963 0.804782
vn -0.592958 -0.026963 0.804782
vn -0.592958 -0.026963 0.804782
vn -0.592958 -0.026963 0.804782
vn 0.000000 0.000000 1.000000
vn 0.000000 0.000000 1.000000
vn 0.000000 0.000000 1.000000
vn 0.000000 0.000000 1.000000
vn 0.514434 0.000016 0.857530
vn 0.514434 0.000016 0.857530
vn 0.514434 0.000016 0.857530
vn 0.514435 0.000016 0.857530
vn 1.000000 0.000062 0.000000
vn 1.000000 0.000062 0.000000
vn 1.000000 0.000062 0.000000
vn 0.503813 -0.004887 -0.863799
vn 0.503813 -0.004887 -0.863799
vn 0.503813 -0.004887 -0.863799
vn 0.503813 -0.004887 -0.863799
vn 0.000000 0.000000 -1.000000
vn 0.000000 0.000000 -1.000000
vn 0.000000 0.000000 -1.000000
vn 0.000000 0.000000 -1.000000
vn -0.589487 -0.027297 -0.807316
vn -0.589487 -0.027297 -0.807316
vn -0.589487 -0.027297 -0.807316
vn -0.589487 -0.027297 -0.807316
vn 0.989532 0.144310 -0.000445
vn 0.989532 0.144310 -0.000445
vn 0.989532 0.144310 -0.000445
vn 0.989532 0.144310 -0.000445
vn 0.490875 0.174543 0.853567
vn 0.490875 0.174543 0.853567
vn 0.490875 0.174543 0.853567
vn 0.490875 0.174543 0.853567
vn 0.000000 0.170143 0.985419
vn 0.000000 0.170143 0.985419
vn 0.000000 0.170143 0.985419
vn 0.000000 0.170143 0.985419
vn -0.490882 0.174471 0.853578
vn -0.490882 0.174471 0.853578
vn -0.490882 0.174471 0.853578
vn -0.490882 0.174471 0.853578
vn -0.989532 0.144310 -0.000445
vn -0.989532 0.144310 -0.000445
vn -0.989532 0.144310 -0.000445
vn -0.989532 0.144310 -0.000445
vn -0.492457 0.175388 -0.852482
vn -0.492457 0.175388 -0.852482
vn -0.492457 0.175388 -0.852482
vn -0.492457 0.175388 -0.852482
vn 0.000000 0.173001 -0.984922
vn 0.000000 0.173001 -0.984922
vn 0.000000 0.173001 -0.984922
vn 0.000000 0.173001 -0.984922
vn 0.492452 0.175459 -0.852470
vn 0.492452 0.175459 -0.852470
vn 0.492452 0.175459 -0.852470
vn 0.492452 0.175459 -0.852470
vn -1.000000 -0.000000 0.000000
vn -1.000000 0.000000 0.000000
vn -1.000000 0.000000 0.000000
vn -1.000000 -0.000000 0.000000
vn 1.000000 -0.000020 0.000135
vn 1.000000 -0.000029 0.000035
vn 1.000000 -0.000029 0.000036
vn 1.000000 -0.000020 0.000135
vn -1.000000 0.000000 0.000000
vn -1.000000 0.000000 0.000000
vn -1.000000 0.000000 0.000000
vn -1.000000 0.000000 0.000000
vn 1.000000 -0.000029 0.000036
vn 1.000000 -0.000029 0.000035
vn 1.000000 -0.000033 0.000000
vn 1.000000 -0.000033 0.000000
vn 0.999992 0.004014 -0.000014
vn 0.999992 0.004015 -0.000015
vn 0.999992 0.003994 0.000000
vn 1.000000 0.000060 0.000006
vn 1.000000 0.000056 0.000023
vn 1.000000 0.000062 0.000000
vn 1.000000 0.000062 0.000000
vn 1.000000 0.000003 0.000252
vn 1.000000 0.000056 0.000023
vn 1.000000 0.000060 0.000006
vn 0.999992 0.004017 -0.000015
vn 0.999992 0.004018 -0.000015
vn 0.999992 0.004039 0.000000
vn -0.999992 0.004116 -0.000015
vn -0.999992 0.004115 -0.000015
vn -0.999991 0.004137 0.000000
vn -1.000000 0.000000 0.000000
vn -1.000000 0.000000 0.000000
vn -1.000000 0.000000 0.000000
vn -1.000000 0.000000 0.000000
vn -1.000000 0.000000 0.000000
vn -1.000000 0.000000 0.000000
vn -1.000000 0.000000 0.000000
vn -0.999992 0.004113 -0.000015
vn -0.999992 0.004115 -0.000015
vn -0.999992 0.004116 -0.000015
vn -0.999992 0.004112 -0.000015
s off
f 13/29/1 18/39/2 9/21/3
f 34/3/4 35/4/5 36/5/6 37/6/7
f 14/30/8 8/19/9 22/45/10
f 16/37/11 19/41/12 1/9/13
f 17/38/14 7/18/15 24/47/16
f 15/36/17 20/42/18 10/22/19
f 70/93/20 71/94/21 52/72/22 53/73/23
f 68/91/24 69/92/25 54/74/26 55/75/27
f 67/90/28 68/91/29 78/103/30 81/106/31
f 57/77/32 58/79/33 73/97/34 74/98/35
f 29/54/36 30/55/37 13/29/38 9/21/39
f 31/56/40 32/57/41 15/36/42 10/22/43
f 14/30/44 26/50/45 27/51/46 12/25/47
f 9/21/48 17/38/49 28/53/50 29/54/51
f 38/12/52 36/5/53 35/4/54 39/14/55
f 10/22/56 13/29/57 30/55/58 31/56/59
f 16/37/60 21/44/61 3/7/62
f 72/96/63 73/97/64 58/79/65 51/71/66
f 11/24/67 14/30/68 22/45/69
f 33/59/70 26/50/71 14/30/72 11/24/73
f 40/27/74 35/4/75 34/3/76 41/28/77
f 39/14/78 35/4/79 40/27/80 42/31/81
f 11/23/82 15/36/83 32/57/84 33/58/85
f 74/99/86 67/90/87 56/76/88 57/78/89
f 17/38/90 24/47/91 12/26/92
f 27/52/93 28/53/94 17/38/95 12/26/96
f 6/17/97 13/29/98 10/22/99
f 18/39/100 13/29/101 6/17/102
f 69/92/103 70/93/104 53/73/105 54/74/106
f 20/42/107 15/36/108 5/15/109
f 71/94/110 76/101/111 52/72/112
f 5/15/113 15/36/114 11/23/115
f 8/19/116 14/30/117 12/25/118
f 7/18/119 17/38/120 9/21/121
f 10/22/122 20/42/123 6/17/124
f 11/24/125 22/45/126 5/16/127
f 12/26/128 24/47/129 8/20/130
f 9/21/131 18/39/132 7/18/133
f 21/44/134 16/37/135 1/9/136
f 2/10/137 16/37/138 25/48/139
f 19/41/140 16/37/141 2/10/142
f 4/8/143 16/37/144 23/46/145
f 25/48/146 16/37/147 4/8/148
f 3/7/149 23/46/150 16/37/151
f 44/32/152 43/33/153 40/27/154 41/28/155
f 34/3/156 45/34/157 44/32/158 41/28/159
f 46/35/160 45/34/161 34/3/162 37/6/163
f 36/5/164 47/60/165 46/35/166 37/6/167
f 48/61/168 47/60/169 36/5/170 38/12/171
f 39/14/172 49/62/173 48/61/174 38/12/175
f 50/63/176 49/62/177 39/14/178 42/31/179
f 42/31/180 40/27/181 43/33/182 50/63/183
f 27/64/184 26/65/185 43/33/186 44/32/187
f 28/66/188 27/64/189 44/32/190 45/34/191
f 29/67/192 28/66/193 45/34/194 46/35/195
f 30/68/196 29/67/197 46/35/198 47/60/199
f 31/69/200 30/68/201 47/60/202 48/61/203
f 32/132/204 31/69/205 48/61/206 49/62/207
f 33/133/208 32/132/209 49/62/210 50/63/211
f 26/65/212 33/133/213 50/63/214 43/33/215
f 75/100/216 76/101/217 79/104/218 80/105/219
f 53/108/220 52/109/221 60/110/222 61/111/223
f 54/112/224 53/108/225 61/111/226 62/113/227
f 55/114/228 54/112/229 62/113/230 63/115/231
f 77/116/232 78/117/233 55/114/234 63/115/235
f 57/120/236 56/121/237 64/122/238 65/123/239
f 65/123/240 66/124/241 58/125/242 57/120/243
f 51/126/244 58/125/245 66/124/246 59/127/247
f 60/82/248 75/100/249 21/43/250
f 61/83/251 60/82/252 21/43/253 1/1/254
f 62/84/255 61/83/256 1/1/257 19/40/258
f 63/85/259 62/84/260 19/40/261 2/2/262
f 2/2/263 77/102/264 63/85/265
f 65/88/266 64/86/267 25/49/268 4/11/269
f 23/46/270 66/89/271 65/87/272 4/8/273
f 59/81/274 66/89/275 23/46/276 3/7/277
f 24/47/278 7/18/279 68/91/280 67/90/281
f 7/18/282 18/39/283 69/92/284 68/91/285
f 18/39/286 6/17/287 70/93/288 69/92/289
f 6/17/290 20/42/291 71/94/292 70/93/293
f 20/42/294 5/15/295 72/95/296 71/94/297
f 5/16/298 22/45/299 73/97/300 72/96/301
f 74/98/302 73/97/303 22/45/304 8/19/305
f 8/20/306 24/47/307 67/90/308 74/99/309
f 52/109/310 76/118/311 75/119/312 60/110/313
f 56/121/314 81/128/315 82/129/316 64/122/317
f 80/130/318 79/131/319 51/126/320 59/127/321
f 82/107/322 81/106/323 78/103/324 77/102/325
f 78/103/326 68/91/327 55/75/328
f 25/49/329 82/107/330 77/102/331 2/2/332
f 64/86/333 82/107/334 25/49/335
f 67/90/336 81/106/337 56/76/338
f 79/104/339 72/95/340 51/70/341
f 21/43/342 75/100/343 80/105/344 3/13/345
f 3/13/346 80/105/347 59/80/348
f 71/94/349 72/95/350 79/104/351 76/101/352
