# This file uses centimeters as units for non-parametric coordinates.

v -27.109337 0.000000 25.556564
v -22.882462 0.000000 28.959846
v -19.608879 45.315170 18.060875
v -16.231918 45.292664 20.779800
v -16.915512 44.942474 14.715576
v -13.538551 44.919586 17.434502
v -23.731422 0.000000 21.361160
v -19.504547 0.000000 24.764633
v 25.299644 0.000000 27.404404
v 29.366493 0.000000 23.811913
v 17.684555 45.286942 19.684029
v 20.933533 45.330811 16.813850
v 14.842606 44.904327 16.466904
v 18.091583 44.947815 13.596821
v 21.735191 0.000000 23.369598
v 25.802040 0.000000 19.776917
v 25.882912 0.000000 -21.330833
v 29.914856 0.000000 -24.892616
v 18.105316 44.910049 -14.691257
v 21.319389 45.310211 -17.530441
v 15.234852 44.924545 -17.940521
v 18.448830 45.324707 -20.779800
v 22.289848 0.000000 -25.398064
v 26.321793 0.000000 -28.959846
v -27.265358 0.000000 -21.039772
v -23.198509 0.000000 -24.632454
v -19.392395 44.938278 -14.486504
v -16.143417 44.899750 -17.356682
v -22.232246 45.335007 -17.701149
v -18.983269 45.296097 -20.571327
v -30.827713 0.000000 -25.072289
v -26.760864 0.000000 -28.664970
v -26.332283 42.588043 26.711464
v 26.928139 42.588043 26.711464
v -26.332283 48.653793 26.711464
v 26.928139 48.653793 26.711464
v -27.609062 48.653793 -26.759529
v 28.926849 48.653793 -26.759529
v -27.609062 42.588043 -26.759529
v 28.926849 42.588043 -26.759529
v -21.647263 43.803406 10.646343
v -21.647263 47.438431 10.646343
v 26.029968 47.438431 10.646343
v 26.029968 43.803406 10.646343
v -21.647263 47.438431 -8.722878
v -21.647263 43.803406 -8.722878
v 26.029968 43.803406 -8.722878
v 26.029968 47.438431 -8.722878
v 28.926849 48.653793 -10.794067
v -27.609062 48.653793 -10.794067
v -27.609062 42.588043 -10.794067
v 28.926849 42.588043 -10.794067
v -24.544144 42.588043 -6.489038
v -24.544144 48.653793 -6.489038
v 30.827713 48.653793 -6.489038
v 30.827713 42.588043 -6.489038
v -24.544144 42.588043 8.931160
v -24.544144 48.653793 8.931160
v 30.827713 48.653793 8.931160
v 30.827713 42.588043 8.931160
v -26.332283 42.588043 12.016201
v -26.332283 48.653793 12.016201
v 26.928139 48.653793 12.016201
v 26.928139 42.588043 12.016201
v -26.261520 19.912148 25.502205
v 27.209663 19.912148 25.502205
v -26.261520 22.764015 25.502205
v 27.209663 22.764015 25.502205
v -26.261520 22.764015 22.577286
v 27.209663 22.764015 22.577286
v -26.261520 19.912148 22.577286
v 27.209663 19.912148 22.577286
v -26.261520 19.912148 -23.556137
v 27.209663 19.912148 -23.556137
v -26.261520 22.764015 -23.556137
v 27.209663 22.764015 -23.556137
v -26.261520 22.764015 -26.481056
v 27.209663 22.764015 -26.481056
v -26.261520 19.912148 -26.481056
v 27.209663 19.912148 -26.481056
v -26.596451 15.429878 -27.224922
v -26.596451 15.429878 26.246071
v -26.596451 18.281555 -27.224922
v -26.596451 18.281555 26.246071
v -23.550034 18.281555 -27.224922
v -23.550034 18.281555 26.246071
v -23.550034 15.429878 -27.224922
v -23.550034 15.429878 26.246071
v 24.498177 15.429878 -27.224922
v 24.498177 15.429878 26.246071
v 24.498177 18.281555 -27.224922
v 24.498177 18.281555 26.246071
v 27.544594 18.281555 -27.224922
v 27.544594 18.281555 26.246071
v 27.544594 15.429878 -27.224922
v 27.544594 15.429878 26.246071
vt 0.210782 0.301968
vt 0.210782 0.301968
vt 0.210782 0.301968
vt 0.210782 0.301968
vt 0.210782 0.301968
vt 0.210782 0.301968
vt 0.210782 0.301968
vt 0.210782 0.301968
vt 0.210782 0.301968
vt 0.210782 0.301968
vt 0.210782 0.301968
vt 0.210782 0.301968
vt 0.210782 0.301968
vt 0.210782 0.301968
vt 0.210782 0.301968
vt 0.210782 0.301968
vt 0.210782 0.301968
vt 0.210782 0.301968
vt 0.210782 0.301968
vt 0.210782 0.301968
vt 0.210782 0.301968
vt 0.210782 0.301968
vt 0.210782 0.301968
vt 0.210782 0.301968
vt 0.210782 0.301968
vt 0.210782 0.301968
vt 0.210782 0.301968
vt 0.210782 0.301968
vt 0.210782 0.301968
vt 0.210782 0.301968
vt 0.210782 0.301968
vt 0.210782 0.301968
vt 0.210782 0.301968
vt 0.210782 0.301968
vt 0.210782 0.301968
vt 0.210782 0.301968
vt 0.210782 0.301968
vt 0.210782 0.301968
vt 0.210782 0.301968
vt 0.210782 0.301968
vt 0.210782 0.301968
vt 0.210782 0.301968
vt 0.210782 0.301968
vt 0.210782 0.301968
vt 0.210782 0.301968
vt 0.210782 0.301968
vt 0.210782 0.301968
vt 0.210782 0.301968
vt 0.210782 0.301968
vt 0.210782 0.301968
vt 0.210782 0.301968
vt 0.210782 0.301968
vt 0.210782 0.301968
vt 0.210782 0.301968
vt 0.210782 0.301968
vt 0.210782 0.301968
vt 0.210782 0.327449
vt 0.210782 0.327449
vt 0.210782 0.327449
vt 0.210782 0.327449
vt 0.210782 0.327449
vt 0.210782 0.327449
vt 0.210782 0.327449
vt 0.210782 0.327449
vt 0.210782 0.327449
vt 0.210782 0.327449
vt 0.210782 0.327449
vt 0.210782 0.327449
vt 0.210782 0.327449
vt 0.210782 0.327449
vt 0.210782 0.327448
vt 0.210782 0.327448
vt 0.210782 0.327449
vt 0.210782 0.327449
vt 0.210782 0.327449
vt 0.210782 0.327449
vt 0.210782 0.327449
vt 0.210782 0.327449
vt 0.210782 0.327449
vt 0.210782 0.327449
vt 0.210782 0.327449
vt 0.210782 0.327449
vt 0.210782 0.327449
vt 0.210782 0.327449
vt 0.210782 0.327449
vt 0.210782 0.327449
vt 0.210782 0.327449
vt 0.210782 0.327449
vt 0.210782 0.327449
vt 0.210782 0.327449
vt 0.210782 0.327449
vt 0.210782 0.327449
vt 0.210782 0.327449
vt 0.210782 0.327449
vt 0.210782 0.327448
vt 0.210782 0.327448
vt 0.210782 0.327449
vt 0.210782 0.327449
vt 0.210782 0.327448
vt 0.210782 0.327448
vt 0.210782 0.327449
vt 0.210782 0.327449
vt 0.210782 0.327448
vt 0.210782 0.327448
vt 0.210782 0.327449
vt 0.210782 0.327449
vt 0.210782 0.327449
vt 0.210782 0.327449
vt 0.210782 0.327449
vt 0.210782 0.327449
vt 0.210782 0.327449
vt 0.210782 0.327449
vt 0.210782 0.327449
vt 0.210782 0.327449
vt 0.210782 0.327449
vt 0.210782 0.327449
vt 0.210782 0.327449
vt 0.210782 0.327449
vt 0.210083 0.330536
vt 0.210083 0.330536
vt 0.210083 0.330536
vt 0.210083 0.330536
vt 0.210083 0.330536
vt 0.210083 0.330536
vt 0.210083 0.330536
vt 0.210083 0.330536
vt 0.210083 0.330536
vt 0.210083 0.330536
vt 0.210083 0.330536
vt 0.210083 0.330536
vt 0.210083 0.330536
vt 0.210083 0.330536
vt 0.210083 0.330536
vt 0.210083 0.330536
vt 0.210083 0.330536
vt 0.210083 0.330536
vt 0.210083 0.330536
vt 0.210083 0.330536
vt 0.210083 0.330536
vt 0.210083 0.330536
vt 0.210083 0.330536
vt 0.210083 0.330536
vt 0.210083 0.330536
vt 0.210083 0.330536
vt 0.210083 0.330536
vt 0.210083 0.330536
vt 0.210083 0.330536
vt 0.210083 0.330536
vt 0.210083 0.330536
vt 0.210083 0.330536
vt 0.210083 0.330536
vt 0.210083 0.330536
vt 0.210083 0.330536
vt 0.210083 0.330536
vt 0.210083 0.330536
vt 0.210083 0.330536
vt 0.210083 0.330536
vt 0.210083 0.330536
vt 0.210083 0.330536
vt 0.210083 0.330536
vt 0.210083 0.330536
vt 0.210083 0.330536
vt 0.210083 0.330536
vt 0.210083 0.330536
vt 0.210083 0.330536
vt 0.210083 0.330536
vt 0.210083 0.330536
vt 0.210083 0.330536
vt 0.210083 0.330536
vt 0.210083 0.330536
vt 0.210083 0.330536
vt 0.210083 0.330536
vt 0.210083 0.330536
vt 0.210083 0.330536
vn -0.610408 0.226639 0.758971
vn -0.610408 0.226639 0.758971
vn -0.610408 0.226639 0.758971
vn -0.610408 0.226639 0.758971
vn 0.058307 0.996240 -0.064080
vn 0.058307 0.996240 -0.064080
vn 0.058307 0.996240 -0.064080
vn 0.058307 0.996240 -0.064080
vn 0.613335 -0.205832 -0.762530
vn 0.613335 -0.205832 -0.762530
vn 0.613335 -0.205832 -0.762530
vn 0.613335 -0.205832 -0.762530
vn -0.000000 -1.000000 0.000000
vn -0.000000 -1.000000 0.000000
vn -0.000000 -1.000000 0.000000
vn -0.000000 -1.000000 0.000000
vn 0.778881 -0.001100 0.627171
vn 0.778881 -0.001100 0.627171
vn 0.778881 -0.001100 0.627171
vn 0.778881 -0.001100 0.627171
vn -0.778058 0.025070 -0.627692
vn -0.778058 0.025070 -0.627692
vn -0.778058 0.025070 -0.627692
vn -0.778058 0.025070 -0.627692
vn 0.643154 0.232407 0.729616
vn 0.643154 0.232407 0.729616
vn 0.643154 0.232407 0.729616
vn 0.643154 0.232407 0.729616
vn -0.066331 0.995994 -0.059962
vn -0.066331 0.995994 -0.059962
vn -0.066331 0.995994 -0.059962
vn -0.066331 0.995994 -0.059962
vn -0.646334 -0.211782 -0.733077
vn -0.646334 -0.211782 -0.733077
vn -0.646334 -0.211782 -0.733077
vn -0.646334 -0.211782 -0.733077
vn 0.000000 -1.000000 0.000000
vn 0.000000 -1.000000 0.000000
vn 0.000000 -1.000000 0.000000
vn 0.000000 -1.000000 0.000000
vn 0.747966 0.037014 -0.662704
vn 0.747966 0.037014 -0.662704
vn 0.747966 0.037014 -0.662704
vn 0.747966 0.037014 -0.662704
vn -0.749043 -0.013090 0.662392
vn -0.749043 -0.013090 0.662392
vn -0.749043 -0.013090 0.662392
vn -0.749043 -0.013090 0.662392
vn 0.661937 0.003801 0.749550
vn 0.661937 0.003801 0.749549
vn 0.661937 0.003801 0.749550
vn 0.661937 0.003801 0.749550
vn -0.067467 0.995669 0.063959
vn -0.067467 0.995669 0.063959
vn -0.067467 0.995669 0.063959
vn -0.067467 0.995669 0.063959
vn -0.662550 0.020145 -0.748747
vn -0.662550 0.020145 -0.748747
vn -0.662550 0.020145 -0.748747
vn -0.662550 0.020145 -0.748747
vn 0.000000 -1.000000 0.000000
vn 0.000000 -1.000000 0.000000
vn 0.000000 -1.000000 0.000000
vn 0.000000 -1.000000 0.000000
vn 0.727358 0.242266 -0.642073
vn 0.727358 0.242266 -0.642073
vn 0.727358 0.242266 -0.642073
vn 0.727358 0.242266 -0.642073
vn -0.730971 -0.221955 0.645304
vn -0.730971 -0.221955 0.645304
vn -0.730971 -0.221955 0.645304
vn -0.730971 -0.221955 0.645304
vn 0.645207 -0.219844 0.731694
vn 0.645207 -0.219844 0.731694
vn 0.645207 -0.219844 0.731694
vn 0.645207 -0.219844 0.731694
vn 0.067634 0.995713 0.063101
vn 0.067634 0.995713 0.063101
vn 0.067634 0.995713 0.063101
vn 0.067634 0.995713 0.063101
vn -0.641958 0.240220 -0.728138
vn -0.641958 0.240220 -0.728138
vn -0.641958 0.240220 -0.728138
vn -0.641958 0.240220 -0.728138
vn 0.000000 -1.000000 0.000000
vn 0.000000 -1.000000 0.000000
vn 0.000000 -1.000000 0.000000
vn 0.000000 -1.000000 0.000000
vn 0.749131 -0.010329 -0.662342
vn 0.749131 -0.010329 -0.662342
vn 0.749131 -0.010329 -0.662342
vn 0.749131 -0.010329 -0.662342
vn -0.748081 0.034247 0.662723
vn -0.748081 0.034247 0.662723
vn -0.748081 0.034247 0.662723
vn -0.748081 0.034247 0.662723
vn 0.000000 0.000000 1.000000
vn 0.000000 0.000000 1.000000
vn 0.000000 0.000000 1.000000
vn 0.000000 0.000000 1.000000
vn 0.000000 0.878397 -0.477931
vn 0.000000 0.878397 -0.477931
vn 0.000000 0.878397 -0.477931
vn 0.000000 0.878397 -0.477931
vn 0.000000 0.000000 -1.000000
vn 0.000000 0.000000 -1.000000
vn 0.000000 0.000000 -1.000000
vn 0.000000 0.000000 -1.000000
vn 0.000000 -0.878398 -0.477929
vn 0.000000 -0.878398 -0.477929
vn 0.000000 -0.878398 -0.477929
vn 0.000000 -0.878398 -0.477929
vn 0.422091 0.000000 -0.906554
vn 0.422091 0.000000 -0.906554
vn 0.422091 0.000000 -0.906554
vn 0.422091 0.000000 -0.906554
vn -0.610640 0.000001 -0.791909
vn -0.610640 0.000001 -0.791909
vn -0.610640 0.000001 -0.791909
vn -0.610640 0.000001 -0.791909
vn -0.280639 0.000001 -0.959813
vn -0.280639 0.000001 -0.959813
vn -0.280639 0.000001 -0.959813
vn -0.280639 0.000001 -0.959813
vn 0.000000 0.748021 -0.663675
vn 0.000000 0.748021 -0.663675
vn 0.000000 0.748021 -0.663675
vn 0.000000 0.748021 -0.663675
vn 0.836264 0.000001 -0.548328
vn 0.836264 0.000001 -0.548328
vn 0.836264 0.000001 -0.548328
vn 0.836264 0.000001 -0.548328
vn 0.000000 -0.748018 -0.663678
vn 0.000000 -0.748018 -0.663678
vn 0.000000 -0.748018 -0.663678
vn 0.000000 -0.748018 -0.663678
vn -0.328172 -0.000000 0.944618
vn -0.328172 -0.000000 0.944618
vn -0.328172 -0.000000 0.944618
vn -0.328172 -0.000000 0.944618
vn 0.000000 -0.862473 0.506104
vn 0.000000 -0.862472 0.506104
vn 0.000000 -0.862472 0.506104
vn 0.000000 -0.862472 0.506104
vn 0.581608 -0.000001 0.813469
vn 0.581608 -0.000001 0.813469
vn 0.581608 -0.000001 0.813469
vn 0.581608 -0.000001 0.813469
vn 0.000000 0.862473 0.506103
vn 0.000000 0.862473 0.506103
vn 0.000000 0.862473 0.506103
vn 0.000000 0.862473 0.506103
vn 0.000000 1.000000 0.000000
vn 0.000000 1.000000 0.000000
vn 0.000000 1.000000 0.000000
vn 0.000000 1.000000 0.000000
vn -1.000000 0.000000 0.000000
vn -1.000000 0.000000 0.000000
vn -1.000000 0.000000 0.000000
vn -1.000000 0.000000 0.000000
vn 0.000000 -1.000000 0.000000
vn 0.000000 -1.000000 0.000000
vn 0.000000 -1.000000 0.000000
vn 0.000000 -1.000000 0.000000
vn 1.000000 0.000000 0.000000
vn 1.000000 0.000000 0.000000
vn 1.000000 0.000000 0.000000
vn 1.000000 0.000000 0.000000
vn -1.000000 0.000000 0.000000
vn -1.000000 0.000000 0.000000
vn -1.000000 0.000000 0.000000
vn -1.000000 0.000000 0.000000
vn 0.000000 1.000000 0.000000
vn 0.000000 1.000000 0.000000
vn 0.000000 1.000000 0.000000
vn 0.000000 1.000000 0.000000
vn 1.000000 0.000000 0.000000
vn 1.000000 0.000000 0.000000
vn 1.000000 0.000000 0.000000
vn 1.000000 0.000000 0.000000
vn 0.000000 -1.000000 0.000000
vn 0.000000 -1.000000 0.000000
vn 0.000000 -1.000000 0.000000
vn 0.000000 -1.000000 0.000000
vn -0.509467 -0.000001 0.860490
vn -0.509467 -0.000001 0.860490
vn -0.509467 -0.000001 0.860490
vn -0.509467 -0.000001 0.860490
vn 0.000000 0.815914 0.578173
vn 0.000000 0.815914 0.578174
vn 0.000000 0.815914 0.578173
vn 0.000000 0.815914 0.578173
vn 0.336632 -0.000000 0.941636
vn 0.336632 -0.000000 0.941636
vn 0.336632 -0.000000 0.941636
vn 0.336632 -0.000000 0.941636
vn 0.000000 -0.815915 0.578172
vn 0.000000 -0.815915 0.578172
vn 0.000000 -0.815915 0.578172
vn 0.000000 -0.815915 0.578172
vn -1.000000 0.000000 0.000000
vn -1.000000 0.000000 0.000000
vn -1.000000 0.000000 0.000000
vn -1.000000 0.000000 0.000000
vn 0.000000 1.000000 0.000000
vn 0.000000 1.000000 0.000000
vn 0.000000 1.000000 0.000000
vn 0.000000 1.000000 0.000000
vn 1.000000 0.000000 0.000000
vn 1.000000 0.000000 0.000000
vn 1.000000 0.000000 0.000000
vn 1.000000 0.000000 0.000000
vn 0.000000 -1.000000 0.000000
vn 0.000000 -1.000000 0.000000
vn 0.000000 -1.000000 0.000000
vn 0.000000 -1.000000 0.000000
vn 0.000000 0.000000 1.000000
vn 0.000000 0.000000 1.000000
vn 0.000000 0.000000 1.000000
vn 0.000000 0.000000 1.000000
vn 0.000000 1.000000 0.000000
vn 0.000000 1.000000 0.000000
vn 0.000000 1.000000 0.000000
vn 0.000000 1.000000 0.000000
vn 0.000000 0.000000 -1.000000
vn 0.000000 0.000000 -1.000000
vn 0.000000 0.000000 -1.000000
vn 0.000000 0.000000 -1.000000
vn 0.000000 -1.000000 0.000000
vn 0.000000 -1.000000 0.000000
vn 0.000000 -1.000000 0.000000
vn 0.000000 -1.000000 0.000000
vn 1.000000 0.000000 0.000000
vn 1.000000 0.000000 0.000000
vn 1.000000 0.000000 0.000000
vn 1.000000 0.000000 0.000000
vn -1.000000 0.000000 0.000000
vn -1.000000 0.000000 0.000000
vn -1.000000 0.000000 0.000000
vn -1.000000 0.000000 0.000000
vn 0.000000 0.000000 1.000000
vn 0.000000 0.000000 1.000000
vn 0.000000 0.000000 1.000000
vn 0.000000 0.000000 1.000000
vn 0.000000 1.000000 0.000000
vn 0.000000 1.000000 0.000000
vn 0.000000 1.000000 0.000000
vn 0.000000 1.000000 0.000000
vn 0.000000 0.000000 -1.000000
vn 0.000000 0.000000 -1.000000
vn 0.000000 0.000000 -1.000000
vn 0.000000 0.000000 -1.000000
vn 0.000000 -1.000000 0.000000
vn 0.000000 -1.000000 0.000000
vn 0.000000 -1.000000 0.000000
vn 0.000000 -1.000000 0.000000
vn 1.000000 0.000000 0.000000
vn 1.000000 0.000000 0.000000
vn 1.000000 0.000000 0.000000
vn 1.000000 0.000000 0.000000
vn -1.000000 0.000000 0.000000
vn -1.000000 0.000000 0.000000
vn -1.000000 0.000000 0.000000
vn -1.000000 0.000000 0.000000
vn -1.000000 0.000000 0.000000
vn -1.000000 0.000000 0.000000
vn -1.000000 0.000000 0.000000
vn -1.000000 0.000000 0.000000
vn 0.000000 1.000000 0.000000
vn 0.000000 1.000000 0.000000
vn 0.000000 1.000000 0.000000
vn 0.000000 1.000000 0.000000
vn 1.000000 0.000000 0.000000
vn 1.000000 0.000000 0.000000
vn 1.000000 0.000000 0.000000
vn 1.000000 0.000000 0.000000
vn 0.000000 -1.000000 0.000000
vn 0.000000 -1.000000 0.000000
vn 0.000000 -1.000000 0.000000
vn 0.000000 -1.000000 0.000000
vn 0.000000 0.000000 1.000000
vn 0.000000 0.000000 1.000000
vn 0.000000 0.000000 1.000000
vn 0.000000 0.000000 1.000000
vn 0.000000 0.000000 -1.000000
vn 0.000000 0.000000 -1.000000
vn 0.000000 0.000000 -1.000000
vn 0.000000 0.000000 -1.000000
vn -1.000000 0.000000 0.000000
vn -1.000000 0.000000 0.000000
vn -1.000000 0.000000 0.000000
vn -1.000000 0.000000 0.000000
vn 0.000000 1.000000 0.000000
vn 0.000000 1.000000 0.000000
vn 0.000000 1.000000 0.000000
vn 0.000000 1.000000 0.000000
vn 1.000000 0.000000 0.000000
vn 1.000000 0.000000 0.000000
vn 1.000000 0.000000 0.000000
vn 1.000000 0.000000 0.000000
vn 0.000000 -1.000000 0.000000
vn 0.000000 -1.000000 0.000000
vn 0.000000 -1.000000 0.000000
vn 0.000000 -1.000000 0.000000
vn 0.000000 0.000000 1.000000
vn 0.000000 0.000000 1.000000
vn 0.000000 0.000000 1.000000
vn 0.000000 0.000000 1.000000
vn 0.000000 0.000000 -1.000000
vn 0.000000 0.000000 -1.000000
vn 0.000000 0.000000 -1.000000
vn 0.000000 0.000000 -1.000000
s off
f 1/1/1 2/2/2 4/4/3 3/3/4
f 3/3/5 4/4/6 6/6/7 5/5/8
f 5/5/9 6/6/10 8/8/11 7/7/12
f 7/7/13 8/8/14 2/10/15 1/9/16
f 2/2/17 8/11/18 6/12/19 4/4/20
f 7/13/21 1/1/22 3/3/23 5/14/24
f 9/15/25 10/16/26 12/17/27 11/18/28
f 11/18/29 12/17/30 14/19/31 13/20/32
f 13/20/33 14/19/34 16/21/35 15/22/36
f 15/22/37 16/21/38 10/23/39 9/24/40
f 10/16/41 16/25/42 14/26/43 12/17/44
f 15/27/45 9/15/46 11/18/47 13/28/48
f 17/29/49 18/30/50 20/31/51 19/32/52
f 19/32/53 20/31/54 22/33/55 21/34/56
f 21/34/57 22/33/58 24/35/59 23/36/60
f 23/36/61 24/35/62 18/37/63 17/38/64
f 18/30/65 24/39/66 22/40/67 20/31/68
f 23/41/69 17/29/70 19/32/71 21/42/72
f 25/43/73 26/44/74 28/45/75 27/46/76
f 27/46/77 28/45/78 30/47/79 29/48/80
f 29/48/81 30/47/82 32/49/83 31/50/84
f 31/50/85 32/49/86 26/51/87 25/52/88
f 26/44/89 32/53/90 30/54/91 28/45/92
f 31/55/93 25/43/94 27/46/95 29/56/96
f 33/57/97 34/58/98 36/59/99 35/60/100
f 54/61/101 55/62/102 48/63/103 45/64/104
f 37/65/105 38/66/106 40/67/107 39/68/108
f 46/69/109 47/70/110 56/71/111 53/72/112
f 55/73/113 56/74/114 47/75/115 48/76/116
f 45/77/117 46/78/118 53/79/119 54/80/120
f 42/81/121 41/82/122 61/83/123 62/84/124
f 62/85/125 63/86/126 43/87/127 42/88/128
f 63/89/129 64/90/130 44/91/131 43/92/132
f 41/93/133 44/94/134 64/95/135 61/96/136
f 50/97/137 51/98/138 46/78/139 45/77/140
f 51/99/141 52/100/142 47/70/143 46/69/144
f 48/76/145 47/75/146 52/101/147 49/102/148
f 45/64/149 48/63/150 49/103/151 50/104/152
f 50/104/153 49/103/154 38/66/155 37/65/156
f 39/105/157 51/98/158 50/97/159 37/106/160
f 39/68/161 40/67/162 52/100/163 51/99/164
f 49/102/165 52/101/166 40/107/167 38/108/168
f 54/80/169 53/79/170 57/109/171 58/110/172
f 58/111/173 59/112/174 55/62/175 54/61/176
f 59/113/177 60/114/178 56/74/179 55/73/180
f 53/72/181 56/71/182 60/115/183 57/116/184
f 58/110/185 57/109/186 41/82/187 42/81/188
f 42/88/189 43/87/190 59/112/191 58/111/192
f 43/92/193 44/91/194 60/114/195 59/113/196
f 57/116/197 60/115/198 44/94/199 41/93/200
f 62/84/201 61/83/202 33/57/203 35/60/204
f 35/60/205 36/59/206 63/86/207 62/85/208
f 34/58/209 64/90/210 63/89/211 36/59/212
f 61/96/213 64/95/214 34/117/215 33/118/216
f 65/119/217 66/120/218 68/121/219 67/122/220
f 67/122/221 68/121/222 70/123/223 69/124/224
f 69/124/225 70/123/226 72/125/227 71/126/228
f 71/126/229 72/125/230 66/127/231 65/128/232
f 66/120/233 72/129/234 70/130/235 68/121/236
f 71/131/237 65/119/238 67/122/239 69/132/240
f 73/133/241 74/134/242 76/135/243 75/136/244
f 75/136/245 76/135/246 78/137/247 77/138/248
f 77/138/249 78/137/250 80/139/251 79/140/252
f 79/140/253 80/139/254 74/141/255 73/142/256
f 74/134/257 80/143/258 78/144/259 76/135/260
f 79/145/261 73/133/262 75/136/263 77/146/264
f 81/147/265 82/148/266 84/149/267 83/150/268
f 83/150/269 84/149/270 86/151/271 85/152/272
f 85/152/273 86/151/274 88/153/275 87/154/276
f 87/154/277 88/153/278 82/155/279 81/156/280
f 82/148/281 88/157/282 86/158/283 84/149/284
f 87/159/285 81/147/286 83/150/287 85/160/288
f 89/161/289 90/162/290 92/163/291 91/164/292
f 91/164/293 92/163/294 94/165/295 93/166/296
f 93/166/297 94/165/298 96/167/299 95/168/300
f 95/168/301 96/167/302 90/169/303 89/170/304
f 90/162/305 96/171/306 94/172/307 92/163/308
f 95/173/309 89/161/310 91/164/311 93/174/312
