# This file uses centimeters as units for non-parametric coordinates.

v -1.224128 14.696198 -18.053808
v -1.224128 14.696198 18.053808
v -1.224128 17.144476 -18.053808
v -1.224128 17.144476 18.053808
v 1.224152 17.144476 -18.053808
v 1.224152 17.144476 18.053808
v 1.224152 14.696198 -18.053808
v 1.224152 14.696198 18.053808
v -18.134811 14.129761 20.570839
v 18.134811 14.129761 20.570839
v -18.134811 17.574402 20.570839
v 18.134811 17.574402 20.570839
v -18.134811 17.574402 17.427061
v 18.134811 17.574402 17.427061
v -18.134811 14.129761 17.427061
v 18.134811 14.129761 17.427061
v -18.134811 14.129761 -17.427061
v 18.134811 14.129761 -17.427061
v -18.134811 17.574402 -17.427061
v 18.134811 17.574402 -17.427061
v -18.134811 17.574402 -20.570839
v 18.134811 17.574402 -20.570839
v -18.134811 14.129761 -20.570839
v 18.134811 14.129761 -20.570839
v -26.655170 46.458900 8.313802
v 26.655170 46.458900 8.277174
v -26.655170 50.484421 8.313802
v 26.655170 50.484421 8.277174
v -26.655170 50.484421 -8.313802
v 26.655170 50.484421 -8.277222
v -26.655170 46.458900 -8.313802
v 26.655170 46.458900 -8.277222
v 0.000000 51.043766 -27.039677
v 0.000000 51.043766 27.039631
v 0.000000 45.899551 27.039631
v 0.000000 45.899551 -27.039677
v -13.398633 51.043766 -23.961025
v -13.398633 51.043766 23.960979
v -13.398633 45.899551 23.960979
v -13.398633 45.899551 -23.961025
v 13.398658 45.899551 23.817930
v 13.398658 51.043766 23.817930
v 13.398658 51.043766 -23.817978
v 13.398658 45.899551 -23.817978
v -15.048950 51.969624 -24.330439
v -15.048950 51.969624 24.330439
v -14.920123 44.973694 24.330439
v -14.920123 44.973694 -24.330439
v -11.933054 44.973694 25.776943
v -10.465951 51.969624 25.690346
v -11.532525 51.969624 -25.776993
v -11.933054 44.973694 -25.776993
v -1.864084 44.973694 28.277567
v -2.657715 51.969624 28.277567
v -2.657715 51.969624 -28.277615
v -1.864084 44.973694 -28.277615
v 3.555516 51.969624 -27.342379
v 2.043501 51.969624 28.277573
v 1.557027 44.973694 28.277573
v 1.557027 44.973694 -28.277620
v 12.176621 44.973694 25.524662
v 11.856789 51.969624 25.524662
v 11.856789 51.969624 -25.524662
v 12.176621 44.973694 -25.524662
v 15.003902 44.973694 24.130291
v 15.399249 51.969624 24.130291
v 15.399249 51.969624 -24.130337
v 15.003902 44.973694 -24.130337
v -24.595064 51.969624 -14.894588
v -24.595064 51.969624 14.894541
v -24.723890 44.973694 14.894541
v -24.723890 44.973694 -14.894588
v 24.765793 44.973694 14.786562
v 24.370445 51.969624 14.786562
v 24.370445 51.969624 -14.786611
v 24.765793 44.973694 -14.786611
v 20.995178 0.000000 -16.976213
v 24.836088 0.000000 -20.817123
v 12.820982 46.816444 -8.801994
v 16.661886 48.642662 -12.642900
v 8.801993 46.816444 -12.820982
v 12.642899 48.642662 -16.661886
v 16.976191 0.000000 -20.995201
v 20.817101 0.000000 -24.836111
v -16.976166 0.000000 -20.995201
v -20.817076 0.000000 -24.836111
v -8.801970 46.816444 -12.820982
v -12.642877 48.642662 -16.661886
v -12.820957 46.816444 -8.801993
v -16.661886 48.642662 -12.642899
v -20.995178 0.000000 -16.976215
v -24.836088 0.000000 -20.817123
v -20.995178 0.000000 16.976166
v -24.836088 0.000000 20.817076
v -12.820957 46.816444 8.801946
v -16.661886 48.642662 12.642900
v -8.801969 46.816444 12.820982
v -12.642875 48.642662 16.661886
v -16.976168 0.000000 20.995155
v -20.817076 0.000000 24.836063
v 16.976189 0.000000 20.995155
v 20.817101 0.000000 24.836063
v 8.801994 46.816444 12.820982
v 12.642900 48.642662 16.661886
v 12.820982 46.816444 8.801946
v 16.661886 48.642662 12.642899
v 20.995178 0.000000 16.976168
v 24.836088 0.000000 20.817076
vt 0.212586 0.286508
vt 0.212586 0.286508
vt 0.212586 0.286508
vt 0.212586 0.286508
vt 0.212586 0.286508
vt 0.212586 0.286508
vt 0.212586 0.286508
vt 0.212586 0.286508
vt 0.212586 0.286508
vt 0.212586 0.286508
vt 0.212586 0.286508
vt 0.212586 0.286508
vt 0.212586 0.286508
vt 0.212586 0.286508
vt 0.212586 0.286508
vt 0.212586 0.286508
vt 0.212586 0.286508
vt 0.212586 0.286508
vt 0.212586 0.286508
vt 0.212586 0.286508
vt 0.212586 0.286508
vt 0.212586 0.286508
vt 0.212586 0.286508
vt 0.212586 0.286508
vt 0.212586 0.286508
vt 0.212586 0.286508
vt 0.212586 0.286508
vt 0.212586 0.286508
vt 0.212586 0.286508
vt 0.212586 0.286508
vt 0.212586 0.286508
vt 0.212586 0.286508
vt 0.212586 0.286508
vt 0.212586 0.286508
vt 0.212586 0.286508
vt 0.212586 0.286508
vt 0.212586 0.286508
vt 0.212586 0.286508
vt 0.212586 0.286508
vt 0.212586 0.286508
vt 0.212586 0.286508
vt 0.212586 0.286508
vt 0.212586 0.286508
vt 0.212586 0.286508
vt 0.212586 0.286508
vt 0.212586 0.286508
vt 0.212586 0.286508
vt 0.212586 0.286508
vt 0.212586 0.286508
vt 0.212586 0.286508
vt 0.212586 0.286508
vt 0.212586 0.286508
vt 0.212586 0.286508
vt 0.212586 0.286508
vt 0.212586 0.286508
vt 0.212586 0.286508
vt 0.212586 0.286508
vt 0.212586 0.286508
vt 0.212586 0.286508
vt 0.212586 0.286508
vt 0.212586 0.286508
vt 0.212586 0.286508
vt 0.212586 0.286508
vt 0.212586 0.286508
vt 0.212586 0.286508
vt 0.212586 0.286508
vt 0.212586 0.286508
vt 0.212586 0.286508
vt 0.212586 0.286508
vt 0.212586 0.286508
vt 0.212586 0.286508
vt 0.212586 0.286508
vt 0.212586 0.286508
vt 0.212586 0.286508
vt 0.212586 0.286508
vt 0.212586 0.286508
vt 0.212586 0.286508
vt 0.212586 0.286508
vt 0.212586 0.286508
vt 0.212586 0.286508
vt 0.212586 0.286508
vt 0.212586 0.286508
vt 0.212586 0.286508
vt 0.212586 0.286508
vt 0.212586 0.286508
vt 0.212586 0.286508
vt 0.212586 0.286508
vt 0.212586 0.286508
vt 0.212586 0.286508
vt 0.212586 0.286508
vt 0.212586 0.286508
vt 0.212586 0.286508
vt 0.212586 0.286508
vt 0.212586 0.286508
vt 0.212586 0.286508
vt 0.212586 0.286508
vt 0.212586 0.286508
vt 0.212586 0.286508
vt 0.212586 0.286508
vt 0.212586 0.286508
vt 0.212586 0.286508
vt 0.212586 0.286508
vt 0.212586 0.286508
vt 0.212586 0.286508
vt 0.212586 0.286508
vt 0.212586 0.286508
vt 0.212586 0.286508
vt 0.212586 0.286508
vt 0.212586 0.286508
vt 0.212586 0.286508
vt 0.212586 0.286508
vt 0.212586 0.286508
vt 0.212586 0.286508
vt 0.212586 0.286508
vt 0.212586 0.286508
vt 0.212586 0.286508
vt 0.212586 0.286508
vt 0.212586 0.286508
vt 0.212586 0.286508
vt 0.212586 0.286508
vt 0.212586 0.286508
vt 0.212586 0.286508
vt 0.212586 0.286508
vt 0.212586 0.286508
vt 0.212586 0.286508
vt 0.212586 0.286508
vt 0.212586 0.286508
vt 0.212586 0.286508
vt 0.212586 0.286508
vt 0.212586 0.286508
vt 0.212586 0.286508
vt 0.212586 0.286508
vt 0.212586 0.286508
vt 0.212586 0.286508
vt 0.212586 0.286508
vt 0.212586 0.286508
vt 0.212586 0.286508
vt 0.212586 0.286508
vt 0.212586 0.286508
vt 0.212586 0.286508
vt 0.212586 0.286508
vt 0.212586 0.286508
vt 0.212586 0.286508
vt 0.212586 0.286508
vt 0.212586 0.286508
vt 0.212586 0.286508
vt 0.212586 0.286508
vt 0.212586 0.286508
vt 0.212586 0.286508
vt 0.212586 0.286508
vt 0.212586 0.286508
vt 0.212586 0.286508
vt 0.212586 0.286508
vt 0.212586 0.286508
vt 0.212586 0.286508
vt 0.212586 0.286508
vt 0.212586 0.286508
vt 0.212586 0.286508
vt 0.212586 0.286508
vt 0.212586 0.286508
vt 0.212586 0.286508
vt 0.212586 0.286508
vt 0.212586 0.286508
vt 0.212586 0.286508
vt 0.212586 0.286508
vt 0.212586 0.286508
vt 0.212586 0.286508
vt 0.212586 0.286508
vt 0.212586 0.286508
vt 0.212586 0.286508
vt 0.212586 0.286508
vt 0.212586 0.286508
vt 0.212586 0.286508
vn -1.000000 0.000000 0.000000
vn -1.000000 0.000000 0.000000
vn -1.000000 0.000000 0.000000
vn -1.000000 0.000000 0.000000
vn 0.000000 1.000000 0.000000
vn 0.000000 1.000000 0.000000
vn 0.000000 1.000000 0.000000
vn 0.000000 1.000000 0.000000
vn 1.000000 0.000000 0.000000
vn 1.000000 0.000000 0.000000
vn 1.000000 0.000000 0.000000
vn 1.000000 0.000000 0.000000
vn 0.000000 -1.000000 0.000000
vn 0.000000 -1.000000 0.000000
vn 0.000000 -1.000000 0.000000
vn 0.000000 -1.000000 0.000000
vn 0.000000 0.000000 1.000000
vn 0.000000 0.000000 1.000000
vn 0.000000 0.000000 1.000000
vn 0.000000 0.000000 1.000000
vn 0.000000 1.000000 0.000000
vn 0.000000 1.000000 0.000000
vn 0.000000 1.000000 0.000000
vn 0.000000 1.000000 0.000000
vn 0.000000 0.000000 -1.000000
vn 0.000000 0.000000 -1.000000
vn 0.000000 0.000000 -1.000000
vn 0.000000 0.000000 -1.000000
vn 0.000000 -1.000000 0.000000
vn 0.000000 -1.000000 0.000000
vn 0.000000 -1.000000 0.000000
vn 0.000000 -1.000000 0.000000
vn 0.000000 0.000000 1.000000
vn 0.000000 0.000000 1.000000
vn 0.000000 0.000000 1.000000
vn 0.000000 0.000000 1.000000
vn 0.000000 1.000000 0.000000
vn 0.000000 1.000000 0.000000
vn 0.000000 1.000000 0.000000
vn 0.000000 1.000000 0.000000
vn 0.000000 0.000000 -1.000000
vn 0.000000 0.000000 -1.000000
vn 0.000000 0.000000 -1.000000
vn 0.000000 0.000000 -1.000000
vn 0.000000 -1.000000 0.000000
vn 0.000000 -1.000000 0.000000
vn 0.000000 -1.000000 0.000000
vn 0.000000 -1.000000 0.000000
vn 0.260178 -0.003099 0.965556
vn 0.260178 -0.003099 0.965556
vn 0.260178 -0.003099 0.965556
vn 0.260178 -0.003099 0.965556
vn 0.000000 1.000000 0.000000
vn 0.000000 1.000000 0.000000
vn 0.000000 1.000000 0.000000
vn 0.000000 1.000000 0.000000
vn 0.234655 0.036777 -0.971383
vn 0.234655 0.036777 -0.971383
vn 0.234655 0.036777 -0.971383
vn 0.234655 0.036777 -0.971383
vn 0.000000 -1.000000 0.000000
vn 0.000000 -1.000000 0.000000
vn 0.000000 -1.000000 0.000000
vn 0.000000 -1.000000 0.000000
vn 1.000000 0.000000 0.000000
vn 1.000000 0.000000 0.000000
vn 1.000000 0.000000 0.000000
vn 1.000000 0.000000 0.000000
vn -1.000000 0.000000 0.000000
vn -1.000000 0.000000 0.000000
vn -1.000000 0.000000 0.000000
vn -1.000000 0.000000 0.000000
vn -0.359936 0.932969 0.003863
vn -0.359936 0.932969 0.003863
vn -0.359936 0.932969 0.003863
vn -0.359936 0.932969 0.003863
vn -0.625506 0.081126 0.775990
vn -0.625506 0.081126 0.775990
vn -0.625506 0.081126 0.775990
vn -0.625506 0.081126 0.775990
vn -0.534088 -0.845429 0.000000
vn -0.534088 -0.845429 0.000000
vn -0.534088 -0.845429 0.000000
vn -0.534088 -0.845429 0.000000
vn -0.736693 0.024305 -0.675791
vn -0.736692 0.024305 -0.675791
vn -0.736693 0.024305 -0.675791
vn -0.736693 0.024305 -0.675791
vn 0.489279 0.872127 0.000000
vn 0.489279 0.872127 0.000000
vn 0.489279 0.872127 0.000000
vn 0.489279 0.872127 0.000000
vn 0.226888 0.002408 0.973918
vn 0.226888 0.002408 0.973918
vn 0.226888 0.002408 0.973918
vn 0.226888 0.002408 0.973918
vn 0.519837 -0.854265 0.000000
vn 0.519837 -0.854265 0.000000
vn 0.519837 -0.854265 0.000000
vn 0.519837 -0.854265 0.000000
vn 0.226860 0.002407 -0.973924
vn 0.226860 0.002407 -0.973924
vn 0.226860 0.002407 -0.973924
vn 0.226860 0.002407 -0.973924
vn -0.170706 0.005559 0.985306
vn -0.170706 0.005559 0.985306
vn -0.170706 0.005559 0.985306
vn -0.170706 0.005559 0.985306
vn -0.419996 0.907526 0.000000
vn -0.419996 0.907526 0.000000
vn -0.419996 0.907526 0.000000
vn -0.419996 0.907526 0.000000
vn -0.170706 0.005559 -0.985306
vn -0.170706 0.005559 -0.985306
vn -0.170706 0.005559 -0.985306
vn -0.170706 0.005559 -0.985306
vn -0.499623 -0.866243 0.000000
vn -0.499623 -0.866243 0.000000
vn -0.499623 -0.866243 0.000000
vn -0.499623 -0.866243 0.000000
vn 0.000000 1.000000 0.000000
vn 0.000000 1.000000 0.000000
vn 0.000000 1.000000 0.000000
vn 0.000000 1.000000 0.000000
vn -0.698207 0.000000 0.715896
vn -0.698207 0.000000 0.715895
vn -0.698207 0.000000 0.715896
vn -0.698207 0.000000 0.715896
vn 0.000000 -1.000000 0.000000
vn 0.000000 -1.000000 0.000000
vn 0.000000 -1.000000 0.000000
vn 0.000000 -1.000000 0.000000
vn -0.698206 0.000000 -0.715897
vn -0.698206 0.000000 -0.715897
vn -0.698206 0.000000 -0.715897
vn -0.698206 0.000000 -0.715897
vn -0.273680 0.019125 0.961631
vn -0.273680 0.019125 0.961631
vn -0.273680 0.019125 0.961631
vn -0.273680 0.019125 0.961631
vn 0.000000 1.000000 0.000000
vn 0.000000 1.000000 0.000000
vn 0.000000 1.000000 0.000000
vn 0.000000 1.000000 0.000000
vn -0.255252 -0.007171 -0.966848
vn -0.255252 -0.007171 -0.966848
vn -0.255252 -0.007171 -0.966848
vn -0.255252 -0.007171 -0.966848
vn 0.000000 -1.000000 0.000000
vn 0.000000 -1.000000 0.000000
vn 0.000000 -1.000000 0.000000
vn 0.000000 -1.000000 0.000000
vn 0.480025 0.031380 0.876693
vn 0.480025 0.031380 0.876693
vn 0.480025 0.031380 0.876693
vn 0.480025 0.031380 0.876693
vn 0.328975 0.944339 0.000000
vn 0.328975 0.944339 0.000000
vn 0.328975 0.944339 0.000000
vn 0.328975 0.944339 0.000000
vn 0.480026 0.031381 -0.876693
vn 0.480026 0.031381 -0.876693
vn 0.480026 0.031381 -0.876693
vn 0.480026 0.031381 -0.876693
vn 0.444835 -0.895613 0.000000
vn 0.444835 -0.895613 0.000000
vn 0.444835 -0.895613 0.000000
vn 0.444835 -0.895612 0.000000
vn -0.313342 0.949631 -0.004319
vn -0.313342 0.949631 -0.004319
vn -0.313342 0.949631 -0.004319
vn -0.313342 0.949631 -0.004319
vn -0.566464 0.022699 0.823774
vn -0.566464 0.022699 0.823774
vn -0.566464 0.022699 0.823774
vn -0.566464 0.022699 0.823774
vn -0.511099 -0.859522 0.000000
vn -0.511099 -0.859522 0.000000
vn -0.511099 -0.859522 0.000000
vn -0.511099 -0.859522 0.000000
vn -0.286433 0.120376 -0.950508
vn -0.286433 0.120376 -0.950508
vn -0.286433 0.120376 -0.950508
vn -0.286433 0.120376 -0.950508
vn 0.777012 0.020470 0.629152
vn 0.777012 0.020470 0.629152
vn 0.777012 0.020470 0.629152
vn 0.777012 0.020470 0.629152
vn 0.514797 0.857312 0.000000
vn 0.514797 0.857312 0.000000
vn 0.514797 0.857312 0.000000
vn 0.514797 0.857312 0.000000
vn 0.777004 0.020470 -0.629163
vn 0.777004 0.020470 -0.629163
vn 0.777004 0.020470 -0.629163
vn 0.777004 0.020470 -0.629163
vn 0.603887 -0.797070 0.000000
vn 0.603887 -0.797070 0.000000
vn 0.603887 -0.797070 0.000000
vn 0.603887 -0.797070 0.000000
vn 0.706244 0.000000 0.707969
vn 0.706244 0.000000 0.707969
vn 0.706244 0.000000 0.707969
vn 0.706244 0.000000 0.707969
vn 0.000000 1.000000 0.000000
vn 0.000000 1.000000 0.000000
vn 0.000000 1.000000 0.000000
vn 0.000000 1.000000 0.000000
vn 0.706244 0.000000 -0.707969
vn 0.706244 0.000000 -0.707969
vn 0.706244 0.000000 -0.707969
vn 0.706244 0.000000 -0.707969
vn 0.000000 -1.000000 0.000000
vn 0.000000 -1.000000 0.000000
vn 0.000000 -1.000000 0.000000
vn 0.000000 -1.000000 0.000000
vn -0.584804 0.811175 0.000000
vn -0.584804 0.811175 0.000000
vn -0.584804 0.811175 0.000000
vn -0.584804 0.811175 0.000000
vn -0.956903 0.011185 0.290193
vn -0.956903 0.011185 0.290193
vn -0.956903 0.011185 0.290193
vn -0.956903 0.011185 0.290193
vn -0.609609 -0.792702 0.000000
vn -0.609609 -0.792702 0.000000
vn -0.609609 -0.792702 0.000000
vn -0.609609 -0.792702 0.000000
vn -0.956903 0.011185 -0.290191
vn -0.956903 0.011185 -0.290191
vn -0.956903 0.011185 -0.290191
vn -0.956903 0.011185 -0.290191
vn 0.951697 0.034138 0.305135
vn 0.951697 0.034138 0.305135
vn 0.951697 0.034138 0.305135
vn 0.951697 0.034138 0.305135
vn 0.545023 0.838421 0.000000
vn 0.545023 0.838421 0.000000
vn 0.545023 0.838421 0.000000
vn 0.545023 0.838421 0.000000
vn 0.951697 0.034138 -0.305135
vn 0.951697 0.034138 -0.305135
vn 0.951697 0.034138 -0.305135
vn 0.951697 0.034138 -0.305135
vn 0.618001 -0.786177 0.000000
vn 0.618001 -0.786177 0.000000
vn 0.618001 -0.786177 0.000000
vn 0.618001 -0.786177 0.000000
vn 0.707107 -0.000000 0.707107
vn 0.707107 -0.000000 0.707107
vn 0.707107 -0.000000 0.707107
vn 0.707107 -0.000000 0.707107
vn -0.707107 0.000000 -0.707107
vn -0.707107 0.000000 -0.707107
vn -0.707107 0.000000 -0.707107
vn -0.707107 0.000000 -0.707107
vn 0.000000 -1.000000 0.000000
vn 0.000000 -1.000000 0.000000
vn 0.000000 -1.000000 0.000000
vn 0.000000 -1.000000 0.000000
vn 0.687946 0.231213 -0.687946
vn 0.687946 0.231214 -0.687946
vn 0.687946 0.231213 -0.687946
vn 0.687946 0.231214 -0.687946
vn -0.686489 -0.239723 0.686488
vn -0.686489 -0.239723 0.686488
vn -0.686489 -0.239723 0.686488
vn -0.686489 -0.239723 0.686488
vn 0.707106 0.000000 -0.707107
vn 0.707106 0.000000 -0.707107
vn 0.707107 0.000000 -0.707107
vn 0.707107 0.000000 -0.707107
vn -0.707106 -0.000001 0.707108
vn -0.707106 -0.000001 0.707108
vn -0.707106 -0.000001 0.707108
vn -0.707106 -0.000001 0.707108
vn 0.000000 -1.000000 0.000000
vn 0.000000 -1.000000 0.000000
vn 0.000000 -1.000000 0.000000
vn 0.000000 -1.000000 0.000000
vn -0.687944 0.231214 -0.687948
vn -0.687944 0.231214 -0.687948
vn -0.687944 0.231214 -0.687948
vn -0.687944 0.231214 -0.687949
vn 0.686487 -0.239724 0.686489
vn 0.686487 -0.239724 0.686489
vn 0.686487 -0.239724 0.686489
vn 0.686487 -0.239724 0.686489
vn -0.707108 0.000001 -0.707106
vn -0.707108 0.000001 -0.707106
vn -0.707108 0.000001 -0.707106
vn -0.707108 0.000001 -0.707106
vn 0.707107 -0.000000 0.707107
vn 0.707107 -0.000000 0.707107
vn 0.707107 -0.000000 0.707107
vn 0.707107 -0.000000 0.707107
vn 0.000000 -1.000000 0.000000
vn 0.000000 -1.000000 0.000000
vn 0.000000 -1.000000 0.000000
vn 0.000000 -1.000000 0.000000
vn -0.687944 0.231213 0.687949
vn -0.687944 0.231213 0.687949
vn -0.687944 0.231213 0.687949
vn -0.687944 0.231213 0.687949
vn 0.686490 -0.239723 -0.686487
vn 0.686490 -0.239723 -0.686487
vn 0.686490 -0.239723 -0.686487
vn 0.686490 -0.239723 -0.686487
vn -0.707106 -0.000000 0.707107
vn -0.707106 -0.000000 0.707107
vn -0.707106 -0.000000 0.707107
vn -0.707106 -0.000000 0.707107
vn 0.707109 0.000001 -0.707105
vn 0.707109 0.000001 -0.707105
vn 0.707109 0.000001 -0.707105
vn 0.707109 0.000001 -0.707105
vn 0.000000 -1.000000 -0.000000
vn 0.000000 -1.000000 -0.000000
vn 0.000000 -1.000000 -0.000000
vn 0.000000 -1.000000 -0.000000
vn 0.687946 0.231213 0.687946
vn 0.687946 0.231213 0.687946
vn 0.687946 0.231213 0.687946
vn 0.687946 0.231213 0.687946
vn -0.686491 -0.239723 -0.686486
vn -0.686491 -0.239723 -0.686486
vn -0.686491 -0.239723 -0.686486
vn -0.686491 -0.239723 -0.686486
s off
f 1/1/1 2/2/2 4/4/3 3/48/4
f 3/3/5 4/47/6 6/6/7 5/46/8
f 5/5/9 6/45/10 8/8/11 7/44/12
f 7/7/13 8/43/14 2/10/15 1/9/16
f 9/11/17 10/12/18 12/13/19 11/42/20
f 11/14/21 12/41/22 14/15/23 13/40/24
f 13/16/25 14/39/26 16/17/27 15/38/28
f 15/18/29 16/37/30 10/19/31 9/20/32
f 17/21/33 18/22/34 20/23/35 19/36/36
f 19/24/37 20/35/38 22/25/39 21/34/40
f 21/26/41 22/33/42 24/27/43 23/32/44
f 23/28/45 24/31/46 18/29/47 17/30/48
f 58/49/49 59/50/50 61/51/51 62/52/52
f 57/53/53 58/49/54 62/52/55 63/54/56
f 60/55/57 57/53/58 63/54/59 64/56/60
f 59/57/61 60/55/62 64/56/63 61/58/64
f 26/59/65 32/60/66 30/61/67 28/62/68
f 31/63/69 25/64/70 27/65/71 29/66/72
f 37/67/73 38/68/74 50/69/75 51/70/76
f 38/68/77 39/71/78 49/72/79 50/69/80
f 39/73/81 40/74/82 52/75/83 49/76/84
f 40/74/85 37/67/86 51/70/87 52/75/88
f 45/77/89 46/78/90 38/68/91 37/67/92
f 46/78/93 47/79/94 39/71/95 38/68/96
f 47/80/97 48/81/98 40/74/99 39/73/100
f 48/81/101 45/77/102 37/67/103 40/74/104
f 42/82/105 41/83/106 65/84/107 66/85/108
f 43/86/109 42/82/110 66/85/111 67/87/112
f 44/88/113 43/86/114 67/87/115 68/89/116
f 41/90/117 44/88/118 68/89/119 65/91/120
f 69/92/121 70/93/122 46/78/123 45/77/124
f 70/93/125 71/94/126 47/79/127 46/78/128
f 71/95/129 72/96/130 48/81/131 47/80/132
f 72/96/133 69/92/134 45/77/135 48/81/136
f 50/69/137 49/72/138 53/97/139 54/98/140
f 51/70/141 50/69/142 54/98/143 55/99/144
f 52/75/145 51/70/146 55/99/147 56/100/148
f 49/76/149 52/75/150 56/100/151 53/101/152
f 54/98/153 53/97/154 35/102/155 34/103/156
f 55/99/157 54/98/158 34/103/159 33/104/160
f 56/100/161 55/99/162 33/104/163 36/105/164
f 53/101/165 56/100/166 36/105/167 35/106/168
f 33/104/169 34/103/170 58/49/171 57/53/172
f 34/103/173 35/102/174 59/50/175 58/49/176
f 35/106/177 36/105/178 60/55/179 59/57/180
f 36/105/181 33/104/182 57/53/183 60/55/184
f 62/52/185 61/51/186 41/83/187 42/82/188
f 63/54/189 62/52/190 42/82/191 43/86/192
f 64/56/193 63/54/194 43/86/195 44/88/196
f 61/58/197 64/56/198 44/88/199 41/90/200
f 66/85/201 65/84/202 73/107/203 74/108/204
f 67/87/205 66/85/206 74/108/207 75/109/208
f 68/89/209 67/87/210 75/109/211 76/110/212
f 65/91/213 68/89/214 76/110/215 73/111/216
f 27/65/217 70/93/218 69/92/219 29/112/220
f 25/64/221 71/94/222 70/93/223 27/65/224
f 31/113/225 72/96/226 71/95/227 25/114/228
f 29/112/229 69/92/230 72/96/231 31/113/232
f 74/108/233 73/107/234 26/59/235 28/62/236
f 75/109/237 74/108/238 28/62/239 30/115/240
f 76/110/241 75/109/242 30/115/243 32/116/244
f 73/111/245 76/110/246 32/116/247 26/117/248
f 77/118/249 78/119/250 80/120/251 79/121/252
f 81/122/253 82/123/254 84/124/255 83/125/256
f 83/125/257 84/124/258 78/126/259 77/127/260
f 78/119/261 84/128/262 82/129/263 80/120/264
f 83/130/265 77/118/266 79/121/267 81/131/268
f 85/132/269 86/133/270 88/134/271 87/135/272
f 89/136/273 90/137/274 92/138/275 91/139/276
f 91/139/277 92/138/278 86/140/279 85/141/280
f 86/133/281 92/142/282 90/143/283 88/134/284
f 91/144/285 85/132/286 87/135/287 89/145/288
f 93/146/289 94/147/290 96/148/291 95/149/292
f 97/150/293 98/151/294 100/152/295 99/153/296
f 99/153/297 100/152/298 94/154/299 93/155/300
f 94/147/301 100/156/302 98/157/303 96/148/304
f 99/158/305 93/146/306 95/149/307 97/159/308
f 101/160/309 102/161/310 104/162/311 103/163/312
f 105/164/313 106/165/314 108/166/315 107/167/316
f 107/167/317 108/166/318 102/168/319 101/169/320
f 102/161/321 108/170/322 106/171/323 104/162/324
f 107/172/325 101/160/326 103/163/327 105/173/328
