# This file uses centimeters as units for non-parametric coordinates.

v -4.787827 -3.896487 -3.413868
v -2.402115 -3.896487 4.738903
v 4.788208 -3.896487 3.413868
v 2.402115 -3.896487 -4.738998
v 1.697540 0.000000 1.697731
v -1.697922 0.000000 1.697731
v -1.697922 0.000000 -1.697636
v 1.697540 0.000000 -1.697636
v 0.000000 0.000000 2.495766
v 0.000000 0.000000 -2.495766
v -2.495956 0.000000 0.000000
v 2.495575 0.000000 0.000000
v 2.402115 -3.896487 4.738903
v -4.787827 -3.896487 3.413868
v -2.402115 -3.896487 -4.738998
v 4.788208 -3.896487 -3.413868
v 0.000000 8.720303 -1.992416
v 1.355362 8.720303 -1.355171
v 1.992416 8.720303 0.000000
v 1.355362 8.720303 1.355362
v 0.000000 8.720303 1.992512
v -1.355743 8.720303 1.355362
v -1.992416 8.720303 0.000000
v -1.355743 8.720303 -1.355171
v 2.470016 12.236571 0.000000
v 0.000000 12.236571 0.000000
v 0.000000 12.236571 2.469921
v 1.680374 12.236571 1.679993
v -1.680756 12.236571 1.679993
v -2.470398 12.236571 0.000000
v 0.000000 12.236571 -2.469826
v 1.680374 12.236571 -1.679993
v -1.680756 12.236571 -1.679993
v 0.000000 8.905125 -2.469826
v 1.680374 8.905125 -1.679802
v 2.470016 8.905125 0.000000
v 1.680374 8.905125 1.679993
v 0.000000 8.905125 2.469921
v -1.680756 8.905125 1.679993
v -2.469635 8.905125 0.000000
v -1.680756 8.905125 -1.679802
v -5.176926 -10.349083 -3.518295
v -5.176926 -10.349083 3.498936
v -2.623749 -10.349083 5.176830
v 2.624130 -10.349083 5.176830
v 5.176926 -10.349083 3.641510
v 5.176926 -10.349083 -3.334999
v 2.624130 -10.349083 -5.176829
v -2.623749 -10.349083 -5.176829
v 5.161285 -6.476533 -3.676128
v 5.161285 -6.432832 3.670788
v 2.624512 -6.432832 5.176830
v -2.623749 -6.432832 5.176830
v -5.160904 -6.432832 3.670788
v -5.160904 -6.476522 -3.676128
v -2.623749 -6.389129 -5.176829
v 2.624512 -6.389129 -5.176829
v -5.176926 -10.349083 1.836300
v 5.176926 -10.349083 1.904583
v -5.176926 -10.349083 -1.975918
v 5.176926 -10.349083 -2.014828
v -5.176926 -15.734006 -1.910305
v -5.176926 -18.128252 1.746750
v -5.176926 -16.767168 3.501129
v -2.623749 -13.498330 5.176830
v 0.297928 -16.787636 5.176830
v 2.624130 -16.002190 5.176735
v 5.176926 -17.104483 3.643799
v 5.176926 -15.427864 1.905441
v 5.176926 -15.821827 -3.517723
v 2.624130 -18.943941 -5.176829
v -2.623749 -13.895070 -5.176735
v -5.176926 -16.768002 -3.520203
v 5.176544 -16.907011 -2.124310
v -4.415512 -15.734006 -1.629257
v -4.415512 -18.128252 1.489830
v -4.415512 -16.767168 2.986050
v -2.237701 -13.498330 4.415226
v 0.254059 -16.787636 4.415226
v 2.238083 -16.002190 4.415226
v 4.415512 -17.104483 3.107738
v 4.415512 -15.427864 1.625156
v 4.415512 -15.821827 -3.000259
v 2.238083 -18.943941 -4.415226
v -2.237701 -13.895070 -4.415226
v -4.415512 -16.768002 -3.002357
v 4.415131 -16.907011 -1.811790
v -4.415512 -5.081224 -3.002357
v -4.415512 -5.081224 2.986050
v -2.237701 -5.081224 4.415226
v 2.238083 -5.081224 4.415226
v 4.415512 -5.081224 3.107738
v 4.415512 -5.081224 -3.000259
v 2.238083 -5.081224 -4.415226
v -2.237701 -5.081224 -4.415226
vt 0.177548 0.252075
vt 0.177548 0.252075
vt 0.177548 0.252075
vt 0.094303 0.226704
vt 0.094303 0.226704
vt 0.094303 0.226704
vt 0.094303 0.226704
vt 0.177548 0.252075
vt 0.177548 0.252075
vt 0.177548 0.252075
vt 0.177548 0.252075
vt 0.177548 0.252075
vt 0.177548 0.252075
vt 0.177548 0.252075
vt 0.177548 0.252075
vt 0.177548 0.252075
vt 0.177548 0.252075
vt 0.177548 0.252075
vt 0.177548 0.252075
vt 0.177548 0.252075
vt 0.177548 0.252075
vt 0.177548 0.252075
vt 0.177548 0.252075
vt 0.177548 0.252075
vt 0.177548 0.252075
vt 0.177548 0.252075
vt 0.177548 0.252075
vt 0.177548 0.252075
vt 0.177548 0.252075
vt 0.177548 0.252075
vt 0.177548 0.252075
vt 0.177548 0.252075
vt 0.177548 0.252075
vt 0.177548 0.252075
vt 0.177548 0.252075
vt 0.177548 0.252075
vt 0.177548 0.252075
vt 0.177548 0.252075
vt 0.177548 0.252075
vt 0.094303 0.226704
vt 0.094303 0.226704
vt 0.177548 0.252075
vt 0.177548 0.252075
vt 0.177548 0.252075
vt 0.177548 0.252075
vt 0.094303 0.226704
vt 0.094303 0.226704
vt 0.094303 0.226704
vt 0.177548 0.252075
vt 0.177548 0.252075
vt 0.177548 0.252075
vt 0.177548 0.252075
vt 0.177548 0.252075
vt 0.177548 0.252075
vt 0.177548 0.252075
vt 0.177548 0.252075
vt 0.177548 0.252075
vt 0.177548 0.252075
vt 0.177548 0.252075
vt 0.177548 0.252075
vt 0.094303 0.226704
vt 0.094303 0.226704
vt 0.094303 0.226704
vt 0.094303 0.226704
vt 0.094303 0.226704
vt 0.094303 0.226704
vt 0.094303 0.226704
vt 0.094303 0.226704
vt 0.094303 0.226704
vt 0.094303 0.226704
vt 0.094303 0.226704
vt 0.094303 0.226704
vt 0.094303 0.226704
vt 0.094303 0.226704
vt 0.094303 0.226704
vt 0.094303 0.226704
vt 0.177548 0.252075
vt 0.177548 0.252075
vt 0.177548 0.252075
vt 0.038062 0.228673
vt 0.038062 0.228673
vt 0.038062 0.228673
vt 0.038062 0.228673
vt 0.038062 0.228673
vt 0.038062 0.228673
vt 0.038062 0.228673
vt 0.038062 0.228673
vt 0.038062 0.228673
vt 0.038062 0.228673
vt 0.038062 0.228673
vt 0.038859 0.227877
vt 0.038859 0.227877
vt 0.038859 0.227877
vt 0.038859 0.227877
vt 0.038859 0.227877
vt 0.038859 0.227877
vt 0.038859 0.227877
vt 0.038859 0.227877
vt 0.177548 0.252075
vt 0.038062 0.228673
vt 0.038062 0.228673
vt 0.038859 0.227877
vt 0.038859 0.227877
vt 0.038859 0.227877
vt 0.038859 0.227877
vt 0.177548 0.252075
vt 0.177548 0.252075
vt 0.177548 0.252075
vt 0.176792 0.251301
vt 0.176792 0.251301
vt 0.176792 0.251301
vt 0.176792 0.251301
vt 0.176792 0.251301
vt 0.176792 0.251301
vt 0.176792 0.251301
vt 0.176792 0.251301
vt 0.176792 0.251301
vt 0.176792 0.251301
vt 0.176792 0.251301
vt 0.176792 0.251301
vt 0.176792 0.251301
vt 0.176792 0.251301
vt 0.176792 0.251301
vt 0.176792 0.251301
vt 0.176792 0.251301
vt 0.176792 0.251301
vt 0.176792 0.251301
vt 0.176792 0.251301
vt 0.176792 0.251301
vt 0.176792 0.251301
vt 0.176792 0.251301
vt 0.176792 0.251301
vt 0.176792 0.251301
vt 0.176792 0.251301
vt 0.176792 0.251301
vt 0.176792 0.251301
vt 0.176792 0.251301
vt 0.176792 0.251301
vt 0.176792 0.251301
vt 0.176792 0.251301
vt 0.176792 0.251301
vt 0.176792 0.251301
vn 0.334933 0.616627 0.712454
vn 0.334933 0.616627 0.712454
vn 0.334933 0.616627 0.712454
vn 0.000000 1.000000 0.000000
vn 0.000000 1.000000 0.000000
vn 0.000000 1.000000 0.000000
vn 0.000000 1.000000 0.000000
vn 0.000000 0.498931 -0.866642
vn 0.000000 0.498931 -0.866642
vn 0.000000 0.498931 -0.866642
vn 0.861878 0.507116 0.000000
vn 0.861878 0.507116 0.000000
vn 0.861878 0.507116 0.000000
vn -0.671003 0.671022 0.315412
vn -0.671003 0.671022 0.315412
vn -0.671003 0.671022 0.315412
vn -0.530215 -0.017514 0.847683
vn -0.530215 -0.017514 0.847683
vn -0.530215 -0.017514 0.847683
vn -0.530215 -0.017514 0.847683
vn 0.512958 -0.002209 0.858411
vn 0.512958 -0.002209 0.858411
vn 0.512958 -0.002209 0.858411
vn 0.512958 -0.002209 0.858411
vn 0.999992 0.004017 -0.000015
vn 0.999992 0.004015 -0.000015
vn 0.999992 0.004014 -0.000014
vn 0.999992 0.004018 -0.000015
vn 0.000000 0.000000 -1.000000
vn 0.000000 0.000000 -1.000000
vn 0.000000 0.000000 -1.000000
vn 0.000000 0.000000 -1.000000
vn 0.424860 0.052155 0.903755
vn 0.424860 0.052155 0.903755
vn 0.424860 0.052155 0.903755
vn 0.424860 0.052155 0.903755
vn -0.903820 0.052165 0.424722
vn -0.903820 0.052165 0.424722
vn -0.903820 0.052165 0.424722
vn -0.903820 0.052165 0.424722
vn 0.424906 0.052165 -0.903733
vn 0.424906 0.052165 -0.903733
vn 0.424906 0.052165 -0.903733
vn 0.424906 0.052165 -0.903733
vn 0.903777 0.052145 0.424815
vn 0.903777 0.052145 0.424815
vn 0.903777 0.052145 0.424815
vn 0.903777 0.052145 0.424815
vn 0.000000 1.000000 -0.000000
vn 0.000000 1.000000 -0.000000
vn 0.000000 1.000000 -0.000000
vn 0.000000 1.000000 -0.000000
vn -0.424773 0.052155 0.903796
vn -0.424773 0.052155 0.903796
vn -0.424773 0.052155 0.903796
vn -0.424773 0.052155 0.903796
vn -0.527062 -0.016044 -0.849675
vn -0.527062 -0.016044 -0.849675
vn -0.527062 -0.016044 -0.849675
vn -0.527062 -0.016044 -0.849675
vn -0.334903 0.616632 -0.712464
vn -0.334903 0.616632 -0.712464
vn -0.334903 0.616632 -0.712464
vn -0.424819 0.052165 -0.903774
vn -0.424819 0.052165 -0.903774
vn -0.424819 0.052165 -0.903774
vn -0.424819 0.052165 -0.903774
vn 0.000000 1.000000 -0.000000
vn 0.000000 1.000000 -0.000000
vn 0.000000 1.000000 -0.000000
vn 0.000000 1.000000 -0.000000
vn 0.000000 1.000000 0.000000
vn 0.000000 1.000000 0.000000
vn 0.000000 1.000000 0.000000
vn 0.000000 1.000000 0.000000
vn -0.903804 0.052167 -0.424755
vn -0.903804 0.052167 -0.424755
vn -0.903804 0.052167 -0.424755
vn -0.903804 0.052167 -0.424755
vn 0.548177 -0.035326 -0.835616
vn 0.548177 -0.035326 -0.835616
vn 0.548177 -0.035326 -0.835616
vn 0.548177 -0.035326 -0.835616
vn 0.670934 0.671098 -0.315396
vn 0.670934 0.671098 -0.315396
vn 0.670934 0.671098 -0.315396
vn 0.903762 0.052147 -0.424848
vn 0.903762 0.052147 -0.424848
vn 0.903762 0.052147 -0.424848
vn 0.903762 0.052147 -0.424848
vn -0.334876 0.616614 0.712492
vn -0.334876 0.616614 0.712492
vn -0.334876 0.616614 0.712492
vn 0.000000 0.498915 0.866651
vn 0.000000 0.498915 0.866651
vn 0.000000 0.498915 0.866651
vn 0.000000 0.000000 1.000000
vn 0.000000 0.000000 1.000000
vn 0.000000 0.000000 1.000000
vn 0.000000 0.000000 1.000000
vn -0.861952 0.506990 0.000000
vn -0.861952 0.506990 0.000000
vn -0.861952 0.506990 0.000000
vn -0.999992 0.004113 -0.000015
vn -0.999992 0.004112 -0.000015
vn -0.999992 0.004091 0.000000
vn -0.670993 0.671026 -0.315424
vn -0.670993 0.671026 -0.315424
vn -0.670993 0.671026 -0.315424
vn 0.334960 0.616645 -0.712426
vn 0.334960 0.616645 -0.712426
vn 0.334960 0.616645 -0.712426
vn 0.670944 0.671094 0.315384
vn 0.670944 0.671094 0.315384
vn 0.670944 0.671094 0.315384
vn -0.384697 0.610126 0.692643
vn -0.384697 0.610126 0.692643
vn -0.384697 0.610126 0.692643
vn -0.384712 0.610144 -0.692619
vn -0.384712 0.610144 -0.692619
vn -0.384712 0.610144 -0.692619
vn 0.384653 0.610175 -0.692624
vn 0.384653 0.610175 -0.692624
vn 0.384653 0.610175 -0.692624
vn 0.384639 0.610157 0.692648
vn 0.384639 0.610157 0.692648
vn 0.384639 0.610157 0.692648
vn 0.425429 -0.000026 -0.904992
vn 0.425429 -0.000026 -0.904992
vn 0.425429 -0.000026 -0.904992
vn 0.425429 -0.000026 -0.904992
vn 0.905005 -0.000012 -0.425401
vn 0.905005 -0.000012 -0.425401
vn 0.905005 -0.000012 -0.425401
vn 0.905005 -0.000012 -0.425401
vn 0.905014 0.000000 0.425381
vn 0.905014 0.000000 0.425381
vn 0.905014 0.000000 0.425381
vn 0.905014 0.000000 0.425381
vn 0.425429 0.000000 0.904992
vn 0.425429 0.000000 0.904992
vn 0.425429 0.000000 0.904992
vn 0.425429 0.000000 0.904992
vn -0.425349 0.000000 0.905029
vn -0.425349 0.000000 0.905029
vn -0.425349 0.000000 0.905029
vn -0.425349 0.000000 0.905029
vn -0.905093 -0.000104 0.425213
vn -0.905093 -0.000104 0.425213
vn -0.905093 -0.000104 0.425213
vn -0.905093 -0.000104 0.425213
vn -0.905084 -0.000116 -0.425233
vn -0.905084 -0.000116 -0.425233
vn -0.905084 -0.000116 -0.425233
vn -0.905084 -0.000116 -0.425233
vn -0.425349 -0.000026 -0.905029
vn -0.425349 -0.000026 -0.905029
vn -0.425349 -0.000026 -0.905029
vn -0.425349 -0.000026 -0.905029
vn 0.167340 -0.919409 -0.355926
vn 0.167340 -0.919409 -0.355926
vn 0.167341 -0.919409 -0.355926
vn 0.167340 -0.919410 -0.355926
vn 0.355811 -0.919469 -0.167262
vn 0.355811 -0.919469 -0.167262
vn 0.355811 -0.919469 -0.167262
vn 0.355811 -0.919469 -0.167261
vn 0.355818 -0.919469 0.167244
vn 0.355818 -0.919469 0.167244
vn 0.355818 -0.919469 0.167244
vn 0.355818 -0.919469 0.167244
vn 0.167322 -0.919410 0.355934
vn 0.167322 -0.919410 0.355934
vn 0.167322 -0.919410 0.355934
vn 0.167322 -0.919410 0.355934
vn -0.167287 -0.919411 0.355949
vn -0.167287 -0.919411 0.355949
vn -0.167287 -0.919411 0.355949
vn -0.167287 -0.919411 0.355949
vn -0.355985 -0.919415 0.167188
vn -0.355985 -0.919415 0.167188
vn -0.355985 -0.919415 0.167188
vn -0.355985 -0.919415 0.167188
vn -0.355977 -0.919414 -0.167205
vn -0.355977 -0.919414 -0.167205
vn -0.355977 -0.919414 -0.167205
vn -0.355977 -0.919414 -0.167205
vn -0.167305 -0.919410 -0.355941
vn -0.167305 -0.919410 -0.355941
vn -0.167305 -0.919410 -0.355941
vn -0.167305 -0.919410 -0.355941
vn -1.000000 0.000000 0.000000
vn -1.000000 0.000000 0.000000
vn -1.000000 0.000000 0.000000
vn -1.000000 0.000000 0.000000
vn -0.549034 0.000192 0.835800
vn -0.549034 0.000192 0.835800
vn -0.549034 0.000192 0.835800
vn -0.549034 0.000192 0.835800
vn 0.000004 -0.000001 1.000000
vn 0.000000 0.000000 1.000000
vn 0.000000 0.000000 1.000000
vn 0.000010 -0.000003 1.000000
vn 0.515125 0.000152 0.857115
vn 0.515125 0.000152 0.857115
vn 0.515125 0.000152 0.857115
vn 0.515125 0.000152 0.857115
vn 1.000000 -0.000000 0.000000
vn 1.000000 -0.000021 -0.000027
vn 1.000000 -0.000022 -0.000029
vn 1.000000 -0.000000 0.000000
vn 0.561011 0.010751 -0.827739
vn 0.561011 0.010751 -0.827739
vn 0.561011 0.010751 -0.827739
vn 0.561011 0.010751 -0.827739
vn -0.000013 -0.000008 -1.000000
vn -0.000013 -0.000008 -1.000000
vn -0.000013 -0.000008 -1.000000
vn -0.000013 -0.000008 -1.000000
vn -0.544579 0.000153 -0.838709
vn -0.544579 0.000153 -0.838709
vn -0.544579 0.000153 -0.838709
vn -0.544579 0.000153 -0.838709
vn 0.989532 0.144310 -0.000445
vn 0.989532 0.144310 -0.000445
vn 0.989532 0.144310 -0.000445
vn 0.989532 0.144310 -0.000445
vn 0.490875 0.174543 0.853567
vn 0.490875 0.174543 0.853567
vn 0.490875 0.174543 0.853567
vn 0.490875 0.174543 0.853567
vn 0.000000 0.170143 0.985419
vn 0.000000 0.170143 0.985419
vn 0.000000 0.170143 0.985419
vn 0.000000 0.170143 0.985419
vn -0.490882 0.174471 0.853578
vn -0.490882 0.174471 0.853578
vn -0.490882 0.174471 0.853578
vn -0.490882 0.174471 0.853578
vn -0.989532 0.144310 -0.000445
vn -0.989532 0.144310 -0.000445
vn -0.989532 0.144310 -0.000445
vn -0.989532 0.144310 -0.000445
vn -0.492457 0.175388 -0.852482
vn -0.492457 0.175388 -0.852482
vn -0.492457 0.175388 -0.852482
vn -0.492457 0.175388 -0.852482
vn 0.000000 0.173001 -0.984922
vn 0.000000 0.173001 -0.984922
vn 0.000000 0.173001 -0.984922
vn 0.000000 0.173001 -0.984922
vn 0.492451 0.175459 -0.852470
vn 0.492451 0.175459 -0.852470
vn 0.492451 0.175459 -0.852470
vn 0.492451 0.175459 -0.852470
vn -1.000000 0.000000 0.000000
vn -1.000000 0.000000 0.000000
vn -1.000000 0.000000 0.000000
vn -1.000000 0.000000 0.000000
vn 1.000000 -0.000035 0.000127
vn 1.000000 -0.000033 0.000002
vn 1.000000 -0.000033 -0.000006
vn 1.000000 -0.000035 0.000127
vn -1.000000 -0.000000 0.000000
vn -1.000000 0.000000 0.000000
vn -1.000000 0.000000 0.000000
vn -1.000000 -0.000000 0.000000
vn 1.000000 -0.000021 -0.000027
vn 1.000000 -0.000033 -0.000006
vn 1.000000 -0.000033 0.000002
vn 1.000000 -0.000022 -0.000029
vn 0.999992 0.004014 -0.000014
vn 0.999992 0.004015 -0.000015
vn 0.999992 0.003994 0.000000
vn 0.999992 0.004017 -0.000015
vn 0.999992 0.004018 -0.000015
vn 0.999992 0.004039 0.000000
vn -0.999992 0.004116 -0.000015
vn -0.999992 0.004115 -0.000015
vn -0.999991 0.004137 0.000000
vn -0.999992 0.004113 -0.000015
vn -0.999992 0.004115 -0.000015
vn -0.999992 0.004116 -0.000015
vn -0.999992 0.004112 -0.000015
vn 0.000004 -0.000001 1.000000
vn 0.000010 -0.000003 1.000000
vn 0.000047 -0.000017 1.000000
vn 0.009143 -0.816631 -0.577088
vn 0.009143 -0.816631 -0.577088
vn 0.009143 -0.816631 -0.577088
vn 0.009143 -0.816631 -0.577088
vn 0.565101 -0.650149 0.507904
vn 0.565101 -0.650149 0.507904
vn 0.565101 -0.650149 0.507904
vn 0.565101 -0.650149 0.507904
vn -0.760813 -0.626061 -0.170911
vn -0.760813 -0.626061 -0.170911
vn -0.760813 -0.626061 -0.170911
vn -0.760813 -0.626061 -0.170911
vn -0.282018 -0.926428 0.249393
vn -0.282018 -0.926428 0.249393
vn -0.282018 -0.926428 0.249393
vn -0.282018 -0.926428 0.249393
vn 0.360599 -0.646130 -0.672669
vn 0.360599 -0.646130 -0.672669
vn 0.360599 -0.646130 -0.672669
vn 0.360599 -0.646130 -0.672669
vn 0.555311 -0.665922 0.498174
vn 0.555311 -0.665922 0.498174
vn 0.555311 -0.665922 0.498174
vn 0.555311 -0.665922 0.498174
vn -0.720323 -0.693638 0.000001
vn -0.720323 -0.693638 0.000001
vn -0.720323 -0.693638 0.000001
vn -0.720323 -0.693638 0.000001
vn 0.534451 -0.696120 -0.479353
vn 0.534451 -0.696120 -0.479353
vn 0.534451 -0.696120 -0.479353
vn 0.534451 -0.696120 -0.479353
vn 0.309501 -0.729028 0.610514
vn 0.309501 -0.729028 0.610514
vn 0.309501 -0.729028 0.610514
vn 0.309501 -0.729028 0.610514
vn -0.330973 -0.722283 -0.607260
vn -0.330973 -0.722283 -0.607260
vn -0.330973 -0.722283 -0.607260
vn -0.330973 -0.722283 -0.607260
vn -0.286374 -0.787406 0.545877
vn -0.286374 -0.787406 0.545877
vn -0.286374 -0.787406 0.545877
vn -0.286374 -0.787406 0.545877
vn 0.007797 -0.929662 0.368330
vn 0.007797 -0.929662 0.368330
vn 0.007797 -0.929662 0.368330
vn 0.007797 -0.929662 0.368330
vn 0.340834 -0.935188 -0.096205
vn 0.340834 -0.935188 -0.096205
vn 0.340834 -0.935188 -0.096205
vn 0.340834 -0.935188 -0.096205
vn 1.000000 0.000000 0.000000
vn 1.000000 0.000000 0.000000
vn 1.000000 0.000000 0.000000
vn 1.000000 0.000000 0.000000
vn 0.548653 0.000000 -0.836050
vn 0.548653 0.000000 -0.836050
vn 0.548653 0.000000 -0.836050
vn 0.548653 0.000000 -0.836050
vn -0.000000 0.000000 -1.000000
vn -0.000000 0.000000 -1.000000
vn -0.000000 0.000000 -1.000000
vn -0.000000 0.000000 -1.000000
vn -0.514794 0.000000 -0.857314
vn -0.514794 0.000000 -0.857314
vn -0.514794 0.000000 -0.857314
vn -0.514794 0.000000 -0.857314
vn -1.000000 0.000000 0.000000
vn -1.000000 0.000000 0.000000
vn -1.000000 0.000000 0.000000
vn -0.544890 0.000000 0.838507
vn -0.544890 0.000000 0.838507
vn -0.544890 0.000000 0.838507
vn -0.544890 0.000000 0.838507
vn 0.000000 0.000000 1.000000
vn 0.000000 0.000000 1.000000
vn 0.000000 0.000000 1.000000
vn 0.000000 0.000000 1.000000
vn 0.544255 0.000000 0.838920
vn 0.544255 0.000000 0.838920
vn 0.544255 0.000000 0.838920
vn 0.544255 0.000000 0.838920
vn 1.000000 0.000000 0.000000
vn 1.000000 0.000000 0.000000
vn 1.000000 0.000000 0.000000
vn -1.000000 0.000000 -0.000321
vn -1.000000 0.000000 -0.000321
vn -1.000000 0.000000 -0.000321
vn 1.000000 0.000000 0.000000
vn 1.000000 0.000000 0.000000
vn 1.000000 0.000000 0.000000
vn -1.000000 0.000017 0.000037
vn -1.000000 0.000017 0.000037
vn -1.000000 0.000017 0.000037
vn -1.000000 0.000017 0.000037
vn 0.000000 0.000000 -1.000000
vn 0.000000 0.000000 -1.000000
vn 0.000000 0.000000 -1.000000
vn 0.000000 -1.000000 0.000000
vn 0.000000 -1.000000 0.000000
vn 0.000000 -1.000000 0.000000
vn 0.000000 -1.000000 0.000000
vn 0.000000 -1.000000 0.000000
vn 0.000000 -1.000000 0.000000
vn 0.000000 -1.000000 0.000000
vn 0.000000 -1.000000 0.000000
vn 0.000000 -1.000000 0.000000
vn 0.000000 -1.000000 0.000000
vn 0.000000 -1.000000 0.000000
vn 0.000000 -1.000000 0.000000
s off
f 9/1/1 13/2/2 5/3/3
f 25/4/4 26/5/5 27/6/6 28/7/7
f 10/8/8 4/9/9 15/10/10
f 12/11/11 3/12/12 16/13/13
f 11/14/14 14/15/15 6/16/16
f 53/17/17 54/18/18 43/19/19 44/20/20
f 51/21/21 52/22/22 45/23/23 46/24/24
f 50/25/25 51/21/26 59/26/27 61/27/28
f 48/28/29 49/29/30 56/30/31 57/31/32
f 20/32/33 21/33/34 9/1/35 5/3/36
f 22/34/37 23/35/38 11/14/39 6/16/40
f 10/8/41 17/36/42 18/37/43 8/38/44
f 5/3/45 12/11/46 19/39/47 20/32/48
f 29/40/49 27/6/50 26/5/51 30/41/52
f 6/16/53 9/1/54 21/33/55 22/34/56
f 55/42/57 56/30/58 49/29/59 42/43/60
f 7/44/61 10/8/62 15/10/63
f 24/45/64 17/36/65 10/8/66 7/44/67
f 31/46/68 26/5/69 25/4/70 32/47/71
f 30/41/72 26/5/73 31/46/74 33/48/75
f 7/49/76 11/14/77 23/35/78 24/50/79
f 57/51/80 50/25/81 47/52/82 48/53/83
f 12/11/84 16/13/85 8/54/86
f 18/55/87 19/39/88 12/11/89 8/54/90
f 2/56/91 9/1/92 6/16/93
f 13/2/94 9/1/95 2/56/96
f 52/22/97 53/17/98 44/20/99 45/23/100
f 14/15/101 11/14/102 1/57/103
f 54/18/104 58/58/105 43/19/106
f 1/57/107 11/14/108 7/49/109
f 4/9/110 10/8/111 8/38/112
f 3/12/113 12/11/114 5/3/115
f 6/16/116 14/15/117 2/56/118
f 7/44/119 15/10/120 1/59/121
f 8/54/122 16/13/123 4/60/124
f 5/3/125 13/2/126 3/12/127
f 35/61/128 34/62/129 31/46/130 32/47/131
f 25/4/132 36/63/133 35/61/134 32/47/135
f 37/64/136 36/63/137 25/4/138 28/7/139
f 27/6/140 38/65/141 37/64/142 28/7/143
f 39/66/144 38/65/145 27/6/146 29/40/147
f 30/41/148 40/67/149 39/66/150 29/40/151
f 41/68/152 40/67/153 30/41/154 33/48/155
f 33/48/156 31/46/157 34/62/158 41/68/159
f 18/69/160 17/70/161 34/62/162 35/61/163
f 19/71/164 18/69/165 35/61/166 36/63/167
f 20/72/168 19/71/169 36/63/170 37/64/171
f 21/73/172 20/72/173 37/64/174 38/65/175
f 22/74/176 21/73/177 38/65/178 39/66/179
f 23/75/180 22/74/181 39/66/182 40/67/183
f 24/76/184 23/75/185 40/67/186 41/68/187
f 17/70/188 24/76/189 41/68/190 34/62/191
f 62/77/192 63/78/193 58/58/194 60/79/195
f 44/80/196 43/81/197 64/82/198 65/83/199
f 45/84/200 44/80/201 65/83/202 66/85/203
f 46/86/204 45/84/205 67/87/206 68/88/207
f 68/88/208 69/89/209 59/90/210 46/86/211
f 48/91/212 47/92/213 70/93/214 71/94/215
f 71/94/216 72/95/217 49/96/218 48/91/219
f 42/97/220 49/96/221 72/95/222 73/98/223
f 16/13/224 3/12/225 51/21/226 50/25/227
f 3/12/228 13/2/229 52/22/230 51/21/231
f 13/2/232 2/56/233 53/17/234 52/22/235
f 2/56/236 14/15/237 54/18/238 53/17/239
f 14/15/240 1/57/241 55/99/242 54/18/243
f 1/59/244 15/10/245 56/30/246 55/42/247
f 57/31/248 56/30/249 15/10/250 4/9/251
f 4/60/252 16/13/253 50/25/254 57/51/255
f 43/81/256 58/100/257 63/101/258 64/82/259
f 47/92/260 61/102/261 74/103/262 70/93/263
f 73/98/264 62/104/265 60/105/266 42/97/267
f 69/106/268 74/107/269 61/27/270 59/26/271
f 59/26/272 51/21/273 46/24/274
f 50/25/275 61/27/276 47/52/277
f 60/79/278 55/99/279 42/108/280
f 54/18/281 55/99/282 60/79/283 58/58/284
f 45/84/285 66/85/286 67/87/287
f 63/109/288 62/110/289 75/111/290 76/112/291
f 65/113/292 64/114/293 77/115/294 78/116/295
f 66/117/296 65/113/297 78/116/298 79/118/299
f 68/119/300 67/120/301 80/121/302 81/122/303
f 69/123/304 68/119/305 81/122/306 82/124/307
f 71/125/308 70/126/309 83/127/310 84/128/311
f 72/129/312 71/125/313 84/128/314 85/130/315
f 73/131/316 72/129/317 85/130/318 86/132/319
f 64/114/320 63/109/321 76/112/322 77/115/323
f 70/126/324 74/133/325 87/134/326 83/127/327
f 62/110/328 73/131/329 86/132/330 75/111/331
f 74/133/332 69/123/333 82/124/334 87/134/335
f 67/120/336 66/117/337 79/118/338 80/121/339
f 76/112/340 75/111/341 88/135/342 89/136/343
f 78/116/344 77/115/345 89/136/346 90/137/347
f 79/118/348 78/116/349 90/137/350 91/138/351
f 81/122/352 80/121/353 91/138/354 92/139/355
f 82/124/356 81/122/357 92/139/358
f 84/128/359 83/127/360 93/140/361 94/141/362
f 85/130/363 84/128/364 94/141/365 95/142/366
f 86/132/367 85/130/368 95/142/369 88/135/370
f 77/115/371 76/112/372 89/136/373
f 83/127/374 87/134/375 93/140/376
f 75/111/377 86/132/378 88/135/379
f 87/134/380 82/124/381 92/139/382 93/140/383
f 80/121/384 79/118/385 91/138/386
f 89/136/387 88/135/388 95/142/389 90/137/390
f 91/138/391 94/141/392 93/140/393 92/139/394
f 90/137/395 95/142/396 94/141/397 91/138/398
