# This file uses centimeters as units for non-parametric coordinates.

v -87.248085 39.575695 28.233828
v 90.124603 39.464832 28.233828
v -87.248085 49.081146 28.233828
v 90.124603 48.970284 28.233828
v -87.248085 49.138367 23.990423
v 90.124603 49.027504 23.990572
v -87.248085 39.621593 23.990423
v 90.124603 39.511024 23.990572
v -79.298019 45.955181 26.997925
v -79.298019 0.000000 26.997925
v -79.942345 46.128929 17.957092
v -79.942345 0.000000 17.957092
v -84.549187 46.128929 17.957092
v -84.549187 0.000000 17.957092
v -85.193520 45.955181 26.997925
v -85.193520 0.000000 26.997925
v -87.794060 46.045780 22.300632
v -87.794060 0.000000 22.300632
v -76.697472 0.000000 22.300632
v -76.697472 46.045780 22.300632
v 80.616478 45.955181 27.594566
v 80.616478 0.000000 27.594566
v 81.260796 46.128929 18.552988
v 81.260796 0.000000 18.552988
v 85.868240 46.128929 18.552988
v 85.868240 0.000000 18.552988
v 86.511971 45.955181 27.594566
v 86.511971 0.000000 27.594566
v 89.112526 46.045780 22.897274
v 89.112526 0.000000 22.897274
v 78.015923 0.000000 22.897274
v 78.015923 46.045780 22.897274
v 91.881149 45.708420 -30.045509
v -90.600258 45.554043 -30.045509
v 91.881149 52.020550 -30.045509
v -90.600258 51.866173 -30.045509
v 92.598793 52.745937 30.045509
v -92.598793 52.623749 30.045509
v 92.598793 46.348572 30.045509
v -92.598793 46.226383 30.045509
v 89.091660 47.078430 -11.991411
v 89.092255 50.876141 -11.991411
v -89.702011 50.781368 -11.991487
v -89.702011 46.983662 -11.991411
v 89.092255 51.124691 9.775682
v 89.092255 47.308208 9.775682
v -89.702011 47.212841 9.775682
v -89.702011 51.029324 9.775682
v -92.598793 52.413940 12.103319
v 92.598793 52.536129 12.103319
v 92.598793 46.164093 12.103319
v -92.598793 46.042206 12.103319
v 91.989044 46.095551 7.265285
v 91.989044 52.460434 7.265285
v -92.017647 52.341221 7.265285
v -92.017647 45.976341 7.265285
v 91.989044 45.917336 -10.063871
v 91.989044 52.257778 -10.063871
v -92.017647 52.138565 -10.063946
v -92.017647 45.798420 -10.063946
v 91.904999 45.878887 -13.530850
v 91.904999 52.214268 -13.530850
v -90.600258 52.058697 -13.530850
v -90.600258 45.723019 -13.530850
v -0.158167 44.086872 30.045509
v -0.158167 50.484238 30.045509
v -12.249574 50.488411 11.125356
v -13.716668 49.212875 8.797720
v -14.723838 47.942101 6.287358
v 45.580566 48.317909 -9.957403
v 46.587883 49.574673 -11.884943
v 48.440098 50.883888 -13.424307
v 0.226975 49.811901 -30.045509
v 0.226975 43.499767 -30.045509
v 48.440098 44.548210 -13.424307
v 46.587883 45.776966 -11.884869
v 45.580566 41.977463 -9.957403
v -14.723838 41.578411 6.287358
v -13.716668 45.397282 8.797720
v -12.249574 44.117867 11.125356
v 80.626610 45.955482 -27.019381
v 80.626610 0.000000 -27.019381
v 81.270340 46.128929 -17.978251
v 81.270340 0.000000 -17.978251
v 85.877777 46.128929 -17.978251
v 85.877777 0.000000 -17.978251
v 86.521500 45.955482 -27.019381
v 86.521500 0.000000 -27.019381
v 89.122658 46.045479 -22.322088
v 89.122658 0.000000 -22.322088
v 78.025467 0.000000 -22.322088
v 78.025467 46.045479 -22.322088
v -80.690384 45.955482 -27.615726
v -80.690384 0.000000 -27.615726
v -81.334709 46.128929 -18.574448
v -81.334709 0.000000 -18.574448
v -85.941551 46.128929 -18.574448
v -85.941551 0.000000 -18.574448
v -86.585884 45.955482 -27.615726
v -86.585884 0.000000 -27.615726
v -89.186424 46.045479 -22.918135
v -89.186424 0.000000 -22.918135
v -78.089836 0.000000 -22.918135
v -78.089836 46.045479 -22.918135
v 88.576675 39.575401 -28.255283
v -90.197922 39.465126 -28.255283
v 88.576675 49.080849 -28.255283
v -90.197922 48.970284 -28.255283
v 88.576675 49.138069 -24.011433
v -90.197922 49.027504 -24.011433
v 88.576675 39.621593 -24.011433
v -90.197922 39.511024 -24.011433
vt 0.219896 0.304623
vt 0.219896 0.304623
vt 0.219896 0.304623
vt 0.219896 0.304623
vt 0.219896 0.304623
vt 0.219896 0.304623
vt 0.219896 0.304623
vt 0.219896 0.304623
vt 0.219896 0.304623
vt 0.219896 0.304623
vt 0.219896 0.304623
vt 0.219896 0.304623
vt 0.219896 0.304623
vt 0.219896 0.304623
vt 0.219896 0.304623
vt 0.219896 0.304623
vt 0.219896 0.304623
vt 0.219896 0.304623
vt 0.219896 0.304623
vt 0.219896 0.304623
vt 0.219896 0.304623
vt 0.219896 0.304623
vt 0.219896 0.304623
vt 0.219896 0.304623
vt 0.219896 0.304623
vt 0.219896 0.304623
vt 0.219896 0.304623
vt 0.219896 0.304623
vt 0.219896 0.304623
vt 0.219896 0.304623
vt 0.219896 0.304623
vt 0.219896 0.304623
vt 0.219896 0.304623
vt 0.219896 0.304623
vt 0.219896 0.304623
vt 0.219896 0.304623
vt 0.219896 0.304623
vt 0.219896 0.304623
vt 0.219896 0.304623
vt 0.219896 0.304623
vt 0.219896 0.304623
vt 0.219896 0.304623
vt 0.219896 0.304623
vt 0.219896 0.304623
vt 0.219896 0.304623
vt 0.219896 0.304623
vt 0.219896 0.304623
vt 0.219896 0.304623
vt 0.220595 0.301536
vt 0.220595 0.301536
vt 0.220595 0.301536
vt 0.220595 0.301536
vt 0.221687 0.278469
vt 0.221629 0.278425
vt 0.222015 0.277675
vt 0.222059 0.277696
vt 0.220595 0.301536
vt 0.220595 0.301536
vt 0.220595 0.301536
vt 0.220595 0.301536
vt 0.221629 0.278269
vt 0.221687 0.278376
vt 0.222059 0.277603
vt 0.222015 0.277520
vt 0.221423 0.279525
vt 0.221423 0.279432
vt 0.221351 0.279428
vt 0.221351 0.279583
vt 0.220893 0.279499
vt 0.220893 0.279406
vt 0.220838 0.279421
vt 0.220838 0.279577
vt 0.221126 0.279069
vt 0.221082 0.279117
vt 0.221494 0.277691
vt 0.221528 0.277671
vt 0.221494 0.277535
vt 0.221528 0.277577
vt 0.221082 0.278962
vt 0.221126 0.278975
vt 0.221458 0.279620
vt 0.221458 0.279465
vt 0.221738 0.278362
vt 0.222126 0.277545
vt 0.222126 0.277701
vt 0.221738 0.278517
vt 0.220595 0.301536
vt 0.220595 0.301536
vt 0.220595 0.301536
vt 0.220595 0.301536
vt 0.220595 0.301536
vt 0.220595 0.301536
vt 0.220595 0.301536
vt 0.220595 0.301536
vt 0.220595 0.301536
vt 0.220595 0.301536
vt 0.220595 0.301536
vt 0.220595 0.301536
vt 0.220595 0.301536
vt 0.220595 0.301536
vt 0.220595 0.301536
vt 0.220595 0.301536
vt 0.220595 0.301536
vt 0.220595 0.301536
vt 0.220595 0.301536
vt 0.220595 0.301536
vt 0.220595 0.301536
vt 0.220595 0.301536
vt 0.220595 0.301536
vt 0.220595 0.301536
vt 0.220595 0.301536
vt 0.220595 0.301536
vt 0.220595 0.301536
vt 0.220595 0.301536
vt 0.220929 0.279562
vt 0.220929 0.279407
vt 0.221176 0.279030
vt 0.221592 0.277655
vt 0.221592 0.277500
vt 0.221176 0.278874
vt 0.220595 0.301536
vt 0.220595 0.301536
vt 0.220595 0.301536
vt 0.220595 0.301536
vt 0.220595 0.301536
vt 0.220595 0.301536
vt 0.220595 0.301536
vt 0.220595 0.301536
vt 0.220595 0.301536
vt 0.220595 0.301536
vt 0.220595 0.301536
vt 0.220595 0.301536
vt 0.220595 0.301536
vt 0.220595 0.301536
vt 0.220595 0.301536
vt 0.220595 0.301536
vt 0.220595 0.301536
vt 0.220595 0.301536
vt 0.220595 0.301536
vt 0.220595 0.301536
vt 0.220595 0.301536
vt 0.220595 0.301536
vt 0.220595 0.301536
vt 0.219896 0.304623
vt 0.219896 0.304623
vt 0.219896 0.304623
vt 0.219896 0.304623
vt 0.219896 0.304623
vt 0.219896 0.304623
vt 0.219896 0.304623
vt 0.219896 0.304623
vt 0.219896 0.304623
vt 0.219896 0.304623
vt 0.219896 0.304623
vt 0.219896 0.304623
vt 0.219896 0.304623
vt 0.219896 0.304623
vt 0.219896 0.304623
vt 0.219896 0.304623
vt 0.219896 0.304623
vt 0.219896 0.304623
vt 0.219896 0.304623
vt 0.219896 0.304623
vt 0.219896 0.304623
vt 0.219896 0.304623
vt 0.219896 0.304623
vt 0.219896 0.304623
vt 0.219896 0.304623
vt 0.219896 0.304623
vt 0.219896 0.304623
vt 0.219896 0.304623
vt 0.219896 0.304623
vt 0.219896 0.304623
vt 0.219896 0.304623
vt 0.219896 0.304623
vt 0.219896 0.304623
vt 0.219896 0.304623
vt 0.219896 0.304623
vt 0.219896 0.304623
vt 0.219896 0.304623
vt 0.219896 0.304623
vt 0.219896 0.304623
vt 0.219896 0.304623
vt 0.219896 0.304623
vt 0.219896 0.304623
vt 0.219896 0.304623
vt 0.219896 0.304623
vt 0.219896 0.304623
vt 0.219896 0.304623
vt 0.219896 0.304623
vt 0.219896 0.304623
vn 0.000000 0.000000 1.000000
vn 0.000000 0.000000 1.000000
vn 0.000000 0.000000 1.000000
vn 0.000000 0.000000 1.000000
vn 0.000000 1.000000 0.000000
vn 0.000000 1.000000 0.000000
vn 0.000000 1.000000 0.000000
vn 0.000000 1.000000 0.000000
vn 0.000000 0.000000 -1.000000
vn 0.000000 0.000000 -1.000000
vn 0.000000 0.000000 -1.000000
vn 0.000000 0.000000 -1.000000
vn 0.000000 -1.000000 0.000000
vn 0.000000 -1.000000 0.000000
vn 0.000000 -1.000000 0.000000
vn 0.000000 -1.000000 0.000000
vn 1.000000 0.000000 0.000000
vn 1.000000 0.000000 0.000000
vn 1.000000 0.000000 0.000000
vn 1.000000 0.000000 0.000000
vn -1.000000 0.000000 0.000000
vn -1.000000 0.000000 0.000000
vn -1.000000 0.000000 0.000000
vn -1.000000 0.000000 0.000000
vn 1.000000 0.000000 0.000000
vn 1.000000 0.000000 0.000000
vn 0.874854 0.000000 0.484387
vn 0.874854 0.000000 0.484387
vn 0.000000 -0.000000 -1.000000
vn 0.000000 -0.000000 -1.000000
vn 0.000000 -0.000000 -1.000000
vn 0.000000 -0.000000 -1.000000
vn -0.874854 0.000000 0.484387
vn -0.874854 0.000000 0.484387
vn -1.000000 0.000000 -0.000000
vn -1.000000 0.000000 -0.000000
vn -0.000000 0.000000 1.000000
vn -0.000000 0.000000 1.000000
vn -0.000000 0.000000 1.000000
vn -0.000000 0.000000 1.000000
vn -0.000000 -1.000000 0.000000
vn -0.000000 -1.000000 0.000000
vn 0.000000 -1.000000 0.000000
vn 0.000000 -1.000000 0.000000
vn -1.000000 0.000000 -0.000000
vn -1.000000 0.000000 -0.000000
vn -0.801146 -0.000000 -0.598468
vn -0.801146 -0.000000 -0.598468
vn 0.000000 -1.000000 0.000000
vn 0.000000 -1.000000 0.000000
vn -0.000000 -1.000000 0.000000
vn -0.000000 -1.000000 0.000000
vn 0.801146 -0.000000 -0.598468
vn 0.801146 -0.000000 -0.598468
vn 1.000000 0.000000 0.000000
vn 1.000000 0.000000 0.000000
vn -1.000000 0.000000 0.000000
vn -0.874854 0.000000 0.484387
vn -0.874854 0.000000 0.484387
vn -1.000000 0.000000 0.000000
vn -0.000000 -0.000000 -1.000000
vn -0.000000 -0.000000 -1.000000
vn -0.000000 -0.000000 -1.000000
vn -0.000000 -0.000000 -1.000000
vn 0.874854 0.000000 0.484387
vn 1.000000 0.000000 -0.000000
vn 1.000000 0.000000 -0.000000
vn 0.874854 0.000000 0.484387
vn 0.000000 0.000000 1.000000
vn 0.000000 0.000000 1.000000
vn 0.000000 0.000000 1.000000
vn 0.000000 0.000000 1.000000
vn 0.000000 -1.000000 0.000000
vn 0.000000 -1.000000 0.000000
vn 0.000000 -1.000000 0.000000
vn 0.000000 -1.000000 0.000000
vn 1.000000 0.000000 -0.000000
vn 0.801146 -0.000000 -0.598468
vn 0.801146 -0.000000 -0.598468
vn 1.000000 0.000000 -0.000000
vn 0.000000 -1.000000 0.000000
vn 0.000000 -1.000000 0.000000
vn 0.000000 -1.000000 0.000000
vn 0.000000 -1.000000 0.000000
vn -0.801146 -0.000000 -0.598468
vn -1.000000 0.000000 0.000000
vn -1.000000 0.000000 0.000000
vn -0.801146 -0.000000 -0.598468
vn 0.000000 0.000000 -1.000000
vn 0.000000 0.000000 -1.000000
vn 0.000000 0.000000 -1.000000
vn 0.000000 0.000000 -1.000000
vn 0.014745 0.999803 -0.013259
vn 0.014745 0.999803 -0.013259
vn 0.014745 0.999803 -0.013259
vn 0.014745 0.999803 -0.013259
vn -0.000000 0.000000 1.000000
vn -0.000000 0.000000 1.000000
vn -0.000000 0.000000 1.000000
vn -0.000000 0.000000 1.000000
vn 0.026000 -0.760527 0.648785
vn 0.026000 -0.760527 0.648785
vn 0.026000 -0.760527 0.648785
vn 0.026000 -0.760527 0.648785
vn -0.493923 0.000002 0.869505
vn -0.493923 0.000002 0.869505
vn -0.493923 0.000002 0.869505
vn -0.493923 0.000002 0.869505
vn 0.685208 0.000001 0.728347
vn 0.685208 0.000001 0.728347
vn 0.685208 0.000001 0.728347
vn 0.685208 0.000001 0.728347
vn 0.335989 0.000001 0.941866
vn 0.335989 0.000001 0.941866
vn 0.335989 0.000001 0.941866
vn 0.335989 0.000001 0.941866
vn -0.015527 0.810759 0.585174
vn -0.015527 0.810759 0.585174
vn -0.015527 0.810759 0.585174
vn -0.015527 0.810759 0.585174
vn -0.880852 0.000000 0.473391
vn -0.880852 0.000000 0.473391
vn -0.880852 0.000000 0.473391
vn -0.880852 0.000000 0.473391
vn -0.015527 -0.810759 0.585175
vn -0.015527 -0.810759 0.585175
vn -0.015527 -0.810759 0.585175
vn -0.015527 -0.810759 0.585175
vn 0.390249 0.000000 -0.920709
vn 0.390249 0.000000 -0.920709
vn 0.390249 0.000000 -0.920709
vn 0.390249 0.000000 -0.920709
vn -0.025494 -0.898051 -0.439151
vn -0.025494 -0.898051 -0.439151
vn -0.025494 -0.898051 -0.439151
vn -0.025494 -0.898051 -0.439151
vn -0.657351 -0.000001 -0.753584
vn -0.657351 -0.000001 -0.753584
vn -0.657351 -0.000001 -0.753584
vn -0.657351 -0.000001 -0.753584
vn -0.025494 0.898052 -0.439151
vn -0.025494 0.898052 -0.439151
vn -0.025494 0.898052 -0.439151
vn -0.025494 0.898052 -0.439151
vn 0.000000 1.000000 0.000000
vn 0.000000 1.000000 0.000000
vn 0.000000 1.000000 0.000000
vn 0.000000 1.000000 0.000000
vn 1.000000 0.000000 0.000000
vn 1.000000 0.000000 0.000000
vn 1.000000 0.000000 0.000000
vn 1.000000 0.000000 0.000000
vn -0.000000 -1.000000 0.000000
vn -0.000000 -1.000000 0.000000
vn -0.000000 -1.000000 0.000000
vn -0.000000 -1.000000 0.000000
vn -1.000000 0.000000 -0.000000
vn -1.000000 0.000000 -0.000000
vn -1.000000 0.000000 -0.000000
vn -1.000000 0.000000 -0.000000
vn 1.000000 0.000002 0.000000
vn 1.000000 0.000002 0.000000
vn 1.000000 0.000002 0.000000
vn 1.000000 0.000002 0.000000
vn 0.022146 0.998725 0.045371
vn 0.022146 0.998725 0.045371
vn 0.022146 0.998725 0.045371
vn 0.022146 0.998725 0.045371
vn -1.000000 0.000002 -0.000000
vn -1.000000 0.000002 -0.000000
vn -1.000000 0.000002 -0.000000
vn -1.000000 0.000002 -0.000000
vn -0.022146 -0.998725 -0.045371
vn -0.022146 -0.998725 -0.045371
vn -0.022146 -0.998725 -0.045371
vn -0.022146 -0.998725 -0.045371
vn 0.585555 -0.000001 -0.810633
vn 0.585555 -0.000001 -0.810632
vn 0.585555 -0.000001 -0.810633
vn 0.585555 -0.000001 -0.810633
vn 0.008518 0.999927 0.008631
vn 0.008518 0.999927 0.008631
vn 0.008518 0.999927 0.008631
vn 0.008518 0.999927 0.008631
vn -0.399789 0.000000 -0.916607
vn -0.399789 0.000000 -0.916607
vn -0.399789 0.000000 -0.916607
vn -0.399789 0.000000 -0.916607
vn 0.013989 -0.662922 -0.748558
vn 0.013989 -0.662922 -0.748558
vn 0.013989 -0.662922 -0.748558
vn 0.013989 -0.662922 -0.748558
vn 1.000000 -0.000002 0.000000
vn 1.000000 -0.000002 0.000000
vn 1.000000 -0.000002 0.000000
vn 1.000000 -0.000002 0.000000
vn 0.000000 1.000000 0.000000
vn 0.000000 1.000000 0.000000
vn 0.000000 1.000000 0.000000
vn 0.000000 1.000000 0.000000
vn -1.000000 0.000000 -0.000000
vn -1.000000 0.000000 -0.000000
vn -1.000000 0.000000 -0.000000
vn -1.000000 0.000000 -0.000000
vn 0.000000 -1.000000 -0.000000
vn 0.000000 -1.000000 -0.000000
vn 0.000000 -1.000000 -0.000000
vn 0.000000 -1.000000 -0.000000
vn -0.000000 0.000000 1.000000
vn -0.000000 0.000000 1.000000
vn -0.000000 0.000000 1.000000
vn -0.000000 0.000000 1.000000
vn 0.000000 1.000000 0.000000
vn 0.000000 1.000000 0.000000
vn 0.000000 1.000000 0.000000
vn 0.000000 1.000000 0.000000
vn 0.019730 0.889369 -0.456764
vn 0.019730 0.889369 -0.456764
vn 0.019730 0.889369 -0.456764
vn 0.019730 0.889369 -0.456764
vn -0.011471 0.999933 -0.001532
vn -0.011471 0.999933 -0.001532
vn -0.011471 0.999933 -0.001532
vn -0.011471 0.999933 -0.001532
vn -0.031128 0.997479 -0.063772
vn -0.031128 0.997479 -0.063772
vn -0.031128 0.997479 -0.063772
vn -0.031128 0.997479 -0.063772
vn -0.026459 0.999612 0.008764
vn -0.026459 0.999612 0.008764
vn -0.026459 0.999612 0.008764
vn -0.026459 0.999612 0.008764
vn 0.054456 0.753883 0.654748
vn 0.054456 0.753883 0.654748
vn 0.054456 0.753883 0.654748
vn 0.054456 0.753883 0.654748
vn 0.000000 1.000000 0.000000
vn 0.000000 1.000000 0.000000
vn 0.000000 1.000000 0.000000
vn 0.000000 1.000000 0.000000
vn 0.000000 0.000000 -1.000000
vn 0.000000 0.000000 -1.000000
vn 0.000000 0.000000 -1.000000
vn 0.000000 0.000000 -1.000000
vn 0.000000 -1.000000 -0.000000
vn 0.000000 -1.000000 -0.000000
vn 0.000000 -1.000000 -0.000000
vn 0.000000 -1.000000 -0.000000
vn 0.054456 -0.753884 0.654747
vn 0.054456 -0.753884 0.654747
vn 0.054456 -0.753884 0.654747
vn 0.054456 -0.753884 0.654747
vn -0.043436 -0.662472 -0.747827
vn -0.043436 -0.662472 -0.747827
vn -0.043436 -0.662472 -0.747827
vn -0.043436 -0.662472 -0.747827
vn 0.031128 -0.997479 0.063772
vn 0.031128 -0.997479 0.063772
vn 0.031128 -0.997479 0.063772
vn 0.031128 -0.997479 0.063772
vn -0.019957 -0.750466 0.660608
vn -0.019957 -0.750466 0.660608
vn -0.019957 -0.750466 0.660608
vn -0.019957 -0.750466 0.660608
vn 0.019730 -0.889369 -0.456763
vn 0.019730 -0.889369 -0.456763
vn 0.019730 -0.889369 -0.456763
vn 0.019730 -0.889369 -0.456763
vn 0.000000 -1.000000 0.000000
vn 0.000000 -1.000000 0.000000
vn 0.000000 -1.000000 0.000000
vn 0.000000 -1.000000 0.000000
vn -1.000000 0.000000 -0.000000
vn -1.000000 0.000000 -0.000000
vn -0.874854 0.000000 -0.484387
vn -0.874854 0.000000 -0.484387
vn -0.000000 -0.000000 1.000000
vn -0.000000 -0.000000 1.000000
vn -0.000000 -0.000000 1.000000
vn -0.000000 -0.000000 1.000000
vn 0.874854 0.000000 -0.484387
vn 0.874854 0.000000 -0.484387
vn 1.000000 0.000000 0.000000
vn 1.000000 0.000000 0.000000
vn 0.000000 0.000000 -1.000000
vn 0.000000 0.000000 -1.000000
vn 0.000000 0.000000 -1.000000
vn 0.000000 0.000000 -1.000000
vn 0.000000 -1.000000 -0.000000
vn 0.000000 -1.000000 -0.000000
vn 0.000000 -1.000000 0.000000
vn 0.000000 -1.000000 0.000000
vn 1.000000 0.000000 0.000000
vn 1.000000 0.000000 0.000000
vn 0.801146 -0.000000 0.598468
vn 0.801146 -0.000000 0.598468
vn 0.000000 -1.000000 0.000000
vn 0.000000 -1.000000 0.000000
vn 0.000000 -1.000000 -0.000000
vn 0.000000 -1.000000 -0.000000
vn -0.801146 -0.000000 0.598468
vn -0.801146 -0.000000 0.598468
vn -1.000000 0.000000 -0.000000
vn -1.000000 0.000000 -0.000000
vn 1.000000 0.000000 0.000000
vn 0.874854 0.000000 -0.484387
vn 0.874854 0.000000 -0.484387
vn 1.000000 0.000000 0.000000
vn -0.000000 -0.000000 1.000000
vn -0.000000 -0.000000 1.000000
vn -0.000000 -0.000000 1.000000
vn -0.000000 -0.000000 1.000000
vn -0.874854 0.000000 -0.484387
vn -1.000000 0.000000 -0.000000
vn -1.000000 0.000000 -0.000000
vn -0.874854 0.000000 -0.484387
vn 0.000000 0.000000 -1.000000
vn 0.000000 0.000000 -1.000000
vn 0.000000 0.000000 -1.000000
vn 0.000000 0.000000 -1.000000
vn 0.000000 -1.000000 -0.000000
vn 0.000000 -1.000000 0.000000
vn 0.000000 -1.000000 0.000000
vn 0.000000 -1.000000 -0.000000
vn -1.000000 0.000000 -0.000000
vn -0.801146 -0.000000 0.598468
vn -0.801146 -0.000000 0.598468
vn -1.000000 0.000000 -0.000000
vn 0.000000 -1.000000 0.000000
vn 0.000000 -1.000000 -0.000000
vn 0.000000 -1.000000 -0.000000
vn 0.000000 -1.000000 0.000000
vn 0.801146 -0.000000 0.598468
vn 1.000000 0.000000 0.000000
vn 1.000000 0.000000 0.000000
vn 0.801146 -0.000000 0.598468
vn 0.000000 0.000000 -1.000000
vn 0.000000 0.000000 -1.000000
vn 0.000000 0.000000 -1.000000
vn 0.000000 0.000000 -1.000000
vn 0.000000 1.000000 0.000000
vn 0.000000 1.000000 0.000000
vn 0.000000 1.000000 0.000000
vn 0.000000 1.000000 0.000000
vn -0.000000 0.000000 1.000000
vn -0.000000 0.000000 1.000000
vn -0.000000 0.000000 1.000000
vn -0.000000 0.000000 1.000000
vn 0.000000 -1.000000 0.000000
vn 0.000000 -1.000000 0.000000
vn 0.000000 -1.000000 0.000000
vn 0.000000 -1.000000 0.000000
vn -1.000000 0.000000 -0.000000
vn -1.000000 0.000000 -0.000000
vn -1.000000 0.000000 -0.000000
vn -1.000000 0.000000 -0.000000
vn 1.000000 0.000000 0.000000
vn 1.000000 0.000000 0.000000
vn 1.000000 0.000000 0.000000
vn 1.000000 0.000000 0.000000
s off
f 1/1/1 2/2/2 4/3/3 3/4/4
f 3/4/5 4/3/6 6/5/7 5/6/8
f 5/6/9 6/5/10 8/7/11 7/8/12
f 7/8/13 8/7/14 2/9/15 1/10/16
f 2/2/17 8/11/18 6/12/19 4/3/20
f 7/13/21 1/1/22 3/4/23 5/14/24
f 9/15/25 10/16/26 19/17/27 20/18/28
f 11/19/29 12/20/30 14/21/31 13/22/32
f 17/23/33 18/24/34 16/25/35 15/26/36
f 15/26/37 16/25/38 10/27/39 9/28/40
f 10/16/41 16/29/42 18/30/43 19/17/44
f 13/22/45 14/21/46 18/24/47 17/23/48
f 19/17/49 18/30/50 14/31/51 12/20/52
f 20/18/53 19/17/54 12/20/55 11/19/56
f 21/32/57 32/33/58 31/34/59 22/35/60
f 23/36/61 25/37/62 26/38/63 24/39/64
f 29/40/65 27/41/66 28/42/67 30/43/68
f 27/41/69 21/44/70 22/45/71 28/42/72
f 22/35/73 31/34/74 30/46/75 28/47/76
f 25/37/77 29/40/78 30/43/79 26/38/80
f 31/34/81 24/39/82 26/48/83 30/46/84
f 32/33/85 23/36/86 24/39/87 31/34/88
f 73/49/89 74/50/90 34/51/91 36/52/92
f 68/53/93 69/54/94 55/55/95 48/56/96
f 65/57/97 66/58/98 38/59/99 40/60/100
f 78/61/101 79/62/102 47/63/103 56/64/104
f 55/55/105 56/64/106 47/63/107 48/56/108
f 45/65/109 46/66/110 53/67/111 54/68/112
f 42/69/113 41/70/114 61/71/115 62/72/116
f 71/73/117 72/74/118 63/75/119 43/76/120
f 63/75/121 64/77/122 44/78/123 43/76/124
f 75/79/125 76/80/126 44/78/127 64/77/128
f 50/81/129 51/82/130 46/66/131 45/65/132
f 79/62/133 80/83/134 52/84/135 47/63/136
f 48/56/137 47/63/138 52/84/139 49/85/140
f 67/86/141 68/53/142 48/56/143 49/85/144
f 66/58/145 67/87/146 49/88/147 38/59/148
f 39/89/149 51/90/150 50/91/151 37/92/152
f 80/93/153 65/57/154 40/60/155 52/94/156
f 49/95/157 52/96/158 40/97/159 38/98/160
f 54/99/161 53/100/162 57/101/163 58/102/164
f 69/103/165 70/104/166 59/105/167 55/106/168
f 59/107/169 60/108/170 56/109/171 55/110/172
f 77/111/173 78/112/174 56/113/175 60/114/176
f 58/115/177 57/116/178 41/70/179 42/69/180
f 70/117/181 71/73/182 43/76/183 59/118/184
f 43/76/185 44/78/186 60/119/187 59/118/188
f 76/80/189 77/120/190 60/119/191 44/78/192
f 62/121/193 61/122/194 33/123/195 35/124/196
f 72/125/197 73/49/198 36/52/199 63/126/200
f 34/51/201 64/127/202 63/128/203 36/52/204
f 74/129/205 75/130/206 64/131/207 34/132/208
f 37/133/209 66/58/210 65/57/211 39/134/212
f 50/135/213 67/87/214 66/58/215 37/133/216
f 45/65/217 68/53/218 67/86/219 50/81/220
f 54/68/221 69/54/222 68/53/223 45/65/224
f 58/136/225 70/104/226 69/103/227 54/137/228
f 42/69/229 71/73/230 70/117/231 58/115/232
f 62/72/233 72/74/234 71/73/235 42/69/236
f 35/124/237 73/49/238 72/125/239 62/138/240
f 33/123/241 74/50/242 73/49/243 35/124/244
f 61/139/245 75/130/246 74/129/247 33/140/248
f 41/70/249 76/80/250 75/79/251 61/71/252
f 57/116/253 77/120/254 76/80/255 41/70/256
f 53/141/257 78/112/258 77/111/259 57/142/260
f 46/66/261 79/62/262 78/61/263 53/67/264
f 51/82/265 80/83/266 79/62/267 46/66/268
f 39/134/269 65/57/270 80/93/271 51/143/272
f 81/144/273 82/145/274 91/146/275 92/147/276
f 83/148/277 84/149/278 86/150/279 85/151/280
f 89/152/281 90/153/282 88/154/283 87/155/284
f 87/155/285 88/154/286 82/156/287 81/157/288
f 82/145/289 88/158/290 90/159/291 91/146/292
f 85/151/293 86/150/294 90/153/295 89/152/296
f 91/146/297 90/159/298 86/160/299 84/149/300
f 92/147/301 91/146/302 84/149/303 83/148/304
f 93/161/305 104/162/306 103/163/307 94/164/308
f 95/165/309 97/166/310 98/167/311 96/168/312
f 101/169/313 99/170/314 100/171/315 102/172/316
f 99/170/317 93/173/318 94/174/319 100/171/320
f 94/164/321 103/163/322 102/175/323 100/176/324
f 97/166/325 101/169/326 102/172/327 98/167/328
f 103/163/329 96/168/330 98/177/331 102/175/332
f 104/162/333 95/165/334 96/168/335 103/163/336
f 105/178/337 106/179/338 108/180/339 107/181/340
f 107/181/341 108/180/342 110/182/343 109/183/344
f 109/183/345 110/182/346 112/184/347 111/185/348
f 111/185/349 112/184/350 106/186/351 105/187/352
f 106/179/353 112/188/354 110/189/355 108/180/356
f 111/190/357 105/178/358 107/181/359 109/191/360
