# This file uses centimeters as units for non-parametric coordinates.

v -6.536865 -3.971064 -3.041267
v -4.709625 -3.971064 4.622078
v 6.537247 -3.971064 3.041363
v 4.709244 -3.971064 -4.622078
v 1.540756 0.000000 1.541042
v -1.541519 0.000000 1.541042
v -1.541519 0.000000 -1.540947
v 1.540756 0.000000 -1.540947
v 0.000000 0.000000 2.265549
v 0.000000 0.000000 -2.265453
v -2.265930 0.000000 0.000000
v 2.265549 0.000000 0.000000
v 4.709244 -3.971064 4.622078
v -6.536865 -3.971064 3.041363
v -4.709625 -3.971064 -4.622078
v 6.537247 -3.971064 -3.041267
v 0.000000 7.365894 -1.808548
v 1.229858 7.365894 -1.230145
v 1.808548 7.365894 0.000000
v 1.229858 7.365894 1.230240
v 0.000000 7.365894 1.808643
v -1.230621 7.365894 1.230240
v -1.808548 7.365894 0.000000
v -1.230621 7.365894 -1.230145
v 2.241898 11.035407 0.000000
v 0.000000 11.035407 0.000000
v 0.000000 11.035407 2.241993
v 1.525116 11.035407 1.525021
v -1.525497 11.035407 1.525021
v -2.242279 11.035407 0.000000
v 0.000000 11.035407 -2.241898
v 1.525116 11.035407 -1.524925
v -1.525497 11.035407 -1.524925
v 0.000000 7.558763 -2.241898
v 1.525116 7.558763 -1.524734
v 2.241898 7.558763 0.000000
v 1.525116 7.558763 1.525021
v 0.000000 7.558763 2.241993
v -1.525497 7.558763 1.525021
v -2.241898 7.558763 0.000000
v -1.525497 7.558763 -1.524734
v -6.983185 -9.476804 -3.248787
v -6.983185 -9.476804 3.248882
v -5.031204 -9.476804 4.937553
v 5.030823 -9.476781 4.937553
v 6.983566 -9.476804 3.248882
v 6.983566 -9.476804 -3.248787
v 5.030823 -9.476804 -4.937553
v -5.031204 -9.476804 -4.937553
v 6.983566 -5.610002 -3.248787
v 6.983566 -5.610002 3.248882
v 5.031204 -5.610002 4.937553
v -5.031204 -5.610002 4.937553
v -6.983185 -5.610002 3.248882
v -6.983185 -5.610002 -3.248787
v -5.031204 -5.610002 -4.937553
v 5.031204 -5.610002 -4.937553
v -6.983185 -9.476804 1.178932
v 6.983566 -9.476804 1.178932
v -6.983185 -9.476804 -1.311684
v 6.983566 -9.476804 -1.311684
v -6.983185 -15.042054 3.248882
v -5.031204 -12.197769 4.937553
v 5.030823 -12.824451 4.937553
v 6.983185 -14.467287 3.248882
v -0.090027 -14.002824 4.937553
v 2.206802 -17.387604 4.937553
v 6.983185 -12.833750 1.178932
v 6.983185 -13.600766 -1.311684
v 6.983566 -15.577745 -3.248787
v 5.030823 -12.619173 -4.937553
v -5.031204 -12.306928 -4.937553
v -0.180054 -15.891026 -4.937553
v -1.816559 -14.147031 -4.937553
v -3.199387 -15.224732 -4.937553
v -6.983185 -13.108217 -3.248787
v -6.983185 -15.235163 -1.311684
v -6.983185 -13.299512 1.178932
v -6.240082 -15.042054 2.903175
v -4.496002 -12.197769 4.412079
v 0.165558 -14.002824 4.412079
v 1.887131 -17.387604 4.412079
v 4.495621 -12.824451 4.412079
v 6.240463 -14.467287 2.903175
v 6.240463 -12.833750 1.053524
v 6.240463 -13.600766 -1.172161
v 6.240463 -15.577745 -2.903080
v 4.495621 -12.619173 -4.412079
v -0.160980 -15.891026 -4.412079
v -1.623154 -14.147031 -4.412079
v -2.859116 -15.224732 -4.412079
v -4.496002 -12.306928 -4.412079
v -6.240082 -13.108217 -2.903080
v -6.240082 -15.235163 -1.172161
v -6.240082 -13.299512 1.053524
v -6.240082 -6.269121 2.903175
v -4.496002 -6.269121 4.412079
v 4.495621 -6.269121 4.412079
v 6.240463 -6.269121 2.903175
v 6.240463 -6.269121 -2.903080
v 4.495621 -6.269121 -4.412079
v -4.496002 -6.269121 -4.412079
v -6.240082 -6.269121 -2.903080
vt 0.171937 0.446182
vt 0.171937 0.446182
vt 0.171937 0.446182
vt 0.037861 0.228017
vt 0.037861 0.228017
vt 0.037861 0.228017
vt 0.037861 0.228017
vt 0.171937 0.446182
vt 0.171937 0.446182
vt 0.171937 0.446182
vt 0.171937 0.446182
vt 0.171937 0.446182
vt 0.171936 0.446182
vt 0.171937 0.446182
vt 0.171937 0.446182
vt 0.171937 0.446182
vt 0.171937 0.446182
vt 0.171937 0.446182
vt 0.171937 0.446182
vt 0.171937 0.446182
vt 0.171937 0.446182
vt 0.171937 0.446182
vt 0.171937 0.446182
vt 0.171937 0.446182
vt 0.171937 0.446182
vt 0.171937 0.446182
vt 0.171937 0.446182
vt 0.171937 0.446182
vt 0.171937 0.446182
vt 0.171937 0.446182
vt 0.171937 0.446182
vt 0.171937 0.446182
vt 0.171937 0.446182
vt 0.171937 0.446182
vt 0.171937 0.446182
vt 0.171937 0.446182
vt 0.171937 0.446182
vt 0.171937 0.446182
vt 0.171937 0.446182
vt 0.037861 0.228017
vt 0.037861 0.228017
vt 0.171937 0.446182
vt 0.171937 0.446182
vt 0.171937 0.446182
vt 0.171937 0.446182
vt 0.037861 0.228017
vt 0.037861 0.228017
vt 0.037861 0.228017
vt 0.171937 0.446182
vt 0.171937 0.446182
vt 0.171936 0.446182
vt 0.171936 0.446182
vt 0.171936 0.446182
vt 0.171936 0.446182
vt 0.171936 0.446182
vt 0.171937 0.446182
vt 0.171937 0.446182
vt 0.171937 0.446182
vt 0.171937 0.446182
vt 0.171936 0.446182
vt 0.037861 0.228017
vt 0.037861 0.228017
vt 0.037861 0.228017
vt 0.037861 0.228017
vt 0.037861 0.228017
vt 0.037861 0.228017
vt 0.037861 0.228017
vt 0.037861 0.228017
vt 0.037861 0.228017
vt 0.037861 0.228017
vt 0.037861 0.228017
vt 0.037861 0.228017
vt 0.037861 0.228017
vt 0.037861 0.228017
vt 0.037861 0.228017
vt 0.037861 0.228017
vt 0.171937 0.446182
vt 0.171937 0.446182
vt 0.171937 0.446182
vt 0.059672 0.228987
vt 0.059672 0.228987
vt 0.059672 0.228987
vt 0.059672 0.228987
vt 0.059672 0.228987
vt 0.059672 0.228987
vt 0.059672 0.228987
vt 0.059672 0.228987
vt 0.059672 0.228987
vt 0.059672 0.228987
vt 0.059672 0.228987
vt 0.060469 0.228192
vt 0.060469 0.228192
vt 0.060469 0.228192
vt 0.060469 0.228192
vt 0.060469 0.228192
vt 0.060469 0.228192
vt 0.060469 0.228192
vt 0.060469 0.228192
vt 0.060469 0.228192
vt 0.060469 0.228192
vt 0.171937 0.446182
vt 0.059672 0.228987
vt 0.059672 0.228987
vt 0.060469 0.228192
vt 0.060469 0.228192
vt 0.060469 0.228192
vt 0.060469 0.228192
vt 0.171937 0.446182
vt 0.171937 0.446182
vt 0.171937 0.446182
vt 0.060469 0.228192
vt 0.172176 0.447405
vt 0.172176 0.447405
vt 0.172176 0.447405
vt 0.172176 0.447405
vt 0.172176 0.447405
vt 0.172176 0.447405
vt 0.172176 0.447405
vt 0.172176 0.447405
vt 0.172176 0.447405
vt 0.172176 0.447405
vt 0.172176 0.447405
vt 0.172176 0.447405
vt 0.172176 0.447405
vt 0.172176 0.447405
vt 0.172176 0.447405
vt 0.172176 0.447405
vt 0.172176 0.447405
vt 0.172176 0.447405
vt 0.172176 0.447405
vt 0.172176 0.447405
vt 0.172176 0.447405
vt 0.172176 0.447405
vt 0.172176 0.447405
vt 0.172176 0.447405
vt 0.172176 0.447405
vt 0.172176 0.447405
vt 0.172176 0.447405
vt 0.172176 0.447405
vt 0.172176 0.447405
vt 0.172176 0.447405
vt 0.172176 0.447405
vt 0.172176 0.447405
vt 0.172176 0.447405
vt 0.172176 0.447405
vt 0.172176 0.447405
vt 0.172176 0.447405
vt 0.172176 0.447405
vt 0.172176 0.447405
vt 0.172176 0.447405
vt 0.172176 0.447405
vt 0.172176 0.447405
vt 0.172176 0.447405
vt 0.059672 0.228987
vn 0.294696 0.721381 0.626708
vn 0.294696 0.721381 0.626708
vn 0.294696 0.721381 0.626708
vn 0.000000 1.000000 0.000000
vn 0.000000 1.000000 0.000000
vn 0.000000 1.000000 0.000000
vn 0.000000 1.000000 0.000000
vn 0.000000 0.510348 -0.859968
vn 0.000000 0.510347 -0.859968
vn 0.000000 0.510347 -0.859968
vn 0.680864 0.732410 0.000000
vn 0.680864 0.732410 0.000000
vn 0.680864 0.732410 0.000000
vn -0.552011 0.792433 0.259488
vn -0.552011 0.792433 0.259488
vn -0.552011 0.792433 0.259488
vn -0.654256 0.000000 0.756273
vn -0.654256 0.000000 0.756273
vn -0.654256 0.000000 0.756273
vn -0.654256 0.000000 0.756273
vn 0.654147 -0.000032 0.756368
vn 0.654147 -0.000032 0.756368
vn 0.654147 -0.000032 0.756368
vn 0.654147 -0.000032 0.756368
vn 1.000000 0.000000 0.000000
vn 1.000000 0.000000 0.000000
vn 1.000000 0.000000 0.000000
vn 1.000000 0.000000 0.000000
vn 0.000000 0.000000 -1.000000
vn 0.000000 0.000000 -1.000000
vn 0.000000 0.000000 -1.000000
vn 0.000000 0.000000 -1.000000
vn 0.424885 0.056051 0.903510
vn 0.424885 0.056051 0.903510
vn 0.424885 0.056051 0.903510
vn 0.424885 0.056051 0.903510
vn -0.903620 0.056084 0.424648
vn -0.903620 0.056084 0.424648
vn -0.903620 0.056084 0.424648
vn -0.903620 0.056084 0.424648
vn 0.424885 0.056051 -0.903510
vn 0.424885 0.056051 -0.903510
vn 0.424885 0.056051 -0.903510
vn 0.424885 0.056051 -0.903510
vn 0.903477 0.056059 0.424954
vn 0.903477 0.056059 0.424954
vn 0.903478 0.056059 0.424954
vn 0.903478 0.056059 0.424954
vn 0.000000 1.000000 0.000000
vn 0.000000 1.000000 0.000000
vn 0.000000 1.000000 0.000000
vn 0.000000 1.000000 0.000000
vn -0.424693 0.056051 0.903600
vn -0.424693 0.056051 0.903600
vn -0.424693 0.056051 0.903600
vn -0.424694 0.056051 0.903600
vn -0.654278 0.000000 -0.756254
vn -0.654278 0.000000 -0.756254
vn -0.654278 0.000000 -0.756254
vn -0.654278 0.000000 -0.756254
vn -0.294590 0.721350 -0.626794
vn -0.294590 0.721350 -0.626794
vn -0.294590 0.721350 -0.626794
vn -0.424693 0.056051 -0.903601
vn -0.424693 0.056051 -0.903600
vn -0.424693 0.056051 -0.903601
vn -0.424693 0.056051 -0.903600
vn 0.000000 1.000000 0.000000
vn 0.000000 1.000000 0.000000
vn 0.000000 1.000000 0.000000
vn 0.000000 1.000000 0.000000
vn 0.000000 1.000000 0.000000
vn 0.000000 1.000000 0.000000
vn 0.000000 1.000000 0.000000
vn 0.000000 1.000000 0.000000
vn -0.903609 0.056084 -0.424672
vn -0.903609 0.056084 -0.424672
vn -0.903609 0.056084 -0.424672
vn -0.903609 0.056084 -0.424672
vn 0.654168 -0.000032 -0.756349
vn 0.654168 -0.000032 -0.756349
vn 0.654168 -0.000032 -0.756349
vn 0.654168 -0.000032 -0.756349
vn 0.551894 0.792482 -0.259586
vn 0.551894 0.792482 -0.259586
vn 0.551894 0.792482 -0.259586
vn 0.903466 0.056059 -0.424978
vn 0.903466 0.056059 -0.424978
vn 0.903466 0.056059 -0.424978
vn 0.903466 0.056059 -0.424978
vn -0.294593 0.721343 0.626801
vn -0.294593 0.721343 0.626801
vn -0.294593 0.721343 0.626801
vn 0.000000 0.510332 0.859977
vn 0.000000 0.510332 0.859977
vn 0.000000 0.510332 0.859977
vn 0.000000 0.000000 1.000000
vn 0.000000 0.000000 1.000000
vn 0.000000 0.000000 1.000000
vn 0.000000 0.000000 1.000000
vn -0.680929 0.732349 0.000000
vn -0.680929 0.732349 0.000000
vn -0.680929 0.732349 0.000000
vn -1.000000 0.000000 0.000000
vn -1.000000 0.000000 0.000000
vn -1.000000 0.000000 0.000000
vn -0.552006 0.792432 -0.259502
vn -0.552006 0.792432 -0.259502
vn -0.552006 0.792432 -0.259502
vn 0.294693 0.721389 -0.626702
vn 0.294693 0.721388 -0.626702
vn 0.294693 0.721389 -0.626702
vn 0.551899 0.792483 0.259573
vn 0.551899 0.792483 0.259573
vn 0.551899 0.792483 0.259573
vn -0.438186 0.742581 0.506524
vn -0.438186 0.742581 0.506524
vn -0.438186 0.742581 0.506524
vn -0.438196 0.742587 -0.506506
vn -0.438196 0.742587 -0.506506
vn -0.438196 0.742587 -0.506506
vn 0.438082 0.742600 -0.506585
vn 0.438082 0.742600 -0.506585
vn 0.438082 0.742600 -0.506585
vn 0.438072 0.742594 0.506604
vn 0.438072 0.742594 0.506604
vn 0.438072 0.742594 0.506604
vn 0.425489 -0.000025 -0.904964
vn 0.425489 -0.000025 -0.904963
vn 0.425489 -0.000025 -0.904963
vn 0.425489 -0.000025 -0.904964
vn 0.904998 -0.000012 -0.425415
vn 0.904998 -0.000012 -0.425415
vn 0.904998 -0.000012 -0.425415
vn 0.904998 -0.000012 -0.425415
vn 0.905019 0.000000 0.425372
vn 0.905019 0.000000 0.425372
vn 0.905019 0.000000 0.425372
vn 0.905019 0.000000 0.425372
vn 0.425443 0.000000 0.904985
vn 0.425443 0.000000 0.904985
vn 0.425443 0.000000 0.904985
vn 0.425443 0.000000 0.904985
vn -0.425356 0.000000 0.905026
vn -0.425356 0.000000 0.905026
vn -0.425356 0.000000 0.905026
vn -0.425356 0.000000 0.905026
vn -0.905062 -0.000050 0.425279
vn -0.905062 -0.000050 0.425279
vn -0.905062 -0.000050 0.425279
vn -0.905062 -0.000050 0.425279
vn -0.905042 -0.000061 -0.425323
vn -0.905042 -0.000061 -0.425323
vn -0.905042 -0.000061 -0.425323
vn -0.905042 -0.000061 -0.425323
vn -0.425402 -0.000025 -0.905005
vn -0.425402 -0.000025 -0.905005
vn -0.425402 -0.000025 -0.905005
vn -0.425402 -0.000025 -0.905005
vn 0.187797 -0.897361 -0.399343
vn 0.187797 -0.897361 -0.399343
vn 0.187797 -0.897361 -0.399343
vn 0.187797 -0.897361 -0.399343
vn 0.399214 -0.897433 -0.187729
vn 0.399214 -0.897433 -0.187729
vn 0.399214 -0.897433 -0.187729
vn 0.399214 -0.897433 -0.187729
vn 0.399190 -0.897452 0.187692
vn 0.399190 -0.897451 0.187692
vn 0.399190 -0.897451 0.187692
vn 0.399190 -0.897452 0.187692
vn 0.187740 -0.897400 0.399282
vn 0.187740 -0.897400 0.399282
vn 0.187740 -0.897400 0.399282
vn 0.187740 -0.897400 0.399282
vn -0.187707 -0.897366 0.399375
vn -0.187707 -0.897366 0.399375
vn -0.187707 -0.897366 0.399375
vn -0.187707 -0.897366 0.399375
vn -0.399389 -0.897378 0.187620
vn -0.399389 -0.897378 0.187619
vn -0.399389 -0.897378 0.187620
vn -0.399389 -0.897378 0.187620
vn -0.399414 -0.897359 -0.187657
vn -0.399414 -0.897359 -0.187657
vn -0.399414 -0.897359 -0.187657
vn -0.399414 -0.897359 -0.187657
vn -0.187763 -0.897327 -0.399436
vn -0.187763 -0.897327 -0.399436
vn -0.187763 -0.897327 -0.399436
vn -0.187763 -0.897327 -0.399436
vn -1.000000 0.000000 0.000000
vn -1.000000 0.000000 0.000000
vn -1.000000 0.000000 0.000000
vn -1.000000 0.000000 0.000000
vn -0.654257 0.000000 0.756273
vn -0.654257 0.000000 0.756273
vn -0.654257 0.000000 0.756273
vn -0.654257 0.000000 0.756273
vn 0.000000 0.000000 1.000000
vn 0.000000 0.000000 1.000000
vn 0.000000 0.000000 1.000000
vn 0.654140 -0.000030 0.756374
vn 0.654140 -0.000030 0.756374
vn 0.654140 -0.000030 0.756374
vn 0.654140 -0.000030 0.756374
vn 1.000000 -0.000091 -0.000036
vn 1.000000 -0.000096 -0.000012
vn 1.000000 -0.000097 -0.000009
vn 1.000000 -0.000091 -0.000036
vn 0.654131 0.000000 -0.756381
vn 0.654131 0.000000 -0.756381
vn 0.654131 0.000000 -0.756381
vn 0.654131 0.000000 -0.756381
vn -0.000000 0.000000 -1.000000
vn -0.000000 0.000000 -1.000000
vn 0.000000 0.000000 -1.000000
vn -0.654278 0.000000 -0.756254
vn -0.654278 0.000000 -0.756254
vn -0.654278 0.000000 -0.756255
vn -0.654278 0.000000 -0.756255
vn 0.964863 0.262754 0.000000
vn 0.964863 0.262754 0.000000
vn 0.964863 0.262754 0.000000
vn 0.964863 0.262754 0.000000
vn 0.630885 0.264261 0.729487
vn 0.630885 0.264261 0.729487
vn 0.630884 0.264261 0.729487
vn 0.630885 0.264261 0.729487
vn 0.000000 0.189018 0.981974
vn 0.000000 0.189018 0.981974
vn 0.000000 0.189018 0.981974
vn 0.000000 0.189018 0.981974
vn -0.631004 0.264202 0.729404
vn -0.631004 0.264202 0.729404
vn -0.631004 0.264202 0.729404
vn -0.631004 0.264202 0.729404
vn -0.964863 0.262754 0.000000
vn -0.964863 0.262754 0.000000
vn -0.964863 0.262754 0.000000
vn -0.964863 0.262754 0.000000
vn -0.631025 0.264204 -0.729386
vn -0.631025 0.264204 -0.729386
vn -0.631025 0.264204 -0.729386
vn -0.631025 0.264204 -0.729386
vn 0.000000 0.189018 -0.981974
vn 0.000000 0.189018 -0.981974
vn 0.000000 0.189018 -0.981974
vn 0.000000 0.189018 -0.981974
vn 0.630905 0.264263 -0.729468
vn 0.630905 0.264263 -0.729468
vn 0.630905 0.264263 -0.729468
vn 0.630905 0.264263 -0.729468
vn -1.000000 0.000000 0.000000
vn -1.000000 0.000000 0.000000
vn -1.000000 0.000000 0.000000
vn -1.000000 0.000000 0.000000
vn 1.000000 -0.000037 0.000118
vn 1.000000 -0.000069 0.000068
vn 1.000000 -0.000059 0.000083
vn 1.000000 -0.000037 0.000118
vn -1.000000 0.000000 0.000000
vn -1.000000 0.000000 0.000000
vn -1.000000 0.000000 0.000000
vn -1.000000 0.000000 0.000000
vn 1.000000 -0.000096 -0.000012
vn 1.000000 -0.000059 0.000083
vn 1.000000 -0.000069 0.000068
vn 1.000000 -0.000097 -0.000009
vn 1.000000 0.000000 0.000000
vn 1.000000 0.000000 0.000000
vn 1.000000 0.000000 0.000000
vn 1.000000 0.000000 0.000000
vn 1.000000 0.000000 0.000000
vn 1.000000 0.000000 0.000000
vn -1.000000 0.000000 0.000000
vn -1.000000 0.000000 0.000000
vn -1.000000 0.000000 0.000000
vn -1.000000 0.000000 0.000000
vn -1.000000 0.000000 0.000000
vn -1.000000 0.000000 0.000000
vn -1.000000 0.000000 0.000000
vn 0.000000 0.000000 1.000000
vn 0.000000 0.000000 1.000000
vn 0.000000 0.000000 1.000000
vn 0.000000 0.000000 1.000000
vn 0.000000 0.000000 -1.000000
vn 0.000000 0.000000 -1.000000
vn -0.000000 0.000000 -1.000000
vn 0.000000 0.000000 -1.000000
vn -0.000000 0.000000 -1.000000
vn -0.000000 0.000000 -1.000000
vn -0.000000 0.000000 -1.000000
vn -0.000000 0.000000 -1.000000
vn -0.000000 0.000000 -1.000000
vn -0.000000 0.000000 -1.000000
vn 0.433259 -0.638852 0.635732
vn 0.433259 -0.638851 0.635732
vn 0.433259 -0.638852 0.635732
vn 0.433259 -0.638852 0.635732
vn -0.340176 -0.904854 -0.255966
vn -0.340176 -0.904854 -0.255966
vn -0.340176 -0.904854 -0.255966
vn -0.340176 -0.904854 -0.255966
vn -0.858732 -0.509742 0.052366
vn -0.858732 -0.509742 0.052366
vn -0.858732 -0.509742 0.052366
vn -0.858732 -0.509742 0.052366
vn 0.704295 -0.419238 -0.572894
vn 0.704295 -0.419238 -0.572894
vn 0.704295 -0.419238 -0.572894
vn 0.704295 -0.419238 -0.572894
vn -0.321602 -0.820988 0.471754
vn -0.321602 -0.820988 0.471754
vn -0.321602 -0.820988 0.471754
vn -0.321602 -0.820988 0.471754
vn 0.199003 -0.752786 -0.627464
vn 0.199003 -0.752786 -0.627464
vn 0.199003 -0.752786 -0.627464
vn 0.199003 -0.752786 -0.627464
vn 0.002939 -0.950957 0.309310
vn 0.002939 -0.950957 0.309310
vn 0.002939 -0.950957 0.309310
vn 0.002939 -0.950957 0.309310
vn 0.232840 -0.661397 0.712979
vn 0.232840 -0.661397 0.712979
vn 0.232840 -0.661397 0.712979
vn 0.232840 -0.661397 0.712979
vn -0.440081 -0.623977 -0.645741
vn -0.440081 -0.623977 -0.645741
vn -0.440081 -0.623977 -0.645741
vn -0.440081 -0.623977 -0.645741
vn 0.533377 -0.804297 0.261945
vn 0.533377 -0.804297 0.261945
vn 0.533377 -0.804297 0.261945
vn 0.533377 -0.804297 0.261945
vn -0.739200 -0.656694 0.149451
vn -0.739200 -0.656694 0.149451
vn -0.739200 -0.656694 0.149451
vn -0.739200 -0.656694 0.149451
vn 0.604778 -0.734798 -0.307108
vn 0.604778 -0.734798 -0.307108
vn 0.604778 -0.734798 -0.307108
vn 0.604778 -0.734798 -0.307108
vn -0.698898 -0.415427 0.582204
vn -0.698898 -0.415427 0.582204
vn -0.698898 -0.415427 0.582204
vn -0.698898 -0.415427 0.582204
vn 0.180924 -0.946990 -0.265474
vn 0.180924 -0.946990 -0.265474
vn 0.180924 -0.946990 -0.265474
vn 0.180924 -0.946990 -0.265474
vn 0.240032 -0.633938 -0.735192
vn 0.240032 -0.633938 -0.735192
vn 0.240032 -0.633938 -0.735192
vn 0.240032 -0.633938 -0.735192
vn -0.006025 -0.772938 0.634454
vn -0.006025 -0.772938 0.634453
vn -0.006025 -0.772938 0.634454
vn -0.006025 -0.772938 0.634453
vn -0.206109 -0.731270 -0.650203
vn -0.206109 -0.731270 -0.650203
vn -0.206109 -0.731270 -0.650203
vn -0.206109 -0.731270 -0.650203
vn 0.654279 0.000000 -0.756254
vn 0.654279 0.000000 -0.756254
vn 0.654279 0.000000 -0.756254
vn 0.654279 0.000000 -0.756254
vn -0.000000 0.000000 -1.000000
vn -0.000000 0.000000 -1.000000
vn -0.000000 0.000000 -1.000000
vn 0.000000 0.000000 -1.000000
vn 0.000000 0.000000 -1.000000
vn 0.000000 0.000000 -1.000000
vn 0.000000 0.000000 -1.000000
vn 0.000000 0.000000 -1.000000
vn 0.000000 0.000000 -1.000000
vn -0.654115 0.000000 -0.756395
vn -0.654115 0.000000 -0.756395
vn -0.654115 0.000000 -0.756395
vn -0.654115 0.000000 -0.756395
vn -1.000000 0.000000 0.000000
vn -1.000000 0.000000 0.000000
vn -1.000000 0.000000 0.000000
vn -1.000000 -0.000000 0.000000
vn -1.000000 -0.000000 0.000000
vn -1.000000 -0.000000 0.000000
vn -1.000000 -0.000000 0.000000
vn -1.000000 0.000000 0.000000
vn -1.000000 0.000000 0.000000
vn -1.000000 0.000000 0.000000
vn -0.654138 0.000000 0.756375
vn -0.654138 0.000000 0.756375
vn -0.654138 0.000000 0.756375
vn -0.654138 0.000000 0.756375
vn 0.000000 0.000000 1.000000
vn 0.000000 0.000000 1.000000
vn 0.000000 0.000000 1.000000
vn 0.000000 0.000000 1.000000
vn 0.000000 0.000000 1.000000
vn 0.000000 0.000000 1.000000
vn 0.000000 0.000000 1.000000
vn 0.000000 0.000000 1.000000
vn 0.000000 0.000000 1.000000
vn 0.000000 0.000000 1.000000
vn 0.000000 0.000000 1.000000
vn 0.000000 0.000000 1.000000
vn 0.000000 0.000000 1.000000
vn 0.654302 0.000000 0.756233
vn 0.654302 0.000000 0.756233
vn 0.654302 0.000000 0.756233
vn 0.654302 0.000000 0.756233
vn 1.000000 0.000000 0.000000
vn 1.000000 0.000000 0.000000
vn 1.000000 0.000000 0.000000
vn 1.000000 -0.000000 0.000000
vn 1.000000 -0.000000 0.000000
vn 1.000000 -0.000000 0.000000
vn 1.000000 -0.000000 0.000000
vn 1.000000 0.000000 0.000000
vn 1.000000 0.000000 0.000000
vn 1.000000 0.000000 0.000000
vn 0.000000 -1.000000 0.000000
vn 0.000000 -1.000000 0.000000
vn 0.000000 -1.000000 0.000000
vn 0.000000 -1.000000 0.000000
vn 0.000000 -1.000000 0.000000
vn 0.000000 -1.000000 0.000000
vn 0.000000 -1.000000 0.000000
vn 0.000000 -1.000000 0.000000
vn 0.000000 -1.000000 0.000000
vn 0.000000 -1.000000 0.000000
vn 0.000000 -1.000000 0.000000
vn 0.000000 -1.000000 0.000000
vn 0.000000 0.000000 1.000000
vn 0.000000 0.000000 1.000000
vn 0.000000 0.000000 1.000000
vn 0.000000 0.000000 -1.000000
vn 0.000000 0.000000 -1.000000
vn 0.000000 0.000000 -1.000000
s off
f 9/1/1 13/2/2 5/3/3
f 25/4/4 26/5/5 27/6/6 28/7/7
f 10/8/8 4/9/9 15/10/10
f 12/11/11 3/12/12 16/13/13
f 11/14/14 14/15/15 6/16/16
f 53/17/17 54/18/18 43/19/19 44/20/20
f 51/21/21 52/22/22 45/23/23 46/24/24
f 50/25/25 51/21/26 59/26/27 61/27/28
f 48/28/29 49/29/30 56/30/31 57/31/32
f 20/32/33 21/33/34 9/1/35 5/3/36
f 22/34/37 23/35/38 11/14/39 6/16/40
f 10/8/41 17/36/42 18/37/43 8/38/44
f 5/3/45 12/11/46 19/39/47 20/32/48
f 29/40/49 27/6/50 26/5/51 30/41/52
f 6/16/53 9/1/54 21/33/55 22/34/56
f 55/42/57 56/30/58 49/29/59 42/43/60
f 7/44/61 10/8/62 15/10/63
f 24/45/64 17/36/65 10/8/66 7/44/67
f 31/46/68 26/5/69 25/4/70 32/47/71
f 30/41/72 26/5/73 31/46/74 33/48/75
f 7/49/76 11/14/77 23/35/78 24/50/79
f 57/51/80 50/25/81 47/52/82 48/53/83
f 12/11/84 16/13/85 8/54/86
f 18/55/87 19/39/88 12/11/89 8/54/90
f 2/56/91 9/1/92 6/16/93
f 13/2/94 9/1/95 2/56/96
f 52/22/97 53/17/98 44/20/99 45/23/100
f 14/15/101 11/14/102 1/57/103
f 54/18/104 58/58/105 43/19/106
f 1/57/107 11/14/108 7/49/109
f 4/9/110 10/8/111 8/38/112
f 3/12/113 12/11/114 5/3/115
f 6/16/116 14/15/117 2/56/118
f 7/44/119 15/10/120 1/59/121
f 8/54/122 16/13/123 4/60/124
f 5/3/125 13/2/126 3/12/127
f 35/61/128 34/62/129 31/46/130 32/47/131
f 25/4/132 36/63/133 35/61/134 32/47/135
f 37/64/136 36/63/137 25/4/138 28/7/139
f 27/6/140 38/65/141 37/64/142 28/7/143
f 39/66/144 38/65/145 27/6/146 29/40/147
f 30/41/148 40/67/149 39/66/150 29/40/151
f 41/68/152 40/67/153 30/41/154 33/48/155
f 33/48/156 31/46/157 34/62/158 41/68/159
f 18/69/160 17/70/161 34/62/162 35/61/163
f 19/71/164 18/69/165 35/61/166 36/63/167
f 20/72/168 19/71/169 36/63/170 37/64/171
f 21/73/172 20/72/173 37/64/174 38/65/175
f 22/74/176 21/73/177 38/65/178 39/66/179
f 23/75/180 22/74/181 39/66/182 40/67/183
f 24/76/184 23/75/185 40/67/186 41/68/187
f 17/70/188 24/76/189 41/68/190 34/62/191
f 77/77/192 78/78/193 58/58/194 60/79/195
f 44/80/196 43/81/197 62/82/198 63/83/199
f 64/84/200 63/83/201 66/85/202
f 46/86/203 45/87/204 64/84/205 65/88/206
f 65/88/207 68/89/208 59/90/209 46/86/210
f 48/91/211 47/92/212 70/93/213 71/94/214
f 72/95/215 74/96/216 75/97/217
f 42/98/218 49/99/219 72/95/220 76/100/221
f 16/13/222 3/12/223 51/21/224 50/25/225
f 3/12/226 13/2/227 52/22/228 51/21/229
f 13/2/230 2/56/231 53/17/232 52/22/233
f 2/56/234 14/15/235 54/18/236 53/17/237
f 14/15/238 1/57/239 55/101/240 54/18/241
f 1/59/242 15/10/243 56/30/244 55/42/245
f 57/31/246 56/30/247 15/10/248 4/9/249
f 4/60/250 16/13/251 50/25/252 57/51/253
f 43/81/254 58/102/255 78/103/256 62/82/257
f 47/92/258 61/104/259 69/105/260 70/93/261
f 76/100/262 77/106/263 60/107/264 42/98/265
f 68/108/266 69/109/267 61/27/268 59/26/269
f 59/26/270 51/21/271 46/24/272
f 50/25/273 61/27/274 47/52/275
f 60/79/276 55/101/277 42/110/278
f 54/18/279 55/101/280 60/79/281 58/58/282
f 45/87/283 44/80/284 63/83/285 64/84/286
f 71/94/287 73/111/288 74/96/289
f 71/94/290 74/96/291 48/91/292
f 48/91/293 74/96/294 72/95/295 49/99/296
f 63/112/297 62/113/298 79/114/299 80/115/300
f 66/116/301 63/112/302 80/115/303 81/117/304
f 67/118/305 66/116/306 81/117/307 82/119/308
f 64/120/309 67/118/310 82/119/311 83/121/312
f 65/122/313 64/120/314 83/121/315 84/123/316
f 68/124/317 65/122/318 84/123/319 85/125/320
f 69/126/321 68/124/322 85/125/323 86/127/324
f 70/128/325 69/126/326 86/127/327 87/129/328
f 71/130/329 70/128/330 87/129/331 88/131/332
f 73/132/333 71/130/334 88/131/335 89/133/336
f 74/134/337 73/132/338 89/133/339 90/135/340
f 75/136/341 74/134/342 90/135/343 91/137/344
f 72/138/345 75/136/346 91/137/347 92/139/348
f 76/140/349 72/138/350 92/139/351 93/141/352
f 77/142/353 76/140/354 93/141/355 94/143/356
f 78/144/357 77/142/358 94/143/359 95/145/360
f 62/113/361 78/144/362 95/145/363 79/114/364
f 80/115/365 79/114/366 96/146/367 97/147/368
f 81/117/369 80/115/370 97/147/371
f 82/119/372 81/117/373 98/148/374
f 83/121/375 82/119/376 98/148/377
f 84/123/378 83/121/379 98/148/380 99/149/381
f 85/125/382 84/123/383 99/149/384
f 86/127/385 85/125/386 99/149/387 100/150/388
f 87/129/389 86/127/390 100/150/391
f 88/131/392 87/129/393 100/150/394 101/151/395
f 89/133/396 88/131/397 101/151/398
f 90/135/399 89/133/400 101/151/401 102/152/402
f 91/137/403 90/135/404 102/152/405
f 92/139/406 91/137/407 102/152/408
f 93/141/409 92/139/410 102/152/411 103/153/412
f 94/143/413 93/141/414 103/153/415
f 95/145/416 94/143/417 103/153/418 96/146/419
f 79/114/420 95/145/421 96/146/422
f 97/147/423 96/146/424 103/153/425 102/152/426
f 97/147/427 102/152/428 101/151/429 98/148/430
f 98/148/431 101/151/432 100/150/433 99/149/434
f 64/84/435 66/85/436 67/154/437
f 98/148/438 81/117/439 97/147/440
