# This file uses centimeters as units for non-parametric coordinates.

v 4.140001 0.000000 -4.140181
v 0.000000 0.000000 -5.855053
v -4.140359 0.000000 -4.140181
v -5.854964 0.000000 -0.000089
v -4.140359 0.000000 4.140001
v 0.000000 0.000000 5.855053
v 4.140001 0.000000 4.140001
v 5.854964 0.000000 -0.000089
v 4.140001 14.442468 -4.140181
v 0.000000 14.442468 -5.855053
v -4.140359 14.442468 -4.140181
v -5.854964 14.442468 -0.000089
v -4.140359 14.442468 4.140001
v 0.000000 14.442468 5.855053
v 4.140001 14.442468 4.140001
v 5.854964 14.442468 -0.000089
v 0.000000 0.000000 -0.000089
v 3.385973 14.442468 -3.386062
v 0.000000 14.442468 -4.788608
v -3.386331 14.442468 -3.386062
v -4.788608 14.442468 -0.000089
v -3.386331 14.442468 3.385973
v 0.000000 14.442468 4.788608
v 3.385973 14.442468 3.385973
v 4.788608 14.442468 -0.000089
v 3.385973 1.339936 -3.386062
v 0.000000 1.339936 -4.788608
v 0.000000 1.339936 -0.000089
v -3.386331 1.339936 -3.386062
v -4.788608 1.339936 -0.000089
v -3.386331 1.339936 3.385973
v 0.000000 1.339936 4.788608
v 3.385973 1.339936 3.385973
v 4.788608 1.339936 -0.000089
vt 0.102030 0.354707
vt 0.102030 0.354707
vt 0.102030 0.354707
vt 0.102030 0.354707
vt 0.102030 0.354707
vt 0.102030 0.354707
vt 0.102030 0.354707
vt 0.102030 0.354707
vt 0.102030 0.354707
vt 0.102030 0.354707
vt 0.102030 0.354707
vt 0.102030 0.354707
vt 0.102030 0.354707
vt 0.102030 0.354707
vt 0.102030 0.354707
vt 0.102030 0.354707
vt 0.102030 0.354707
vt 0.102030 0.354707
vt 0.102030 0.354707
vt 0.102030 0.354707
vt 0.102030 0.354707
vt 0.102030 0.354707
vt 0.102030 0.354707
vt 0.102030 0.354707
vt 0.102030 0.354707
vt 0.102030 0.354707
vt 0.102030 0.354707
vt 0.102030 0.354707
vt 0.102030 0.354707
vt 0.102030 0.354707
vt 0.102030 0.354707
vt 0.102030 0.354707
vt 0.102030 0.354707
vt 0.102030 0.354707
vt 0.102030 0.354707
vt 0.102030 0.354707
vt 0.102030 0.354707
vt 0.102030 0.354707
vt 0.102030 0.354707
vt 0.102030 0.354707
vt 0.102030 0.354707
vt 0.102030 0.354707
vt 0.102030 0.354707
vt 0.102030 0.354707
vt 0.102030 0.354707
vt 0.102030 0.354707
vt 0.102030 0.354707
vt 0.102030 0.354707
vt 0.102030 0.354707
vt 0.102030 0.354707
vt 0.102030 0.354707
vt 0.102030 0.354707
vn 0.382689 0.000000 -0.923877
vn 0.382689 0.000000 -0.923877
vn 0.382689 0.000000 -0.923877
vn 0.382689 0.000000 -0.923877
vn -0.382661 0.000000 -0.923889
vn -0.382661 0.000000 -0.923889
vn -0.382661 0.000000 -0.923889
vn -0.382661 0.000000 -0.923889
vn -0.923901 0.000000 -0.382631
vn -0.923901 0.000000 -0.382631
vn -0.923901 0.000000 -0.382631
vn -0.923901 0.000000 -0.382631
vn -0.923901 0.000000 0.382631
vn -0.923901 0.000000 0.382631
vn -0.923901 0.000000 0.382631
vn -0.923901 0.000000 0.382631
vn -0.382695 0.000000 0.923875
vn -0.382695 0.000000 0.923875
vn -0.382695 0.000000 0.923875
vn -0.382695 0.000000 0.923875
vn 0.382723 0.000000 0.923863
vn 0.382723 0.000000 0.923863
vn 0.382723 0.000000 0.923863
vn 0.382723 0.000000 0.923863
vn 0.923873 0.000000 0.382699
vn 0.923873 0.000000 0.382699
vn 0.923873 0.000000 0.382699
vn 0.923873 0.000000 0.382699
vn 0.923873 0.000000 -0.382699
vn 0.923873 0.000000 -0.382699
vn 0.923873 0.000000 -0.382699
vn 0.923873 0.000000 -0.382699
vn 0.000000 -1.000000 0.000000
vn 0.000000 -1.000000 0.000000
vn 0.000000 -1.000000 0.000000
vn 0.000000 -1.000000 0.000000
vn 0.000000 -1.000000 0.000000
vn 0.000000 -1.000000 0.000000
vn 0.000000 -1.000000 0.000000
vn 0.000000 -1.000000 0.000000
vn 0.000000 -1.000000 0.000000
vn 0.000000 -1.000000 0.000000
vn 0.000000 -1.000000 0.000000
vn 0.000000 -1.000000 0.000000
vn 0.000000 -1.000000 0.000000
vn 0.000000 -1.000000 0.000000
vn 0.000000 -1.000000 0.000000
vn 0.000000 -1.000000 0.000000
vn 0.000000 -1.000000 0.000000
vn 0.000000 -1.000000 0.000000
vn 0.000000 -1.000000 0.000000
vn 0.000000 -1.000000 0.000000
vn 0.000000 -1.000000 0.000000
vn 0.000000 -1.000000 0.000000
vn 0.000000 -1.000000 0.000000
vn 0.000000 -1.000000 0.000000
vn 0.000000 1.000000 -0.000000
vn 0.000000 1.000000 0.000000
vn 0.000000 1.000000 0.000000
vn 0.000000 1.000000 0.000000
vn 0.000000 1.000000 0.000000
vn 0.000000 1.000000 0.000000
vn 0.000000 1.000000 0.000000
vn 0.000000 1.000000 0.000000
vn 0.000000 1.000000 0.000000
vn 0.000000 1.000000 0.000000
vn 0.000000 1.000000 0.000000
vn 0.000000 1.000000 0.000000
vn 0.000000 1.000000 0.000000
vn 0.000000 1.000000 0.000000
vn 0.000000 1.000000 0.000000
vn 0.000000 1.000000 0.000000
vn 0.000000 1.000000 0.000000
vn 0.000000 1.000000 0.000000
vn 0.000000 1.000000 0.000000
vn 0.000000 1.000000 0.000000
vn 0.000000 1.000000 0.000000
vn 0.000000 1.000000 0.000000
vn 0.000000 1.000000 -0.000000
vn 0.000000 1.000000 0.000000
vn 0.000000 1.000000 0.000000
vn 0.000000 1.000000 0.000000
vn 0.000000 1.000000 0.000000
vn 0.000000 1.000000 0.000000
vn 0.000000 1.000000 0.000000
vn 0.000000 1.000000 0.000000
vn 0.000000 1.000000 0.000000
vn 0.000000 1.000000 0.000000
vn 0.000000 1.000000 0.000000
vn 0.000000 1.000000 0.000000
vn 0.000000 1.000000 0.000000
vn 0.000000 1.000000 0.000000
vn 0.000000 1.000000 0.000000
vn 0.000000 1.000000 0.000000
vn 0.000000 1.000000 0.000000
vn 0.000000 1.000000 0.000000
vn 0.000000 1.000000 0.000000
vn 0.000000 1.000000 0.000000
vn 0.000000 1.000000 0.000000
vn 0.000000 1.000000 0.000000
vn 0.000000 1.000000 0.000000
vn 0.000000 1.000000 0.000000
vn 0.000000 1.000000 0.000000
vn 0.000000 1.000000 0.000000
vn 0.000000 1.000000 0.000000
vn 0.000000 1.000000 0.000000
vn 0.000000 1.000000 0.000000
vn 0.000000 1.000000 0.000000
vn 0.000000 1.000000 -0.000000
vn 0.000000 1.000000 -0.000000
vn 0.000000 1.000000 -0.000000
vn 0.000000 1.000000 -0.000000
vn -0.382690 0.000000 0.923877
vn -0.382690 0.000000 0.923877
vn -0.382690 0.000000 0.923877
vn -0.382690 0.000000 0.923877
vn 0.382656 0.000000 0.923891
vn 0.382656 0.000000 0.923891
vn 0.382656 0.000000 0.923891
vn 0.382656 0.000000 0.923891
vn 0.923903 0.000000 0.382628
vn 0.923903 0.000000 0.382628
vn 0.923903 0.000000 0.382628
vn 0.923903 0.000000 0.382628
vn 0.923906 0.000000 -0.382619
vn 0.923906 0.000000 -0.382619
vn 0.923906 0.000000 -0.382619
vn 0.923906 0.000000 -0.382619
vn 0.382677 0.000000 -0.923882
vn 0.382677 0.000000 -0.923882
vn 0.382677 0.000000 -0.923882
vn 0.382677 0.000000 -0.923882
vn -0.382711 0.000000 -0.923868
vn -0.382711 0.000000 -0.923868
vn -0.382711 0.000000 -0.923868
vn -0.382711 0.000000 -0.923868
vn -0.923872 0.000000 -0.382702
vn -0.923872 0.000000 -0.382702
vn -0.923872 0.000000 -0.382702
vn -0.923872 0.000000 -0.382702
vn -0.923868 0.000000 0.382711
vn -0.923868 0.000000 0.382711
vn -0.923868 0.000000 0.382711
vn -0.923868 0.000000 0.382711
s off
f 1/9/1 2/10/2 10/19/3 9/18/4
f 2/10/5 3/11/6 11/20/7 10/19/8
f 3/11/9 4/12/10 12/21/11 11/20/12
f 4/12/13 5/13/14 13/22/15 12/21/16
f 5/13/17 6/14/18 14/23/19 13/22/20
f 6/14/21 7/15/22 15/24/23 14/23/24
f 7/15/25 8/16/26 16/25/27 15/24/28
f 8/16/29 1/17/30 9/26/31 16/25/32
f 2/2/33 1/1/34 17/35/35
f 3/3/36 2/2/37 17/35/38
f 4/4/39 3/3/40 17/35/41
f 5/5/42 4/4/43 17/35/44
f 6/6/45 5/5/46 17/35/47
f 7/7/48 6/6/49 17/35/50
f 8/8/51 7/7/52 17/35/53
f 1/1/54 8/8/55 17/35/56
f 26/45/57 27/46/58 28/36/59
f 27/46/60 29/47/61 28/36/62
f 29/47/63 30/48/64 28/36/65
f 30/48/66 31/49/67 28/36/68
f 31/49/69 32/50/70 28/36/71
f 32/50/72 33/51/73 28/36/74
f 33/51/75 34/52/76 28/36/77
f 34/52/78 26/45/79 28/36/80
f 9/33/81 10/32/82 19/38/83 18/37/84
f 10/32/85 11/31/86 20/39/87 19/38/88
f 11/31/89 12/30/90 21/40/91 20/39/92
f 12/30/93 13/29/94 22/41/95 21/40/96
f 13/29/97 14/28/98 23/42/99 22/41/100
f 14/28/101 15/27/102 24/43/103 23/42/104
f 15/27/105 16/34/106 25/44/107 24/43/108
f 16/34/109 9/33/110 18/37/111 25/44/112
f 18/37/113 19/38/114 27/46/115 26/45/116
f 19/38/117 20/39/118 29/47/119 27/46/120
f 20/39/121 21/40/122 30/48/123 29/47/124
f 21/40/125 22/41/126 31/49/127 30/48/128
f 22/41/129 23/42/130 32/50/131 31/49/132
f 23/42/133 24/43/134 33/51/135 32/50/136
f 24/43/137 25/44/138 34/52/139 33/51/140
f 25/44/141 18/37/142 26/45/143 34/52/144
