# This file uses centimeters as units for non-parametric coordinates.

v -148.695435 -0.000017 4.503345
v 148.695419 -0.000017 4.503345
v -148.695435 4.503354 -0.000009
v 148.695419 4.503354 -0.000009
v -148.695435 -0.000009 -4.503371
v 148.695419 -0.000009 -4.503371
v -148.695435 -4.503363 0.000000
v 148.695419 -4.503363 0.000000
v 155.472443 -7.166401 0.000000
v 155.472443 -0.000017 7.166384
v 155.472443 -0.000009 -7.166410
v 155.472443 7.166410 0.000009
v -155.472443 -7.166401 0.000000
v -155.472443 -0.000017 7.166384
v -155.472443 7.166410 0.000009
v -155.472443 -0.000009 -7.166410
v 165.874634 -0.000017 0.000000
v -165.874619 -0.000017 0.000000
vt 0.220416 0.277083
vt 0.220416 0.277083
vt 0.220416 0.277083
vt 0.220416 0.277083
vt 0.220416 0.277083
vt 0.220416 0.277083
vt 0.220416 0.277083
vt 0.220416 0.277083
vt 0.220416 0.277083
vt 0.220416 0.277083
vt 0.049332 0.210114
vt 0.049332 0.210114
vt 0.049332 0.210114
vt 0.049332 0.210114
vt 0.049332 0.210114
vt 0.049332 0.210114
vt 0.049332 0.210114
vt 0.049332 0.210114
vt 0.049332 0.210114
vt 0.049332 0.210114
vt 0.049332 0.210114
vt 0.049332 0.210114
vt 0.049332 0.210114
vt 0.049332 0.210114
vt 0.049332 0.210114
vt 0.049332 0.210114
vt 0.049324 0.210114
vt 0.049347 0.210114
vn 0.000000 0.707105 0.707108
vn 0.000000 0.707105 0.707108
vn 0.000000 0.707105 0.707108
vn 0.000000 0.707105 0.707108
vn 0.000000 0.707107 -0.707107
vn 0.000000 0.707107 -0.707107
vn 0.000000 0.707107 -0.707107
vn 0.000000 0.707107 -0.707107
vn 0.000000 -0.707108 -0.707105
vn 0.000000 -0.707108 -0.707105
vn 0.000000 -0.707108 -0.707105
vn 0.000000 -0.707108 -0.707105
vn 0.000000 -0.707107 0.707107
vn 0.000000 -0.707107 0.707107
vn 0.000000 -0.707107 0.707107
vn 0.000000 -0.707107 0.707107
vn -0.267716 -0.681297 0.681295
vn -0.267716 -0.681297 0.681295
vn -0.267716 -0.681297 0.681295
vn -0.267716 -0.681297 0.681295
vn -0.267715 -0.681298 -0.681294
vn -0.267715 -0.681298 -0.681294
vn -0.267715 -0.681298 -0.681294
vn -0.267715 -0.681298 -0.681294
vn -0.267716 0.681296 -0.681296
vn -0.267716 0.681296 -0.681296
vn -0.267716 0.681296 -0.681296
vn -0.267716 0.681296 -0.681296
vn -0.267718 0.681294 0.681298
vn -0.267718 0.681294 0.681298
vn -0.267718 0.681294 0.681298
vn -0.267718 0.681294 0.681298
vn 0.267716 -0.681296 0.681295
vn 0.267716 -0.681296 0.681295
vn 0.267716 -0.681296 0.681295
vn 0.267716 -0.681296 0.681295
vn 0.267718 0.681294 0.681297
vn 0.267718 0.681294 0.681297
vn 0.267718 0.681294 0.681297
vn 0.267718 0.681294 0.681297
vn 0.267717 0.681295 -0.681296
vn 0.267717 0.681295 -0.681296
vn 0.267717 0.681295 -0.681296
vn 0.267717 0.681295 -0.681296
vn 0.267716 -0.681297 -0.681294
vn 0.267716 -0.681297 -0.681294
vn 0.267716 -0.681297 -0.681294
vn 0.267716 -0.681297 -0.681294
vn 0.437946 -0.635690 0.635690
vn 0.437946 -0.635690 0.635690
vn 0.437946 -0.635690 0.635690
vn 0.437947 -0.635689 -0.635690
vn 0.437947 -0.635689 -0.635690
vn 0.437947 -0.635689 -0.635690
vn 0.437948 0.635689 -0.635690
vn 0.437948 0.635689 -0.635690
vn 0.437948 0.635689 -0.635690
vn 0.437947 0.635688 0.635692
vn 0.437947 0.635687 0.635692
vn 0.437947 0.635687 0.635692
vn -0.437947 -0.635689 0.635690
vn -0.437947 -0.635689 0.635690
vn -0.437947 -0.635689 0.635690
vn -0.437948 0.635687 0.635692
vn -0.437948 0.635687 0.635692
vn -0.437948 0.635687 0.635692
vn -0.437948 0.635690 -0.635689
vn -0.437948 0.635690 -0.635689
vn -0.437948 0.635690 -0.635689
vn -0.437947 -0.635690 -0.635689
vn -0.437947 -0.635690 -0.635689
vn -0.437947 -0.635690 -0.635689
s off
f 1/1/1 2/2/2 4/4/3 3/3/4
f 3/3/5 4/4/6 6/6/7 5/5/8
f 5/5/9 6/6/10 8/8/11 7/7/12
f 7/7/13 8/8/14 2/10/15 1/9/16
f 2/11/17 8/12/18 9/13/19 10/14/20
f 8/12/21 6/15/22 11/16/23 9/13/24
f 6/15/25 4/17/26 12/18/27 11/16/28
f 4/17/29 2/11/30 10/14/31 12/18/32
f 7/19/33 1/20/34 14/21/35 13/22/36
f 1/20/37 3/23/38 15/24/39 14/21/40
f 3/23/41 5/25/42 16/26/43 15/24/44
f 5/25/45 7/19/46 13/22/47 16/26/48
f 10/14/49 9/13/50 17/27/51
f 9/13/52 11/16/53 17/27/54
f 11/16/55 12/18/56 17/27/57
f 12/18/58 10/14/59 17/27/60
f 13/22/61 14/21/62 18/28/63
f 14/21/64 15/24/65 18/28/66
f 15/24/67 16/26/68 18/28/69
f 16/26/70 13/22/71 18/28/72
