# This file uses centimeters as units for non-parametric coordinates.

v -38.812496 0.000000 22.397137
v 38.812603 0.000000 22.397137
v -33.505272 97.712120 19.403267
v 33.505295 99.103447 19.403267
v -33.505272 97.712120 -18.394279
v 33.505295 97.712120 -18.394279
v -38.812496 0.000000 -21.388628
v 38.812603 0.000000 -21.388628
v -38.812496 14.020615 -21.388628
v -38.812496 14.020615 22.397137
v 38.812603 14.020615 22.397137
v 38.812603 14.020615 -21.388628
v 33.505295 18.616438 19.403267
v -33.505272 18.616438 19.403267
v -33.505272 18.616449 -18.394279
v 33.505295 18.616449 -18.394279
v -38.764595 113.935547 22.122955
v 38.764671 113.935547 22.122955
v 38.764671 101.331398 -21.114254
v -38.764595 101.331398 -21.114254
v 22.592594 22.940035 19.403267
v -21.669971 24.630898 19.403267
v 22.592594 93.388527 19.403267
v -22.592497 93.388527 19.403267
v -22.592497 93.388527 -18.394279
v 22.592594 93.388527 -18.394279
v 22.592594 22.940050 -18.394279
v -21.475304 23.882179 -18.394279
v -33.505272 22.940035 13.247490
v -33.505272 22.940050 -12.239075
v -33.505272 92.570343 12.801075
v -33.505272 93.388527 -12.239075
v 33.505295 22.940050 -12.239075
v 33.505295 22.940035 13.247490
v 33.505295 93.388527 -12.239075
v 33.505295 92.769508 12.411308
v 19.048418 25.183771 16.960239
v -18.052172 26.874632 16.960239
v 19.048418 91.144783 16.960239
v -19.048309 91.144783 16.960239
v -29.174210 25.183771 10.454273
v -29.174210 25.183783 -9.445764
v -29.174210 90.326614 10.007858
v -29.174210 91.144783 -9.445764
v -19.048332 91.144783 -15.951633
v 19.048418 91.144783 -15.951633
v 19.048418 25.183783 -15.951633
v -17.841959 26.125914 -15.951633
v 29.174271 25.183783 -9.445764
v 29.174271 25.183771 10.454273
v 29.174271 91.144783 -9.445764
v 29.174271 90.525772 9.618092
v -45.923851 115.075638 26.033974
v 45.923935 115.075638 26.033974
v 45.923935 119.519913 25.025177
v -45.923851 119.519913 25.025177
v 45.923935 100.191322 -25.025274
v 36.601757 104.635590 -26.033974
v -45.923851 100.191322 -25.025274
v -45.923851 104.635590 -26.033974
v -45.923851 115.881569 12.544155
v -45.923851 109.734894 -8.541393
v -37.700577 112.985016 2.607727
v -45.923939 110.259155 3.540421
v 45.923935 106.416847 -19.923594
v 45.923935 102.637260 -25.580311
v 33.505295 60.703007 19.403267
v 33.505295 84.416374 19.403267
v 28.067923 72.752602 19.403267
v 33.505379 73.961235 16.479778
v -33.505272 57.767780 -18.394279
v -33.505272 35.364880 -18.394279
v -27.521729 47.733273 -18.394279
v -33.505356 48.838055 -15.550709
vt 0.210219 0.277041
vt 0.210219 0.277041
vt 0.210219 0.277041
vt 0.210219 0.277041
vt 0.210219 0.277041
vt 0.210219 0.277041
vt 0.210219 0.277041
vt 0.210219 0.277041
vt 0.210219 0.277041
vt 0.210219 0.277041
vt 0.210219 0.277041
vt 0.210219 0.277041
vt 0.210219 0.277041
vt 0.210219 0.277041
vt 0.210219 0.277041
vt 0.210219 0.277041
vt 0.210219 0.277041
vt 0.210219 0.277041
vt 0.210219 0.277041
vt 0.210219 0.277041
vt 0.210219 0.277041
vt 0.210219 0.277041
vt 0.210219 0.277041
vt 0.210219 0.277041
vt 0.210219 0.277041
vt 0.210219 0.277041
vt 0.210219 0.277041
vt 0.210219 0.277041
vt 0.210219 0.277041
vt 0.210219 0.277041
vt 0.210219 0.277041
vt 0.210219 0.277041
vt 0.210219 0.277041
vt 0.210219 0.277041
vt 0.210219 0.277041
vt 0.210219 0.277041
vt 0.210219 0.277041
vt 0.210219 0.277041
vt 0.210219 0.277041
vt 0.210219 0.277041
vt 0.210219 0.277041
vt 0.210219 0.277041
vt 0.210219 0.277041
vt 0.210219 0.277041
vt 0.210219 0.277041
vt 0.210219 0.277041
vt 0.210219 0.277041
vt 0.210219 0.277041
vt 0.210219 0.277041
vt 0.210219 0.277041
vt 0.210219 0.277041
vt 0.210219 0.277041
vt 0.210219 0.277041
vt 0.210219 0.277041
vt 0.210219 0.277041
vt 0.210219 0.277041
vt 0.210219 0.277041
vt 0.210219 0.277041
vt 0.210219 0.277041
vt 0.210219 0.277041
vt 0.210219 0.277041
vt 0.210219 0.277041
vt 0.210219 0.277041
vt 0.210219 0.277041
vt 0.210219 0.277041
vt 0.210219 0.277041
vt 0.210219 0.277041
vt 0.210219 0.277041
vt 0.210219 0.277041
vt 0.210219 0.277041
vt 0.210219 0.277041
vt 0.210219 0.277041
vt 0.210219 0.277041
vt 0.210219 0.277040
vt 0.210219 0.277041
vt 0.210219 0.277041
vt 0.210219 0.277041
vt 0.210219 0.277041
vt 0.210219 0.277041
vt 0.210219 0.277041
vt 0.210219 0.277041
vt 0.210219 0.277041
vt 0.210219 0.277041
vt 0.210219 0.277041
vt 0.210219 0.277041
vt 0.210219 0.277041
vt 0.210219 0.277041
vn 0.000000 0.545832 0.837895
vn 0.000000 0.545832 0.837895
vn 0.000000 0.545832 0.837895
vn 0.000000 0.545832 0.837895
vn 0.000000 0.545892 -0.837855
vn 0.000000 0.545892 -0.837855
vn 0.000000 0.545892 -0.837855
vn 0.000000 0.545892 -0.837855
vn 0.000000 -1.000000 0.000000
vn 0.000000 -1.000000 0.000000
vn 0.000000 -1.000000 0.000000
vn 0.000000 -1.000000 0.000000
vn 0.654618 0.755960 0.000000
vn 0.654618 0.755960 0.000000
vn 0.654618 0.755960 0.000000
vn 0.654618 0.755960 0.000000
vn -0.654624 0.755955 0.000000
vn -0.654624 0.755955 0.000000
vn -0.654624 0.755955 0.000000
vn -0.654624 0.755955 0.000000
vn -1.000000 0.000000 0.000000
vn -1.000000 0.000000 0.000000
vn -1.000000 0.000000 0.000000
vn -1.000000 0.000000 0.000000
vn 0.000000 0.000000 1.000000
vn 0.000000 0.000000 1.000000
vn 0.000000 0.000000 1.000000
vn 0.000000 0.000000 1.000000
vn 1.000000 0.000000 0.000000
vn 1.000000 0.000000 0.000000
vn 1.000000 0.000000 0.000000
vn 1.000000 0.000000 0.000000
vn 0.000000 0.000000 -1.000000
vn 0.000000 0.000000 -1.000000
vn 0.000000 0.000000 -1.000000
vn 0.000000 0.000000 -1.000000
vn -0.000000 0.000000 1.000000
vn -0.000000 0.000000 1.000000
vn -0.000000 0.000000 1.000000
vn -0.000000 0.000000 1.000000
vn -1.000000 0.000000 0.000000
vn -1.000000 0.000000 0.000000
vn -1.000000 0.000000 0.000000
vn -1.000000 0.000000 0.000000
vn 0.000000 0.000000 -1.000000
vn 0.000000 0.000000 -1.000000
vn 0.000000 0.000000 -1.000000
vn 0.000000 0.000000 -1.000000
vn 1.000000 -0.000000 0.000000
vn 1.000000 -0.000000 0.000000
vn 1.000000 -0.000000 0.000000
vn 1.000000 -0.000000 0.000000
vn 0.001661 -0.172523 0.985004
vn 0.001661 -0.172523 0.985004
vn 0.001661 -0.172523 0.985004
vn 0.001661 -0.172523 0.985004
vn 0.865588 -0.493452 0.085224
vn 0.865588 -0.493452 0.085224
vn 0.865588 -0.493452 0.085224
vn 0.865588 -0.493452 0.085224
vn 0.000000 -0.600779 -0.799415
vn 0.000000 -0.600780 -0.799415
vn 0.000000 -0.600779 -0.799415
vn 0.000000 -0.600780 -0.799415
vn -0.881201 -0.467125 0.072657
vn -0.881201 -0.467125 0.072657
vn -0.881201 -0.467125 0.072657
vn -0.881201 -0.467125 0.072657
vn 0.000000 0.000000 1.000000
vn 0.000000 0.000000 1.000000
vn 0.000000 0.000000 1.000000
vn 0.000000 0.000000 1.000000
vn -0.000000 0.000000 1.000000
vn -0.000000 0.000000 1.000000
vn -0.000000 0.000000 1.000000
vn -0.000000 0.000000 1.000000
vn -0.000000 0.000000 1.000000
vn -0.000000 0.000000 1.000000
vn -0.000000 0.000000 1.000000
vn -0.000000 0.000000 1.000000
vn -0.000000 0.000000 1.000000
vn -0.000000 0.000000 1.000000
vn -0.000000 0.000000 1.000000
vn -0.000000 0.000000 1.000000
vn 0.000000 0.000000 -1.000000
vn 0.000000 0.000000 -1.000000
vn 0.000000 0.000000 -1.000000
vn 0.000000 0.000000 -1.000000
vn -0.000000 0.000000 -1.000000
vn -0.000000 0.000000 -1.000000
vn -0.000000 0.000000 -1.000000
vn -0.000000 0.000000 -1.000000
vn 0.000000 0.000000 -1.000000
vn 0.000000 0.000000 -1.000000
vn 0.000000 0.000000 -1.000000
vn 0.000000 0.000000 -1.000000
vn 0.000000 0.000000 -1.000000
vn 0.000000 0.000000 -1.000000
vn 0.000000 0.000000 -1.000000
vn -1.000000 0.000000 0.000000
vn -1.000000 0.000000 0.000000
vn -1.000000 0.000000 0.000000
vn -1.000000 0.000000 0.000000
vn -1.000000 0.000000 0.000000
vn -1.000000 0.000000 0.000000
vn -1.000000 0.000000 0.000000
vn -1.000000 0.000000 0.000000
vn -1.000000 -0.000000 0.000000
vn -1.000000 -0.000000 0.000000
vn -1.000000 -0.000000 0.000000
vn -1.000000 -0.000000 0.000000
vn -1.000000 0.000000 0.000025
vn -1.000000 0.000000 0.000025
vn -1.000000 0.000000 0.000025
vn 1.000000 0.000000 0.000000
vn 1.000000 0.000000 0.000000
vn 1.000000 0.000000 0.000000
vn 1.000000 0.000000 0.000000
vn 1.000000 0.000000 0.000000
vn 1.000000 0.000000 0.000000
vn 1.000000 0.000000 0.000000
vn 1.000000 0.000000 0.000000
vn 1.000000 -0.000001 0.000000
vn 1.000000 -0.000001 0.000000
vn 1.000000 -0.000001 0.000000
vn 1.000000 -0.000001 0.000000
vn 1.000000 -0.000001 0.000007
vn 1.000000 -0.000001 0.000007
vn 1.000000 -0.000001 0.000007
vn 1.000000 -0.000001 0.000007
vn 0.030588 0.735934 0.676362
vn 0.030588 0.735934 0.676362
vn 0.030588 0.735935 0.676361
vn 0.030588 0.735934 0.676362
vn -0.567539 0.000000 0.823346
vn -0.567539 0.000000 0.823347
vn -0.567539 0.000000 0.823346
vn -0.567539 0.000000 0.823347
vn 0.000000 -0.736507 0.676429
vn 0.000000 -0.736507 0.676430
vn 0.000000 -0.736507 0.676429
vn 0.000000 -0.736507 0.676429
vn 0.563545 0.008128 0.826045
vn 0.563545 0.008128 0.826045
vn 0.563545 0.008128 0.826045
vn 0.563545 0.008128 0.826045
vn -0.459994 0.887922 0.000001
vn -0.459994 0.887922 0.000001
vn -0.459994 0.887922 0.000001
vn -0.459994 0.887922 0.000001
vn -0.541979 -0.005567 -0.840373
vn -0.541979 -0.005567 -0.840373
vn -0.541979 -0.005567 -0.840374
vn -0.541979 -0.005567 -0.840373
vn -0.459748 -0.887449 -0.032638
vn -0.459748 -0.887449 -0.032638
vn -0.459748 -0.887449 -0.032638
vn -0.459748 -0.887449 -0.032638
vn -0.542000 0.000000 0.840378
vn -0.542000 0.000000 0.840378
vn -0.542000 0.000000 0.840378
vn -0.542000 0.000000 0.840378
vn 0.000000 -0.736455 -0.676487
vn 0.000000 -0.736455 -0.676487
vn 0.000000 -0.736455 -0.676487
vn 0.000000 -0.736455 -0.676487
vn -0.567479 0.000000 -0.823388
vn -0.567479 0.000000 -0.823388
vn -0.567479 0.000000 -0.823388
vn -0.567479 0.000000 -0.823388
vn 0.017134 0.736193 -0.676555
vn 0.017134 0.736193 -0.676555
vn 0.017134 0.736193 -0.676555
vn 0.017134 0.736193 -0.676555
vn 0.562645 0.009718 -0.826642
vn 0.562645 0.009718 -0.826642
vn 0.562645 0.009718 -0.826642
vn 0.562645 0.009718 -0.826642
vn 0.459997 0.887921 0.000000
vn 0.459997 0.887921 0.000000
vn 0.459997 0.887921 0.000000
vn 0.459997 0.887921 0.000000
vn 0.542004 0.000000 0.840376
vn 0.542004 0.000000 0.840376
vn 0.542004 0.000000 0.840376
vn 0.542004 0.000000 0.840376
vn 0.459852 -0.887640 -0.025139
vn 0.459852 -0.887639 -0.025139
vn 0.459852 -0.887640 -0.025139
vn 0.459852 -0.887639 -0.025139
vn 0.541962 -0.010397 -0.840339
vn 0.541962 -0.010397 -0.840339
vn 0.541962 -0.010397 -0.840339
vn 0.541962 -0.010397 -0.840339
vn 0.000000 0.221357 0.975193
vn 0.000000 0.221357 0.975193
vn 0.000000 0.221357 0.975193
vn 0.000000 0.221357 0.975193
vn 1.000000 -0.000000 0.000000
vn 1.000000 -0.000000 0.000000
vn 1.000000 -0.000000 0.000000
vn 1.000000 -0.000000 0.000000
vn 1.000000 -0.000000 0.000000
vn 0.000001 -0.221336 -0.975198
vn 0.000001 -0.221336 -0.975198
vn 0.000001 -0.221336 -0.975198
vn 0.000001 -0.221336 -0.975198
vn 0.000001 -0.221336 -0.975198
vn -1.000000 0.000008 -0.000004
vn -1.000000 0.000008 -0.000004
vn -1.000000 0.000008 -0.000004
vn -1.000000 0.000008 -0.000004
vn 0.000000 -0.960041 0.279858
vn 0.000000 -0.960041 0.279858
vn 0.000000 -0.960041 0.279858
vn 0.000000 -0.960041 0.279858
vn 0.000001 -0.960040 0.279862
vn 0.000001 -0.960040 0.279862
vn 0.000001 -0.960040 0.279862
vn 0.000001 -0.960040 0.279862
vn 0.000000 -0.960042 0.279855
vn 0.000000 -0.960042 0.279855
vn 0.000000 -0.960042 0.279855
vn 0.000000 -0.960042 0.279855
vn -0.000001 -0.960040 0.279862
vn -0.000001 -0.960040 0.279862
vn -0.000001 -0.960040 0.279862
vn -0.000001 -0.960040 0.279862
vn 0.000000 0.960040 -0.279863
vn 0.000000 0.960040 -0.279863
vn 0.000000 0.960040 -0.279863
vn 0.000000 0.960040 -0.279863
vn -0.318572 0.947007 -0.041095
vn -0.318572 0.947007 -0.041095
vn -0.318572 0.947007 -0.041095
vn -1.000000 0.000009 0.000000
vn -1.000000 0.000009 0.000000
vn -1.000000 0.000009 0.000000
vn -1.000000 0.000009 0.000000
vn -1.000000 -0.000049 0.000015
vn -1.000000 -0.000049 0.000015
vn -1.000000 -0.000049 0.000015
vn 0.201082 0.814495 -0.544209
vn 0.201082 0.814495 -0.544209
vn 0.201082 0.814495 -0.544209
vn -0.000000 0.960039 -0.279865
vn -0.000000 0.960039 -0.279865
vn -0.000000 0.960039 -0.279865
vn -0.000000 0.960039 -0.279865
vn -0.000000 0.960041 -0.279861
vn -0.000000 0.960041 -0.279861
vn -0.000000 0.960041 -0.279861
vn -0.000000 0.960041 -0.279861
vn -0.322951 0.802758 -0.501280
vn -0.322951 0.802758 -0.501281
vn -0.322952 0.802758 -0.501281
vn 0.430663 0.194336 0.881342
vn 0.430663 0.194336 0.881342
vn 0.430663 0.194336 0.881342
vn 0.500197 -0.233180 0.833925
vn 0.500197 -0.233180 0.833925
vn 0.500197 -0.233180 0.833925
vn 1.000000 0.000003 0.000004
vn 1.000000 0.000003 0.000004
vn 1.000000 0.000003 0.000004
vn 1.000000 0.000003 0.000004
vn 1.000000 -0.000000 -0.000022
vn 1.000000 -0.000000 -0.000022
vn 1.000000 -0.000000 -0.000022
vn 0.000000 0.000000 1.000000
vn 0.000000 0.000000 1.000000
vn 0.000000 0.000000 1.000000
vn 0.000000 0.000000 1.000000
vn 0.000000 0.000000 1.000000
vn 0.000000 0.000000 1.000000
vn 0.000000 0.000000 1.000000
vn -0.392585 0.189924 -0.899892
vn -0.392585 0.189924 -0.899892
vn -0.392585 0.189924 -0.899892
vn -0.453507 -0.270425 -0.849236
vn -0.453507 -0.270425 -0.849236
vn -0.453507 -0.270425 -0.849236
vn 0.000000 0.000000 -1.000000
vn 0.000000 0.000000 -1.000000
vn 0.000000 0.000000 -1.000000
vn 0.000000 0.000000 -1.000000
vn -0.000000 0.000000 -1.000000
vn -0.000000 0.000000 -1.000000
vn -0.000000 0.000000 -1.000000
vn -0.000000 0.000000 -1.000000
vn -1.000000 0.000001 -0.000007
vn -1.000000 0.000001 -0.000007
vn -1.000000 0.000001 -0.000007
vn -1.000000 0.000001 -0.000007
vn -1.000000 -0.000002 -0.000005
vn -1.000000 -0.000002 -0.000005
vn -1.000000 -0.000002 -0.000005
vn -1.000000 -0.000002 -0.000005
s off
f 10/17/1 11/18/2 13/21/3 14/22/4
f 15/24/5 16/25/6 12/19/7 9/16/8
f 7/7/9 8/8/10 2/10/11 1/9/12
f 11/18/13 12/20/14 16/26/15 13/21/16
f 9/15/17 10/17/18 14/22/19 15/23/20
f 7/13/21 1/1/22 10/17/23 9/15/24
f 1/1/25 2/2/26 11/18/27 10/17/28
f 2/2/29 8/11/30 12/20/31 11/18/32
f 9/16/33 12/19/34 8/8/35 7/7/36
f 38/47/37 37/48/38 39/49/39 40/50/40
f 42/51/41 41/52/42 43/53/43 44/54/44
f 45/55/45 46/56/46 47/57/47 48/58/48
f 50/59/49 49/60/50 51/61/51 52/62/52
f 3/3/53 4/4/54 18/28/55 17/27/56
f 4/4/57 6/6/58 19/29/59 18/28/60
f 6/6/61 5/5/62 20/30/63 19/29/64
f 5/5/65 3/3/66 17/27/67 20/30/68
f 14/22/69 13/21/70 21/32/71 22/31/72
f 23/33/73 69/79/74 68/78/75 4/4/76
f 4/4/77 3/3/78 24/34/79 23/33/80
f 3/3/81 14/22/82 22/31/83 24/34/84
f 5/5/85 6/6/86 26/36/87 25/35/88
f 6/6/89 16/25/90 27/37/91 26/36/92
f 16/25/93 15/24/94 28/38/95 27/37/96
f 28/38/97 73/85/98 25/35/99
f 15/23/100 14/22/101 29/40/102 30/39/103
f 14/22/104 3/3/105 31/41/106 29/40/107
f 3/3/108 5/14/109 32/42/110 31/41/111
f 32/42/112 74/86/113 30/39/114
f 13/21/115 16/26/116 33/44/117 34/43/118
f 16/26/119 6/12/120 35/45/121 33/44/122
f 6/12/123 4/4/124 36/46/125 35/45/126
f 34/43/127 70/80/128 67/77/129 13/21/130
f 22/31/131 21/32/132 37/48/133 38/47/134
f 21/32/135 23/33/136 39/49/137 37/48/138
f 23/33/139 24/34/140 40/50/141 39/49/142
f 24/34/143 22/31/144 38/47/145 40/50/146
f 30/39/147 29/40/148 41/52/149 42/51/150
f 29/40/151 31/41/152 43/53/153 41/52/154
f 31/41/155 32/42/156 44/54/157 43/53/158
f 32/42/159 30/39/160 42/51/161 44/54/162
f 25/35/163 26/36/164 46/56/165 45/55/166
f 26/36/167 27/37/168 47/57/169 46/56/170
f 27/37/171 28/38/172 48/58/173 47/57/174
f 28/38/175 25/35/176 45/55/177 48/58/178
f 34/43/179 33/44/180 49/60/181 50/59/182
f 33/44/183 35/45/184 51/61/185 49/60/186
f 35/45/187 36/46/188 52/62/189 51/61/190
f 36/46/191 34/43/192 50/59/193 52/62/194
f 53/63/195 54/64/196 55/65/197 56/66/198
f 54/64/199 57/67/200 66/76/201 65/75/202 55/65/203
f 57/67/204 59/69/205 60/70/206 58/68/207 66/76/208
f 59/69/209 64/74/210 62/72/211 60/70/212
f 17/27/213 18/28/214 54/64/215 53/63/216
f 18/28/217 19/29/218 57/67/219 54/64/220
f 19/29/221 20/30/222 59/69/223 57/67/224
f 20/30/225 17/27/226 53/63/227 59/69/228
f 58/68/229 63/73/230 55/65/231 65/75/232
f 64/74/233 63/73/234 62/72/235
f 64/74/236 53/63/237 56/66/238 61/71/239
f 59/69/240 53/63/241 64/74/242
f 65/75/243 66/76/244 58/68/245
f 60/70/246 62/72/247 63/73/248 58/68/249
f 55/65/250 63/73/251 61/71/252 56/66/253
f 61/71/254 63/73/255 64/74/256
f 70/80/257 69/79/258 67/77/259
f 68/78/260 69/79/261 70/80/262
f 4/4/263 68/78/264 70/80/265 36/46/266
f 36/46/267 70/80/268 34/43/269
f 13/21/270 67/77/271 69/79/272 21/32/273
f 21/32/274 69/79/275 23/33/276
f 72/83/277 74/86/278 73/87/279
f 73/87/280 74/86/281 71/81/282
f 15/24/283 72/84/284 73/85/285 28/38/286
f 25/35/287 73/85/288 71/82/289 5/5/290
f 5/14/291 71/81/292 74/86/293 32/42/294
f 30/39/295 74/86/296 72/83/297 15/23/298
