# This file uses centimeters as units for non-parametric coordinates.

v -5.031204 0.000000 4.937553
v 6.983566 0.000000 3.248882
v -6.983185 0.000000 -3.248787
v 5.030823 0.000000 -4.937552
v -6.536865 20.902229 -3.041267
v -4.709625 20.902229 4.622078
v 6.537247 20.902229 3.041363
v 4.709244 20.902229 -4.622078
v 1.540756 24.873293 1.541042
v -1.541519 24.873293 1.541042
v -1.541519 24.873293 -1.540947
v 1.540756 24.873293 -1.540947
v 0.000000 24.873293 2.265549
v 0.000000 24.873293 -2.265453
v -2.265930 24.873293 0.000000
v 0.000000 0.000000 0.000000
v 2.265549 24.873293 0.000000
v 4.709244 20.902229 4.622078
v 5.030823 0.000000 4.937553
v -6.536865 20.902229 3.041363
v -6.983185 0.000000 3.248882
v -4.709625 20.902229 -4.622078
v -5.031204 0.000000 -4.937552
v 6.537247 20.902229 -3.041267
v 6.983566 0.000000 -3.248787
v 0.000000 32.239189 -1.808548
v 1.229858 32.239189 -1.230145
v 1.808548 32.239189 0.000000
v 1.229858 32.239189 1.230240
v 0.000000 32.239189 1.808643
v -1.230621 32.239189 1.230240
v -1.808548 32.239189 0.000000
v -1.230621 32.239189 -1.230145
v 2.241898 35.908699 0.000000
v 0.000000 35.908699 0.000000
v 0.000000 35.908699 2.241993
v 1.525116 35.908699 1.525021
v -1.525497 35.908699 1.525021
v -2.242279 35.908699 0.000000
v 0.000000 35.908699 -2.241898
v 1.525116 35.908699 -1.524925
v -1.525497 35.908699 -1.524925
v 0.000000 32.432056 -2.241898
v 1.525116 32.432056 -1.524734
v 2.241898 32.432056 0.000000
v 1.525116 32.432056 1.525021
v 0.000000 32.432056 2.241993
v -1.525497 32.432056 1.525021
v -2.241898 32.432056 0.000000
v -1.525497 32.432056 -1.524734
v -6.983185 15.396487 -3.248787
v -6.983185 15.396487 3.248882
v -5.031204 15.396487 4.937553
v 5.030823 15.396511 4.937553
v 6.983566 15.396487 3.248882
v 6.983566 15.396487 -3.248787
v 5.030823 15.396487 -4.937552
v -5.031204 15.396487 -4.937552
v -6.983185 5.208612 -3.248787
v -6.983185 5.208612 3.248882
v -5.031204 5.208612 4.937553
v 5.030823 5.208623 4.937553
v 6.982803 5.208612 3.248882
v 6.983566 5.208612 -3.248787
v 5.030823 5.208612 -4.937552
v -5.031204 5.208612 -4.937552
v 6.983566 19.263290 -3.248787
v 6.983566 19.263290 3.248882
v 5.031204 19.263290 4.937553
v -5.031204 19.263290 4.937553
v -6.983185 19.263290 3.248882
v -6.983185 19.263290 -3.248787
v -5.031204 19.263290 -4.937552
v 5.031204 19.263290 -4.937552
v -6.983185 5.208612 1.178932
v -6.983185 15.396487 1.178932
v 6.982803 5.208612 1.178932
v 6.983566 15.396487 1.178932
v -6.983185 15.396487 -1.311684
v -6.983185 5.208612 -1.311684
v 6.983566 15.396487 -1.311684
v 6.982803 5.208612 -1.311684
vt 0.171937 0.446182
vt 0.171937 0.446182
vt 0.037861 0.228017
vt 0.037861 0.228017
vt 0.037861 0.228017
vt 0.037861 0.228017
vt 0.171937 0.446182
vt 0.171937 0.446182
vt 0.171937 0.446182
vt 0.171937 0.446182
vt 0.171936 0.446182
vt 0.037861 0.228017
vt 0.171937 0.446182
vt 0.037861 0.228017
vt 0.171937 0.446182
vt 0.171937 0.446182
vt 0.171937 0.446182
vt 0.171937 0.446182
vt 0.171937 0.446182
vt 0.171936 0.446182
vt 0.171937 0.446182
vt 0.171937 0.446182
vt 0.171937 0.446182
vt 0.171937 0.446182
vt 0.171937 0.446182
vt 0.171936 0.446182
vt 0.037861 0.228017
vt 0.037861 0.228017
vt 0.171937 0.446182
vt 0.171937 0.446182
vt 0.037861 0.228017
vt 0.037861 0.228017
vt 0.037861 0.228017
vt 0.037861 0.228017
vt 0.037861 0.228017
vt 0.171937 0.446182
vt 0.171937 0.446182
vt 0.171937 0.446182
vt 0.171937 0.446182
vt 0.171937 0.446182
vt 0.171937 0.446182
vt 0.171937 0.446182
vt 0.171937 0.446182
vt 0.171937 0.446182
vt 0.171937 0.446182
vt 0.171937 0.446182
vt 0.171936 0.446182
vt 0.171937 0.446182
vt 0.171936 0.446182
vt 0.171937 0.446182
vt 0.171937 0.446182
vt 0.171936 0.446182
vt 0.171937 0.446182
vt 0.171937 0.446182
vt 0.171937 0.446182
vt 0.171937 0.446182
vt 0.171937 0.446182
vt 0.171937 0.446182
vt 0.171937 0.446182
vt 0.037861 0.228017
vt 0.037861 0.228017
vt 0.037861 0.228017
vt 0.037861 0.228017
vt 0.037861 0.228017
vt 0.037861 0.228017
vt 0.037861 0.228017
vt 0.037861 0.228017
vt 0.037861 0.228017
vt 0.037861 0.228017
vt 0.171937 0.446182
vt 0.171937 0.446182
vt 0.171937 0.446182
vt 0.171937 0.446182
vt 0.171937 0.446182
vt 0.171937 0.446182
vt 0.171936 0.446182
vt 0.171937 0.446182
vt 0.171936 0.446182
vt 0.171937 0.446182
vt 0.171937 0.446182
vt 0.171937 0.446182
vt 0.171937 0.446182
vt 0.171937 0.446182
vt 0.171937 0.446182
vt 0.171937 0.446182
vt 0.171936 0.446182
vt 0.171937 0.446182
vt 0.171936 0.446182
vt 0.171937 0.446182
vt 0.171937 0.446182
vt 0.171937 0.446182
vt 0.171937 0.446182
vt 0.171937 0.446182
vt 0.171937 0.446182
vt 0.171937 0.446182
vt 0.171937 0.446182
vt 0.171937 0.446182
vt 0.171937 0.446182
vt 0.171936 0.446182
vt 0.171937 0.446182
vt 0.171937 0.446182
vt 0.171937 0.446182
vt 0.171937 0.446182
vt 0.171937 0.446182
vt 0.171937 0.446182
vt 0.171937 0.446182
vt 0.171937 0.446182
vt 0.059672 0.228987
vt 0.059672 0.228987
vt 0.059672 0.228987
vt 0.059672 0.228987
vt 0.059672 0.228987
vt 0.059672 0.228987
vt 0.059672 0.228987
vt 0.059672 0.228987
vt 0.059672 0.228987
vt 0.059672 0.228987
vt 0.059672 0.228987
vt 0.059672 0.228987
vt 0.060469 0.228192
vt 0.060469 0.228192
vt 0.060469 0.228192
vt 0.060469 0.228192
vt 0.060469 0.228192
vt 0.060469 0.228192
vt 0.060469 0.228192
vt 0.060469 0.228192
vt 0.060469 0.228192
vt 0.060469 0.228192
vt 0.060469 0.228192
vt 0.060469 0.228192
vt 0.037861 0.228017
vt 0.037861 0.228017
vn 0.294696 0.721381 0.626709
vn 0.294696 0.721381 0.626709
vn 0.294696 0.721381 0.626709
vn 0.000000 1.000000 -0.000001
vn 0.000000 1.000000 -0.000001
vn 0.000000 1.000000 -0.000001
vn 0.000000 1.000000 -0.000001
vn 0.000000 0.510348 -0.859968
vn 0.000000 0.510348 -0.859968
vn 0.000000 0.510348 -0.859968
vn 0.000000 -1.000000 0.000000
vn 0.000000 -1.000000 0.000000
vn 0.000000 -1.000000 0.000000
vn 0.680864 0.732410 0.000000
vn 0.680864 0.732410 0.000000
vn 0.680864 0.732410 0.000000
vn -0.552011 0.792433 0.259489
vn -0.552011 0.792433 0.259489
vn -0.552011 0.792433 0.259488
vn -0.654256 0.000000 0.756273
vn -0.654256 0.000000 0.756273
vn -0.654256 0.000000 0.756273
vn -0.654256 0.000000 0.756273
vn 0.654147 -0.000032 0.756368
vn 0.654147 -0.000032 0.756368
vn 0.654147 -0.000032 0.756368
vn 0.654147 -0.000032 0.756368
vn 1.000000 0.000000 0.000000
vn 1.000000 0.000000 0.000000
vn 1.000000 0.000000 0.000000
vn 1.000000 0.000000 0.000000
vn 0.000000 0.000000 -1.000000
vn 0.000000 0.000000 -1.000000
vn 0.000000 0.000000 -1.000000
vn 0.000000 0.000000 -1.000000
vn 0.424885 0.056051 0.903510
vn 0.424885 0.056051 0.903510
vn 0.424885 0.056051 0.903510
vn 0.424885 0.056051 0.903510
vn -0.903620 0.056084 0.424647
vn -0.903620 0.056084 0.424647
vn -0.903620 0.056084 0.424647
vn -0.903620 0.056084 0.424647
vn 0.424885 0.056051 -0.903510
vn 0.424885 0.056051 -0.903510
vn 0.424885 0.056051 -0.903510
vn 0.424885 0.056051 -0.903510
vn 0.903478 0.056059 0.424954
vn 0.903478 0.056059 0.424954
vn 0.903477 0.056059 0.424954
vn 0.903478 0.056059 0.424954
vn 0.000000 1.000000 0.000001
vn 0.000000 1.000000 0.000001
vn 0.000000 1.000000 0.000001
vn 0.000000 1.000000 0.000001
vn -0.424694 0.056051 0.903600
vn -0.424694 0.056051 0.903600
vn -0.424694 0.056051 0.903600
vn -0.424694 0.056051 0.903600
vn 0.000000 -1.000000 0.000000
vn 0.000000 -1.000000 0.000000
vn 0.000000 -1.000000 0.000000
vn -0.654277 0.000000 -0.756255
vn -0.654277 0.000000 -0.756255
vn -0.654277 0.000000 -0.756255
vn -0.654277 0.000000 -0.756255
vn -0.294590 0.721350 -0.626794
vn -0.294590 0.721350 -0.626794
vn -0.294590 0.721350 -0.626794
vn -0.424694 0.056051 -0.903600
vn -0.424694 0.056051 -0.903600
vn -0.424694 0.056051 -0.903600
vn -0.424694 0.056051 -0.903600
vn 0.000000 1.000000 0.000000
vn 0.000000 1.000000 0.000000
vn 0.000000 1.000000 0.000000
vn 0.000000 1.000000 0.000000
vn 0.000000 1.000000 -0.000001
vn 0.000000 1.000000 -0.000001
vn 0.000000 1.000000 -0.000001
vn 0.000000 1.000000 -0.000001
vn -0.903609 0.056084 -0.424671
vn -0.903609 0.056084 -0.424671
vn -0.903609 0.056084 -0.424671
vn -0.903609 0.056084 -0.424671
vn 0.654168 -0.000032 -0.756350
vn 0.654168 -0.000032 -0.756350
vn 0.654168 -0.000032 -0.756350
vn 0.654168 -0.000032 -0.756350
vn 0.551894 0.792482 -0.259587
vn 0.551894 0.792482 -0.259587
vn 0.551894 0.792482 -0.259587
vn 0.903466 0.056059 -0.424978
vn 0.903466 0.056059 -0.424978
vn 0.903466 0.056059 -0.424978
vn 0.903466 0.056059 -0.424978
vn -0.294593 0.721343 0.626801
vn -0.294593 0.721343 0.626801
vn -0.294593 0.721343 0.626801
vn 0.000000 0.510333 0.859977
vn 0.000000 0.510333 0.859977
vn 0.000000 0.510333 0.859977
vn -0.000000 0.000000 1.000000
vn -0.000000 0.000000 1.000000
vn -0.000000 0.000000 1.000000
vn -0.000000 0.000000 1.000000
vn -0.680929 0.732349 0.000000
vn -0.680929 0.732349 0.000000
vn -0.680929 0.732349 0.000000
vn -1.000000 0.000000 0.000000
vn -1.000000 0.000000 0.000000
vn -1.000000 0.000000 0.000000
vn -0.552006 0.792432 -0.259502
vn -0.552006 0.792432 -0.259502
vn -0.552006 0.792432 -0.259502
vn 0.294692 0.721388 -0.626702
vn 0.294692 0.721388 -0.626702
vn 0.294692 0.721388 -0.626702
vn 0.551899 0.792483 0.259573
vn 0.551899 0.792483 0.259573
vn 0.551899 0.792483 0.259573
vn -0.438186 0.742581 0.506524
vn -0.438186 0.742581 0.506524
vn -0.438186 0.742581 0.506524
vn -0.438196 0.742587 -0.506506
vn -0.438196 0.742587 -0.506506
vn -0.438196 0.742587 -0.506506
vn 0.438082 0.742601 -0.506585
vn 0.438082 0.742601 -0.506585
vn 0.438082 0.742601 -0.506585
vn 0.438072 0.742594 0.506603
vn 0.438072 0.742594 0.506603
vn 0.438072 0.742594 0.506603
vn 0.000000 -1.000000 0.000000
vn 0.000000 -1.000000 0.000000
vn 0.000000 -1.000000 0.000000
vn 0.000000 -1.000000 0.000000
vn 0.000000 -1.000000 0.000000
vn 0.000000 -1.000000 0.000000
vn 0.000000 -1.000000 0.000000
vn 0.000000 -1.000000 0.000000
vn 0.000000 -1.000000 0.000000
vn 0.000000 -1.000000 0.000000
vn 0.000000 -1.000000 0.000000
vn 0.000000 -1.000000 0.000000
vn 0.000000 -1.000000 0.000000
vn 0.000000 -1.000000 0.000000
vn 0.000000 -1.000000 0.000000
vn 0.000000 -1.000000 0.000000
vn 0.000000 -1.000000 0.000000
vn 0.000000 -1.000000 0.000000
vn 0.425489 -0.000025 -0.904964
vn 0.425489 -0.000025 -0.904964
vn 0.425489 -0.000025 -0.904964
vn 0.425489 -0.000025 -0.904964
vn 0.904998 -0.000012 -0.425415
vn 0.904998 -0.000012 -0.425415
vn 0.904998 -0.000012 -0.425415
vn 0.904998 -0.000012 -0.425415
vn 0.905019 0.000000 0.425372
vn 0.905019 0.000000 0.425372
vn 0.905019 0.000000 0.425372
vn 0.905019 0.000000 0.425372
vn 0.425443 0.000000 0.904985
vn 0.425443 0.000000 0.904985
vn 0.425443 0.000000 0.904985
vn 0.425443 0.000000 0.904985
vn -0.425355 0.000000 0.905026
vn -0.425355 0.000000 0.905026
vn -0.425355 0.000000 0.905026
vn -0.425355 0.000000 0.905026
vn -0.905062 -0.000050 0.425279
vn -0.905062 -0.000050 0.425279
vn -0.905062 -0.000050 0.425279
vn -0.905062 -0.000050 0.425279
vn -0.905042 -0.000061 -0.425323
vn -0.905042 -0.000061 -0.425323
vn -0.905042 -0.000061 -0.425323
vn -0.905042 -0.000061 -0.425323
vn -0.425402 -0.000025 -0.905005
vn -0.425402 -0.000025 -0.905005
vn -0.425402 -0.000025 -0.905005
vn -0.425402 -0.000025 -0.905005
vn 0.187796 -0.897364 -0.399337
vn 0.187796 -0.897364 -0.399337
vn 0.187796 -0.897364 -0.399337
vn 0.187796 -0.897364 -0.399337
vn 0.399212 -0.897434 -0.187727
vn 0.399212 -0.897434 -0.187727
vn 0.399212 -0.897434 -0.187727
vn 0.399212 -0.897434 -0.187727
vn 0.399188 -0.897453 0.187690
vn 0.399188 -0.897453 0.187690
vn 0.399188 -0.897453 0.187690
vn 0.399188 -0.897453 0.187690
vn 0.187739 -0.897403 0.399278
vn 0.187739 -0.897403 0.399278
vn 0.187739 -0.897403 0.399278
vn 0.187739 -0.897403 0.399278
vn -0.187705 -0.897367 0.399373
vn -0.187705 -0.897367 0.399373
vn -0.187705 -0.897367 0.399373
vn -0.187705 -0.897367 0.399373
vn -0.399387 -0.897379 0.187617
vn -0.399387 -0.897379 0.187617
vn -0.399387 -0.897379 0.187617
vn -0.399387 -0.897379 0.187617
vn -0.399411 -0.897361 -0.187655
vn -0.399411 -0.897361 -0.187655
vn -0.399411 -0.897361 -0.187655
vn -0.399411 -0.897361 -0.187655
vn -0.187762 -0.897329 -0.399433
vn -0.187762 -0.897329 -0.399433
vn -0.187762 -0.897329 -0.399433
vn -0.187762 -0.897329 -0.399433
vn -1.000000 0.000000 0.000000
vn -1.000000 0.000000 0.000000
vn -1.000000 0.000000 0.000000
vn -1.000000 0.000000 0.000000
vn -0.654256 0.000000 0.756273
vn -0.654256 0.000000 0.756273
vn -0.654256 0.000000 0.756273
vn -0.654256 0.000000 0.756273
vn 0.000000 0.000000 1.000000
vn 0.000000 0.000000 1.000000
vn 0.000000 0.000000 1.000000
vn 0.000000 0.000000 1.000000
vn 0.654183 -0.000024 0.756336
vn 0.654183 -0.000024 0.756336
vn 0.654183 -0.000024 0.756336
vn 0.654183 -0.000024 0.756336
vn 1.000000 -0.000075 0.000000
vn 1.000000 -0.000075 0.000000
vn 1.000000 -0.000075 0.000000
vn 1.000000 -0.000075 0.000000
vn 0.654131 0.000000 -0.756381
vn 0.654131 0.000000 -0.756381
vn 0.654131 0.000000 -0.756381
vn 0.654131 0.000000 -0.756381
vn 0.000000 0.000000 -1.000000
vn 0.000000 0.000000 -1.000000
vn 0.000000 0.000000 -1.000000
vn 0.000000 0.000000 -1.000000
vn -0.654277 0.000000 -0.756255
vn -0.654277 0.000000 -0.756255
vn -0.654277 0.000000 -0.756255
vn -0.654277 0.000000 -0.756255
vn -1.000000 0.000000 0.000000
vn -1.000000 0.000000 0.000000
vn -1.000000 0.000000 0.000000
vn -0.654257 0.000000 0.756273
vn -0.654257 0.000000 0.756273
vn -0.654257 0.000000 0.756273
vn -0.654257 0.000000 0.756273
vn 0.000000 0.000000 1.000000
vn 0.000000 0.000000 1.000000
vn 0.000000 0.000000 1.000000
vn 0.000000 0.000000 1.000000
vn 0.654183 0.000048 0.756336
vn 0.654183 0.000048 0.756336
vn 0.654183 0.000048 0.756336
vn 0.654183 0.000048 0.756336
vn 1.000000 0.000146 0.000000
vn 1.000000 0.000146 0.000000
vn 1.000000 0.000146 0.000000
vn 0.654131 0.000000 -0.756381
vn 0.654131 0.000000 -0.756381
vn 0.654131 0.000000 -0.756381
vn 0.654131 0.000000 -0.756381
vn 0.000000 0.000000 -1.000000
vn 0.000000 0.000000 -1.000000
vn 0.000000 0.000000 -1.000000
vn 0.000000 0.000000 -1.000000
vn -0.654277 0.000000 -0.756255
vn -0.654277 0.000000 -0.756255
vn -0.654277 0.000000 -0.756255
vn -0.654277 0.000000 -0.756255
vn 0.964863 0.262754 0.000000
vn 0.964863 0.262754 0.000000
vn 0.964863 0.262754 0.000000
vn 0.964863 0.262754 0.000000
vn 0.630885 0.264261 0.729487
vn 0.630885 0.264261 0.729487
vn 0.630885 0.264261 0.729487
vn 0.630885 0.264261 0.729487
vn 0.000000 0.189018 0.981974
vn 0.000000 0.189018 0.981974
vn 0.000000 0.189018 0.981974
vn 0.000000 0.189018 0.981974
vn -0.631004 0.264202 0.729404
vn -0.631004 0.264202 0.729404
vn -0.631004 0.264202 0.729404
vn -0.631005 0.264202 0.729404
vn -0.964863 0.262754 0.000000
vn -0.964863 0.262754 0.000000
vn -0.964863 0.262754 0.000000
vn -0.964863 0.262754 0.000000
vn -0.631025 0.264204 -0.729386
vn -0.631025 0.264204 -0.729386
vn -0.631025 0.264204 -0.729386
vn -0.631025 0.264204 -0.729386
vn 0.000000 0.189017 -0.981974
vn 0.000000 0.189017 -0.981974
vn 0.000000 0.189017 -0.981974
vn 0.000000 0.189017 -0.981974
vn 0.630905 0.264262 -0.729468
vn 0.630905 0.264262 -0.729468
vn 0.630905 0.264262 -0.729468
vn 0.630905 0.264262 -0.729468
vn -1.000000 0.000000 0.000000
vn -1.000000 0.000000 0.000000
vn -1.000000 0.000000 0.000000
vn -1.000000 0.000000 0.000000
vn 1.000000 -0.000037 0.000197
vn 1.000000 -0.000058 0.000086
vn 1.000000 -0.000058 0.000086
vn 1.000000 -0.000037 0.000197
vn -1.000000 0.000000 0.000000
vn -1.000000 0.000000 0.000000
vn -1.000000 0.000000 0.000000
vn -1.000000 0.000000 0.000000
vn 1.000000 -0.000058 0.000086
vn 1.000000 -0.000058 0.000086
vn 1.000000 -0.000075 0.000000
vn 1.000000 -0.000075 0.000000
vn 1.000000 0.000000 0.000000
vn 1.000000 0.000000 0.000000
vn 1.000000 0.000000 0.000000
vn 1.000000 0.000138 0.000023
vn 1.000000 0.000129 0.000047
vn 1.000000 0.000146 0.000000
vn 1.000000 0.000146 0.000000
vn 1.000000 0.000000 0.000394
vn 1.000000 0.000129 0.000047
vn 1.000000 0.000138 0.000023
vn 1.000000 0.000000 0.000000
vn 1.000000 0.000000 0.000000
vn 1.000000 0.000000 0.000000
vn -1.000000 0.000000 0.000000
vn -1.000000 0.000000 0.000000
vn -1.000000 0.000000 0.000000
vn -1.000000 0.000000 0.000000
vn -1.000000 0.000000 0.000000
vn -1.000000 0.000000 0.000000
vn -1.000000 0.000000 0.000000
vn -1.000000 0.000000 0.000000
vn -1.000000 0.000000 0.000000
vn -1.000000 0.000000 0.000000
vn -1.000000 0.000000 0.000000
vn -1.000000 0.000000 0.000000
vn -1.000000 0.000000 0.000000
vn -1.000000 0.000000 0.000000
s off
f 13/29/1 18/39/2 9/21/3
f 34/3/4 35/4/5 36/5/6 37/6/7
f 14/30/8 8/19/9 22/45/10
f 16/37/11 19/41/12 1/9/13
f 17/38/14 7/18/15 24/47/16
f 15/36/17 20/42/18 10/22/19
f 70/93/20 71/94/21 52/72/22 53/73/23
f 68/91/24 69/92/25 54/74/26 55/75/27
f 67/90/28 68/91/29 78/103/30 81/106/31
f 57/77/32 58/79/33 73/97/34 74/98/35
f 29/54/36 30/55/37 13/29/38 9/21/39
f 31/56/40 32/57/41 15/36/42 10/22/43
f 14/30/44 26/50/45 27/51/46 12/25/47
f 9/21/48 17/38/49 28/53/50 29/54/51
f 38/12/52 36/5/53 35/4/54 39/14/55
f 10/22/56 13/29/57 30/55/58 31/56/59
f 16/37/60 21/44/61 3/7/62
f 72/96/63 73/97/64 58/79/65 51/71/66
f 11/24/67 14/30/68 22/45/69
f 33/59/70 26/50/71 14/30/72 11/24/73
f 40/27/74 35/4/75 34/3/76 41/28/77
f 39/14/78 35/4/79 40/27/80 42/31/81
f 11/23/82 15/36/83 32/57/84 33/58/85
f 74/99/86 67/90/87 56/76/88 57/78/89
f 17/38/90 24/47/91 12/26/92
f 27/52/93 28/53/94 17/38/95 12/26/96
f 6/17/97 13/29/98 10/22/99
f 18/39/100 13/29/101 6/17/102
f 69/92/103 70/93/104 53/73/105 54/74/106
f 20/42/107 15/36/108 5/15/109
f 71/94/110 76/101/111 52/72/112
f 5/15/113 15/36/114 11/23/115
f 8/19/116 14/30/117 12/25/118
f 7/18/119 17/38/120 9/21/121
f 10/22/122 20/42/123 6/17/124
f 11/24/125 22/45/126 5/16/127
f 12/26/128 24/47/129 8/20/130
f 9/21/131 18/39/132 7/18/133
f 21/44/134 16/37/135 1/9/136
f 2/10/137 16/37/138 25/48/139
f 19/41/140 16/37/141 2/10/142
f 4/8/143 16/37/144 23/46/145
f 25/48/146 16/37/147 4/8/148
f 3/7/149 23/46/150 16/37/151
f 44/32/152 43/33/153 40/27/154 41/28/155
f 34/3/156 45/34/157 44/32/158 41/28/159
f 46/35/160 45/34/161 34/3/162 37/6/163
f 36/5/164 47/60/165 46/35/166 37/6/167
f 48/61/168 47/60/169 36/5/170 38/12/171
f 39/14/172 49/62/173 48/61/174 38/12/175
f 50/63/176 49/62/177 39/14/178 42/31/179
f 42/31/180 40/27/181 43/33/182 50/63/183
f 27/64/184 26/65/185 43/33/186 44/32/187
f 28/66/188 27/64/189 44/32/190 45/34/191
f 29/67/192 28/66/193 45/34/194 46/35/195
f 30/68/196 29/67/197 46/35/198 47/60/199
f 31/69/200 30/68/201 47/60/202 48/61/203
f 32/132/204 31/69/205 48/61/206 49/62/207
f 33/133/208 32/132/209 49/62/210 50/63/211
f 26/65/212 33/133/213 50/63/214 43/33/215
f 75/100/216 76/101/217 79/104/218 80/105/219
f 53/108/220 52/109/221 60/110/222 61/111/223
f 54/112/224 53/108/225 61/111/226 62/113/227
f 55/114/228 54/112/229 62/113/230 63/115/231
f 77/116/232 78/117/233 55/114/234 63/115/235
f 57/120/236 56/121/237 64/122/238 65/123/239
f 65/123/240 66/124/241 58/125/242 57/120/243
f 51/126/244 58/125/245 66/124/246 59/127/247
f 60/82/248 75/100/249 21/43/250
f 61/83/251 60/82/252 21/43/253 1/1/254
f 62/84/255 61/83/256 1/1/257 19/40/258
f 63/85/259 62/84/260 19/40/261 2/2/262
f 2/2/263 77/102/264 63/85/265
f 65/88/266 64/86/267 25/49/268 4/11/269
f 23/46/270 66/89/271 65/87/272 4/8/273
f 59/81/274 66/89/275 23/46/276 3/7/277
f 24/47/278 7/18/279 68/91/280 67/90/281
f 7/18/282 18/39/283 69/92/284 68/91/285
f 18/39/286 6/17/287 70/93/288 69/92/289
f 6/17/290 20/42/291 71/94/292 70/93/293
f 20/42/294 5/15/295 72/95/296 71/94/297
f 5/16/298 22/45/299 73/97/300 72/96/301
f 74/98/302 73/97/303 22/45/304 8/19/305
f 8/20/306 24/47/307 67/90/308 74/99/309
f 52/109/310 76/118/311 75/119/312 60/110/313
f 56/121/314 81/128/315 82/129/316 64/122/317
f 80/130/318 79/131/319 51/126/320 59/127/321
f 82/107/322 81/106/323 78/103/324 77/102/325
f 78/103/326 68/91/327 55/75/328
f 25/49/329 82/107/330 77/102/331 2/2/332
f 64/86/333 82/107/334 25/49/335
f 67/90/336 81/106/337 56/76/338
f 79/104/339 72/95/340 51/70/341
f 21/43/342 75/100/343 80/105/344 3/13/345
f 3/13/346 80/105/347 59/80/348
f 71/94/349 72/95/350 79/104/351 76/101/352
