# This file uses centimeters as units for non-parametric coordinates.

v 4.140359 0.000000 -4.140222
v 0.000000 0.000000 -5.855101
v -4.140001 0.000000 -4.140222
v -5.854964 0.000000 -0.000134
v -4.140001 0.000000 4.139954
v 0.000000 0.000000 5.855101
v 4.140359 0.000000 4.139954
v 5.854964 0.000000 -0.000134
v 4.140359 14.442468 -4.140222
v 0.000000 14.442468 -5.855101
v -4.140001 14.442468 -4.140222
v -5.854964 14.442468 -0.000134
v -4.140001 14.442468 4.139954
v 0.000000 14.442468 5.855101
v 4.140359 14.442468 4.139954
v 5.854964 14.442468 -0.000134
v 0.000000 0.000000 -0.000134
v 3.385973 14.442468 -3.386021
v 0.000000 14.442468 -4.788560
v -3.386331 14.442468 -3.386021
v -4.788608 14.442468 -0.000134
v -3.386331 14.442468 3.386021
v 0.000000 14.442468 4.788560
v 3.385973 14.442468 3.386021
v 4.788608 14.442468 -0.000134
v 3.385973 10.677490 -3.386021
v 0.000000 10.677490 -4.788560
v 0.000000 10.677490 -0.000134
v -3.386331 10.677490 -3.386021
v -4.788608 10.677490 -0.000134
v -3.386331 10.677490 3.386021
v 0.000000 10.677490 4.788560
v 3.385973 10.677490 3.386021
v 4.788608 10.677490 -0.000134
v -4.140001 10.677490 -4.140222
v -5.854964 10.677490 -0.000134
v -4.140001 10.677490 4.139954
v 0.000000 10.677490 5.855101
v 4.140359 10.677490 4.139954
v 5.854964 10.677490 -0.000134
v 4.140359 10.677490 -4.140222
v 0.000000 10.677490 -5.855101
vt 0.173048 0.444650
vt 0.173048 0.444650
vt 0.173048 0.444650
vt 0.173048 0.444650
vt 0.173048 0.444650
vt 0.173048 0.444650
vt 0.173048 0.444650
vt 0.173048 0.444650
vt 0.173048 0.444650
vt 0.173048 0.444650
vt 0.173048 0.444650
vt 0.173048 0.444650
vt 0.173048 0.444650
vt 0.173048 0.444650
vt 0.173048 0.444650
vt 0.173048 0.444650
vt 0.173048 0.444650
vt 0.102030 0.354707
vt 0.102030 0.354707
vt 0.102030 0.354707
vt 0.102030 0.354707
vt 0.102030 0.354707
vt 0.102030 0.354707
vt 0.102030 0.354707
vt 0.102030 0.354707
vt 0.102030 0.354707
vt 0.102030 0.354707
vt 0.102030 0.354707
vt 0.102030 0.354707
vt 0.102030 0.354707
vt 0.102030 0.354707
vt 0.102030 0.354707
vt 0.102030 0.354707
vt 0.102030 0.354707
vt 0.173048 0.444650
vt 0.159733 0.446516
vt 0.102030 0.354707
vt 0.102030 0.354707
vt 0.102030 0.354707
vt 0.102030 0.354707
vt 0.102030 0.354707
vt 0.102030 0.354707
vt 0.102030 0.354707
vt 0.102030 0.354707
vt 0.102030 0.354707
vt 0.102030 0.354707
vt 0.102030 0.354707
vt 0.102030 0.354707
vt 0.102030 0.354707
vt 0.102030 0.354707
vt 0.102030 0.354707
vt 0.102030 0.354707
vt 0.102030 0.354707
vt 0.173048 0.444650
vt 0.173048 0.444650
vt 0.173048 0.444650
vt 0.173048 0.444650
vt 0.173048 0.444650
vt 0.173048 0.444650
vt 0.173048 0.444650
vt 0.173048 0.444650
vt 0.173048 0.444650
vt 0.102030 0.354707
vt 0.173048 0.444650
vt 0.173048 0.444650
vt 0.102030 0.354707
vt 0.102030 0.354707
vt 0.173048 0.444650
vt 0.102030 0.354707
vt 0.173048 0.444650
vt 0.102030 0.354707
vt 0.173048 0.444650
vt 0.102030 0.354707
vt 0.173048 0.444650
vt 0.102030 0.354707
vt 0.173048 0.444650
vt 0.102030 0.354707
vt 0.173048 0.444650
vt 0.173048 0.444650
vt 0.173048 0.444650
vt 0.173048 0.444650
vt 0.173048 0.444650
vt 0.173048 0.444650
vt 0.173048 0.444650
vt 0.173048 0.444650
vt 0.173048 0.444650
vt 0.173048 0.444650
vt 0.173048 0.444650
vt 0.173048 0.444650
vt 0.173048 0.444650
vt 0.173048 0.444650
vt 0.173048 0.444650
vt 0.173048 0.444650
vt 0.173048 0.444650
vt 0.173048 0.444650
vt 0.173048 0.444650
vt 0.173048 0.444650
vt 0.173048 0.444650
vt 0.173048 0.444650
vt 0.159733 0.446516
vt 0.159733 0.446516
vt 0.159733 0.446516
vt 0.159733 0.446516
vt 0.159733 0.446516
vt 0.159733 0.446516
vt 0.159733 0.446516
vt 0.159733 0.446516
vn 0.382662 0.000000 -0.923889
vn 0.382662 0.000000 -0.923889
vn 0.382662 0.000000 -0.923889
vn 0.382662 0.000000 -0.923889
vn -0.382690 0.000000 -0.923877
vn -0.382690 0.000000 -0.923877
vn -0.382690 0.000000 -0.923877
vn -0.382690 0.000000 -0.923877
vn -0.923873 0.000000 -0.382699
vn -0.923873 0.000000 -0.382699
vn -0.923873 0.000000 -0.382699
vn -0.923873 0.000000 -0.382699
vn -0.923873 0.000000 0.382699
vn -0.923873 0.000000 0.382699
vn -0.923873 0.000000 0.382699
vn -0.923873 0.000000 0.382699
vn -0.382741 0.000000 0.923856
vn -0.382741 0.000000 0.923856
vn -0.382741 0.000000 0.923856
vn -0.382741 0.000000 0.923856
vn 0.382713 0.000000 0.923867
vn 0.382713 0.000000 0.923867
vn 0.382713 0.000000 0.923867
vn 0.382713 0.000000 0.923867
vn 0.923901 0.000000 0.382631
vn 0.923901 0.000000 0.382631
vn 0.923901 0.000000 0.382631
vn 0.923901 0.000000 0.382631
vn 0.923901 0.000000 -0.382631
vn 0.923901 0.000000 -0.382631
vn 0.923901 0.000000 -0.382631
vn 0.923901 0.000000 -0.382631
vn 0.000000 -1.000000 0.000000
vn 0.000000 -1.000000 0.000000
vn 0.000000 -1.000000 0.000000
vn 0.000000 -1.000000 0.000000
vn 0.000000 -1.000000 0.000000
vn 0.000000 -1.000000 0.000000
vn 0.000000 -1.000000 0.000000
vn 0.000000 -1.000000 0.000000
vn 0.000000 -1.000000 0.000000
vn 0.000000 -1.000000 0.000000
vn 0.000000 -1.000000 0.000000
vn 0.000000 -1.000000 0.000000
vn 0.000000 -1.000000 0.000000
vn 0.000000 -1.000000 0.000000
vn 0.000000 -1.000000 0.000000
vn 0.000000 -1.000000 0.000000
vn 0.000000 -1.000000 0.000000
vn 0.000000 -1.000000 0.000000
vn 0.000000 -1.000000 0.000000
vn 0.000000 -1.000000 0.000000
vn 0.000000 -1.000000 0.000000
vn 0.000000 -1.000000 0.000000
vn 0.000000 -1.000000 0.000000
vn 0.000000 -1.000000 0.000000
vn 0.000000 1.000000 0.000000
vn 0.000000 1.000000 0.000000
vn 0.000000 1.000000 0.000000
vn 0.000000 1.000000 0.000000
vn 0.000000 1.000000 0.000000
vn 0.000000 1.000000 0.000000
vn 0.000000 1.000000 0.000000
vn 0.000000 1.000000 0.000000
vn 0.000000 1.000000 0.000000
vn 0.000000 1.000000 0.000000
vn 0.000000 1.000000 0.000000
vn 0.000000 1.000000 0.000000
vn 0.000000 1.000000 0.000000
vn 0.000000 1.000000 0.000000
vn 0.000000 1.000000 0.000000
vn 0.000000 1.000000 0.000000
vn 0.000000 1.000000 0.000000
vn 0.000000 1.000000 0.000000
vn 0.000000 1.000000 0.000000
vn 0.000000 1.000000 0.000000
vn 0.000000 1.000000 0.000000
vn 0.000000 1.000000 0.000000
vn 0.000000 1.000000 0.000000
vn 0.000000 1.000000 0.000000
vn 0.000000 1.000000 0.000000
vn 0.000000 1.000000 0.000000
vn 0.000000 1.000000 0.000000
vn 0.000000 1.000000 0.000000
vn 0.000000 1.000000 0.000000
vn 0.000000 1.000000 0.000000
vn 0.000000 1.000000 0.000000
vn 0.000000 1.000000 0.000000
vn 0.000000 1.000000 0.000000
vn 0.000000 1.000000 0.000000
vn 0.000000 1.000000 0.000000
vn 0.000000 1.000000 0.000000
vn 0.000000 1.000000 0.000000
vn 0.000000 1.000000 0.000000
vn 0.000000 1.000000 0.000000
vn 0.000000 1.000000 0.000000
vn 0.000000 1.000000 0.000000
vn 0.000000 1.000000 0.000000
vn 0.000000 1.000000 0.000000
vn 0.000000 1.000000 0.000000
vn 0.000000 1.000000 0.000000
vn 0.000000 1.000000 0.000000
vn 0.000000 1.000000 0.000000
vn 0.000000 1.000000 0.000000
vn 0.000000 1.000000 0.000000
vn 0.000000 1.000000 0.000000
vn 0.000000 1.000000 0.000000
vn 0.000000 1.000000 0.000000
vn 0.000000 1.000000 -0.000000
vn 0.000000 1.000000 -0.000000
vn 0.000000 1.000000 -0.000000
vn 0.000000 1.000000 -0.000000
vn -0.382689 0.000000 0.923877
vn -0.382689 0.000000 0.923877
vn -0.382689 0.000000 0.923877
vn -0.382689 0.000000 0.923877
vn 0.382654 0.000000 0.923892
vn 0.382654 0.000000 0.923892
vn 0.382654 0.000000 0.923892
vn 0.382654 0.000000 0.923892
vn 0.923899 0.000000 0.382636
vn 0.923899 0.000000 0.382636
vn 0.923899 0.000000 0.382636
vn 0.923899 0.000000 0.382636
vn 0.923910 0.000000 -0.382610
vn 0.923910 0.000000 -0.382610
vn 0.923910 0.000000 -0.382610
vn 0.923910 0.000000 -0.382610
vn 0.382654 0.000000 -0.923892
vn 0.382654 0.000000 -0.923892
vn 0.382654 0.000000 -0.923892
vn 0.382654 0.000000 -0.923892
vn -0.382689 0.000000 -0.923877
vn -0.382689 0.000000 -0.923877
vn -0.382689 0.000000 -0.923877
vn -0.382689 0.000000 -0.923877
vn -0.923875 0.000000 -0.382694
vn -0.923875 0.000000 -0.382694
vn -0.923875 0.000000 -0.382694
vn -0.923875 0.000000 -0.382694
vn -0.923865 0.000000 0.382719
vn -0.923865 0.000000 0.382719
vn -0.923865 0.000000 0.382719
vn -0.923865 0.000000 0.382719
vn -0.923873 0.000000 -0.382699
vn -0.923873 0.000000 -0.382699
vn -0.923873 0.000000 -0.382699
vn -0.923873 0.000000 -0.382699
vn -0.923873 0.000000 0.382699
vn -0.923873 0.000000 0.382699
vn -0.923873 0.000000 0.382699
vn -0.923873 0.000000 0.382699
vn -0.382741 0.000000 0.923856
vn -0.382741 0.000000 0.923856
vn -0.382741 0.000000 0.923856
vn -0.382741 0.000000 0.923856
vn 0.382713 0.000000 0.923867
vn 0.382713 0.000000 0.923867
vn 0.382713 0.000000 0.923867
vn 0.382713 0.000000 0.923867
vn 0.923901 0.000000 0.382631
vn 0.923901 0.000000 0.382631
vn 0.923901 0.000000 0.382631
vn 0.923901 0.000000 0.382631
vn 0.923901 0.000000 -0.382631
vn 0.923901 0.000000 -0.382631
vn 0.923901 0.000000 -0.382631
vn 0.923901 0.000000 -0.382631
vn 0.382662 0.000000 -0.923889
vn 0.382662 0.000000 -0.923889
vn 0.382662 0.000000 -0.923889
vn 0.382662 0.000000 -0.923889
vn -0.382690 0.000000 -0.923877
vn -0.382690 0.000000 -0.923877
vn -0.382690 0.000000 -0.923877
vn -0.382690 0.000000 -0.923877
s off
f 41/67/1 42/63/2 10/19/3 9/18/4
f 42/63/5 35/53/6 11/20/7 10/19/8
f 35/53/9 36/77/10 12/21/11 11/20/12
f 36/77/13 37/75/14 13/22/15 12/21/16
f 37/75/17 38/73/18 14/23/19 13/22/20
f 38/73/21 39/71/22 15/24/23 14/23/24
f 39/71/25 40/69/26 16/25/27 15/24/28
f 40/69/29 41/66/30 9/26/31 16/25/32
f 2/2/33 1/99/34 17/78/35
f 3/3/36 2/98/37 17/79/38
f 4/4/39 3/96/40 17/80/41
f 5/5/42 4/94/43 17/81/44
f 6/6/45 5/92/46 17/82/47
f 7/7/48 6/90/49 17/83/50
f 8/8/51 7/88/52 17/84/53
f 1/1/54 8/86/55 17/35/56
f 26/36/57 27/100/58 28/101/59
f 27/100/60 29/102/61 28/101/62
f 29/102/63 30/103/64 28/101/65
f 30/103/66 31/104/67 28/101/68
f 31/104/69 32/105/70 28/101/71
f 32/105/72 33/106/73 28/101/74
f 33/106/75 34/107/76 28/101/77
f 34/107/78 26/36/79 28/101/80
f 9/33/81 10/32/82 19/38/83 18/37/84
f 10/32/85 11/31/86 20/39/87 19/38/88
f 11/31/89 12/30/90 21/40/91 20/39/92
f 12/30/93 13/29/94 22/41/95 21/40/96
f 13/29/97 14/28/98 23/42/99 22/41/100
f 14/28/101 15/27/102 24/43/103 23/42/104
f 15/27/105 16/34/106 25/44/107 24/43/108
f 16/34/109 9/33/110 18/37/111 25/44/112
f 18/37/113 19/38/114 27/46/115 26/45/116
f 19/38/117 20/39/118 29/47/119 27/46/120
f 20/39/121 21/40/122 30/48/123 29/47/124
f 21/40/125 22/41/126 31/49/127 30/48/128
f 22/41/129 23/42/130 32/50/131 31/49/132
f 23/42/133 24/43/134 33/51/135 32/50/136
f 24/43/137 25/44/138 34/52/139 33/51/140
f 25/44/141 18/37/142 26/45/143 34/52/144
f 3/95/145 4/12/146 36/76/147 35/64/148
f 4/93/149 5/13/150 37/74/151 36/54/152
f 5/91/153 6/14/154 38/72/155 37/55/156
f 6/89/157 7/15/158 39/70/159 38/56/160
f 7/87/161 8/16/162 40/68/163 39/57/164
f 8/85/165 1/17/166 41/59/167 40/58/168
f 1/9/169 2/10/170 42/62/171 41/60/172
f 2/97/173 3/11/174 35/65/175 42/61/176
