# This file uses centimeters as units for non-parametric coordinates.

v -5.455208 0.000000 7.359791
v 5.430031 0.000000 7.378483
v -5.455208 0.976563 7.359791
v 5.430031 0.976563 7.378483
v -5.430031 0.976563 -7.378769
v 5.455208 0.976563 -7.360172
v -5.430031 0.000000 -7.378769
v 5.455208 0.000000 -7.360172
v -4.487610 0.000000 8.352375
v 4.459000 0.000000 8.367634
v 4.459000 0.976563 8.367634
v -4.487610 0.976563 8.352375
v -4.459000 0.976563 -8.367634
v 4.487610 0.976563 -8.352375
v 4.487610 0.000000 -8.352375
v -4.459000 0.000000 -8.367634
vt 0.018333 0.046874
vt 0.018333 0.046874
vt 0.018333 0.046874
vt 0.018333 0.046874
vt 0.000264 0.025453
vt 0.033753 0.025453
vt 0.033753 0.067669
vt 0.000264 0.067669
vt 0.018333 0.046874
vt 0.018333 0.046874
vt 0.018333 0.046874
vt 0.018333 0.046874
vt 0.146681 0.447385
vt 0.146681 0.447385
vt 0.146681 0.447385
vt 0.146681 0.447385
vt 0.018333 0.046874
vt 0.018333 0.046874
vt 0.018333 0.046874
vt 0.018333 0.046874
vt 0.018333 0.046874
vt 0.018333 0.046874
vt 0.018333 0.046874
vt 0.018333 0.046874
vt 0.146681 0.447385
vt 0.146681 0.447385
vt 0.146681 0.447385
vt 0.146681 0.447385
vt 0.003245 0.022581
vt 0.030772 0.022581
vt 0.030772 0.070540
vt 0.003245 0.070540
vt 0.146681 0.447385
vt 0.146681 0.447385
vn -0.001706 0.000000 0.999999
vn -0.001706 0.000000 0.999999
vn -0.001706 0.000000 0.999999
vn -0.001706 0.000000 0.999999
vn 0.000000 1.000000 0.000000
vn 0.000000 1.000000 0.000000
vn 0.000000 1.000000 0.000000
vn 0.000000 1.000000 0.000000
vn 0.001706 0.000000 -0.999999
vn 0.001706 0.000000 -0.999999
vn 0.001706 0.000000 -0.999999
vn 0.001706 0.000000 -0.999999
vn 0.000000 -1.000000 0.000000
vn 0.000000 -1.000000 0.000000
vn 0.000000 -1.000000 0.000000
vn 0.000000 -1.000000 0.000000
vn 0.999999 0.000000 0.001708
vn 0.999999 0.000000 0.001708
vn 0.999999 0.000000 0.001708
vn 0.999999 0.000000 0.001708
vn -0.999999 0.000000 -0.001708
vn -0.999999 0.000000 -0.001708
vn -0.999999 0.000000 -0.001708
vn -0.999999 0.000000 -0.001708
vn 0.000000 -1.000000 0.000000
vn 0.000000 -1.000000 0.000000
vn 0.000000 -1.000000 0.000000
vn 0.000000 -1.000000 0.000000
vn 0.713613 0.000000 0.700540
vn 0.713613 0.000000 0.700540
vn 0.713613 0.000000 0.700540
vn 0.713613 0.000000 0.700540
vn 0.000000 1.000000 0.000000
vn 0.000000 1.000000 0.000000
vn 0.000000 1.000000 0.000000
vn 0.000000 1.000000 0.000000
vn -0.716062 0.000000 0.698037
vn -0.716062 0.000000 0.698037
vn -0.716062 0.000000 0.698037
vn -0.716062 0.000000 0.698037
vn 0.000000 1.000000 -0.000000
vn 0.000000 1.000000 -0.000000
vn 0.000000 1.000000 -0.000000
vn 0.000000 1.000000 -0.000000
vn 0.715928 0.000000 -0.698174
vn 0.715928 0.000000 -0.698174
vn 0.715928 0.000000 -0.698174
vn 0.715928 0.000000 -0.698174
vn 0.000000 -1.000000 0.000000
vn 0.000000 -1.000000 0.000000
vn 0.000000 -1.000000 0.000000
vn 0.000000 -1.000000 0.000000
vn -0.713511 0.000000 -0.700644
vn -0.713511 0.000000 -0.700644
vn -0.713511 0.000000 -0.700644
vn -0.713511 0.000000 -0.700644
s off
f 9/1/1 10/2/2 11/3/3 12/4/4
f 3/5/5 4/6/6 6/7/7 5/8/8
f 13/9/9 14/10/10 15/11/11 16/12/12
f 7/13/13 8/14/14 2/15/15 1/16/16
f 2/17/17 8/18/18 6/19/19 4/20/20
f 7/21/21 1/22/22 3/23/23 5/24/24
f 1/25/25 2/26/26 10/27/27 9/28/28
f 2/17/29 4/20/30 11/3/31 10/2/32
f 4/6/33 3/5/34 12/29/35 11/30/36
f 3/23/37 1/22/38 9/1/39 12/4/40
f 5/8/41 6/7/42 14/31/43 13/32/44
f 6/19/45 8/18/46 15/11/47 14/10/48
f 8/14/49 7/13/50 16/33/51 15/34/52
f 7/21/53 5/24/54 13/9/55 16/12/56
