# This file uses centimeters as units for non-parametric coordinates.

v -43.704987 1.490211 3.273010
v -43.704987 -136.459351 3.273010
v -38.881683 1.490211 3.273010
v -38.881683 -136.459351 3.273010
v -38.881683 1.490211 -1.550293
v -38.881683 -136.459351 -1.550293
v -43.704987 1.490211 -1.550293
v -43.704987 -136.459351 -1.550293
v -64.561081 0.000000 0.688934
v 64.561081 0.000000 0.688934
v -61.341095 0.000000 0.688934
v 61.341095 0.000000 0.688934
v -61.341095 0.000000 -3.273106
v 61.341095 0.000000 -3.273106
v -64.561081 0.000000 -3.273106
v 64.561081 0.000000 -3.273106
v 0.000000 -103.504181 -3.273106
v 0.000000 -103.504181 0.688934
v 0.000000 -107.466125 0.688934
v 0.000000 -107.466125 -3.273106
v -50.472260 -70.922852 -3.273106
v -50.472260 -70.922852 0.688934
v -53.121567 -73.174286 0.688934
v -53.121567 -73.174286 -3.273106
v 53.121567 -73.174286 0.688934
v 50.472260 -70.922852 0.688934
v 50.472260 -70.922852 -3.273106
v 53.121567 -73.174286 -3.273106
v 64.086914 -37.640381 0.688934
v 60.890198 -37.161255 0.688934
v 60.890198 -37.161255 -3.273106
v 64.086914 -37.640381 -3.273106
v 28.498459 -94.863892 -3.273106
v 28.498459 -94.863892 0.688934
v 29.994392 -98.371887 0.688934
v 29.994392 -98.371887 -3.273106
v -29.994392 -98.371887 0.688934
v -28.498459 -94.863892 0.688934
v -28.498459 -94.863892 -3.273106
v -29.994392 -98.371887 -3.273106
v -60.890198 -37.161255 -3.273106
v -60.890198 -37.161255 0.688934
v -64.086914 -37.640381 0.688934
v -64.086914 -37.640381 -3.273106
vt 0.004986 0.328411
vt 0.004986 0.328411
vt 0.004986 0.328411
vt 0.004986 0.328411
vt 0.004986 0.328411
vt 0.004986 0.328411
vt 0.004986 0.328411
vt 0.004986 0.328411
vt 0.004986 0.328411
vt 0.004986 0.328411
vt 0.004986 0.328411
vt 0.004986 0.328411
vt 0.004986 0.328411
vt 0.004986 0.328411
vt 0.004986 0.328411
vt 0.004986 0.328411
vt 0.004986 0.328411
vt 0.004986 0.328411
vt 0.004986 0.328411
vt 0.004986 0.328411
vt 0.004986 0.328411
vt 0.004986 0.328411
vt 0.004986 0.328411
vt 0.004986 0.328411
vt 0.004986 0.328411
vt 0.004986 0.328411
vt 0.004986 0.328411
vt 0.004986 0.328411
vt 0.004986 0.328411
vt 0.004986 0.328411
vt 0.004986 0.328411
vt 0.004986 0.328411
vt 0.004986 0.328411
vt 0.004986 0.328411
vt 0.004986 0.328411
vt 0.004986 0.328411
vt 0.004986 0.328411
vt 0.004986 0.328411
vt 0.004986 0.328411
vt 0.004986 0.328411
vt 0.004986 0.328411
vt 0.004986 0.328411
vt 0.004986 0.328411
vt 0.004986 0.328411
vt 0.004986 0.328411
vt 0.004986 0.328411
vt 0.004986 0.328411
vt 0.004986 0.328411
vt 0.004986 0.328411
vt 0.004986 0.328411
vt 0.004986 0.328411
vt 0.004986 0.328411
vt 0.004986 0.328411
vt 0.004986 0.328411
vt 0.004986 0.328411
vt 0.004986 0.328411
vt 0.004986 0.328411
vt 0.004986 0.328411
vt 0.004986 0.328411
vt 0.004986 0.328411
vt 0.004986 0.328411
vt 0.004986 0.328411
vt 0.004986 0.328411
vn 0.000000 -1.000000 0.000000
vn 0.000000 -1.000000 0.000000
vn 0.000000 -1.000000 0.000000
vn 0.000000 -1.000000 0.000000
vn 0.000000 1.000000 0.000000
vn 0.000000 1.000000 0.000000
vn 0.000000 1.000000 0.000000
vn 0.000000 1.000000 0.000000
vn 1.000000 0.000000 0.000000
vn 1.000000 0.000000 0.000000
vn 1.000000 0.000000 0.000000
vn 1.000000 0.000000 0.000000
vn 0.000000 0.000000 1.000000
vn 0.000000 0.000000 1.000000
vn 0.000000 0.000000 1.000000
vn 0.000000 0.000000 1.000000
vn -1.000000 0.000000 0.000000
vn -1.000000 0.000000 0.000000
vn -1.000000 0.000000 0.000000
vn -1.000000 0.000000 0.000000
vn 0.000000 0.000000 -1.000000
vn 0.000000 0.000000 -1.000000
vn 0.000000 0.000000 -1.000000
vn 0.000000 0.000000 -1.000000
vn 0.000000 0.000000 1.000000
vn 0.000000 0.000000 1.000000
vn 0.000000 0.000000 1.000000
vn 0.000000 0.000000 1.000000
vn -0.542345 0.840156 0.000000
vn -0.542345 0.840156 0.000000
vn -0.872001 0.489505 0.000000
vn -0.872001 0.489505 0.000000
vn 0.000000 0.000000 -1.000000
vn 0.000000 0.000000 -1.000000
vn 0.000000 0.000000 -1.000000
vn 0.000000 0.000000 -1.000000
vn 0.542345 -0.840156 0.000000
vn 0.542345 -0.840156 0.000000
vn 0.872001 -0.489505 0.000000
vn 0.872001 -0.489505 0.000000
vn 0.000000 1.000000 0.000000
vn 0.000000 1.000000 0.000000
vn 0.000000 1.000000 0.000000
vn 0.000000 1.000000 0.000000
vn 0.000000 1.000000 0.000000
vn 0.000000 1.000000 0.000000
vn 0.000000 1.000000 0.000000
vn 0.000000 1.000000 0.000000
vn 0.872001 0.489505 0.000000
vn 0.872001 0.489505 0.000000
vn 0.542345 0.840156 0.000000
vn 0.542345 0.840156 0.000000
vn -0.000000 0.000000 1.000000
vn -0.000000 0.000000 1.000000
vn -0.000000 0.000000 1.000000
vn -0.000000 0.000000 1.000000
vn -0.872001 -0.489505 0.000000
vn -0.872001 -0.489505 0.000000
vn -0.542345 -0.840156 0.000000
vn -0.542345 -0.840156 0.000000
vn -0.000000 0.000000 -1.000000
vn -0.000000 0.000000 -1.000000
vn -0.000000 0.000000 -1.000000
vn -0.000000 0.000000 -1.000000
vn 0.988460 0.151480 0.000000
vn 0.988460 0.151480 0.000000
vn 0.872001 0.489505 0.000000
vn 0.872001 0.489505 0.000000
vn -0.000000 0.000000 1.000000
vn -0.000000 0.000000 1.000000
vn -0.000000 0.000000 1.000000
vn -0.000000 0.000000 1.000000
vn -0.988000 -0.154454 0.000000
vn -0.988000 -0.154454 0.000000
vn -0.872001 -0.489505 0.000000
vn -0.872001 -0.489505 0.000000
vn -0.000000 0.000000 -1.000000
vn -0.000000 0.000000 -1.000000
vn -0.000000 0.000000 -1.000000
vn -0.000000 0.000000 -1.000000
vn 0.000000 0.000000 1.000000
vn 0.000000 0.000000 1.000000
vn 0.000000 0.000000 1.000000
vn 0.000000 0.000000 1.000000
vn -0.872001 0.489505 0.000000
vn -0.872001 0.489505 0.000000
vn -0.988460 0.151480 0.000000
vn -0.988460 0.151480 0.000000
vn 0.000000 0.000000 -1.000000
vn 0.000000 0.000000 -1.000000
vn 0.000000 0.000000 -1.000000
vn 0.000000 0.000000 -1.000000
vn 0.872001 -0.489505 0.000000
vn 0.872001 -0.489505 0.000000
vn 0.988000 -0.154454 0.000000
vn 0.988000 -0.154454 0.000000
vn 0.000000 0.000000 1.000000
vn 0.000000 0.000000 1.000000
vn 0.000000 0.000000 1.000000
vn 0.000000 0.000000 1.000000
vn -0.988460 0.151480 0.000000
vn -0.988460 0.151480 0.000000
vn -0.999927 0.012124 0.000000
vn -0.999927 0.012124 0.000000
vn 0.000000 0.000000 -1.000000
vn 0.000000 0.000000 -1.000000
vn 0.000000 0.000000 -1.000000
vn 0.000000 0.000000 -1.000000
vn 0.988000 -0.154454 0.000000
vn 0.988000 -0.154454 0.000000
vn 0.999921 -0.012598 0.000000
vn 0.999921 -0.012598 0.000000
vn 0.000000 1.000000 0.000000
vn 0.000000 1.000000 0.000000
vn -0.542345 0.840156 0.000000
vn -0.542345 0.840156 0.000000
vn -0.000000 0.000000 1.000000
vn -0.000000 0.000000 1.000000
vn 0.000000 0.000000 1.000000
vn 0.000000 0.000000 1.000000
vn 0.000000 -1.000000 0.000000
vn 0.000000 -1.000000 0.000000
vn 0.542345 -0.840156 0.000000
vn 0.542345 -0.840156 0.000000
vn -0.000000 0.000000 -1.000000
vn -0.000000 0.000000 -1.000000
vn 0.000000 0.000000 -1.000000
vn 0.000000 0.000000 -1.000000
vn -0.000000 0.000000 1.000000
vn -0.000000 0.000000 1.000000
vn -0.000000 0.000000 1.000000
vn -0.000000 0.000000 1.000000
vn 0.542345 0.840156 0.000000
vn 0.542345 0.840156 0.000000
vn 0.000000 1.000000 0.000000
vn 0.000000 1.000000 0.000000
vn -0.000000 0.000000 -1.000000
vn -0.000000 0.000000 -1.000000
vn -0.000000 0.000000 -1.000000
vn -0.000000 0.000000 -1.000000
vn -0.542345 -0.840156 0.000000
vn -0.542345 -0.840156 0.000000
vn 0.000000 -1.000000 0.000000
vn 0.000000 -1.000000 0.000000
vn 0.999927 0.012124 0.000000
vn 0.988460 0.151480 0.000000
vn 0.988460 0.151480 0.000000
vn 0.999927 0.012124 0.000000
vn 0.000000 0.000000 1.000000
vn -0.000000 0.000000 1.000000
vn -0.000000 0.000000 1.000000
vn 0.000000 0.000000 1.000000
vn -0.999921 -0.012598 0.000000
vn -0.988000 -0.154454 0.000000
vn -0.988000 -0.154454 0.000000
vn -0.999921 -0.012598 0.000000
vn 0.000000 0.000000 -1.000000
vn -0.000000 0.000000 -1.000000
vn -0.000000 0.000000 -1.000000
vn 0.000000 0.000000 -1.000000
s off
f 2/2/1 8/11/2 6/12/3 4/4/4
f 7/13/5 1/1/6 3/3/7 5/14/8
f 3/3/9 4/4/10 6/6/11 5/5/12
f 1/1/13 2/2/14 4/4/15 3/3/16
f 7/7/17 8/8/18 2/10/19 1/9/20
f 5/5/21 6/6/22 8/8/23 7/7/24
f 34/15/25 35/16/26 25/17/27 26/18/28
f 33/19/29 34/15/30 26/18/31 27/20/32
f 36/21/33 33/19/34 27/20/35 28/22/36
f 35/23/37 36/21/38 28/22/39 25/24/40
f 10/25/41 16/26/42 14/27/43 12/28/44
f 15/29/45 9/30/46 11/31/47 13/32/48
f 21/33/49 22/34/50 38/35/51 39/36/52
f 22/34/53 23/37/54 37/38/55 38/35/56
f 23/39/57 24/40/58 40/41/59 37/42/60
f 24/40/61 21/33/62 39/36/63 40/41/64
f 41/43/65 42/44/66 22/34/67 21/33/68
f 42/44/69 43/45/70 23/37/71 22/34/72
f 43/46/73 44/47/74 24/40/75 23/39/76
f 44/47/77 41/43/78 21/33/79 24/40/80
f 26/18/81 25/17/82 29/48/83 30/49/84
f 27/20/85 26/18/86 30/49/87 31/50/88
f 28/22/89 27/20/90 31/50/91 32/51/92
f 25/24/93 28/22/94 32/51/95 29/52/96
f 30/49/97 29/48/98 10/25/99 12/28/100
f 31/50/101 30/49/102 12/28/103 14/53/104
f 32/51/105 31/50/106 14/53/107 16/54/108
f 29/52/109 32/51/110 16/54/111 10/55/112
f 17/56/113 18/57/114 34/15/115 33/19/116
f 18/57/117 19/58/118 35/16/119 34/15/120
f 19/59/121 20/60/122 36/21/123 35/23/124
f 20/60/125 17/56/126 33/19/127 36/21/128
f 38/35/129 37/38/130 19/58/131 18/57/132
f 39/36/133 38/35/134 18/57/135 17/56/136
f 40/41/137 39/36/138 17/56/139 20/60/140
f 37/42/141 40/41/142 20/60/143 19/59/144
f 11/31/145 42/44/146 41/43/147 13/61/148
f 9/30/149 43/45/150 42/44/151 11/31/152
f 15/62/153 44/47/154 43/46/155 9/63/156
f 13/61/157 41/43/158 44/47/159 15/62/160
