# This file uses centimeters as units for non-parametric coordinates.

v -18.067932 0.000000 -8.444691
v -18.067932 0.000000 8.444691
v -15.593815 7.725668 -6.777668
v -15.593719 7.725668 6.777668
v 15.593719 7.725668 -6.777668
v 15.593719 7.725668 6.777668
v 18.067551 0.000000 -8.444691
v 18.067551 0.000000 8.444691
v -18.067932 1.232719 -8.444691
v -18.067932 1.232719 8.444691
v 18.067551 1.232719 8.444691
v 18.067551 1.232719 -8.444691
v -12.020302 7.725668 -4.328871
v -12.020302 7.725668 4.328871
v 12.020111 7.725668 4.328871
v 12.020206 7.725668 -4.328775
v 8.414078 7.725668 -4.328823
v 8.414078 7.725668 4.328918
v -8.414173 7.725668 -4.328823
v -8.414268 7.725668 4.328823
vt 0.096698 0.211715
vt 0.096698 0.211715
vt 0.096698 0.211715
vt 0.096698 0.211715
vt 0.096698 0.211715
vt 0.096698 0.211715
vt 0.096698 0.211715
vt 0.096698 0.211715
vt 0.096698 0.211714
vt 0.096698 0.211714
vt 0.096698 0.211715
vt 0.096698 0.211715
vt 0.096698 0.211715
vt 0.096698 0.211715
vt 0.096698 0.211715
vt 0.096698 0.211715
vt 0.096698 0.211715
vt 0.096698 0.211715
vt 0.096698 0.211715
vt 0.096698 0.211715
vt 0.096698 0.211715
vt 0.096698 0.211715
vt 0.096698 0.211715
vt 0.096698 0.211715
vt 0.096698 0.211715
vt 0.096698 0.211715
vt 0.096698 0.211715
vt 0.096698 0.211715
vt 0.096698 0.211715
vt 0.096698 0.211715
vt 0.096698 0.211715
vt 0.096698 0.211715
vt 0.096698 0.211715
vt 0.096698 0.211715
vt 0.096698 0.211715
vt 0.096698 0.211715
vt 0.096698 0.211715
vt 0.096698 0.211715
vt 0.096698 0.211715
vt 0.096698 0.211715
vt 0.096850 0.208463
vt 0.096698 0.211715
vt 0.096850 0.208463
vt 0.096698 0.211715
vt 0.096698 0.211715
vt 0.096850 0.208463
vt 0.096850 0.208463
vt 0.096698 0.211715
vt 0.096698 0.211715
vt 0.096850 0.208463
vt 0.096850 0.208463
vt 0.096698 0.211715
vt 0.096698 0.211715
vt 0.096850 0.208463
vt 0.096698 0.211715
vt 0.096850 0.208463
vn -0.934463 0.356060 0.000000
vn -0.934463 0.356060 0.000000
vn -0.934463 0.356060 0.000000
vn -0.934458 0.356073 0.000007
vn -0.934458 0.356073 0.000007
vn -0.934458 0.356073 0.000007
vn 0.000000 1.000000 0.000000
vn 0.000000 1.000000 0.000000
vn 0.000000 1.000000 0.000000
vn 0.000000 1.000000 -0.000000
vn 0.000000 1.000000 -0.000000
vn 0.000000 1.000000 -0.000000
vn 0.934468 0.356048 0.000000
vn 0.934468 0.356048 0.000000
vn 0.934468 0.356048 0.000000
vn 0.934468 0.356048 0.000000
vn 0.934468 0.356048 0.000000
vn 0.934468 0.356048 0.000000
vn 0.000000 -1.000000 0.000000
vn 0.000000 -1.000000 0.000000
vn 0.000000 -1.000000 0.000000
vn 0.000000 -1.000000 0.000000
vn 0.000000 -1.000000 0.000000
vn 0.000000 -1.000000 0.000000
vn 0.000000 0.248678 0.968586
vn 0.000000 0.248678 0.968586
vn 0.000000 0.248678 0.968586
vn 0.000000 0.248678 0.968586
vn 0.000000 0.248678 0.968586
vn 0.000000 0.248678 0.968586
vn 0.000000 0.248678 -0.968586
vn 0.000000 0.248678 -0.968586
vn 0.000000 0.248678 -0.968586
vn 0.000000 0.248678 -0.968586
vn 0.000000 0.248678 -0.968586
vn 0.000000 0.248678 -0.968586
vn -1.000000 0.000000 0.000000
vn -1.000000 0.000000 0.000000
vn -1.000000 0.000000 0.000000
vn -1.000000 0.000000 0.000000
vn -1.000000 0.000000 0.000000
vn -1.000000 0.000000 0.000000
vn 0.000000 0.000000 1.000000
vn 0.000000 0.000000 1.000000
vn 0.000000 0.000000 1.000000
vn 0.000000 0.000000 1.000000
vn 0.000000 0.000000 1.000000
vn 0.000000 0.000000 1.000000
vn 1.000000 0.000000 0.000000
vn 1.000000 0.000000 0.000000
vn 1.000000 0.000000 0.000000
vn 1.000000 0.000000 0.000000
vn 1.000000 0.000000 0.000000
vn 1.000000 0.000000 0.000000
vn 0.000000 0.000000 -1.000000
vn 0.000000 0.000000 -1.000000
vn 0.000000 0.000000 -1.000000
vn 0.000000 0.000000 -1.000000
vn 0.000000 0.000000 -1.000000
vn 0.000000 0.000000 -1.000000
vn 0.000000 1.000000 0.000000
vn 0.000000 1.000000 0.000000
vn 0.000000 1.000000 0.000000
vn 0.000000 1.000000 -0.000000
vn 0.000000 1.000000 -0.000000
vn 0.000000 1.000000 -0.000000
vn 0.000000 1.000000 0.000000
vn 0.000000 1.000000 0.000000
vn 0.000000 1.000000 0.000000
vn 0.000000 1.000000 -0.000000
vn 0.000000 1.000000 -0.000000
vn 0.000000 1.000000 -0.000000
vn 0.000000 1.000000 0.000000
vn 0.000000 1.000000 0.000000
vn 0.000000 1.000000 0.000000
vn 0.000000 1.000000 0.000000
vn 0.000000 1.000000 0.000000
vn 0.000000 1.000000 0.000000
vn 0.000000 1.000000 0.000000
vn 0.000000 1.000000 0.000000
vn 0.000000 1.000000 0.000000
vn 0.000000 1.000000 -0.000000
vn 0.000000 1.000000 -0.000000
vn 0.000000 1.000000 -0.000000
vn 0.000000 1.000000 0.000000
vn 0.000000 1.000000 0.000000
vn 0.000000 1.000000 0.000000
vn 0.000000 1.000000 0.000003
vn 0.000000 1.000000 0.000003
vn 0.000000 1.000000 0.000003
vn 0.000000 1.000000 -0.000001
vn 0.000000 1.000000 -0.000001
vn 0.000000 1.000000 -0.000001
vn 0.000000 1.000000 0.000000
vn 0.000000 1.000000 0.000000
vn 0.000000 1.000000 0.000000
vn 0.000000 1.000000 -0.000000
vn 0.000000 1.000000 -0.000000
vn 0.000000 1.000000 -0.000000
vn 0.000000 1.000000 -0.000000
vn 0.000000 1.000000 -0.000000
vn 0.000000 1.000000 -0.000000
vn 0.000000 1.000000 0.000000
vn 0.000000 1.000000 0.000000
vn 0.000000 1.000000 0.000000
vn 0.000000 1.000000 -0.000000
vn 0.000000 1.000000 -0.000000
vn 0.000000 1.000000 -0.000000
s off
f 9/23/1 10/29/2 3/36/3
f 3/36/4 10/29/5 4/4/6
f 17/51/7 18/46/8 16/54/9
f 16/54/10 18/46/11 15/43/12
f 5/5/13 6/39/14 12/21/15
f 12/21/16 6/39/17 11/27/18
f 7/7/19 8/32/20 1/9/21
f 1/9/22 8/32/23 2/10/24
f 10/30/25 11/26/26 4/34/27
f 4/34/28 11/26/29 6/12/30
f 12/22/31 9/15/32 5/14/33
f 5/14/34 9/15/35 3/3/36
f 1/38/37 2/2/38 9/24/39
f 9/24/40 2/2/41 10/28/42
f 2/37/43 8/11/44 10/16/45
f 10/16/46 8/11/47 11/18/48
f 12/20/49 11/17/50 7/31/51
f 7/31/52 11/17/53 8/8/54
f 7/13/55 1/1/56 12/19/57
f 12/19/58 1/1/59 9/25/60
f 3/35/61 4/33/62 13/55/63
f 13/55/64 4/33/65 14/42/66
f 4/33/67 6/6/68 14/42/69
f 14/42/70 6/6/71 20/48/72
f 20/48/73 6/6/74 18/52/75
f 6/6/76 15/53/77 18/52/78
f 6/6/79 5/40/80 15/53/81
f 15/53/82 5/40/83 16/44/84
f 5/40/85 3/35/86 16/44/87
f 16/44/88 3/35/89 17/45/90
f 17/45/91 3/35/92 19/49/93
f 3/35/94 13/55/95 19/49/96
f 18/52/97 17/45/98 20/48/99
f 20/48/100 17/45/101 19/49/102
f 13/41/103 14/56/104 19/47/105
f 19/47/106 14/56/107 20/50/108
