# This file uses centimeters as units for non-parametric coordinates.

v -6.816284 15.690397 60.678745
v 16.824318 0.810551 60.678745
v -12.074633 -11.743845 60.678745
v 16.824318 0.810551 -60.678745
v -12.074633 -11.743845 -60.678745
v -6.816284 15.690397 -60.678745
v 19.437471 -2.253683 60.678745
v -11.618374 -15.745085 60.678745
v -11.618374 -15.745085 -60.678745
v 19.437471 -2.253683 -60.678745
v 5.281579 -12.157660 60.678745
v 6.816284 -15.690396 60.678745
v 6.816284 -15.690396 -60.678745
v 5.281579 -12.157660 -60.678745
vt 0.002839 0.327260
vt 0.002839 0.327260
vt 0.002839 0.327260
vt 0.002839 0.327260
vt 0.002839 0.327260
vt 0.002839 0.327260
vt 0.002839 0.327260
vt 0.002839 0.327260
vt 0.002839 0.327260
vt 0.002839 0.327260
vt 0.016491 0.277204
vt 0.016491 0.277204
vt 0.016491 0.277204
vt 0.016491 0.277204
vt 0.002839 0.327260
vt 0.016491 0.277203
vt 0.016491 0.277204
vt 0.002839 0.327260
vt 0.016491 0.277203
vt 0.016491 0.277203
vt 0.016491 0.277204
vt 0.016491 0.277204
vt 0.016491 0.277204
vt 0.016491 0.277203
vn 0.000000 0.000000 1.000000
vn 0.000000 0.000000 1.000000
vn 0.000000 0.000000 1.000000
vn 0.000000 0.000000 1.000000
vn 0.728880 -0.684642 0.000000
vn 0.398449 -0.917190 0.000000
vn 0.398449 -0.917190 0.000000
vn 0.728880 -0.684642 0.000000
vn 0.000000 0.000000 -1.000000
vn 0.000000 0.000000 -1.000000
vn 0.000000 0.000000 -1.000000
vn 0.000000 0.000000 -1.000000
vn -0.982122 0.188244 0.000000
vn -0.982122 0.188244 0.000000
vn -0.982122 0.188244 0.000000
vn -0.982122 0.188244 0.000000
vn 0.532686 0.846313 0.000000
vn 0.532686 0.846313 0.000000
vn 0.532686 0.846313 0.000000
vn 0.532686 0.846313 0.000000
vn -0.000000 0.000000 1.000000
vn -0.000000 0.000000 1.000000
vn -0.000000 0.000000 1.000000
vn -0.000000 0.000000 1.000000
vn -0.993561 -0.113295 0.000000
vn -0.993561 -0.113295 0.000000
vn -0.993561 -0.113295 0.000000
vn -0.993561 -0.113295 0.000000
vn -0.000000 0.000000 -1.000000
vn -0.000000 0.000000 -1.000000
vn -0.000000 0.000000 -1.000000
vn -0.000000 0.000000 -1.000000
vn 0.760890 0.648881 0.000000
vn 0.760890 0.648881 0.000000
vn 0.760890 0.648881 0.000000
vn 0.760890 0.648881 0.000000
vn -0.000000 0.000000 1.000000
vn 0.000000 0.000000 1.000000
vn 0.000000 0.000000 1.000000
vn -0.000000 0.000000 1.000000
vn 0.398449 -0.917190 0.000000
vn 0.398449 -0.917190 0.000000
vn 0.002967 -0.999996 0.000000
vn 0.002967 -0.999996 0.000000
vn 0.000000 0.000000 -1.000000
vn -0.000000 0.000000 -1.000000
vn -0.000000 0.000000 -1.000000
vn 0.000000 0.000000 -1.000000
s off
f 1/1/1 3/3/2 11/15/3 2/2/4
f 7/11/5 12/12/6 13/13/7 10/14/8
f 4/4/9 14/18/10 5/5/11 6/6/12
f 1/1/13 6/7/14 5/8/15 3/3/16
f 6/9/17 1/1/18 2/2/19 4/10/20
f 2/16/21 11/17/22 12/12/23 7/11/24
f 3/19/25 5/20/26 9/21/27 8/22/28
f 14/23/29 4/24/30 10/14/31 13/13/32
f 4/24/33 2/16/34 7/11/35 10/14/36
f 11/17/37 3/19/38 8/22/39 12/12/40
f 13/13/41 12/12/42 8/22/43 9/21/44
f 5/20/45 14/23/46 13/13/47 9/21/48
