# This file uses centimeters as units for non-parametric coordinates.

v -8.097803 -0.000006 8.097839
v 8.097816 -0.000006 8.097839
v -7.449436 255.912292 7.449436
v 7.449436 255.912292 7.449436
v -7.449436 255.912292 -7.449437
v 7.449436 255.912292 -0.102425
v -8.097803 -0.000006 -8.097839
v 8.097816 -0.000006 -8.097839
v -8.097803 193.423218 -8.097839
v -8.097803 193.423218 8.097839
v 8.097816 193.423218 8.097839
v 8.097816 193.423218 -8.097839
v -8.097803 176.539612 -8.097839
v -8.097803 176.539612 8.097839
v 8.097816 176.539612 8.097839
v 8.097816 176.539612 -8.097839
v -78.038620 177.704163 -6.980705
v -78.038620 177.704163 6.980705
v -78.038620 186.938171 6.980705
v -78.038620 192.258652 -6.980705
v 62.153412 177.587723 7.092476
v 77.367783 177.587723 -7.092476
v 77.367783 192.375092 -7.092476
v 77.367783 192.375092 7.092476
v -78.038620 192.258652 3.121853
v -58.707500 192.258652 6.980705
v 77.367783 180.562500 7.092571
v 77.367783 177.587723 2.956772
v 20.504438 193.423218 8.097839
v 51.063168 192.771362 7.472515
v 33.407177 193.423187 3.263092
v 30.412066 190.691650 8.097839
v -8.097803 59.236610 8.097839
v -8.097791 151.128891 8.097839
v -5.359125 94.685585 8.097839
v -8.097828 96.239174 2.503872
v 8.097816 19.066446 8.097935
v 8.097804 77.418442 8.097935
v 5.361867 40.161953 8.097839
v 8.097769 39.804310 2.388191
v -7.449436 227.389023 7.449436
v -7.449436 247.218185 7.449436
v -5.391359 239.292831 7.449436
v -7.449449 238.729950 4.632092
v 1.588011 255.912292 -7.449532
v 7.492435 244.770096 -7.492447
vt 0.209627 0.277632
vt 0.209627 0.277632
vt 0.209627 0.277632
vt 0.209627 0.277632
vt 0.209627 0.277632
vt 0.209627 0.277632
vt 0.209627 0.277632
vt 0.209627 0.277632
vt 0.209627 0.277632
vt 0.209627 0.277632
vt 0.209627 0.277632
vt 0.209627 0.277632
vt 0.209627 0.277632
vt 0.209627 0.277632
vt 0.209627 0.277632
vt 0.209627 0.277632
vt 0.209627 0.277632
vt 0.209627 0.277632
vt 0.209627 0.277632
vt 0.209627 0.277632
vt 0.209627 0.277632
vt 0.209627 0.277632
vt 0.209627 0.277632
vt 0.209627 0.277632
vt 0.209627 0.277632
vt 0.209627 0.277632
vt 0.209627 0.277632
vt 0.209627 0.277632
vt 0.209627 0.277632
vt 0.209627 0.277632
vt 0.209627 0.277632
vt 0.209627 0.277632
vt 0.209627 0.277632
vt 0.209627 0.277632
vt 0.209627 0.277632
vt 0.209627 0.277632
vt 0.209627 0.277632
vt 0.209627 0.277632
vt 0.209627 0.277632
vt 0.209627 0.277632
vt 0.209627 0.277632
vt 0.209627 0.277632
vt 0.209627 0.277632
vt 0.209627 0.277632
vt 0.209627 0.277632
vt 0.209627 0.277632
vt 0.209627 0.277632
vt 0.209627 0.277632
vt 0.209627 0.277632
vt 0.209627 0.277632
vt 0.209627 0.277632
vt 0.209627 0.277632
vt 0.209627 0.277632
vt 0.209627 0.277632
vt 0.209627 0.277632
vt 0.209627 0.277632
vt 0.209627 0.277632
vn -0.009586 0.014699 0.999846
vn -0.009586 0.014699 0.999846
vn -0.009586 0.014699 0.999846
vn -0.009586 0.014699 0.999846
vn 0.721586 0.384597 -0.575673
vn 0.721586 0.384597 -0.575673
vn 0.721586 0.384597 -0.575673
vn 0.000000 -1.000000 0.000000
vn 0.000000 -1.000000 0.000000
vn 0.000000 -1.000000 0.000000
vn 0.000000 -1.000000 0.000000
vn -0.999842 0.010223 0.014538
vn -0.999842 0.010223 0.014538
vn -0.999842 0.010223 0.014538
vn 0.000000 0.000000 1.000000
vn 0.000000 0.000000 1.000000
vn 0.000000 0.000000 1.000000
vn 0.000000 0.000000 1.000000
vn 0.156763 -0.801777 0.576697
vn 0.156763 -0.801777 0.576697
vn 0.156763 -0.801777 0.576697
vn 0.000000 0.000000 -1.000000
vn 0.000000 0.000000 -1.000000
vn 0.000000 0.000000 -1.000000
vn 0.000000 0.000000 -1.000000
vn -1.000000 0.000000 -0.000002
vn -1.000000 0.000000 -0.000002
vn -1.000000 0.000000 -0.000002
vn -0.000007 0.000000 1.000000
vn -0.000007 0.000000 1.000000
vn -0.000007 0.000000 1.000000
vn -0.000007 0.000000 1.000000
vn 1.000000 0.000001 -0.000001
vn 1.000000 0.000001 -0.000001
vn 1.000000 0.000001 -0.000001
vn 1.000000 0.000001 -0.000001
vn 0.000000 0.000000 -1.000000
vn 0.000000 0.000000 -1.000000
vn 0.000000 0.000000 -1.000000
vn 0.000000 0.000000 -1.000000
vn -0.016648 -0.999861 0.000000
vn -0.016648 -0.999861 0.000000
vn -0.016648 -0.999861 0.000000
vn -0.016648 -0.999861 0.000000
vn -0.159523 0.579600 0.799135
vn -0.159523 0.579600 0.799135
vn -0.159523 0.579600 0.799135
vn -0.015971 0.000000 -0.999872
vn -0.015971 0.000000 -0.999873
vn -0.015971 0.000000 -0.999872
vn -0.015971 0.000000 -0.999873
vn 0.014512 0.000000 -0.999895
vn 0.014512 0.000000 -0.999895
vn 0.014512 0.000000 -0.999895
vn 0.014512 0.000000 -0.999895
vn 0.015625 0.999272 -0.034807
vn 0.015625 0.999272 -0.034807
vn 0.015625 0.999272 -0.034807
vn -1.000000 -0.000000 0.000000
vn -1.000000 -0.000000 0.000000
vn -1.000000 -0.000000 0.000000
vn -1.000000 -0.000000 0.000000
vn -1.000000 -0.000000 0.000000
vn -0.016935 0.010413 0.999802
vn -0.016935 0.010413 0.999802
vn -0.016935 0.010413 0.999802
vn -0.016935 0.010413 0.999802
vn -0.016935 0.010413 0.999802
vn -0.017443 0.999785 0.011182
vn -0.017443 0.999785 0.011182
vn -0.017443 0.999785 0.011182
vn -0.017443 0.999785 0.011182
vn -0.017443 0.999785 0.011182
vn 0.016615 -0.036413 0.999199
vn 0.016615 -0.036413 0.999199
vn 0.016615 -0.036413 0.999199
vn 0.016615 -0.036413 0.999199
vn 0.015712 -0.999846 0.007869
vn 0.015712 -0.999846 0.007869
vn 0.015712 -0.999846 0.007869
vn 0.015712 -0.999846 0.007869
vn 0.015712 -0.999846 0.007869
vn 1.000000 0.000000 0.000000
vn 1.000000 0.000000 0.000000
vn 1.000000 0.000000 0.000000
vn 1.000000 0.000000 0.000000
vn 1.000000 0.000000 0.000000
vn 0.216789 0.786312 0.578546
vn 0.216789 0.786312 0.578546
vn 0.216789 0.786312 0.578546
vn -0.902025 -0.043767 0.429460
vn -0.902025 -0.043767 0.429460
vn -0.902025 -0.043767 0.429460
vn 0.898234 -0.065963 0.434540
vn 0.898234 -0.065963 0.434540
vn 0.898234 -0.065963 0.434540
vn -0.812644 0.140500 0.565571
vn -0.812644 0.140500 0.565571
vn -0.812644 0.140500 0.565571
vn -0.771616 -0.200375 0.603704
vn -0.771616 -0.200375 0.603704
vn -0.771616 -0.200375 0.603704
vn -0.075612 0.887492 0.454578
vn -0.075612 0.887492 0.454578
vn -0.075612 0.887492 0.454578
vn -0.888362 0.068632 0.453986
vn -0.888361 0.068632 0.453986
vn -0.888361 0.068632 0.453986
vn 0.898495 0.116531 0.423234
vn 0.898495 0.116531 0.423234
vn 0.898495 0.116531 0.423234
vn 0.020905 0.013930 0.999684
vn 0.020905 0.013930 0.999684
vn 0.020905 0.013930 0.999684
vn 0.020905 0.013930 0.999684
vn 0.000000 0.000000 1.000000
vn 0.000000 0.000000 1.000000
vn 0.000000 0.000000 1.000000
vn 0.000000 0.000000 1.000000
vn -0.000000 0.000000 1.000000
vn -0.000000 0.000000 1.000000
vn -0.000000 0.000000 1.000000
vn -0.000000 0.000000 1.000000
vn -0.013250 0.010237 0.999860
vn -0.013250 0.010237 0.999860
vn -0.013250 0.010237 0.999860
vn 0.000000 0.000000 1.000000
vn 0.000000 0.000000 1.000000
vn 0.000000 0.000000 1.000000
vn 0.000000 0.000000 1.000000
vn -0.000005 -0.000000 1.000000
vn -0.000005 -0.000000 1.000000
vn -0.000005 -0.000000 1.000000
vn -0.000005 -0.000000 1.000000
vn 0.000000 0.000000 1.000000
vn 0.000000 0.000000 1.000000
vn 0.000000 0.000000 1.000000
vn 0.000000 0.000000 1.000000
vn -1.000000 -0.000000 0.000001
vn -1.000000 -0.000000 0.000001
vn -1.000000 -0.000000 0.000001
vn -1.000000 -0.000000 0.000001
vn -1.000000 0.000000 0.000001
vn -1.000000 0.000000 0.000001
vn -1.000000 0.000000 0.000001
vn -1.000000 0.000000 0.000001
vn 1.000000 -0.000000 -0.000001
vn 1.000000 -0.000000 -0.000001
vn 1.000000 -0.000000 -0.000001
vn 1.000000 -0.000000 -0.000001
vn 1.000000 0.000000 0.000004
vn 1.000000 0.000000 0.000004
vn 1.000000 0.000000 0.000004
vn 0.000001 1.000000 -0.000002
vn 0.000001 1.000000 -0.000002
vn 0.000001 1.000000 -0.000002
vn 0.000001 1.000000 -0.000002
vn 0.022641 0.999650 0.013692
vn 0.022641 0.999650 0.013692
vn 0.022641 0.999650 0.013692
vn 0.022641 0.999650 0.013692
vn -0.999848 0.014992 0.008943
vn -0.999848 0.014992 0.008943
vn -0.999848 0.014992 0.008943
vn -0.999848 0.014992 0.008943
vn -1.000000 0.000001 0.000000
vn -1.000000 0.000001 0.000000
vn -1.000000 0.000001 0.000000
vn -1.000000 0.000001 0.000000
vn 0.000000 1.000000 -0.000001
vn 0.000000 1.000000 -0.000001
vn 0.000000 1.000000 -0.000001
vn 0.000000 1.000000 -0.000001
vn 0.000000 1.000000 -0.000001
vn 0.999940 0.010688 -0.002444
vn 0.999940 0.010688 -0.002444
vn 0.999940 0.010688 -0.002444
vn 0.999940 0.010688 -0.002444
vn 0.999940 0.010688 -0.002444
vn 0.002421 0.010627 -0.999941
vn 0.002421 0.010627 -0.999941
vn 0.002421 0.010627 -0.999941
vn 0.002421 0.010627 -0.999941
vn 0.002421 0.010627 -0.999941
s off
f 10/17/1 11/18/2 43/53/3 41/51/4
f 46/56/5 45/55/6 6/6/7
f 7/7/8 8/8/9 2/10/10 1/9/11
f 9/15/12 44/54/13 5/14/14
f 14/23/15 15/24/16 11/18/17 10/17/18
f 21/31/19 28/38/20 27/37/21
f 9/16/22 12/19/23 16/25/24 13/22/25
f 7/13/26 36/46/27 13/21/28
f 35/45/29 39/49/30 38/48/31 15/24/32
f 2/2/33 8/11/34 40/50/35 37/47/36
f 13/22/37 16/25/38 8/8/39 7/7/40
f 13/21/41 14/23/42 18/28/43 17/27/44
f 26/36/45 25/35/46 19/29/47
f 9/15/48 13/21/49 17/27/50 20/30/51
f 16/26/52 12/20/53 23/33/54 22/32/55
f 12/20/56 31/41/57 23/33/58
f 17/27/59 18/28/60 19/29/61 25/35/62 20/30/63
f 14/23/64 10/17/65 26/36/66 19/29/67 18/28/68
f 10/17/69 9/15/70 20/30/71 25/35/72 26/36/73
f 32/42/74 15/24/75 21/31/76 27/37/77
f 15/24/78 16/26/79 22/32/80 28/38/81 21/31/82
f 27/37/83 28/38/84 22/32/85 23/33/86 24/34/87
f 29/39/88 32/42/89 31/41/90
f 36/46/91 35/45/92 34/44/93
f 38/48/94 39/49/95 40/50/96
f 43/53/97 44/54/98 41/51/99
f 42/52/100 44/54/101 43/53/102
f 31/41/103 32/42/104 30/40/105
f 33/43/106 35/45/107 36/46/108
f 40/50/109 39/49/110 37/47/111
f 32/42/112 27/37/113 24/34/114 30/40/115
f 11/18/116 15/24/117 32/42/118 29/39/119
f 43/53/120 4/4/121 3/3/122 42/52/123
f 43/53/124 11/18/125 4/4/126
f 35/45/127 15/24/128 14/23/129 34/44/130
f 1/1/131 2/2/132 37/47/133 39/49/134
f 1/1/135 39/49/136 35/45/137 33/43/138
f 7/13/139 1/1/140 33/43/141 36/46/142
f 13/21/143 36/46/144 34/44/145 14/23/146
f 40/50/147 16/26/148 15/24/149 38/48/150
f 40/50/151 8/11/152 16/26/153
f 12/20/154 11/18/155 29/39/156 31/41/157
f 23/33/158 31/41/159 30/40/160 24/34/161
f 9/15/162 10/17/163 41/51/164 44/54/165
f 5/14/166 44/54/167 42/52/168 3/3/169
f 3/3/170 4/4/171 6/6/172 45/55/173 5/5/174
f 11/18/175 12/20/176 46/57/177 6/12/178 4/4/179
f 5/5/180 45/55/181 46/56/182 12/19/183 9/16/184
