# This file uses centimeters as units for non-parametric coordinates.

v -5.460739 0.000000 7.579327
v 7.579422 0.000000 5.460072
v -7.579422 0.000000 -5.459976
v 5.460358 0.000000 -7.579326
v -6.673813 22.341194 -4.807854
v -4.808044 22.341194 6.674099
v 6.674194 22.341194 4.807949
v 4.808044 22.341194 -6.674194
v 2.242661 25.027920 2.243042
v -2.243423 25.027920 2.243042
v -2.243423 25.027920 -2.242947
v 2.242661 25.027920 -2.242947
v 0.000000 25.027920 3.297615
v 0.000000 25.027920 -3.297520
v -3.298187 25.027920 0.000000
v 0.000000 0.000000 0.000000
v 3.297424 25.027920 0.000000
v 4.808044 22.341194 6.674099
v 5.460358 0.000000 7.579327
v -6.673813 22.341194 4.807949
v -7.579422 0.000000 5.460072
v -4.808044 22.341194 -6.674194
v -5.460739 0.000000 -7.579326
v 6.674194 22.341194 -4.807854
v 7.579422 0.000000 -5.459976
v 0.000000 30.032469 -2.257824
v 1.535416 30.032469 -1.535702
v 2.257538 30.032469 0.000000
v 1.535416 30.032469 1.535892
v 0.000000 30.032469 2.257919
v -1.536179 30.032469 1.535892
v -2.257919 30.032469 0.000000
v -1.536179 30.032469 -1.535702
v 2.798843 33.954609 0.000000
v 0.000000 33.954609 0.000000
v 0.000000 33.954609 2.798939
v 1.903915 33.954609 1.903820
v -1.904678 33.954609 1.903820
v -2.799606 33.954609 0.000000
v 0.000000 33.954609 -2.798843
v 1.903915 33.954609 -1.903725
v -1.904678 33.954609 -1.903725
v 0.000000 30.238615 -2.798843
v 1.903915 30.238615 -1.903534
v 2.798843 30.238615 0.000000
v 1.903915 30.238615 1.903820
v 0.000000 30.238615 2.798939
v -1.904678 30.238615 1.903820
v -2.798843 30.238615 0.000000
v -1.904678 30.238615 -1.903534
v -7.579422 16.456425 -5.459976
v -7.579422 16.456425 5.460072
v -5.460739 16.456425 7.579327
v 5.460358 16.456450 7.579327
v 7.579422 16.456425 5.460072
v 7.579422 16.456425 -5.459976
v 5.460358 16.456425 -7.579326
v -5.460739 16.456425 -7.579326
v -7.579422 5.567194 -5.459976
v -7.579422 5.567194 5.460072
v -5.460739 5.567194 7.579327
v 5.460358 5.567193 7.579327
v 7.579041 5.567194 5.460072
v 7.579422 5.567194 -5.459976
v 5.460358 5.567194 -7.579326
v -5.460739 5.567194 -7.579326
v 7.579422 20.589422 -5.459976
v 7.579422 20.589422 5.460072
v 5.460739 20.589434 7.579327
v -5.460739 20.589422 7.579327
v -7.579422 20.589422 5.460072
v -7.579422 20.589422 -5.459976
v -5.460739 20.589422 -7.579326
v 5.460739 20.589422 -7.579326
v -7.579422 5.567194 2.644062
v -7.579422 16.456425 2.644062
v 7.579041 5.567194 2.644062
v 7.579422 16.456425 2.644062
v -7.579422 16.456425 -2.867222
v -7.579422 5.567194 -2.867222
v 7.579422 16.456425 -2.867222
v 7.579041 5.567194 -2.867222
vt 0.069121 0.276442
vt 0.069121 0.276442
vt 0.056914 0.229696
vt 0.056914 0.229696
vt 0.056914 0.229696
vt 0.056914 0.229696
vt 0.069121 0.276442
vt 0.069121 0.276442
vt 0.069121 0.276442
vt 0.069121 0.276442
vt 0.069121 0.276442
vt 0.056914 0.229696
vt 0.069121 0.276442
vt 0.056914 0.229696
vt 0.069121 0.276442
vt 0.069121 0.276442
vt 0.069121 0.276442
vt 0.069121 0.276442
vt 0.069121 0.276442
vt 0.069121 0.276442
vt 0.069121 0.276442
vt 0.069121 0.276442
vt 0.069121 0.276442
vt 0.069121 0.276442
vt 0.069121 0.276442
vt 0.069121 0.276442
vt 0.056914 0.229696
vt 0.056914 0.229696
vt 0.069121 0.276442
vt 0.069121 0.276442
vt 0.056914 0.229696
vt 0.056914 0.229696
vt 0.056914 0.229696
vt 0.056914 0.229696
vt 0.056914 0.229696
vt 0.069121 0.276442
vt 0.069121 0.276442
vt 0.069121 0.276442
vt 0.069121 0.276442
vt 0.069121 0.276442
vt 0.069121 0.276442
vt 0.069121 0.276442
vt 0.069121 0.276442
vt 0.069121 0.276442
vt 0.069121 0.276442
vt 0.069121 0.276442
vt 0.069121 0.276442
vt 0.069121 0.276442
vt 0.069121 0.276442
vt 0.069121 0.276442
vt 0.069121 0.276442
vt 0.069121 0.276442
vt 0.069121 0.276442
vt 0.069121 0.276442
vt 0.069121 0.276442
vt 0.069121 0.276442
vt 0.069121 0.276442
vt 0.069121 0.276442
vt 0.069121 0.276442
vt 0.056914 0.229696
vt 0.056914 0.229696
vt 0.056914 0.229696
vt 0.056914 0.229696
vt 0.056914 0.229696
vt 0.056914 0.229696
vt 0.056914 0.229696
vt 0.056914 0.229696
vt 0.056914 0.229696
vt 0.056914 0.229696
vt 0.069121 0.276442
vt 0.069121 0.276442
vt 0.069121 0.276442
vt 0.069121 0.276442
vt 0.069121 0.276442
vt 0.069121 0.276442
vt 0.069121 0.276442
vt 0.069121 0.276442
vt 0.069121 0.276442
vt 0.069121 0.276442
vt 0.069121 0.276442
vt 0.069121 0.276442
vt 0.069121 0.276442
vt 0.069121 0.276442
vt 0.069121 0.276442
vt 0.069121 0.276442
vt 0.069121 0.276442
vt 0.069121 0.276442
vt 0.069121 0.276442
vt 0.069121 0.276442
vt 0.069121 0.276442
vt 0.069121 0.276442
vt 0.069121 0.276442
vt 0.069121 0.276442
vt 0.069121 0.276442
vt 0.069121 0.276442
vt 0.069121 0.276442
vt 0.069121 0.276442
vt 0.069121 0.276442
vt 0.069121 0.276442
vt 0.069121 0.276442
vt 0.069121 0.276442
vt 0.069121 0.276442
vt 0.069121 0.276442
vt 0.069121 0.276442
vt 0.069121 0.276442
vt 0.069121 0.276442
vt 0.069121 0.276442
vt 0.069393 0.327526
vt 0.069393 0.327526
vt 0.069393 0.327526
vt 0.069393 0.327526
vt 0.069393 0.327526
vt 0.069393 0.327526
vt 0.069393 0.327526
vt 0.069393 0.327526
vt 0.069393 0.327526
vt 0.069393 0.327526
vt 0.069393 0.327526
vt 0.069393 0.327526
vt 0.070190 0.326730
vt 0.070190 0.326730
vt 0.070190 0.326730
vt 0.070190 0.326730
vt 0.070190 0.326730
vt 0.070190 0.326730
vt 0.070190 0.326730
vt 0.070190 0.326730
vt 0.070190 0.326730
vt 0.070190 0.326730
vt 0.070190 0.326730
vt 0.070190 0.326730
vt 0.056914 0.229696
vt 0.056914 0.229696
vt 0.069121 0.276442
vt 0.069121 0.276442
vt 0.069121 0.276442
vt 0.069121 0.276442
vt 0.069121 0.276442
vt 0.069121 0.276442
vt 0.069121 0.276442
vt 0.069121 0.276442
vt 0.069121 0.276442
vt 0.069121 0.276442
vt 0.069121 0.276442
vt 0.069121 0.276442
vt 0.069121 0.276442
vt 0.069121 0.276442
vt 0.069121 0.276442
vt 0.069121 0.276442
vt 0.069121 0.276442
vt 0.069121 0.276442
vt 0.069121 0.276442
vt 0.069121 0.276442
vt 0.069121 0.276442
vt 0.069121 0.276442
vt 0.069121 0.276442
vt 0.069121 0.276442
vt 0.069121 0.276442
vt 0.069121 0.276442
vt 0.069121 0.276442
vt 0.069121 0.276442
vt 0.069121 0.276442
vt 0.069121 0.276442
vt 0.069121 0.276442
vt 0.069121 0.276442
vt 0.069121 0.276442
vt 0.069121 0.276442
vt 0.069121 0.276442
vt 0.069121 0.276442
vt 0.069121 0.276442
vt 0.069121 0.276442
vt 0.069121 0.276442
vt 0.069121 0.276442
vt 0.069121 0.276442
vt 0.069121 0.276442
vt 0.069121 0.276442
vt 0.069121 0.276442
vt 0.069121 0.276442
vt 0.069121 0.276442
vt 0.069121 0.276442
vt 0.069121 0.276442
vt 0.069121 0.276442
vt 0.069121 0.276442
vt 0.069121 0.276442
vt 0.069121 0.276442
vt 0.069121 0.276442
vt 0.069121 0.276442
vt 0.069121 0.276442
vt 0.069121 0.276442
vt 0.069121 0.276442
vt 0.069121 0.276442
vt 0.069121 0.276442
vt 0.069121 0.276442
vn 0.198290 0.884795 0.421685
vn 0.198290 0.884795 0.421685
vn 0.198290 0.884795 0.421685
vn 0.000000 1.000000 -0.000001
vn 0.000000 1.000000 -0.000001
vn 0.000000 1.000000 -0.000001
vn 0.000000 1.000000 -0.000001
vn 0.000000 0.782518 -0.622628
vn 0.000000 0.782518 -0.622628
vn 0.000000 0.782518 -0.622628
vn 0.000000 -1.000000 0.000000
vn 0.000000 -1.000000 0.000000
vn 0.000000 -1.000000 0.000000
vn 0.622617 0.782527 0.000000
vn 0.622617 0.782527 0.000000
vn 0.622617 0.782527 0.000000
vn -0.421736 0.884765 0.198317
vn -0.421736 0.884765 0.198317
vn -0.421737 0.884765 0.198317
vn -0.707202 0.000000 0.707011
vn -0.707202 0.000000 0.707011
vn -0.707202 0.000000 0.707011
vn -0.707202 0.000000 0.707011
vn 0.707170 -0.000033 0.707043
vn 0.707170 -0.000033 0.707043
vn 0.707170 -0.000033 0.707043
vn 0.707170 -0.000033 0.707043
vn 1.000000 0.000000 0.000000
vn 1.000000 0.000000 0.000000
vn 1.000000 0.000000 0.000000
vn 1.000000 0.000000 0.000000
vn 0.000000 0.000000 -1.000000
vn 0.000000 0.000000 -1.000000
vn 0.000000 0.000000 -1.000000
vn 0.000000 0.000000 -1.000000
vn 0.418212 0.184767 0.889359
vn 0.418212 0.184767 0.889359
vn 0.418212 0.184767 0.889359
vn 0.418212 0.184767 0.889359
vn -0.889396 0.184822 0.418111
vn -0.889396 0.184822 0.418111
vn -0.889395 0.184822 0.418111
vn -0.889396 0.184822 0.418111
vn 0.418229 0.184775 -0.889350
vn 0.418229 0.184775 -0.889350
vn 0.418229 0.184775 -0.889349
vn 0.418229 0.184775 -0.889350
vn 0.889367 0.184788 0.418187
vn 0.889367 0.184788 0.418187
vn 0.889367 0.184788 0.418187
vn 0.889367 0.184788 0.418187
vn 0.000000 1.000000 0.000000
vn 0.000000 1.000000 0.000000
vn 0.000000 1.000000 0.000000
vn 0.000000 1.000000 0.000000
vn -0.418073 0.184769 0.889424
vn -0.418073 0.184769 0.889424
vn -0.418073 0.184769 0.889424
vn -0.418073 0.184769 0.889424
vn 0.000000 -1.000000 0.000000
vn 0.000000 -1.000000 0.000000
vn 0.000000 -1.000000 0.000000
vn -0.707218 0.000000 -0.706996
vn -0.707218 0.000000 -0.706996
vn -0.707218 0.000000 -0.706996
vn -0.707218 0.000000 -0.706996
vn -0.198241 0.884787 -0.421725
vn -0.198241 0.884787 -0.421725
vn -0.198241 0.884787 -0.421725
vn -0.418091 0.184777 -0.889414
vn -0.418091 0.184777 -0.889414
vn -0.418091 0.184777 -0.889414
vn -0.418091 0.184777 -0.889414
vn 0.000000 1.000000 0.000001
vn 0.000000 1.000000 0.000001
vn 0.000000 1.000000 0.000001
vn 0.000000 1.000000 0.000001
vn 0.000000 1.000000 -0.000000
vn 0.000000 1.000000 -0.000000
vn 0.000000 1.000000 -0.000000
vn 0.000000 1.000000 -0.000000
vn -0.889383 0.184825 -0.418137
vn -0.889383 0.184825 -0.418137
vn -0.889383 0.184825 -0.418137
vn -0.889383 0.184825 -0.418137
vn 0.707186 -0.000033 -0.707027
vn 0.707186 -0.000033 -0.707027
vn 0.707186 -0.000033 -0.707027
vn 0.707186 -0.000033 -0.707027
vn 0.421666 0.884804 -0.198292
vn 0.421666 0.884804 -0.198292
vn 0.421666 0.884804 -0.198292
vn 0.889354 0.184792 -0.418213
vn 0.889354 0.184792 -0.418213
vn 0.889354 0.184792 -0.418213
vn 0.889354 0.184792 -0.418213
vn -0.198247 0.884781 0.421736
vn -0.198247 0.884781 0.421736
vn -0.198247 0.884781 0.421736
vn 0.000000 0.782501 0.622649
vn 0.000000 0.782501 0.622649
vn 0.000000 0.782501 0.622649
vn -0.000000 0.000000 1.000000
vn -0.000000 0.000000 1.000000
vn -0.000000 0.000000 1.000000
vn -0.000000 0.000000 1.000000
vn -0.622746 0.782424 0.000000
vn -0.622746 0.782424 0.000000
vn -0.622746 0.782424 0.000000
vn -1.000000 0.000000 0.000000
vn -1.000000 0.000000 0.000000
vn -1.000000 0.000000 0.000000
vn -0.421733 0.884765 -0.198323
vn -0.421733 0.884765 -0.198323
vn -0.421733 0.884765 -0.198323
vn 0.198285 0.884802 -0.421674
vn 0.198285 0.884802 -0.421674
vn 0.198285 0.884802 -0.421674
vn 0.421670 0.884804 0.198285
vn 0.421670 0.884804 0.198285
vn 0.421669 0.884804 0.198285
vn -0.337530 0.878745 0.337461
vn -0.337530 0.878745 0.337461
vn -0.337530 0.878745 0.337461
vn -0.337544 0.878748 -0.337440
vn -0.337544 0.878748 -0.337440
vn -0.337544 0.878748 -0.337440
vn 0.337474 0.878775 -0.337439
vn 0.337474 0.878775 -0.337439
vn 0.337474 0.878775 -0.337439
vn 0.337460 0.878772 0.337461
vn 0.337460 0.878772 0.337461
vn 0.337460 0.878772 0.337461
vn 0.000000 -1.000000 0.000000
vn 0.000000 -1.000000 0.000000
vn 0.000000 -1.000000 0.000000
vn 0.000000 -1.000000 0.000000
vn 0.000000 -1.000000 0.000000
vn 0.000000 -1.000000 0.000000
vn 0.000000 -1.000000 0.000000
vn 0.000000 -1.000000 0.000000
vn 0.000000 -1.000000 0.000000
vn 0.000000 -1.000000 0.000000
vn 0.000000 -1.000000 0.000000
vn 0.000000 -1.000000 0.000000
vn 0.000000 -1.000000 0.000000
vn 0.000000 -1.000000 0.000000
vn 0.000000 -1.000000 0.000000
vn 0.000000 -1.000000 0.000000
vn 0.000000 -1.000000 0.000000
vn 0.000000 -1.000000 0.000000
vn 0.425507 -0.000023 -0.904955
vn 0.425507 -0.000023 -0.904955
vn 0.425507 -0.000023 -0.904955
vn 0.425507 -0.000023 -0.904955
vn 0.904983 -0.000011 -0.425448
vn 0.904983 -0.000011 -0.425448
vn 0.904983 -0.000011 -0.425448
vn 0.904983 -0.000011 -0.425448
vn 0.904999 0.000000 0.425413
vn 0.904999 0.000000 0.425413
vn 0.904999 0.000000 0.425413
vn 0.904999 0.000000 0.425413
vn 0.425469 0.000000 0.904973
vn 0.425469 0.000000 0.904973
vn 0.425469 0.000000 0.904973
vn 0.425469 0.000000 0.904973
vn -0.425330 0.000000 0.905038
vn -0.425330 0.000000 0.905038
vn -0.425330 0.000000 0.905038
vn -0.425330 0.000000 0.905038
vn -0.905069 -0.000093 0.425264
vn -0.905069 -0.000093 0.425264
vn -0.905069 -0.000093 0.425264
vn -0.905069 -0.000093 0.425264
vn -0.905053 -0.000104 -0.425299
vn -0.905053 -0.000104 -0.425299
vn -0.905053 -0.000104 -0.425299
vn -0.905053 -0.000104 -0.425299
vn -0.425367 -0.000023 -0.905021
vn -0.425367 -0.000023 -0.905021
vn -0.425367 -0.000023 -0.905021
vn -0.425367 -0.000023 -0.905021
vn 0.165133 -0.921645 -0.351142
vn 0.165133 -0.921645 -0.351142
vn 0.165133 -0.921645 -0.351142
vn 0.165133 -0.921645 -0.351142
vn 0.350978 -0.921728 -0.165021
vn 0.350978 -0.921728 -0.165021
vn 0.350978 -0.921728 -0.165021
vn 0.350978 -0.921728 -0.165021
vn 0.350973 -0.921734 0.164995
vn 0.350973 -0.921735 0.164995
vn 0.350973 -0.921734 0.164995
vn 0.350973 -0.921735 0.164995
vn 0.165096 -0.921658 0.351127
vn 0.165096 -0.921658 0.351127
vn 0.165096 -0.921658 0.351127
vn 0.165096 -0.921658 0.351127
vn -0.165035 -0.921660 0.351151
vn -0.165035 -0.921660 0.351151
vn -0.165035 -0.921660 0.351151
vn -0.165035 -0.921660 0.351151
vn -0.351119 -0.921687 0.164949
vn -0.351119 -0.921687 0.164949
vn -0.351119 -0.921687 0.164949
vn -0.351119 -0.921687 0.164949
vn -0.351123 -0.921681 -0.164973
vn -0.351123 -0.921681 -0.164973
vn -0.351123 -0.921681 -0.164973
vn -0.351123 -0.921681 -0.164973
vn -0.165072 -0.921647 -0.351168
vn -0.165072 -0.921647 -0.351168
vn -0.165072 -0.921647 -0.351168
vn -0.165072 -0.921647 -0.351168
vn -1.000000 0.000000 0.000000
vn -1.000000 0.000000 0.000000
vn -1.000000 0.000000 0.000000
vn -1.000000 0.000000 0.000000
vn -0.707202 0.000000 0.707011
vn -0.707202 0.000000 0.707011
vn -0.707202 0.000000 0.707011
vn -0.707202 0.000000 0.707011
vn -0.000000 0.000000 1.000000
vn -0.000000 0.000000 1.000000
vn -0.000000 0.000000 1.000000
vn -0.000000 0.000000 1.000000
vn 0.707171 -0.000012 0.707043
vn 0.707171 -0.000012 0.707043
vn 0.707171 -0.000012 0.707043
vn 0.707171 -0.000012 0.707043
vn 1.000000 -0.000035 0.000000
vn 1.000000 -0.000035 0.000000
vn 1.000000 -0.000035 0.000000
vn 1.000000 -0.000035 0.000000
vn 0.707154 0.000000 -0.707059
vn 0.707154 0.000000 -0.707059
vn 0.707154 0.000000 -0.707059
vn 0.707154 0.000000 -0.707059
vn 0.000000 0.000000 -1.000000
vn 0.000000 0.000000 -1.000000
vn 0.000000 0.000000 -1.000000
vn 0.000000 0.000000 -1.000000
vn -0.707218 0.000000 -0.706996
vn -0.707218 0.000000 -0.706996
vn -0.707218 0.000000 -0.706996
vn -0.707218 0.000000 -0.706996
vn -1.000000 0.000000 0.000000
vn -1.000000 -0.000000 0.000000
vn -1.000000 -0.000000 0.000000
vn -0.707202 0.000000 0.707011
vn -0.707202 0.000000 0.707011
vn -0.707202 0.000000 0.707011
vn -0.707202 0.000000 0.707011
vn 0.000000 0.000000 1.000000
vn 0.000000 0.000000 1.000000
vn 0.000000 0.000000 1.000000
vn 0.000000 0.000000 1.000000
vn 0.707171 0.000024 0.707043
vn 0.707170 0.000024 0.707043
vn 0.707171 0.000024 0.707043
vn 0.707170 0.000024 0.707043
vn 1.000000 0.000068 0.000000
vn 1.000000 0.000068 0.000000
vn 1.000000 0.000069 0.000000
vn 0.707154 0.000000 -0.707059
vn 0.707154 0.000000 -0.707059
vn 0.707154 0.000000 -0.707059
vn 0.707154 0.000000 -0.707059
vn 0.000000 0.000000 -1.000000
vn 0.000000 0.000000 -1.000000
vn 0.000000 0.000000 -1.000000
vn 0.000000 0.000000 -1.000000
vn -0.707218 0.000000 -0.706996
vn -0.707218 0.000000 -0.706996
vn -0.707218 0.000000 -0.706996
vn -0.707218 0.000000 -0.706996
vn 0.888396 0.459078 0.000000
vn 0.888396 0.459078 0.000000
vn 0.888396 0.459078 0.000000
vn 0.888396 0.459078 0.000000
vn 0.598659 0.532277 0.598572
vn 0.598659 0.532277 0.598572
vn 0.598659 0.532277 0.598572
vn 0.598659 0.532277 0.598572
vn -0.000000 0.459079 0.888395
vn -0.000000 0.459079 0.888395
vn -0.000000 0.459079 0.888395
vn -0.000000 0.459079 0.888395
vn -0.598667 0.532323 0.598523
vn -0.598667 0.532323 0.598523
vn -0.598667 0.532323 0.598523
vn -0.598667 0.532323 0.598523
vn -0.888317 0.459231 0.000000
vn -0.888317 0.459231 0.000000
vn -0.888317 0.459231 0.000000
vn -0.888317 0.459231 0.000000
vn -0.598693 0.532311 -0.598507
vn -0.598693 0.532311 -0.598507
vn -0.598693 0.532311 -0.598507
vn -0.598693 0.532311 -0.598507
vn 0.000000 0.459039 -0.888416
vn 0.000000 0.459039 -0.888416
vn 0.000000 0.459039 -0.888416
vn 0.000000 0.459039 -0.888416
vn 0.598686 0.532264 -0.598557
vn 0.598686 0.532264 -0.598557
vn 0.598686 0.532264 -0.598557
vn 0.598686 0.532264 -0.598557
vn -1.000000 0.000000 0.000000
vn -1.000000 0.000000 0.000000
vn -1.000000 0.000000 0.000000
vn -1.000000 0.000000 0.000000
vn 1.000000 -0.000017 0.000074
vn 1.000000 -0.000029 0.000024
vn 1.000000 -0.000029 0.000024
vn 1.000000 -0.000017 0.000074
vn -1.000000 0.000000 0.000000
vn -1.000000 0.000000 0.000000
vn -1.000000 0.000000 0.000000
vn -1.000000 0.000000 0.000000
vn 1.000000 -0.000029 0.000024
vn 1.000000 -0.000029 0.000024
vn 1.000000 -0.000035 0.000000
vn 1.000000 -0.000035 0.000000
vn 1.000000 0.000000 0.000000
vn 1.000000 0.000000 0.000000
vn 1.000000 0.000000 0.000000
vn 1.000000 0.000064 0.000008
vn 1.000000 0.000063 0.000012
vn 1.000000 0.000068 0.000000
vn 1.000000 0.000068 0.000000
vn 1.000000 0.000000 0.000147
vn 1.000000 0.000063 0.000012
vn 1.000000 0.000064 0.000008
vn 1.000000 0.000000 0.000000
vn 1.000000 0.000000 0.000000
vn 1.000000 0.000000 0.000000
vn -1.000000 0.000000 0.000000
vn -1.000000 0.000000 0.000000
vn -1.000000 0.000000 0.000000
vn -1.000000 -0.000000 0.000000
vn -1.000000 -0.000000 0.000000
vn -1.000000 -0.000000 0.000000
vn -1.000000 -0.000000 0.000000
vn -1.000000 -0.000000 0.000000
vn -1.000000 -0.000000 0.000000
vn -1.000000 0.000000 0.000000
vn -1.000000 0.000000 0.000000
vn -1.000000 0.000000 0.000000
vn -1.000000 0.000000 0.000000
vn -1.000000 0.000000 0.000000
s off
f 13/147/1 18/155/2 9/21/3
f 34/3/4 35/4/5 36/5/6 37/6/7
f 14/187/8 8/182/9 22/165/10
f 16/37/11 19/41/12 1/9/13
f 17/177/14 7/180/15 24/161/16
f 15/143/17 20/168/18 10/22/19
f 70/93/20 71/94/21 52/72/22 53/73/23
f 68/91/24 69/92/25 54/74/26 55/75/27
f 67/90/28 68/91/29 78/103/30 81/106/31
f 57/77/32 58/79/33 73/97/34 74/98/35
f 29/138/36 30/55/37 13/29/38 9/157/39
f 31/136/40 32/57/41 15/36/42 10/170/43
f 14/184/44 26/134/45 27/51/46 12/25/47
f 9/158/48 17/174/49 28/139/50 29/54/51
f 38/12/52 36/5/53 35/4/54 39/14/55
f 10/171/56 13/150/57 30/137/58 31/56/59
f 16/37/60 21/44/61 3/7/62
f 72/96/63 73/97/64 58/79/65 51/71/66
f 11/141/67 14/186/68 22/166/69
f 33/59/70 26/50/71 14/185/72 11/142/73
f 40/27/74 35/4/75 34/3/76 41/28/77
f 39/14/78 35/4/79 40/27/80 42/31/81
f 11/23/82 15/146/83 32/135/84 33/58/85
f 74/99/86 67/90/87 56/76/88 57/78/89
f 17/176/90 24/162/91 12/152/92
f 27/52/93 28/53/94 17/175/95 12/153/96
f 6/192/97 13/149/98 10/172/99
f 18/154/100 13/148/101 6/193/102
f 69/92/103 70/93/104 53/73/105 54/74/106
f 20/167/107 15/144/108 5/189/109
f 71/94/110 76/101/111 52/72/112
f 5/15/113 15/145/114 11/140/115
f 8/19/116 14/30/117 12/151/118
f 7/179/119 17/38/120 9/159/121
f 10/173/122 20/169/123 6/191/124
f 11/24/125 22/45/126 5/188/127
f 12/26/128 24/163/129 8/181/130
f 9/160/131 18/156/132 7/178/133
f 21/44/134 16/37/135 1/9/136
f 2/10/137 16/37/138 25/48/139
f 19/41/140 16/37/141 2/10/142
f 4/8/143 16/37/144 23/46/145
f 25/48/146 16/37/147 4/8/148
f 3/7/149 23/46/150 16/37/151
f 44/32/152 43/33/153 40/27/154 41/28/155
f 34/3/156 45/34/157 44/32/158 41/28/159
f 46/35/160 45/34/161 34/3/162 37/6/163
f 36/5/164 47/60/165 46/35/166 37/6/167
f 48/61/168 47/60/169 36/5/170 38/12/171
f 39/14/172 49/62/173 48/61/174 38/12/175
f 50/63/176 49/62/177 39/14/178 42/31/179
f 42/31/180 40/27/181 43/33/182 50/63/183
f 27/64/184 26/65/185 43/33/186 44/32/187
f 28/66/188 27/64/189 44/32/190 45/34/191
f 29/67/192 28/66/193 45/34/194 46/35/195
f 30/68/196 29/67/197 46/35/198 47/60/199
f 31/69/200 30/68/201 47/60/202 48/61/203
f 32/132/204 31/69/205 48/61/206 49/62/207
f 33/133/208 32/132/209 49/62/210 50/63/211
f 26/65/212 33/133/213 50/63/214 43/33/215
f 75/100/216 76/101/217 79/104/218 80/105/219
f 53/108/220 52/109/221 60/110/222 61/111/223
f 54/112/224 53/108/225 61/111/226 62/113/227
f 55/114/228 54/112/229 62/113/230 63/115/231
f 77/116/232 78/117/233 55/114/234 63/115/235
f 57/120/236 56/121/237 64/122/238 65/123/239
f 65/123/240 66/124/241 58/125/242 57/120/243
f 51/126/244 58/125/245 66/124/246 59/127/247
f 60/82/248 75/100/249 21/43/250
f 61/83/251 60/82/252 21/43/253 1/1/254
f 62/84/255 61/83/256 1/1/257 19/40/258
f 63/85/259 62/84/260 19/40/261 2/2/262
f 2/2/263 77/102/264 63/85/265
f 65/88/266 64/86/267 25/49/268 4/11/269
f 23/46/270 66/89/271 65/87/272 4/8/273
f 59/81/274 66/89/275 23/46/276 3/7/277
f 24/47/278 7/18/279 68/91/280 67/90/281
f 7/18/282 18/39/283 69/92/284 68/91/285
f 18/39/286 6/17/287 70/93/288 69/92/289
f 6/17/290 20/42/291 71/94/292 70/93/293
f 20/42/294 5/190/295 72/95/296 71/94/297
f 5/16/298 22/164/299 73/97/300 72/96/301
f 74/98/302 73/97/303 22/164/304 8/183/305
f 8/20/306 24/47/307 67/90/308 74/99/309
f 52/109/310 76/118/311 75/119/312 60/110/313
f 56/121/314 81/128/315 82/129/316 64/122/317
f 80/130/318 79/131/319 51/126/320 59/127/321
f 82/107/322 81/106/323 78/103/324 77/102/325
f 78/103/326 68/91/327 55/75/328
f 25/49/329 82/107/330 77/102/331 2/2/332
f 64/86/333 82/107/334 25/49/335
f 67/90/336 81/106/337 56/76/338
f 79/104/339 72/95/340 51/70/341
f 21/43/342 75/100/343 80/105/344 3/13/345
f 3/13/346 80/105/347 59/80/348
f 71/94/349 72/95/350 79/104/351 76/101/352
