# This file uses centimeters as units for non-parametric coordinates.

v -3.797531 0.000000 5.271244
v 5.271530 0.000000 3.797340
v -5.271149 0.000000 -3.797245
v 3.797913 0.000000 -5.271245
v -4.934311 25.386930 -3.554630
v -3.554535 25.386930 4.934502
v 4.934692 25.386930 3.554726
v 3.554916 25.386930 -4.934502
v 1.409912 30.210032 1.410007
v -1.409912 30.210032 1.410007
v -1.409912 30.210032 -1.409912
v 1.409912 30.210032 -1.409912
v 0.000000 30.210032 2.072811
v 0.000000 30.210032 -2.072716
v -2.072906 30.210032 0.000000
v 0.000000 0.000000 0.000000
v 2.072906 30.210032 0.000000
v 3.554916 25.386930 4.934502
v 3.797913 0.000000 5.271244
v -4.934311 25.386930 3.554726
v -5.271149 0.000000 3.797340
v -3.554535 25.386930 -4.934502
v -3.797531 0.000000 -5.271245
v 4.934692 25.386930 -3.554630
v 5.271530 0.000000 -3.797245
v 0.000000 39.156319 -1.940441
v 1.319885 39.156319 -1.319790
v 1.940536 39.156319 0.000000
v 1.319885 39.156319 1.319981
v 0.000000 39.156319 1.940536
v -1.319885 39.156319 1.319981
v -1.940536 39.156319 0.000000
v -1.319885 39.156319 -1.319790
v 2.405548 42.094627 0.000000
v 0.000000 42.094627 0.000000
v 0.000000 42.094627 2.405548
v 1.636505 42.094627 1.636219
v -1.636887 42.094627 1.636219
v -2.405930 42.094627 0.000000
v 0.000000 42.094627 -2.405453
v 1.636505 42.094627 -1.636124
v -1.636887 42.094627 -1.636124
v 0.000000 39.390564 -2.405453
v 1.636505 39.390564 -1.636028
v 2.405548 39.390564 0.000000
v 1.636505 39.390564 1.636219
v 0.000000 39.390564 2.405548
v -1.636887 39.390564 1.636219
v -2.404785 39.390564 0.000000
v -1.636887 39.390564 -1.636028
v -5.271149 18.699907 -3.797245
v -5.271149 18.699907 3.797340
v -3.797531 18.699907 5.271244
v 3.797913 18.699932 5.271244
v 5.271530 18.699907 3.797340
v 5.271530 18.699907 -3.797245
v 3.797913 18.699907 -5.271245
v -3.797531 18.699907 -5.271245
v -5.271149 6.326151 -3.797245
v -5.271149 6.326151 3.797340
v -3.797531 6.326151 5.271244
v 3.797913 6.326175 5.271244
v 5.271149 6.326151 3.797340
v 5.271530 6.326151 -3.797245
v 3.797913 6.326151 -5.271245
v -3.797531 6.326151 -5.271245
v 5.271530 23.396349 -3.797245
v 5.271530 23.396349 3.797340
v 3.797913 23.396360 5.271244
v -3.797531 23.396349 5.271244
v -5.271149 23.396349 3.797340
v -5.271149 23.396349 -3.797245
v -3.797531 23.396349 -5.271245
v 3.797913 23.396349 -5.271245
v -5.271149 6.326151 1.838875
v -5.271149 18.699907 1.838875
v 5.271149 6.326151 1.838875
v 5.271530 18.699907 1.838875
v -5.271149 18.699907 -1.994038
v -5.271149 6.326151 -1.994038
v 5.271530 18.699907 -1.994038
v 5.271149 6.326151 -1.994038
vt 0.171355 0.419387
vt 0.171355 0.419387
vt 0.037906 0.229696
vt 0.037906 0.229696
vt 0.037906 0.229696
vt 0.037906 0.229696
vt 0.171355 0.419387
vt 0.171355 0.419387
vt 0.171355 0.419387
vt 0.171355 0.419387
vt 0.171355 0.419387
vt 0.037906 0.229696
vt 0.171355 0.419387
vt 0.037906 0.229696
vt 0.171355 0.419387
vt 0.171355 0.419387
vt 0.171355 0.419387
vt 0.171355 0.419387
vt 0.171355 0.419387
vt 0.171355 0.419387
vt 0.171355 0.419387
vt 0.171355 0.419387
vt 0.171355 0.419387
vt 0.171355 0.419387
vt 0.171355 0.419387
vt 0.171355 0.419387
vt 0.037906 0.229696
vt 0.037906 0.229696
vt 0.171355 0.419387
vt 0.171355 0.419387
vt 0.037906 0.229696
vt 0.037906 0.229696
vt 0.037906 0.229696
vt 0.037906 0.229696
vt 0.037906 0.229696
vt 0.171355 0.419387
vt 0.171355 0.419387
vt 0.171355 0.419387
vt 0.171355 0.419387
vt 0.171355 0.419387
vt 0.171355 0.419387
vt 0.171355 0.419387
vt 0.171355 0.419387
vt 0.171355 0.419387
vt 0.171355 0.419387
vt 0.171355 0.419387
vt 0.171355 0.419387
vt 0.171355 0.419387
vt 0.171355 0.419387
vt 0.171355 0.419387
vt 0.171355 0.419387
vt 0.171355 0.419387
vt 0.171355 0.419387
vt 0.171355 0.419387
vt 0.171355 0.419387
vt 0.171355 0.419387
vt 0.171355 0.419387
vt 0.171355 0.419387
vt 0.171355 0.419387
vt 0.037906 0.229696
vt 0.037906 0.229696
vt 0.037906 0.229696
vt 0.037906 0.229696
vt 0.037906 0.229696
vt 0.037906 0.229696
vt 0.037906 0.229696
vt 0.037906 0.229696
vt 0.037906 0.229696
vt 0.037906 0.229696
vt 0.171355 0.419387
vt 0.171355 0.419387
vt 0.171355 0.419387
vt 0.171355 0.419387
vt 0.171355 0.419387
vt 0.171355 0.419387
vt 0.171355 0.419387
vt 0.171355 0.419387
vt 0.171355 0.419387
vt 0.171355 0.419387
vt 0.171355 0.419387
vt 0.171355 0.419387
vt 0.171355 0.419387
vt 0.171355 0.419387
vt 0.171355 0.419387
vt 0.171355 0.419387
vt 0.171355 0.419387
vt 0.171355 0.419387
vt 0.171355 0.419387
vt 0.171355 0.419387
vt 0.171355 0.419387
vt 0.171355 0.419387
vt 0.171355 0.419387
vt 0.171355 0.419387
vt 0.171355 0.419387
vt 0.171355 0.419387
vt 0.171355 0.419387
vt 0.171355 0.419387
vt 0.171355 0.419387
vt 0.171355 0.419387
vt 0.171355 0.419387
vt 0.171355 0.419387
vt 0.171355 0.419387
vt 0.171355 0.419387
vt 0.171355 0.419387
vt 0.171355 0.419387
vt 0.171355 0.419387
vt 0.171355 0.419387
vt 0.058588 0.328644
vt 0.058588 0.328644
vt 0.058588 0.328644
vt 0.058588 0.328644
vt 0.058588 0.328644
vt 0.058588 0.328644
vt 0.058588 0.328644
vt 0.058588 0.328644
vt 0.058588 0.328644
vt 0.058588 0.328644
vt 0.058588 0.328644
vt 0.058588 0.328644
vt 0.059385 0.327849
vt 0.059385 0.327849
vt 0.059385 0.327849
vt 0.059385 0.327849
vt 0.059385 0.327849
vt 0.059385 0.327849
vt 0.059385 0.327849
vt 0.059385 0.327849
vt 0.059385 0.327849
vt 0.059385 0.327849
vt 0.059385 0.327849
vt 0.059385 0.327849
vt 0.037906 0.229696
vt 0.037906 0.229696
vt 0.171355 0.419387
vt 0.171355 0.419387
vt 0.171355 0.419387
vt 0.171355 0.419387
vt 0.171355 0.419387
vt 0.171355 0.419387
vt 0.171355 0.419387
vt 0.171355 0.419387
vt 0.171355 0.419387
vt 0.171355 0.419387
vt 0.171355 0.419387
vt 0.171355 0.419387
vt 0.171355 0.419387
vt 0.171355 0.419387
vt 0.171355 0.419387
vt 0.171355 0.419387
vt 0.171355 0.419387
vt 0.171355 0.419387
vt 0.171355 0.419387
vt 0.171355 0.419387
vt 0.171355 0.419387
vt 0.171355 0.419387
vt 0.171355 0.419387
vt 0.171355 0.419387
vt 0.171355 0.419387
vt 0.171355 0.419387
vt 0.171355 0.419387
vt 0.171355 0.419387
vt 0.171355 0.419387
vt 0.171355 0.419387
vt 0.171355 0.419387
vt 0.171355 0.419387
vt 0.171355 0.419387
vt 0.171355 0.419387
vt 0.171355 0.419387
vt 0.171355 0.419387
vt 0.171355 0.419387
vt 0.171355 0.419387
vt 0.171355 0.419387
vt 0.171355 0.419387
vt 0.171355 0.419387
vt 0.171355 0.419387
vt 0.171355 0.419387
vt 0.171355 0.419387
vt 0.171355 0.419387
vt 0.171355 0.419387
vt 0.171355 0.419387
vt 0.171355 0.419387
vt 0.171355 0.419387
vt 0.171355 0.419387
vt 0.171355 0.419387
vt 0.171355 0.419387
vt 0.171355 0.419387
vt 0.171355 0.419387
vt 0.171355 0.419387
vt 0.171355 0.419387
vt 0.171355 0.419387
vt 0.171355 0.419387
vt 0.171355 0.419387
vt 0.171355 0.419387
vn 0.324073 0.647882 0.689366
vn 0.324073 0.647882 0.689366
vn 0.324073 0.647882 0.689366
vn 0.000000 1.000000 -0.000001
vn 0.000000 1.000000 -0.000001
vn 0.000000 1.000000 -0.000001
vn 0.000000 1.000000 -0.000001
vn 0.000000 0.510284 -0.860006
vn 0.000000 0.510284 -0.860006
vn 0.000000 0.510284 -0.860006
vn 0.000000 -1.000000 0.000000
vn 0.000000 -1.000000 0.000000
vn 0.000000 -1.000000 0.000000
vn 0.860006 0.510284 0.000000
vn 0.860006 0.510284 0.000000
vn 0.860006 0.510284 0.000000
vn -0.689350 0.647867 0.324137
vn -0.689350 0.647867 0.324137
vn -0.689350 0.647867 0.324137
vn -0.707175 0.000000 0.707038
vn -0.707175 0.000000 0.707038
vn -0.707175 0.000000 0.707038
vn -0.707175 0.000000 0.707038
vn 0.707175 0.000000 0.707038
vn 0.707175 0.000000 0.707038
vn 0.707175 0.000000 0.707038
vn 0.707175 0.000000 0.707038
vn 1.000000 -0.000000 0.000000
vn 1.000000 -0.000000 0.000000
vn 1.000000 -0.000000 0.000000
vn 1.000000 -0.000000 0.000000
vn 0.000000 0.000000 -1.000000
vn 0.000000 0.000000 -1.000000
vn 0.000000 0.000000 -1.000000
vn 0.000000 0.000000 -1.000000
vn 0.425419 0.013383 0.904897
vn 0.425419 0.013383 0.904897
vn 0.425419 0.013383 0.904897
vn 0.425419 0.013383 0.904897
vn -0.904872 0.013388 0.425473
vn -0.904872 0.013388 0.425473
vn -0.904872 0.013388 0.425473
vn -0.904872 0.013388 0.425473
vn 0.425445 0.013388 -0.904885
vn 0.425445 0.013388 -0.904885
vn 0.425445 0.013388 -0.904885
vn 0.425445 0.013388 -0.904885
vn 0.904872 0.013388 0.425473
vn 0.904872 0.013388 0.425473
vn 0.904872 0.013388 0.425473
vn 0.904872 0.013388 0.425473
vn 0.000000 1.000000 0.000001
vn 0.000000 1.000000 0.000001
vn 0.000000 1.000000 0.000001
vn 0.000000 1.000000 0.000001
vn -0.425419 0.013383 0.904897
vn -0.425419 0.013383 0.904897
vn -0.425419 0.013383 0.904897
vn -0.425419 0.013383 0.904897
vn 0.000000 -1.000000 0.000000
vn 0.000000 -1.000000 0.000000
vn 0.000000 -1.000000 0.000000
vn -0.707198 0.000000 -0.707015
vn -0.707198 0.000000 -0.707015
vn -0.707198 0.000000 -0.707015
vn -0.707198 0.000000 -0.707015
vn -0.324075 0.647875 -0.689371
vn -0.324075 0.647875 -0.689371
vn -0.324075 0.647875 -0.689371
vn -0.425445 0.013388 -0.904885
vn -0.425445 0.013388 -0.904885
vn -0.425445 0.013388 -0.904885
vn -0.425445 0.013388 -0.904885
vn 0.000000 1.000000 0.000000
vn 0.000000 1.000000 0.000000
vn 0.000000 1.000000 0.000000
vn 0.000000 1.000000 0.000000
vn 0.000000 1.000000 -0.000001
vn 0.000000 1.000000 -0.000001
vn 0.000000 1.000000 -0.000001
vn 0.000000 1.000000 -0.000001
vn -0.904855 0.013390 -0.425509
vn -0.904855 0.013390 -0.425509
vn -0.904855 0.013390 -0.425509
vn -0.904855 0.013390 -0.425509
vn 0.707198 0.000000 -0.707015
vn 0.707198 0.000000 -0.707015
vn 0.707198 0.000000 -0.707015
vn 0.707198 0.000000 -0.707015
vn 0.689317 0.647900 -0.324143
vn 0.689317 0.647900 -0.324143
vn 0.689317 0.647900 -0.324143
vn 0.904855 0.013390 -0.425509
vn 0.904855 0.013390 -0.425509
vn 0.904855 0.013390 -0.425509
vn 0.904855 0.013390 -0.425509
vn -0.324078 0.647867 0.689378
vn -0.324078 0.647867 0.689378
vn -0.324078 0.647867 0.689378
vn 0.000000 0.510272 0.860013
vn 0.000000 0.510272 0.860013
vn 0.000000 0.510272 0.860013
vn 0.000000 0.000000 1.000000
vn 0.000000 0.000000 1.000000
vn 0.000000 0.000000 1.000000
vn 0.000000 0.000000 1.000000
vn -0.860036 0.510234 0.000000
vn -0.860036 0.510234 0.000000
vn -0.860036 0.510234 0.000000
vn -1.000000 0.000000 0.000000
vn -1.000000 0.000000 0.000000
vn -1.000000 0.000000 0.000000
vn -0.689341 0.647868 -0.324155
vn -0.689341 0.647868 -0.324155
vn -0.689341 0.647868 -0.324155
vn 0.324070 0.647890 -0.689360
vn 0.324070 0.647890 -0.689360
vn 0.324070 0.647890 -0.689360
vn 0.689326 0.647898 0.324126
vn 0.689326 0.647898 0.324126
vn 0.689326 0.647898 0.324126
vn -0.543801 0.639188 0.543800
vn -0.543801 0.639188 0.543800
vn -0.543801 0.639188 0.543800
vn -0.543818 0.639192 -0.543779
vn -0.543818 0.639192 -0.543779
vn -0.543818 0.639192 -0.543779
vn 0.543803 0.639217 -0.543765
vn 0.543803 0.639217 -0.543765
vn 0.543803 0.639217 -0.543765
vn 0.543786 0.639214 0.543785
vn 0.543786 0.639214 0.543785
vn 0.543786 0.639214 0.543785
vn 0.000000 -1.000000 0.000000
vn 0.000000 -1.000000 0.000000
vn 0.000000 -1.000000 0.000000
vn 0.000000 -1.000000 0.000000
vn 0.000000 -1.000000 0.000000
vn 0.000000 -1.000000 0.000000
vn 0.000000 -1.000000 0.000000
vn 0.000000 -1.000000 0.000000
vn 0.000000 -1.000000 0.000000
vn 0.000000 -1.000000 0.000000
vn 0.000000 -1.000000 0.000000
vn 0.000000 -1.000000 0.000000
vn 0.000000 -1.000000 0.000000
vn 0.000000 -1.000000 0.000000
vn 0.000000 -1.000000 0.000000
vn 0.000000 -1.000000 0.000000
vn 0.000000 -1.000000 0.000000
vn 0.000000 -1.000000 0.000000
vn 0.425460 -0.000016 -0.904977
vn 0.425460 -0.000016 -0.904977
vn 0.425460 -0.000016 -0.904977
vn 0.425460 -0.000016 -0.904977
vn 0.905005 -0.000007 -0.425401
vn 0.905005 -0.000007 -0.425401
vn 0.905005 -0.000007 -0.425401
vn 0.905005 -0.000007 -0.425401
vn 0.905019 0.000000 0.425370
vn 0.905019 0.000000 0.425370
vn 0.905019 0.000000 0.425370
vn 0.905019 0.000000 0.425370
vn 0.425439 0.000000 0.904987
vn 0.425439 0.000000 0.904987
vn 0.425439 0.000000 0.904987
vn 0.425439 0.000000 0.904987
vn -0.425358 0.000000 0.905025
vn -0.425358 0.000000 0.905025
vn -0.425358 0.000000 0.905025
vn -0.425358 0.000000 0.905025
vn -0.905141 -0.000192 0.425111
vn -0.905141 -0.000192 0.425111
vn -0.905141 -0.000192 0.425111
vn -0.905141 -0.000192 0.425111
vn -0.905127 -0.000199 -0.425141
vn -0.905127 -0.000199 -0.425141
vn -0.905127 -0.000199 -0.425141
vn -0.905127 -0.000199 -0.425141
vn -0.425379 -0.000016 -0.905015
vn -0.425379 -0.000016 -0.905015
vn -0.425379 -0.000016 -0.905015
vn -0.425379 -0.000016 -0.905015
vn 0.206936 -0.873774 -0.440109
vn 0.206936 -0.873774 -0.440110
vn 0.206936 -0.873774 -0.440109
vn 0.206936 -0.873774 -0.440110
vn 0.440042 -0.873820 -0.206887
vn 0.440042 -0.873820 -0.206887
vn 0.440042 -0.873820 -0.206887
vn 0.440042 -0.873820 -0.206887
vn 0.440051 -0.873821 0.206863
vn 0.440051 -0.873821 0.206863
vn 0.440051 -0.873821 0.206863
vn 0.440051 -0.873821 0.206863
vn 0.206913 -0.873775 0.440119
vn 0.206913 -0.873775 0.440119
vn 0.206913 -0.873775 0.440118
vn 0.206913 -0.873775 0.440119
vn -0.206860 -0.873817 0.440060
vn -0.206860 -0.873817 0.440060
vn -0.206860 -0.873817 0.440060
vn -0.206860 -0.873817 0.440060
vn -0.440249 -0.873739 0.206787
vn -0.440249 -0.873739 0.206787
vn -0.440249 -0.873739 0.206787
vn -0.440249 -0.873739 0.206787
vn -0.440239 -0.873739 -0.206810
vn -0.440239 -0.873739 -0.206810
vn -0.440239 -0.873739 -0.206810
vn -0.440239 -0.873739 -0.206810
vn -0.206883 -0.873814 -0.440054
vn -0.206883 -0.873814 -0.440054
vn -0.206883 -0.873814 -0.440054
vn -0.206883 -0.873814 -0.440054
vn -1.000000 0.000000 0.000000
vn -1.000000 0.000000 0.000000
vn -1.000000 0.000000 0.000000
vn -1.000000 0.000000 0.000000
vn -0.707175 0.000000 0.707038
vn -0.707175 0.000000 0.707038
vn -0.707175 0.000000 0.707038
vn -0.707175 0.000000 0.707038
vn 0.000000 0.000000 1.000000
vn 0.000000 0.000000 1.000000
vn 0.000000 0.000000 1.000000
vn 0.000000 0.000000 1.000000
vn 0.707221 -0.000011 0.706992
vn 0.707221 -0.000011 0.706992
vn 0.707221 -0.000011 0.706992
vn 0.707221 -0.000011 0.706992
vn 1.000000 -0.000031 0.000000
vn 1.000000 -0.000031 0.000000
vn 1.000000 -0.000031 0.000000
vn 1.000000 -0.000031 0.000000
vn 0.707199 0.000000 -0.707015
vn 0.707199 0.000000 -0.707015
vn 0.707199 0.000000 -0.707015
vn 0.707199 0.000000 -0.707015
vn 0.000000 0.000000 -1.000000
vn 0.000000 0.000000 -1.000000
vn 0.000000 0.000000 -1.000000
vn 0.000000 0.000000 -1.000000
vn -0.707199 0.000000 -0.707015
vn -0.707199 0.000000 -0.707015
vn -0.707199 0.000000 -0.707015
vn -0.707199 0.000000 -0.707015
vn -1.000000 0.000000 0.000000
vn -1.000000 0.000000 0.000000
vn -1.000000 0.000000 0.000000
vn -0.707175 0.000000 0.707038
vn -0.707175 0.000000 0.707038
vn -0.707175 0.000000 0.707038
vn -0.707175 0.000000 0.707038
vn 0.000000 0.000000 1.000000
vn 0.000000 0.000000 1.000000
vn 0.000000 0.000000 1.000000
vn 0.000000 0.000000 1.000000
vn 0.707221 0.000021 0.706992
vn 0.707221 0.000021 0.706992
vn 0.707221 0.000021 0.706992
vn 0.707221 0.000021 0.706992
vn 1.000000 0.000060 0.000000
vn 1.000000 0.000060 0.000000
vn 1.000000 0.000060 0.000000
vn 0.707199 0.000000 -0.707015
vn 0.707199 0.000000 -0.707015
vn 0.707199 0.000000 -0.707015
vn 0.707199 0.000000 -0.707015
vn 0.000000 0.000000 -1.000000
vn 0.000000 0.000000 -1.000000
vn 0.000000 0.000000 -1.000000
vn 0.000000 0.000000 -1.000000
vn -0.707199 0.000000 -0.707015
vn -0.707199 0.000000 -0.707015
vn -0.707199 0.000000 -0.707015
vn -0.707199 0.000000 -0.707015
vn 0.985983 0.166844 0.000000
vn 0.985983 0.166844 0.000000
vn 0.985983 0.166844 0.000000
vn 0.985983 0.166844 0.000000
vn 0.692615 0.201658 0.692545
vn 0.692615 0.201658 0.692545
vn 0.692615 0.201658 0.692545
vn 0.692615 0.201658 0.692545
vn -0.000000 0.166798 0.985991
vn -0.000000 0.166798 0.985991
vn -0.000000 0.166798 0.985991
vn -0.000000 0.166798 0.985991
vn -0.692615 0.201658 0.692545
vn -0.692615 0.201658 0.692545
vn -0.692615 0.201658 0.692545
vn -0.692615 0.201658 0.692545
vn -0.985983 0.166844 0.000000
vn -0.985983 0.166844 0.000000
vn -0.985983 0.166844 0.000000
vn -0.985983 0.166844 0.000000
vn -0.692638 0.201658 -0.692522
vn -0.692638 0.201658 -0.692522
vn -0.692638 0.201658 -0.692522
vn -0.692638 0.201658 -0.692522
vn 0.000000 0.166798 -0.985991
vn 0.000000 0.166798 -0.985991
vn 0.000000 0.166798 -0.985991
vn 0.000000 0.166798 -0.985991
vn 0.692638 0.201658 -0.692522
vn 0.692638 0.201658 -0.692522
vn 0.692638 0.201658 -0.692522
vn 0.692638 0.201658 -0.692522
vn -1.000000 0.000000 0.000000
vn -1.000000 0.000000 0.000000
vn -1.000000 0.000000 0.000000
vn -1.000000 0.000000 0.000000
vn 1.000000 -0.000015 0.000106
vn 1.000000 -0.000026 0.000034
vn 1.000000 -0.000026 0.000034
vn 1.000000 -0.000015 0.000106
vn -1.000000 0.000000 0.000000
vn -1.000000 0.000000 0.000000
vn -1.000000 0.000000 0.000000
vn -1.000000 0.000000 0.000000
vn 1.000000 -0.000026 0.000034
vn 1.000000 -0.000026 0.000034
vn 1.000000 -0.000031 0.000000
vn 1.000000 -0.000031 0.000000
vn 1.000000 -0.000000 0.000000
vn 1.000000 -0.000000 0.000000
vn 1.000000 0.000000 0.000000
vn 1.000000 0.000058 0.000007
vn 1.000000 0.000054 0.000021
vn 1.000000 0.000060 0.000000
vn 1.000000 0.000060 0.000000
vn 1.000000 0.000000 0.000212
vn 1.000000 0.000054 0.000021
vn 1.000000 0.000058 0.000007
vn 1.000000 -0.000000 0.000000
vn 1.000000 -0.000000 0.000000
vn 1.000000 0.000000 0.000000
vn -1.000000 0.000000 0.000000
vn -1.000000 0.000000 0.000000
vn -1.000000 0.000000 0.000000
vn -1.000000 0.000000 0.000000
vn -1.000000 0.000000 0.000000
vn -1.000000 0.000000 0.000000
vn -1.000000 0.000000 0.000000
vn -1.000000 0.000000 0.000000
vn -1.000000 0.000000 0.000000
vn -1.000000 0.000000 0.000000
vn -1.000000 0.000000 0.000000
vn -1.000000 0.000000 0.000000
vn -1.000000 0.000000 0.000000
vn -1.000000 0.000000 0.000000
s off
f 13/147/1 18/155/2 9/21/3
f 34/3/4 35/4/5 36/5/6 37/6/7
f 14/187/8 8/182/9 22/165/10
f 16/37/11 19/41/12 1/9/13
f 17/177/14 7/180/15 24/161/16
f 15/143/17 20/168/18 10/22/19
f 70/93/20 71/94/21 52/72/22 53/73/23
f 68/91/24 69/92/25 54/74/26 55/75/27
f 67/90/28 68/91/29 78/103/30 81/106/31
f 57/77/32 58/79/33 73/97/34 74/98/35
f 29/138/36 30/55/37 13/29/38 9/157/39
f 31/136/40 32/57/41 15/36/42 10/170/43
f 14/184/44 26/134/45 27/51/46 12/25/47
f 9/158/48 17/174/49 28/139/50 29/54/51
f 38/12/52 36/5/53 35/4/54 39/14/55
f 10/171/56 13/150/57 30/137/58 31/56/59
f 16/37/60 21/44/61 3/7/62
f 72/96/63 73/97/64 58/79/65 51/71/66
f 11/141/67 14/186/68 22/166/69
f 33/59/70 26/50/71 14/185/72 11/142/73
f 40/27/74 35/4/75 34/3/76 41/28/77
f 39/14/78 35/4/79 40/27/80 42/31/81
f 11/23/82 15/146/83 32/135/84 33/58/85
f 74/99/86 67/90/87 56/76/88 57/78/89
f 17/176/90 24/162/91 12/152/92
f 27/52/93 28/53/94 17/175/95 12/153/96
f 6/192/97 13/149/98 10/172/99
f 18/154/100 13/148/101 6/193/102
f 69/92/103 70/93/104 53/73/105 54/74/106
f 20/167/107 15/144/108 5/189/109
f 71/94/110 76/101/111 52/72/112
f 5/15/113 15/145/114 11/140/115
f 8/19/116 14/30/117 12/151/118
f 7/179/119 17/38/120 9/159/121
f 10/173/122 20/169/123 6/191/124
f 11/24/125 22/45/126 5/188/127
f 12/26/128 24/163/129 8/181/130
f 9/160/131 18/156/132 7/178/133
f 21/44/134 16/37/135 1/9/136
f 2/10/137 16/37/138 25/48/139
f 19/41/140 16/37/141 2/10/142
f 4/8/143 16/37/144 23/46/145
f 25/48/146 16/37/147 4/8/148
f 3/7/149 23/46/150 16/37/151
f 44/32/152 43/33/153 40/27/154 41/28/155
f 34/3/156 45/34/157 44/32/158 41/28/159
f 46/35/160 45/34/161 34/3/162 37/6/163
f 36/5/164 47/60/165 46/35/166 37/6/167
f 48/61/168 47/60/169 36/5/170 38/12/171
f 39/14/172 49/62/173 48/61/174 38/12/175
f 50/63/176 49/62/177 39/14/178 42/31/179
f 42/31/180 40/27/181 43/33/182 50/63/183
f 27/64/184 26/65/185 43/33/186 44/32/187
f 28/66/188 27/64/189 44/32/190 45/34/191
f 29/67/192 28/66/193 45/34/194 46/35/195
f 30/68/196 29/67/197 46/35/198 47/60/199
f 31/69/200 30/68/201 47/60/202 48/61/203
f 32/132/204 31/69/205 48/61/206 49/62/207
f 33/133/208 32/132/209 49/62/210 50/63/211
f 26/65/212 33/133/213 50/63/214 43/33/215
f 75/100/216 76/101/217 79/104/218 80/105/219
f 53/108/220 52/109/221 60/110/222 61/111/223
f 54/112/224 53/108/225 61/111/226 62/113/227
f 55/114/228 54/112/229 62/113/230 63/115/231
f 77/116/232 78/117/233 55/114/234 63/115/235
f 57/120/236 56/121/237 64/122/238 65/123/239
f 65/123/240 66/124/241 58/125/242 57/120/243
f 51/126/244 58/125/245 66/124/246 59/127/247
f 60/82/248 75/100/249 21/43/250
f 61/83/251 60/82/252 21/43/253 1/1/254
f 62/84/255 61/83/256 1/1/257 19/40/258
f 63/85/259 62/84/260 19/40/261 2/2/262
f 2/2/263 77/102/264 63/85/265
f 65/88/266 64/86/267 25/49/268 4/11/269
f 23/46/270 66/89/271 65/87/272 4/8/273
f 59/81/274 66/89/275 23/46/276 3/7/277
f 24/47/278 7/18/279 68/91/280 67/90/281
f 7/18/282 18/39/283 69/92/284 68/91/285
f 18/39/286 6/17/287 70/93/288 69/92/289
f 6/17/290 20/42/291 71/94/292 70/93/293
f 20/42/294 5/190/295 72/95/296 71/94/297
f 5/16/298 22/164/299 73/97/300 72/96/301
f 74/98/302 73/97/303 22/164/304 8/183/305
f 8/20/306 24/47/307 67/90/308 74/99/309
f 52/109/310 76/118/311 75/119/312 60/110/313
f 56/121/314 81/128/315 82/129/316 64/122/317
f 80/130/318 79/131/319 51/126/320 59/127/321
f 82/107/322 81/106/323 78/103/324 77/102/325
f 78/103/326 68/91/327 55/75/328
f 25/49/329 82/107/330 77/102/331 2/2/332
f 64/86/333 82/107/334 25/49/335
f 67/90/336 81/106/337 56/76/338
f 79/104/339 72/95/340 51/70/341
f 21/43/342 75/100/343 80/105/344 3/13/345
f 3/13/346 80/105/347 59/80/348
f 71/94/349 72/95/350 79/104/351 76/101/352
