# This file uses centimeters as units for non-parametric coordinates.

v -0.931671 -4.016235 5.781090
v -0.390350 -3.395035 30.631348
v -0.931671 4.271713 5.781090
v -0.390350 3.650497 30.631348
v 0.975525 4.271713 5.781090
v 0.434204 3.650497 30.631348
v 0.975525 -4.016235 5.781090
v 0.434204 -3.395035 30.631348
v -2.249802 -3.607117 5.781090
v -1.043457 -2.912659 30.631348
v -1.043457 3.168152 30.631348
v -2.249802 3.862595 5.781090
v 2.293671 3.862595 5.781090
v 1.087311 3.168152 30.631348
v 1.087311 -2.912659 30.631348
v 2.293671 -3.607117 5.781090
v 2.257553 -3.598495 7.634468
v 2.257553 3.853989 7.634468
v 0.960358 4.261536 7.634468
v -0.916504 4.261536 7.634468
v -2.213684 3.853989 7.634472
v -2.213684 -3.598495 7.634472
v -0.916504 -4.006058 7.634468
v 0.960358 -4.006058 7.634468
v -1.590347 -3.011551 7.703907
v -1.590347 3.267029 7.703907
v -0.601959 3.774231 7.703896
v 0.645828 3.774231 7.703903
v 1.634201 3.267029 7.703903
v 1.634201 -3.011551 7.703903
v 0.645828 -3.518784 7.703903
v -0.601959 -3.518784 7.703896
v 0.513306 -3.494080 5.781089
v -0.469452 -3.494080 5.781091
v -0.469452 3.749573 5.781091
v 0.513306 3.749573 5.781089
v -1.148682 -3.166550 5.781088
v -1.148682 3.422028 5.781088
v 1.192535 3.422028 5.781088
v 1.192535 -3.166550 5.781088
v 0.448975 1.798920 39.140625
v -0.405121 1.798920 39.140625
v 0.448975 3.155106 39.017639
v -0.405121 3.155106 39.017639
v -0.993835 2.902420 38.655151
v -0.993835 1.933304 38.728149
v 1.037689 1.933304 38.728149
v 1.037689 2.902420 38.655151
v 0.598145 -3.607239 30.867218
v -0.554291 -3.607239 30.867233
v 0.557892 -3.249695 33.335052
v -0.514038 -3.249695 33.335052
v -0.554291 3.862701 30.867203
v 0.598145 3.862701 30.867218
v -0.514038 3.892975 32.970886
v 0.557892 3.892975 32.970917
v -1.360779 3.427353 30.852539
v -1.284302 3.529358 32.948212
v -1.360779 -3.171875 30.852524
v -1.284302 -2.886108 33.312347
v 1.404663 -3.171875 30.852554
v 1.328156 -2.886108 33.312347
v 1.404663 3.427353 30.852524
v 1.328156 3.529358 32.948212
v 2.293655 1.529022 5.996864
v 2.257553 1.526093 7.418694
v 2.257553 -1.270615 7.418694
v 2.293655 -1.273529 5.996864
v 5.015732 1.381363 6.269493
v 4.984085 1.379013 7.146065
v 4.984085 -1.123535 7.146065
v 5.015732 -1.125885 6.269493
v 1.184631 -0.840775 36.485168
v 0.504059 -1.091110 36.616882
v -0.460205 -1.091110 36.616882
v -1.140778 -0.840775 36.485168
v -1.140778 3.178833 35.198486
v -0.460205 3.487625 35.305511
v 0.504059 3.487625 35.305511
v 1.184631 3.178833 35.198486
v -1.569016 -1.078598 9.520206
v -1.569016 1.334091 9.520206
v -1.064941 -1.040604 28.996552
v -1.064941 1.296082 28.996552
v 1.612869 1.334091 9.520203
v 1.612869 -1.078598 9.520203
v 1.108795 1.296082 28.996567
v 1.108795 -1.040604 28.996567
v 1.354034 1.514297 12.742921
v 1.353394 3.735992 12.698725
v 0.537140 4.313629 12.698724
v -0.493286 4.313629 12.698726
v -1.309540 3.735992 12.698719
v -1.310181 1.514297 12.742917
v -1.310181 -1.258804 12.742917
v -1.309540 -3.480499 12.698719
v -0.493286 -4.058182 12.698726
v 0.537140 -4.058182 12.698724
v 1.353394 -3.480499 12.698725
v 1.354034 -1.258804 12.742921
vt 0.103577 0.230804
vt 0.038026 0.228836
vt 0.103577 0.230804
vt 0.038026 0.228836
vt 0.103577 0.230804
vt 0.038026 0.228836
vt 0.103577 0.230804
vt 0.038026 0.228836
vt 0.103577 0.230835
vt 0.038026 0.228836
vt 0.102905 0.228180
vt 0.102905 0.228180
vt 0.103577 0.230835
vt 0.103577 0.230804
vt 0.103577 0.230804
vt 0.038026 0.228836
vt 0.038026 0.228836
vt 0.103577 0.230804
vt 0.103577 0.230804
vt 0.038026 0.228836
vt 0.038026 0.228836
vt 0.103577 0.230804
vt 0.103577 0.230804
vt 0.103577 0.230804
vt 0.103577 0.230804
vt 0.103577 0.230804
vt 0.103577 0.230804
vt 0.103577 0.230804
vt 0.103577 0.230804
vt 0.103577 0.230835
vt 0.103577 0.230835
vt 0.038026 0.228836
vt 0.038026 0.228836
vt 0.038026 0.228836
vt 0.038026 0.228836
vt 0.038026 0.228836
vt 0.038026 0.228836
vt 0.038026 0.228836
vt 0.038026 0.228836
vt 0.038026 0.228836
vt 0.102905 0.228180
vt 0.102905 0.228180
vt 0.102905 0.228180
vt 0.102905 0.228180
vt 0.102905 0.228180
vt 0.102905 0.228180
vt 0.102905 0.228180
vt 0.102905 0.228180
vt 0.102905 0.228180
vt 0.102905 0.228180
vt 0.102905 0.228180
vt 0.102905 0.228180
vt 0.102905 0.228180
vt 0.102905 0.228180
vt 0.102905 0.228180
vt 0.102905 0.228180
vt 0.102905 0.228180
vt 0.102905 0.228180
vt 0.102905 0.228180
vt 0.102905 0.228180
vt 0.102905 0.228180
vt 0.102905 0.228180
vt 0.103577 0.230804
vt 0.103577 0.230804
vt 0.103577 0.230804
vt 0.103577 0.230804
vt 0.103577 0.230804
vt 0.103577 0.230804
vt 0.103577 0.230835
vt 0.103577 0.230835
vt 0.103577 0.230804
vt 0.103577 0.230804
vt 0.103577 0.230804
vt 0.103577 0.230804
vt 0.010986 0.008209
vt 0.010986 0.008209
vt 0.010986 0.008209
vt 0.010986 0.008209
vt 0.010986 0.008209
vt 0.010986 0.008209
vt 0.010986 0.008209
vt 0.010986 0.008209
vt 0.102905 0.228180
vt 0.102905 0.228180
vt 0.102905 0.228180
vt 0.102905 0.228180
vt 0.102905 0.228180
vt 0.102905 0.228180
vt 0.102905 0.228180
vt 0.102905 0.228180
vt 0.103577 0.230804
vt 0.103577 0.230804
vt 0.103577 0.230804
vt 0.103577 0.230804
vt 0.103577 0.230804
vt 0.103577 0.230804
vt 0.103577 0.230804
vt 0.103577 0.230804
vt 0.102905 0.228180
vt 0.102905 0.228180
vt 0.102905 0.228180
vt 0.102905 0.228180
vt 0.102905 0.228180
vt 0.102905 0.228180
vt 0.102905 0.228180
vt 0.102905 0.228180
vt 0.038375 0.252805
vt 0.038026 0.228836
vt 0.038026 0.228836
vt 0.038026 0.228836
vt 0.038375 0.252805
vt 0.038026 0.228836
vt 0.038026 0.228836
vt 0.038026 0.228836
vt 0.038375 0.252805
vt 0.038026 0.228836
vt 0.038375 0.252805
vt 0.038375 0.252805
vt 0.038375 0.252805
vt 0.038026 0.228836
vt 0.038375 0.252805
vt 0.038375 0.252805
vt 0.038026 0.228836
vt 0.038375 0.252805
vt 0.038026 0.228836
vt 0.038026 0.228836
vt 0.038026 0.228836
vt 0.038026 0.228836
vt 0.038375 0.252805
vt 0.038026 0.228836
vt 0.038375 0.252805
vt 0.038026 0.228836
vt 0.038026 0.228836
vt 0.038026 0.228836
vt 0.038026 0.228836
vt 0.038026 0.228836
vt 0.038026 0.228836
vt 0.038375 0.252805
vt 0.038026 0.228836
vn -0.110707 0.000000 0.993853
vn -0.110707 0.000000 0.993853
vn -0.110707 0.000000 0.993853
vn -0.110707 0.000000 0.993853
vn -0.000002 0.141056 0.990002
vn -0.000002 0.141056 0.990002
vn -0.000002 0.141056 0.990002
vn -0.000002 0.141056 0.990002
vn 0.110705 0.000000 0.993853
vn 0.110705 0.000000 0.993853
vn 0.110705 0.000000 0.993853
vn 0.110705 0.000000 0.993853
vn -0.000002 -0.141064 0.990000
vn -0.000002 -0.141064 0.990000
vn -0.000002 -0.141064 0.990000
vn -0.000002 -0.141064 0.990000
vn 0.000000 0.090314 0.995913
vn 0.000000 0.090314 0.995913
vn 0.000000 0.090314 0.995913
vn 0.000000 0.090314 0.995913
vn -0.000002 0.000000 -1.000000
vn -0.000002 0.000000 -1.000000
vn -0.000002 0.000000 -1.000000
vn -0.000002 0.000000 -1.000000
vn -0.038134 -0.095292 0.994719
vn -0.038134 -0.095292 0.994719
vn -0.038134 -0.095292 0.994719
vn -0.038134 -0.095292 0.994719
vn -0.553334 0.069956 0.830017
vn -0.553334 0.069956 0.830017
vn -0.553334 0.069956 0.830017
vn -0.553334 0.069956 0.830017
vn -0.038131 0.095290 0.994719
vn -0.038131 0.095290 0.994719
vn -0.038131 0.095290 0.994719
vn -0.038131 0.095290 0.994719
vn 0.000005 0.000000 -1.000000
vn 0.000005 0.000000 -1.000000
vn 0.000005 0.000000 -1.000000
vn 0.000005 0.000000 -1.000000
vn 0.038138 0.095291 0.994719
vn 0.038138 0.095291 0.994719
vn 0.038138 0.095291 0.994719
vn 0.038138 0.095291 0.994719
vn 0.553333 0.069956 0.830017
vn 0.553333 0.069956 0.830017
vn 0.553333 0.069956 0.830017
vn 0.553333 0.069956 0.830017
vn 0.038141 -0.095293 0.994718
vn 0.038141 -0.095293 0.994718
vn 0.038141 -0.095293 0.994718
vn 0.038141 -0.095293 0.994718
vn -0.000001 0.000000 -1.000000
vn -0.000001 0.000000 -1.000000
vn -0.000001 0.000000 -1.000000
vn -0.000001 0.000000 -1.000000
vn 0.999349 0.000000 0.036079
vn 0.999349 0.000000 0.036079
vn 0.999349 0.000000 0.036079
vn 0.999349 0.000000 0.036079
vn 0.298054 0.954507 0.008961
vn 0.298054 0.954507 0.008961
vn 0.298054 0.954507 0.008961
vn 0.298054 0.954507 0.008961
vn 0.000000 0.999985 0.005491
vn 0.000000 0.999985 0.005491
vn 0.000000 0.999985 0.005491
vn 0.000000 0.999985 0.005491
vn -0.298057 0.954506 0.008961
vn -0.298057 0.954506 0.008961
vn -0.298057 0.954506 0.008961
vn -0.298057 0.954506 0.008961
vn -0.999810 0.000000 0.019484
vn -0.999810 0.000000 0.019484
vn -0.999810 0.000000 0.019484
vn -0.999810 0.000000 0.019484
vn -0.298062 -0.954504 0.008965
vn -0.298062 -0.954504 0.008965
vn -0.298062 -0.954504 0.008965
vn -0.298062 -0.954504 0.008965
vn 0.000000 -0.999985 0.005491
vn 0.000000 -0.999985 0.005491
vn 0.000000 -0.999985 0.005491
vn 0.000000 -0.999985 0.005491
vn 0.298059 -0.954505 0.008965
vn 0.298059 -0.954505 0.008965
vn 0.298059 -0.954505 0.008965
vn 0.298059 -0.954505 0.008965
vn -0.999679 0.002106 0.025269
vn -0.999679 -0.002106 0.025269
vn -0.999890 0.000199 0.014818
vn -0.999890 -0.000199 0.014818
vn -0.584712 0.810535 0.033835
vn -0.568830 0.822393 0.010097
vn -0.567574 0.823281 0.008254
vn -0.584712 0.810535 0.033835
vn 0.000000 1.000000 -0.000452
vn 0.000000 1.000000 -0.000452
vn 0.000000 0.999317 0.036954
vn 0.000000 0.999317 0.036954
vn 0.567575 0.823281 0.008255
vn 0.568830 0.822393 0.010098
vn 0.584712 0.810535 0.033835
vn 0.584712 0.810535 0.033835
vn 0.999678 -0.002106 0.025269
vn 0.999679 0.002106 0.025269
vn 0.999890 -0.000199 0.014818
vn 0.999890 0.000199 0.014818
vn 0.584740 -0.810515 0.033835
vn 0.568858 -0.822374 0.010099
vn 0.567602 -0.823262 0.008256
vn 0.584740 -0.810515 0.033835
vn 0.000000 -1.000000 -0.000451
vn 0.000000 -1.000000 -0.000451
vn 0.000000 -0.999317 0.036955
vn 0.000000 -0.999317 0.036955
vn -0.567601 -0.823262 0.008255
vn -0.568857 -0.822374 0.010099
vn -0.584740 -0.810515 0.033835
vn -0.584740 -0.810515 0.033835
vn 0.000001 -0.989667 0.143385
vn 0.000001 -0.989667 0.143385
vn 0.000001 -0.989667 0.143385
vn 0.000001 -0.989667 0.143385
vn 0.000000 0.999896 -0.014389
vn 0.000000 0.999896 -0.014389
vn 0.000000 0.999897 -0.014389
vn 0.000000 0.999896 -0.014389
vn -0.451652 0.892059 -0.015545
vn -0.451652 0.892059 -0.015545
vn -0.451652 0.892059 -0.015545
vn -0.451652 0.892059 -0.015545
vn -0.999439 0.000937 0.033477
vn -0.999439 0.000937 0.033477
vn -0.999439 0.000937 0.033477
vn -0.999439 0.000937 0.033477
vn -0.450766 -0.883698 0.126046
vn -0.450766 -0.883698 0.126046
vn -0.450766 -0.883698 0.126046
vn -0.450766 -0.883698 0.126046
vn 0.450757 -0.883702 0.126050
vn 0.450757 -0.883702 0.126050
vn 0.450757 -0.883702 0.126050
vn 0.450757 -0.883702 0.126050
vn 0.999439 0.000937 0.033491
vn 0.999439 0.000937 0.033491
vn 0.999439 0.000937 0.033491
vn 0.999439 0.000937 0.033491
vn 0.451645 0.892062 -0.015542
vn 0.451645 0.892062 -0.015542
vn 0.451645 0.892062 -0.015542
vn 0.451645 0.892062 -0.015542
vn 0.000000 -0.835477 0.549525
vn 0.000000 -0.835477 0.549525
vn 0.000000 -0.835477 0.549525
vn 0.000000 -0.835477 0.549525
vn -0.000003 0.985259 0.171067
vn -0.000003 0.985259 0.171067
vn -0.000003 0.985259 0.171067
vn -0.000003 0.985259 0.171067
vn -0.426838 0.889155 0.164961
vn -0.426838 0.889155 0.164961
vn -0.426838 0.889155 0.164961
vn -0.426838 0.889156 0.164961
vn -0.998699 0.007969 0.050371
vn -0.998699 0.007969 0.050371
vn -0.998699 0.007969 0.050371
vn -0.998699 0.007969 0.050371
vn -0.380262 -0.769638 0.512892
vn -0.380262 -0.769638 0.512892
vn -0.380262 -0.769638 0.512893
vn -0.380262 -0.769638 0.512892
vn 0.380262 -0.769638 0.512893
vn 0.380262 -0.769638 0.512892
vn 0.380262 -0.769638 0.512893
vn 0.380262 -0.769638 0.512893
vn 0.998699 0.007969 0.050371
vn 0.998699 0.007969 0.050371
vn 0.998699 0.007969 0.050371
vn 0.998699 0.007969 0.050371
vn 0.426840 0.889154 0.164962
vn 0.426840 0.889154 0.164962
vn 0.426840 0.889154 0.164962
vn 0.426840 0.889154 0.164962
vn -0.000001 0.000000 -1.000000
vn -0.000001 0.000000 -1.000000
vn -0.000001 0.000000 -1.000000
vn -0.000001 0.000000 -1.000000
vn -0.000001 0.000000 -1.000000
vn -0.000001 0.000000 -1.000000
vn -0.000001 0.000000 -1.000000
vn -0.000001 0.000000 -1.000000
vn 0.000001 -0.000002 -1.000000
vn 0.000001 -0.000002 -1.000000
vn 0.000001 -0.000002 -1.000000
vn 0.000001 -0.000002 -1.000000
vn -0.000002 0.000000 -1.000000
vn -0.000002 0.000000 -1.000000
vn -0.000002 0.000000 -1.000000
vn -0.000002 0.000000 -1.000000
vn 0.000001 0.000002 -1.000000
vn 0.000001 0.000002 -1.000000
vn 0.000001 0.000002 -1.000000
vn 0.000001 0.000002 -1.000000
vn 0.000000 0.000002 -1.000000
vn 0.000000 0.000002 -1.000000
vn 0.000000 0.000002 -1.000000
vn 0.000000 0.000002 -1.000000
vn 0.000002 0.000000 -1.000000
vn 0.000002 0.000000 -1.000000
vn 0.000002 0.000000 -1.000000
vn 0.000002 0.000000 -1.000000
vn 0.000000 -0.000002 -1.000000
vn 0.000000 -0.000002 -1.000000
vn 0.000000 -0.000002 -1.000000
vn 0.000000 -0.000002 -1.000000
vn -0.000005 -0.743429 -0.668814
vn -0.000005 -0.743430 -0.668814
vn -0.000005 -0.743429 -0.668814
vn -0.000005 -0.743430 -0.668814
vn 0.000006 0.743408 -0.668838
vn 0.000006 0.743408 -0.668838
vn 0.000006 0.743408 -0.668838
vn 0.000006 0.743408 -0.668838
vn -0.299203 0.488969 -0.819382
vn -0.299203 0.488969 -0.819382
vn -0.299202 0.488969 -0.819382
vn -0.299202 0.488969 -0.819382
vn -0.571827 0.000001 -0.820374
vn -0.571827 0.000001 -0.820374
vn -0.571827 0.000001 -0.820374
vn -0.571827 0.000001 -0.820374
vn -0.299192 -0.488980 -0.819379
vn -0.299192 -0.488980 -0.819379
vn -0.299192 -0.488980 -0.819379
vn -0.299192 -0.488980 -0.819379
vn 0.299207 -0.488972 -0.819378
vn 0.299207 -0.488972 -0.819378
vn 0.299207 -0.488972 -0.819378
vn 0.299207 -0.488972 -0.819378
vn 0.571803 -0.000002 -0.820391
vn 0.571803 -0.000002 -0.820391
vn 0.571803 -0.000002 -0.820391
vn 0.571803 -0.000002 -0.820391
vn 0.299182 0.488974 -0.819387
vn 0.299182 0.488974 -0.819387
vn 0.299182 0.488974 -0.819387
vn 0.299182 0.488974 -0.819387
vn 0.999757 -0.000003 0.022045
vn 0.999757 -0.000003 0.022045
vn 0.999757 -0.000003 0.022045
vn 0.999757 -0.000003 0.022045
vn 1.000000 0.000000 0.000000
vn 1.000000 0.000000 0.000000
vn 1.000000 0.000000 0.000000
vn 1.000000 0.000000 0.000000
vn 0.999757 0.000003 0.022045
vn 0.999757 0.000003 0.022045
vn 0.999757 0.000003 0.022045
vn 0.999757 0.000003 0.022045
vn 1.000000 0.000000 0.000071
vn 1.000000 0.000000 0.000071
vn 1.000000 0.000000 0.000071
vn 1.000000 0.000000 0.000071
vn 0.054015 0.998533 0.003886
vn 0.054015 0.998533 0.003886
vn 0.054015 0.998533 0.003886
vn 0.054015 0.998533 0.003886
vn 0.099495 0.000000 0.995038
vn 0.099495 0.000000 0.995038
vn 0.099495 0.000000 0.995038
vn 0.099495 0.000000 0.995038
vn 0.054012 -0.998533 0.003879
vn 0.054012 -0.998533 0.003879
vn 0.054012 -0.998533 0.003879
vn 0.054012 -0.998533 0.003879
vn 0.099656 0.000000 -0.995022
vn 0.099656 0.000000 -0.995022
vn 0.099656 0.000000 -0.995022
vn 0.099656 0.000000 -0.995022
vn 0.463982 -0.560644 0.685856
vn 0.463982 -0.560644 0.685856
vn 0.463982 -0.560644 0.685856
vn 0.463982 -0.560644 0.685856
vn 0.000000 -0.657761 0.753226
vn 0.000000 -0.657761 0.753226
vn 0.000000 -0.657761 0.753226
vn 0.000000 -0.657761 0.753226
vn -0.463982 -0.560644 0.685856
vn -0.463982 -0.560644 0.685856
vn -0.463982 -0.560644 0.685856
vn -0.463982 -0.560644 0.685856
vn -0.998862 0.012540 0.046008
vn -0.998862 0.012540 0.046008
vn -0.998862 0.012540 0.046008
vn -0.998862 0.012540 0.046008
vn -0.430136 0.898422 0.088436
vn -0.430136 0.898422 0.088436
vn -0.430136 0.898422 0.088436
vn -0.430136 0.898422 0.088436
vn 0.000000 0.996012 0.089219
vn 0.000000 0.996012 0.089219
vn 0.000000 0.996012 0.089219
vn 0.000000 0.996012 0.089219
vn 0.430136 0.898422 0.088436
vn 0.430136 0.898422 0.088436
vn 0.430136 0.898422 0.088436
vn 0.430136 0.898422 0.088436
vn 0.998862 0.012540 0.046008
vn 0.998862 0.012540 0.046008
vn 0.998862 0.012540 0.046008
vn 0.998862 0.012540 0.046008
vn -0.999041 0.013548 0.041630
vn -0.999041 -0.013548 0.041630
vn -0.998742 -0.008998 0.049325
vn -0.998742 0.008998 0.049325
vn -0.999679 -0.002106 0.025269
vn -0.999688 -0.004344 0.024608
vn -0.999892 0.000348 0.014699
vn -0.999890 0.000199 0.014818
vn -0.999892 0.000348 0.014699
vn -0.999892 -0.000348 0.014699
vn -0.999890 -0.000199 0.014818
vn -0.999890 0.000199 0.014818
vn -0.999892 -0.000348 0.014699
vn -0.999688 0.004344 0.024608
vn -0.999679 0.002106 0.025269
vn -0.999890 -0.000199 0.014818
vn 0.999041 -0.013548 0.041630
vn 0.999041 0.013548 0.041629
vn 0.998742 0.008998 0.049325
vn 0.998742 -0.008998 0.049325
vn 0.999679 0.002106 0.025269
vn 0.999688 0.004344 0.024608
vn 0.999892 -0.000348 0.014699
vn 0.999890 -0.000199 0.014818
vn 0.999892 -0.000348 0.014699
vn 0.999892 0.000348 0.014699
vn 0.999890 0.000199 0.014818
vn 0.999890 -0.000199 0.014818
vn 0.999892 0.000348 0.014699
vn 0.999688 -0.004344 0.024608
vn 0.999678 -0.002106 0.025269
vn 0.999890 0.000199 0.014818
vn 0.999041 0.013548 0.041629
vn 0.999688 0.004344 0.024608
vn 0.999679 0.002106 0.025269
vn 0.998742 0.008998 0.049325
vn 0.514083 0.855176 -0.066278
vn 0.514083 0.855176 -0.066278
vn 0.568830 0.822393 0.010098
vn 0.567575 0.823281 0.008255
vn 0.000000 0.994219 -0.107367
vn 0.000000 0.994219 -0.107367
vn 0.000000 1.000000 -0.000452
vn 0.000000 1.000000 -0.000452
vn -0.567574 0.823281 0.008254
vn -0.568830 0.822393 0.010097
vn -0.514080 0.855178 -0.066279
vn -0.514080 0.855178 -0.066279
vn -0.999679 0.002106 0.025269
vn -0.999688 0.004344 0.024608
vn -0.999041 0.013548 0.041630
vn -0.998742 0.008998 0.049325
vn -0.998742 0.008998 0.049325
vn -0.998742 -0.008998 0.049325
vn -0.999679 -0.002106 0.025269
vn -0.999679 0.002106 0.025269
vn -0.999041 -0.013548 0.041630
vn -0.999688 -0.004344 0.024608
vn -0.999679 -0.002106 0.025269
vn -0.998742 -0.008998 0.049325
vn -0.514107 -0.855162 -0.066275
vn -0.514107 -0.855162 -0.066275
vn -0.568857 -0.822374 0.010099
vn -0.567601 -0.823262 0.008255
vn 0.000000 -0.994219 -0.107367
vn 0.000000 -0.994219 -0.107367
vn 0.000000 -1.000000 -0.000451
vn 0.000000 -1.000000 -0.000451
vn 0.567602 -0.823262 0.008256
vn 0.568858 -0.822374 0.010099
vn 0.514110 -0.855160 -0.066274
vn 0.514110 -0.855160 -0.066274
vn 0.999678 -0.002106 0.025269
vn 0.999688 -0.004344 0.024608
vn 0.999041 -0.013548 0.041630
vn 0.998742 -0.008998 0.049325
vn 0.998742 -0.008998 0.049325
vn 0.998742 0.008998 0.049325
vn 0.999679 0.002106 0.025269
vn 0.999678 -0.002106 0.025269
s off
f 21/1/1 22/3/2 25/5/3 26/7/4
f 19/9/5 20/13/6 27/14/7 28/15/8
f 17/18/9 18/19/10 29/22/11 30/23/12
f 23/24/13 24/25/14 31/26/15 32/27/16
f 42/11/17 41/12/18 43/41/19 44/42/20
f 33/75/21 34/76/22 35/77/23 36/78/24
f 22/3/25 23/24/26 32/27/27 25/5/28
f 42/11/29 44/42/30 45/43/31 46/44/32
f 26/7/33 27/14/34 20/13/35 21/1/36
f 35/77/37 34/76/38 37/79/39 38/80/40
f 18/19/41 19/9/42 28/15/43 29/22/44
f 43/41/45 41/12/46 47/45/47 48/46/48
f 30/23/49 31/26/50 24/25/51 17/18/52
f 33/75/53 36/78/54 39/81/55 40/82/56
f 69/95/57 70/96/58 71/97/59 72/98/60
f 5/31/61 19/9/62 18/19/63 13/65/64
f 3/30/65 20/13/66 19/9/67 5/31/68
f 21/1/69 20/13/70 3/30/71 12/64/72
f 9/63/73 22/3/74 21/1/75 12/64/76
f 1/29/77 23/24/78 22/3/79 9/63/80
f 7/28/81 24/25/82 23/24/83 1/29/84
f 17/18/85 24/25/86 7/28/87 16/66/88
f 94/129/89 95/131/90 83/121/91 84/119/92
f 4/4/93 92/127/94 93/128/95 11/17/96
f 91/126/97 92/127/98 4/4/99 6/6/100
f 90/125/101 91/126/102 6/6/103 14/20/104
f 100/138/105 89/124/106 87/117/107 88/115/108
f 8/8/109 98/136/110 99/137/111 15/21/112
f 97/134/113 98/136/114 8/8/115 2/10/116
f 96/133/117 97/135/118 2/2/119 10/16/120
f 50/83/121 49/84/122 51/49/123 52/50/124
f 54/85/125 53/86/126 55/53/127 56/54/128
f 53/86/129 57/87/130 58/56/131 55/53/132
f 57/87/133 59/88/134 60/58/135 58/56/136
f 59/88/137 50/83/138 52/50/139 60/58/140
f 49/84/141 61/89/142 62/60/143 51/49/144
f 61/89/145 63/90/146 64/62/147 62/60/148
f 63/90/149 54/85/150 56/54/151 64/62/152
f 52/50/153 51/49/154 74/100/155 75/101/156
f 56/54/157 55/53/158 78/104/159 79/105/160
f 55/53/161 58/56/162 77/103/163 78/104/164
f 58/56/165 60/58/166 76/102/167 77/103/168
f 60/58/169 52/50/170 75/101/171 76/102/172
f 51/49/173 62/60/174 73/99/175 74/100/176
f 62/60/177 64/62/178 80/106/179 73/99/180
f 64/62/181 56/54/182 79/105/183 80/106/184
f 7/28/185 1/29/186 34/68/187 33/67/188
f 3/30/189 5/31/190 36/70/191 35/69/192
f 1/29/193 9/63/194 37/71/195 34/68/196
f 9/63/197 12/64/198 38/72/199 37/71/200
f 12/64/201 3/30/202 35/69/203 38/72/204
f 5/31/205 13/65/206 39/73/207 36/70/208
f 13/65/209 16/66/210 40/74/211 39/73/212
f 16/66/213 7/28/214 33/67/215 40/74/216
f 2/47/217 8/48/218 49/84/219 50/83/220
f 6/51/221 4/52/222 53/86/223 54/85/224
f 4/52/225 11/55/226 57/87/227 53/86/228
f 11/55/229 10/57/230 59/88/231 57/87/232
f 10/57/233 2/47/234 50/83/235 59/88/236
f 8/48/237 15/59/238 61/89/239 49/84/240
f 15/59/241 14/61/242 63/90/243 61/89/244
f 14/61/245 6/51/246 54/85/247 63/90/248
f 13/65/249 18/19/250 66/92/251 65/91/252
f 18/19/253 17/18/254 67/93/255 66/92/256
f 17/18/257 16/66/258 68/94/259 67/93/260
f 16/66/261 13/65/262 65/91/263 68/94/264
f 65/91/265 66/92/266 70/96/267 69/95/268
f 66/92/269 67/93/270 71/97/271 70/96/272
f 67/93/273 68/94/274 72/98/275 71/97/276
f 68/94/277 65/91/278 69/95/279 72/98/280
f 74/100/281 73/99/282 47/45/283 41/12/284
f 75/101/285 74/100/286 41/12/287 42/11/288
f 76/102/289 75/101/290 42/11/291 46/44/292
f 77/103/293 76/102/294 46/44/295 45/43/296
f 78/104/297 77/103/298 45/43/299 44/42/300
f 79/105/301 78/104/302 44/42/303 43/41/304
f 80/106/305 79/105/306 43/41/307 48/46/308
f 73/99/309 80/106/310 48/46/311 47/45/312
f 26/33/313 25/32/314 81/108/315 82/120/316
f 95/132/317 96/133/318 10/16/319 83/109/320
f 10/16/321 11/17/322 84/110/323 83/109/324
f 11/17/325 93/128/326 94/130/327 84/110/328
f 30/37/329 29/36/330 85/112/331 86/116/332
f 89/123/333 90/125/334 14/20/335 87/113/336
f 14/20/337 15/21/338 88/114/339 87/113/340
f 15/21/341 99/137/342 100/139/343 88/114/344
f 29/36/345 90/125/346 89/123/347 85/112/348
f 29/36/349 28/35/350 91/126/351 90/125/352
f 28/35/353 27/34/354 92/127/355 91/126/356
f 93/128/357 92/127/358 27/34/359 26/33/360
f 94/130/361 93/128/362 26/33/363 82/120/364
f 82/107/365 81/122/366 95/131/367 94/129/368
f 25/32/369 96/133/370 95/132/371 81/108/372
f 25/32/373 32/39/374 97/135/375 96/133/376
f 32/40/377 31/38/378 98/136/379 97/134/380
f 99/137/381 98/136/382 31/38/383 30/37/384
f 100/139/385 99/137/386 30/37/387 86/116/388
f 86/111/389 85/118/390 89/124/391 100/138/392
