# This file uses centimeters as units for non-parametric coordinates.

v -8.787010 0.000000 8.786999
v 8.787003 0.000000 8.786999
v -8.787010 2.234580 8.786999
v 8.787003 2.234580 8.786999
v -8.787010 2.234580 -8.787003
v 8.787003 2.234580 -8.787003
v -8.787010 0.000000 -8.787003
v 8.787003 0.000000 -8.787003
v -8.787010 2.500000 8.786999
v 8.787003 2.500000 8.786999
v 8.787003 2.500000 -8.787003
v -8.787010 2.500000 -8.787003
v -8.787010 0.307910 -8.787003
v -8.787010 0.307910 8.786999
v 8.787003 0.307910 8.786999
v 8.787003 0.307910 -8.787003
v -8.672981 0.419194 8.672977
v 8.672974 0.419194 8.672977
v 8.672974 2.123296 8.672977
v -8.672981 2.123296 8.672977
v -8.672981 2.123296 -8.672970
v 8.672974 2.123296 -8.672970
v 8.672974 0.419194 -8.672970
v -8.672981 0.419194 -8.672970
v 0.000000 2.500000 8.786999
vt 0.529383 0.108843
vt 0.529383 0.108843
vt 0.529383 0.108843
vt 0.529383 0.108843
vt 0.651434 0.110588
vt 0.651434 0.110588
vt 0.651434 0.110588
vt 0.651434 0.110588
vt 0.651434 0.110588
vt 0.529383 0.108843
vt 0.529383 0.108843
vt 0.529383 0.108843
vt 0.529383 0.108843
vt 0.651434 0.110588
vt 0.651434 0.110588
vt 0.651434 0.110588
vt 0.651434 0.110588
vt 0.529383 0.108843
vt 0.529383 0.108843
vt 0.529383 0.108843
vt 0.529383 0.108843
vt 0.529383 0.108843
vt 0.529383 0.108843
vt 0.529383 0.108843
vt 0.529383 0.108843
vt 0.651434 0.110588
vt 0.651434 0.110588
vt 0.651434 0.110588
vt 0.651434 0.110588
vt 0.651434 0.110588
vt 0.651434 0.110588
vt 0.651434 0.110588
vt 0.651434 0.110588
vt 0.651434 0.110588
vt 0.651434 0.110588
vt 0.651434 0.110588
vt 0.651434 0.110588
vt 0.651434 0.110588
vt 0.651434 0.110588
vt 0.651434 0.110588
vt 0.651434 0.110588
vn 0.000000 0.000000 1.000000
vn 0.000000 0.000000 1.000000
vn 0.000000 0.000000 1.000000
vn 0.000000 0.000000 1.000000
vn 0.000000 1.000000 0.000000
vn 0.000000 1.000000 0.000000
vn 0.000000 1.000000 0.000000
vn 0.000000 1.000000 0.000000
vn 0.000000 1.000000 0.000000
vn 0.000000 0.000000 -1.000000
vn 0.000000 0.000000 -1.000000
vn 0.000000 0.000000 -1.000000
vn 0.000000 0.000000 -1.000000
vn 0.000000 -1.000000 0.000000
vn 0.000000 -1.000000 0.000000
vn 0.000000 -1.000000 0.000000
vn 0.000000 -1.000000 0.000000
vn 1.000000 0.000000 0.000000
vn 1.000000 0.000000 0.000000
vn 1.000000 0.000000 0.000000
vn 1.000000 0.000000 0.000000
vn -1.000000 0.000000 0.000000
vn -1.000000 0.000000 0.000000
vn -1.000000 0.000000 0.000000
vn -1.000000 0.000000 0.000000
vn 0.000000 0.000000 1.000000
vn 0.000000 0.000000 1.000000
vn 0.000000 0.000000 1.000000
vn 0.000000 0.000000 1.000000
vn 0.000000 0.000000 1.000000
vn 1.000000 0.000000 0.000000
vn 1.000000 0.000000 0.000000
vn 1.000000 0.000000 0.000000
vn 1.000000 0.000000 0.000000
vn 0.000000 0.000000 -1.000000
vn 0.000000 0.000000 -1.000000
vn 0.000000 0.000000 -1.000000
vn 0.000000 0.000000 -1.000000
vn -1.000000 0.000000 0.000000
vn -1.000000 0.000000 0.000000
vn -1.000000 0.000000 0.000000
vn -1.000000 0.000000 0.000000
vn -1.000000 0.000000 0.000000
vn -1.000000 0.000000 0.000000
vn -1.000000 0.000000 0.000000
vn -1.000000 0.000000 0.000000
vn 0.000000 0.000000 1.000000
vn 0.000000 0.000000 1.000000
vn 0.000000 0.000000 1.000000
vn 0.000000 0.000000 1.000000
vn 1.000000 0.000000 0.000000
vn 1.000000 0.000000 0.000000
vn 1.000000 0.000000 0.000000
vn 1.000000 0.000000 0.000000
vn 0.000000 0.000000 -1.000000
vn 0.000000 0.000000 -1.000000
vn 0.000000 0.000000 -1.000000
vn 0.000000 0.000000 -1.000000
vn -0.401623 0.823047 0.401614
vn 0.401636 0.823039 0.401615
vn 0.401621 0.823040 0.401630
vn -0.401609 0.823047 0.401628
vn 0.401637 -0.823039 0.401615
vn -0.401630 -0.823043 0.401614
vn -0.401615 -0.823043 0.401629
vn 0.401623 -0.823039 0.401630
vn -0.401601 -0.823056 -0.401616
vn 0.401609 -0.823052 -0.401617
vn 0.401616 -0.823052 -0.401609
vn -0.401608 -0.823056 -0.401608
vn 0.401607 0.823053 -0.401617
vn -0.401594 0.823060 -0.401615
vn -0.401601 0.823060 -0.401608
vn 0.401614 0.823053 -0.401609
vn 0.401636 0.823039 0.401615
vn 0.401607 0.823053 -0.401617
vn 0.401614 0.823053 -0.401609
vn 0.401621 0.823040 0.401630
vn 0.401609 -0.823052 -0.401617
vn 0.401637 -0.823039 0.401615
vn 0.401623 -0.823039 0.401630
vn 0.401616 -0.823052 -0.401609
vn -0.401594 0.823060 -0.401615
vn -0.401623 0.823047 0.401614
vn -0.401609 0.823047 0.401628
vn -0.401601 0.823060 -0.401608
vn -0.401630 -0.823043 0.401614
vn -0.401601 -0.823056 -0.401616
vn -0.401608 -0.823056 -0.401608
vn -0.401615 -0.823043 0.401629
s off
f 17/1/1 18/2/2 19/3/3 20/4/4
f 9/5/5 25/6/6 10/7/7 11/8/8 12/9/9
f 21/10/10 22/11/11 23/12/12 24/13/13
f 7/14/14 8/15/15 2/16/16 1/17/17
f 18/18/18 23/19/19 22/20/20 19/21/21
f 24/22/22 17/23/23 20/24/24 21/25/25
f 3/26/26 4/27/27 10/7/28 25/6/29 9/5/30
f 4/27/31 6/28/32 11/8/33 10/7/34
f 6/28/35 5/29/36 12/9/37 11/8/38
f 5/29/39 3/26/40 9/5/41 12/9/42
f 7/14/43 1/17/44 14/30/45 13/31/46
f 1/17/47 2/16/48 15/32/49 14/30/50
f 2/16/51 8/15/52 16/33/53 15/32/54
f 13/31/55 16/33/56 8/15/57 7/14/58
f 14/30/59 15/32/60 18/34/61 17/35/62
f 4/27/63 3/26/64 20/36/65 19/37/66
f 5/29/67 6/28/68 22/38/69 21/39/70
f 16/33/71 13/31/72 24/40/73 23/41/74
f 15/32/75 16/33/76 23/41/77 18/34/78
f 6/28/79 4/27/80 19/37/81 22/38/82
f 13/31/83 14/30/84 17/35/85 24/40/86
f 3/26/87 5/29/88 21/39/89 20/36/90
