# This file uses centimeters as units for non-parametric coordinates.

v -1.000001 0.000000 1.250008
v 0.999999 0.000000 1.250008
v -1.000001 1.143507 -1.250000
v 0.999999 1.143507 -1.250000
v -1.000001 0.000000 -1.250000
v 0.999999 0.000000 -1.250000
v -1.000001 0.571754 0.000000
v 0.999999 0.571754 0.000000
v -1.000001 0.285877 0.625000
v 0.999999 0.285877 0.625000
v -1.000001 0.857630 -0.625000
v 0.999999 0.857630 -0.625000
v -1.000001 1.000569 -0.937500
v 0.999999 1.000569 -0.937500
v -1.000001 0.714692 -0.312500
v 0.999999 0.714692 -0.312500
v -1.000001 0.428815 0.312500
v 0.999999 0.428815 0.312500
v -1.000001 0.142938 0.937500
v 0.999999 0.142938 0.937500
v -1.000001 1.000569 -0.625000
v 0.999999 1.000569 -0.625000
v -1.000001 0.714692 0.000000
v 0.999999 0.714692 0.000000
v -1.000001 0.428815 0.625000
v 0.999999 0.428815 0.625000
v -1.000001 0.142938 1.250008
v 0.999999 0.142938 1.250008
v -1.000001 1.143507 -0.937500
v 0.999999 1.143507 -0.937500
v -1.000001 0.571754 0.312500
v 0.999999 0.571754 0.312500
v -1.000001 0.285877 0.937500
v 0.999999 0.285877 0.937500
v -1.000001 0.857630 -0.312500
v 0.999999 0.857630 -0.312500
v -1.151452 0.000000 1.250008
v -1.117253 0.311406 1.250008
v -1.000001 0.311406 1.250008
v -1.117253 1.243237 -1.250000
v -1.000001 1.243237 -1.250000
v -1.151452 0.000000 -1.250000
v 1.151450 0.000000 1.250008
v 0.999999 0.311406 1.250008
v 1.113616 0.311406 1.250008
v 0.999999 1.243237 -1.250000
v 1.113616 1.243237 -1.250000
v 1.151450 0.000000 -1.250000
v -0.490777 0.000000 -1.250008
v -0.490777 1.143507 -1.250008
v -0.490777 1.174249 -1.029030
v -0.490777 1.000569 -0.960098
v -0.490777 1.000569 -0.727081
v -0.490777 0.857630 -0.653313
v -0.452183 0.847932 -0.435570
v -0.469868 0.709438 -0.349907
v -0.490777 0.714692 -0.074982
v -0.490777 0.571754 0.000000
v -0.438145 0.559686 0.145683
v -0.462796 0.422278 0.249641
v -0.490777 0.496610 0.575172
v -0.490777 0.322603 0.625000
v -0.439656 0.299220 0.823997
v -0.463082 0.150167 0.903000
v -0.490777 0.142938 1.136543
v -0.490777 0.000000 1.215538
v 0.583957 0.000000 -1.250008
v 0.583957 1.143507 -1.250008
v 0.583957 1.143507 -1.065758
v 0.583957 1.000569 -0.979988
v 0.570697 0.981612 -0.723015
v 0.576774 0.847361 -0.651100
v 0.583957 0.857630 -0.366524
v 0.583957 0.714692 -0.312500
v 0.517532 0.780271 -0.076172
v 0.547973 0.604810 -0.000648
v 0.583957 0.571754 0.256065
v 0.583957 0.428815 0.312500
v 0.580760 0.412013 0.489784
v 0.582225 0.276775 0.578743
v 0.583957 0.285877 0.887665
v 0.583957 0.142938 0.937492
v 0.583957 0.142938 1.128479
v 0.583957 0.000000 1.211166
v -1.151452 0.000000 0.609291
v -1.076142 0.349512 0.920494
v -1.000001 0.349512 0.920494
v -1.000001 0.000000 0.609291
v -1.000001 1.264474 -0.859993
v -1.117253 1.264474 -0.859993
v -1.151452 0.000000 -0.772667
v -1.000005 0.000000 -0.772667
v -1.151452 0.000000 -0.054344
v -1.117253 1.010234 -0.500763
v -1.000001 1.010234 -0.500763
v -1.000001 0.000000 -0.054344
v 0.999999 0.377987 0.928146
v 1.073028 0.377987 0.928146
v 1.151450 0.000000 0.913231
v 0.999999 0.000000 0.913231
v 1.151450 0.000000 0.038322
v 1.113616 1.009160 -0.589333
v 0.999999 1.009160 -0.589333
v 0.999999 0.000000 0.038322
v 1.151450 0.000000 -0.854210
v 1.113616 1.176816 -0.799896
v 0.999999 1.176816 -0.799896
v 0.999999 0.000000 -0.854210
vt 0.444106 0.326304
vt 0.444106 0.326304
vt 0.444106 0.326304
vt 0.444106 0.326304
vt 0.444106 0.326304
vt 0.444106 0.326304
vt 0.444106 0.326304
vt 0.444106 0.326304
vt 0.444106 0.326304
vt 0.444106 0.326304
vt 0.444106 0.326304
vt 0.444106 0.326304
vt 0.444106 0.326304
vt 0.444106 0.326304
vt 0.444106 0.326304
vt 0.444106 0.326304
vt 0.444106 0.326304
vt 0.444106 0.326304
vt 0.444106 0.326304
vt 0.444106 0.326304
vt 0.444106 0.326304
vt 0.444106 0.326304
vt 0.444106 0.326304
vt 0.444106 0.326304
vt 0.444106 0.326304
vt 0.444106 0.326304
vt 0.444106 0.326304
vt 0.444106 0.326304
vt 0.444106 0.326304
vt 0.444106 0.326304
vt 0.444106 0.326304
vt 0.444106 0.326304
vt 0.444106 0.326304
vt 0.444106 0.326304
vt 0.444106 0.326304
vt 0.444106 0.326304
vt 0.444106 0.326304
vt 0.444106 0.326304
vt 0.444106 0.326304
vt 0.444106 0.326304
vt 0.444106 0.326304
vt 0.444106 0.326304
vt 0.444106 0.326304
vt 0.444106 0.326304
vt 0.444106 0.326304
vt 0.444106 0.326304
vt 0.444106 0.326304
vt 0.444106 0.326304
vt 0.444106 0.326304
vt 0.444106 0.326304
vt 0.444106 0.326304
vt 0.444106 0.326304
vt 0.444106 0.326304
vt 0.444106 0.326304
vt 0.444106 0.326304
vt 0.444106 0.326304
vt 0.444106 0.326304
vt 0.444106 0.326304
vt 0.444106 0.326304
vt 0.444106 0.326304
vt 0.444106 0.326304
vt 0.444106 0.326304
vt 0.444106 0.326304
vt 0.444106 0.326304
vt 0.444106 0.326304
vt 0.444106 0.326304
vt 0.444106 0.326304
vt 0.444106 0.326304
vt 0.444106 0.326304
vt 0.444106 0.326304
vt 0.444106 0.326304
vt 0.444106 0.326304
vt 0.444106 0.326304
vt 0.444106 0.326304
vt 0.444106 0.326304
vt 0.444106 0.326304
vt 0.444106 0.326304
vt 0.444106 0.326304
vt 0.444106 0.326304
vt 0.444106 0.326304
vt 0.444106 0.326304
vt 0.444106 0.326304
vt 0.444106 0.326304
vt 0.444106 0.326304
vt 0.444106 0.326304
vt 0.444106 0.326304
vt 0.444106 0.326304
vt 0.444106 0.326304
vt 0.444106 0.326304
vt 0.444106 0.326304
vt 0.444106 0.326304
vt 0.444106 0.326304
vt 0.444106 0.326304
vt 0.444106 0.326304
vt 0.444106 0.326304
vt 0.444106 0.326304
vt 0.444106 0.326304
vt 0.444106 0.326304
vt 0.444106 0.326304
vt 0.444106 0.326304
vt 0.444106 0.326304
vt 0.444106 0.326304
vt 0.444106 0.326304
vt 0.444106 0.326304
vt 0.444106 0.326304
vt 0.444106 0.326304
vt 0.444106 0.326304
vt 0.444106 0.326304
vt 0.444106 0.326304
vt 0.444106 0.326304
vt 0.444106 0.326304
vt 0.444106 0.326304
vt 0.444106 0.326304
vt 0.444106 0.326304
vt 0.444106 0.326304
vt 0.444106 0.326304
vt 0.444106 0.326304
vt 0.444106 0.326304
vt 0.444106 0.326304
vt 0.444106 0.326304
vt 0.444106 0.326304
vt 0.444106 0.326304
vt 0.444106 0.326304
vt 0.444106 0.326304
vt 0.444106 0.326304
vt 0.444106 0.326304
vt 0.444106 0.326304
vt 0.444106 0.326304
vt 0.444106 0.326304
vt 0.444106 0.326304
vt 0.444106 0.326304
vt 0.444106 0.326304
vt 0.444106 0.326304
vt 0.444106 0.326304
vt 0.444106 0.326304
vt 0.444106 0.326304
vt 0.444106 0.326304
vt 0.444106 0.326304
vt 0.444106 0.326304
vt 0.444106 0.326304
vt 0.444106 0.326304
vt 0.444106 0.326304
vt 0.444106 0.326304
vt 0.444106 0.326304
vt 0.444106 0.326304
vt 0.444106 0.326304
vt 0.444106 0.326304
vt 0.444106 0.326304
vt 0.444106 0.326304
vt 0.444106 0.326304
vt 0.444106 0.326304
vt 0.444106 0.326304
vt 0.444106 0.326304
vt 0.444106 0.326304
vt 0.444106 0.326304
vt 0.444106 0.326304
vt 0.444106 0.326304
vt 0.444106 0.326304
vt 0.444106 0.326304
vt 0.444106 0.326304
vt 0.444106 0.326304
vt 0.444106 0.326304
vt 0.444106 0.326304
vt 0.444106 0.326304
vt 0.444106 0.326304
vt 0.444106 0.326304
vt 0.444106 0.326304
vt 0.444106 0.326304
vt 0.444106 0.326304
vt 0.444106 0.326304
vt 0.444106 0.326304
vt 0.444106 0.326304
vt 0.444106 0.326304
vt 0.444106 0.326304
vt 0.444106 0.326304
vt 0.444106 0.326304
vt 0.444106 0.326304
vt 0.444106 0.326304
vt 0.444106 0.326304
vt 0.444106 0.326304
vt 0.444106 0.326304
vt 0.444106 0.326304
vt 0.444106 0.326304
vt 0.444106 0.326304
vt 0.444106 0.326304
vt 0.444106 0.326304
vt 0.444106 0.326304
vt 0.444106 0.326304
vt 0.444106 0.326304
vt 0.444106 0.326304
vt 0.444106 0.326304
vt 0.444106 0.326304
vt 0.444106 0.326304
vt 0.444106 0.326304
vt 0.444106 0.326304
vt 0.444106 0.326304
vt 0.444106 0.326304
vt 0.444106 0.326304
vt 0.444106 0.326304
vt 0.444106 0.326304
vt 0.444106 0.326304
vt 0.444106 0.326304
vt 0.444106 0.326304
vt 0.444106 0.326304
vt 0.444106 0.326304
vt 0.444106 0.326304
vt 0.444106 0.326304
vt 0.444106 0.326304
vt 0.444106 0.326304
vt 0.444106 0.326304
vt 0.444106 0.326304
vt 0.444106 0.326304
vt 0.444106 0.326304
vt 0.444106 0.326304
vt 0.444106 0.326304
vt 0.444106 0.326304
vt 0.444106 0.326304
vt 0.444106 0.326304
vt 0.444106 0.326304
vt 0.444106 0.326304
vt 0.444106 0.326304
vt 0.444106 0.326304
vt 0.444106 0.326304
vt 0.444106 0.326304
vt 0.444106 0.326304
vt 0.444106 0.326304
vt 0.444106 0.326304
vt 0.444106 0.326304
vt 0.444106 0.326304
vt 0.444106 0.326304
vt 0.444106 0.326304
vt 0.444106 0.326304
vn 0.000000 1.000000 0.000000
vn 0.000000 1.000000 0.000000
vn 0.000000 1.000000 0.000000
vn 0.000000 1.000000 0.000000
vn 0.000016 0.000000 -1.000000
vn 0.000016 0.000000 -1.000000
vn 0.000016 0.000000 -1.000000
vn 0.000016 0.000000 -1.000000
vn 0.034332 0.997853 0.055778
vn 0.034332 0.997853 0.055778
vn 0.034332 0.997853 0.055778
vn 0.034332 0.997853 0.055778
vn -0.009230 0.999851 -0.014619
vn -0.009230 0.999851 -0.014619
vn -0.009230 0.999851 -0.014619
vn -0.009230 0.999851 -0.014619
vn -0.010604 0.999798 -0.017068
vn -0.010604 0.999798 -0.017068
vn -0.010604 0.999798 -0.017068
vn -0.010604 0.999798 -0.017068
vn -0.027825 0.999081 0.032611
vn -0.027825 0.999081 0.032611
vn -0.027825 0.999081 0.032611
vn -0.027825 0.999081 0.032611
vn 0.081511 0.990747 -0.108519
vn 0.081511 0.990747 -0.108519
vn 0.081511 0.990747 -0.108519
vn 0.081511 0.990747 -0.108519
vn -0.025618 0.999090 0.034106
vn -0.025618 0.999090 0.034106
vn -0.025618 0.999090 0.034106
vn -0.025618 0.999090 0.034106
vn -0.000000 1.000000 0.000000
vn -0.000000 1.000000 0.000000
vn -0.000000 1.000000 0.000000
vn -0.000000 1.000000 0.000000
vn -0.147900 0.245328 0.958092
vn -0.147900 0.245327 0.958092
vn -0.147900 0.245328 0.958092
vn -0.147900 0.245328 0.958092
vn -0.056184 0.225341 0.972659
vn -0.056184 0.225341 0.972659
vn -0.056184 0.225341 0.972659
vn -0.056184 0.225341 0.972659
vn -0.211112 0.296723 0.931337
vn -0.211112 0.296723 0.931337
vn -0.211112 0.296722 0.931337
vn -0.211112 0.296723 0.931337
vn -0.182046 0.273209 0.944572
vn -0.182046 0.273209 0.944572
vn -0.182046 0.273209 0.944572
vn -0.182046 0.273209 0.944572
vn -0.192860 0.281973 0.939838
vn -0.192860 0.281973 0.939838
vn -0.192860 0.281973 0.939838
vn -0.192860 0.281973 0.939838
vn -0.066404 0.193244 0.978901
vn -0.066404 0.193244 0.978901
vn -0.066404 0.193244 0.978901
vn -0.066404 0.193244 0.978901
vn -0.058921 0.171410 0.983436
vn -0.058921 0.171410 0.983436
vn -0.058921 0.171410 0.983436
vn -0.058921 0.171410 0.983436
vn -0.063674 0.185312 0.980615
vn -0.063674 0.185312 0.980615
vn -0.063674 0.185312 0.980615
vn -0.063674 0.185312 0.980615
vn 0.000000 0.000000 1.000000
vn 0.000000 0.000000 1.000000
vn 0.000000 0.000000 1.000000
vn 0.000000 0.000000 1.000000
vn 0.000000 0.816254 0.577693
vn 0.000000 0.816254 0.577693
vn 0.000000 0.816254 0.577693
vn 0.000000 0.816254 0.577693
vn 0.000000 0.000000 -1.000000
vn 0.000000 0.000000 -1.000000
vn 0.000000 0.000000 -1.000000
vn 0.000000 0.000000 -1.000000
vn 0.000000 -1.000000 0.000000
vn 0.000000 -1.000000 0.000000
vn 0.000000 -1.000000 0.000000
vn 0.000000 -1.000000 0.000000
vn 1.000000 -0.000003 -0.000004
vn 1.000000 -0.000003 -0.000004
vn 1.000000 -0.000003 -0.000004
vn 1.000000 -0.000003 -0.000004
vn -0.999466 0.031814 0.007506
vn -0.999466 0.031814 0.007506
vn -0.999466 0.031814 0.007506
vn -0.999466 0.031814 0.007506
vn 0.000000 0.000000 1.000000
vn 0.000000 0.000000 1.000000
vn 0.000000 0.000000 1.000000
vn 0.000000 0.000000 1.000000
vn 0.000000 0.923316 0.384040
vn 0.000000 0.923316 0.384040
vn 0.000000 0.923316 0.384040
vn 0.000000 0.923316 0.384040
vn 0.000000 0.000000 -1.000000
vn 0.000000 0.000000 -1.000000
vn 0.000000 0.000000 -1.000000
vn 0.000000 0.000000 -1.000000
vn 0.000000 -1.000000 0.000000
vn 0.000000 -1.000000 0.000000
vn 0.000000 -1.000000 0.000000
vn 0.000000 -1.000000 0.000000
vn 0.993741 0.102701 0.043954
vn 0.993741 0.102701 0.043954
vn 0.993741 0.102701 0.043954
vn 0.993741 0.102701 0.043954
vn -1.000000 -0.000000 0.000000
vn -1.000000 -0.000000 0.000000
vn -1.000000 -0.000000 0.000000
vn -1.000000 -0.000000 0.000000
vn -0.000013 0.000000 -1.000000
vn -0.000013 0.000000 -1.000000
vn -0.000013 0.000000 -1.000000
vn -0.000013 0.000000 -1.000000
vn -0.035283 0.997722 -0.057494
vn -0.035283 0.997722 -0.057494
vn -0.035283 0.997722 -0.057494
vn -0.035283 0.997722 -0.057494
vn 0.102519 0.211608 0.971963
vn 0.102519 0.211608 0.971963
vn 0.102519 0.211608 0.971963
vn 0.102519 0.211608 0.971963
vn 0.000000 1.000000 0.000000
vn 0.000000 1.000000 0.000000
vn 0.000000 1.000000 0.000000
vn 0.000000 1.000000 0.000000
vn 0.123019 0.247961 0.960927
vn 0.123019 0.247961 0.960927
vn 0.123019 0.247961 0.960927
vn 0.123019 0.247961 0.960927
vn 0.011670 0.999780 0.017437
vn 0.011670 0.999780 0.017437
vn 0.011670 0.999780 0.017437
vn 0.011670 0.999780 0.017437
vn 0.145165 0.279747 0.949036
vn 0.145165 0.279747 0.949036
vn 0.145165 0.279747 0.949036
vn 0.145165 0.279747 0.949036
vn 0.004103 0.999953 -0.008797
vn 0.004103 0.999953 -0.008797
vn 0.004103 0.999953 -0.008797
vn 0.004103 0.999953 -0.008797
vn 0.071032 0.253064 0.964838
vn 0.071032 0.253064 0.964838
vn 0.071032 0.253064 0.964838
vn 0.071032 0.253064 0.964838
vn 0.015092 0.999584 0.024593
vn 0.015092 0.999584 0.024593
vn 0.015092 0.999584 0.024593
vn 0.015092 0.999584 0.024593
vn 0.198699 0.325346 0.924483
vn 0.198699 0.325346 0.924483
vn 0.198699 0.325346 0.924483
vn 0.198699 0.325346 0.924483
vn -0.070741 0.990432 -0.118489
vn -0.070741 0.990432 -0.118489
vn -0.070741 0.990432 -0.118489
vn -0.070741 0.990432 -0.118489
vn 0.032368 0.155223 0.987349
vn 0.032368 0.155223 0.987349
vn 0.032368 0.155223 0.987349
vn 0.032368 0.155223 0.987349
vn -0.041433 0.997901 0.049759
vn -0.041433 0.997902 0.049759
vn -0.041433 0.997902 0.049759
vn -0.041433 0.997901 0.049759
vn 0.124827 0.249786 0.960222
vn 0.124827 0.249786 0.960221
vn 0.124827 0.249786 0.960222
vn 0.124827 0.249786 0.960222
vn -0.005073 0.999903 0.012979
vn -0.005073 0.999903 0.012979
vn -0.005073 0.999903 0.012979
vn -0.005073 0.999903 0.012979
vn 0.138651 0.263771 0.954568
vn 0.138651 0.263771 0.954568
vn 0.138651 0.263771 0.954568
vn 0.138651 0.263771 0.954568
vn -0.000001 0.000000 -1.000000
vn -0.000001 0.000000 -1.000000
vn -0.000001 0.000000 -1.000000
vn -0.000001 0.000000 -1.000000
vn 0.012968 0.997051 -0.075640
vn 0.012968 0.997051 -0.075640
vn 0.012968 0.997051 -0.075640
vn 0.012968 0.997051 -0.075640
vn 0.029938 0.438807 0.898083
vn 0.029938 0.438807 0.898083
vn 0.029938 0.438807 0.898083
vn 0.029938 0.438807 0.898083
vn 0.009156 0.999201 0.038906
vn 0.009156 0.999201 0.038906
vn 0.009156 0.999201 0.038906
vn 0.009156 0.999201 0.038906
vn 0.003780 0.465294 0.885148
vn 0.003780 0.465294 0.885148
vn 0.003780 0.465294 0.885148
vn 0.003780 0.465294 0.885148
vn 0.000311 0.999999 -0.001166
vn 0.000311 0.999999 -0.001166
vn 0.000311 0.999999 -0.001166
vn 0.000311 0.999999 -0.001166
vn -0.048702 0.446516 0.893449
vn -0.048702 0.446516 0.893449
vn -0.048702 0.446516 0.893449
vn -0.048702 0.446516 0.893449
vn -0.031481 0.989302 -0.142443
vn -0.031481 0.989302 -0.142443
vn -0.031481 0.989302 -0.142443
vn -0.031481 0.989302 -0.142443
vn -0.019695 0.425730 0.904636
vn -0.019695 0.425730 0.904636
vn -0.019695 0.425730 0.904636
vn -0.019695 0.425730 0.904636
vn -0.027991 0.992681 0.117480
vn -0.027991 0.992681 0.117480
vn -0.027991 0.992681 0.117480
vn -0.027991 0.992681 0.117480
vn -0.076715 0.500204 0.862503
vn -0.076715 0.500204 0.862503
vn -0.076715 0.500204 0.862503
vn -0.076715 0.500204 0.862503
vn 0.035413 0.993141 -0.111435
vn 0.035413 0.993141 -0.111435
vn 0.035413 0.993141 -0.111435
vn 0.035413 0.993141 -0.111435
vn 0.080655 0.408431 0.909219
vn 0.080655 0.408431 0.909219
vn 0.080655 0.408431 0.909219
vn 0.080655 0.408431 0.909219
vn 0.027992 0.999291 0.025183
vn 0.027992 0.999291 0.025183
vn 0.027992 0.999291 0.025183
vn 0.027992 0.999291 0.025183
vn -0.039241 0.405990 0.913035
vn -0.039241 0.405990 0.913035
vn -0.039241 0.405990 0.913035
vn -0.039241 0.405990 0.913035
vn 0.003191 0.999847 0.017233
vn 0.003191 0.999847 0.017233
vn 0.003191 0.999847 0.017233
vn 0.003191 0.999846 0.017233
vn 0.005036 0.492281 0.870422
vn 0.005036 0.492281 0.870422
vn 0.005036 0.492281 0.870422
vn 0.005036 0.492281 0.870422
vn -0.983202 0.179209 -0.034622
vn -0.983202 0.179209 -0.034622
vn -0.983202 0.179209 -0.034622
vn -0.983202 0.179209 -0.034622
vn 0.000000 0.993380 0.114878
vn 0.000000 0.993380 0.114878
vn 0.000000 0.993380 0.114878
vn 0.000000 0.993380 0.114878
vn 1.000000 0.000000 0.000000
vn 1.000000 0.000000 0.000000
vn 1.000000 0.000000 0.000000
vn 1.000000 0.000000 0.000000
vn 0.000000 -1.000000 0.000000
vn 0.000000 -1.000000 0.000000
vn 0.000000 -1.000000 0.000000
vn 0.000000 -1.000000 0.000000
vn 0.000000 0.998521 -0.054373
vn 0.000000 0.998521 -0.054373
vn 0.000000 0.998521 -0.054373
vn 0.000000 0.998521 -0.054373
vn -0.999629 0.027241 -0.000667
vn -0.999629 0.027241 -0.000667
vn -0.999629 0.027241 -0.000667
vn -0.999629 0.027241 -0.000667
vn 0.000000 -1.000000 0.000000
vn 0.000000 -1.000000 0.000000
vn 0.000000 -1.000000 0.000000
vn 0.000000 -1.000000 0.000000
vn 1.000000 -0.000001 0.000004
vn 1.000000 -0.000001 0.000004
vn 1.000000 -0.000001 0.000004
vn 1.000000 -0.000001 0.000004
vn -0.995314 0.084784 0.046495
vn -0.995314 0.084784 0.046495
vn -0.995314 0.084784 0.046495
vn -0.995314 0.084784 0.046495
vn 0.000000 0.906801 0.421558
vn 0.000000 0.906801 0.421558
vn 0.000000 0.906801 0.421558
vn 0.000000 0.906801 0.421558
vn 1.000000 0.000000 0.000000
vn 1.000000 0.000000 0.000000
vn 1.000000 0.000000 0.000000
vn 1.000000 0.000000 0.000000
vn 0.000000 -1.000000 0.000000
vn 0.000000 -1.000000 0.000000
vn 0.000000 -1.000000 0.000000
vn 0.000000 -1.000000 0.000000
vn 0.000000 0.979267 0.202574
vn 0.000000 0.979267 0.202574
vn 0.000000 0.979267 0.202574
vn 0.000000 0.979267 0.202574
vn 0.984974 0.167053 -0.043812
vn 0.984974 0.167053 -0.043812
vn 0.984974 0.167053 -0.043812
vn 0.984974 0.167053 -0.043812
vn 0.000000 -1.000000 0.000000
vn 0.000000 -1.000000 0.000000
vn 0.000000 -1.000000 0.000000
vn 0.000000 -1.000000 0.000000
vn -1.000000 -0.000001 0.000000
vn -1.000000 -0.000001 0.000000
vn -1.000000 -0.000001 0.000000
vn -1.000000 -0.000001 0.000000
vn 0.999336 0.036029 0.005476
vn 0.999336 0.036029 0.005476
vn 0.999336 0.036029 0.005476
vn 0.999336 0.036029 0.005476
vn 0.000000 0.782306 0.622894
vn 0.000000 0.782306 0.622894
vn 0.000000 0.782306 0.622894
vn 0.000000 0.782306 0.622894
vn -1.000000 0.000000 0.000000
vn -1.000000 0.000000 0.000000
vn -1.000000 0.000000 0.000000
vn -1.000000 0.000000 0.000000
vn 0.000000 -1.000000 0.000000
vn 0.000000 -1.000000 0.000000
vn 0.000000 -1.000000 0.000000
vn 0.000000 -1.000000 0.000000
vn 0.999510 0.031197 0.002450
vn 0.999510 0.031197 0.002450
vn 0.999510 0.031197 0.002450
vn 0.999510 0.031197 0.002450
vn 0.000000 0.989287 0.145987
vn 0.000000 0.989287 0.145987
vn 0.000000 0.989287 0.145987
vn 0.000000 0.989287 0.145987
vn -1.000000 0.000000 0.000000
vn -1.000000 0.000000 0.000000
vn -1.000000 0.000000 0.000000
vn -1.000000 0.000000 0.000000
vn 0.000000 -1.000000 0.000000
vn 0.000000 -1.000000 0.000000
vn 0.000000 -1.000000 0.000000
vn 0.000000 -1.000000 0.000000
s off
f 68/153/1 69/154/2 30/105/3 4/4/4
f 67/151/5 68/152/6 4/106/7 6/6/8
f 76/169/9 77/170/10 32/99/11 8/8/12
f 80/177/13 81/178/14 34/93/15 10/10/16
f 72/161/17 73/162/18 36/87/19 12/12/20
f 70/157/21 71/158/22 22/116/23 14/14/24
f 74/165/25 75/166/26 24/114/27 16/16/28
f 78/173/29 79/174/30 26/112/31 18/18/32
f 82/181/33 83/182/34 28/110/35 20/20/36
f 71/159/37 72/160/38 12/88/39 22/22/40
f 75/167/41 76/168/42 8/100/43 24/24/44
f 79/175/45 80/176/46 10/94/47 26/26/48
f 83/183/49 84/184/50 2/2/51 28/28/52
f 69/155/53 70/156/54 14/107/55 30/30/56
f 77/171/57 78/172/58 18/101/59 32/32/60
f 81/179/61 82/180/62 20/95/63 34/34/64
f 73/163/65 74/164/66 16/89/67 36/36/68
f 37/78/69 1/38/70 39/81/71 38/83/72
f 94/204/73 95/205/74 89/193/75 90/196/76
f 40/42/77 41/79/78 5/43/79 42/77/80
f 91/198/81 92/199/82 96/207/83 93/202/84
f 95/206/85 96/208/86 92/200/87 89/194/88
f 90/195/89 91/197/90 93/201/91 94/203/92
f 2/68/93 43/52/94 45/71/95 44/73/96
f 97/210/97 98/211/98 102/219/99 103/222/100
f 46/56/101 47/69/102 48/57/103 6/67/104
f 104/224/105 101/217/106 99/213/107 100/216/108
f 98/212/109 99/214/110 101/218/111 102/220/112
f 103/221/113 104/223/114 100/215/115 97/209/116
f 3/3/117 50/118/118 49/117/119 5/5/120
f 29/29/121 51/120/122 50/119/123 3/104/124
f 13/13/125 52/122/126 51/121/127 29/103/128
f 21/21/129 53/124/130 52/123/131 13/108/132
f 11/11/133 54/126/134 53/125/135 21/115/136
f 35/35/137 55/128/138 54/127/139 11/86/140
f 15/15/141 56/130/142 55/129/143 35/85/144
f 23/23/145 57/132/146 56/131/147 15/90/148
f 7/7/149 58/134/150 57/133/151 23/113/152
f 31/31/153 59/136/154 58/135/155 7/98/156
f 17/17/157 60/138/158 59/137/159 31/97/160
f 25/25/161 61/140/162 60/139/163 17/102/164
f 9/9/165 62/142/166 61/141/167 25/111/168
f 33/33/169 63/144/170 62/143/171 9/92/172
f 19/19/173 64/146/174 63/145/175 33/91/176
f 27/27/177 65/148/178 64/147/179 19/96/180
f 1/1/181 66/150/182 65/149/183 27/109/184
f 49/117/185 50/118/186 68/152/187 67/151/188
f 50/119/189 51/120/190 69/154/191 68/153/192
f 51/121/193 52/122/194 70/156/195 69/155/196
f 52/123/197 53/124/198 71/158/199 70/157/200
f 53/125/201 54/126/202 72/160/203 71/159/204
f 54/127/205 55/128/206 73/162/207 72/161/208
f 55/129/209 56/130/210 74/164/211 73/163/212
f 56/131/213 57/132/214 75/166/215 74/165/216
f 57/133/217 58/134/218 76/168/219 75/167/220
f 58/135/221 59/136/222 77/170/223 76/169/224
f 59/137/225 60/138/226 78/172/227 77/171/228
f 60/139/229 61/140/230 79/174/231 78/173/232
f 61/141/233 62/142/234 80/176/235 79/175/236
f 62/143/237 63/144/238 81/178/239 80/177/240
f 63/145/241 64/146/242 82/180/243 81/179/244
f 64/147/245 65/148/246 83/182/247 82/181/248
f 65/149/249 66/150/250 84/184/251 83/183/252
f 86/187/253 85/185/254 37/37/255 38/84/256
f 38/40/257 39/82/258 87/189/259 86/188/260
f 1/76/261 88/192/262 87/190/263 39/39/264
f 85/186/265 88/191/266 1/45/267 37/46/268
f 90/196/269 89/193/270 41/41/271 40/80/272
f 42/49/273 91/197/274 90/195/275 40/50/276
f 42/44/277 5/75/278 92/199/279 91/198/280
f 89/194/281 92/200/282 5/47/283 41/48/284
f 94/203/285 93/201/286 85/185/287 86/187/288
f 86/188/289 87/189/290 95/205/291 94/204/292
f 87/190/293 88/192/294 96/208/295 95/206/296
f 93/202/297 96/207/298 88/191/299 85/186/300
f 44/54/301 45/72/302 98/211/303 97/210/304
f 43/66/305 99/214/306 98/212/307 45/53/308
f 100/216/309 99/213/310 43/59/311 2/60/312
f 97/209/313 100/215/314 2/51/315 44/74/316
f 102/220/317 101/218/318 105/226/319 106/228/320
f 103/222/321 102/219/322 106/227/323 107/230/324
f 107/229/325 108/231/326 104/223/327 103/221/328
f 108/232/329 105/225/330 101/217/331 104/224/332
f 106/228/333 105/226/334 48/61/335 47/62/336
f 107/230/337 106/227/338 47/55/339 46/70/340
f 6/63/341 108/231/342 107/229/343 46/64/344
f 6/58/345 48/65/346 105/225/347 108/232/348
