# This file uses centimeters as units for non-parametric coordinates.

v -4.465630 0.000000 4.465635
v 4.465637 0.000000 4.465635
v -4.465630 2.234580 4.465635
v 4.465637 2.234580 4.465635
v -4.465630 2.234580 -4.465631
v 4.465637 2.234580 -4.465631
v -4.465630 0.000000 -4.465631
v 4.465637 0.000000 -4.465631
v -4.465630 2.500000 4.465635
v 4.465637 2.500000 4.465635
v 4.465637 2.500000 -4.465631
v -4.465630 2.500000 -4.465631
v -4.465630 0.307910 -4.465631
v -4.465630 0.307910 4.465635
v 4.465637 0.307910 4.465635
v 4.465637 0.307910 -4.465631
v -4.407677 0.419194 4.407686
v 4.407684 0.419194 4.407686
v 4.407684 2.123296 4.407686
v -4.407677 2.123296 4.407686
v -4.407677 2.123296 -4.407679
v 4.407684 2.123296 -4.407679
v 4.407684 0.419194 -4.407679
v -4.407677 0.419194 -4.407679
v 0.000008 2.500000 4.465635
v -4.465630 2.625810 4.465635
v 0.000008 2.625810 4.465635
v 4.465637 2.625810 4.465635
v 4.465637 2.625810 -4.465631
v -4.465630 2.625810 -4.465631
v 4.465637 0.433720 4.465635
v -4.465630 0.433720 4.465635
v 4.407684 0.545005 4.407686
v -4.407677 0.545005 4.407686
v -4.465630 0.433720 -4.465631
v 4.465637 0.433720 -4.465631
v -4.407677 0.545005 -4.407679
v 4.407684 0.545005 -4.407679
vt 0.529383 0.108843
vt 0.529383 0.108843
vt 0.529383 0.108843
vt 0.529383 0.108843
vt 0.651434 0.110588
vt 0.651434 0.110588
vt 0.651434 0.110588
vt 0.651434 0.110588
vt 0.651434 0.110588
vt 0.529383 0.108843
vt 0.529383 0.108843
vt 0.529383 0.108843
vt 0.529383 0.108843
vt 0.651434 0.110588
vt 0.651434 0.110588
vt 0.651434 0.110588
vt 0.651434 0.110588
vt 0.529383 0.108843
vt 0.529383 0.108843
vt 0.529383 0.108843
vt 0.529383 0.108843
vt 0.529383 0.108843
vt 0.529383 0.108843
vt 0.529383 0.108843
vt 0.529383 0.108843
vt 0.651434 0.110588
vt 0.651434 0.110588
vt 0.651434 0.110588
vt 0.651434 0.110588
vt 0.651434 0.110588
vt 0.651434 0.110588
vt 0.651434 0.110588
vt 0.651434 0.110588
vt 0.561199 0.787719
vt 0.561199 0.787719
vt 0.651434 0.110588
vt 0.651434 0.110588
vt 0.651434 0.110588
vt 0.651434 0.110588
vt 0.561199 0.787719
vt 0.561199 0.787719
vt 0.561199 0.787719
vt 0.561199 0.787718
vt 0.561199 0.787718
vt 0.561199 0.787718
vt 0.561199 0.787718
vt 0.561199 0.787718
vt 0.561199 0.787718
vt 0.561199 0.787718
vt 0.561199 0.787718
vt 0.561199 0.787719
vt 0.561199 0.787719
vt 0.561199 0.787719
vt 0.561199 0.787719
vt 0.561199 0.787719
vt 0.561199 0.787718
vt 0.561199 0.787718
vt 0.561199 0.787718
vt 0.561199 0.787718
vt 0.561199 0.787718
vt 0.561199 0.787718
vt 0.561199 0.787718
vt 0.561199 0.787718
vn 0.000000 0.000000 1.000000
vn 0.000000 0.000000 1.000000
vn 0.000000 0.000000 1.000000
vn 0.000000 0.000000 1.000000
vn 0.000000 1.000000 0.000000
vn 0.000000 1.000000 0.000000
vn 0.000000 1.000000 0.000000
vn 0.000000 1.000000 0.000000
vn 0.000000 1.000000 0.000000
vn 0.000000 0.000000 -1.000000
vn 0.000000 0.000000 -1.000000
vn 0.000000 0.000000 -1.000000
vn 0.000000 0.000000 -1.000000
vn 0.000000 -1.000000 0.000000
vn 0.000000 -1.000000 0.000000
vn 0.000000 -1.000000 0.000000
vn 0.000000 -1.000000 0.000000
vn 1.000000 0.000000 0.000000
vn 1.000000 0.000000 0.000000
vn 1.000000 0.000000 0.000000
vn 1.000000 0.000000 0.000000
vn -1.000000 0.000000 0.000000
vn -1.000000 0.000000 0.000000
vn -1.000000 0.000000 0.000000
vn -1.000000 0.000000 0.000000
vn 0.000000 0.000000 1.000000
vn 0.000000 0.000000 1.000000
vn 0.000000 0.000000 1.000000
vn 0.000000 0.000000 1.000000
vn 0.000000 0.000000 1.000000
vn 1.000000 0.000000 0.000000
vn 1.000000 0.000000 0.000000
vn 1.000000 0.000000 0.000000
vn 1.000000 0.000000 0.000000
vn 0.000000 0.000000 -1.000000
vn 0.000000 0.000000 -1.000000
vn 0.000000 0.000000 -1.000000
vn 0.000000 0.000000 -1.000000
vn -1.000000 0.000000 0.000000
vn -1.000000 0.000000 0.000000
vn -1.000000 0.000000 0.000000
vn -1.000000 0.000000 0.000000
vn -1.000000 0.000000 0.000000
vn -1.000000 0.000000 0.000000
vn -1.000000 0.000000 0.000000
vn -1.000000 0.000000 0.000000
vn 0.000000 0.000000 1.000000
vn 0.000000 0.000000 1.000000
vn 0.000000 0.000000 1.000000
vn 0.000000 0.000000 1.000000
vn 1.000000 0.000000 0.000000
vn 1.000000 0.000000 0.000000
vn 1.000000 0.000000 0.000000
vn 1.000000 0.000000 0.000000
vn 0.000000 0.000000 -1.000000
vn 0.000000 0.000000 -1.000000
vn 0.000000 0.000000 -1.000000
vn 0.000000 0.000000 -1.000000
vn 0.000000 0.461862 0.886952
vn 0.000000 0.461862 0.886952
vn 0.000000 0.461862 0.886952
vn 0.000000 0.461862 0.886952
vn 0.000000 -0.461863 0.886952
vn 0.000000 -0.461863 0.886952
vn 0.000000 -0.461863 0.886952
vn 0.000000 -0.461863 0.886952
vn 0.000000 -0.461887 -0.886939
vn 0.000000 -0.461887 -0.886939
vn 0.000000 -0.461887 -0.886939
vn 0.000000 -0.461887 -0.886939
vn 0.000000 0.461886 -0.886939
vn 0.000000 0.461886 -0.886939
vn 0.000000 0.461886 -0.886939
vn 0.000000 0.461886 -0.886939
vn 0.886940 0.461884 0.000000
vn 0.886940 0.461884 0.000000
vn 0.886940 0.461884 0.000000
vn 0.886940 0.461884 0.000000
vn 0.886939 -0.461886 0.000000
vn 0.886939 -0.461886 0.000000
vn 0.886939 -0.461886 0.000000
vn 0.886939 -0.461886 0.000000
vn -0.886939 0.461886 0.000000
vn -0.886939 0.461886 0.000000
vn -0.886939 0.461886 0.000000
vn -0.886939 0.461886 0.000000
vn -0.886940 -0.461885 0.000000
vn -0.886940 -0.461885 0.000000
vn -0.886940 -0.461885 0.000000
vn -0.886940 -0.461885 0.000000
vn 0.000000 0.000000 1.000000
vn 0.000000 0.000000 1.000000
vn 0.000000 0.000000 1.000000
vn 0.000000 0.000000 1.000000
vn 0.000000 0.000000 1.000000
vn 0.000000 0.000000 1.000000
vn 0.000000 0.000000 1.000000
vn 0.000000 0.000000 1.000000
vn 1.000000 0.000000 0.000000
vn 1.000000 0.000000 0.000000
vn 1.000000 0.000000 0.000000
vn 1.000000 0.000000 0.000000
vn 0.000000 0.000000 -1.000000
vn 0.000000 0.000000 -1.000000
vn 0.000000 0.000000 -1.000000
vn 0.000000 0.000000 -1.000000
vn -1.000000 0.000000 0.000000
vn -1.000000 0.000000 0.000000
vn -1.000000 0.000000 0.000000
vn -1.000000 0.000000 0.000000
vn 0.000000 0.000000 1.000000
vn 0.000000 0.000000 1.000000
vn 0.000000 0.000000 1.000000
vn 0.000000 0.000000 1.000000
vn 0.000000 0.000000 -1.000000
vn 0.000000 0.000000 -1.000000
vn 0.000000 0.000000 -1.000000
vn 0.000000 0.000000 -1.000000
vn 0.000000 0.000000 -1.000000
vn 0.000000 0.000000 -1.000000
vn 0.000000 0.000000 -1.000000
vn 0.000000 0.000000 -1.000000
vn 0.000000 0.000000 1.000000
vn 0.000000 0.000000 1.000000
vn 0.000000 0.000000 1.000000
vn 0.000000 0.000000 1.000000
vn 1.000000 0.000000 0.000000
vn 1.000000 0.000000 0.000000
vn 1.000000 0.000000 0.000000
vn 1.000000 0.000000 0.000000
vn -1.000000 0.000000 0.000000
vn -1.000000 0.000000 0.000000
vn -1.000000 0.000000 0.000000
vn -1.000000 0.000000 0.000000
vn -1.000000 0.000000 0.000000
vn -1.000000 0.000000 0.000000
vn -1.000000 0.000000 0.000000
vn -1.000000 0.000000 0.000000
vn 1.000000 0.000000 0.000000
vn 1.000000 0.000000 0.000000
vn 1.000000 0.000000 0.000000
vn 1.000000 0.000000 0.000000
s off
f 17/1/1 18/2/2 19/3/3 20/4/4
f 26/34/5 27/35/6 28/40/7 29/41/8 30/42/9
f 21/10/10 22/11/11 23/12/12 24/13/13
f 7/14/14 8/15/15 2/16/16 1/17/17
f 18/18/18 23/19/19 22/20/20 19/21/21
f 24/22/22 17/23/23 20/24/24 21/25/25
f 3/26/26 4/27/27 10/7/28 25/6/29 9/5/30
f 4/27/31 6/28/32 11/8/33 10/7/34
f 6/28/35 5/29/36 12/9/37 11/8/38
f 5/29/39 3/26/40 9/5/41 12/9/42
f 7/14/43 1/17/44 14/30/45 13/31/46
f 1/17/47 2/16/48 15/32/49 14/30/50
f 2/16/51 8/15/52 16/33/53 15/32/54
f 13/31/55 16/33/56 8/15/57 7/14/58
f 32/43/59 31/44/60 33/45/61 34/46/62
f 4/27/63 3/26/64 20/36/65 19/37/66
f 5/29/67 6/28/68 22/38/69 21/39/70
f 36/47/71 35/48/72 37/49/73 38/50/74
f 31/44/75 36/47/76 38/50/77 33/45/78
f 6/28/79 4/27/80 19/37/81 22/38/82
f 35/48/83 32/43/84 34/46/85 37/49/86
f 3/26/87 5/29/88 21/39/89 20/36/90
f 9/51/91 25/52/92 27/35/93 26/34/94
f 25/52/95 10/53/96 28/40/97 27/35/98
f 10/53/99 11/54/100 29/41/101 28/40/102
f 11/54/103 12/55/104 30/42/105 29/41/106
f 12/55/107 9/51/108 26/34/109 30/42/110
f 14/56/111 15/57/112 31/44/113 32/43/114
f 18/58/115 17/59/116 34/46/117 33/45/118
f 16/60/119 13/61/120 35/48/121 36/47/122
f 24/62/123 23/63/124 38/50/125 37/49/126
f 15/57/127 16/60/128 36/47/129 31/44/130
f 23/63/131 18/58/132 33/45/133 38/50/134
f 13/61/135 14/56/136 32/43/137 35/48/138
f 17/59/139 24/62/140 37/49/141 34/46/142
