# This file uses centimeters as units for non-parametric coordinates.

v 0.098024 -1.150463 0.068868
v 0.066202 -1.150463 0.101101
v 0.098024 0.025659 0.068868
v 0.066202 0.025659 0.101101
v 0.098024 1.150463 0.068868
v 0.066202 1.150463 0.101101
v 0.088800 0.449295 0.049178
v 0.056975 0.449295 0.081425
v -0.088800 -1.150463 0.074548
v -0.062585 -1.150463 0.101101
v -0.088800 0.025659 0.074548
v -0.062585 0.025659 0.101101
v -0.088800 1.150463 -0.054871
v -0.062585 1.150463 -0.081424
v -0.098024 0.449295 -0.074537
v -0.071807 0.449295 -0.101101
v 0.098024 1.150463 -0.054871
v 0.071810 1.150463 -0.081424
v 0.062583 0.449295 -0.101101
v 0.088800 0.449295 -0.074537
v -0.062585 1.150463 0.101101
v -0.088800 1.150463 0.074548
v -0.098024 0.449295 0.054861
v -0.071807 0.449295 0.081425
v -0.088800 0.025659 -0.054871
v -0.062585 0.025659 -0.081424
v 0.071810 0.025659 -0.081424
v 0.098024 0.025659 -0.054871
v -0.062585 -1.150463 -0.081424
v -0.088800 -1.150463 -0.054871
v 0.098024 -1.150463 -0.054871
v 0.071810 -1.150463 -0.081424
vt 0.645964 0.133569
vt 0.645964 0.133569
vt 0.645964 0.133569
vt 0.645964 0.133569
vt 0.645964 0.133569
vt 0.645964 0.133569
vt 0.645964 0.133569
vt 0.645964 0.133569
vt 0.645964 0.133569
vt 0.645964 0.133569
vt 0.645964 0.133569
vt 0.645964 0.133569
vt 0.645964 0.133569
vt 0.645964 0.133569
vt 0.645964 0.133569
vt 0.645963 0.133569
vt 0.645964 0.133569
vt 0.645964 0.133569
vt 0.645964 0.133569
vt 0.645964 0.133569
vt 0.645964 0.133569
vt 0.645964 0.133569
vt 0.645964 0.133569
vt 0.645964 0.133569
vt 0.645964 0.133569
vt 0.645964 0.133569
vt 0.645964 0.133569
vt 0.645964 0.133569
vt 0.645964 0.133569
vt 0.645964 0.133569
vt 0.645964 0.133569
vt 0.645964 0.133569
vn 0.711640 0.000000 0.702544
vn 0.711640 0.000000 0.702544
vn 0.711640 0.000000 0.702544
vn 0.711640 0.000000 0.702544
vn 0.710871 0.048082 0.701677
vn 0.710871 0.048082 0.701677
vn 0.710871 0.048082 0.701677
vn 0.710871 0.048082 0.701677
vn 0.711394 -0.029072 0.702192
vn 0.711394 -0.029072 0.702192
vn 0.711394 -0.029072 0.702192
vn 0.711393 -0.029072 0.702192
vn 0.000000 1.000000 -0.000001
vn 0.000000 1.000000 -0.000001
vn 0.000000 1.000000 -0.000001
vn 0.000000 1.000000 -0.000001
vn 0.000000 1.000000 -0.000001
vn 0.000000 1.000000 -0.000001
vn 0.000000 1.000000 -0.000001
vn 0.000000 1.000000 -0.000001
vn 0.000000 -1.000000 0.000000
vn 0.000000 -1.000000 0.000000
vn 0.000000 -1.000000 0.000000
vn 0.000000 -1.000000 0.000000
vn 0.000000 -1.000000 0.000000
vn 0.000000 -1.000000 0.000000
vn 0.000000 -1.000000 0.000000
vn 0.000000 -1.000000 0.000000
vn -0.711638 0.000000 0.702546
vn -0.711638 0.000000 0.702546
vn -0.711638 0.000000 0.702546
vn -0.711638 0.000000 0.702546
vn -0.711589 0.017141 0.702387
vn -0.711589 0.017141 0.702387
vn -0.711589 0.017141 0.702387
vn -0.711589 0.017141 0.702387
vn -0.711391 0.029058 -0.702195
vn -0.711391 0.029058 -0.702195
vn -0.711391 0.029058 -0.702195
vn -0.711391 0.029058 -0.702195
vn -0.710869 -0.048059 -0.701680
vn -0.710869 -0.048059 -0.701680
vn -0.710869 -0.048059 -0.701680
vn -0.710869 -0.048059 -0.701680
vn 0.711655 0.010345 -0.702453
vn 0.711655 0.010345 -0.702453
vn 0.711655 0.010345 -0.702453
vn 0.711655 0.010345 -0.702453
vn 0.711589 -0.017120 -0.702387
vn 0.711589 -0.017120 -0.702387
vn 0.711589 -0.017120 -0.702387
vn 0.711589 -0.017120 -0.702387
vn -0.711655 -0.010357 0.702452
vn -0.711655 -0.010357 0.702453
vn -0.711655 -0.010357 0.702452
vn -0.711655 -0.010357 0.702452
vn -0.711638 0.000000 -0.702546
vn -0.711638 0.000000 -0.702546
vn -0.711638 0.000000 -0.702546
vn -0.711638 0.000000 -0.702546
vn 0.711642 0.000000 -0.702543
vn 0.711642 0.000000 -0.702543
vn 0.711642 0.000000 -0.702543
vn 0.711642 0.000000 -0.702543
vn 0.000000 0.000000 -1.000000
vn 0.000000 0.000000 -1.000000
vn 0.000000 0.000000 -1.000000
vn 0.000000 0.000000 -1.000000
vn -1.000000 0.000000 0.000000
vn -1.000000 0.000000 0.000000
vn -1.000000 0.000000 0.000000
vn -1.000000 0.000000 0.000000
vn -0.999914 0.013154 0.000000
vn -0.999914 0.013154 0.000000
vn -0.999914 0.013154 0.000000
vn -0.999914 0.013154 0.000000
vn 0.000000 0.028052 -0.999607
vn 0.000000 0.028052 -0.999606
vn 0.000000 0.028052 -0.999606
vn 0.000000 0.028052 -0.999606
vn -0.999763 -0.021768 0.000000
vn -0.999763 -0.021768 0.000000
vn -0.999763 -0.021768 0.000000
vn -0.999763 -0.021768 0.000000
vn 0.000000 -0.046398 -0.998923
vn 0.000000 -0.046398 -0.998923
vn 0.000000 -0.046398 -0.998923
vn 0.000000 -0.046398 -0.998923
vn 0.000000 0.000000 1.000000
vn 0.000000 0.000000 1.000000
vn 0.000000 0.000000 1.000000
vn 0.000000 0.000000 1.000000
vn 1.000000 0.000000 0.000000
vn 1.000000 0.000000 0.000000
vn 1.000000 0.000000 0.000000
vn 1.000000 0.000000 0.000000
vn 0.999914 -0.013154 0.000000
vn 0.999914 -0.013154 0.000000
vn 0.999914 -0.013154 0.000000
vn 0.999914 -0.013154 0.000000
vn 0.000000 -0.028052 0.999606
vn 0.000000 -0.028052 0.999606
vn 0.000000 -0.028052 0.999606
vn 0.000000 -0.028052 0.999607
vn 0.999763 0.021768 0.000000
vn 0.999763 0.021768 0.000000
vn 0.999763 0.021768 0.000000
vn 0.999763 0.021768 0.000000
vn 0.000000 0.046397 0.998923
vn 0.000000 0.046397 0.998923
vn 0.000000 0.046397 0.998923
vn 0.000000 0.046397 0.998923
s off
f 2/1/1 1/21/2 3/29/3 4/20/4
f 4/20/5 3/29/6 7/24/7 8/32/8
f 5/25/9 6/27/10 8/32/11 7/24/12
f 22/5/13 21/28/14 6/27/15 5/25/16 17/4/17 18/14/18 14/3/19 13/13/20
f 30/6/21 29/9/22 32/7/23 31/22/24 1/21/25 2/1/26 10/2/27 9/10/28
f 9/10/29 10/2/30 12/31/31 11/11/32
f 11/11/33 12/31/34 24/26/35 23/17/36
f 13/13/37 14/3/38 16/18/39 15/12/40
f 15/12/41 16/18/42 26/8/43 25/16/44
f 18/14/45 17/4/46 20/30/47 19/15/48
f 19/15/49 20/30/50 28/23/51 27/19/52
f 21/28/53 22/5/54 23/17/55 24/26/56
f 25/16/57 26/8/58 29/9/59 30/6/60
f 27/19/61 28/23/62 31/22/63 32/7/64
f 26/8/65 27/19/66 32/7/67 29/9/68
f 25/16/69 30/6/70 9/10/71 11/11/72
f 15/12/73 23/17/74 22/5/75 13/13/76
f 16/18/77 14/3/78 18/14/79 19/15/80
f 25/16/81 11/11/82 23/17/83 15/12/84
f 16/18/85 19/15/86 27/19/87 26/8/88
f 12/31/89 10/2/90 2/1/91 4/20/92
f 3/29/93 1/21/94 31/22/95 28/23/96
f 7/24/97 20/30/98 17/4/99 5/25/100
f 24/26/101 8/32/102 6/27/103 21/28/104
f 3/29/105 28/23/106 20/30/107 7/24/108
f 12/31/109 4/20/110 8/32/111 24/26/112
