# This file uses centimeters as units for non-parametric coordinates.

v -0.523922 -0.281587 0.076729
v 0.541607 -0.281587 0.076725
v 0.541607 0.298161 0.076725
v -0.523922 0.298161 0.076729
v 0.645599 -0.368672 -0.152290
v 0.645599 -0.368672 0.152290
v -0.645599 -0.368672 -0.152290
v -0.645599 -0.368672 0.152290
v -0.645599 -0.186349 -0.152290
v -0.645599 -0.186349 0.152290
v 0.645599 -0.186349 -0.152290
v 0.645599 -0.186349 0.152290
v 0.645599 0.262140 -0.152290
v 0.645599 0.262140 0.152290
v -0.645599 0.262140 -0.152290
v -0.645599 0.262140 0.152290
v -0.645599 0.368672 -0.152290
v -0.645599 0.368672 0.152290
v 0.645599 0.368672 -0.152290
v 0.645599 0.368672 0.152290
v -0.011311 -0.186349 -0.150505
v -0.011311 -0.186349 0.135979
v -0.011311 0.262140 -0.150505
v -0.011311 0.262140 0.135979
v 0.034657 0.262140 -0.150505
v 0.034657 0.262140 0.135979
v 0.034657 -0.186349 -0.150505
v 0.034657 -0.186349 0.135979
v -0.555904 -0.186349 -0.150505
v -0.555904 -0.186349 0.135979
v -0.555904 0.262140 -0.150505
v -0.555904 0.262140 0.135979
v -0.473793 0.262140 -0.150505
v -0.473793 0.262140 0.135979
v -0.473793 -0.186349 -0.150505
v -0.473793 -0.186349 0.135979
v 0.483593 -0.186349 -0.150505
v 0.483593 -0.186349 0.135979
v 0.483593 0.262140 -0.150505
v 0.483593 0.262140 0.135979
v 0.565701 0.262140 -0.150505
v 0.565701 0.262140 0.135979
v 0.565701 -0.186349 -0.150505
v 0.565701 -0.186349 0.135979
v -0.268906 -0.186349 -0.150505
v -0.268906 -0.186349 0.135979
v -0.268906 0.262140 -0.150505
v -0.268906 0.262140 0.135979
v -0.222939 0.262140 -0.150505
v -0.222939 0.262140 0.135979
v -0.222939 -0.186349 -0.150505
v -0.222939 -0.186349 0.135979
v 0.236412 -0.186349 -0.150505
v 0.236412 -0.186349 0.135979
v 0.236412 0.262140 -0.150505
v 0.236412 0.262140 0.135979
v 0.282375 0.262140 -0.150505
v 0.282375 0.262140 0.135979
v 0.282375 -0.186349 -0.150505
v 0.282375 -0.186349 0.135979
vt 0.192080 0.036952
vt 0.192080 0.036952
vt 0.192080 0.036952
vt 0.192080 0.036952
vt 0.645159 0.142513
vt 0.645159 0.142513
vt 0.645159 0.142513
vt 0.645159 0.142513
vt 0.645159 0.142513
vt 0.645159 0.142513
vt 0.645159 0.142513
vt 0.645159 0.142513
vt 0.645159 0.142513
vt 0.645159 0.142513
vt 0.645159 0.142513
vt 0.645159 0.142513
vt 0.645159 0.142513
vt 0.645159 0.142513
vt 0.645159 0.142513
vt 0.645159 0.142513
vt 0.645159 0.142513
vt 0.645159 0.142513
vt 0.645159 0.142513
vt 0.645159 0.142513
vt 0.645159 0.142513
vt 0.645159 0.142513
vt 0.645159 0.142513
vt 0.645159 0.142513
vt 0.645159 0.142513
vt 0.645159 0.142513
vt 0.645159 0.142513
vt 0.645159 0.142513
vt 0.645159 0.142513
vt 0.645159 0.142513
vt 0.645159 0.142513
vt 0.645159 0.142513
vt 0.645159 0.142513
vt 0.645159 0.142513
vt 0.645159 0.142513
vt 0.645159 0.142513
vt 0.645159 0.142513
vt 0.645159 0.142513
vt 0.645159 0.142513
vt 0.645159 0.142513
vt 0.645159 0.142513
vt 0.645159 0.142513
vt 0.645159 0.142513
vt 0.645159 0.142513
vt 0.645159 0.142513
vt 0.645159 0.142513
vt 0.645159 0.142513
vt 0.645159 0.142513
vt 0.645159 0.142513
vt 0.645159 0.142513
vt 0.645159 0.142513
vt 0.645159 0.142513
vt 0.645159 0.142513
vt 0.645159 0.142513
vt 0.645159 0.142513
vt 0.645159 0.142513
vt 0.645159 0.142513
vt 0.645159 0.142513
vt 0.645159 0.142513
vt 0.645159 0.142513
vt 0.645159 0.142513
vt 0.645159 0.142513
vt 0.645159 0.142513
vt 0.645159 0.142513
vt 0.645159 0.142513
vt 0.645159 0.142513
vt 0.645159 0.142513
vt 0.645159 0.142513
vt 0.645159 0.142513
vt 0.645159 0.142513
vt 0.645159 0.142513
vt 0.645159 0.142513
vt 0.645159 0.142513
vt 0.645159 0.142513
vt 0.645159 0.142513
vt 0.645159 0.142513
vt 0.645159 0.142513
vt 0.645159 0.142513
vt 0.645159 0.142513
vt 0.645159 0.142513
vt 0.645159 0.142513
vt 0.645159 0.142513
vt 0.645159 0.142513
vt 0.645159 0.142513
vt 0.645159 0.142513
vt 0.645159 0.142513
vt 0.645159 0.142513
vt 0.645159 0.142513
vt 0.645159 0.142513
vt 0.645159 0.142513
vt 0.645159 0.142513
vt 0.645159 0.142513
vt 0.645159 0.142513
vt 0.645159 0.142513
vt 0.645159 0.142513
vt 0.645159 0.142513
vt 0.645159 0.142513
vt 0.645159 0.142513
vn 0.000004 0.000000 1.000000
vn 0.000004 0.000000 1.000000
vn 0.000004 0.000000 1.000000
vn 0.000004 0.000000 1.000000
vn 0.000000 -1.000000 0.000000
vn 0.000000 -1.000000 0.000000
vn 0.000000 -1.000000 0.000000
vn 0.000000 -1.000000 0.000000
vn -1.000000 0.000000 0.000000
vn -1.000000 0.000000 0.000000
vn -1.000000 0.000000 0.000000
vn -1.000000 0.000000 0.000000
vn 0.000000 1.000000 0.000000
vn 0.000000 1.000000 0.000000
vn 0.000000 1.000000 0.000000
vn 0.000000 1.000000 0.000000
vn 1.000000 0.000000 0.000000
vn 1.000000 0.000000 0.000000
vn 1.000000 0.000000 0.000000
vn 1.000000 0.000000 0.000000
vn 0.000000 0.000000 1.000000
vn 0.000000 0.000000 1.000000
vn 0.000000 0.000000 1.000000
vn 0.000000 0.000000 1.000000
vn 0.000000 0.000000 -1.000000
vn 0.000000 0.000000 -1.000000
vn 0.000000 0.000000 -1.000000
vn 0.000000 0.000000 -1.000000
vn 0.000000 -1.000000 0.000000
vn 0.000000 -1.000000 0.000000
vn 0.000000 -1.000000 0.000000
vn 0.000000 -1.000000 0.000000
vn -1.000000 0.000000 0.000000
vn -1.000000 0.000000 0.000000
vn -1.000000 0.000000 0.000000
vn -1.000000 0.000000 0.000000
vn 0.000000 1.000000 0.000000
vn 0.000000 1.000000 0.000000
vn 0.000000 1.000000 0.000000
vn 0.000000 1.000000 0.000000
vn 1.000000 0.000000 0.000000
vn 1.000000 0.000000 0.000000
vn 1.000000 0.000000 0.000000
vn 1.000000 0.000000 0.000000
vn 0.000000 0.000000 1.000000
vn 0.000000 0.000000 1.000000
vn 0.000000 0.000000 1.000000
vn 0.000000 0.000000 1.000000
vn 0.000000 0.000000 -1.000000
vn 0.000000 0.000000 -1.000000
vn 0.000000 0.000000 -1.000000
vn 0.000000 0.000000 -1.000000
vn -1.000000 0.000000 0.000000
vn -1.000000 0.000000 0.000000
vn -1.000000 0.000000 0.000000
vn -1.000000 0.000000 0.000000
vn 0.000000 1.000000 0.000000
vn 0.000000 1.000000 0.000000
vn 0.000000 1.000000 0.000000
vn 0.000000 1.000000 0.000000
vn 1.000000 0.000000 0.000000
vn 1.000000 0.000000 0.000000
vn 1.000000 0.000000 0.000000
vn 1.000000 0.000000 0.000000
vn 0.000000 -1.000000 0.000000
vn 0.000000 -1.000000 0.000000
vn 0.000000 -1.000000 0.000000
vn 0.000000 -1.000000 0.000000
vn 0.000000 0.000000 1.000000
vn 0.000000 0.000000 1.000000
vn 0.000000 0.000000 1.000000
vn 0.000000 0.000000 1.000000
vn 0.000000 0.000000 -1.000000
vn 0.000000 0.000000 -1.000000
vn 0.000000 0.000000 -1.000000
vn 0.000000 0.000000 -1.000000
vn -1.000000 0.000000 0.000000
vn -1.000000 0.000000 0.000000
vn -1.000000 0.000000 0.000000
vn -1.000000 0.000000 0.000000
vn 0.000000 1.000000 0.000000
vn 0.000000 1.000000 0.000000
vn 0.000000 1.000000 0.000000
vn 0.000000 1.000000 0.000000
vn 1.000000 0.000000 0.000000
vn 1.000000 0.000000 0.000000
vn 1.000000 0.000000 0.000000
vn 1.000000 0.000000 0.000000
vn 0.000000 -1.000000 0.000000
vn 0.000000 -1.000000 0.000000
vn 0.000000 -1.000000 0.000000
vn 0.000000 -1.000000 0.000000
vn 0.000000 0.000000 1.000000
vn 0.000000 0.000000 1.000000
vn 0.000000 0.000000 1.000000
vn 0.000000 0.000000 1.000000
vn 0.000000 0.000000 -1.000000
vn 0.000000 0.000000 -1.000000
vn 0.000000 0.000000 -1.000000
vn 0.000000 0.000000 -1.000000
vn -1.000000 0.000000 0.000000
vn -1.000000 0.000000 0.000000
vn -1.000000 0.000000 0.000000
vn -1.000000 0.000000 0.000000
vn 0.000000 1.000000 0.000000
vn 0.000000 1.000000 0.000000
vn 0.000000 1.000000 0.000000
vn 0.000000 1.000000 0.000000
vn 1.000000 0.000000 0.000000
vn 1.000000 0.000000 0.000000
vn 1.000000 0.000000 0.000000
vn 1.000000 0.000000 0.000000
vn 0.000000 -1.000000 0.000000
vn 0.000000 -1.000000 0.000000
vn 0.000000 -1.000000 0.000000
vn 0.000000 -1.000000 0.000000
vn 0.000000 0.000000 1.000000
vn 0.000000 0.000000 1.000000
vn 0.000000 0.000000 1.000000
vn 0.000000 0.000000 1.000000
vn 0.000000 0.000000 -1.000000
vn 0.000000 0.000000 -1.000000
vn 0.000000 0.000000 -1.000000
vn 0.000000 0.000000 -1.000000
vn -1.000000 0.000000 0.000000
vn -1.000000 0.000000 0.000000
vn -1.000000 0.000000 0.000000
vn -1.000000 0.000000 0.000000
vn 0.000000 1.000000 0.000000
vn 0.000000 1.000000 0.000000
vn 0.000000 1.000000 0.000000
vn 0.000000 1.000000 0.000000
vn 1.000000 0.000000 0.000000
vn 1.000000 0.000000 0.000000
vn 1.000000 0.000000 0.000000
vn 1.000000 0.000000 0.000000
vn 0.000000 -1.000000 0.000000
vn 0.000000 -1.000000 0.000000
vn 0.000000 -1.000000 0.000000
vn 0.000000 -1.000000 0.000000
vn 0.000000 0.000000 1.000000
vn 0.000000 0.000000 1.000000
vn 0.000000 0.000000 1.000000
vn 0.000000 0.000000 1.000000
vn 0.000000 0.000000 -1.000000
vn 0.000000 0.000000 -1.000000
vn 0.000000 0.000000 -1.000000
vn 0.000000 0.000000 -1.000000
vn -1.000000 0.000000 0.000000
vn -1.000000 0.000000 0.000000
vn -1.000000 0.000000 0.000000
vn -1.000000 0.000000 0.000000
vn 0.000000 1.000000 0.000000
vn 0.000000 1.000000 0.000000
vn 0.000000 1.000000 0.000000
vn 0.000000 1.000000 0.000000
vn 1.000000 0.000000 0.000000
vn 1.000000 0.000000 0.000000
vn 1.000000 0.000000 0.000000
vn 1.000000 0.000000 0.000000
vn 0.000000 -1.000000 0.000000
vn 0.000000 -1.000000 0.000000
vn 0.000000 -1.000000 0.000000
vn 0.000000 -1.000000 0.000000
vn 0.000000 0.000000 1.000000
vn 0.000000 0.000000 1.000000
vn 0.000000 0.000000 1.000000
vn 0.000000 0.000000 1.000000
vn 0.000000 0.000000 -1.000000
vn 0.000000 0.000000 -1.000000
vn 0.000000 0.000000 -1.000000
vn 0.000000 0.000000 -1.000000
s off
f 1/1/1 2/2/2 3/3/3 4/4/4
f 5/5/5 6/6/6 8/7/7 7/8/8
f 7/8/9 8/7/10 10/9/11 9/10/12
f 9/10/13 10/9/14 12/11/15 11/12/16
f 11/12/17 12/11/18 6/13/19 5/14/20
f 6/6/21 12/15/22 10/16/23 8/7/24
f 11/17/25 5/5/26 7/8/27 9/18/28
f 13/19/29 14/20/30 16/21/31 15/22/32
f 15/22/33 16/21/34 18/23/35 17/24/36
f 17/24/37 18/23/38 20/25/39 19/26/40
f 19/26/41 20/25/42 14/27/43 13/28/44
f 14/20/45 20/29/46 18/30/47 16/21/48
f 19/31/49 13/19/50 15/22/51 17/32/52
f 21/33/53 22/34/54 24/35/55 23/36/56
f 23/36/57 24/35/58 26/37/59 25/38/60
f 25/38/61 26/37/62 28/39/63 27/40/64
f 27/40/65 28/39/66 22/41/67 21/42/68
f 22/34/69 28/43/70 26/44/71 24/35/72
f 27/45/73 21/33/74 23/36/75 25/46/76
f 29/47/77 30/48/78 32/49/79 31/50/80
f 31/50/81 32/49/82 34/51/83 33/52/84
f 33/52/85 34/51/86 36/53/87 35/54/88
f 35/54/89 36/53/90 30/55/91 29/56/92
f 30/48/93 36/57/94 34/58/95 32/49/96
f 35/59/97 29/47/98 31/50/99 33/60/100
f 37/61/101 38/62/102 40/63/103 39/64/104
f 39/64/105 40/63/106 42/65/107 41/66/108
f 41/66/109 42/65/110 44/67/111 43/68/112
f 43/68/113 44/67/114 38/69/115 37/70/116
f 38/62/117 44/71/118 42/72/119 40/63/120
f 43/73/121 37/61/122 39/64/123 41/74/124
f 45/75/125 46/76/126 48/77/127 47/78/128
f 47/78/129 48/77/130 50/79/131 49/80/132
f 49/80/133 50/79/134 52/81/135 51/82/136
f 51/82/137 52/81/138 46/83/139 45/84/140
f 46/76/141 52/85/142 50/86/143 48/77/144
f 51/87/145 45/75/146 47/78/147 49/88/148
f 53/89/149 54/90/150 56/91/151 55/92/152
f 55/92/153 56/91/154 58/93/155 57/94/156
f 57/94/157 58/93/158 60/95/159 59/96/160
f 59/96/161 60/95/162 54/97/163 53/98/164
f 54/90/165 60/99/166 58/100/167 56/91/168
f 59/101/169 53/89/170 55/92/171 57/102/172
