# This file uses centimeters as units for non-parametric coordinates.

v -6.081535 0.000000 6.081535
v 6.081535 0.000000 6.081535
v -6.081535 2.234580 6.081535
v 6.081535 2.234580 6.081535
v -6.081535 2.234580 -6.081532
v 6.081535 2.234580 -6.081532
v -6.081535 0.000000 -6.081532
v 6.081535 0.000000 -6.081532
v -6.081535 2.500000 6.081535
v 6.081535 2.500000 6.081535
v 6.081535 2.500000 -6.081532
v -6.081535 2.500000 -6.081532
v -6.081535 0.307910 -6.081532
v -6.081535 0.307910 6.081535
v 6.081535 0.307910 6.081535
v 6.081535 0.307910 -6.081532
v -6.002609 0.419194 6.002617
v 6.002617 0.419194 6.002617
v 6.002617 2.123296 6.002617
v -6.002609 2.123296 6.002617
v -6.002609 2.123296 -6.002609
v 6.002617 2.123296 -6.002609
v 6.002617 0.419194 -6.002609
v -6.002609 0.419194 -6.002609
v 0.000008 2.500000 6.081535
v 0.000008 2.500000 -6.081532
v -6.081535 2.500000 0.000000
v 0.000008 2.500000 0.000000
v 6.081535 2.500000 0.000000
vt 0.529383 0.108843
vt 0.529383 0.108843
vt 0.529383 0.108843
vt 0.529383 0.108843
vt 0.651434 0.110588
vt 0.651434 0.110588
vt 0.651434 0.110588
vt 0.651434 0.110588
vt 0.651434 0.110588
vt 0.529383 0.108843
vt 0.529383 0.108843
vt 0.529383 0.108843
vt 0.529383 0.108843
vt 0.651434 0.110588
vt 0.651434 0.110588
vt 0.651434 0.110588
vt 0.651434 0.110588
vt 0.529383 0.108843
vt 0.529383 0.108843
vt 0.529383 0.108843
vt 0.529383 0.108843
vt 0.529383 0.108843
vt 0.529383 0.108843
vt 0.529383 0.108843
vt 0.529383 0.108843
vt 0.651434 0.110588
vt 0.651434 0.110588
vt 0.651434 0.110588
vt 0.651434 0.110588
vt 0.651434 0.110588
vt 0.651434 0.110588
vt 0.651434 0.110588
vt 0.651434 0.110588
vt 0.651434 0.110588
vt 0.651434 0.110588
vt 0.651434 0.110588
vt 0.651434 0.110588
vt 0.651434 0.110588
vt 0.651434 0.110588
vt 0.651434 0.110588
vt 0.651434 0.110588
vt 0.651434 0.110588
vt 0.651434 0.110588
vt 0.651434 0.110588
vt 0.651434 0.110588
vt 0.651434 0.110588
vt 0.651434 0.110588
vt 0.651434 0.110588
vt 0.651434 0.110588
vt 0.651434 0.110588
vt 0.651434 0.110588
vt 0.651434 0.110588
vt 0.651434 0.110588
vt 0.651434 0.110588
vt 0.651434 0.110588
vt 0.651434 0.110588
vt 0.651434 0.110588
vt 0.651434 0.110588
vt 0.651434 0.110588
vt 0.651434 0.110588
vt 0.651434 0.110588
vt 0.651434 0.110588
vt 0.651434 0.110588
vt 0.651434 0.110588
vt 0.651434 0.110588
vt 0.651434 0.110588
vt 0.651434 0.110588
vt 0.651434 0.110588
vt 0.651434 0.110588
vt 0.651434 0.110588
vt 0.651434 0.110588
vt 0.651434 0.110588
vt 0.651434 0.110588
vt 0.651434 0.110588
vt 0.651434 0.110588
vt 0.651434 0.110588
vt 0.651434 0.110588
vt 0.651434 0.110588
vt 0.651434 0.110588
vt 0.651434 0.110588
vt 0.651434 0.110588
vt 0.651434 0.110588
vt 0.651434 0.110588
vt 0.651434 0.110588
vt 0.651434 0.110588
vt 0.651434 0.110588
vt 0.651434 0.110588
vt 0.651434 0.110588
vt 0.651434 0.110588
vt 0.651434 0.110588
vt 0.651434 0.110588
vt 0.651434 0.110588
vt 0.651434 0.110588
vt 0.651434 0.110588
vt 0.651434 0.110588
vt 0.651434 0.110588
vt 0.651434 0.110588
vt 0.651434 0.110588
vt 0.651434 0.110588
vt 0.651434 0.110588
vt 0.651434 0.110588
vt 0.651434 0.110588
vt 0.651434 0.110588
vt 0.651434 0.110588
vn 0.000000 0.000000 1.000000
vn 0.000000 0.000000 1.000000
vn 0.000000 0.000000 1.000000
vn 0.000000 0.000000 1.000000
vn 0.000000 1.000000 0.000000
vn 0.000000 1.000000 0.000000
vn 0.000000 1.000000 0.000000
vn 0.000000 1.000000 0.000000
vn 0.000000 0.000000 -1.000000
vn 0.000000 0.000000 -1.000000
vn 0.000000 0.000000 -1.000000
vn 0.000000 0.000000 -1.000000
vn 0.000000 -1.000000 0.000000
vn 0.000000 -1.000000 0.000000
vn 0.000000 -1.000000 0.000000
vn 0.000000 -1.000000 0.000000
vn 1.000000 0.000000 0.000000
vn 1.000000 0.000000 0.000000
vn 1.000000 0.000000 0.000000
vn 1.000000 0.000000 0.000000
vn -1.000000 0.000000 0.000000
vn -1.000000 0.000000 0.000000
vn -1.000000 0.000000 0.000000
vn -1.000000 0.000000 0.000000
vn 0.000000 0.000000 1.000000
vn 0.000000 0.000000 1.000000
vn 0.000000 0.000000 1.000000
vn 0.000000 0.000000 1.000000
vn 0.000000 0.000000 1.000000
vn 1.000000 0.000000 0.000000
vn 1.000000 0.000000 0.000000
vn 1.000000 0.000000 0.000000
vn 1.000000 0.000000 0.000000
vn 1.000000 0.000000 0.000000
vn 0.000000 0.000000 -1.000000
vn 0.000000 0.000000 -1.000000
vn 0.000000 0.000000 -1.000000
vn 0.000000 0.000000 -1.000000
vn 0.000000 0.000000 -1.000000
vn -1.000000 0.000000 0.000000
vn -1.000000 0.000000 0.000000
vn -1.000000 0.000000 0.000000
vn -1.000000 0.000000 0.000000
vn -1.000000 0.000000 0.000000
vn -1.000000 0.000000 0.000000
vn -1.000000 0.000000 0.000000
vn -1.000000 0.000000 0.000000
vn -1.000000 0.000000 0.000000
vn 0.000000 0.000000 1.000000
vn 0.000000 0.000000 1.000000
vn 0.000000 0.000000 1.000000
vn 0.000000 0.000000 1.000000
vn 1.000000 0.000000 0.000000
vn 1.000000 0.000000 0.000000
vn 1.000000 0.000000 0.000000
vn 1.000000 0.000000 0.000000
vn 0.000000 0.000000 -1.000000
vn 0.000000 0.000000 -1.000000
vn 0.000000 0.000000 -1.000000
vn 0.000000 0.000000 -1.000000
vn -0.499276 0.708146 0.499252
vn 0.499276 0.708126 0.499281
vn 0.499276 0.708126 0.499281
vn -0.499256 0.708146 0.499272
vn 0.499276 -0.708126 0.499281
vn -0.499279 -0.708143 0.499253
vn -0.499259 -0.708143 0.499273
vn 0.499276 -0.708126 0.499281
vn -0.499266 -0.708152 -0.499254
vn 0.499263 -0.708134 -0.499282
vn 0.499273 -0.708134 -0.499272
vn -0.499256 -0.708152 -0.499263
vn 0.499263 0.708135 -0.499281
vn -0.499263 0.708155 -0.499252
vn -0.499253 0.708155 -0.499262
vn 0.499273 0.708135 -0.499271
vn 0.499276 0.708126 0.499281
vn 0.499263 0.708135 -0.499281
vn 0.499273 0.708135 -0.499271
vn 0.499276 0.708126 0.499281
vn 0.499263 -0.708134 -0.499282
vn 0.499276 -0.708126 0.499281
vn 0.499276 -0.708126 0.499281
vn 0.499273 -0.708134 -0.499272
vn -0.499263 0.708155 -0.499252
vn -0.499276 0.708146 0.499252
vn -0.499256 0.708146 0.499272
vn -0.499253 0.708155 -0.499262
vn -0.499279 -0.708143 0.499253
vn -0.499266 -0.708152 -0.499254
vn -0.499256 -0.708152 -0.499263
vn -0.499259 -0.708143 0.499273
vn 0.000000 1.000000 0.000000
vn 0.000000 1.000000 0.000000
vn 0.000000 1.000000 0.000000
vn 0.000000 1.000000 0.000000
vn 0.000000 1.000000 0.000000
vn 0.000000 1.000000 0.000000
vn 0.000000 1.000000 0.000000
vn 0.000000 1.000000 0.000000
vn 0.000000 1.000000 0.000000
vn 0.000000 1.000000 0.000000
vn 0.000000 1.000000 0.000000
vn 0.000000 1.000000 0.000000
s off
f 17/1/1 18/2/2 19/3/3 20/4/4
f 26/60/5 28/48/6 29/45/7 11/8/8
f 21/10/9 22/11/10 23/12/11 24/13/12
f 7/97/13 8/95/14 2/16/15 1/104/16
f 18/18/17 23/19/18 22/20/19 19/21/20
f 24/22/21 17/23/22 20/24/23 21/25/24
f 3/84/25 4/86/26 10/62/27 25/55/28 9/99/29
f 4/87/30 6/77/31 11/54/32 29/49/33 10/61/34
f 6/78/35 5/80/36 12/57/37 26/59/38 11/53/39
f 5/81/40 3/83/41 9/100/42 27/51/43 12/9/44
f 7/14/45 1/17/46 14/93/47 13/71/48
f 1/103/49 2/101/50 15/90/51 14/92/52
f 2/102/53 8/96/54 16/75/55 15/89/56
f 13/72/57 16/74/58 8/15/59 7/98/60
f 14/30/61 15/91/62 18/69/63 17/35/64
f 4/27/65 3/85/66 20/63/67 19/37/68
f 5/29/69 6/79/70 22/68/71 21/39/72
f 16/33/73 13/73/74 24/65/75 23/41/76
f 15/32/77 16/76/78 23/70/79 18/34/80
f 6/28/81 4/88/82 19/67/83 22/38/84
f 13/31/85 14/94/86 17/66/87 24/40/88
f 3/26/89 5/82/90 21/64/91 20/36/92
f 27/52/93 28/47/94 26/42/95 12/58/96
f 9/5/97 25/56/98 28/46/99 27/43/100
f 29/50/101 28/44/102 25/6/103 10/7/104
