# This file uses centimeters as units for non-parametric coordinates.

v 0.228752 0.078180 0.014702
v 0.327095 0.078180 0.014702
v 0.228752 0.988438 0.014702
v 0.327095 0.988438 0.014702
v 0.228752 0.988438 -0.051125
v 0.327095 0.988438 -0.051125
v 0.228752 0.078180 -0.051125
v 0.327095 0.078180 -0.051125
v 0.517540 0.078180 0.014702
v 0.621964 0.078180 0.014702
v 0.517540 0.988438 0.014702
v 0.621964 0.988438 0.014702
v 0.517540 0.988438 -0.051125
v 0.621964 0.988438 -0.051125
v 0.517540 0.078180 -0.051125
v 0.621964 0.078180 -0.051125
v -0.327080 0.078180 0.014702
v -0.228737 0.078180 0.014702
v -0.327080 0.988438 0.014702
v -0.228737 0.988438 0.014702
v -0.327080 0.988438 -0.051125
v -0.228737 0.988438 -0.051125
v -0.327080 0.078180 -0.051125
v -0.228737 0.078180 -0.051125
v -0.621956 0.078180 0.014702
v -0.517540 0.078180 0.014702
v -0.621956 0.988438 0.014702
v -0.517540 0.988438 0.014702
v -0.621956 0.988438 -0.051125
v -0.517540 0.988438 -0.051125
v -0.621956 0.078180 -0.051125
v -0.517540 0.078180 -0.051125
v -0.052208 0.078180 0.014702
v 0.052223 0.078180 0.014702
v -0.052208 0.988438 -0.051125
v 0.052223 0.988438 -0.051125
v -0.052208 0.078180 -0.051125
v 0.052223 0.078180 -0.051125
v -0.887604 0.000000 0.074867
v 0.887604 0.000000 0.074867
v -0.887604 1.066618 0.074867
v 0.887604 1.066618 0.074867
v -0.887604 1.066618 -0.074867
v 0.887604 1.066618 -0.074867
v -0.887604 0.000000 -0.074867
v 0.887604 0.000000 -0.074867
v -0.776619 0.078180 0.074867
v 0.776627 0.078180 0.074867
v 0.776627 0.988437 0.074867
v -0.776619 0.988437 0.074867
v -0.776619 0.078180 -0.051125
v 0.776627 0.078180 -0.051125
v 0.776627 0.988437 -0.051125
v -0.776619 0.988437 -0.051125
v -0.052208 0.988438 0.014702
v 0.052223 0.988438 0.014702
vt 0.651678 0.110526
vt 0.651678 0.110526
vt 0.651678 0.110526
vt 0.651678 0.110526
vt 0.651678 0.110526
vt 0.651678 0.110526
vt 0.651678 0.110526
vt 0.651678 0.110526
vt 0.651678 0.110526
vt 0.651678 0.110526
vt 0.651678 0.110526
vt 0.651678 0.110526
vt 0.651678 0.110526
vt 0.651678 0.110526
vt 0.651678 0.110526
vt 0.651678 0.110526
vt 0.651678 0.110526
vt 0.651678 0.110526
vt 0.651678 0.110526
vt 0.651678 0.110526
vt 0.651678 0.110526
vt 0.651678 0.110526
vt 0.651678 0.110526
vt 0.651678 0.110526
vt 0.651678 0.110526
vt 0.651678 0.110526
vt 0.651678 0.110526
vt 0.651678 0.110526
vt 0.651678 0.110526
vt 0.651678 0.110526
vt 0.651678 0.110526
vt 0.651678 0.110526
vt 0.651678 0.110526
vt 0.651678 0.110526
vt 0.651678 0.110526
vt 0.651678 0.110526
vt 0.651678 0.110526
vt 0.651678 0.110526
vt 0.191879 0.037694
vt 0.191879 0.037694
vt 0.651678 0.110526
vt 0.651678 0.110526
vt 0.651678 0.110526
vt 0.651678 0.110526
vt 0.651678 0.110526
vt 0.651678 0.110526
vt 0.651678 0.110526
vt 0.651678 0.110526
vt 0.651678 0.110526
vt 0.651678 0.110526
vt 0.651678 0.110526
vt 0.651678 0.110526
vt 0.651678 0.110526
vt 0.651678 0.110526
vt 0.651678 0.110526
vt 0.651678 0.110526
vt 0.651678 0.110526
vt 0.651678 0.110526
vt 0.651678 0.110526
vt 0.191879 0.037694
vt 0.191879 0.037694
vt 0.651678 0.110526
vt 0.651678 0.110526
vt 0.651678 0.110526
vt 0.651678 0.110526
vt 0.651678 0.110526
vn 0.000000 0.000000 1.000000
vn 0.000000 0.000000 1.000000
vn 0.000000 0.000000 1.000000
vn 0.000000 0.000000 1.000000
vn 1.000000 0.000000 0.000000
vn 1.000000 0.000000 0.000000
vn 1.000000 0.000000 0.000000
vn 1.000000 0.000000 0.000000
vn -1.000000 0.000000 0.000000
vn -1.000000 0.000000 0.000000
vn -1.000000 0.000000 0.000000
vn -1.000000 0.000000 0.000000
vn 0.000000 0.000000 1.000000
vn 0.000000 0.000000 1.000000
vn 0.000000 0.000000 1.000000
vn 0.000000 0.000000 1.000000
vn 1.000000 0.000000 0.000000
vn 1.000000 0.000000 0.000000
vn 1.000000 0.000000 0.000000
vn 1.000000 0.000000 0.000000
vn -1.000000 0.000000 0.000000
vn -1.000000 0.000000 0.000000
vn -1.000000 0.000000 0.000000
vn -1.000000 0.000000 0.000000
vn 0.000000 0.000000 1.000000
vn 0.000000 0.000000 1.000000
vn 0.000000 0.000000 1.000000
vn 0.000000 0.000000 1.000000
vn 1.000000 0.000000 0.000000
vn 1.000000 0.000000 0.000000
vn 1.000000 0.000000 0.000000
vn 1.000000 0.000000 0.000000
vn -1.000000 0.000000 0.000000
vn -1.000000 0.000000 0.000000
vn -1.000000 0.000000 0.000000
vn -1.000000 0.000000 0.000000
vn 0.000000 0.000000 1.000000
vn 0.000000 0.000000 1.000000
vn 0.000000 0.000000 1.000000
vn 0.000000 0.000000 1.000000
vn 1.000000 0.000000 0.000000
vn 1.000000 0.000000 0.000000
vn 1.000000 0.000000 0.000000
vn 1.000000 0.000000 0.000000
vn -1.000000 0.000000 0.000000
vn -1.000000 0.000000 0.000000
vn -1.000000 0.000000 0.000000
vn -1.000000 0.000000 0.000000
vn 1.000000 0.000000 0.000000
vn 1.000000 0.000000 0.000000
vn 1.000000 0.000000 0.000000
vn 1.000000 0.000000 0.000000
vn -1.000000 0.000000 0.000000
vn -1.000000 0.000000 0.000000
vn -1.000000 0.000000 0.000000
vn -1.000000 0.000000 0.000000
vn 0.000000 0.000000 1.000000
vn 0.000000 0.000000 1.000000
vn 0.000000 0.000000 1.000000
vn 0.000000 0.000000 1.000000
vn 0.000000 1.000000 0.000000
vn 0.000000 1.000000 0.000000
vn 0.000000 1.000000 0.000000
vn 0.000000 1.000000 0.000000
vn 0.000000 0.000000 -1.000000
vn 0.000000 0.000000 -1.000000
vn 0.000000 0.000000 -1.000000
vn 0.000000 0.000000 -1.000000
vn 0.000000 -1.000000 0.000000
vn 0.000000 -1.000000 0.000000
vn 0.000000 -1.000000 0.000000
vn 0.000000 -1.000000 0.000000
vn 1.000000 0.000000 0.000000
vn 1.000000 0.000000 0.000000
vn 1.000000 0.000000 0.000000
vn 1.000000 0.000000 0.000000
vn -1.000000 0.000000 0.000000
vn -1.000000 0.000000 0.000000
vn -1.000000 0.000000 0.000000
vn -1.000000 0.000000 0.000000
vn 0.000000 0.000000 1.000000
vn 0.000000 0.000000 1.000000
vn 0.000000 0.000000 1.000000
vn 0.000000 0.000000 1.000000
vn -0.000011 0.000000 1.000000
vn -0.000011 0.000000 1.000000
vn -0.000011 0.000000 1.000000
vn -0.000011 0.000000 1.000000
vn 0.000000 0.000000 1.000000
vn 0.000000 0.000000 1.000000
vn 0.000000 0.000000 1.000000
vn 0.000000 0.000000 1.000000
vn 0.000004 0.000000 1.000000
vn 0.000004 0.000000 1.000000
vn 0.000004 0.000000 1.000000
vn 0.000004 0.000000 1.000000
vn 0.000000 1.000000 0.000000
vn 0.000000 1.000000 0.000000
vn 0.000000 1.000000 0.000000
vn 0.000000 1.000000 0.000000
vn -1.000000 0.000000 0.000000
vn -1.000000 0.000000 0.000000
vn -1.000000 0.000000 0.000000
vn -1.000000 0.000000 0.000000
vn 0.000000 -1.000000 0.000000
vn 0.000000 -1.000000 0.000000
vn 0.000000 -1.000000 0.000000
vn 0.000000 -1.000000 0.000000
vn 1.000000 0.000000 0.000000
vn 1.000000 0.000000 0.000000
vn 1.000000 0.000000 0.000000
vn 1.000000 0.000000 0.000000
vn 0.000000 0.000000 1.000000
vn 0.000000 0.000000 1.000000
vn 0.000000 0.000000 1.000000
vn 0.000000 0.000000 1.000000
s off
f 1/1/1 2/2/2 4/3/3 3/4/4
f 2/2/5 8/5/6 6/6/7 4/3/8
f 7/7/9 1/1/10 3/4/11 5/8/12
f 9/9/13 10/10/14 12/11/15 11/12/16
f 10/10/17 16/13/18 14/14/19 12/11/20
f 15/15/21 9/9/22 11/12/23 13/16/24
f 17/17/25 18/18/26 20/19/27 19/20/28
f 18/18/29 24/21/30 22/22/31 20/19/32
f 23/23/33 17/17/34 19/20/35 21/24/36
f 25/25/37 26/26/38 28/27/39 27/28/40
f 26/26/41 32/29/42 30/30/43 28/27/44
f 31/31/45 25/25/46 27/28/47 29/32/48
f 34/34/49 38/37/50 36/35/51 56/66/52
f 37/38/53 33/33/54 55/65/55 35/36/56
f 51/60/57 52/39/58 53/40/59 54/61/60
f 41/50/61 42/41/62 44/42/63 43/64/64
f 43/64/65 44/42/66 46/43/67 45/62/68
f 45/62/69 46/43/70 40/44/71 39/63/72
f 40/45/73 46/46/74 44/47/75 42/41/76
f 45/48/77 39/49/78 41/50/79 43/51/80
f 39/49/81 40/45/82 48/52/83 47/54/84
f 40/45/85 42/41/86 49/53/87 48/52/88
f 50/55/89 49/53/90 42/41/91 41/50/92
f 41/50/93 39/49/94 47/54/95 50/55/96
f 47/54/97 48/52/98 52/56/99 51/58/100
f 48/52/101 49/53/102 53/57/103 52/56/104
f 54/59/105 53/57/106 49/53/107 50/55/108
f 50/55/109 47/54/110 51/58/111 54/59/112
f 33/33/113 34/34/114 56/66/115 55/65/116
