# This file uses centimeters as units for non-parametric coordinates.

v 2.472198 -0.608443 1.151772
v -1.756409 0.712979 1.049110
v 0.330612 0.476383 -1.535866
v 0.973618 -0.608443 1.705772
v 0.297684 -0.608443 -1.706490
v -1.118584 0.735213 -1.396576
v -1.281136 -0.608443 -1.733879
v 1.794029 -0.608443 1.683640
v 1.729080 0.413078 1.258301
v 1.430550 -0.608443 -1.738358
v -2.270241 0.850072 0.475006
v 0.761024 0.732608 0.385254
v 1.598526 0.587297 0.425949
v 2.644608 0.373349 0.233925
v 2.995483 -0.608443 0.344612
v -2.890198 -0.608443 0.473579
v 2.557213 -0.608443 -0.941505
v 0.022293 0.826264 -1.319046
v -2.591957 0.577736 -0.741142
v -3.017967 -0.608443 -0.291458
v -1.835365 0.841572 0.637184
v -1.380325 -0.608443 1.665916
v -2.486732 -0.608443 -1.235443
v -0.448875 0.841221 -1.273087
v -0.543793 0.853326 0.685112
v -0.620216 -0.608443 -1.705139
v 0.729118 0.620580 -1.183083
v 0.929321 -0.608443 -1.730888
v 2.282837 0.567001 0.973381
v 1.187180 0.499080 -1.492508
v 2.419075 -0.608443 -1.290451
v 2.047981 -0.608443 -1.555069
v -2.545059 -0.608443 0.931160
v -1.308517 0.584540 1.335075
v -0.650475 0.407801 1.290497
v 0.089478 0.511149 1.406624
v 0.973778 0.531304 1.487259
v 2.286362 0.496293 -0.522842
v 2.583542 -0.608443 0.818810
v -2.569618 0.692513 -0.281654
v -1.909439 0.872935 -1.055550
v 0.090012 0.841053 -0.497597
v 0.728523 0.701976 -0.444008
v 1.587143 0.841533 -0.439468
v 2.954460 -0.608443 -0.466637
vt 0.967892 0.501589
vt 0.967892 0.501589
vt 0.967892 0.501589
vt 0.967892 0.501589
vt 0.967892 0.501589
vt 0.967892 0.501589
vt 0.967892 0.501589
vt 0.967892 0.501589
vt 0.967892 0.501589
vt 0.967892 0.501589
vt 0.967892 0.501589
vt 0.967892 0.501589
vt 0.967892 0.501589
vt 0.967892 0.501589
vt 0.967892 0.501589
vt 0.967892 0.501589
vt 0.967892 0.501589
vt 0.967892 0.501589
vt 0.967892 0.501589
vt 0.967892 0.501589
vt 0.967892 0.501589
vt 0.967892 0.501589
vt 0.967892 0.501589
vt 0.967892 0.501589
vt 0.967892 0.501589
vt 0.967892 0.501589
vt 0.967892 0.501589
vt 0.967892 0.501589
vt 0.967892 0.501589
vt 0.967892 0.501589
vt 0.967892 0.501589
vt 0.967892 0.501589
vt 0.967892 0.501589
vt 0.967892 0.501589
vt 0.967892 0.501589
vt 0.967892 0.501589
vt 0.967892 0.501589
vt 0.967892 0.501589
vt 0.967892 0.501589
vt 0.967892 0.501589
vt 0.967892 0.501589
vt 0.967892 0.501589
vt 0.967892 0.501589
vt 0.967892 0.501589
vt 0.967892 0.501589
vt 0.967892 0.501589
vt 0.967892 0.501589
vt 0.967892 0.501589
vt 0.967892 0.501589
vt 0.967892 0.501589
vt 0.967892 0.501589
vt 0.967892 0.501589
vn 0.310942 0.178921 0.933436
vn 0.310942 0.178921 0.933436
vn 0.310942 0.178921 0.933436
vn 0.024887 0.385614 0.922324
vn 0.024887 0.385614 0.922324
vn 0.024887 0.385614 0.922324
vn 0.186470 0.976573 -0.107397
vn 0.186469 0.976573 -0.107397
vn 0.186469 0.976573 -0.107397
vn -0.153944 0.955347 -0.252216
vn -0.153944 0.955347 -0.252216
vn -0.153944 0.955347 -0.252216
vn -0.014713 0.169061 -0.985496
vn -0.014713 0.169061 -0.985496
vn -0.014713 0.169061 -0.985496
vn 0.043299 0.225559 -0.973267
vn 0.043299 0.225559 -0.973267
vn 0.043299 0.225559 -0.973267
vn 0.704332 0.395964 -0.589177
vn 0.704332 0.395964 -0.589177
vn 0.704332 0.395964 -0.589177
vn -0.944748 0.325874 -0.035468
vn -0.944748 0.325874 -0.035468
vn -0.944748 0.325874 -0.035468
vn 0.029732 0.999349 -0.020443
vn 0.029732 0.999349 -0.020443
vn 0.029732 0.999349 -0.020443
vn -0.015820 0.356461 0.934176
vn -0.015820 0.356461 0.934176
vn -0.015820 0.356461 0.934176
vn -0.170954 0.126080 0.977179
vn -0.170954 0.126080 0.977179
vn -0.170954 0.126080 0.977179
vn -0.001468 0.155415 -0.987848
vn -0.001468 0.155415 -0.987848
vn -0.001468 0.155415 -0.987848
vn -0.464677 0.262496 0.845678
vn -0.464677 0.262496 0.845678
vn -0.464677 0.262496 0.845678
vn -0.368095 0.268029 -0.890318
vn -0.368095 0.268029 -0.890318
vn -0.368095 0.268029 -0.890318
vn 0.337490 0.380057 0.861196
vn 0.337490 0.380057 0.861196
vn 0.337490 0.380056 0.861195
vn 0.274361 0.265457 -0.924261
vn 0.274361 0.265457 -0.924261
vn 0.274361 0.265457 -0.924261
vn 0.519871 0.445234 -0.729041
vn 0.519871 0.445234 -0.729041
vn 0.519871 0.445234 -0.729041
vn 0.157385 0.938607 0.306996
vn 0.157385 0.938607 0.306996
vn 0.157385 0.938607 0.306996
vn -0.200023 0.805626 0.557636
vn -0.200023 0.805626 0.557636
vn -0.200023 0.805626 0.557636
vn 0.162161 0.975762 0.146940
vn 0.162161 0.975762 0.146940
vn 0.162161 0.975762 0.146940
vn 0.202510 0.964396 0.170090
vn 0.202510 0.964396 0.170090
vn 0.202510 0.964396 0.170090
vn 0.323641 0.935012 0.144944
vn 0.323641 0.935012 0.144944
vn 0.323641 0.935012 0.144944
vn 0.750646 0.106278 0.652101
vn 0.750646 0.106278 0.652101
vn 0.750646 0.106278 0.652101
vn 0.874287 0.350334 0.335989
vn 0.874287 0.350334 0.335989
vn 0.874287 0.350334 0.335989
vn -0.678474 0.287723 0.675935
vn -0.678474 0.287723 0.675935
vn -0.678474 0.287723 0.675935
vn -0.735358 0.389366 0.554655
vn -0.735358 0.389366 0.554655
vn -0.735358 0.389366 0.554655
vn 0.872746 0.344877 -0.345505
vn 0.872746 0.344877 -0.345505
vn 0.872746 0.344877 -0.345505
vn -0.005715 0.927890 -0.372810
vn -0.005715 0.927890 -0.372810
vn -0.005715 0.927890 -0.372810
vn -0.083544 0.293676 -0.952247
vn -0.083544 0.293676 -0.952247
vn -0.083544 0.293676 -0.952247
vn -0.238879 0.350660 -0.905524
vn -0.238879 0.350660 -0.905524
vn -0.238879 0.350660 -0.905525
vn -0.347532 0.245335 -0.905004
vn -0.347532 0.245335 -0.905004
vn -0.347532 0.245335 -0.905004
vn -0.864534 0.126049 -0.486510
vn -0.864535 0.126049 -0.486510
vn -0.864534 0.126049 -0.486510
vn -0.501931 0.294371 -0.813272
vn -0.501931 0.294371 -0.813272
vn -0.501931 0.294371 -0.813272
vn -0.463212 0.864861 -0.193519
vn -0.463212 0.864861 -0.193519
vn -0.463212 0.864861 -0.193519
vn -0.098539 0.944392 0.313709
vn -0.098539 0.944392 0.313709
vn -0.098539 0.944392 0.313709
vn -0.518462 0.236068 0.821869
vn -0.518462 0.236068 0.821869
vn -0.518462 0.236068 0.821869
vn -0.051595 0.878726 -0.474530
vn -0.051595 0.878726 -0.474530
vn -0.051595 0.878726 -0.474530
vn 0.133390 0.268557 -0.953983
vn 0.133390 0.268557 -0.953983
vn 0.133390 0.268557 -0.953983
vn 0.019701 0.999715 -0.013472
vn 0.019701 0.999715 -0.013472
vn 0.019701 0.999715 -0.013472
vn 0.244869 0.759780 0.602307
vn 0.244869 0.759780 0.602307
vn 0.244869 0.759780 0.602307
vn -0.021844 0.932697 0.359999
vn -0.021844 0.932697 0.359999
vn -0.021844 0.932697 0.359999
vn 0.133942 0.257335 0.956994
vn 0.133942 0.257335 0.956994
vn 0.133942 0.257335 0.956994
vn 0.042194 0.238457 -0.970236
vn 0.042194 0.238457 -0.970236
vn 0.042194 0.238457 -0.970236
vn 0.325055 0.688310 -0.648512
vn 0.325055 0.688310 -0.648512
vn 0.325055 0.688310 -0.648512
vn 0.215516 0.975861 -0.035335
vn 0.215516 0.975861 -0.035335
vn 0.215516 0.975861 -0.035335
vn 0.296335 0.949370 -0.104319
vn 0.296335 0.949370 -0.104319
vn 0.296335 0.949370 -0.104319
vn -0.039418 0.981585 0.186915
vn -0.039418 0.981585 0.186915
vn -0.039418 0.981585 0.186915
vn -0.093409 0.187480 0.977817
vn -0.093409 0.187480 0.977817
vn -0.093409 0.187480 0.977817
vn -0.038110 0.156389 -0.986960
vn -0.038110 0.156389 -0.986960
vn -0.038110 0.156389 -0.986960
vn 0.602845 0.213772 0.768687
vn 0.602845 0.213772 0.768687
vn 0.602845 0.213772 0.768687
vn 0.403004 0.914222 -0.042255
vn 0.403004 0.914222 -0.042255
vn 0.403004 0.914222 -0.042255
vn 0.363974 0.836224 -0.410186
vn 0.363974 0.836224 -0.410186
vn 0.363974 0.836224 -0.410186
vn 0.567975 0.514568 -0.642359
vn 0.567975 0.514568 -0.642359
vn 0.567975 0.514568 -0.642359
vn 0.095159 0.955277 0.279985
vn 0.095159 0.955277 0.279985
vn 0.095159 0.955277 0.279985
vn -0.289361 0.956120 -0.045865
vn -0.289361 0.956120 -0.045865
vn -0.289361 0.956120 -0.045865
vn 0.929802 0.196971 0.310920
vn 0.929802 0.196971 0.310920
vn 0.929802 0.196971 0.310920
vn -0.904501 0.309492 0.293417
vn -0.904501 0.309492 0.293417
vn -0.904501 0.309492 0.293417
vn -0.909675 0.386535 0.151928
vn -0.909675 0.386535 0.151928
vn -0.909675 0.386535 0.151928
vn 0.012842 0.999756 0.017962
vn 0.012842 0.999756 0.017962
vn 0.012842 0.999756 0.017962
vn -0.332562 0.940884 -0.064340
vn -0.332562 0.940884 -0.064340
vn -0.332562 0.940884 -0.064340
vn -0.008544 0.999852 -0.014954
vn -0.008544 0.999852 -0.014954
vn -0.008544 0.999852 -0.014954
vn 0.010906 0.999778 0.018046
vn 0.010906 0.999778 0.018046
vn 0.010906 0.999778 0.018046
vn 0.102151 0.993776 0.044429
vn 0.102151 0.993776 0.044429
vn 0.102151 0.993776 0.044429
vn 0.216185 0.975338 -0.044502
vn 0.216185 0.975338 -0.044502
vn 0.216185 0.975338 -0.044502
vn -0.155449 0.947236 0.280320
vn -0.155449 0.947236 0.280320
vn -0.155449 0.947236 0.280320
vn 0.172828 0.984008 -0.043121
vn 0.172828 0.984008 -0.043121
vn 0.172828 0.984008 -0.043121
vn 0.452554 0.857174 0.245862
vn 0.452554 0.857174 0.245862
vn 0.452554 0.857174 0.245862
vn 0.942287 0.331399 -0.047650
vn 0.942287 0.331399 -0.047650
vn 0.942287 0.331399 -0.047650
vn 0.820359 0.480327 -0.310319
vn 0.820359 0.480327 -0.310319
vn 0.820359 0.480327 -0.310319
s off
f 37/42/1 4/6/2 9/11/3
f 9/11/4 4/6/5 8/10/6
f 27/32/7 43/49/8 30/35/9
f 30/35/10 43/49/11 44/50/12
f 28/33/13 3/5/14 10/12/15
f 10/12/16 3/5/17 30/35/18
f 38/51/19 45/52/20 17/21/21
f 19/23/22 20/25/23 40/45/24
f 24/29/25 42/48/26 18/22/27
f 22/27/28 4/6/29 35/40/30
f 35/40/31 4/6/32 36/41/33
f 26/31/34 3/5/35 5/7/36
f 2/2/37 22/27/38 34/39/39
f 7/9/40 23/28/41 6/8/42
f 9/11/43 8/10/44 29/34/45
f 10/12/46 30/35/47 32/37/48
f 32/37/49 30/35/50 31/36/51
f 12/15/52 25/30/53 36/41/54
f 36/41/55 25/30/56 35/40/57
f 12/15/58 37/42/59 13/16/60
f 13/16/61 37/42/62 9/11/63
f 9/11/64 38/43/65 13/16/66
f 39/44/67 15/19/68 29/34/69
f 29/34/70 15/19/71 14/18/72
f 11/13/73 16/20/74 2/2/75
f 2/2/76 16/20/77 33/38/78
f 38/51/79 17/21/80 31/3/81
f 27/32/82 30/35/83 3/5/84
f 24/29/85 18/22/86 26/31/87
f 26/31/88 18/22/89 3/5/90
f 23/28/91 41/47/92 6/8/93
f 23/4/94 20/25/95 19/23/96
f 23/28/97 19/24/98 41/47/99
f 40/46/100 41/47/101 19/24/102
f 2/2/103 21/26/104 11/14/105
f 33/38/106 22/27/107 2/2/108
f 41/47/109 24/29/110 6/8/111
f 6/8/112 24/29/113 26/31/114
f 41/47/115 42/48/116 24/29/117
f 35/40/118 25/30/119 34/39/120
f 34/39/121 25/30/122 21/26/123
f 34/39/124 22/27/125 35/40/126
f 6/8/127 26/31/128 7/9/129
f 18/22/130 27/32/131 3/5/132
f 42/48/133 43/49/134 18/22/135
f 18/22/136 43/49/137 27/32/138
f 37/42/139 12/15/140 36/41/141
f 36/41/142 4/6/143 37/42/144
f 5/7/145 3/5/146 28/33/147
f 8/10/148 1/1/149 29/34/150
f 14/17/151 38/43/152 29/34/153
f 38/43/154 30/35/155 44/50/156
f 30/35/157 38/43/158 31/36/159
f 21/26/160 2/2/161 34/39/162
f 38/43/163 9/11/164 29/34/165
f 39/44/166 29/34/167 1/1/168
f 40/45/169 20/25/170 11/13/171
f 11/13/172 20/25/173 16/20/174
f 21/26/175 41/47/176 11/14/177
f 11/14/178 41/47/179 40/46/180
f 25/30/181 42/48/182 21/26/183
f 21/26/184 42/48/185 41/47/186
f 12/15/187 42/48/188 25/30/189
f 43/49/190 42/48/191 12/15/192
f 44/50/193 43/49/194 13/16/195
f 43/49/196 12/15/197 13/16/198
f 38/43/199 44/50/200 13/16/201
f 15/19/202 45/52/203 14/18/204
f 14/18/205 45/52/206 38/51/207
