# This file uses centimeters as units for non-parametric coordinates.

v 0.177689 0.000000 0.059105
v 0.187981 0.000000 -1.111931
v 0.141415 0.157215 -0.005127
v 0.150665 0.157215 -1.057556
v -0.632698 0.157215 -0.129852
v -0.453640 0.157215 -1.128197
v -0.683670 0.000000 -0.079674
v -0.484428 0.000000 -1.190529
v -0.719315 0.157215 -0.841156
v 0.360565 0.157215 -0.315964
v 0.421539 0.000000 -0.286758
v -0.780048 0.000000 -0.871147
v -1.406212 0.000000 0.433365
v -0.809483 0.000000 0.577835
v -1.344349 0.157215 0.393181
v -0.851475 0.157215 0.533951
v -1.290493 0.157215 -0.111893
v -0.624371 0.157215 0.105392
v -1.343735 0.000000 -0.159653
v -0.556786 0.000000 0.100983
v -0.945961 0.157215 -0.245163
v -1.189999 0.157215 0.542053
v -1.227394 0.000000 0.598373
v -0.907822 0.000000 -0.301140
v 0.477058 0.000000 -0.394363
v 1.081009 0.000000 -0.504829
v 0.517258 0.157215 -0.456223
v 1.024811 0.157215 -0.527863
v 0.361248 0.157215 -0.939606
v 1.058193 0.157215 -1.011719
v 0.293190 0.000000 -0.961617
v 1.118153 0.000000 -1.043221
v 0.621906 0.157215 -1.201370
v 0.718781 0.157215 -0.382912
v 0.707497 0.000000 -0.316254
v 0.634010 0.000000 -1.268013
v 0.520012 0.000000 -0.112251
v 0.767826 0.000000 0.449478
v 0.589520 0.157215 -0.087532
v 0.777168 0.157215 0.389465
v 1.023403 0.157215 -0.351631
v 1.255535 0.157215 0.309471
v 1.028988 0.000000 -0.422935
v 1.300106 0.000000 0.360466
v 1.338585 0.157215 -0.158951
v 0.565052 0.157215 0.125511
v 0.497597 0.000000 0.130028
v 1.406212 0.000000 -0.162666
v -0.691933 0.029438 0.969681
v 0.460842 0.029438 1.175934
v -0.622528 0.186653 0.944679
v 0.413483 0.186653 1.130043
v -0.369926 0.186653 0.202385
v 0.584328 0.186653 0.546097
v -0.410862 0.029438 0.143730
v 0.650940 0.029438 0.526184
v 0.345837 0.186653 0.236107
v -0.352783 0.186653 1.212784
v -0.391785 0.029438 1.268005
v 0.385571 0.029438 0.181252
vt 0.443692 0.326509
vt 0.443692 0.326509
vt 0.443692 0.326509
vt 0.443692 0.326509
vt 0.443692 0.326509
vt 0.443692 0.326509
vt 0.443692 0.326509
vt 0.443692 0.326509
vt 0.443692 0.326509
vt 0.443692 0.326509
vt 0.443692 0.326509
vt 0.443692 0.326509
vt 0.443692 0.326509
vt 0.443692 0.326509
vt 0.443692 0.326509
vt 0.443692 0.326509
vt 0.443692 0.326509
vt 0.443692 0.326509
vt 0.443692 0.326509
vt 0.443692 0.326509
vt 0.443692 0.326509
vt 0.443692 0.326509
vt 0.443692 0.326509
vt 0.443692 0.326509
vt 0.443692 0.326509
vt 0.443692 0.326509
vt 0.443692 0.326509
vt 0.443692 0.326509
vt 0.443692 0.326509
vt 0.443692 0.326509
vt 0.443692 0.326509
vt 0.443692 0.326509
vt 0.443692 0.326509
vt 0.443692 0.326509
vt 0.443692 0.326509
vt 0.443692 0.326509
vt 0.443692 0.326509
vt 0.443692 0.326509
vt 0.443692 0.326509
vt 0.443692 0.326509
vt 0.443692 0.326509
vt 0.443692 0.326509
vt 0.443692 0.326509
vt 0.443692 0.326509
vt 0.443692 0.326509
vt 0.443692 0.326509
vt 0.443692 0.326509
vt 0.443692 0.326509
vt 0.443692 0.326509
vt 0.443692 0.326509
vt 0.443692 0.326509
vt 0.443692 0.326509
vt 0.443692 0.326509
vt 0.443692 0.326509
vt 0.443692 0.326509
vt 0.443692 0.326509
vt 0.443692 0.326509
vt 0.443692 0.326509
vt 0.443692 0.326509
vt 0.443692 0.326509
vt 0.443692 0.326509
vt 0.443692 0.326509
vt 0.443692 0.326509
vt 0.443692 0.326509
vt 0.443692 0.326509
vt 0.443692 0.326509
vt 0.443692 0.326509
vt 0.443692 0.326509
vt 0.443692 0.326509
vt 0.443692 0.326509
vt 0.443692 0.326509
vt 0.443692 0.326509
vt 0.443692 0.326509
vt 0.443692 0.326509
vt 0.443692 0.326509
vt 0.443692 0.326509
vt 0.443692 0.326509
vt 0.443692 0.326509
vt 0.443692 0.326509
vt 0.443692 0.326509
vn 0.933083 0.359419 -0.013230
vn 0.929466 0.367151 0.035954
vn 0.915733 0.307008 -0.259190
vn 0.915733 0.307008 -0.259190
vn 0.000000 1.000000 -0.000000
vn 0.000000 1.000000 -0.000000
vn 0.000000 1.000000 -0.000000
vn 0.000000 1.000000 -0.000000
vn -0.906178 0.383882 -0.177415
vn -0.911940 0.381219 -0.151784
vn -0.678301 0.381767 -0.627823
vn -0.678301 0.381767 -0.627823
vn 0.108849 0.347892 -0.931195
vn 0.108849 0.347892 -0.931195
vn 0.108849 0.347892 -0.931195
vn 0.108849 0.347892 -0.931195
vn -0.149333 0.344257 0.926923
vn -0.149333 0.344257 0.926923
vn -0.149333 0.344257 0.926923
vn -0.149333 0.344257 0.926923
vn 0.000000 1.000000 0.000000
vn 0.000000 1.000000 -0.000000
vn 0.000000 1.000000 -0.000000
vn 0.000000 1.000000 0.000000
vn 0.752446 0.390354 0.530517
vn 0.929466 0.367151 0.035954
vn 0.933083 0.359419 -0.013230
vn 0.752446 0.390354 0.530517
vn -0.933870 0.339049 0.113718
vn -0.911940 0.381219 -0.151784
vn -0.906178 0.383882 -0.177415
vn -0.933870 0.339049 0.113718
vn -0.220124 0.363048 0.905396
vn -0.257037 0.369663 0.892906
vn 0.036035 0.303920 0.952016
vn 0.036035 0.303920 0.952016
vn 0.000000 1.000000 0.000000
vn 0.000000 1.000000 0.000000
vn 0.000000 1.000000 0.000000
vn 0.000000 1.000000 0.000000
vn 0.332541 0.392871 -0.857361
vn 0.247778 0.391617 -0.886139
vn 0.697320 0.354145 -0.623158
vn 0.697320 0.354145 -0.623158
vn 0.829583 0.344286 0.439614
vn 0.829583 0.344286 0.439614
vn 0.829583 0.344286 0.439614
vn 0.829583 0.344286 0.439614
vn -0.933686 0.344162 -0.098915
vn -0.933685 0.344162 -0.098915
vn -0.933685 0.344162 -0.098915
vn -0.933685 0.344162 -0.098915
vn 0.000000 1.000000 0.000000
vn 0.000000 1.000000 0.000000
vn 0.000000 1.000000 0.000000
vn 0.000000 1.000000 0.000000
vn -0.627672 0.402642 0.666264
vn -0.257037 0.369663 0.892906
vn -0.220124 0.363048 0.905396
vn -0.627672 0.402642 0.666264
vn -0.315612 0.310940 -0.896496
vn 0.247778 0.391617 -0.886139
vn 0.332541 0.392871 -0.857361
vn -0.315612 0.310940 -0.896496
vn 0.166760 0.363050 0.916726
vn 0.127957 0.369665 0.920312
vn 0.419770 0.303918 0.855235
vn 0.419770 0.303918 0.855235
vn 0.000000 1.000000 -0.000000
vn 0.000000 1.000000 -0.000000
vn 0.000000 1.000000 0.000000
vn 0.000000 1.000000 0.000000
vn -0.044508 0.392897 -0.918505
vn -0.133644 0.391641 -0.910361
vn 0.383949 0.354175 -0.852727
vn 0.383949 0.354175 -0.852727
vn 0.936653 0.344245 0.064621
vn 0.936654 0.344245 0.064621
vn 0.936653 0.344245 0.064621
vn 0.936653 0.344245 0.064621
vn -0.893315 0.344206 0.288984
vn -0.893314 0.344206 0.288984
vn -0.893314 0.344206 0.288984
vn -0.893314 0.344206 0.288984
vn 0.000000 1.000000 -0.000000
vn 0.000000 1.000000 -0.000000
vn 0.000000 1.000000 -0.000000
vn 0.000000 1.000000 -0.000000
vn -0.302806 0.402647 0.863819
vn 0.127957 0.369665 0.920312
vn 0.166760 0.363050 0.916726
vn -0.302806 0.402647 0.863819
vn -0.652634 0.310958 -0.690923
vn -0.133644 0.391641 -0.910361
vn -0.044508 0.392897 -0.918505
vn -0.652634 0.310958 -0.690923
vn -0.852860 0.363053 0.375263
vn -0.865369 0.369669 0.338351
vn -0.734242 0.303915 0.607063
vn -0.734242 0.303915 0.607063
vn 0.000000 1.000000 0.000000
vn 0.000000 1.000000 0.000000
vn 0.000000 1.000000 0.000000
vn 0.000000 1.000000 0.000000
vn 0.883022 0.392853 -0.256784
vn 0.854382 0.391595 -0.341590
vn 0.918624 0.354146 0.175245
vn 0.918624 0.354146 0.175245
vn 0.154848 0.344272 0.926012
vn 0.154848 0.344272 0.926012
vn 0.154848 0.344272 0.926012
vn 0.154848 0.344272 0.926012
vn -0.488719 0.344178 -0.801683
vn -0.488719 0.344178 -0.801683
vn -0.488719 0.344178 -0.801683
vn -0.488719 0.344178 -0.801683
vn 0.000000 1.000000 -0.000000
vn 0.000000 1.000000 0.000000
vn 0.000000 1.000000 0.000000
vn 0.000000 1.000000 -0.000000
vn -0.910539 0.402653 -0.093753
vn -0.865369 0.369669 0.338351
vn -0.852860 0.363053 0.375263
vn -0.910539 0.402653 -0.093753
vn 0.520320 0.310902 -0.795366
vn 0.854382 0.391595 -0.341590
vn 0.883022 0.392853 -0.256784
vn 0.520320 0.310902 -0.795366
vn -0.143220 0.359412 0.922123
vn -0.191098 0.367145 0.910322
vn 0.102174 0.306995 0.946211
vn 0.102174 0.306995 0.946211
vn 0.000000 1.000000 0.000000
vn 0.000000 1.000000 0.000000
vn 0.000000 1.000000 0.000000
vn 0.000000 1.000000 0.000000
vn 0.326651 0.383912 -0.863662
vn 0.302359 0.381249 -0.873630
vn 0.732534 0.381805 -0.563577
vn 0.732534 0.381805 -0.563577
vn 0.899810 0.347906 0.263256
vn 0.899810 0.347907 0.263256
vn 0.899810 0.347907 0.263256
vn 0.899810 0.347906 0.263256
vn -0.888815 0.344273 -0.302463
vn -0.888815 0.344273 -0.302463
vn -0.888815 0.344273 -0.302463
vn -0.888815 0.344273 -0.302463
vn 0.000000 1.000000 0.000000
vn 0.000000 1.000000 0.000000
vn 0.000000 1.000000 0.000000
vn 0.000000 1.000000 0.000000
vn -0.649023 0.390360 0.652984
vn -0.191098 0.367145 0.910322
vn -0.143220 0.359412 0.922123
vn -0.649023 0.390361 0.652984
vn 0.044278 0.339072 -0.939718
vn 0.302359 0.381249 -0.873630
vn 0.326651 0.383912 -0.863662
vn 0.044278 0.339072 -0.939718
s off
f 10/14/1 11/15/2 2/2/3 4/4/4
f 9/13/5 10/14/6 4/4/7 6/6/8
f 12/16/9 9/13/10 6/6/11 8/8/12
f 2/2/13 8/9/14 6/10/15 4/4/16
f 7/11/17 1/1/18 3/3/19 5/12/20
f 3/3/21 10/14/22 9/13/23 5/5/24
f 1/1/25 11/15/26 10/14/27 3/3/28
f 5/5/29 9/13/30 12/16/31 7/7/32
f 22/17/33 23/18/34 14/19/35 16/20/36
f 21/21/37 22/17/38 16/20/39 18/22/40
f 24/23/41 21/21/42 18/22/43 20/24/44
f 14/19/45 20/25/46 18/26/47 16/20/48
f 19/27/49 13/28/50 15/29/51 17/30/52
f 15/29/53 22/17/54 21/21/55 17/31/56
f 13/28/57 23/18/58 22/17/59 15/29/60
f 17/31/61 21/21/62 24/23/63 19/32/64
f 34/33/65 35/34/66 26/35/67 28/36/68
f 33/37/69 34/33/70 28/36/71 30/38/72
f 36/39/73 33/37/74 30/38/75 32/40/76
f 26/35/77 32/41/78 30/42/79 28/36/80
f 31/43/81 25/44/82 27/45/83 29/46/84
f 27/45/85 34/33/86 33/37/87 29/47/88
f 25/44/89 35/34/90 34/33/91 27/45/92
f 29/47/93 33/37/94 36/39/95 31/48/96
f 46/49/97 47/50/98 38/51/99 40/52/100
f 45/53/101 46/49/102 40/52/103 42/54/104
f 48/55/105 45/53/106 42/54/107 44/56/108
f 38/51/109 44/57/110 42/58/111 40/52/112
f 43/59/113 37/60/114 39/61/115 41/62/116
f 39/61/117 46/49/118 45/53/119 41/63/120
f 37/60/121 47/50/122 46/49/123 39/61/124
f 41/63/125 45/53/126 48/55/127 43/64/128
f 58/65/129 59/66/130 50/67/131 52/68/132
f 57/69/133 58/65/134 52/68/135 54/70/136
f 60/71/137 57/69/138 54/70/139 56/72/140
f 50/67/141 56/73/142 54/74/143 52/68/144
f 55/75/145 49/76/146 51/77/147 53/78/148
f 51/77/149 58/65/150 57/69/151 53/79/152
f 49/76/153 59/66/154 58/65/155 51/77/156
f 53/79/157 57/69/158 60/71/159 55/80/160
