# This file uses centimeters as units for non-parametric coordinates.

v -0.500000 0.000000 0.500000
v 0.622395 0.000000 0.165833
v -0.449253 0.157215 0.446457
v 0.559456 0.157215 0.146133
v -0.557434 0.157215 -0.330147
v 0.449459 0.157215 -0.452255
v -0.620373 0.000000 -0.364128
v 0.500000 0.000000 -0.500000
v 0.097038 0.157215 -0.621887
v -0.087757 0.157215 0.564629
v -0.097759 0.000000 0.631485
v 0.107861 0.000000 -0.688751
vt 0.443692 0.326509
vt 0.443692 0.326509
vt 0.443692 0.326509
vt 0.443692 0.326509
vt 0.443692 0.326509
vt 0.443692 0.326509
vt 0.443692 0.326509
vt 0.443692 0.326509
vt 0.443692 0.326509
vt 0.443692 0.326509
vt 0.443692 0.326509
vt 0.443692 0.326509
vt 0.443692 0.326509
vt 0.443692 0.326509
vt 0.443692 0.326509
vt 0.443692 0.326509
vn 0.286747 0.359419 0.888029
vn 0.238680 0.367149 0.899018
vn 0.516757 0.307008 0.799192
vn 0.516758 0.307008 0.799192
vn 0.000000 1.000000 -0.000000
vn 0.000000 1.000000 -0.000000
vn 0.000000 1.000000 0.000000
vn 0.000000 1.000000 0.000000
vn -0.096611 0.383904 -0.918305
vn -0.122791 0.381242 -0.916284
vn 0.400854 0.381789 -0.832798
vn 0.400854 0.381789 -0.832798
vn 0.922085 0.347894 -0.169499
vn 0.922085 0.347894 -0.169499
vn 0.922085 0.347894 -0.169499
vn 0.922085 0.347894 -0.169499
vn -0.929892 0.344271 0.129534
vn -0.929892 0.344271 0.129534
vn -0.929892 0.344271 0.129534
vn -0.929892 0.344271 0.129534
vn 0.000000 1.000000 -0.000000
vn 0.000000 1.000000 -0.000000
vn 0.000000 1.000000 -0.000000
vn 0.000000 1.000000 -0.000000
vn -0.286057 0.390353 0.875098
vn 0.238680 0.367149 0.899018
vn 0.286747 0.359419 0.888029
vn -0.286057 0.390353 0.875098
vn -0.383025 0.339070 -0.859257
vn -0.122791 0.381242 -0.916284
vn -0.096611 0.383904 -0.918305
vn -0.383025 0.339070 -0.859257
s off
f 10/14/1 11/15/2 2/2/3 4/4/4
f 9/13/5 10/14/6 4/4/7 6/6/8
f 12/16/9 9/13/10 6/6/11 8/8/12
f 2/2/13 8/9/14 6/10/15 4/4/16
f 7/11/17 1/1/18 3/3/19 5/12/20
f 3/3/21 10/14/22 9/13/23 5/5/24
f 1/1/25 11/15/26 10/14/27 3/3/28
f 5/5/29 9/13/30 12/16/31 7/7/32
