# This file uses centimeters as units for non-parametric coordinates.

v 2.500000 -0.000000 0.000000
v 0.000000 -0.000000 0.000000
v 2.500000 -0.000000 2.500000
v 0.000000 -0.000000 2.500000
v 0.000000 -0.000000 1.250000
v 2.500000 -0.000000 1.250000
v 0.000000 -0.000000 1.875000
v 2.500000 -0.000000 1.875000
v 0.000000 -0.000000 0.625000
v 2.500000 -0.000000 0.625000
v 0.000000 -0.000000 0.312500
v 2.500000 -0.000000 0.312500
v 0.000000 -0.000000 0.937500
v 2.500000 -0.000000 0.937500
v 0.000000 -0.000000 1.562500
v 2.500000 -0.000000 1.562500
v 0.000000 -0.000000 2.187500
v 2.500000 -0.000000 2.187500
v 0.000000 -0.000000 1.093750
v 2.500000 -0.000000 1.093750
v 0.000000 -0.000000 1.406250
v 2.500000 -0.000000 1.406250
v 0.000000 -0.016911 1.015625
v 2.500000 -0.016911 1.015625
v 0.000000 -0.016911 1.171875
v 2.500000 -0.016911 1.171875
v 0.000000 -0.016911 1.328125
v 2.500000 -0.016911 1.328125
v 0.000000 -0.016911 1.484375
v 2.500000 -0.016911 1.484375
v 0.000000 -0.000000 0.468750
v 2.500000 -0.000000 0.468750
v 0.000000 -0.016911 0.390625
v 2.500000 -0.016911 0.390625
v 0.000000 -0.016911 0.546875
v 2.500000 -0.016911 0.546875
v 0.000000 -0.000000 2.031250
v 2.500000 -0.000000 2.031250
v 0.000000 -0.016911 1.953125
v 2.500000 -0.016911 1.953125
v 0.000000 -0.016911 2.109375
v 2.500000 -0.016911 2.109375
v 0.721527 -0.000000 0.000000
v 0.904385 -0.000000 0.310078
v 0.987000 -0.016911 0.383518
v 0.983646 -0.000000 0.457348
v 0.956734 -0.016911 0.538101
v 1.031738 -0.000000 0.624374
v 0.808990 -0.000000 1.005173
v 0.758385 -0.016911 1.086189
v 0.755203 -0.000000 1.157532
v 0.842842 -0.016911 1.220119
v 0.948856 -0.000000 1.280766
v 1.005577 -0.016911 1.342976
v 0.986938 -0.000000 1.403370
v 0.926117 -0.016911 1.465141
v 0.920120 -0.000000 1.528786
v 1.030365 -0.000000 1.817616
v 1.006454 -0.016911 1.902840
v 0.958626 -0.000000 1.991150
v 0.893692 -0.016911 2.080906
v 0.826477 -0.000000 2.169983
v 0.721527 -0.000000 2.500000
v 1.759239 -0.000000 0.000000
v 1.763561 -0.000000 0.316998
v 1.862118 -0.016911 0.375896
v 1.868614 -0.000000 0.447830
v 1.880970 -0.016911 0.523823
v 1.920544 -0.000000 0.604786
v 1.777752 -0.000000 0.964554
v 1.805950 -0.016911 1.052082
v 1.762405 -0.000000 1.139046
v 1.701534 -0.016911 1.215145
v 1.758003 -0.000000 1.292236
v 1.913006 -0.016911 1.370632
v 1.991325 -0.000000 1.442085
v 1.940022 -0.016911 1.517235
v 1.862103 -0.000000 1.587585
v 1.773762 -0.000000 1.864799
v 1.762085 -0.016911 1.937077
v 1.670506 -0.000000 2.009842
v 1.609489 -0.016911 2.084351
v 1.680664 -0.000000 2.161098
v 1.773762 -0.000000 2.500000
vt 0.533094 0.079332
vt 0.533094 0.079332
vt 0.533094 0.079332
vt 0.533094 0.079332
vt 0.533094 0.079332
vt 0.533094 0.079332
vt 0.533094 0.079332
vt 0.533094 0.079332
vt 0.533094 0.079332
vt 0.533094 0.079332
vt 0.533094 0.079332
vt 0.533094 0.079332
vt 0.533094 0.079332
vt 0.533094 0.079332
vt 0.533094 0.079332
vt 0.533094 0.079332
vt 0.533094 0.079332
vt 0.533094 0.079332
vt 0.533094 0.079332
vt 0.533094 0.079332
vt 0.533094 0.079332
vt 0.533094 0.079332
vt 0.533094 0.079332
vt 0.533094 0.079332
vt 0.533094 0.079332
vt 0.533094 0.079332
vt 0.533094 0.079332
vt 0.533094 0.079332
vt 0.533094 0.079332
vt 0.533094 0.079332
vt 0.533094 0.079332
vt 0.533094 0.079332
vt 0.533094 0.079332
vt 0.533094 0.079332
vt 0.533094 0.079332
vt 0.533094 0.079332
vt 0.533094 0.079332
vt 0.533094 0.079332
vt 0.533094 0.079332
vt 0.533094 0.079332
vt 0.533094 0.079332
vt 0.533094 0.079332
vt 0.533094 0.079332
vt 0.533094 0.079332
vt 0.533094 0.079332
vt 0.533094 0.079332
vt 0.533094 0.079332
vt 0.533094 0.079332
vt 0.533094 0.079332
vt 0.533094 0.079332
vt 0.533094 0.079332
vt 0.533094 0.079332
vt 0.533094 0.079332
vt 0.533094 0.079332
vt 0.533094 0.079332
vt 0.533094 0.079332
vt 0.533094 0.079332
vt 0.533094 0.079332
vt 0.533094 0.079332
vt 0.533094 0.079332
vt 0.533094 0.079332
vt 0.533094 0.079332
vt 0.533094 0.079332
vt 0.533094 0.079332
vt 0.533094 0.079332
vt 0.533094 0.079332
vt 0.533094 0.079332
vt 0.533094 0.079332
vt 0.533094 0.079332
vt 0.533094 0.079332
vt 0.533094 0.079332
vt 0.533094 0.079332
vt 0.533094 0.079332
vt 0.533094 0.079332
vt 0.533094 0.079332
vt 0.533094 0.079332
vt 0.533094 0.079332
vt 0.533094 0.079332
vt 0.533094 0.079332
vt 0.533094 0.079332
vt 0.533094 0.079332
vt 0.533094 0.079332
vt 0.533094 0.079332
vt 0.533094 0.079332
vn 0.000000 1.000000 0.000000
vn 0.000000 1.000000 -0.000000
vn 0.000000 1.000000 -0.000000
vn 0.000000 1.000000 0.000000
vn 0.012699 0.979884 0.199162
vn -0.002640 0.971984 0.235034
vn 0.009874 0.978545 0.205796
vn 0.012699 0.979884 0.199162
vn -0.003928 0.975694 0.219104
vn -0.007470 0.976911 0.213514
vn -0.008032 0.977101 0.212626
vn -0.003928 0.975694 0.219104
vn 0.000000 1.000000 0.000000
vn 0.000000 1.000000 0.000000
vn 0.000000 1.000000 0.000000
vn 0.000000 1.000000 0.000000
vn -0.001793 0.970560 0.240853
vn -0.000184 0.969146 0.246487
vn -0.001395 0.970214 0.242246
vn -0.001793 0.970560 0.240853
vn 0.008905 0.980044 0.198582
vn 0.007849 0.980175 0.197977
vn 0.008109 0.980143 0.198126
vn 0.008905 0.980044 0.198582
vn 0.000000 1.000000 0.000000
vn 0.000000 1.000000 0.000000
vn 0.000000 1.000000 0.000000
vn 0.000000 1.000000 0.000000
vn 0.000000 1.000000 0.000000
vn 0.000000 1.000000 0.000000
vn 0.000000 1.000000 0.000000
vn 0.000000 1.000000 0.000000
vn 0.012624 0.975655 0.218945
vn 0.009691 0.974482 0.224255
vn 0.005417 0.972707 0.231975
vn 0.012624 0.975656 0.218945
vn 0.014140 0.975405 0.219965
vn 0.003058 0.974285 0.225297
vn -0.005593 0.973308 0.229436
vn 0.014140 0.975405 0.219965
vn -0.011627 0.978979 -0.203629
vn -0.009009 0.978407 -0.206493
vn -0.007076 0.977974 -0.208606
vn -0.011627 0.978979 -0.203629
vn -0.011594 0.977876 -0.208863
vn -0.003163 0.973300 -0.229515
vn -0.007929 0.975949 -0.217854
vn -0.011594 0.977876 -0.208863
vn -0.015226 0.976949 -0.212931
vn 0.004253 0.969551 -0.244852
vn -0.007733 0.974270 -0.225250
vn -0.015226 0.976949 -0.212931
vn -0.011009 0.973698 -0.227578
vn -0.002742 0.973017 -0.230716
vn 0.009455 0.971874 -0.235311
vn -0.011009 0.973698 -0.227578
vn -0.007557 0.976601 0.214924
vn -0.000873 0.977162 0.212495
vn -0.001938 0.977076 0.212883
vn -0.007557 0.976601 0.214924
vn 0.006184 0.975452 -0.220126
vn 0.001118 0.974665 -0.223666
vn 0.001622 0.974745 -0.223314
vn 0.006184 0.975452 -0.220126
vn 0.007571 0.977727 -0.209745
vn -0.000837 0.979934 -0.199321
vn 0.002236 0.979148 -0.203135
vn 0.007571 0.977727 -0.209745
vn -0.005782 0.976787 0.214133
vn -0.005054 0.977656 0.210153
vn -0.003941 0.978950 0.204062
vn -0.005782 0.976787 0.214133
vn 0.005154 0.976438 -0.215738
vn 0.005629 0.977259 -0.211974
vn 0.006741 0.979124 -0.203151
vn 0.005154 0.976438 -0.215738
vn 0.006503 0.976327 -0.216202
vn 0.001179 0.978950 -0.204095
vn 0.004602 0.977284 -0.211884
vn 0.006503 0.976327 -0.216202
vn 0.000000 1.000000 -0.000000
vn 0.000000 1.000000 -0.000000
vn 0.000000 1.000000 0.000000
vn 0.000000 1.000000 0.000000
vn 0.000378 0.971006 0.239054
vn 0.000899 0.974771 0.223204
vn 0.001095 0.976121 0.217224
vn 0.001095 0.976121 0.217225
vn -0.002112 0.975234 -0.221164
vn -0.002118 0.975168 -0.221458
vn -0.002041 0.976102 -0.217304
vn -0.002041 0.976102 -0.217304
vn 0.002397 0.977797 0.209543
vn 0.002524 0.977680 0.210083
vn 0.002169 0.978006 0.208565
vn 0.002169 0.978006 0.208565
vn -0.002871 0.980329 -0.197351
vn -0.001672 0.979858 -0.199689
vn -0.000950 0.979571 -0.201094
vn -0.000950 0.979571 -0.201094
vn 0.000000 1.000000 0.000000
vn 0.000000 1.000000 0.000000
vn 0.000000 1.000000 0.000000
vn 0.000000 1.000000 0.000000
vn -0.008000 0.979645 0.200578
vn 0.000290 0.979996 0.199015
vn -0.017852 0.979137 0.202416
vn -0.017852 0.979137 0.202416
vn 0.005004 0.976699 -0.214558
vn 0.004810 0.976716 -0.214481
vn 0.019550 0.975245 -0.220262
vn 0.019550 0.975245 -0.220263
vn -0.000279 0.971368 0.237580
vn -0.012400 0.970194 0.242013
vn -0.017084 0.969696 0.243716
vn -0.017084 0.969696 0.243716
vn 0.002593 0.970681 -0.240356
vn 0.009188 0.969799 -0.243732
vn 0.010785 0.969577 -0.244548
vn 0.010785 0.969577 -0.244548
vn -0.005511 0.970723 0.240139
vn -0.005516 0.971334 0.237654
vn -0.005518 0.971640 0.236402
vn -0.005518 0.971640 0.236402
vn 0.004281 0.970033 -0.242936
vn 0.005531 0.969376 -0.245520
vn 0.001424 0.971505 -0.237017
vn 0.001424 0.971505 -0.237017
vn -0.000986 0.972023 0.234882
vn -0.007178 0.972492 0.232824
vn 0.002730 0.971722 0.236113
vn 0.002730 0.971722 0.236113
vn 0.003089 0.972110 -0.234505
vn 0.004072 0.972053 -0.234724
vn -0.006662 0.972617 -0.232317
vn -0.006662 0.972617 -0.232317
vn 0.000000 1.000000 0.000000
vn 0.000000 1.000000 0.000000
vn 0.000000 1.000000 0.000000
vn 0.000000 1.000000 0.000000
vn 0.003280 0.978678 0.205373
vn -0.000410 0.978569 0.205917
vn 0.010797 0.978858 0.204255
vn 0.010797 0.978858 0.204255
vn -0.004586 0.979564 -0.201080
vn 0.000535 0.979713 -0.200405
vn -0.009277 0.979405 -0.201694
vn -0.009277 0.979405 -0.201694
vn 0.004784 0.979778 0.200033
vn 0.000613 0.979858 0.199695
vn 0.007412 0.979718 0.200244
vn 0.007412 0.979718 0.200244
vn -0.004075 0.979748 -0.200194
vn -0.002133 0.979797 -0.199985
vn -0.005356 0.979714 -0.200331
vn -0.005356 0.979714 -0.200331
vn 0.000000 1.000000 0.000000
vn 0.000000 1.000000 0.000000
vn 0.000000 1.000000 0.000000
vn 0.000000 1.000000 0.000000
vn 0.000000 1.000000 -0.000000
vn 0.000000 1.000000 -0.000000
vn 0.000000 1.000000 -0.000000
vn 0.000000 1.000000 -0.000000
vn -0.001395 0.970214 0.242246
vn -0.000184 0.969146 0.246487
vn 0.000899 0.974771 0.223204
vn 0.000378 0.971006 0.239054
vn 0.001622 0.974745 -0.223314
vn 0.001118 0.974665 -0.223666
vn -0.002118 0.975168 -0.221458
vn -0.002112 0.975234 -0.221164
vn -0.001938 0.977076 0.212883
vn -0.000873 0.977162 0.212495
vn 0.002524 0.977680 0.210083
vn 0.002397 0.977797 0.209543
vn 0.002236 0.979148 -0.203135
vn -0.000837 0.979934 -0.199321
vn -0.001672 0.979858 -0.199689
vn -0.002871 0.980329 -0.197351
vn 0.000000 1.000000 0.000000
vn 0.000000 1.000000 0.000000
vn 0.000000 1.000000 0.000000
vn 0.000000 1.000000 0.000000
vn 0.008109 0.980143 0.198126
vn 0.007849 0.980175 0.197977
vn 0.000290 0.979996 0.199015
vn -0.008000 0.979645 0.200578
vn -0.007076 0.977974 -0.208606
vn -0.009009 0.978407 -0.206493
vn 0.004810 0.976716 -0.214481
vn 0.005004 0.976699 -0.214558
vn 0.005417 0.972707 0.231975
vn 0.009691 0.974482 0.224255
vn -0.012400 0.970194 0.242013
vn -0.000279 0.971368 0.237580
vn -0.007929 0.975949 -0.217854
vn -0.003163 0.973300 -0.229515
vn 0.009188 0.969799 -0.243732
vn 0.002593 0.970681 -0.240356
vn 0.009874 0.978545 0.205796
vn -0.002640 0.971984 0.235034
vn -0.005516 0.971334 0.237654
vn -0.005511 0.970723 0.240139
vn -0.007733 0.974270 -0.225250
vn 0.004253 0.969551 -0.244852
vn 0.005531 0.969376 -0.245520
vn 0.004281 0.970033 -0.242936
vn -0.005593 0.973308 0.229436
vn 0.003058 0.974285 0.225297
vn -0.007178 0.972492 0.232824
vn -0.000986 0.972023 0.234882
vn 0.009455 0.971874 -0.235311
vn -0.002742 0.973017 -0.230716
vn 0.004072 0.972053 -0.234724
vn 0.003089 0.972110 -0.234505
vn 0.000000 1.000000 0.000000
vn 0.000000 1.000000 0.000000
vn 0.000000 1.000000 0.000000
vn 0.000000 1.000000 0.000000
vn -0.008032 0.977101 0.212626
vn -0.007470 0.976911 0.213514
vn -0.000410 0.978569 0.205917
vn 0.003280 0.978678 0.205373
vn 0.006741 0.979124 -0.203151
vn 0.005629 0.977259 -0.211974
vn 0.000535 0.979713 -0.200405
vn -0.004586 0.979564 -0.201080
vn -0.003941 0.978950 0.204062
vn -0.005054 0.977656 0.210153
vn 0.000613 0.979858 0.199695
vn 0.004784 0.979778 0.200033
vn 0.004602 0.977284 -0.211884
vn 0.001179 0.978950 -0.204095
vn -0.002133 0.979797 -0.199985
vn -0.004075 0.979748 -0.200194
vn 0.000000 1.000000 0.000000
vn 0.000000 1.000000 0.000000
vn 0.000000 1.000000 0.000000
vn 0.000000 1.000000 0.000000
s off
f 1/1/1 64/64/2 65/65/3 12/12/4
f 6/6/5 74/74/6 75/75/7 28/28/8
f 8/8/9 79/79/10 80/80/11 40/40/12
f 10/10/13 69/69/14 70/70/15 14/14/16
f 12/12/17 65/65/18 66/66/19 34/34/20
f 14/14/21 70/70/22 71/71/23 24/24/24
f 16/16/25 78/78/26 79/79/27 8/8/28
f 18/18/29 83/83/30 84/84/31 3/3/32
f 20/20/33 72/72/34 73/73/35 26/26/36
f 22/22/37 76/76/38 77/77/39 30/30/40
f 24/24/41 71/71/42 72/72/43 20/20/44
f 26/26/45 73/73/46 74/74/47 6/6/48
f 28/28/49 75/75/50 76/76/51 22/22/52
f 30/30/53 77/77/54 78/78/55 16/16/56
f 32/32/57 67/67/58 68/68/59 36/36/60
f 34/34/61 66/66/62 67/67/63 32/32/64
f 36/36/65 68/68/66 69/69/67 10/10/68
f 38/38/69 81/81/70 82/82/71 42/42/72
f 40/40/73 80/80/74 81/81/75 38/38/76
f 42/42/77 82/82/78 83/83/79 18/18/80
f 44/44/81 43/43/82 2/2/83 11/11/84
f 45/45/85 44/44/86 11/11/87 33/33/88
f 46/46/89 45/45/90 33/33/91 31/31/92
f 47/47/93 46/46/94 31/31/95 35/35/96
f 48/48/97 47/47/98 35/35/99 9/9/100
f 49/49/101 48/48/102 9/9/103 13/13/104
f 50/50/105 49/49/106 13/13/107 23/23/108
f 51/51/109 50/50/110 23/23/111 19/19/112
f 52/52/113 51/51/114 19/19/115 25/25/116
f 53/53/117 52/52/118 25/25/119 5/5/120
f 54/54/121 53/53/122 5/5/123 27/27/124
f 55/55/125 54/54/126 27/27/127 21/21/128
f 56/56/129 55/55/130 21/21/131 29/29/132
f 57/57/133 56/56/134 29/29/135 15/15/136
f 58/58/137 57/57/138 15/15/139 7/7/140
f 59/59/141 58/58/142 7/7/143 39/39/144
f 60/60/145 59/59/146 39/39/147 37/37/148
f 61/61/149 60/60/150 37/37/151 41/41/152
f 62/62/153 61/61/154 41/41/155 17/17/156
f 63/63/157 62/62/158 17/17/159 4/4/160
f 65/65/161 64/64/162 43/43/163 44/44/164
f 66/66/165 65/65/166 44/44/167 45/45/168
f 67/67/169 66/66/170 45/45/171 46/46/172
f 68/68/173 67/67/174 46/46/175 47/47/176
f 69/69/177 68/68/178 47/47/179 48/48/180
f 70/70/181 69/69/182 48/48/183 49/49/184
f 71/71/185 70/70/186 49/49/187 50/50/188
f 72/72/189 71/71/190 50/50/191 51/51/192
f 73/73/193 72/72/194 51/51/195 52/52/196
f 74/74/197 73/73/198 52/52/199 53/53/200
f 75/75/201 74/74/202 53/53/203 54/54/204
f 76/76/205 75/75/206 54/54/207 55/55/208
f 77/77/209 76/76/210 55/55/211 56/56/212
f 78/78/213 77/77/214 56/56/215 57/57/216
f 79/79/217 78/78/218 57/57/219 58/58/220
f 80/80/221 79/79/222 58/58/223 59/59/224
f 81/81/225 80/80/226 59/59/227 60/60/228
f 82/82/229 81/81/230 60/60/231 61/61/232
f 83/83/233 82/82/234 61/61/235 62/62/236
f 84/84/237 83/83/238 62/62/239 63/63/240
