# This file uses centimeters as units for non-parametric coordinates.

v -5.580711 0.000000 5.194263
v -0.713631 0.000000 7.974104
v 1.999741 0.000000 7.450758
v 2.523293 0.075385 4.609877
v 3.906921 0.116732 4.439116
v -1.508713 0.243898 4.735785
v 5.626244 0.000000 5.400206
v -7.049759 0.058216 0.576919
v -7.798630 0.000000 -1.348666
v -5.195023 0.360597 1.881464
v -0.849045 0.837160 2.585321
v 0.907967 0.434654 1.198079
v 6.403343 0.095818 -0.390115
v -5.377907 0.323242 -0.621381
v -0.011826 0.702847 -4.426933
v 5.915253 0.000000 -5.179076
v -2.398949 0.412338 -4.879669
v -5.923050 0.000000 -5.566710
v -3.623779 0.140020 -5.387609
v 2.803398 0.216430 -6.234227
v -4.170052 0.000000 -6.706496
v 5.273941 0.000000 -5.918013
v 5.300850 0.408929 -1.816501
v -4.800095 0.506278 -3.063680
v 1.100616 0.533307 -3.900736
v 2.286804 0.480391 -5.048450
v -3.314240 0.582517 -4.164246
v -0.495949 0.441407 -5.819574
v 0.040710 0.585709 -5.130437
v 4.868790 0.090785 -3.902007
v -7.208435 0.000000 -3.685239
v -4.526398 0.122397 -4.293050
v 3.780121 0.589482 -3.123719
v 3.304710 0.448556 -4.573652
v 0.968567 0.251430 -5.446123
v 3.708046 0.210311 -5.173047
v -0.851509 0.084591 -6.869341
v 4.770020 0.031410 -5.239471
v 3.433342 0.000000 -7.550140
v 1.779228 0.112189 -6.815736
v -3.610176 0.000000 7.017334
v 0.779587 0.000000 7.979464
v -4.568497 0.047567 5.482128
v -2.058594 0.136941 5.526833
v 0.454544 0.107481 7.189816
v 3.907951 0.000000 6.594154
v 7.238403 0.000000 3.099453
v -7.798630 0.000000 2.179152
v -3.538696 0.407529 3.836589
v -0.437668 0.438487 5.617741
v -4.107582 0.239001 3.105907
v -0.796753 0.731509 3.506376
v 5.626503 0.203049 3.295604
v -2.920311 0.474012 2.719477
v 0.696480 0.437352 3.558282
v 1.582680 0.526617 2.084716
v 3.755455 0.360383 1.977265
v -1.473198 1.202545 1.362783
v -0.878387 1.161564 0.721590
v 0.237823 0.513377 1.237500
v 2.292404 0.825566 0.602485
v 6.099152 0.297688 1.855932
v -6.079216 0.087873 2.550693
v -2.956131 0.653821 1.907793
v 0.972412 0.540756 -0.010213
v -3.635201 0.468350 -0.804403
v -2.179718 1.154885 0.306916
v 0.251266 0.660028 -0.235877
v -6.275734 0.267287 0.061721
v -3.106125 0.867346 0.233197
v 1.612732 0.487120 -2.421672
v -2.736816 0.661307 -1.385127
v -1.085350 0.765490 -2.142646
v 0.288277 0.472676 -1.830994
v 2.752815 0.601617 -2.230318
v -3.702919 0.795406 -2.164734
v -2.735336 0.708571 -2.657720
v 7.798630 0.000000 -2.115583
v -6.419197 0.186546 -2.309901
v -4.780121 0.507543 -1.796475
v 6.182762 0.173970 -2.423245
v -0.861389 0.000000 -7.979465
vt 0.966424 0.505091
vt 0.966424 0.505091
vt 0.966424 0.505091
vt 0.966424 0.505091
vt 0.966424 0.505091
vt 0.966424 0.505091
vt 0.966424 0.505091
vt 0.966424 0.505091
vt 0.966424 0.505091
vt 0.966424 0.505091
vt 0.966424 0.505091
vt 0.966424 0.505091
vt 0.966424 0.505091
vt 0.966424 0.505091
vt 0.966424 0.505091
vt 0.966424 0.505091
vt 0.966424 0.505091
vt 0.966424 0.505091
vt 0.966424 0.505091
vt 0.966424 0.505091
vt 0.966424 0.505091
vt 0.966424 0.505091
vt 0.966424 0.505091
vt 0.966424 0.505091
vt 0.966424 0.505091
vt 0.966424 0.505091
vt 0.966424 0.505091
vt 0.966424 0.505091
vt 0.966424 0.505091
vt 0.966424 0.505091
vt 0.966424 0.505091
vt 0.966424 0.505091
vt 0.966424 0.505091
vt 0.966424 0.505091
vt 0.966424 0.505091
vt 0.966424 0.505091
vt 0.966424 0.505091
vt 0.966424 0.505091
vt 0.966424 0.505091
vt 0.966424 0.505091
vt 0.966424 0.505091
vt 0.966424 0.505091
vt 0.966424 0.505091
vt 0.966424 0.505091
vt 0.966424 0.505091
vt 0.966424 0.505091
vt 0.966424 0.505091
vt 0.966424 0.505091
vt 0.966424 0.505091
vt 0.966424 0.505091
vt 0.966424 0.505091
vt 0.966424 0.505091
vt 0.966424 0.505091
vt 0.966424 0.505091
vt 0.966424 0.505091
vt 0.966424 0.505091
vt 0.966424 0.505091
vt 0.966424 0.505091
vt 0.966424 0.505091
vt 0.966424 0.505091
vt 0.966424 0.505091
vt 0.966424 0.505091
vt 0.966424 0.505091
vt 0.966424 0.505091
vt 0.966424 0.505091
vt 0.966424 0.505091
vt 0.966424 0.505091
vt 0.966424 0.505091
vt 0.966424 0.505091
vt 0.966424 0.505091
vt 0.966424 0.505091
vt 0.966424 0.505091
vt 0.966424 0.505091
vt 0.966424 0.505091
vt 0.966424 0.505091
vt 0.966424 0.505091
vt 0.966424 0.505091
vt 0.966424 0.505091
vt 0.966424 0.505091
vt 0.966424 0.505091
vt 0.966424 0.505091
vt 0.966424 0.505091
vn -0.067513 0.995046 0.072974
vn -0.067513 0.995046 0.072974
vn -0.067513 0.995046 0.072974
vn -0.012882 0.999156 0.039000
vn -0.012882 0.999156 0.039000
vn -0.012882 0.999156 0.039000
vn -0.059482 0.997243 0.044366
vn -0.059482 0.997243 0.044366
vn -0.059482 0.997243 0.044366
vn -0.036835 0.996427 0.076000
vn -0.036835 0.996427 0.076000
vn -0.036835 0.996427 0.076000
vn -0.000485 0.990837 0.135065
vn -0.000485 0.990837 0.135065
vn -0.000485 0.990837 0.135065
vn -0.039616 0.996204 0.077516
vn -0.039616 0.996204 0.077516
vn -0.039616 0.996204 0.077516
vn -0.190689 0.933163 0.304703
vn -0.190689 0.933163 0.304703
vn -0.190689 0.933163 0.304703
vn 0.049659 0.992169 0.114605
vn 0.049659 0.992169 0.114605
vn 0.049659 0.992169 0.114605
vn 0.159644 0.980357 0.115815
vn 0.159644 0.980357 0.115815
vn 0.159644 0.980357 0.115815
vn 0.050163 0.992470 0.111746
vn 0.050163 0.992470 0.111746
vn 0.050163 0.992470 0.111746
vn 0.033606 0.999330 0.014515
vn 0.033606 0.999330 0.014515
vn 0.033606 0.999330 0.014515
vn -0.023157 0.998268 0.054085
vn -0.023157 0.998268 0.054085
vn -0.023157 0.998268 0.054085
vn 0.037544 0.997833 0.054032
vn 0.037544 0.997833 0.054032
vn 0.037544 0.997833 0.054032
vn -0.038324 0.980921 0.190593
vn -0.038324 0.980921 0.190593
vn -0.038324 0.980921 0.190593
vn -0.183195 0.983061 0.005575
vn -0.183195 0.983061 0.005575
vn -0.183195 0.983061 0.005575
vn -0.017446 0.994881 0.099538
vn -0.017446 0.994881 0.099538
vn -0.017446 0.994881 0.099538
vn -0.060593 0.997167 0.044572
vn -0.060593 0.997167 0.044572
vn -0.060593 0.997167 0.044572
vn -0.053469 0.998506 0.011289
vn -0.053469 0.998506 0.011289
vn -0.053469 0.998506 0.011289
vn -0.304725 0.952278 0.017611
vn -0.304725 0.952278 0.017611
vn -0.304725 0.952278 0.017611
vn -0.093597 0.993684 0.061898
vn -0.093597 0.993684 0.061898
vn -0.093597 0.993684 0.061898
vn 0.015670 0.989357 0.144664
vn 0.015670 0.989357 0.144664
vn 0.015670 0.989357 0.144664
vn -0.319903 0.929529 0.183407
vn -0.319903 0.929529 0.183407
vn -0.319903 0.929529 0.183407
vn 0.188781 0.976558 0.103424
vn 0.188781 0.976558 0.103424
vn 0.188781 0.976558 0.103424
vn 0.148514 0.985567 0.081244
vn 0.148514 0.985567 0.081244
vn 0.148514 0.985567 0.081244
vn -0.077505 0.996992 0.000000
vn -0.077505 0.996992 0.000000
vn -0.077505 0.996992 0.000000
vn -0.212444 0.975357 -0.059554
vn -0.212444 0.975357 -0.059554
vn -0.212444 0.975357 -0.059554
vn -0.208581 0.944495 0.253818
vn -0.208581 0.944495 0.253818
vn -0.208581 0.944495 0.253818
vn 0.043371 0.995584 0.083260
vn 0.043371 0.995584 0.083260
vn 0.043371 0.995584 0.083260
vn 0.146250 0.973847 0.173875
vn 0.146250 0.973847 0.173875
vn 0.146250 0.973847 0.173875
vn -0.026532 0.982302 0.185417
vn -0.026532 0.982302 0.185417
vn -0.026532 0.982302 0.185417
vn 0.012955 0.995132 0.097692
vn 0.012955 0.995132 0.097692
vn 0.012955 0.995132 0.097692
vn -0.134908 0.967062 0.215848
vn -0.134908 0.967062 0.215848
vn -0.134908 0.967062 0.215848
vn -0.163765 0.978977 0.121593
vn -0.163765 0.978977 0.121593
vn -0.163765 0.978977 0.121593
vn 0.378949 0.921580 0.084196
vn 0.378949 0.921580 0.084196
vn 0.378949 0.921580 0.084196
vn 0.193478 0.981086 -0.006098
vn 0.193478 0.981086 -0.006098
vn 0.193478 0.981086 -0.006098
vn 0.117207 0.993063 0.009367
vn 0.117207 0.993063 0.009367
vn 0.117207 0.993063 0.009367
vn -0.119723 0.992737 -0.011863
vn -0.119723 0.992737 -0.011863
vn -0.119723 0.992737 -0.011863
vn 0.119357 0.984118 0.131396
vn 0.119357 0.984118 0.131396
vn 0.119357 0.984118 0.131396
vn 0.016032 0.995250 0.096022
vn 0.016032 0.995250 0.096022
vn 0.016032 0.995250 0.096022
vn 0.030572 0.996673 0.075555
vn 0.030572 0.996673 0.075555
vn 0.030572 0.996673 0.075555
vn 0.135805 0.986155 0.095160
vn 0.135805 0.986155 0.095160
vn 0.135805 0.986155 0.095160
vn -0.139930 0.926825 0.348446
vn -0.139930 0.926825 0.348446
vn -0.139930 0.926825 0.348446
vn -0.120104 0.968132 0.219764
vn -0.120104 0.968132 0.219764
vn -0.120104 0.968132 0.219764
vn -0.266524 0.938466 0.219652
vn -0.266524 0.938466 0.219652
vn -0.266524 0.938466 0.219652
vn 0.241330 0.956703 0.162726
vn 0.241330 0.956703 0.162726
vn 0.241330 0.956703 0.162726
vn 0.445138 0.883355 0.146749
vn 0.445138 0.883355 0.146749
vn 0.445138 0.883355 0.146749
vn 0.137368 0.984414 0.109811
vn 0.137368 0.984414 0.109811
vn 0.137368 0.984414 0.109811
vn -0.201757 0.969139 0.141646
vn -0.201757 0.969139 0.141646
vn -0.201757 0.969139 0.141646
vn -0.292856 0.943777 0.153361
vn -0.292856 0.943777 0.153361
vn -0.292856 0.943777 0.153361
vn -0.238403 0.967779 0.081039
vn -0.238403 0.967779 0.081039
vn -0.238403 0.967779 0.081039
vn 0.298507 0.953334 -0.045256
vn 0.298507 0.953334 -0.045256
vn 0.298507 0.953334 -0.045256
vn -0.205717 0.974780 0.086508
vn -0.205717 0.974781 0.086508
vn -0.205717 0.974781 0.086508
vn -0.232067 0.968697 0.088149
vn -0.232067 0.968698 0.088149
vn -0.232067 0.968697 0.088149
vn -0.094526 0.978900 0.181162
vn -0.094526 0.978900 0.181162
vn -0.094526 0.978900 0.181162
vn -0.303868 0.941268 0.147237
vn -0.303868 0.941268 0.147237
vn -0.303868 0.941268 0.147237
vn 0.467997 0.878954 0.091755
vn 0.467997 0.878954 0.091755
vn 0.467997 0.878954 0.091755
vn 0.132025 0.986253 0.099371
vn 0.132025 0.986253 0.099371
vn 0.132025 0.986253 0.099371
vn 0.121570 0.988192 0.093258
vn 0.121570 0.988192 0.093258
vn 0.121570 0.988192 0.093258
vn -0.242203 0.967547 0.072044
vn -0.242203 0.967547 0.072044
vn -0.242203 0.967547 0.072044
vn 0.200617 0.972817 0.115672
vn 0.200617 0.972817 0.115672
vn 0.200617 0.972817 0.115672
vn 0.022164 0.996004 -0.086517
vn 0.022164 0.996004 -0.086517
vn 0.022164 0.996004 -0.086517
vn -0.357497 0.918167 -0.170781
vn -0.357497 0.918167 -0.170781
vn -0.357497 0.918167 -0.170781
vn 0.011741 0.998529 -0.052928
vn 0.011741 0.998529 -0.052928
vn 0.011741 0.998529 -0.052928
vn -0.122035 0.992372 0.017458
vn -0.122035 0.992372 0.017458
vn -0.122035 0.992372 0.017458
vn -0.270881 0.962473 -0.016382
vn -0.270881 0.962474 -0.016382
vn -0.270881 0.962474 -0.016382
vn -0.069625 0.997525 -0.009800
vn -0.069625 0.997525 -0.009800
vn -0.069625 0.997525 -0.009800
vn -0.083887 0.996437 -0.008742
vn -0.083887 0.996437 -0.008742
vn -0.083887 0.996437 -0.008742
vn -0.266342 0.926376 -0.266252
vn -0.266342 0.926376 -0.266252
vn -0.266342 0.926376 -0.266252
vn -0.179482 0.981304 -0.069485
vn -0.179482 0.981304 -0.069485
vn -0.179482 0.981304 -0.069485
vn -0.023606 0.999315 -0.028495
vn -0.023606 0.999315 -0.028495
vn -0.023606 0.999315 -0.028495
vn -0.322974 0.926790 -0.191699
vn -0.322974 0.926790 -0.191699
vn -0.322974 0.926790 -0.191699
vn -0.132830 0.978952 -0.154947
vn -0.132830 0.978952 -0.154947
vn -0.132830 0.978952 -0.154947
vn 0.039427 0.989413 -0.139666
vn 0.039427 0.989413 -0.139666
vn 0.039427 0.989413 -0.139666
vn 0.290877 0.944665 -0.151651
vn 0.290877 0.944665 -0.151651
vn 0.290877 0.944665 -0.151651
vn 0.230686 0.966991 -0.108223
vn 0.230686 0.966991 -0.108223
vn 0.230686 0.966991 -0.108223
vn 0.195574 0.974509 -0.109922
vn 0.195574 0.974509 -0.109922
vn 0.195574 0.974509 -0.109922
vn 0.065316 0.995963 0.061579
vn 0.065316 0.995963 0.061579
vn 0.065316 0.995963 0.061579
vn -0.055804 0.970142 0.236031
vn -0.055804 0.970142 0.236031
vn -0.055804 0.970142 0.236031
vn 0.108018 0.993459 0.037022
vn 0.108018 0.993459 0.037022
vn 0.108018 0.993459 0.037022
vn -0.045994 0.998255 0.037022
vn -0.045994 0.998255 0.037022
vn -0.045994 0.998255 0.037022
vn 0.194064 0.978876 0.064358
vn 0.194064 0.978876 0.064358
vn 0.194064 0.978876 0.064358
vn -0.084183 0.992183 -0.092121
vn -0.084183 0.992183 -0.092121
vn -0.084183 0.992183 -0.092121
vn 0.085688 0.994221 -0.064672
vn 0.085688 0.994221 -0.064672
vn 0.085688 0.994221 -0.064672
vn 0.190256 0.979381 0.067933
vn 0.190256 0.979382 0.067933
vn 0.190256 0.979382 0.067933
vn 0.078944 0.996843 0.008481
vn 0.078944 0.996843 0.008481
vn 0.078944 0.996843 0.008481
vn -0.084010 0.996048 -0.028828
vn -0.084010 0.996048 -0.028828
vn -0.084010 0.996048 -0.028828
vn -0.206498 0.977258 0.048228
vn -0.206498 0.977258 0.048228
vn -0.206498 0.977258 0.048228
vn -0.069882 0.990339 0.119773
vn -0.069882 0.990339 0.119773
vn -0.069882 0.990339 0.119773
vn -0.222873 0.969110 0.105610
vn -0.222873 0.969110 0.105610
vn -0.222873 0.969110 0.105610
vn -0.173842 0.955488 0.238372
vn -0.173842 0.955488 0.238372
vn -0.173842 0.955488 0.238372
vn -0.022596 0.999022 -0.038016
vn -0.022596 0.999022 -0.038016
vn -0.022596 0.999022 -0.038016
vn 0.027125 0.995997 0.085175
vn 0.027125 0.995997 0.085175
vn 0.027125 0.995997 0.085175
vn 0.162350 0.986406 -0.025410
vn 0.162350 0.986406 -0.025410
vn 0.162350 0.986406 -0.025410
vn 0.055955 0.998364 0.011802
vn 0.055955 0.998364 0.011802
vn 0.055955 0.998364 0.011802
vn 0.120707 0.989911 -0.074209
vn 0.120707 0.989911 -0.074209
vn 0.120707 0.989911 -0.074209
vn 0.101890 0.994425 0.027170
vn 0.101890 0.994425 0.027170
vn 0.101890 0.994425 0.027170
vn -0.215899 0.975128 -0.050124
vn -0.215899 0.975128 -0.050124
vn -0.215899 0.975128 -0.050124
vn -0.044128 0.965491 -0.256672
vn -0.044128 0.965491 -0.256672
vn -0.044128 0.965491 -0.256672
vn -0.087737 0.994911 -0.049532
vn -0.087737 0.994911 -0.049532
vn -0.087737 0.994911 -0.049532
vn -0.092323 0.985070 -0.145308
vn -0.092323 0.985070 -0.145308
vn -0.092323 0.985070 -0.145308
vn -0.087225 0.981584 -0.169955
vn -0.087225 0.981584 -0.169955
vn -0.087225 0.981584 -0.169955
vn 0.215620 0.965697 -0.144695
vn 0.215620 0.965697 -0.144695
vn 0.215620 0.965697 -0.144695
vn -0.095396 0.995072 -0.027029
vn -0.095396 0.995072 -0.027029
vn -0.095396 0.995072 -0.027029
vn -0.022357 0.998978 -0.039276
vn -0.022357 0.998978 -0.039276
vn -0.022357 0.998978 -0.039276
vn 0.262925 0.964778 0.008560
vn 0.262925 0.964778 0.008560
vn 0.262925 0.964778 0.008560
vn -0.334921 0.875633 -0.347986
vn -0.334921 0.875633 -0.347986
vn -0.334921 0.875633 -0.347986
vn -0.300904 0.889199 -0.344649
vn -0.300904 0.889199 -0.344649
vn -0.300904 0.889199 -0.344649
vn 0.091649 0.988781 -0.117952
vn 0.091649 0.988781 -0.117952
vn 0.091649 0.988781 -0.117952
vn -0.084563 0.986434 -0.140703
vn -0.084563 0.986434 -0.140703
vn -0.084563 0.986434 -0.140703
vn 0.272984 0.942017 -0.195148
vn 0.272984 0.942017 -0.195148
vn 0.272984 0.942017 -0.195148
vn -0.119183 0.978506 -0.168292
vn -0.119183 0.978506 -0.168292
vn -0.119183 0.978506 -0.168292
vn -0.118720 0.978314 -0.169729
vn -0.118720 0.978314 -0.169729
vn -0.118720 0.978314 -0.169729
vn 0.089367 0.988081 -0.125340
vn 0.089367 0.988081 -0.125340
vn 0.089367 0.988081 -0.125340
vn 0.284862 0.937051 -0.201963
vn 0.284862 0.937051 -0.201963
vn 0.284862 0.937051 -0.201963
vn 0.137717 0.974494 -0.177188
vn 0.137717 0.974494 -0.177188
vn 0.137718 0.974494 -0.177188
vn -0.161819 0.985974 -0.040874
vn -0.161819 0.985974 -0.040874
vn -0.161819 0.985974 -0.040874
vn -0.320373 0.913850 -0.249479
vn -0.320373 0.913850 -0.249479
vn -0.320373 0.913850 -0.249479
vn -0.076257 0.943654 -0.322029
vn -0.076257 0.943654 -0.322029
vn -0.076257 0.943654 -0.322029
vn 0.208386 0.912024 -0.353252
vn 0.208387 0.912024 -0.353252
vn 0.208386 0.912024 -0.353252
vn 0.282462 0.941444 -0.184114
vn 0.282462 0.941444 -0.184114
vn 0.282462 0.941444 -0.184114
vn 0.297727 0.936791 -0.183798
vn 0.297727 0.936791 -0.183798
vn 0.297727 0.936791 -0.183798
vn 0.030832 0.997346 -0.065954
vn 0.030832 0.997346 -0.065954
vn 0.030832 0.997346 -0.065954
vn 0.162471 0.985138 -0.055732
vn 0.162471 0.985138 -0.055732
vn 0.162471 0.985138 -0.055732
vn -0.014542 0.998957 -0.043273
vn -0.014542 0.998958 -0.043273
vn -0.014542 0.998958 -0.043273
vn -0.123676 0.967519 -0.220480
vn -0.123676 0.967519 -0.220480
vn -0.123676 0.967519 -0.220480
vn -0.130233 0.951346 -0.279250
vn -0.130233 0.951346 -0.279250
vn -0.130233 0.951346 -0.279250
vn 0.019290 0.977676 -0.209230
vn 0.019290 0.977676 -0.209230
vn 0.019290 0.977676 -0.209230
vn 0.156581 0.949465 -0.272028
vn 0.156581 0.949465 -0.272028
vn 0.156581 0.949465 -0.272028
vn 0.172801 0.974712 -0.141690
vn 0.172801 0.974712 -0.141690
vn 0.172801 0.974712 -0.141690
vn -0.067118 0.993098 -0.096184
vn -0.067118 0.993098 -0.096184
vn -0.067118 0.993098 -0.096184
vn -0.058899 0.996505 -0.059233
vn -0.058899 0.996505 -0.059233
vn -0.058899 0.996505 -0.059233
vn -0.098011 0.993071 -0.064835
vn -0.098011 0.993071 -0.064835
vn -0.098011 0.993071 -0.064835
vn 0.000000 1.000000 0.000000
vn 0.000000 1.000000 0.000000
vn 0.000000 1.000000 0.000000
vn -0.029944 0.995192 -0.093252
vn -0.029944 0.995192 -0.093252
vn -0.029944 0.995192 -0.093252
vn -0.003400 0.947147 -0.320783
vn -0.003400 0.947147 -0.320783
vn -0.003400 0.947146 -0.320783
vn 0.133984 0.990752 -0.021421
vn 0.133984 0.990752 -0.021421
vn 0.133984 0.990752 -0.021421
vn 0.156951 0.979257 -0.128152
vn 0.156951 0.979257 -0.128152
vn 0.156951 0.979256 -0.128152
vn 0.140649 0.985514 -0.094759
vn 0.140649 0.985514 -0.094759
vn 0.140649 0.985514 -0.094759
vn 0.024732 0.999305 -0.027891
vn 0.024732 0.999305 -0.027891
vn 0.024732 0.999305 -0.027891
vn 0.028722 0.999277 -0.024927
vn 0.028722 0.999277 -0.024927
vn 0.028722 0.999277 -0.024927
vn -0.029121 0.996706 -0.075690
vn -0.029121 0.996706 -0.075690
vn -0.029121 0.996706 -0.075690
vn -0.008913 0.997076 -0.075897
vn -0.008913 0.997076 -0.075897
vn -0.008913 0.997076 -0.075897
vn 0.012368 0.992240 -0.123721
vn 0.012368 0.992240 -0.123721
vn 0.012368 0.992240 -0.123721
vn -0.006511 0.986218 -0.165320
vn -0.006511 0.986218 -0.165320
vn -0.006511 0.986218 -0.165320
s off
f 1/1/1 41/2/2 43/5/3
f 43/5/4 41/2/5 2/3/6
f 43/5/7 63/35/8 1/1/9
f 43/5/10 2/3/11 44/6/12
f 2/3/13 42/4/14 45/9/15
f 44/6/16 2/3/17 45/9/18
f 44/6/19 45/9/20 50/8/21
f 3/7/22 45/9/23 42/4/24
f 50/8/25 45/9/26 4/10/27
f 3/7/28 46/11/29 45/9/30
f 4/10/31 45/9/32 46/11/33
f 4/10/34 46/11/35 5/12/36
f 5/12/37 46/11/38 7/14/39
f 44/6/40 49/19/41 43/5/42
f 6/13/43 44/6/44 50/8/45
f 4/10/46 5/12/47 57/24/48
f 1/1/49 63/35/50 48/16/51
f 8/17/52 48/16/53 63/35/54
f 49/19/55 51/18/56 43/5/57
f 43/5/58 51/18/59 63/35/60
f 44/6/61 6/13/62 49/19/63
f 6/13/64 50/8/65 52/22/66
f 52/22/67 50/8/68 55/28/69
f 4/10/70 55/28/71 50/8/72
f 9/20/73 48/16/74 8/17/75
f 54/21/76 51/18/77 49/19/78
f 52/22/79 54/21/80 6/13/81
f 49/19/82 6/13/83 54/21/84
f 57/24/85 61/33/86 4/10/87
f 61/33/88 56/23/89 4/10/90
f 7/14/91 57/24/92 5/12/93
f 10/26/94 63/35/95 51/18/96
f 11/27/97 54/21/98 52/22/99
f 52/22/100 60/30/101 11/27/102
f 52/22/103 55/28/104 60/30/105
f 12/29/106 60/30/107 55/28/108
f 12/29/109 55/28/110 56/23/111
f 4/10/112 56/23/113 55/28/114
f 7/14/115 53/25/116 57/24/117
f 62/34/118 57/24/119 53/25/120
f 7/14/121 47/15/122 53/25/123
f 11/27/124 58/31/125 54/21/126
f 51/18/127 54/21/128 64/36/129
f 64/36/130 54/21/131 58/31/132
f 11/27/133 59/32/134 58/31/135
f 60/30/136 59/32/137 11/27/138
f 47/15/139 62/34/140 53/25/141
f 70/44/142 51/18/143 64/36/144
f 58/31/145 67/41/146 64/36/147
f 12/29/148 56/23/149 61/33/150
f 47/15/151 13/37/152 62/34/153
f 63/35/154 69/43/155 8/17/156
f 63/35/157 10/26/158 69/43/159
f 51/18/160 70/44/161 10/26/162
f 70/44/163 64/36/164 67/41/165
f 68/42/166 59/32/167 60/30/168
f 68/42/169 60/30/170 65/38/171
f 12/29/172 65/38/173 60/30/174
f 12/29/175 61/33/176 65/38/177
f 13/37/178 61/33/179 57/24/180
f 57/24/181 62/34/182 13/37/183
f 10/26/184 70/44/185 66/40/186
f 58/31/187 59/32/188 67/41/189
f 9/20/190 8/17/191 79/54/192
f 79/54/193 8/17/194 69/43/195
f 10/26/196 14/39/197 69/43/198
f 14/39/199 10/26/200 66/40/201
f 70/44/202 67/41/203 73/47/204
f 61/33/205 71/45/206 65/38/207
f 74/48/208 65/38/209 71/45/210
f 70/44/211 72/46/212 66/40/213
f 70/44/214 73/47/215 72/46/216
f 67/41/217 59/32/218 73/47/219
f 68/42/220 73/47/221 59/32/222
f 68/42/223 74/48/224 73/47/225
f 68/42/226 65/38/227 74/48/228
f 23/56/229 33/66/230 75/49/231
f 66/40/232 72/46/233 76/50/234
f 76/50/235 72/46/236 77/51/237
f 77/51/238 72/46/239 73/47/240
f 73/47/241 74/48/242 15/52/243
f 61/33/244 75/49/245 71/45/246
f 61/33/247 23/56/248 75/49/249
f 61/33/250 13/37/251 23/56/252
f 47/15/253 78/53/254 13/37/255
f 69/43/256 14/39/257 79/54/258
f 14/39/259 80/55/260 79/54/261
f 14/39/262 66/40/263 80/55/264
f 79/54/265 80/55/266 76/50/267
f 66/40/268 76/50/269 80/55/270
f 77/51/271 73/47/272 15/52/273
f 74/48/274 71/45/275 15/52/276
f 15/52/277 71/45/278 25/60/279
f 26/61/280 25/60/281 71/45/282
f 16/57/283 81/62/284 78/53/285
f 13/37/286 78/53/287 81/62/288
f 79/54/289 76/50/290 24/58/291
f 77/51/292 24/58/293 76/50/294
f 24/58/295 77/51/296 27/63/297
f 77/51/298 15/52/299 17/59/300
f 29/65/301 17/59/302 15/52/303
f 15/52/304 25/60/305 29/65/306
f 71/45/307 75/49/308 26/61/309
f 75/49/310 33/66/311 26/61/312
f 13/37/313 81/62/314 23/56/315
f 79/54/316 24/58/317 32/69/318
f 32/69/319 24/58/320 27/63/321
f 77/51/322 17/59/323 27/63/324
f 29/65/325 28/64/326 17/59/327
f 25/60/328 35/71/329 29/65/330
f 26/61/331 35/71/332 25/60/333
f 35/71/334 26/61/335 40/78/336
f 33/66/337 34/72/338 26/61/339
f 30/67/340 33/66/341 23/56/342
f 23/56/343 81/62/344 30/67/345
f 9/20/346 79/54/347 31/68/348
f 19/70/349 32/69/350 27/63/351
f 19/70/352 27/63/353 17/59/354
f 35/71/355 28/64/356 29/65/357
f 33/66/358 36/73/359 34/72/360
f 36/73/361 33/66/362 30/67/363
f 16/57/364 38/79/365 81/62/366
f 36/73/367 30/67/368 38/79/369
f 38/79/370 30/67/371 81/62/372
f 17/59/373 28/64/374 19/70/375
f 19/70/376 28/64/377 37/77/378
f 26/61/379 20/74/380 40/78/381
f 34/72/382 36/73/383 26/61/384
f 26/61/385 36/73/386 20/74/387
f 79/54/388 32/69/389 31/68/390
f 31/68/391 32/69/392 21/76/393
f 19/70/394 21/76/395 32/69/396
f 18/75/397 31/68/398 21/76/399
f 21/76/400 19/70/401 37/77/402
f 40/78/403 37/77/404 28/64/405
f 35/71/406 40/78/407 28/64/408
f 20/74/409 36/73/410 38/79/411
f 20/74/412 38/79/413 39/80/414
f 39/80/415 38/79/416 22/81/417
f 22/81/418 38/79/419 16/57/420
f 21/76/421 37/77/422 82/82/423
f 40/78/424 82/82/425 37/77/426
f 82/82/427 40/78/428 39/80/429
f 20/74/430 39/80/431 40/78/432
