# This file uses centimeters as units for non-parametric coordinates.

v -0.061229 1.235675 0.061234
v 0.061230 1.235675 0.061234
v -0.061229 1.235675 -0.061234
v 0.061230 1.235675 -0.061234
v -0.102165 1.299109 -0.102165
v -0.102165 1.299109 0.102165
v 0.102165 1.299109 0.102165
v 0.102165 1.299109 -0.102165
v 0.102165 1.410488 0.102165
v -0.102165 1.410488 0.102165
v -0.102165 1.410488 -0.102165
v 0.102165 1.410488 -0.102165
v 0.080693 1.235675 0.000000
v -0.080692 1.235675 0.000000
v -0.134640 1.299109 0.000000
v -0.134640 1.410488 0.000000
v 0.134640 1.410488 0.000000
v 0.134640 1.299109 0.000000
v 0.000000 1.299109 -0.134636
v 0.000000 1.410488 -0.134636
v 0.000000 1.410488 0.134636
v 0.000000 1.299109 0.134636
v 0.000000 1.235675 0.080696
v 0.000000 1.235675 -0.080696
v 0.000002 1.223932 -0.042915
v 0.039105 1.223932 -0.039108
v 0.042904 1.223932 0.000000
v 0.000000 1.223932 0.042908
v 0.039105 1.223932 0.039108
v -0.042902 1.223932 0.000000
v -0.039104 1.223932 0.039108
v -0.039104 1.223932 -0.039108
v 0.000002 1.163231 -0.042915
v 0.039105 1.163231 -0.039108
v 0.042904 1.163231 0.000000
v 0.000000 1.163231 0.042908
v 0.039105 1.163231 0.039108
v -0.042902 1.163231 0.000000
v -0.039104 1.163231 0.039108
v -0.039104 1.163231 -0.039108
v -0.151254 0.000000 0.151253
v 0.151255 0.000000 0.151253
v -0.151254 0.000000 -0.151253
v 0.151255 0.000000 -0.151253
v -0.150125 0.854992 -0.150124
v -0.150125 0.854992 0.150124
v 0.150126 0.854992 0.150124
v 0.150126 0.854992 -0.150124
v -0.123443 0.830957 -0.123444
v -0.123443 0.830957 0.123444
v 0.123444 0.830957 0.123444
v 0.123444 0.830957 -0.123444
v 0.150126 1.110904 0.150124
v -0.150125 1.110904 0.150124
v -0.150125 1.110904 -0.150124
v 0.150126 1.110904 -0.150124
v -0.151254 0.330339 0.151253
v 0.151255 0.330339 0.151253
v 0.151255 0.330339 -0.151253
v -0.151254 0.330339 -0.151253
v 0.123444 0.358743 -0.123444
v 0.123444 0.358743 0.123444
v -0.123443 0.358743 0.123444
v -0.123443 0.358743 -0.123444
v 0.000000 1.524837 -0.086574
v 0.000000 1.526284 0.000000
v 0.086569 1.524837 0.000000
v 0.065495 1.524754 -0.065498
v 0.000000 1.524837 0.086574
v 0.000000 1.463116 0.143719
v 0.108150 1.463116 0.108150
v 0.065495 1.524754 0.065498
v -0.143722 1.463117 0.000000
v -0.108150 1.463116 -0.108150
v -0.086569 1.524837 0.000000
v -0.065495 1.524754 -0.065498
v 0.000000 1.463116 -0.143719
v 0.108150 1.463116 -0.108150
v 0.143723 1.463117 0.000000
v -0.108150 1.463116 0.108150
v -0.065495 1.524754 0.065498
v -0.098610 1.219077 0.098608
v 0.098610 1.219077 0.098608
v 0.098610 1.219077 -0.098608
v -0.098610 1.219077 -0.098608
v 0.154480 1.164389 0.154478
v -0.154480 1.164389 0.154478
v -0.154480 1.164389 -0.154478
v 0.154480 1.164389 -0.154478
v -0.155776 0.383494 -0.155774
v -0.155776 0.383494 0.155774
v -0.127965 0.411899 0.127965
v -0.127965 0.411899 -0.127965
v 0.155777 0.383494 0.155774
v 0.127965 0.411899 0.127965
v 0.155777 0.383494 -0.155774
v 0.127965 0.411899 -0.127965
vt 0.647935 0.133212
vt 0.647935 0.133212
vt 0.647935 0.133212
vt 0.647935 0.133212
vt 0.562517 0.790345
vt 0.562517 0.790345
vt 0.562518 0.790345
vt 0.562518 0.790345
vt 0.647935 0.133212
vt 0.647935 0.133212
vt 0.647935 0.133212
vt 0.647935 0.133212
vt 0.647935 0.133212
vt 0.647935 0.133212
vt 0.647935 0.133212
vt 0.647935 0.133212
vt 0.647935 0.133212
vt 0.647935 0.133212
vt 0.647935 0.133212
vt 0.647935 0.133212
vt 0.647935 0.133212
vt 0.647935 0.133212
vt 0.647935 0.133212
vt 0.647935 0.133212
vt 0.647935 0.133212
vt 0.647935 0.133212
vt 0.647935 0.133212
vt 0.647935 0.133212
vt 0.562517 0.790345
vt 0.562517 0.790345
vt 0.562517 0.790345
vt 0.562518 0.790345
vt 0.562517 0.790345
vt 0.562518 0.790345
vt 0.647935 0.133212
vt 0.647935 0.133212
vt 0.647935 0.133212
vt 0.562518 0.790345
vt 0.647935 0.133212
vt 0.647935 0.133212
vt 0.562518 0.790345
vt 0.562517 0.790345
vt 0.647935 0.133212
vt 0.647935 0.133212
vt 0.647935 0.133212
vt 0.647935 0.133212
vt 0.647935 0.133212
vt 0.647935 0.133212
vt 0.647935 0.133212
vt 0.647935 0.133212
vt 0.647935 0.133212
vt 0.647935 0.133212
vt 0.647935 0.133212
vt 0.647935 0.133212
vt 0.647935 0.133212
vt 0.647935 0.133212
vt 0.647935 0.133212
vt 0.647935 0.133212
vt 0.647935 0.133212
vt 0.647935 0.133212
vt 0.647935 0.133212
vt 0.647935 0.133212
vt 0.647935 0.133212
vt 0.647935 0.133212
vt 0.648034 0.133214
vt 0.648034 0.133214
vt 0.648034 0.133214
vt 0.648034 0.133214
vt 0.562517 0.790345
vt 0.562517 0.790345
vt 0.562518 0.790345
vt 0.562518 0.790345
vt 0.648034 0.133214
vt 0.648034 0.133214
vt 0.648034 0.133214
vt 0.648034 0.133214
vt 0.648034 0.133214
vt 0.648034 0.133214
vt 0.648034 0.133214
vt 0.648034 0.133214
vt 0.648034 0.133214
vt 0.648034 0.133214
vt 0.648034 0.133214
vt 0.648034 0.133214
vt 0.648034 0.133214
vt 0.648034 0.133214
vt 0.648034 0.133214
vt 0.648034 0.133214
vt 0.648034 0.133214
vt 0.648034 0.133214
vt 0.648034 0.133214
vt 0.648034 0.133214
vt 0.648034 0.133214
vt 0.648034 0.133214
vt 0.562517 0.790345
vt 0.562518 0.790345
vt 0.648034 0.133214
vt 0.648034 0.133214
vt 0.648034 0.133214
vt 0.648034 0.133214
vt 0.648034 0.133214
vt 0.648034 0.133214
vt 0.648034 0.133214
vt 0.648034 0.133214
vt 0.648034 0.133214
vt 0.648034 0.133214
vt 0.648034 0.133214
vt 0.648034 0.133214
vt 0.562518 0.790345
vt 0.562517 0.790345
vt 0.562518 0.790345
vt 0.562518 0.790345
vt 0.562518 0.790345
vt 0.562518 0.790345
vt 0.562518 0.790345
vt 0.562518 0.790345
vt 0.562518 0.790345
vt 0.562518 0.790345
vt 0.562518 0.790345
vt 0.562518 0.790345
vt 0.562518 0.790345
vt 0.562518 0.790345
vt 0.562517 0.790345
vt 0.562517 0.790345
vt 0.562517 0.790345
vt 0.562517 0.790345
vt 0.562517 0.790345
vt 0.562517 0.790345
vt 0.562517 0.790345
vt 0.562517 0.790345
vt 0.562517 0.790345
vt 0.562517 0.790345
vt 0.562517 0.790345
vt 0.562517 0.790345
vt 0.562517 0.790345
vt 0.562517 0.790345
vt 0.562517 0.790345
vt 0.562517 0.790345
vt 0.562517 0.790345
vt 0.562517 0.790345
vt 0.562517 0.790345
vt 0.562517 0.790345
vn 0.302895 0.000000 0.953024
vn 0.302895 0.000000 0.953024
vn 0.302895 0.000000 0.953024
vn 0.302895 0.000000 0.953024
vn 0.011677 0.999864 -0.011679
vn 0.011677 0.999864 -0.011679
vn 0.011677 0.999864 -0.011679
vn 0.011677 0.999864 -0.011679
vn 0.302895 0.000000 -0.953024
vn 0.302895 0.000000 -0.953024
vn 0.302895 0.000000 -0.953024
vn 0.302895 0.000000 -0.953024
vn 0.953014 0.000000 -0.302928
vn 0.953014 0.000000 -0.302928
vn 0.953014 0.000000 -0.302928
vn 0.953014 0.000000 -0.302928
vn -0.953014 0.000000 -0.302928
vn -0.953014 0.000000 -0.302928
vn -0.953014 0.000000 -0.302928
vn -0.953014 0.000000 -0.302928
vn -0.740381 -0.629646 -0.235334
vn -0.740381 -0.629646 -0.235334
vn -0.740381 -0.629646 -0.235334
vn -0.740381 -0.629646 -0.235334
vn 0.235332 -0.629609 0.740413
vn 0.235332 -0.629609 0.740413
vn 0.235332 -0.629609 0.740413
vn 0.235332 -0.629609 0.740413
vn 0.740381 -0.629646 -0.235334
vn 0.740381 -0.629646 -0.235334
vn 0.740381 -0.629646 -0.235334
vn 0.740381 -0.629646 -0.235334
vn 0.235332 -0.629610 -0.740412
vn 0.235332 -0.629610 -0.740412
vn 0.235332 -0.629610 -0.740412
vn 0.235332 -0.629610 -0.740412
vn 0.233512 0.659093 0.714890
vn 0.233512 0.659094 0.714890
vn 0.233512 0.659094 0.714890
vn 0.233512 0.659093 0.714890
vn -0.714858 0.659128 -0.233512
vn -0.714858 0.659128 -0.233512
vn -0.714858 0.659128 -0.233512
vn -0.714858 0.659128 -0.233512
vn 0.233512 0.659093 -0.714891
vn 0.233512 0.659093 -0.714891
vn 0.233512 0.659093 -0.714891
vn 0.233512 0.659093 -0.714891
vn 0.714858 0.659129 -0.233511
vn 0.714858 0.659129 -0.233511
vn 0.714858 0.659129 -0.233511
vn 0.714858 0.659129 -0.233511
vn -0.740381 -0.629646 0.235334
vn -0.740381 -0.629646 0.235334
vn -0.740381 -0.629646 0.235334
vn -0.740381 -0.629646 0.235334
vn -0.953014 0.000000 0.302928
vn -0.953014 0.000000 0.302928
vn -0.953014 0.000000 0.302928
vn -0.953014 0.000000 0.302928
vn -0.714859 0.659127 0.233513
vn -0.714859 0.659127 0.233513
vn -0.714859 0.659127 0.233513
vn -0.714859 0.659127 0.233513
vn 0.011677 0.999864 0.011677
vn 0.011677 0.999864 0.011677
vn 0.011677 0.999864 0.011677
vn 0.011677 0.999864 0.011677
vn 0.714858 0.659129 0.233511
vn 0.714858 0.659129 0.233511
vn 0.714858 0.659129 0.233511
vn 0.714858 0.659129 0.233511
vn 0.953014 0.000000 0.302928
vn 0.953014 0.000000 0.302928
vn 0.953014 0.000000 0.302928
vn 0.953014 0.000000 0.302928
vn 0.740381 -0.629646 0.235334
vn 0.740381 -0.629646 0.235334
vn 0.740381 -0.629646 0.235334
vn 0.740381 -0.629646 0.235334
vn -0.302895 0.000000 -0.953024
vn -0.302895 0.000000 -0.953024
vn -0.302895 0.000000 -0.953024
vn -0.302895 0.000000 -0.953024
vn -0.233512 0.659094 -0.714890
vn -0.233512 0.659094 -0.714890
vn -0.233512 0.659094 -0.714890
vn -0.233512 0.659094 -0.714890
vn -0.011677 0.999864 -0.011678
vn -0.011677 0.999864 -0.011678
vn -0.011677 0.999864 -0.011678
vn -0.011677 0.999864 -0.011678
vn -0.011677 0.999864 0.011678
vn -0.011677 0.999864 0.011678
vn -0.011677 0.999864 0.011678
vn -0.011677 0.999864 0.011678
vn -0.233512 0.659093 0.714891
vn -0.233512 0.659093 0.714891
vn -0.233512 0.659093 0.714891
vn -0.233512 0.659093 0.714891
vn -0.302895 0.000000 0.953024
vn -0.302895 0.000000 0.953024
vn -0.302895 0.000000 0.953024
vn -0.302895 0.000000 0.953024
vn -0.235332 -0.629610 0.740412
vn -0.235332 -0.629610 0.740412
vn -0.235332 -0.629610 0.740412
vn -0.235332 -0.629610 0.740412
vn -0.235332 -0.629610 -0.740412
vn -0.235332 -0.629610 -0.740412
vn -0.235332 -0.629610 -0.740412
vn -0.235332 -0.629610 -0.740412
vn 0.078531 -0.937647 -0.338601
vn 0.078531 -0.937647 -0.338601
vn 0.078531 -0.937647 -0.338601
vn 0.078531 -0.937647 -0.338601
vn 0.338577 -0.937659 -0.078492
vn 0.338577 -0.937659 -0.078492
vn 0.338577 -0.937659 -0.078492
vn 0.338577 -0.937659 -0.078492
vn 0.338577 -0.937659 0.078492
vn 0.338577 -0.937659 0.078492
vn 0.338577 -0.937659 0.078492
vn 0.338577 -0.937659 0.078492
vn 0.078497 -0.937660 0.338573
vn 0.078497 -0.937660 0.338573
vn 0.078497 -0.937660 0.338573
vn 0.078497 -0.937660 0.338573
vn -0.078497 -0.937661 0.338572
vn -0.078497 -0.937661 0.338572
vn -0.078497 -0.937661 0.338572
vn -0.078497 -0.937661 0.338572
vn -0.338570 -0.937662 0.078485
vn -0.338570 -0.937662 0.078485
vn -0.338570 -0.937662 0.078485
vn -0.338570 -0.937662 0.078485
vn -0.078527 -0.937649 -0.338598
vn -0.078527 -0.937649 -0.338598
vn -0.078527 -0.937649 -0.338598
vn -0.078527 -0.937649 -0.338598
vn -0.338570 -0.937662 -0.078486
vn -0.338570 -0.937662 -0.078486
vn -0.338570 -0.937662 -0.078486
vn -0.338570 -0.937662 -0.078486
vn 0.096903 0.000000 -0.995294
vn 0.096903 0.000000 -0.995294
vn 0.096903 0.000000 -0.995294
vn 0.096903 0.000000 -0.995294
vn 0.995314 0.000000 -0.096696
vn 0.995314 0.000000 -0.096696
vn 0.995314 0.000000 -0.096696
vn 0.995314 0.000000 -0.096696
vn 0.995314 0.000000 0.096696
vn 0.995314 0.000000 0.096696
vn 0.995314 0.000000 0.096696
vn 0.995314 0.000000 0.096696
vn 0.096706 0.000000 0.995313
vn 0.096706 0.000000 0.995313
vn 0.096706 0.000000 0.995313
vn 0.096706 0.000000 0.995313
vn -0.096706 0.000000 0.995313
vn -0.096706 0.000000 0.995313
vn -0.096706 0.000000 0.995313
vn -0.096706 0.000000 0.995313
vn -0.995319 0.000000 0.096648
vn -0.995319 0.000000 0.096648
vn -0.995319 0.000000 0.096648
vn -0.995319 0.000000 0.096648
vn -0.096894 0.000000 -0.995295
vn -0.096894 0.000000 -0.995295
vn -0.096894 0.000000 -0.995295
vn -0.096894 0.000000 -0.995295
vn -0.995319 0.000000 -0.096648
vn -0.995319 0.000000 -0.096648
vn -0.995319 0.000000 -0.096648
vn -0.995319 0.000000 -0.096648
vn 0.000000 0.000000 1.000000
vn 0.000000 0.000000 1.000000
vn 0.000000 0.000000 1.000000
vn 0.000000 0.000000 1.000000
vn 0.000000 1.000000 0.000000
vn 0.000000 1.000000 0.000000
vn 0.000000 1.000000 0.000000
vn 0.000000 1.000000 0.000000
vn 0.000000 0.000000 -1.000000
vn 0.000000 0.000000 -1.000000
vn 0.000000 0.000000 -1.000000
vn 0.000000 0.000000 -1.000000
vn 0.000000 -1.000000 0.000000
vn 0.000000 -1.000000 0.000000
vn 0.000000 -1.000000 0.000000
vn 0.000000 -1.000000 0.000000
vn 1.000000 0.000000 0.000000
vn 1.000000 0.000000 0.000000
vn 1.000000 0.000000 0.000000
vn 1.000000 0.000000 0.000000
vn -1.000000 0.000000 0.000000
vn -1.000000 0.000000 0.000000
vn -1.000000 0.000000 0.000000
vn -1.000000 0.000000 0.000000
vn -0.669301 -0.742991 0.000000
vn -0.669301 -0.742991 0.000000
vn -0.669301 -0.742991 0.000000
vn -0.669301 -0.742991 0.000000
vn 0.000000 -0.742970 0.669325
vn 0.000000 -0.742970 0.669325
vn 0.000000 -0.742970 0.669325
vn 0.000000 -0.742970 0.669325
vn 0.669301 -0.742991 0.000000
vn 0.669301 -0.742991 0.000000
vn 0.669301 -0.742991 0.000000
vn 0.669301 -0.742991 0.000000
vn 0.000000 -0.742966 -0.669329
vn 0.000000 -0.742966 -0.669329
vn 0.000000 -0.742966 -0.669329
vn 0.000000 -0.742966 -0.669329
vn -0.714534 0.699600 0.000000
vn -0.714534 0.699600 0.000000
vn -0.714534 0.699600 0.000000
vn -0.714534 0.699600 0.000000
vn 0.000000 0.699576 0.714558
vn 0.000000 0.699576 0.714558
vn 0.000000 0.699576 0.714558
vn 0.000000 0.699576 0.714558
vn 0.714534 0.699601 0.000000
vn 0.714534 0.699601 0.000000
vn 0.714534 0.699601 0.000000
vn 0.714534 0.699601 0.000000
vn 0.000000 0.699576 -0.714558
vn 0.000000 0.699576 -0.714558
vn 0.000000 0.699576 -0.714558
vn 0.000000 0.699576 -0.714558
vn 0.000000 0.714628 0.699505
vn 0.000000 0.714628 0.699505
vn 0.000000 0.714628 0.699505
vn 0.000000 0.714628 0.699505
vn -0.699506 0.714626 0.000000
vn -0.699506 0.714626 0.000000
vn -0.699506 0.714626 0.000000
vn -0.699506 0.714626 0.000000
vn 0.000000 0.714628 -0.699505
vn 0.000000 0.714628 -0.699505
vn 0.000000 0.714628 -0.699505
vn 0.000000 0.714628 -0.699505
vn 0.699505 0.714628 0.000000
vn 0.699505 0.714628 0.000000
vn 0.699505 0.714628 0.000000
vn 0.699505 0.714628 0.000000
vn 0.000000 0.000000 1.000000
vn 0.000000 0.000000 1.000000
vn 0.000000 0.000000 1.000000
vn 0.000000 0.000000 1.000000
vn 1.000000 0.000000 0.000000
vn 1.000000 0.000000 0.000000
vn 1.000000 0.000000 0.000000
vn 1.000000 0.000000 0.000000
vn 0.000000 0.000000 -1.000000
vn 0.000000 0.000000 -1.000000
vn 0.000000 0.000000 -1.000000
vn 0.000000 0.000000 -1.000000
vn -1.000000 0.000000 0.000000
vn -1.000000 0.000000 0.000000
vn -1.000000 0.000000 0.000000
vn -1.000000 0.000000 0.000000
vn 1.000000 0.000000 0.000000
vn 1.000000 0.000000 0.000000
vn 1.000000 0.000000 0.000000
vn 1.000000 0.000000 0.000000
vn 0.000000 0.000000 1.000000
vn 0.000000 0.000000 1.000000
vn 0.000000 0.000000 1.000000
vn 0.000000 0.000000 1.000000
vn -1.000000 0.000000 0.000000
vn -1.000000 0.000000 0.000000
vn -1.000000 0.000000 0.000000
vn -1.000000 0.000000 0.000000
vn 0.000000 0.000000 -1.000000
vn 0.000000 0.000000 -1.000000
vn 0.000000 0.000000 -1.000000
vn 0.000000 0.000000 -1.000000
vn 0.304230 -0.151923 0.940406
vn 0.304230 -0.151923 0.940406
vn 0.304230 -0.151923 0.940406
vn 0.304230 -0.151923 0.940406
vn -0.940397 -0.151917 -0.304262
vn -0.940397 -0.151917 -0.304262
vn -0.940397 -0.151917 -0.304262
vn -0.940397 -0.151917 -0.304262
vn 0.304230 -0.151922 -0.940406
vn 0.304230 -0.151922 -0.940406
vn 0.304230 -0.151923 -0.940406
vn 0.304230 -0.151922 -0.940406
vn 0.940396 -0.151919 -0.304262
vn 0.940396 -0.151919 -0.304262
vn 0.940396 -0.151919 -0.304262
vn 0.940396 -0.151919 -0.304262
vn -0.940397 -0.151915 0.304263
vn -0.940397 -0.151915 0.304263
vn -0.940397 -0.151915 0.304263
vn -0.940397 -0.151915 0.304263
vn 0.940396 -0.151919 0.304262
vn 0.940396 -0.151919 0.304262
vn 0.940396 -0.151919 0.304262
vn 0.940396 -0.151919 0.304262
vn -0.304230 -0.151923 -0.940406
vn -0.304230 -0.151923 -0.940406
vn -0.304230 -0.151923 -0.940406
vn -0.304230 -0.151923 -0.940406
vn -0.304231 -0.151922 0.940406
vn -0.304231 -0.151922 0.940406
vn -0.304231 -0.151922 0.940406
vn -0.304231 -0.151922 0.940406
vn 0.000000 -0.081147 0.996702
vn 0.000000 -0.081147 0.996702
vn 0.000000 -0.081147 0.996702
vn 0.000000 -0.081147 0.996702
vn -0.996703 -0.081142 0.000000
vn -0.996703 -0.081142 0.000000
vn -0.996703 -0.081142 0.000000
vn -0.996703 -0.081142 0.000000
vn 0.000000 -0.081147 -0.996702
vn 0.000000 -0.081147 -0.996702
vn 0.000000 -0.081147 -0.996702
vn 0.000000 -0.081147 -0.996702
vn 0.996703 -0.081142 0.000000
vn 0.996703 -0.081142 0.000000
vn 0.996703 -0.081142 0.000000
vn 0.996703 -0.081142 0.000000
vn -0.996402 -0.084758 0.000000
vn -0.996402 -0.084758 0.000000
vn -0.996402 -0.084758 0.000000
vn -0.996402 -0.084758 0.000000
vn 0.996402 0.084758 0.000000
vn 0.996402 0.084758 0.000000
vn 0.996402 0.084758 0.000000
vn 0.996402 0.084758 0.000000
vn 0.000000 -0.084754 0.996402
vn 0.000000 -0.084754 0.996402
vn 0.000000 -0.084754 0.996402
vn 0.000000 -0.084754 0.996402
vn 0.000000 0.084754 -0.996402
vn 0.000000 0.084754 -0.996402
vn 0.000000 0.084754 -0.996402
vn 0.000000 0.084754 -0.996402
vn 0.996402 -0.084758 0.000000
vn 0.996402 -0.084758 0.000000
vn 0.996402 -0.084758 0.000000
vn 0.996402 -0.084758 0.000000
vn -0.996402 0.084758 0.000000
vn -0.996402 0.084758 0.000000
vn -0.996402 0.084758 0.000000
vn -0.996402 0.084758 0.000000
vn 0.000000 0.084754 0.996402
vn 0.000000 0.084754 0.996402
vn 0.000000 0.084754 0.996402
vn 0.000000 0.084754 0.996402
vn 0.000000 -0.084754 -0.996402
vn 0.000000 -0.084754 -0.996402
vn 0.000000 -0.084754 -0.996402
vn 0.000000 -0.084754 -0.996402
s off
f 21/1/1 22/2/2 7/3/3 9/4/4
f 65/5/5 66/6/6 67/7/7 68/8/8
f 19/9/9 20/10/10 12/11/11 8/12/12
f 17/13/13 18/14/14 8/15/15 12/16/16
f 5/17/17 15/18/18 16/19/19 11/20/20
f 3/21/21 14/22/22 15/18/23 5/17/24
f 22/2/25 23/23/26 2/24/27 7/3/28
f 18/14/29 13/25/30 4/26/31 8/15/32
f 24/27/33 19/9/34 8/12/35 4/28/36
f 69/29/37 70/30/38 71/31/39 72/32/40
f 74/33/41 73/34/42 75/38/43 76/41/44
f 77/42/45 65/5/46 68/8/47 78/69/48
f 67/7/49 79/70/50 78/69/51 68/8/52
f 15/18/53 14/22/54 1/35/55 6/36/56
f 16/19/57 15/18/58 6/36/59 10/37/60
f 75/38/61 73/34/62 80/71/63 81/72/64
f 66/6/65 69/29/66 72/32/67 67/7/68
f 71/31/69 79/70/70 67/7/71 72/32/72
f 7/3/73 18/14/74 17/13/75 9/4/76
f 2/24/77 13/25/78 18/14/79 7/3/80
f 11/39/81 20/10/82 19/9/83 5/40/84
f 76/41/85 65/5/86 77/42/87 74/33/88
f 75/38/89 66/6/90 65/5/91 76/41/92
f 81/72/93 69/29/94 66/6/95 75/38/96
f 80/71/97 70/30/98 69/29/99 81/72/100
f 6/36/101 22/2/102 21/1/103 10/37/104
f 1/35/105 23/23/106 22/2/107 6/36/108
f 5/40/109 19/9/110 24/27/111 3/43/112
f 24/27/113 4/28/114 26/44/115 25/45/116
f 4/28/117 13/46/118 27/47/119 26/44/120
f 13/46/121 2/48/122 29/49/123 27/47/124
f 2/48/125 23/50/126 28/51/127 29/49/128
f 23/50/129 1/52/130 31/53/131 28/51/132
f 1/52/133 14/54/134 30/55/135 31/53/136
f 3/43/137 24/27/138 25/45/139 32/56/140
f 14/54/141 3/43/142 32/56/143 30/55/144
f 25/45/145 26/44/146 34/57/147 33/58/148
f 26/44/149 27/47/150 35/59/151 34/57/152
f 27/47/153 29/49/154 37/60/155 35/59/156
f 29/49/157 28/51/158 36/61/159 37/60/160
f 28/51/161 31/53/162 39/62/163 36/61/164
f 31/53/165 30/55/166 38/63/167 39/62/168
f 32/56/169 25/45/170 33/58/171 40/64/172
f 30/55/173 32/56/174 40/64/175 38/63/176
f 46/65/177 47/66/178 53/67/179 54/68/180
f 82/95/181 83/96/182 84/109/183 85/110/184
f 55/73/185 56/74/186 48/75/187 45/76/188
f 43/77/189 44/78/190 42/79/191 41/80/192
f 47/66/193 48/81/194 56/82/195 53/67/196
f 45/83/197 46/65/198 54/68/199 55/84/200
f 49/85/201 50/86/202 46/65/203 45/83/204
f 50/86/205 51/87/206 47/66/207 46/65/208
f 51/87/209 52/88/210 48/81/211 47/66/212
f 45/76/213 48/75/214 52/89/215 49/90/216
f 90/111/217 91/112/218 92/113/219 93/114/220
f 91/112/221 94/115/222 95/116/223 92/113/224
f 94/115/225 96/117/226 97/118/227 95/116/228
f 93/114/229 97/118/230 96/117/231 90/111/232
f 87/119/233 86/120/234 83/96/235 82/95/236
f 88/121/237 87/119/238 82/95/239 85/110/240
f 85/110/241 84/109/242 89/122/243 88/121/244
f 86/120/245 89/122/246 84/109/247 83/96/248
f 41/92/249 42/93/250 58/98/251 57/97/252
f 42/93/253 44/94/254 59/100/255 58/98/256
f 60/102/257 59/99/258 44/78/259 43/77/260
f 43/91/261 41/92/262 57/97/263 60/101/264
f 62/105/265 61/104/266 52/88/267 51/87/268
f 63/106/269 62/105/270 51/87/271 50/86/272
f 64/107/273 63/106/274 50/86/275 49/85/276
f 49/90/277 52/89/278 61/103/279 64/108/280
f 21/123/281 9/124/282 71/31/283 70/30/284
f 11/125/285 16/126/286 73/34/287 74/33/288
f 12/127/289 20/128/290 77/42/291 78/69/292
f 17/129/293 12/127/294 78/69/295 79/70/296
f 16/126/297 10/130/298 80/71/299 73/34/300
f 9/124/301 17/129/302 79/70/303 71/31/304
f 20/128/305 11/125/306 74/33/307 77/42/308
f 10/130/309 21/123/310 70/30/311 80/71/312
f 54/131/313 53/132/314 86/120/315 87/119/316
f 55/133/317 54/131/318 87/119/319 88/121/320
f 56/134/321 55/133/322 88/121/323 89/122/324
f 53/132/325 56/134/326 89/122/327 86/120/328
f 60/135/329 57/136/330 91/112/331 90/111/332
f 63/137/333 64/138/334 93/114/335 92/113/336
f 57/136/337 58/139/338 94/115/339 91/112/340
f 62/140/341 63/137/342 92/113/343 95/116/344
f 58/139/345 59/141/346 96/117/347 94/115/348
f 61/142/349 62/140/350 95/116/351 97/118/352
f 64/138/353 61/142/354 97/118/355 93/114/356
f 59/141/357 60/135/358 90/111/359 96/117/360
