# This file uses centimeters as units for non-parametric coordinates.

v -1.182909 0.000000 0.690984
v -0.990843 0.171977 0.647284
v 1.134216 0.000000 0.758388
v -1.216689 0.000000 -0.746635
v 1.083766 0.000000 -0.766910
v -1.290699 0.000000 -0.561108
v 0.926654 0.224864 -0.575584
v 1.215633 0.000000 -0.609189
v 1.274397 0.000000 0.581081
v -0.687295 0.249047 -0.378907
v -1.110096 0.000000 0.719743
v 0.853186 0.000000 0.820834
v 0.861349 0.000000 -0.816882
v 0.353506 0.000000 -0.814837
v 0.905372 0.157268 -0.700822
v 0.325588 0.000000 0.847608
v -0.447150 0.000000 -0.847608
v -0.325338 0.208964 0.730822
v -0.389119 0.000000 0.816375
v -1.329765 0.000000 -0.183611
v 1.291430 0.000000 -0.272008
v -1.323895 0.000000 0.245040
v 0.709509 0.259730 -0.275832
v 1.164034 0.159270 0.178491
v 1.333072 0.000000 0.212903
v 1.157309 0.000000 -0.706280
v -1.261185 0.000000 -0.676202
v -1.037180 0.190410 -0.644878
v -0.006530 0.200113 0.745414
v 0.857991 0.198165 0.674737
v -1.333072 0.000000 0.036385
v -1.092165 0.213061 0.485659
v 0.412487 0.281854 -0.092275
v 1.320704 0.000000 -0.031938
v -1.270135 0.000000 0.549263
v -1.233412 0.000000 0.637333
v 0.764160 0.258325 0.416420
v 1.216717 0.000000 0.690055
v -1.014405 0.000000 -0.806597
v -1.147843 0.000000 -0.783917
v -0.774566 0.255942 0.407579
v 1.018740 0.000000 0.797906
v 0.995369 0.000000 -0.802286
v -0.123278 0.220094 -0.700678
v -0.041563 0.000000 -0.833565
v -0.423172 0.278161 -0.120302
v -0.018250 0.291926 0.230657
v -0.026350 0.000000 0.839485
v -0.289677 0.256203 0.554433
v -0.716476 0.000000 0.779626
v -1.314600 0.000000 -0.389843
v 1.258373 0.000000 -0.464428
v -1.301606 0.000000 0.417249
v 1.315409 0.000000 0.419636
v 0.620451 0.000000 0.839396
v -0.776136 0.000000 -0.833223
v -0.024271 0.286935 -0.508736
v 1.107634 0.159504 0.561288
vt 0.562248 0.787956
vt 0.562248 0.787956
vt 0.562248 0.787956
vt 0.562248 0.787956
vt 0.562248 0.787956
vt 0.562248 0.787956
vt 0.562248 0.787956
vt 0.562248 0.787956
vt 0.562248 0.787956
vt 0.562248 0.787956
vt 0.562248 0.787956
vt 0.562248 0.787956
vt 0.562248 0.787956
vt 0.562248 0.787956
vt 0.562248 0.787956
vt 0.562248 0.787956
vt 0.562248 0.787956
vt 0.562248 0.787956
vt 0.562248 0.787956
vt 0.562248 0.787956
vt 0.562248 0.787956
vt 0.562248 0.787956
vt 0.562248 0.787956
vt 0.562248 0.787956
vt 0.562248 0.787956
vt 0.562248 0.787956
vt 0.562248 0.787956
vt 0.562248 0.787956
vt 0.562248 0.787956
vt 0.562248 0.787956
vt 0.562248 0.787956
vt 0.562248 0.787956
vt 0.562248 0.787956
vt 0.562248 0.787956
vt 0.562248 0.787956
vt 0.562248 0.787956
vt 0.562248 0.787956
vt 0.562248 0.787956
vt 0.562248 0.787956
vt 0.562248 0.787956
vt 0.562248 0.787956
vt 0.562248 0.787956
vt 0.562248 0.787956
vt 0.562248 0.787956
vt 0.562248 0.787956
vt 0.562248 0.787956
vt 0.562248 0.787956
vt 0.562248 0.787956
vt 0.562248 0.787956
vt 0.562248 0.787956
vt 0.562248 0.787956
vt 0.562248 0.787956
vt 0.562248 0.787956
vt 0.562248 0.787956
vt 0.562248 0.787956
vt 0.562248 0.787956
vt 0.562248 0.787956
vt 0.562248 0.787956
vn 0.064604 0.582837 0.810017
vn 0.064604 0.582837 0.810017
vn 0.064604 0.582837 0.810017
vn 0.024324 0.486399 0.873398
vn 0.024324 0.486399 0.873398
vn 0.024324 0.486399 0.873398
vn 0.059895 0.995575 -0.072413
vn 0.059895 0.995575 -0.072413
vn 0.059895 0.995575 -0.072413
vn 0.031189 0.512619 -0.858050
vn 0.031189 0.512619 -0.858050
vn 0.031189 0.512619 -0.858050
vn -0.003237 0.594372 -0.804184
vn -0.003237 0.594372 -0.804184
vn -0.003237 0.594372 -0.804184
vn 0.554597 0.762516 -0.333155
vn 0.554597 0.762516 -0.333155
vn 0.554597 0.762516 -0.333155
vn 0.439618 0.722756 -0.533254
vn 0.439618 0.722756 -0.533254
vn 0.439618 0.722756 -0.533254
vn -0.573689 0.734527 -0.362425
vn -0.573689 0.734527 -0.362425
vn -0.573689 0.734527 -0.362425
vn -0.626128 0.763010 -0.160560
vn -0.626128 0.763010 -0.160560
vn -0.626128 0.763010 -0.160560
vn 0.022670 0.967817 0.250634
vn 0.022670 0.967817 0.250634
vn 0.022670 0.967817 0.250634
vn 0.067049 0.591023 0.803863
vn 0.067049 0.591023 0.803863
vn 0.067049 0.591023 0.803863
vn 0.053370 0.874928 -0.481303
vn 0.053370 0.874928 -0.481303
vn 0.053370 0.874928 -0.481303
vn -0.593081 0.803887 -0.044951
vn -0.593081 0.803887 -0.044951
vn -0.593081 0.803887 -0.044951
vn -0.595749 0.801975 -0.043808
vn -0.595749 0.801975 -0.043808
vn -0.595749 0.801975 -0.043808
vn -0.652133 0.758041 -0.009804
vn -0.652133 0.758041 -0.009804
vn -0.652133 0.758041 -0.009804
vn -0.693497 0.719814 0.030503
vn -0.693497 0.719814 0.030503
vn -0.693497 0.719814 0.030503
vn 0.038206 0.999074 0.019797
vn 0.038206 0.999074 0.019797
vn 0.038206 0.999074 0.019797
vn 0.072027 0.997396 -0.003662
vn 0.072027 0.997396 -0.003662
vn 0.072027 0.997396 -0.003662
vn 0.689094 0.723836 -0.034809
vn 0.689094 0.723836 -0.034809
vn 0.689094 0.723836 -0.034809
vn 0.655768 0.750716 -0.079966
vn 0.655768 0.750716 -0.079966
vn 0.655768 0.750716 -0.079966
vn 0.589371 0.799493 -0.115987
vn 0.589372 0.799493 -0.115987
vn 0.589371 0.799493 -0.115987
vn -0.690882 0.663094 0.288079
vn -0.690882 0.663094 0.288079
vn -0.690882 0.663094 0.288079
vn -0.518138 0.702598 0.487738
vn -0.518138 0.702598 0.487738
vn -0.518138 0.702598 0.487738
vn 0.026532 0.975679 0.217591
vn 0.026532 0.975679 0.217591
vn 0.026532 0.975679 0.217591
vn 0.438168 0.726735 0.529022
vn 0.438168 0.726735 0.529022
vn 0.438168 0.726735 0.529022
vn 0.630580 0.700693 0.333765
vn 0.630580 0.700693 0.333765
vn 0.630580 0.700693 0.333765
vn -0.129748 0.632814 -0.763356
vn -0.129748 0.632814 -0.763356
vn -0.129748 0.632814 -0.763356
vn -0.350643 0.676598 -0.647506
vn -0.350643 0.676598 -0.647506
vn -0.350643 0.676598 -0.647506
vn -0.091284 0.995646 -0.018858
vn -0.091284 0.995646 -0.018858
vn -0.091284 0.995646 -0.018858
vn -0.139597 0.989913 -0.024168
vn -0.139597 0.989914 -0.024168
vn -0.139597 0.989914 -0.024168
vn -0.145314 0.989020 -0.026883
vn -0.145314 0.989020 -0.026883
vn -0.145314 0.989020 -0.026883
vn -0.086017 0.961947 0.259345
vn -0.086017 0.961947 0.259345
vn -0.086017 0.961947 0.259345
vn -0.308485 0.542983 0.781030
vn -0.308485 0.542982 0.781030
vn -0.308485 0.542983 0.781030
vn 0.110962 0.588003 0.801211
vn 0.110962 0.588003 0.801211
vn 0.110962 0.588003 0.801211
vn 0.246618 0.647966 0.720639
vn 0.246618 0.647966 0.720639
vn 0.246618 0.647966 0.720639
vn 0.367628 0.746535 0.554558
vn 0.367628 0.746535 0.554558
vn 0.367628 0.746535 0.554558
vn 0.191932 0.981092 0.024922
vn 0.191932 0.981092 0.024922
vn 0.191932 0.981092 0.024922
vn 0.088558 0.575288 -0.813143
vn 0.088558 0.575288 -0.813143
vn 0.088558 0.575288 -0.813143
vn 0.288490 0.630169 -0.720874
vn 0.288490 0.630169 -0.720874
vn 0.288490 0.630169 -0.720874
vn 0.029460 0.524636 -0.850817
vn 0.029460 0.524636 -0.850817
vn 0.029460 0.524636 -0.850817
vn 0.040230 0.527353 -0.848693
vn 0.040230 0.527353 -0.848693
vn 0.040230 0.527353 -0.848693
vn 0.036913 0.937667 -0.345568
vn 0.036913 0.937667 -0.345568
vn 0.036913 0.937667 -0.345568
vn -0.003227 0.999365 -0.035476
vn -0.003227 0.999365 -0.035476
vn -0.003227 0.999365 -0.035476
vn 0.013865 0.992540 0.121133
vn 0.013865 0.992539 0.121133
vn 0.013865 0.992539 0.121133
vn 0.014827 0.965099 0.261464
vn 0.014827 0.965099 0.261464
vn 0.014827 0.965099 0.261464
vn -0.058447 0.393471 0.917477
vn -0.058447 0.393471 0.917477
vn -0.058447 0.393471 0.917477
vn -0.020747 0.437735 0.898865
vn -0.020747 0.437735 0.898865
vn -0.020747 0.437735 0.898865
vn -0.030123 0.414499 0.909551
vn -0.030123 0.414499 0.909551
vn -0.030123 0.414499 0.909551
vn -0.085423 0.639026 -0.764427
vn -0.085423 0.639026 -0.764427
vn -0.085423 0.639026 -0.764427
vn -0.067258 0.653526 -0.753910
vn -0.067258 0.653526 -0.753910
vn -0.067258 0.653526 -0.753910
vn -0.035261 0.590254 -0.806447
vn -0.035261 0.590254 -0.806447
vn -0.035261 0.590254 -0.806447
vn -0.041924 0.985868 -0.162196
vn -0.041924 0.985868 -0.162196
vn -0.041924 0.985868 -0.162196
vn -0.108697 0.954862 -0.276448
vn -0.108697 0.954862 -0.276448
vn -0.108697 0.954862 -0.276448
vn -0.011050 0.999336 0.034707
vn -0.011050 0.999337 0.034707
vn -0.011050 0.999336 0.034707
vn -0.074781 0.996082 0.047210
vn -0.074781 0.996082 0.047210
vn -0.074781 0.996082 0.047210
vn -0.074394 0.966938 0.243918
vn -0.074394 0.966938 0.243918
vn -0.074394 0.966938 0.243918
vn -0.135681 0.463108 0.875855
vn -0.135681 0.463108 0.875855
vn -0.135681 0.463108 0.875855
vn -0.133852 0.456033 0.879840
vn -0.133852 0.456033 0.879840
vn -0.133852 0.456033 0.879840
vn -0.102079 0.403438 0.909295
vn -0.102079 0.403438 0.909295
vn -0.102079 0.403438 0.909295
vn 0.049668 0.997968 -0.039912
vn 0.049668 0.997968 -0.039912
vn 0.049668 0.997968 -0.039912
vn -0.005004 0.999835 0.017446
vn -0.005004 0.999835 0.017446
vn -0.005004 0.999835 0.017446
vn -0.065781 0.996817 -0.045037
vn -0.065781 0.996817 -0.045037
vn -0.065781 0.996817 -0.045037
vn -0.616338 0.782770 -0.086013
vn -0.616338 0.782770 -0.086013
vn -0.616338 0.782770 -0.086013
vn 0.581005 0.807757 -0.099813
vn 0.581005 0.807757 -0.099813
vn 0.581005 0.807757 -0.099813
vn 0.591926 0.786818 -0.174762
vn 0.591926 0.786817 -0.174762
vn 0.591926 0.786818 -0.174762
vn -0.724888 0.682448 0.093821
vn -0.724888 0.682448 0.093821
vn -0.724888 0.682448 0.093821
vn -0.729613 0.661371 0.173932
vn -0.729613 0.661371 0.173932
vn -0.729613 0.661372 0.173932
vn 0.189605 0.981480 0.027335
vn 0.189605 0.981480 0.027335
vn 0.189605 0.981480 0.027335
vn 0.284415 0.958482 -0.020509
vn 0.284415 0.958482 -0.020509
vn 0.284415 0.958482 -0.020509
vn 0.670472 0.722120 0.170322
vn 0.670472 0.722120 0.170322
vn 0.670472 0.722120 0.170322
vn 0.678337 0.732462 0.057955
vn 0.678337 0.732462 0.057955
vn 0.678337 0.732462 0.057955
vn 0.646026 0.757416 0.094719
vn 0.646026 0.757416 0.094719
vn 0.646026 0.757416 0.094719
vn -0.514536 0.696826 0.499687
vn -0.514536 0.696826 0.499687
vn -0.514536 0.696826 0.499687
vn -0.060186 0.957764 0.281187
vn -0.060186 0.957764 0.281187
vn -0.060186 0.957764 0.281187
vn 0.216013 0.965359 0.146360
vn 0.216013 0.965359 0.146360
vn 0.216013 0.965359 0.146360
vn 0.456604 0.748170 -0.481409
vn 0.456604 0.748170 -0.481409
vn 0.456604 0.748170 -0.481409
s off
f 12/1/1 29/2/2 55/3/3
f 29/2/4 16/4/5 55/3/6
f 7/5/7 57/6/8 23/7/9
f 44/8/10 15/9/11 14/10/12
f 14/10/13 15/9/14 13/11/15
f 8/12/16 26/13/17 7/5/18
f 26/13/19 5/14/20 15/9/21
f 28/15/22 4/16/23 27/17/24
f 27/17/25 6/18/26 28/15/27
f 49/19/28 29/2/29 30/20/30
f 30/20/31 29/2/32 12/1/33
f 44/8/34 7/5/35 15/9/36
f 28/15/37 51/21/38 32/22/39
f 51/21/40 20/23/41 32/22/42
f 32/22/43 20/23/44 31/24/45
f 32/22/46 31/24/47 22/25/48
f 37/26/49 33/27/50 47/28/51
f 33/27/52 37/26/53 23/7/54
f 25/29/55 34/30/56 24/31/57
f 34/30/58 21/32/59 24/31/60
f 24/31/61 21/32/62 7/5/63
f 32/22/64 35/33/65 36/34/66
f 2/35/67 36/34/68 1/36/69
f 49/19/70 30/20/71 37/26/72
f 58/37/73 3/38/74 38/39/75
f 58/37/76 38/39/77 9/40/78
f 28/15/79 39/41/80 40/42/81
f 28/15/82 40/42/83 4/16/84
f 41/43/85 46/44/86 10/45/87
f 41/43/88 10/45/89 32/22/90
f 32/22/91 10/45/92 28/15/93
f 41/43/94 2/35/95 18/46/96
f 1/36/97 11/47/98 2/35/99
f 30/20/100 12/1/101 42/48/102
f 30/20/103 42/48/104 3/38/105
f 3/38/106 58/37/107 30/20/108
f 7/5/109 23/7/110 24/31/111
f 15/9/112 43/49/113 13/11/114
f 43/49/115 15/9/116 5/14/117
f 17/50/118 44/8/119 45/51/120
f 45/51/121 44/8/122 14/10/123
f 44/8/124 57/6/125 7/5/126
f 33/27/127 46/44/128 47/28/129
f 49/19/130 37/26/131 47/28/132
f 18/46/133 29/2/134 49/19/135
f 19/52/136 48/53/137 18/46/138
f 48/53/139 16/4/140 18/46/141
f 18/46/142 16/4/143 29/2/144
f 39/41/145 28/15/146 56/54/147
f 56/54/148 28/15/149 44/8/150
f 17/50/151 56/54/152 44/8/153
f 28/15/154 10/45/155 44/8/156
f 44/8/157 10/45/158 57/6/159
f 46/44/160 41/43/161 49/19/162
f 46/44/163 49/19/164 47/28/165
f 41/43/166 18/46/167 49/19/168
f 11/47/169 18/46/170 2/35/171
f 11/47/172 50/55/173 18/46/174
f 50/55/175 19/52/176 18/46/177
f 57/6/178 33/27/179 23/7/180
f 46/44/181 33/27/182 57/6/183
f 10/45/184 46/44/185 57/6/186
f 28/15/187 6/18/188 51/21/189
f 21/32/190 52/56/191 7/5/192
f 52/56/193 8/12/194 7/5/195
f 32/22/196 22/25/197 53/57/198
f 32/22/199 53/57/200 35/33/201
f 23/7/202 58/37/203 24/31/204
f 23/7/205 37/26/206 58/37/207
f 58/37/208 9/40/209 54/58/210
f 54/58/211 25/29/212 24/31/213
f 54/58/214 24/31/215 58/37/216
f 36/34/217 2/35/218 32/22/219
f 41/43/220 32/22/221 2/35/222
f 30/20/223 58/37/224 37/26/225
f 15/9/226 7/5/227 26/13/228
