# This file uses centimeters as units for non-parametric coordinates.

v -0.102945 -0.000000 -0.102947
v -0.102945 -0.000000 0.102947
v -0.102945 0.101639 -0.102947
v -0.096231 0.146750 0.103069
v 0.102945 0.153465 -0.102947
v 0.102945 0.139289 0.102947
v 0.102945 -0.000000 -0.102947
v 0.102945 -0.000000 0.102947
v 0.140482 0.139289 0.000000
v -0.139692 0.149515 0.002579
v -0.140478 -0.000000 0.000000
v 0.140482 -0.000000 0.000000
v 0.000004 0.142655 -0.140480
v 0.006086 0.121593 0.136421
v 0.000004 -0.000000 0.140480
v 0.000004 -0.000000 0.000000
v 0.000004 -0.000000 -0.140480
v 0.120932 0.139289 0.000000
v 0.008039 0.162293 0.114586
v 0.088621 0.139289 0.088623
v 0.000004 0.142655 -0.120934
v 0.088621 0.153318 -0.088623
v -0.088625 0.142682 -0.088627
v -0.120293 0.152101 0.001999
v -0.081511 0.149234 0.087929
v 0.110580 0.161943 0.000000
v -0.006580 0.197862 -0.003132
v 0.003798 0.185135 0.106216
v 0.081240 0.163086 0.080559
v 0.000004 0.164872 -0.110580
v 0.081034 0.174018 -0.081036
v -0.081341 0.165540 -0.081024
v -0.114353 0.174269 0.004349
v -0.077982 0.171381 0.082504
v -0.077669 0.142655 -0.112164
v -0.110363 0.144040 -0.081642
v -0.012115 0.156555 0.128994
v 0.034647 0.153385 0.126122
vt 0.152832 0.473050
vt 0.152832 0.473050
vt 0.152832 0.473050
vt 0.152832 0.473050
vt 0.152832 0.473050
vt 0.152832 0.473050
vt 0.152832 0.473050
vt 0.152832 0.473050
vt 0.152832 0.473050
vt 0.152832 0.473050
vt 0.152832 0.473050
vt 0.152832 0.473050
vt 0.152832 0.473050
vt 0.152832 0.473050
vt 0.152832 0.473050
vt 0.152832 0.473050
vt 0.152832 0.473050
vt 0.152832 0.473050
vt 0.152832 0.473050
vt 0.152832 0.473050
vt 0.152832 0.473050
vt 0.993066 0.500762
vt 0.152832 0.473050
vt 0.152832 0.473050
vt 0.152832 0.473050
vt 0.152832 0.473050
vt 0.152832 0.473050
vt 0.152832 0.473050
vt 0.152832 0.473050
vt 0.152832 0.473050
vt 0.152832 0.473050
vt 0.152832 0.473050
vt 0.152832 0.473050
vt 0.152832 0.473050
vt 0.152832 0.473050
vt 0.152832 0.473050
vt 0.152832 0.473050
vt 0.993066 0.500762
vt 0.993066 0.500762
vt 0.993066 0.500762
vt 0.993066 0.500762
vt 0.993066 0.500762
vt 0.993066 0.500762
vt 0.993066 0.500762
vt 0.993066 0.500762
vt 0.993066 0.500762
vt 0.993066 0.500762
vt 0.993066 0.500762
vt 0.993066 0.500762
vt 0.993066 0.500762
vt 0.993066 0.500762
vt 0.993066 0.500762
vt 0.993066 0.500762
vt 0.152832 0.473050
vt 0.152832 0.473050
vt 0.152832 0.473050
vt 0.152832 0.473050
vt 0.152832 0.473050
vt 0.152832 0.473050
vt 0.152832 0.473050
vn -0.928796 0.020138 0.370045
vn -0.928796 0.020139 0.370045
vn -0.928796 0.020138 0.370045
vn -0.928796 0.020139 0.370045
vn 0.293675 0.951902 0.087390
vn 0.293675 0.951902 0.087390
vn 0.293675 0.951902 0.087390
vn 0.293675 0.951902 0.087390
vn 0.939496 0.000000 0.342559
vn 0.939496 0.000000 0.342559
vn 0.939496 0.000000 0.342559
vn 0.939496 0.000000 0.342559
vn 0.000000 -1.000000 -0.000000
vn 0.000000 -1.000000 -0.000000
vn 0.000000 -1.000000 -0.000000
vn 0.000000 -1.000000 -0.000000
vn 0.342543 0.000000 -0.939502
vn 0.342543 0.000000 -0.939502
vn 0.342543 0.000000 -0.939502
vn 0.342543 0.000000 -0.939502
vn 0.153383 0.979917 -0.127419
vn 0.153383 0.979917 -0.127419
vn 0.153383 0.979917 -0.127419
vn 0.153383 0.979917 -0.127419
vn 0.000000 -1.000000 0.000000
vn 0.000000 -1.000000 0.000000
vn 0.000000 -1.000000 0.000000
vn 0.000000 -1.000000 0.000000
vn 0.939496 0.000000 -0.342561
vn 0.939496 0.000000 -0.342561
vn 0.939496 0.000000 -0.342561
vn 0.939496 0.000000 -0.342561
vn -0.163088 0.956848 -0.240510
vn -0.163088 0.956848 -0.240510
vn -0.163088 0.956848 -0.240510
vn -0.163088 0.956848 -0.240510
vn -0.202445 0.970453 0.131290
vn -0.202445 0.970453 0.131290
vn -0.202445 0.970453 0.131290
vn -0.202445 0.970453 0.131290
vn 0.000000 -1.000000 0.000000
vn 0.000000 -1.000000 0.000000
vn 0.000000 -1.000000 0.000000
vn 0.000000 -1.000000 0.000000
vn 0.000000 -1.000000 0.000000
vn 0.000000 -1.000000 0.000000
vn 0.000000 -1.000000 0.000000
vn 0.000000 -1.000000 0.000000
vn -0.214152 0.469734 0.856440
vn -0.214152 0.469734 0.856440
vn -0.214152 0.469734 0.856440
vn 0.000000 1.000000 0.000000
vn 0.000000 1.000000 0.000000
vn 0.000000 1.000000 0.000000
vn 0.000000 1.000000 0.000000
vn 0.049724 0.990565 0.127707
vn 0.049724 0.990565 0.127707
vn 0.049724 0.990565 0.127707
vn 0.049724 0.990565 0.127707
vn -0.097949 0.994499 -0.037118
vn -0.097949 0.994499 -0.037118
vn -0.097949 0.994499 -0.037118
vn -0.097949 0.994499 -0.037118
vn -0.258389 0.397313 -0.880555
vn -0.258389 0.397313 -0.880555
vn -0.258389 0.397313 -0.880555
vn -0.822300 0.420642 -0.383253
vn -0.822300 0.420642 -0.383253
vn -0.822300 0.420642 -0.383253
vn -0.110882 0.990701 0.078846
vn -0.110882 0.990701 0.078846
vn -0.110882 0.990701 0.078846
vn -0.110882 0.990701 0.078846
vn 0.453165 0.404536 0.794350
vn 0.453165 0.404536 0.794350
vn 0.453165 0.404536 0.794350
vn 0.384589 0.390568 0.836390
vn 0.384589 0.390568 0.836390
vn 0.384589 0.390568 0.836390
vn 0.384590 0.390568 0.836390
vn 0.867698 0.385682 0.313607
vn 0.867698 0.385682 0.313607
vn 0.867698 0.385682 0.313607
vn 0.867698 0.385682 0.313606
vn 0.876354 0.407501 -0.256802
vn 0.876354 0.407501 -0.256802
vn 0.876354 0.407501 -0.256802
vn 0.876354 0.407501 -0.256802
vn 0.269438 0.411615 -0.870619
vn 0.269438 0.411615 -0.870619
vn 0.269438 0.411615 -0.870619
vn 0.269438 0.411615 -0.870619
vn -0.872736 0.334866 -0.355241
vn -0.872736 0.334866 -0.355241
vn -0.872736 0.334866 -0.355241
vn -0.872736 0.334866 -0.355241
vn -0.312826 0.394694 -0.863919
vn -0.312826 0.394694 -0.863919
vn -0.312826 0.394694 -0.863919
vn -0.312826 0.394693 -0.863919
vn -0.884487 0.217604 0.412713
vn -0.884486 0.217604 0.412713
vn -0.884487 0.217604 0.412713
vn -0.884486 0.217604 0.412713
vn -0.310495 0.274148 0.910185
vn -0.310495 0.274148 0.910185
vn -0.310495 0.274148 0.910185
vn -0.310495 0.274148 0.910185
vn -0.000073 1.000000 -0.000647
vn -0.000073 1.000000 -0.000647
vn -0.000073 1.000000 -0.000647
vn -0.000073 1.000000 -0.000647
vn -0.342486 -0.000008 -0.939523
vn -0.342486 -0.000008 -0.939523
vn -0.342486 -0.000008 -0.939523
vn -0.342486 -0.000008 -0.939523
vn -0.342486 -0.000008 -0.939523
vn -0.941848 0.005663 -0.335992
vn -0.941848 0.005663 -0.335992
vn -0.941848 0.005663 -0.335992
vn -0.941848 0.005663 -0.335992
vn -0.941848 0.005663 -0.335992
vn -0.048321 0.993661 -0.101508
vn -0.048321 0.993661 -0.101508
vn -0.048321 0.993661 -0.101508
vn -0.048321 0.993661 -0.101508
vn -0.156469 0.983661 0.089048
vn -0.156469 0.983661 0.089048
vn -0.156469 0.983661 0.089048
vn -0.156469 0.983661 0.089048
vn -0.320690 0.031030 0.946676
vn -0.320690 0.031030 0.946676
vn -0.320690 0.031030 0.946676
vn -0.320690 0.031030 0.946676
vn -0.320690 0.031030 0.946676
vn 0.333422 0.007618 0.942747
vn 0.333422 0.007618 0.942747
vn 0.333422 0.007618 0.942747
vn 0.333422 0.007618 0.942747
vn 0.333422 0.007618 0.942747
vn 0.231748 0.972253 -0.031897
vn 0.231748 0.972253 -0.031897
vn 0.231748 0.972253 -0.031897
vn 0.231748 0.972253 -0.031897
s off
f 10/16/1 11/17/2 2/2/3 4/4/4
f 26/22/5 27/38/6 28/39/7 29/40/8
f 12/19/9 9/15/10 6/6/11 8/8/12
f 15/25/13 16/27/14 12/19/15 8/8/16
f 7/13/17 17/28/18 13/20/19 5/14/20
f 30/41/21 27/38/22 26/22/23 31/42/24
f 7/7/25 12/19/26 16/27/27 17/29/28
f 5/5/29 9/15/30 12/19/31 7/7/32
f 32/43/33 33/44/34 27/38/35 30/41/36
f 28/39/37 27/38/38 33/44/39 34/45/40
f 11/18/41 16/27/42 15/25/43 2/10/44
f 17/29/45 16/27/46 11/18/47 1/9/48
f 14/23/49 38/59/50 19/30/51
f 6/6/52 9/15/53 18/32/54 20/31/55
f 9/15/56 5/5/57 22/33/58 18/32/59
f 5/5/60 13/21/61 21/34/62 22/33/63
f 3/3/64 36/56/65 23/35/66
f 23/35/67 35/55/68 3/3/69
f 10/16/70 4/4/71 25/37/72 24/36/73
f 19/30/74 37/57/75 14/23/76
f 19/46/77 20/47/78 29/40/79 28/39/80
f 20/47/81 18/48/82 26/22/83 29/40/84
f 18/48/85 22/49/86 31/42/87 26/22/88
f 22/49/89 21/50/90 30/41/91 31/42/92
f 23/51/93 24/52/94 33/44/95 32/43/96
f 21/50/97 23/51/98 32/43/99 30/41/100
f 24/52/101 25/53/102 34/45/103 33/44/104
f 25/53/105 19/46/106 28/39/107 34/45/108
f 13/21/109 35/55/110 23/35/111 21/34/112
f 13/20/113 17/28/114 1/1/115 3/3/116 35/54/117
f 1/1/118 11/17/119 10/16/120 36/56/121 3/3/122
f 23/35/123 36/56/124 10/16/125 24/36/126
f 4/4/127 37/57/128 19/30/129 25/37/130
f 2/2/131 15/26/132 14/24/133 37/58/134 4/4/135
f 38/60/136 14/24/137 15/26/138 8/11/139 6/12/140
f 19/30/141 38/59/142 6/6/143 20/31/144
