# This file uses centimeters as units for non-parametric coordinates.

v -0.997578 0.000000 0.098343
v 0.162388 0.000000 -0.062668
v -0.939331 0.157215 0.053070
v 0.103138 0.157215 -0.091637
v -0.929112 0.157215 -0.730972
v 0.084682 0.157215 -0.699768
v -0.986202 0.000000 -0.774055
v 0.141845 0.000000 -0.739342
v -0.238114 0.157215 -0.920631
v -0.599800 0.157215 0.224426
v -0.619778 0.000000 0.289009
v -0.217324 0.000000 -0.985092
v -0.064717 0.000000 0.867516
v 0.548527 0.000000 0.837677
v -0.016712 0.157215 0.811501
v 0.495857 0.157215 0.807426
v -0.107609 0.157215 0.311768
v 0.592762 0.157215 0.332191
v -0.172169 0.000000 0.280975
v 0.656349 0.000000 0.308884
v 0.185295 0.157215 0.086662
v 0.173382 0.157215 0.910751
v 0.153408 0.000000 0.975342
v 0.206081 0.000000 0.022202
v 0.510509 0.000000 -0.724930
v 0.237056 0.000000 -0.175224
v 0.535946 0.157215 -0.655693
v 0.289173 0.157215 -0.206413
v 1.016422 0.157215 -0.490944
v 0.656547 0.157215 0.110237
v 1.074825 0.000000 -0.532242
v 0.645836 0.000000 0.177116
v 1.069805 0.157215 -0.125412
v 0.356498 0.157215 -0.538277
v 0.309894 0.000000 -0.587257
v 1.115906 0.000000 -0.075790
v -0.238114 0.199250 -0.920631
v -0.599800 0.199250 0.224426
v 0.103138 0.199250 -0.091637
v 0.084682 0.199250 -0.699768
v -0.939331 0.199250 0.053070
v -0.929112 0.199250 -0.730972
v 0.185295 0.199250 0.086662
v 0.173382 0.199250 0.910751
v 0.495857 0.199250 0.807426
v 0.592762 0.199250 0.332191
v -0.016712 0.199250 0.811501
v -0.107609 0.199250 0.311768
v 1.069805 0.199250 -0.125412
v 0.356498 0.199250 -0.538277
v 0.289173 0.199250 -0.206413
v 0.656547 0.199250 0.110237
v 0.535946 0.199250 -0.655693
v 1.016422 0.199250 -0.490944
vt 0.443692 0.326509
vt 0.443692 0.326509
vt 0.443692 0.326509
vt 0.443692 0.326509
vt 0.443692 0.326509
vt 0.443692 0.326509
vt 0.443692 0.326509
vt 0.443692 0.326509
vt 0.443692 0.326509
vt 0.443692 0.326509
vt 0.443692 0.326509
vt 0.443692 0.326509
vt 0.443692 0.326509
vt 0.443692 0.326509
vt 0.443692 0.326509
vt 0.443692 0.326509
vt 0.443692 0.326509
vt 0.443692 0.326509
vt 0.443692 0.326509
vt 0.443692 0.326509
vt 0.443692 0.326509
vt 0.443692 0.326509
vt 0.443692 0.326509
vt 0.443692 0.326509
vt 0.443692 0.326509
vt 0.443692 0.326509
vt 0.443692 0.326509
vt 0.443692 0.326509
vt 0.443692 0.326509
vt 0.443692 0.326509
vt 0.443692 0.326509
vt 0.443692 0.326509
vt 0.443692 0.326509
vt 0.443692 0.326509
vt 0.443692 0.326509
vt 0.443692 0.326509
vt 0.443692 0.326509
vt 0.443692 0.326509
vt 0.443692 0.326509
vt 0.443692 0.326509
vt 0.443692 0.326509
vt 0.443692 0.326509
vt 0.443692 0.326509
vt 0.443692 0.326509
vt 0.443692 0.326509
vt 0.443692 0.326509
vt 0.443692 0.326509
vt 0.443692 0.326509
vt 0.564973 0.793506
vt 0.564973 0.793506
vt 0.564973 0.793506
vt 0.564973 0.793506
vt 0.564973 0.793506
vt 0.564973 0.793506
vt 0.564973 0.793506
vt 0.564973 0.793506
vt 0.564973 0.793506
vt 0.564973 0.793506
vt 0.564973 0.793506
vt 0.564973 0.793506
vt 0.564973 0.793506
vt 0.564973 0.793506
vt 0.564973 0.793506
vt 0.564973 0.793506
vt 0.564973 0.793506
vt 0.564973 0.793506
vt 0.564973 0.793506
vt 0.564973 0.793506
vt 0.564973 0.793506
vt 0.564973 0.793506
vt 0.564973 0.793506
vt 0.564973 0.793506
vt 0.564973 0.793506
vt 0.564973 0.793506
vt 0.564973 0.793506
vt 0.564973 0.793506
vt 0.564973 0.793506
vt 0.564973 0.793506
vt 0.564973 0.793506
vt 0.564973 0.793506
vt 0.564973 0.793506
vt 0.564973 0.793506
vt 0.564973 0.793506
vt 0.564973 0.793506
vn 0.390277 0.307001 0.868006
vn 0.390277 0.307002 0.868006
vn 0.390277 0.307001 0.868006
vn 0.390277 0.307002 0.868006
vn 0.000000 1.000000 0.000000
vn 0.000000 1.000000 0.000000
vn 0.000000 1.000000 0.000000
vn 0.000000 1.000000 0.000000
vn 0.521917 0.381776 -0.762791
vn 0.521917 0.381776 -0.762791
vn 0.521917 0.381776 -0.762791
vn 0.521917 0.381776 -0.762791
vn 0.937098 0.347906 -0.028444
vn 0.937098 0.347906 -0.028444
vn 0.937098 0.347906 -0.028444
vn 0.937098 0.347906 -0.028444
vn -0.938789 0.344275 -0.012239
vn -0.938789 0.344275 -0.012239
vn -0.938789 0.344275 -0.012239
vn -0.938789 0.344275 -0.012239
vn 0.000000 1.000000 -0.000000
vn 0.000000 1.000000 -0.000000
vn 0.000000 1.000000 -0.000000
vn 0.000000 1.000000 -0.000000
vn -0.414807 0.390359 0.821921
vn -0.414807 0.390359 0.821921
vn -0.414807 0.390359 0.821921
vn -0.414807 0.390359 0.821921
vn -0.249007 0.339042 -0.907219
vn -0.249006 0.339042 -0.907219
vn -0.249006 0.339042 -0.907219
vn -0.249007 0.339042 -0.907219
vn 0.303296 0.303945 0.903122
vn 0.303296 0.303945 0.903122
vn 0.303296 0.303945 0.903122
vn 0.303296 0.303945 0.903122
vn 0.000000 1.000000 0.000000
vn 0.000000 1.000000 0.000000
vn 0.000000 1.000000 0.000000
vn 0.000000 1.000000 0.000000
vn 0.493071 0.354126 -0.794654
vn 0.493071 0.354126 -0.794654
vn 0.493071 0.354126 -0.794655
vn 0.493071 0.354126 -0.794655
vn 0.919938 0.344278 0.187581
vn 0.919938 0.344278 0.187581
vn 0.919938 0.344278 0.187581
vn 0.919938 0.344278 0.187581
vn -0.923631 0.344183 0.168651
vn -0.923631 0.344184 0.168651
vn -0.923631 0.344184 0.168651
vn -0.923631 0.344183 0.168651
vn 0.000000 1.000000 0.000000
vn 0.000000 1.000000 0.000000
vn 0.000000 1.000000 0.000000
vn 0.000000 1.000000 0.000000
vn -0.414101 0.402645 0.816332
vn -0.414101 0.402645 0.816332
vn -0.414101 0.402645 0.816332
vn -0.414101 0.402645 0.816332
vn -0.555832 0.310933 -0.770955
vn -0.555832 0.310933 -0.770955
vn -0.555832 0.310933 -0.770955
vn -0.555832 0.310933 -0.770955
vn -0.936222 0.303925 -0.176401
vn -0.936222 0.303924 -0.176401
vn -0.936223 0.303924 -0.176401
vn -0.936223 0.303925 -0.176401
vn 0.000000 1.000000 0.000000
vn 0.000000 1.000000 0.000000
vn 0.000000 1.000000 0.000000
vn 0.000000 1.000000 0.000000
vn 0.452622 0.354155 0.818357
vn 0.452622 0.354155 0.818357
vn 0.452622 0.354155 0.818357
vn 0.452621 0.354155 0.818357
vn -0.612966 0.344284 0.711155
vn -0.612966 0.344284 0.711155
vn -0.612966 0.344284 0.711155
vn -0.612966 0.344284 0.711155
vn 0.303920 0.344159 -0.888362
vn 0.303920 0.344159 -0.888362
vn 0.303920 0.344159 -0.888362
vn 0.303920 0.344159 -0.888362
vn 0.000000 1.000000 -0.000000
vn 0.000000 1.000000 -0.000000
vn 0.000000 1.000000 -0.000000
vn 0.000000 1.000000 -0.000000
vn -0.510122 0.402632 -0.760041
vn -0.510122 0.402632 -0.760041
vn -0.510122 0.402632 -0.760041
vn -0.510122 0.402632 -0.760041
vn 0.944213 0.310946 -0.108510
vn 0.944213 0.310946 -0.108510
vn 0.944213 0.310946 -0.108510
vn 0.944213 0.310946 -0.108510
vn 0.410085 0.000000 0.912047
vn 0.410085 0.000000 0.912047
vn 0.410085 0.000000 0.912047
vn 0.410085 0.000000 0.912047
vn 0.999540 0.000000 -0.030334
vn 0.999540 0.000000 -0.030334
vn 0.999540 0.000000 -0.030334
vn 0.999540 0.000000 -0.030334
vn 0.564689 0.000000 -0.825304
vn 0.564689 0.000000 -0.825304
vn 0.564689 0.000000 -0.825304
vn 0.564689 0.000000 -0.825304
vn -0.450557 0.000000 0.892748
vn -0.450557 0.000000 0.892748
vn -0.450557 0.000000 0.892748
vn -0.450557 0.000000 0.892748
vn -0.264683 0.000000 -0.964336
vn -0.264683 0.000000 -0.964336
vn -0.264683 0.000000 -0.964336
vn -0.264683 0.000000 -0.964336
vn -0.999915 0.000000 -0.013033
vn -0.999915 0.000000 -0.013033
vn -0.999915 0.000000 -0.013033
vn -0.999915 0.000000 -0.013033
vn 0.305131 0.000000 0.952310
vn 0.305131 0.000000 0.952310
vn 0.305131 0.000000 0.952310
vn 0.305131 0.000000 0.952310
vn 0.979837 0.000000 0.199798
vn 0.979837 0.000000 0.199798
vn 0.979837 0.000000 0.199798
vn 0.979837 0.000000 0.199798
vn 0.516116 0.000000 -0.856519
vn 0.516116 0.000000 -0.856519
vn 0.516116 0.000000 -0.856519
vn 0.516116 0.000000 -0.856519
vn -0.462827 0.000000 0.886448
vn -0.462827 0.000000 0.886448
vn -0.462827 0.000000 0.886448
vn -0.462827 0.000000 0.886448
vn -0.609361 0.000000 -0.792893
vn -0.609361 0.000000 -0.792893
vn -0.609361 0.000000 -0.792893
vn -0.609361 0.000000 -0.792893
vn -0.983857 0.000000 0.178954
vn -0.983857 0.000000 0.178954
vn -0.983857 0.000000 0.178954
vn -0.983857 0.000000 0.178954
vn -0.980036 0.000000 -0.198821
vn -0.980036 0.000000 -0.198821
vn -0.980036 0.000000 -0.198821
vn -0.980036 0.000000 -0.198821
vn -0.652878 0.000000 0.757463
vn -0.652878 0.000000 0.757463
vn -0.652878 0.000000 0.757463
vn -0.652878 0.000000 0.757463
vn 0.495350 0.000000 0.868694
vn 0.495350 0.000000 0.868694
vn 0.495350 0.000000 0.868694
vn 0.495350 0.000000 0.868694
vn -0.547529 0.000000 -0.836787
vn -0.547529 0.000000 -0.836787
vn -0.547529 0.000000 -0.836787
vn -0.547529 0.000000 -0.836787
vn 0.989504 0.000000 -0.144509
vn 0.989504 0.000000 -0.144509
vn 0.989504 0.000000 -0.144509
vn 0.989504 0.000000 -0.144509
vn 0.324350 0.000000 -0.945937
vn 0.324350 0.000000 -0.945937
vn 0.324350 0.000000 -0.945937
vn 0.324350 0.000000 -0.945937
s off
f 10/14/1 11/15/2 2/2/3 4/4/4
f 37/49/5 38/50/6 39/51/7 40/52/8
f 12/16/9 9/13/10 6/6/11 8/8/12
f 2/2/13 8/9/14 6/10/15 4/4/16
f 7/11/17 1/1/18 3/3/19 5/12/20
f 41/53/21 38/50/22 37/49/23 42/54/24
f 1/1/25 11/15/26 10/14/27 3/3/28
f 5/5/29 9/13/30 12/16/31 7/7/32
f 22/17/33 23/18/34 14/19/35 16/20/36
f 43/55/37 44/56/38 45/57/39 46/58/40
f 24/23/41 21/21/42 18/22/43 20/24/44
f 14/19/45 20/25/46 18/26/47 16/20/48
f 19/27/49 13/28/50 15/29/51 17/30/52
f 47/59/53 44/56/54 43/55/55 48/60/56
f 13/28/57 23/18/58 22/17/59 15/29/60
f 17/31/61 21/21/62 24/23/63 19/32/64
f 34/33/65 35/34/66 26/35/67 28/36/68
f 49/61/69 50/62/70 51/63/71 52/64/72
f 36/39/73 33/37/74 30/38/75 32/40/76
f 26/35/77 32/41/78 30/42/79 28/36/80
f 31/43/81 25/44/82 27/45/83 29/46/84
f 53/65/85 50/62/86 49/61/87 54/66/88
f 25/44/89 35/34/90 34/33/91 27/45/92
f 29/47/93 33/37/94 36/39/95 31/48/96
f 10/67/97 4/68/98 39/51/99 38/50/100
f 4/68/101 6/69/102 40/52/103 39/51/104
f 6/69/105 9/70/106 37/49/107 40/52/108
f 3/71/109 10/67/110 38/50/111 41/53/112
f 9/70/113 5/72/114 42/54/115 37/49/116
f 5/72/117 3/71/118 41/53/119 42/54/120
f 22/73/121 16/74/122 45/57/123 44/56/124
f 16/74/125 18/75/126 46/58/127 45/57/128
f 18/75/129 21/76/130 43/55/131 46/58/132
f 15/77/133 22/73/134 44/56/135 47/59/136
f 21/76/137 17/78/138 48/60/139 43/55/140
f 17/78/141 15/77/142 47/59/143 48/60/144
f 34/79/145 28/80/146 51/63/147 50/62/148
f 28/80/149 30/81/150 52/64/151 51/63/152
f 30/81/153 33/82/154 49/61/155 52/64/156
f 27/83/157 34/79/158 50/62/159 53/65/160
f 33/82/161 29/84/162 54/66/163 49/61/164
f 29/84/165 27/83/166 53/65/167 54/66/168
