# This file uses centimeters as units for non-parametric coordinates.

v -2.418040 -0.000000 0.051876
v -0.075701 -0.000000 0.051876
v -2.418040 0.115267 0.051876
v -0.075701 0.115267 0.013981
v -2.418040 0.115267 -0.031094
v -0.075701 0.115267 -0.063393
v -2.418040 -0.000000 -0.063393
v -0.075701 -0.000000 -0.063393
v -2.225153 0.115267 -0.063393
v -2.225153 0.115267 0.051876
v -2.225153 -0.000000 0.051876
v -2.225153 -0.000000 -0.063393
v -0.336985 -0.000000 0.051876
v -0.336985 0.115267 0.051876
v -0.336985 0.115267 -0.063393
v -0.336985 -0.000000 -0.063393
v -0.845412 0.094770 0.076385
v -0.845412 -0.000000 0.076385
v -0.886811 -0.000000 -0.008865
v -0.866829 0.094770 0.032284
v -1.688713 0.095857 -0.056232
v -1.712721 0.095857 -0.013725
v -1.735855 -0.000000 0.027233
v -1.688713 -0.000000 -0.056232
v -1.735855 0.055163 0.027233
v -1.853977 0.100543 0.033180
v -1.615433 0.095710 0.033878
v -0.886811 0.056994 -0.008865
v -0.988695 0.094908 -0.014881
v -0.689173 0.102138 -0.028465
v -0.075701 0.074642 0.051876
v -0.119505 0.115267 0.051876
v -2.363915 0.115267 -0.063393
v -2.418040 0.076119 -0.063393
v -2.418040 0.154248 0.051876
v -2.225153 0.154248 0.051876
v -2.225153 0.154248 -0.063393
v -2.363915 0.154248 -0.063393
v -2.418040 0.154248 -0.031094
v -0.336985 0.154248 -0.063393
v -0.336985 0.154248 0.051876
v -0.119505 0.154248 0.051876
v -0.075701 0.154248 0.013981
v -0.075701 0.154248 -0.063393
v -1.853977 0.139524 0.033180
v -1.712721 0.134838 -0.013725
v -1.688713 0.134838 -0.056232
v -1.615433 0.134691 0.033878
v -0.845412 0.133751 0.076385
v -0.866829 0.133751 0.032284
v -0.988695 0.133889 -0.014881
v -0.689173 0.141119 -0.028465
vt 0.152269 0.473871
vt 0.152269 0.473871
vt 0.152269 0.473871
vt 0.152269 0.473871
vt 0.152269 0.473871
vt 0.152269 0.473871
vt 0.152269 0.473871
vt 0.152269 0.473871
vt 0.152269 0.473871
vt 0.152269 0.473871
vt 0.152269 0.473871
vt 0.152269 0.473871
vt 0.152269 0.473871
vt 0.152269 0.473871
vt 0.152269 0.473871
vt 0.152269 0.473871
vt 0.152269 0.473871
vt 0.152269 0.473871
vt 0.152269 0.473871
vt 0.152269 0.473871
vt 0.152269 0.473871
vt 0.152269 0.473871
vt 0.152269 0.473871
vt 0.152269 0.473871
vt 0.152269 0.473871
vt 0.152269 0.473871
vt 0.152269 0.473871
vt 0.152269 0.473871
vt 0.152269 0.473871
vt 0.152269 0.473871
vt 0.152269 0.473871
vt 0.152269 0.473871
vt 0.152269 0.473871
vt 0.152269 0.473871
vt 0.152269 0.473871
vt 0.152269 0.473871
vt 0.152269 0.473871
vt 0.152269 0.473871
vt 0.152269 0.473871
vt 0.152269 0.473871
vt 0.152269 0.473871
vt 0.152269 0.473871
vt 0.152269 0.473871
vt 0.152269 0.473871
vt 0.152269 0.473871
vt 0.563148 0.791157
vt 0.563148 0.791157
vt 0.563148 0.791157
vt 0.563148 0.791157
vt 0.563148 0.791157
vt 0.563148 0.791157
vt 0.563148 0.791157
vt 0.563148 0.791157
vt 0.563148 0.791157
vt 0.563148 0.791157
vt 0.563148 0.791157
vt 0.563148 0.791157
vt 0.563148 0.791157
vt 0.563148 0.791157
vt 0.563148 0.791157
vt 0.563148 0.791157
vt 0.563148 0.791157
vt 0.563148 0.791157
vt 0.563148 0.791157
vt 0.563148 0.791157
vt 0.563148 0.791157
vt 0.563148 0.791157
vt 0.563148 0.791157
vt 0.563148 0.791157
vt 0.563148 0.791157
vt 0.563148 0.791157
vt 0.563148 0.791157
vt 0.563148 0.791157
vt 0.563148 0.791157
vt 0.563148 0.791157
vt 0.563148 0.791157
vt 0.563148 0.791157
vt 0.563148 0.791157
vt 0.563148 0.791157
vt 0.563148 0.791157
vt 0.563148 0.791157
vn 0.048151 0.000000 0.998840
vn 0.048151 0.000000 0.998840
vn 0.048151 0.000000 0.998840
vn 0.048151 0.000000 0.998840
vn -0.234735 0.770185 -0.593055
vn -0.234735 0.770185 -0.593055
vn -0.234735 0.770185 -0.593055
vn 0.000000 -1.000000 0.000000
vn 0.000000 -1.000000 0.000000
vn 0.000000 -1.000000 0.000000
vn 0.000000 -1.000000 0.000000
vn 1.000000 0.000000 0.000000
vn 1.000000 0.000000 0.000000
vn 1.000000 0.000000 0.000000
vn 1.000000 0.000000 0.000000
vn 1.000000 0.000000 0.000000
vn -1.000000 -0.000001 0.000000
vn -1.000000 -0.000001 0.000000
vn -1.000000 -0.000001 0.000000
vn -1.000000 -0.000001 0.000000
vn -1.000000 -0.000001 0.000000
vn 0.000000 1.000000 0.000000
vn 0.000000 1.000000 0.000000
vn 0.000000 1.000000 0.000000
vn 0.000000 1.000000 0.000000
vn 0.000000 1.000000 0.000000
vn 0.000000 0.000000 1.000000
vn 0.000000 0.000000 1.000000
vn 0.000000 0.000000 1.000000
vn 0.000000 0.000000 1.000000
vn 0.000000 -1.000000 0.000000
vn 0.000000 -1.000000 0.000000
vn 0.000000 -1.000000 0.000000
vn 0.000000 -1.000000 0.000000
vn 0.000000 0.000000 -1.000000
vn 0.000000 0.000000 -1.000000
vn 0.000000 0.000000 -1.000000
vn 0.000000 0.000000 -1.000000
vn 0.000000 0.000000 -1.000000
vn -0.000000 0.000000 1.000000
vn -0.000000 0.000000 1.000000
vn -0.000000 0.000000 1.000000
vn -0.000000 0.000000 1.000000
vn -0.000000 0.000000 1.000000
vn 0.000000 1.000000 0.000000
vn 0.000000 1.000000 0.000000
vn 0.000000 1.000000 0.000000
vn 0.000000 1.000000 0.000000
vn 0.000000 1.000000 0.000000
vn 0.000000 0.000000 -1.000000
vn 0.000000 0.000000 -1.000000
vn 0.000000 0.000000 -1.000000
vn 0.000000 0.000000 -1.000000
vn 0.000000 -1.000000 0.000000
vn 0.000000 -1.000000 0.000000
vn 0.000000 -1.000000 0.000000
vn 0.000000 -1.000000 0.000000
vn -0.055116 0.000011 0.998480
vn -0.055116 0.000011 0.998480
vn -0.055116 0.000011 0.998480
vn -0.055116 0.000011 0.998480
vn -0.055116 0.000011 0.998480
vn 0.000000 -1.000000 0.000000
vn 0.000000 -1.000000 0.000000
vn 0.000000 -1.000000 0.000000
vn 0.000000 -1.000000 0.000000
vn 0.279152 0.636012 -0.719419
vn 0.279152 0.636012 -0.719419
vn 0.279152 0.636012 -0.719419
vn 0.037834 0.999249 0.008325
vn 0.037834 0.999249 0.008325
vn 0.037834 0.999249 0.008325
vn 0.037834 0.999249 0.008325
vn 0.037834 0.999249 0.008325
vn 0.050301 0.000010 0.998734
vn 0.050301 0.000010 0.998734
vn 0.050301 0.000010 0.998734
vn 0.050301 0.000010 0.998734
vn 0.050301 0.000010 0.998734
vn 0.000000 -1.000000 0.000000
vn 0.000000 -1.000000 0.000000
vn 0.000000 -1.000000 0.000000
vn 0.000000 -1.000000 0.000000
vn 0.013346 0.000000 -0.999911
vn 0.013346 0.000000 -0.999911
vn 0.013346 0.000000 -0.999911
vn 0.013346 0.000000 -0.999911
vn 0.269391 0.602783 0.751054
vn 0.269391 0.602783 0.751054
vn 0.269391 0.602783 0.751054
vn -0.286932 0.755682 0.588740
vn -0.286932 0.755682 0.588740
vn -0.286932 0.755682 0.588740
vn 0.058966 0.000013 -0.998260
vn 0.058966 0.000013 -0.998260
vn 0.058966 0.000013 -0.998260
vn 0.058966 0.000013 -0.998260
vn 0.058966 0.000013 -0.998260
vn 0.001283 0.999999 0.000042
vn 0.001283 0.999999 0.000042
vn 0.001283 0.999999 0.000042
vn 0.001283 0.999999 0.000042
vn 0.001283 0.999999 0.000042
vn 0.001283 0.999999 0.000042
vn -0.038342 0.999240 0.007064
vn -0.038342 0.999240 0.007064
vn -0.038342 0.999240 0.007064
vn -0.038342 0.999240 0.007064
vn -0.038342 0.999240 0.007064
vn -0.098688 0.000001 -0.995118
vn -0.098688 0.000001 -0.995118
vn -0.098688 0.000001 -0.995118
vn -0.098688 0.000001 -0.995118
vn -0.098688 0.000001 -0.995118
vn 0.534615 0.576447 0.617977
vn 0.534615 0.576447 0.617977
vn 0.534615 0.576447 0.617977
vn -0.418137 0.578098 -0.700689
vn -0.418137 0.578098 -0.700689
vn -0.418137 0.578098 -0.700689
vn 0.000000 0.000000 1.000000
vn 0.000000 0.000000 1.000000
vn 0.000000 0.000000 1.000000
vn 0.000000 0.000000 1.000000
vn 0.000000 0.000000 -1.000000
vn 0.000000 0.000000 -1.000000
vn 0.000000 0.000000 -1.000000
vn 0.000000 0.000000 -1.000000
vn -0.512443 0.000000 -0.858721
vn -0.512443 0.000000 -0.858721
vn -0.512443 0.000000 -0.858721
vn -0.512443 0.000000 -0.858721
vn -1.000000 0.000000 0.000000
vn -1.000000 0.000000 0.000000
vn -1.000000 0.000000 0.000000
vn -1.000000 0.000000 0.000000
vn 0.000000 0.000000 1.000000
vn 0.000000 0.000000 1.000000
vn 0.000000 0.000000 1.000000
vn 0.000000 0.000000 1.000000
vn 0.654256 0.000000 0.756273
vn 0.654256 0.000000 0.756273
vn 0.654256 0.000000 0.756273
vn 0.654256 0.000000 0.756273
vn 1.000000 0.000000 0.000000
vn 1.000000 0.000000 0.000000
vn 1.000000 0.000000 0.000000
vn 1.000000 0.000000 0.000000
vn 0.000000 0.000000 -1.000000
vn 0.000000 0.000000 -1.000000
vn 0.000000 0.000000 -1.000000
vn 0.000000 0.000000 -1.000000
vn 0.050305 0.000000 0.998734
vn 0.050305 0.000000 0.998734
vn 0.050305 0.000000 0.998734
vn 0.050305 0.000000 0.998734
vn 0.315140 0.000000 0.949045
vn 0.315140 0.000000 0.949045
vn 0.315140 0.000000 0.949045
vn 0.315140 0.000000 0.949045
vn 0.013346 0.000000 -0.999911
vn 0.013346 0.000000 -0.999911
vn 0.013346 0.000000 -0.999911
vn 0.013346 0.000000 -0.999911
vn -0.439512 0.000000 0.898237
vn -0.439512 0.000000 0.898237
vn -0.439512 0.000000 0.898237
vn -0.439512 0.000000 0.898237
vn -0.055119 0.000000 0.998480
vn -0.055119 0.000000 0.998480
vn -0.055119 0.000000 0.998480
vn -0.055119 0.000000 0.998480
vn 0.360934 0.000000 -0.932592
vn 0.360933 0.000000 -0.932592
vn 0.360934 0.000000 -0.932592
vn 0.360933 0.000000 -0.932592
vn 0.058969 0.000000 -0.998260
vn 0.058969 0.000000 -0.998260
vn 0.058969 0.000000 -0.998260
vn 0.058969 0.000000 -0.998260
vn -0.323554 0.000000 -0.946210
vn -0.323554 0.000000 -0.946210
vn -0.323554 0.000000 -0.946210
vn -0.323554 0.000000 -0.946210
vn 0.048151 0.000000 0.998840
vn 0.048151 0.000000 0.998840
vn 0.048151 0.000000 0.998840
vn 0.048151 0.000000 0.998840
vn -0.098688 0.000000 -0.995118
vn -0.098688 0.000000 -0.995118
vn -0.098688 0.000000 -0.995118
vn -0.098688 0.000000 -0.995118
s off
f 17/25/1 18/26/2 13/20/3 14/22/4
f 30/40/5 28/38/6 20/29/7
f 18/27/8 19/28/9 16/24/10 13/21/11
f 2/2/12 8/11/13 6/12/14 4/4/15 31/41/16
f 7/13/17 1/1/18 3/3/19 5/14/20 34/44/21
f 35/46/22 36/47/23 37/48/24 38/49/25 39/50/26
f 1/1/27 11/17/28 10/16/29 3/3/30
f 7/7/31 12/19/32 11/18/33 1/9/34
f 34/45/35 33/43/36 9/15/37 12/19/38 7/7/39
f 14/22/40 13/20/41 2/2/42 31/41/43 32/42/44
f 40/51/45 41/52/46 42/53/47 43/54/48 44/55/49
f 16/24/50 15/23/51 6/6/52 8/8/53
f 13/21/54 16/24/55 8/8/56 2/10/57
f 27/37/58 25/35/59 23/32/60 18/26/61 17/25/62
f 23/33/63 24/34/64 19/28/65 18/27/66
f 28/38/67 29/39/68 20/29/69
f 37/48/70 36/47/71 45/56/72 46/57/73 47/58/74
f 10/16/75 11/17/76 23/32/77 25/35/78 26/36/79
f 11/18/80 12/19/81 24/34/82 23/33/83
f 12/19/84 9/15/85 21/30/86 24/34/87
f 26/36/88 25/35/89 22/31/90
f 22/31/91 25/35/92 27/37/93
f 24/34/94 21/30/95 29/39/96 28/38/97 19/28/98
f 47/58/99 46/57/100 48/59/101 49/60/102 50/61/103 51/62/104
f 52/63/105 50/61/106 49/60/107 41/52/108 40/51/109
f 19/28/110 28/38/111 30/40/112 15/23/113 16/24/114
f 32/42/115 31/41/116 4/4/117
f 5/5/118 33/43/119 34/45/120
f 3/64/121 10/65/122 36/47/123 35/46/124
f 9/66/125 33/67/126 38/49/127 37/48/128
f 33/67/129 5/68/130 39/50/131 38/49/132
f 5/68/133 3/64/134 35/46/135 39/50/136
f 14/69/137 32/70/138 42/53/139 41/52/140
f 32/70/141 4/71/142 43/54/143 42/53/144
f 4/71/145 6/72/146 44/55/147 43/54/148
f 6/72/149 15/73/150 40/51/151 44/55/152
f 10/65/153 26/74/154 45/56/155 36/47/156
f 26/74/157 22/75/158 46/57/159 45/56/160
f 21/76/161 9/66/162 37/48/163 47/58/164
f 22/75/165 27/77/166 48/59/167 46/57/168
f 27/77/169 17/78/170 49/60/171 48/59/172
f 20/79/173 29/80/174 51/62/175 50/61/176
f 29/80/177 21/76/178 47/58/179 51/62/180
f 30/81/181 20/79/182 50/61/183 52/63/184
f 17/78/185 14/69/186 41/52/187 49/60/188
f 15/73/189 30/81/190 52/63/191 40/51/192
