# This file uses centimeters as units for non-parametric coordinates.

v 2.472198 -0.608443 1.151772
v -1.756409 0.712979 1.049110
v 0.330612 0.476383 -1.535867
v 0.973618 -0.608443 1.705772
v 0.297684 -0.608443 -1.706491
v -1.118584 0.735213 -1.396575
v -1.281136 -0.608443 -1.733878
v 1.794029 -0.608443 1.683640
v 1.729080 0.413078 1.258301
v 1.430550 -0.608443 -1.738358
v -2.270241 0.850072 0.475006
v 2.644608 0.373349 0.233925
v 2.995483 -0.608443 0.344612
v -2.890198 -0.608443 0.473579
v 2.557213 -0.608443 -0.941506
v 0.022293 0.826264 -1.319047
v -2.591957 0.577736 -0.741142
v -3.017968 -0.608443 -0.291458
v -1.380325 -0.608443 1.665916
v -2.486732 -0.608443 -1.235442
v -0.448875 0.841221 -1.273086
v -0.620216 -0.608443 -1.705138
v 0.929321 -0.608443 -1.730889
v 2.282837 0.567001 0.973381
v 1.187180 0.499080 -1.492509
v 2.419075 -0.608443 -1.290452
v 2.047981 -0.608443 -1.555070
v -2.545059 -0.608443 0.931160
v -1.308517 0.584540 1.335075
v -0.650475 0.407801 1.290497
v 0.089478 0.511149 1.406624
v 0.973778 0.531304 1.487259
v 2.286362 0.496293 -0.522842
v 2.583542 -0.608443 0.818810
v -2.569618 0.692513 -0.281654
v -1.909439 0.872935 -1.055549
v 2.954460 -0.608443 -0.466637
v 0.736183 0.711530 -1.192634
v 0.732465 0.794566 -0.446027
v 1.194007 0.587433 -1.507430
v 1.593376 0.933850 -0.440625
v -0.449292 0.931746 -1.282517
v 0.094303 0.933657 -0.497970
v 0.029054 0.913160 -1.331794
v 0.766202 0.824962 0.388518
v -0.542326 0.944923 0.694684
v 0.084914 0.599942 1.420812
v -0.649620 0.492368 1.312600
v 0.976886 0.623123 1.494062
v 1.607105 0.678679 0.431952
v 1.727426 0.504412 1.260669
v 2.300978 0.584386 -0.531464
v 0.336698 0.561918 -1.555329
v -2.584782 0.781660 -0.286569
v -1.919249 0.960897 -1.068278
v -2.609611 0.665434 -0.748518
v -1.756473 0.803915 1.060423
v -1.836370 0.933750 0.644233
v -2.278456 0.940734 0.479757
v -1.120550 0.823439 -1.414660
v -1.302037 0.671959 1.351888
v 2.659967 0.462928 0.232315
v 2.285003 0.657378 0.971703
vt 0.967892 0.501589
vt 0.967892 0.501589
vt 0.967892 0.501589
vt 0.967892 0.501589
vt 0.967892 0.501589
vt 0.967892 0.501589
vt 0.967892 0.501589
vt 0.967892 0.501589
vt 0.967892 0.501589
vt 0.967892 0.501589
vt 0.967892 0.501589
vt 0.967892 0.501589
vt 0.967892 0.501589
vt 0.565048 0.786772
vt 0.565048 0.786772
vt 0.565048 0.786772
vt 0.565048 0.786772
vt 0.967892 0.501589
vt 0.967892 0.501589
vt 0.967892 0.501589
vt 0.967892 0.501589
vt 0.967892 0.501589
vt 0.967892 0.501589
vt 0.967892 0.501589
vt 0.967892 0.501589
vt 0.565048 0.786772
vt 0.967892 0.501589
vt 0.967892 0.501589
vt 0.967892 0.501589
vt 0.565048 0.786772
vt 0.967892 0.501589
vt 0.565048 0.786772
vt 0.967892 0.501589
vt 0.967892 0.501589
vt 0.967892 0.501589
vt 0.967892 0.501589
vt 0.967892 0.501589
vt 0.967892 0.501589
vt 0.967892 0.501589
vt 0.967892 0.501589
vt 0.967892 0.501589
vt 0.967892 0.501589
vt 0.967892 0.501589
vt 0.967892 0.501589
vt 0.967892 0.501589
vt 0.565048 0.786772
vt 0.967892 0.501589
vt 0.565048 0.786772
vt 0.565048 0.786772
vt 0.565048 0.786772
vt 0.967892 0.501589
vt 0.967892 0.501589
vt 0.565048 0.786772
vt 0.565049 0.786772
vt 0.565048 0.786772
vt 0.565048 0.786772
vt 0.565048 0.786772
vt 0.565048 0.786772
vt 0.565048 0.786772
vt 0.565048 0.786772
vt 0.565048 0.786772
vt 0.565048 0.786772
vt 0.565048 0.786772
vt 0.565048 0.786772
vt 0.565048 0.786772
vt 0.565048 0.786772
vt 0.565048 0.786772
vt 0.565048 0.786772
vt 0.565048 0.786772
vt 0.565048 0.786772
vt 0.565048 0.786772
vt 0.565048 0.786772
vt 0.565048 0.786772
vt 0.565048 0.786772
vt 0.565048 0.786772
vt 0.565048 0.786772
vt 0.565048 0.786772
vt 0.565048 0.786772
vt 0.565048 0.786772
vt 0.565048 0.786772
vt 0.565048 0.786772
vt 0.565048 0.786772
vt 0.565048 0.786772
vt 0.565048 0.786772
vt 0.565048 0.786772
vn 0.310960 0.178915 0.933431
vn 0.310960 0.178915 0.933431
vn 0.310960 0.178915 0.933431
vn 0.024882 0.385617 0.922323
vn 0.024882 0.385617 0.922324
vn 0.024882 0.385617 0.922323
vn 0.190522 0.975771 -0.107575
vn 0.190522 0.975771 -0.107575
vn 0.190522 0.975771 -0.107575
vn -0.152969 0.955311 -0.252946
vn -0.152969 0.955311 -0.252946
vn -0.152969 0.955311 -0.252946
vn -0.014686 0.169061 -0.985496
vn -0.014686 0.169061 -0.985496
vn -0.014686 0.169061 -0.985496
vn 0.043289 0.225559 -0.973267
vn 0.043289 0.225559 -0.973267
vn 0.043289 0.225559 -0.973267
vn 0.704319 0.395967 -0.589191
vn 0.704319 0.395967 -0.589191
vn 0.704319 0.395967 -0.589191
vn -0.944753 0.325858 -0.035466
vn -0.944753 0.325858 -0.035466
vn -0.944753 0.325858 -0.035466
vn 0.035995 0.998977 -0.027373
vn 0.035995 0.998977 -0.027373
vn 0.035995 0.998977 -0.027373
vn -0.015817 0.356461 0.934176
vn -0.015817 0.356461 0.934176
vn -0.015817 0.356461 0.934176
vn -0.170966 0.126084 0.977176
vn -0.170966 0.126084 0.977176
vn -0.170966 0.126084 0.977176
vn -0.001455 0.155415 -0.987848
vn -0.001455 0.155415 -0.987848
vn -0.001455 0.155415 -0.987848
vn -0.464669 0.262496 0.845683
vn -0.464669 0.262496 0.845683
vn -0.464669 0.262496 0.845683
vn -0.368089 0.268031 -0.890320
vn -0.368090 0.268031 -0.890320
vn -0.368089 0.268031 -0.890320
vn 0.337473 0.380044 0.861208
vn 0.337473 0.380044 0.861208
vn 0.337473 0.380044 0.861208
vn 0.274372 0.265459 -0.924257
vn 0.274372 0.265459 -0.924257
vn 0.274372 0.265459 -0.924257
vn 0.519864 0.445236 -0.729045
vn 0.519864 0.445236 -0.729045
vn 0.519864 0.445236 -0.729045
vn 0.158247 0.937847 0.308871
vn 0.158247 0.937847 0.308871
vn 0.158247 0.937847 0.308871
vn -0.200063 0.806694 0.556075
vn -0.200063 0.806694 0.556075
vn -0.200063 0.806694 0.556075
vn 0.162131 0.975722 0.147241
vn 0.162131 0.975722 0.147241
vn 0.162131 0.975722 0.147241
vn 0.206029 0.963198 0.172633
vn 0.206029 0.963198 0.172633
vn 0.206030 0.963198 0.172633
vn 0.331770 0.931717 0.147757
vn 0.331770 0.931717 0.147757
vn 0.331770 0.931717 0.147757
vn 0.750648 0.106281 0.652098
vn 0.750648 0.106281 0.652098
vn 0.750648 0.106281 0.652098
vn 0.874287 0.350335 0.335988
vn 0.874287 0.350335 0.335988
vn 0.874287 0.350335 0.335988
vn -0.678464 0.287727 0.675944
vn -0.678464 0.287727 0.675944
vn -0.678464 0.287727 0.675943
vn -0.735357 0.389366 0.554657
vn -0.735357 0.389366 0.554657
vn -0.735357 0.389366 0.554657
vn 0.872740 0.344904 -0.345493
vn 0.872740 0.344904 -0.345493
vn 0.872740 0.344904 -0.345493
vn -0.006633 0.926973 -0.375070
vn -0.006633 0.926973 -0.375070
vn -0.006633 0.926973 -0.375070
vn -0.083566 0.293680 -0.952244
vn -0.083566 0.293680 -0.952244
vn -0.083566 0.293680 -0.952244
vn -0.238869 0.350658 -0.905528
vn -0.238869 0.350658 -0.905528
vn -0.238869 0.350658 -0.905528
vn -0.347527 0.245332 -0.905007
vn -0.347527 0.245332 -0.905007
vn -0.347527 0.245332 -0.905007
vn -0.864528 0.126050 -0.486521
vn -0.864528 0.126050 -0.486521
vn -0.864528 0.126050 -0.486521
vn -0.501952 0.294370 -0.813259
vn -0.501952 0.294370 -0.813259
vn -0.501952 0.294370 -0.813259
vn -0.460340 0.866452 -0.193257
vn -0.460340 0.866452 -0.193257
vn -0.460340 0.866452 -0.193257
vn -0.101921 0.943926 0.314033
vn -0.101921 0.943926 0.314033
vn -0.101921 0.943926 0.314033
vn -0.518464 0.236069 0.821868
vn -0.518464 0.236069 0.821868
vn -0.518464 0.236069 0.821868
vn -0.050539 0.882869 -0.466892
vn -0.050539 0.882869 -0.466892
vn -0.050539 0.882869 -0.466892
vn 0.133398 0.268555 -0.953983
vn 0.133398 0.268555 -0.953983
vn 0.133398 0.268555 -0.953983
vn 0.017685 0.999736 -0.014688
vn 0.017685 0.999736 -0.014688
vn 0.017685 0.999736 -0.014688
vn 0.245680 0.761213 0.600163
vn 0.245680 0.761213 0.600163
vn 0.245680 0.761213 0.600163
vn -0.022143 0.932094 0.361540
vn -0.022143 0.932094 0.361540
vn -0.022143 0.932094 0.361540
vn 0.133946 0.257333 0.956994
vn 0.133946 0.257333 0.956994
vn 0.133946 0.257333 0.956994
vn 0.042191 0.238458 -0.970236
vn 0.042191 0.238458 -0.970236
vn 0.042191 0.238458 -0.970236
vn 0.324346 0.693501 -0.643316
vn 0.324346 0.693501 -0.643316
vn 0.324346 0.693501 -0.643316
vn 0.215953 0.975548 -0.040879
vn 0.215953 0.975548 -0.040879
vn 0.215953 0.975548 -0.040879
vn 0.291643 0.950824 -0.104296
vn 0.291643 0.950824 -0.104296
vn 0.291643 0.950824 -0.104297
vn -0.040863 0.981513 0.186982
vn -0.040863 0.981513 0.186982
vn -0.040863 0.981513 0.186982
vn -0.093435 0.187481 0.977814
vn -0.093435 0.187481 0.977814
vn -0.093435 0.187481 0.977814
vn -0.038124 0.156388 -0.986960
vn -0.038124 0.156388 -0.986960
vn -0.038124 0.156388 -0.986960
vn 0.602853 0.213776 0.768680
vn 0.602853 0.213776 0.768680
vn 0.602853 0.213776 0.768680
vn 0.396161 0.917295 -0.040333
vn 0.396161 0.917295 -0.040333
vn 0.396161 0.917295 -0.040333
vn 0.361737 0.838420 -0.407674
vn 0.361737 0.838420 -0.407674
vn 0.361737 0.838420 -0.407674
vn 0.567976 0.514566 -0.642360
vn 0.567976 0.514566 -0.642360
vn 0.567976 0.514566 -0.642360
vn 0.098357 0.955210 0.279105
vn 0.098357 0.955210 0.279105
vn 0.098357 0.955210 0.279105
vn -0.288018 0.956345 -0.049500
vn -0.288018 0.956345 -0.049500
vn -0.288018 0.956345 -0.049500
vn 0.929798 0.196976 0.310927
vn 0.929798 0.196976 0.310927
vn 0.929798 0.196976 0.310927
vn -0.904495 0.309505 0.293421
vn -0.904495 0.309505 0.293421
vn -0.904495 0.309505 0.293421
vn -0.909681 0.386521 0.151927
vn -0.909681 0.386521 0.151927
vn -0.909681 0.386521 0.151927
vn 0.010081 0.999831 0.015362
vn 0.010081 0.999831 0.015362
vn 0.010081 0.999831 0.015362
vn -0.328987 0.942159 -0.064067
vn -0.328987 0.942159 -0.064067
vn -0.328987 0.942159 -0.064067
vn -0.008097 0.999873 -0.013767
vn -0.008097 0.999872 -0.013767
vn -0.008097 0.999873 -0.013767
vn 0.009163 0.999839 0.015406
vn 0.009163 0.999839 0.015406
vn 0.009163 0.999839 0.015406
vn 0.101602 0.993814 0.044847
vn 0.101602 0.993814 0.044847
vn 0.101602 0.993814 0.044847
vn 0.216185 0.975349 -0.044263
vn 0.216185 0.975349 -0.044263
vn 0.216185 0.975349 -0.044263
vn -0.155052 0.947534 0.279531
vn -0.155052 0.947534 0.279531
vn -0.155052 0.947534 0.279531
vn 0.173376 0.983923 -0.042845
vn 0.173376 0.983923 -0.042845
vn 0.173376 0.983923 -0.042845
vn 0.454435 0.856873 0.243429
vn 0.454435 0.856873 0.243429
vn 0.454435 0.856873 0.243429
vn 0.942291 0.331387 -0.047650
vn 0.942291 0.331387 -0.047650
vn 0.942291 0.331387 -0.047650
vn 0.820358 0.480330 -0.310315
vn 0.820358 0.480330 -0.310315
vn 0.820358 0.480330 -0.310315
vn -0.103270 -0.119740 -0.987420
vn -0.103270 -0.119740 -0.987420
vn -0.103270 -0.119740 -0.987420
vn -0.103270 -0.119740 -0.987420
vn -0.118344 -0.205883 0.971394
vn -0.118344 -0.205883 0.971394
vn -0.118344 -0.205883 0.971394
vn -0.118344 -0.205883 0.971394
vn 0.285920 -0.050188 0.956938
vn 0.285920 -0.050188 0.956938
vn 0.285920 -0.050188 0.956938
vn 0.285920 -0.050188 0.956938
vn 0.057668 -0.197776 -0.978550
vn 0.057668 -0.197776 -0.978550
vn 0.057668 -0.197776 -0.978550
vn 0.057668 -0.197776 -0.978550
vn -0.355944 -0.161010 -0.920532
vn -0.355944 -0.161010 -0.920532
vn -0.355944 -0.161010 -0.920532
vn -0.355944 -0.161010 -0.920532
vn -0.980002 -0.175322 0.094118
vn -0.980002 -0.175322 0.094118
vn -0.980002 -0.175322 0.094118
vn -0.980002 -0.175322 0.094118
vn -0.752000 -0.092021 0.652708
vn -0.752000 -0.092021 0.652708
vn -0.752000 -0.092021 0.652708
vn -0.752000 -0.092021 0.652708
vn 0.207736 -0.146124 -0.967209
vn 0.207736 -0.146124 -0.967209
vn 0.207736 -0.146124 -0.967209
vn 0.207736 -0.146124 -0.967209
vn -0.416783 -0.183566 -0.890279
vn -0.416783 -0.183566 -0.890279
vn -0.416783 -0.183566 -0.890279
vn -0.416783 -0.183566 -0.890279
vn 0.002383 -0.220790 0.975319
vn 0.002383 -0.220790 0.975319
vn 0.002383 -0.220790 0.975319
vn 0.002383 -0.220790 0.975319
vn -0.647036 -0.093153 -0.756747
vn -0.647036 -0.093153 -0.756747
vn -0.647036 -0.093153 -0.756747
vn -0.647036 -0.093153 -0.756747
vn -0.082929 -0.115707 0.989815
vn -0.082929 -0.115707 0.989815
vn -0.082929 -0.115707 0.989816
vn -0.082929 -0.115707 0.989816
vn 0.879574 -0.173897 -0.442843
vn 0.879574 -0.173897 -0.442843
vn 0.879574 -0.173897 -0.442843
vn 0.879574 -0.173897 -0.442843
vn 0.884086 -0.077679 0.460823
vn 0.884086 -0.077679 0.460823
vn 0.884086 -0.077679 0.460823
vn 0.884086 -0.077679 0.460823
vn 0.650658 -0.177585 -0.738314
vn 0.650658 -0.177585 -0.738314
vn 0.650658 -0.177585 -0.738314
vn 0.650658 -0.177585 -0.738314
vn -0.558019 -0.109633 0.822554
vn -0.558019 -0.109633 0.822554
vn -0.558019 -0.109633 0.822554
vn -0.558019 -0.109633 0.822554
vn 0.459840 -0.004663 0.887990
vn 0.459840 -0.004663 0.887990
vn 0.459840 -0.004663 0.887990
vn 0.459840 -0.004663 0.887990
vn -0.913960 -0.118483 0.388122
vn -0.913960 -0.118483 0.388122
vn -0.913960 -0.118483 0.388122
vn -0.913960 -0.118483 0.388122
s off
f 32/42/1 4/6/2 9/11/3
f 9/11/4 4/6/5 8/10/6
f 38/14/7 39/15/8 40/16/9
f 40/16/10 39/15/11 41/17/12
f 23/33/13 3/5/14 10/12/15
f 10/12/16 3/5/17 25/35/18
f 33/51/19 37/52/20 15/21/21
f 17/23/22 18/25/23 35/45/24
f 42/26/25 43/30/26 44/32/27
f 19/27/28 4/6/29 30/40/30
f 30/40/31 4/6/32 31/41/33
f 22/31/34 3/5/35 5/7/36
f 2/2/37 19/27/38 29/39/39
f 7/9/40 20/28/41 6/8/42
f 9/11/43 8/10/44 24/34/45
f 10/12/46 25/35/47 27/37/48
f 27/37/49 25/35/50 26/36/51
f 45/46/52 46/48/53 47/49/54
f 47/49/55 46/48/56 48/50/57
f 45/46/58 49/53/59 50/54/60
f 50/54/61 49/53/62 51/55/63
f 51/55/64 52/56/65 50/54/66
f 34/44/67 13/19/68 24/34/69
f 24/34/70 13/19/71 12/18/72
f 11/13/73 14/20/74 2/2/75
f 2/2/76 14/20/77 28/38/78
f 33/51/79 15/21/80 26/3/81
f 38/14/82 40/16/83 53/57/84
f 21/29/85 16/22/86 22/31/87
f 22/31/88 16/22/89 3/5/90
f 20/28/91 36/47/92 6/8/93
f 20/4/94 18/25/95 17/23/96
f 20/28/97 17/24/98 36/47/99
f 54/58/100 55/59/101 56/60/102
f 57/61/103 58/62/104 59/63/105
f 28/38/106 19/27/107 2/2/108
f 55/59/109 42/26/110 60/64/111
f 6/8/112 21/29/113 22/31/114
f 55/59/115 43/30/116 42/26/117
f 48/50/118 46/48/119 61/65/120
f 61/65/121 46/48/122 58/62/123
f 29/39/124 19/27/125 30/40/126
f 6/8/127 22/31/128 7/9/129
f 44/32/130 38/14/131 53/57/132
f 43/30/133 39/15/134 44/32/135
f 44/32/136 39/15/137 38/14/138
f 49/53/139 45/46/140 47/49/141
f 31/41/142 4/6/143 32/42/144
f 5/7/145 3/5/146 23/33/147
f 8/10/148 1/1/149 24/34/150
f 62/66/151 52/56/152 63/67/153
f 52/56/154 40/16/155 41/17/156
f 25/35/157 33/43/158 26/36/159
f 58/62/160 57/61/161 61/65/162
f 52/56/163 51/55/164 63/67/165
f 34/44/166 24/34/167 1/1/168
f 35/45/169 18/25/170 11/13/171
f 11/13/172 18/25/173 14/20/174
f 58/62/175 55/59/176 59/63/177
f 59/63/178 55/59/179 54/58/180
f 46/48/181 43/30/182 58/62/183
f 58/62/184 43/30/185 55/59/186
f 45/46/187 43/30/188 46/48/189
f 39/15/190 43/30/191 45/46/192
f 41/17/193 39/15/194 50/54/195
f 39/15/196 45/46/197 50/54/198
f 52/56/199 41/17/200 50/54/201
f 13/19/202 37/52/203 12/18/204
f 12/18/205 37/52/206 33/51/207
f 16/68/208 21/69/209 42/26/210 44/32/211
f 30/70/212 31/71/213 47/49/214 48/50/215
f 32/72/216 9/73/217 51/55/218 49/53/219
f 25/74/220 3/75/221 53/57/222 40/16/223
f 36/76/224 17/77/225 56/60/226 55/59/227
f 17/77/228 35/78/229 54/58/230 56/60/231
f 11/79/232 2/80/233 57/61/234 59/63/235
f 21/69/236 6/81/237 60/64/238 42/26/239
f 6/81/240 36/76/241 55/59/242 60/64/243
f 29/82/244 30/70/245 48/50/246 61/65/247
f 3/75/248 16/68/249 44/32/250 53/57/251
f 31/71/252 32/72/253 49/53/254 47/49/255
f 12/83/256 33/84/257 52/56/258 62/66/259
f 24/85/260 12/83/261 62/66/262 63/67/263
f 33/84/264 25/74/265 40/16/266 52/56/267
f 2/80/268 29/82/269 61/65/270 57/61/271
f 9/73/272 24/85/273 63/67/274 51/55/275
f 35/78/276 11/79/277 59/63/278 54/58/279
