# This file uses centimeters as units for non-parametric coordinates.

v 0.177689 0.000000 0.059105
v 0.187981 0.000000 -1.111930
v 0.141415 0.157215 -0.005126
v 0.150665 0.157215 -1.057556
v -0.632698 0.157215 -0.129852
v -0.453640 0.157215 -1.128196
v -0.683670 0.000000 -0.079673
v -0.484428 0.000000 -1.190528
v -0.719315 0.157215 -0.841156
v 0.360565 0.157215 -0.315963
v 0.421539 0.000000 -0.286758
v -0.780048 0.000000 -0.871147
v -1.406212 0.000000 0.433365
v -0.809483 0.000000 0.577836
v -1.344349 0.157215 0.393181
v -0.851475 0.157215 0.533951
v -1.290493 0.157215 -0.111892
v -0.624371 0.157215 0.105393
v -1.343735 0.000000 -0.159652
v -0.556786 0.000000 0.100983
v -0.945961 0.157215 -0.245162
v -1.189999 0.157215 0.542054
v -1.227394 0.000000 0.598374
v -0.907822 0.000000 -0.301139
v 0.477058 0.000000 -0.394363
v 1.081009 0.000000 -0.504829
v 0.517258 0.157215 -0.456222
v 1.024811 0.157215 -0.527862
v 0.361248 0.157215 -0.939605
v 1.058193 0.157215 -1.011718
v 0.293190 0.000000 -0.961616
v 1.118153 0.000000 -1.043220
v 0.621906 0.157215 -1.201370
v 0.718781 0.157215 -0.382911
v 0.707497 0.000000 -0.316253
v 0.634010 0.000000 -1.268013
v 0.520012 0.000000 -0.112251
v 0.767826 0.000000 0.449479
v 0.589520 0.157215 -0.087532
v 0.777168 0.157215 0.389466
v 1.023403 0.157215 -0.351631
v 1.255535 0.157215 0.309472
v 1.028988 0.000000 -0.422935
v 1.300106 0.000000 0.360466
v 1.338585 0.157215 -0.158950
v 0.565052 0.157215 0.125512
v 0.497597 0.000000 0.130028
v 1.406212 0.000000 -0.162666
v -0.691933 0.029438 0.969681
v 0.460842 0.029438 1.175934
v -0.622528 0.186653 0.944680
v 0.413483 0.186653 1.130044
v -0.369926 0.186653 0.202385
v 0.584328 0.186653 0.546097
v -0.410862 0.029438 0.143731
v 0.650940 0.029438 0.526185
v 0.345837 0.186653 0.236107
v -0.352783 0.186653 1.212784
v -0.391785 0.029438 1.268006
v 0.385571 0.029438 0.181252
v -0.719315 0.184531 -0.841156
v 0.360565 0.184531 -0.315963
v 0.150665 0.184531 -1.057556
v -0.453640 0.184531 -1.128196
v 0.141415 0.184531 -0.005126
v -0.632698 0.184531 -0.129852
v -0.945961 0.184531 -0.245162
v -1.189999 0.184531 0.542054
v -0.851475 0.184531 0.533951
v -0.624371 0.184531 0.105393
v -1.344349 0.184531 0.393181
v -1.290493 0.184531 -0.111892
v 0.621906 0.184531 -1.201370
v 0.718781 0.184531 -0.382911
v 1.024811 0.184531 -0.527862
v 1.058193 0.184531 -1.011718
v 0.517258 0.184531 -0.456222
v 0.361248 0.184531 -0.939605
v 1.338585 0.184531 -0.158950
v 0.565052 0.184531 0.125512
v 0.777168 0.184531 0.389466
v 1.255535 0.184531 0.309472
v 0.589520 0.184531 -0.087532
v 1.023403 0.184531 -0.351631
v 0.345837 0.213969 0.236107
v -0.352783 0.213969 1.212784
v 0.413483 0.213969 1.130044
v 0.584328 0.213969 0.546097
v -0.622528 0.213969 0.944680
v -0.369926 0.213969 0.202385
vt 0.443692 0.326509
vt 0.443692 0.326509
vt 0.443692 0.326509
vt 0.443692 0.326509
vt 0.443692 0.326509
vt 0.443692 0.326509
vt 0.443692 0.326509
vt 0.443692 0.326509
vt 0.443692 0.326509
vt 0.443692 0.326509
vt 0.443692 0.326509
vt 0.443692 0.326509
vt 0.443692 0.326509
vt 0.443692 0.326509
vt 0.443692 0.326509
vt 0.443692 0.326509
vt 0.443692 0.326509
vt 0.443692 0.326509
vt 0.443692 0.326509
vt 0.443692 0.326509
vt 0.443692 0.326509
vt 0.443692 0.326509
vt 0.443692 0.326509
vt 0.443692 0.326509
vt 0.443692 0.326509
vt 0.443692 0.326509
vt 0.443692 0.326509
vt 0.443692 0.326509
vt 0.443692 0.326509
vt 0.443692 0.326509
vt 0.443692 0.326509
vt 0.443692 0.326509
vt 0.443692 0.326509
vt 0.443692 0.326509
vt 0.443692 0.326509
vt 0.443692 0.326509
vt 0.443692 0.326509
vt 0.443692 0.326509
vt 0.443692 0.326509
vt 0.443692 0.326509
vt 0.443692 0.326509
vt 0.443692 0.326509
vt 0.443692 0.326509
vt 0.443692 0.326509
vt 0.443692 0.326509
vt 0.443692 0.326509
vt 0.443692 0.326509
vt 0.443692 0.326509
vt 0.443692 0.326509
vt 0.443692 0.326509
vt 0.443692 0.326509
vt 0.443692 0.326509
vt 0.443692 0.326509
vt 0.443692 0.326509
vt 0.443692 0.326509
vt 0.443692 0.326509
vt 0.443692 0.326509
vt 0.443692 0.326509
vt 0.443692 0.326509
vt 0.443692 0.326509
vt 0.443692 0.326509
vt 0.443692 0.326509
vt 0.443692 0.326509
vt 0.443692 0.326509
vt 0.443692 0.326509
vt 0.443692 0.326509
vt 0.443692 0.326509
vt 0.443692 0.326509
vt 0.443692 0.326509
vt 0.443692 0.326509
vt 0.443692 0.326509
vt 0.443692 0.326509
vt 0.443692 0.326509
vt 0.443692 0.326509
vt 0.443692 0.326509
vt 0.443692 0.326509
vt 0.443692 0.326509
vt 0.443692 0.326509
vt 0.443692 0.326509
vt 0.443692 0.326509
vt 0.564973 0.786819
vt 0.564973 0.786819
vt 0.564973 0.786819
vt 0.564973 0.786819
vt 0.564973 0.786819
vt 0.564973 0.786819
vt 0.564973 0.786819
vt 0.564973 0.786819
vt 0.564973 0.786819
vt 0.564973 0.786819
vt 0.564973 0.786819
vt 0.564973 0.786819
vt 0.564973 0.786819
vt 0.564973 0.786819
vt 0.564973 0.786819
vt 0.564973 0.786819
vt 0.564973 0.786819
vt 0.564973 0.786819
vt 0.564973 0.786819
vt 0.564973 0.786819
vt 0.564973 0.786819
vt 0.564973 0.786819
vt 0.564973 0.786819
vt 0.564973 0.786819
vt 0.564973 0.786819
vt 0.564973 0.786819
vt 0.564973 0.786819
vt 0.564973 0.786819
vt 0.564973 0.786819
vt 0.564973 0.786819
vt 0.564973 0.786819
vt 0.564973 0.786819
vt 0.564973 0.786819
vt 0.564973 0.786819
vt 0.564973 0.786819
vt 0.564973 0.786819
vt 0.564973 0.786819
vt 0.564973 0.786819
vt 0.564973 0.786819
vt 0.564973 0.786819
vt 0.564973 0.786819
vt 0.564973 0.786819
vt 0.564973 0.786819
vt 0.564973 0.786819
vt 0.564973 0.786819
vt 0.564973 0.786819
vt 0.564973 0.786819
vt 0.564973 0.786819
vt 0.564973 0.786819
vt 0.564973 0.786819
vt 0.564973 0.786819
vt 0.564973 0.786819
vt 0.564973 0.786819
vt 0.564973 0.786819
vt 0.564973 0.786819
vt 0.564973 0.786819
vt 0.564973 0.786819
vt 0.564973 0.786819
vt 0.564973 0.786819
vt 0.564973 0.786819
vn 0.915735 0.307002 -0.259190
vn 0.915735 0.307002 -0.259190
vn 0.915735 0.307002 -0.259190
vn 0.915735 0.307002 -0.259190
vn 0.000000 1.000000 -0.000000
vn 0.000000 1.000000 -0.000000
vn 0.000000 1.000000 -0.000000
vn 0.000000 1.000000 -0.000000
vn -0.678298 0.381776 -0.627821
vn -0.678298 0.381776 -0.627821
vn -0.678298 0.381776 -0.627821
vn -0.678298 0.381776 -0.627821
vn 0.108850 0.347891 -0.931195
vn 0.108850 0.347891 -0.931195
vn 0.108850 0.347891 -0.931195
vn 0.108850 0.347891 -0.931195
vn -0.149344 0.344257 0.926922
vn -0.149344 0.344257 0.926922
vn -0.149344 0.344257 0.926922
vn -0.149344 0.344257 0.926922
vn 0.000000 1.000000 0.000000
vn 0.000000 1.000000 0.000000
vn 0.000000 1.000000 0.000000
vn 0.000000 1.000000 0.000000
vn 0.752447 0.390367 0.530507
vn 0.752447 0.390367 0.530507
vn 0.752447 0.390367 0.530507
vn 0.752447 0.390367 0.530507
vn -0.933863 0.339069 0.113718
vn -0.933863 0.339069 0.113718
vn -0.933863 0.339069 0.113718
vn -0.933863 0.339069 0.113718
vn 0.036046 0.303921 0.952015
vn 0.036046 0.303921 0.952015
vn 0.036046 0.303921 0.952015
vn 0.036046 0.303921 0.952015
vn 0.000000 1.000000 -0.000000
vn 0.000000 1.000000 -0.000000
vn 0.000000 1.000000 -0.000000
vn 0.000000 1.000000 -0.000000
vn 0.697321 0.354146 -0.623157
vn 0.697321 0.354146 -0.623157
vn 0.697321 0.354146 -0.623157
vn 0.697321 0.354146 -0.623157
vn 0.829578 0.344295 0.439615
vn 0.829578 0.344294 0.439615
vn 0.829578 0.344295 0.439615
vn 0.829578 0.344295 0.439615
vn -0.933679 0.344179 -0.098915
vn -0.933679 0.344179 -0.098915
vn -0.933679 0.344179 -0.098915
vn -0.933679 0.344179 -0.098915
vn 0.000000 1.000000 0.000000
vn 0.000000 1.000000 0.000000
vn 0.000000 1.000000 0.000000
vn 0.000000 1.000000 0.000000
vn -0.627686 0.402633 0.666256
vn -0.627686 0.402633 0.666256
vn -0.627686 0.402633 0.666256
vn -0.627686 0.402632 0.666256
vn -0.315614 0.310932 -0.896498
vn -0.315614 0.310932 -0.896498
vn -0.315614 0.310932 -0.896498
vn -0.315614 0.310932 -0.896498
vn 0.419761 0.303917 0.855240
vn 0.419761 0.303917 0.855240
vn 0.419761 0.303917 0.855240
vn 0.419761 0.303917 0.855240
vn 0.000000 1.000000 -0.000000
vn 0.000000 1.000000 -0.000000
vn 0.000000 1.000000 -0.000000
vn 0.000000 1.000000 -0.000000
vn 0.383959 0.354165 -0.852727
vn 0.383959 0.354165 -0.852727
vn 0.383959 0.354165 -0.852727
vn 0.383959 0.354165 -0.852727
vn 0.936642 0.344277 0.064620
vn 0.936642 0.344277 0.064620
vn 0.936642 0.344277 0.064620
vn 0.936642 0.344277 0.064620
vn -0.893319 0.344191 0.288986
vn -0.893319 0.344191 0.288986
vn -0.893319 0.344191 0.288986
vn -0.893319 0.344191 0.288986
vn 0.000000 1.000000 0.000000
vn 0.000000 1.000000 0.000000
vn 0.000000 1.000000 0.000000
vn 0.000000 1.000000 0.000000
vn -0.302805 0.402649 0.863819
vn -0.302805 0.402649 0.863819
vn -0.302805 0.402649 0.863819
vn -0.302805 0.402649 0.863819
vn -0.652646 0.310945 -0.690917
vn -0.652646 0.310945 -0.690917
vn -0.652646 0.310945 -0.690917
vn -0.652646 0.310945 -0.690917
vn -0.734245 0.303919 0.607057
vn -0.734245 0.303919 0.607057
vn -0.734245 0.303919 0.607057
vn -0.734245 0.303919 0.607057
vn 0.000000 1.000000 -0.000000
vn 0.000000 1.000000 -0.000000
vn 0.000000 1.000000 -0.000000
vn 0.000000 1.000000 -0.000000
vn 0.918625 0.354143 0.175243
vn 0.918625 0.354143 0.175243
vn 0.918625 0.354143 0.175243
vn 0.918625 0.354143 0.175243
vn 0.154853 0.344273 0.926011
vn 0.154853 0.344273 0.926011
vn 0.154853 0.344273 0.926011
vn 0.154853 0.344273 0.926011
vn -0.488719 0.344181 -0.801682
vn -0.488719 0.344181 -0.801682
vn -0.488719 0.344181 -0.801682
vn -0.488719 0.344181 -0.801682
vn 0.000000 1.000000 -0.000000
vn 0.000000 1.000000 -0.000000
vn 0.000000 1.000000 -0.000000
vn 0.000000 1.000000 -0.000000
vn -0.910541 0.402648 -0.093755
vn -0.910541 0.402648 -0.093755
vn -0.910541 0.402648 -0.093755
vn -0.910541 0.402648 -0.093755
vn 0.520306 0.310915 -0.795370
vn 0.520306 0.310915 -0.795370
vn 0.520306 0.310915 -0.795370
vn 0.520306 0.310915 -0.795370
vn 0.102174 0.306993 0.946211
vn 0.102174 0.306993 0.946211
vn 0.102174 0.306993 0.946211
vn 0.102174 0.306993 0.946211
vn 0.000000 1.000000 0.000000
vn 0.000000 1.000000 0.000000
vn 0.000000 1.000000 0.000000
vn 0.000000 1.000000 0.000000
vn 0.732547 0.381775 -0.563580
vn 0.732547 0.381775 -0.563580
vn 0.732547 0.381775 -0.563580
vn 0.732547 0.381775 -0.563580
vn 0.899810 0.347905 0.263258
vn 0.899810 0.347905 0.263258
vn 0.899810 0.347905 0.263258
vn 0.899810 0.347905 0.263258
vn -0.888814 0.344276 -0.302463
vn -0.888814 0.344276 -0.302463
vn -0.888814 0.344276 -0.302463
vn -0.888814 0.344276 -0.302463
vn 0.000000 1.000000 -0.000000
vn 0.000000 1.000000 -0.000000
vn 0.000000 1.000000 -0.000000
vn 0.000000 1.000000 -0.000000
vn -0.649018 0.390364 0.652987
vn -0.649018 0.390364 0.652987
vn -0.649018 0.390364 0.652987
vn -0.649018 0.390364 0.652987
vn 0.044272 0.339072 -0.939718
vn 0.044272 0.339072 -0.939718
vn 0.044272 0.339072 -0.939718
vn 0.044272 0.339072 -0.939718
vn 0.962201 0.000000 -0.272341
vn 0.962201 0.000000 -0.272341
vn 0.962201 0.000000 -0.272341
vn 0.962201 0.000000 -0.272341
vn 0.116105 0.000000 -0.993237
vn 0.116105 0.000000 -0.993237
vn 0.116105 0.000000 -0.993237
vn 0.116105 0.000000 -0.993237
vn -0.733893 0.000000 -0.679265
vn -0.733893 0.000000 -0.679265
vn -0.733893 0.000000 -0.679265
vn -0.733893 0.000000 -0.679265
vn 0.817294 0.000000 0.576220
vn 0.817294 0.000000 0.576220
vn 0.817294 0.000000 0.576220
vn 0.817294 0.000000 0.576220
vn -0.992667 0.000000 0.120879
vn -0.992667 0.000000 0.120879
vn -0.992667 0.000000 0.120879
vn -0.992667 0.000000 0.120879
vn -0.159069 0.000000 0.987267
vn -0.159069 0.000000 0.987267
vn -0.159069 0.000000 0.987267
vn -0.159069 0.000000 0.987267
vn 0.023928 0.000000 0.999714
vn 0.023928 0.000000 0.999714
vn 0.023928 0.000000 0.999714
vn 0.023928 0.000000 0.999714
vn 0.883600 0.000000 0.468243
vn 0.883600 0.000000 0.468243
vn 0.883600 0.000000 0.468243
vn 0.883600 0.000000 0.468243
vn 0.736895 0.000000 -0.676008
vn 0.736895 0.000000 -0.676008
vn 0.736895 0.000000 -0.676008
vn 0.736895 0.000000 -0.676008
vn -0.694219 0.000000 0.719764
vn -0.694219 0.000000 0.719764
vn -0.694219 0.000000 0.719764
vn -0.694219 0.000000 0.719764
vn -0.360766 0.000000 -0.932656
vn -0.360766 0.000000 -0.932656
vn -0.360766 0.000000 -0.932656
vn -0.360766 0.000000 -0.932656
vn -0.994363 0.000000 -0.106029
vn -0.994363 0.000000 -0.106029
vn -0.994363 0.000000 -0.106029
vn -0.994363 0.000000 -0.106029
vn 0.428060 0.000000 0.903750
vn 0.428060 0.000000 0.903750
vn 0.428060 0.000000 0.903750
vn 0.428060 0.000000 0.903750
vn 0.997629 0.000000 0.068829
vn 0.997629 0.000000 0.068829
vn 0.997629 0.000000 0.068829
vn 0.997629 0.000000 0.068829
vn 0.398658 0.000000 -0.917100
vn 0.398658 0.000000 -0.917100
vn 0.398658 0.000000 -0.917100
vn 0.398658 0.000000 -0.917100
vn -0.341866 0.000000 0.939749
vn -0.341866 0.000000 0.939749
vn -0.341866 0.000000 0.939749
vn -0.341866 0.000000 0.939749
vn -0.708602 0.000000 -0.705608
vn -0.708602 0.000000 -0.705608
vn -0.708602 0.000000 -0.705608
vn -0.708602 0.000000 -0.705608
vn -0.951663 0.000000 0.307145
vn -0.951663 0.000000 0.307145
vn -0.951663 0.000000 0.307145
vn -0.951663 0.000000 0.307145
vn -0.779494 0.000000 0.626409
vn -0.779494 0.000000 0.626409
vn -0.779494 0.000000 0.626409
vn -0.779494 0.000000 0.626409
vn 0.164933 0.000000 0.986305
vn 0.164933 0.000000 0.986305
vn 0.164933 0.000000 0.986305
vn 0.164933 0.000000 0.986305
vn 0.984644 0.000000 0.174574
vn 0.984644 0.000000 0.174574
vn 0.984644 0.000000 0.174574
vn 0.984644 0.000000 0.174574
vn -0.993470 0.000000 -0.114097
vn -0.993470 0.000000 -0.114097
vn -0.993470 0.000000 -0.114097
vn -0.993470 0.000000 -0.114097
vn 0.521587 0.000000 -0.853198
vn 0.521587 0.000000 -0.853198
vn 0.521587 0.000000 -0.853198
vn 0.521587 0.000000 -0.853198
vn -0.519941 0.000000 -0.854202
vn -0.519941 0.000000 -0.854202
vn -0.519941 0.000000 -0.854202
vn -0.519941 0.000000 -0.854202
vn 0.107355 0.000000 0.994221
vn 0.107355 0.000000 0.994221
vn 0.107355 0.000000 0.994221
vn 0.107355 0.000000 0.994221
vn 0.959767 0.000000 0.280799
vn 0.959767 0.000000 0.280799
vn 0.959767 0.000000 0.280799
vn 0.959767 0.000000 0.280799
vn 0.792578 0.000000 -0.609771
vn 0.792578 0.000000 -0.609771
vn 0.792578 0.000000 -0.609771
vn 0.792578 0.000000 -0.609771
vn -0.704947 0.000000 0.709260
vn -0.704947 0.000000 0.709260
vn -0.704947 0.000000 0.709260
vn -0.704947 0.000000 0.709260
vn 0.047061 0.000000 -0.998892
vn 0.047061 0.000000 -0.998892
vn 0.047061 0.000000 -0.998892
vn 0.047061 0.000000 -0.998892
vn -0.946687 0.000000 -0.322156
vn -0.946687 0.000000 -0.322156
vn -0.946687 0.000000 -0.322156
vn -0.946687 0.000000 -0.322156
s off
f 10/14/1 11/15/2 2/2/3 4/4/4
f 61/81/5 62/82/6 63/83/7 64/84/8
f 12/16/9 9/13/10 6/6/11 8/8/12
f 2/2/13 8/9/14 6/10/15 4/4/16
f 7/11/17 1/1/18 3/3/19 5/12/20
f 65/85/21 62/82/22 61/81/23 66/86/24
f 1/1/25 11/15/26 10/14/27 3/3/28
f 5/5/29 9/13/30 12/16/31 7/7/32
f 22/17/33 23/18/34 14/19/35 16/20/36
f 67/87/37 68/88/38 69/89/39 70/90/40
f 24/23/41 21/21/42 18/22/43 20/24/44
f 14/19/45 20/25/46 18/26/47 16/20/48
f 19/27/49 13/28/50 15/29/51 17/30/52
f 71/91/53 68/88/54 67/87/55 72/92/56
f 13/28/57 23/18/58 22/17/59 15/29/60
f 17/31/61 21/21/62 24/23/63 19/32/64
f 34/33/65 35/34/66 26/35/67 28/36/68
f 73/93/69 74/94/70 75/95/71 76/96/72
f 36/39/73 33/37/74 30/38/75 32/40/76
f 26/35/77 32/41/78 30/42/79 28/36/80
f 31/43/81 25/44/82 27/45/83 29/46/84
f 77/97/85 74/94/86 73/93/87 78/98/88
f 25/44/89 35/34/90 34/33/91 27/45/92
f 29/47/93 33/37/94 36/39/95 31/48/96
f 46/49/97 47/50/98 38/51/99 40/52/100
f 79/99/101 80/100/102 81/101/103 82/102/104
f 48/55/105 45/53/106 42/54/107 44/56/108
f 38/51/109 44/57/110 42/58/111 40/52/112
f 43/59/113 37/60/114 39/61/115 41/62/116
f 83/103/117 80/100/118 79/99/119 84/104/120
f 37/60/121 47/50/122 46/49/123 39/61/124
f 41/63/125 45/53/126 48/55/127 43/64/128
f 58/65/129 59/66/130 50/67/131 52/68/132
f 85/105/133 86/106/134 87/107/135 88/108/136
f 60/71/137 57/69/138 54/70/139 56/72/140
f 50/67/141 56/73/142 54/74/143 52/68/144
f 55/75/145 49/76/146 51/77/147 53/78/148
f 89/109/149 86/106/150 85/105/151 90/110/152
f 49/76/153 59/66/154 58/65/155 51/77/156
f 53/79/157 57/69/158 60/71/159 55/80/160
f 10/111/161 4/112/162 63/83/163 62/82/164
f 4/112/165 6/113/166 64/84/167 63/83/168
f 6/113/169 9/114/170 61/81/171 64/84/172
f 3/115/173 10/111/174 62/82/175 65/85/176
f 9/114/177 5/116/178 66/86/179 61/81/180
f 5/116/181 3/115/182 65/85/183 66/86/184
f 22/117/185 16/118/186 69/89/187 68/88/188
f 16/118/189 18/119/190 70/90/191 69/89/192
f 18/119/193 21/120/194 67/87/195 70/90/196
f 15/121/197 22/117/198 68/88/199 71/91/200
f 21/120/201 17/122/202 72/92/203 67/87/204
f 17/122/205 15/121/206 71/91/207 72/92/208
f 34/123/209 28/124/210 75/95/211 74/94/212
f 28/124/213 30/125/214 76/96/215 75/95/216
f 30/125/217 33/126/218 73/93/219 76/96/220
f 27/127/221 34/123/222 74/94/223 77/97/224
f 33/126/225 29/128/226 78/98/227 73/93/228
f 29/128/229 27/127/230 77/97/231 78/98/232
f 46/129/233 40/130/234 81/101/235 80/100/236
f 40/130/237 42/131/238 82/102/239 81/101/240
f 42/131/241 45/132/242 79/99/243 82/102/244
f 39/133/245 46/129/246 80/100/247 83/103/248
f 45/132/249 41/134/250 84/104/251 79/99/252
f 41/134/253 39/133/254 83/103/255 84/104/256
f 58/135/257 52/136/258 87/107/259 86/106/260
f 52/136/261 54/137/262 88/108/263 87/107/264
f 54/137/265 57/138/266 85/105/267 88/108/268
f 51/139/269 58/135/270 86/106/271 89/109/272
f 57/138/273 53/140/274 90/110/275 85/105/276
f 53/140/277 51/139/278 89/109/279 90/110/280
