# This file uses centimeters as units for non-parametric coordinates.

v -0.061229 1.235675 0.061234
v 0.061230 1.235675 0.061234
v -0.061229 1.469327 0.061234
v 0.061230 1.469327 0.061234
v -0.061229 1.469327 -0.061234
v 0.061230 1.469327 -0.061234
v -0.061229 1.235675 -0.061234
v 0.061230 1.235675 -0.061234
v -0.102165 1.299109 -0.102165
v -0.102165 1.299109 0.102165
v 0.102166 1.299109 0.102165
v 0.102166 1.299109 -0.102165
v 0.102166 1.410488 0.102165
v -0.102165 1.410488 0.102165
v -0.102165 1.410488 -0.102165
v 0.102166 1.410488 -0.102165
v 0.080693 1.235675 0.000000
v -0.080692 1.235675 0.000000
v -0.134639 1.299109 0.000000
v -0.134639 1.410488 0.000000
v -0.080692 1.469327 0.000000
v 0.080693 1.469327 0.000000
v 0.134640 1.410488 0.000000
v 0.134640 1.299109 0.000000
v 0.000000 1.299109 -0.134636
v 0.000000 1.410488 -0.134636
v 0.000000 1.469327 -0.080696
v 0.000000 1.469327 0.000000
v 0.000000 1.469327 0.080696
v 0.000000 1.410488 0.134636
v 0.000000 1.299109 0.134636
v 0.000000 1.235675 0.080696
v 0.000000 1.235675 -0.080696
v 0.000002 1.223932 -0.042915
v 0.039105 1.223932 -0.039108
v 0.042904 1.223932 0.000000
v 0.000000 1.223932 0.042908
v 0.039105 1.223932 0.039108
v -0.042902 1.223932 0.000000
v -0.039104 1.223932 0.039108
v -0.039104 1.223932 -0.039108
v 0.000002 1.163231 -0.042915
v 0.039105 1.163231 -0.039108
v 0.042904 1.163231 0.000000
v 0.000000 1.163231 0.042908
v 0.039105 1.163231 0.039108
v -0.042902 1.163231 0.000000
v -0.039104 1.163231 0.039108
v -0.039104 1.163231 -0.039108
v -0.151254 0.000000 0.151253
v 0.151255 0.000000 0.151253
v -0.094942 1.163231 0.094940
v 0.094943 1.163231 0.094940
v -0.094942 1.163231 -0.094940
v 0.094943 1.163231 -0.094940
v -0.151254 0.000000 -0.151253
v 0.151255 0.000000 -0.151253
v -0.150125 0.854992 -0.150124
v -0.150125 0.854992 0.150124
v 0.150126 0.854992 0.150124
v 0.150126 0.854992 -0.150124
v -0.123443 0.830957 -0.123444
v -0.123443 0.830957 0.123444
v 0.123444 0.830957 0.123444
v 0.123444 0.830957 -0.123444
v 0.150126 1.110904 0.150124
v -0.150125 1.110904 0.150124
v -0.150125 1.110904 -0.150124
v 0.150126 1.110904 -0.150124
v -0.151254 0.330339 0.151253
v 0.151255 0.330339 0.151253
v 0.151255 0.330339 -0.151253
v -0.151254 0.330339 -0.151253
v 0.123444 0.358743 -0.123444
v 0.123444 0.358743 0.123444
v -0.123443 0.358743 0.123444
v -0.123443 0.358743 -0.123444
vt 0.647935 0.133212
vt 0.647935 0.133212
vt 0.647935 0.133212
vt 0.647935 0.133212
vt 0.647935 0.133212
vt 0.647935 0.133212
vt 0.647935 0.133212
vt 0.647935 0.133212
vt 0.647935 0.133212
vt 0.647935 0.133212
vt 0.647935 0.133212
vt 0.647935 0.133212
vt 0.647935 0.133212
vt 0.647935 0.133212
vt 0.647935 0.133212
vt 0.647935 0.133212
vt 0.647935 0.133212
vt 0.647935 0.133212
vt 0.647935 0.133212
vt 0.647935 0.133212
vt 0.647935 0.133212
vt 0.647935 0.133212
vt 0.647935 0.133212
vt 0.647935 0.133212
vt 0.647935 0.133212
vt 0.647935 0.133212
vt 0.647935 0.133212
vt 0.647935 0.133212
vt 0.647935 0.133212
vt 0.647935 0.133212
vt 0.647935 0.133212
vt 0.647935 0.133212
vt 0.647935 0.133212
vt 0.647935 0.133212
vt 0.647935 0.133212
vt 0.647935 0.133212
vt 0.647935 0.133212
vt 0.647935 0.133212
vt 0.647935 0.133212
vt 0.647935 0.133212
vt 0.647935 0.133212
vt 0.647935 0.133212
vt 0.647935 0.133212
vt 0.647935 0.133212
vt 0.647935 0.133212
vt 0.647935 0.133212
vt 0.647935 0.133212
vt 0.647935 0.133212
vt 0.647935 0.133212
vt 0.647935 0.133212
vt 0.647935 0.133212
vt 0.647935 0.133212
vt 0.647935 0.133212
vt 0.647935 0.133212
vt 0.647935 0.133212
vt 0.647935 0.133212
vt 0.647935 0.133212
vt 0.647935 0.133212
vt 0.647935 0.133212
vt 0.647935 0.133212
vt 0.647935 0.133212
vt 0.647935 0.133212
vt 0.647935 0.133212
vt 0.647935 0.133212
vt 0.648034 0.133214
vt 0.648034 0.133214
vt 0.648034 0.133214
vt 0.648034 0.133214
vt 0.648034 0.133214
vt 0.648034 0.133214
vt 0.648034 0.133214
vt 0.648034 0.133214
vt 0.648034 0.133214
vt 0.648034 0.133214
vt 0.648034 0.133214
vt 0.648034 0.133214
vt 0.648034 0.133214
vt 0.648034 0.133214
vt 0.648034 0.133214
vt 0.648034 0.133214
vt 0.648034 0.133214
vt 0.648034 0.133214
vt 0.648034 0.133214
vt 0.648034 0.133214
vt 0.648034 0.133214
vt 0.648034 0.133214
vt 0.648034 0.133214
vt 0.648034 0.133214
vt 0.648034 0.133214
vt 0.648034 0.133214
vt 0.648034 0.133214
vt 0.648034 0.133214
vt 0.648034 0.133214
vt 0.648034 0.133214
vt 0.648034 0.133214
vt 0.648034 0.133214
vt 0.648034 0.133214
vt 0.648034 0.133214
vt 0.648034 0.133214
vt 0.648034 0.133214
vt 0.648034 0.133214
vt 0.648034 0.133214
vt 0.648034 0.133214
vt 0.648034 0.133214
vt 0.648034 0.133214
vt 0.648034 0.133214
vt 0.648034 0.133214
vt 0.648034 0.133214
vn 0.302879 0.000000 0.953029
vn 0.302879 0.000000 0.953029
vn 0.302879 0.000000 0.953029
vn 0.302879 0.000000 0.953029
vn 0.000000 1.000000 0.000000
vn 0.000000 1.000000 0.000000
vn 0.000000 1.000000 0.000000
vn 0.000000 1.000000 0.000000
vn 0.302879 0.000000 -0.953029
vn 0.302879 0.000000 -0.953029
vn 0.302879 0.000000 -0.953029
vn 0.302879 0.000000 -0.953029
vn 0.953015 0.000000 -0.302923
vn 0.953015 0.000000 -0.302923
vn 0.953015 0.000000 -0.302923
vn 0.953015 0.000000 -0.302923
vn -0.953015 0.000000 -0.302923
vn -0.953015 0.000000 -0.302923
vn -0.953015 0.000000 -0.302923
vn -0.953015 0.000000 -0.302923
vn -0.740394 -0.629633 -0.235327
vn -0.740394 -0.629633 -0.235327
vn -0.740394 -0.629633 -0.235327
vn -0.740394 -0.629633 -0.235327
vn 0.235309 -0.629613 0.740417
vn 0.235309 -0.629613 0.740417
vn 0.235309 -0.629613 0.740417
vn 0.235309 -0.629613 0.740417
vn 0.740395 -0.629632 -0.235328
vn 0.740395 -0.629632 -0.235328
vn 0.740395 -0.629632 -0.235328
vn 0.740395 -0.629632 -0.235328
vn 0.235309 -0.629613 -0.740417
vn 0.235309 -0.629613 -0.740417
vn 0.235309 -0.629613 -0.740417
vn 0.235309 -0.629613 -0.740417
vn 0.228032 0.657958 0.717700
vn 0.228032 0.657958 0.717700
vn 0.228032 0.657958 0.717700
vn 0.228032 0.657958 0.717700
vn -0.717679 0.657957 -0.228101
vn -0.717679 0.657957 -0.228101
vn -0.717678 0.657957 -0.228101
vn -0.717678 0.657957 -0.228101
vn 0.228032 0.657958 -0.717700
vn 0.228032 0.657958 -0.717700
vn 0.228032 0.657958 -0.717700
vn 0.228032 0.657958 -0.717700
vn 0.717680 0.657956 -0.228101
vn 0.717680 0.657956 -0.228101
vn 0.717680 0.657956 -0.228101
vn 0.717680 0.657956 -0.228101
vn -0.740395 -0.629632 0.235328
vn -0.740395 -0.629632 0.235328
vn -0.740395 -0.629632 0.235328
vn -0.740395 -0.629632 0.235328
vn -0.953015 0.000000 0.302923
vn -0.953015 0.000000 0.302923
vn -0.953015 0.000000 0.302923
vn -0.953015 0.000000 0.302923
vn -0.717677 0.657959 0.228100
vn -0.717677 0.657959 0.228100
vn -0.717677 0.657959 0.228100
vn -0.717677 0.657959 0.228100
vn 0.000000 1.000000 0.000000
vn 0.000000 1.000000 0.000000
vn 0.000000 1.000000 0.000000
vn 0.000000 1.000000 0.000000
vn 0.717681 0.657955 0.228101
vn 0.717681 0.657955 0.228101
vn 0.717681 0.657955 0.228101
vn 0.717681 0.657955 0.228101
vn 0.953015 0.000000 0.302923
vn 0.953015 0.000000 0.302923
vn 0.953015 0.000000 0.302923
vn 0.953015 0.000000 0.302923
vn 0.740396 -0.629631 0.235328
vn 0.740396 -0.629631 0.235328
vn 0.740396 -0.629631 0.235328
vn 0.740396 -0.629631 0.235328
vn -0.302879 0.000000 -0.953029
vn -0.302879 0.000000 -0.953029
vn -0.302879 0.000000 -0.953029
vn -0.302879 0.000000 -0.953029
vn -0.228032 0.657959 -0.717699
vn -0.228032 0.657959 -0.717699
vn -0.228032 0.657959 -0.717699
vn -0.228032 0.657959 -0.717699
vn 0.000000 1.000000 0.000000
vn 0.000000 1.000000 0.000000
vn 0.000000 1.000000 0.000000
vn 0.000000 1.000000 0.000000
vn 0.000000 1.000000 0.000000
vn 0.000000 1.000000 0.000000
vn 0.000000 1.000000 0.000000
vn 0.000000 1.000000 0.000000
vn -0.228032 0.657958 0.717700
vn -0.228032 0.657958 0.717700
vn -0.228032 0.657958 0.717700
vn -0.228032 0.657958 0.717700
vn -0.302879 0.000000 0.953029
vn -0.302879 0.000000 0.953029
vn -0.302879 0.000000 0.953029
vn -0.302879 0.000000 0.953029
vn -0.235308 -0.629615 0.740415
vn -0.235308 -0.629615 0.740415
vn -0.235308 -0.629615 0.740415
vn -0.235308 -0.629615 0.740415
vn -0.235309 -0.629614 -0.740416
vn -0.235309 -0.629614 -0.740416
vn -0.235309 -0.629614 -0.740416
vn -0.235309 -0.629614 -0.740416
vn 0.078557 -0.937643 -0.338607
vn 0.078557 -0.937643 -0.338607
vn 0.078557 -0.937643 -0.338607
vn 0.078557 -0.937643 -0.338607
vn 0.338563 -0.937664 -0.078490
vn 0.338563 -0.937664 -0.078490
vn 0.338563 -0.937664 -0.078490
vn 0.338563 -0.937664 -0.078490
vn 0.338595 -0.937653 0.078492
vn 0.338595 -0.937653 0.078492
vn 0.338595 -0.937653 0.078492
vn 0.338595 -0.937653 0.078492
vn 0.078514 -0.937658 0.338576
vn 0.078514 -0.937658 0.338576
vn 0.078514 -0.937658 0.338576
vn 0.078514 -0.937658 0.338576
vn -0.078514 -0.937656 0.338579
vn -0.078514 -0.937656 0.338579
vn -0.078514 -0.937656 0.338579
vn -0.078514 -0.937656 0.338579
vn -0.338586 -0.937657 0.078485
vn -0.338586 -0.937657 0.078485
vn -0.338586 -0.937657 0.078485
vn -0.338586 -0.937657 0.078485
vn -0.078552 -0.937645 -0.338602
vn -0.078552 -0.937645 -0.338602
vn -0.078552 -0.937645 -0.338602
vn -0.078552 -0.937645 -0.338602
vn -0.338554 -0.937668 -0.078486
vn -0.338554 -0.937668 -0.078486
vn -0.338554 -0.937668 -0.078486
vn -0.338554 -0.937668 -0.078486
vn 0.096777 0.000000 -0.995306
vn 0.096777 0.000000 -0.995306
vn 0.096777 0.000000 -0.995306
vn 0.096777 0.000000 -0.995306
vn 0.995315 0.000000 -0.096686
vn 0.995315 0.000000 -0.096686
vn 0.995315 0.000000 -0.096686
vn 0.995315 0.000000 -0.096686
vn 0.995313 0.000000 0.096705
vn 0.995313 0.000000 0.096705
vn 0.995313 0.000000 0.096705
vn 0.995313 0.000000 0.096705
vn 0.096772 0.000000 0.995307
vn 0.096772 0.000000 0.995307
vn 0.096772 0.000000 0.995307
vn 0.096772 0.000000 0.995307
vn -0.096772 0.000000 0.995307
vn -0.096772 0.000000 0.995307
vn -0.096772 0.000000 0.995307
vn -0.096772 0.000000 0.995307
vn -0.995318 0.000000 0.096657
vn -0.995318 0.000000 0.096657
vn -0.995318 0.000000 0.096657
vn -0.995318 0.000000 0.096657
vn -0.096768 0.000000 -0.995307
vn -0.096768 0.000000 -0.995307
vn -0.096768 0.000000 -0.995307
vn -0.096768 0.000000 -0.995307
vn -0.995320 0.000000 -0.096638
vn -0.995320 0.000000 -0.096638
vn -0.995320 0.000000 -0.096638
vn -0.995320 0.000000 -0.096638
vn 0.000000 0.000000 1.000000
vn 0.000000 0.000000 1.000000
vn 0.000000 0.000000 1.000000
vn 0.000000 0.000000 1.000000
vn 0.000000 1.000000 0.000000
vn 0.000000 1.000000 0.000000
vn 0.000000 1.000000 0.000000
vn 0.000000 1.000000 0.000000
vn 0.000000 0.000000 -1.000000
vn 0.000000 0.000000 -1.000000
vn 0.000000 0.000000 -1.000000
vn 0.000000 0.000000 -1.000000
vn 0.000000 -1.000000 0.000000
vn 0.000000 -1.000000 0.000000
vn 0.000000 -1.000000 0.000000
vn 0.000000 -1.000000 0.000000
vn 1.000000 0.000000 0.000000
vn 1.000000 0.000000 0.000000
vn 1.000000 0.000000 0.000000
vn 1.000000 0.000000 0.000000
vn -1.000000 0.000000 0.000000
vn -1.000000 0.000000 0.000000
vn -1.000000 0.000000 0.000000
vn -1.000000 0.000000 0.000000
vn -0.669317 -0.742977 0.000000
vn -0.669317 -0.742977 0.000000
vn -0.669317 -0.742977 0.000000
vn -0.669317 -0.742977 0.000000
vn 0.000000 -0.742969 0.669326
vn 0.000000 -0.742969 0.669326
vn 0.000000 -0.742969 0.669326
vn 0.000000 -0.742969 0.669326
vn 0.669311 -0.742983 0.000000
vn 0.669311 -0.742983 0.000000
vn 0.669311 -0.742983 0.000000
vn 0.669311 -0.742983 0.000000
vn 0.000000 -0.742967 -0.669328
vn 0.000000 -0.742967 -0.669328
vn 0.000000 -0.742967 -0.669328
vn 0.000000 -0.742967 -0.669328
vn -0.714534 0.699600 0.000000
vn -0.714534 0.699600 0.000000
vn -0.714534 0.699600 0.000000
vn -0.714534 0.699600 0.000000
vn 0.000000 0.699575 0.714559
vn 0.000000 0.699575 0.714559
vn 0.000000 0.699575 0.714559
vn 0.000000 0.699575 0.714559
vn 0.714537 0.699597 0.000000
vn 0.714537 0.699597 0.000000
vn 0.714537 0.699597 0.000000
vn 0.714537 0.699597 0.000000
vn 0.000000 0.699575 -0.714559
vn 0.000000 0.699575 -0.714559
vn 0.000000 0.699575 -0.714559
vn 0.000000 0.699575 -0.714559
vn 0.000000 0.725637 0.688078
vn 0.000000 0.725637 0.688078
vn 0.000000 0.725637 0.688078
vn 0.000000 0.725637 0.688078
vn -0.688097 0.725618 0.000000
vn -0.688097 0.725618 0.000000
vn -0.688097 0.725618 0.000000
vn -0.688097 0.725618 0.000000
vn 0.000000 0.725637 -0.688078
vn 0.000000 0.725637 -0.688078
vn 0.000000 0.725637 -0.688078
vn 0.000000 0.725637 -0.688078
vn 0.688092 0.725623 0.000000
vn 0.688092 0.725623 0.000000
vn 0.688092 0.725623 0.000000
vn 0.688092 0.725623 0.000000
vn 0.000000 0.000000 1.000000
vn 0.000000 0.000000 1.000000
vn 0.000000 0.000000 1.000000
vn 0.000000 0.000000 1.000000
vn 1.000000 0.000000 0.000000
vn 1.000000 0.000000 0.000000
vn 1.000000 0.000000 0.000000
vn 1.000000 0.000000 0.000000
vn 0.000000 0.000000 -1.000000
vn 0.000000 0.000000 -1.000000
vn 0.000000 0.000000 -1.000000
vn 0.000000 0.000000 -1.000000
vn -1.000000 0.000000 0.000000
vn -1.000000 0.000000 0.000000
vn -1.000000 0.000000 0.000000
vn -1.000000 0.000000 0.000000
vn 1.000000 0.000000 0.000000
vn 1.000000 0.000000 0.000000
vn 1.000000 0.000000 0.000000
vn 1.000000 0.000000 0.000000
vn 0.000000 0.000000 1.000000
vn 0.000000 0.000000 1.000000
vn 0.000000 0.000000 1.000000
vn 0.000000 0.000000 1.000000
vn -1.000000 0.000000 0.000000
vn -1.000000 0.000000 0.000000
vn -1.000000 0.000000 0.000000
vn -1.000000 0.000000 0.000000
vn 0.000000 0.000000 -1.000000
vn 0.000000 0.000000 -1.000000
vn 0.000000 0.000000 -1.000000
vn 0.000000 0.000000 -1.000000
s off
f 30/1/1 31/2/2 11/3/3 13/4/4
f 27/5/5 28/6/6 22/7/7 6/8/8
f 25/9/9 26/10/10 16/11/11 12/12/12
f 23/13/13 24/14/14 12/15/15 16/16/16
f 9/17/17 19/18/18 20/19/19 15/20/20
f 7/21/21 18/22/22 19/18/23 9/17/24
f 31/2/25 32/23/26 2/24/27 11/3/28
f 24/14/29 17/25/30 8/26/31 12/15/32
f 33/27/33 25/9/34 12/12/35 8/28/36
f 29/29/37 30/1/38 13/4/39 4/30/40
f 15/20/41 20/19/42 21/31/43 5/32/44
f 26/10/45 27/5/46 6/8/47 16/11/48
f 22/33/49 23/13/50 16/16/51 6/34/52
f 19/18/53 18/22/54 1/35/55 10/36/56
f 20/19/57 19/18/58 10/36/59 14/37/60
f 21/31/61 20/19/62 14/37/63 3/38/64
f 28/6/65 29/29/66 4/30/67 22/7/68
f 13/4/69 23/13/70 22/33/71 4/30/72
f 11/3/73 24/14/74 23/13/75 13/4/76
f 2/24/77 17/25/78 24/14/79 11/3/80
f 15/39/81 26/10/82 25/9/83 9/40/84
f 5/41/85 27/5/86 26/10/87 15/39/88
f 21/42/89 28/6/90 27/5/91 5/41/92
f 3/38/93 29/29/94 28/6/95 21/42/96
f 14/37/97 30/1/98 29/29/99 3/38/100
f 10/36/101 31/2/102 30/1/103 14/37/104
f 1/35/105 32/23/106 31/2/107 10/36/108
f 9/40/109 25/9/110 33/27/111 7/43/112
f 33/27/113 8/28/114 35/44/115 34/45/116
f 8/28/117 17/46/118 36/47/119 35/44/120
f 17/46/121 2/48/122 38/49/123 36/47/124
f 2/48/125 32/50/126 37/51/127 38/49/128
f 32/50/129 1/52/130 40/53/131 37/51/132
f 1/52/133 18/54/134 39/55/135 40/53/136
f 7/43/137 33/27/138 34/45/139 41/56/140
f 18/54/141 7/43/142 41/56/143 39/55/144
f 34/45/145 35/44/146 43/57/147 42/58/148
f 35/44/149 36/47/150 44/59/151 43/57/152
f 36/47/153 38/49/154 46/60/155 44/59/156
f 38/49/157 37/51/158 45/61/159 46/60/160
f 37/51/161 40/53/162 48/62/163 45/61/164
f 40/53/165 39/55/166 47/63/167 48/62/168
f 41/56/169 34/45/170 42/58/171 49/64/172
f 39/55/173 41/56/174 49/64/175 47/63/176
f 59/65/177 60/66/178 66/67/179 67/68/180
f 52/69/181 53/70/182 55/71/183 54/72/184
f 68/73/185 69/74/186 61/75/187 58/76/188
f 56/77/189 57/78/190 51/79/191 50/80/192
f 60/66/193 61/81/194 69/82/195 66/67/196
f 58/83/197 59/65/198 67/68/199 68/84/200
f 62/85/201 63/86/202 59/65/203 58/83/204
f 63/86/205 64/87/206 60/66/207 59/65/208
f 64/87/209 65/88/210 61/81/211 60/66/212
f 58/76/213 61/75/214 65/89/215 62/90/216
f 73/101/217 70/97/218 76/106/219 77/107/220
f 70/97/221 71/98/222 75/105/223 76/106/224
f 71/98/225 72/100/226 74/104/227 75/105/228
f 77/108/229 74/103/230 72/99/231 73/102/232
f 67/68/233 66/67/234 53/70/235 52/69/236
f 68/84/237 67/68/238 52/69/239 54/95/240
f 54/72/241 55/71/242 69/74/243 68/73/244
f 66/67/245 69/82/246 55/96/247 53/70/248
f 50/92/249 51/93/250 71/98/251 70/97/252
f 51/93/253 57/94/254 72/100/255 71/98/256
f 73/102/257 72/99/258 57/78/259 56/77/260
f 56/91/261 50/92/262 70/97/263 73/101/264
f 75/105/265 74/104/266 65/88/267 64/87/268
f 76/106/269 75/105/270 64/87/271 63/86/272
f 77/107/273 76/106/274 63/86/275 62/85/276
f 62/90/277 65/89/278 74/103/279 77/108/280
