# This file uses centimeters as units for non-parametric coordinates.

v -0.997578 0.000000 0.098343
v 0.162388 0.000000 -0.062668
v -0.939331 0.157215 0.053070
v 0.103138 0.157215 -0.091637
v -0.929111 0.157215 -0.730972
v 0.084682 0.157215 -0.699768
v -0.986202 0.000000 -0.774055
v 0.141846 0.000000 -0.739342
v -0.238113 0.157215 -0.920631
v -0.599800 0.157215 0.224426
v -0.619778 0.000000 0.289009
v -0.217323 0.000000 -0.985092
v -0.064716 0.000000 0.867516
v 0.548527 0.000000 0.837677
v -0.016712 0.157215 0.811501
v 0.495857 0.157215 0.807426
v -0.107609 0.157215 0.311768
v 0.592762 0.157215 0.332191
v -0.172169 0.000000 0.280975
v 0.656349 0.000000 0.308884
v 0.185295 0.157215 0.086662
v 0.173382 0.157215 0.910751
v 0.153408 0.000000 0.975342
v 0.206081 0.000000 0.022202
v 0.510509 0.000000 -0.724930
v 0.237057 0.000000 -0.175224
v 0.535946 0.157215 -0.655693
v 0.289173 0.157215 -0.206413
v 1.016422 0.157215 -0.490944
v 0.656548 0.157215 0.110237
v 1.074825 0.000000 -0.532242
v 0.645836 0.000000 0.177116
v 1.069805 0.157215 -0.125412
v 0.356499 0.157215 -0.538277
v 0.309895 0.000000 -0.587257
v 1.115906 0.000000 -0.075790
vt 0.443692 0.326509
vt 0.443692 0.326509
vt 0.443692 0.326509
vt 0.443692 0.326509
vt 0.443692 0.326509
vt 0.443692 0.326509
vt 0.443692 0.326509
vt 0.443692 0.326509
vt 0.443692 0.326509
vt 0.443692 0.326509
vt 0.443692 0.326509
vt 0.443692 0.326509
vt 0.443692 0.326509
vt 0.443692 0.326509
vt 0.443692 0.326509
vt 0.443692 0.326509
vt 0.443692 0.326509
vt 0.443692 0.326509
vt 0.443692 0.326509
vt 0.443692 0.326509
vt 0.443692 0.326509
vt 0.443692 0.326509
vt 0.443692 0.326509
vt 0.443692 0.326509
vt 0.443692 0.326509
vt 0.443692 0.326509
vt 0.443692 0.326509
vt 0.443692 0.326509
vt 0.443692 0.326509
vt 0.443692 0.326509
vt 0.443692 0.326509
vt 0.443692 0.326509
vt 0.443692 0.326509
vt 0.443692 0.326509
vt 0.443692 0.326509
vt 0.443692 0.326509
vt 0.443692 0.326509
vt 0.443692 0.326509
vt 0.443692 0.326509
vt 0.443692 0.326509
vt 0.443692 0.326509
vt 0.443692 0.326509
vt 0.443692 0.326509
vt 0.443692 0.326509
vt 0.443692 0.326509
vt 0.443692 0.326509
vt 0.443692 0.326509
vt 0.443692 0.326509
vn 0.149492 0.359416 0.921125
vn 0.100309 0.367150 0.924738
vn 0.390271 0.307002 0.868008
vn 0.390271 0.307002 0.868008
vn 0.000000 1.000000 0.000000
vn 0.000000 1.000000 0.000000
vn 0.000000 1.000000 0.000000
vn 0.000000 1.000000 0.000000
vn 0.043046 0.383884 -0.922378
vn 0.016848 0.381220 -0.924331
vn 0.521915 0.381778 -0.762791
vn 0.521915 0.381778 -0.762791
vn 0.937097 0.347908 -0.028443
vn 0.937097 0.347908 -0.028443
vn 0.937097 0.347908 -0.028443
vn 0.937097 0.347908 -0.028443
vn -0.938792 0.344266 -0.012239
vn -0.938792 0.344266 -0.012239
vn -0.938792 0.344266 -0.012239
vn -0.938792 0.344266 -0.012239
vn 0.000000 1.000000 0.000000
vn 0.000000 1.000000 0.000000
vn 0.000000 1.000000 0.000000
vn 0.000000 1.000000 0.000000
vn -0.414806 0.390361 0.821921
vn 0.100309 0.367150 0.924738
vn 0.149492 0.359416 0.921125
vn -0.414806 0.390361 0.821921
vn -0.249008 0.339045 -0.907217
vn 0.016848 0.381220 -0.924331
vn 0.043046 0.383884 -0.922378
vn -0.249008 0.339045 -0.907217
vn 0.044367 0.363074 0.930704
vn 0.005439 0.369685 0.929141
vn 0.303284 0.303948 0.903125
vn 0.303284 0.303948 0.903125
vn 0.000000 1.000000 0.000000
vn 0.000000 1.000000 0.000000
vn 0.000000 1.000000 0.000000
vn 0.000000 1.000000 0.000000
vn 0.077019 0.392864 -0.916366
vn -0.012416 0.391610 -0.920047
vn 0.493087 0.354130 -0.794643
vn 0.493087 0.354130 -0.794643
vn 0.919934 0.344289 0.187580
vn 0.919934 0.344289 0.187580
vn 0.919934 0.344289 0.187580
vn 0.919934 0.344289 0.187580
vn -0.923634 0.344175 0.168652
vn -0.923634 0.344175 0.168652
vn -0.923634 0.344175 0.168652
vn -0.923634 0.344175 0.168652
vn 0.000000 1.000000 0.000000
vn 0.000000 1.000000 0.000000
vn 0.000000 1.000000 0.000000
vn 0.000000 1.000000 0.000000
vn -0.414109 0.402652 0.816324
vn 0.005439 0.369685 0.929141
vn 0.044367 0.363074 0.930704
vn -0.414109 0.402652 0.816324
vn -0.555839 0.310937 -0.770948
vn -0.012416 0.391610 -0.920047
vn 0.077019 0.392864 -0.916366
vn -0.555839 0.310937 -0.770948
vn -0.833848 0.363054 -0.415800
vn -0.813462 0.369671 -0.449024
vn -0.936222 0.303926 -0.176402
vn -0.936222 0.303926 -0.176402
vn 0.000000 1.000000 -0.000000
vn 0.000000 1.000000 -0.000000
vn 0.000000 1.000000 -0.000000
vn 0.000000 1.000000 -0.000000
vn 0.762034 0.392869 0.514740
vn 0.808925 0.391614 0.438497
vn 0.452618 0.354145 0.818363
vn 0.452618 0.354145 0.818363
vn -0.612968 0.344271 0.711159
vn -0.612968 0.344271 0.711159
vn -0.612968 0.344271 0.711159
vn -0.612968 0.344271 0.711159
vn 0.303911 0.344157 -0.888366
vn 0.303911 0.344157 -0.888366
vn 0.303911 0.344157 -0.888366
vn 0.303911 0.344157 -0.888366
vn 0.000000 1.000000 0.000000
vn 0.000000 1.000000 -0.000000
vn 0.000000 1.000000 -0.000000
vn 0.000000 1.000000 0.000000
vn -0.510119 0.402648 -0.760035
vn -0.813462 0.369671 -0.449024
vn -0.833848 0.363054 -0.415800
vn -0.510119 0.402648 -0.760035
vn 0.944218 0.310932 -0.108509
vn 0.808925 0.391614 0.438497
vn 0.762034 0.392869 0.514740
vn 0.944218 0.310932 -0.108509
s off
f 10/14/1 11/15/2 2/2/3 4/4/4
f 9/13/5 10/14/6 4/4/7 6/6/8
f 12/16/9 9/13/10 6/6/11 8/8/12
f 2/2/13 8/9/14 6/10/15 4/4/16
f 7/11/17 1/1/18 3/3/19 5/12/20
f 3/3/21 10/14/22 9/13/23 5/5/24
f 1/1/25 11/15/26 10/14/27 3/3/28
f 5/5/29 9/13/30 12/16/31 7/7/32
f 22/17/33 23/18/34 14/19/35 16/20/36
f 21/21/37 22/17/38 16/20/39 18/22/40
f 24/23/41 21/21/42 18/22/43 20/24/44
f 14/19/45 20/25/46 18/26/47 16/20/48
f 19/27/49 13/28/50 15/29/51 17/30/52
f 15/29/53 22/17/54 21/21/55 17/31/56
f 13/28/57 23/18/58 22/17/59 15/29/60
f 17/31/61 21/21/62 24/23/63 19/32/64
f 34/33/65 35/34/66 26/35/67 28/36/68
f 33/37/69 34/33/70 28/36/71 30/38/72
f 36/39/73 33/37/74 30/38/75 32/40/76
f 26/35/77 32/41/78 30/42/79 28/36/80
f 31/43/81 25/44/82 27/45/83 29/46/84
f 27/45/85 34/33/86 33/37/87 29/47/88
f 25/44/89 35/34/90 34/33/91 27/45/92
f 29/47/93 33/37/94 36/39/95 31/48/96
