# This file uses centimeters as units for non-parametric coordinates.

v -2.418039 -0.000000 0.051876
v -0.075701 -0.000000 0.051876
v -2.418039 0.115267 0.051876
v -0.075701 0.115267 0.013981
v -2.418039 0.115267 -0.031094
v -0.075701 0.115267 -0.063393
v -2.418039 -0.000000 -0.063393
v -0.075701 -0.000000 -0.063393
v -2.225153 0.115267 -0.063393
v -2.225153 0.115267 0.051876
v -2.225153 -0.000000 0.051876
v -2.225153 -0.000000 -0.063393
v -0.336985 -0.000000 0.051876
v -0.336985 0.115267 0.051876
v -0.336985 0.115267 -0.063393
v -0.336985 -0.000000 -0.063393
v -0.845411 0.094770 0.076385
v -0.845411 -0.000000 0.076385
v -0.886810 -0.000000 -0.008865
v -0.866829 0.094770 0.032284
v -1.688713 0.095857 -0.056232
v -1.712721 0.095857 -0.013725
v -1.735855 -0.000000 0.027233
v -1.688713 -0.000000 -0.056232
v -1.735855 0.055163 0.027233
v -1.853977 0.100543 0.033180
v -1.615433 0.095710 0.033878
v -0.886810 0.056994 -0.008865
v -0.988695 0.094908 -0.014881
v -0.689173 0.102138 -0.028465
v -0.075701 0.074642 0.051876
v -0.119505 0.115267 0.051876
v -2.363914 0.115267 -0.063393
v -2.418039 0.076119 -0.063393
vt 0.152269 0.473871
vt 0.152269 0.473871
vt 0.152269 0.473871
vt 0.152269 0.473871
vt 0.152269 0.473871
vt 0.152269 0.473871
vt 0.152269 0.473871
vt 0.152269 0.473871
vt 0.152269 0.473871
vt 0.152269 0.473871
vt 0.152269 0.473871
vt 0.152269 0.473871
vt 0.152269 0.473871
vt 0.152269 0.473871
vt 0.152269 0.473871
vt 0.152269 0.473871
vt 0.152269 0.473871
vt 0.152269 0.473871
vt 0.152269 0.473871
vt 0.152269 0.473871
vt 0.152269 0.473871
vt 0.152269 0.473871
vt 0.152269 0.473871
vt 0.152269 0.473871
vt 0.152269 0.473871
vt 0.152269 0.473871
vt 0.152269 0.473871
vt 0.152269 0.473871
vt 0.152269 0.473871
vt 0.152269 0.473871
vt 0.152269 0.473871
vt 0.152269 0.473871
vt 0.152269 0.473871
vt 0.152269 0.473871
vt 0.152269 0.473871
vt 0.152269 0.473871
vt 0.152269 0.473871
vt 0.152269 0.473871
vt 0.152269 0.473871
vt 0.152269 0.473871
vt 0.152269 0.473871
vt 0.152269 0.473871
vt 0.152269 0.473871
vt 0.152269 0.473871
vt 0.152269 0.473871
vn 0.048149 0.000000 0.998840
vn 0.048149 0.000000 0.998840
vn 0.048149 0.000000 0.998840
vn 0.048149 0.000000 0.998840
vn -0.234745 0.770181 -0.593057
vn -0.234745 0.770181 -0.593057
vn -0.234745 0.770181 -0.593057
vn 0.000000 -1.000000 0.000000
vn 0.000000 -1.000000 0.000000
vn 0.000000 -1.000000 0.000000
vn 0.000000 -1.000000 0.000000
vn 1.000000 -0.000014 0.000000
vn 1.000000 -0.000014 0.000000
vn 1.000000 -0.000014 0.000000
vn 1.000000 -0.000014 0.000000
vn 1.000000 -0.000014 0.000000
vn -1.000000 0.000009 0.000000
vn -1.000000 0.000009 0.000000
vn -1.000000 0.000009 0.000000
vn -1.000000 0.000009 0.000000
vn -1.000000 0.000009 0.000000
vn 0.000000 1.000000 -0.000000
vn 0.000000 1.000000 -0.000000
vn 0.000000 1.000000 -0.000000
vn 0.000000 1.000000 -0.000000
vn 0.000000 1.000000 -0.000000
vn 0.000000 0.000000 1.000000
vn 0.000000 0.000000 1.000000
vn 0.000000 0.000000 1.000000
vn 0.000000 0.000000 1.000000
vn 0.000000 -1.000000 0.000000
vn 0.000000 -1.000000 0.000000
vn 0.000000 -1.000000 0.000000
vn 0.000000 -1.000000 0.000000
vn 0.000000 0.000000 -1.000000
vn 0.000000 0.000000 -1.000000
vn 0.000000 0.000000 -1.000000
vn 0.000000 0.000000 -1.000000
vn 0.000000 0.000000 -1.000000
vn -0.000008 0.000000 1.000000
vn -0.000008 0.000000 1.000000
vn -0.000008 0.000000 1.000000
vn -0.000008 0.000000 1.000000
vn -0.000008 0.000000 1.000000
vn 0.000000 1.000000 0.000000
vn 0.000000 1.000000 0.000000
vn 0.000000 1.000000 0.000000
vn 0.000000 1.000000 0.000000
vn 0.000000 1.000000 0.000000
vn 0.000000 0.000000 -1.000000
vn 0.000000 0.000000 -1.000000
vn 0.000000 0.000000 -1.000000
vn 0.000000 0.000000 -1.000000
vn 0.000000 -1.000000 0.000000
vn 0.000000 -1.000000 0.000000
vn 0.000000 -1.000000 0.000000
vn 0.000000 -1.000000 0.000000
vn -0.055111 0.000012 0.998480
vn -0.055111 0.000012 0.998480
vn -0.055111 0.000012 0.998480
vn -0.055111 0.000012 0.998480
vn -0.055111 0.000012 0.998480
vn 0.000000 -1.000000 0.000000
vn 0.000000 -1.000000 0.000000
vn 0.000000 -1.000000 0.000000
vn 0.000000 -1.000000 0.000000
vn 0.279126 0.636021 -0.719421
vn 0.279126 0.636021 -0.719421
vn 0.279126 0.636021 -0.719421
vn 0.037833 0.999249 0.008325
vn 0.037833 0.999249 0.008325
vn 0.037833 0.999249 0.008325
vn 0.037833 0.999249 0.008325
vn 0.037833 0.999249 0.008325
vn 0.050302 0.000009 0.998734
vn 0.050302 0.000009 0.998734
vn 0.050302 0.000009 0.998734
vn 0.050302 0.000009 0.998734
vn 0.050302 0.000009 0.998734
vn 0.000000 -1.000000 0.000000
vn 0.000000 -1.000000 0.000000
vn 0.000000 -1.000000 0.000000
vn 0.000000 -1.000000 0.000000
vn 0.013345 0.000000 -0.999911
vn 0.013345 0.000000 -0.999911
vn 0.013345 0.000000 -0.999911
vn 0.013345 0.000000 -0.999911
vn 0.269425 0.602780 0.751043
vn 0.269425 0.602780 0.751043
vn 0.269425 0.602780 0.751043
vn -0.286997 0.755668 0.588727
vn -0.286997 0.755668 0.588727
vn -0.286997 0.755668 0.588727
vn 0.058971 0.000014 -0.998260
vn 0.058971 0.000014 -0.998260
vn 0.058971 0.000014 -0.998260
vn 0.058971 0.000014 -0.998260
vn 0.058971 0.000014 -0.998260
vn 0.001282 0.999999 0.000042
vn 0.001282 0.999999 0.000042
vn 0.001282 0.999999 0.000042
vn 0.001282 0.999999 0.000042
vn 0.001282 0.999999 0.000042
vn 0.001282 0.999999 0.000042
vn -0.038343 0.999240 0.007064
vn -0.038343 0.999240 0.007064
vn -0.038343 0.999240 0.007064
vn -0.038343 0.999240 0.007064
vn -0.038343 0.999240 0.007064
vn -0.098691 0.000002 -0.995118
vn -0.098691 0.000002 -0.995118
vn -0.098691 0.000002 -0.995118
vn -0.098691 0.000002 -0.995118
vn -0.098691 0.000002 -0.995118
vn 0.534662 0.576430 0.617952
vn 0.534662 0.576430 0.617952
vn 0.534662 0.576430 0.617952
vn -0.418177 0.578068 -0.700689
vn -0.418177 0.578068 -0.700689
vn -0.418177 0.578068 -0.700689
s off
f 17/25/1 18/26/2 13/20/3 14/22/4
f 30/40/5 28/38/6 20/29/7
f 18/27/8 19/28/9 16/24/10 13/21/11
f 2/2/12 8/11/13 6/12/14 4/4/15 31/41/16
f 7/13/17 1/1/18 3/3/19 5/14/20 34/44/21
f 3/3/22 10/16/23 9/15/24 33/43/25 5/5/26
f 1/1/27 11/17/28 10/16/29 3/3/30
f 7/7/31 12/19/32 11/18/33 1/9/34
f 34/45/35 33/43/36 9/15/37 12/19/38 7/7/39
f 14/22/40 13/20/41 2/2/42 31/41/43 32/42/44
f 15/23/45 14/22/46 32/42/47 4/4/48 6/6/49
f 16/24/50 15/23/51 6/6/52 8/8/53
f 13/21/54 16/24/55 8/8/56 2/10/57
f 27/37/58 25/35/59 23/32/60 18/26/61 17/25/62
f 23/33/63 24/34/64 19/28/65 18/27/66
f 28/38/67 29/39/68 20/29/69
f 9/15/70 10/16/71 26/36/72 22/31/73 21/30/74
f 10/16/75 11/17/76 23/32/77 25/35/78 26/36/79
f 11/18/80 12/19/81 24/34/82 23/33/83
f 12/19/84 9/15/85 21/30/86 24/34/87
f 26/36/88 25/35/89 22/31/90
f 22/31/91 25/35/92 27/37/93
f 24/34/94 21/30/95 29/39/96 28/38/97 19/28/98
f 21/30/99 22/31/100 27/37/101 17/25/102 20/29/103 29/39/104
f 30/40/105 20/29/106 17/25/107 14/22/108 15/23/109
f 19/28/110 28/38/111 30/40/112 15/23/113 16/24/114
f 32/42/115 31/41/116 4/4/117
f 5/5/118 33/43/119 34/45/120
