# This file uses centimeters as units for non-parametric coordinates.

v -0.500000 0.000000 0.500000
v 0.622395 0.000000 0.165833
v -0.449253 0.157215 0.446457
v 0.559456 0.157215 0.146133
v -0.557434 0.157215 -0.330147
v 0.449459 0.157215 -0.452255
v -0.620372 0.000000 -0.364128
v 0.500000 0.000000 -0.500000
v 0.097039 0.157215 -0.621887
v -0.087757 0.157215 0.564629
v -0.097759 0.000000 0.631485
v 0.107861 0.000000 -0.688751
v 0.097039 0.199250 -0.621887
v -0.087757 0.199250 0.564629
v 0.559456 0.199250 0.146133
v 0.449459 0.199250 -0.452255
v -0.449253 0.199250 0.446457
v -0.557434 0.199250 -0.330147
vt 0.443692 0.326509
vt 0.443692 0.326509
vt 0.443692 0.326509
vt 0.443692 0.326509
vt 0.443692 0.326509
vt 0.443692 0.326509
vt 0.443692 0.326509
vt 0.443692 0.326509
vt 0.443692 0.326509
vt 0.443692 0.326509
vt 0.443692 0.326509
vt 0.443692 0.326509
vt 0.443692 0.326509
vt 0.443692 0.326509
vt 0.443692 0.326509
vt 0.443692 0.326509
vt 0.562744 0.782361
vt 0.562744 0.782361
vt 0.562744 0.782361
vt 0.562744 0.782361
vt 0.562744 0.782361
vt 0.562744 0.782361
vt 0.562744 0.782361
vt 0.562744 0.782361
vt 0.562744 0.782361
vt 0.562744 0.782361
vt 0.562744 0.782361
vt 0.562744 0.782361
vn 0.516762 0.307000 0.799192
vn 0.516762 0.307000 0.799192
vn 0.516762 0.307000 0.799192
vn 0.516762 0.307000 0.799192
vn 0.000000 1.000000 -0.000000
vn 0.000000 1.000000 -0.000000
vn 0.000000 1.000000 -0.000000
vn 0.000000 1.000000 -0.000000
vn 0.400856 0.381783 -0.832800
vn 0.400856 0.381783 -0.832800
vn 0.400856 0.381783 -0.832800
vn 0.400856 0.381783 -0.832800
vn 0.922081 0.347903 -0.169499
vn 0.922081 0.347903 -0.169499
vn 0.922081 0.347903 -0.169499
vn 0.922081 0.347903 -0.169499
vn -0.929892 0.344271 0.129534
vn -0.929892 0.344271 0.129534
vn -0.929892 0.344271 0.129534
vn -0.929892 0.344271 0.129534
vn 0.000000 1.000000 -0.000000
vn 0.000000 1.000000 -0.000000
vn 0.000000 1.000000 -0.000000
vn 0.000000 1.000000 -0.000000
vn -0.286059 0.390354 0.875097
vn -0.286059 0.390354 0.875096
vn -0.286059 0.390354 0.875097
vn -0.286059 0.390354 0.875097
vn -0.383027 0.339071 -0.859256
vn -0.383027 0.339071 -0.859256
vn -0.383028 0.339071 -0.859256
vn -0.383028 0.339071 -0.859256
vn 0.542986 0.000000 0.839742
vn 0.542986 0.000000 0.839742
vn 0.542986 0.000000 0.839742
vn 0.542986 0.000000 0.839742
vn 0.983521 0.000000 -0.180792
vn 0.983521 0.000000 -0.180792
vn 0.983521 0.000000 -0.180792
vn 0.983521 0.000000 -0.180792
vn 0.433707 0.000000 -0.901054
vn 0.433707 0.000000 -0.901054
vn 0.433707 0.000000 -0.901054
vn 0.433707 0.000000 -0.901054
vn -0.310716 0.000000 0.950503
vn -0.310716 0.000000 0.950503
vn -0.310716 0.000000 0.950503
vn -0.310716 0.000000 0.950503
vn -0.407145 0.000000 -0.913364
vn -0.407145 0.000000 -0.913364
vn -0.407145 0.000000 -0.913364
vn -0.407145 0.000000 -0.913364
vn -0.990437 0.000000 0.137968
vn -0.990437 0.000000 0.137968
vn -0.990437 0.000000 0.137968
vn -0.990437 0.000000 0.137968
s off
f 10/14/1 11/15/2 2/2/3 4/4/4
f 13/17/5 14/18/6 15/19/7 16/20/8
f 12/16/9 9/13/10 6/6/11 8/8/12
f 2/2/13 8/9/14 6/10/15 4/4/16
f 7/11/17 1/1/18 3/3/19 5/12/20
f 17/21/21 14/18/22 13/17/23 18/22/24
f 1/1/25 11/15/26 10/14/27 3/3/28
f 5/5/29 9/13/30 12/16/31 7/7/32
f 10/23/33 4/24/34 15/19/35 14/18/36
f 4/24/37 6/25/38 16/20/39 15/19/40
f 6/25/41 9/26/42 13/17/43 16/20/44
f 3/27/45 10/23/46 14/18/47 17/21/48
f 9/26/49 5/28/50 18/22/51 13/17/52
f 5/28/53 3/27/54 17/21/55 18/22/56
