# This file uses centimeters as units for non-parametric coordinates.

v -0.293240 0.000000 0.315315
v 0.308483 0.000000 0.193298
v -0.254234 0.157215 0.252701
v 0.251850 0.157215 0.171341
v -0.419487 0.157215 -0.227600
v 0.275948 0.157215 -0.313072
v -0.487953 0.000000 -0.248299
v 0.335293 0.000000 -0.345711
v -0.163898 0.157215 -0.494316
v -0.051342 0.157215 0.322136
v -0.061348 0.000000 0.389000
v -0.153072 0.000000 -0.561180
vt 0.443692 0.326509
vt 0.443692 0.326509
vt 0.443692 0.326509
vt 0.443692 0.326509
vt 0.443692 0.326509
vt 0.443692 0.326509
vt 0.443692 0.326509
vt 0.443692 0.326509
vt 0.443692 0.326509
vt 0.443692 0.326509
vt 0.443692 0.326509
vt 0.443692 0.326509
vt 0.443692 0.326509
vt 0.443692 0.326509
vt 0.443692 0.326509
vt 0.443692 0.326509
vn 0.184300 0.363059 0.913357
vn 0.145569 0.369674 0.917688
vn 0.436077 0.303933 0.847031
vn 0.436077 0.303933 0.847031
vn 0.000000 1.000000 0.000000
vn 0.000000 1.000000 0.000000
vn 0.000000 1.000000 0.000000
vn 0.000000 1.000000 0.000000
vn -0.062119 0.392867 -0.917495
vn -0.151099 0.391610 -0.907640
vn 0.367539 0.354153 -0.859937
vn 0.367539 0.354153 -0.859937
vn 0.937708 0.344280 0.046644
vn 0.937708 0.344279 0.046644
vn 0.937708 0.344279 0.046644
vn 0.937708 0.344280 0.046644
vn -0.887620 0.344164 0.306074
vn -0.887620 0.344164 0.306074
vn -0.887620 0.344164 0.306074
vn -0.887620 0.344164 0.306074
vn 0.000000 1.000000 0.000000
vn 0.000000 1.000000 0.000000
vn 0.000000 1.000000 0.000000
vn 0.000000 1.000000 0.000000
vn -0.286187 0.402648 0.869466
vn 0.145569 0.369674 0.917688
vn 0.184300 0.363059 0.913357
vn -0.286187 0.402648 0.869466
vn -0.665796 0.310915 -0.678268
vn -0.151099 0.391610 -0.907640
vn -0.062119 0.392867 -0.917495
vn -0.665796 0.310915 -0.678268
s off
f 10/14/1 11/15/2 2/2/3 4/4/4
f 9/13/5 10/14/6 4/4/7 6/6/8
f 12/16/9 9/13/10 6/6/11 8/8/12
f 2/2/13 8/9/14 6/10/15 4/4/16
f 7/11/17 1/1/18 3/3/19 5/12/20
f 3/3/21 10/14/22 9/13/23 5/5/24
f 1/1/25 11/15/26 10/14/27 3/3/28
f 5/5/29 9/13/30 12/16/31 7/7/32
