# This file uses centimeters as units for non-parametric coordinates.

v -0.735542 0.219445 0.279869
v 0.732346 0.219445 0.377731
v -0.701096 0.219445 -0.392937
v 0.713417 0.219445 -0.197304
v -0.185673 0.219445 0.620102
v 0.164719 0.219445 -0.620094
v -0.636738 -0.010234 0.340363
v -0.146873 -0.010234 0.595970
v -0.649643 -0.010234 -0.371719
v 0.210621 -0.010234 -0.591873
v 0.693661 -0.010234 -0.281952
v 0.735538 -0.010234 0.349533
v -0.356987 -0.156233 0.201118
v -0.068745 -0.156233 0.351517
v -0.364582 -0.156233 -0.217880
v 0.141609 -0.156233 -0.347420
v 0.425835 -0.156233 -0.165062
v 0.450478 -0.156233 0.206512
v -0.155936 0.444220 0.313332
v -0.187715 0.304362 0.635086
v 0.747447 0.299487 0.385034
v 0.627575 0.463906 0.154121
v -0.001997 0.651955 -0.233299
v -0.121850 0.688789 0.171657
v 0.353656 0.650358 0.127934
v 0.306380 0.653473 -0.096531
v 0.169263 0.294571 -0.644198
v 0.102787 0.535731 -0.437172
v 0.600717 0.500015 -0.154615
v 0.734505 0.294838 -0.208397
v -0.718602 0.292527 -0.406890
v -0.753649 0.297668 0.286607
v -0.645677 0.475249 0.072976
v -0.607980 0.522564 -0.308529
v -0.270512 0.534379 0.106986
v -0.240714 0.536969 -0.145535
vt 0.561255 0.789062
vt 0.561255 0.789062
vt 0.561255 0.789062
vt 0.561254 0.789062
vt 0.561255 0.789062
vt 0.561255 0.789062
vt 0.561255 0.789062
vt 0.561255 0.789062
vt 0.561255 0.789062
vt 0.561255 0.789062
vt 0.561254 0.789062
vt 0.561255 0.789062
vt 0.561255 0.789062
vt 0.561255 0.789062
vt 0.561255 0.789062
vt 0.561255 0.789062
vt 0.561255 0.789062
vt 0.561255 0.789062
vt 0.561255 0.789062
vt 0.561255 0.789062
vt 0.561255 0.789062
vt 0.561255 0.789062
vt 0.443692 0.326552
vt 0.443692 0.326552
vt 0.443692 0.326552
vt 0.443692 0.326552
vt 0.443692 0.326552
vt 0.443692 0.326552
vt 0.443692 0.326552
vt 0.443692 0.326552
vt 0.443692 0.326552
vt 0.443692 0.326552
vt 0.443692 0.326552
vt 0.443692 0.326552
vt 0.443692 0.326552
vt 0.443692 0.326552
vt 0.443692 0.326552
vt 0.443692 0.326552
vt 0.443692 0.326552
vt 0.443692 0.326552
vt 0.443692 0.326552
vt 0.443692 0.326552
vt 0.443692 0.326552
vt 0.443692 0.326552
vt 0.443692 0.326552
vt 0.443692 0.326552
vt 0.443692 0.326552
vt 0.443692 0.326552
vt 0.443692 0.326552
vt 0.443692 0.326552
vt 0.443692 0.326552
vt 0.443692 0.326552
vt 0.561255 0.789062
vt 0.561255 0.789062
vn 0.103630 0.878179 0.466972
vn 0.103630 0.878178 0.466972
vn 0.103630 0.878179 0.466972
vn 0.103630 0.878179 0.466972
vn 0.052595 0.997492 -0.047373
vn 0.052595 0.997492 -0.047373
vn 0.052595 0.997492 -0.047373
vn 0.052595 0.997492 -0.047373
vn 0.464348 0.592825 -0.657982
vn 0.464348 0.592824 -0.657982
vn 0.464348 0.592824 -0.657982
vn 0.464348 0.592824 -0.657982
vn 0.828160 0.560234 -0.016999
vn 0.828160 0.560234 -0.016999
vn 0.828160 0.560234 -0.016999
vn 0.828160 0.560234 -0.016999
vn -0.885377 0.462996 -0.041748
vn -0.885377 0.462996 -0.041748
vn -0.885377 0.462996 -0.041748
vn -0.885377 0.462996 -0.041748
vn -0.569356 0.804009 -0.171471
vn -0.569356 0.804009 -0.171471
vn -0.569356 0.804009 -0.171471
vn -0.569357 0.804009 -0.171471
vn -0.231532 0.862113 0.450726
vn -0.231532 0.862113 0.450726
vn -0.231532 0.862113 0.450726
vn -0.231532 0.862113 0.450726
vn -0.191829 0.546365 -0.815283
vn -0.191829 0.546365 -0.815283
vn -0.191829 0.546365 -0.815283
vn -0.191829 0.546365 -0.815283
vn 0.149897 0.430116 0.890242
vn 0.149897 0.430116 0.890242
vn 0.149897 0.430116 0.890242
vn 0.149897 0.430116 0.890242
vn 0.512980 0.858361 -0.008177
vn 0.512981 0.858361 -0.008177
vn 0.512981 0.858361 -0.008177
vn 0.512981 0.858361 -0.008177
vn 0.273066 0.847058 -0.455990
vn 0.273066 0.847058 -0.455990
vn 0.273066 0.847058 -0.455990
vn 0.273066 0.847058 -0.455990
vn -0.696467 0.429902 0.574559
vn -0.696467 0.429902 0.574559
vn -0.696467 0.429902 0.574559
vn -0.514645 0.603812 -0.608730
vn -0.514645 0.603812 -0.608730
vn -0.514645 0.603812 -0.608730
vn -0.115601 0.991120 0.065705
vn -0.115601 0.991120 0.065705
vn -0.115601 0.991120 0.065705
vn -0.115601 0.991120 0.065705
vn -0.495618 -0.080007 0.864848
vn -0.495618 -0.080007 0.864848
vn -0.495618 -0.080007 0.864848
vn -0.495618 -0.080007 0.864848
vn -0.247813 -0.155439 -0.956257
vn -0.247813 -0.155439 -0.956257
vn -0.247813 -0.155439 -0.956257
vn -0.247813 -0.155439 -0.956257
vn -0.949562 -0.313232 -0.014770
vn -0.949562 -0.313232 -0.014770
vn -0.949562 -0.313233 -0.014770
vn -0.949562 -0.313232 -0.014770
vn 0.998453 -0.023641 -0.050320
vn 0.998453 -0.023641 -0.050320
vn 0.998453 -0.023641 -0.050320
vn 0.998453 -0.023641 -0.050320
vn 0.261047 -0.085673 0.961517
vn 0.261047 -0.085673 0.961517
vn 0.261047 -0.085673 0.961517
vn 0.261047 -0.085673 0.961517
vn 0.573953 0.131946 -0.808188
vn 0.573953 0.131946 -0.808188
vn 0.573953 0.131946 -0.808188
vn 0.573953 0.131946 -0.808188
vn 0.000000 -1.000000 0.000000
vn 0.000000 -1.000000 0.000000
vn 0.000000 -1.000000 0.000000
vn 0.000000 -1.000000 0.000000
vn 0.000000 -1.000000 0.000000
vn 0.000000 -1.000000 0.000000
vn -0.231309 -0.866014 0.443302
vn -0.231309 -0.866014 0.443302
vn -0.231309 -0.866014 0.443302
vn -0.231309 -0.866014 0.443302
vn -0.459396 -0.888193 0.008326
vn -0.459396 -0.888193 0.008326
vn -0.459396 -0.888193 0.008326
vn -0.459396 -0.888193 0.008326
vn -0.137214 -0.832880 -0.536175
vn -0.137214 -0.832880 -0.536175
vn -0.137214 -0.832880 -0.536175
vn -0.137214 -0.832880 -0.536175
vn 0.278102 -0.857194 -0.433449
vn 0.278102 -0.857194 -0.433449
vn 0.278102 -0.857194 -0.433449
vn 0.278102 -0.857194 -0.433449
vn 0.467926 -0.883223 -0.031032
vn 0.467926 -0.883223 -0.031032
vn 0.467926 -0.883223 -0.031032
vn 0.467926 -0.883223 -0.031032
vn 0.151385 -0.826589 0.542064
vn 0.151385 -0.826589 0.542064
vn 0.151385 -0.826589 0.542064
vn 0.151385 -0.826589 0.542064
vn -0.024499 0.999152 -0.033097
vn -0.024499 0.999152 -0.033097
vn -0.024499 0.999152 -0.033097
vn -0.178862 0.861268 0.475632
vn -0.178862 0.861268 0.475632
vn -0.178862 0.861268 0.475632
vn 0.253565 -0.149197 0.955743
vn 0.253565 -0.149197 0.955743
vn 0.253565 -0.149197 0.955743
vn 0.253565 -0.149197 0.955743
vn 0.586491 -0.277788 -0.760830
vn 0.586491 -0.277788 -0.760830
vn 0.586491 -0.277788 -0.760830
vn 0.586491 -0.277788 -0.760830
vn 0.973491 -0.227282 -0.025648
vn 0.973491 -0.227282 -0.025648
vn 0.973491 -0.227282 -0.025648
vn 0.973491 -0.227282 -0.025648
vn -0.971733 -0.231037 -0.048556
vn -0.971733 -0.231037 -0.048556
vn -0.971733 -0.231037 -0.048556
vn -0.971733 -0.231037 -0.048556
vn -0.516336 -0.175378 0.838236
vn -0.516336 -0.175378 0.838236
vn -0.516336 -0.175378 0.838236
vn -0.516336 -0.175378 0.838236
vn -0.246851 -0.261217 -0.933183
vn -0.246851 -0.261217 -0.933183
vn -0.246851 -0.261217 -0.933183
vn -0.246851 -0.261217 -0.933183
s off
f 19/1/1 20/2/2 21/3/3 22/4/4
f 23/5/5 24/6/6 25/7/7 26/8/8
f 27/9/9 28/10/10 29/11/11 30/12/12
f 21/3/13 30/12/14 29/11/15 22/4/16
f 31/13/17 32/14/18 33/15/19 34/16/20
f 35/17/21 24/6/22 23/5/23 36/18/24
f 32/14/25 20/2/26 19/1/27 33/15/28
f 34/16/29 28/10/30 27/9/31 31/13/32
f 19/1/33 22/4/34 25/7/35 24/6/36
f 22/4/37 29/11/38 26/8/39 25/7/40
f 29/11/41 28/10/42 23/5/43 26/8/44
f 35/17/45 19/1/46 24/6/47
f 28/10/48 36/18/49 23/5/50
f 34/16/51 33/15/52 35/17/53 36/18/54
f 5/23/55 1/24/56 7/25/57 8/26/58
f 3/27/59 6/28/60 10/29/61 9/30/62
f 1/31/63 3/32/64 9/33/65 7/34/66
f 4/35/67 2/36/68 12/37/69 11/38/70
f 2/39/71 5/40/72 8/41/73 12/42/74
f 6/43/75 4/44/76 11/45/77 10/46/78
f 14/47/79 13/48/80 15/49/81 16/50/82 17/51/83 18/52/84
f 8/26/85 7/34/86 13/48/87 14/47/88
f 7/34/89 9/30/90 15/49/91 13/48/92
f 9/30/93 10/46/94 16/50/95 15/49/96
f 10/46/97 11/38/98 17/51/99 16/50/100
f 11/38/101 12/42/102 18/52/103 17/51/104
f 12/42/105 8/26/106 14/47/107 18/52/108
f 28/10/109 34/16/110 36/18/111
f 33/15/112 19/1/113 35/17/114
f 5/19/115 2/20/116 21/3/117 20/2/118
f 4/21/119 6/22/120 27/9/121 30/12/122
f 2/20/123 4/21/124 30/12/125 21/3/126
f 3/53/127 1/54/128 32/14/129 31/13/130
f 1/54/131 5/19/132 20/2/133 32/14/134
f 6/22/135 3/53/136 31/13/137 27/9/138
