# This file uses centimeters as units for non-parametric coordinates.

v 0.395591 0.462042 0.234201
v 0.301207 0.432446 -0.179709
v -0.462502 0.462042 0.121231
v -0.218800 0.444865 0.361550
v 0.262675 0.517572 -0.472388
v -0.131290 0.462042 -0.452443
v 0.245596 0.485831 0.442807
v 0.516822 0.517572 -0.141177
v -0.371609 0.485831 -0.361550
v 0.516822 0.517572 0.141177
v -0.010058 0.557718 -0.570292
v -0.151237 0.517572 0.526881
v 0.580351 0.660863 0.000000
v 0.501250 0.660863 -0.295205
v -0.503945 0.557718 -0.285146
v -0.503945 0.557718 0.285146
v -0.162868 0.660863 0.570292
v 0.142751 0.660863 0.570292
v 0.275087 0.781574 -0.493887
v -0.295204 0.781574 -0.493887
v -0.580351 0.660863 -0.152809
v 0.540801 0.781574 0.147602
v -0.010058 0.781574 -0.570292
v -0.560918 0.781574 0.147602
v -0.295204 0.781574 0.493887
v 0.393198 0.781574 0.403257
v 0.028473 0.405814 -0.066739
v -0.012723 -0.301305 0.039701
v -0.023101 -0.301305 -0.007661
v -0.010343 0.501205 0.061165
v -0.020720 0.500874 0.013803
v -0.057646 0.503714 0.071512
v -0.068024 0.503383 0.024150
v -0.060027 -0.301305 0.050049
v -0.070404 -0.301305 0.002687
v -0.017055 0.150074 0.105369
v -0.027432 0.149743 0.058006
v -0.074736 0.152252 0.068354
v -0.064358 0.152583 0.115716
v 0.086684 -0.301305 -0.005660
v 0.088101 -0.301305 -0.042304
v 0.208132 0.483043 -0.091156
v 0.209549 0.477677 -0.127800
v 0.171705 0.489461 -0.093504
v 0.173122 0.484095 -0.130148
v 0.050258 -0.301305 -0.008009
v 0.051675 -0.301305 -0.044653
v 0.195380 0.015890 -0.075171
v 0.196797 0.010525 -0.111814
v 0.160371 0.016942 -0.114163
v 0.158954 0.022308 -0.077518
v -0.097599 -0.301305 0.027843
v -0.072978 -0.301305 0.054746
v -0.268784 0.488605 -0.035598
v -0.244162 0.495214 -0.008697
v -0.241589 0.489692 -0.060755
v -0.216967 0.496300 -0.033854
v -0.070404 -0.301305 0.002687
v -0.045783 -0.301305 0.029589
v -0.275879 0.210426 -0.027878
v -0.251257 0.217034 -0.000977
v -0.224062 0.218120 -0.026134
v -0.248684 0.211512 -0.053035
v 0.148718 0.725609 0.595990
v -0.164588 0.727347 0.596562
v 0.127766 0.969186 0.517380
v 0.524578 0.727830 -0.305540
v 0.606986 0.725330 -0.004168
v 0.506286 0.969563 -0.140471
v 0.209766 1.077222 -0.377291
v 0.288123 0.853071 -0.512045
v -0.010977 1.077728 -0.436145
v -0.010058 0.853459 -0.593090
v -0.309429 0.847803 -0.513807
v -0.605220 0.722952 -0.161981
v -0.474015 0.968851 -0.267687
v -0.584652 0.847889 0.154653
v -0.543939 0.971420 -0.000121
v -0.306960 0.850228 0.514306
v -0.318954 1.077646 0.308057
v 0.409836 0.849091 0.421564
v 0.564760 0.849742 0.153172
v 0.336021 1.027199 0.345387
v 0.425395 1.078328 0.000082
v -0.317363 1.078840 -0.307602
v -0.011051 1.078192 0.435592
v 0.069519 1.214168 -0.138451
v -0.164872 1.214029 0.041319
v 0.193422 1.192017 0.118412
vt 0.919611 0.566373
vt 0.919611 0.566373
vt 0.919611 0.566373
vt 0.919611 0.566373
vt 0.919611 0.566373
vt 0.919611 0.566373
vt 0.919611 0.566373
vt 0.919611 0.566373
vt 0.919611 0.566373
vt 0.919611 0.566373
vt 0.919611 0.566373
vt 0.919611 0.566373
vt 0.919611 0.566373
vt 0.919611 0.566373
vt 0.919611 0.566373
vt 0.919611 0.566373
vt 0.919611 0.566373
vt 0.919611 0.566373
vt 0.919611 0.566373
vt 0.919611 0.566373
vt 0.919611 0.566373
vt 0.919611 0.566373
vt 0.919611 0.566373
vt 0.919611 0.566373
vt 0.919611 0.566373
vt 0.919611 0.566373
vt 0.561382 0.789392
vt 0.919611 0.566373
vt 0.919611 0.566373
vt 0.919611 0.566373
vt 0.561382 0.789392
vt 0.919611 0.566373
vt 0.561382 0.789392
vt 0.561382 0.789392
vt 0.561382 0.789392
vt 0.561382 0.789392
vt 0.561382 0.789392
vt 0.561382 0.789392
vt 0.561382 0.789392
vt 0.561381 0.789392
vt 0.561382 0.789392
vt 0.561382 0.789392
vt 0.561382 0.789392
vt 0.561382 0.789392
vt 0.561382 0.789392
vt 0.561382 0.789392
vt 0.561382 0.789392
vt 0.919611 0.566373
vt 0.919611 0.566373
vt 0.919611 0.566373
vt 0.561382 0.789392
vt 0.989244 0.412587
vt 0.989244 0.412587
vt 0.989244 0.412587
vt 0.989244 0.412587
vt 0.989244 0.412587
vt 0.989244 0.412587
vt 0.989244 0.412587
vt 0.989244 0.412587
vt 0.989244 0.412587
vt 0.989244 0.412587
vt 0.989244 0.412587
vt 0.989244 0.412587
vt 0.989244 0.412587
vt 0.989244 0.412587
vt 0.989244 0.412587
vt 0.989244 0.412587
vt 0.989244 0.412587
vt 0.989244 0.412587
vt 0.989244 0.412587
vt 0.989244 0.412587
vt 0.989244 0.412587
vt 0.989244 0.412587
vt 0.989244 0.412587
vt 0.989244 0.412587
vt 0.989244 0.412587
vt 0.989244 0.412587
vt 0.989244 0.412587
vt 0.989244 0.412587
vt 0.989244 0.412587
vt 0.989244 0.412587
vt 0.989244 0.412587
vt 0.989244 0.412587
vt 0.989244 0.412587
vt 0.989244 0.412587
vt 0.989244 0.412587
vt 0.989244 0.412587
vt 0.989244 0.412587
vt 0.989244 0.412587
vt 0.989244 0.412587
vt 0.989244 0.412587
vt 0.989244 0.412587
vt 0.989244 0.412587
vt 0.989244 0.412587
vt 0.989244 0.412587
vt 0.989244 0.412587
vt 0.989244 0.412587
vt 0.989244 0.412587
vt 0.989244 0.412587
vt 0.989244 0.412587
vt 0.989244 0.412587
vt 0.989244 0.412587
vt 0.989244 0.412587
vt 0.989244 0.412587
vt 0.989244 0.412587
vt 0.561382 0.789392
vt 0.561382 0.789392
vt 0.561382 0.789392
vt 0.561382 0.789392
vt 0.561382 0.789392
vt 0.561382 0.789392
vt 0.561382 0.789392
vt 0.561382 0.789392
vt 0.561382 0.789392
vt 0.561382 0.789392
vt 0.561382 0.789392
vt 0.561382 0.789392
vt 0.561382 0.789392
vt 0.561381 0.789392
vt 0.561382 0.789392
vt 0.561382 0.789392
vt 0.561382 0.789392
vt 0.561382 0.789392
vt 0.561382 0.789392
vt 0.561382 0.789392
vn 0.037154 -0.989516 0.139559
vn 0.037154 -0.989516 0.139559
vn 0.037154 -0.989516 0.139559
vn 0.115391 -0.992317 0.044641
vn 0.115391 -0.992317 0.044641
vn 0.115391 -0.992317 0.044641
vn 0.031398 -0.987114 -0.156908
vn 0.031398 -0.987114 -0.156908
vn 0.031398 -0.987114 -0.156908
vn -0.144948 -0.985894 -0.083686
vn -0.144948 -0.985894 -0.083686
vn -0.144948 -0.985894 -0.083686
vn -0.101626 -0.994308 0.031988
vn -0.101626 -0.994308 0.031988
vn -0.101626 -0.994308 0.031988
vn 0.064953 -0.989679 0.127739
vn 0.064953 -0.989679 0.127739
vn 0.064953 -0.989679 0.127739
vn 0.119006 -0.949075 -0.291708
vn 0.119006 -0.949075 -0.291708
vn 0.119006 -0.949075 -0.291708
vn 0.396357 -0.866259 -0.304134
vn 0.396357 -0.866259 -0.304134
vn 0.396357 -0.866259 -0.304134
vn -0.125313 -0.989476 -0.072349
vn -0.125313 -0.989476 -0.072349
vn -0.125313 -0.989476 -0.072349
vn 0.369936 -0.928884 -0.017938
vn 0.369936 -0.928884 -0.017938
vn 0.369936 -0.928884 -0.017938
vn 0.085836 -0.814870 -0.573253
vn 0.085836 -0.814870 -0.573253
vn 0.085836 -0.814870 -0.573253
vn -0.346541 -0.521390 -0.779783
vn -0.346541 -0.521390 -0.779783
vn -0.346541 -0.521390 -0.779783
vn -0.534427 -0.833256 -0.141675
vn -0.534427 -0.833256 -0.141675
vn -0.534427 -0.833256 -0.141675
vn -0.426152 -0.824062 0.373250
vn -0.426152 -0.824062 0.373250
vn -0.426152 -0.824062 0.373250
vn 0.011127 -0.917004 0.398722
vn 0.011127 -0.917004 0.398722
vn 0.011127 -0.917004 0.398722
vn 0.654328 -0.537632 0.531796
vn 0.654328 -0.537632 0.531796
vn 0.654328 -0.537632 0.531796
vn 0.416445 -0.909161 0.000000
vn 0.416445 -0.909161 0.000000
vn 0.416445 -0.909161 0.000000
vn -0.431223 -0.747663 0.505021
vn -0.431223 -0.747663 0.505021
vn -0.431223 -0.747663 0.505021
vn 0.914180 -0.405310 0.000000
vn 0.914180 -0.405310 0.000000
vn 0.914180 -0.405310 0.000000
vn 0.689792 -0.493998 -0.529295
vn 0.689792 -0.493998 -0.529295
vn 0.689792 -0.493998 -0.529295
vn -0.830114 -0.555679 -0.046168
vn -0.830114 -0.555679 -0.046168
vn -0.830114 -0.555679 -0.046168
vn -0.564112 -0.281006 0.776411
vn -0.564112 -0.281006 0.776411
vn -0.564112 -0.281006 0.776411
vn 0.134904 -0.530347 0.836978
vn 0.134904 -0.530347 0.836978
vn 0.134904 -0.530347 0.836978
vn 0.745343 -0.083795 0.661395
vn 0.745343 -0.083795 0.661395
vn 0.745343 -0.083795 0.661395
vn 0.939975 -0.093365 0.328221
vn 0.939975 -0.093365 0.328221
vn 0.939975 -0.093365 0.328221
vn 0.951748 -0.170704 -0.255022
vn 0.951748 -0.170704 -0.255022
vn 0.951748 -0.170704 -0.255022
vn 0.628862 -0.092433 -0.772003
vn 0.628862 -0.092433 -0.772003
vn 0.628862 -0.092433 -0.772003
vn 0.324418 -0.091917 -0.941437
vn 0.324418 -0.091917 -0.941437
vn 0.324418 -0.091917 -0.941437
vn -0.440822 -0.269264 -0.856255
vn -0.440822 -0.269264 -0.856255
vn -0.440822 -0.269264 -0.856255
vn -0.571274 -0.207722 -0.794039
vn -0.571274 -0.207722 -0.794039
vn -0.571274 -0.207722 -0.794039
vn -0.885708 -0.461986 0.045716
vn -0.885708 -0.461986 0.045716
vn -0.885708 -0.461986 0.045716
vn 0.000000 -0.289940 0.957045
vn 0.000000 -0.289940 0.957045
vn 0.000000 -0.289940 0.957045
vn 0.258819 0.000000 -0.965926
vn 0.258819 0.000000 -0.965926
vn 0.258819 0.000000 -0.965926
vn -0.258819 0.000000 -0.965926
vn -0.258819 0.000000 -0.965926
vn -0.258819 0.000000 -0.965926
vn -0.785073 0.179177 -0.592921
vn -0.785073 0.179177 -0.592921
vn -0.785073 0.179177 -0.592921
vn -0.977021 -0.168277 0.130819
vn -0.977021 -0.168277 0.130819
vn -0.977021 -0.168277 0.130819
vn -0.781856 0.169633 0.599939
vn -0.781856 0.169633 0.599939
vn -0.781856 0.169633 0.599939
vn -0.602391 -0.166262 0.780693
vn -0.602391 -0.166262 0.780693
vn -0.602391 -0.166262 0.780693
vn 0.003442 0.307401 0.951574
vn 0.003442 0.307401 0.951574
vn 0.003442 0.307401 0.951574
vn 0.608789 -0.201216 0.767390
vn 0.608789 -0.201216 0.767390
vn 0.608789 -0.201216 0.767390
vn 0.813434 -0.343171 0.469637
vn 0.813434 -0.343171 0.469637
vn 0.813434 -0.343171 0.469637
vn 0.935901 0.244192 -0.253889
vn 0.935901 0.244192 -0.253889
vn 0.935901 0.244192 -0.253889
vn 0.649864 0.461535 -0.603872
vn 0.649864 0.461535 -0.603872
vn 0.649864 0.461535 -0.603872
vn 0.699108 0.531753 -0.478003
vn 0.699108 0.531754 -0.478003
vn 0.699108 0.531754 -0.478003
vn 0.215095 0.557311 -0.801959
vn 0.215095 0.557311 -0.801959
vn 0.215095 0.557311 -0.801959
vn 0.217948 0.560173 -0.799190
vn 0.217948 0.560173 -0.799190
vn 0.217948 0.560173 -0.799190
vn -0.222217 0.558411 -0.799248
vn -0.222217 0.558411 -0.799248
vn -0.222217 0.558411 -0.799248
vn -0.782763 0.159020 -0.601660
vn -0.782763 0.159020 -0.601660
vn -0.782763 0.159020 -0.601660
vn -0.963354 0.264930 -0.041959
vn -0.963354 0.264930 -0.041959
vn -0.963354 0.264930 -0.041959
vn -0.706391 0.454704 0.542454
vn -0.706391 0.454704 0.542454
vn -0.706391 0.454704 0.542454
vn -0.128030 0.444978 0.886343
vn -0.128030 0.444978 0.886343
vn -0.128030 0.444978 0.886343
vn 0.421765 0.311136 0.851651
vn 0.421765 0.311136 0.851651
vn 0.421765 0.311136 0.851651
vn 0.931011 0.363085 -0.037240
vn 0.931011 0.363085 -0.037240
vn 0.931011 0.363085 -0.037240
vn -0.895720 0.375753 -0.237688
vn -0.895720 0.375753 -0.237688
vn -0.895720 0.375753 -0.237688
vn 0.462344 0.503717 0.729731
vn 0.462344 0.503717 0.729731
vn 0.462344 0.503717 0.729731
vn 0.750947 0.497129 0.434674
vn 0.750947 0.497129 0.434674
vn 0.750947 0.497129 0.434674
vn 0.531130 0.790182 -0.305801
vn 0.531130 0.790182 -0.305801
vn 0.531129 0.790182 -0.305801
vn -0.298571 0.629776 -0.717103
vn -0.298571 0.629776 -0.717103
vn -0.298571 0.629776 -0.717103
vn -0.545942 0.547374 -0.634294
vn -0.545942 0.547374 -0.634294
vn -0.545942 0.547374 -0.634295
vn -0.594417 0.787484 -0.162902
vn -0.594417 0.787484 -0.162902
vn -0.594417 0.787484 -0.162902
vn -0.717871 0.623815 0.309057
vn -0.717871 0.623815 0.309057
vn -0.717871 0.623815 0.309057
vn -0.297280 0.632768 0.715003
vn -0.297280 0.632768 0.715003
vn -0.297280 0.632768 0.715003
vn -0.136722 0.477215 0.868086
vn -0.136723 0.477215 0.868086
vn -0.136722 0.477215 0.868086
vn 0.263916 0.770974 0.579610
vn 0.263916 0.770974 0.579610
vn 0.263916 0.770974 0.579610
vn 0.724387 0.629650 0.280722
vn 0.724387 0.629650 0.280722
vn 0.724387 0.629650 0.280722
vn 0.834999 0.547287 0.057043
vn 0.834999 0.547286 0.057043
vn 0.834999 0.547286 0.057043
vn 0.428023 0.869326 -0.247120
vn 0.428023 0.869326 -0.247120
vn 0.428023 0.869326 -0.247120
vn 0.119397 0.889942 -0.440167
vn 0.119397 0.889942 -0.440167
vn 0.119397 0.889942 -0.440167
vn -0.154746 0.913300 -0.376744
vn -0.154746 0.913300 -0.376744
vn -0.154746 0.913300 -0.376744
vn -0.529185 0.843127 -0.095395
vn -0.529185 0.843127 -0.095395
vn -0.529185 0.843127 -0.095395
vn -0.544307 0.831544 0.110744
vn -0.544307 0.831544 0.110744
vn -0.544307 0.831544 0.110744
vn -0.157360 0.913161 0.375998
vn -0.157360 0.913161 0.375998
vn -0.157360 0.913161 0.375998
vn 0.391560 0.913542 -0.110095
vn 0.391561 0.913542 -0.110095
vn 0.391561 0.913542 -0.110095
vn -0.013079 0.943798 0.330264
vn -0.013079 0.943798 0.330264
vn -0.013079 0.943798 0.330264
vn 0.245606 0.851214 0.463803
vn 0.245606 0.851214 0.463803
vn 0.245606 0.851214 0.463803
vn 0.527702 0.809781 0.256487
vn 0.527702 0.809781 0.256487
vn 0.527702 0.809781 0.256487
vn -0.209431 0.939133 -0.272337
vn -0.209431 0.939133 -0.272337
vn -0.209431 0.939133 -0.272337
vn 0.047697 0.996876 0.062961
vn 0.047697 0.996876 0.062961
vn 0.047697 0.996876 0.062961
vn 0.975879 -0.045533 -0.213513
vn 0.975879 -0.045533 -0.213513
vn 0.975879 -0.045533 -0.213513
vn 0.975879 -0.045533 -0.213513
vn -0.975879 0.045533 0.213513
vn -0.975879 0.045533 0.213513
vn -0.975879 0.045533 0.213513
vn -0.975879 0.045533 0.213513
vn -0.218163 -0.117789 -0.968778
vn -0.218163 -0.117789 -0.968778
vn -0.218163 -0.117789 -0.968778
vn -0.218163 -0.117789 -0.968778
vn 0.218163 0.117789 0.968778
vn 0.218163 0.117789 0.968778
vn 0.218163 0.117789 0.968778
vn 0.218163 0.117789 0.968778
vn 0.975994 0.040514 -0.213998
vn 0.975994 0.040514 -0.213998
vn 0.975994 0.040514 -0.213998
vn 0.975994 0.040514 -0.213998
vn -0.208122 0.138579 -0.968236
vn -0.208122 0.138579 -0.968236
vn -0.208122 0.138579 -0.968236
vn -0.208122 0.138579 -0.968236
vn -0.976005 -0.040287 0.213990
vn -0.976005 -0.040287 0.213990
vn -0.976005 -0.040287 0.213990
vn -0.976005 -0.040287 0.213990
vn 0.208126 -0.138480 0.968249
vn 0.208126 -0.138480 0.968249
vn 0.208126 -0.138480 0.968249
vn 0.208126 -0.138480 0.968249
vn 0.998767 -0.025812 0.042406
vn 0.998767 -0.025812 0.042406
vn 0.998767 -0.025812 0.042406
vn 0.998767 -0.025812 0.042406
vn -0.998767 0.025812 -0.042405
vn -0.998767 0.025812 -0.042405
vn -0.998767 0.025812 -0.042405
vn -0.998767 0.025812 -0.042405
vn 0.058027 -0.035722 -0.997676
vn 0.058027 -0.035722 -0.997676
vn 0.058027 -0.035722 -0.997676
vn 0.058027 -0.035722 -0.997676
vn -0.058014 0.035723 0.997676
vn -0.058014 0.035723 0.997676
vn -0.058014 0.035723 0.997676
vn -0.058014 0.035723 0.997676
vn 0.947461 -0.314260 0.059651
vn 0.947461 -0.314260 0.059651
vn 0.947461 -0.314260 0.059651
vn 0.947461 -0.314260 0.059651
vn 0.042514 -0.229229 -0.972444
vn 0.042514 -0.229229 -0.972444
vn 0.042514 -0.229229 -0.972444
vn 0.042514 -0.229229 -0.972444
vn -0.949316 0.308678 -0.059313
vn -0.949316 0.308678 -0.059313
vn -0.949316 0.308678 -0.059313
vn -0.949316 0.308678 -0.059313
vn -0.042866 0.225685 0.973257
vn -0.042866 0.225685 0.973257
vn -0.042866 0.225685 0.973257
vn -0.042866 0.225685 0.973257
vn -0.741718 0.037503 0.669662
vn -0.741718 0.037503 0.669662
vn -0.741718 0.037503 0.669662
vn -0.741718 0.037503 0.669662
vn 0.741719 -0.037503 -0.669662
vn 0.741718 -0.037503 -0.669662
vn 0.741719 -0.037503 -0.669662
vn 0.741718 -0.037503 -0.669662
vn 0.678997 0.003055 0.734135
vn 0.678997 0.003055 0.734135
vn 0.678997 0.003055 0.734135
vn 0.678997 0.003055 0.734135
vn -0.678997 -0.003055 -0.734135
vn -0.678997 -0.003055 -0.734135
vn -0.678997 -0.003055 -0.734135
vn -0.678997 -0.003055 -0.734135
vn -0.715588 -0.174524 0.676369
vn -0.715588 -0.174524 0.676369
vn -0.715588 -0.174524 0.676369
vn -0.715588 -0.174524 0.676369
vn 0.645165 0.297253 0.703848
vn 0.645165 0.297253 0.703848
vn 0.645165 0.297253 0.703848
vn 0.645165 0.297253 0.703848
vn 0.715655 0.174178 -0.676387
vn 0.715655 0.174178 -0.676387
vn 0.715655 0.174178 -0.676387
vn 0.715655 0.174178 -0.676387
vn -0.644387 -0.300733 -0.703082
vn -0.644387 -0.300733 -0.703082
vn -0.644387 -0.300733 -0.703082
vn -0.644387 -0.300733 -0.703082
vn -0.000174 -0.368191 0.929750
vn -0.000174 -0.368191 0.929750
vn -0.000174 -0.368191 0.929750
vn -0.000174 -0.368191 0.929750
vn 0.897127 -0.368000 -0.244417
vn 0.897127 -0.368000 -0.244417
vn 0.897127 -0.368000 -0.244417
vn 0.897127 -0.368000 -0.244417
vn 0.531937 -0.302455 -0.790926
vn 0.531937 -0.302455 -0.790927
vn 0.531937 -0.302455 -0.790926
vn 0.531937 -0.302455 -0.790926
vn 0.249459 -0.286880 -0.924916
vn 0.249459 -0.286880 -0.924916
vn 0.249459 -0.286880 -0.924916
vn 0.249459 -0.286880 -0.924916
vn -0.241956 -0.309370 -0.919645
vn -0.241956 -0.309370 -0.919645
vn -0.241956 -0.309370 -0.919646
vn -0.241956 -0.309370 -0.919645
vn -0.652552 -0.351056 -0.671518
vn -0.652552 -0.351056 -0.671518
vn -0.652552 -0.351055 -0.671518
vn -0.652552 -0.351055 -0.671518
vn -0.918067 -0.344259 0.196567
vn -0.918067 -0.344259 0.196567
vn -0.918067 -0.344259 0.196567
vn -0.918067 -0.344259 0.196567
vn -0.751434 -0.315530 0.579472
vn -0.751434 -0.315530 0.579472
vn -0.751434 -0.315530 0.579472
vn -0.751434 -0.315530 0.579472
vn -0.663505 -0.302578 0.684257
vn -0.663505 -0.302578 0.684257
vn -0.663505 -0.302578 0.684257
vn -0.663505 -0.302578 0.684257
vn 0.628973 -0.340093 0.699092
vn 0.628973 -0.340093 0.699092
vn 0.628973 -0.340093 0.699092
vn 0.628973 -0.340093 0.699092
vn 0.820250 -0.317917 0.475519
vn 0.820250 -0.317917 0.475519
vn 0.820250 -0.317917 0.475519
vn 0.820250 -0.317917 0.475519
vn 0.818340 -0.327910 0.472012
vn 0.818340 -0.327910 0.472012
vn 0.818340 -0.327910 0.472012
vn 0.818340 -0.327910 0.472012
s off
f 7/10/1 27/50/2 1/1/3
f 1/2/4 27/48/5 2/3/6
f 27/48/7 6/9/8 2/3/9
f 27/49/10 3/4/11 6/9/12
f 27/49/13 4/5/14 3/4/15
f 27/49/16 7/10/17 4/5/18
f 2/3/19 6/9/20 5/8/21
f 2/3/22 5/8/23 8/7/24
f 6/9/25 3/4/26 9/12/27
f 1/1/28 2/6/29 8/11/30
f 5/8/31 6/9/32 11/14/33
f 6/9/34 9/12/35 11/14/36
f 9/12/37 3/4/38 15/18/39
f 3/4/40 4/5/41 16/19/42
f 4/5/43 7/10/44 12/15/45
f 1/1/46 10/13/47 7/10/48
f 1/1/49 8/11/50 10/13/51
f 16/19/52 4/5/53 12/15/54
f 10/13/55 8/11/56 13/16/57
f 8/7/58 5/8/59 14/17/60
f 15/18/61 3/4/62 21/25/63
f 12/15/64 17/20/65 16/19/66
f 12/15/67 7/10/68 18/21/69
f 7/10/70 10/13/71 22/26/72
f 10/13/73 13/16/74 22/26/75
f 13/16/76 8/11/77 14/22/78
f 5/8/79 19/23/80 14/17/81
f 5/8/82 11/14/83 19/23/84
f 11/14/85 9/12/86 20/24/87
f 9/12/88 15/18/89 20/24/90
f 3/4/91 16/19/92 21/25/93
f 12/15/94 18/21/95 17/20/96
f 19/23/97 11/14/98 23/28/99
f 11/14/100 20/24/101 23/28/102
f 15/18/103 21/25/104 20/24/105
f 21/25/106 16/19/107 24/29/108
f 16/19/109 25/30/110 24/29/111
f 16/19/112 17/20/113 25/30/114
f 65/27/115 64/31/116 66/33/117
f 18/21/118 7/10/119 26/32/120
f 7/10/121 22/26/122 26/32/123
f 68/34/124 67/35/125 69/36/126
f 67/35/127 70/37/128 69/36/129
f 67/35/130 71/38/131 70/37/132
f 71/38/133 72/39/134 70/37/135
f 71/38/136 73/40/137 72/39/138
f 73/40/139 74/41/140 72/39/141
f 74/41/142 75/42/143 76/43/144
f 75/42/145 77/44/146 78/45/147
f 77/44/148 79/46/149 80/47/150
f 65/27/151 66/33/152 79/46/153
f 64/31/154 81/51/155 66/33/156
f 68/34/157 69/36/158 82/106/159
f 76/43/160 75/42/161 78/45/162
f 66/33/163 81/51/164 83/107/165
f 81/51/166 82/106/167 83/107/168
f 69/36/169 70/37/170 84/108/171
f 72/39/172 74/41/173 85/109/174
f 74/41/175 76/43/176 85/109/177
f 76/43/178 78/45/179 85/109/180
f 77/44/181 80/47/182 78/45/183
f 79/46/184 86/110/185 80/47/186
f 79/46/187 66/33/188 86/110/189
f 66/33/190 83/107/191 86/110/192
f 83/107/193 82/106/194 84/108/195
f 82/106/196 69/36/197 84/108/198
f 84/108/199 70/37/200 87/111/201
f 70/37/202 72/39/203 87/111/204
f 72/39/205 85/109/206 87/111/207
f 85/109/208 78/45/209 88/112/210
f 78/45/211 80/47/212 88/112/213
f 80/47/214 86/110/215 88/112/216
f 84/108/217 87/111/218 89/113/219
f 86/110/220 89/113/221 88/112/222
f 86/110/223 83/107/224 89/113/225
f 83/107/226 84/108/227 89/113/228
f 85/109/229 88/112/230 87/111/231
f 88/112/232 89/113/233 87/111/234
f 36/52/235 37/53/236 31/54/237 30/55/238
f 32/56/239 33/57/240 38/58/241 39/59/242
f 37/53/243 38/60/244 33/61/245 31/54/246
f 39/62/247 36/52/248 30/55/249 32/63/250
f 28/64/251 29/65/252 37/53/253 36/52/254
f 29/65/255 35/66/256 38/60/257 37/53/258
f 39/59/259 38/58/260 35/67/261 34/68/262
f 34/69/263 28/64/264 36/52/265 39/62/266
f 48/70/267 49/71/268 43/72/269 42/73/270
f 44/74/271 45/75/272 50/76/273 51/77/274
f 49/71/275 50/78/276 45/79/277 43/72/278
f 51/80/279 48/70/280 42/73/281 44/81/282
f 40/82/283 41/83/284 49/71/285 48/70/286
f 41/83/287 47/84/288 50/78/289 49/71/290
f 51/77/291 50/76/292 47/85/293 46/86/294
f 46/87/295 40/82/296 48/70/297 51/80/298
f 60/88/299 61/89/300 55/90/301 54/91/302
f 56/92/303 57/93/304 62/94/305 63/95/306
f 61/89/307 62/96/308 57/97/309 55/90/310
f 63/98/311 60/88/312 54/91/313 56/99/314
f 52/100/315 53/101/316 61/89/317 60/88/318
f 53/101/319 59/102/320 62/96/321 61/89/322
f 63/95/323 62/94/324 59/103/325 58/104/326
f 58/105/327 52/100/328 60/88/329 63/98/330
f 17/114/331 18/115/332 64/31/333 65/27/334
f 13/116/335 14/117/336 67/35/337 68/34/338
f 14/117/339 19/118/340 71/38/341 67/35/342
f 19/118/343 23/119/344 73/40/345 71/38/346
f 23/119/347 20/120/348 74/41/349 73/40/350
f 20/120/351 21/121/352 75/42/353 74/41/354
f 21/121/355 24/122/356 77/44/357 75/42/358
f 24/122/359 25/123/360 79/46/361 77/44/362
f 25/123/363 17/114/364 65/27/365 79/46/366
f 18/115/367 26/124/368 81/51/369 64/31/370
f 22/125/371 13/116/372 68/34/373 82/106/374
f 26/124/375 22/125/376 82/106/377 81/51/378
