# This file uses centimeters as units for non-parametric coordinates.

v -0.293240 0.000000 0.315315
v 0.308483 0.000000 0.193298
v -0.254234 0.157215 0.252701
v 0.251850 0.157215 0.171341
v -0.419487 0.157215 -0.227600
v 0.275948 0.157215 -0.313072
v -0.487953 0.000000 -0.248299
v 0.335293 0.000000 -0.345711
v -0.163898 0.157215 -0.494316
v -0.051342 0.157215 0.322136
v -0.061348 0.000000 0.389000
v -0.153072 0.000000 -0.561180
v -0.163898 0.199250 -0.494316
v -0.051342 0.199250 0.322136
v 0.251850 0.199250 0.171341
v 0.275948 0.199250 -0.313072
v -0.254234 0.199250 0.252701
v -0.419487 0.199250 -0.227600
vt 0.443692 0.326509
vt 0.443692 0.326509
vt 0.443692 0.326509
vt 0.443692 0.326509
vt 0.443692 0.326509
vt 0.443692 0.326509
vt 0.443692 0.326509
vt 0.443692 0.326509
vt 0.443692 0.326509
vt 0.443692 0.326509
vt 0.443692 0.326509
vt 0.443692 0.326509
vt 0.443692 0.326509
vt 0.443692 0.326509
vt 0.443692 0.326509
vt 0.443692 0.326509
vt 0.560514 0.786819
vt 0.560514 0.786819
vt 0.560514 0.786819
vt 0.560514 0.786819
vt 0.560514 0.786819
vt 0.560514 0.786819
vt 0.560514 0.786819
vt 0.560514 0.786819
vt 0.560514 0.786819
vt 0.560514 0.786819
vt 0.560514 0.786819
vt 0.560514 0.786819
vn 0.436080 0.303938 0.847027
vn 0.436080 0.303938 0.847028
vn 0.436080 0.303938 0.847027
vn 0.436080 0.303938 0.847027
vn 0.000000 1.000000 0.000000
vn 0.000000 1.000000 0.000000
vn 0.000000 1.000000 0.000000
vn 0.000000 1.000000 0.000000
vn 0.367534 0.354153 -0.859939
vn 0.367534 0.354153 -0.859939
vn 0.367534 0.354153 -0.859939
vn 0.367534 0.354153 -0.859939
vn 0.937704 0.344290 0.046643
vn 0.937704 0.344290 0.046643
vn 0.937704 0.344290 0.046643
vn 0.937704 0.344290 0.046643
vn -0.887613 0.344186 0.306070
vn -0.887613 0.344186 0.306070
vn -0.887613 0.344186 0.306070
vn -0.887613 0.344186 0.306070
vn 0.000000 1.000000 0.000000
vn 0.000000 1.000000 0.000000
vn 0.000000 1.000000 0.000000
vn 0.000000 1.000000 0.000000
vn -0.286205 0.402646 0.869462
vn -0.286205 0.402646 0.869462
vn -0.286205 0.402645 0.869462
vn -0.286205 0.402645 0.869462
vn -0.665783 0.310934 -0.678272
vn -0.665783 0.310934 -0.678272
vn -0.665783 0.310934 -0.678272
vn -0.665783 0.310934 -0.678272
vn 0.445320 0.000000 0.895372
vn 0.445320 0.000000 0.895372
vn 0.445320 0.000000 0.895372
vn 0.445320 0.000000 0.895372
vn 0.998765 0.000000 0.049684
vn 0.998765 0.000000 0.049684
vn 0.998765 0.000000 0.049684
vn 0.998765 0.000000 0.049684
vn 0.380985 0.000000 -0.924581
vn 0.380985 0.000000 -0.924581
vn 0.380985 0.000000 -0.924581
vn 0.380985 0.000000 -0.924581
vn -0.323790 0.000000 0.946129
vn -0.323790 0.000000 0.946129
vn -0.323790 0.000000 0.946129
vn -0.323790 0.000000 0.946129
vn -0.722008 0.000000 -0.691885
vn -0.722008 0.000000 -0.691885
vn -0.722008 0.000000 -0.691885
vn -0.722008 0.000000 -0.691885
vn -0.945596 0.000000 0.325343
vn -0.945596 0.000000 0.325343
vn -0.945596 0.000000 0.325343
vn -0.945596 0.000000 0.325343
s off
f 10/14/1 11/15/2 2/2/3 4/4/4
f 13/17/5 14/18/6 15/19/7 16/20/8
f 12/16/9 9/13/10 6/6/11 8/8/12
f 2/2/13 8/9/14 6/10/15 4/4/16
f 7/11/17 1/1/18 3/3/19 5/12/20
f 17/21/21 14/18/22 13/17/23 18/22/24
f 1/1/25 11/15/26 10/14/27 3/3/28
f 5/5/29 9/13/30 12/16/31 7/7/32
f 10/23/33 4/24/34 15/19/35 14/18/36
f 4/24/37 6/25/38 16/20/39 15/19/40
f 6/25/41 9/26/42 13/17/43 16/20/44
f 3/27/45 10/23/46 14/18/47 17/21/48
f 9/26/49 5/28/50 18/22/51 13/17/52
f 5/28/53 3/27/54 17/21/55 18/22/56
