# This file uses centimeters as units for non-parametric coordinates.

v 0.151217 0.104431 -0.109860
v 0.057760 0.104431 -0.177764
v -0.057755 0.104431 -0.177764
v -0.151215 0.104431 -0.109860
v -0.186912 0.104431 0.000010
v -0.151215 0.104431 0.109863
v -0.057755 0.104431 0.177764
v 0.057760 0.104431 0.177764
v 0.151217 0.104431 0.109863
v 0.186912 0.104431 0.000010
v 0.137934 0.152657 -0.100203
v 0.052693 0.152657 -0.162164
v -0.052688 0.152657 -0.162164
v -0.137932 0.152657 -0.100203
v -0.170495 0.152657 0.000000
v -0.137932 0.152657 0.100230
v -0.052688 0.152657 0.162159
v 0.052693 0.152657 0.162159
v 0.137934 0.152657 0.100230
v 0.170500 0.152657 0.000000
v 0.092564 0.000000 -0.067246
v 0.035358 0.000000 -0.108818
v 0.000002 0.000000 0.000000
v -0.035355 0.000000 -0.108818
v -0.092562 0.000000 -0.067246
v -0.114416 0.000000 0.000000
v -0.092562 0.000000 0.067253
v -0.035355 0.000000 0.108813
v 0.035358 0.000000 0.108813
v 0.092564 0.000000 0.067253
v 0.114416 0.000000 0.000000
v 0.111507 0.208223 -0.081004
v 0.042600 0.208223 -0.131095
v -0.042595 0.208223 -0.131095
v -0.111507 0.208223 -0.081004
v -0.137829 0.208223 0.000010
v -0.111507 0.208223 0.081026
v -0.042595 0.208223 0.131086
v 0.042600 0.208223 0.131086
v 0.111507 0.208223 0.081026
v 0.137834 0.208223 0.000010
v 0.092601 0.220506 -0.067290
v 0.035377 0.220506 -0.108869
v -0.035372 0.220506 -0.108869
v -0.092599 0.220506 -0.067290
v -0.114463 0.220506 0.000000
v -0.092599 0.220506 0.067282
v -0.035372 0.220506 0.108864
v 0.035377 0.220506 0.108864
v 0.092601 0.220506 0.067282
v 0.114467 0.220506 0.000000
v 0.092601 0.242516 -0.067290
v 0.035377 0.242516 -0.108869
v 0.011234 0.242516 -0.015456
v -0.035372 0.242516 -0.108869
v -0.011229 0.242516 -0.015456
v -0.092599 0.242516 -0.067290
v -0.114463 0.242516 0.000000
v -0.018169 0.242516 0.005904
v -0.092599 0.242516 0.067282
v -0.035372 0.242516 0.108864
v 0.000002 0.242516 0.019099
v 0.035377 0.242516 0.108864
v 0.092601 0.242516 0.067282
v 0.018175 0.242516 0.005904
v 0.114467 0.242516 0.000000
v -0.049461 0.043571 0.152235
v 0.049465 0.043571 0.152235
v 0.129498 0.043571 0.094084
v 0.160067 0.043571 0.000010
v 0.129498 0.043571 -0.094084
v 0.049465 0.043571 -0.152235
v -0.049461 0.043571 -0.152235
v -0.129495 0.043571 -0.094084
v -0.160067 0.043571 0.000010
v -0.129495 0.043571 0.094084
v 0.011234 0.256973 -0.015456
v -0.011229 0.256973 -0.015456
v -0.018169 0.256973 0.005904
v 0.000002 0.256973 0.019099
v 0.018175 0.256973 0.005904
v 0.019318 0.283331 -0.026588
v -0.019315 0.283331 -0.026588
v -0.031250 0.283331 0.010150
v 0.000001 0.283331 0.032854
v 0.031256 0.283331 0.010150
v 0.013088 0.303584 -0.018014
v -0.013083 0.303584 -0.018014
v -0.021167 0.303584 0.006875
v 0.000002 0.303584 0.022253
v 0.021174 0.303584 0.006875
v 0.000003 0.310937 -0.000005
vt 0.444689 0.424323
vt 0.444689 0.424323
vt 0.444689 0.424323
vt 0.444689 0.424323
vt 0.444689 0.424323
vt 0.444689 0.424323
vt 0.444689 0.424323
vt 0.444689 0.424323
vt 0.444689 0.424323
vt 0.444689 0.424323
vt 0.444689 0.424323
vt 0.444689 0.424323
vt 0.444689 0.424323
vt 0.444689 0.424323
vt 0.444689 0.424323
vt 0.444689 0.424323
vt 0.444689 0.424323
vt 0.444689 0.424323
vt 0.444689 0.424323
vt 0.444689 0.424323
vt 0.444689 0.424323
vt 0.444689 0.424323
vt 0.444689 0.424323
vt 0.444689 0.424323
vt 0.444689 0.424323
vt 0.444689 0.424323
vt 0.444689 0.424323
vt 0.444689 0.424323
vt 0.444689 0.424323
vt 0.444689 0.424323
vt 0.444689 0.424323
vt 0.444689 0.424323
vt 0.444689 0.424323
vt 0.444689 0.424323
vt 0.444689 0.424323
vt 0.444689 0.424323
vt 0.444689 0.424323
vt 0.444689 0.424323
vt 0.444689 0.424323
vt 0.444689 0.424323
vt 0.444689 0.424323
vt 0.444689 0.424323
vt 0.444689 0.424323
vt 0.444689 0.424323
vt 0.444689 0.424323
vt 0.444689 0.424323
vt 0.444689 0.424323
vt 0.444689 0.424323
vt 0.444689 0.424323
vt 0.444689 0.424323
vt 0.444689 0.424323
vt 0.444689 0.424323
vt 0.444689 0.424323
vt 0.444689 0.424323
vt 0.444689 0.424323
vt 0.444689 0.424323
vt 0.444689 0.424323
vt 0.444689 0.424323
vt 0.444689 0.424323
vt 0.444689 0.424323
vt 0.444689 0.424323
vt 0.444689 0.424323
vt 0.444689 0.424323
vt 0.444689 0.424323
vt 0.444689 0.424323
vt 0.444689 0.424323
vt 0.444689 0.424323
vt 0.444689 0.424323
vt 0.444689 0.424323
vt 0.444689 0.424323
vt 0.444689 0.424323
vt 0.444689 0.424323
vt 0.444689 0.424323
vt 0.444689 0.424323
vt 0.444689 0.424323
vt 0.444689 0.424323
vt 0.444689 0.424323
vt 0.444689 0.424323
vt 0.444689 0.424323
vt 0.444689 0.424323
vt 0.444689 0.424323
vt 0.444689 0.424323
vt 0.444689 0.424323
vt 0.444689 0.424323
vt 0.444689 0.424323
vt 0.444689 0.424323
vt 0.444689 0.424323
vt 0.444689 0.424323
vt 0.444689 0.424323
vt 0.444689 0.424323
vt 0.444689 0.424323
vt 0.444689 0.424323
vt 0.444689 0.424323
vt 0.444689 0.424323
vt 0.444689 0.424323
vt 0.444689 0.424323
vt 0.444689 0.424323
vt 0.444689 0.424323
vt 0.444689 0.424323
vt 0.444689 0.424323
vt 0.444689 0.424323
vt 0.444689 0.424323
vt 0.444689 0.424323
vt 0.444689 0.424323
vt 0.444689 0.424323
vt 0.444689 0.424323
vt 0.444689 0.424323
vt 0.444689 0.424323
vt 0.444689 0.424323
vt 0.444689 0.424323
vt 0.444689 0.424323
vt 0.444689 0.424323
vt 0.444689 0.424323
vt 0.444689 0.424323
vt 0.444689 0.424323
vt 0.444689 0.424323
vt 0.444689 0.424323
vt 0.444689 0.424323
vt 0.444689 0.424323
vt 0.444689 0.424323
vt 0.444689 0.424323
vt 0.444689 0.424323
vt 0.444689 0.424323
vt 0.444689 0.424323
vt 0.444689 0.424323
vt 0.444689 0.424323
vt 0.444689 0.424323
vt 0.444689 0.424323
vt 0.444689 0.424323
vt 0.444689 0.424323
vt 0.444689 0.424323
vt 0.444689 0.424323
vt 0.444689 0.424323
vt 0.444689 0.424323
vt 0.444689 0.424323
vt 0.444689 0.424323
vt 0.444689 0.424323
vt 0.444689 0.424323
vt 0.444689 0.424323
vt 0.444689 0.424323
vt 0.444689 0.424323
vt 0.444689 0.424323
vt 0.444689 0.424323
vt 0.444689 0.424323
vt 0.444689 0.424323
vt 0.444689 0.424323
vt 0.444689 0.424323
vt 0.444689 0.424323
vt 0.444689 0.424323
vt 0.444689 0.424323
vt 0.444689 0.424323
vt 0.444689 0.424323
vt 0.444689 0.424323
vt 0.444689 0.424323
vt 0.444689 0.424323
vt 0.444689 0.424323
vt 0.444689 0.424323
vt 0.444689 0.424323
vt 0.444689 0.424323
vt 0.444689 0.424323
vt 0.444689 0.424323
vt 0.444689 0.424323
vt 0.444689 0.424323
vt 0.444689 0.424323
vt 0.444689 0.424323
vt 0.444689 0.424323
vt 0.444689 0.424323
vt 0.444689 0.424323
vt 0.444689 0.424323
vt 0.444689 0.424323
vt 0.444689 0.424323
vt 0.444689 0.424323
vt 0.444689 0.424323
vn 0.559311 0.307954 -0.769633
vn 0.559311 0.307954 -0.769633
vn 0.559311 0.307954 -0.769633
vn 0.559311 0.307954 -0.769633
vn 0.000000 0.307782 -0.951457
vn 0.000000 0.307782 -0.951457
vn 0.000000 0.307782 -0.951457
vn 0.000000 0.307782 -0.951457
vn -0.559301 0.307955 -0.769641
vn -0.559301 0.307955 -0.769641
vn -0.559301 0.307955 -0.769641
vn -0.559301 0.307955 -0.769641
vn -0.904808 0.308030 -0.294008
vn -0.904808 0.308030 -0.294008
vn -0.904808 0.308030 -0.294008
vn -0.904808 0.308030 -0.294008
vn -0.904816 0.308016 0.293997
vn -0.904816 0.308016 0.293997
vn -0.904816 0.308016 0.293997
vn -0.904816 0.308016 0.293997
vn -0.559231 0.307813 0.769748
vn -0.559231 0.307813 0.769748
vn -0.559231 0.307813 0.769748
vn -0.559231 0.307813 0.769748
vn 0.000000 0.307870 0.951428
vn 0.000000 0.307870 0.951428
vn 0.000000 0.307870 0.951428
vn 0.000000 0.307870 0.951428
vn 0.559241 0.307813 0.769741
vn 0.559241 0.307813 0.769741
vn 0.559241 0.307813 0.769741
vn 0.559241 0.307813 0.769741
vn 0.904829 0.307974 0.294001
vn 0.904829 0.307974 0.294001
vn 0.904829 0.307974 0.294001
vn 0.904829 0.307974 0.294001
vn 0.904821 0.307988 -0.294012
vn 0.904821 0.307988 -0.294012
vn 0.904821 0.307988 -0.294012
vn 0.904821 0.307988 -0.294012
vn 0.000000 -1.000000 0.000000
vn 0.000000 -1.000000 0.000000
vn 0.000000 -1.000000 0.000000
vn 0.000000 -1.000000 0.000000
vn 0.000000 -1.000000 0.000000
vn 0.000000 -1.000000 0.000000
vn 0.000000 -1.000000 0.000000
vn 0.000000 -1.000000 0.000000
vn 0.000000 -1.000000 0.000000
vn 0.000000 -1.000000 0.000000
vn 0.000000 -1.000000 0.000000
vn 0.000000 -1.000000 0.000000
vn 0.000000 -1.000000 0.000000
vn 0.000000 -1.000000 0.000000
vn 0.000000 -1.000000 0.000000
vn 0.000000 -1.000000 0.000000
vn 0.000000 -1.000000 0.000000
vn 0.000000 -1.000000 0.000000
vn 0.000000 -1.000000 0.000000
vn 0.000000 -1.000000 0.000000
vn 0.000000 -1.000000 0.000000
vn 0.000000 -1.000000 0.000000
vn 0.000000 -1.000000 0.000000
vn 0.000000 -1.000000 0.000000
vn 0.000000 -1.000000 0.000000
vn 0.000000 -1.000000 0.000000
vn 0.000000 -1.000000 0.000000
vn 0.000000 -1.000000 0.000000
vn 0.000000 -1.000000 0.000000
vn 0.000000 -1.000000 0.000000
vn 0.542051 -0.386818 -0.746025
vn 0.542051 -0.386818 -0.746025
vn 0.504412 -0.513465 -0.694206
vn 0.504414 -0.513461 -0.694208
vn 0.000000 -0.386815 -0.922158
vn 0.000000 -0.386815 -0.922158
vn 0.000000 -0.513450 -0.858119
vn 0.000000 -0.513452 -0.858118
vn -0.542041 -0.386818 -0.746032
vn -0.542041 -0.386818 -0.746032
vn -0.504407 -0.513456 -0.694217
vn -0.504405 -0.513460 -0.694214
vn -0.877014 -0.386848 -0.284949
vn -0.877014 -0.386848 -0.284949
vn -0.816116 -0.513458 -0.265171
vn -0.816119 -0.513452 -0.265172
vn -0.876997 -0.386853 0.284995
vn -0.876997 -0.386852 0.284995
vn -0.816089 -0.513485 0.265202
vn -0.816089 -0.513485 0.265202
vn -0.504390 -0.513457 0.694229
vn -0.504391 -0.513454 0.694230
vn -0.542031 -0.386830 0.746033
vn -0.542031 -0.386830 0.746033
vn 0.000000 -0.386815 0.922158
vn 0.000000 -0.386815 0.922158
vn 0.000000 -0.513475 0.858104
vn 0.000000 -0.513473 0.858106
vn 0.542041 -0.386830 0.746025
vn 0.542041 -0.386831 0.746025
vn 0.504398 -0.513458 0.694222
vn 0.504397 -0.513461 0.694220
vn 0.877003 -0.386852 0.284976
vn 0.877003 -0.386852 0.284976
vn 0.816096 -0.513483 0.265183
vn 0.816095 -0.513486 0.265183
vn 0.877020 -0.386848 -0.284930
vn 0.877020 -0.386848 -0.284930
vn 0.816125 -0.513454 -0.265153
vn 0.816123 -0.513457 -0.265152
vn 0.513215 0.488002 -0.706020
vn 0.513215 0.488002 -0.706020
vn 0.513215 0.488002 -0.706020
vn 0.513215 0.488002 -0.706020
vn 0.000000 0.488023 -0.872830
vn 0.000000 0.488024 -0.872831
vn 0.000000 0.488024 -0.872830
vn 0.000000 0.488024 -0.872831
vn -0.513202 0.487993 -0.706035
vn -0.513202 0.487993 -0.706035
vn -0.513202 0.487993 -0.706035
vn -0.513202 0.487993 -0.706035
vn -0.830112 0.488010 -0.269740
vn -0.830112 0.488010 -0.269740
vn -0.830112 0.488010 -0.269740
vn -0.830112 0.488010 -0.269740
vn -0.830140 0.487983 0.269705
vn -0.830140 0.487983 0.269705
vn -0.830140 0.487983 0.269705
vn -0.830140 0.487983 0.269705
vn -0.512996 0.488041 0.706153
vn -0.512996 0.488041 0.706153
vn -0.512996 0.488041 0.706153
vn -0.512996 0.488041 0.706153
vn 0.000000 0.488082 0.872798
vn 0.000000 0.488082 0.872798
vn 0.000000 0.488082 0.872798
vn 0.000000 0.488082 0.872798
vn 0.513009 0.488049 0.706137
vn 0.513009 0.488049 0.706137
vn 0.513009 0.488049 0.706137
vn 0.513009 0.488049 0.706137
vn 0.830122 0.487997 0.269733
vn 0.830122 0.487997 0.269733
vn 0.830122 0.487997 0.269733
vn 0.830122 0.487997 0.269733
vn 0.830095 0.488024 -0.269768
vn 0.830095 0.488024 -0.269768
vn 0.830095 0.488024 -0.269768
vn 0.830095 0.488024 -0.269768
vn 0.284466 0.875150 -0.391398
vn 0.284466 0.875150 -0.391398
vn 0.284466 0.875150 -0.391398
vn 0.284466 0.875150 -0.391398
vn 0.000000 0.875233 -0.483702
vn 0.000000 0.875233 -0.483702
vn 0.000000 0.875233 -0.483702
vn 0.000000 0.875233 -0.483702
vn -0.284448 0.875156 -0.391396
vn -0.284448 0.875156 -0.391396
vn -0.284448 0.875156 -0.391396
vn -0.284448 0.875156 -0.391396
vn -0.460122 0.875178 -0.149500
vn -0.460122 0.875178 -0.149500
vn -0.460122 0.875178 -0.149500
vn -0.460122 0.875178 -0.149500
vn -0.460001 0.875248 0.149465
vn -0.460001 0.875248 0.149465
vn -0.460001 0.875248 0.149465
vn -0.460001 0.875248 0.149465
vn -0.284292 0.875247 0.391306
vn -0.284292 0.875247 0.391306
vn -0.284292 0.875247 0.391306
vn -0.284292 0.875247 0.391306
vn 0.000000 0.875187 0.483784
vn 0.000000 0.875187 0.483784
vn 0.000000 0.875187 0.483784
vn 0.000000 0.875187 0.483784
vn 0.284310 0.875241 0.391308
vn 0.284310 0.875241 0.391308
vn 0.284310 0.875241 0.391308
vn 0.284310 0.875241 0.391308
vn 0.460013 0.875237 0.149492
vn 0.460013 0.875237 0.149492
vn 0.460013 0.875237 0.149492
vn 0.460013 0.875237 0.149492
vn 0.460134 0.875168 -0.149526
vn 0.460134 0.875168 -0.149526
vn 0.460134 0.875168 -0.149526
vn 0.460134 0.875168 -0.149526
vn 0.000000 1.000000 0.000000
vn 0.000000 1.000000 0.000000
vn 0.000000 1.000000 0.000000
vn 0.000000 1.000000 -0.000000
vn 0.000000 1.000000 -0.000000
vn 0.000000 1.000000 -0.000000
vn 0.000000 1.000000 -0.000000
vn 0.000000 1.000000 0.000000
vn 0.000000 1.000000 0.000000
vn 0.000000 1.000000 0.000000
vn 0.000000 1.000000 0.000000
vn 0.000000 1.000000 0.000000
vn 0.000000 1.000000 0.000000
vn 0.000000 1.000000 0.000000
vn 0.000000 1.000000 0.000000
vn 0.000000 1.000000 0.000000
vn 0.000000 1.000000 0.000000
vn 0.000000 1.000000 0.000000
vn 0.000000 1.000000 0.000000
vn 0.000000 1.000000 0.000000
vn 0.000000 1.000000 0.000000
vn 0.000000 1.000000 0.000000
vn 0.000000 1.000000 0.000000
vn 0.000000 1.000000 0.000000
vn 0.000000 1.000000 0.000000
vn 0.000000 1.000000 0.000000
vn 0.000000 1.000000 0.000000
vn 0.000000 1.000000 0.000000
vn 0.000000 1.000000 0.000000
vn 0.000000 1.000000 0.000000
vn 0.000000 1.000000 0.000000
vn 0.000000 1.000000 0.000000
vn 0.000000 1.000000 0.000000
vn 0.000000 1.000000 0.000000
vn 0.000000 1.000000 0.000000
vn 0.587822 0.000000 -0.808990
vn 0.587822 0.000000 -0.808990
vn 0.587822 0.000000 -0.808990
vn 0.587822 0.000000 -0.808990
vn 0.000000 0.000000 -1.000000
vn 0.000000 0.000000 -1.000000
vn 0.000000 0.000000 -1.000000
vn 0.000000 0.000000 -1.000000
vn -0.587805 0.000000 -0.809002
vn -0.587805 0.000000 -0.809002
vn -0.587805 0.000000 -0.809002
vn -0.587805 0.000000 -0.809002
vn -0.951056 0.000000 -0.309019
vn -0.951056 0.000000 -0.309019
vn -0.951056 0.000000 -0.309019
vn -0.951056 0.000000 -0.309019
vn -0.951046 0.000000 0.309049
vn -0.951046 0.000000 0.309049
vn -0.951046 0.000000 0.309049
vn -0.951046 0.000000 0.309049
vn -0.587828 0.000000 0.808986
vn -0.587828 0.000000 0.808986
vn -0.587828 0.000000 0.808986
vn -0.587828 0.000000 0.808986
vn 0.000000 0.000000 1.000000
vn 0.000000 0.000000 1.000000
vn 0.000000 0.000000 1.000000
vn 0.000000 0.000000 1.000000
vn 0.587845 0.000000 0.808974
vn 0.587845 0.000000 0.808974
vn 0.587845 0.000000 0.808974
vn 0.587845 0.000000 0.808974
vn 0.951036 0.000000 0.309081
vn 0.951036 0.000000 0.309081
vn 0.951036 0.000000 0.309081
vn 0.951036 0.000000 0.309081
vn 0.951046 0.000000 -0.309050
vn 0.951046 0.000000 -0.309050
vn 0.951046 0.000000 -0.309050
vn 0.951046 0.000000 -0.309050
vn 0.000000 -0.513473 0.858106
vn 0.000000 -0.513475 0.858104
vn 0.000000 -0.705898 0.708314
vn 0.000000 -0.705898 0.708314
vn 0.504397 -0.513461 0.694220
vn 0.504398 -0.513458 0.694222
vn 0.416357 -0.705869 0.573059
vn 0.416357 -0.705869 0.573059
vn 0.816095 -0.513486 0.265183
vn 0.816096 -0.513483 0.265183
vn 0.673672 -0.705867 0.218901
vn 0.673672 -0.705867 0.218901
vn 0.816123 -0.513457 -0.265152
vn 0.816125 -0.513454 -0.265153
vn 0.673692 -0.705852 -0.218890
vn 0.673692 -0.705852 -0.218890
vn 0.504414 -0.513461 -0.694208
vn 0.504412 -0.513465 -0.694206
vn 0.416386 -0.705877 -0.573028
vn 0.416386 -0.705877 -0.573028
vn 0.000000 -0.513452 -0.858118
vn 0.000000 -0.513450 -0.858119
vn 0.000000 -0.705858 -0.708354
vn 0.000000 -0.705858 -0.708354
vn -0.504405 -0.513460 -0.694214
vn -0.504407 -0.513456 -0.694217
vn -0.416384 -0.705871 -0.573036
vn -0.416384 -0.705871 -0.573036
vn -0.816119 -0.513452 -0.265172
vn -0.816116 -0.513458 -0.265171
vn -0.673686 -0.705852 -0.218909
vn -0.673686 -0.705852 -0.218909
vn -0.816089 -0.513485 0.265202
vn -0.816089 -0.513485 0.265202
vn -0.673666 -0.705867 0.218919
vn -0.673666 -0.705867 0.218919
vn -0.416356 -0.705863 0.573067
vn -0.504391 -0.513454 0.694230
vn -0.504390 -0.513457 0.694229
vn -0.416356 -0.705863 0.573067
vn 0.000000 0.000000 -1.000000
vn 0.000000 0.000000 -1.000000
vn 0.000000 0.000000 -1.000000
vn 0.000000 0.000000 -1.000000
vn -0.951058 0.000000 -0.309012
vn -0.951058 0.000000 -0.309012
vn -0.951058 0.000000 -0.309012
vn -0.951058 0.000000 -0.309012
vn -0.587569 0.000000 0.809174
vn -0.587569 0.000000 0.809174
vn -0.587569 0.000000 0.809174
vn -0.587569 0.000000 0.809174
vn 0.587543 0.000000 0.809193
vn 0.587543 0.000000 0.809193
vn 0.587543 0.000000 0.809193
vn 0.587543 0.000000 0.809193
vn 0.951042 0.000000 -0.309061
vn 0.951042 0.000000 -0.309061
vn 0.951042 0.000000 -0.309061
vn 0.951042 0.000000 -0.309061
vn 0.000000 -0.389054 -0.921215
vn 0.000000 -0.389054 -0.921215
vn 0.000000 -0.389054 -0.921215
vn 0.000000 -0.389054 -0.921215
vn -0.876165 -0.388985 -0.284651
vn -0.876165 -0.388985 -0.284651
vn -0.876165 -0.388985 -0.284651
vn -0.876165 -0.388985 -0.284651
vn -0.541435 -0.388884 0.745398
vn -0.541435 -0.388884 0.745398
vn -0.541435 -0.388884 0.745398
vn -0.541435 -0.388884 0.745398
vn 0.541403 -0.388854 0.745437
vn 0.541403 -0.388854 0.745437
vn 0.541403 -0.388854 0.745437
vn 0.541403 -0.388854 0.745437
vn 0.876158 -0.388957 -0.284710
vn 0.876158 -0.388957 -0.284710
vn 0.876158 -0.388957 -0.284710
vn 0.876158 -0.388956 -0.284710
vn 0.000000 0.389852 -0.920878
vn 0.000000 0.389852 -0.920878
vn 0.000000 0.389852 -0.920878
vn 0.000000 0.389852 -0.920878
vn -0.875777 0.389977 -0.284487
vn -0.875777 0.389977 -0.284487
vn -0.875777 0.389977 -0.284487
vn -0.875777 0.389977 -0.284487
vn -0.541235 0.389936 0.744993
vn -0.541235 0.389936 0.744993
vn -0.541235 0.389936 0.744993
vn -0.541235 0.389936 0.744993
vn 0.541191 0.389898 0.745045
vn 0.541191 0.389898 0.745045
vn 0.541191 0.389898 0.745045
vn 0.541191 0.389898 0.745045
vn 0.875785 0.389907 -0.284557
vn 0.875785 0.389907 -0.284557
vn 0.875785 0.389907 -0.284557
vn 0.875785 0.389907 -0.284557
vn 0.000000 0.925798 -0.378019
vn 0.000000 0.925798 -0.378019
vn 0.000000 0.925798 -0.378019
vn -0.359520 0.925802 -0.116774
vn -0.359520 0.925802 -0.116774
vn -0.359520 0.925802 -0.116774
vn -0.222183 0.925796 0.305837
vn -0.222183 0.925796 0.305837
vn -0.222183 0.925796 0.305837
vn 0.222163 0.925793 0.305860
vn 0.222163 0.925793 0.305860
vn 0.222163 0.925793 0.305860
vn 0.359511 0.925802 -0.116797
vn 0.359511 0.925802 -0.116797
vn 0.359511 0.925802 -0.116797
s off
f 1/11/1 2/12/2 12/23/3 11/22/4
f 2/12/5 3/13/6 13/24/7 12/23/8
f 3/13/9 4/14/10 14/25/11 13/24/12
f 4/14/13 5/15/14 15/26/15 14/25/16
f 5/15/17 6/16/18 16/27/19 15/26/20
f 6/16/21 7/17/22 17/28/23 16/27/24
f 7/17/25 8/18/26 18/29/27 17/28/28
f 8/18/29 9/19/30 19/30/31 18/29/32
f 9/19/33 10/20/34 20/31/35 19/30/36
f 10/20/37 1/21/38 11/32/39 20/31/40
f 22/44/41 21/45/42 23/43/43
f 24/46/44 22/44/45 23/43/46
f 25/47/47 24/46/48 23/43/49
f 26/48/50 25/47/51 23/43/52
f 27/49/53 26/48/54 23/43/55
f 28/50/56 27/49/57 23/43/58
f 29/51/59 28/50/60 23/43/61
f 30/52/62 29/51/63 23/43/64
f 31/53/65 30/52/66 23/43/67
f 21/45/68 31/53/69 23/43/70
f 2/2/71 1/1/72 71/93/73 72/94/74
f 3/3/75 2/2/76 72/94/77 73/95/78
f 4/4/79 3/3/80 73/95/81 74/96/82
f 5/5/83 4/4/84 74/96/85 75/97/86
f 6/6/87 5/5/88 75/97/89 76/98/90
f 76/98/91 67/89/92 7/7/93 6/6/94
f 8/8/95 7/7/96 67/89/97 68/90/98
f 9/9/99 8/8/100 68/90/101 69/91/102
f 10/10/103 9/9/104 69/91/105 70/92/106
f 1/1/107 10/10/108 70/92/109 71/93/110
f 11/41/111 12/40/112 33/55/113 32/54/114
f 12/40/115 13/39/116 34/56/117 33/55/118
f 13/39/119 14/38/120 35/57/121 34/56/122
f 14/38/123 15/37/124 36/58/125 35/57/126
f 15/37/127 16/36/128 37/59/129 36/58/130
f 16/36/131 17/35/132 38/60/133 37/59/134
f 17/35/135 18/34/136 39/61/137 38/60/138
f 18/34/139 19/33/140 40/62/141 39/61/142
f 19/33/143 20/42/144 41/63/145 40/62/146
f 20/42/147 11/41/148 32/54/149 41/63/150
f 32/54/151 33/55/152 43/65/153 42/64/154
f 33/55/155 34/56/156 44/66/157 43/65/158
f 34/56/159 35/57/160 45/67/161 44/66/162
f 35/57/163 36/58/164 46/68/165 45/67/166
f 36/58/167 37/59/168 47/69/169 46/68/170
f 37/59/171 38/60/172 48/70/173 47/69/174
f 38/60/175 39/61/176 49/71/177 48/70/178
f 39/61/179 40/62/180 50/72/181 49/71/182
f 40/62/183 41/63/184 51/73/185 50/72/186
f 41/63/187 32/54/188 42/64/189 51/73/190
f 52/74/191 53/75/192 54/76/193
f 53/75/194 55/77/195 56/78/196 54/76/197
f 55/77/198 57/79/199 56/78/200
f 57/79/201 58/80/202 59/81/203 56/78/204
f 58/80/205 60/82/206 59/81/207
f 60/82/208 61/83/209 62/84/210 59/81/211
f 61/83/212 63/85/213 62/84/214
f 63/85/215 64/86/216 65/87/217 62/84/218
f 64/86/219 66/88/220 65/87/221
f 66/88/222 52/74/223 54/76/224 65/87/225
f 42/64/226 43/65/227 53/75/228 52/74/229
f 43/65/230 44/66/231 55/77/232 53/75/233
f 44/66/234 45/67/235 57/79/236 55/77/237
f 45/67/238 46/68/239 58/80/240 57/79/241
f 46/68/242 47/69/243 60/82/244 58/80/245
f 47/69/246 48/70/247 61/83/248 60/82/249
f 48/70/250 49/71/251 63/85/252 61/83/253
f 49/71/254 50/72/255 64/86/256 63/85/257
f 50/72/258 51/73/259 66/88/260 64/86/261
f 51/73/262 42/64/263 52/74/264 66/88/265
f 68/90/266 67/89/267 28/50/268 29/51/269
f 69/91/270 68/90/271 29/51/272 30/52/273
f 70/92/274 69/91/275 30/52/276 31/53/277
f 71/93/278 70/92/279 31/53/280 21/45/281
f 72/94/282 71/93/283 21/45/284 22/44/285
f 73/95/286 72/94/287 22/44/288 24/46/289
f 74/96/290 73/95/291 24/46/292 25/47/293
f 75/97/294 74/96/295 25/47/296 26/48/297
f 76/98/298 75/97/299 26/48/300 27/49/301
f 28/50/302 67/89/303 76/98/304 27/49/305
f 54/99/306 56/100/307 78/101/308 77/102/309
f 56/103/310 59/104/311 79/105/312 78/106/313
f 59/107/314 62/108/315 80/109/316 79/110/317
f 62/111/318 65/112/319 81/113/320 80/114/321
f 65/115/322 54/116/323 77/117/324 81/118/325
f 77/119/326 78/120/327 83/121/328 82/122/329
f 78/123/330 79/124/331 84/125/332 83/126/333
f 79/127/334 80/128/335 85/129/336 84/130/337
f 80/131/338 81/132/339 86/133/340 85/134/341
f 81/135/342 77/136/343 82/137/344 86/138/345
f 82/139/346 83/140/347 88/141/348 87/142/349
f 83/143/350 84/144/351 89/145/352 88/146/353
f 84/147/354 85/148/355 90/149/356 89/150/357
f 85/151/358 86/152/359 91/153/360 90/154/361
f 86/155/362 82/156/363 87/157/364 91/158/365
f 87/159/366 88/160/367 92/161/368
f 88/162/369 89/163/370 92/164/371
f 89/165/372 90/166/373 92/167/374
f 90/168/375 91/169/376 92/170/377
f 91/171/378 87/172/379 92/173/380
