# This file uses centimeters as units for non-parametric coordinates.

v 0.063324 -0.179512 0.000298
v 0.071808 -0.155251 0.000298
v 0.063324 -0.179512 0.009758
v 0.071808 -0.155251 0.009758
v -0.310730 -0.049399 0.009758
v -0.302246 -0.025138 0.009758
v -0.310730 -0.049399 0.000298
v -0.302246 -0.025138 0.000298
v 0.298897 0.051011 0.009628
v 0.254532 0.102721 -0.014915
v 0.200935 0.144790 0.009628
v 0.140160 0.175590 -0.014915
v 0.074539 0.193946 0.009628
v 0.006599 0.199138 -0.014915
v -0.061050 0.190981 0.009628
v -0.125801 0.169788 -0.014915
v -0.185181 0.136367 0.009628
v -0.236893 0.091998 -0.014915
v -0.278961 0.038402 0.009628
v -0.309769 -0.022380 0.005943
v -0.062790 -0.119918 0.003403
v -0.052124 -0.106315 0.006195
v -0.043976 -0.092684 0.003944
v -0.030434 -0.082703 0.009628
v -0.016441 -0.078749 0.004257
v -0.002686 -0.072266 0.009628
v 0.013596 -0.068060 0.004219
v 0.028687 -0.068511 0.009628
v 0.042908 -0.068556 0.004395
v 0.058952 -0.075129 0.009628
v 0.074615 -0.088168 0.004471
v 0.088249 -0.101247 0.009628
v 0.022537 -0.150395 0.005280
v 0.310730 0.034660 0.005310
v 0.295914 0.055665 0.005310
v 0.310730 0.034660 0.014915
v 0.295914 0.055665 0.014915
v -0.009010 -0.199138 0.014915
v -0.023827 -0.178133 0.014915
v -0.009010 -0.199138 0.005310
v -0.023827 -0.178133 0.005310
vt 0.993339 0.405238
vt 0.993339 0.405238
vt 0.993339 0.405238
vt 0.993339 0.405238
vt 0.993339 0.405238
vt 0.993339 0.405238
vt 0.993339 0.405238
vt 0.993339 0.405238
vt 0.993339 0.405238
vt 0.993339 0.405238
vt 0.993339 0.405238
vt 0.993339 0.405238
vt 0.993339 0.405238
vt 0.993339 0.405238
vt 0.512785 0.422056
vt 0.512785 0.422056
vt 0.512785 0.422056
vt 0.512785 0.422056
vt 0.512785 0.422056
vt 0.512785 0.422056
vt 0.512785 0.422056
vt 0.512785 0.422056
vt 0.512785 0.422056
vt 0.512785 0.422056
vt 0.512785 0.422056
vt 0.512785 0.422056
vt 0.512785 0.422056
vt 0.512785 0.422056
vt 0.512785 0.422056
vt 0.512785 0.422056
vt 0.512785 0.422056
vt 0.512785 0.422056
vt 0.512785 0.422056
vt 0.512785 0.422056
vt 0.512785 0.422056
vt 0.512785 0.422056
vt 0.512785 0.422056
vt 0.512785 0.422056
vt 0.993184 0.403445
vt 0.993184 0.403445
vt 0.993184 0.403445
vt 0.993184 0.403445
vt 0.993184 0.403445
vt 0.993184 0.403445
vt 0.993184 0.403445
vt 0.993184 0.403445
vt 0.993184 0.403445
vt 0.993184 0.403445
vt 0.993184 0.403445
vt 0.993184 0.403445
vt 0.993184 0.403445
vt 0.993339 0.405238
vt 0.993339 0.405238
vt 0.993339 0.405238
vt 0.993339 0.405238
vt 0.993339 0.405238
vt 0.993339 0.405238
vt 0.993339 0.405238
vt 0.993339 0.405238
vt 0.993339 0.405238
vt 0.993339 0.405238
vt 0.993339 0.405238
vt 0.993339 0.405238
vt 0.993339 0.405238
vt 0.993339 0.405238
vn 0.943950 -0.330088 0.000000
vn 0.943950 -0.330088 0.000000
vn 0.943950 -0.330088 0.000000
vn 0.943950 -0.330088 0.000000
vn 0.000000 0.000000 1.000000
vn 0.000000 0.000000 1.000000
vn 0.000000 0.000000 1.000000
vn 0.000000 0.000000 1.000000
vn -0.943950 0.330088 0.000000
vn -0.943950 0.330088 0.000000
vn -0.943950 0.330088 0.000000
vn -0.943950 0.330088 0.000000
vn 0.000000 0.000000 -1.000000
vn 0.000000 0.000000 -1.000000
vn 0.000000 0.000000 -1.000000
vn 0.000000 0.000000 -1.000000
vn 0.328537 0.944491 0.000006
vn 0.328537 0.944491 0.000006
vn 0.328537 0.944491 0.000006
vn 0.328537 0.944491 0.000006
vn -0.328537 -0.944491 0.000006
vn -0.328537 -0.944491 0.000006
vn -0.328537 -0.944491 0.000006
vn -0.328537 -0.944491 0.000006
vn -0.186922 0.266174 0.945628
vn -0.186922 0.266174 0.945627
vn -0.186922 0.266174 0.945627
vn -0.186922 0.266174 0.945627
vn 0.272161 -0.168552 0.947375
vn 0.272161 -0.168552 0.947375
vn 0.272161 -0.168552 0.947375
vn 0.272161 -0.168552 0.947375
vn -0.277098 0.182106 0.943427
vn -0.277098 0.182106 0.943427
vn -0.277098 0.182106 0.943427
vn -0.277098 0.182106 0.943427
vn 0.336799 -0.059320 0.939706
vn 0.336799 -0.059320 0.939706
vn 0.336799 -0.059320 0.939706
vn 0.336799 -0.059320 0.939706
vn -0.335234 0.058564 0.940313
vn -0.335234 0.058564 0.940313
vn -0.335234 0.058564 0.940313
vn -0.335234 0.058564 0.940313
vn 0.325489 0.074110 0.942637
vn 0.325489 0.074110 0.942637
vn 0.325489 0.074110 0.942637
vn 0.325489 0.074110 0.942637
vn -0.332318 -0.073684 0.940285
vn -0.332318 -0.073684 0.940285
vn -0.332318 -0.073684 0.940285
vn -0.332318 -0.073684 0.940285
vn 0.282019 0.197778 0.938802
vn 0.282019 0.197778 0.938802
vn 0.282019 0.197778 0.938802
vn 0.282019 0.197778 0.938802
vn -0.275377 -0.193132 0.941736
vn -0.275377 -0.193132 0.941737
vn -0.275377 -0.193132 0.941736
vn -0.275377 -0.193132 0.941737
vn 0.165738 0.255805 0.952415
vn 0.165738 0.255805 0.952415
vn 0.165738 0.255805 0.952415
vn 0.165738 0.255805 0.952415
vn -0.024761 -0.073014 0.997024
vn -0.024761 -0.073014 0.997024
vn -0.024761 -0.073014 0.997024
vn -0.024761 -0.073014 0.997024
vn -0.073470 -0.144932 0.986710
vn -0.073470 -0.144932 0.986710
vn -0.073470 -0.144932 0.986710
vn 0.080315 0.115470 0.990059
vn 0.080315 0.115470 0.990059
vn 0.080315 0.115470 0.990059
vn -0.223369 -0.235556 0.945843
vn -0.223369 -0.235556 0.945843
vn -0.223369 -0.235556 0.945843
vn 0.307561 0.180657 0.934221
vn 0.307561 0.180657 0.934221
vn 0.307561 0.180657 0.934221
vn -0.298069 -0.148708 0.942890
vn -0.298069 -0.148708 0.942890
vn -0.298069 -0.148708 0.942890
vn 0.304408 0.045314 0.951463
vn 0.304409 0.045314 0.951463
vn 0.304409 0.045314 0.951463
vn -0.337970 -0.024586 0.940836
vn -0.337970 -0.024586 0.940836
vn -0.337970 -0.024586 0.940836
vn 0.344181 -0.075549 0.935859
vn 0.344181 -0.075549 0.935859
vn 0.344181 -0.075549 0.935859
vn -0.279392 0.079890 0.956848
vn -0.279392 0.079890 0.956848
vn -0.279392 0.079890 0.956848
vn 0.194311 -0.150022 0.969400
vn 0.194311 -0.150022 0.969400
vn 0.194311 -0.150022 0.969400
vn -0.195745 0.176358 0.964667
vn -0.195745 0.176358 0.964667
vn -0.195745 0.176358 0.964667
vn 0.817164 0.576405 0.000000
vn 0.817164 0.576405 0.000000
vn 0.817164 0.576405 0.000000
vn 0.817164 0.576405 0.000000
vn 0.000000 0.000000 1.000000
vn 0.000000 0.000000 1.000000
vn 0.000000 0.000000 1.000000
vn 0.000000 0.000000 1.000000
vn -0.817164 -0.576405 0.000000
vn -0.817164 -0.576405 0.000000
vn -0.817164 -0.576405 0.000000
vn -0.817164 -0.576405 0.000000
vn 0.000000 0.000000 -1.000000
vn 0.000000 0.000000 -1.000000
vn 0.000000 0.000000 -1.000000
vn 0.000000 0.000000 -1.000000
vn -0.590250 0.807220 0.000000
vn -0.590250 0.807220 0.000000
vn -0.590250 0.807220 0.000000
vn -0.590250 0.807220 0.000000
vn 0.590250 -0.807220 0.000000
vn 0.590250 -0.807220 0.000000
vn 0.590250 -0.807220 0.000000
vn 0.590250 -0.807220 0.000000
s off
f 1/1/1 2/2/2 4/4/3 3/3/4
f 3/3/5 4/4/6 6/6/7 5/5/8
f 5/5/9 6/6/10 8/8/11 7/7/12
f 7/7/13 8/8/14 2/10/15 1/9/16
f 2/2/17 8/11/18 6/12/19 4/4/20
f 7/13/21 1/1/22 3/3/23 5/14/24
f 9/15/25 10/16/26 31/17/27 32/18/28
f 10/16/29 11/19/30 30/20/31 31/17/32
f 11/19/33 12/21/34 29/22/35 30/20/36
f 12/21/37 13/23/38 28/24/39 29/22/40
f 13/23/41 14/25/42 27/26/43 28/24/44
f 14/25/45 15/27/46 26/28/47 27/26/48
f 15/27/49 16/29/50 25/30/51 26/28/52
f 16/29/53 17/31/54 24/32/55 25/30/56
f 17/31/57 18/33/58 23/34/59 24/32/60
f 18/33/61 19/35/62 22/36/63 23/34/64
f 19/35/65 20/37/66 21/38/67 22/36/68
f 22/39/69 21/40/70 33/41/71
f 23/42/72 22/39/73 33/41/74
f 24/43/75 23/42/76 33/41/77
f 25/44/78 24/43/79 33/41/80
f 26/45/81 25/44/82 33/41/83
f 27/46/84 26/45/85 33/41/86
f 28/47/87 27/46/88 33/41/89
f 29/48/90 28/47/91 33/41/92
f 30/49/93 29/48/94 33/41/95
f 31/50/96 30/49/97 33/41/98
f 32/51/99 31/50/100 33/41/101
f 34/52/102 35/53/103 37/54/104 36/55/105
f 36/55/106 37/54/107 39/56/108 38/57/109
f 38/57/110 39/56/111 41/58/112 40/59/113
f 40/59/114 41/58/115 35/60/116 34/61/117
f 35/53/118 41/62/119 39/63/120 37/54/121
f 40/64/122 34/52/123 36/55/124 38/65/125
