# This file uses centimeters as units for non-parametric coordinates.

v 0.034828 0.000000 -0.060326
v -0.034828 0.000000 -0.060326
v -0.069656 0.000000 0.000000
v -0.034828 0.000000 0.060326
v 0.034828 0.000000 0.060326
v 0.069656 0.000000 0.000000
v 0.029671 2.252709 -0.051384
v -0.029671 2.252709 -0.051384
v -0.059326 2.252709 0.000000
v -0.029671 2.252709 0.051384
v 0.029671 2.252709 0.051384
v 0.059326 2.252709 0.000000
v 0.000000 0.000000 0.000000
v 0.000000 2.252709 0.000000
v 0.069656 2.213063 0.000000
v 0.034828 2.229471 0.060326
v -0.034828 2.229471 0.060326
v -0.069656 2.213063 0.000000
v -0.034828 2.213063 -0.060326
v 0.034828 2.229471 -0.060326
v 0.049759 1.609297 0.060326
v -0.019905 1.609297 0.060326
v -0.054726 1.597453 0.000000
v -0.019905 1.597453 -0.060326
v 0.049759 1.609297 -0.060326
v 0.084587 1.597453 0.000000
v 0.016426 0.660252 0.055260
v -0.047379 0.660252 0.055260
v -0.079277 0.655800 0.000000
v -0.047379 0.655800 -0.055260
v 0.016426 0.660252 -0.055260
v 0.048317 0.655800 0.000000
vt 0.537848 0.084072
vt 0.537848 0.084072
vt 0.537848 0.084072
vt 0.537848 0.084072
vt 0.537848 0.084072
vt 0.537848 0.084072
vt 0.537848 0.084072
vt 0.537848 0.084072
vt 0.537848 0.084072
vt 0.537848 0.084072
vt 0.537848 0.084072
vt 0.537848 0.084072
vt 0.537848 0.084072
vt 0.537848 0.084072
vt 0.537848 0.084072
vt 0.537848 0.084072
vt 0.537848 0.084072
vt 0.537848 0.084072
vt 0.537848 0.084072
vt 0.537848 0.084072
vt 0.537848 0.084072
vt 0.536757 0.137737
vt 0.536757 0.137737
vt 0.536757 0.137737
vt 0.536757 0.137737
vt 0.536757 0.137737
vt 0.536757 0.137737
vt 0.536757 0.137737
vt 0.536757 0.137737
vt 0.536757 0.137737
vt 0.536757 0.137737
vt 0.536757 0.137737
vt 0.536757 0.137737
vt 0.536757 0.137737
vt 0.537848 0.084072
vt 0.537848 0.084072
vt 0.537848 0.084072
vt 0.537848 0.084072
vt 0.537848 0.084072
vt 0.537848 0.084072
vt 0.537848 0.084072
vt 0.537848 0.084072
vt 0.537848 0.084072
vt 0.537848 0.084072
vt 0.537848 0.084072
vt 0.537848 0.084072
vt 0.537848 0.084072
vt 0.537848 0.084072
vn -0.000257 0.007692 -0.999970
vn -0.000257 0.007692 -0.999970
vn 0.000259 0.000308 -1.000000
vn 0.000301 -0.000287 -1.000000
vn -0.865977 -0.012707 -0.499923
vn -0.865977 -0.012707 -0.499923
vn -0.866033 0.008061 -0.499922
vn -0.866033 0.008109 -0.499922
vn -0.865766 -0.012659 0.500289
vn -0.865766 -0.012659 0.500289
vn -0.866785 0.008828 0.498605
vn -0.866724 0.007272 0.498734
vn 0.000000 0.007672 0.999971
vn 0.000000 0.007672 0.999971
vn 0.000000 -0.000014 1.000000
vn 0.000000 0.000020 1.000000
vn 0.866198 0.028078 0.498912
vn 0.866198 0.028078 0.498912
vn 0.865100 -0.006776 0.501554
vn 0.864978 -0.009315 0.501723
vn 0.866198 0.028078 -0.498912
vn 0.866198 0.028078 -0.498912
vn 0.864978 -0.009315 -0.501723
vn 0.865100 -0.006776 -0.501554
vn 0.000000 -1.000000 0.000000
vn 0.000000 -1.000000 0.000000
vn 0.000000 -1.000000 0.000000
vn 0.000000 -1.000000 0.000000
vn 0.000000 -1.000000 0.000000
vn 0.000000 -1.000000 0.000000
vn 0.000000 -1.000000 0.000000
vn 0.000000 -1.000000 0.000000
vn 0.000000 -1.000000 0.000000
vn 0.000000 -1.000000 0.000000
vn 0.000000 -1.000000 0.000000
vn 0.000000 -1.000000 0.000000
vn 0.000000 -1.000000 0.000000
vn 0.000000 -1.000000 0.000000
vn 0.000000 -1.000000 0.000000
vn 0.000000 -1.000000 0.000000
vn 0.000000 -1.000000 0.000000
vn 0.000000 -1.000000 0.000000
vn 0.000000 1.000000 0.000000
vn 0.000000 1.000000 0.000000
vn 0.000000 1.000000 0.000000
vn 0.000000 1.000000 0.000000
vn 0.000000 1.000000 0.000000
vn 0.000000 1.000000 0.000000
vn 0.000000 1.000000 0.000000
vn 0.000000 1.000000 0.000000
vn 0.000000 1.000000 0.000000
vn 0.000000 1.000000 0.000000
vn 0.000000 1.000000 0.000000
vn 0.000000 1.000000 0.000000
vn 0.000000 1.000000 0.000000
vn 0.000000 1.000000 0.000000
vn 0.000000 1.000000 0.000000
vn 0.000000 1.000000 0.000000
vn 0.000000 1.000000 0.000000
vn 0.000000 1.000000 0.000000
vn 0.868463 0.034997 0.494518
vn 0.868271 0.029067 0.495239
vn 0.849916 0.273375 0.450454
vn 0.849916 0.273375 0.450454
vn 0.000000 0.011443 0.999935
vn 0.000000 0.011108 0.999938
vn 0.000000 0.359115 0.933293
vn 0.000000 0.359115 0.933293
vn -0.864505 -0.011402 0.502495
vn -0.864980 -0.004947 0.501782
vn -0.849916 0.273376 0.450453
vn -0.849917 0.273376 0.450453
vn -0.866025 -0.008277 -0.499932
vn -0.866027 -0.008090 -0.499933
vn -0.844844 0.220013 -0.487680
vn -0.844844 0.220013 -0.487680
vn -0.001867 0.014678 -0.999891
vn -0.001127 0.008858 -0.999960
vn -0.034772 0.273372 -0.961280
vn -0.034772 0.273372 -0.961280
vn 0.868271 0.029067 -0.495238
vn 0.868463 0.034997 -0.494518
vn 0.849916 0.273376 -0.450453
vn 0.849917 0.273376 -0.450453
vn 0.000000 -0.003177 0.999995
vn 0.000000 -0.003164 0.999995
vn 0.000000 0.011108 0.999938
vn 0.000000 0.011443 0.999935
vn -0.866176 0.007075 0.499690
vn -0.865826 0.002521 0.500338
vn -0.864980 -0.004947 0.501782
vn -0.864505 -0.011402 0.502495
vn -0.866054 0.004855 -0.499927
vn -0.866054 0.004909 -0.499926
vn -0.866027 -0.008090 -0.499933
vn -0.866025 -0.008277 -0.499932
vn 0.000352 -0.002887 -0.999996
vn 0.000422 -0.003459 -0.999994
vn -0.001127 0.008858 -0.999960
vn -0.001867 0.014678 -0.999891
vn 0.865419 -0.013967 -0.500854
vn 0.865893 -0.008436 -0.500158
vn 0.868463 0.034997 -0.494518
vn 0.868271 0.029067 -0.495238
vn 0.865893 -0.008436 0.500158
vn 0.865419 -0.013967 0.500854
vn 0.868271 0.029067 0.495239
vn 0.868463 0.034997 0.494518
vn 0.000000 0.000020 1.000000
vn 0.000000 -0.000014 1.000000
vn 0.000000 -0.003164 0.999995
vn 0.000000 -0.003177 0.999995
vn -0.866724 0.007272 0.498734
vn -0.866785 0.008828 0.498605
vn -0.865826 0.002521 0.500338
vn -0.866176 0.007075 0.499690
vn -0.866033 0.008109 -0.499922
vn -0.866033 0.008061 -0.499922
vn -0.866054 0.004909 -0.499926
vn -0.866054 0.004855 -0.499927
vn 0.000301 -0.000287 -1.000000
vn 0.000259 0.000308 -1.000000
vn 0.000422 -0.003459 -0.999994
vn 0.000352 -0.002887 -0.999996
vn 0.865100 -0.006776 -0.501554
vn 0.864978 -0.009315 -0.501723
vn 0.865893 -0.008436 -0.500158
vn 0.865419 -0.013967 -0.500854
vn 0.864978 -0.009315 0.501723
vn 0.865100 -0.006776 0.501554
vn 0.865419 -0.013967 0.500854
vn 0.865893 -0.008436 0.500158
s off
f 1/1/1 2/2/2 30/45/3 31/47/4
f 2/2/5 3/5/6 29/44/7 30/45/8
f 3/5/9 4/7/10 28/43/11 29/44/12
f 4/7/13 5/9/14 27/42/15 28/43/16
f 5/9/17 6/11/18 32/48/19 27/42/20
f 6/11/21 1/13/22 31/46/23 32/48/24
f 2/15/25 1/16/26 13/17/27
f 3/18/28 2/15/29 13/17/30
f 4/19/31 3/18/32 13/17/33
f 5/20/34 4/19/35 13/17/36
f 6/21/37 5/20/38 13/17/39
f 1/16/40 6/21/41 13/17/42
f 7/22/43 8/23/44 14/24/45
f 8/23/46 9/25/47 14/24/48
f 9/25/49 10/26/50 14/24/51
f 10/26/52 11/27/53 14/24/54
f 11/27/55 12/28/56 14/24/57
f 12/28/58 7/22/59 14/24/60
f 16/29/61 15/30/62 12/28/63 11/27/64
f 17/31/65 16/29/66 11/27/67 10/26/68
f 18/32/69 17/31/70 10/26/71 9/25/72
f 19/33/73 18/32/74 9/25/75 8/23/76
f 20/34/77 19/33/78 8/23/79 7/22/80
f 15/30/81 20/34/82 7/22/83 12/28/84
f 22/36/85 21/35/86 16/10/87 17/8/88
f 23/37/89 22/36/90 17/8/91 18/6/92
f 24/38/93 23/37/94 18/6/95 19/3/96
f 25/40/97 24/38/98 19/3/99 20/4/100
f 26/41/101 25/39/102 20/14/103 15/12/104
f 21/35/105 26/41/106 15/12/107 16/10/108
f 28/43/109 27/42/110 21/35/111 22/36/112
f 29/44/113 28/43/114 22/36/115 23/37/116
f 30/45/117 29/44/118 23/37/119 24/38/120
f 31/47/121 30/45/122 24/38/123 25/40/124
f 32/48/125 31/46/126 25/39/127 26/41/128
f 27/42/129 32/48/130 26/41/131 21/35/132
