# This file uses centimeters as units for non-parametric coordinates.

v 0.063324 -0.179512 0.000298
v 0.071808 -0.155251 0.000298
v 0.063324 -0.179512 0.009758
v 0.071808 -0.155251 0.009758
v -0.310730 -0.049399 0.009758
v -0.302246 -0.025138 0.009758
v -0.310730 -0.049399 0.000298
v -0.302246 -0.025138 0.000298
v 0.298897 0.051011 0.009628
v 0.254532 0.102721 -0.014915
v 0.200935 0.144790 0.009628
v 0.140160 0.175590 -0.014915
v 0.074539 0.193946 0.009628
v 0.006599 0.199138 -0.014915
v -0.061050 0.190981 0.009628
v -0.125801 0.169788 -0.014915
v -0.185181 0.136367 0.009628
v -0.236893 0.091998 -0.014915
v -0.278961 0.038402 0.009628
v -0.309769 -0.022380 0.005943
v -0.062790 -0.119918 0.003403
v -0.052124 -0.106315 0.006195
v -0.043976 -0.092684 0.003944
v -0.030434 -0.082703 0.009628
v -0.016441 -0.078749 0.004257
v -0.002686 -0.072266 0.009628
v 0.013596 -0.068060 0.004219
v 0.028687 -0.068511 0.009628
v 0.042908 -0.068556 0.004395
v 0.058952 -0.075129 0.009628
v 0.074615 -0.088168 0.004471
v 0.088249 -0.101247 0.009628
v 0.022537 -0.150395 0.005280
v 0.310730 0.034660 0.005310
v 0.295914 0.055665 0.005310
v 0.310730 0.034660 0.014915
v 0.295914 0.055665 0.014915
v -0.009010 -0.199138 0.014915
v -0.023827 -0.178133 0.014915
v -0.009010 -0.199138 0.005310
v -0.023827 -0.178133 0.005310
v -0.267258 -0.040876 0.005623
v -0.250542 0.020272 0.009201
v -0.212723 0.068861 -0.012550
v -0.165794 0.108921 0.009628
v -0.107399 0.125286 -0.012512
v -0.053734 0.158001 0.009628
v 0.007477 0.165664 -0.012520
v 0.065727 0.151064 0.009628
v 0.127975 0.145004 -0.012497
v 0.183151 0.117237 0.009628
v 0.223045 0.066477 -0.012489
v 0.272507 0.031934 0.009628
vt 0.993339 0.405238
vt 0.993339 0.405238
vt 0.993339 0.405238
vt 0.993339 0.405238
vt 0.993339 0.405238
vt 0.993339 0.405238
vt 0.993339 0.405238
vt 0.993339 0.405238
vt 0.993339 0.405238
vt 0.993339 0.405238
vt 0.993339 0.405238
vt 0.993339 0.405238
vt 0.993339 0.405238
vt 0.993339 0.405238
vt 0.645271 0.110743
vt 0.645271 0.110743
vt 0.432787 0.657288
vt 0.432787 0.657288
vt 0.645271 0.110743
vt 0.432787 0.657288
vt 0.645271 0.110743
vt 0.432787 0.657288
vt 0.645271 0.110743
vt 0.432787 0.657288
vt 0.645271 0.110743
vt 0.432787 0.657288
vt 0.645271 0.110743
vt 0.432787 0.657288
vt 0.645271 0.110743
vt 0.432787 0.657288
vt 0.645271 0.110743
vt 0.432787 0.657288
vt 0.645271 0.110743
vt 0.432787 0.657288
vt 0.645271 0.110743
vt 0.432787 0.657288
vt 0.645271 0.110743
vt 0.432787 0.657288
vt 0.993184 0.403445
vt 0.993184 0.403445
vt 0.993184 0.403445
vt 0.993184 0.403445
vt 0.993184 0.403445
vt 0.993184 0.403445
vt 0.993184 0.403445
vt 0.993184 0.403445
vt 0.993184 0.403445
vt 0.993184 0.403445
vt 0.993184 0.403445
vt 0.993184 0.403445
vt 0.993184 0.403445
vt 0.993339 0.405238
vt 0.993339 0.405238
vt 0.993339 0.405238
vt 0.993339 0.405238
vt 0.993339 0.405238
vt 0.993339 0.405238
vt 0.993339 0.405238
vt 0.993339 0.405238
vt 0.993339 0.405238
vt 0.993339 0.405238
vt 0.993339 0.405238
vt 0.993339 0.405238
vt 0.993339 0.405238
vt 0.993339 0.405238
vt 0.645271 0.110743
vt 0.432787 0.657288
vt 0.432787 0.657288
vt 0.432787 0.657288
vt 0.432787 0.657288
vt 0.432787 0.657288
vt 0.432787 0.657288
vt 0.432787 0.657288
vt 0.432787 0.657288
vt 0.432787 0.657288
vt 0.432787 0.657288
vt 0.432787 0.657288
vt 0.645271 0.110743
vt 0.645271 0.110743
vt 0.645271 0.110743
vt 0.645271 0.110743
vt 0.645271 0.110743
vt 0.645271 0.110743
vt 0.645271 0.110743
vt 0.645271 0.110743
vt 0.645271 0.110743
vt 0.645271 0.110743
vt 0.645271 0.110743
vt 0.645271 0.110743
vt 0.645271 0.110743
vt 0.645271 0.110743
vt 0.645271 0.110743
vt 0.645271 0.110743
vt 0.645271 0.110743
vt 0.645271 0.110743
vt 0.645271 0.110743
vt 0.645271 0.110743
vt 0.645271 0.110743
vt 0.432787 0.657288
vt 0.645271 0.110743
vt 0.645271 0.110743
vt 0.645271 0.110743
vt 0.645271 0.110743
vt 0.645271 0.110743
vt 0.645271 0.110743
vt 0.645271 0.110743
vt 0.645271 0.110743
vt 0.645271 0.110743
vt 0.645271 0.110743
vn 0.943950 -0.330088 0.000000
vn 0.943950 -0.330088 0.000000
vn 0.943950 -0.330088 0.000000
vn 0.943950 -0.330088 0.000000
vn 0.000000 0.000000 1.000000
vn 0.000000 0.000000 1.000000
vn 0.000000 0.000000 1.000000
vn 0.000000 0.000000 1.000000
vn -0.943950 0.330088 0.000000
vn -0.943950 0.330088 0.000000
vn -0.943950 0.330088 0.000000
vn -0.943950 0.330088 0.000000
vn 0.000000 0.000000 -1.000000
vn 0.000000 0.000000 -1.000000
vn 0.000000 0.000000 -1.000000
vn 0.000000 0.000000 -1.000000
vn 0.328537 0.944491 0.000006
vn 0.328537 0.944491 0.000006
vn 0.328537 0.944491 0.000006
vn 0.328537 0.944491 0.000006
vn -0.328537 -0.944491 0.000006
vn -0.328537 -0.944491 0.000006
vn -0.328537 -0.944491 0.000006
vn -0.328537 -0.944491 0.000006
vn -0.218476 0.269695 0.937834
vn -0.218476 0.269695 0.937834
vn -0.199672 0.278182 0.939546
vn -0.202082 0.277103 0.939349
vn 0.285717 -0.184901 0.940307
vn 0.285717 -0.184901 0.940307
vn 0.276494 -0.172956 0.945324
vn 0.275076 -0.171123 0.946071
vn -0.284645 0.185847 0.940446
vn -0.284645 0.185847 0.940446
vn -0.277297 0.182203 0.943350
vn -0.277285 0.182197 0.943354
vn 0.331399 -0.063721 0.941337
vn 0.331399 -0.063721 0.941337
vn 0.332102 -0.058369 0.941436
vn 0.332022 -0.058978 0.941426
vn -0.337378 0.064524 0.939155
vn -0.337378 0.064524 0.939155
vn -0.339732 0.059841 0.938617
vn -0.340002 0.059304 0.938553
vn 0.331587 0.074788 0.940456
vn 0.331587 0.074788 0.940456
vn 0.325651 0.074128 0.942580
vn 0.325697 0.074134 0.942563
vn -0.333227 -0.081473 0.939320
vn -0.333227 -0.081473 0.939320
vn -0.337976 -0.076111 0.938072
vn -0.337356 -0.076812 0.938238
vn 0.293373 0.185410 0.937846
vn 0.293373 0.185410 0.937846
vn 0.294993 0.201261 0.934063
vn 0.295236 0.203704 0.933456
vn -0.278112 -0.195505 0.940442
vn -0.278112 -0.195505 0.940442
vn -0.275450 -0.193192 0.941703
vn -0.275426 -0.193172 0.941714
vn 0.185943 0.281169 0.941472
vn 0.185943 0.281169 0.941472
vn 0.166221 0.256422 0.952165
vn 0.166372 0.256611 0.952088
vn -0.016805 -0.052927 0.998457
vn -0.016805 -0.052927 0.998457
vn -0.023885 -0.071074 0.997185
vn -0.022991 -0.068783 0.997367
vn -0.073470 -0.144932 0.986710
vn -0.073470 -0.144932 0.986710
vn -0.073470 -0.144932 0.986710
vn 0.080315 0.115470 0.990059
vn 0.080315 0.115470 0.990059
vn 0.080315 0.115470 0.990059
vn -0.223369 -0.235556 0.945843
vn -0.223369 -0.235556 0.945843
vn -0.223369 -0.235556 0.945843
vn 0.307561 0.180657 0.934221
vn 0.307561 0.180657 0.934221
vn 0.307561 0.180657 0.934221
vn -0.298069 -0.148708 0.942890
vn -0.298069 -0.148708 0.942890
vn -0.298069 -0.148708 0.942890
vn 0.304408 0.045314 0.951463
vn 0.304409 0.045314 0.951463
vn 0.304409 0.045314 0.951463
vn -0.337970 -0.024586 0.940836
vn -0.337970 -0.024586 0.940836
vn -0.337970 -0.024586 0.940836
vn 0.344181 -0.075549 0.935859
vn 0.344181 -0.075549 0.935859
vn 0.344181 -0.075549 0.935859
vn -0.279392 0.079890 0.956848
vn -0.279392 0.079890 0.956848
vn -0.279392 0.079890 0.956848
vn 0.194311 -0.150022 0.969400
vn 0.194311 -0.150022 0.969400
vn 0.194311 -0.150022 0.969400
vn -0.195745 0.176358 0.964667
vn -0.195745 0.176358 0.964667
vn -0.195745 0.176358 0.964667
vn 0.817164 0.576405 0.000000
vn 0.817164 0.576405 0.000000
vn 0.817164 0.576405 0.000000
vn 0.817164 0.576405 0.000000
vn 0.000000 0.000000 1.000000
vn 0.000000 0.000000 1.000000
vn 0.000000 0.000000 1.000000
vn 0.000000 0.000000 1.000000
vn -0.817164 -0.576405 0.000000
vn -0.817164 -0.576405 0.000000
vn -0.817164 -0.576405 0.000000
vn -0.817164 -0.576405 0.000000
vn 0.000000 0.000000 -1.000000
vn 0.000000 0.000000 -1.000000
vn 0.000000 0.000000 -1.000000
vn 0.000000 0.000000 -1.000000
vn -0.590250 0.807220 0.000000
vn -0.590250 0.807220 0.000000
vn -0.590250 0.807220 0.000000
vn -0.590250 0.807220 0.000000
vn 0.590250 -0.807220 0.000000
vn 0.590250 -0.807220 0.000000
vn 0.590250 -0.807220 0.000000
vn 0.590250 -0.807220 0.000000
vn -0.022991 -0.068783 0.997367
vn -0.023885 -0.071074 0.997185
vn -0.025635 -0.075561 0.996812
vn -0.025635 -0.075561 0.996812
vn 0.166372 0.256611 0.952088
vn 0.166221 0.256422 0.952165
vn 0.160782 0.249588 0.954911
vn 0.160782 0.249588 0.954911
vn -0.275426 -0.193172 0.941714
vn -0.275450 -0.193192 0.941703
vn -0.274714 -0.192553 0.942049
vn -0.274714 -0.192553 0.942049
vn 0.295236 0.203704 0.933456
vn 0.294993 0.201261 0.934063
vn 0.295724 0.208665 0.932205
vn 0.295724 0.208665 0.932205
vn -0.337356 -0.076812 0.938238
vn -0.337976 -0.076111 0.938072
vn -0.339215 -0.074707 0.937738
vn -0.339215 -0.074707 0.937738
vn 0.325697 0.074134 0.942563
vn 0.325651 0.074128 0.942580
vn 0.324069 0.073952 0.943139
vn 0.324069 0.073952 0.943139
vn -0.340002 0.059304 0.938553
vn -0.339732 0.059841 0.938617
vn -0.340709 0.057893 0.938385
vn -0.340709 0.057893 0.938385
vn 0.332022 -0.058978 0.941426
vn 0.332102 -0.058369 0.941436
vn 0.332285 -0.056962 0.941457
vn 0.332285 -0.056962 0.941457
vn -0.277285 0.182197 0.943354
vn -0.277297 0.182203 0.943350
vn -0.275304 0.181214 0.944124
vn -0.275304 0.181214 0.944124
vn 0.275076 -0.171123 0.946071
vn 0.276494 -0.172956 0.945324
vn 0.272474 -0.167763 0.947425
vn 0.272474 -0.167763 0.947425
vn -0.202082 0.277103 0.939349
vn -0.199672 0.278182 0.939546
vn -0.194680 0.280409 0.939931
vn -0.194680 0.280409 0.939931
s off
f 1/1/1 2/2/2 4/4/3 3/3/4
f 3/3/5 4/4/6 6/6/7 5/5/8
f 5/5/9 6/6/10 8/8/11 7/7/12
f 7/7/13 8/8/14 2/10/15 1/9/16
f 2/2/17 8/11/18 6/12/19 4/4/20
f 7/13/21 1/1/22 3/3/23 5/14/24
f 9/15/25 10/16/26 52/79/27 53/80/28
f 10/109/29 11/19/30 51/82/31 52/78/32
f 11/108/33 12/21/34 50/84/35 51/81/36
f 12/107/37 13/23/38 49/86/39 50/83/40
f 13/106/41 14/25/42 48/88/43 49/85/44
f 14/105/45 15/27/46 47/90/47 48/87/48
f 15/104/49 16/29/50 46/92/51 47/89/52
f 16/103/53 17/31/54 45/94/55 46/91/56
f 17/102/57 18/33/58 44/96/59 45/93/60
f 18/101/61 19/35/62 43/98/63 44/95/64
f 19/100/65 20/37/66 42/66/67 43/97/68
f 22/39/69 21/40/70 33/41/71
f 23/42/72 22/39/73 33/41/74
f 24/43/75 23/42/76 33/41/77
f 25/44/78 24/43/79 33/41/80
f 26/45/81 25/44/82 33/41/83
f 27/46/84 26/45/85 33/41/86
f 28/47/87 27/46/88 33/41/89
f 29/48/90 28/47/91 33/41/92
f 30/49/93 29/48/94 33/41/95
f 31/50/96 30/49/97 33/41/98
f 32/51/99 31/50/100 33/41/101
f 34/52/102 35/53/103 37/54/104 36/55/105
f 36/55/106 37/54/107 39/56/108 38/57/109
f 38/57/110 39/56/111 41/58/112 40/59/113
f 40/59/114 41/58/115 35/60/116 34/61/117
f 35/53/118 41/62/119 39/63/120 37/54/121
f 40/64/122 34/52/123 36/55/124 38/65/125
f 43/67/126 42/99/127 21/38/128 22/36/129
f 44/68/130 43/67/131 22/36/132 23/34/133
f 45/69/134 44/68/135 23/34/136 24/32/137
f 46/70/138 45/69/139 24/32/140 25/30/141
f 47/71/142 46/70/143 25/30/144 26/28/145
f 48/72/146 47/71/147 26/28/148 27/26/149
f 49/73/150 48/72/151 27/26/152 28/24/153
f 50/74/154 49/73/155 28/24/156 29/22/157
f 51/75/158 50/74/159 29/22/160 30/20/161
f 52/76/162 51/75/163 30/20/164 31/17/165
f 53/77/166 52/76/167 31/17/168 32/18/169
