# This file uses centimeters as units for non-parametric coordinates.

v 0.015028 0.110802 -0.046314
v -0.042052 0.110802 -0.027771
v -0.042052 0.110802 0.032248
v 0.015028 0.110802 0.050795
v 0.050305 0.110802 0.002240
v 0.013266 0.335749 -0.038415
v -0.037216 0.309963 -0.023583
v -0.034529 0.335749 0.027369
v 0.014363 0.309062 0.045548
v 0.040019 0.360333 0.000807
v 0.010592 0.080873 -0.026502
v -0.023197 0.080873 -0.015524
v -0.023197 0.080873 0.020005
v 0.010592 0.080873 0.030980
v 0.031469 0.080873 0.002240
v 0.013746 0.036938 -0.040587
v -0.036591 0.036938 -0.024228
v -0.000161 0.000000 0.002240
v -0.036591 0.036938 0.028709
v 0.013746 0.036938 0.045068
v 0.044865 0.036938 0.002240
v 0.013266 0.412487 -0.038415
v -0.035507 0.388876 -0.022592
v -0.034529 0.412487 0.027369
v 0.012420 0.428967 0.040497
v 0.044709 0.430873 0.001599
v 0.011646 0.615831 -0.103703
v -0.036146 0.615831 -0.082430
v -0.050305 0.609071 0.082433
v -0.002512 0.609071 0.103703
v 0.042796 0.493712 0.003069
v -0.034529 0.493712 0.002755
v -0.029591 0.503509 0.002309
v -0.042833 0.600359 0.069208
v -0.002706 0.600359 0.087070
v 0.035328 0.503509 0.002574
v 0.009173 0.606035 -0.087067
v -0.030954 0.606035 -0.069202
v -0.029591 0.595448 0.003182
v -0.042833 0.692298 0.095405
v -0.002706 0.692298 0.120023
v 0.035328 0.595448 0.003549
v 0.009173 0.697974 -0.120023
v -0.030954 0.697974 -0.095393
v -0.025269 0.604023 0.002646
v -0.036299 0.684671 0.079448
v -0.002883 0.684671 0.099942
v 0.028793 0.604023 0.002957
v 0.007010 0.689399 -0.099946
v -0.026403 0.689399 -0.079435
v -0.001059 0.708634 0.003147
v -0.001211 0.708634 0.003147
v -0.001088 0.708634 0.003334
v -0.025269 0.708634 0.002982
v -0.036299 0.788980 0.092302
v -0.002883 0.788980 0.116116
v 0.028793 0.708634 0.003334
v 0.007010 0.793708 -0.116116
v -0.026403 0.793708 -0.092289
vt 0.757463 0.619185
vt 0.757463 0.619185
vt 0.757463 0.619185
vt 0.757463 0.619185
vt 0.757463 0.619185
vt 0.757463 0.619185
vt 0.757463 0.619185
vt 0.757463 0.619185
vt 0.757463 0.619185
vt 0.757463 0.619185
vt 0.757463 0.619185
vt 0.757463 0.619185
vt 0.757463 0.619185
vt 0.757463 0.619185
vt 0.757463 0.619185
vt 0.757202 0.472948
vt 0.757202 0.472948
vt 0.088364 0.954004
vt 0.088364 0.954004
vt 0.088364 0.954004
vt 0.088364 0.954004
vt 0.088364 0.954004
vt 0.757202 0.472948
vt 0.088364 0.896781
vt 0.757202 0.472948
vt 0.757202 0.472948
vt 0.757202 0.472948
vt 0.757202 0.472948
vt 0.757202 0.472948
vt 0.757202 0.472948
vt 0.757202 0.472948
vt 0.757202 0.472948
vt 0.757202 0.472948
vt 0.757202 0.472948
vt 0.088364 0.896781
vt 0.088364 0.896781
vt 0.088364 0.896781
vt 0.088364 0.896781
vt 0.088364 0.896781
vt 0.088364 0.896781
vt 0.088364 0.896781
vt 0.088364 0.896781
vt 0.088364 0.896781
vt 0.088364 0.896781
vt 0.088364 0.896781
vt 0.088364 0.896781
vt 0.088364 0.896781
vt 0.088364 0.896781
vt 0.088364 0.896781
vt 0.088364 0.896781
vt 0.088364 0.896781
vt 0.088364 0.896781
vt 0.088364 0.896781
vt 0.088364 0.896781
vt 0.088364 0.896781
vt 0.088364 0.896781
vt 0.088364 0.896781
vt 0.088364 0.896781
vt 0.088364 0.896781
vt 0.088364 0.896781
vt 0.088364 0.896781
vt 0.088364 0.896781
vt 0.088364 0.896781
vt 0.088364 0.896781
vt 0.088364 0.896781
vt 0.088364 0.896781
vt 0.088364 0.896781
vt 0.088364 0.896781
vt 0.088364 0.896781
vt 0.088364 0.896781
vt 0.088364 0.896781
vt 0.088364 0.954004
vt 0.088364 0.954004
vt 0.088364 0.954004
vt 0.088364 0.954004
vt 0.088364 0.954004
vt 0.088364 0.954004
vt 0.088364 0.954004
vt 0.088364 0.954004
vt 0.088364 0.954004
vt 0.088364 0.954004
vt 0.088364 0.954004
vt 0.088364 0.954004
vt 0.088364 0.954004
vt 0.088364 0.954004
vt 0.088364 0.954004
vt 0.757202 0.472948
vt 0.757202 0.472948
vt 0.757202 0.472948
vt 0.757202 0.472948
vt 0.757202 0.472948
vt 0.757202 0.472948
vt 0.757202 0.472948
vt 0.757202 0.472948
vt 0.757202 0.472948
vt 0.757202 0.472948
vt 0.757202 0.472948
vt 0.757202 0.472948
vt 0.757202 0.472948
vt 0.757202 0.472948
vt 0.757202 0.472948
vt 0.757202 0.472948
vt 0.757202 0.472948
vt 0.757202 0.472948
vt 0.757202 0.472948
vt 0.757202 0.472948
vt 0.757202 0.472948
vt 0.757202 0.472948
vn -0.302641 0.029345 -0.952653
vn -0.302641 0.029345 -0.952653
vn -0.302641 0.029345 -0.952653
vn -0.302641 0.029345 -0.952653
vn -0.999423 0.029155 0.017431
vn -0.999423 0.029155 0.017431
vn -0.999423 0.029155 0.017431
vn -0.999423 0.029155 0.017431
vn -0.321060 0.027856 0.946649
vn -0.321060 0.027856 0.946649
vn -0.321060 0.027856 0.946649
vn -0.321060 0.027856 0.946649
vn 0.829634 0.028609 0.557575
vn 0.829634 0.028609 0.557575
vn 0.829634 0.028609 0.557575
vn 0.829634 0.028609 0.557575
vn 0.812539 0.028567 -0.582206
vn 0.812539 0.028567 -0.582206
vn 0.812539 0.028567 -0.582206
vn 0.812539 0.028567 -0.582206
vn -0.513114 -0.773159 -0.372746
vn 0.195961 -0.773150 -0.603190
vn 0.000052 -1.000000 0.000000
vn -0.513114 -0.773159 0.372746
vn -0.513114 -0.773159 -0.372746
vn 0.000052 -1.000000 0.000000
vn 0.195961 -0.773150 0.603190
vn -0.513114 -0.773159 0.372746
vn 0.000052 -1.000000 0.000000
vn 0.634248 -0.773130 0.000000
vn 0.195961 -0.773150 0.603190
vn 0.000052 -1.000000 0.000000
vn 0.195961 -0.773150 -0.603190
vn 0.634248 -0.773130 0.000000
vn 0.000052 -1.000000 0.000000
vn 0.221573 0.786805 0.576058
vn 0.234644 0.942837 0.236645
vn 0.045036 0.785672 -0.617001
vn 0.234644 0.942837 0.236645
vn 0.003407 0.999989 0.003297
vn 0.359038 0.758948 -0.543222
vn 0.045036 0.785672 -0.617001
vn 0.359038 0.758948 -0.543222
vn 0.330379 0.771202 -0.544148
vn 0.045036 0.785672 -0.617001
vn 0.330379 0.771202 -0.544148
vn -0.002351 0.999252 0.038607
vn 0.045036 0.785672 -0.617001
vn -0.002351 0.999252 0.038607
vn 0.221573 0.786805 0.576058
vn 0.045036 0.785672 -0.617001
vn -0.266840 -0.504171 -0.821345
vn -0.266840 -0.504171 -0.821345
vn -0.266840 -0.504171 -0.821345
vn -0.266840 -0.504171 -0.821345
vn -0.846089 -0.533041 0.000000
vn -0.846089 -0.533041 0.000000
vn -0.846089 -0.533041 0.000000
vn -0.846089 -0.533041 0.000000
vn -0.266839 -0.504171 0.821346
vn -0.266839 -0.504171 0.821346
vn -0.266839 -0.504171 0.821346
vn -0.266839 -0.504171 0.821346
vn 0.720977 -0.453702 0.523780
vn 0.720977 -0.453702 0.523780
vn 0.720977 -0.453702 0.523780
vn 0.720977 -0.453702 0.523780
vn 0.720997 -0.453680 -0.523773
vn 0.720997 -0.453680 -0.523773
vn 0.720997 -0.453680 -0.523773
vn 0.720997 -0.453680 -0.523773
vn -0.297396 0.272003 -0.915189
vn -0.297396 0.272003 -0.915189
vn -0.297396 0.272003 -0.915189
vn -0.297396 0.272003 -0.915189
vn -0.956535 0.291619 0.000000
vn -0.956535 0.291619 0.000000
vn -0.956535 0.291619 0.000000
vn -0.956535 0.291619 0.000000
vn -0.297363 0.272032 0.915191
vn -0.297363 0.272032 0.915191
vn -0.297363 0.272032 0.915191
vn -0.297363 0.272032 0.915191
vn 0.785493 0.239435 0.570677
vn 0.785493 0.239435 0.570677
vn 0.785493 0.239435 0.570677
vn 0.785493 0.239435 0.570677
vn 0.785508 0.239415 -0.570664
vn 0.785508 0.239415 -0.570664
vn 0.785508 0.239415 -0.570664
vn 0.785508 0.239415 -0.570664
vn -0.299344 0.009361 -0.954100
vn -0.299344 0.009361 -0.954099
vn -0.299344 0.009361 -0.954099
vn -0.299344 0.009361 -0.954100
vn -0.999460 0.010777 0.031035
vn -0.999460 0.010777 0.031035
vn -0.999460 0.010777 0.031035
vn -0.999460 0.010777 0.031035
vn -0.308386 0.021382 0.951021
vn -0.308386 0.021382 0.951021
vn -0.308386 0.021382 0.951021
vn -0.308386 0.021382 0.951021
vn 0.821735 0.000894 0.569869
vn 0.821735 0.000894 0.569868
vn 0.821736 0.000894 0.569869
vn 0.821736 0.000894 0.569869
vn 0.811597 -0.022706 -0.583776
vn 0.811597 -0.022706 -0.583776
vn 0.811597 -0.022706 -0.583776
vn 0.811597 -0.022706 -0.583776
vn -0.287436 -0.268832 -0.919299
vn -0.287436 -0.268831 -0.919299
vn -0.287436 -0.268832 -0.919299
vn -0.287436 -0.268831 -0.919299
vn -0.999766 0.004206 0.021199
vn -0.998903 -0.013579 -0.044810
vn -0.998988 -0.014896 -0.042434
vn -0.276808 -0.308323 0.910118
vn -0.276808 -0.308323 0.910118
vn -0.276808 -0.308323 0.910118
vn -0.276808 -0.308323 0.910118
vn 0.840103 -0.084397 0.535821
vn 0.840103 -0.084397 0.535821
vn 0.840103 -0.084397 0.535821
vn 0.840103 -0.084397 0.535821
vn 0.889605 -0.095282 -0.446681
vn 0.889605 -0.095282 -0.446681
vn 0.889605 -0.095282 -0.446681
vn 0.889605 -0.095282 -0.446681
vn -0.002351 0.999252 0.038607
vn 0.338776 0.754765 0.561748
vn 0.221573 0.786805 0.576058
vn 0.338776 0.754765 0.561748
vn 0.371144 0.739935 0.561025
vn 0.234644 0.942837 0.236645
vn 0.221573 0.786805 0.576058
vn 0.371144 0.739935 0.561025
vn 0.003407 0.999989 0.003297
vn 0.234644 0.942837 0.236645
vn -0.999766 0.004206 0.021199
vn -0.998988 -0.014896 -0.042434
vn -0.999705 0.003521 0.024028
vn -0.998988 -0.014896 -0.042434
vn -0.998903 -0.013579 -0.044810
vn -0.989818 -0.041280 -0.136224
vn -0.711648 0.330788 -0.619787
vn -0.711648 0.330788 -0.619787
vn -0.711648 0.330788 -0.619787
vn -0.711648 0.330788 -0.619787
vn 0.203010 0.866454 -0.456120
vn 0.203010 0.866454 -0.456120
vn 0.203010 0.866454 -0.456120
vn 0.203010 0.866454 -0.456120
vn 0.764566 0.567256 -0.306038
vn 0.764566 0.567256 -0.306038
vn 0.764566 0.567256 -0.306038
vn 0.764566 0.567256 -0.306038
vn 0.705535 0.559858 0.434488
vn 0.705535 0.559858 0.434488
vn 0.705535 0.559858 0.434488
vn 0.705535 0.559858 0.434488
vn 0.230997 0.823029 0.518907
vn 0.230997 0.823029 0.518907
vn 0.230997 0.823029 0.518907
vn 0.230997 0.823029 0.518907
vn -0.721888 0.389429 0.572033
vn -0.721888 0.389429 0.572033
vn -0.721888 0.389429 0.572033
vn -0.721888 0.389429 0.572033
vn -0.979635 0.029243 -0.198643
vn -0.979635 0.029243 -0.198643
vn -0.979635 0.029243 -0.198643
vn -0.979635 0.029243 -0.198643
vn -0.449974 -0.273472 0.850139
vn -0.449974 -0.273472 0.850139
vn -0.449974 -0.273472 0.850139
vn -0.449974 -0.273472 0.850139
vn 0.905669 -0.076933 0.416946
vn 0.905669 -0.076933 0.416946
vn 0.905670 -0.076933 0.416946
vn 0.905669 -0.076933 0.416946
vn 0.958078 -0.049093 -0.282271
vn 0.958078 -0.049093 -0.282271
vn 0.958078 -0.049093 -0.282271
vn 0.958078 -0.049093 -0.282271
vn -0.450107 -0.273439 -0.850079
vn -0.450107 -0.273439 -0.850079
vn -0.450107 -0.273439 -0.850079
vn -0.450107 -0.273439 -0.850079
vn -0.999812 0.002646 0.019218
vn -0.999812 0.002646 0.019218
vn -0.999812 0.002646 0.019218
vn -0.999812 0.002646 0.019218
vn -0.786972 0.365640 -0.496974
vn -0.786972 0.365640 -0.496974
vn -0.786972 0.365640 -0.496974
vn -0.786972 0.365640 -0.496974
vn 0.213798 0.912585 -0.348540
vn 0.213798 0.912585 -0.348540
vn 0.213798 0.912585 -0.348540
vn 0.213798 0.912585 -0.348540
vn 0.781974 0.580406 -0.227257
vn 0.781974 0.580406 -0.227257
vn 0.781974 0.580406 -0.227257
vn 0.781974 0.580406 -0.227257
vn 0.739581 0.586556 0.330109
vn 0.739581 0.586556 0.330109
vn 0.739581 0.586556 0.330109
vn 0.739581 0.586556 0.330109
vn 0.247356 0.881144 0.402989
vn 0.247356 0.881144 0.402989
vn 0.247356 0.881144 0.402989
vn 0.247356 0.881144 0.402989
vn -0.785063 0.423844 0.451700
vn -0.785063 0.423844 0.451700
vn -0.785063 0.423844 0.451700
vn -0.785063 0.423844 0.451700
vn -0.990106 0.008842 -0.140042
vn -0.990106 0.008842 -0.140042
vn -0.990106 0.008842 -0.140042
vn -0.990106 0.008842 -0.140042
vn -0.548902 -0.115198 0.827911
vn -0.548902 -0.115198 0.827911
vn -0.548901 -0.115198 0.827911
vn -0.548902 -0.115198 0.827911
vn 0.951710 -0.024245 0.306040
vn 0.951710 -0.024245 0.306040
vn 0.951710 -0.024245 0.306040
vn 0.951710 -0.024245 0.306040
vn 0.978933 -0.015391 -0.203603
vn 0.978933 -0.015391 -0.203603
vn 0.978933 -0.015391 -0.203603
vn 0.978933 -0.015391 -0.203603
vn -0.549167 -0.115161 -0.827740
vn -0.549167 -0.115161 -0.827740
vn -0.549167 -0.115161 -0.827740
vn -0.549167 -0.115161 -0.827740
vn -0.999908 0.000813 0.013572
vn -0.999908 0.000813 0.013572
vn -0.999908 0.000813 0.013572
vn -0.999908 0.000813 0.013572
s off
f 1/1/1 2/2/2 7/3/3 6/4/4
f 2/2/5 3/5/6 8/6/7 7/3/8
f 3/5/9 4/7/10 9/8/11 8/6/12
f 4/7/13 5/9/14 10/10/15 9/8/16
f 5/9/17 1/1/18 6/4/19 10/10/20
f 17/107/21 16/91/22 18/93/23
f 19/103/24 17/30/25 18/94/26
f 20/97/27 19/32/28 18/95/29
f 21/87/30 20/33/31 18/96/32
f 16/92/33 21/34/34 18/23/35
f 51/45/36 52/46/37 53/24/38
f 52/46/39 54/66/40 55/67/41 53/24/42
f 55/67/43 56/68/44 53/24/45
f 56/68/46 57/69/47 53/24/48
f 57/69/49 51/45/50 53/24/51
f 2/2/52 1/1/53 11/11/54 12/12/55
f 3/5/56 2/2/57 12/12/58 13/13/59
f 4/7/60 3/5/61 13/13/62 14/14/63
f 5/9/64 4/7/65 14/14/66 15/15/67
f 1/1/68 5/9/69 15/15/70 11/11/71
f 12/25/72 11/16/73 16/90/74 17/106/75
f 13/27/76 12/17/77 17/101/78 19/104/79
f 14/28/80 13/100/81 19/105/82 20/98/83
f 15/29/84 14/108/85 20/99/86 21/88/87
f 11/26/88 15/102/89 21/89/90 16/31/91
f 6/21/92 7/85/93 23/83/94 22/74/95
f 7/20/96 8/84/97 24/80/98 23/82/99
f 8/19/100 9/81/101 25/77/102 24/79/103
f 9/18/104 10/78/105 26/73/106 25/76/107
f 10/22/108 6/86/109 22/75/110 26/72/111
f 22/35/112 23/36/113 28/41/114 27/40/115
f 23/36/116 24/37/117 32/47/118
f 24/37/119 25/38/120 30/43/121 29/42/122
f 25/38/123 26/39/124 31/44/125 30/43/126
f 26/39/127 22/35/128 27/40/129 31/44/130
f 57/69/131 58/70/132 51/45/133
f 58/70/134 59/71/135 52/46/136 51/45/137
f 59/71/138 54/66/139 52/46/140
f 23/36/141 32/47/142 28/41/143
f 32/47/144 24/37/145 29/42/146
f 32/47/147 29/42/148 34/49/149 33/48/150
f 29/42/151 30/43/152 35/50/153 34/49/154
f 30/43/155 31/44/156 36/51/157 35/50/158
f 31/44/159 27/40/160 37/52/161 36/51/162
f 27/40/163 28/41/164 38/53/165 37/52/166
f 28/41/167 32/47/168 33/48/169 38/53/170
f 33/48/171 34/49/172 40/55/173 39/54/174
f 34/49/175 35/50/176 41/56/177 40/55/178
f 35/50/179 36/51/180 42/57/181 41/56/182
f 36/51/183 37/52/184 43/58/185 42/57/186
f 37/52/187 38/53/188 44/59/189 43/58/190
f 38/53/191 33/48/192 39/54/193 44/59/194
f 39/54/195 40/55/196 46/61/197 45/60/198
f 40/55/199 41/56/200 47/62/201 46/61/202
f 41/56/203 42/57/204 48/63/205 47/62/206
f 42/57/207 43/58/208 49/64/209 48/63/210
f 43/58/211 44/59/212 50/65/213 49/64/214
f 44/59/215 39/54/216 45/60/217 50/65/218
f 45/60/219 46/61/220 55/67/221 54/66/222
f 46/61/223 47/62/224 56/68/225 55/67/226
f 47/62/227 48/63/228 57/69/229 56/68/230
f 48/63/231 49/64/232 58/70/233 57/69/234
f 49/64/235 50/65/236 59/71/237 58/70/238
f 50/65/239 45/60/240 54/66/241 59/71/242
