# This file uses centimeters as units for non-parametric coordinates.

v 0.063324 -0.179514 0.000298
v 0.071808 -0.155252 0.000298
v 0.063324 -0.179514 0.009758
v 0.071808 -0.155252 0.009758
v -0.310730 -0.049400 0.009758
v -0.302246 -0.025139 0.009758
v -0.310730 -0.049400 0.000298
v -0.302246 -0.025139 0.000298
v 0.298897 0.051013 0.009628
v 0.254532 0.102723 -0.014915
v 0.200935 0.144788 0.009628
v 0.140160 0.175592 -0.014915
v 0.074539 0.193950 0.009628
v 0.006599 0.199139 -0.014915
v -0.061050 0.190983 0.009628
v -0.125801 0.169787 -0.014915
v -0.185181 0.136369 0.009628
v -0.236893 0.091999 -0.014915
v -0.278961 0.038403 0.009628
v -0.309769 -0.022379 0.005943
v -0.062790 -0.119917 0.003403
v -0.052124 -0.106313 0.006195
v -0.043976 -0.092683 0.003944
v -0.030434 -0.082699 0.009628
v -0.016441 -0.078748 0.004257
v -0.002686 -0.072264 0.009628
v 0.013596 -0.068058 0.004219
v 0.028687 -0.068512 0.009628
v 0.042900 -0.068554 0.004395
v 0.058952 -0.075128 0.009628
v 0.074615 -0.088170 0.004471
v 0.088249 -0.101246 0.009628
v 0.022537 -0.150397 0.005280
v 0.008720 0.118249 -0.009125
v 0.011635 0.006812 -0.001144
v -0.044441 0.116085 0.009628
v -0.017860 -0.003816 0.009628
v -0.071793 0.047035 -0.005447
v 0.046242 0.031954 0.009628
v 0.036858 0.094789 -0.000687
v -0.069695 0.088329 0.001015
v -0.047646 0.010782 0.000801
v 0.310730 0.034659 0.005310
v 0.295914 0.055664 0.005310
v 0.310730 0.034659 0.014915
v 0.295914 0.055664 0.014915
v -0.009010 -0.199139 0.014915
v -0.023827 -0.178135 0.014915
v -0.009010 -0.199139 0.005310
v -0.023827 -0.178135 0.005310
vt 0.993339 0.405238
vt 0.993339 0.405238
vt 0.993339 0.405238
vt 0.993339 0.405238
vt 0.993339 0.405238
vt 0.993339 0.405238
vt 0.993339 0.405238
vt 0.993339 0.405238
vt 0.993339 0.405238
vt 0.993339 0.405238
vt 0.993339 0.405238
vt 0.993339 0.405238
vt 0.993339 0.405238
vt 0.993339 0.405238
vt 0.512785 0.422056
vt 0.512785 0.422056
vt 0.512785 0.422056
vt 0.512785 0.422056
vt 0.512785 0.422056
vt 0.512785 0.422056
vt 0.512785 0.422056
vt 0.512785 0.422056
vt 0.512785 0.422056
vt 0.512785 0.422056
vt 0.512785 0.422056
vt 0.775722 0.126052
vt 0.775722 0.126052
vt 0.775722 0.126052
vt 0.775722 0.126052
vt 0.775722 0.126052
vt 0.775722 0.126052
vt 0.775722 0.126052
vt 0.775722 0.126052
vt 0.775722 0.126052
vt 0.512785 0.422056
vt 0.512785 0.422056
vt 0.512785 0.422056
vt 0.512785 0.422056
vt 0.512785 0.422056
vt 0.512785 0.422056
vt 0.512785 0.422056
vt 0.512785 0.422056
vt 0.512785 0.422056
vt 0.512785 0.422056
vt 0.512785 0.422056
vt 0.993184 0.403445
vt 0.993184 0.403445
vt 0.993184 0.403445
vt 0.993184 0.403445
vt 0.993184 0.403445
vt 0.993184 0.403445
vt 0.993184 0.403445
vt 0.993184 0.403445
vt 0.993184 0.403445
vt 0.993184 0.403445
vt 0.993184 0.403445
vt 0.993184 0.403445
vt 0.993184 0.403445
vt 0.512785 0.422056
vt 0.512785 0.422056
vt 0.512785 0.422056
vt 0.512785 0.422056
vt 0.512785 0.422056
vt 0.512785 0.422056
vt 0.512785 0.422056
vt 0.512785 0.422056
vt 0.512785 0.422056
vt 0.512785 0.422056
vt 0.512785 0.422056
vt 0.993339 0.405238
vt 0.993339 0.405238
vt 0.993339 0.405238
vt 0.993339 0.405238
vt 0.993339 0.405238
vt 0.993339 0.405238
vt 0.993339 0.405238
vt 0.993339 0.405238
vt 0.993339 0.405238
vt 0.993339 0.405238
vt 0.993339 0.405238
vt 0.993339 0.405238
vt 0.993339 0.405238
vt 0.993339 0.405238
vn 0.943950 -0.330087 -0.000002
vn 0.943950 -0.330087 -0.000002
vn 0.943950 -0.330087 -0.000002
vn 0.943950 -0.330087 -0.000002
vn 0.000000 0.000000 1.000000
vn 0.000000 0.000000 1.000000
vn 0.000000 0.000000 1.000000
vn 0.000000 0.000000 1.000000
vn -0.943950 0.330088 0.000000
vn -0.943950 0.330088 0.000000
vn -0.943950 0.330088 0.000000
vn -0.943950 0.330088 0.000000
vn 0.000000 0.000000 -1.000000
vn 0.000000 0.000000 -1.000000
vn 0.000000 0.000000 -1.000000
vn 0.000000 0.000000 -1.000000
vn 0.328537 0.944491 0.000006
vn 0.328537 0.944491 0.000006
vn 0.328537 0.944491 0.000006
vn 0.328537 0.944491 0.000006
vn -0.328537 -0.944491 0.000000
vn -0.328537 -0.944491 0.000000
vn -0.328537 -0.944491 0.000000
vn -0.328537 -0.944491 0.000000
vn -0.186928 0.266179 0.945625
vn -0.186928 0.266179 0.945625
vn -0.186928 0.266179 0.945625
vn -0.186928 0.266179 0.945625
vn 0.272161 -0.168552 0.947375
vn 0.272161 -0.168552 0.947375
vn 0.272161 -0.168552 0.947375
vn 0.272161 -0.168552 0.947375
vn -0.277072 0.182099 0.943436
vn -0.277072 0.182099 0.943436
vn -0.277072 0.182099 0.943436
vn -0.277072 0.182099 0.943436
vn 0.336838 -0.059335 0.939691
vn 0.336838 -0.059335 0.939691
vn 0.336838 -0.059335 0.939691
vn 0.336838 -0.059335 0.939691
vn 0.336838 -0.059335 0.939691
vn -0.315677 0.068405 0.946398
vn -0.335253 0.058554 0.940307
vn -0.344811 0.053704 0.937135
vn -0.319530 0.066492 0.945240
vn 0.328064 0.074370 0.941723
vn 0.328291 0.074401 0.941642
vn 0.321288 0.073620 0.944116
vn 0.322713 0.073753 0.943619
vn -0.337120 -0.070240 0.938838
vn -0.331027 -0.072166 0.940858
vn -0.317978 -0.076610 0.944998
vn -0.319158 -0.079775 0.944338
vn -0.325695 -0.079881 0.942094
vn 0.282054 0.197796 0.938788
vn 0.282054 0.197796 0.938788
vn 0.282054 0.197796 0.938788
vn 0.282054 0.197796 0.938788
vn 0.282054 0.197796 0.938788
vn -0.275372 -0.193129 0.941738
vn -0.275372 -0.193129 0.941738
vn -0.275372 -0.193129 0.941738
vn -0.275372 -0.193129 0.941738
vn 0.165738 0.255805 0.952415
vn 0.165738 0.255805 0.952415
vn 0.165738 0.255805 0.952415
vn 0.165738 0.255805 0.952415
vn -0.024761 -0.073014 0.997024
vn -0.024761 -0.073014 0.997024
vn -0.024761 -0.073014 0.997024
vn -0.024761 -0.073014 0.997024
vn -0.073474 -0.144929 0.986710
vn -0.073474 -0.144929 0.986710
vn -0.073474 -0.144929 0.986710
vn 0.080318 0.115468 0.990059
vn 0.080318 0.115468 0.990059
vn 0.080318 0.115468 0.990059
vn -0.223351 -0.235523 0.945856
vn -0.223351 -0.235523 0.945856
vn -0.223351 -0.235523 0.945856
vn 0.307590 0.180666 0.934210
vn 0.307590 0.180666 0.934210
vn 0.307590 0.180666 0.934210
vn -0.298072 -0.148703 0.942890
vn -0.298072 -0.148703 0.942890
vn -0.298072 -0.148703 0.942890
vn 0.304409 0.045312 0.951463
vn 0.304409 0.045312 0.951463
vn 0.304409 0.045312 0.951463
vn -0.337974 -0.024585 0.940834
vn -0.337974 -0.024585 0.940834
vn -0.337974 -0.024585 0.940834
vn 0.344355 -0.075558 0.935794
vn 0.344355 -0.075558 0.935794
vn 0.344355 -0.075558 0.935794
vn -0.279292 0.079837 0.956882
vn -0.279292 0.079837 0.956882
vn -0.279292 0.079837 0.956882
vn 0.194297 -0.150010 0.969405
vn 0.194297 -0.150010 0.969405
vn 0.194297 -0.150010 0.969405
vn -0.195763 0.176372 0.964660
vn -0.195763 0.176372 0.964660
vn -0.195763 0.176372 0.964660
vn 0.330764 0.074735 0.940749
vn 0.330764 0.074735 0.940750
vn 0.328291 0.074401 0.941642
vn 0.328064 0.074370 0.941723
vn -0.345036 -0.067726 0.936143
vn -0.345036 -0.067726 0.936143
vn -0.317978 -0.076610 0.944998
vn -0.331027 -0.072166 0.940858
vn -0.337120 -0.070240 0.938838
vn -0.325695 -0.079881 0.942094
vn -0.319158 -0.079775 0.944338
vn -0.317978 -0.076610 0.944998
vn -0.337670 -0.080065 0.937853
vn -0.337670 -0.080065 0.937853
vn 0.322713 0.073753 0.943619
vn 0.321288 0.073620 0.944116
vn 0.311386 0.072689 0.947499
vn 0.311386 0.072689 0.947499
vn -0.315677 0.068405 0.946398
vn -0.319530 0.066492 0.945240
vn -0.335269 0.058582 0.940299
vn -0.335269 0.058582 0.940299
vn -0.352901 0.049577 0.934346
vn -0.352901 0.049577 0.934346
vn -0.344811 0.053704 0.937135
vn -0.335253 0.058554 0.940307
vn -0.315677 0.068405 0.946398
vn 0.817164 0.576406 0.000000
vn 0.817164 0.576406 0.000000
vn 0.817164 0.576406 0.000000
vn 0.817164 0.576406 0.000000
vn 0.000000 0.000000 1.000000
vn 0.000000 0.000000 1.000000
vn 0.000000 0.000000 1.000000
vn 0.000000 0.000000 1.000000
vn -0.817164 -0.576405 0.000000
vn -0.817164 -0.576405 0.000000
vn -0.817164 -0.576405 0.000000
vn -0.817164 -0.576405 0.000000
vn 0.000000 0.000000 -1.000000
vn 0.000000 0.000000 -1.000000
vn 0.000000 0.000000 -1.000000
vn 0.000000 0.000000 -1.000000
vn -0.590250 0.807220 0.000000
vn -0.590250 0.807220 0.000000
vn -0.590250 0.807220 0.000000
vn -0.590250 0.807220 0.000000
vn 0.590250 -0.807220 0.000000
vn 0.590250 -0.807220 0.000000
vn 0.590250 -0.807220 0.000000
vn 0.590250 -0.807220 0.000000
s off
f 1/1/1 2/2/2 4/4/3 3/3/4
f 3/3/5 4/4/6 6/6/7 5/5/8
f 5/5/9 6/6/10 8/8/11 7/7/12
f 7/7/13 8/8/14 2/10/15 1/9/16
f 2/2/17 8/11/18 6/12/19 4/4/20
f 7/13/21 1/1/22 3/3/23 5/14/24
f 9/15/25 10/16/26 31/17/27 32/18/28
f 10/16/29 11/19/30 30/20/31 31/17/32
f 11/19/33 12/21/34 29/22/35 30/20/36
f 12/21/37 13/23/38 39/24/39 28/25/40 29/22/41
f 39/26/42 40/27/43 34/28/44 35/29/45
f 34/28/46 36/30/47 37/31/48 35/29/49
f 36/30/50 41/32/51 38/33/52 42/34/53 37/31/54
f 16/35/55 17/36/56 24/37/57 25/38/58 38/39/59
f 17/36/60 18/40/61 23/41/62 24/37/63
f 18/40/64 19/42/65 22/43/66 23/41/67
f 19/42/68 20/44/69 21/45/70 22/43/71
f 22/46/72 21/47/73 33/48/74
f 23/49/75 22/46/76 33/48/77
f 24/50/78 23/49/79 33/48/80
f 25/51/81 24/50/82 33/48/83
f 26/52/84 25/51/85 33/48/86
f 27/53/87 26/52/88 33/48/89
f 28/54/90 27/53/91 33/48/92
f 29/55/93 28/54/94 33/48/95
f 30/56/96 29/55/97 33/48/98
f 31/57/99 30/56/100 33/48/101
f 32/58/102 31/57/103 33/48/104
f 14/59/105 15/60/106 36/61/107 34/62/108
f 15/60/109 16/35/110 38/39/111 41/63/112 36/61/113
f 37/64/114 42/65/115 38/39/116 25/38/117 26/66/118
f 35/67/119 37/64/120 26/66/121 27/68/122
f 39/24/123 35/67/124 27/68/125 28/25/126
f 13/23/127 14/59/128 34/62/129 40/69/130 39/24/131
f 43/70/132 44/71/133 46/72/134 45/73/135
f 45/73/136 46/72/137 48/74/138 47/75/139
f 47/75/140 48/74/141 50/76/142 49/77/143
f 49/77/144 50/76/145 44/78/146 43/79/147
f 44/71/148 50/80/149 48/81/150 46/72/151
f 49/82/152 43/70/153 45/73/154 47/83/155
