# This file uses centimeters as units for non-parametric coordinates.

v 0.142821 0.000000 -0.352521
v -0.271592 0.000000 -0.217869
v -0.271592 0.000000 0.217869
v 0.142821 0.000000 0.352521
v 0.398942 0.000000 -0.000000
v 0.142821 0.161576 -0.352521
v -0.271592 0.161576 -0.217869
v -0.271592 0.161576 0.217869
v 0.142821 0.161576 0.352521
v 0.398942 0.161576 -0.000000
v 0.028280 0.000000 -0.000000
v 0.125546 0.000000 -0.572211
v -0.386748 0.000000 -0.405751
v -0.386748 0.099836 -0.405751
v 0.125546 0.099836 -0.572211
v -0.485866 0.000000 -0.269326
v -0.485866 0.000000 0.269332
v -0.485866 0.095824 0.269332
v -0.485866 0.095824 -0.269326
v -0.386748 0.000000 0.405751
v 0.125546 0.000000 0.572211
v 0.125546 0.100029 0.572211
v -0.386748 0.100029 0.405751
v 0.285925 0.000000 0.520098
v 0.602541 0.000000 0.084317
v 0.602541 0.161576 0.084317
v 0.285925 0.161576 0.520098
v 0.602541 0.000000 -0.084317
v 0.285925 0.000000 -0.520098
v 0.285925 0.072344 -0.520098
v 0.602541 0.072344 -0.084317
v -0.063237 0.000000 -0.700938
v -0.309684 0.000000 -0.620860
v -0.309684 0.099836 -0.620860
v -0.063237 0.099836 -0.700938
v -0.666630 0.000000 -0.129559
v -0.666630 0.000000 0.129570
v -0.666630 0.095824 0.129570
v -0.666630 0.095824 -0.129559
v -0.309685 0.000000 0.620860
v -0.063235 0.000000 0.700938
v -0.063235 0.100029 0.700938
v -0.309685 0.100029 0.620860
v 0.514317 0.000000 0.513277
v 0.666630 0.000000 0.303640
v 0.666630 0.161576 0.303640
v 0.514317 0.161576 0.513277
v 0.666630 0.000000 -0.303640
v 0.514317 0.000000 -0.513282
v 0.514317 0.072344 -0.513282
v 0.666630 0.072344 -0.303640
v 0.117415 0.084980 -0.239358
v -0.163968 0.084980 -0.147932
v -0.163968 0.084980 0.147932
v 0.117415 0.084980 0.239358
v 0.291318 0.084980 -0.000000
v 0.079301 0.084980 -0.116485
v -0.059672 0.084980 -0.071330
v -0.059672 0.084980 0.074797
v 0.079301 0.084980 0.119952
v 0.165190 0.084980 0.001733
v 0.069712 0.153956 -0.073778
v -0.019056 0.153956 -0.044936
v 0.047758 0.153956 0.001733
v -0.019056 0.153956 0.048402
v 0.069712 0.153956 0.077245
v 0.124573 0.153956 0.001733
v 0.126131 0.135967 -0.278180
v 0.328240 0.135967 -0.000000
v 0.126131 0.135967 0.278180
v -0.200890 0.135967 0.171924
v -0.200890 0.135967 -0.171924
v 0.438776 0.161576 0.400325
v 0.418932 0.091568 0.495677
v 0.417900 0.000000 0.495708
v -0.135202 0.161576 -0.262185
v -0.111500 0.135967 -0.226791
v -0.099913 0.084980 -0.194566
v -0.004080 0.135967 -0.210211
v 0.008008 0.084980 -0.177137
v -0.330999 0.161576 0.423865
v -0.266304 0.100029 0.634955
v -0.326096 0.100029 0.575050
v -0.280129 0.161576 0.589848
v -0.022123 0.100029 0.672905
v -0.131214 0.100029 0.678849
v -0.072671 0.161576 0.656633
v 0.072944 0.161576 0.555119
v -0.326778 0.161576 -0.425237
v 0.076846 0.161576 -0.556386
v -0.019770 0.099836 -0.671299
v -0.323341 0.099836 -0.582738
v -0.079615 0.161576 -0.653840
v -0.281515 0.161576 -0.594940
v -0.119705 0.099836 -0.682590
v -0.254432 0.099836 -0.638812
v -0.485866 0.161576 -0.226682
v -0.666630 0.095824 -0.070496
v -0.666630 0.095824 0.078887
v -0.485866 0.161576 0.208044
v -0.628250 0.095824 -0.159234
v -0.627909 0.161576 -0.103952
v -0.626603 0.161576 0.107487
v -0.626274 0.095824 0.160772
v 0.574667 0.161576 -0.122682
v 0.638913 0.072344 -0.341790
v 0.538748 0.072344 -0.479655
v 0.315641 0.161576 -0.479197
v 0.655473 0.072344 -0.265458
v 0.627835 0.161576 -0.304009
v 0.501963 0.161576 -0.479579
v 0.477002 0.072344 -0.514396
vt 0.851310 0.512342
vt 0.851310 0.512342
vt 0.851310 0.512342
vt 0.851310 0.512342
vt 0.851310 0.512342
vt 0.851310 0.512342
vt 0.851310 0.512342
vt 0.851310 0.512342
vt 0.851310 0.512342
vt 0.851310 0.512342
vt 0.851310 0.512342
vt 0.851310 0.512342
vt 0.851310 0.512342
vt 0.851310 0.512342
vt 0.851310 0.512342
vt 0.851310 0.512342
vt 0.851310 0.512342
vt 0.851310 0.512342
vt 0.851310 0.512342
vt 0.851310 0.512342
vt 0.851310 0.512342
vt 0.851310 0.512342
vt 0.851310 0.512342
vt 0.851310 0.512342
vt 0.851310 0.512342
vt 0.851310 0.512342
vt 0.851310 0.512342
vt 0.851310 0.512342
vt 0.851310 0.512342
vt 0.851310 0.512342
vt 0.851310 0.512342
vt 0.851310 0.512342
vt 0.851310 0.512342
vt 0.851310 0.512342
vt 0.851310 0.512342
vt 0.851310 0.512342
vt 0.851310 0.512342
vt 0.851310 0.512342
vt 0.851310 0.512342
vt 0.851310 0.512342
vt 0.851310 0.512342
vt 0.851310 0.512342
vt 0.851310 0.512342
vt 0.851310 0.512342
vt 0.851310 0.512342
vt 0.851310 0.512342
vt 0.851310 0.512342
vt 0.851310 0.512342
vt 0.851310 0.512342
vt 0.851310 0.512342
vt 0.851310 0.512342
vt 0.851310 0.512342
vt 0.851310 0.512342
vt 0.851310 0.512342
vt 0.851310 0.512342
vt 0.851310 0.512342
vt 0.851310 0.512342
vt 0.851310 0.512342
vt 0.851310 0.512342
vt 0.851310 0.512342
vt 0.851310 0.512342
vt 0.851310 0.512342
vt 0.851310 0.512342
vt 0.851310 0.512342
vt 0.851310 0.512342
vt 0.851310 0.512342
vt 0.851310 0.512342
vt 0.851310 0.512342
vt 0.851310 0.512342
vt 0.851310 0.512342
vt 0.851310 0.512342
vt 0.851310 0.512342
vt 0.851310 0.512342
vt 0.851310 0.512342
vt 0.851310 0.512342
vt 0.851310 0.512342
vt 0.851310 0.512342
vt 0.851310 0.512342
vt 0.851310 0.512342
vt 0.851310 0.512342
vt 0.851310 0.512342
vt 0.851310 0.512342
vt 0.851310 0.512342
vt 0.851310 0.512342
vt 0.851310 0.512342
vt 0.851310 0.512342
vt 0.851310 0.512342
vt 0.851310 0.512342
vt 0.851310 0.512342
vt 0.851310 0.512342
vt 0.851310 0.512342
vt 0.851310 0.512342
vt 0.851310 0.512342
vt 0.851310 0.512342
vt 0.851310 0.512342
vt 0.851310 0.512342
vt 0.851310 0.512342
vt 0.851310 0.512342
vt 0.851310 0.512342
vt 0.851310 0.512342
vt 0.851310 0.512342
vt 0.851310 0.512342
vt 0.851310 0.512342
vt 0.851310 0.512342
vt 0.851310 0.512342
vt 0.851310 0.512342
vt 0.851310 0.512342
vt 0.851310 0.512342
vt 0.851310 0.512342
vt 0.851310 0.512342
vt 0.851310 0.512342
vt 0.851310 0.512342
vt 0.851310 0.512342
vt 0.851310 0.512342
vt 0.851310 0.512342
vt 0.851310 0.512342
vt 0.851310 0.512342
vt 0.851310 0.512342
vt 0.851310 0.512342
vt 0.851310 0.512342
vt 0.851310 0.512342
vt 0.851310 0.512342
vt 0.851310 0.512342
vt 0.851310 0.512342
vt 0.851310 0.512342
vn -0.309027 0.000000 -0.951053
vn -0.309027 0.000000 -0.951053
vn -0.309027 0.000000 -0.951053
vn -0.309027 0.000000 -0.951053
vn -0.309027 0.000000 -0.951053
vn -0.309027 0.000000 -0.951053
vn -1.000000 0.000000 0.000000
vn -1.000000 0.000000 0.000000
vn -1.000000 0.000000 0.000000
vn -1.000000 0.000000 0.000000
vn -1.000000 0.000000 0.000000
vn -1.000000 0.000000 0.000000
vn -0.309022 0.000000 0.951055
vn -0.309022 0.000000 0.951055
vn -0.309022 0.000000 0.951055
vn -0.309022 0.000000 0.951055
vn -0.309022 0.000000 0.951055
vn -0.309022 0.000000 0.951055
vn 0.809011 0.000000 0.587794
vn 0.809011 0.000000 0.587794
vn 0.809011 0.000000 0.587794
vn 0.809011 0.000000 0.587794
vn 0.809018 0.000000 -0.587784
vn 0.809018 0.000000 -0.587784
vn 0.809018 0.000000 -0.587784
vn 0.809018 0.000000 -0.587784
vn 0.809018 0.000000 -0.587784
vn 0.809018 0.000000 -0.587784
vn 0.000000 -1.000000 0.000000
vn 0.000000 -1.000000 0.000000
vn 0.000000 -1.000000 0.000000
vn 0.000000 -1.000000 0.000000
vn 0.000000 -1.000000 0.000000
vn 0.000000 -1.000000 0.000000
vn 0.000000 -1.000000 0.000000
vn 0.000000 -1.000000 0.000000
vn 0.000000 -1.000000 0.000000
vn 0.000000 -1.000000 0.000000
vn 0.000000 -1.000000 0.000000
vn 0.000000 -1.000000 0.000000
vn 0.000000 -1.000000 0.000000
vn 0.000000 -1.000000 0.000000
vn 0.000000 -1.000000 0.000000
vn 0.000000 1.000000 0.000000
vn 0.000000 1.000000 0.000000
vn 0.000000 1.000000 0.000000
vn 0.000000 1.000000 0.000000
vn 0.000000 1.000000 0.000000
vn 0.000000 1.000000 0.000000
vn 0.000000 1.000000 0.000000
vn 0.000000 1.000000 0.000000
vn 0.000000 1.000000 0.000000
vn 0.000000 1.000000 0.000000
vn 0.000000 1.000000 0.000000
vn 0.000000 1.000000 0.000000
vn 0.000000 1.000000 0.000000
vn 0.000000 1.000000 0.000000
vn 0.000000 1.000000 0.000000
vn 0.000000 -1.000000 0.000000
vn 0.000000 -1.000000 0.000000
vn 0.000000 -1.000000 0.000000
vn 0.000000 -1.000000 0.000000
vn -0.852596 0.000000 0.522571
vn -0.852596 0.000000 0.522571
vn -0.852596 0.000000 0.522571
vn -0.852596 0.000000 0.522571
vn -0.676583 0.714014 0.180056
vn -0.676583 0.714014 0.180056
vn -0.676583 0.714014 0.180056
vn 0.996923 0.000000 -0.078389
vn 0.996923 0.000000 -0.078389
vn 0.996923 0.000000 -0.078389
vn 0.996923 0.000000 -0.078389
vn 0.000000 -1.000000 0.000000
vn 0.000000 -1.000000 0.000000
vn 0.000000 -1.000000 0.000000
vn 0.000000 -1.000000 0.000000
vn 0.233530 0.000000 0.972350
vn 0.233530 0.000000 0.972350
vn 0.233530 0.000000 0.972350
vn 0.233530 0.000000 0.972350
vn 0.000000 1.000000 0.000000
vn 0.000000 1.000000 0.000000
vn 0.000000 1.000000 0.000000
vn 0.000000 1.000000 0.000000
vn 0.233506 0.000000 -0.972355
vn 0.233506 0.000000 -0.972355
vn 0.233506 0.000000 -0.972355
vn 0.233506 0.000000 -0.972355
vn 0.000000 -1.000000 0.000000
vn 0.000000 -1.000000 0.000000
vn 0.000000 -1.000000 0.000000
vn 0.000000 -1.000000 0.000000
vn 0.996923 0.000000 0.078389
vn 0.996923 0.000000 0.078389
vn 0.996923 0.000000 0.078389
vn 0.996923 0.000000 0.078389
vn 0.000000 1.000000 -0.000000
vn 0.000000 1.000000 -0.000000
vn 0.000000 1.000000 -0.000000
vn 0.000000 1.000000 -0.000000
vn -0.852596 0.000000 -0.522571
vn -0.852596 0.000000 -0.522571
vn -0.852596 0.000000 -0.522571
vn -0.852596 0.000000 -0.522571
vn 0.000000 -1.000000 0.000000
vn 0.000000 -1.000000 0.000000
vn 0.000000 -1.000000 0.000000
vn 0.000000 -1.000000 0.000000
vn 0.382621 0.000000 -0.923905
vn 0.382621 0.000000 -0.923905
vn 0.382621 0.000000 -0.923905
vn 0.382621 0.000000 -0.923905
vn 0.000000 1.000000 0.000000
vn 0.000000 1.000000 0.000000
vn 0.000000 1.000000 0.000000
vn 0.000000 1.000000 0.000000
vn 0.000000 1.000000 0.000000
vn -0.760451 0.000000 0.649395
vn -0.760451 0.000000 0.649395
vn -0.760451 0.000000 0.649395
vn -0.760451 0.000000 0.649395
vn 0.000000 -1.000000 0.000000
vn 0.000000 -1.000000 0.000000
vn 0.000000 -1.000000 0.000000
vn 0.000000 -1.000000 0.000000
vn -0.760451 0.000000 -0.649395
vn -0.760451 0.000000 -0.649395
vn -0.760451 0.000000 -0.649395
vn -0.760451 0.000000 -0.649395
vn 0.000000 1.000000 0.000000
vn 0.000000 1.000000 0.000000
vn 0.000000 1.000000 0.000000
vn 0.000000 1.000000 0.000000
vn 0.382621 0.000000 0.923905
vn 0.382621 0.000000 0.923905
vn 0.382621 0.000000 0.923905
vn 0.382621 0.000000 0.923905
vn 0.000000 -1.000000 0.000000
vn 0.000000 -1.000000 0.000000
vn 0.000000 -1.000000 0.000000
vn 0.000000 -1.000000 0.000000
vn -0.941410 0.000000 -0.337264
vn -0.941410 0.000000 -0.337264
vn -0.941410 0.000000 -0.337264
vn -0.941410 0.000000 -0.337264
vn -0.941410 0.000000 -0.337264
vn 0.000000 1.000000 -0.000000
vn 0.000000 1.000000 -0.000000
vn 0.000000 1.000000 -0.000000
vn 0.000000 1.000000 -0.000000
vn 0.563369 -0.000000 -0.826205
vn 0.563369 -0.000000 -0.826205
vn 0.563369 -0.000000 -0.826205
vn 0.563369 -0.000000 -0.826205
vn 0.563369 -0.000000 -0.826205
vn 0.000000 -1.000000 0.000000
vn 0.000000 -1.000000 0.000000
vn 0.000000 -1.000000 0.000000
vn 0.000000 -1.000000 0.000000
vn -0.611668 0.000000 0.791114
vn -0.611668 0.000000 0.791114
vn -0.611668 0.000000 0.791114
vn -0.611668 0.000000 0.791114
vn -0.611668 0.000000 0.791114
vn 0.000000 1.000000 0.000000
vn 0.000000 1.000000 0.000000
vn 0.000000 1.000000 0.000000
vn 0.000000 1.000000 0.000000
vn -0.611684 -0.000000 -0.791102
vn -0.611684 -0.000000 -0.791102
vn -0.611684 -0.000000 -0.791102
vn -0.611684 -0.000000 -0.791102
vn -0.611684 -0.000000 -0.791102
vn 0.000000 -1.000000 0.000000
vn 0.000000 -1.000000 0.000000
vn 0.000000 -1.000000 0.000000
vn 0.000000 -1.000000 0.000000
vn 0.563375 -0.000000 0.826201
vn 0.563375 -0.000000 0.826201
vn 0.563375 -0.000000 0.826201
vn 0.563375 -0.000000 0.826201
vn 0.563375 -0.000000 0.826201
vn 0.000000 1.000000 0.000000
vn 0.000000 1.000000 0.000000
vn 0.000000 1.000000 0.000000
vn 0.000000 1.000000 0.000000
vn -0.941412 0.000000 0.337259
vn -0.941412 0.000000 0.337259
vn -0.941412 0.000000 0.337259
vn -0.941412 0.000000 0.337259
vn -0.941412 0.000000 0.337259
vn 0.000000 -1.000000 0.000000
vn 0.000000 -1.000000 0.000000
vn 0.000000 -1.000000 0.000000
vn 0.000000 -1.000000 0.000000
vn 0.000000 -1.000000 0.000000
vn 0.959858 0.000000 -0.280485
vn 0.959858 0.000000 -0.280485
vn 0.959858 0.000000 -0.280485
vn 0.959858 0.000000 -0.280485
vn 0.000000 1.000000 0.000000
vn 0.000000 1.000000 0.000000
vn 0.000000 1.000000 0.000000
vn 0.000000 1.000000 0.000000
vn -0.180651 0.000856 0.983547
vn -0.180651 0.000856 0.983547
vn -0.180651 0.000856 0.983547
vn -0.180651 0.000856 0.983547
vn 0.000000 -1.000000 0.000000
vn 0.000000 -1.000000 0.000000
vn 0.000000 -1.000000 0.000000
vn 0.000000 -1.000000 0.000000
vn 0.029827 -0.000000 -0.999555
vn 0.029827 -0.000000 -0.999555
vn 0.029827 -0.000000 -0.999555
vn 0.029827 -0.000000 -0.999555
vn 0.029827 -0.000000 -0.999555
vn 0.000000 1.000000 -0.000000
vn 0.000000 1.000000 -0.000000
vn 0.000000 1.000000 -0.000000
vn 0.000000 1.000000 -0.000000
vn 0.959858 0.000000 0.280485
vn 0.959858 0.000000 0.280485
vn 0.959858 0.000000 0.280485
vn 0.959858 0.000000 0.280485
vn 0.959858 0.000000 0.280485
vn 0.089336 0.941470 0.325043
vn 0.089336 0.941470 0.325043
vn 0.089336 0.941470 0.325043
vn 0.089336 0.941470 0.325043
vn 0.089336 0.941470 0.325043
vn 0.340565 0.940221 0.000000
vn 0.340565 0.940221 0.000000
vn 0.340565 0.940221 0.000000
vn 0.340565 0.940221 0.000000
vn 0.112461 0.931427 -0.346117
vn 0.112461 0.931427 -0.346117
vn 0.112461 0.931427 -0.346117
vn 0.112461 0.931427 -0.346117
vn -0.330596 0.912696 -0.240192
vn -0.330596 0.912696 -0.240192
vn -0.330596 0.912696 -0.240192
vn -0.330596 0.912696 -0.240192
vn -0.330596 0.912696 0.240192
vn -0.330596 0.912696 0.240192
vn -0.330596 0.912696 0.240192
vn -0.330596 0.912696 0.240192
vn 0.000000 1.000000 0.000000
vn 0.000000 1.000000 0.000000
vn 0.000000 1.000000 0.000000
vn 0.000000 1.000000 0.000000
vn 0.000000 1.000000 0.000000
vn 0.000000 1.000000 0.000000
vn 0.000000 1.000000 0.000000
vn 0.000000 1.000000 0.000000
vn 0.000000 1.000000 0.000000
vn 0.000000 1.000000 0.000000
vn 0.000000 1.000000 -0.000000
vn 0.000000 1.000000 -0.000000
vn 0.000000 1.000000 -0.000000
vn 0.000000 1.000000 -0.000000
vn 0.000000 1.000000 0.000000
vn 0.000000 1.000000 0.000000
vn 0.000000 1.000000 0.000000
vn 0.000000 1.000000 0.000000
vn 0.000000 1.000000 -0.000000
vn 0.000000 1.000000 -0.000000
vn 0.000000 1.000000 -0.000000
vn 0.000000 1.000000 -0.000000
vn -0.271234 0.479152 -0.834773
vn -0.271234 0.479152 -0.834773
vn -0.271234 0.479152 -0.834773
vn -0.271234 0.479152 -0.834773
vn -0.861704 0.507412 0.000000
vn -0.861704 0.507412 0.000000
vn -0.861704 0.507412 0.000000
vn -0.861704 0.507412 0.000000
vn -0.271234 0.479152 0.834773
vn -0.271234 0.479152 0.834773
vn -0.271234 0.479152 0.834773
vn -0.271234 0.479152 0.834773
vn 0.730379 0.430081 0.530638
vn 0.730379 0.430081 0.530638
vn 0.730379 0.430081 0.530638
vn 0.730379 0.430081 0.530638
vn 0.730379 0.430081 -0.530638
vn 0.730379 0.430081 -0.530638
vn 0.730379 0.430081 -0.530638
vn 0.730379 0.430081 -0.530638
vn -0.698050 0.505485 0.507161
vn -0.698050 0.505485 0.507161
vn -0.698050 0.505484 0.507161
vn -0.698050 0.505485 0.507161
vn -0.698050 0.505485 -0.507161
vn -0.698050 0.505485 -0.507161
vn -0.698050 0.505485 -0.507161
vn -0.698050 0.505485 -0.507161
vn 0.256567 0.557369 -0.789629
vn 0.256566 0.557369 -0.789629
vn 0.256567 0.557369 -0.789629
vn 0.256566 0.557369 -0.789629
vn 0.809941 0.586512 0.000000
vn 0.809941 0.586512 0.000000
vn 0.809941 0.586512 0.000000
vn 0.809941 0.586512 0.000000
vn 0.402970 0.536228 0.741670
vn 0.402970 0.536228 0.741670
vn 0.402970 0.536228 0.741670
vn 0.402970 0.536228 0.741670
vn 0.459079 0.667837 0.585867
vn 0.459079 0.667837 0.585867
vn 0.459079 0.667837 0.585867
vn -0.589895 0.704542 0.394518
vn -0.589895 0.704542 0.394518
vn -0.589895 0.704542 0.394518
vn 0.180994 -0.000618 0.983484
vn 0.180994 -0.000618 0.983484
vn 0.180994 -0.000618 0.983484
vn 0.180994 -0.000618 0.983484
vn 0.166727 0.910029 0.379539
vn 0.166727 0.910029 0.379539
vn 0.166727 0.910029 0.379539
vn 0.166727 0.910029 0.379539
vn 0.447250 0.585503 0.676132
vn 0.447250 0.585503 0.676132
vn 0.447250 0.585503 0.676132
vn 0.447250 0.585503 0.676132
vn -0.133985 0.512149 0.848382
vn -0.133985 0.512149 0.848381
vn -0.133985 0.512149 0.848381
vn -0.133985 0.512149 0.848382
vn -0.695962 0.689458 -0.200710
vn -0.695962 0.689458 -0.200710
vn -0.695962 0.689458 -0.200710
vn -0.777469 0.573295 0.258602
vn -0.777469 0.573295 0.258602
vn -0.777469 0.573295 0.258602
vn -0.777469 0.573295 0.258602
vn -0.580964 0.571167 0.579870
vn -0.580964 0.571167 0.579870
vn -0.580964 0.571167 0.579870
vn -0.580964 0.571167 0.579870
vn -0.259885 0.534325 0.804336
vn -0.259885 0.534325 0.804336
vn -0.259885 0.534325 0.804336
vn -0.259885 0.534325 0.804336
vn 0.044008 0.588096 0.807593
vn 0.044008 0.588096 0.807593
vn 0.044008 0.588096 0.807593
vn 0.044008 0.588096 0.807593
vn 0.465278 0.572800 0.674845
vn 0.465278 0.572800 0.674845
vn 0.465278 0.572800 0.674845
vn 0.465278 0.572800 0.674845
vn 0.703198 0.668349 0.242535
vn 0.703198 0.668349 0.242535
vn 0.703198 0.668348 0.242535
vn 0.000000 1.000000 0.000000
vn 0.000000 1.000000 0.000000
vn 0.000000 1.000000 0.000000
vn 0.000000 1.000000 0.000000
vn 0.000000 1.000000 0.000000
vn 0.732319 0.638392 -0.236992
vn 0.732319 0.638392 -0.236992
vn 0.732319 0.638392 -0.236992
vn -0.537975 0.522994 -0.661106
vn -0.537975 0.522994 -0.661106
vn -0.537975 0.522994 -0.661106
vn -0.537975 0.522994 -0.661106
vn 0.445913 0.576527 -0.684674
vn 0.445913 0.576527 -0.684674
vn 0.445913 0.576527 -0.684674
vn 0.445913 0.576527 -0.684674
vn -0.778095 0.578866 -0.243891
vn -0.778095 0.578866 -0.243891
vn -0.778095 0.578866 -0.243891
vn -0.778095 0.578866 -0.243891
vn 0.088190 0.618833 -0.780557
vn 0.088190 0.618833 -0.780557
vn 0.088190 0.618832 -0.780557
vn 0.088190 0.618833 -0.780557
vn -0.250914 0.510235 -0.822619
vn -0.250914 0.510235 -0.822619
vn -0.250914 0.510235 -0.822619
vn -0.250914 0.510235 -0.822619
vn 0.034487 0.543813 -0.838498
vn 0.034487 0.543813 -0.838498
vn 0.034487 0.543813 -0.838498
vn -0.548430 0.500338 -0.669990
vn -0.548430 0.500338 -0.669990
vn -0.548430 0.500338 -0.669990
vn -0.548430 0.500338 -0.669990
vn -0.489486 0.572129 0.658083
vn -0.489486 0.572129 0.658083
vn -0.489486 0.572129 0.658083
vn -0.489486 0.572129 0.658083
vn -0.033522 0.681453 0.731094
vn -0.033522 0.681453 0.731094
vn -0.033522 0.681453 0.731094
vn -0.753646 0.570763 -0.325957
vn -0.753646 0.570763 -0.325957
vn -0.753646 0.570763 -0.325957
vn -0.753646 0.570763 -0.325957
vn -0.857881 0.513839 0.003105
vn -0.857881 0.513839 0.003105
vn -0.857881 0.513839 0.003105
vn -0.857881 0.513839 0.003105
vn -0.736728 0.570436 0.363091
vn -0.736728 0.570436 0.363091
vn -0.736728 0.570436 0.363091
vn -0.736728 0.570436 0.363091
vn 0.505513 0.469217 0.724080
vn 0.505512 0.469217 0.724080
vn 0.505512 0.469217 0.724080
vn 0.884980 0.386918 0.259047
vn 0.884980 0.386918 0.259047
vn 0.884980 0.386918 0.259047
vn 0.884980 0.386918 0.259047
vn 0.012995 0.387160 -0.921921
vn 0.012995 0.387160 -0.921921
vn 0.012995 0.387160 -0.921921
vn 0.012995 0.387160 -0.921921
vn -0.514370 0.492941 -0.701736
vn -0.514370 0.492941 -0.701736
vn -0.514370 0.492941 -0.701736
vn 0.899730 0.390365 -0.195198
vn 0.899730 0.390365 -0.195198
vn 0.899730 0.390365 -0.195198
vn 0.899730 0.390365 -0.195198
vn 0.767541 0.323263 -0.553518
vn 0.767541 0.323263 -0.553518
vn 0.767541 0.323263 -0.553518
vn 0.767541 0.323263 -0.553518
vn 0.455743 0.369034 -0.810007
vn 0.455743 0.369034 -0.810008
vn 0.455743 0.369034 -0.810007
vn 0.455743 0.369034 -0.810007
s off
f 32/45/1 33/46/2 34/47/3 96/109/4 95/108/5 35/48/6
f 36/49/7 37/50/8 38/51/9 99/112/10 98/111/11 39/52/12
f 40/53/13 41/54/14 42/55/15 86/99/16 82/95/17 43/56/18
f 44/57/19 45/58/20 46/59/21 47/60/22
f 48/61/23 49/62/24 50/63/25 107/120/26 106/119/27 51/64/28
f 2/2/29 1/1/30 11/23/31
f 3/3/32 2/2/33 11/23/34
f 4/4/35 3/3/36 11/23/37
f 5/5/38 4/4/39 11/23/40
f 1/1/41 5/5/42 11/23/43
f 62/75/44 63/76/45 64/24/46
f 63/76/47 65/77/48 64/24/49
f 65/77/50 66/78/51 64/24/52
f 66/78/53 67/79/54 64/24/55
f 67/79/56 62/75/57 64/24/58
f 1/6/59 2/7/60 13/26/61 12/25/62
f 2/7/63 7/13/64 14/27/65 13/26/66
f 7/13/67 89/102/68 14/27/69
f 6/12/70 1/6/71 12/25/72 15/28/73
f 2/7/74 3/8/75 17/30/76 16/29/77
f 3/8/78 8/14/79 18/31/80 17/30/81
f 8/14/82 7/13/83 97/110/84 100/113/85
f 7/13/86 2/7/87 16/29/88 19/32/89
f 3/8/90 4/9/91 21/34/92 20/33/93
f 4/9/94 9/15/95 22/35/96 21/34/97
f 9/15/98 8/14/99 81/94/100 88/101/101
f 8/14/102 3/8/103 20/33/104 23/36/105
f 4/9/106 5/10/107 25/38/108 24/37/109
f 5/10/110 10/16/111 26/39/112 25/38/113
f 10/16/114 9/15/115 27/40/116 73/85/117 26/39/118
f 9/15/119 4/9/120 24/37/121 27/40/122
f 5/10/123 1/11/124 29/42/125 28/41/126
f 1/11/127 6/17/128 30/43/129 29/42/130
f 6/17/131 10/16/132 105/118/133 108/121/134
f 10/16/135 5/10/136 28/41/137 31/44/138
f 12/25/139 13/26/140 33/46/141 32/45/142
f 13/26/143 14/27/144 92/105/145 34/47/146 33/46/147
f 94/107/148 89/102/149 90/103/150 93/106/151
f 15/28/152 12/25/153 32/45/154 35/48/155 91/104/156
f 16/29/157 17/30/158 37/50/159 36/49/160
f 17/30/161 18/31/162 104/117/163 38/51/164 37/50/165
f 102/115/166 103/116/167 100/113/168 97/110/169
f 19/32/170 16/29/171 36/49/172 39/52/173 101/114/174
f 20/33/175 21/34/176 41/54/177 40/53/178
f 21/34/179 22/35/180 85/98/181 42/55/182 41/54/183
f 87/100/184 88/101/185 81/94/186 84/97/187
f 23/36/188 20/33/189 40/53/190 43/56/191 83/96/192
f 24/37/193 25/38/194 45/58/195 44/57/196 75/87/197
f 25/38/198 26/39/199 46/59/200 45/58/201
f 26/39/202 73/85/203 47/60/204 46/59/205
f 74/86/206 75/87/207 44/57/208 47/60/209
f 28/41/210 29/42/211 49/62/212 48/61/213
f 29/42/214 30/43/215 112/125/216 50/63/217 49/62/218
f 110/123/219 111/124/220 108/121/221 105/118/222
f 31/44/223 28/41/224 48/61/225 51/64/226 109/122/227
f 6/21/228 76/88/229 77/90/230 79/92/231 68/80/232
f 7/20/233 8/19/234 71/83/235 72/84/236
f 8/19/237 9/18/238 70/82/239 71/83/240
f 9/18/241 10/22/242 69/81/243 70/82/244
f 10/22/245 6/21/246 68/80/247 69/81/248
f 52/65/249 80/93/250 78/91/251 53/66/252 58/71/253 57/70/254
f 53/66/255 54/67/256 59/72/257 58/71/258
f 54/67/259 55/68/260 60/73/261 59/72/262
f 55/68/263 56/69/264 61/74/265 60/73/266
f 56/69/267 52/65/268 57/70/269 61/74/270
f 57/70/271 58/71/272 63/76/273 62/75/274
f 58/71/275 59/72/276 65/77/277 63/76/278
f 59/72/279 60/73/280 66/78/281 65/77/282
f 60/73/283 61/74/284 67/79/285 66/78/286
f 61/74/287 57/70/288 62/75/289 67/79/290
f 69/81/291 68/80/292 52/65/293 56/69/294
f 70/82/295 69/81/296 56/69/297 55/68/298
f 71/83/299 70/82/300 55/68/301 54/67/302
f 72/84/303 71/83/304 54/67/305 53/66/306
f 68/80/307 79/92/308 80/93/309 52/65/310
f 74/86/311 73/85/312 27/40/313
f 47/60/314 73/85/315 74/86/316
f 27/40/317 24/37/318 75/87/319 74/86/320
f 77/90/321 76/88/322 7/20/323 72/84/324
f 78/91/325 77/90/326 72/84/327 53/66/328
f 80/93/329 79/92/330 77/90/331 78/91/332
f 81/94/333 8/14/334 23/36/335
f 83/96/336 84/97/337 81/94/338 23/36/339
f 82/95/340 84/97/341 83/96/342 43/56/343
f 86/99/344 87/100/345 84/97/346 82/95/347
f 85/98/348 87/100/349 86/99/350 42/55/351
f 22/35/352 88/101/353 87/100/354 85/98/355
f 9/15/356 88/101/357 22/35/358
f 7/13/359 76/89/360 6/12/361 90/103/362 89/102/363
f 90/103/364 6/12/365 15/28/366
f 92/105/367 94/107/368 96/109/369 34/47/370
f 93/106/371 90/103/372 15/28/373 91/104/374
f 14/27/375 89/102/376 94/107/377 92/105/378
f 95/108/379 93/106/380 91/104/381 35/48/382
f 96/109/383 94/107/384 93/106/385 95/108/386
f 97/110/387 7/13/388 19/32/389
f 101/114/390 102/115/391 97/110/392 19/32/393
f 18/31/394 100/113/395 103/116/396 104/117/397
f 8/14/398 100/113/399 18/31/400
f 98/111/401 102/115/402 101/114/403 39/52/404
f 99/112/405 103/116/406 102/115/407 98/111/408
f 104/117/409 103/116/410 99/112/411 38/51/412
f 105/118/413 10/16/414 31/44/415
f 109/122/416 110/123/417 105/118/418 31/44/419
f 30/43/420 108/121/421 111/124/422 112/125/423
f 6/17/424 108/121/425 30/43/426
f 106/119/427 110/123/428 109/122/429 51/64/430
f 107/120/431 111/124/432 110/123/433 106/119/434
f 112/125/435 111/124/436 107/120/437 50/63/438
