# This file uses centimeters as units for non-parametric coordinates.

v 0.302847 0.098528 -0.174849
v 0.174849 0.069096 -0.302848
v 0.000000 0.069096 -0.349698
v -0.174849 0.102152 -0.302848
v -0.302847 0.102152 -0.174849
v -0.349698 0.069096 0.000000
v -0.302847 0.069096 0.174849
v -0.174849 0.085408 0.302848
v 0.000000 0.069096 0.349698
v 0.174849 0.069096 0.302848
v 0.302847 0.094145 0.174849
v 0.349698 0.069096 0.000000
v 0.302847 0.344054 -0.174849
v 0.174849 0.346527 -0.302848
v 0.000000 0.344748 -0.349698
v -0.174849 0.336736 -0.302848
v -0.302847 0.336736 -0.174849
v -0.349698 0.341559 0.000000
v -0.302847 0.328780 0.174849
v -0.174849 0.343301 0.302848
v 0.000000 0.342720 0.349698
v 0.174849 0.325582 0.302848
v 0.302847 0.340306 0.174849
v 0.349698 0.331967 0.000000
v 0.268006 0.000000 -0.154732
v 0.154734 0.000000 -0.268007
v 0.000000 0.000000 0.000000
v 0.000000 0.000000 -0.309468
v -0.154734 0.000000 -0.268007
v -0.268006 0.000000 -0.154732
v -0.309466 0.000000 0.000000
v -0.268006 0.000000 0.154732
v -0.154734 0.000000 0.268007
v 0.000000 0.000000 0.309468
v 0.154734 0.000000 0.268007
v 0.268006 0.000000 0.154732
v 0.309466 0.000000 0.000000
v 0.298187 0.387538 -0.172159
v 0.172159 0.391034 -0.298188
v 0.000000 0.388360 -0.344317
v -0.172159 0.379007 -0.298188
v -0.298187 0.379007 -0.172159
v -0.344317 0.382993 0.000000
v -0.298187 0.369234 0.172159
v -0.172159 0.385667 0.298188
v 0.000000 0.384701 0.344317
v 0.172159 0.365310 0.298188
v 0.298187 0.381180 0.172159
v 0.344317 0.375312 0.000000
v 0.321494 0.355766 -0.185614
v 0.185614 0.358144 -0.321495
v 0.185614 0.379413 -0.321495
v 0.321494 0.376613 -0.185614
v 0.000000 0.356242 -0.371229
v 0.000000 0.377271 -0.371229
v -0.185614 0.347197 -0.321495
v -0.185614 0.367761 -0.321495
v -0.321494 0.347197 -0.185614
v -0.321494 0.367761 -0.185614
v -0.371229 0.352823 0.000000
v -0.371229 0.373405 0.000000
v -0.321494 0.338301 0.185614
v -0.321494 0.358294 0.185614
v -0.185614 0.354695 0.321495
v -0.185614 0.375531 0.321495
v 0.000000 0.354075 0.371229
v 0.000000 0.374832 0.371229
v 0.185614 0.334727 0.321495
v 0.185614 0.354492 0.321495
v 0.321494 0.351739 0.185614
v 0.321494 0.372056 0.185614
v 0.371229 0.342682 0.000000
v 0.371229 0.363691 0.000000
v 0.274814 0.375929 -0.158665
v 0.158665 0.379800 -0.274816
v 0.000000 0.376839 -0.317330
v -0.158665 0.368148 -0.274816
v -0.274814 0.368148 -0.158665
v -0.317329 0.370412 0.000000
v -0.274814 0.358000 0.158665
v -0.158665 0.373339 0.274816
v 0.000000 0.372176 0.317330
v 0.158665 0.354076 0.274816
v 0.274814 0.368306 0.158665
v 0.317329 0.364566 0.000000
v 0.257585 0.070341 -0.148718
v 0.148718 0.070341 -0.257586
v 0.000000 0.070341 0.000000
v 0.000000 0.070341 -0.297435
v -0.148718 0.070341 -0.257586
v -0.257585 0.070341 -0.148718
v -0.297434 0.070341 0.000000
v -0.257585 0.070341 0.148718
v -0.148718 0.070341 0.257586
v 0.000000 0.070341 0.297435
v 0.148718 0.070341 0.257586
v 0.257585 0.070341 0.148718
v 0.297434 0.070341 0.000000
vt 0.536579 0.110550
vt 0.536579 0.110550
vt 0.536579 0.110550
vt 0.536579 0.110550
vt 0.536579 0.110550
vt 0.536579 0.110550
vt 0.536579 0.110550
vt 0.536579 0.110550
vt 0.536579 0.110550
vt 0.536579 0.110550
vt 0.536579 0.110550
vt 0.536579 0.110550
vt 0.536579 0.110550
vt 0.536579 0.110550
vt 0.536579 0.110550
vt 0.536579 0.110550
vt 0.536579 0.110550
vt 0.536579 0.110550
vt 0.536579 0.110550
vt 0.536579 0.110550
vt 0.536579 0.110550
vt 0.536579 0.110550
vt 0.536579 0.110550
vt 0.536579 0.110550
vt 0.536579 0.110550
vt 0.536579 0.110550
vt 0.536579 0.110550
vt 0.536579 0.110550
vt 0.536579 0.110550
vt 0.536579 0.110550
vt 0.536579 0.110550
vt 0.536579 0.110550
vt 0.536579 0.110550
vt 0.536579 0.110550
vt 0.536579 0.110550
vt 0.536579 0.110550
vt 0.536579 0.110550
vt 0.536579 0.110550
vt 0.536579 0.110550
vt 0.536579 0.110550
vt 0.536579 0.110550
vt 0.536579 0.110550
vt 0.536579 0.110550
vt 0.536579 0.110550
vt 0.536579 0.110550
vt 0.536579 0.110550
vt 0.536579 0.110550
vt 0.536579 0.110550
vt 0.536579 0.110550
vt 0.536579 0.110550
vt 0.536579 0.110550
vt 0.536579 0.110550
vt 0.536579 0.110550
vt 0.536579 0.110550
vt 0.536579 0.110550
vt 0.536579 0.110550
vt 0.536579 0.110550
vt 0.536579 0.110550
vt 0.536579 0.110550
vt 0.536579 0.110550
vt 0.536579 0.110550
vt 0.536579 0.110550
vt 0.536579 0.110550
vt 0.536579 0.110550
vt 0.536579 0.110550
vt 0.536579 0.110550
vt 0.536579 0.110550
vt 0.536579 0.110550
vt 0.536579 0.110550
vt 0.536579 0.110550
vt 0.536579 0.110550
vt 0.536579 0.110550
vt 0.536579 0.110550
vt 0.536579 0.110550
vt 0.536579 0.110550
vt 0.536579 0.110550
vt 0.536579 0.110550
vt 0.536579 0.110550
vt 0.536579 0.110550
vt 0.536579 0.110550
vt 0.536579 0.110550
vt 0.536579 0.110550
vt 0.536579 0.110550
vt 0.536579 0.110550
vt 0.536579 0.110550
vt 0.536579 0.110550
vt 0.536579 0.110550
vt 0.536579 0.110550
vt 0.536579 0.110550
vt 0.536579 0.110550
vt 0.536579 0.110550
vt 0.536579 0.110550
vt 0.536579 0.110550
vt 0.536579 0.110550
vt 0.536579 0.110550
vt 0.536579 0.110550
vt 0.536579 0.110550
vt 0.536579 0.110550
vt 0.536579 0.110550
vt 0.536579 0.110550
vt 0.536579 0.110550
vt 0.536579 0.110550
vt 0.536579 0.110550
vt 0.536579 0.110550
vt 0.536579 0.110550
vt 0.536579 0.110550
vt 0.536579 0.110550
vt 0.536579 0.110550
vt 0.536579 0.110550
vt 0.536579 0.110550
vt 0.536579 0.110550
vt 0.536579 0.110550
vt 0.536579 0.110550
vt 0.536579 0.110550
vt 0.536579 0.110550
vt 0.536579 0.110550
vt 0.536579 0.110550
vt 0.536579 0.110550
vt 0.536579 0.110550
vt 0.536579 0.110550
vt 0.536579 0.110550
vt 0.536579 0.110550
vt 0.536579 0.110550
vt 0.536579 0.110550
vn 0.707111 0.000000 -0.707103
vn 0.707111 0.000000 -0.707103
vn 0.707111 0.000000 -0.707103
vn 0.707111 0.000000 -0.707103
vn 0.258815 0.000000 -0.965927
vn 0.258815 0.000000 -0.965927
vn 0.258815 0.000000 -0.965927
vn 0.258815 0.000000 -0.965927
vn -0.258815 0.000000 -0.965927
vn -0.258814 0.000000 -0.965927
vn -0.258814 0.000000 -0.965927
vn -0.258814 0.000000 -0.965927
vn -0.707111 0.000000 -0.707103
vn -0.707111 0.000000 -0.707103
vn -0.707111 0.000000 -0.707103
vn -0.707111 0.000000 -0.707103
vn -0.965925 0.000000 -0.258822
vn -0.965925 0.000000 -0.258822
vn -0.965925 0.000000 -0.258822
vn -0.965925 0.000000 -0.258822
vn -0.965925 0.000000 0.258822
vn -0.965925 0.000000 0.258822
vn -0.965925 0.000000 0.258822
vn -0.965925 0.000000 0.258822
vn -0.707111 0.000000 0.707103
vn -0.707111 0.000000 0.707103
vn -0.707111 0.000000 0.707103
vn -0.707111 0.000000 0.707103
vn -0.258815 0.000000 0.965927
vn -0.258815 0.000000 0.965927
vn -0.258815 0.000000 0.965927
vn -0.258815 0.000000 0.965927
vn 0.258814 0.000000 0.965927
vn 0.258814 0.000000 0.965927
vn 0.258814 0.000000 0.965927
vn 0.258814 0.000000 0.965927
vn 0.707111 0.000000 0.707103
vn 0.707111 0.000000 0.707103
vn 0.707111 0.000000 0.707103
vn 0.707111 0.000000 0.707103
vn 0.965925 0.000000 0.258822
vn 0.965925 0.000000 0.258822
vn 0.965925 0.000000 0.258822
vn 0.965925 0.000000 0.258822
vn 0.965925 0.000000 -0.258822
vn 0.965925 0.000000 -0.258822
vn 0.965925 0.000000 -0.258822
vn 0.965925 0.000000 -0.258822
vn 0.000000 -1.000000 0.000000
vn 0.000000 -1.000000 0.000000
vn 0.000000 -1.000000 0.000000
vn 0.000000 -1.000000 0.000000
vn 0.000000 -1.000000 0.000000
vn 0.000000 -1.000000 0.000000
vn 0.000000 -1.000000 0.000000
vn 0.000000 -1.000000 0.000000
vn 0.000000 -1.000000 0.000000
vn 0.000000 -1.000000 0.000000
vn 0.000000 -1.000000 0.000000
vn 0.000000 -1.000000 0.000000
vn 0.000000 -1.000000 0.000000
vn 0.000000 -1.000000 0.000000
vn 0.000000 -1.000000 0.000000
vn 0.000000 -1.000000 0.000000
vn 0.000000 -1.000000 0.000000
vn 0.000000 -1.000000 0.000000
vn 0.000000 -1.000000 0.000000
vn 0.000000 -1.000000 0.000000
vn 0.000000 -1.000000 0.000000
vn 0.000000 -1.000000 0.000000
vn 0.000000 -1.000000 0.000000
vn 0.000000 -1.000000 0.000000
vn 0.000000 -1.000000 0.000000
vn 0.000000 -1.000000 0.000000
vn 0.000000 -1.000000 0.000000
vn 0.000000 -1.000000 0.000000
vn 0.000000 -1.000000 0.000000
vn 0.000000 -1.000000 0.000000
vn 0.000000 -1.000000 0.000000
vn 0.000000 -1.000000 0.000000
vn 0.000000 -1.000000 0.000000
vn 0.000000 -1.000000 0.000000
vn 0.000000 -1.000000 0.000000
vn 0.000000 -1.000000 0.000000
vn 0.000000 1.000000 0.000000
vn 0.000000 1.000000 0.000000
vn 0.000000 1.000000 0.000000
vn 0.000000 1.000000 0.000000
vn 0.000000 1.000000 0.000000
vn 0.000000 1.000000 0.000000
vn 0.000000 1.000000 0.000000
vn 0.000000 1.000000 0.000000
vn 0.000000 1.000000 0.000000
vn 0.000000 1.000000 0.000000
vn 0.000000 1.000000 0.000000
vn 0.000000 1.000000 0.000000
vn 0.000000 1.000000 0.000000
vn 0.000000 1.000000 0.000000
vn 0.000000 1.000000 0.000000
vn 0.000000 1.000000 0.000000
vn 0.000000 1.000000 0.000000
vn 0.000000 1.000000 0.000000
vn 0.000000 1.000000 0.000000
vn 0.000000 1.000000 0.000000
vn 0.000000 1.000000 0.000000
vn 0.000000 1.000000 0.000000
vn 0.000000 1.000000 0.000000
vn 0.000000 1.000000 0.000000
vn 0.000000 1.000000 0.000000
vn 0.000000 1.000000 0.000000
vn 0.000000 1.000000 0.000000
vn 0.000000 1.000000 0.000000
vn 0.000000 1.000000 0.000000
vn 0.000000 1.000000 0.000000
vn 0.000000 1.000000 0.000000
vn 0.000000 1.000000 0.000000
vn 0.000000 1.000000 0.000000
vn 0.000000 1.000000 0.000000
vn 0.000000 1.000000 0.000000
vn 0.000000 1.000000 0.000000
vn 0.666728 -0.420370 -0.615438
vn 0.666728 -0.420370 -0.615438
vn 0.666728 -0.420370 -0.615438
vn 0.666728 -0.420370 -0.615438
vn 0.225587 -0.490198 -0.841912
vn 0.225587 -0.490198 -0.841912
vn 0.225587 -0.490198 -0.841912
vn 0.225587 -0.490198 -0.841912
vn -0.274134 -0.412942 -0.868522
vn -0.274134 -0.412942 -0.868522
vn -0.274134 -0.412942 -0.868522
vn -0.274134 -0.412942 -0.868522
vn -0.660906 -0.355559 -0.660895
vn -0.660906 -0.355559 -0.660895
vn -0.660906 -0.355559 -0.660895
vn -0.660906 -0.355559 -0.660895
vn -0.868517 -0.412949 -0.274138
vn -0.868517 -0.412949 -0.274138
vn -0.868517 -0.412949 -0.274138
vn -0.868517 -0.412949 -0.274138
vn -0.841907 -0.490206 0.225590
vn -0.841907 -0.490206 0.225590
vn -0.841907 -0.490206 0.225590
vn -0.841907 -0.490206 0.225590
vn -0.616359 -0.449279 0.646723
vn -0.616359 -0.449279 0.646723
vn -0.616359 -0.449279 0.646723
vn -0.616359 -0.449279 0.646723
vn -0.251904 -0.449274 0.857145
vn -0.251904 -0.449274 0.857145
vn -0.251904 -0.449274 0.857145
vn -0.251904 -0.449274 0.857145
vn 0.225587 -0.490198 0.841912
vn 0.225587 -0.490198 0.841912
vn 0.225587 -0.490198 0.841912
vn 0.225587 -0.490198 0.841912
vn 0.660430 -0.429661 0.615811
vn 0.660430 -0.429661 0.615811
vn 0.660430 -0.429661 0.615811
vn 0.660430 -0.429661 0.615811
vn 0.863524 -0.429663 0.264038
vn 0.863524 -0.429663 0.264038
vn 0.863524 -0.429663 0.264038
vn 0.863524 -0.429663 0.264038
vn 0.866349 -0.420372 -0.269679
vn 0.866349 -0.420372 -0.269679
vn 0.866349 -0.420372 -0.269679
vn 0.866349 -0.420372 -0.269679
vn 0.707110 0.000000 -0.707103
vn 0.707110 0.000000 -0.707103
vn 0.707110 0.000000 -0.707103
vn 0.707110 0.000000 -0.707103
vn 0.258813 0.000000 -0.965928
vn 0.258813 0.000000 -0.965928
vn 0.258813 0.000000 -0.965928
vn 0.258813 0.000000 -0.965928
vn -0.258813 0.000000 -0.965927
vn -0.258813 0.000000 -0.965927
vn -0.258813 0.000000 -0.965927
vn -0.258813 0.000000 -0.965927
vn -0.707110 0.000000 -0.707104
vn -0.707110 0.000000 -0.707104
vn -0.707110 0.000000 -0.707104
vn -0.707110 0.000000 -0.707104
vn -0.965926 0.000000 -0.258819
vn -0.965926 0.000000 -0.258819
vn -0.965926 0.000000 -0.258819
vn -0.965926 0.000000 -0.258819
vn -0.965926 0.000000 0.258819
vn -0.965926 0.000000 0.258819
vn -0.965926 0.000000 0.258819
vn -0.965926 0.000000 0.258819
vn -0.707110 0.000000 0.707103
vn -0.707110 0.000000 0.707103
vn -0.707110 0.000000 0.707103
vn -0.707110 0.000000 0.707103
vn -0.258812 0.000000 0.965928
vn -0.258812 0.000000 0.965928
vn -0.258812 0.000000 0.965928
vn -0.258812 0.000000 0.965928
vn 0.258813 0.000000 0.965927
vn 0.258813 0.000000 0.965927
vn 0.258813 0.000000 0.965927
vn 0.258813 0.000000 0.965927
vn 0.707110 0.000000 0.707103
vn 0.707110 0.000000 0.707103
vn 0.707110 0.000000 0.707103
vn 0.707110 0.000000 0.707103
vn 0.965926 0.000000 0.258819
vn 0.965926 0.000000 0.258819
vn 0.965926 0.000000 0.258819
vn 0.965926 0.000000 0.258819
vn 0.965926 0.000000 -0.258819
vn 0.965926 0.000000 -0.258819
vn 0.965926 0.000000 -0.258819
vn 0.965926 0.000000 -0.258819
vn 0.337856 -0.872133 -0.353888
vn 0.337856 -0.872133 -0.353888
vn 0.337856 -0.872133 -0.353888
vn 0.337856 -0.872133 -0.353888
vn 0.292320 0.917335 -0.270268
vn 0.292320 0.917335 -0.270268
vn 0.292320 0.917335 -0.270268
vn 0.292320 0.917335 -0.270268
vn 0.134029 -0.874100 -0.466889
vn 0.134029 -0.874100 -0.466889
vn 0.134029 -0.874100 -0.466889
vn 0.134029 -0.874100 -0.466889
vn 0.092084 0.916326 -0.389702
vn 0.092084 0.916326 -0.389702
vn 0.092084 0.916326 -0.389702
vn 0.092084 0.916326 -0.389702
vn -0.081704 -0.883642 -0.460979
vn -0.081704 -0.883642 -0.460979
vn -0.081704 -0.883642 -0.460979
vn -0.081704 -0.883642 -0.460979
vn -0.147192 0.917804 -0.368743
vn -0.147192 0.917804 -0.368743
vn -0.147192 0.917804 -0.368743
vn -0.147192 0.917804 -0.368743
vn -0.317744 -0.893353 -0.317740
vn -0.317744 -0.893353 -0.317740
vn -0.317744 -0.893353 -0.317740
vn -0.317744 -0.893353 -0.317740
vn -0.280751 0.917801 -0.280748
vn -0.280751 0.917801 -0.280748
vn -0.280751 0.917801 -0.280748
vn -0.280751 0.917801 -0.280748
vn -0.453473 -0.886104 -0.095821
vn -0.453473 -0.886104 -0.095821
vn -0.453473 -0.886104 -0.095821
vn -0.453473 -0.886104 -0.095821
vn -0.352945 0.927975 -0.119549
vn -0.352945 0.927975 -0.119549
vn -0.352945 0.927975 -0.119549
vn -0.352945 0.927975 -0.119549
vn -0.447767 -0.892615 0.052373
vn -0.447767 -0.892615 0.052373
vn -0.447767 -0.892615 0.052373
vn -0.447767 -0.892615 0.052373
vn -0.335108 0.927681 0.164651
vn -0.335108 0.927682 0.164651
vn -0.335108 0.927681 0.164651
vn -0.335108 0.927682 0.164651
vn -0.264607 -0.890971 0.368990
vn -0.264607 -0.890971 0.368990
vn -0.264607 -0.890971 0.368990
vn -0.264607 -0.890971 0.368990
vn -0.324083 0.923470 0.205361
vn -0.324083 0.923470 0.205361
vn -0.324083 0.923470 0.205361
vn -0.324083 0.923470 0.205361
vn -0.126916 -0.877357 0.462749
vn -0.126916 -0.877357 0.462749
vn -0.126916 -0.877357 0.462749
vn -0.126916 -0.877357 0.462749
vn -0.088892 0.933284 0.347965
vn -0.088892 0.933284 0.347965
vn -0.088892 0.933284 0.347965
vn -0.088892 0.933284 0.347965
vn 0.029590 -0.893550 0.447986
vn 0.029590 -0.893551 0.447987
vn 0.029590 -0.893551 0.447987
vn 0.029590 -0.893550 0.447986
vn 0.191011 0.924566 0.329685
vn 0.191011 0.924566 0.329685
vn 0.191011 0.924566 0.329685
vn 0.191011 0.924566 0.329685
vn 0.366390 -0.893716 0.258903
vn 0.366390 -0.893716 0.258903
vn 0.366390 -0.893716 0.258903
vn 0.366390 -0.893716 0.258903
vn 0.192963 0.930372 0.311726
vn 0.192963 0.930372 0.311726
vn 0.192963 0.930372 0.311726
vn 0.192963 0.930372 0.311726
vn 0.442960 -0.881921 0.161252
vn 0.442960 -0.881921 0.161252
vn 0.442960 -0.881921 0.161252
vn 0.442960 -0.881921 0.161252
vn 0.366980 0.928200 0.061410
vn 0.366980 0.928200 0.061410
vn 0.366980 0.928200 0.061410
vn 0.366980 0.928199 0.061410
vn 0.442271 -0.878661 -0.179862
vn 0.442271 -0.878661 -0.179862
vn 0.442271 -0.878661 -0.179862
vn 0.442271 -0.878661 -0.179862
vn 0.399651 0.915671 -0.042724
vn 0.399651 0.915671 -0.042724
vn 0.399651 0.915671 -0.042724
vn 0.399651 0.915671 -0.042724
vn -0.269792 0.915763 0.297643
vn -0.269792 0.915763 0.297643
vn -0.269792 0.915763 0.297643
vn -0.269792 0.915763 0.297643
vn -0.118083 0.916403 0.382442
vn -0.118083 0.916403 0.382442
vn -0.118083 0.916403 0.382442
vn -0.118083 0.916403 0.382442
vn 0.055264 0.917842 0.393081
vn 0.055264 0.917842 0.393081
vn 0.055264 0.917842 0.393081
vn 0.055264 0.917842 0.393081
vn 0.271902 0.923115 0.271898
vn 0.271902 0.923115 0.271898
vn 0.271902 0.923115 0.271898
vn 0.271902 0.923115 0.271898
vn 0.400324 0.911940 0.090038
vn 0.400324 0.911940 0.090038
vn 0.400324 0.911940 0.090038
vn 0.400324 0.911940 0.090038
vn 0.418308 0.907411 -0.040302
vn 0.418308 0.907411 -0.040302
vn 0.418308 0.907411 -0.040302
vn 0.418308 0.907411 -0.040302
vn 0.230609 0.908023 -0.349733
vn 0.230609 0.908023 -0.349733
vn 0.230609 0.908023 -0.349733
vn 0.230609 0.908023 -0.349733
vn 0.116787 0.902672 -0.414178
vn 0.116787 0.902672 -0.414178
vn 0.116787 0.902672 -0.414178
vn 0.116787 0.902672 -0.414178
vn -0.011055 0.905486 -0.424233
vn -0.011055 0.905486 -0.424233
vn -0.011055 0.905486 -0.424233
vn -0.011055 0.905486 -0.424233
vn -0.352065 0.904787 -0.239608
vn -0.352065 0.904787 -0.239608
vn -0.352065 0.904786 -0.239608
vn -0.352065 0.904787 -0.239608
vn -0.391862 0.910586 -0.131444
vn -0.391862 0.910586 -0.131444
vn -0.391862 0.910586 -0.131444
vn -0.391862 0.910586 -0.131444
vn -0.363543 0.917239 0.162816
vn -0.363543 0.917239 0.162816
vn -0.363543 0.917239 0.162816
vn -0.363543 0.917239 0.162816
vn -0.705198 0.062367 0.706262
vn -0.705198 0.062367 0.706262
vn -0.705198 0.062367 0.706262
vn -0.705198 0.062367 0.706262
vn -0.258877 0.062276 0.963901
vn -0.258877 0.062276 0.963901
vn -0.258877 0.062276 0.963901
vn -0.258877 0.062276 0.963901
vn 0.256623 0.063471 0.964425
vn 0.256623 0.063471 0.964425
vn 0.256623 0.063471 0.964425
vn 0.256623 0.063471 0.964425
vn 0.705643 0.064394 0.705635
vn 0.705643 0.064394 0.705635
vn 0.705643 0.064394 0.705635
vn 0.705643 0.064394 0.705635
vn 0.964054 0.064151 0.257846
vn 0.964054 0.064151 0.257846
vn 0.964054 0.064151 0.257846
vn 0.964054 0.064151 0.257846
vn 0.964523 0.065254 -0.255809
vn 0.964523 0.065254 -0.255809
vn 0.964523 0.065254 -0.255809
vn 0.964523 0.065254 -0.255809
vn 0.703402 0.064932 -0.707820
vn 0.703402 0.064932 -0.707820
vn 0.703402 0.064932 -0.707820
vn 0.703402 0.064932 -0.707820
vn 0.258523 0.063416 -0.963921
vn 0.258523 0.063416 -0.963921
vn 0.258523 0.063416 -0.963921
vn 0.258523 0.063416 -0.963921
vn -0.254664 0.065493 -0.964809
vn -0.254664 0.065493 -0.964809
vn -0.254664 0.065493 -0.964809
vn -0.254664 0.065493 -0.964809
vn -0.707654 0.065927 -0.703477
vn -0.707654 0.065927 -0.703477
vn -0.707654 0.065927 -0.703477
vn -0.707654 0.065927 -0.703477
vn -0.963700 0.064764 -0.259012
vn -0.963700 0.064764 -0.259012
vn -0.963700 0.064764 -0.259012
vn -0.963700 0.064764 -0.259012
vn -0.963355 0.063945 0.260495
vn -0.963355 0.063945 0.260495
vn -0.963355 0.063945 0.260495
vn -0.963355 0.063945 0.260495
s off
f 1/13/1 2/14/2 14/27/3 13/26/4
f 2/14/5 3/15/6 15/28/7 14/27/8
f 3/15/9 4/16/10 16/29/11 15/28/12
f 4/16/13 5/17/14 17/30/15 16/29/16
f 5/17/17 6/18/18 18/31/19 17/30/20
f 6/18/21 7/19/22 19/32/23 18/31/24
f 7/19/25 8/20/26 20/33/27 19/32/28
f 8/20/29 9/21/30 21/34/31 20/33/32
f 9/21/33 10/22/34 22/35/35 21/34/36
f 10/22/37 11/23/38 23/36/39 22/35/40
f 11/23/41 12/24/42 24/37/43 23/36/44
f 12/24/45 1/25/46 13/38/47 24/37/48
f 26/53/49 25/54/50 27/51/51
f 28/55/52 26/53/53 27/51/54
f 29/56/55 28/55/56 27/51/57
f 30/57/58 29/56/59 27/51/60
f 31/58/61 30/57/62 27/51/63
f 32/59/64 31/58/65 27/51/66
f 33/60/67 32/59/68 27/51/69
f 34/61/70 33/60/71 27/51/72
f 35/62/73 34/61/74 27/51/75
f 36/63/76 35/62/77 27/51/78
f 37/64/79 36/63/80 27/51/81
f 25/54/82 37/64/83 27/51/84
f 86/113/85 87/114/86 88/52/87
f 87/114/88 89/115/89 88/52/90
f 89/115/91 90/116/92 88/52/93
f 90/116/94 91/117/95 88/52/96
f 91/117/97 92/118/98 88/52/99
f 92/118/100 93/119/101 88/52/102
f 93/119/103 94/120/104 88/52/105
f 94/120/106 95/121/107 88/52/108
f 95/121/109 96/122/110 88/52/111
f 96/122/112 97/123/113 88/52/114
f 97/123/115 98/124/116 88/52/117
f 98/124/118 86/113/119 88/52/120
f 2/2/121 1/1/122 25/54/123 26/53/124
f 3/3/125 2/2/126 26/53/127 28/55/128
f 4/4/129 3/3/130 28/55/131 29/56/132
f 5/5/133 4/4/134 29/56/135 30/57/136
f 6/6/137 5/5/138 30/57/139 31/58/140
f 7/7/141 6/6/142 31/58/143 32/59/144
f 8/8/145 7/7/146 32/59/147 33/60/148
f 9/9/149 8/8/150 33/60/151 34/61/152
f 10/10/153 9/9/154 34/61/155 35/62/156
f 11/11/157 10/10/158 35/62/159 36/63/160
f 12/12/161 11/11/162 36/63/163 37/64/164
f 1/1/165 12/12/166 37/64/167 25/54/168
f 50/77/169 51/78/170 52/79/171 53/80/172
f 51/78/173 54/81/174 55/82/175 52/79/176
f 54/81/177 56/83/178 57/84/179 55/82/180
f 56/83/181 58/85/182 59/86/183 57/84/184
f 58/85/185 60/87/186 61/88/187 59/86/188
f 60/87/189 62/89/190 63/90/191 61/88/192
f 62/89/193 64/91/194 65/92/195 63/90/196
f 64/91/197 66/93/198 67/94/199 65/92/200
f 66/93/201 68/95/202 69/96/203 67/94/204
f 68/95/205 70/97/206 71/98/207 69/96/208
f 70/97/209 72/99/210 73/100/211 71/98/212
f 72/99/213 50/77/214 53/80/215 73/100/216
f 13/49/217 14/48/218 51/78/219 50/77/220
f 39/66/221 38/65/222 53/80/223 52/79/224
f 14/48/225 15/47/226 54/81/227 51/78/228
f 40/67/229 39/66/230 52/79/231 55/82/232
f 15/47/233 16/46/234 56/83/235 54/81/236
f 41/68/237 40/67/238 55/82/239 57/84/240
f 16/46/241 17/45/242 58/85/243 56/83/244
f 42/69/245 41/68/246 57/84/247 59/86/248
f 17/45/249 18/44/250 60/87/251 58/85/252
f 43/70/253 42/69/254 59/86/255 61/88/256
f 18/44/257 19/43/258 62/89/259 60/87/260
f 44/71/261 43/70/262 61/88/263 63/90/264
f 19/43/265 20/42/266 64/91/267 62/89/268
f 45/72/269 44/71/270 63/90/271 65/92/272
f 20/42/273 21/41/274 66/93/275 64/91/276
f 46/73/277 45/72/278 65/92/279 67/94/280
f 21/41/281 22/40/282 68/95/283 66/93/284
f 47/74/285 46/73/286 67/94/287 69/96/288
f 22/40/289 23/39/290 70/97/291 68/95/292
f 48/75/293 47/74/294 69/96/295 71/98/296
f 23/39/297 24/50/298 72/99/299 70/97/300
f 49/76/301 48/75/302 71/98/303 73/100/304
f 24/50/305 13/49/306 50/77/307 72/99/308
f 38/65/309 49/76/310 73/100/311 53/80/312
f 38/65/313 39/66/314 75/102/315 74/101/316
f 39/66/317 40/67/318 76/103/319 75/102/320
f 40/67/321 41/68/322 77/104/323 76/103/324
f 41/68/325 42/69/326 78/105/327 77/104/328
f 42/69/329 43/70/330 79/106/331 78/105/332
f 43/70/333 44/71/334 80/107/335 79/106/336
f 44/71/337 45/72/338 81/108/339 80/107/340
f 45/72/341 46/73/342 82/109/343 81/108/344
f 46/73/345 47/74/346 83/110/347 82/109/348
f 47/74/349 48/75/350 84/111/351 83/110/352
f 48/75/353 49/76/354 85/112/355 84/111/356
f 49/76/357 38/65/358 74/101/359 85/112/360
f 74/101/361 75/102/362 87/114/363 86/113/364
f 75/102/365 76/103/366 89/115/367 87/114/368
f 76/103/369 77/104/370 90/116/371 89/115/372
f 77/104/373 78/105/374 91/117/375 90/116/376
f 78/105/377 79/106/378 92/118/379 91/117/380
f 79/106/381 80/107/382 93/119/383 92/118/384
f 80/107/385 81/108/386 94/120/387 93/119/388
f 81/108/389 82/109/390 95/121/391 94/120/392
f 82/109/393 83/110/394 96/122/395 95/121/396
f 83/110/397 84/111/398 97/123/399 96/122/400
f 84/111/401 85/112/402 98/124/403 97/123/404
f 85/112/405 74/101/406 86/113/407 98/124/408
