# This file uses centimeters as units for non-parametric coordinates.

v -0.009773 -0.036081 0.036080
v -0.009773 -0.036081 -0.036080
v 0.009773 -0.036081 0.036080
v 0.009773 -0.036081 -0.036080
v 0.009773 0.036080 0.036080
v 0.009773 0.036080 -0.036080
v -0.009773 0.036080 0.036080
v -0.009773 0.036080 -0.036080
v -0.001965 -0.123338 0.002076
v -0.001965 -0.123338 -0.002077
v 0.001965 -0.123338 -0.002077
v 0.001965 -0.123338 0.002076
v 0.001965 0.123338 0.002076
v 0.001965 0.123338 -0.002077
v -0.001965 0.123338 -0.002077
v -0.001965 0.123338 0.002076
v -0.001965 0.002077 -0.123337
v -0.001965 -0.002077 -0.123337
v 0.001965 0.002077 -0.123337
v 0.001965 -0.002077 -0.123337
v -0.001965 0.002077 0.123337
v -0.001965 -0.002077 0.123337
v 0.001965 -0.002077 0.123337
v 0.001965 0.002077 0.123337
v 0.009773 -0.020052 0.020051
v 0.009773 -0.020052 -0.020051
v 0.009773 0.020051 -0.020051
v 0.009773 0.020051 0.020051
v -0.009773 0.020051 0.020051
v -0.009773 0.020051 -0.020051
v -0.009773 -0.020052 -0.020051
v -0.009773 -0.020052 0.020051
vt 0.562676 0.473686
vt 0.562676 0.473686
vt 0.562676 0.473686
vt 0.562676 0.473686
vt 0.562676 0.473686
vt 0.562676 0.473686
vt 0.562676 0.473686
vt 0.562676 0.473686
vt 0.562676 0.473686
vt 0.562676 0.473686
vt 0.562676 0.473686
vt 0.562676 0.473686
vt 0.562676 0.473686
vt 0.562676 0.473686
vt 0.562676 0.473686
vt 0.562676 0.473686
vt 0.562676 0.473686
vt 0.562676 0.473686
vt 0.562676 0.473686
vt 0.562676 0.473686
vt 0.562676 0.473686
vt 0.562676 0.473686
vt 0.562676 0.473686
vt 0.562676 0.473686
vt 0.562676 0.473686
vt 0.562676 0.473686
vt 0.562676 0.473686
vt 0.562676 0.473686
vt 0.562676 0.473686
vt 0.562676 0.473686
vt 0.562676 0.473686
vt 0.562676 0.473686
vt 0.562676 0.473686
vt 0.562676 0.473686
vt 0.562676 0.473686
vt 0.562676 0.473686
vt 0.562676 0.473686
vt 0.562676 0.473686
vt 0.562676 0.473686
vt 0.562676 0.473686
vt 0.562676 0.473686
vt 0.562676 0.473686
vt 0.562676 0.473686
vt 0.562676 0.473686
vt 0.562676 0.473686
vt 0.562676 0.473686
vt 0.562676 0.473686
vt 0.562676 0.473686
vt 0.562676 0.473686
vt 0.562676 0.473686
vt 0.562676 0.473686
vt 0.562676 0.473686
vt 0.562676 0.473686
vt 0.562676 0.473686
vt 0.562676 0.473686
vt 0.562676 0.473686
vt 0.562676 0.473686
vt 0.562676 0.473686
vt 0.562676 0.473686
vt 0.562676 0.473686
vt 0.562676 0.473686
vt 0.562676 0.473686
vt 0.562676 0.473686
vt 0.562676 0.473686
vt 0.562676 0.473686
vt 0.562676 0.473686
vt 0.562676 0.473686
vt 0.562676 0.473686
vt 0.562676 0.473686
vt 0.562676 0.473686
vt 0.562676 0.473686
vt 0.562676 0.473686
vt 0.562676 0.473686
vt 0.562676 0.473686
vt 0.562676 0.473686
vt 0.562676 0.473686
vt 0.562676 0.473686
vt 0.562676 0.473686
vt 0.562676 0.473686
vt 0.562676 0.473686
vt 0.562676 0.473686
vt 0.562676 0.473686
vt 0.562676 0.473686
vt 0.562676 0.473686
vt 0.562676 0.473686
vt 0.562676 0.473686
vt 0.562676 0.473686
vt 0.562676 0.473686
vt 0.562676 0.473686
vt 0.562676 0.473686
vt 0.562676 0.473686
vt 0.562676 0.473686
vt 0.562676 0.473686
vt 0.562676 0.473686
vt 0.562676 0.473686
vt 0.562676 0.473686
vn 0.000000 -1.000000 0.000000
vn 0.000000 -1.000000 0.000000
vn 0.000000 -1.000000 0.000000
vn 0.000000 -1.000000 0.000000
vn 0.000000 1.000000 0.000000
vn 0.000000 1.000000 0.000000
vn 0.000000 1.000000 0.000000
vn 0.000000 1.000000 0.000000
vn 0.000000 0.000000 -1.000000
vn 0.000000 0.000000 -1.000000
vn 0.000000 0.000000 -1.000000
vn 0.000000 0.000000 -1.000000
vn 0.000000 0.000000 1.000000
vn 0.000000 0.000000 1.000000
vn 0.000000 0.000000 1.000000
vn 0.000000 0.000000 1.000000
vn -0.996021 -0.089122 0.000000
vn -0.996021 -0.089122 0.000000
vn -0.996021 -0.089122 0.000000
vn -0.996021 -0.089122 0.000000
vn -0.000000 -0.363091 -0.931754
vn -0.000000 -0.363091 -0.931754
vn -0.000000 -0.363091 -0.931754
vn -0.000000 -0.363091 -0.931754
vn 0.996021 -0.089122 0.000000
vn 0.996021 -0.089122 0.000000
vn 0.996021 -0.089122 0.000000
vn 0.996021 -0.089122 0.000000
vn -0.000000 -0.363108 0.931747
vn -0.000000 -0.363108 0.931747
vn -0.000000 -0.363108 0.931747
vn -0.000000 -0.363108 0.931747
vn 0.996021 0.089122 0.000000
vn 0.996021 0.089122 0.000000
vn 0.996021 0.089122 0.000000
vn 0.996021 0.089122 0.000000
vn 0.000000 0.363090 -0.931754
vn 0.000000 0.363090 -0.931754
vn 0.000000 0.363090 -0.931754
vn 0.000000 0.363090 -0.931754
vn -0.996021 0.089122 0.000000
vn -0.996021 0.089122 0.000000
vn -0.996021 0.089122 0.000000
vn -0.996021 0.089122 0.000000
vn 0.000001 0.363107 0.931748
vn 0.000001 0.363107 0.931748
vn 0.000001 0.363107 0.931748
vn 0.000001 0.363107 0.931748
vn -0.996021 0.000000 -0.089123
vn -0.996021 0.000000 -0.089123
vn -0.996021 0.000000 -0.089123
vn -0.996021 0.000000 -0.089123
vn 0.000001 0.931751 -0.363097
vn 0.000001 0.931751 -0.363097
vn 0.000001 0.931751 -0.363097
vn 0.000001 0.931751 -0.363097
vn 0.996021 0.000000 -0.089123
vn 0.996021 0.000000 -0.089123
vn 0.996021 0.000000 -0.089123
vn 0.996021 0.000000 -0.089123
vn -0.000001 -0.931751 -0.363099
vn -0.000001 -0.931751 -0.363099
vn -0.000001 -0.931751 -0.363099
vn -0.000001 -0.931751 -0.363099
vn -0.996021 0.000000 0.089123
vn -0.996021 0.000000 0.089123
vn -0.996021 0.000000 0.089123
vn -0.996021 0.000000 0.089123
vn -0.000001 -0.931751 0.363099
vn -0.000001 -0.931751 0.363099
vn -0.000001 -0.931751 0.363099
vn -0.000001 -0.931751 0.363099
vn 0.996021 0.000000 0.089123
vn 0.996021 0.000000 0.089123
vn 0.996021 0.000000 0.089123
vn 0.996021 0.000000 0.089123
vn 0.000001 0.931751 0.363097
vn 0.000001 0.931751 0.363097
vn 0.000001 0.931751 0.363097
vn 0.000001 0.931751 0.363097
vn 1.000000 0.000000 0.000000
vn 1.000000 0.000000 0.000000
vn 1.000000 0.000000 0.000000
vn 1.000000 0.000000 0.000000
vn 1.000000 0.000000 0.000000
vn 1.000000 0.000000 0.000000
vn 1.000000 0.000000 0.000000
vn 1.000000 0.000000 0.000000
vn 1.000000 0.000000 0.000000
vn 1.000000 0.000000 0.000000
vn 1.000000 0.000000 0.000000
vn 1.000000 0.000000 0.000000
vn 1.000000 0.000000 0.000000
vn 1.000000 0.000000 0.000000
vn 1.000000 0.000000 0.000000
vn 1.000000 0.000000 0.000000
vn -1.000000 0.000000 0.000000
vn -1.000000 0.000000 0.000000
vn -1.000000 0.000000 0.000000
vn -1.000000 0.000000 0.000000
vn -1.000000 0.000000 0.000000
vn -1.000000 0.000000 0.000000
vn -1.000000 0.000000 0.000000
vn -1.000000 0.000000 0.000000
vn -1.000000 0.000000 0.000000
vn -1.000000 0.000000 0.000000
vn -1.000000 0.000000 0.000000
vn -1.000000 0.000000 0.000000
vn -1.000000 0.000000 0.000000
vn -1.000000 0.000000 0.000000
vn -1.000000 0.000000 0.000000
vn -1.000000 0.000000 0.000000
vn 0.000000 -1.000000 0.000000
vn 0.000000 -1.000000 0.000000
vn 0.000000 -1.000000 0.000000
vn 0.000000 -1.000000 0.000000
vn 0.000000 0.000000 -1.000000
vn 0.000000 0.000000 -1.000000
vn 0.000000 0.000000 -1.000000
vn 0.000000 0.000000 -1.000000
vn 0.000000 0.000000 1.000000
vn 0.000000 0.000000 1.000000
vn 0.000000 0.000000 1.000000
vn 0.000000 0.000000 1.000000
vn 0.000000 1.000000 0.000000
vn 0.000000 1.000000 0.000000
vn 0.000000 1.000000 0.000000
vn 0.000000 1.000000 0.000000
s off
f 9/1/1 10/2/2 11/3/3 12/4/4
f 13/5/5 14/6/6 15/7/7 16/8/8
f 18/9/9 17/10/10 19/11/11 20/12/12
f 21/13/13 22/14/14 23/15/15 24/16/16
f 1/17/17 2/18/18 10/19/19 9/20/20
f 2/33/21 4/34/22 11/35/23 10/36/24
f 4/37/25 3/38/26 12/39/27 11/40/28
f 3/53/29 1/54/30 9/55/31 12/56/32
f 5/45/33 6/43/34 14/51/35 13/52/36
f 6/57/37 8/58/38 15/59/39 14/60/40
f 8/25/41 7/23/42 16/31/43 15/32/44
f 7/61/45 5/62/46 13/63/47 16/64/48
f 2/18/49 8/25/50 17/29/51 18/30/52
f 8/65/53 6/66/54 19/67/55 17/68/56
f 6/43/57 4/37/58 20/47/59 19/48/60
f 4/69/61 2/70/62 18/71/63 20/72/64
f 7/23/65 1/17/66 22/27/67 21/28/68
f 1/73/69 3/74/70 23/75/71 22/76/72
f 3/38/73 5/45/74 24/49/75 23/50/76
f 5/77/77 7/78/78 21/79/79 24/80/80
f 3/38/81 4/37/82 26/41/83 25/42/84
f 4/37/85 6/43/86 27/44/87 26/41/88
f 6/43/89 5/45/90 28/46/91 27/44/92
f 5/45/93 3/38/94 25/42/95 28/46/96
f 7/23/97 8/25/98 30/26/99 29/24/100
f 8/25/101 2/18/102 31/22/103 30/26/104
f 2/18/105 1/17/106 32/21/107 31/22/108
f 1/17/109 7/23/110 29/24/111 32/21/112
f 27/81/113 28/82/114 29/83/115 30/84/116
f 28/85/117 25/86/118 32/87/119 29/88/120
f 27/89/121 30/90/122 31/91/123 26/92/124
f 26/93/125 31/94/126 32/95/127 25/96/128
