# This file uses centimeters as units for non-parametric coordinates.

v 0.001312 0.206799 0.129560
v -0.016907 0.217324 0.129560
v -0.016632 0.235159 0.130293
v -0.001328 0.244319 0.131025
v 0.016907 0.233794 0.131025
v 0.016632 0.215958 0.130293
v 0.001312 0.206799 0.022871
v -0.016907 0.217324 0.022871
v -0.016632 0.235159 0.023603
v -0.001328 0.244319 0.024335
v 0.016907 0.233794 0.024335
v 0.016632 0.215958 0.023603
v 0.001846 0.199268 0.146131
v -0.023697 0.214017 0.146131
v -0.023300 0.239014 0.147138
v -0.001862 0.251850 0.148176
v 0.023697 0.237100 0.148176
v 0.023300 0.212104 0.147138
v 0.000000 0.225559 0.153730
v 0.014374 -0.457350 0.009931
v -0.018372 -0.457350 0.009931
v -0.031876 -0.457614 -0.014330
v -0.018372 -0.457877 -0.038561
v 0.014374 -0.457878 -0.038561
v 0.027863 -0.457614 -0.014330
v 0.023773 0.124680 -0.045428
v -0.023788 0.124681 -0.045428
v -0.043381 0.123761 -0.010210
v -0.023788 0.122839 0.025007
v 0.023773 0.122839 0.025007
v 0.043381 0.123761 -0.010210
v 0.011032 -0.468007 0.004987
v -0.015045 -0.468007 0.004987
v -0.025787 -0.468217 -0.014330
v -0.015045 -0.468427 -0.033617
v 0.011032 -0.468427 -0.033617
v 0.021774 -0.468217 -0.014330
v -0.001999 -0.468217 -0.014330
v 0.023773 0.343316 -0.045428
v -0.023788 0.343317 -0.045428
v -0.043381 0.342396 -0.010210
v -0.023788 0.341474 0.025007
v 0.023773 0.341474 0.025007
v 0.043381 0.342396 -0.010210
v 0.015213 0.449976 -0.032763
v -0.015228 0.449976 -0.032763
v -0.027771 0.449387 -0.010210
v -0.015228 0.448797 0.012312
v 0.015213 0.448797 0.012312
v 0.027771 0.449387 -0.010210
v 0.000000 0.462017 -0.010210
v -0.042328 0.070580 -0.010607
v -0.023285 0.077821 -0.035601
v 0.022919 0.077821 -0.035601
v 0.034561 0.086371 -0.012560
v 0.015518 0.085558 0.021650
v -0.023285 0.069767 0.023603
v -0.041245 0.015375 -0.010973
v -0.022781 0.016074 -0.044146
v 0.022018 0.016074 -0.044146
v 0.040497 0.015375 -0.010973
v 0.022018 0.014674 0.022199
v -0.022781 0.014674 0.022199
v -0.014679 0.219204 0.069379
v 0.003555 0.208680 0.069379
v 0.018860 0.217839 0.070112
v 0.019135 0.235675 0.070844
v 0.000916 0.246199 0.070844
v -0.014389 0.237040 0.070112
v -0.032135 -0.216323 -0.008868
v -0.016098 -0.216094 -0.037676
v 0.022812 -0.216095 -0.037676
v 0.038864 -0.216324 -0.008868
v 0.022812 -0.216554 0.019941
v -0.016098 -0.216554 0.019941
vt 0.671538 0.648710
vt 0.671538 0.648710
vt 0.671538 0.648710
vt 0.671538 0.648710
vt 0.671538 0.648710
vt 0.671538 0.648710
vt 0.671538 0.648710
vt 0.671538 0.648710
vt 0.671538 0.648710
vt 0.671538 0.648710
vt 0.671538 0.648710
vt 0.671538 0.648710
vt 0.671538 0.648710
vt 0.671538 0.648710
vt 0.671538 0.648710
vt 0.671538 0.648710
vt 0.671538 0.648710
vt 0.671538 0.648710
vt 0.671538 0.648710
vt 0.671538 0.648710
vt 0.671538 0.648710
vt 0.671538 0.648710
vt 0.671538 0.648710
vt 0.671538 0.648710
vt 0.671538 0.648710
vt 0.671538 0.648710
vt 0.671538 0.648710
vt 0.671538 0.648710
vt 0.671538 0.648710
vt 0.671538 0.648710
vt 0.671538 0.648710
vt 0.671538 0.648710
vt 0.671538 0.648710
vt 0.671538 0.648710
vt 0.671538 0.648710
vt 0.671538 0.648710
vt 0.671538 0.648710
vt 0.671538 0.648710
vt 0.671538 0.648710
vt 0.671538 0.648710
vt 0.671538 0.648710
vt 0.671538 0.648710
vt 0.671538 0.648710
vt 0.671538 0.648710
vt 0.671538 0.648710
vt 0.671538 0.648710
vt 0.671538 0.648710
vt 0.671538 0.648710
vt 0.671538 0.648710
vt 0.671538 0.648710
vt 0.671538 0.648710
vt 0.671538 0.648710
vt 0.671538 0.648710
vt 0.671538 0.648710
vt 0.671538 0.648710
vt 0.671538 0.648710
vt 0.671538 0.648710
vt 0.671538 0.648710
vt 0.671538 0.648710
vt 0.671538 0.648710
vt 0.671538 0.648710
vt 0.671538 0.648710
vt 0.671538 0.648710
vt 0.671538 0.648710
vt 0.671538 0.648710
vt 0.671538 0.648710
vt 0.671538 0.648710
vt 0.671538 0.648710
vt 0.671538 0.648710
vt 0.671538 0.648710
vt 0.671538 0.648710
vt 0.671538 0.648710
vt 0.671538 0.648710
vt 0.671538 0.648710
vt 0.671538 0.648710
vt 0.671538 0.648710
vt 0.671538 0.648710
vt 0.671538 0.648710
vt 0.671538 0.648710
vt 0.671538 0.648710
vt 0.671538 0.648710
vt 0.671538 0.648710
vt 0.671538 0.648710
vt 0.671538 0.648710
vt 0.671538 0.648710
vt 0.671538 0.648710
vt 0.671538 0.648710
vt 0.671538 0.648710
vt 0.671538 0.648710
vt 0.671538 0.648710
vt 0.671538 0.648710
vt 0.671538 0.648710
vt 0.671538 0.648710
vt 0.671538 0.648710
vt 0.671538 0.648710
vt 0.671538 0.648710
vt 0.671538 0.648710
vt 0.671538 0.648710
vt 0.671538 0.648710
vt 0.671538 0.648710
vt 0.671538 0.648710
vt 0.671538 0.648710
vt 0.671538 0.648710
vt 0.671538 0.648710
vt 0.671538 0.648710
vt 0.671538 0.648710
vt 0.671538 0.648710
vt 0.671538 0.648710
vt 0.671538 0.648710
vt 0.671538 0.648710
vt 0.671538 0.648710
vt 0.671538 0.648710
vt 0.671538 0.648710
vt 0.671538 0.648710
vt 0.671538 0.648710
vt 0.671538 0.648710
vt 0.671538 0.648710
vt 0.671538 0.648710
vt 0.671538 0.648710
vt 0.671538 0.648710
vt 0.671538 0.648710
vt 0.671538 0.648710
vt 0.671538 0.648710
vt 0.671538 0.648710
vt 0.671538 0.648710
vt 0.671538 0.648710
vt 0.671538 0.648710
vt 0.671538 0.648710
vt 0.671538 0.648710
vt 0.671538 0.648710
vt 0.671538 0.648710
vt 0.671538 0.648710
vt 0.671538 0.648710
vt 0.671538 0.648710
vt 0.671538 0.648710
vt 0.671538 0.648710
vt 0.671538 0.648710
vt 0.671538 0.648710
vt 0.671538 0.648710
vt 0.671538 0.648710
vt 0.671538 0.648710
vt 0.671538 0.648710
vt 0.671538 0.648710
vt 0.671538 0.648710
vt 0.671538 0.648710
vt 0.671538 0.648710
vt 0.671538 0.648710
vt 0.671538 0.648710
vt 0.671538 0.648710
vt 0.671538 0.648710
vt 0.671538 0.648710
vt 0.671538 0.648710
vt 0.671538 0.648710
vt 0.671538 0.648710
vt 0.671538 0.648710
vt 0.671538 0.648710
vt 0.671538 0.648710
vt 0.671538 0.648710
vt 0.671538 0.648710
vt 0.671538 0.648710
vt 0.671538 0.648710
vt 0.671538 0.648710
vt 0.671538 0.648710
vt 0.671538 0.648710
vt 0.671538 0.648710
vt 0.671538 0.648710
vt 0.671538 0.648710
vt 0.671538 0.648710
vt 0.671538 0.648710
vt 0.671538 0.648710
vt 0.671538 0.648710
vt 0.671538 0.648710
vt 0.671538 0.648710
vt 0.671538 0.648710
vt 0.671538 0.648710
vt 0.671538 0.648710
vt 0.671538 0.648710
vt 0.671538 0.648710
vt 0.671538 0.648710
vt 0.671538 0.648710
vt 0.671538 0.648710
vt 0.671538 0.648710
vt 0.671538 0.648710
vt 0.671538 0.648710
vt 0.671538 0.648710
vt 0.671538 0.648710
vt 0.671538 0.648710
vt 0.671538 0.648710
vt 0.671538 0.648710
vt 0.671538 0.648710
vt 0.671538 0.648710
vt 0.671538 0.648710
vt 0.671538 0.648710
vt 0.671538 0.648710
vt 0.671538 0.648710
vt 0.671538 0.648710
vt 0.671538 0.648710
vt 0.671538 0.648710
vt 0.671538 0.648710
vt 0.671538 0.648710
vt 0.671538 0.648710
vt 0.671538 0.648710
vt 0.671538 0.648710
vt 0.671538 0.648710
vt 0.671538 0.648710
vt 0.671538 0.648710
vt 0.671538 0.648710
vt 0.671538 0.648710
vt 0.671538 0.648710
vt 0.671538 0.648710
vt 0.671538 0.648710
vt 0.671538 0.648710
vt 0.671538 0.648710
vt 0.671538 0.648710
vt 0.671538 0.648710
vt 0.671538 0.648710
vn -0.499524 -0.865100 -0.045587
vn -0.499524 -0.865100 -0.045587
vn -0.500044 -0.866000 0.000078
vn -0.500044 -0.866000 -0.000081
vn -0.999181 0.017316 -0.036574
vn -0.999181 0.017316 -0.036574
vn -0.999873 0.015876 -0.001226
vn -0.999875 0.015777 0.001179
vn -0.513793 0.857880 0.007656
vn -0.513793 0.857880 0.007656
vn -0.513547 0.858061 0.000273
vn -0.513529 0.858072 -0.000257
vn 0.499523 0.865100 0.045587
vn 0.499523 0.865100 0.045587
vn 0.500043 0.866001 0.000080
vn 0.500043 0.866001 -0.000079
vn 0.999192 -0.016884 0.036461
vn 0.999192 -0.016884 0.036461
vn 0.999882 -0.015349 -0.001175
vn 0.999880 -0.015448 0.001222
vn 0.513587 -0.858003 -0.007733
vn 0.513587 -0.858003 -0.007733
vn 0.513321 -0.858197 0.000260
vn 0.513339 -0.858186 -0.000276
vn -0.467879 -0.810126 -0.353249
vn -0.467879 -0.810126 -0.353249
vn -0.467879 -0.810126 -0.353249
vn -0.467879 -0.810126 -0.353249
vn -0.927019 0.029713 -0.373835
vn -0.927019 0.029713 -0.373835
vn -0.927019 0.029713 -0.373835
vn -0.927019 0.029713 -0.373835
vn -0.464446 0.805449 -0.368160
vn -0.464446 0.805449 -0.368160
vn -0.464446 0.805449 -0.368160
vn -0.464446 0.805449 -0.368160
vn 0.469587 0.813650 -0.342728
vn 0.469587 0.813650 -0.342728
vn 0.469587 0.813650 -0.342728
vn 0.469587 0.813650 -0.342728
vn 0.929798 0.000636 -0.368070
vn 0.929798 0.000636 -0.368070
vn 0.929798 0.000636 -0.368070
vn 0.929798 0.000636 -0.368070
vn 0.489037 -0.788050 -0.373926
vn 0.489037 -0.788050 -0.373925
vn 0.489037 -0.788050 -0.373926
vn 0.489037 -0.788050 -0.373926
vn -0.164296 -0.284520 0.944487
vn -0.164295 -0.284520 0.944487
vn -0.164295 -0.284520 0.944487
vn -0.290158 -0.033926 0.956377
vn -0.290158 -0.033926 0.956377
vn -0.290158 -0.033926 0.956377
vn -0.162356 0.192931 0.967687
vn -0.162356 0.192931 0.967687
vn -0.162356 0.192931 0.967687
vn 0.123189 0.213459 0.969154
vn 0.123189 0.213459 0.969154
vn 0.123189 0.213459 0.969154
vn 0.248293 -0.044108 0.967680
vn 0.248293 -0.044108 0.967680
vn 0.248293 -0.044108 0.967680
vn 0.115631 -0.268297 0.956371
vn 0.115631 -0.268297 0.956371
vn 0.115631 -0.268297 0.956371
vn 0.000000 0.003660 -0.999993
vn 0.000000 0.003660 -0.999993
vn -0.000000 -0.013103 -0.999914
vn -0.000000 -0.013166 -0.999913
vn -0.873459 -0.015949 -0.486637
vn -0.873588 0.010036 -0.486562
vn -0.873588 0.010036 -0.486562
vn -0.873460 -0.015888 -0.486638
vn -0.873655 -0.021539 0.486068
vn -0.873655 -0.021539 0.486068
vn -0.873688 -0.011959 0.486339
vn -0.873688 -0.011959 0.486339
vn 0.000000 -0.024651 0.999696
vn 0.000000 -0.041534 0.999137
vn 0.000000 -0.041534 0.999137
vn 0.000000 -0.024587 0.999698
vn 0.873392 -0.024757 0.486388
vn 0.872613 -0.050778 0.485766
vn 0.872613 -0.050778 0.485766
vn 0.873394 -0.024663 0.486389
vn 0.873414 -0.019076 -0.486605
vn 0.873282 -0.028751 -0.486366
vn 0.873282 -0.028751 -0.486366
vn 0.873414 -0.019089 -0.486604
vn 0.000000 -0.420818 0.907145
vn 0.000000 -0.420818 0.907145
vn 0.000000 -0.420818 0.907145
vn 0.000000 -0.420818 0.907145
vn -0.779534 -0.447179 0.438585
vn -0.779534 -0.447180 0.438585
vn -0.779534 -0.447180 0.438585
vn -0.779534 -0.447180 0.438585
vn -0.782587 -0.449082 -0.431142
vn -0.782587 -0.449082 -0.431142
vn -0.782587 -0.449082 -0.431142
vn -0.782587 -0.449082 -0.431142
vn -0.000008 -0.424349 -0.905499
vn -0.000008 -0.424349 -0.905499
vn -0.000008 -0.424349 -0.905499
vn -0.000008 -0.424349 -0.905499
vn 0.782514 -0.449528 -0.430809
vn 0.782514 -0.449529 -0.430809
vn 0.782514 -0.449528 -0.430809
vn 0.782514 -0.449528 -0.430809
vn 0.779453 -0.447629 0.438271
vn 0.779453 -0.447629 0.438271
vn 0.779453 -0.447629 0.438271
vn 0.779453 -0.447629 0.438271
vn 0.000000 -0.999941 0.010897
vn 0.000000 -0.999941 0.010897
vn 0.000000 -0.999941 0.010897
vn 0.000000 -0.999941 0.010897
vn 0.000000 -0.999941 0.010897
vn 0.000000 -0.999941 0.010897
vn 0.000000 -0.999941 0.010853
vn 0.000000 -0.999941 0.010853
vn 0.000000 -0.999941 0.010853
vn -0.000030 -0.999941 0.010871
vn -0.000030 -0.999941 0.010871
vn -0.000030 -0.999941 0.010871
vn 0.000000 -0.999941 0.010891
vn 0.000000 -0.999941 0.010891
vn 0.000000 -0.999941 0.010891
vn 0.000000 -0.999941 0.010897
vn 0.000000 -0.999941 0.010897
vn 0.000000 -0.999941 0.010897
vn -0.000000 0.000000 -1.000000
vn -0.000000 0.000000 -1.000000
vn -0.000000 0.000000 -1.000000
vn -0.000000 0.000000 -1.000000
vn -0.873871 0.000000 -0.486157
vn -0.873871 0.000000 -0.486157
vn -0.873871 0.000000 -0.486157
vn -0.873871 0.000000 -0.486157
vn -0.873871 0.000000 0.486157
vn -0.873871 0.000000 0.486157
vn -0.873871 0.000000 0.486157
vn -0.873871 0.000000 0.486157
vn 0.000000 0.000000 1.000000
vn 0.000000 0.000000 1.000000
vn 0.000000 0.000000 1.000000
vn 0.000000 0.000000 1.000000
vn 0.873711 0.000000 0.486446
vn 0.873710 0.000000 0.486446
vn 0.873710 0.000000 0.486446
vn 0.873711 0.000000 0.486446
vn 0.873711 0.000000 -0.486446
vn 0.873711 0.000000 -0.486446
vn 0.873711 0.000000 -0.486446
vn 0.873711 0.000000 -0.486446
vn 0.000000 0.117912 -0.993024
vn 0.000000 0.117912 -0.993024
vn 0.000000 0.117912 -0.993024
vn 0.000000 0.117912 -0.993024
vn -0.868261 0.126659 -0.479668
vn -0.868261 0.126659 -0.479668
vn -0.868261 0.126659 -0.479668
vn -0.868261 0.126659 -0.479668
vn -0.865377 0.126322 0.484938
vn -0.865377 0.126322 0.484938
vn -0.865377 0.126322 0.484938
vn -0.865377 0.126322 0.484938
vn -0.000000 0.117472 0.993076
vn -0.000000 0.117472 0.993076
vn -0.000000 0.117472 0.993076
vn -0.000000 0.117472 0.993076
vn 0.865182 0.126321 0.485287
vn 0.865182 0.126321 0.485287
vn 0.865182 0.126321 0.485287
vn 0.865182 0.126321 0.485287
vn 0.868067 0.126657 -0.480019
vn 0.868067 0.126657 -0.480019
vn 0.868067 0.126657 -0.480019
vn 0.868067 0.126657 -0.480019
vn -0.000002 0.882148 -0.470972
vn -0.000002 0.882148 -0.470972
vn -0.000002 0.882148 -0.470972
vn -0.405437 0.891482 -0.202190
vn -0.405437 0.891482 -0.202190
vn -0.405437 0.891482 -0.202190
vn -0.401207 0.882180 0.246559
vn -0.401207 0.882180 0.246559
vn -0.401207 0.882180 0.246559
vn 0.000000 0.862401 0.506226
vn 0.000000 0.862401 0.506226
vn 0.000000 0.862401 0.506226
vn 0.401180 0.882121 0.246814
vn 0.401180 0.882121 0.246814
vn 0.401180 0.882121 0.246814
vn 0.405415 0.891433 -0.202450
vn 0.405415 0.891433 -0.202450
vn 0.405415 0.891433 -0.202450
vn -0.835900 -0.064386 -0.545092
vn -0.839601 -0.021004 -0.542797
vn -0.840400 -0.007990 -0.541908
vn -0.835900 -0.064386 -0.545092
vn 0.000000 -0.016119 -0.999870
vn 0.000000 -0.015373 -0.999882
vn -0.000002 -0.205241 -0.978711
vn -0.000002 -0.205241 -0.978711
vn 0.879976 -0.141293 -0.453518
vn 0.882758 -0.043785 -0.467783
vn 0.881525 -0.005769 -0.472101
vn 0.879976 -0.141293 -0.453518
vn 0.852583 -0.230791 0.468869
vn 0.873720 -0.027409 0.485657
vn 0.873641 -0.032461 0.485488
vn 0.852583 -0.230791 0.468869
vn 0.032695 -0.055387 0.997930
vn 0.026944 -0.020797 0.999421
vn 0.028972 -0.032973 0.999036
vn 0.032695 -0.055387 0.997930
vn -0.873843 -0.021032 0.485754
vn -0.873811 -0.020704 0.485825
vn -0.873810 -0.020699 0.485826
vn -0.873843 -0.021032 0.485754
vn -0.839601 -0.021004 -0.542797
vn -0.867518 -0.025697 -0.496742
vn -0.867317 -0.025221 -0.497116
vn -0.840400 -0.007990 -0.541908
vn -0.000000 0.009623 -0.999954
vn -0.000000 0.010108 -0.999949
vn 0.000000 -0.015373 -0.999882
vn 0.000000 -0.016119 -0.999870
vn 0.882758 -0.043785 -0.467783
vn 0.874386 0.002774 -0.485222
vn 0.874402 0.003019 -0.485193
vn 0.881525 -0.005769 -0.472101
vn 0.873720 -0.027409 0.485657
vn 0.873241 0.019765 0.486888
vn 0.873236 0.019934 0.486889
vn 0.873641 -0.032461 0.485488
vn 0.026944 -0.020797 0.999421
vn 0.005360 -0.008812 0.999947
vn 0.005007 -0.008875 0.999948
vn 0.028972 -0.032973 0.999036
vn -0.873810 -0.020699 0.485826
vn -0.873811 -0.020704 0.485825
vn -0.873613 -0.027919 0.485819
vn -0.873611 -0.028013 0.485818
vn -0.500044 -0.866000 -0.000081
vn -0.500044 -0.866000 0.000078
vn -0.499175 -0.864494 0.058946
vn -0.499175 -0.864494 0.058946
vn 0.513339 -0.858186 -0.000276
vn 0.513321 -0.858197 0.000260
vn 0.512950 -0.858360 0.010052
vn 0.512950 -0.858360 0.010052
vn 0.999880 -0.015448 0.001222
vn 0.999882 -0.015349 -0.001175
vn 0.998790 -0.013438 -0.047299
vn 0.998790 -0.013438 -0.047299
vn 0.500043 0.866001 -0.000079
vn 0.500043 0.866001 0.000080
vn 0.499173 0.864495 -0.058947
vn 0.499173 0.864495 -0.058947
vn -0.513529 0.858072 -0.000257
vn -0.513547 0.858061 0.000273
vn -0.513161 0.858235 -0.009952
vn -0.513161 0.858235 -0.009952
vn -0.999875 0.015777 0.001179
vn -0.999873 0.015876 -0.001226
vn -0.998778 0.013860 0.047445
vn -0.998778 0.013860 0.047445
vn -0.867518 -0.025697 -0.496742
vn -0.873459 -0.015949 -0.486637
vn -0.873460 -0.015888 -0.486638
vn -0.867317 -0.025221 -0.497116
vn -0.000000 -0.013166 -0.999913
vn -0.000000 -0.013103 -0.999914
vn -0.000000 0.010108 -0.999949
vn -0.000000 0.009623 -0.999954
vn 0.874386 0.002774 -0.485222
vn 0.873414 -0.019076 -0.486605
vn 0.873414 -0.019089 -0.486604
vn 0.874402 0.003019 -0.485193
vn 0.873241 0.019765 0.486888
vn 0.873392 -0.024757 0.486388
vn 0.873394 -0.024663 0.486389
vn 0.873236 0.019934 0.486889
vn 0.005360 -0.008812 0.999947
vn 0.000000 -0.024651 0.999696
vn 0.000000 -0.024587 0.999698
vn 0.005007 -0.008875 0.999948
vn -0.873611 -0.028013 0.485818
vn -0.873613 -0.027919 0.485819
vn -0.873655 -0.021539 0.486068
vn -0.873655 -0.021539 0.486068
s off
f 1/1/1 2/2/2 64/199/3 65/202/4
f 2/5/5 3/6/6 69/209/7 64/200/8
f 3/9/9 4/10/10 68/207/11 69/210/12
f 4/13/13 5/14/14 67/205/15 68/208/16
f 5/17/17 6/18/18 66/203/19 67/206/20
f 6/21/21 1/22/22 65/201/23 66/204/24
f 2/25/25 1/26/26 13/27/27 14/28/28
f 3/29/29 2/30/30 14/31/31 15/32/32
f 4/33/33 3/34/34 15/35/35 16/36/36
f 5/37/37 4/38/38 16/39/39 17/40/40
f 6/41/41 5/42/42 17/43/43 18/44/44
f 1/45/45 6/46/46 18/47/47 13/48/48
f 14/49/49 13/50/50 19/51/51
f 15/52/52 14/53/53 19/54/54
f 16/55/55 15/56/56 19/57/57
f 17/58/58 16/59/59 19/60/60
f 18/61/61 17/62/62 19/63/63
f 13/64/64 18/65/65 19/66/66
f 24/69/67 23/70/68 71/212/69 72/213/70
f 71/212/71 23/70/72 22/72/73 70/211/74
f 75/216/75 70/211/76 22/72/77 21/74/78
f 75/216/79 21/74/80 20/76/81 74/215/82
f 74/215/83 20/76/84 25/78/85 73/214/86
f 73/214/87 25/78/88 24/69/89 72/213/90
f 20/79/91 21/80/92 33/81/93 32/82/94
f 21/83/95 22/84/96 34/85/97 33/86/98
f 22/87/99 23/88/100 35/89/101 34/90/102
f 23/91/103 24/92/104 36/93/105 35/94/106
f 24/95/107 25/96/108 37/97/109 36/98/110
f 25/99/111 20/100/112 32/101/113 37/102/114
f 32/103/115 33/104/116 38/105/117
f 33/106/118 34/107/119 38/108/120
f 34/109/121 35/110/122 38/111/123
f 35/112/124 36/113/125 38/114/126
f 36/115/127 37/116/128 38/117/129
f 37/118/130 32/119/131 38/120/132
f 26/121/133 27/122/134 40/123/135 39/124/136
f 27/125/137 28/126/138 41/127/139 40/128/140
f 28/129/141 29/130/142 42/131/143 41/132/144
f 29/133/145 30/134/146 43/135/147 42/136/148
f 30/137/149 31/138/150 44/139/151 43/140/152
f 31/141/153 26/142/154 39/143/155 44/144/156
f 39/145/157 40/146/158 46/147/159 45/148/160
f 40/149/161 41/150/162 47/151/163 46/152/164
f 41/153/165 42/154/166 48/155/167 47/156/168
f 42/157/169 43/158/170 49/159/171 48/160/172
f 43/161/173 44/162/174 50/163/175 49/164/176
f 44/165/177 39/166/178 45/167/179 50/168/180
f 45/169/181 46/170/182 51/171/183
f 46/172/184 47/173/185 51/174/186
f 47/175/187 48/176/188 51/177/189
f 48/178/190 49/179/191 51/180/192
f 49/181/193 50/182/194 51/183/195
f 50/184/196 45/185/197 51/186/198
f 27/67/199 53/188/200 52/187/201 28/71/202
f 54/189/203 53/188/204 27/67/205 26/68/206
f 31/77/207 55/190/208 54/189/209 26/68/210
f 30/75/211 56/191/212 55/190/213 31/77/214
f 29/73/215 57/192/216 56/191/217 30/75/218
f 28/71/219 52/187/220 57/192/221 29/73/222
f 53/188/223 59/194/224 58/193/225 52/187/226
f 60/195/227 59/194/228 53/188/229 54/189/230
f 55/190/231 61/196/232 60/195/233 54/189/234
f 56/191/235 62/197/236 61/196/237 55/190/238
f 57/192/239 63/198/240 62/197/241 56/191/242
f 57/192/243 52/187/244 58/193/245 63/198/246
f 65/202/247 64/199/248 8/3/249 7/4/250
f 66/204/251 65/201/252 7/23/253 12/24/254
f 67/206/255 66/203/256 12/19/257 11/20/258
f 68/208/259 67/205/260 11/15/261 10/16/262
f 69/210/263 68/207/264 10/11/265 9/12/266
f 64/200/267 69/209/268 9/7/269 8/8/270
f 59/194/271 71/212/272 70/211/273 58/193/274
f 72/213/275 71/212/276 59/194/277 60/195/278
f 61/196/279 73/214/280 72/213/281 60/195/282
f 62/197/283 74/215/284 73/214/285 61/196/286
f 63/198/287 75/216/288 74/215/289 62/197/290
f 63/198/291 58/193/292 70/211/293 75/216/294
